<?xml version="1.0" encoding="UTF-8"?>
<!-- Created with Inkscape (http://www.inkscape.org/) -->
<svg id="Layer_1" width="286.2" height="233.07" version="1.0" viewBox="0 0 286.2 233.07" xml:space="preserve" xmlns="http://www.w3.org/2000/svg">

<g id="g5" fill-rule="evenodd">
	<path id="path7" d="m86.962 194.16c-0.468 4.535-1.908 9.323-4.86 14.363-2.988 5.004-6.768 11.448-12.456 15.588-5.832 3.996-14.292 7.704-21.636 8.604-7.416 0.756-14.94 0.504-21.996-3.672-7.092-4.356-15.588-12.097-19.944-21.42-4.32-9.433-6.156-24.372-6.048-34.272-0.072-10.044 3.456-18 5.868-24.552 2.34-6.444 5.04-11.088 8.244-13.932-1.872 0.107-3.024-0.217-3.312-1.261-0.36-1.115-0.576-2.52 1.296-4.788 1.836-2.411 5.976-6.372 9.504-8.964 3.384-2.592 6.948-4.68 10.836-6.408-2.052-0.756-3.348-1.98-4.032-3.672-0.684-1.728-0.684-3.924 0-6.588-2.52-0.54-4.536-1.08-6.048-2.016-1.548-0.972-3.096-1.944-3.132-3.312-0.216-1.512 1.404-3.564 2.376-4.752 0.864-1.188 1.368-1.728 3.312-2.016 1.908-0.36 4.608-0.36 8.244 0l0.54-1.656c-2.7 0.144-4.968-0.324-6.948-1.404-2.052-1.152-3.708-2.592-4.968-5.148-1.296-2.7-2.844-6.012-2.556-10.62 0.18-4.788 1.584-11.916 4.212-17.208 2.52-5.328 7.236-9.9 11.376-14.112 4.14-4.176 8.388-7.776 13.176-10.8 0.396-2.412 0.252-4.428-0.72-6.048-1.08-1.8-3.384-2.304-4.968-3.852-1.656-1.512-3.96-3.168-4.392-5.112-0.504-2.196-0.648-4.968 1.656-7.344 2.268-2.448 8.46-5.76 11.916-6.588 3.312-0.864 6.696 0.108 8.064 1.656 1.224 1.512 0.612 5.256-0.18 7.488-0.864 2.016-3.888 2.952-4.608 5.328-0.756 2.448-0.648 5.364 0.18 9.144 3.24-3.24 7.56-6.768 13.392-10.44 5.868-3.816 14.832-9.54 21.06-11.916 6.012-2.448 10.188-2.592 15.012-2.376 4.752 0.108 9.432 0.9 13.212 3.492 3.636 2.664 6.444 8.208 8.424 11.916 1.764 3.564 2.16 5.832 2.556 9.324 0.396 3.456 0.288 7.056-0.18 11.196l-2.196 1.44c-0.144 0.324 0.216 0.648 1.08 0.576 0.828-0.18 2.16-0.576 3.852-0.756 1.62-0.18 3.672-0.144 5.868-0.18 2.052-0.144 4.248-0.072 6.588-0.18 0.72-0.792 1.693-1.44 3.313-1.656 1.512-0.288 3.239-0.468 5.868 0 2.592 0.396 6.588 0.756 9.504 2.196 2.735 1.296 5.58 3.852 7.164 5.868 1.584 1.872 2.268 3.96 2.195 5.868 0.612 0.828 1.584 1.116 2.916 0.72 1.296-0.396 2.952-1.008 4.968-3.096 2.017-2.304 4.608-7.416 6.948-9.9 2.16-2.484 3.349-3.528 6.048-4.932 2.557-1.512 5.688-3.312 9.54-4.032 3.78-0.792 8.172-0.972 13.177-0.54 2.916-4.68 5.796-8.712 8.783-12.492 2.88-3.888 5.509-7.956 9-9.864 3.42-1.8 7.633-1.764 12.061-1.296 4.428 0.324 10.224 1.368 14.472 3.132 4.141 1.512 7.416 4.536 10.26 6.588 2.7 1.98 5.148 3.78 6.229 5.688 1.008 1.908 0.899 3.744-0.18 5.652 1.079 1.404 1.871 3.348 2.376 5.688 0.432 2.412 1.584 3.6 0.396 8.424-1.368 4.68-3.924 11.124-8.063 19.62l2.915 0.9c2.664-0.684 4.969-0.864 6.769-0.54 1.8 0.18 2.952 0.972 4.032 2.376 0.972 1.404 2.052 4.356 1.836 6.228-0.433 1.836-1.98 3.78-3.672 4.572-1.729 0.54-3.492 0.216-6.408-0.54-2.988-0.72-6.769-1.944-11.34-3.672-0.792 0.9-1.477 1.62-2.196 2.556-0.684 0.828-1.404 1.692-2.016 2.592v3.096c1.08-0.684 2.268-0.972 3.275-0.72 0.864 0.108 1.8 0.684 2.952 2.016 1.188 1.404 3.78 3.888 4.572 6.048 0.72 1.979 0.611 3.888-0.18 5.868l-35.713 35.712c0.973 2.844 1.116 7.128 0.721 12.996-0.433 5.867-1.368 15.336-3.492 21.995-2.269 6.589-6.336 12.313-9.864 17.028-3.6 4.536-7.236 8.424-11.736 10.26-4.68 1.656-11.268 1.116-15.588 0.181-4.283-1.116-7.523-3.132-9.863-6.048-2.484-2.988-3.889-6.624-4.608-11.341-8.532 1.404-17.064 3.024-25.992 5.292-8.964 2.16-18.72 4.86-27.324 7.704-8.712 2.809-18.108 6.444-24.156 8.964-5.976 2.448-9.252 4.824-11.916 5.328-2.882 0.254-4.25-0.681-4.647-3.237zm140.11-170.5c5.256-2.376 9.828-4.068 13.86-5.076 3.924-1.044 6.443-1.188 10.044-1.26 3.6-0.18 7.199-0.072 11.231 0.324-6.443-2.412-11.592-4.212-15.731-5.256-4.177-1.224-6.553-2.088-9.072-1.224-2.521 0.936-4.572 4.536-6.156 6.768-1.8 2.053-3.06 3.961-4.176 5.724z" stroke="#000" stroke-miterlimit="10" stroke-width=".036"/>
	<path id="path9" d="m88.799 175.95c0.252-1.943 0.36-4.428 0.324-7.596-0.072-3.276-0.288-7.848-0.792-11.34-0.648-3.564-1.548-6.696-2.844-9.685l-2.34 7.129c0.576 2.376 0.9 5.22 0.972 8.531 0.072 3.24 0.072 6.48-0.684 11.124-0.864 4.645-2.304 9.973-4.32 16.38 0.36 1.765 1.152 2.664 2.088 2.412 0.9-0.216 2.412-0.936 3.708-3.708 1.332-2.806 2.448-7.27 3.888-13.247z" fill="#284146"/>
	<path id="path11" d="m29.903 155.64c-0.684 2.269-1.296 4.608-1.836 7.021-0.54 2.411-1.044 3.6-1.368 7.308-0.468 3.528-1.368 9.468-1.188 14.076 0.036 4.5 0.288 8.855 1.584 13.212 1.224 4.428 3.42 9.216 6.048 12.815 2.52 3.421 5.508 6.229 9.108 7.74 3.564 1.404 8.172 1.332 12.024 0.756 3.636-0.72 7.092-2.304 10.368-4.896 3.168-2.772 6.66-6.696 9.108-10.656 2.376-3.888 4.212-8.063 5.364-12.528 1.224-1.044 2.52-2.195 3.744-3.6 1.296-1.368 2.448-2.988 3.6-4.716 1.044-1.836 1.692-3.96 2.34-6.229-1.08 7.093-2.124 13.068-3.132 18.072-1.08 4.932-1.404 7.92-3.204 11.736-1.872 3.815-4.716 7.632-7.848 11.16-3.276 3.42-6.228 6.876-11.232 9.396-5.112 2.448-12.924 5.04-18.972 5.256-6.12 0.108-11.664-0.864-17.316-4.319-5.76-3.601-12.924-9.792-16.92-16.776-3.996-7.128-6.084-17.604-7.236-25.021-1.296-7.416-1.476-12.348-0.396-18.972 1.044-6.768 5.364-17.532 6.552-21.023 1.044-3.528 1.044-3.528 0 0 1.728 0.071 3.672 0.54 5.688 1.26 2.016 0.756 4.536 1.943 6.444 3.023 1.656 0.828 3.024 1.584 4.392 2.557 1.403 1.044 2.88 1.979 4.284 3.348z" fill="#506e6e"/>
	<path id="path13" d="m9.095 145.46c1.404-2.952 2.952-5.364 4.788-7.524 1.692-2.16 3.492-3.924 5.976-5.292 2.412-1.548 5.652-2.592 8.892-3.132 3.132-0.612 7.596-0.468 10.476 0s4.932 1.332 6.552 2.735c-3.096 2.7-5.688 5.545-7.92 8.532-2.268 2.88-4.14 6.588-5.472 9.181-1.332 2.592-2.16 4.607-2.484 6.191-2.628-2.16-5.652-3.996-9.072-5.796-3.564-1.799-7.344-3.383-11.736-4.895z" fill="#284146"/>
	<path id="path15" d="m15.935 196c-1.26-2.809-3.78-7.704-4.5-12.601-0.864-4.859-1.62-11.448-0.468-16.164 1.008-4.896 4.968-10.943 7.02-12.312 2.088-1.332 4.932 0.144 5.184 3.996 0.036 3.708-3.42 13.031-4.392 18.107-1.008 4.896-1.26 7.776-1.188 11.557 0.072 3.743 1.548 9.288 1.368 10.655-0.396 1.226-1.729-0.682-3.024-3.238z" fill="#78878c"/>
	<path id="path17" d="m14.17 164.82c-0.144-1.872 1.008-4.716 2.052-5.903 0.972-1.261 3.024-1.872 3.924-1.152 0.792 0.756 1.692 3.492 1.188 5.58-0.72 1.979-3.492 5.796-4.716 6.156-1.331 0.107-2.339-2.88-2.448-4.681z" fill="#a0afaf"/>
	<path id="path19" d="m126.85 23.668c-0.36-2.628-1.044-5.184-2.34-7.812-1.332-2.736-3.636-5.904-5.256-7.956-1.656-2.016-2.448-3.132-4.608-4.032-2.304-0.972-6.012-1.656-8.748-1.908-2.772-0.36-5.22-0.612-7.884-0.216-2.844 0.252-5.4 0.684-8.784 2.124-3.528 1.404-8.1 3.852-11.772 6.228-3.78 2.268-7.308 4.536-10.296 7.488-3.06 2.952-5.796 6.84-7.668 9.864-1.944 2.88-3.024 5.22-3.636 7.452-0.792 2.196-1.476 4.644-0.396 5.544 1.116 0.648 4.176-0.684 6.84-1.08 2.448-0.432 4.464-1.368 8.424-1.44 4.068-0.216 11.628 0.108 15.3 0.54 3.456 0.288 5.184 0.828 5.616 1.764 0.216 0.972-2.664 2.7-3.636 3.924-1.008 1.08-1.692 2.16-2.196 2.952 3.708-1.908 8.28-4.248 14.4-7.416 6.012-3.276 16.884-8.64 21.492-11.376 4.392-2.699 6.156-4.248 5.148-4.644z" fill="#d7f0e6"/>
	<path id="path21" d="m85.811 47.104c2.376-0.828 4.68-1.512 6.912-2.052 2.196-0.54 4.248-1.152 6.3-1.44 2.88-2.304 5.58-4.104 8.1-5.544 2.412-1.476 4.968-2.808 6.696-3.024 1.512-0.432 1.728 0.756 3.024 1.08 1.224 0.288 2.736 0.72 4.536 0.612 1.8-0.18 3.78-0.72 6.084-1.62 0.216-0.648 0.288-1.908 0.216-3.78-0.072-1.944-0.396-4.5-0.828-7.668-7.884 3.78-14.616 6.912-20.196 10.08-5.688 3.024-9.936 5.832-13.428 8.136-3.456 2.16-5.977 3.997-7.416 5.22z" fill="#78878c"/>
	<path id="path23" d="m68.675 37.997c5.724-5.904 11.016-11.088 16.308-15.696 5.22-4.716 10.368-8.712 14.868-11.988 4.392-3.312 8.064-5.796 11.304-7.596 1.548 0.36 2.7 0.792 3.852 1.296 0.936 0.396 1.872 0.972 2.52 1.584 0.72 0.576 1.152 1.188 1.584 1.98-5.4 2.628-10.692 5.796-16.164 9.36-5.616 3.636-12.312 8.46-16.596 12.132-4.32 3.564-7.128 6.408-8.82 8.928-1.944-0.072-3.636-0.216-5.076-0.144-1.512-0.072-2.772 0.072-3.78 0.144z" fill="#fff" opacity=".54"/>
	<path id="path25" d="m49.378 28.997 4.788-3.744c-0.864-2.988-1.08-5.508-1.044-7.416 0.072-2.016 0.648-3.132 1.584-4.32 0.792-1.332 2.484-2.016 3.276-3.42 0.612-1.512 1.26-4.068 0.972-5.328-0.36-1.368-1.296-2.412-2.952-2.556-1.692-0.288-4.896 0.72-7.128 1.656-2.484 0.972-5.292 2.808-6.912 4.248-1.548 1.332-2.34 2.34-2.52 3.708-0.36 1.188-0.432 2.16 0.756 3.744 1.224 1.584 4.824 3.924 6.372 5.508 1.404 1.368 1.8 1.836 2.304 3.204 0.433 1.296 0.648 2.916 0.504 4.716z" fill="#284146"/>
	<path id="path27" d="m52.979 24.353c-0.072-1.116-1.152-4.104-1.152-5.904-0.072-1.8 1.332-3.492 1.296-4.248-0.108-0.72-1.08-1.008-1.512-0.18-0.54 0.792-1.08 2.772-1.08 4.572 0.036 1.692 0.792 4.392 1.296 5.472 0.432 1.043 1.007 1.043 1.152 0.288z" fill="#a0afaf"/>
	<path id="path29" d="m34.834 62.801c0.18-2.412 0.612-4.86 1.296-7.488 0.684-2.772 1.692-5.76 2.736-8.424 0.864-2.772 2.052-5.436 3.024-7.452 0.9-2.088 1.908-3.528 2.736-4.608 1.26-1.116 2.772-2.376 4.536-3.636 1.8-1.404 4.284-3.348 5.904-4.176 1.512-0.936 2.736-1.44 2.988-0.828 0.072 0.612-1.44 2.628-2.196 4.68-0.828 1.98-2.088 5.436-2.376 7.308-0.324 1.764-0.324 2.664 0.684 3.24 0.828 0.432 2.304 0.252 5.004-0.144 2.772-0.504 7.524-1.908 11.484-2.268 3.852-0.252 8.568 0.036 11.664 0.432 2.952 0.144 5.796 0.108 6.3 1.008 0.396 0.864-2.556 3.024-3.42 4.392-1.008 1.296-2.268 2.88-1.98 3.636 0.252 0.684 1.584 0.792 3.564 0.468 1.908-0.324 4.392-1.368 7.74-2.736-6.3 3.168-12.384 6.588-18.792 10.548-6.408 3.924-12.708 8.1-19.296 12.816-1.368-2.232-3.132-3.924-5.148-5.22-2.052-1.26-4.5-2.304-7.2-2.448-2.735-0.253-5.867-1e-3 -9.252 0.9z" fill="#195ff5"/>
	<path id="path31" d="m39.839 52.36c0.216-2.412 0.324-5.076 2.124-8.136 1.692-3.168 7.02-9.648 8.352-10.296 1.188-0.54-1.188 4.5-0.612 6.372 0.54 1.692 0.756 3.42 4.104 3.636 3.384 0 11.124-2.772 15.84-3.06 4.536-0.36 10.044-0.036 11.52 1.368 1.332 1.26 1.188 3.564-2.952 6.912-4.284 3.492-17.82 11.736-21.996 13.5-4.176 1.476-1.152-3.312-2.736-4.104-1.872-0.828-4.896-0.828-7.128-0.828-2.196 0-4.608 1.296-5.688 0.54-1.116-1.007-1.116-3.527-0.828-5.904z" fill="#4ca7ff"/>
	<path id="path33" d="m20.794 69.029c-0.54 3.996-0.36 7.38 0.684 10.296 1.008 2.844 3.024 5.256 5.472 6.84 2.304 1.404 5.04 1.62 8.64 2.052 3.528 0.252 8.28 0.18 12.456 0.468 4.032 0.432 8.856 0.9 11.952 1.8 3.06 0.792 5.112 1.836 6.3 3.132 3.06-0.036 7.128-0.252 12.6-0.648 5.4-0.54 12.6-0.576 19.656-1.908 6.948-1.44 17.352-3.852 22.068-5.832 4.536-1.98 5.616-4.572 5.76-5.688 0.108-1.188-1.548-1.368-4.824-1.368-3.348-0.18-3.312-0.036-15.048 0.864-11.916 0.828-30.168 2.268-55.584 4.32-1.98 1.26-4.536 1.944-7.524 2.052-3.096 0.036-7.632-0.324-10.548-1.656-3.06-1.476-5.904-4.248-7.128-6.768s-1.224-5.328 0-8.28l-4.932 0.324z" fill="#195ff5"/>
	<path id="path35" d="m41.063 37.673c-1.152 0.972-2.088 1.764-3.204 2.771-1.116 0.864-2.124 1.656-3.168 2.772-1.08 1.116-2.34 2.376-3.384 3.78-1.188 1.296-2.448 2.412-3.384 3.744-0.9 1.188-1.656 2.052-2.268 3.42-0.792 1.296-1.656 2.808-2.196 4.392-0.648 1.404-1.152 2.844-1.512 4.608-0.576 1.836-1.008 3.888-1.152 5.868-0.18 1.872-0.072 4.284 0.324 5.148 0.396 0.684 1.044 0.432 1.944-0.468 0.72-0.936 1.656-3.672 2.664-5.004 0.864-1.44 1.872-2.34 3.168-3.24 1.296-0.972 2.772-1.908 4.572-2.664 0.108-1.548 0.432-2.88 0.576-4.392 0.072-1.548 0.216-2.88 0.576-4.392 0.36-1.584 1.044-3.24 1.656-4.824 0.468-1.692 1.152-3.492 1.656-4.824 0.432-1.476 1.08-2.268 1.548-3.348 0.576-1.151 0.972-2.268 1.584-3.347z" fill="#4ca7ff"/>
	<path id="path37" d="m56.903 71.009c2.016-1.476 4.824-3.276 8.712-5.796 3.816-2.556 8.856-5.868 14.292-9.108 5.4-3.312 13.068-7.74 17.748-10.368 4.5-2.7 7.632-4.428 9.396-5.472-0.216 0.864-0.396 1.656-0.396 2.52-0.072 0.828-0.072 1.584 0 2.412-3.6 2.088-6.552 4.212-9.396 6.768-2.88 2.412-5.256 5.76-7.272 8.1-2.124 2.304-3.6 3.6-4.86 5.832-1.368 2.196-2.448 5.004-2.412 7.308 0.072 2.124 0.252 4.464 3.024 5.616 2.7 0.972 8.532 0.648 13.212 0.576 4.644-0.144 10.8-1.044 14.184-1.188 3.276-0.216 4.86-0.288 5.148-0.072-2.88 2.016-7.632 3.78-14.4 5.292-6.84 1.512-18.612 2.772-26.172 3.636-7.596 0.756-13.644 1.08-18.972 0.828-5.364-0.396-9.72-1.224-13.068-2.772 2.412-0.216 4.536-1.08 6.372-2.736 1.8-1.8 3.564-5.004 4.464-6.984 0.756-1.981 0.936-3.313 0.396-4.392z" fill="#4ca7ff"/>
	<path id="path39" d="m107.81 68.453c3.204 0.756 6.336 1.62 9.792 2.448s8.28 1.692 10.44 2.592c1.836 0.756 1.08 0.576 1.332 2.376 0.252 1.692-0.432 5.868 0.288 8.208 0.576 2.16 1.116 3.24 3.564 5.616 2.556 2.412 8.064 7.02 11.089 8.964 2.664 1.764 3.996 1.728 5.796 2.124 1.8 0.288 3.096-0.648 5.256 0.252 2.088 0.9 4.464 3.06 7.128 5.364 2.556 2.304 6.12 5.94 7.92 8.136 1.548 1.908 1.512 2.52 1.98 4.211 0.432 1.729 0.684 3.708 0.756 6.084-9.072 0.036-18.576-0.252-28.908-1.008-10.513-0.756-30.313-1.728-32.725-3.348-2.34-1.764 15.696-4.932 18.972-7.02 3.132-2.304 3.24-5.004 0.18-6.156-3.24-1.26-10.476-0.792-18.36-0.972-7.92-0.216-20.664-0.216-28.224-0.288-7.488-0.144-12.996-0.324-16.524-0.54-0.108-1.26-0.144-2.628-0.252-4.392-0.144-1.728-0.252-3.708-0.324-5.94 5.544 0.036 11.232-0.288 17.208-0.828 5.904-0.684 12.636-1.548 18.252-2.592 5.652-1.152 10.944-2.592 15.048-4.032 3.924-1.548 7.02-3.168 8.712-4.716 1.548-1.692 1.512-3.672 0.864-4.68-0.828-0.972-2.844-1.296-5.22-1.404-2.52-0.252-6.3-0.252-9.108 0-2.736 0.18-5.22 0.396-7.308 0.936 0.756-2.124 1.224-3.96 1.692-5.508 0.324-1.583 0.648-2.88 0.684-3.887z" fill="#195ff5"/>
	<path id="path41" d="m107.52 155.21c-0.036-0.036-0.756 0.828-2.016 2.592-1.332 1.728-3.924 5.004-5.832 7.884-2.088 2.772-4.464 6.012-6.156 8.893-1.836 2.663-3.312 5.292-4.284 7.884-1.08 2.628-1.26 6.012-1.512 7.812-0.252 1.729-0.324 2.521-0.072 2.521 3.744-3.061 9.792-6.12 18.288-9.324 8.532-3.276 21.852-7.092 32.472-9.9 10.512-2.88 22.464-5.22 30.168-7.164 7.488-2.052 11.736-3.168 15.12-4.464 3.312-1.439 4.319-2.628 5.112-3.42 0.684-0.899 0.287-1.476-0.648-1.296-1.008 0.108-2.844 1.296-5.22 2.196-2.521 0.828-6.444 2.483-9.252 3.023-2.88 0.469-6.517 1.116-7.309-0.144-0.899-1.512 1.62-5.112 2.557-8.028 0.972-2.916 2.159-5.939 3.023-9.216 0.685-3.24 1.26-6.732 1.44-10.332-10.62 4.32-19.62 7.956-27.54 10.908-7.993 2.916-13.069 5.004-19.513 6.66-6.514 1.583-12.562 2.555-18.826 2.915z" fill="#195ff5"/>
	<path id="path43" d="m67.559 104.67c-0.144 1.224 0.072 2.484 0.648 3.78 0.504 1.26 1.044 2.124 2.736 3.852 1.62 1.8 3.312 3.708 7.164 6.264 3.816 2.34 9.756 5.472 15.876 7.74 5.976 2.231 12.996 3.672 20.232 5.436 7.272 1.656 15.552 3.78 22.896 4.717 7.128 0.72 16.596 0.216 19.8 0.432 2.952 0.252 1.872 0.684-1.296 1.152-3.204 0.287-10.368 0.936-17.46 1.115-7.272 0.108-19.08-0.288-25.272-0.216-6.192-0.072-10.08 0.072-11.664 0.145 4.356 1.403 7.344 2.556 9.36 3.456 1.836 0.827 2.052 0.432 2.16 1.728 0.036 1.152-0.648 3.313-1.656 5.508-1.152 2.052-2.628 4.428-4.824 6.984 5.04-0.433 10.224-1.332 15.948-2.7 5.652-1.476 11.268-3.456 17.82-5.652 6.444-2.268 15.157-5.184 20.844-7.344 5.58-2.16 9.72-4.067 12.564-5.58 0-3.204-0.072-5.724-0.072-7.56-0.072-1.836-0.072-3.204-0.145-3.708-3.384 0.216-8.712 0.18-16.38-0.108-7.775-0.468-21.924-1.224-29.232-1.872-7.308-0.611-12.78-1.188-14.04-1.728-1.296-0.685 2.736-0.973 6.408-1.98 3.636-1.188 11.052-2.952 15.156-4.464 3.924-1.62 7.956-3.312 8.64-4.788 0.576-1.44 0.468-3.312-5.041-3.96-5.724-0.756-20.376-0.576-28.404-0.576-8.1-0.18-12.528-0.036-19.656 0-7.234 0-14.794-0.073-23.11-0.073z" fill="#4ca7ff"/>
	<path id="path45" d="m74.975 116.26c0.684 0.396 2.124 1.836 4.86 4.176 2.628 2.304 7.92 7.128 10.872 9.9 2.772 2.556 4.212 4.68 6.408 6.228 2.16 1.62 4.644 2.772 7.056 3.456 4.644-0.144 10.584-0.216 18.36-0.216 7.704-0.072 21.096 0.396 27.541 0 6.3-0.576 10.404-2.269 10.368-2.988-0.252-0.72-6.66-0.756-11.017-1.08-4.428-0.396-8.784-0.504-14.868-1.296-6.192-1.008-14.58-2.376-21.42-3.96-6.876-1.728-14.22-3.672-19.26-5.399-5.076-1.801-7.992-3.421-11.088-4.86-3.204-1.549-5.76-2.774-7.812-3.961z" fill="#87b9f0"/>
	<path id="path47" d="m95.135 106.25c-0.828 0.9-0.828 2.52-0.828 4.032-0.036 1.548-0.396 3.312 0.72 4.86 1.008 1.332 3.78 3.132 5.688 3.6 1.836 0.324 3.672-0.18 5.364-1.224 1.584-1.08 3.996-3.348 4.176-5.004 0.036-1.8-1.656-3.852-3.528-5.184-2.016-1.368-5.76-2.592-7.74-2.7-1.945-0.143-3.133 0.576-3.852 1.62z" stroke="#000" stroke-miterlimit="10" stroke-width=".036"/>
	<path id="path49" d="m95.854 108.23c-0.252 0.9-0.468 2.484-0.252 3.78 0.108 1.08-0.108 1.98 0.9 2.988 0.936 0.864 2.772 2.413 4.536 2.7 1.692 0.217 4.464-0.611 5.256-1.224 0.72-0.648-0.18-1.512-1.044-2.736-1.116-1.404-3.528-4.176-4.86-5.256-1.332-1.188-2.268-1.62-2.952-1.584-0.755-0.108-1.332 0.433-1.584 1.332z" fill="#fef787"/>
	<linearGradient id="XMLID_7_" x1="102.07" x2="102.07" y1="116.8" y2="105.77" gradientUnits="userSpaceOnUse">
		<stop id="stop52" stop-color="#ffe47f" offset="0"/>
		<stop id="stop54" stop-color="#f70" offset="1"/>
	</linearGradient>
	<path id="path56" d="m105.25 116.8c0.756-0.036 1.188-0.468 1.728-1.008 0.54-0.504 1.404-1.404 1.476-2.304-0.072-1.224-0.792-2.484-1.728-3.78-1.08-1.26-3.024-2.628-4.428-3.276-1.584-0.756-3.312-0.72-4.356-0.576-1.08 0.216-1.62 0.684-1.908 1.548-0.432 0.684-0.468 1.872-0.108 2.736 0.36 0.72 1.008 1.512 2.088 2.376 0.972 0.864 2.664 2.196 3.96 3.024 1.189 0.684 2.377 1.151 3.276 1.26z" fill="url(#XMLID_7_)"/>
	<path id="path58" d="m184.49 164.18c1.26-1.008 1.548-1.44 2.376-2.269 0.72-1.008 2.016-3.096 2.088-3.491-0.072-0.504-0.54 0.287-2.232 0.972-1.764 0.612-3.743 1.764-8.172 3.024-4.607 1.188-10.8 2.34-18.576 4.283-7.884 1.872-18.468 4.212-28.008 7.021-9.648 2.664-21.924 6.408-28.908 9-7.02 2.448-9.972 4.14-12.6 5.903-2.664 1.765-2.808 3.24-2.952 4.572-0.252 1.26 0.576 2.34 1.944 2.664 1.368 0.108 3.492-0.396 6.228-1.368 2.556-1.08 3.888-2.34 9.684-4.607 5.832-2.412 16.812-6.48 25.02-9.145 8.1-2.7 16.165-4.752 23.221-6.552 6.911-1.836 13.859-3.024 18.216-3.996 4.212-1.044 5.004-1.188 7.235-2.088 2.124-1.043 4.032-2.952 5.436-3.923z" fill="#4ca7ff"/>
	<path id="path60" d="m192.95 166.66c0.792 1.044 1.584 1.944 2.916 2.7 1.224 0.756 2.304 1.368 4.355 1.692 2.017 0.107 5.005 0.252 7.452-0.54 2.305-0.828 4.104-2.196 6.517-4.393 2.231-2.376 4.932-5.903 7.271-9.468 2.196-3.636 4.393-7.596 6.3-12.023 0.828-1.152 1.729-1.801 2.557-2.088 0.863-0.324 1.728-0.505 2.447 0.432 0.648 0.864 1.045 2.34 1.332 4.572-0.216 2.735-0.827 5.832-1.836 9.288-1.115 3.384-2.592 7.451-4.571 11.231-2.16 3.708-4.969 7.596-7.74 10.692-2.844 3.023-5.688 5.651-8.928 7.2-3.385 1.296-7.272 1.836-10.692 1.476-3.528-0.36-6.948-1.224-9.72-3.168-2.809-2.016-4.968-4.824-6.769-8.568 0.145-3.204 0.54-5.58 1.477-7.128 0.863-1.62 2.447-2.124 3.779-2.34 1.333-0.359 2.485-0.214 3.853 0.433z" fill="#506e6e"/>
	<path id="path62" d="m229.45 133.25c1.116-1.62 2.052-2.952 2.952-4.141 0.864-1.26 1.548-2.231 2.196-3.06 0.611 3.06 1.008 6.264 0.899 9.899-0.107 3.564-0.576 7.381-1.404 11.593-0.144-1.656-0.611-2.664-1.691-3.168-1.08-0.469-2.628-0.433-4.645 0.252 0.54-1.296 0.9-2.952 1.225-4.824 0.288-1.871 0.396-4.104 0.468-6.551z" fill="#284146"/>
	<path id="path64" d="m181.82 169.11c0.324-0.252 1.008-1.008 2.196-2.124 1.224-1.26 3.491-3.708 4.716-4.824 1.008-1.26 1.044-1.836 1.512-1.728 0.36 0.108 0.504 1.584 0.972 2.628 0.433 0.972 1.009 2.268 1.729 3.6-1.692 1.261-3.168 2.593-4.716 4.141-1.584 1.512-2.952 3.096-4.393 4.896-0.54-0.936-0.899-2.016-1.224-3.096-0.396-1.117-0.612-2.233-0.792-3.493z" fill="#284146"/>
	<path id="path66" d="m30.911 156.98c-0.756 1.764-1.404 4.644-2.088 8.784-0.72 4.104-1.872 10.368-1.944 15.588-0.216 5.22 0.144 10.476 1.224 15.192 1.152 4.644 2.592 8.567 5.292 12.06 2.448 3.348 6.336 6.372 10.008 7.812 3.708 1.188 8.172 1.297 12.132 0.181 3.852-1.116 7.74-3.528 10.98-6.552 3.096-3.24 5.976-7.668 8.1-11.736 2.052-3.924 3.312-7.596 4.608-11.988 1.224-4.68 2.376-10.188 2.88-15.264 0.468-5.112 0.36-9.9-0.18-14.796l-2.268 4.932c0.036 5.076-0.18 9.756-0.792 14.437-0.648 4.5-1.512 8.676-2.988 13.104-1.584 4.464-3.744 9.648-6.336 13.464-2.664 3.672-5.652 6.696-9.252 8.532-3.78 1.656-8.748 2.268-12.384 1.836-3.564-0.54-6.228-1.944-8.82-4.5-2.736-2.628-5.76-6.3-7.128-10.728-1.404-4.5-1.404-10.944-1.26-15.732 0.036-4.86 0.972-9.144 1.836-12.708 0.72-3.564 1.62-6.408 2.7-8.532-0.684-1.584-1.26-2.7-2.016-3.204-0.684-0.578-1.548-0.686-2.304-0.182z" fill="#b3c3c0"/>
	<path id="path68" d="m36.022 160.97c-1.512 3.492-2.484 7.344-3.204 11.7-0.828 4.319-1.296 9.396-1.008 14.111 0.288 4.681 0.504 9.612 2.988 13.824 2.34 3.96 6.948 9.108 11.34 10.44 4.248 1.224 10.404-0.216 14.436-2.376 3.852-2.305 6.912-6.66 9.324-10.548 2.376-3.996 4.14-8.604 5.436-12.564 1.152-3.96 1.944-7.236 2.376-10.656 0.432-3.563 0.576-6.804 0.432-10.115l-2.376 7.38c-0.432 3.672-1.26 7.02-2.196 10.476-1.008 3.456-2.124 6.48-3.78 9.612-1.764 2.808-4.032 5.939-6.516 7.884-2.592 1.908-5.904 3.744-8.676 3.708-2.808-0.252-6.228-1.908-8.028-4.392-1.872-2.557-2.736-6.372-3.168-10.188-0.54-3.996-0.396-9.252-0.144-12.708 0.072-3.456 0.576-5.832 1.116-7.524-1.152-3.491-2.34-5.832-3.708-7.163-1.403-1.405-2.951-1.657-4.644-0.901z" fill="#d3ddc5"/>
	<path id="path70" d="m46.462 133.18c-2.268 2.124-4.356 4.536-6.408 7.38-2.196 2.844-4.284 6.48-5.832 9.36-1.62 2.771-2.592 5.076-3.312 7.056 0.828 0.612 1.62 1.224 2.412 1.8l1.908 1.584c1.152-3.492 2.484-6.588 3.996-9.432 1.44-2.844 3.06-5.256 4.86-7.524 1.728-2.412 3.492-4.5 5.436-6.552-0.396-0.792-0.792-1.368-1.332-2.016-0.539-0.576-1.115-1.225-1.728-1.656z" fill="#97adca"/>
	<path id="path72" d="m50.314 137.75c1.008 1.115 1.728 2.16 2.304 3.42 0.468 1.116 0.756 2.304 0.864 3.708 0.108 1.439-0.036 3.023-0.288 4.896-2.34 1.944-4.032 4.464-5.616 7.704-1.548 3.132-2.664 6.984-3.492 11.412-1.08-1.188-2.16-2.412-3.528-3.672-1.368-1.332-2.88-2.7-4.536-4.104 1.62-4.464 3.384-8.279 5.292-11.592 1.872-3.456 4.284-6.191 5.868-8.208 1.548-1.98 2.449-3.169 3.132-3.564z" fill="#bcc7bf"/>
	<path id="path74" d="m38.651 205.79 7.308-6.876c0.828 0.863 1.62 1.728 2.376 2.304s1.332 1.008 2.016 1.296l-0.504 9.072c-1.476-0.036-2.628-0.216-3.888-0.54-1.152-0.36-2.34-0.864-3.42-1.656-1.332-0.829-2.448-2.161-3.888-3.6z" fill="#fff" opacity=".54"/>
	<path id="path76" d="m45.779 170.26c0.108-2.017 0.648-4.068 1.224-6.156 0.576-2.16 1.404-4.536 2.484-6.444 0.972-1.979 2.196-3.815 3.672-5.363-0.288 4.031-0.432 7.344-0.432 10.224 0 2.736-0.432 4.86 0.36 6.769 0.72 1.871 2.232 3.527 3.708 4.571 1.296 0.937 2.664 1.368 4.104 1.296-0.216 2.412-0.18 4.177 0.108 5.832 0.252 1.513 0.18 2.845 1.332 3.42 1.044 0.54 2.988 1.332 5.004-0.252 1.908-1.655 4.104-4.968 6.588-9.792 0.288 0.937 0.108 2.448-0.54 4.933-0.648 2.376-1.8 6.443-3.312 9.432-1.584 2.988-3.744 5.724-6.336 8.353-5.472-2.809-9.54-6.372-12.6-10.837-2.988-4.503-4.824-9.83-5.364-15.986z" fill="#a088a0"/>
	<path id="path78" d="m45.779 170.26c-0.468 2.268-0.792 4.932-0.972 7.992-0.252 2.987-0.792 6.84-0.252 10.188 0.432 3.42 1.476 7.38 2.988 9.792 1.44 2.124 3.42 3.349 5.544 3.672 2.16 0.252 4.716-0.792 6.696-1.584 1.728-0.828 3.096-1.907 3.96-3.239-1.044-2.593-2.232-5.076-3.708-7.74-1.656-2.736-3.384-5.58-5.184-8.101-1.908-2.628-3.924-5.147-5.472-7.02-1.548-1.836-2.7-3.204-3.6-3.96z" fill="#ca9a9a"/>
	<path id="path80" d="m55.031 169.47c0.54 1.044 1.332 1.836 2.376 2.376 1.008 0.468 2.448 1.476 3.78 0.684 1.116-0.936 2.124-2.483 3.6-5.615 1.512-3.276 3.456-8.461 5.292-13.465 1.656-5.22 3.564-12.132 4.896-16.704 1.296-4.464 2.196-7.884 2.844-10.115l-4.428-3.528c-2.592 9.252-5.004 16.813-7.092 22.968-2.16 5.977-3.852 9.54-5.652 13.464-1.908 3.887-3.78 7.198-5.616 9.935z" fill="#195ff5"/>
	<path id="path82" d="m47.615 130.41c2.844 2.664 4.86 5.437 6.336 8.173 1.404 2.699 1.836 5.436 2.124 8.352 0.252 2.844-0.468 5.904-0.612 8.892-0.324 2.952-0.756 6.336-0.864 8.641-0.18 2.052-0.036 3.204 0.144 4.284 0.18 1.044 0.54 1.728 1.08 2.052 1.368-1.152 2.808-3.061 4.464-6.012 1.548-2.916 3.42-6.732 5.22-11.593 1.836-5.111 3.924-13.176 5.436-18.216 1.332-5.04 2.268-8.784 2.808-11.628-0.468-0.54-1.332-1.26-2.448-2.016-1.224-0.828-2.7-1.692-4.572-2.736-5.58 0.972-9.9 2.448-13.104 4.428-3.276 1.944-5.148 4.356-6.012 7.379z" fill="#4ca7ff"/>
	<path id="path84" d="m68.207 119.32c-2.196-1.224-4.608-2.304-7.38-3.239-2.772-1.081-5.76-2.052-9.252-2.484-3.636-0.468-8.316-0.432-11.952 0.108-3.672 0.468-6.732 1.296-10.008 2.88-3.492 1.512-7.416 4.104-10.116 6.264-2.808 2.16-4.824 4.464-5.904 6.228-1.044 1.584-0.792 2.7-0.36 3.349 0.396 0.468 0.504 0.611 2.556 0 1.944-0.721 5.58-2.844 8.964-3.853 3.348-1.008 7.236-2.088 10.548-2.124 3.132-0.107 5.868 0.252 8.208 1.225 2.232 0.792 3.744 1.943 4.932 3.6 1.692-1.764 3.888-3.204 6.588-4.752 2.7-1.62 6.84-3.24 9.504-4.284 2.52-1.08 4.428-1.512 5.724-1.691-0.684-0.399-1.368-0.794-2.052-1.227z" fill="#87b9f0"/>
	<path id="path86" d="m194.17 165.26c0.504 1.116 1.548 1.943 2.736 2.771 1.188 0.685 2.628 1.692 4.716 1.765 1.98 0.035 4.932-0.181 7.488-1.477 2.483-1.476 5.04-3.924 7.523-6.912 2.412-3.096 5.005-7.92 6.805-10.979 1.584-3.024 2.34-4.464 3.239-7.092 0.864-2.809 1.44-5.725 1.872-9.181l-2.088 2.34c-0.72 3.024-1.691 5.904-2.771 8.496-1.152 2.521-2.16 4.429-3.996 7.093-1.98 2.663-5.04 6.731-7.524 8.855-2.52 1.908-5.436 2.772-7.632 2.988-2.304 0.144-4.428-0.504-6.228-1.944-1.297-0.36-2.16-0.324-2.881 0.252-0.755 0.504-1.078 1.512-1.259 3.025z" fill="#d3ddc5"/>
	<path id="path88" d="m194.93 153.56c-1.26 0.468-2.124 1.188-2.592 2.16-0.54 0.828-0.72 1.943-0.396 3.492 0.359 1.548 0.972 3.563 2.231 6.048 0.864-0.721 1.656-1.513 2.376-1.98 0.612-0.576 1.332-1.008 1.765-1.296-1.044-0.936-1.944-2.052-2.412-3.06-0.576-1.08-0.721-2.521-0.828-3.349-0.108-0.971-0.288-1.511-0.144-2.015z" fill="#b3c3c0"/>
	<path id="path90" d="m208.5 162.92 0.288 5.58c0.648-0.324 1.332-0.793 2.196-1.404 0.756-0.612 1.691-1.368 2.664-2.269l-2.053-3.491c-0.468 0.396-1.008 0.611-1.476 0.936-0.575 0.252-1.115 0.467-1.619 0.648z" fill="#fff" opacity=".54"/>
	<path id="path92" d="m196.01 152.87c1.944-1.332 4.356-2.952 7.236-4.86 2.844-2.016 7.344-5.076 9.9-6.84 2.52-1.836 4.14-3.061 5.004-3.816 1.26 0.433 2.447 0.576 3.708 0.576 1.151-0.072 2.376-0.432 3.527-0.936-0.252 1.619-0.972 3.384-2.016 5.688-1.08 2.16-2.484 4.68-4.356 7.56-3.491 2.809-6.659 5.005-9.899 6.876-3.204 1.837-6.265 3.061-9.181 3.961-1.296-0.9-2.195-1.908-2.844-3.313-0.647-1.441-1.007-3.025-1.079-4.896z" fill="#a088a0"/>
	<path id="path94" d="m199.75 160.97c2.017-1.584 3.96-2.952 6.229-4.248 2.195-1.332 4.464-2.34 6.804-3.456 2.231-1.188 4.32-2.268 6.408-3.384-1.548 2.592-3.168 4.68-4.86 6.66-1.764 1.907-3.888 3.6-5.544 4.68-1.764 0.864-3.204 1.26-4.716 1.188-1.512 0-2.953-0.612-4.321-1.44z" fill="#bcc7bf"/>
	<path id="path96" d="m174.7 159.93c2.16-0.072 4.896-0.792 8.28-2.232 3.42-1.439 7.703-3.672 12.023-6.264 4.32-2.628 9.252-5.616 13.645-8.82 4.428-3.204 7.668-4.752 10.332-7.92s0.359-5.076 0.359-5.076c-3.996 4.177-8.1 8.064-12.852 11.809-4.752 3.636-11.017 7.632-15.3 10.332-4.32 2.592-7.488 4.067-10.332 5.399-2.988 1.188-5.761 1.872-6.805 2.341-1.042 0.431-0.826 0.574 0.65 0.431z" fill="#b3c3c0"/>
	<path id="path98" d="m219.59 130.08c0.181-0.072 0.145-0.181-0.252-0.469-0.432-0.359-1.151-1.512-2.016-1.367-0.973 0.107-1.44 0.54-3.492 2.124-2.124 1.548-5.436 4.392-9.108 7.271-3.815 2.844-9.684 7.344-13.14 9.756-3.456 2.269-6.012 3.78-7.524 4.248-2.735 1.729-4.716 3.204-6.371 4.572-1.62 1.368-2.772 2.483-3.313 3.492l5.472-1.836c2.521-0.937 4.969-2.269 7.633-3.601 2.592-1.476 5.075-3.06 7.991-4.896 2.845-1.872 5.688-3.42 9.108-5.904 3.384-2.664 8.064-6.804 10.728-9.108 2.556-2.303 3.852-3.635 4.284-4.282z" fill="#d3ddc5"/>
	<path id="path100" d="m228.55 120.58c-0.288-0.721-0.827-1.368-1.62-2.089-0.936-0.756-1.979-1.584-3.275-2.195-1.404-0.792-2.448-1.332-4.104-1.62-1.691-0.324-3.815-0.576-5.544 0.072-1.836 0.54-3.239 1.657-4.752 3.348-0.396 1.224-0.647 2.988-0.611 5.147-0.036 2.124 0.071 4.788 0.468 7.849 1.943-1.765 3.708-3.061 5.292-3.744 1.548-0.72 2.916-1.116 4.104-0.612 1.152 0.36 2.017 1.404 2.736 3.132 2.484-1.403 4.284-2.699 5.544-4.283 1.222-1.585 1.762-3.205 1.762-5.005z" fill="#d3ddc5"/>
	<path id="path102" d="m221.24 129.87c0.108 0.576 0.18 1.297 0.072 2.16-0.181 0.756-0.433 1.872-0.756 2.664-0.396 0.721-0.792 1.26-1.332 1.765 0.863 0.287 1.8 0.396 2.808 0.323 0.936-0.071 1.944-0.216 3.168-1.008 1.188-1.008 3.168-2.916 4.14-4.607 0.864-1.765 1.297-3.601 1.152-5.364-0.144-1.8-0.792-3.492-1.944-5.22-2.411 3.096-4.86 6.191-7.308 9.287z" fill="#b3c3c0"/>
	<path id="path104" d="m214.69 127.2c-0.036-2.052-0.108-3.672-0.36-5.147-0.252-1.512-0.647-2.628-1.188-3.492-0.612-0.899-1.368-1.62-2.269-2.016 0.72-0.792 1.584-1.296 2.592-1.656 0.973-0.36 2.16-0.54 3.276-0.54 0.972-0.072 1.872 0.036 2.7 0.324-0.648 1.729-1.26 3.527-1.548 5.544-0.433 2.016-0.54 3.96-0.612 6.228-0.756 0.036-1.332 0.288-1.729 0.36-0.466 0.179-0.754 0.179-0.862 0.395z" fill="#fff" opacity=".54"/>
	<path id="path106" d="m220.31 128.14c0.756 0.072 1.691-0.792 2.951-2.196 1.296-1.584 2.593-3.708 4.429-6.768 0.252 0.432 0.54 0.899 0.863 1.404 0.217 0.432 0.504 0.899 0.721 1.403-0.108 1.872-0.937 3.349-2.196 4.824-1.296 1.404-3.313 2.556-5.76 3.6-0.072-0.323-0.181-0.827-0.324-1.115-0.145-0.469-0.469-0.721-0.684-1.152z" fill="#fff" opacity=".54"/>
	<path id="path108" d="m207.31 120.76c-0.108 1.116-0.036 2.52 0.071 4.355 0.072 1.801 0.324 3.996 0.612 6.588-3.564 3.169-6.408 5.545-8.388 7.272-2.124 1.62-3.349 3.456-3.672 3.024-0.36-0.576 0.252-3.168 1.403-5.832 0.973-2.664 2.88-7.74 4.608-10.225 1.621-2.663 3.457-4.247 5.366-5.182z" fill="#a088a0"/>
	<path id="path110" d="m214.51 112.55 47.16-34.992c0.612-0.36 1.332-0.36 2.017 0 0.575 0.252 1.332 0.864 2.124 1.836 0.828 0.9 1.872 2.304 2.699 3.384 0.685 0.936 1.188 1.8 1.513 2.592-6.948 5.868-13.536 11.448-20.34 17.136-6.732 5.688-13.393 11.088-19.98 16.596-0.972-1.979-2.088-3.492-3.492-4.536-1.403-1.152-2.916-1.656-4.824-1.944-1.945-0.324-4.284-0.396-6.877-0.072z" fill="#d3ddc5"/>
	<path id="path112" d="m229.67 119c6.552-5.581 13.141-11.052 19.908-16.705 6.768-5.652 13.428-11.304 20.412-17.1 0.54 1.224 0.468 2.52-0.072 3.744-0.647 1.116-0.756 0.828-3.528 3.6-2.844 2.844-7.235 7.128-13.319 13.248-3.637 3.204-7.057 6.552-10.8 10.44-3.78 3.816-7.345 7.884-11.232 12.348 0.54-0.611 0.756-1.655 0.504-3.275s-0.829-3.672-1.873-6.3z" fill="#b3c3c0"/>
	<path id="path114" d="m228.16 116.58 41.147-32.652c0.217 0.468 0.54 0.9 0.685 1.296 0.107 0.396 0.324 0.72 0.359 1.116-11.987 11.196-21.203 19.584-27.792 25.704-6.695 6.048-10.476 9.324-11.771 10.224-0.324-1.116-0.648-2.304-1.116-3.168-0.468-0.901-0.972-1.873-1.512-2.52z" fill="#fff" opacity=".54"/>
	<path id="path116" d="m179.38 147.98c-1.836 1.764-3.492 3.456-5.112 5.22-1.655 1.692-4.283 4.248-4.535 5.185-0.324 0.828-0.072 1.548 2.699-0.181 2.7-1.836 7.093-5.327 13.32-10.619 1.44-2.557 3.132-6.337 5.22-11.484 1.98-5.364 4.393-14.94 6.948-19.44 2.34-4.536 3.96-3.924 7.92-7.056 3.96-3.276 11.412-8.856 15.84-11.88 4.248-3.06 9.54-5.256 10.044-6.156 0.324-0.936-2.447-0.324-7.056 0.288-4.608 0.432-13.572 1.404-20.088 2.52-6.624 0.936-13.788 2.952-19.008 3.564-5.292 0.576-8.641 0.54-12.384-0.108-3.816-1.008-6.624-3.096-10.225-4.716-3.815-1.62-8.928-3.384-11.88-4.464-3.024-1.188-5.652-2.376-5.796-2.016-0.145 0.468 2.124 2.196 5.004 4.356 2.808 2.052 7.776 5.256 11.592 7.812 3.78 2.412 7.128 4.932 10.62 7.164 3.168 8.604 5.328 16.128 6.48 23.256 1.082 7.054 1.261 13.174 0.397 18.755zm-1.08-44.928c3.708 3.42 6.66 6.12 9.396 8.1 2.592 1.944 4.716 3.168 6.372 3.672-1.009 5.436-2.269 10.224-3.78 14.795-1.584 4.429-3.42 8.496-5.508 12.061-1.98-8.208-3.492-15.336-4.536-21.816-1.116-6.48-1.763-11.988-1.944-16.812zm8.532-3.168c1.188 2.34 2.628 4.32 4.716 6.084 1.98 1.8 4.428 3.06 7.344 4.32 4.356-3.636 8.028-6.804 11.017-9.36 2.988-2.7 5.147-4.644 6.768-6.264-6.876 1.008-12.672 1.836-17.676 2.772-5.041 0.9-9.001 1.62-12.169 2.448z" fill="#ef4633"/>
	<path id="path118" d="m144.78 85.769c-0.504 0.216-0.288 0.468 0.792 1.044 1.008 0.432 2.664 0.972 5.399 2.052 2.629 1.008 7.129 2.7 10.729 4.248 3.456 1.512 6.804 3.744 10.62 4.752 3.852 0.828 7.632 0.972 12.456 0.576 4.716-0.54 9.756-2.16 15.948-3.204 6.155-1.08 15.443-2.16 20.663-2.808 5.076-0.72 8.425-1.332 9.648-1.152 1.008 0.108-1.296 1.26-2.88 2.34-1.62 0.936-3.672 2.088-6.588 4.032-3.061 2.052-7.956 5.112-11.196 7.632-3.24 2.304-6.408 4.608-8.388 6.372-2.124 1.692-3.061 2.196-4.068 3.888-1.044 1.62-1.116 2.34-2.304 5.904-1.404 3.528-3.636 10.62-5.328 15.013-1.764 4.319-2.952 7.56-4.536 10.26-1.764 2.34-3.42 3.24-5.112 4.644-1.728 1.513-3.456 2.736-4.752 3.96-1.439 1.008-3.312 2.412-3.096 2.412 0.324-0.18 2.124-1.08 4.572-2.7 2.304-1.764 7.235-4.716 9.359-7.056 1.908-2.376 1.656-3.276 2.988-6.588 1.44-3.456 3.313-8.928 5.328-13.212 1.872-4.428 3.672-9.108 5.796-12.096 2.088-2.953 2.988-2.665 6.444-5.112 3.312-2.412 9.071-6.444 13.536-9.468 4.355-3.24 8.46-6.3 13.14-9.324 4.608-3.132 13.356-7.884 14.58-8.82 1.044-0.9-5.4 2.448-7.813 3.384-2.556 0.864-1.943 0.864-6.768 1.656-5.004 0.756-15.588 1.548-22.032 2.52-6.372 0.9-10.584 1.656-15.948 2.412-5.651 0.612-11.268 1.584-16.703 1.26-5.437-0.54-10.152-2.268-15.265-3.78-5.256-1.512-12.132-4.284-15.336-5.112-3.272-0.793-3.417-0.254-3.885 0.071z" fill="#ff5b00"/>
	<path id="path120" d="m108.6 39.869c1.224-1.26 2.376-2.124 3.6-2.448 1.08-0.396 1.548 0.18 3.348 0.324 1.836-0.072 5.436-0.72 7.2-0.144 1.476 0.54 0.936 2.376 2.268 3.42 1.368 0.972 3.132 2.124 5.436 2.628 2.268 0.432 4.86 1.476 7.632 0.36 2.592-1.224 5.076-6.012 7.993-7.128 2.808-1.188 5.616-0.648 8.964 0.252 3.313 0.864 8.244 3.348 10.62 5.112 2.16 1.764 2.664 3.456 2.628 5.364-0.18 1.8-0.864 3.564-2.88 5.436-2.124 1.836-5.328 5.328-9.072 5.616-3.708 0.108-9.576-2.916-13.14-4.644-3.744-1.836-5.832-4.608-8.784-5.976-3.096-1.44-6.696-2.016-8.856-2.124-2.16-0.144-2.232 1.44-3.96 1.404-1.908-0.216-5.004-1.692-6.768-2.196-1.764-0.576-2.412-0.9-3.492-0.972-1.152-0.072-2.232-0.108-3.24 0.288-0.144-0.936-0.144-1.836 0-2.556 0.035-0.757 0.251-1.476 0.503-2.016z" fill="#284146"/>
	<path id="path122" d="m139.67 44.009c0.648-0.432 1.476-0.972 2.628-1.764 1.008-0.972 2.125-2.988 3.889-3.708 1.655-0.756 5.796-1.044 6.3-0.864 0.324 0-2.521 0.576-3.672 1.044-1.116 0.396-1.836 0.648-2.988 1.584-1.26 0.936-3.168 2.916-4.321 3.852-1.26 0.612-2.7 1.008-2.952 0.9-0.36-0.144 0.468-0.54 1.116-1.044z" fill="#a0afaf"/>
	<path id="path124" d="m159.18 56.104c-0.504 0.324-1.764 1.368-3.348 1.332-1.8-0.108-4.716-1.044-6.66-1.692-2.052-0.828-4.428-2.088-4.752-2.376-0.359-0.18 1.584 0.18 3.061 0.792 1.512 0.468 3.96 1.44 5.544 1.944 1.368 0.324 2.195 0.252 3.168 0.18 0.863-0.252 1.979-1.152 2.52-1.152 0.467-0.035 0.899 0.469 0.467 0.972z" fill="#a0afaf"/>
	<path id="path126" d="m142.51 38.068c0.864 0.576-2.16 2.304-3.384 3.24-1.188 0.864-2.448 1.512-4.356 1.548-2.16-0.144-7.128-1.548-8.244-2.124-1.188-0.648 0.108-1.116 1.404-1.548 1.116-0.468 3.384-0.864 5.832-1.044 2.412-0.251 7.739-0.647 8.748-0.072z" fill="#195ff5"/>
	<path id="path128" d="m97.187 54.197c1.584-1.368 3.348-2.52 5.148-3.888s3.816-3.42 5.652-4.068c1.728-0.612 2.7-0.36 4.716 0.216 1.944 0.396 5.04 2.304 7.2 2.52 2.052 0.108 3.06-1.512 5.256-1.404 2.124 0.036 5.112 0.864 7.56 1.908 2.268 0.9 3.708 2.34 6.408 3.924 2.736 1.404 6.3 4.212 9.577 5.22 3.024 0.9 6.012 1.512 8.82 1.008 2.664-0.54 5.328-2.232 7.452-3.816s3.636-3.42 4.932-5.508c1.62 1.008 2.844 2.448 3.672 3.924 0.828 1.44 1.332 2.664 1.08 5.22-0.504 2.448-2.628 7.308-3.6 9.864-1.08 2.448-1.908 2.916-2.196 5.148-0.252 2.16 1.008 5.184 0.432 7.812-0.792 2.556-2.231 4.968-4.716 7.38-2.592-1.224-5.112-2.124-7.704-3.096-2.7-0.972-5.184-1.764-7.884-2.52 1.8-1.728 3.06-3.024 3.384-4.032 0.36-1.008 0.36-0.792-1.116-1.98-1.655-1.404-5.147-3.456-7.992-5.616-2.88-2.196-5.76-4.644-8.928-7.344 0.792-1.584 1.188-2.628 1.188-3.528 0-0.864 0.324-0.828-1.26-1.548-1.728-0.864-5.94-2.16-8.892-3.312-3.096-1.296-6.12-2.988-8.928-3.708-2.844-0.72-4.716-0.54-7.848-0.288-3.277 0.144-6.985 0.648-11.413 1.512z" fill="#4ca7ff"/>
	<path id="path130" d="m98.951 52.757c2.376-0.504 5.04-0.72 7.848-0.792 2.736-0.18 5.436-0.216 8.928 0.288 3.456 0.468 7.632 1.98 11.556 2.736 3.744 0.648 7.92 0.792 11.016 1.692 2.988 0.9 3.204 3.168 6.876 3.888 3.601 0.576 9.9-0.72 14.616 0 4.68 0.684 8.928 2.052 13.176 4.248-0.323 0.972-0.827 2.052-1.224 3.096-0.432 1.044-1.044 2.196-1.548 3.312-5.688-0.792-10.944-1.26-16.057-1.548-5.22-0.324-9.899-0.324-14.58-0.144-0.576-0.36-1.26-0.972-2.196-1.692-0.9-0.792-2.052-1.764-3.312-2.916 0.648-1.26 0.9-2.196 1.044-2.952 0-0.72 0.54-0.936-0.612-1.476-1.296-0.684-3.96-1.44-6.624-2.268-2.808-0.9-6.66-2.16-9.324-2.808-2.628-0.684-4.068-1.08-6.408-1.188-2.556-0.18-5.256-0.036-7.956 0.144-2.628 0.072-5.184 0.216-7.668 0.432 0.792-0.684 1.621-1.369 2.449-2.052z" fill="#195ff5"/>
	<path id="path132" d="m105.32 63.953c-0.36 1.116-0.468 2.088-0.324 2.772 0.108 0.648 0.468 1.116 1.08 1.404 0.216 0.9 0.216 2.088-0.144 3.708-0.36 1.656-0.972 3.42-1.836 5.832-4.572 0.18-8.28 0.288-11.268 0.324-3.06-0.072-5.22 0.144-6.48-0.468-1.296-0.756-2.592-2.124-1.368-3.708 1.044-1.692 4.788-4.392 8.172-6.012 3.456-1.62 7.38-2.952 12.168-3.852z" fill="#506e6e"/>
	<path id="path134" d="m86.207 68.417c0.9-2.304 2.088-4.356 3.564-6.012 1.332-1.728 2.88-3.204 5.076-4.284 2.088-1.152 5.58-2.304 7.992-2.628 2.412-0.36 4.572-0.36 6.48 0.288-0.396 2.52-1.512 4.284-3.06 5.724-1.692 1.224-3.996 1.296-6.624 2.304-2.772 1.008-7.164 2.664-9.432 3.852-2.268 1.116-3.6 2.736-4.14 2.916-0.685 0.108-0.685-0.612 0.144-2.16z" fill="#97adca"/>
	<path id="path136" d="m108.42 63.053c-0.54 1.548-0.648 1.872 1.08 2.916 1.62 0.936 5.94 2.088 8.784 2.916 2.808 0.72 5.616 2.484 7.992 1.548 2.268-1.116 4.716-5.652 5.544-7.38 0.72-1.692 0.828-1.872-1.224-2.772-2.196-1.152-8.316-2.556-11.412-3.24-2.988-0.72-5.112-1.62-6.768-0.612-1.907 1.008-3.563 4.931-3.996 6.624z" fill="#87b9f0"/>
	<path id="path138" d="m131.21 75.077c-0.504 2.34-0.504 4.5 0 6.624 0.468 2.052 1.08 3.492 2.952 5.688 1.728 2.124 5.112 5.04 7.524 6.948 2.304 1.8 4.933 3.276 6.48 3.996 1.44 0.576 2.34 0.144 2.304-0.324-0.144-0.612-0.684-1.26-2.592-2.916-2.052-1.728-6.984-4.176-8.964-6.948-1.98-2.916-2.808-6.012-2.628-9.864-1.692-1.045-3.385-2.124-5.076-3.204z" fill="#d7f0e6"/>
	<path id="path140" d="m129.66 71.044c1.548 1.296 3.348 2.736 5.544 4.32 2.232 1.548 5.256 3.744 7.416 5.076 2.016 1.224 3.457 2.052 4.464 2.484l3.384-3.564c-3.96-2.808-7.272-5.22-10.332-7.38-3.024-2.196-5.688-3.996-7.848-5.544-0.864 1.513-1.728 3.061-2.628 4.608z" fill="#d7f0e6"/>
	<path id="path142" d="m171.13 74.752c3.708-0.216 7.416-0.216 11.557-0.144 4.067 0.072 8.136 0.324 12.636 0.756-2.232 3.024-4.284 5.904-6.3 8.784-2.053 2.88-3.96 5.472-5.725 8.172-1.403 0.468-2.952 0.576-4.788 0.468-1.871-0.18-3.924-0.648-6.155-1.404 0.72-2.088 0.828-4.248 0.611-6.48-0.359-2.448-2.052-5.508-2.304-7.236-0.288-1.691-0.18-2.664 0.468-2.916z" fill="#284146"/>
	<path id="path144" d="m173.44 51.641c1.584-0.324 2.916-0.828 3.995-1.224 1.08-0.432 1.765-1.044 2.341-1.548 3.815 4.536 8.496 7.056 14.472 7.848 5.94 0.54 14.4-1.512 20.808-3.528 6.229-2.052 10.801-4.5 16.633-8.028 5.831-3.564 11.663-7.884 18.035-13.104 1.98 1.188 3.061 2.88 3.385 4.932 0.323 2.016 0.036 5.364-1.692 7.416-1.944 2.016-6.048 2.952-9.54 4.464-3.6 1.368-8.28 2.052-11.412 3.852-3.204 1.692-4.319 3.708-7.235 6.48-2.916 2.736-6.408 7.416-10.477 9.864-4.248 2.232-10.008 3.564-14.652 4.14s-8.964-0.648-13.392-0.612c-4.608-0.072-9.288-0.072-14.04 0.144 2.16-3.06 3.6-5.832 4.464-8.46 0.685-2.772 0.612-5.292 0.324-7.416-0.254-2.124-0.974-3.817-2.017-5.22z" fill="#284146"/>
	<path id="path146" d="m179.77 48.869c-0.036 1.512 1.224 2.952 3.384 4.464 2.196 1.476 5.256 3.708 9.864 4.32 4.535 0.432 10.836 0.145 17.1-1.548 6.12-1.764 13.068-4.788 19.728-8.784 6.66-4.14 13.104-9 19.872-15.264l-3.672-0.936c-6.731 2.988-14.04 5.256-22.067 7.092-8.172 1.692-19.584 3.06-26.028 3.564-6.444 0.432-10.404 0.324-12.168-0.612-1.729 2.196-3.024 3.888-4.032 5.22-1.045 1.223-1.657 2.052-1.981 2.484z" fill="#506e6e"/>
	<path id="path148" d="m185.78 41.165c1.692-2.412 3.312-4.284 4.86-5.76 1.476-1.44 2.88-2.484 4.212-2.988 5.615 0.828 11.159 0.972 16.92 0.432 5.688-0.612 11.412-1.872 17.315-3.924 4.824 0.072 8.604 0.36 11.484 0.72 2.771 0.324 4.644 0.864 5.472 1.476-1.872 1.548-5.184 3.06-10.08 4.68-5.04 1.62-12.023 3.636-19.296 4.932-7.38 1.08-19.008 1.944-24.191 2.052-5.184 0.036-7.416-0.504-6.696-1.62z" fill="#a0afaf"/>
	<path id="path150" d="m194.86 32.417c1.691-1.296 3.996-2.196 6.768-2.844 2.88-0.684 6.3-1.116 9.828-1.152 3.276-0.18 6.912 0.072 9.936 0.216 2.916 0.036 5.437 0.18 7.704 0.288-1.439 0.9-3.563 1.764-6.372 2.592-2.916 0.828-6.84 1.836-10.655 2.196-3.924 0.252-9.469-0.144-12.313-0.36-2.88-0.216-4.464-0.577-4.896-0.936z" fill="#bcc7bf"/>
	<path id="path152" d="m225.24 26.296c3.312-1.476 6.696-2.52 10.008-3.564 3.276-1.008 6.012-1.872 9.864-2.448 3.815-0.72 9.468-1.512 12.78-1.26 3.203 0.144 5.544 0.828 6.479 2.628 0.756 1.908-0.036 5.148-1.548 8.172-1.512 2.844-4.176 5.724-7.704 8.784-0.9-3.852-2.52-6.624-4.464-8.46-2.052-1.872-3.601-2.052-7.704-2.628-4.247-0.684-10.151-1.043-17.711-1.224z" fill="#506e6e"/>
	<path id="path154" d="m222.76 26.296c2.088-3.276 3.996-6.012 6.013-8.496 1.943-2.484 3.708-5.04 5.688-6.3 1.764-1.296 3.204-1.764 5.724-1.548 2.557 0.036 5.688 0.828 9.54 1.98 3.816 1.044 10.549 2.268 13.248 4.644 2.521 2.34 2.557 6.624 2.484 9.54-0.18 2.772-1.152 4.968-2.916 7.416-1.908 2.412-6.192 4.968-7.56 7.092-1.368 2.052-1.297 4.212-0.469 5.076 0.756 0.756 2.448 1.476 4.933-0.612 2.304-2.232 6.731-8.892 9.396-12.492 2.557-3.708 5.688-6.552 6.48-9.072 0.756-2.52 0.468-3.456-1.836-5.868-2.412-2.52-7.452-6.84-12.349-8.928-5.111-2.16-12.708-3.348-17.244-3.852-4.5-0.612-7.092-0.36-9.575 0.612-2.628 0.972-3.708 2.664-5.868 5.22-2.34 2.556-5.4 6.948-7.236 9.864-1.836 2.664-3.168 5.004-3.852 6.624 1.368 0.324 2.447 0.252 3.384 0.18 0.864-0.179 1.583-0.54 2.015-1.08z" fill="#284146"/>
	<path id="path156" d="m274.85 27.341-7.56 10.296c-1.044 5.292-2.844 10.404-5.544 15.732-2.7 5.292-5.724 11.376-10.476 15.732-5.005 4.248-11.593 7.668-18.505 9.684-6.876 1.944-14.327 2.52-22.5 1.872l-6.624 10.008h1e-3c8.747-1.044 15.947-2.016 21.743-2.916 5.652-0.9 8.064-0.9 12.78-2.628 4.752-1.944 11.052-5.184 15.408-8.172 4.14-3.024 6.876-5.688 9.864-9.54 3.096-3.96 5.688-8.856 8.172-13.572 2.268-4.896 4.536-10.8 5.544-14.652 0.899-3.888 0.54-6.048 0.18-7.992-0.431-2.052-1.259-3.24-2.483-3.852z" fill="#195ff5"/>
	<path id="path158" d="m252.49 45.989c0.036 0.576 0.324 1.08 1.26 1.512 0.828 0.288 2.16 1.476 3.853 0.936 1.62-0.54 3.672-1.872 6.012-3.996-2.521 6.948-5.508 12.852-9.108 17.712-3.708 4.752-7.596 8.46-12.636 11.268-5.22 2.736-12.708 4.104-18.036 5.22-5.472 0.972-9.972 1.224-14.04 0.756l-8.46 11.268c-2.808 0.756-5.58 1.224-8.172 1.548-2.7 0.252-5.22 0.252-7.704 0 1.98-3.492 3.888-6.444 6.012-9.252 2.089-2.772 4.104-5.184 6.337-7.236 4.968-0.828 9.323-2.016 13.067-3.708 3.672-1.8 6.156-3.816 9.108-6.48 2.844-2.736 5.292-7.164 8.46-9.396 3.275-2.268 7.2-3.24 10.656-4.32 3.275-1.152 6.768-2.268 9.071-3.06 2.232-1.044 3.672-1.872 4.32-2.772z" fill="#5f87be"/>
	<path id="path160" d="m270.1 59.561c-0.539 1.08-1.115 2.196-1.871 3.492-0.757 1.224-1.692 2.52-2.664 3.888 2.231 0.864 4.212 1.584 5.939 2.016 1.692 0.432 2.952 0.972 4.32 0.504 1.224-0.648 3.563-2.808 3.527-3.96-0.107-1.296-2.304-2.16-3.815-3.132-1.511-1.009-3.42-1.944-5.436-2.808z" fill="#bcc7bf"/>
	<path id="path162" d="m275.46 60.425c1.872-0.504 3.313-0.576 4.752-0.36 1.296 0.252 2.448 0.792 3.313 1.764 0.756 0.828 1.116 2.52 1.368 3.708 0.18 1.08 0.252 2.16-0.181 3.096-0.576 0.972-1.979 2.124-2.952 2.628-1.08 0.396-2.124 0.072-3.132 0-1.116-0.144-2.016-0.432-3.096-0.864 1.836-0.9 3.168-1.836 3.996-2.664 0.756-0.792 1.188-1.656 0.864-2.448-0.433-0.972-2.232-2.592-3.061-3.312-0.863-0.865-1.438-1.332-1.871-1.548z" fill="#c20000"/>
	<path id="path164" d="m89.447 131.92 3.24 2.771c0 3.097-0.36 5.725-1.08 8.028-0.828 2.196-2.556 5.616-3.24 5.544-0.72-0.252-0.972-3.42-0.756-6.156 0.144-2.771 0.756-6.12 1.836-10.187z" fill="#506e6e"/>
	<path id="path166" d="m93.911 136.38 1.872 1.872c-0.18 2.735-0.468 5.616-1.26 8.928-0.792 3.204-1.872 6.696-3.24 10.476-0.18-1.836-0.432-3.239-0.756-4.644-0.396-1.368-0.864-2.592-1.404-3.528 1.548-2.016 2.736-4.176 3.564-6.336 0.828-2.161 1.188-4.465 1.224-6.768z" fill="#506e6e"/>
	<path id="path168" d="m97.763 139.77c-1.26 5.328-2.34 9.648-3.24 12.96-0.9 3.204-2.268 5.508-2.16 6.769 0 1.26 1.332 1.8 2.34 0.792 0.936-1.188 2.484-4.356 3.528-7.561 0.972-3.276 1.692-7.128 2.304-11.7-0.9-0.396-1.836-0.829-2.772-1.26z" fill="#506e6e"/>
	<path id="path170" d="m101.79 142.11 2.592 0.612c0.108 0.504 0.216 1.368 0.18 2.592-0.036 1.26-0.144 2.808-0.324 4.645-0.288 1.728-0.648 3.672-1.08 5.544-0.576 1.728-1.152 3.888-2.016 5.22-0.864 1.224-2.34 2.556-3.06 2.628-0.9 0.036-1.692-0.828-1.548-2.448 0.18-1.836 1.98-4.5 2.916-7.704 0.829-3.133 1.657-6.877 2.34-11.089z" fill="#506e6e"/>
	<path id="path172" d="m106.55 143.62c1.512-0.18 2.592 0.181 3.096 0.793 0.468 0.575 0.792 1.044 0 3.06-0.864 1.944-2.412 4.824-4.788 8.64 0.828-3.456 1.44-6.048 1.692-8.172 0.252-2.125 0.252-3.564 0-4.321z" fill="#506e6e"/>
	<path id="path174" d="m93.155 163.06c1.872 0.72 2.844 1.692 2.916 2.916 0.036 1.188-1.764 2.808-2.628 4.32-0.9 1.403-1.872 2.844-2.772 4.319 0.36-2.556 0.72-4.823 0.792-6.804-0.036-2.088-0.468-4.428-0.18-5.22s0.863-0.684 1.872 0.469z" fill="#506e6e"/>
	<path id="path176" d="m64.787 96.785c-1.116 1.368-2.088 3.6-2.916 6.3-0.828 2.844-1.728 6.012-2.304 10.188 4.068 1.404 7.38 2.952 10.62 4.932 3.024 1.908 5.832 4.068 8.028 6.624l0.756-3.239c-4.212-2.809-7.344-5.58-9.54-8.316-2.304-2.916-2.844-5.508-3.564-8.316-0.828-2.737-1.188-5.509-1.08-8.173z" fill="#506e6e"/>
	<path id="path178" d="m54.311 92.141c-1.512-0.756-3.312-1.26-5.4-1.368-2.16-0.18-4.572-0.072-7.38 0.324-1.836 3.24-3.384 6.084-4.788 8.928-1.476 2.7-3.312 5.544-3.708 7.704-0.504 2.088-0.144 3.78 0.936 5.076 2.916-0.576 5.544-0.936 8.172-1.224 2.556-0.324 4.968-0.432 7.236-0.468 0.216-3.42 0.684-6.516 1.548-9.72 0.828-3.168 1.907-6.3 3.384-9.252z" fill="#506e6e"/>
	<path id="path180" d="m35.663 91.097c-1.8 1.8-3.06 3.6-4.176 5.832-1.152 2.196-2.052 4.608-2.304 6.948-0.288 2.232 0.396 4.788 0.792 6.156 0.324 1.26 0.828 1.728 1.368 1.404-0.468-1.08-0.36-2.628 0.324-4.5 0.684-1.944 2.232-4.248 3.528-6.912 1.224-2.736 2.412-5.724 3.708-9.108-1.08 0.036-2.16 0.107-3.24 0.18z" fill="#ca9a9a"/>
	<path id="path182" d="m56.002 93.4c-1.116 2.808-2.088 5.22-2.772 7.38-0.792 1.944-1.404 3.6-1.692 5.256-0.324 1.764-0.324 3.312-0.144 5.076 1.368 0.288 2.592 0.396 3.528 0.612 0.864 0.144 1.584 0.252 2.016 0.324 1.044-5.076 2.016-8.856 2.916-11.736 0.792-2.88 1.692-4.572 2.304-5.22-1.476-0.576-2.7-0.936-3.672-1.224-1.079-0.324-1.907-0.431-2.484-0.468z" fill="#ca9a9a"/>
	<path id="path184" d="m81.131 123.89 6.156 6.336c-1.044 6.876-2.304 13.356-4.32 19.584-1.98 6.229-5.364 12.78-7.38 17.568-2.16 4.607-3.348 7.92-5.076 10.476-1.872 2.557-3.996 3.996-5.4 4.464-1.44 0.216-2.232-1.08-2.772-2.483-0.576-1.44-0.504-3.204-0.18-5.688 2.736-3.6 5.112-7.668 7.272-12.348 2.052-4.716 3.384-9.396 5.364-15.696 1.98-6.41 3.996-13.681 6.336-22.213z" fill="#ca9a9a"/>
	<path id="path186" d="m85.595 132.21c0 0.575-2.16 10.655-3.852 16.199-1.872 5.437-4.032 10.98-6.48 16.2-2.52 5.076-6.156 12.024-7.992 14.328-1.98 2.16-3.42 1.296-2.772-0.936 0.756-2.341 4.32-7.2 7.236-12.637 2.736-5.508 6.984-14.508 9.396-20.052 2.34-5.686 4.247-13.571 4.464-13.102z" fill="#a088a0"/>
	<path id="path188" d="m23.675 93.761c-1.188 0.792-2.016 1.62-2.196 2.484-0.324 0.828-0.468 1.584 0.684 2.556 1.152 0.936 3.096 1.8 6.12 2.88 0.324-1.008 0.468-1.764 0.72-2.268 0.18-0.504 0.324-0.972 0.432-1.008-2.268-1.728-3.816-2.808-4.788-3.636-1.008-0.72-1.333-1.188-0.972-1.008z" fill="#fef787"/>
	<linearGradient id="XMLID_8_" x1="27.832" x2="27.832" y1="98.801" y2="91.951" gradientUnits="userSpaceOnUse">
		<stop id="stop191" stop-color="#ffe47f" offset="0"/>
		<stop id="stop193" stop-color="#f70" offset="1"/>
	</linearGradient>
	<path id="path195" d="m22.883 94.265c0.288-0.432 0.756-0.9 1.404-1.26 0.648-0.468 0.972-0.9 2.484-1.008 1.44-0.072 3.348-0.108 6.012 0.288-1.08 1.548-1.908 2.808-2.484 3.924-0.612 1.044-0.972 1.908-1.08 2.592-1.404-0.972-2.628-1.764-3.672-2.52-1.116-0.757-1.908-1.476-2.664-2.016z" fill="url(#XMLID_8_)"/>
	<path id="path197" d="m28.283 68.345c1.152-1.476 2.772-2.52 4.86-3.276 1.98-0.792 5.256-1.044 7.452-1.152 2.052-0.18 3.78-0.216 5.616 0.288 1.944 0.468 3.888 1.224 5.544 2.412 1.476 1.008 2.88 2.772 3.384 4.176 0.396 1.476 0.108 2.736-0.864 4.32-1.188-3.24-2.808-5.4-5.148-6.876-2.34-1.404-5.904-1.836-8.748-1.728-2.952-0.072-6.48 0.792-8.64 1.476-2.196 0.504-3.708 1.98-4.248 2.088-0.576 0.035-0.36-0.54 0.792-1.728z" fill="#d3ddc5"/>
	<linearGradient id="XMLID_9_" x1="40.008" x2="40.008" y1="77.776" y2="67.435" gradientUnits="userSpaceOnUse">
		<stop id="stop200" stop-color="#feff7f" offset="0"/>
		<stop id="stop202" stop-color="#bfe9ff" offset="1"/>
	</linearGradient>
	<path id="path204" d="m37.21 67.588c-2.592 0.36-4.14 0.792-5.4 1.296s-3.024 1.224-3.816 2.232c-0.828 1.008-1.116 2.592-1.008 3.708s0.612 2.088 1.548 2.952c3.888-2.052 7.668-3.276 11.88-3.528 4.14-0.324 8.172 0.252 12.636 1.728-1.008-2.7-2.34-4.68-4.14-6.084-1.836-1.404-4.068-2.232-6.696-2.34 1e-3 1e-3 -2.375-0.287-5.004 0.036z" fill="url(#XMLID_9_)"/>
	<linearGradient id="XMLID_10_" x1="38.101" x2="38.101" y1="72.744" y2="68.227" gradientUnits="userSpaceOnUse">
		<stop id="stop207" stop-color="#fdff3f" offset="0"/>
		<stop id="stop209" stop-color="#5fb1ff" offset="1"/>
	</linearGradient>
	<path id="path211" d="m28.606 71.729c0.864-0.72 3.132-2.196 5.544-2.772 2.376-0.648 6.192-0.9 8.676-0.612 2.448 0.396 5.112 1.98 5.616 2.52 0.324 0.252-1.728-0.216-3.528-0.288-1.944-0.108-4.68-0.324-7.38 0.036-2.736 0.324-7.344 1.872-8.82 2.124-1.511 0.072-1.079-0.361-0.108-1.008z" fill="url(#XMLID_10_)"/>
	<linearGradient id="XMLID_11_" x1="40.669" x2="40.669" y1="84.123" y2="73.367" gradientUnits="userSpaceOnUse">
		<stop id="stop214" stop-color="#ffdfeb" offset="0"/>
		<stop id="stop216" stop-color="#fff67f" offset="1"/>
	</linearGradient>
	<path id="path218" d="m28.175 77.345c0.648 0.936 1.44 1.836 2.376 2.7 0.828 0.792 1.512 1.584 3.024 2.232 1.548 0.576 3.492 1.692 5.976 1.836 2.304 0.072 5.832-0.252 8.064-0.972 2.088-0.864 3.996-2.268 4.896-3.636 0.792-1.332 0.864-2.844 0.216-4.392-3.24-1.08-6.444-1.656-9.468-1.728-3.132-0.108-6.552 0.288-9 1.044-2.484 0.612-4.608 1.584-6.084 2.916z" fill="url(#XMLID_11_)"/>
	<linearGradient id="XMLID_12_" x1="40.866" x2="40.866" y1="82.056" y2="76.651" gradientUnits="userSpaceOnUse">
		<stop id="stop221" stop-color="#ed9fff" offset="0"/>
		<stop id="stop223" stop-color="#fff67f" offset="1"/>
	</linearGradient>
	<path id="path225" d="m33.646 77.417c-1.44 0.432-1.224 1.548-0.18 2.376 1.008 0.792 3.6 1.908 5.832 2.232 2.124 0.144 5.22-0.216 6.912-0.936 1.62-0.9 3.384-2.988 2.772-3.744-0.72-0.828-4.428-0.684-6.948-0.684-2.663-0.036-6.948 0.215-8.388 0.756z" fill="url(#XMLID_12_)"/>
	<path id="path227" d="m38.255 75.113c-1.404 0.216-2.304 0.576-2.556 1.368-0.216 0.684-0.324 2.268 1.224 2.952 1.476 0.576 5.76 0.972 7.56 0.612 1.584-0.396 2.34-2.592 2.268-3.276-0.18-0.864-1.908-1.476-3.24-1.692-1.512-0.325-3.96-0.217-5.256 0.036z" fill="#ffee9f"/>
</g>
</svg>
