<?xml version="1.0" encoding="UTF-8"?>
<!-- Generator: Adobe Illustrator 12.0.0, SVG Export Plug-In . SVG Version: 6.00 Build 51448)  -->
<svg id="Layer_1" width="268.66" height="199.43" enable-background="new 0 0 268.661 199.426" sodipodi:docbase="F:\openclip\svg da inviare" sodipodi:docname="ragnetto incazzato.svg" sodipodi:version="0.32" version="1.1" viewBox="0 0 268.66 199.43" xml:space="preserve" xmlns="http://www.w3.org/2000/svg" xmlns:cc="http://web.resource.org/cc/" xmlns:dc="http://purl.org/dc/elements/1.1/" xmlns:rdf="http://www.w3.org/1999/02/22-rdf-syntax-ns#" xmlns:sodipodi="http://inkscape.sourceforge.net/DTD/sodipodi-0.dtd" xmlns:xml="http://www.w3.org/XML/1998/namespace"><metadata><rdf:RDF xmlns:cc="http://web.resource.org/cc/" xmlns:dc="http://purl.org/dc/elements/1.1/" xmlns:rdf="http://www.w3.org/1999/02/22-rdf-syntax-ns#"><cc:Work rdf:about=""><dc:title>Ragnetto incazzato</dc:title><dc:description/><dc:subject><rdf:Bag><rdf:li>architetto francesco rollandin</rdf:li><rdf:li>insect</rdf:li></rdf:Bag></dc:subject><dc:publisher><cc:Agent rdf:about="http://www.openclipart.org/"><dc:title>Open Clip Art Library</dc:title></cc:Agent></dc:publisher><dc:creator><cc:Agent><dc:title>Architetto Francesco Rollandin</dc:title></cc:Agent></dc:creator><dc:rights><cc:Agent><dc:title>Architetto Francesco Rollandin</dc:title></cc:Agent></dc:rights><dc:date/><dc:format>image/svg+xml</dc:format><dc:type rdf:resource="http://purl.org/dc/dcmitype/StillImage"/><cc:license rdf:resource="http://web.resource.org/cc/PublicDomain"/><dc:language>en</dc:language></cc:Work><cc:License rdf:about="http://web.resource.org/cc/PublicDomain"><cc:permits rdf:resource="http://web.resource.org/cc/Reproduction"/><cc:permits rdf:resource="http://web.resource.org/cc/Distribution"/><cc:permits rdf:resource="http://web.resource.org/cc/DerivativeWorks"/></cc:License></rdf:RDF></metadata>

<sodipodi:namedview id="base" bordercolor="#666666" borderopacity="1.0" pagecolor="#ffffff"/>

<path id="path3" d="m90.747 199.26c-5.586-3.491-8.77-6.795-12-12.75-3.005-5.54-5.061-11.572-6.905-17.567-1.64-5.329-2.095-11.011-2.095-16.558v-8.464c0-2.726 1.204-5.135 1.649-7.804 2.091-12.545 6.884-22.545 17.658-29.728 1.8-1.2-1.417-6.348-1.932-7.379-1.029-2.059-5.959-3.962-7.917-5.208-4.583-2.917-11.283-0.128-15.457 1.959-13.706 6.853-21.501 19.835-26.716 33.743-4.937 13.164-3.251 27.154-0.284 40.507-2.703 0.338-5.14 1.118-7.661 0.038-3.809-1.633-3.598-1.587-4.333-5.553-1.214-6.555-3.006-13.144-3.006-19.824 0-11.188 2.514-21.835 8.25-31.661 5.633-9.648 13.632-19.566 23.75-24.625 2.489-1.244 4.843-2.406 7.479-3.284 2.559-0.853 4.742-0.078 7.41 0.382 4.099 0.707 8.198 1.414 12.296 2.12 3.161 0.545 3.425 1.154 5.371-1.323 2.207-2.809 4.414-5.617 6.62-8.426-0.292 0.371-3.743-7.01-3.88-7.354-2.242-5.604-6.838-8.435-11.72-11.689-5.137-3.425-11.311-4.7-17.184-6.507-6.249-1.923-10.961-1.263-17.017 0.331-2.079 0.547-5.997 0.747-7.569 2.319l-6.689 6.689c-4.74 4.74-8.242 9.274-10.968 15.408-2.238 5.036-3.907 10.281-4.592 15.764-0.496 3.969 0.126 14.56-5.056 15.694-2.539 0.556-5.73-2.82-7.662-4.108-1.323-0.882-0.017-4.624 0.172-6.022 0.986-7.299 1.973-14.598 2.959-21.897 0.637-4.71 5.793-11.078 8.192-15.075 2.905-4.842 8.446-9.255 12.408-13.217 4.33-4.33 9.62-4.221 15.205-5.417 5.638-1.208 10.468-0.951 16.181-0.237 12.478 1.56 22.38 6.309 32.933 12.904 5.324 3.327 8.801 8.354 12.22 13.481 1.035 1.552 12.172-5.588 14.594-6.396 12.626-4.209 25.006-6.359 38.147-8.612 2.972-0.509 4.522-9.941 6.252-12.824 3.048-5.079 5.895-11.451 9.774-15.977 4.009-4.676 8.355-8.516 13.026-12.519 2.213-1.897 2.813-0.478 5.123-2.017 3.516-2.344 7.032-4.688 10.548-7.033 7.544-5.029 23.41-4.292 31.319-0.338 2.846 1.423 5.706 2.703 8.632 3.957 2.355 1.01 4.82 5.044 6.544 6.901 1.743 1.878 3.269 3.37 4.404 5.64 1.989 3.98 2.952 4.945 1.752 9.145-1.784 6.244-10.272-1.201-11.687-4.5-2.432-5.675-6.096-10.512-11.798-12.793-5.899-2.36-12.668-1.296-18.972-1.296-1.938 0-3.988 1.864-5.606 2.801-3.111 1.801-6.223 3.602-9.334 5.403-0.918 0.531-1.409 1.778-2.328 2.295-1.06 0.596-2.488 0.238-3.389 1.139-2.227 2.227-4.341 3.835-6.361 6.361-4.028 5.035-6.423 8.575-8.752 14.504-1.476 3.756-2.95 7.512-4.426 11.268-1.42 3.615-0.534 2.944 3.188 4.433 2.708 1.083 4.508 2.114 6.914 0.109 2.44-2.034 4.889-3.857 7.576-5.563 9.915-6.294 21.515-8.748 33.056-7.306 11.88 1.485 21.395 8.549 30.347 16.222 2.288 1.961 4.151 4.217 6.14 6.489 1.743 1.992 1.931 4.749 3.374 6.553 4.231 5.29 6.044 9.683 7.583 16.226 1.158 4.923 3.007 10.295 1.737 15.373-1.449 5.795-10.482 3.469-11.325-1.588-2.016-12.098-3.148-22.703-11.286-32.468-1.929-2.314-4.19-3.263-6.375-5.25-2.223-2.022-3.576-4.853-6-6.75-4.189-3.279-10.121-6-15.444-6-2.229 0-4.375-0.086-6.563 0.352-2.569 0.514-7.378 0.489-9.555 1.94-5.8 3.866-11.6 7.733-17.399 11.599-1.362 0.909 0.157 5.573 0.352 7.033 0.619 4.643 0.205 4.508 4.861 5.284 5.556 0.926 9.908 3.746 14.748 6.166 11.256 5.628 17.303 16.139 22.348 27.238 5.45 11.99 4.202 26.3 5.053 39.344 0.103 1.578-0.606 4.612-2.149 5.293-0.927 0.409-8.247-0.816-9-1.5-1.289-1.17-0.75-4.967-0.75-6.371v-12.918c0-11.41-2.47-21.809-8.25-31.71-5.309-9.094-16.312-18.019-27.24-16.926-3.781 0.378-4.635 0.718-7.635 3.051-2.268 1.764-4.254 3.087-6.785 4.42-5.815 3.061-11.047 5.524-17.215 7.58-11.068 3.689-22.238 7.125-33.999 7.125-5.352 0-12.28-1.423-17.07 0.972-2.666 1.333-5.127 2.063-6.681 4.652-1.772 2.954-4.87 4.371-7.718 6.271-1.837 1.225-4.494 13.473-4.723 15.758-0.55 5.499-1.201 11.076-0.333 16.573 1.83 11.59 2.518 26.469 12.392 34.368 2.897 2.318 4.053 2.866 3.006 6.53-1.087 3.797-2.94 2.625-6.752 2.625" clip-rule="evenodd" fill="#0E0D0D" fill-rule="evenodd"/>

<path id="path5" d="m138.75 92.755c5.662-1.132 16.597-2.279 20.25 3.75 2.6 4.29-2.169 4.042-5.257 3.655-4.21-0.526-8.229-0.655-12.466-0.655-3.114 0-7.73 2.96-10.027 4.875-2.22 1.85-8.25 7.202-8.25 1.477 0-7.235 9.851-11.922 15.75-13.102" clip-rule="evenodd" fill="#FFBF00" fill-rule="evenodd"/>

<path id="path7" d="m142.5 90.505-3.75 0.75c0.886 3.542 0.969 2.957 4.5 2.25-1.358-0.025-0.75-1.814-0.75-3"/>

<path id="path9" d="m146.25 90.505c-3.518 0-3.75-0.576-3.75 3 2.08-0.416 4.649-0.109 3.75-3"/>

<path id="path11" d="m150 90.505c-1.009 0-5.901-0.454-3.75 2.25 2.266 2.849 3.385-0.787 3.75-2.25"/>

<path id="path13" d="m153 91.255c-3.197-0.799-2.95-0.947-3.75 2.25 2.038 0 3.698 0.45 3.75-2.25"/>

<path id="path15" d="m156 92.005c-2.283-0.571-3.362-1.38-3.75 1.5l3 0.75h-0.75l1.5-2.25"/>

<path id="path17" d="m158.25 93.505c-0.394-0.262-1.836-1.583-2.25-1.5-0.181 0.036-1.536 2.069-1.5 2.25s2.069 1.536 2.25 1.5c0.414-0.082 1.238-1.857 1.5-2.25"/>

<path id="path19" d="m160.5 95.755c-1.254-0.106-1.543-1.189-2.25-2.25-1.023 1.535-2.229 2.566 0 3.75l-0.75-0.75 3-0.75h-0.75 0.75"/>

<path id="path21" d="m161.25 98.005c-0.388-2.88-1.467-2.071-3.75-1.5l1.5 2.25-0.75-0.75h3"/>

<path id="path23" d="m160.5 101c2.706-3.656-2.778-4.039-2.25-1.5l0.75-0.75 1.5 2.25c0.48-0.725 0.638-0.639 0.75-1.5-0.25 0.5-0.485 1.008-0.75 1.5"/>

<path id="path25" d="m159 101.76c2.366-0.164 0.859-1.711 0-3l-0.75 0.75c1.725 0.207-0.225 2.043 1.5 2.25h-0.75"/>

<path id="path27" d="m154.5 101.76c1.744 0 4.5 0.916 4.5-1.125 0-2.013-2.735-1.581-4.5-1.875v3"/>

<path id="path29" d="m148.5 100.26h-0.75c2.25 0.5 4.5 1 6.75 1.5 0-1.214 0.615-2.923-0.757-3.095-1.748-0.218-3.495-0.437-5.243-0.655 0 0.677-0.182 1.603 0 2.25"/>

<path id="path31" d="m144.75 100.26c2.571 0 3.75 0.85 3.75-1.898 0-0.729-3.562-0.352-4.5-0.352h0.75-0.75c0.238 0.717 0.387 1.591 0.75 2.25"/>

<path id="path33" d="m141 101 3.75-0.75c-0.076-3.196-2.339-1.932-4.5-1.5 0.225 0.675 0.352 1.667 0.75 2.25"/>

<path id="path35" d="m138 101.76h-0.75l3.75-0.75c-0.071-2.97-4.019-2.695-4.5-0.75v-0.75c0.044 0.944 0.616 1.732 1.5 2.25"/>

<path id="path37" d="m134.25 104 3.75-2.25c-1.41-2.714-5.437-0.695-3.75 2.25"/>

<path id="path39" d="m129 107.76c2.057-1.47 6.624-3.021 4.5-6-2.057 1.47-6.624 3.022-4.5 6"/>

<path id="path41" d="m125.25 110c2.233-0.28 4.67-2.18 3-4.5l-3.75 2.25c1.725 0.207-0.225 2.043 1.5 2.25h-0.75"/>

<path id="path43" d="m123 109.26c2.311 2.613 3.552-2.09 0.75-1.5l0.75 0.75c-1.201 0.372-2.225 1.161-0.75 1.5l-0.75-0.75"/>

<path id="path45" d="m121.5 107.76c0.778 0.367 3.936 2.619 3-0.75l-3 0.75h0.75-0.75"/>

<path id="path47" d="m121.5 104.76v3c3.802-0.95 3.802-2.049 0-3v0.75-0.75"/>

<path id="path49" d="m122.25 102.5c-0.363 0.659-0.511 1.534-0.75 2.25l3 0.75c0-0.682 0.176-1.596 0-2.25v0.75l-2.25-1.5"/>

<path id="path51" d="m123.75 100.26c-0.262 0.393-1.583 1.836-1.5 2.25 0.036 0.181 2.069 1.536 2.25 1.5s1.536-2.069 1.5-2.25c-0.082-0.413-1.857-1.237-2.25-1.5"/>

<path id="path53" d="m126 98.005-2.25 2.25c2.398 1.599 2.151 1.648 3.75-0.75v0.75l-1.5-2.25"/>

<path id="path55" d="m128.25 95.755c-2.15 2.15-2.458 1.938-0.75 4.5 2.15-2.15 2.458-1.938 0.75-4.5"/>

<path id="path57" d="m131.25 94.255-3 1.5c1.761 2.642 1.698 2.151 4.5 0.75l-1.5-2.25"/>

<path id="path59" d="m135 92.755-3.75 1.5c0.934 1.401 0.959 2.521 2.556 1.722 1.826-0.913 2.385-1.144 1.194-3.222"/>

<path id="path61" d="m138.75 91.255c-2.072 0.829-4.926 1.03-3 3.75l3.75-1.5v0.75l-0.75-3"/>

<path id="path63" d="m124.5 106.26c4.749 5.936 9.971 9.17 17.25 11.25-4.11-5.137-7.165-10.741-8.25-17.25-2.562 3.417-5.062 4.425-9 6" clip-rule="evenodd" fill="#FFFFAF" fill-rule="evenodd"/>

<path id="path65" d="m128.25 109.26c-1.468-1.835-2.616-4.894-5.25-3 0.989 1.484 2.022 4.219 3.75 4.5h-0.75c0.944-0.044 1.732-0.615 2.25-1.5"/>

<path id="path67" d="m132 112.26c-1.635-1.308-3.74-4.4-5.25-1.5l4.5 3.75c0.23-0.69 0.694-1.528 0.75-2.25"/>

<path id="path69" d="m137.25 114.5-5.25-2.25c-2.174 3.073 2.294 3.555 4.5 4.5 0.225-0.673 0.721-1.546 0.75-2.25"/>

<path id="path71" d="m140.25 117.5c0.566-0.346 1.027-1.027 1.5-1.5-1.5-0.5-3-1-4.5-1.5-0.311 0.443-0.732 1.709-0.75 2.25 2.032 0.677 4.669 2.57 6 0-0.565 0.363-1.022 1.022-1.5 1.5l3.75 0.75c-1.646-1.647-2.163-2.797-4.5-1.5"/>

<path id="path73" d="m138 114.5c1.315 1.753 2.084 3.989 4.5 2.25l-2.25-3.75-2.25 1.5"/>

<path id="path75" d="m135 110c1.582 0.026 2.333 3.166 3 4.5 3.266-2.177 1.269-2.972-0.75-6h0.75l-3 1.5h0.75-0.75"/>

<path id="path77" d="m133.5 105.5 1.5 4.5c3.881-1.94 2.627-2.247 0.75-6-0.04 1.078-1.132 1.37-2.25 1.5"/>

<path id="path79" d="m134.25 101.76c-0.646-0.371-1.541-0.514-2.25-0.75 0.728 2.182 0.788 5.824 3.75 3.75-0.64-1.92-0.766-4.646-3-5.25 0.407 0.336 1.025 0.513 1.5 0.75 0.094-0.622 0.142-1.64 0-2.25-2.229 1.184-1.023 2.215 0 3.75"/>

<path id="path81" d="m131.25 104c3.23-0.103 2.718-2.672 1.5-4.5l-3 2.25c1.65 0.061 0.6 2.189 2.25 2.25h-0.75"/>

<path id="path83" d="m129 105.5c1.792-1.194 2.841-1.526 1.5-3.75l-3 1.5c1.078 0.04 1.37 1.133 1.5 2.25"/>

<path id="path85" d="m125.25 105.5c-0.312 0.449-0.505 1.01-0.75 1.5 2.182-0.727 5.824-0.788 3.75-3.75-1.92 0.64-4.646 0.766-5.25 3 0.31-0.451 0.505-1.009 0.75-1.5-0.477 0.106-1.095 0.473-1.5 0.75 0.809 0.976 1.917 0.681 3 0"/>

<path id="path87" d="m158.25 97.255c0.689 6.788-4.854 14.083-9.75 18 0.507-3.04 0.95-5.9 0.75-9-0.144-2.227-0.127-7.148-1.5-9 3.864 0.773 6.612 0.648 10.5 0" clip-rule="evenodd" fill="#FFFFAF" fill-rule="evenodd"/>

<path id="path89" d="m159.75 100.26c0-2.88 0.349-3-2.688-3-0.473 0-0.592 1.902-0.312 2.25 0.372 0.463 2.388 0.597 3 0.75v-0.75 0.75"/>

<path id="path91" d="m159 102.5c0.363-0.659 0.512-1.534 0.75-2.25l-3-0.75c-0.605 1.957 0.418 2.773 2.25 3"/>

<path id="path93" d="m157.5 105.5c2.042-0.064 1.248-6.747-2.25-1.5 1.352 0.063 1.648 1.437 3 1.5h-0.75"/>

<path id="path95" d="m156 107.76c2.023-0.075 1.536-2.941 0-3.75l-1.5 3v-0.75c0.519 0.884 1.306 1.456 2.25 1.5h-0.75"/>

<path id="path97" d="m153 113c1.113-1.948 4.466-5.219 1.5-6.75l-3.75 5.25v-0.75l2.25 2.25"/>

<path id="path99" d="m147 115.26c2.464 1.727 4.15-0.77 6-2.25l-2.25-2.25-3 3.75c0.512 0.193 0.973 0.617 1.5 0.75-2.89-0.898-2.584 1.67-3 3.75l3-3c-0.696-0.232-1.522-0.684-2.25-0.75"/>

<path id="path101" d="m147.75 110.76-0.75 4.5c3.007 0.935 2.909-2.311 3-4.5v0.75c-0.123-1.027-1.101-1.074-2.25-0.75"/>

<path id="path103" d="m147.75 106.26c0 1.744-0.915 4.5 1.125 4.5 2.013 0 1.581-2.735 1.875-4.5h-3"/>

<path id="path105" d="m147.75 101.76v-0.524c0 3.896-1.065 5.024 3 5.024l-0.75-5.25c-0.68 0.227-1.659 0.355-2.25 0.75"/>

<path id="path107" d="m147 99.505v-0.75l0.75 3c1.685-0.209 3.747-2.73 1.5-3h0.75c-1.037 0.013-2.039 0.341-3 0.75"/>

<path id="path109" d="m148.5 95.755c-5.302 3.535 2.003 4.798 0.75 0.75-0.438 0.542-1.101 0.93-1.5 1.5 1.109-1.921 0.702-2.734-1.5-3-0.119 0.571-0.145 1.686 0 2.25l2.25-1.5"/>

<path id="path111" d="m151.5 96.505c-2.283-0.571-3.362-1.38-3.75 1.5 1.208 0.302 2.958 0.159 3 1.5v-0.75 0.75l0.75-3"/>

<path id="path113" d="m153.75 96.505c-2.597-0.809-2.516 1.063-3 3h3.75-0.75 0.75l-0.75-3"/>

<path id="path115" d="m159.75 97.255c-1.274-2.386-3.894-1.101-6-0.75 0.886 3.542 0.969 2.957 4.5 2.25-0.568-0.397-0.918-1.126-1.5-1.5 0.518 0 2.673 0.328 3 0 1.104-1.104-0.712-1.696-1.5-1.5 0.485 0.485 0.941 1.108 1.5 1.5"/>

<path id="path117" d="m138 89.755c7.879 5.253 18.875 9.083 25.667 0.028 5.512-7.35 4.172-18.512 1.45-26.676-1.766-5.297-12.724-20.223-18.867-16.852-3.652 2.004-4.706 8.861-5.98 12.292-2.006 5.402-4.013 10.805-6.02 16.208-3.776-3.372-7.552-6.743-11.328-10.114-3.222-2.876-6.908-7.629-10.811-9.58-3.964-1.982-6.526 5.938-7.409 8.586-1.645 4.934-1.953 9.476-1.953 14.652 0 8.716 5.98 19.321 13.806 23.233 8.492 4.247 19.21-2.975 21.445-11.777" clip-rule="evenodd" fill="#FFFFAF" fill-rule="evenodd"/>

<path id="path119" d="m143.25 91.255c-3.028-2.019-3.823-4.016-6-0.75 3.028 2.019 3.823 4.016 6 0.75"/>

<path id="path121" d="m147.75 93.505c-3.213-1.606-3.919-3.121-6 0l5.25 2.25c0.225-0.673 0.721-1.546 0.75-2.25"/>

<path id="path123" d="m151.5 94.255h0.75c-2.272-0.379-5.169-1.894-5.25 1.5 1.742 0.291 3.486 0.693 5.25 0.75h-0.75 0.75c-0.238-0.716-0.387-1.59-0.75-2.25"/>

<path id="path125" d="m155.25 94.255 0.75-0.75c-1.5 0.25-3 0.5-4.5 0.75 0.063 3.191 2.961 2.25 5.25 2.25h-0.75 0.75l-1.5-2.25"/>

<path id="path127" d="m158.25 92.755h0.75l-3.75 1.5c1.761 2.642 1.698 2.151 4.5 0.75l-1.5-2.25"/>

<path id="path129" d="m161.25 91.255v-0.75c-2.611 1.958-3.371 1.694-1.5 4.5l3-2.25c-0.462-0.462-0.933-1.188-1.5-1.5"/>

<path id="path131" d="m162.75 88.255h0.75c-1.193 1.591-3.382 3.135-0.75 4.5 0.912-1.216 2.064-2.271 2.25-3.75v0.75c-0.04-1.078-1.132-1.37-2.25-1.5"/>

<path id="path133" d="m164.25 85.255v-0.75l-1.5 3.75c2.416 1.739 3.185-0.496 4.5-2.25l-3-0.75"/>

<path id="path135" d="m165.75 81.505v-0.75l-1.5 4.5 3 0.75 0.75-4.5c-0.677 0-1.602-0.181-2.25 0"/>

<path id="path137" d="m165.75 77.005c0 1.744-0.915 4.5 1.125 4.5 2.013 0 1.581-2.735 1.875-4.5h-3"/>

<path id="path139" d="m165.75 72.505v4.25c0 0.349 2.728 0.54 3 0.25 0.467-0.498 0-3.513 0-4.25 0-0.535-2.442-0.25-3-0.25"/>

<path id="path141" d="m165 68.005c0.617 3.703-0.07 4.5 3.75 4.5-0.229-1.606 0.042-4.944-1.5-5.25h0.75c-1.037 0.013-2.039 0.341-3 0.75"/>

<path id="path143" d="m164.25 65.755c0.145 1.196 1.86 3.779 3 1.5s-1.957-2.102-3-1.5"/>

<path id="path145" d="m163.5 63.505c0.193 1.604 0.43 2.357 1.875 1.875 1.783-0.594 0.791-1.709 0.375-3.375l-2.25 1.5"/>

<path id="path147" d="m161.25 59.005v-0.75l2.25 5.25c1.233-0.822 2.521-0.958 1.804-2.392-0.608-1.217-1.09-3.583-2.554-3.608h0.75c-0.944 0.044-1.731 0.616-2.25 1.5"/>

<path id="path149" d="m158.25 54.505 3 4.5c3.336-1.721-1.255-4.374-1.5-6.75v0.75-0.75l-1.5 2.25"/>

<path id="path151" d="m154.5 50.755 3.75 3.75c2.751-4.126-1.576-2.367-2.25-6v0.75-0.75l-1.5 2.25"/>

<path id="path153" d="m151.5 48.505-0.75-0.75 3.75 3c1.593-2.39 1.054-4.085-2.25-4.5h0.75c-1.078 0.04-1.37 1.133-1.5 2.25"/>

<path id="path155" d="m150 47.755-0.75-0.75 2.25 1.5c1.402-2.312-0.149-2.145-0.75-3.75v0.75-0.75l-0.75 3"/>

<path id="path157" d="m148.5 47.005c0.387 0.344 1.033 0.517 1.5 0.75l0.75-3c-0.668 0-1.592-0.163-2.25 0h0.75c-1.027 0.124-1.074 1.101-0.75 2.25"/>

<path id="path159" d="m147.75 47.005h-0.75c2.561 0.54 1.833-3.801 0-2.25l0.75-0.75c-1.314 0.385-0.576 1.646 0 3"/>

<path id="path161" d="m147 47.005h-0.75c0.476 0.085 1.016 0 1.5 0-0.172-1.539-0.63-2.579-2.25-2.25l1.5 2.25"/>

<path id="path163" d="m146.25 47.755c1.754-1.577-1.85-4.435-2.25-1.5v-0.75c0.107 1.254 1.19 1.543 2.25 2.25"/>

<path id="path165" d="m145.5 48.505 0.75-0.75-2.25-1.5c-0.294 0.328-0.661 1.068-0.75 1.5 0.705 0.235 1.515 0.668 2.25 0.75"/>

<path id="path167" d="m133.5 75.505c4.072-0.276 5.239-8.797 6.358-11.81 1.88-5.063 3.761-10.127 5.642-15.19-3.768-2.54-5.413 7.767-6.358 10.31-1.88 5.063-3.761 10.127-5.642 15.19 0.464-0.3 1.053-0.427 1.5-0.75l-1.5 2.25c1.116 1.017 1.967 0.733 2.25-0.75-0.731 0.244-1.559 0.411-2.25 0.75"/>

<path id="path169" d="m113.25 56.755h-0.75l21 18.75c1.408-2.111 1.845-1.944 0.075-3.517-2.491-2.214-4.981-4.427-7.472-6.641-4.028-3.581-8.319-7-12.104-10.842l0.75 0.75-0.75-0.75c-0.236 0.712-0.653 1.509-0.749 2.25"/>

<path id="path171" d="m111.75 56.005c0.384 0.345 1.034 0.517 1.5 0.75 0.827-1.317 1.088-2.955-0.75-3h0.75c-1.078 0.04-1.37 1.133-1.5 2.25"/>

<path id="path173" d="m111 56.005c1.078-0.04 1.37-1.132 1.5-2.25-1.647-0.347-1.951 0.724-1.5 2.25"/>

<path id="path175" d="m110.25 56.005c1.399-0.168 1.273-2.676-0.75-2.25 0.238 0.715 0.386 1.594 0.75 2.25"/>

<path id="path177" d="m109.5 56.755c0.976-0.809 0.68-1.917 0-3-1.033 0.574-1.332 0.428-1.5 1.5v-0.75c0.044 0.944 0.616 1.732 1.5 2.25"/>

<path id="path179" d="m108 59.005h-0.75c1.501-1.501 2.767-1.733 1.139-3.361-0.765-0.765-2.619 1.841-3.389 2.611l0.75-0.75-0.75 0.75 3 0.75"/>

<path id="path181" d="m105.75 62.755 2.25-3.75c-3.59-0.897-3.136-0.409-4.5 3 0.671 0.224 1.548 0.724 2.25 0.75"/>

<path id="path183" d="m105 67.255v0.75c0.338-2.367 2.057-5.909-1.5-6l-1.5 5.25h3"/>

<path id="path185" d="m104.25 72.505v0.75l0.75-6c-4.069 0-3.193 1.353-3.75 5.25h3"/>

<path id="path187" d="m104.25 77.755v0.544c0-2.862 1.296-5.794-1.944-5.794-2.066 0-1.056 4.226-1.056 6l3-0.75"/>

<path id="path189" d="m104.25 83.005h0.75l-0.75-5.25c-4.045 1.011-2.818 2.021-2.25 6 0.679-0.226 1.659-0.354 2.25-0.75"/>

<path id="path191" d="m105.75 87.505-1.5-4.5c-3.614 0.119-1.478 3.068-0.75 5.25 0.669-0.223 1.677-0.348 2.25-0.75"/>

<path id="path193" d="m108 91.255c-1.345-2.241-1.667-4.59-4.5-3l2.25 4.5 2.25-1.5"/>

<path id="path195" d="m110.25 95.005-2.25-3.75-2.25 1.5 3 3.75c0.461-0.461 1.191-0.933 1.5-1.5"/>

<path id="path197" d="m113.25 98.005-3-3c-2.518 1.307-0.445 4.16 1.5 4.5h-0.75c0.944-0.044 1.732-0.615 2.25-1.5"/>

<path id="path199" d="m115.5 99.505 0.75 0.75c-1.591-1.193-3.135-3.381-4.5-0.75l3 2.25c0.229-0.686 0.7-1.532 0.75-2.25"/>

<path id="path201" d="m118.5 101h0.75l-3.75-1.5c-1.67 2.32 0.767 4.22 3 4.5h-0.75c1.358-0.025 0.75-1.814 0.75-3"/>

<path id="path203" d="m122.25 101.76-3.75-0.75c0 3.566 0.367 3 3.75 3h-0.75c1.027-0.123 1.074-1.101 0.75-2.25"/>

<path id="path205" d="m124.5 101.76h0.75c-2.422 0-3-0.62-3 1.898 0 0.722 2.903 0.352 3.75 0.352h-0.75 0.75l-1.5-2.25"/>

<path id="path207" d="m128.25 100.26-3.75 1.5c0.855 1.283 0.956 2.468 2.472 1.861 1.166-0.467 2.74-0.54 2.778-1.861v0.75c-0.044-0.943-0.616-1.731-1.5-2.25"/>

<path id="path209" d="m132 97.255-3.75 3c1.51 2.9 3.615-0.192 5.25-1.5-0.461-0.461-0.933-1.191-1.5-1.5"/>

<path id="path211" d="m135 93.505c-1.454 1.817-3.716 3.034-1.889 4.861 0.801 0.801 3.354-2.577 4.139-3.361l-2.25-1.5"/>

<path id="path213" d="m136.5 91.255c-0.262 0.393-1.583 1.836-1.5 2.25 0.036 0.181 2.069 1.536 2.25 1.5s1.536-2.069 1.5-2.25c-0.083-0.413-1.856-1.237-2.25-1.5"/>

<path id="path215" d="m138.75 88.255c-3.416 0.74-1.807 3.295 0 4.5 0.317-0.584 0.668-1.591 0.75-2.25-0.714 0.149-1.545-0.181-2.25 0 0.808-1.211 1.962-1.91 0.75-3-0.277 0.405-0.645 1.023-0.75 1.5 0.49-0.245 1.049-0.44 1.5-0.75"/>

<path id="path217" d="m135 74.755c0.81-4.352 6.959-3.981 8.25 0 1.765 5.442-3.866 6.923-7.5 4.5-1.334 3.783-9 4.613-9-0.352 0-5.248 4.263-6.445 8.25-4.148" clip-rule="evenodd" fill="#0E0D0D" fill-rule="evenodd"/>

</svg>
