<?xml version="1.0" encoding="UTF-8"?>
<!-- Created with Inkscape (http://www.inkscape.org/) -->
<svg id="svg2" width="128" height="128" version="1.0" xmlns="http://www.w3.org/2000/svg" xmlns:cc="http://creativecommons.org/ns#" xmlns:dc="http://purl.org/dc/elements/1.1/" xmlns:rdf="http://www.w3.org/1999/02/22-rdf-syntax-ns#" xmlns:xlink="http://www.w3.org/1999/xlink">
 <defs id="defs4">
  <linearGradient id="linearGradient3130">
   <stop id="stop3132" stop-color="#8dbbdc" offset="0"/>
   <stop id="stop3134" stop-color="#dadada" offset="1"/>
  </linearGradient>
  <linearGradient id="linearGradient2338">
   <stop id="stop2340" stop-color="#b1b1b1" offset="0"/>
   <stop id="stop2342" stop-color="#e4e4e4" offset="1"/>
  </linearGradient>
  <linearGradient id="linearGradient2404">
   <stop id="stop2406" stop-color="#b49900" offset="0"/>
   <stop id="stop2412" stop-color="#ffda0a" offset=".5"/>
   <stop id="stop2408" stop-color="#c6a800" offset="1"/>
  </linearGradient>
  <linearGradient id="linearGradient2527" x1="27.522" x2="39.765" y1="101.36" y2="89.773" gradientUnits="userSpaceOnUse" xlink:href="#linearGradient2338"/>
  <linearGradient id="linearGradient2531" x1="49.297" x2="64.346" y1="117.45" y2="94.962" gradientUnits="userSpaceOnUse" xlink:href="#linearGradient2338"/>
  <linearGradient id="linearGradient2535" x1="82.854" x2="90.984" y1="104.56" y2="88.649" gradientUnits="userSpaceOnUse" xlink:href="#linearGradient2338"/>
  <linearGradient id="linearGradient2539" x1="52.5" x2="73" y1="35.312" y2="40.312" gradientUnits="userSpaceOnUse" xlink:href="#linearGradient2404"/>
  <linearGradient id="linearGradient2543" x1="62.125" x2="68.5" y1="28.812" y2="31.188" gradientUnits="userSpaceOnUse" xlink:href="#linearGradient2404"/>
  <linearGradient id="linearGradient2547" x1="67.688" x2="69" y1="25.875" y2="17.062" gradientUnits="userSpaceOnUse" xlink:href="#linearGradient2404"/>
  <linearGradient id="linearGradient3136" x1="62.314" x2="58.037" y1="72.649" y2="72.13" gradientUnits="userSpaceOnUse" xlink:href="#linearGradient3130"/>
  <linearGradient id="linearGradient3138" x1="55.662" x2="59.353" y1="63.875" y2="64.74" gradientUnits="userSpaceOnUse" xlink:href="#linearGradient3130"/>
  <filter id="filter3164">
   <feGaussianBlur id="feGaussianBlur3166" stdDeviation="1.0091826"/>
  </filter>
 </defs>
 <metadata id="metadata7">
  <rdf:RDF>
   <cc:Work rdf:about="">
    <dc:format>image/svg+xml</dc:format>
    <dc:type rdf:resource="http://purl.org/dc/dcmitype/StillImage"/>
   </cc:Work>
  </rdf:RDF>
 </metadata>
 <g id="layer2" fill-rule="evenodd">
  <path id="path3158" d="m30.25 108.25c-2.1267 0.70891-11.287-6.9045-6-16.5 3.4164-6.2011 13-10.5 13-10.5l-6-24-7.25 4.25-2-4.75 8.25-2.75-3-4.75 7.25-5.5-0.25 8.5 6.75-1.75 1 3.75-5.25 1.75 3.75 22.25s6.25-1.5 10 0.25 7.25 5 7.25 8.75-22.25 25.75-27.5 21z" fill-opacity=".55656" filter="url(#filter3164)"/>
  <path id="path2525" d="m47.222 84.93-4.1514-1.3838-3.9784 1.9027-6.7459 3.8054-1.5568 1.5568-0.51892 1.5568-1.0378 1.9027-2.7676 5.5351 1.2108 3.9784 2.9405 3.2865h1.3838l1.3838-9.1676 2.0757-4.1514 3.6324-3.2865 4.3243-2.4216 3.8054-3.1135z" fill="url(#linearGradient2527)"/>
  <path id="path2529" d="m53.795 78.357-1.7297 1.3838-3.1135 2.0757-1.7297 3.1135-4.3243 3.9784-5.0162 2.7676-2.4216 3.1135-3.2865 6.4v5.7081l-0.69189 2.9405c0.58692 2.7705 2.0906 3.2492 3.2865 4.4973 0 0 2.9405 1.3838 4.1514 2.4216 1.2108 1.0378 3.2865 0.69189 5.0162 1.7297 1.7297 1.0378 4.8432 1.5568 4.8432 1.5568l4.6703 2.0757 5.1892 2.5946 3.2865 0.6919 4.6703-0.6919 2.4216-1.2108 3.1135-3.2865 3.9784-2.2486 2.7676-7.4378 1.5568-5.7081-0.6054-4.4973-0.86486-2.1622-0.43243-5.7946-4.4973-4.8432-5.5351-2.5946-7.4378-3.2865-1.3838-2.7676-0.69189 2.0757-2.4216 0.17297-2.4216-1.7297-0.34595-1.0378z" fill="url(#linearGradient2531)"/>
  <path id="path2533" d="m80.086 107.24 1.7297 1.5568 3.2865 0.86486 6.4-1.3838 3.2865-1.3838 2.0757-1.7297-0.86486-5.3622-2.0757-5.1892-1.7297-3.9784-2.9405-3.2865-2.5946-1.7297-4.3243 1.2108s-3.2865 0.51892-3.9784 0.51892-5.3622-0.17297-5.3622-0.17297l4.3243 3.1135 1.0378 2.4216 0.51892 3.8054-0.086486 1.7297c0.99444 1.3838 1.7269 2.7676 1.1243 4.1514l0.17297 4.8432z" fill="url(#linearGradient2535)"/>
  <path id="path2537" d="m62 39.25h-6-6l0.875-1.75 1.25-5.875 6 2.875 9.875 2.25h8l-1.25 3.5-1 4.25-2.875-2.125-4.5-2.5-4.375-0.625z" fill="url(#linearGradient2539)"/>
  <path id="path2541" d="m60.5 34.75s1.375-3.875 1.375-4.375 0.375-6.625 0.375-6.625l9.25 2.25-1.875 2.625-1.75 4-0.25 3.75-4.125-0.75-3-0.875z" fill="url(#linearGradient2543)"/>
  <path id="path2545" d="m62.25 23.875-2-1.875 0.25-1.125 2.25-0.125 4.75 0.125s3.25 0.75 4.875 1.5 2.75 2.375 2.75 2.375l-0.75 0.625-3 0.5-4.625-1-4.5-1z" fill="url(#linearGradient2547)"/>
  <path id="path2549" d="m54.624 79.475 5.0381-40.482 4.4194 0.35355-7.7782 41.454-1.6794-1.3258z" fill="url(#linearGradient3138)"/>
  <path id="path2551" d="m63.816 39.612-7.3362 41.101 2.2097 0.26516 9.4576-40.482-4.331-0.88388z" fill="url(#linearGradient3136)"/>
  <path id="path3140" d="m47.222 84.93-4.1514-1.3838-3.9784 1.9027-6.7459 3.8054-1.5568 1.5568-0.51892 1.5568-1.0378 1.9027-2.7676 5.5351 1.2108 3.9784 2.9405 3.2865h1.3838l1.3838-9.1676 2.0757-4.1514 3.6324-3.2865 4.3243-2.4216 3.8054-3.1135z" fill-opacity=".15686"/>
  <path id="path3142" d="m32.875 102.88 1.25-5.375 4.25-6.75 0.875 0.25-2.875 6-0.125 6.75c-1.0656-0.41047-1.7151-1.6532-3.375-0.875z" fill-opacity=".15686"/>
  <path id="path3144" d="m43.5 102.25c0-0.5 1.5-3 1.5-3l5.75-1-1.25 3.125 1.625 10.5c-1.3867-2.3802-1.5084-7.7964-4.375-6.625 0.22559-2.9634-1.5263-2.9606-3.25-3z" fill-opacity=".15686"/>
  <path id="path3146" d="m13.875 103.38c2.9288 2.8729 1.9909 3.9883 1.375 5.25 5.7938-1.8366 11.215-3.1143 14.375-1l-1.75-3.5-6.625 1.625-3.375-0.75-4-1.625z" fill-opacity=".15686"/>
  <path id="path3148" d="m61.5 117.12c0.125-0.5 3.75-2.625 3.75-2.625l3-5.625 0.125-3.625 3.875 5-0.625 4.375-1.375 4.375c-1.3212-3.8254-5.1081-3.3541-8.75-1.875z" fill-opacity=".15686"/>
  <path id="path3150" d="m74.875 102.88-4.75-6.625-4.5-5.75v2.125l1 4.875 0.375 4.25c2.115-4.4701 5.152-0.18113 7.875 1.125z" fill-opacity=".15686"/>
  <path id="path3152" d="m87.375 103.12c0.91801-3.453 3.0072-2.2211 4.875-1.875l-3.625-3-2.375-1.375 1.625 4.25-0.5 2z" fill-opacity=".15686"/>
  <path id="path3154" d="m106.62 118.12-4.5-4.875-1.5-0.375 0.25 6c1.7119-2.7071 3.709-1.9914 5.75-0.75z" fill-opacity=".15686"/>
  <path id="path3156" d="m77.5 115.12 2.5-7.75 3 2.25h3.125c-3.2788 0.89107-6.3388 2.2929-8.625 5.5z" fill-opacity=".15686"/>
 </g>
 <g id="layer1">
  <path id="path2308" d="m61.625 3.9062-0.125 0.1875c-0.65186 4.2198 0.70624 8.1045 2 12l0.375-0.0625c-0.15855-4-0.47427-8.125-2.25-12.125zm-20.062 0.34375c2.1694 4.8324 3.9268 9.8022 8 14l0.125-0.125c-1.2923-4.6667-4.537-9.2083-7.75-13.875h-0.375zm48.094 1.375c-3.5304 2.6059-7.1146 5.1041-10 9l0.0625 0.125c4.1272-1.8092 7.0696-4.9582 9.875-8.75l0.0625-0.375zm-62.906 11.812c4.16 3.8489 8.84 6.4844 14 8h0.125c-3.7452-3.5881-8.1323-6.4094-13.875-8h-0.25zm35.906 2.8438c-0.65927 0.016909-1.3187 0.077029-1.9688 0.21875-1.0984 0.67303-0.84832 1.2379-0.40625 2.25 0.28325 0.38108 0.72005 0.80722 1.2812 1.2812 0.011513 0.10569 0.021829 0.20746 0.03125 0.3125-0.61063 0.47917-0.95868 1.1458 0.0625 1.625 0.003774 0.68572-0.026814 0.77227-0.09375 1.4375-0.93152 0.17238-1.3336 1.1481-0.15625 1.9062-0.11452 0.73559-0.27321 1.2129-0.4375 1.9375-0.57099-0.072488-1.0939 0.5799-0.28125 1.4375-0.17605 0.70727-0.34507 1.1015-0.53125 1.8125l-8.8438-3.6875c0.94414 3.5536-0.38947 6.2816-2 8.9062l10.281-0.03125-5.1875 38.125c-0.072751-0.009679-0.58398 0.071423-0.65625 0.0625l-1.1875 1.3125c-1.4876 0.096594-2.6154 1.3022-3.7188 2.4062l-0.0625 0.03125-0.03125 0.0625c-0.45503 0.77502-0.9474 1.4766-1.5 2.125-2.0043-0.287-3.8041-0.57834-5.6875 0.15625v0.03125c-0.008271 0.006046-0.023029-0.006169-0.03125 0-3.9991 2.0186-8.22 3.2816-11.156 6.8438-0.35999 1.596-1.0049 3.3161-1.9375 4.625-0.95017 1.2658-2.2741 2.172-2.4375 3.9375 0.13039 1.2157 0.52029 2.3721 0.96875 3.5-2.2554 0.18307-4.3361 1.3833-6.3438 2.375-0.43748-0.39532-2.0372-0.05186-2.875-0.40625-3.0155-1.8718-6.3075-2.4703-9.75-2.0938l-0.25 0.09375c3.3505-0.04654 6.7075 0.87148 9.6875 2.375 0.67488 0.33362 2.2444 0.60759 3 0.71875-2.518 1.6394-6.0827 2.817-8.0938 5.4688l0.15625-0.03125c2.0529-2.7069 5.689-3.1053 8.5938-5.2188 1.8256-1.0266 4.4208-1.3402 6.5625-1.6562 0.76333 1.3461 1.5213 3.1945 3.1875 4.0938-0.32159 1.4136 0.069608 1.876 0.53125 3 3.2171 6.2109 11.241 7.0599 17.312 8.8438h0.03125 0.03125c2.2976 0.70898 4.1191 1.9754 6.0625 3.0938s4.0037 2.6168 6.6562 2.6875c2.7305 0.00993 4.9908-0.17443 7-1.9062 1.7519-1.7826 3.5149-3.2548 5.6875-4.5 3.3241-1.9291 4.4717-5.9745 5.25-9.5 0.27172-0.77429 0.50675-1.5604 0.75-2.3438 0.89267 1.037 2.1126 1.9817 3.6562 2.0625h0.0625 0.03125c2.0749-0.24373 5.3108-0.40868 8.125-1.125 1.6756 2.1945 5.4753 3.0163 8.0938 4.0625-0.13077 1.8939 0.78723 4.1677 0.6875 6.0625l0.09375-0.125c0.16168-1.8283 0.11479-3.6665 0.1875-5.5 1.0994 0.57278 1.997 1.1939 2.4375 1.7812 1.1362 1.515 3.4058 4.0932 4.6562 5.3438l0.21875-0.0625c-1.1852-1.1852-2.9807-4.4325-4.0625-5.875-1.6725-1.8534-4.0674-2.7388-6.3438-3.625 3.9808-1.7043 7.4451-1.2487 11.375-0.59375l-0.0625-0.0625c-5.6642-1.2444-7.9693-0.61692-12.75-0.25l-2.6875-1.7812c3.2399-1.3163 4.2958-3.7665 3.0312-7.1562-0.91486-3.9439-2.58-7.4602-5.0312-10.656-1.4881-2.3189-2.9047-5.0856-6-5.0625l-0.03125 0.03125h-0.03125c-3.5933 1.5432-9.0048 1.2536-12.625 1.2812-3.6748-2.0055-8.1329-3.512-12.188-5.3125-0.46862-0.2081-0.30378-2.6013-0.78125-2.75l7.7812-37.094 6.2812 3.5938c-0.051164-3.0327 0.69778-6.061 2.5312-9.0938-2.8843 0.28405-6.0333 0.27426-8.9062-0.03125 0.044629-0.22712 0.080142-0.46122 0.125-0.6875 0.34136-0.22685 0.51678-0.46149 0.15625-0.6875 0.14982-0.72868 0.30675-1.4359 0.5-2.1562 0.66019-0.20513 0.66454-0.56116 0.28125-1 0.14657-0.46156 0.31278-0.91662 0.5-1.375 0.41138-0.1563 1.0364-0.17018 0.4375-1 0.15964-0.32431 0.34092-0.64458 0.53125-0.96875 0.65721 0.099761 0.59174-0.40272 0.5625-0.875 0.199-0.29097 0.39486-0.58363 0.625-0.875 0.91779 0.2772 2.5086-0.29179 3.5625-0.6875 0.92192-0.63745 0.6683-0.96386 0.375-1.8438-2.0391-1.4944-4.5974-2.1369-7-2.8438-1.9285-0.41348-3.9284-0.83198-5.9062-0.78125zm0.875 0.84375c1.5987-0.043598 3.2962 0.21448 4.8438 0.5 2.3642 0.59521 5.2003 1.3057 6.5625 3.0625-1.0749 0.68689-2.2684 0.92145-3.5625 0.90625-3.0701-0.50562-6.1006-1.0904-8.9375-2.0625-0.78846-0.4798-1.9437-1.0822-1.625-1.9375 0.82568-0.29524 1.7595-0.44259 2.7188-0.46875zm37.312 3.4062c-4.6667 0.82567-9.3333 2.8641-14 5l0.1875 0.3125c4.8508-0.56206 9.6068-2.5678 14.125-5.125l-0.3125-0.1875zm-38.312 0.03125 2.1562 0.71875 4.0625 4.125c-0.24011 0.54286-0.63101 1.6468-0.8125 2.1875l-5.375-6.3125c-0.007724-0.24075-0.014337-0.47482-0.03125-0.71875zm3.6875 0.84375 2.4062 0.6875 1.1562 1.375c-0.20365 0.33388-0.6083 1.1663-0.78125 1.5l-2.7812-3.5625zm3.875 0.90625 0.375 0.09375c-0.04555 0.063218-0.33075 0.78052-0.375 0.84375v-0.9375zm-7.5312 0.625 5.2188 5.1562c-0.14575 0.51648-0.38342 1.7685-0.5 2.2812l-4.875-5.7188c0.076068-0.62812 0.13154-1.0712 0.15625-1.7188zm-0.3125 2.9688 4.8438 4.8438c0.21087-0.085237-0.10034 0.8984-0.15625 1.1875-0.22044-0.031442-1.3112-0.1843-1.5312-0.21875l-3.5938-3.7812c0.152-0.67539 0.32159-1.3387 0.4375-2.0312zm-9.6562 2.9688c7.1088 2.9677 14.843 4.8171 22.625 4.4688l-1.7812 6.0938c-8.4821-6.3101-15.184-4.6077-22.344-4.9688l1.5-5.5938zm8.9375 0.1875 2.9688 2.4688c-1.1319-0.21936-2.258-0.48925-3.375-0.78125 0.14418-0.55468 0.26818-1.1256 0.40625-1.6875zm-34.344 5.9062c-1.3805 0.010112-2.8014 0.10205-4.25 0.28125v0.25c5.1058 2.4868 10.573 1.2053 16 1.125l0.125-0.125c-3.8668-0.89952-7.7334-1.5616-11.875-1.5312zm32.656 0.5625 3.875 0.5625-7.5312 39.906c-0.43906-0.096541-0.88588-0.17566-1.3125-0.25l4.9688-40.219zm4.0625 0.78125 3.75 0.71875-9.0625 39.531-1.8438-0.3125 7.1562-39.938zm20.188 1.1875-0.0625 0.25c5.1294 1.5099 10.224 3.1078 16 3l0.0625-0.25c-4.7102-2.0385-10.305-2.6028-16-3zm-3.7188 9.1562-0.25 0.4375c1.6545 3.4268 6.1469 6.8841 10 10.625l0.25-0.0625c-3.0629-4.0272-5.9776-8.252-10-11zm-39.531 0.875c-6 0.69403-10.5 3.1056-16.5 5.75l0.0625 0.4375c5.4398-0.78616 11.01-2.9173 16.625-5.875l-0.1875-0.3125zm30.719 8.7188c2.2329 4.7169 3.8871 9.7231 8 13.5l0.125-0.5c-1.3734-4.7587-4.9934-8.543-7.875-13h-0.25zm-25.406 0.625c-3.5778 2.4259-7.0337 5.055-9.625 9.125l0.0625 0.25c4.4038-2.0853 6.9189-5.6565 9.75-9l-0.1875-0.375zm7.4375 18.531c0.087254-0.028086 0.17193-0.012761 0.25 0 0.44406 0.072586 0.55748 1.6208 0.625 1.625 0.42636 0.73036-0.033743 0.87994 0.71875 1.3125 0.88008 0.5059 1.8835 0.88153 2.875 1.2812 1.9829 0.79944 3.8233 1.6576 4.4688 3.4062 0.93159 1.1855 1.463 2.5897 2.0312 3.9688 0.59899 1.8787 1.543 4.1017 1.8438 6.1875-0.10854 2.0239-0.39353 4.0281 0.4375 5.875 0.52612 0.8774 0.56593 2.1223 1.0625 2.9062 0.035719 1.4797 0.30743 2.2906-0.4375 3.5625-1.1206 3.6656-3.3758 5.4615-6.25 7.4375l0.03125 0.25c3.5625-1.2182 5.2353-4.1273 7.0938-7.1875 0.53883-0.92001 0.62715-1.7829 0.84375-2.8438 0.31834 0.55203 1.0039 1.0659 1.375 1.7188 0.31035 0.54593 0.60395 1.0747 0.8125 1.5312s0.3125 0.86899 0.3125 0.96875c-0.005685 3.0366-0.85683 6.4062-2.5625 8.9688s-4.1939 4.3126-7.625 4.3438c-2.4197-0.06453-4.2868-0.93743-6.1875-2.0312-1.8932-1.0895-3.7975-1.8626-6.25-2.625-2.9519-1.2116-6.0436-2.5908-9.0625-3.625 1.3099-1.2782 1.2688-2.4745 2.5625-3.625 1.4756-1.3123 2.7459-2.5764 3.125-4.0938 0.55737-2.2308 1.9034-4.9064 3.375-7.0312 0.40787 3.6019 1.0872 7.9884 2.4062 11.438l0.21875-0.125c-1.3974-3.6538-1.1546-7.8901-1.5938-11.844 0.67338-1.0522 1.2804-2.1688 1.7188-3.375-0.046899-1.1761 0.032831-2.2485 0.65625-3.1875 0.64206-0.64146 1.9096-1.2146 2.8125-2.125l-0.09375-0.25c-0.79611 0.80277-2.2305 1.1375-3 1.9062-0.71815 0.71749-1.2062 1.7217-1.2812 3.1875-1.8911 0.76058-3.9493 0.98021-5.9375 1.375-1.2352 0.97235-1.4463 2.5323-1.7812 4l0.25 0.4375c0.15165-1.2659 1.4253-2.87 2.0938-3.9062 1.5885-0.45073 3.1632-0.16808 4.7812-0.5-1.651 3.2697-4.6683 6.0459-5.5938 9.75-0.27973 1.1196-2.094 2.2218-3.5312 3.5-1.3585 1.2082-1.4004 2.2603-2.8438 3.7188-2.3205-0.87369-4.72-2.4093-6.0312-4.4375-0.5692-1.3859-0.5055-2.9397 0.46875-5.1562-0.012363-5.5961 1.7605-10.08 5.375-14.25-0.86018 1.7191-1.8435 3.8103-2.375 5.9375-0.50903 2.2103-0.20211 4.3549 0.40625 6.5l0.34375-0.15625c-0.53977-1.987-0.36948-4.0484-0.1875-6.0938 0.66896-2.6074 3.2935-5.7957 4.25-7.6875 3.6369-2.2892 6.5343-4.0327 8.9375-8.0312 0.94603-0.9466 1.4222-1.5268 2.5938-1.625 0.085593-0.007175 0.85797-1.0846 1.4688-1.2812zm6.125 0.59375c0.053007-0.029294 0.14097-0.026757 0.21875 0 0.29546 0.10164 0.6657 2.5171 0.96875 2.625 3.8926 1.3864 8.5224 3.3482 11.688 5.0625 0.24208 0.29555 1.0437 0.57808 1.5 0.84375 1.9023 1.0149 3.0156 2.3269 3.6875 3.9062s0.89751 3.4201 0.96875 5.4688c1.9756 4.0793 0.97853 8.0152-0.28125 12.125-0.51742 3.6437-2.0422 6.5759-4.8125 8.9688-2.0622 0.80412-3.1608 2.4485-4.5625 4.0625-0.62816 0.5214-0.27975-0.72003-0.59375-0.5625 1.9597-2.8854 3.9989-7.681 4.1875-11.094 1e-6 -0.44523-0.17552-0.86989-0.40625-1.375s-0.52664-1.0672-0.84375-1.625c-0.63422-1.1156-1.3515-2.2438-1.5625-2.7188-0.52963-1.1924-1.645-2.2723-2.1562-3.125-0.80608-1.3443-0.84375-3.7107-0.84375-5.2812v-0.03125-0.03125c-0.17324-1.2833-0.71788-4.9106-1-6.2188 1.342 1.7013 3.071 5.5962 5.0312 6.9375 1.6132 1.8188 3.1523 3.6138 4.2188 5.7188l0.34375-0.21875c-1.1377-2.2455-2.1924-4.361-3.8125-6.1875l-0.0625-0.03125c-2.4422-1.7067-3.9338-4.3278-5.6562-6.6875-0.48341-1.4228-1.5537-2.6106-2.4688-3.8438-0.92821-2.0523-2.823-2.6822-4.7812-3.4375-1.0036-0.40462-1.1588-1.3336-1.9375-1.7812 1.2925-0.28055 1.5463-0.17119 2.25-0.03125 0.50453 0.15914 0.3477-1.2324 0.71875-1.4375zm-16.938 4.1875c1.0479 0.017402 2.1315 0.60239 3.125 0.9375-2.8799 2.7634-5.9766 4.3343-9.2812 6.5312v0.03125h-0.03125c-4.8729 3.9026-3.3047 10.064-5.1562 15.156-1.4128-0.80466-2.3234-1.713-2.9688-2.8438-1.7766-3.1775-1.601-5.4896 0.40625-8.375 0.90242-1.2022 1.8839-2.5162 2.3125-4.1875 2.8798-3.2044 6.8761-4.9538 10.562-7.0312 0.33407-0.14939 0.68195-0.22455 1.0312-0.21875zm43.344 1.6875c2.5599 0.19129 3.7237 3.405 5.0312 5.3125 2.5706 2.8761 3.7487 6.5037 4.7812 10.219v0.03125l0.03125 0.0625c1.5247 3.1192-0.056305 4.8109-2.8125 6.0625-2.8169 0.99988-6.7584 1.2091-9.2812 1.5-1.5639-0.17231-2.4105-1.1651-3.4062-2.25 0.72822-2.9294 0.05605-5.607-1.5-8.8438-0.073072-2.1012 0.46839-4.1754-0.28125-5.9375-0.71031-1.6696-2.3549-2.9089-4.25-4 1.8253 0.006137 4.3174-0.18998 6.4062-0.40625 1.9813 0.91308 2.9981 1.9243 3.75 3.9688 0.30452 1.9597 0.35291 3.925 1.625 5.5 0.19527 1.2264 0.806 2.831 1.1562 4.1875 0.15862 1.0484 0.013 1.9441-1.0312 3.4688l0.09375 0.3125c1.1288-1.6481 2.1292-2.6706 1.9375-3.9375-0.13966-0.92308-0.50037-1.8234-0.875-2.9375 1.7554 1.1718 3.577 2.0399 5.0625 3.5312v-0.375c-1.4484-2.4602-4.5446-3.1484-6.4688-5.1562-0.49181-1.4488-0.22823-3.3454-0.53125-4.8438-0.35694-1.9069-0.90894-3.4575-2.4688-4.375 1.2882-0.21388 1.9184-0.62253 3.0312-1.0938z" fill-rule="evenodd"/>
 </g>
</svg>
