<?xml version="1.0" encoding="UTF-8"?>
<!-- Created with Inkscape (http://www.inkscape.org/) -->
<svg id="svg2" width="128" height="128" version="1.0" xmlns="http://www.w3.org/2000/svg" xmlns:cc="http://creativecommons.org/ns#" xmlns:dc="http://purl.org/dc/elements/1.1/" xmlns:rdf="http://www.w3.org/1999/02/22-rdf-syntax-ns#" xmlns:xlink="http://www.w3.org/1999/xlink">
 <defs id="defs4">
  <linearGradient id="linearGradient2517" x1="59.626" x2="70.634" y1="40.12" y2="41.771" gradientUnits="userSpaceOnUse" xlink:href="#linearGradient3462"/>
  <linearGradient id="linearGradient2521" x1="58.22" x2="64.274" y1="19.388" y2="21.59" gradientUnits="userSpaceOnUse" xlink:href="#linearGradient3462"/>
  <linearGradient id="linearGradient2525" x1="71.613" x2="75.649" y1="16.575" y2="21.529" gradientUnits="userSpaceOnUse" xlink:href="#linearGradient3462"/>
  <linearGradient id="linearGradient2529" x1="60.972" x2="63.724" y1="23.853" y2="16.331" gradientUnits="userSpaceOnUse" xlink:href="#linearGradient3462"/>
  <linearGradient id="linearGradient3514" x1="65.01" x2="70.048" y1="35.811" y2="32.983" gradientUnits="userSpaceOnUse" xlink:href="#linearGradient3332"/>
  <linearGradient id="linearGradient3518" x1="72.081" x2="76.368" y1="36.341" y2="32.629" gradientUnits="userSpaceOnUse" xlink:href="#linearGradient3332"/>
  <linearGradient id="linearGradient3524" x1="73.23" x2="75.174" y1="34.64" y2="33.137" gradientUnits="userSpaceOnUse" xlink:href="#linearGradient2320"/>
  <linearGradient id="linearGradient3528" x1="66.291" x2="68.413" y1="36.606" y2="35.06" gradientUnits="userSpaceOnUse" xlink:href="#linearGradient2320"/>
  <linearGradient id="linearGradient3532" x1="77.914" x2="91.747" y1="37.8" y2="29.756" gradientUnits="userSpaceOnUse" xlink:href="#linearGradient3332"/>
  <linearGradient id="linearGradient3536" x1="64.037" x2="75.881" y1="51.323" y2="41.733" gradientUnits="userSpaceOnUse">
   <stop id="stop2406" stop-color="#b49900" offset="0"/>
   <stop id="stop2412" stop-color="#ffda0a" offset=".5"/>
   <stop id="stop2408" stop-color="#c6a800" offset="1"/>
  </linearGradient>
  <linearGradient id="linearGradient3540" x1="46.669" x2="59.795" y1="55.566" y2="38.86" gradientUnits="userSpaceOnUse" xlink:href="#linearGradient3332"/>
  <linearGradient id="linearGradient3544" x1="61.042" x2="70.763" y1="72.753" y2="71.719" gradientUnits="userSpaceOnUse" xlink:href="#linearGradient2320"/>
  <linearGradient id="linearGradient3548" x1="57.718" x2="67.705" y1="77.928" y2="78.061" gradientUnits="userSpaceOnUse" xlink:href="#linearGradient3462"/>
  <linearGradient id="linearGradient3552" x1="58.734" x2="70.932" y1="81.464" y2="81.596" gradientUnits="userSpaceOnUse" xlink:href="#linearGradient3332"/>
  <linearGradient id="linearGradient3556" x1="51.044" x2="76.014" y1="97.727" y2="98.257" gradientUnits="userSpaceOnUse" xlink:href="#linearGradient3332"/>
  <linearGradient id="linearGradient3560" x1="54.27" x2="64.744" y1="98.036" y2="98.036" gradientUnits="userSpaceOnUse" xlink:href="#linearGradient2320"/>
  <linearGradient id="linearGradient3567" x1="71.688" x2="76.812" y1="97.391" y2="97.391" gradientUnits="userSpaceOnUse" xlink:href="#linearGradient2320"/>
  <linearGradient id="linearGradient3573" x1="49.144" x2="81.627" y1="117.26" y2="117.26" gradientUnits="userSpaceOnUse" xlink:href="#linearGradient2320"/>
  <filter id="filter3643">
   <feGaussianBlur id="feGaussianBlur3645" stdDeviation="1.4283436"/>
  </filter>
  <linearGradient id="linearGradient2320">
   <stop id="stop2322" stop-color="#6a3c1d" offset="0"/>
   <stop id="stop2324" stop-color="#8f5127" offset="1"/>
  </linearGradient>
  <linearGradient id="linearGradient3332">
   <stop id="stop3334" stop-color="#bb8f56" offset="0"/>
   <stop id="stop3336" stop-color="#d1af63" offset="1"/>
  </linearGradient>
  <linearGradient id="linearGradient3462">
   <stop id="stop3464" stop-color="#4f0000" offset="0"/>
   <stop id="stop3466" stop-color="#610000" offset="1"/>
  </linearGradient>
  <linearGradient id="linearGradient2374" x1="60.411" x2="69.708" y1="75.892" y2="75.632" gradientUnits="userSpaceOnUse" xlink:href="#linearGradient3332"/>
 </defs>
 <metadata id="metadata7">
  <rdf:RDF>
   <cc:Work rdf:about="">
    <dc:format>image/svg+xml</dc:format>
    <dc:type rdf:resource="http://purl.org/dc/dcmitype/StillImage"/>
   </cc:Work>
  </rdf:RDF>
 </metadata>
 <g id="layer2" fill-rule="evenodd">
  <path id="path3579" d="m43.025 73.596c-0.819 1.2384-1.7183 2.4676-1.4673 3.8285-0.096997 0.77316-0.031147 1.6526-0.032065 2.3688-0.98694 0.7399-2.7876 1.3382-2.3567 2.3248-0.16138 0.68413 0.1356 1.5674-0.29118 2.1298-7.5029 1.0932-15.178 2.0358-22.834 2.9949-0.79138 0.42774-0.61245 1.4695 1.0508 1.6021 1.164 0.2839 4.3116 0.074323 3.9896 0.72787-0.45647 0.65062 1.4266 1.3871 3.0406 1.1328 3.161-0.47735 0.45515 2.2479 4.571 1.578 2.8707-0.99266 1.8349 0.1898 3.4153 0.74594 1.367-0.00313 3.3143-0.6669 4.3055-0.24219 0.97926 0.82112 3.239 0.28195 4.7657 0.30147 1.6562-0.007292 3.0648-0.25027 4.421-0.54316 1.2336 0.74337 2.6002 1.4634 3.8848 2.1978-2.2506 0.39116-3.6874 1.1856-4.3225 2.1467 2.8696 0.48079 1.5674 0.1293 0.046876 0.19816 0.47482 0.9607 0.60116 1.9631 1.2923 2.8979 1.1831 0.5677 2.2636 1.1467 2.1069 1.8621 3.3381 0.96586 0.1577 0.08257-1.1785 1.4436 0.22424 0.631 0.46905 1.163 0.061318 1.6867 1.0767 3.1782 2.538 6.3552 3.9521 9.5324 2.5393 3.1217 8.4792 1.1412-0.12793 1.5306-1.7017 0.45533-2.6818 1.2009-4.0143 1.8044 3.9279 2.1903 8.781 3.6254 13.45 3.7275 4.4039 0.29848 8.6172-1.8463 12.409-2.4481 2.304-0.48622 2.2488-1.0324 4.1927-1.7139-1.6704-0.82908-1.5237-1.6003-4.0336-1.8586-0.56983-0.42623-0.85121-1.2611-0.39154-1.6618-0.013553-0.73208-0.77947-1.307-1.0069-2.0002-0.47538-1.3628-0.95076-2.7256-1.4261-4.0884 1.0538-0.37207-0.36345-1.1809-0.28644-1.751-0.56015-0.95279-1.2494-1.9052-1.6753-2.8925-0.84667-0.38351-1.0666 0.24964-0.40215-0.34114-2.5349-1.7509-16.827 1.1766-1.7165-0.85491-1.0878-3.0652-19.82 1.6987-0.63905-1.3156 0.73354-0.55305 1.8159-1.0634 1.0767-1.7966-0.42996-0.64866-0.17043-1.3595-1.1266-1.9607-0.15246 0.19978-0.98802-0.90724-2.4194-1.2264-0.72389-0.62943-3.9818-0.68398-2.6743-1.4083 0.62897-0.7744 1.2579-1.5488 1.8869-2.3232 3.3977 0.82899 7.7585 0.12306 10.489 1.4677 1.244 0.49362 2.9833 0.6298 4.4536 0.96012-1.1293-1.1394-1.7876-2.3196-2.7248-3.4756-1.925-0.55797-3.8501-1.1159-5.7751-1.6739 1.41 0.62231 4.1953 0.35563 4.4419-0.33052-0.22855-0.74966-1.7565-1.0006 0.75182-0.97514 1.6513-0.11896 1.8257-1.0163 0.98302-1.5828-1.1404-0.70565 3.1287-0.57858 1.4812-1.4446-1.3764-0.8155-0.074936-0.79006 1.5864-1.0808 1.3887-0.17509 1.8123-1.075 0.12678-1.3978-1.947-0.48261 3.7711-0.94863 3.3337-1.7836 1.2041-1.9056-3.858-1.2158-6.2796-0.76194-5.1145 0.70945-9.9015 1.68-14.954 2.4442 0.14606-0.73466-1.2647-1.2246-2.5429-1.7353-1.5935-0.73525-4.0474-0.95036-6.0366-1.4464-1.6117-0.012324-3.3928-0.28896-4.8934-0.12778 0.048833-1.0142-0.41814-2.0215-1.4133-3.0217-0.53435-0.83325-1.408-1.6042-2.5247-2.3706zm11.277 0.47278c-1.1578 1.4664-2.4582 2.9879-1.5008 4.6648-0.30843 0.79985 1.9636 0.74329 3.1633 1.1786 1.759 0.4747 2.8932 0.95788 2.3308-0.17529-0.12784-1.0543 0.31554-2.1194-1.1214-3.1487-0.77657-0.8614-1.9166-1.6794-2.8718-2.5194zm7.4043 10.938c0.26234 0.76576 0.90525 1.8247 0.93794 2.415-0.28535-0.80369-0.82647-1.6163-0.93794-2.415zm1.3083 12.139c3.0787 0.17218-2.9083 0.45537 0 0z" fill-opacity=".66667" filter="url(#filter3643)"/>
  <path id="path2515" d="m55.162 66.233 0.91733-1.7735 1.3454-1.7735 2.0181-1.2843 0.85617-0.42809-2.9966-5.2593-3.3024-20.732 1.2843-6.9717 2.8743-3.6082 6.299-2.1404 4.2809 0.48924 4.7089 2.5685 2.6297 3.2412 0.24462 14.494-1.8958 11.008-3.3635 6.9105 1.957 1.2843 2.6908 3.4858-0.5504 0.85617-0.97848 0.73386-1.2843-0.48924-1.2231 0.85617-3.6082 0.91733-4.342-0.24462-4.2197-0.42809-4.342-1.7123z" fill="url(#linearGradient2517)"/>
  <path id="path2519" d="m58.22 27.767 0.12231-4.8924 1.4677-8.1948 2.2627-5.4428 1.1008 2.9354 1.1008 6.5436-0.61155 6.3601-0.24462 4.4643c-1.6405-1.7442-3.2434-3.9576-5.1982-1.7735z" fill="url(#linearGradient2521)"/>
  <path id="path2523" d="m69.839 23.058v-3.3635l0.79502-3.7916 2.5074-5.504 1.59 4.7701 0.91733 3.9751-0.97848 7.2163-1.0396-0.97848-2.8743-1.8347-0.79502-0.18347-0.12231-0.30578z" fill="url(#linearGradient2525)"/>
  <path id="path2527" d="m59.871 23.608 0.061156-2.9966s0.48924-2.0793 0.67271-2.9354c0.18347-0.85617 1.2231-4.0362 1.2231-4.0362l0.61155 3.4247 0.42809 3.4247-0.061155 2.3851-0.36693 3.4247c-1.5073-4.2828-1.7894-2.1945-2.5685-2.6908z" fill="url(#linearGradient2529)"/>
  <path id="path2531" d="m58.22 27.767 0.12231-4.8924 1.4677-8.1948 2.2627-5.4428 1.1008 2.9354 1.1008 6.5436-0.61155 6.3601-0.24462 4.4643c-1.6405-1.7442-3.2434-3.9576-5.1982-1.7735z" fill-opacity=".15686"/>
  <path id="path2533" d="m69.839 23.058v-3.3635l0.79502-3.7916 2.5074-5.504 1.59 4.7701 0.91733 3.9751-0.97848 7.2163-1.0396-0.97848-2.8743-1.8347-0.79502-0.18347-0.12231-0.30578z" fill-opacity=".15686"/>
  <path id="path3512" d="m66.512 31.701-1.0607 1.5468-0.44194 3.0936 0.35355 2.74 1.5468 1.4142 0.83969 0.044194s1.37-0.83969 1.812-1.0165c0.44194-0.17678 0.83969-3.5355 0.83969-3.5355s-0.30936-2.6075-0.35355-2.7842-2.2981-2.1213-2.2981-2.1213l-1.2374 0.61872z" fill="url(#linearGradient3514)"/>
  <path id="path3516" d="m72.213 36.076c-0.044194-0.17678-0.13258-2.5633-0.13258-2.5633l0.57452-2.0771 1.37-0.7513 1.0165-0.044194 1.1932 1.149 0.13258 5.0381-0.26516 1.7236-0.97227 0.61872-0.83969-0.044194-0.7513-0.48614-1.1049-1.7236-0.22097-0.83969z" fill="url(#linearGradient3518)"/>
  <path id="path3522" d="m73.627 32.938-0.39775 2.0771 0.53033 1.0165 0.88388 0.61872 1.2374-0.97227-0.22097-2.6517-0.97227-0.39775-1.0607 0.30936z" fill="url(#linearGradient3524)"/>
  <path id="path3526" d="m66.645 35.06-0.35355 1.591 0.48614 1.5026 0.97227 0.39775 0.97227-0.83969 0.30936-1.6352-0.88388-1.4142-1.5026 0.39775z" fill="url(#linearGradient3528)"/>
  <path id="path3530" d="m75.97 30.596 8.3969-3.182 4.7288-1.9445s7.0269-2.2539 7.6014-2.2539c0.57452 0 1.4584 0.044194 1.4584 0.044194l0.088389 2.1655c-0.042336 1.4667-1.5023 2.2246-2.3865 3.2704l-2.6958 1.6352 1.0165 0.57452 0.70711 0.88388-0.35355 1.591-1.4584 0.97227-2.4749 0.83969 0.53033 0.57452 0.35355 2.3865-2.5191 1.4584 0.61872 1.7678-0.61872 2.2539-1.812 0.83969-1.3258-0.13258 0.7955 1.4142-0.17678 1.4142-1.37 0.88388-1.591 0.35355s-2.5191-1.591-2.6958-1.6794-2.3865-2.2097-2.3865-2.2097l-1.9887-1.2816-0.13258-8.8388-0.30936-3.8007z" fill="url(#linearGradient3532)"/>
  <path id="path3534" d="m69.385 44.119 0.97227-0.61872 1.7678-0.61872 1.2816-0.26516 1.4584 0.044194 1.8562 0.57452 1.812 1.37 2.2097 1.9003 6.3198 5.0381 1.1049 7.4246 0.26516 1.0607-3.4471-1.6794-2.2981-2.3865s-5.2591-0.83969-5.4359-0.83969-3.8007-1.4142-3.8007-1.4142l-2.3423-1.5026-1.6794 0.44194s-2.0771 0.22097-2.2981 0.13258-2.6075-1.5468-2.6075-1.5468-0.48614-1.2816-0.48614-1.4584 2.1213-3.8891 2.1213-3.8891l1.9887-1.5468 1.2374-0.22097z" fill="url(#linearGradient3536)"/>
  <path id="path3538" d="m61.474 32.806-17.103 5.5243-14.584 4.2868-0.83969 1.591 0.48614 2.1213 4.7288 1.2374-0.53033 1.6794 1.0165 1.8562h3.5797s-0.66291 1.591-0.66291 1.7678c0 0.17678 0.66291 1.7678 0.66291 1.7678s1.1049 0.70711 1.5468 0.57452c0.44194-0.13258 3.2704-1.3258 3.2704-1.3258l-0.22097 1.591 0.53033 1.37 4.4636-1.149 0.44194 1.149 0.97227 0.48614 5.5685-0.66291 2.6075-1.149 3.2262-1.4312 0.7955-1.0437-0.088389-0.61872-0.87276-0.70921-0.5-0.3125 0.625-1.1562-0.1875-1.0312-0.90625-1.0312 0.78125-0.8125 0.15625-1.4688-0.3125-1.4062 0.8125-0.875 0.5-1.4375-0.625-2.7812 0.96875-1.625 0.375-2.4688-0.4375-2.1562-0.24465-0.3505z" fill="url(#linearGradient3540)"/>
  <path id="path3542" d="m55.11 66.438 5.701 1.6352 3.403 0.30936 4.0659 0.17678 4.552-1.2816h1.149l1.7236-1.0607 0.35355 0.7955 0.044195 5.8778-3.804 0.96707c-1.6757 0.30271-2.9362 0.58233-5.224 0.5964-0.17678 0-4.8671-0.26136-4.8671-0.26136l-3.5593-0.32267-3.4937-0.31652-0.044194-7.1153z" fill="url(#linearGradient3544)"/>
  <path id="path3546" d="m56.745 76.204-0.088388 2.74 3.7123 1.3258 5.8778 0.13258 4.0217-0.57452 4.1543-1.1932-0.17678-2.9168-3.3588 1.0165-5.0823 0.61872-5.8336-0.48614-3.2262-0.66291z" fill="url(#linearGradient3548)"/>
  <path id="path3550" d="m54.889 81.861 1.6794-2.6075 3.8007 0.83969 6.7175 0.35355 4.773-0.83969 2.6516-0.88388 1.4584 2.2097-1.2816 0.7955s-4.4194 1.4584-4.9939 1.591c-0.57452 0.13258-7.4688-0.088388-7.4688-0.088388l-4.0217-0.53033-3.3146-0.83969z" fill="url(#linearGradient3552)"/>
  <path id="path3554" d="m54.933 81.685 2.6075 0.88388 6.7175 1.2816 6.0988-0.70711 3.5797-1.1049 2.1213-1.0165 0.30936 5.701 0.26516 0.35355 0.088388 5.3033-0.48614 0.53033-0.17678 11.844 0.30936 0.48614-0.044195 2.8284-0.44194 0.39775-0.044195 3.3588-2.961 1.9887-3.9775 1.3258-2.2097 0.35355h-2.2981l-3.0936-0.53033-3.182-1.149-3.0936-1.5468 0.044194-2.74-0.44194-0.39775-0.35355-14.054 0.22097-9.7227 0.35355-0.48614 0.088388-3.182z" fill="url(#linearGradient3556)"/>
  <path id="path3558" d="m54.712 84.778 1.5468 0.39775 1.9445 0.53033 3.5355 0.66291 3.0936 0.48614 4.3752 0.22097 1.0607 0.66291 0.30936 1.1932 0.44194 1.3258-0.57452 1.1932-1.6352 1.5026-2.9168-0.7513-4.331-0.26516-1.4142 0.44194-1.7236 1.7678-0.66291 2.5633 0.044194 5.5685 1.5026 1.2816 2.2539 1.3258 2.7842 0.7071 6.0104 1.0165 0.044194 0.79549-1.6794 0.7955-3.8891 2.0329-4.6846 1.0607-3.2704-0.7513-2.2981-1.2374-0.30936-14.098 0.088388-9.1924 0.35355-1.2374z" fill="url(#linearGradient3560)"/>
  <path id="path3562" d="m74.812 86.406-1.5 0.3125-0.53125 0.5-0.5625 1.5938c0 1e-6 0.09375 1.3545 0.09375 1.5312 3e-6 0.17678 0.75 1.625 0.75 1.625l1.9375 0.625 1.1562 0.21875 0.65625-0.3125-0.28125-5.5938-0.125-0.3125-1.5938-0.1875zm1.1875 18.031-0.28125 0.0625-2.5625 1.5938 0.0625 1.4062 2.6562 0.875c4e-6 0 0.52589-0.07322 0.4375-0.25-0.088391-0.17677 0.09375-3.3125 0.09375-3.3125l-0.40625-0.375z" fill="url(#linearGradient3567)"/>
  <path id="path3571" d="m55.022 112.4-1.5468 0.88388-1.7678 1.4584-1.8562 2.0771-0.70711 0.66292 2.2539 1.5468 3.6681 1.9446 4.1101 1.1048 5.6569 0.61872 5.0381-0.61872 4.4194-1.37 4.1543-2.1213 3.182-2.1655-2.0329-2.6516-2.74-1.7236-1.0607-0.22097-2.3423 1.7678-3.9333 1.4142-3.1378 0.57453-3.2704-0.22097-4.3752-1.2816-3.7123-1.6794z" fill="url(#linearGradient3573)"/>
  <path id="path3575" d="m61.474 32.806-17.103 5.5243-14.584 4.2868-0.83969 1.591 0.48614 2.1213 4.7288 1.2374-0.53033 1.6794 1.0165 1.8562h3.5797s-0.66291 1.591-0.66291 1.7678c0 0.17678 0.66291 1.7678 0.66291 1.7678s1.1049 0.70711 1.5468 0.57452c0.44194-0.13258 3.2704-1.3258 3.2704-1.3258l-0.22097 1.591 0.53033 1.37 4.4636-1.149 0.44194 1.149 0.97227 0.48614 5.5685-0.66291 2.6075-1.149c1.0856-0.49791 2.1712-0.83797 3.2568-1.5535l0.76492-0.92139-0.088389-0.61872-0.87276-0.70921-0.5-0.3125 0.625-1.1562-0.1875-1.0312-0.90625-1.0312 0.78125-0.8125 0.15625-1.4688-0.3125-1.4062 0.8125-0.875 0.5-1.4375-0.625-2.7812 0.96875-1.625 0.375-2.4688-0.4375-2.1562-0.24465-0.3505z" fill-opacity=".15686"/>
  <path id="path3577" d="m54.712 84.778 1.5468 0.39775 1.9445 0.53033 3.5355 0.66291 3.0936 0.48614 4.3752 0.22097 1.0607 0.66291 0.30936 1.1932 0.44194 1.3258-0.57452 1.1932-1.6352 1.5026-2.9168-0.7513-4.331-0.26516-1.4142 0.44194-1.7236 1.7678-0.66291 2.5633 0.044194 5.5685 1.5026 1.2816 2.2539 1.3258 2.7842 0.7071 6.0104 1.0165 0.044194 0.79549-1.6794 0.7955-3.8891 2.0329-4.6846 1.0607-3.2704-0.7513-2.2981-1.2374-0.30936-14.098 0.088388-9.1924 0.35355-1.2374z" fill-opacity=".15686"/>
  <path id="path2372" d="m55.222 73.297 4.0649 0.60541 4.8865 0.51892 3.8486-0.043244 4.4541-0.47568 3.4162-0.77838-1.773 2.5081-3.9351 1.1243s-6.1838 0.47568-6.3568 0.47568-5.6216-0.77838-5.6216-0.77838l-1.5568-0.34595-1.6-2.3784 0.17297-0.43243z" fill="url(#linearGradient2374)"/>
 </g>
 <g id="layer1">
  <path id="path2327" d="m62.094 8.4062c-2.6993 4.8697-3.7111 10.176-3.9062 15.594-1.4997 1.0837-2.6858 2.6083-3.375 4.6562-0.56293 2.1028-0.96572 4.2644-1.2188 6.4688l-24.094 7.3438c-0.19674 1.436-2.3222 1.6322 0.4375 4.9688l3.7812 0.5c-0.35861 1.0159-1.2695 1.8477 0.375 3.5312 0.92669 0.7041 2.2312 0.46372 3.625 0-0.34867 1.1817-1.1005 2.313 0.34375 3.7188 1.5312 0.62471 3.0625 0.30566 4.5938-0.71875-0.31738 0.76569-1.2242 1.4135 0.6875 2.625 1.2866 0.82717 2.8305-0.14663 4.3438-0.90625-0.17898 1.2557 0.77707 1.6033 1.75 1.9375 2.735-0.13912 5.1019-1.0795 7.5312-2.2188 0.7865 1.699 1.6962 3.4025 2.7812 5.125-2.4707 1.2671-4.0126 3.0756-4.8438 5.1562v7.625l1.5625 2.5625-0.15625 2.625-1.5625 2.5312c-0.077623 1.0341-0.14147 2.0719-0.1875 3.125-0.006935 0.15863-0.30621 0.27849-0.3125 0.4375-0.30837 7.7989 0.014643 16.15 0.15625 24.219 0.002785 0.15864 0.43497 0.279 0.4375 0.4375 0.011718 0.7338 0.02595 1.4576 0.03125 2.1875-2.3527 1.0545-3.9613 3.5988-5.9062 5.4688 5.6104 5.0381 19.364 9.5818 32.875-1.0938-1.1994-2.374-3.36-3.6624-5.875-4.7188 0.017259-1.009 0.040329-2.0098 0.0625-3.0312 0.004167-0.19208 0.40196-0.21392 0.40625-0.40625 0.02431-1.0889-0.026679-2.4098 0-3.5 0.00327-0.13356-0.31578-0.21027-0.3125-0.34375 0.092471-3.763 0.20754-7.5047 0.25-10.969 0.003064-0.24999 0.49764-0.59351 0.5-0.84375 0.016437-1.746-0.14122-3.9257-0.15625-5.6875-0.00151-0.17683-0.34186-0.41673-0.34375-0.59375-0.022061-2.0646-0.071655-3.5603-0.15625-5.6562l-1.5312-2.125-0.28125-2.9375 1.7812-2.4375 0.15625-6.1562c-0.78467-2.5759-2.7349-4.3599-4.75-6.0312 1.3289-2.1338 2.3087-4.2637 3.0625-6.375 2.0426 0.92341 4.4503 1.5644 7.0312 1.8125 1.2012 0.11548 2.1599 1.0932 3.0938 2.125l3.5312 1.7188c0.005804 0.031963 0.02626 0.061677 0.03125 0.09375v-0.09375l0.40625 0.21875c-0.9476-2.844-0.64756-5.9678-1.4062-8.9062-0.96719-1.1393-2.0383-2.0921-3.1562-2.9062 1.5258-0.27808 2.0098-0.43394 2.625-1.0312 0.069829-0.99183 0.73151-1.885-0.5-3.0938 0.7964 0.60038 1.9543 0.11639 3.2188-0.6875 0.99366-1.6507 0.16442-2.6937-0.15625-3.9062 0.84331-0.18882 1.6981-0.34328 2.3125-1.2188 0.39694-1.2711 0.093086-2.402-0.6875-3.4375 1.2188-0.11369 2.4375-0.33204 3.6562-1.375 0.19661-1.1308 1.3044-2.2754-0.875-3.4062 1.5664-1.0914 3.3262-1.9413 4.5938-3.4062 1.1643-1.5208 0.97275-3.0417-0.21875-4.5625-7.5191 1.7615-14.605 4.8447-21.719 7.7812-0.021948-0.57388-0.049038-1.1502-0.0625-1.7188-0.49017-0.80567-1.0136-1.5143-1.5625-2.125 1.2315-4.1641 3.3173-4.0283-1.6562-16.594-2.5151 4.3263-3.7646 8.3111-3.5625 13.25-1.1546-0.40438-2.4053-0.72111-3.7812-1-0.53146-0.059195-1.0625-0.013238-1.5938 0 0.38475-3.197 0.40367-6.8291-2.125-13.625zm-0.03125 1.6875c2.1738 6.0548 1.7562 13.566 1.1562 19.469l0.25-0.03125c0.42071-2.699 0.39409-4.7595 0.6875-6.9688 0.53424-0.052721 1.0671-0.067967 1.5938-0.0625 4.0205 0.32445 8.2736 2.4217 9.9688 6.3438-0.06037 0.66304-0.11048 1.3255-0.125 1.9688-0.50369-0.4874-0.76701-0.37216-1.6875-0.28125-1.9047 0.33545-1.9043 1.5235-2.0312 3.2188-0.047316 2.3028 0.35405 3.7927 2 5.4375 1.1553 0.60753 1.2714 0.16871 2.1875-0.40625 0.10693 1.3475 0.18617 2.7342 0.1875 4.1562-2.2426-1.1991-5.0227-0.20107-7 1.0938-0.62614-0.016518-1.1962 0.22874-1.7812 0.40625-2.1268 1.409-3.3612 3.4258-3.7812 5.875 0.47098 3.6924 4.8325 2.6684 7.5 2.0312 0.83976 0.71022 1.814 1.354 2.9375 1.9062-0.80895 2.1334-1.8853 4.4253-3.375 6.9375 2.0288 1.1132 3.5767 2.6555 4.5938 4.5938-0.66827 1.0816-1.3025 1.6627-2 0.625-0.58144-2.4413-2.4131-3.8749-4.4375-5.1562 1.7504 1.287 2.8519 3.4329 3.5 5.625-1.2795 0.61484-2.6793 1.017-4.0312 1.2188-0.11185-1.1344-0.8306-2.0886-1.3438-3.0625l-0.03125 0.0625c0.28913 1.0312 0.70301 2.0625 0.4375 3.0938-0.98113 0.24672-2.0233 0.3179-3.0312-0.21875l-0.53125-3.125-0.0625 0.03125-0.46875 2.9688c-2.6513 0.27551-5.1738-0.8847-7.8125-1.5625 1.0273-2.7301 2.6509-4.4688 5.0625-5.125-1.224-1.8198-2.2472-3.6629-3.0938-5.5 1.0141-0.48453 2.2072-1.097 3.2812-1.5938 1.3157-1.5159 0.76209-1.8105-0.78125-2.6562 1.3388-1.1065 0.53483-2.4562-0.46875-3.1875 1.4829-1.1214 1.226-2.2749 0.71875-3.7188 2.0703-1.3897 1.4049-3.102 0.6875-5.125 1.648-2.342 1.6334-4.1013 0.71875-6.5938l-0.03125 0.0625-0.0625-0.15625-7.0938 2.1562c0.19601-1.9148 0.49532-3.8531 0.875-5.8438 0.4852-1.7719 1.5274-3.1339 2.8438-4.1562-0.022351 1.0798-0.031799 2.1643 0 3.25l0.0625-0.09375c-0.07546-6.2495 1.4898-12.762 3.8125-17.906zm11 1.0312c2.0543 5.3145 2.7464 9.3939 1.3438 14.812-1.2459-1.2503-2.6702-2.0935-4.2812-2.7188-0.40462-4.6095 0.8594-7.7398 2.9375-12.094zm-11.156 1.25c-1.2795 4.6988-2.3593 6.175-2.0625 11.531h0.09375c-0.19436-4.8688 0.90116-5.0944 1.7812-9.0625 0.82368 4.6703 1.0086 7.0098 0.78125 11.562l0.03125-0.0625c0.5131-5.4153 1.0567-4.7683-0.625-13.969zm35.562 11c2.0963 2.5701-1.6605 4.7824-3.75 6.0312l-16.812 5.9062-0.25 0.3125c-0.0665-1.5649-0.12242-3.1261-0.1875-4.6562 6.7524-2.7971 13.583-6.3636 21-7.5938zm-4.1875 7.1875c1.248 0.99565 1.9824 2.037 0.59375 2.8125-0.68449 0.97355-2.5537 1.007-3.6562 1.5625l-12.812 3.7188 0.09375 0.21875 13.156-3.2812c0.44951 0.70399 0.76634 1.4371 0.1875 2.3125-0.46794 0.996-1.2302 1.1443-2.125 1.5l-9.4062 2.625-0.03125 0.1875 9.6875-2.2188c0.27247 1.1176 0.43112 2.2231-0.21875 3.1562-0.98084 0.62374-1.8955 1.263-3.4375 0.9375l-4.25 1.1562-0.0625 0.15625 4.7812-0.6875c0.43464 0.54722 0.82783 1.1393 0.28125 2.1875-0.6545 0.47696-0.88351 1.1086-2.375 1.2812-0.65432-0.44348-1.3231-0.84189-2-1.1875-1.5056-1.3197-3.0615-2.7396-4.9688-3.8125 0.1138-2.4754 0.068067-4.9058-0.03125-7.3125l16.594-5.3125zm-18.938 0.3125c0.53177-0.10775 0.80031 0.22881 1.25 0.46875-0.003098 0.5201 0.013161 1.0195 0.03125 1.5312-1.1301-1.1849-1.096-0.81763-2.25 0.09375-0.79936 1.2159-0.67345 1.8392-0.09375 3.0625 1.136 1.1754 1.3486 0.92128 2.5 0 0.02229-0.033906 0.042048-0.06061 0.0625-0.09375 0.069949 0.84964 0.11752 1.7054 0.1875 2.5625-0.73188 0.60882-1.2507 0.48649-2.0625 0.375-1.3893-1.378-1.4722-3.3246-1.5312-5.1875-0.053194-1.4454 0.44827-2.0369 1.6562-2.7188 0.094103-0.037019 0.17018-0.077576 0.25-0.09375zm-6.5 0.15625c-2.7241 0.49129-2.865 2.6767-3.0938 5.0625 0.084327 2.568 0.33577 4.111 2.9375 4.8125 2.7155-0.50044 2.7736-2.6239 3-5-0.086707-2.5367-0.27386-4.1755-2.8438-4.875zm-0.0625 0.375c1.9846 0.59699 2.2533 2.6622 2.4375 4.5-0.056258 2.0205-0.57882 3.7273-2.4375 4.5312-2.0216-0.59001-2.2834-2.6686-2.4688-4.5312 0.054697-2.0324 0.59853-3.7069 2.4688-4.5zm6.6875 1.375c0.21816-0.003392 0.35306 0.26188 0.78125 0.375 0.59805 0.93685 0.36023 1.6536 0 2.5938-0.715 0.68896-0.65332 0.18134-1.3438 0-0.59805-0.93686-0.36023-1.6536 0-2.5938 0.27101-0.259 0.4316-0.37296 0.5625-0.375zm-12.875 0.15625c0.53213 2.2072 0.73988 4.4324-0.9375 6.4375 0.42845 1.5692 1.5155 2.9973-0.625 5.125-0.007151 1.223 0.89211 2.3646-0.625 3.6875 0.35816 0.99631 1.9336 1.2062 0.40625 3.25 1.7754 0.82823 1.7329 1.1755 0.875 2.5-3.6583 2.2206-7.4066 2.276-11.062 3.25-0.89449-0.12334-1.3737-0.65318-1.5312-1.4062l5.8438-3.0312-0.21875-0.15625-6.2812 2.5625 0.0625 0.125c-1.2252 0.46127-2.6237 1.2483-3.7812 0.84375-0.60413-0.58909-0.57122-1.2649-0.46875-1.9062l10.469-3.9062 0.09375-0.15625-10.875 3.3125v0.03125c-1.3553 0.5261-2.8288 1.3422-4.1562 0.78125-0.90672-0.89986-0.59159-1.9326-0.34375-2.9062l18.125-6.125v-0.28125l-18.375 5.5625v0.03125c-1.105 0.24456-2.1788 0.70583-3.0938 0.09375-1.1818-0.58176-0.75771-1.7849-0.5-2.8125l23.031-7.125-0.0625-0.25-23.25 6.5625-3.4688-0.46875c-2.5542-1.289-1.4504-2.7488-0.625-3.8125 10.566-2.6864 21.026-5.3885 31.375-9.8125zm6.1562 1.0938c-0.23026-0.0321-0.45424 0.20056-1.0312 0.65625-0.79936 1.2159-0.8297 2.2767-0.25 3.5 1.136 1.1754 1.3486 0.67128 2.5-0.25 0.79936-1.2159 0.3922-1.7454-0.1875-2.9688-0.56507-0.59245-0.80099-0.9054-1.0312-0.9375zm-0.15625 0.875c1.2383-0.063938 1.2169 1.5315 0.75 2.75-0.715 0.68896-0.65332 0.18134-1.3438 0-0.59805-0.93686-0.36023-1.6848 0-2.625 0.23147-0.082703 0.41685-0.11587 0.59375-0.125zm6.0312 7.9688c2.7441-0.2589 4.5378 1.459 6.2812 3.3438-1.1126-0.43867-2.2313-0.78479-3.3125-1.0312-0.80123-0.47928-3.205-0.15318-4.5312-0.125 5.731-0.075352 10.509 3.1423 14.531 7.0625 0.6619 1.9214 0.92604 4.1856 1.25 6.25-1.0971-2.4419-3.9112-3.9744-5.9375-5-2.3763-1.2028-5.1879-1.9717-6.5-3.9688-1.8952-2.0516-4.0677-2.3007-6.2188-0.6875l0.21875 0.09375c1.7481-0.82792 4.0666-0.3101 5.5 0.9375 1.5411 2.3457 4.6922 2.8944 7 4.0625 1.9832 1.0038 4.9793 2.9221 6.0625 5.25 0.03031 0.17725 0.061368 0.35855 0.09375 0.53125-0.16955-0.068214-1.0594-0.38386-1.25-0.53125-0.40472-0.31294-1.0604-0.35474-1.5312-0.875-0.94175-1.0405-1.8381-2.7152-3.5-2.875-3.9389 0.036931-7.2779-1.2634-10.719-3.2188-2.4951 0.82409-5.038 0.6894-6.375-1.7812 0.19525-2.181 1.5142-4.1199 3.125-5.4375 1.3695-1.1368 2.6025-0.31443 4.0312 0.15625 0.021156-3.7e-4 -0.083629-0.12472-0.0625-0.125-0.73763-0.51674-1.4343-0.78938-2.1875-0.84375 1.5882-0.72103 2.9143-1.0924 4.0312-1.1875zm2.0625 23.656c0.049552 0.11387 0.11012 0.22754 0.15625 0.34375l0.125 5.7188-0.125 0.1875c-8.3547 2.4986-14.359 1.3667-20.438 0.375l0.09375-6.5312c2.2561 1.1378 5.3345 2.2269 8.4688 2.0938 1.4569 0.73021 2.9508 0.41106 4.2812 0.1875 2.2704 0.22228 4.2521-0.43499 4.75-1.5312 1.0567 0.69714 1.9633-0.12363 2.6875-0.84375zm-0.4375 7.0625-1.2812 1.9062c-4.336 1.2881-9.7677 2.0288-16.938 0.53125l-1.5625-2.3125c6.2631 0.94204 12.635 1.5836 19.781-0.125zm-1.25 2.375 0.125 2.625c-4.3934 1.3839-9.977 1.9962-17.312 0.34375l0.1875-2.6562c6.8476 2.2156 12.145 1.5844 17-0.3125zm0.3125 2.9062 1.2812 1.8125c0.009763 0.10831 0.021441 0.20543 0.03125 0.3125-6.5045 3.0963-13.625 2.4728-20.281 0.6875 0.003233-0.031117-0.003272-0.062627 0-0.09375l1.3438-2.2188c7.1628 2.7188 13.017 1.2642 17.625-0.5zm1.3438 2.4688c0.15968 1.7219 0.30019 3.3358 0.375 5.0625-1.1698-0.13897-2.0963 0.039762-3.0625 0.3125-0.65422 0.67989-0.87662 1.8999-0.875 2.9375-0.23083 0.7886 0.062058 1.4714 1.0625 2.5938l2.9062 0.90625c-0.016797 3.7052-0.14631 7.4198-0.25 11.125l-2.7812 1.6875-0.09375 1.2812-0.21875 0.1875 3 1.1562c-0.022165 1.0238-0.050343 2.0387-0.0625 3.0625-3.1792 2.3972-7.1026 3.7907-10.25 3.75-3.12-0.04035-6.879-1.457-10.062-3.1562h-0.03125c9.6e-5 -0.81513-0.019464-1.6241-0.03125-2.4375 2.3424 1.147 3.6834 4.1644 15.344-2.3438l-0.15625-1.0625c-4.1797-1.3325-8.3516 0.16959-12.531-4.4062 0.061559-1.5435-0.016819-3.0401-0.0625-4.375-0.058565-1.7114 0.44359-3.3641 3.1562-5.3438 2.3655 0.14707 4.024-0.67794 7.5938 1.125 1.3496-0.68131 2.0218-1.6051 2.4688-2.9688 0.011823-0.46762-0.13606-0.91862-0.40625-1.3438-0.093457-0.89222-0.21353-1.6938-1.5938-2.125-4.5485-0.003566-9.3985-0.90387-14-2.25 0.060436-0.90365 0.12811-1.8108 0.21875-2.7188 6.615 2.4336 13.509 3.2804 20.344-0.65625zm-20.594 3.625c4.2823 1.2099 8.5477 2.0996 13.594 2.3438 0.90849-0.26755 1.3822 0.51626 1.7812 1.4375-0.34334-0.41956-0.80422-0.8107-1.375-1.1875-4.7612-0.19596-9.4569-0.81352-14.031-2.2188 0.004025-0.12483 0.020849-0.25019 0.03125-0.375zm-0.25 0.53125c3.8689 2.4303 9.3925 2.1645 14.062 2.5938 1.0916 0.74046 1.8572 1.7814 1.8438 2.3125-0.012822 0.50714-1.1237 1.6397-2.1875 2.3438-2.8754-1.4108-5.4519-1.2101-7.8125-0.9375-2.4839 1.3996-2.9562 3.0698-3.3438 5.8125 0.06774 1.9795 0.27353 3.8148 0.03125 5.5312 1.1397 1.9544 3.6003 2.7984 5.75 3.4688 1.558 0.39115 4.7251 0.3788 6.2188 0.75-3.4881 2.7243-9.2682 4.9046-14.094 2.0938-0.27678-0.20655-0.42235-0.30552-0.46875-0.5-0.14507-7.7018-0.64758-15.497-0.21875-23.281 0.004371-0.079343 0.10606-0.12975 0.21875-0.1875zm19.938 1.1875c0.44357-0.003858 0.87593 0.046748 1.3125 0.03125 0.001983 0.053935-0.001813 0.102 0 0.15625l-2.75 0.75c-0.38294 0.52308-0.68639 0.96175-0.90625 1.3438 0.14364-0.73601 0.38061-1.5417 0.84375-1.8125 0.52515-0.36521 1.024-0.46461 1.5-0.46875zm1.375 0.375c0.10314 0.046795 0.30912 0.003628 0.3125 0.125 0.041381 1.4876 0.08355 3.2209 0.03125 4.9062-0.003995 0.12863-0.29792 0.32322-0.375 0.46875l-2.7188-0.875c-1.4244-1.3326-0.85965-2.1563 0.0625-3.625l2.6875-1zm-18.219 15.594c3.663 3.6013 8.0381 2.9108 12.094 4.1562l0.09375 0.46875c-2.2078-0.68583-4.698-0.61673-6.9375-1.125-1.8976-0.47641-3.868-1.57-5.2812-3.0625 0.013274-0.14651 0.021208-0.29143 0.03125-0.4375zm17.906 1.9062c-5.79e-4 0.0208 5.78e-4 0.0417 0 0.0625l-2.4375 2.2188-0.125-0.6875 2.5625-1.5938zm0.0625 0.4375c0.10054 0.08495 0.28462 0.15732 0.28125 0.28125-0.022422 0.82559-0.13703 1.6119-0.15625 2.4375-0.002031 0.08728-0.083116 0.20904-0.15625 0.34375l-2.1875-0.71875 2.2188-2.3438zm0.0625 7.0312c2.3474 0.70094 4.0822 2.1684 5.25 4.3438-7.5448 6.7025-22.137 8.6266-31.75 1.125 1.8811-1.7517 3.5234-4.3278 5.75-4.8125 3.2851 1.7463 6.9263 2.9883 10.25 3.0312 3.4158 0.04418 7.1163-1.0902 10.5-3.6875z" fill-rule="evenodd"/>
 </g>
</svg>
