<?xml version="1.0" encoding="UTF-8"?>
<!-- Created with Inkscape (http://www.inkscape.org/) -->
<svg id="svg21014" width="737.15" height="517.76" version="1.0" xmlns="http://www.w3.org/2000/svg" xmlns:cc="http://creativecommons.org/ns#" xmlns:dc="http://purl.org/dc/elements/1.1/" xmlns:rdf="http://www.w3.org/1999/02/22-rdf-syntax-ns#">
 <metadata id="metadata21019">
  <rdf:RDF>
   <cc:Work rdf:about="">
    <dc:format>image/svg+xml</dc:format>
    <dc:type rdf:resource="http://purl.org/dc/dcmitype/StillImage"/>
    <dc:title>ZEBRA</dc:title>
    <dc:date>27-09-09</dc:date>
    <dc:creator>
     <cc:Agent>
      <dc:title>HA1FLOSSE</dc:title>
     </cc:Agent>
    </dc:creator>
    <dc:rights>
     <cc:Agent>
      <dc:title>PD</dc:title>
     </cc:Agent>
    </dc:rights>
    <cc:license rdf:resource="http://creativecommons.org/licenses/publicdomain/"/>
   </cc:Work>
   <cc:License rdf:about="http://creativecommons.org/licenses/publicdomain/">
    <cc:permits rdf:resource="http://creativecommons.org/ns#Reproduction"/>
    <cc:permits rdf:resource="http://creativecommons.org/ns#Distribution"/>
    <cc:permits rdf:resource="http://creativecommons.org/ns#DerivativeWorks"/>
   </cc:License>
  </rdf:RDF>
 </metadata>
 <g id="g3367" transform="translate(-269.55 -73.587)">
  <path id="path21735" d="m314.37 386.6c0.27208-2.8256-0.81624-3.2442-4.4161-1.1512-3.5998 2.093-6.7811 9.9209-6.7811 9.9209s1.6116-6.9907 2.1348-8.0163c0.52324-1.0256-1.8208-2.4698-3.1394 0.02093-1.3185 2.4907-0.79531-3.2023-0.79531-3.2023s-0.27208-1.486 2.1557-4.6884-2.1139-4.9604-4.0394-2.3442-2.3859-4.2488-2.3859-4.2488l2.9301-4.4791s2.3022-6.3209-0.48137-5.7767c-2.7836 0.54418-4.7091-1.7791-2.4069-1.8837 2.3022-0.10465 9.6903-0.98372 6.0276-2.1767s-5.4835-3.5163-3.0138-4.0604c2.4697-0.54419 7.4927 0.46046 4.7091-4.1023-2.7836-4.5628 0.98368-4.2279 1.0465-6.886 0.06279-2.6581 0.69067-2.2814 1.3604-3.8512 0.66974-1.5698 2.658 3.0977 2.7836-3.0767 0.12558-6.1744 5.9438-12.645 6.7391-10.614 0.79531 2.0302 3.0766 0.81628 4.2905 0.16745 1.2139-0.64884 0.04186 7.179 1.6953-1.0465 1.6534-8.2256 4.6882-11.386 4.2486-12.516-0.43952-1.1302 3.851-3.5163 3.2859-3.2232-0.56509 0.29303 3.3068-0.43953 3.1813-1.5907-0.12557-1.1512 4.8765-1.2558 4.3742-3.1605-0.5023-1.9046 2.4697-0.50232 2.972-4.2698 0.5023-3.7674 6.0478-11.882 6.4246-16.32 0.37672-4.4372 8.8678 10.492 9.2445 5.2385 0.37673-5.2535-7.6531-1.749-4.8486-7.5466s11.385-10.77 13.875-12.214c2.4906-1.4442 9.4182-2.0302 6.6974-5.0442s-1.3064-2.8299 1.8627-3.286c3.8288-0.55112 23.92 15.55 5.6718-3.3698-3.48-3.6081 1.3604-3.5581 2.3441-6.8651 0.98368-3.307 1.6598-2.2241 8.5706-8.8114 2.3207-2.212 21.162 33.626 3.361-2.4791-1.3768-2.7926-0.33682 2.9812 3.3258-5.642s7.3877-1.0061 11.616-9.1046c4.2216-8.0862 25.716 13.357 10.841-3.6-4.542-5.1781 4.9602-0.54418 3.8719-5.107-1.0883-4.5628 3.7464-3.6 5.6509-5.1698 1.9046-1.5698 9.8577 4.207 9.0624-3.5581-0.79531-7.7651 7.4022 4.6172 5.5604-0.38511s-1.0674-17.456 2.7627-11.177c3.8301 6.2791 12.537 14.233 9.8368 8.1837s-1.2767-14.505 1.7581-10.612c3.0348 3.893 8.6229 8.1628 9.6275 2.7837 1.0046-5.3791 4.1859 0.23023 4.9812-0.98372 0.79531-1.214 5.7137 2.8256 5.6718 3.4535-0.04186 0.6279-4.9393-9.3558-10.486-15.551-5.5463-6.1953-0.12558-1.7372 6.823 5.107s9.1043 5.1488 5.4835-1.6954c-3.6208-6.8442 3.1394-5.3163 4.8556-3.9767 1.7162 1.3395 1.6116-3.4326 0.87903-5.8186s11.093 12.328 15.446 13.793 3.4743-2.8674 1.7581-7.3256c-1.7162-4.4581-6.8439-16.702-4.2696-13.814 2.5743 2.8884 12.558 5.7977 10.925-1.507-1.6325-7.3046 1.2767-8.0581 2.4278-8.5814 1.1511-0.52325 5.8602-1.6535 7.9741 1.1302s6.3834 1.6535 7.4927 0.4814 12.667-3.1441 12.667-3.1441-7.885 5.8011-10.963 8.0951c-3.0782 2.294-7.5032 9.6939-9.3827 12.432s-9.3798 11.366-14.574 14.385c-5.1945 3.0192-9.4419 6.7339-12.579 9.0279-3.1374 2.294-28.858 20.031-32.603 24.086-3.7442 4.0552-14.903 11.633-19.15 16.916-4.2474 5.2836-16.894 18.798-17.723 19.642-0.82876 0.84359-17.907 20.081-22.48 24.639-4.573 4.5584-24.629 25.439-25.665 25.942-1.036 0.5032-12.893 16.857-15.305 19.95-2.4123 3.0932-26.357 27.776-30.294 30.943-3.9366 3.1672-9.5067 15.862-10.306 16.928s-4.7358 6.4084-5.1982 5.7869z" fill="#e6e5e0" stroke="#e6e5e0" stroke-dashoffset="0pt"/>
  <path id="path21025" d="m950.35 366.57c7.0185 17.1 11.102 15.505 8.1031 27.501s-11.804 18.121-13.973 37.71c-2.1693 19.589-12.378 32.095-13.399 51.301s-4.8491 31.584-6.8909 35.413-3.4454 5.7426-12.059 8.933c-8.6136 3.1903-6.3166 2.7437-3.573 9.252 2.7436 6.5083 7.0823 10.975 1.7227 14.867s-30.817 7.0188-36.113 1.7866c-5.2958-5.2322-0.89326-11.613-0.89326-11.613s1.4037 1.2761-9.6982 1.659-22.012-3.4456-22.012-3.4456 3.3178-5.1684 6.1252-11.549c2.8074-6.3807-3.6368 1.5314 3.573-8.3587 7.2099-9.8901 15.185-8.1035 22.842-21.631s23.544-61.701 25.139-74.526c1.5951-12.825-14.866-56.405-18.886-66.232-4.0197-9.8262-16.398-48.94-20.035-52.577s-32.54 38.476-45.748 42.878-50.788 17.611-70.185 17.611c-19.396 0-83.35-4.3938-98.259-10.145-14.178-5.4696-15.9-2.4821-20.555-3.0917-3.4888 4.2864 1.2224 20.256 2.3709 35.569 1.1485 15.314 1.9779 35.923 5.3596 51.684 3.3816 15.76-2.5522 25.842 1.0209 40.007 3.573 14.165 8.5141 23.223 9.5988 45.747 1.0847 22.524-2.0492 19.137-10.408 22.774-8.3584 3.637-5.2245 6.8964-7.2662 11.49-2.0417 4.5941-41.361 4.835-35.564-1.4909 5.7899-6.3188 19.835-9.7632 23.799-33.818 3.9953-24.242-4.2494-40.558-6.9292-52.171-2.6798-11.613-5.5265-15.506-10.248-27.247-4.7215-11.74-3.4699-12.951-3.4699-12.951s-5.2958 2.8075-6.3804 13.846c-1.0847 11.039 1.3769 28.213-4.7724 32.689-6.1424 4.4707-6.2194 19.863-6.0992 35.391 0.10281 13.282 5.8311 39.37 1.3648 42.816-4.4663 3.4456-10.592 4.5941-11.166 9.8263s-3.1902 6.1255-3.1902 6.1255l-27.244-2.4885s8.7412-3.8284 9.762-13.591 9.2516-46.451 8.8688-56.597c-0.38282-10.145-4.2111-17.674-4.5301-33.052s3.1264-22.97 3.3816-40.135c0.25521-17.164-3.4454-66.678-3.4454-66.678s-34.144-6.3877-38.738-12.641c-4.5939-6.2531-7.6565-7.2102-11.23-8.1035-3.573-0.89329-6.7632-4.275-23.799 7.4654-17.036 11.74-34.646 23.034-51.171 42.113-16.525 19.078-9.8384 16.381-17.559 28.887-7.7203 12.506 3.975 34.699-0.17223 46.248-4.1473 11.549-3.6057 13.4-17.898 26.033-14.292 12.634-29.049 27.136-39.769 38.302-10.719 11.166-11.804 11.358-12.825 16.335-1.0209 4.9769 2.8033 11.557-7.4054 17.045s-19.648 2.8629-19.648 2.8629l-8.1669 0.38284s-16.293-6.3285-21.142-11.369-8.8232-7.5196-9.7802-17.154c-0.95707-9.6348 2.21-19.459 6.8678-36.878s14.484-36.242 16.334-56.405c1.8503-20.163-1.2123-24.438 2.8074-34.902 4.0197-10.464 20.748-19.689 26.044-33.918 5.2958-14.229 30.498-29.415 41.026-46.77 10.528-17.355 40.005-40.645 65.208-71.719 25.203-31.074 69.023-55.785 81.72-66.887 12.697-11.102 10.579-17.76 21.739-25.623 30.73-21.649 25.905-16.654 46.513-24.183 20.609-7.5292 27.181 4.8493 62.911-5.1046 35.73-9.9539 94.366-20.737 110.19-27.246 15.823-6.5083 80.649-23.8 103.11-29.16 22.459-5.3598 38.984-3.956 47.853-0.63807s46.453 12.034 60.493 18.771c15.495 7.4353 33.538 42.698 33.992 57.893 0.46331 15.517 1.4668 64.923-12.688 77.302-13.667 11.952-25.525 65.036-32.357 73.999-4.7494 6.2308-9.5184 44.474-2.4999 61.574z" fill="#e6e5e0" stroke="#e6e5e0" stroke-dashoffset="0pt"/>
  <path id="path3636" d="m621.01 350.5c31.782 16.163 151.64 18.442 171.4-13.19 14.82-23.72 66.235-77.557 72.318-61.64 5.1415 13.453 2.628 26.822-14.696 42.672-17.325 15.851-27.58 22.479-33.681 28.285-12.982 12.356-95.952 24.969-113.27 20.619-18.842-4.7325-72.977-15.64-82.069-16.746z" fill="#d2d0c7"/>
  <path id="path3634" d="m489.29 338.48c5.9135-1.9055 11.371-3.3196 19.843-0.12288 4.5812 1.7285 16.403 13.854 24.543 13.793s16.71 8.3861 16.71 8.3861-2.4202-0.52266-13.362-2.0274c-10.588-1.4561-19.356-6.5612-25.372-11.212-3.6067-2.7883-8.3078-7.5742-13.884-8.5704-8.4276-1.5057-8.1401 0.27646-8.478-0.24575z" fill="#b8b5a7"/>
  <path id="path3632" d="m405.26 466.5c-3.231-24.926-2.3848-31.696-5.6928-40.543-3.3079-8.8472 7.616-22.233 14.078-35.158 6.462-12.925 53.563-47.502 59.398-49.523 6.3803-2.2102 28.583-4.812 22.07-2.791-15.56 4.828-33.959 20.039-42.311 25.003-9.7312 5.7835-39.772 39.774-41.234 44.774-1.4617 5.0006-7.7368 17.413-5.7697 28.773 2.0014 11.557 3.7899 30.606-0.5385 29.465z" fill="#b8b5a7"/>
  <path id="path21721" d="m904.92 530.24c-4.6942-9.2075-8.4814-6.7809-3.447-10.976 5.0344-4.1955 10.182-6.8262 11.044-4.3996 0.86174 2.4266 5.3292 7.2118 6.8033 6.9169 1.474-0.29482 4.5355-1.6102 2.4038 0.92982s-16.056 7.8694-16.804 7.5292z" fill="#b8b5a7" stroke="#b8b5a7" stroke-dashoffset="0pt"/>
  <path id="path21619" d="m625.29 352.37c-1.5998 0.02133-8.0629 0.40529-9.1934 0.53328-1.1305 0.12798-14.526 54.245-17.171 60.965s-4.0101 13.247-4.842 15.145 0.81445 9.5496 4.142 17.741c3.3275 8.1912 7.9349 16.638 8.8521 22.824 0.91721 6.186 5.3856 19.569 6.4735 30.832 1.0878 11.263 2.005 21.353 0.40527 28.115-1.5998 6.762-7.1883 17.598-12.052 20.457-4.8633 2.8584-11.924 9.919-11.924 9.919s2.5596 1.1306 3.8821 2.4318c1.3225 1.3012 27.218 1.6852 29.713 0.83191s5.4819-9.727 5.4179-11.007c-0.06399-1.2799 12.478-4.1383 13.929-8.1699 1.4505-4.0316 2.581-16.318 1.4931-22.035-1.0878-5.7168-8.7668-38.375-10.047-43.793-1.2798-5.4181-0.93517-28.338-0.84985-35.313 0.08532-6.9753-6.4026-27.445-4.8882-36.297 1.5145-8.8524-1.2372-21.502-2.0264-31.229-0.78922-9.727-2.5596-14.271-2.389-17.065s1.5358-4.2236 1.0737-4.8846z" fill="#d2d0c7" stroke="#d2d0c7" stroke-dashoffset="0pt"/>
  <path id="path21725" d="m943.5 422.68c-8.2773-21.386-10.318-23.518-11.52-30.865-1.2019-7.3478-4.4689 0.17303-5.9883-13.275-1.5194-13.448 1.7915-37.397 3.5377-44.903 1.7462-7.5066 8.3822-30.911 8.6544-34.109 0.27213-3.1977-0.92978-15.308-0.11338-20.207 0.81639-4.8986 9.4309-17.2 16.574-30.421s13.415-28.689 17.883-40.776 2.3593-40.183 0.74918-43.426c-1.6101-3.243-9.7384-27.441-16.088-32.475-6.3497-5.0346-5.2978-26.876-18.564-36.197-13.266-9.3209-13.221-13.562-13.221-13.562s10.726 3.0616 21.385 6.5768c10.658 3.5152 21.702 3.2203 28.937 14.696 7.2341 11.475 18.179 33.054 20.039 38.406s2.508 10.819 2.644 20.14c0.13607 9.3208 0.2041 11.135-0.72568 25.649s-2.1788 27.673-6.2608 35.293c-4.082 7.62-8.1186 5.6923-10.658 12.36-2.5399 6.6675-6.5203 17.023-12.802 31.356-6.2817 14.333-6.1456 15.535-8.5494 22.769-2.4038 7.2344-8.2342 14.588-10.887 28.581-2.6533 13.993-1.7915 12.314-2.2451 20.773-0.45355 8.4591-0.0621 22.311 3.7704 29.84 3.8325 7.5292 7.0342 12.66 8.8669 16.26 1.4535 2.8552-1.0339 17.132-6.2669 24.121-5.1758 6.913-6.7126 8.0282-6.5085 12.36 0.20409 4.3316-1.7462 1.4288-2.6404 1.0355z" fill="#d2d0c7" stroke="#d2d0c7" stroke-dashoffset="0pt"/>
  <path id="path21537" d="m279.69 493.84c2.3587-1.8945 2.5444-4.7176 6.4075-0.44576 3.8631 4.2719 4.4017 7.5965 6.0732 15.249 1.6715 7.6522-3.2502 6.8164 3.5102 13.224 6.7604 6.4078 1.8201 3.9375 6.1104 9.1009 4.2903 5.1634 7.6519 6.4264 13.242 3.1017s9.212-8.0608 14.227-3.5475c5.0146 4.5133 9.6577-1.0215 11.144 5.9435 1.4858 6.965-1.3558 2.3588-3.0459 6.7607s1.0958 6.092-0.68719 10.122c-1.783 4.0304-1.0215 9.2681-10.456 10.531-9.4348 1.263-11.775 2.8974-14.338 1.5787s-4.866 1.5602-8.9334-0.14859c-4.0674-1.7087-8.1533-2.0802-14.227-5.6463s-11.199-7.3179-13.818-12.463c-2.6187-5.1448-5.6275-8.0051-4.6617-13.8 0.96577-5.7949 1.9501-15.49 4.2903-22.882s5.0332-16.697 5.1632-16.679z" fill="#61514e" stroke="#61514e" stroke-dashoffset="0pt"/>
  <path id="path21263" d="m536.44 569.48c-8.1031 7.1464-14.35 19.985-14.35 19.985 1.6403 2.5082 26.026 0.84408 34.949 0.80385 9.1675-0.04133 8.666-6.9054 8.666-6.9054l-1.3399-11.102c-18.973-2.3742-17.951-1.6109-27.925-2.7807z" fill="#413b35" stroke="#413b35" stroke-dashoffset="0pt"/>
  <path id="path21265" d="m591.35 560.69c-6.5367 7.0895-9.3272 17.897-9.3272 17.897s14.405 2.1659 23.509 1.4078c10.318-0.8591 19.649-0.85379 20.432-6.1653 0.78192-5.303-1.2849-12.133-1.2849-12.133-0.03893 0.06812-26.977 3.7578-33.329-1.0063z" fill="#413b35" stroke="#413b35" stroke-dashoffset="0pt" stroke-width=".97899"/>
  <path id="path21493" d="m280.81 546.61c0.90295-7.9844 3.5168-9.6002 6.5108-10.931s7.4613 0.52278 4.0871 5.1803-9.6949 6.5111-10.598 5.7506z" fill="#3c3230"/>
  <path id="path21495" d="m280.53 548.66c6.986 2.1387 11.73 2.6503 13.108-1.2944s-0.01503-9.9164-0.01503-9.9164-3.0038 6.965-7.7562 8.3908c-4.7524 1.4258-5.5746 1.8694-5.3369 2.82z" fill="#7e6966"/>
  <path id="path21497" d="m299.82 563.29c7.2712-5.0853 10.835-3.707 12.832-11.454 1.996-7.7467 4.7999-10.408 4.7999-10.408l5.6592 3.0053s-3.4731 6.9276-7.6552 11.3c-4.1821 4.3724-11.406 7.7943-15.635 7.5566z" fill="#907976"/>
  <path id="path21499" d="m313.17 562.72c3.5643-9.4102 9.98-12.309 9.98-12.309s3.6118 4.8476-1.3782 9.0775c-4.99 4.2298-7.1286 4.2773-7.1286 4.2773l-1.4732-1.0456z" fill="#7e6966"/>
  <path id="path21501" d="m305.51 540.24c2.8046 1.0741-0.23869-2.9837 5.8877-5.2713s10.562-3.123 14.401-0.29838c3.8389 2.8246 1.7703 7.0018 4.8334 9.8861 3.0632 2.8843 6.4446 6.246 6.4446 6.246s-3.6002-2.3074-8.4933-5.6691-3.5803 0.6962-9.0702-2.7649c-5.4898-3.4611-9.0702 3.6402-12.392 2.1483-3.3218-1.4919-1.6509-4.4756-1.6112-4.2767z" fill="#907976" stroke="#907976" stroke-dashoffset="0pt"/>
  <path id="path21503" d="m327.11 534.08c4.6544-3.1429 7.7623-3.9463 11.079-1.83 4.3387 2.7683 2.855 5.9788 2.7051 6.0072 1.7135 3.134-2.6227 3.4625-3.9384 5.1917 0 0-0.07956 2.3273-2.7051-2.0289s-2.904-5.5298-1.6907-4.0181c1.2133 1.5118 5.1716 4.1573 4.1373 1.5515-1.0343-2.6058-3.6599-3.6004-6.3054-3.3816-2.6455 0.21881-2.8643-1.0542-3.282-1.4919z" fill="#7e6966"/>
  <path id="path21519" d="m311.98 436.91c0.67628-5.1519-0.81553-7.161 2.7449-9.349 3.5604-2.1881 13.307-2.566 16.887-3.6402 3.5803-1.0741 5.5296-2.1682 5.5296-2.1682s-3.3416 6.5244-6.4844 10.443c-3.1427 3.9186-15.177 3.3816-17.583 4.953-2.4068 1.5714-1.273-0.2188-1.094-0.23869z" fill="#d1cfc6"/>
  <path id="path21523" d="m315.5 428.28c-0.97465 4.8734-0.31826 7.9765 1.0144 8.1356 1.3327 0.15913 14.799-2.6655 13.645-4.9928s-1.631-6.2261-3.6201-6.2857c-1.9891-0.05968-10.9 2.3273-11.039 3.1429z"/>
  <path id="path21521" d="m316.43 429.95c3.0632 1.9892 7.0413 0.87523 10.184-0.29837s-7.6579-2.3671-9.1497-1.4521c-1.4918 0.91501-0.11935 2.009-1.0343 1.7504z" fill="#fff"/>
  <path id="path21545" d="m347.41 383.03c2.2041 1.2188 9.5944 3.9935 10.995 1.9708 1.4003-2.0227 3.0858-13.64 2.619-16.596s-1.1669-3.1896-1.1669-3.1896-1.504 6.6385-2.1004 10.814c-0.5964 4.175-3.2932 7.0016-6.2752 6.9497-2.982-0.05186-4.5897-0.02593-4.0711 0.05187z"/>
  <path id="path21579" d="m546.87 357.23c0.44793-2.4744 10.281-16.532 12.414-18.558 2.133-2.0265 27.367-8.5965 29.223-9.1938 1.8557-0.59727 26.343-4.1596 27.58-3.0717s4.906 3.5623-2.261 4.8848c-7.167 1.3225-19.944 4.2662-28.625 5.0128s-14.803 1.3439-20.157 3.4983-10.239 7.274-14.611 11.647c-4.3727 4.3729-3.4555 5.9514-3.5622 5.7808z" stroke="#000" stroke-dashoffset="0pt" stroke-width=".5"/>
  <path id="path21581" d="m547.58 357.03c3.4982-4.7569 0.7039-6.826 11.092-8.5965s20.69 1.1945 28.497-1.8985c7.8069-3.093 9.9186-7.4659 17.726-7.6792s9.1081 1.3652 9.1081 1.3652 11.305 4.0103-3.8395 2.6877c-15.145-1.3225-9.8333 1.0666-16.702 2.4958-6.8684 1.4292-4.4794 3.861-3.3702 4.1809s17.679 0.2117 20.84 2.5598c1.4931 1.1092 3.0929 2.2184 3.0929 2.2184s1.3012 1.3439-10.025 0.10665c-18.038-1.9853-34.171-1.4292-43.045-3.093-8.8734-1.6638-14.782 7.0606-14.782 7.0606l1.4078-1.4079z" stroke="#000" stroke-dashoffset="0pt"/>
  <path id="path21609" d="m568.96 542.49c-0.81055-13.14-2.069-19.027 0.55459-34.045 2.6236-15.017 7.1883-21.097 9.9826-29.821 2.7943-8.7245-0.93854-31.613-0.87455-36.647 0.06399-5.0342 2.773-7.5939 2.8369-5.9727s0.19197 12.479 1.0025 16.126c0.81056 3.6476 4.9273 2.8797 4.522 7.2313-0.40528 4.3516 2.1757 12.585-1.7704 16.852-3.9461 4.2662-5.9512 0.6826-7.9349 12.031-1.9837 11.348-1.6638 26.685-0.06399 35.474 1.5998 8.7885 3.2422 21.992 2.5383 25.512s-1.0452 8.4685-2.2824 7.018-2.6663-3.797-3.9248-14.121-2.005-14.399-3.0502-12.223c-1.0452 2.1758-0.85322 13.204-1.5358 12.585z" fill="#b8b5a7" stroke="#b8b5a7" stroke-dashoffset="0pt"/>
  <g id="g3457" stroke="#000" stroke-dashoffset="0pt" stroke-width=".5">
   <path id="path21583" d="m550.05 360.53c3.8608-2.7944 10.516-3.7543 15.72-2.0265 5.2046 1.7278 14.569 6.2927 22.376 5.9727s20.115-0.10666 20.541 1.5785c0.42661 1.6852 3.6688 4.4156 0.53326 3.3277-3.1356-1.0879-2.1757-5.0768-12.478-0.59728-10.303 4.4796-10.345 10.026-17.64 8.5325-7.295-1.4932-21.096-8.1272-24.914-8.8525-3.8181-0.72526-3.3915-2.5384-3.3915-2.5384s1.7064-0.31997 4.1168 0.12799c2.4103 0.44795 19.581 6.9113 19.581 6.9113s-3.8608-0.89591 1.4931-0.04266 15.315-2.8797 15.912-4.3729c0.59725-1.4932-3.3062 1.8985-10.281-1.3439-6.975-3.2423-12.585-7.4659-18.024-7.1246s-13.993 0.70393-13.545 0.44795z"/>
   <path id="path21585" d="m551.97 379.1c1.3865 1.7278 18.365 7.8072 24.061 6.0794 5.6952-1.7278 25.017-7.2984 26.066-8.3192 2.3188-2.258 4.8566-0.71068 1.7064 2.2398 0 0-11.092 5.7594-19.859 7.1673-8.7668 1.4079-17.811 3.477-24.956-0.55461-7.1457-4.0316-6.6337-5.7808-7.0177-6.6127z"/>
   <path id="path21587" d="m557.64 388.69c5.034 1.4505 10.729 4.0103 17.15 5.8661 6.4204 1.8558 28.263-6.8473 29.265-8.1485 1.0025-1.3012 4.6287-4.6715 4.6287-4.6715s1.0878-2.7091-4.6074 1.5358-18.813 9.8764-24.295 9.6844-20.818-3.9889-22.141-4.2662z"/>
   <path id="path21589" d="m556.21 399.97c8.2762-3.6476 21.949-3.413 28.135 1.1946s17.939 2.9437 18.429 1.3865 1.2372-4.3516 1.2372-4.3516-6.3564 4.8635-13.523 1.9198c-7.167-2.9437-7.9776-5.3115-20.392-4.4369-12.414 0.87458-14.291 4.3516-13.886 4.2876z"/>
   <path id="path21591" d="m556 405.92c20.541-1.9625 34.832 7.5299 39.397 6.8047 4.5647-0.72526 6.9324-5.9088 6.9324-5.9088s1.3012 4.5649-8.0202 3.8396-20.818-10.474-27.729-7.6579-10.559 3.3063-10.58 2.9224z"/>
   <path id="path21593" d="m554.86 412.38c9.5986-3.2637 18.813 1.9625 25.959 4.4369s17.064 0.87458 17.064 0.87458l-0.95987 3.8823s-6.9324-0.42662-13.076 1.9838c-6.1431 2.4104-1.7064-2.837-17.704 0.51195s-10.623 0.76793-10.623 0.76793 19.496-6.506 22.951-4.9702c3.4555 1.5358 3.3275 3.349 7.359 1.4719 4.0314-1.8772 9.0867-2.2398 9.0867-2.2398s-13.161 1.1519-17.406-0.76792-12.948-7.9779-17.534-6.1647c-4.586 1.8132-5.1833 0.31996-5.1193 0.21331z"/>
   <path id="path21595" d="m571.76 426.53c7.4443 5.8661 9.8973 3.6263 14.206 4.0529 4.3087 0.42663 7.2736-0.23464 7.2736-0.23464s6.975-4.6502-0.57592-2.0478-15.827-1.4292-17.854-2.8157-2.261 1.4505-3.0502 1.0452z"/>
   <path id="path21597" d="m559.8 441.06c4.8846-3.541 8.4042-6.2074 13.566-5.0982 5.162 1.1092 13.502 2.5811 14.633 2.1971 1.1305-0.38396 2.3037-2.9437 2.3037-2.9437s-11.134-1.4292-17.875-1.0879-14.355 6.1861-14.355 6.1861l1.7278 0.74659z"/>
   <path id="path21599" d="m556.43 449.53c5.1619-5.6314 18.771-4.0103 20.072-3.9463 1.3012 0.06399 3.5195 1.7065 4.586 2.901s4.4794-0.19198 5.0766 1.2585c0.59725 1.4505 1.4718-2.3464 1.4718-2.3464s-1.8344-0.9599-3.7755-1.8345c-1.9411-0.87458-4.7993-2.7944-5.8445-3.3277s-20.754 4.9915-21.586 7.2953z"/>
   <path id="path21601" d="m563.85 453.48c5.2899 2.9224 10.921-1.5145 14.931-0.42663 4.0101 1.0879 7.359 2.2398 7.8709 3.6263s-0.17064 3.0077-0.17064 3.0077 1.6851 1.6212-1.8984-1.2799c-3.5835-2.901-11.39-1.8985-15.912-2.2398-4.522-0.3413-3.7755-2.9437-3.7755-2.9437l-2.0904-1.6638 1.0452 1.9198z"/>
   <path id="path21603" d="m563.98 460.48s1.6095 0.43128 8.1695-0.21331c6.6045-0.64896 13.935 1.868 13.203 3.9463 0 0 6.0792 1.0879-3.4555 0.02133-9.5347-1.0666-17.47-3.605-17.917-3.7543z"/>
   <path id="path21605" d="m561.13 466.22c11.582-0.81058 26.185 3.9494 24.701 4.7355-1.0982 0.58161 1.6594 1.8706-2.3037 1.1092-7.7953-1.4975-20.477-6.0367-22.397-5.8448z"/>
   <path id="path21607" d="m561.02 467.95c10.303 3.1144 21.918 12.174 20.605 11.86-1.5762-0.37651 3.2501 2.2104-3.4129 0.44795-11.357-3.004-15.166-12.223-17.192-12.308z"/>
  </g>
  <path id="path21611" d="m563.99 570.84c-0.53326-6.442-3.6688-8.8098 0.4906-13.353s7.7429-8.4258 9.0227-11.22c1.2798-2.7944 0.53326 3.0504 1.1732 4.6715s3.7541 7.1673 4.5434 5.6101c0.78922-1.5572 0.12798 0.31997-4.0741 1.7918s-6.9537 4.9275-7.9136 6.3354c-0.95986 1.4079-2.581 6.954-3.2422 6.1647z" fill="#b8b5a7" stroke="#b8b5a7" stroke-dashoffset="0pt"/>
  <path id="path21613" d="m621.95 541.89c9.8333-8.0205 22.397-8.7245 21.693-12.393s1.9197 1.0452 0.38394 7.7219c-1.5358 6.6767-3.1352 7.681-9.428 8.2978-5.9726 0.58542-11.241 11.028-11.305 6.762s-0.87455-9.7057-1.3438-10.388z" fill="#b8b5a7" stroke="#b8b5a7" stroke-dashoffset="0pt"/>
  <path id="path21615" d="m615.98 422.73c4.522 15.209 12.948 20.99 10.473 32.061s-5.7592 9.8977-1.9197 24.339c3.8395 14.441 11.476 37.842 11.732 39.121 0.25596 1.2799 4.3087 3.669 2.1117-1.2159-2.197-4.8848-8.0415-26.771-9.5773-35.133-1.5358-8.3618 0.57591-14.228 3.2635-23.422 2.6876-9.1938 2.4103-19.881 0.38394-24.552-2.0264-4.6715-14.27-10.026-15.379-11.135-1.1092-1.1092-0.85321 0.85325-1.0878-0.06399z" fill="#b8b5a7" stroke="#b8b5a7" stroke-dashoffset="0pt"/>
  <path id="path21617" d="m617.01 377.88c3.6048 15.316 7.167 29.885 4.2447 29.288-2.9222-0.59727-12.308-11.05-12.67-15.486-0.36262-4.4369 7.9776-14.164 8.4255-13.801z" fill="#b8b5a7" stroke="#b8b5a7" stroke-dashoffset="0pt"/>
  <g id="g3472" stroke="#000" stroke-dashoffset="0pt" stroke-width=".5">
   <path id="path21627" d="m605.23 138.11c-0.5452 4.9391 5.7728 9.8782 10.199 13.951 4.4258 4.0732 10.231 13.855 11.129 20.815 0.89799 6.9597 11.855 27.94 15.351 33.713 3.4957 5.773 19.339 30.084 21.103 32.65s9.0424 24.231 13.981 37.637c4.9389 13.406 10.327 28.416 15.073 38.134 4.7465 9.7179 14.272 28.384 15.17 34.349 0.89799 5.9654-1.3149 13.791-1.3149 13.791 2.2648 2.2693 5.2199 3.4339 10.327 1.1546 0 0 2.1167 1.5715 2.0205-8.1464s-2.2129-22.803-7.9536-31.623c-5.7407-8.8199-7.6008-17.704-11.225-31.367-3.624-13.663-11.131-48.368-16.967-57.091-5.8369-8.7236-27.608-42.255-29.501-45.975-1.8922-3.7204-7.4404-24.888-9.9099-30.501-2.4695-5.6126-5.3238-2.6299-4.4258-11.803 0.89799-9.1727 7.8894-10.199 3.592-11.065-4.2975-0.86595-9.3968 1.1225-12.925 1.4432-3.5278 0.32073 0.19242 3.0789-0.57728 6.7352s-6.8311 0.19243-10.006-4.2335c-3.175-4.426-1.6998-3.1752-1.6998-3.1752l-11.439 0.60584z"/>
   <path id="path21629" d="m653.34 134.22c0.89798 7.9218 11.481 17.736 16.035 27.839s8.3064 23.124 16.1 36.338c7.7932 13.214 13.415 26.797 17.071 39.337 3.6561 12.54 5.1955 32.714 10.359 44.645 5.1634 11.931 13.63 31.719 18.569 44.677s15.744 27.038 14.814 32.106-2.0562 6.6921-2.0562 6.6921c0.22808-0.5493 2.5 1.6114 4.5898-5.1847 2.3552-7.659 9.0119-6.4786 5.5483-14.112s-20.493-48.365-23.668-60.2 0.80177-22.707-8.2743-45.607c-9.0761-22.9-15.649-36.679-23.988-53.646-8.3384-16.966-11.706-28.576-11.995-33.804s1.7318-10.616 1.7318-10.616-4.0089 6.7672-8.595 0.44901c-4.5862-6.3182-7.5687-9.333-7.5687-9.333s3.6561-1.3791-2.7902-2.3413c-6.4462-0.96217-2.8864-0.96217-4.4258-1.347-1.5394-0.38486-11.417 4.4901-11.457 4.1081z"/>
   <path id="path21631" d="m678.12 126.8c1.796 1.0263 3.5278 2.3092 6.1255 1.2829 2.5978-1.0263 17.864-4.2335 19.884-5.4202 2.0205-1.1867 2.9826-3.4638 2.9826-3.4638l-28.992 7.6011z"/>
   <path id="path21633" d="m685.5 130.09c3.447 3.8553-0.38552 4.3996 2.3131 7.9602s7.1208 4.3996 9.9781 2.2225c2.8574-2.1771 15.738-8.595 19.049-11.566 3.3108-2.971 8.8672-4.8128 12.881-7.688 4.5681-3.2724 5.2158-1.9957 13.765-5.4655 8.5494-3.4698 19.82-5.7376 24.084-8.7992 4.2634-3.0616 17.734-6.0098 18.369-4.9212s5.624-0.45357 7.9145-1.9957c2.2904-1.5421 6.7126-3.243 4.1954-3.1523-2.5172 0.090714-5.6467 0.45357-17.235 4.0594-11.588 3.6059-25.263 8.1416-31.499 9.6837-6.2363 1.5421-14.718 6.1912-19.48 6.5994-4.7623 0.40822-9.7287 3.0162-8.9576 1.3154 0.77104-1.7009 1.0885-2.5627-2.9027-0.77107s-8.0505 2.0637-8.0505 2.0637 3.9459 7.4839-1.9503 8.8673c-5.8962 1.3834-9.1164 0.88446-8.6628-1.7236 0.45355-2.608 1.2926-1.4741-0.43087-1.5875s-15.602 3.3337-15.602 3.3337l2.2224 1.5648z"/>
   <path id="path21635" d="m697.35 143.82c0.83907 5.715 2.9254 12.813 3.6964 14.492 0.77103 1.6782 3.2202 2.5627 3.515-3.9687 0.29481-6.5314-0.09071-6.6448 3.7191-12.269 3.8098-5.6243 19.593-12.382 24.197-16.873 4.6035-4.4903 13.312-9.3435 13.312-9.3435s-8.8442 4.2409-16.736 9.9558c-7.8918 5.715-9.9781 5.5336-16.917 9.4569-6.9393 3.9234-5.0117 7.688-9.7967 7.2571-4.785-0.43089-5.3973 2.0637-4.9891 1.2927z"/>
   <path id="path21637" d="m726.33 221.75c-2.2904-7.121-0.72568-6.985-4.0139-13.902-3.2882-6.9169-5.2158-9.2755-7.3702-19.504-2.1544-10.228-4.6262-18.551-1.9276-29.074 2.6986-10.523 25.625-26.491 29.865-32.999 4.2407-6.5087 7.6423-11.09 12.087-12.405 4.4448-1.3154 16.781-2.8575 22.201-5.9644 5.4199-3.107 11.225-2.9255 16.056-5.7603 4.8303-2.8348 8.6402 0.5216 11.86-3.2203 3.2202-3.742 8.0732-6.0325 12.541-7.8014 4.4675-1.7689 7.3248 4.0821 11.656 0.61232 4.3314-3.4698 4.082-4.6491 9.5699-5.2161s7.9371-1.7009 12.881-3.2884 12.904-4.0141 14.65-2.2905c1.7462 1.7236-2.1544 5.08-8.8896 6.9623-6.7352 1.8823-43.269 12.745-51.705 16.487-8.436 3.742-14.083 9.1394-17.212 10.364-3.1295 1.2246-16.26 6.8489-20.115 8.2776-3.8552 1.4288-9.2751 7.5519-14.242 9.6384-4.9664 2.0864-4.1046 6.7582-7.2341 12.11-3.1295 5.3521-6.7806 15.331-10.59 19.118-3.8098 3.7873-5.9869 7.9148-6.5311 9.661-0.54426 1.7462-0.26839 10.587-2.5588 17.685-2.2904 7.0984-3.9912 6.5994-1.7462 13.131 2.2451 6.5314 3.0615 16.737 1.8822 17.848-1.1792 1.1112-0.54426-0.22678-1.1138-0.47035z"/>
   <path id="path21639" d="m743.65 188.35c-0.34016-1.3154-0.61229-5.4428-1.5874-6.8716-0.97513-1.4287-3.4923-1.6102-2.9481 2.7668s2.109 8.7992 3.2882 9.3435c1.1792 0.54429 1.2926-4.2636 1.2473-5.2387z"/>
   <path id="path21641" d="m747.6 170.3c4.3768-16.465 10.477-24.901 14.06-30.366 3.5831-5.4655 5.0571-6.1005 10.681-10.568 5.624-4.4677 18.868-9.7064 28.12-15.943 9.2524-6.2366 31.34-14.968 39.64-18.097s29.708-7.9601 30.365-9.6837c0.65765-1.7236 7.5063-0.045357-1.6101 2.608-9.1164 2.6534-28.029 7.0303-39.187 11.952-11.157 4.9212-14.695 10.341-24.356 16.397-9.6606 6.0552-19.707 10.273-28.324 18.868-8.6175 8.5952-9.2071 13.879-16.691 22.429s-11.656 17.349-11.656 17.349l-0.97513-3.7646 0.99781-2.6987-1.0658 1.5195z"/>
   <path id="path21643" d="m869.79 77.036c4.4675-2.0184 20.75 0.45357 22.156 0.45357s-1.7688-0.74839-2.0183 2.6307 5.5787 5.9644 8.8669 5.7603c3.2882-0.20411 2.2451-3.9914 1.6781-5.08-0.56693-1.0886-2.2904-4.2182 5.0571-0.15875 7.3475 4.0594 19.095 7.7334 29.231 9.7291 10.137 1.9957 23.494 5.6243 28.12 10.432 4.6262 4.8078 4.853 6.9396 4.853 6.9396s-27.417-11.407-38.257-10.795c-10.84 0.61232-19.435-1.338-25.195-0.74839-5.7601 0.58964-12.926 8.8219-20.228 10.319s-11.86 5.4202-16.827 7.7334c-4.9664 2.3132-10.409 0.88446-17.711 4.445-7.3022 3.5605-8.3606 4.6779-12.737 7.3086-4.3768 2.6307 2.1317 1.6102-13.38 15.331-15.511 13.72-10.863 9.9785-15.239 15.399-4.3768 5.4202-8.2442 21.225-14.889 24.558-6.6445 3.3337-4.5128 4.581-12.495 15.263-7.9825 10.682-7.1888 7.5519-11.475 20.116s-0.74641 26.501-2.4019 31.241 1.5681 10.75 1.3186 29.256c-0.24946 18.506 6.5085 28.416 10.59 41.819 4.082 13.403 13.629 17.077 11.293 23.744s-4.218 8.5044-5.2839 9.6157c-1.0658 1.1112 0.04536 2.2905-4.218-5.7603-4.2634-8.0509-15.874-20.978-18.528-29.028-2.6533-8.0509-8.7309-21.635-10.568-33.746-1.8369-12.11-8.7498-44.885-9.0673-51.961-0.31749-7.0757-1.5194-23.858-3.0615-29.505-1.5421-5.647-1.7008-10.976-1.7008-10.976s3.6738 14.015 8.6628 18.12c4.9891 4.1048 6.2363 8.6859 6.8713 3.9687 0.63497-4.7171 2.3922-27.211 3.5261-30.364 1.1339-3.1523 7.8282-4.1511 10.436-10.456s6.9167-13.131 10.885-18.324c3.9686-5.1934 14.083-12.927 20.818-18.71 6.7352-5.783 9.4565-7.7334 12.949-12.723 3.4923-4.9893 6.4567-9.439 10.629-12.115s9.4565-0.68035 13.811-4.1955c4.3541-3.5152 27.689-12.224 29.64-12.632s15.874-3.3337 15.307-7.5293c-0.56694-4.1955-6.6899-6.1912-9.5472-7.1891-2.8574-0.99785-1.2473-1.6782-1.8727-2.1867z"/>
   <path id="path21645" d="m950.47 106.11c-14.808-3.1977-25.059-3.175-35.014-3.0162s-14.083 0.86178-20.115 3.4244-1.7462 4.1048-11.293 7.2344c-9.5473 3.1296-7.4609 8.4591-19.14 12.904-11.679 4.445-18.142 10.455-19.525 11.044-1.3833 0.58964-22.546 23.126-27.672 30.179-5.1251 7.053-10.681 21.975-16.759 26.33-6.0776 4.3543-14.31 19.458-14.31 19.458s-4.704 7.1489-9.9425 18.806-1.8822 42.023-2.0863 43.339c-0.2041 1.3154-0.29481-25.99 5.2385-40.663 5.5333-14.673 7.665-21.408 19.934-30.435s28.955-24.65 29.205-26.442c0.24945-1.7916 15.194-22.429 19.525-26.352 4.3314-3.9234 14.288-14.868 18.552-20.787s10.364-0.45357 20.183-6.8262c9.8194-6.3727 15.33-14.673 27.326-17.599 11.996-2.9255 36.624-0.40821 35.893-0.59962z"/>
   <path id="path21647" d="m992.89 137.16c-0.97513-3.2203-1.8369-9.6384-9.6153-15.013-7.7784-5.3748-12.518-6.0552-15.806-7.4386-3.2882-1.3834-19.866 1.9504-25.988-0.54428s-0.703-2.7214-10.863-0.54428c-10.16 2.1771-17.303 10.024-24.424 12.881-7.1208 2.8575-7.1888 4.9666-13.448 6.9396s-19.661 18.596-21.09 19.231c-1.4287 0.63499-14.061 11.041-19.889 15.894-5.8281 4.8532-11.611 15.421-16.713 22.542s-14.672 12.36-20.251 17.667c-5.5787 5.3068-14.346 16.203-19.176 30.876s-1.8481 48.602-2.0522 51.051c-0.20409 2.4493 6.7352 21.34 12.11 32.158 5.3746 10.818 6.7126 17.009 10.863 10.727 4.15-6.2819 7.5063-10.024 4.5128-19.866-2.9934-9.8425-9.071-11.362-7.1888-28.303s-1.0684-21.965 2.492-34.574c3.5604-12.609 6.9847-18.823 15.579-27.645 8.5948-8.8219 21.076-25.574 26.156-30.246 5.0798-4.6718 38.824-29.527 46.693-33.655 7.8691-4.1275 27.009-15.648 31.635-18.415 4.6262-2.7668 5.4199-3.742 14.264-4.1728s17.87-5.8964 23.267-5.2841 19.231 5.1027 18.932 5.7338z"/>
   <path id="path21649" d="m850.71 227.41c4.3994-10.886 8.4814-15.421 24.106-24.266s40.752-21.499 42.158-23.019 25.852-11.974 31.817-15.263 21.589-5.7377 28.029-7.688c6.4404-1.9503 18.165-4.0594 18.165-4.0594s2.4038-2.5173-4.4448-5.4428-13.765-1.7236-26.691 1.9277c-12.926 3.6512-29.934 10.999-36.783 11.77-6.8486 0.77107-16.056 13.857-25.149 18.029s-18.119 13.448-27.326 18.097-23.335 23.177-24.582 24.856c-1.2473 1.6782-1.7462 7.4612-1.7462 7.4612l2.4492-2.4039z"/>
   <path id="path21651" d="m845.55 309.54c0.03471-8.2547-0.16939-29.278 0.4429-39.914 0.6123-10.636 6.826-12.564 14.65-21.068s28.419-14.899 30.392-16.94c1.9729-2.0411 19.571-12.314 30.184-15.285s31.794-11.725 43.7-16.442c11.906-4.7171 33.049-20.918 31.749-21.318-1.3372-0.41147 7.0193-16.884-4.3541-11.43-15.88 7.6153-24.288 11.09-40.049 16.964-15.761 5.8737-24.945 4.1275-43.11 16.079-18.165 11.952-33.722 23.744-39.55 25.922-5.8281 2.1771-17.87 11.838-19.911 15.285s-15.375 21.998-16.532 25.627c-1.1566 3.6286 1.0877 15.213 3.1287 24.194s5.3519 18.143 7.1661 19.277c1.8142 1.1339 3.0842-0.63499 2.094-0.94954z"/>
   <path id="path21653" d="m870.67 287.31c1.4967-9.0034 0.54426-14.514 0.04536-15.784-0.49891-1.27 1.4287 2.6761 7.665-1.7462 6.2363-4.4223 8.6855-3.3337 14.4-7.2798 5.7148-3.946 16.419-0.45357 22.723-5.9871s7.8464-3.81 19.253-7.2571 33.699-7.62 38.575-13.176c4.8757-5.5562 18.777-22.951 20.478-26.375 1.7008-3.4245 2.9254-10.183 2.9254-10.183l0.13607-6.7355s2.5852-4.7625-3.6738 7.5973c-6.259 12.36-7.2342 21.136-15.602 23.926-8.368 2.7894-10.296 1.338-25.716 6.6675-15.421 5.3294-20.478 4.513-34.175 10.387-13.697 5.8737-32.406 14.083-38.28 18.256s-9.2978 5.851-12.246 6.0778c-2.9481 0.22678-4.4448 3.8327-1.7462 8.2776 2.6986 4.445 4.3541 13.335 4.0593 14.469-0.29481 1.1339 1.4287-0.47625 1.1792-1.1339z"/>
  </g>
  <path id="path21719" d="m876.07 533.11c-2.6086 7.4483-12.365-1.4804-16.872-5.8964-1.7879-1.7515-13.992-0.49892-10.25-3.3564s13.289-12.972 16.487-15.603c3.1975-2.6307 10.386-11.022 11.498-13.29s8.243-19.323 9.1501-23.382 13.281-41.215 14.029-47.973-9.9176-46.138-12.412-48.701c-2.4945-2.5627-21.806-60.602-23.007-61.531-1.2019-0.92982-2.0863-6.6675-4.1273-8.7766s3.0842-24.697 3.2882-27.328 3.7872 3.3791 7.529 11.362 11.225 21.726 16.328 38.531c5.1024 16.805 12.155 39.075 14.378 47.625s5.9518 15.671 8.2649 28.893 6.1683 19.753 5.7828 26.103c-0.38552 6.35-8.9908 31.928-10.51 40.319-1.5194 8.391-5.3066 19.776-8.1866 26.012-2.88 6.2366-6.2941 15.68-8.199 18.696-1.9049 3.0162-10.43 4.0491-11.9 11.696l-1.269 6.6008z" fill="#b9b6a8" stroke="#b9b6a8" stroke-dashoffset="0pt"/>
  <path id="path21723" d="m927.03 510.88c-3.5604 3.9007-8.6175 6.985-9.4566 2.0184s1.4967-11.77 2.2678-24.788 6.1683-28.688 7.6197-38.894 3.2701-14.43 4.1772-9.0777c0.90711 5.3521 1.6328 13.879 4.6489 5.5789 3.0161-8.3003 7.3929-16.782 7.3929-16.782s1.9276 1.8143 0.18142 9.593-6.0096 18.982-8.2773 25.922c-2.2678 6.9396-4.2634 11.022-4.7169 21.114s-2.9027 23.835-3.8371 25.316z" fill="#b8b5a7" stroke="#b8b5a7" stroke-dashoffset="0pt"/>
  <path id="path21727" d="m944.9 372.2c-4.2634 16.102-7.4156 20.002-2.5626 22.905 4.853 2.9028 12.926 1.8596 14.151-3.3564 1.2246-5.216-2.1997-14.764-5.2839-19.231s-5.7147-0.65768-6.3044-0.3175z" fill="#97927d" stroke="#97927d" stroke-dashoffset="0pt"/>
  <g id="g3490" stroke="#000" stroke-dashoffset="0pt" stroke-width=".5">
   <path id="path21655" d="m877.97 298.22c2.6533-8.1416-2.88-11.747 11.702-15.943s29.957 2.8121 41.5-1.0205c11.543-3.8327 34.493-12.972 36.284-16.034 1.7915-3.0616 5.488-14.832 5.488-14.832s-2.041 3.0616-7.3248 5.783c-18.296 9.423-27.213 14.854-36.67 15.943-9.4565 1.0886-16.6-5.5562-29.934 0.8391-13.334 6.3953-19.117 14.333-20.841 17.961-1.7235 3.6286 0.31749 7.4839-0.20409 7.3025z"/>
   <path id="path21657" d="m883.93 311.37c11.588-10.818 13.561-10.001 19.616-14.537 6.0549-4.5357 14.446 2.4039 25.558 0.61232 11.112-1.7916 29.697-7.7856 28.846-6.2593-0.93999 1.6856 0.97826 10.673-8.5494 14.582-11.161 4.5787-32.928 10.16-38.552 10.001-5.624-0.15875-16.759 2.2678-5.2158-1.4514 11.543-3.7193 36.67-3.3111 31.771-7.0303s-18.845-5.5109-27.258-5.4202c-8.4134 0.09071-20.931 6.8489-24.197 9.2301s-2.4718 1.4968-2.4718 1.4968l0.45355-1.2246z"/>
   <path id="path21659" d="m887.48 320.46c5.8055-2.2905 7.597 1.9957 7.597 1.9957s-2.4492 1.1339-5.9415 0.49893c-3.4924-0.635-1.7688-2.3132-1.6555-2.4946z"/>
   <path id="path21661" d="m893.76 334.38c9.6153-4.1728 23.948-3.5832 28.574-4.5357 4.6262-0.95249 23.108-8.8673 24.401-9.3209s-0.38764 3.3563-0.4082 4.3996c-0.04365 2.2832 0.02941 1.1577-2.812 2.3359-9.2532 3.8368-2.2904 5.216-6.826 5.715-4.5355 0.49893-10.432 2.8348-16.623 0.90714-6.191-1.9277-24.582 2.1091-26.306 0.49893z"/>
   <path id="path21663" d="m896.73 345.13c3.0842-0.06804 14.627 3.9914 19.934 3.2884s14.876 0.74839 19.163-2.6761 10.386-7.5293 10.386-7.5293l0.15875 8.5044s-0.77104 0.49893-6.5992 3.4018c-5.8281 2.9028-11.067 4.4223-16.282 3.2884-5.2158-1.1339-27.326-6.9623-27.326-6.9623l0.56693-1.3154z"/>
   <path id="path21665" d="m899.66 356.62c12.155 10.024 19.344 12.428 21.226 12.156 1.8822-0.27214 14.899-5.5336 19.684-9.1168s7.1782-3.8366 7.1782-3.8366l1.3032 7.3291s-2.1708 0.39955-5.5106 2.54c-8.126 5.2077-6.2363 7.8468-16.713 7.62-10.477-0.22678-26.102-11.793-26.896-13.017-0.79371-1.2246-0.13606-4.0594-0.27213-3.6739z"/>
   <path id="path21667" d="m903.02 372.73c7.665 4.8078 16.373 1.4741 17.484 2.8121 1.1112 1.338 5.4199 5.4882-1.4287 3.5832-6.8486-1.905-16.827-6.8943-16.056-6.3953z"/>
   <path id="path21669" d="m917.65 384.14c7.3248 0.11339 13.629-1.1339 17.552-4.7625s7.0527-6.0778 10.545-8.0962c3.4923-2.0184 4.3314-3.8553 4.3314-3.8553l3.0842 6.35s-0.70479 1.2793-2.3131 1.837c-6.6843 2.3178-3.515-1.3154-9.1617 4.6718-5.6467 5.9871-6.962 4.445-13.629 5.4428-6.6672 0.99786-9.6551-1.7315-10.409-1.5875z"/>
   <path id="path21671" d="m937.33 388.02c1.7235-2.4493 0.63497-3.3111 6.8259-4.0594 6.191-0.74839 11.792-6.1005 11.792-6.1005l2.676 5.6469s4.9891 3.9914-4.6262 4.3316c-9.6153 0.34018-14.695 1.2927-15.285 2.4039-0.58962 1.1112-1.0205-0.9525-1.0205-0.9525l-0.36284-1.27z"/>
   <path id="path21673" d="m928.1 392.28c4.5809-0.65767 4.7169 2.1318 13.017 1.4514 8.3-0.68035 17.997 0.12973 17.997 0.12973l-1.5719 5.3596s-5.6304-0.34128-12.842-0.86289c-7.2115-0.5216-15.761-5.8284-16.6-6.0778z"/>
   <path id="path21675" d="m914.37 401.86c4.4902-2.4946 12.631-1.5648 17.484-0.72572 4.853 0.83911 10.5 4.5811 15.761 4.3316 5.2612-0.24946 7.7004-0.49861 7.7004-0.49861s-2.0184 4.6629-3.1977 4.0959c-1.1792-0.56696-3.3915 2.5259-10.149-1.0573-6.7579-3.5832-2.177-5.6923-12.722-5.7603-10.545-0.06804-15.239-0.97517-14.876-0.38553z"/>
   <path id="path21677" d="m915.14 408.67c6.5992-2.7894 14.559-5.0573 18.958-2.3132 4.3994 2.7441 14.99 7.8468 14.99 7.8468l-1.1566 2.9709s3.6511 4.9893-5.4653-1.5648-12.541-7.62-19.276-7.3932c-6.7352 0.22679-7.8691 0.24946-8.0505 0.45357z"/>
   <path id="path21679" d="m917.87 424.43c1.973-6.6675 7.4836-12.519 11.588-9.9332s15.829 12.292 15.829 12.292l-0.54426 2.8575s-0.4082 0.29482-7.2115-4.5357c-11.702-8.3089-8.3227-10.727-13.289-7.9375-4.9664 2.7895-6.3044 7.9602-6.3724 7.2571z"/>
   <path id="path21681" d="m913.87 447.79c3.7418-6.7582-1.9503-12.995 6.3951-15.739 8.3453-2.7441 13.607 2.4946 16.305 2.7894s7.0074-0.81642 7.0074-0.81642c-0.37125-0.22683 2.0022 1.2001-1.0205 4.0141-4.4725 4.1636-8.8896-0.86179-14.582-2.7668s-8.5041-4.8305-10.409 1.3834c-1.9049 6.2139-3.3109 11.543-3.6964 11.135z"/>
   <path id="path21683" d="m912.52 454.75c3.9912-3.5832 12.269-3.742 15.988-4.5357 3.7191-0.79374 12.064-1.8143 12.064-1.8143l0.45355-3.0162s-2.7667 5.0119-10.205 3.6739-14.627 3.1296-16.26 3.5152c-1.6328 0.38554-2.177 2.5627-2.041 2.1771z"/>
   <path id="path21685" d="m907.89 467.54c4.3768-5.4202 7.4156-8.1642 11.838-5.5336 4.4221 2.6307 11.996 11.226 11.996 11.226l0.70301 0.68036s-4.8984-2.3812-10.817-5.9871c-5.9188-3.6059-7.0527-3.5605-9.3205-2.1318s-4.8076 1.5421-4.3994 1.7462z"/>
   <path id="path21687" d="m906.56 475.64c4.8076-3.742 8.1866-3.4244 13.357-0.8391 5.1705 2.5854 10.25 5.9644 10.25 5.9644s-5.3292-0.20411-11.112-2.0184c-5.7828-1.8143-12.201-2.5627-12.495-3.107z"/>
   <path id="path21689" d="m903.61 484.66c8.9576-0.97518 9.9328 6.0098 15.081 5.4655 5.1478-0.54428 8.0052-0.45357 8.0052-0.45357s-10.409 4.7171-14.151 1.2473c-3.7418-3.4698-9.2751-6.1912-8.935-6.2593z"/>
   <path id="path21691" d="m924.45 460.74c7.4382-3.81 13.765-3.7646 13.765-3.7646-0.2912-0.20824-1.3119 4.5737-5.488 3.0389-4.8615-1.7867-6.3099 2.159-8.2773 0.72571z"/>
   <path id="path21693" d="m884.89 480.48c0.72568 5.7376 5.0117 10.477 9.2751 7.7107 4.2634-2.7668 6.191-1.4061 6.191-1.4061s4.4221 1.3154-2.3811 1.7916c-6.8033 0.47625-11.634 2.7214-13.334-2.3812-1.7008-5.1027 0.27213-6.7128 0.24945-5.715z"/>
   <path id="path21695" d="m888.27 474.54c3.8098 3.9914 4.5355 4.3089 9.3205 3.5605 4.785-0.74839 6.259-2.2225 6.259-2.2225-0.86146-0.47384 0.1199 5.5212-1.7008 5.6016-6.1204 0.27034-12.064-1.2927-13.47-4.0368s-0.24945-2.5173-0.40819-2.9028z"/>
   <path id="path21697" d="m890.34 470.18c7.3475 4.1955 11.361 2.1318 13.108 2.1998 1.7462 0.06803 3.1975-1.8143 3.1975-1.8143s-10.137 3.4925-13.04 1.27c-2.9027-2.2225-3.2202-1.0659-3.2656-1.6555z"/>
   <path id="path21699" d="m893.08 460.34c3.6738 4.6491 6.2817 4.8305 9.9781 3.0616s4.4902-3.5152 4.4902-3.5152 5.3066-10.659-3.0842-2.6307c-8.3907 8.0282-10.908 2.54-11.384 3.0843z"/>
   <path id="path21701" d="m895.36 450.7c5.4426 0.15875 16.033-1.7009 16.781-3.2657 0.74836-1.5648 0.81639-5.9418 0.81639-5.9418s-13.085 10.251-16.124 8.2323c-3.0388-2.0184-3.6511-1.7462-3.6511-1.7462l2.177 2.7214z"/>
   <path id="path21703" d="m897.61 437.14c2.1544 0.40821 11.656-0.88446 12.949-1.6782s5.1024-4.6491 5.1024-4.6491c-0.71772 0.51449 2.7885-4.1749-1.406-1.202-7.0181 4.9742-12.858 6.7128-15.716 6.1459-2.8574-0.56696-1.8369 1.0886-0.92978 1.3834z"/>
   <path id="path21705" d="m903.38 416.52c2.0637-1.2246 9.003-3.4925 9.003-3.4925l-0.58962 2.1771s-6.3497 2.5173-8.4134 1.3154z"/>
   <path id="path21707" d="m902.47 401.46c1.5194 0.20411 6.894-0.5216 6.894-0.5216s3.2202 3.5605-0.22677 3.9234c-3.447 0.36286-7.03-2.9482-6.6672-3.4018z"/>
   <path id="path21709" d="m900.76 390.93c4.15-0.09071 7.1661-0.15875 7.1661-0.15875s-4.4221 2.2225-7.1661 0.15875z"/>
   <path id="path21711" d="m870.77 330.73c5.9188-2.2452 13.47-5.5562 13.47-5.5562s-8.4361 9.3435-10.137 8.6632c-1.7008-0.68035-2.4719-2.1318-3.3336-3.107z"/>
   <path id="path21713" d="m876.34 344.48c3.6057 0.97517 16.895-0.11339 16.895-0.11339s1.9956 1.202-5.3519 3.8327-8.9576 4.2636-8.9576 4.2636l-2.5852-7.9828z"/>
   <path id="path21715" d="m884.3 365.36c1.406-1.7009 9.003-1.0205 11.475 0.5216 2.4719 1.5421 1.5874 5.3975 1.5874 5.3975s-6.0549-2.7668-9.2978-3.878c-3.2429-1.1112-3.515-1.4061-3.7645-2.0411z"/>
   <path id="path21717" d="m889.47 377.06c6.4178-1.4968 8.9803-2.1544 10.228-3.175 1.2473-1.0205 0.65765 0.54428-3.1975 5.0346-3.8552 4.4903-5.8962 4.581-5.8962 4.581l-1.1339-6.4407z"/>
   <path id="path21729" d="m949.11 328.95c-0.64142 3.8487 0.96212 11.674 3.143 16.004 2.1808 4.3298-2.7581-12.636-2.726-17.96s4.6503 9.5254 4.6503 17.864-3.143 16.196-0.5452 24.118c2.5977 7.9218 13.277 26.684 14.977 29.474 1.6998 2.7903 6.0935 10.68 5.3879 5.7088s4.5861-8.3067 1.6998-21.232c-2.8864-12.925-6.2538-25.69-5.7728-36.434 0.48106-10.744-0.35278-15.683-2.0525-30.244s1.4432-37.14 2.245-39.353c0.80177-2.213 2.0846 14.304 1.0904 27.229-0.9942 12.925-1.4432 24.952-0.35278 38.679s5.452 30.565 5.0351 33.676c-0.41692 3.111 3.0147 8.1143 1.0263-5.1957s-1.9563-30.212-2.3732-27.935c-0.41692 2.2771 1.8922 4.2015 2.694 14.882 0.80177 10.68 1.9242 8.1784 1.3149 2.2451-0.60935-5.9334-2.0525-18.762-2.0525-18.762s0.44899-2.213 2.2129 8.7236c1.7639 10.937 6.0935 25.465 4.4899 29.474-1.6036 4.009-0.03207-6.6069-2.9826-23.926-2.9505-17.319-5.0351-12.412-4.9068-31.174 0.12829-18.762 3.3674-30.982 3.3674-28.833s-0.80177 5.9013 0.93006 19.628 4.1051 16.645 3.3674 8.7878c-0.73763-7.8577-3.9126-14.689-2.7581-24.247 1.1546-9.5575 3.9127-12.091 3.9127-12.091s-1.5394 10.103 0.5452 22.002 0.32071 2.8224 1.7318-5.6768 2.5336-19.179 0.57728-26.011c-1.9563-6.8314 0.22449-13.567 0.22449-13.567s2.5657 14.176 2.5657 19.981c0 5.8051 3.2392 5.8051 1.828-9.1406-1.4111-14.946-1.7653-21.298-2.8557-23.446-1.0904-2.1488 2.2129 3.0789 3.2071 7.8256s3.8164 0.99424 1.8922-8.9161c-1.9243-9.9103 1.5506-7.3416 1.5506-7.3416s1.2187-4.2656 0.51313-11.289c-0.70556-7.0238 4.1692-5.9334 4.1692-5.9334s0.9942-11.001 1.8281-8.0822c0.8338 2.9186-1.3791-2.3734-1.3791-6.2541 0-3.8807-1.2187-10.552 0.2566-8.4991 1.4752 2.0526 2.5977-1.3791 3.2071-2.213 0.6093-0.83388 1.1545-8.1143 1.379-9.4292s2.0846-2.8224 0.3207-6.1579 0.9942-0.3528-1.5715-3.977c-2.5656-3.6242-1.6035-3.977-1.6035-3.977l-1.3149-4.3939-2.3091-3.6883s-1.7318 9.3009-1.4753 15.94c0.25656 6.639-1.6036 21.264-3.1109 27.358-1.5073 6.0937-3.0467 13.983-8.5629 17.8-5.5162 3.8166-10.101 12.267-12.506 19.259-2.4053 6.9917-11.995 38.839-13.919 40.603-1.9243 1.764-9.0563 24.064-10.307 26.437-1.2508 2.3733-2.4393 32.912-2.4393 32.912s0.28864-5.4202 0 0c-0.28864 5.4202 2.8832-21.129 2.5367-21.232z"/>
  </g>
  <path id="path21731" d="m848.45 526.22c-0.63471 0.9152-6.0371 12.96-7.277 13.595-1.2399 0.63474 17.624 3.5132 22.746 3.5132 5.122 0 9.9635-1.5499 9.9635-1.5499s3.3359-5.6684 3.2769-6.9821c-0.05905-1.3138-0.08857 0.42808-2.465 1.0923-2.3765 0.66426-7.6756-11.16-14.569-11.47-6.8933-0.30999-11.705 0.59045-11.705 0.59045l0.02952 1.2104z" fill="#413b35" stroke="#413b35" stroke-dashoffset="0pt"/>
  <path id="path21733" d="m877.1 534.2c-1.2989 1.4466-1.7713 3.8232-3.9559 8.0006-2.1846 4.1774-3.0998 7.5283 1.1366 10.791 4.2363 3.2622 19.853 3.0408 25.595 2.0814 5.7419-0.95949 11.956-2.9818 12.679-6.4802 0.72328-3.4984 0.47235-2.908-0.4871-3.6165-0.95945-0.70855-11.646-4.0889-18.377-6.1407-6.7309-2.0518-11.868-2.1404-14.377-4.3546-2.5093-2.2142-2.2584-0.08857-2.2141-0.28046z" fill="#413b35" stroke="#413b35" stroke-dashoffset="0pt"/>
  <g id="g3409" stroke="#000" stroke-dashoffset="0pt" stroke-width=".5">
   <g id="g3391">
    <path id="path21505" d="m303.09 532.21c8.2348-1.6709 8.9309-6.2062 12.472-7.4792 3.5406-1.2731 6.7628 1.4521 9.7664-0.17902 3.0035-1.6311 5.2512-6.604 8.374-4.9331 3.1228 1.6709 7.2999 4.0181 6.7827 6.3852s1.2332 4.4955 1.2332 4.4955 2.0686-5.0524-0.99454-9.9458-7.2004-7.3002-14.103-5.9078c-6.9021 1.3924-13.824 2.4666-16.211 4.3562-2.3869 1.8897-1.5515 7.3599-5.6689 5.4901-4.1174-1.8698-4.0179-4.396-6.6634-4.4955-2.6455-0.09946-2.0289-7.7776-2.0289-7.7776s-0.2188 5.4702 3.3814 2.9241c3.6002-2.5461 8.7917-4.4756 12.651-6.5244 3.8588-2.0488 11.099 1.1537 14.441-1.0145 3.3416-2.1682 6.3452-6.4449 11.557-3.5606 5.2114 2.8843 9.6669 8.3942 9.6669 8.3942s2.4664 9.3092 2.188 12.154-2.188 5.5895-2.188 5.5895 0.11934 3.1031-0.35803-2.7251c-0.47738-5.8282 2.2079-6.8228-1.7106-12.094-3.9185-5.2713-4.376-9.0705-9.9056-8.7125-5.5296 0.35805-9.9255 2.7649-11.775 3.4412s-0.53705 2.208 2.1084 1.7704c2.6455-0.43761 10.582-2.3273 13.088-0.19892 2.5062 2.1284 6.9021 6.5841 5.8877 10.781-1.0144 4.1971 0.89508 10.165-2.4466 11.637-3.3416 1.472-2.7648-2.9837-5.4103-4.9331-2.6455-1.9494-6.1661 0.35805-8.2746 0.87523s-5.0324 1.0145-1.4918-1.5316c3.5406-2.5461 10.681-2.387 9.0901-3.9982-1.5912-1.6112-0.45748-3.6998-6.0866-0.81555-5.6291 2.8843-6.4048 2.5461-9.0901 3.6004s-5.3506 0.6962-9.0105 2.6257c-3.6599 1.9295-4.5351 5.7686-6.1462 4.6944-1.6112-1.0742-2.3869-2.208-3.1228-2.387z"/>
    <path id="path21507" d="m293.35 515.7c5.5749-10.477 2.5975-11.796 6.4247-11.895 4.1986-0.10902 23.571-4.0181 27.708-4.9729 4.1373-0.9548 7.6977-2.2478 12.372 0.19891s8.1154 6.5443 9.0901 13.168c0.97464 6.6239-0.09946 16.311-0.09946 16.311l3.8986-3.2025s-0.17902-0.13925-0.57683-6.8825c-0.39782-6.7432 0.73595-11.736-1.6907-15.157-3.6457-5.1401-5.3307-10.025-10.701-10.284s-22.556 0.45751-28.185-0.37794c-5.6291-0.83544-6.5838-2.387-11.636 0.69621-5.0522 3.0832-4.2168 6.6836-4.4754 8.6727-0.25857 1.9892-1.83 13.884-2.1283 13.725z"/>
    <path id="path21509" d="m292.58 515.04c-0.81552-1.3327 0.19891-7.3798 0.49727-10.94s2.9836-13.626 3.6002-17.007c0.61662-3.3816-0.57683-3.9783 4.3362-6.6637 4.913-2.6854 9.9255-5.4702 15.316-5.3707s9.3486 1.094 13.188 1.3526 11.258-0.71609 15.555 2.2279 4.6743 6.8029 9.468 13.188c4.7937 6.3852 7.3795 7.698 7.3198 12.412s0.55695 10.98 0.55695 10.98l-7.4392 7.519s1.5913-2.3074 1.1338-9.17c-0.45749-6.8626 0.19891-6.0669-2.3073-10.085-2.5062-4.0181-1.9692-11.418-4.6345-13.745s-0.49727-5.868-9.3486-5.7884c-8.8514 0.07957-12.889-1.1537-18.28 0.13924s-12.989 0.27848-17.922 0.19892c-4.9329-0.07957-5.8877 5.9078-6.5639 9.2894-0.67629 3.3816-2.009 4.6944-2.0686 12.89-0.05967 8.1953-2.0289 9.1302-2.4068 8.5733z"/>
    <path id="path21511" d="m293.08 508.89c-0.96463-8.3041 2.2374-32.581 13.546-42.787 4.5346-4.0926 5.5893-12.432 6.3252-13.785 0.73596-1.3526 6.365-3.9584 12.412-5.2912 6.0468-1.3327 15.555 1.6112 16.151-7.4593 0.59672-9.0706 0.91362-9.4964-2.0501-14.529-2.9637-5.0326-4.6146-5.4105-4.9528-16.192-0.33815-10.781 1.9891-11.696-1.9095-17.982-3.8986-6.2857-4.555-9.0507-4.8931-12.731-0.33814-3.6799 0.63651-11.418 0.63651-11.418l1.6907-2.2478s1.0144-0.17902 0.83541 6.3454c-0.17902 6.5244 1.4719 12.273 4.1572 14.58s6.2059 5.9874 6.3253 9.3888c0.11934 3.4015-2.0488 18.081-1.7305 23.293 0.31826 5.2116 2.6852 7.7378 3.8986 13.288 1.2133 5.5497 0.23869 11.398 3.1228 13.109 2.8842 1.7107 14.813 11.505 17.996 16.816 3.1825 5.311 11.835 15.396 14.58 18.539 2.7449 3.1429 4.1969 8.8517 5.0125 12.532 0.81552 3.6799 1.0741 3.0832-2.7449 5.6691s-6.743 5.8282-6.743 5.8282 1.3128-1.3128-0.97464-8.7324c-2.2874-7.4196-7.459-21.383-11.139-25.64s-11.477-16.788-15.992-18.4c-4.5152-1.6112-18.061 1.8499-21.76 1.2731-3.6997-0.57685-1.1048 1.3392-0.73596 2.8246 0.90509 3.6448 19.51 4.6643 20.766 4.2568 1.2255-0.39772 8.7773 6.6318 10.84 10.881 1.9261 3.9664 4.8043 14.41 8.2546 17.266 2.5759 2.1325 4.4356 2.4666 5.0125 7.5588 0.57683 5.0922 5.7571 8.701 3.3416 10.901l-7.3397 6.6836s1.3128 0.03978 0.71607-4.6546c-0.59673-4.6944 0.33814-5.0127-3.3218-9.7469-3.6599-4.7342-7.6579-14.362-10.323-19.235-2.6654-4.8734 0.83541-7.6384-9.1696-9.9856s-13.007-0.37615-17.224-2.246c-4.2168-1.8698-3.1825-6.0669-9.647-3.0832-6.4645 2.9837-15.253 11.711-16.231 15.714l-7.4473 30.499 0.70937-1.1006z"/>
    <path id="path21513" d="m321.04 378.47c-0.33814 3.5009-1.9095 5.9874 0.17902 8.6528s5.0324 1.7107 3.8986 10.642c-1.1338 8.9313-2.9637 14.779-1.7106 18.3 1.2531 3.5208-2.1283 6.8427-4.2964 7.9566s-0.99454 1.9295-0.99454 1.9295 2.3073-0.29837 5.0125-1.4919c2.7051-1.1935 5.6689-0.51718 5.8877-3.3418s1.5316-16.212 1.7106-19.832 0.45749-7.2206-2.188-11.835-4.6743-10.165-4.6743-13.387-0.37793-3.2821-0.37793-3.2821-2.0487 4.5552-2.4466 5.689z"/>
    <path id="path21515" d="m319.05 382.98c0.07956 5.9277 1.4122 10.543 1.4122 10.543s-1.5913-7.3798 0-1.5316c1.5913 5.8481 0.15913 6.604-0.47738 12.691-0.6365 6.0868 0.99454 12.571 0.75585 14.222s-3.7395 7.34-3.7395 7.34-2.5261 0.65642-1.0542-3.2622c1.4719-3.9186 2.2079-3.2224 0.17902-9.528-2.0289-6.3056 0.75585-7.8572 0.6365-11.776-0.11934-3.9186-0.61661-11.02-0.81552-13.586s3.2223-5.4503 3.103-5.1121z"/>
    <path id="path21517" d="m332.48 414.34c-1.0741 3.0832 0.61661 8.0959 0.49727 12.432-0.11935 4.3364 1.8697 3.2821-2.1482 7.5986-4.0179 4.3165-16.211 5.132-17.305 5.689s-0.61661 1.9295-0.61661 1.9295 6.743 0.85534 10.005 0.2387 8.4735-2.5262 10.085-6.0271 3.9185-8.3942 2.546-12.353-2.546-9.8065-3.0632-9.5082z"/>
    <path id="path21525" d="m314.52 388.04c-1.1139 7.2007-0.35803 10.98-0.79563 15.754s-2.5261 4.6148-0.03978 9.5678c2.4863 4.953 0.17902 4.5751 0.09945 8.9711-0.07956 4.396-0.25858 4.5154-0.25858 4.5154s-2.0686 0.61664-1.5714-5.51c0.49727-6.1266-0.25858-7.9765-1.1139-11.955s1.7305-7.6582 1.4321-12.671 2.4068-9.2496 2.2476-8.6727z"/>
    <path id="path21527" d="m310.76 395.2c-0.19891 7.2206-1.5117 3.6799-1.6708 9.2496-0.15913 5.5696 2.5261 2.6456 1.6509 11.02s-1.3924 9.2098 0.91497 11.119c2.3073 1.9096 1.7305 1.3526 1.1736 2.4069s3.282 4.6347-2.5659-0.21881-5.1119-5.4901-5.2909-12.631c-0.17902-7.1411 1.81-10.562 2.9438-14.879 1.1338-4.3165 2.3471-8.9313 2.3471-8.9313l0.49727 2.8644z"/>
    <path id="path21529" d="m306.15 399.4c-2.009 13.825-3.6798 15.197-2.6057 23.273s4.0179 8.6528 2.367 14.561-2.6455 7.7975-4.5749 12.273c-1.9294 4.4756-3.7758 6.6848-6.1627 14.005s-4.913 14.6-6.544 19.991-2.6455 9.7866-2.6455 9.7866-1.7305 3.2622-0.33814-3.481c1.3924-6.7432 2.1084-10.324 4.8334-18.062 2.725-7.7378 7.0612-20.628 7.9762-24.228 0.91498-3.6004 2.4891-10.988 0.95754-16.439s-3.7395-9.2098-3.7196-13.845 1.8896-8.5732 1.8896-8.5732 0.45749-0.49729 0.51716 6.226 1.3526 8.3346 2.4267 16.47 0.27847 13.546 0.27847 13.546 3.1228-1.2731 2.6057-7.1013c-0.51716-5.8282-2.1681-4.8535-3.0632-11.935-0.89508-7.0814 1.2929-15.575 1.8498-18.618 0.55694-3.0434 3.4411-9.3092 3.9384-10.483s0.8553 2.6854 0.01369 2.6326z"/>
    <path id="path21531" d="m287.85 495.53c1.4321-7.6384 4.2367-11.159 7.4192-21.125 3.1825-9.9657 9.4083-19.394 10.681-23.512s-0.35803-7.519 1.3725-10.523c1.7305-3.0036 4.734-4.4756 4.734-4.4756s0.79563-3.4611-0.49727-2.1284-3.6002 2.9638-5.649 6.3852c-2.0488 3.4213-2.1681 6.5443-2.8444 10.065-0.67628 3.5208-1.9692 0.55696-4.376 8.9114s-4.2168 13.626-6.8424 20.13c-2.6256 6.5045-4.4754 16.331-3.998 16.271z"/>
    <path id="path21533" d="m291.38 502.19c1.2133-11.378-0.19891-7.9765 3.8986-19.454 4.0975-11.477 14.222-26.933 15.654-31.289 1.4321-4.3562-0.81552-7.5986 0.45748-10.602 1.273-3.0036 1.273-3.5208 1.273-3.5208s0.4376-2.9837-2.6852 0.97468-1.1736 4.8138-1.1537 7.9765c0.01989 3.1628 2.8643-1.5316-2.6852 8.3147-5.5495 9.8463-7.9563 12.87-9.9255 21.005-1.9692 8.1356-5.7882 15.515-5.9076 19.056-0.11934 3.5407 1.8101 8.2351 1.0741 7.5389z"/>
    <path id="path21535" d="m281.91 492.9c1.5913-6.2062 13.645-40.718 14.64-45.731 0.99454-5.0127 2.6057-15.854 2.3869-17.027s-0.79563-3.8192-1.273-0.99458c-0.47737 2.8246-0.15912 8.2749-1.1934 13.387s-4.7141 19.693-6.9021 24.526c-2.188 4.8336-7.8568 26.277-7.6579 25.839z"/>
    <path id="path21539" d="m387.12 492.37c-1.3484-5.1863 0.51862-10.554-2.2819-14.625-2.8005-4.0713-18.203-20.616-21.004-24.791-2.8005-4.175-13.951-18.489-16.751-24.376-2.8005-5.8865-3.6303-5.6013-4.097-9.5688-0.46675-3.9676 3.1635-15.715 1.1928-18.852s-2.0226-4.2269-3.3191-5.1864c-1.2965-0.95947-0.31117-4.538-1.6596-5.7828-1.3484-1.2447 3.0598 1.53 5.1084 4.0972 2.0485 2.5672 8.1422 7.6239 6.4567 13.666-1.6855 6.0421-4.5379 6.3014-4.0452 10.762s2.4893 11.695 7.7792 16.882c5.2899 5.1863 16.725 19.449 24.064 25.984 7.3384 6.5348 14.625 13.822 16.233 17.789 1.6077 3.9676-0.41489 7.4424-0.41489 7.4424l-7.2606 6.5607z"/>
    <path id="path21541" d="m349.82 399.68c1.478 10.969 0.07779 14.885 2.1522 19.967 2.0744 5.0826 7.5458 14.34 12.758 20.201s17.996 17.089 24.504 25.102c6.5086 8.0129 9.7759 16.726 9.7759 16.726l6.5605-11.099s1.9189-0.67422-1.2188-5.7828c-3.1376-5.1086-9.4128-6.3014-15.144-10.373s-20.433-16.882-23.441-20.097c-3.008-3.2155-7.0791-9.9578-8.6868-15.04s-0.70013-12.058-2.4894-14.677c-1.7892-2.6191-4.2267-5.8606-4.7712-4.927z"/>
    <path id="path21543" d="m339.11 373.72c-1.3743 6.5607-3.2413 6.8978 0.51862 11.384 3.7599 4.4862 13.51 13.173 17.011 19.656s0.10372 10.269 8.1941 21.964 21.574 22.535 26.709 24.791c5.1343 2.2561 16.129 3.9935 17.477 6.7682 1.3484 2.7747-1.6596-11.462-1.6596-11.462s-5.8085-0.46677-11.461-5.0308c-5.6529-4.564-22.067-19.267-27.72-31.766-5.6529-12.499-4.2008-18.126-10.761-19.89-6.5605-1.7634-13.043-0.9854-15.066-5.1604-2.0226-4.175-0.3371-12.784-0.95944-11.228-0.62233 1.5559-2.4634 5.4716-0.3371 10.113 2.1263 4.6418 6.3012 6.5867 11.643 8.2722s8.609 3.6045 11.695 12.499c3.0858 8.8946 3.6562 19.786 13.536 28.292 9.8796 8.5056 15.636 13.796 15.636 13.796s-3.8637-0.07779-10.554-6.094c-6.6901-6.0162-16.181-15.974-18.411-23.52-2.23-7.5461-1.3743-14.392-8.7646-19.319-7.3902-4.927-13.406-10.217-14.962-14.729s-1.504-10.087-1.7633-9.3354z"/>
   </g>
   <path id="path21547" d="m361.83 363.84c3.8637 13.044-2.1782 15.014 3.4228 26.71 5.601 11.695 12.084 24.557 17.529 30.885 5.4454 6.3273 17.607 15.896 19.604 16.493s1.1669-9.102 1.1669-9.102-6.8198-3.9416-12.447-8.2722c-5.627-4.3306-19.266-19.812-21.678-27.021-2.4116-7.209-0.46675-18.541-3.0339-24.687s-3.7859-5.3679-4.5638-5.0048z"/>
   <path id="path21557" d="m360.44 334.25c3.6475 6.6553 5.8658 4.8208 8.6814 12.521 2.8156 7.7006 6.4631 21.886 7.8496 29.309 1.3865 7.4233-1.2585 8.8098 4.1381 13.951 5.3966 5.1408 7.231 3.477 11.39 7.4873 4.1594 4.0103 1.0878 4.3302 6.5911 7.4659 5.5032 3.1357 10.559 5.4395 12.222 5.2902 1.6638-0.14932-0.95986 5.7168-2.4103 7.7432-1.4505 2.0265-2.9222 4.3942-2.9222 4.3942s-2.3149-1.867-3.3275-2.7517c-5.3242-4.6514-4.1808-2.7517-10.196-7.21-6.0152-4.4582-4.6713-0.9599-10.153-7.9139s-9.6413-17.769-11.966-25.619c-2.325-7.8499-3.0076-19.411-4.5647-23.166s-1.1518-8.1059-1.5998-10.602c-0.44793-2.4958-3.8395-11.348-3.7328-10.9z"/>
   <path id="path21559" d="m365.59 327.59c4.6074 5.9301 5.7592 9.5777 8.6814 19.177 2.9222 9.599 8.0415 25.32 10.345 30.952 2.3037 5.6314 5.2259 9.3217 9.4493 12.991 4.2234 3.669 12.052 11.071 15.891 11.519 3.8395 0.44796 8.9161-3.2423 8.9161-3.2423l8.0842-11.455s-6.9324 1.2586-9.5133 0.72527-3.0076-1.9625-6.4204-4.4369c-3.4129-2.4744 1.4505-3.2637-6.7191-3.9463-8.1695-0.6826-8.2335 1.7065-12.393-8.4685-4.1594-10.175-7.2523-30.098-10.665-36.135-3.4129-6.0367-9.6413-13.353-10.878-13.78-1.2372-0.42662-2.005-0.98123-2.005-0.98123l-2.7729 7.082z"/>
   <path id="path21561" d="m377.23 310.76c0.50754 2.9086 4.4154 8.5248 6.6764 14.924 2.261 6.3994 4.394 18.238 8.3615 25.128 3.9674 6.89 13.502 20.051 20.392 23.891 6.8897 3.8396 14.825 9.8764 17.512 9.3857 2.6876-0.49062 4.1381-4.6289 2.4956-8.5112-1.6424-3.8823-7.167-8.4472-11.774-12.244-4.6074-3.797-10.324-6.4634-15.87-17.577-5.5459-11.114-7.4443-20.137-9.684-26.643-2.2397-6.506-9.6746-13.935-12.17-15.45-2.4956-1.5145-6.6885 3.0626-5.9392 7.0955z"/>
   <path id="path21563" d="m395.1 293.92c3.2849 5.6101 2.9009 7.5939 6.2711 16.809 3.3702 9.2151 7.0177 19.71 12.436 28.349 5.4179 8.6392 16.467 16.724 18.387 20.329 1.9197 3.605 5.8658 17.15 5.8658 17.15l13.822-11.519s-4.3727 5.0342-8.1055 0.72526c-3.7328-4.3089-5.0553-7.7432-5.7805-11.007-0.72523-3.2637 1.4718-2.9437 1.4718-2.9437s6.5698 6.6127 9.0227 7.7219 7.3163 2.0691 7.3163 2.0691l12.286-9.4284s-1.3225 4.2236-8.1695-0.46929c-6.847-4.6929-9.172-7.082-10.516-7.8499-1.3438-0.76793-6.4204 3.9036-11.753-1.5572s-13.481-13.119-17.726-24.68-9.428-26.664-10.708-27.795c-1.2798-1.1306-5.0126-1.4505-6.6977-3.2637-1.6851-1.8132-0.83189 0.29864-2.197 1.7278s-4.714 5.1195-5.2259 5.6314z"/>
   <path id="path21737" d="m318.97 382.04c-0.77846-1.9 1.4909-3.0084-1.3722-3.3119s-3.127-1.0556-7.336 1.3986c-4.2089 2.4542-6.6894 3.6945-7.3624 5.0008-0.6729 1.3063-0.72568 1.9792-0.72568 1.9792s1.3854-2.8237 2.2562-1.1611c0.87082 1.6625 0.14514 6.571 0.14514 6.571s-0.14514-2.0584 1.2139-3.5758c1.359-1.5174 3.6416-3.2723 6.1353-4.1563s3.2062-0.29028 2.9951 1.1743c-0.2111 1.4646 0.93679 0.09236 0.93679 0.09236l3.1138-4.0112z"/>
   <path id="path21739" d="m299.26 376.72c2.6124-1.9792 4.6576-1.0688 9.6713-2.6521 5.0138-1.5834 11.149-1.6757 11.69 0.15833 0.54096 1.8341 0.62013 4.1168 0.62013 4.1168l2.0979-6.096s0.85763-1.0028-3.4965-1.7945c-4.3541-0.79168-5.845-0.85766-11.175-2.4674-5.3304-1.6098-7.6262-0.88405-7.6262-0.88405s-0.19791 0.98961-2.2958 3.8133-2.3486 1.5438-1.6097 3.6549c0.73887 2.1112 2.718 2.6917 2.1243 2.1507z"/>
   <path id="path21741" d="m299.28 362.38c6.5311-0.58057 8.3783 2.2695 12.627 4.6182 4.2485 2.3487 11.703 4.5126 11.703 4.5126s3.5492-0.54098-0.30346-1.0688c-3.8527-0.52779-6.795-0.63335-11.558-4.5522s-6.8478-5.2911-9.1832-5.2647c-2.3354 0.02639-5.502 0.95002-5.502 0.95002l2.2166 0.80488z"/>
   <path id="path21743" d="m303.64 358.72c7.0325-1.8077 7.1381-3.0876 13.814 0.68612s9.2623 7.0196 9.4998 7.6398c0.2375 0.62015 2.3882-2.5334 2.3882-2.5334s2.8895-1.1347-5.4756-4.5258c-8.3651-3.391-9.5922-6.2675-9.7769-7.1515-0.18472-0.88404-1.1083-4.8161 1.5569-3.9716 2.6652 0.84446 11.36 8.1675 13.392 10.424 2.0319 2.2563 3.4833 1.5834 3.4833 1.5834s-10.489-11.677-14.184-13.63-2.718-5.1064-1.0028-6.98 1.5041-4.2883 4.9346-1.9c3.4305 2.3882 7.27 6.4918 7.27 6.4918s0.06371-21.307 0.63106-22.231 9.856-8.7745 12.627-9.6453c2.7708-0.87086 1.9-3.8133 5.2777-2.4014 3.3777 1.4118 12.284 11.031 14.83 13.445 2.5465 2.4146 2.7972 3.5758 2.7972 3.5758l3.2854-6.98s-9.1568-7.6002-13.418-13.036c-4.2617-5.4362-2.5069-8.405-5.4096-8.6294-2.9027-0.22431-8.6686 0.77849-8.6686 0.77849s-0.79165 3.4306-2.2562 3.7077c-1.4646 0.27709-0.50138-0.2507-1.0951 1.1216-0.59373 1.3722-1.5965 2.1507-3.2326 2.8105-1.6361 0.65973-0.26389 0.85766-1.8208 1.4646-1.5569 0.60696-4.5652 0.84446-6.3068 2.7973s0.07916 2.5466-0.15833 3.3383c-0.2375 0.79168-3.061 5.1196-3.7208 8.3127-0.65971 3.1931-0.29027 7.3495-0.83123 6.0168-0.54097-1.3327-0.44861-4.4466-1.0555-3.7869-0.60693 0.65974-1.8736 1.4778-2.5992 1.1216-0.72568-0.35625-0.22431-2.9292-1.9659-1.2139s-3.8659 0.67293-4.7631 5.3702c-0.8972 4.6973-1.3986 5.423-1.9132 7.521-0.51457 2.098-1.4118 0.77849-1.4118 0.77849s-1.1479-0.81807-2.0715 3.3515-0.51458 2.8764-1.2403 4.9348c-0.72568 2.0584 0.15833 2.4014 0.30347 4.2751s-0.15833 2.098-3.0742 2.9028c-2.9159 0.80488-0.72568 3.7341 0.06597 4.2223 0.79165 0.4882 1.702-0.5014 1.2953-0.05489z"/>
  </g>
  <path id="path21551" d="m333.58 364.29c-4.2267-18.256-3.734-17.867-4.6934-27.565-0.95943-9.6985 3.6303-19.06 7.9348-21.809s8.3238-2.3339 12.55 2.5672 12.888 19.967 14.184 27.514c1.2965 7.5461-0.28524 14.496-3.0339 20.745-2.7486 6.2496-8.1422 11.151-8.1422 11.151s5.2639 5.9124-1.3743 4.0972-10.58-10.191-13.588-12.214c-3.008-2.0227-4.097-4.0454-3.8377-4.4862z" fill="#808080"/>
  <path id="path21491" d="m278.24 496.47s4.1346-6.9388 7.1286-3.7546c2.994 3.1842 5.5128 6.8913 6.4158 12.927s-0.76038 9.9329 4.5148 18.583 7.9365 17.822 5.5603 21.814c-2.3762 3.9922-8.0316 4.4674-8.0316 4.4674s3.7544-7.224 1.4257-11.406-1.5208-7.8418-6.6534-5.6556c-5.1326 2.1862-4.6098 7.319-9.5048 0.04752-4.895-7.2715-4.8474-7.5091-7.3662-8.1269-2.5188-0.61784 7.1761-28.991 6.5108-28.896z" fill="#7e6966" stroke="#7e6966" stroke-dashoffset="0pt"/>
  <g id="g3437" stroke="#000" stroke-dashoffset="0pt" stroke-width=".5">
   <path id="path21565" d="m416.63 269.18c2.9862 4.5009 2.773 6.0581 3.8821 18.196 1.1092 12.137 8.8521 30.525 15.102 38.247 6.2498 7.7219 13.076 14.121 13.076 14.121s2.7943-0.53329 1.5571-9.1938-4.4794-12.308-7.6789-22.739c-3.1996-10.431-10.367-32.317-11.732-39.228-1.3652-6.9113-5.0553-8.4258-5.0553-8.4258l-9.1507 9.0231z"/>
   <path id="path21567" d="m440.67 246.42c1.1732 2.4318-0.23464-2.4958 0.7039 9.7697 0.93853 12.265 3.9248 34.343 6.4631 40.828 2.5383 6.4847 7.103 17.406 6.9537 24.04-0.14932 6.634-1.3865 16.766-1.3865 16.766s7.231 3.9676 11.646 5.5461c4.4154 1.5785 13.012 0.63994 15.55 0.87458s7.9776-4.5009 7.9776-4.5009-0.55459 0.95991-5.098-1.7278c-4.5434-2.6877-5.9298 0.57594-10.175-11.668s-9.2574-36.114-11.582-47.867-5.2259-24.766-6.0792-30.141c-0.85321-5.3755-6.987-13.548-8.2029-13.292-1.2158 0.25597-6.963 12.034-6.771 11.372z"/>
   <path id="path21569" d="m462.98 223.78c3.1996 3.605 2.1018 1.8407 3.9788 17.54s3.7968 27.283 5.3966 38.908c1.5998 11.626 3.9674 20.606 5.3539 26.899 1.3865 6.2927 3.3275 14.249 5.9725 19.39 2.645 5.1408 7.0817 11.476 7.0817 11.476l6.1005-0.3413s0.61858-3.541-0.53326-7.7219-2.4956-1.4505-4.3727-7.5299c-1.8771-6.0794-1.4078-26.493-3.0289-34.983-1.6211-8.4898 1.2372-26.28-1.2798-33.575-2.517-7.2953-4.778-24.766-5.1833-26.237s-12.694-10.384-12.694-10.384l-6.792 6.5594z"/>
   <path id="path21571" d="m488.38 205.34c1.0878 4.0316 4.0795 12.869 5.9139 23.406s-0.06399 23.891 0.17065 32.189c0.23463 8.2978 1.0203 13.395 1.5963 23.527 0.57592 10.132 2.9649 29.053 3.4128 35.879s3.4342 16.361 3.4342 16.361l-1.2798 3.1357s2.2397-4.3942 5.3752-5.2475c3.1356-0.85325 4.1168-1.0026 2.4316-7.6152-1.6851-6.6127-1.9837-22.44 0.04267-33.874 2.0264-11.434 3.3702-21.566 2.0264-26.835s-4.6005-21.113-5.3044-26.915c-0.7039-5.8021-0.51192-22.142-0.7039-24.936-0.19197-2.7944-10.063-15.182-10.063-15.182-11.598 2.4152-1.973 5.4844-7.0525 6.1068z"/>
   <path id="path21573" d="m514.39 198.26c-1.1305-0.87458-1.6881 4.307 4.5617 11.368 6.2498 7.0606 12.948 19.539 12.606 27.261-0.34128 7.7219 1.3651 26.749-1.6424 29.181-3.0076 2.4318-4.3514 6.634-5.3113 2.2184-0.95987-4.4156 0.10665-22.014-2.1757-30.525-2.2823-8.5112-3.7328-20.371-6.1431-23.699s-3.5195-4.0316-3.5195-4.0316-2.133 15.742-1.4718 19.945 4.842 6.0581 5.5246 12.543 4.451 20.133 4.2377 27.556c-0.21331 7.4233-1.5998 18.345-2.3677 27.603-0.76789 9.2577-2.1757 24.19-2.1757 24.19s-2.2614 5.0344-1.2802 12.244-0.25596 4.6929-1.7064 8.6818c-1.4505 3.9889-0.85321 5.6101-0.85321 5.6101l3.5622 2.3251s-0.36262-2.3251 0.02133-3.8183c0.38394-1.4932 5.4179-1.7492 5.3326-6.7833-0.08532-5.0342 0.4906-15.742 1.8344-22.867 1.3438-7.1246 5.5459-17.876 5.2473-22.739-0.29863-4.8635-1.205-12.821 1.8665-20.073 3.0716-7.2526 12.027-26.208 11.963-29.621-0.06399-3.413-6.0561-24.599-8.9997-31.212-2.9436-6.6127-6.847-17.726-8.2122-20.243-1.3652-2.5171-6.327-12.306-6.327-12.306l-6.6089 8.3982 2.0372 8.796z"/>
   <path id="path21575" d="m526.88 353.61c1.7704-5.3968 2.9436-5.9727 3.1142-14.804s2.1544-21.033 3.4555-28.754 4.714-9.2364 5.6739-23.763 1.8771-14.463 5.9512-24.36c4.0741-9.8977 10.26-16.788 9.8973-18.26-0.36262-1.4718-8.0517-18.155-10.121-23.68-2.069-5.5248-11.156-24.19-11.561-31.506s-0.27729-10.303-2.517-14.121c-2.2397-3.8183-2.2028-5.7524-1.6482-7.3522s9.0867-7.1033 9.0867-7.1033 2.8796 0.85325 3.8395 3.7756c0.95987 2.9224-1.2798 3.4983-0.36262 12.543 0.91721 9.0444 11.472 37.39 13.071 44.11 1.5998 6.7193 4.3727 15.657 7.2097 19.902 2.8369 4.2449 9.426 7.0032 12.732 13.275 3.3062 6.2714 14.569 19.326 16.147 20.777 1.5784 1.4505 14.18 15.738 16.441 19.961s-1.1305 2.2824 4.778 9.1084c5.9085 6.826 11.604 12.969 11.604 12.969s-0.55459-0.74659-8.1695-1.8558c-7.6149-1.1092-6.0152-5.6101-21.928 2.1331-15.912 7.7432-21.902 7.3162-26.872 10.814-4.97 3.4983-10.239 4.6502-13.203 10.431-2.9649 5.7808-3.7541 8.7458-5.7165 11.519-1.9624 2.773-4.2874 3.1144-4.2874 3.1144s7.2097-10.666 7.3163-12.287-2.4743-3.9463 3.9248-10.132c6.3991-6.1861 9.5773-6.762 16.211-11.327s19.709-13.716 21.48-13.823c1.7704-0.10665 19.069 3.925 18.131 1.3439-0.93854-2.5811-3.7328-4.3516-8.5535-9.4497-4.8207-5.0982-7.231-2.7944-11.134-9.2364-3.9034-6.442-5.9085-11.647-10.942-15.358-5.034-3.7116-2.4743-8.7031-6.4204-3.2637-3.9461 5.4395-5.3539 18.366-10.58 23.699-5.2259 5.3328-20.733 25.15-24.381 25.299-3.6475 0.14931-2.6663-1.9198-2.6663-1.9198s-0.7679 3.733 2.4956-1.2372c3.2635-4.9702 8.7454-9.0871 10.942-15.742 2.197-6.6553 7.8282-17.278 10.58-22.888 2.7516-5.6101 10.26-12.756 10.196-13.972-0.064-1.2159 1.6424-7.0606-1.3438-9.1511s-2.2823-5.9301-6.2071-2.6451c-3.9248 3.285-9.876 17.726-13.267 25.469-3.3915 7.7432-7.2523 25.064-9.7906 30.525-2.5383 5.4608-4.3727 8.7671-4.2234 13.887 0.14931 5.1195-3.7968 14.036-3.4768 18.814 0.31996 4.7782-0.02133 12.884-1.2372 14.356-1.2158 1.4718-3.1996 0.53328-3.6684 0.16787z"/>
   <path id="path21577" d="m542.39 352.16c-2.325-11.732-4.7567-11.711-0.40527-20.862 4.3514-9.1511 8.0202-13.353 14.526-19.198 6.5058-5.8448 11.668-14.228 15.592-19.262 3.9248-5.0342 9.2147-6.762 9.2147-6.762s14.27 12.415 14.526 14.249c0.25596 1.8345 3.1996-1.8772-5.2686-2.1118s-9.492-3.413-14.185 2.4744c-4.6927 5.8874-0.74656 4.1596-9.3854 10.495-8.6388 6.3354-11.582 6.762-15.251 11.348s-7.5936 11.562-7.9349 16.83c-0.34129 5.2688-0.57592 12.692-1.4291 12.799z"/>
   <path id="path21621" d="m559.28 148.22c-7.1518 2.6941-4.2975 4.6826-6.2218 8.9161-1.9243 4.2335 0.57728 16.485 2.5657 25.786 1.9884 9.301 4.8427 20.719 6.7349 29.025 1.8922 8.3067-0.70556 8.3708 7.3122 20.366s15.875 18.698 22.899 28.64 17.286 24.054 22.61 33.099 10.038 16.389 10.038 16.389 0.25656-8.1784-4.1051-14.657-7.3442-16.966-15.715-26.877c-8.3705-9.9103-23.54-30.886-28.062-41.213s-8.7554-28.737-10.166-38.134-2.9184-24.086-2.0846-30.148c0.83385-6.0616 3.6882-5.6447-0.89798-11.45-4.5861-5.8051-4.0409-0.3528-4.9068 0.25657z"/>
   <path id="path21623" d="m580.76 203.03c4.6503 15.106 3.8806 17.576 6.7349 23.349 2.8543 5.773 12.604 17.383 17.928 28.769 5.3238 11.386 16.164 29.186 19.275 36.37s11.481 22.675 13.566 24.407 4.2334 1.5395 4.2334 1.5395 1.2187-0.06414-3.5599-11.706c-4.7786-11.642-11.546-23.701-15.33-34.638s-13.053-24.15-18.216-32.361-18.12-27.678-19.884-29.442c-1.7639-1.764-4.2334-6.6069-4.7465-6.2862z"/>
   <path id="path21625" d="m575.4 142.66c8.6271 27.839 4.4899 32.168 7.665 39.449 3.175 7.2804 8.3064 16.325 13.438 23.06 5.1314 6.7352 24.484 30.343 31.571 43.397s14.464 23.284 18.152 34.67c3.6882 11.386 7.8574 19.5 12.957 30.18 5.0993 10.68 17.094 33.323 11.193 37.749-5.901 4.426-11.513 6.8634-13.758 6.3182-2.245-0.54522 9.6534 2.5337 12.508 1.7319 2.8543-0.8018 12.828-8.018 12.315-14.882-0.51313-6.8634-12.828-39.256-19.178-55.613s-7.8513-17.943-16.196-40.668c-5.7532-15.667-38.388-54.045-40.056-56.482s-3.5278-17.704-5.1634-27.005c-1.6356-9.3009-1.828-10.584-7.8894-17.479-6.0614-6.8955-3.2071-6.1899-2.0846-8.3708 1.1225-2.1809-10.551 0.60937-13.438 1.9885-2.8864 1.3791-2.5015 3.1431-2.0347 1.9564z"/>
   <path id="path21745" d="m351.57 299.8c0.34305-3.2459 1.0423-8.7217 6.5047-8.062 5.4624 0.65974 17.1 12.918 17.654 14.013 0.55415 1.0952 2.8368 5.9508 2.2034 5.9904-0.63333 0.03959 5.7263-7.6529 5.7263-7.6529s-5.4096-6.3335-11.479-9.421c-6.0693-3.0876-7.4943-6.3335-6.0034-10.054 1.491-3.7209 6.8346-8.471 7.745-8.3918s3.5097-0.88405 3.5097-0.88405-6.5575-6.8744-7.1776-6.914c-0.62013-0.03959-6.8478 1.2007-8.972 4.0244-2.1243 2.8237-6.7026 3.1535-8.3783 7.8509s-1.4514 4.3411 0.58055 5.4758c2.0319 1.1347 3.8659 4.3938 3.127 4.4334-0.73887 0.03959-6.2672-6.439-7.5207-6.5974-1.2534-0.15833-1.2534-0.36945-2.4805 3.2063s-4.8291 11.057-4.9742 12.614c-0.14514 1.557 9.4866-0.55418 9.9352 0.36945z"/>
   <path id="path21747" d="m370.72 268.1c1.9395 3.1931 5.502 5.555 7.336 7.2439 1.834 1.6889 13.049 13.182 13.959 14.198 0.91039 1.016 3.1534 4.2487 3.1534 4.2487l7.0457-8.0356s-6.2276-6.3467-9.8561-10.635c-3.6284-4.2883-3.9451-8.2335-4.6312-9.0648-0.68609-0.83127-8.9456-10.054-8.9456-10.054l8.695 10.648s-11.321-4.9876-12.02-5.2911-2.7444-0.80488-4.1562 0.26389c-1.4118 1.0688 1.2271 1.9132 1.6757 3.6681 0.44861 1.7549-2.0187 2.8105-2.2562 2.8105z"/>
   <path id="path21749" d="m398.76 247.55c6.2013 9.2759 13.577 10.186 15.398 14.052 1.8208 3.8661 2.5992 7.2571 2.5992 7.2571l9.2887-9.0252s-7.9825-7.6134-10.674-10.609c-2.6916-2.9952-9.3547-10.754-11.07-13.643-1.7152-2.8896-2.3222-5.6473-3.0215-5.7133-0.69929-0.06598-3.3249 3.5494-4.6444 6.4258-1.3194 2.8764-2.7444 2.7577-2.7444 2.7577l4.8686 8.4974z"/>
   <path id="path21751" d="m420.11 220.29c2.9555 4.2091-0.60693 4.4598 5.7659 8.7613s9.8033 8.5502 12.429 12.495c2.6256 3.9452 2.7467 5.2817 2.7467 5.2817l7.0434-10.705s1.4514-0.19792-4.2485-4.0112c-5.6999-3.8133-9.8956-11.136-12.574-14.092-2.6784-2.9556-4.011-5.3175-4.7367-5.357-0.72568-0.03959-2.9951 1.9924-2.8631 3.7077 0.13195 1.7153-1.6097 2.2431-3.0215 2.4146-1.4118 0.17153-0.76526 2.4146-0.76526 2.4146l0.2243-0.91043z"/>
   <path id="path21753" d="m444.41 196.03c4.3805 2.9424 14.276 16.902 16.915 21.019 2.6388 4.1168 1.5965 6.2411 1.5965 6.2411l8.3432-4.348s-3.4288-3.5607-6.2189-8.0154c-5.9509-9.5015-8.9061-15.425-8.9061-15.425s2.3618 10.186 1.5305 10.582c-0.83124 0.39584-4.7367-1.6889-6.8346-4.4466-2.0979-2.7577-4.9214-7.3099-5.7395-7.2703-0.81804 0.03959-0.48819 1.6757-0.6861 1.6625z"/>
   <path id="path21755" d="m477.68 191.43c5.6075 5.3571 10.375 13.714 11.088 15.561 0.71248 1.8473 6.8166-7.446 6.8166-7.446s-4.3145-4.3147-6.9665-7.6529c-2.652-3.3383-6.9006-9.8697-7.8373-9.9488-0.93679-0.07916 1.1083 7.9696 1.1083 7.9696s2.267 4.3432 0.24828 3.8022c-2.0187-0.54098-4.6576-2.3882-4.4572-2.2848z"/>
   <path id="path21757" d="m499.4 170.74c4.2353 6.3467 4.0242 11.651 6.6894 14.303 2.6652 2.6521 8.2208 15.339 8.2208 15.339s4.6039-19.588 3.9442-19.047c-0.65971 0.54098-5.1193 2.032-6.9929-1.7681-1.8736-3.8001-2.1111-7.389-2.1111-7.389s-8.7741-1.082-9.7505-1.4382z"/>
   <path id="path21759" d="m526.84 161.59c0.38263 2.6917 1.5965 5.4494 1.5965 5.4494l9.7769-7.4022-0.30347-0.72571s-9.4734 1.0424-11.07 2.6785z"/>
  </g>
  <path id="path21549" d="m339.83 368.31c-3.0598-7.3646-6.3012-19.864-7.8829-27.928s5.8863-16.596 7.5199-18.074 6.4567 0.15559 11.435 6.9497c4.9787 6.7941 8.0385 16.052 7.3124 25.283-0.72606 9.2317-7.5458 18.697-7.7792 20.59-0.23337 1.893-5.7047-0.38898-7.0791-2.2301s-3.76-5.7828-3.5266-4.5899z" fill="#ccc"/>
  <path id="path21553" d="m348.41 376.01c-3.6303-6.82-5.3936-1.2966-3.8377-9.0502 1.5558-7.7536 3.6303-7.1053 0.75199-11.332-2.8783-4.2269-2.0485 0.02593-4.6675-2.8784-2.619-2.9044-1.3743-4.0713-0.07779-7.7277 1.2965-3.6564-0.44082-3.3711-1.0113-8.0648-0.57047-4.6936 5.238-6.9238 4.5638-5.0308-0.6742 1.893-0.15558 0.44083 0.05186 4.6158 0.20745 4.175-2.1782 5.8606-0.20744 7.4943 1.9707 1.6337 3.4488-2.282 5.8344 0.98541s2.23 6.068 0.44082 8.8686 3.3969 2.4376 1.867 6.3273-5.7825 7.9092-4.4082 11.462c1.3743 3.5526 0.62234 4.8492 0.70013 4.3306z" fill="#f4d7d7"/>
  <path id="path3630" d="m378.53 255.85c-0.0518-2.3827 2.2531-3.0302 3.1337-4.5324 0.88054-1.5022-1.6057-0.75107 1.9424-3.3669s5.5163-7.9511 7.8472-6.9669c2.3308 0.98418 6.9925 9.6345 6.9925 9.6345s2.4085-2.3309-0.49207-5.8791-4.2214-4.2993-3.8847-5.6719 5.4645-8.987 7.7695-9.246c2.3049-0.259 2.279-0.0518 3.8847-1.0101 1.6057-0.95828 2.7452-5.6202 4.6358-5.4648s9.7895 1.787 11.318 2.0719c1.528 0.28489-0.85464-4.377-0.31078-5.6978 0.54387-1.3209 2.5121-3.1079 3.1337-4.5065s0.49206-1.8388 4.2473-3.2115c3.7552-1.3727 10.489 1.0878 10.489-1.036s-3.1596-5.905 0.36257-5.387c3.5222 0.51798 5.8789 2.6676 5.8789 2.6676-3.0548-0.76099-2.3024-13.018-1.1395-11.085 0.84798 1.41-1.4503-2.6676 0.51797-2.2532 1.9683 0.41439 5.102 6.9928 8.132 8.2619 3.0301 1.2691 7.2998 2.7837 4.584 1.3986-2.2883-1.167-2.8614-7.117-1.7093-10.955 0.75203-2.5055 6.6817 3.7036 8.7018 4.9727 2.0201 1.2691 3.2952 2.2812 3.2952-0.30871 0-2.5899 0.07769-4.9468 2.6675-3.8849 2.5898 1.0619 5.8576 2.9491 5.2573 1.6317-0.30449-0.66824-11.052-16.281-10.644-16.55 1.1361-0.8229 14.528 11.087 13.7 12.794-0.79756 1.6446 2.9524-0.51798 2.9524-0.51798-2.8811-2.8893-4.0076-6.0992-3.2114-9.6604-0.26766-1.9672 5.0189-5.7043 7.1479-0.0259 0.60344 1.6095 0.90644-4.636 0.90644-4.636 0.90137-1.7381 10.323 8.5862 12.353 11.81 1.7547 2.7857 8.6433 1.0589 7.2515 0.25899-2.2532-1.295-1.6831-7.3435-5.1535-11.824s-2.4862-8.8834-2.4862-8.8834 8.5464 2.046 9.9449 2.2532c1.3985 0.2072 0-8.236 1.3208-9.8935 1.3208-1.6576 5.8271-4.7914 8.9867-2.5899 3.1596 2.2014 9.1162 4.0144 9.1162 4.0144s2.3826 3.4187-5.2573 0.98417c-7.64-2.4345-10.644-5.3611-11.628-0.07769s3.4963 14.348-1.0618 14.452c-4.5581 0.1036-1.1913 4.5583-1.9942 9.8935-0.80284 5.3352-8.3651 2.0978-12.198 1.036s-9.3752-5.2834-10.851-4.118c-1.4762 1.1655 3.1078 8.2878 0.88054 10.386-2.2272 2.0978-5.0502 2.823-8.2874-0.80288-3.2373-3.6259 1.2949 3.1856-0.28488 4.895-1.5798 1.7094-4.3509-1.9942-5.853-1.295-1.5021 0.69928-1.1136 6.5784-5.1278 5.7755-4.0142-0.80288-6.9148 2.3827-8.1579 5.128-1.2431 2.7453-7.3551-1.1137-9.6341-2.6676-2.279-1.554 3.8329 7.718-1.9424 6.1122-5.7753-1.6058-8.5384 3.3394-13.097 4.1941-4.5581 0.85468-6.8889 4.0144-10.126 10.904-3.2373 6.8892-11.033-0.72518-12.638-0.67338s-5.5681 6.8892-7.1997 8.4691-3.2632 8.9094-2.1754 13.753c1.0877 4.8432-6.1379 6.3712-9.0644 2.7712-2.9265-3.6-4.3509-5.413-6.0602-2.4863-1.7093 2.9266-4.5581 7.0446-3.8847 8.9094 0.67336 1.8647 4.9466 7.1482 4.9466 7.1482l-8.7421-9.4139z" stroke="#000" stroke-dashoffset="0pt" stroke-width=".5"/>
  <path id="path3638" d="m615.12 352.65c9.5727-7.0292 9.7142-34.016 8.5429-36.53-1.0867-2.3325-6.5295 11.549 8.8156 28.287 15.345 16.738 28.489 16.224 33.604 15.742 5.115-0.48207-33.877-6.2133-42.741-7.1506l-8.2216-0.34815z" fill="#d2d0c7" stroke="#d2d0c7" stroke-dashoffset="0pt" stroke-width=".5"/>
 </g>
</svg>
