<?xml version="1.0" encoding="UTF-8"?>
<!-- made by Andy, It's public domain,  yeah why not-->
<svg id="svg4895" width="109.12" height="108.73" version="1.0" xmlns="http://www.w3.org/2000/svg" xmlns:cc="http://creativecommons.org/ns#" xmlns:dc="http://purl.org/dc/elements/1.1/" xmlns:rdf="http://www.w3.org/1999/02/22-rdf-syntax-ns#" xmlns:xlink="http://www.w3.org/1999/xlink">
 <metadata id="metadata77">
  <rdf:RDF>
   <cc:Work rdf:about="">
    <dc:format>image/svg+xml</dc:format>
    <dc:type rdf:resource="http://purl.org/dc/dcmitype/StillImage"/>
    <cc:license rdf:resource="http://creativecommons.org/licenses/publicdomain/"/>
   </cc:Work>
   <cc:License rdf:about="http://creativecommons.org/licenses/publicdomain/">
    <cc:permits rdf:resource="http://creativecommons.org/ns#Reproduction"/>
    <cc:permits rdf:resource="http://creativecommons.org/ns#Distribution"/>
    <cc:permits rdf:resource="http://creativecommons.org/ns#DerivativeWorks"/>
   </cc:License>
  </rdf:RDF>
 </metadata>
 <defs id="defs3">
  <linearGradient id="linearGradient10942">
   <stop id="stop10944" offset="0"/>
   <stop id="stop10946" stop-opacity="0" offset="1"/>
  </linearGradient>
  <!-- -->
  <linearGradient id="linearGradient12739" x1="98.596" x2="106.07" y1="13.903" y2="21.585" gradientTransform="translate(.094287 .084305)" gradientUnits="userSpaceOnUse" xlink:href="#linearGradient10942"/>
  <linearGradient id="linearGradient12741" x1="98.596" x2="106.07" y1="13.903" y2="21.585" gradientUnits="userSpaceOnUse" xlink:href="#linearGradient10942"/>
  <linearGradient id="linearGradient12743" x1="2483" x2="2375.5" y1="6145.3" y2="6037.5" gradientTransform="translate(-2.0371 -2.0371)" gradientUnits="userSpaceOnUse" xlink:href="#linearGradient10942"/>
  <linearGradient id="linearGradient12745" x1="543.1" x2="419.88" y1="286.56" y2="286.56" gradientTransform="matrix(.0998 .0998 -.28 .28 76.803 -46.837)" gradientUnits="userSpaceOnUse" xlink:href="#linearGradient10942"/>
  <linearGradient id="linearGradient12747" x1="512.7" x2="615.59" y1="254.36" y2="254.83" gradientTransform="matrix(.0807 .0775 -.35 .36 75.103 -47.927)" gradientUnits="userSpaceOnUse">
   <stop id="stop6" stop-color="#fff" offset="0"/>
   <stop id="stop8" stop-color="#fff" stop-opacity="0" offset="1"/>
  </linearGradient>
  <linearGradient id="linearGradient12749" x1="23.602" x2="23.418" y1="77.803" y2="88.182" gradientTransform="translate(-1.236 .27194)" gradientUnits="userSpaceOnUse">
   <stop id="stop6499" stop-color="#fff" offset="0"/>
   <stop id="stop6501" stop-color="#fff" stop-opacity="0" offset="1"/>
  </linearGradient>
 </defs>
 <style id="style31" type="text/css">/* Specular Highlighting */
		.low-specularity	{opacity:0.25;}
		.specularity		{opacity:0.5;}
		.high-specularity	{opacity:0.75;}
		.full-specularity	{opacity:1;}

	/* Shading */
		.low-shade	{opacity:0.25;}
		.shade		{opacity:0.5;}
		.high-shade	{opacity:0.75;}
		.full-shade	{opacity:1;}

	/* Tango palette fill/stroke */
		.black		{fill:#000;}
		.aluminium1	{fill:#eeeeec;}
		.aluminium2	{fill:#d3d7cf;}
		.aluminium6	{fill:#2e3436;}
		.chocolate3	{fill:#8f5902;}
		.chocolate2	{fill:#c17d11;}
		.aluminium4	{fill:#888a85;}

	/* Shadows: Back-Shadows &amp; Base Shadows */
		.base-shadow	{opacity:0.4;}
		.outline-big	{stroke:black;stroke-width:8;opacity:0.25;stroke-linejoin:round;}
		.outline-small	{stroke:black;stroke-width:4;opacity:0.5;stroke-linejoin:round;}
		.stroke-highlight	{fill:none;stroke:white;stroke-opacity:0.2;stroke-width:4;stroke-linejoin:round;}</style>
 <g id="g12725" transform="translate(-1.6456 -12.686)">
  <path id="path11835" d="m101.23 29.195-7.4735-7.5947c-0.66132-0.61646-0.69744-1.6451-0.08098-2.3065l12.348-5.5548 3.611 3.5325-6.098 11.842c-0.61646 0.66132-1.6451 0.69744-2.3065 0.08098z" fill="url(#linearGradient12739)" opacity=".25" stroke="#000" stroke-linecap="round" stroke-linejoin="round"/>
  <path id="path10055" d="m101.39 29.45-8.1525-8.1888c-0.66132-0.61646-0.69744-1.6451-0.08098-2.3065l12.518-5.5548 4.1203 3.7872-6.098 12.182c-0.61646 0.66132-1.6451 0.69744-2.3065 0.08098z" fill="url(#linearGradient12741)" opacity=".25" stroke-width="0pt"/>
  <path id="rect6505" d="m100.95 30.026-8.0325-8.1288c-0.66132-0.61646-0.69744-1.6451-0.080979-2.3065l13.238-5.8549 3.6401 3.4871-6.4581 12.722c-0.61646 0.66132-1.6451 0.69744-2.3065 0.08098z" opacity=".25" stroke="#000" stroke-linecap="round" stroke-linejoin="round" stroke-width="2.1"/>
  <path id="path9163" d="m94.328 25.31-38.975 38.264c-1.39-1.39-5.4403-4.7211-6.8603-3.3611l-41.03 39.38c-3.74 3.59-0.8 6.64 0.78 8.25l7.36 7.36c1.61 1.6 5.86 3.76 8.88 0.56l38.72-40.81c1.35-1.42 1.36-4.47 0-5.87 0 0-2.991-1.2804-3.001-1.2804l37.754-39.245c2.5255-2.0706-1.9414-4.9564-3.6283-3.2482z" fill="#fff" stroke="#fff" stroke-linejoin="round" stroke-width="8"/>
  <path id="use50" d="m94.328 25.31-38.975 38.264c-1.39-1.39-5.4403-4.7211-6.8603-3.3611l-41.03 39.38c-3.74 3.59-0.8 6.64 0.78 8.25l7.36 7.36c1.61 1.6 5.86 3.76 8.88 0.56l38.72-40.81c1.35-1.42 1.36-4.47 0-5.87 0 0-2.991-1.2804-3.001-1.2804l37.754-39.245c2.5255-2.0706-1.9414-4.9564-3.6283-3.2482z" opacity=".25" stroke="#000" stroke-linejoin="round" stroke-width="8"/>
  <path id="use52" d="m93.359 25.304-37.766 37.31c-1.39-1.39-5.6804-3.7608-7.1004-2.4008l-41.03 39.38c-3.74 3.59-0.8 6.64 0.78 8.25l7.36 7.36c1.61 1.6 5.86 3.76 8.88 0.56l38.72-40.81c1.35-1.42 1.36-4.47 0-5.87 0 0-1.5505-2.6609-1.5605-2.6609l35.854-36.734c1.4429-2.4725 0.051587-6.7993-4.1376-4.3843z" opacity=".5" stroke="#000" stroke-linejoin="round" stroke-width="4"/>
  <path id="path56" class="specularity" d="m86.893 39.723-29.45 29.44 2.82 2.83 29.45-29.44-2.82-2.83z" fill="url(#linearGradient12743)" opacity=".5"/>
  <path id="path66" d="m54.393 60.213c-1.39-1.39-4.48-1.36-5.9 0l-41.03 39.38c-3.74 3.59-0.82 6.64 0.78 8.25l7.36 7.36c1.61 1.6 5.86 3.76 8.88 0.56l38.72-40.81c1.35-1.42 1.36-4.47 0-5.87 0 0 0.01-0.02 0-0.02l-8.81-8.85z" fill="#a43434"/>
  <path id="path68" class="low-shade" d="m8.2329 107.83 7.36 7.37c1.61 1.6 5.73 3.89 8.75 0.71001l38.87-40.97c1.35-1.43 1.39-4.5 0-5.88l-8.83-8.84-46.15 47.61z" fill="url(#linearGradient12745)" opacity=".5"/>
  <path id="path70" class="specularity" d="m49.163 63.663-38.88 38.04c-1.62 1.56-1.07 3.75 0.1 4.89l4.13 3.97 42.37-43.6-3.92-3.68c-0.84-0.8-2.8-0.57-3.8 0.38z" fill="url(#linearGradient12747)" opacity=".5"/>
  <path id="use72" d="m93.007 24.949-38.014 36.584c-1.39-1.39-5.0802-3.0406-6.5002-1.6806l-41.03 39.74c-3.74 3.59-0.8 6.64 0.78 8.25l7.36 7.36c1.61 1.6 5.86 3.76 8.88 0.56l38.72-40.81c1.35-1.42 1.36-4.47 0-5.87 0 0-1.4305-1.8206-1.4405-1.8206l36.914-37.504c2.4936-4.9051-3.0908-8.7315-5.6689-4.8087z" fill="none" stroke="#fff" stroke-linejoin="round" stroke-opacity=".2" stroke-width="1.9"/>
  <rect id="rect3832" transform="matrix(.71344 -.70072 .70072 .71344 0 0)" x="-2.7803" y="82.281" width="54.153" height="4.2588" ry="1.6319" fill="url(#linearGradient12749)" stroke-width="0pt"/>
 </g>
</svg>
