<?xml version="1.0" encoding="UTF-8"?>
<!-- Created with Inkscape (http://www.inkscape.org/) -->
<svg id="svg13945" width="288.45" height="47.063" version="1.0" xmlns="http://www.w3.org/2000/svg" xmlns:cc="http://creativecommons.org/ns#" xmlns:dc="http://purl.org/dc/elements/1.1/" xmlns:rdf="http://www.w3.org/1999/02/22-rdf-syntax-ns#">
 <metadata id="metadata13950">
  <rdf:RDF>
   <cc:Work rdf:about="">
    <dc:format>image/svg+xml</dc:format>
    <dc:type rdf:resource="http://purl.org/dc/dcmitype/StillImage"/>
   </cc:Work>
  </rdf:RDF>
 </metadata>
 <g id="layer1" transform="translate(-19.089 -173.95)">
  <path id="path13953" d="m30.219 206.34c-14.173 0-14.173-17.717 0-17.717l162.99 3.5433c10.63 0 10.63-17.717 24.803-17.717l85.039 1.7716c5.315 0 5.315 5.315 0 5.315h-70.866c-7.0866 0-7.0866 7.0866 0 7.0866h70.866c5.315 0 5.315 5.315 0 5.315l-76.181 1e-5c-7.0866 0-7.0866 7.0866 0 7.0866h76.181c5.315 0 5.315 5.315 0 5.315h-70.866c-7.0866 0-7.0866 7.0866 0 7.0866h70.866c5.315 0 5.315 5.315 0 5.315l-85.039 1.7717c-14.173 0-14.173-17.717-24.803-17.717l-162.99 3.5433z" fill="#c0c0c0" fill-rule="evenodd" stroke="#000" stroke-width="1px"/>
 </g>
</svg>
