<?xml version="1.0" encoding="UTF-8"?>
<!-- Created with Inkscape (http://www.inkscape.org/) -->
<svg id="svg1" width="120pt" height="120pt" xmlns="http://www.w3.org/2000/svg" xmlns:xlink="http://www.w3.org/1999/xlink">
 <path id="path850" d="m142.59 108.36c0 12.471-29.23 22.592-65.244 22.592s-65.244-10.121-65.244-22.592c0-12.471 29.23-22.592 65.244-22.592s65.244 10.121 65.244 22.592z" fill="#e6b100" fill-rule="evenodd" stroke="#000" stroke-width="1.4159pt"/>
 <path id="path829" d="m77.344 42.674c-31.241 0-56.596 9.0653-56.596 20.235 0 0.51825 0.21519 39.444 0.21519 39.698 0 11.17 25.355 20.235 56.596 20.235 31.241 0 56.596-9.0653 56.596-20.235l-0.2152-38.926v-0.77233c0-11.17-25.355-20.235-56.596-20.235z" fill="#441b13" fill-rule="evenodd" stroke="#000" stroke-width="1.1625pt"/>
 <path id="path833" d="m19.026 58.533c-0.46231 4.1538-4.4212 15.395 3.5646 13.638 7.9707 0.62704-0.12403 13.694 8.2458 14.206 6.8012 0.51629 1.0697-10.292 7.2426-7.0147 6.294 1.2625 5.4833 7.4714 6.3386 11.671 4.1582 3.3265 5.5084-2.502 4.2341-5.1926 3.122-4.5286 11.814-2.6015 16.329-0.91244 2.5156 4.586 4.2967 14.048 12.239 11.482 5.2935-1.6067 7.6111-11.265 13-12.126 4.8505 0.047863 5.2043 11.751 10.577 6.451 1.4646-4.3211 9.3014-12.107 14.1-6.9098 4.834 4.445 12.224 1.1062 10.427-6.5267 2.5912-4.5173 10.15 1.8381 10.166-10.59 1.163-5.8649 0.21075-11.3-7.8599-16.026-4.8835-2.3373-12.126-3.4536-19.226-6.3616-7.6986-2.7048-14.924-4.1607-23.042-5.2983-14.164-0.24119-25.948 1.4304-39.863 4.0771-6.5695 0.78437-11.245 4.8827-17.236 6.8993-3.7734 1.7348-7.6543 5.2256-9.2376 8.5341z" fill="#954a3d" fill-rule="evenodd" stroke="#000" stroke-width="1.3149pt"/>
 <path id="path835" d="m22.469 64.418c0 5.1479 5.1181 4.273 8.1774 7.0616 2.9897 1.3626 5.0061 2.3539 8.6078 2.3539 5.1063 0-0.6503-1.6695-2.1519-2.3539-3.5433 0-9.0381-1.8703-9.0381-5.1001-2.1234-1.9356-2.4755-1.9616-5.595-1.9616z" fill="#fff" fill-opacity=".8" fill-rule="evenodd"/>
 <path id="path836" d="m52.166 75.403c1.3445 2.4511 7.7975 3.5308 13.342 3.5308 2.9369 1.3386 15.494 2.4461 15.494-1.5693 0-3.0179-7.9435-0.78463-9.4685-0.78463-2.7078 0-13.789-3.5153-15.494-1.9616-1.6578 0-2.0475 0.11885-3.8735 0.78463z" fill="#fff" fill-opacity=".8" fill-rule="evenodd"/>
 <path id="path837" d="m90.04 76.579c3.1294 2.8526 13.67 1.0273 18.507-1.1769 1.9098-1.1606 9.0381-1.8986 9.0381-4.3154 1.68-1.5314-6.2002-0.62528-7.3166 0.39231-5.4154 0-13.112 1.1769-19.367 1.1769-2.614 0-1.3109 2.8973-0.86078 3.9231z" fill="#fff" fill-opacity=".8" fill-rule="evenodd"/>
 <path id="path838" d="m126.02 71.265c1.4336-1.5658 4.7787-5.211 6.2591-8.4446 0-1.358 2.0832-6.0318-0.36818-6.0318-2.0767 0-4.4182 3.0214-4.4182 5.2276-0.96895 1.0583-0.02421 6.0318-2.2091 6.0318 0 3.1758-2.4403 3.217 0.73636 3.217z" fill="#fff" fill-opacity=".8" fill-rule="evenodd"/>
 <path id="path839" d="m117.15 49.51c-3.4734 0-6.8128-1.732-10.76-3.5308-4.7426-1.0808-9.4593-3.1385-14.203-3.1385 0 5.6387 8.8853 9.0929 14.203 6.6693 3.9782 0 6.4006 1.9867 10.76 0z" fill="#fff" fill-opacity=".8" fill-rule="evenodd"/>
 <path id="path840" d="m80.384 42.791c-1.2642-0.37318-8.0997-0.86457-12.237-0.29273-2.6528 0.36663-5.2603 1.1238-8.0204 1.5053-4.19 0.57908-4.5127 3.0045-0.038419 2.3861 4.4288-0.61208 8.7742-0.022251 13.385-0.65946 2.2827 1.5329 5.9902-1.4871 6.9113-2.9392z" fill="#fff" fill-opacity=".8" fill-rule="evenodd"/>
 <path id="path841" d="m44.849 48.333c-1.9112 0-6.7618 2.3539-9.8989 2.3539-2.1572 0-9.4685 1.6416-9.4685 3.5308-2.7689 2.5239 7.7047-1.5693 11.62-1.5693 2.2683 0 6.4558 0.10611 6.4558-1.9616 1.5986 0 1.2912-1.0808 1.2912-2.3539z" fill="#fff" fill-opacity=".8" fill-rule="evenodd"/>
 <path id="path842" d="m31.077 61.672c2.5889 0 8.0425 0.78463 12.051 0.78463 2.0386-1.8583 7.3166 0.72682 7.3166-3.1385 0-0.81362-9.1194-1.5693-10.329-1.5693-1.6636 0-6.0939 0.84703-9.0381 3.9231z" fill="#fff" fill-opacity=".8" fill-rule="evenodd"/>
 <path id="path843" d="m47.432 70.302c3.2794-2.9893 5.8963-5.3747 9.0381-8.2386 1.6766-1.5283 6.254 0.28812 1.7216 2.3539 0 2.4043-2.2117 4.3154-4.7343 4.3154-2.1124 1.9255-2.8178 1.5693-6.0254 1.5693z" fill="#fff" fill-opacity=".8" fill-rule="evenodd"/>
 <path id="path844" d="m52.166 49.902c0 2.2558 10.329 2.9246 10.329 5.1001 3.1851 0 1.6683-4.3154-1.2912-4.3154-3.7642 0-5.3543-1.4562-9.0381-0.78463z" fill="#fff" fill-opacity=".8" fill-rule="evenodd"/>
 <path id="path845" d="m85.306 45.979c-2.2524 2.0532-2.4097 7.0616-5.595 7.0616 0 4.5793 5.595 2.2311 5.595-0.78463 1.1637-1.0607 2.1519-5.0583 0-6.277z" fill="#fff" fill-opacity=".8" fill-rule="evenodd"/>
 <path id="path846" d="m78.85 64.418c0 0.86379 1.7216 5.9974 1.7216 6.6693 3.4831 1.5875 4.7343-1.3188 4.7343-3.9231-3.2432-2.9563 0.17941-7.9304-6.4558-2.7462z" fill="#fff" fill-opacity=".8" fill-rule="evenodd"/>
 <path id="path847" d="m119.74 52.648c-1.8392 0-14.329 1.799-15.494 3.9231 0 6.2277 8.7423 0.78463 12.912 0.78463 2.4328 0 2.9756-2.5571 2.5823-4.7078z" fill="#fff" fill-opacity=".8" fill-rule="evenodd"/>
 <path id="path848" d="m119.74 65.595c-2.7855-2.5391-7.6811-1.9616-11.62-1.9616-2.936 0-5.2835 2.7462-1.2912 2.7462 3.4126 0 6.1017 0.78463 9.8989 0.78463 1.7794 0 0.63673 0.16338 3.0127-1.5693z" fill="#fff" fill-opacity=".8" fill-rule="evenodd"/>
 <g id="g862" transform="matrix(1.3772 0 0 1.2554 -92.376 -13.951)">
  <path id="path857" d="m116.37 29.657c1.0514 1.8379 2.829 0.8628 4.7581 1.007 1.9575 0.16542 2.8138-1.1094 4.0071-1.5033 3.4758 2.1009 0.39681 4.9572 1.0796 8.575 0.04715 2.639 0.47596 6.8737 0.87924 9.6743 0.16399 2.2951-5.9276 2.4717-7.0865 1.4501-0.95726-0.58401-1.7015-2.4511-1.1022-4.6143 0.16157-2.6647-0.67876-4.053-1.17-6.6778 0.13565-3.224-3.3856-4.1677-1.3654-7.9109z" fill="#0075ff" fill-rule="evenodd" stroke="#000" stroke-linejoin="round" stroke-width=".71048pt"/>
  <path id="path858" d="m116.37 29.314c0.77672 0.21407 2.4057 0.41147 3.1885 0.087876 0.87582 0 2.1233 0.26561 2.7634-0.26363 0.5009 0 1.9137-0.17575 2.5508-0.17575 0.80359 0-0.42513-0.27391-0.42513 0.43938-0.58964 0-1.071 0.44616-1.488 0.79088-0.36302 0.6003-1.412 0.61513-2.1257 0.61513-0.83169 0-1.8093-0.087876-2.6571-0.087876-0.78406 0-1.488-0.13622-1.8068-1.406z" fill="#0ff" fill-rule="evenodd" stroke="#000" stroke-linejoin="round" stroke-width=".71048pt"/>
  <path id="path860" d="m118.28 13.76c1.488 1.6696 9.6717 12.83 1.488 13.445-11.053 1.3181-0.53141-9.5785-1.488-13.445z" fill="#ffa800" fill-rule="evenodd" stroke="#000" stroke-width=".71048pt"/>
  <path id="path861" d="m119.33 18.318c0.7773 1.0418 4.521 8.1815 0.24588 8.5653-5.7742 0.82251 0.25381-6.1526-0.24588-8.5653z" fill="#ff0" fill-rule="evenodd"/>
  <path id="path859" d="m120.94 30.28c-1.6154-0.97216-2.272-2.6669-1.7336-3.5824 0.41654-0.99823 0.59511-3.2524 0.59511-4.6573" fill="none" stroke="#000" stroke-width=".71048pt"/>
 </g>
 <g id="g868" transform="matrix(1.3772 0 0 1.2554 -50.281 -.059237)">
  <path id="path869" d="m116.37 29.657c1.0514 1.8379 2.829 0.8628 4.7581 1.007 1.9575 0.16542 2.8138-1.1094 4.0071-1.5033 3.4758 2.1009 0.39681 4.9572 1.0796 8.575 0.04715 2.639 0.47596 6.8737 0.87924 9.6743 0.16399 2.2951-5.9276 2.4717-7.0865 1.4501-0.95726-0.58401-1.7015-2.4511-1.1022-4.6143 0.16157-2.6647-0.67876-4.053-1.17-6.6778 0.13565-3.224-3.3856-4.1677-1.3654-7.9109z" fill="#0075ff" fill-rule="evenodd" stroke="#000" stroke-linejoin="round" stroke-width=".71048pt"/>
  <path id="path870" d="m116.37 29.314c0.77672 0.21407 2.4057 0.41147 3.1885 0.087876 0.87582 0 2.1233 0.26561 2.7634-0.26363 0.5009 0 1.9137-0.17575 2.5508-0.17575 0.80359 0-0.42513-0.27391-0.42513 0.43938-0.58964 0-1.071 0.44616-1.488 0.79088-0.36302 0.6003-1.412 0.61513-2.1257 0.61513-0.83169 0-1.8093-0.087876-2.6571-0.087876-0.78406 0-1.488-0.13622-1.8068-1.406z" fill="#0ff" fill-rule="evenodd" stroke="#000" stroke-linejoin="round" stroke-width=".71048pt"/>
  <path id="path871" d="m118.28 13.76c1.488 1.6696 9.6717 12.83 1.488 13.445-11.053 1.3181-0.53141-9.5785-1.488-13.445z" fill="#ffa800" fill-rule="evenodd" stroke="#000" stroke-width=".71048pt"/>
  <path id="path872" d="m119.33 18.318c0.7773 1.0418 4.521 8.1815 0.24588 8.5653-5.7742 0.82251 0.25381-6.1526-0.24588-8.5653z" fill="#ff0" fill-rule="evenodd"/>
  <path id="path873" d="m120.94 30.28c-1.6154-0.97216-2.272-2.6669-1.7336-3.5824 0.41654-0.99823 0.59511-3.2524 0.59511-4.6573" fill="none" stroke="#000" stroke-width=".71048pt"/>
 </g>
 <g id="g874" transform="matrix(-1.3429 .27842 .30544 1.2241 182.88 -32.728)">
  <path id="path875" d="m116.37 29.657c1.0514 1.8379 2.829 0.8628 4.7581 1.007 1.9575 0.16542 2.8138-1.1094 4.0071-1.5033 3.4758 2.1009 0.39681 4.9572 1.0796 8.575 0.04715 2.639 0.47596 6.8737 0.87924 9.6743 0.16399 2.2951-5.9276 2.4717-7.0865 1.4501-0.95726-0.58401-1.7015-2.4511-1.1022-4.6143 0.16157-2.6647-0.67876-4.053-1.17-6.6778 0.13565-3.224-3.3856-4.1677-1.3654-7.9109z" fill="#0075ff" fill-rule="evenodd" stroke="#000" stroke-linejoin="round" stroke-width=".71048pt"/>
  <path id="path876" d="m116.37 29.314c0.77672 0.21407 2.4057 0.41147 3.1885 0.087876 0.87582 0 2.1233 0.26561 2.7634-0.26363 0.5009 0 1.9137-0.17575 2.5508-0.17575 0.80359 0-0.42513-0.27391-0.42513 0.43938-0.58964 0-1.071 0.44616-1.488 0.79088-0.36302 0.6003-1.412 0.61513-2.1257 0.61513-0.83169 0-1.8093-0.087876-2.6571-0.087876-0.78406 0-1.488-0.13622-1.8068-1.406z" fill="#0ff" fill-rule="evenodd" stroke="#000" stroke-linejoin="round" stroke-width=".71048pt"/>
  <path id="path877" d="m118.28 13.76c1.488 1.6696 9.6717 12.83 1.488 13.445-11.053 1.3181-0.53141-9.5785-1.488-13.445z" fill="#ffa800" fill-rule="evenodd" stroke="#000" stroke-width=".71048pt"/>
  <path id="path878" d="m119.33 18.318c0.7773 1.0418 4.521 8.1815 0.24588 8.5653-5.7742 0.82251 0.25381-6.1526-0.24588-8.5653z" fill="#ff0" fill-rule="evenodd"/>
  <path id="path879" d="m120.94 30.28c-1.6154-0.97216-2.272-2.6669-1.7336-3.5824 0.41654-0.99823 0.59511-3.2524 0.59511-4.6573" fill="none" stroke="#000" stroke-width=".71048pt"/>
 </g>
 <g id="g880" transform="matrix(-1.3444 .27245 .29889 1.2255 210.71 -20.697)">
  <path id="path881" d="m116.37 29.657c1.0514 1.8379 2.829 0.8628 4.7581 1.007 1.9575 0.16542 2.8138-1.1094 4.0071-1.5033 3.4758 2.1009 0.39681 4.9572 1.0796 8.575 0.04715 2.639 0.47596 6.8737 0.87924 9.6743 0.16399 2.2951-5.9276 2.4717-7.0865 1.4501-0.95726-0.58401-1.7015-2.4511-1.1022-4.6143 0.16157-2.6647-0.67876-4.053-1.17-6.6778 0.13565-3.224-3.3856-4.1677-1.3654-7.9109z" fill="#0075ff" fill-rule="evenodd" stroke="#000" stroke-linejoin="round" stroke-width=".71048pt"/>
  <path id="path882" d="m116.37 29.314c0.77672 0.21407 2.4057 0.41147 3.1885 0.087876 0.87582 0 2.1233 0.26561 2.7634-0.26363 0.5009 0 1.9137-0.17575 2.5508-0.17575 0.80359 0-0.42513-0.27391-0.42513 0.43938-0.58964 0-1.071 0.44616-1.488 0.79088-0.36302 0.6003-1.412 0.61513-2.1257 0.61513-0.83169 0-1.8093-0.087876-2.6571-0.087876-0.78406 0-1.488-0.13622-1.8068-1.406z" fill="#0ff" fill-rule="evenodd" stroke="#000" stroke-linejoin="round" stroke-width=".71048pt"/>
  <path id="path883" d="m118.28 13.76c1.488 1.6696 9.6717 12.83 1.488 13.445-11.053 1.3181-0.53141-9.5785-1.488-13.445z" fill="#ffa800" fill-rule="evenodd" stroke="#000" stroke-width=".71048pt"/>
  <path id="path884" d="m119.33 18.318c0.7773 1.0418 4.521 8.1815 0.24588 8.5653-5.7742 0.82251 0.25381-6.1526-0.24588-8.5653z" fill="#ff0" fill-rule="evenodd"/>
  <path id="path885" d="m120.94 30.28c-1.6154-0.97216-2.272-2.6669-1.7336-3.5824 0.41654-0.99823 0.59511-3.2524 0.59511-4.6573" fill="none" stroke="#000" stroke-width=".71048pt"/>
 </g>
 <g id="g886" transform="matrix(-1.3357 .30594 .33563 1.2176 245.4 -25.756)">
  <path id="path887" d="m116.37 29.657c1.0514 1.8379 2.829 0.8628 4.7581 1.007 1.9575 0.16542 2.8138-1.1094 4.0071-1.5033 3.4758 2.1009 0.39681 4.9572 1.0796 8.575 0.04715 2.639 0.47596 6.8737 0.87924 9.6743 0.16399 2.2951-5.9276 2.4717-7.0865 1.4501-0.95726-0.58401-1.7015-2.4511-1.1022-4.6143 0.16157-2.6647-0.67876-4.053-1.17-6.6778 0.13565-3.224-3.3856-4.1677-1.3654-7.9109z" fill="#0075ff" fill-rule="evenodd" stroke="#000" stroke-linejoin="round" stroke-width=".71048pt"/>
  <path id="path888" d="m116.37 29.314c0.77672 0.21407 2.4057 0.41147 3.1885 0.087876 0.87582 0 2.1233 0.26561 2.7634-0.26363 0.5009 0 1.9137-0.17575 2.5508-0.17575 0.80359 0-0.42513-0.27391-0.42513 0.43938-0.58964 0-1.071 0.44616-1.488 0.79088-0.36302 0.6003-1.412 0.61513-2.1257 0.61513-0.83169 0-1.8093-0.087876-2.6571-0.087876-0.78406 0-1.488-0.13622-1.8068-1.406z" fill="#0ff" fill-rule="evenodd" stroke="#000" stroke-linejoin="round" stroke-width=".71048pt"/>
  <path id="path889" d="m118.28 13.76c1.488 1.6696 9.6717 12.83 1.488 13.445-11.053 1.3181-0.53141-9.5785-1.488-13.445z" fill="#ffa800" fill-rule="evenodd" stroke="#000" stroke-width=".71048pt"/>
  <path id="path890" d="m119.33 18.318c0.7773 1.0418 4.521 8.1815 0.24588 8.5653-5.7742 0.82251 0.25381-6.1526-0.24588-8.5653z" fill="#ff0" fill-rule="evenodd"/>
  <path id="path891" d="m120.94 30.28c-1.6154-0.97216-2.272-2.6669-1.7336-3.5824 0.41654-0.99823 0.59511-3.2524 0.59511-4.6573" fill="none" stroke="#000" stroke-width=".71048pt"/>
 </g>
 <path id="path901" d="m68.47 25.325c-1.7945 2.5793 1.9603 4.2077 2.4133 6.5527 1.0025 2.9464 1.401 7.1272 1.5879 10.195-0.93684 2.0978 1.5594 7.1134 2.5335 3.4695 0.23441-4.4627-0.96407-10.879-1.7487-15.245-0.68542-2.335-2.1119-4.5805-4.786-4.9728z" fill="#fff" fill-opacity=".3" fill-rule="evenodd"/>
 <path id="path902" d="m110.17 38.748c-1.7945 2.5793 1.9603 4.2077 2.4133 6.5527 1.0025 2.9464 1.401 7.1272 1.5879 10.195-0.93684 2.0978 1.5594 7.1134 2.5335 3.4695 0.23441-4.4627-0.96407-10.879-1.7487-15.245-0.68542-2.335-2.1119-4.5805-4.786-4.9728z" fill="#fff" fill-opacity=".3" fill-rule="evenodd"/>
 <path id="path903" d="m88.031 49.891c-1.7945 2.5793 1.9603 4.2077 2.4133 6.5527 1.0025 2.9464 1.401 7.1272 1.5879 10.195-0.93684 2.0978 1.5594 7.1134 2.5335 3.4695 0.23441-4.4627-0.96407-10.879-1.7487-15.245-0.68542-2.335-2.1119-4.5805-4.786-4.9728z" fill="#fff" fill-opacity=".3" fill-rule="evenodd"/>
 <path id="path904" d="m22.991 39.169c-1.7945 2.5793 1.9603 4.2077 2.4133 6.5527 1.0025 2.9464 1.401 7.1272 1.5879 10.195-0.93684 2.0978 1.5594 7.1134 2.5335 3.4695 0.23441-4.4627-0.96407-10.879-1.7487-15.245-0.68542-2.335-2.1119-4.5805-4.786-4.9728z" fill="#fff" fill-opacity=".3" fill-rule="evenodd"/>
 <path id="path905" d="m50.898 50.942c-1.7945 2.5793 1.9603 4.2077 2.4133 6.5527 1.0025 2.9464 1.401 7.1272 1.5879 10.195-0.93684 2.0978 1.5594 7.1134 2.5335 3.4695 0.23441-4.4627-0.96407-10.879-1.7487-15.245-0.68542-2.335-2.1119-4.5805-4.786-4.9728z" fill="#fff" fill-opacity=".3" fill-rule="evenodd"/>
 <path id="path906" d="m73.774 95.544c2.0501 1.6702 7.6111-2.6068 7.6111-3.574 0-1.3837 0.92256-1.9761 0.92256-3.3638-1.5234-1.3886-3.3256 2.7331-5.0741 2.7331-1.0706 0.97585-4.0178 1.6607-3.4596 4.2047z" fill="#fff" fill-opacity=".8" fill-rule="evenodd"/>
 <path id="path907" d="m98.453 91.549c2.2533-1.1646 3.493-4.0553 4.6128-6.0968 1.4165-1.2912-0.20968-1.0512-1.6145-1.0512-1.5006 1.3679-2.9873 1.2513-4.3821 2.5228 0 1.735-0.48041 3.9455 1.3838 4.6252z" fill="#fff" fill-opacity=".8" fill-rule="evenodd"/>
 <path id="path909" d="m119.21 85.032c1.3211-0.40141 4.1515-0.64325 4.1515-2.3126 1.0702-0.97552 1.1532-2.4396 1.1532-3.7842-1.1788-2.1491-3.4395-0.43881-4.8434 0.84094-0.85513 1.559-1.3705 4.8415-0.46128 5.2559z" fill="#fff" fill-opacity=".8" fill-rule="evenodd"/>
 <path id="path929" d="m130.74 74.31c1.8596-0.75959 2.4506-1.9611 2.8757-3.9754 0.5242-1.6607 0.7897-2.2453-0.85586-1.1383-1.6465 0.93914-3.5724 2.0325-3.4528 3.9474 0.04584 0.83876 0.36706 1.5274 1.433 1.1662z" fill="#fff" fill-opacity=".8" fill-rule="evenodd"/>
 <path id="path911" d="m45.175 91.339c1.4829 0.3979 3.8822-0.87615 3.2289-3.7842-2.5234 0-3.2289 1.6735-3.2289 3.7842z" fill="#fff" fill-opacity=".8" fill-rule="evenodd"/>
 <path id="path912" d="m29.03 84.611c1.6158 1.5774 3.0825 2.0256 4.6128-0.84094 0-1.5689 0.28315-2.5228-1.6145-2.5228-1.5446 0-2.8822 0.83959-3.4596 1.8921 0 0.65425 0.073935 0.58896 0.46128 1.4716z" fill="#fff" fill-opacity=".8" fill-rule="evenodd"/>
 <path id="path913" d="m18.421 69.474c1.6788 1.8921 2.7677 3.7569 2.7677-0.21023-0.15939-2.0374-2.7677-1.9608-2.7677 0.21023z" fill="#fff" fill-opacity=".8" fill-rule="evenodd"/>
 <path id="path937" d="m20.497 87.344c7.1695-0.31843 8.955 4.8337 15.559 6.7855 6.9936 0.84506 14.444 3.7241 20.757 5.0026 6.8531 1.3022 15.421 2.1367 22.986 1.7649 9.0099-1.0564 24.544-3.3904 30.64-5.6987 7.0183-2.3207 18.018-7.7874 22.934-11.553 3.9943-0.087071 1.6569 5.9043 0.23511 8.7571 0.16314 3.7494-1.4458 6.9026-6.347 5.6414-5.6414-1.3803-4.1459 8.5181-10.225 5.0514-5.337-3.1598-7.6921 2.2898-7.7698 6.1983-5.2633 2.141-12.299 6.4565-17.734 2.4082-2.8203-4.7487-12.893-7.3571-14.119-0.27561-3.6224 5.0941-11.443 3.6379-13.566-1.5401-4.5527-2.3544-10.087-1.2775-14.876-2.9475-2.6542 2.7557-9.7891 5.1906-9.9083-0.49131-1.7782-5.6716-13.431-11.219-15.819-4.4667-6.9344 0.74067-5.5776-5.2614-4.9366-10.985-0.28199-1.7524 0.077372-3.2119 2.1904-3.6517z" fill="#954a3d" fill-rule="evenodd" stroke="#000" stroke-width="1.3149pt"/>
 <path id="path938" d="m19.037 98.98c1.2691 2.9106 2.7467 2.9417 6.3457 0 0-2.4206-4.4806 1.9736-6.3457 0z" fill="#fff" fill-opacity=".8" fill-rule="evenodd"/>
 <path id="path939" d="m39.851 106.34c1.9915 5.799 6.6124 1.2692 7.8687 0.25383 0.50766-4.1165-5.3626 2.0371-7.8687-0.25383z" fill="#fff" fill-opacity=".8" fill-rule="evenodd"/>
 <path id="path940" d="m66.757 111.42c3.5536 4.4379 9.3917 0.97117 9.3917-0.76149 0-1.8998 0.34251-2.2845-2.0306-2.2845-0.50419 4.8228-6.7499 2.7404-7.361 3.046z" fill="#fff" fill-opacity=".8" fill-rule="evenodd"/>
 <path id="path941" d="m94.171 111.67c3.0505 1.7768 12.4-0.50765 9.3917-1.523-0.99974-0.50766-9.4666 0.27523-9.3917 1.523z" fill="#fff" fill-opacity=".8" fill-rule="evenodd"/>
 <path id="path942" d="m107.37 107.86c1.7649 1.5349 3.9219-5.5842 2.5383-5.5842-2.9489 0.41058-4.8972 5.1124-2.5383 5.5842z" fill="#fff" fill-opacity=".8" fill-rule="evenodd"/>
 <path id="path943" d="m119.81 102.53c1.946-0.33844 3.8626-4.8227 2.5383-4.8227-1.5305 0-2.8394 4.0699-2.5383 4.8227z" fill="#fff" fill-opacity=".8" fill-rule="evenodd"/>
 <path id="path944" d="m130.98 96.442c2.5164 0.021928 1.1844-3.2998 2.2844-3.2998 0-1.201 0.50767-3.1743 0.50767-5.0766-1.1275-1.1275-3.2998 1.1538-3.2998 2.2845 0 1.7298-1.8816 6.0837 0.50766 6.0919z" fill="#fff" fill-opacity=".8" fill-rule="evenodd"/>
 <metadata>
  <rdf:RDF xmlns:cc="http://web.resource.org/cc/" xmlns:dc="http://purl.org/dc/elements/1.1/" xmlns:rdf="http://www.w3.org/1999/02/22-rdf-syntax-ns#">
   <cc:Work rdf:about="">
    <dc:title>Clipart by Nicu Buculei - birthday_cake</dc:title>
    <dc:description/>
    <dc:subject>
     <rdf:Bag>
      <rdf:li>hash</rdf:li>
      <rdf:li>dessert</rdf:li>
      <rdf:li/>
      <rdf:li>food</rdf:li>
     </rdf:Bag>
    </dc:subject>
    <dc:publisher>
     <cc:Agent rdf:about="http://www.openclipart.org">
      <dc:title>Nicu Buculei</dc:title>
     </cc:Agent>
    </dc:publisher>
    <dc:creator>
     <cc:Agent rdf:about="">
      <dc:title>Nicu Buculei</dc:title>
     </cc:Agent>
    </dc:creator>
    <dc:rights>
     <cc:Agent rdf:about="">
      <dc:title>Nicu Buculei</dc:title>
     </cc:Agent>
    </dc:rights>
    <dc:date/>
    <dc:format>image/svg+xml</dc:format>
    <dc:type rdf:resource="http://purl.org/dc/dcmitype/StillImage"/>
    <cc:license rdf:resource="http://web.resource.org/cc/PublicDomain">
     <dc:date/>
    </cc:license>
    <dc:language>en</dc:language>
   </cc:Work>
   <cc:License rdf:about="http://web.resource.org/cc/PublicDomain">
    <cc:permits rdf:resource="http://web.resource.org/cc/Reproduction"/>
    <cc:permits rdf:resource="http://web.resource.org/cc/Distribution"/>
    <cc:permits rdf:resource="http://web.resource.org/cc/DerivativeWorks"/>
   </cc:License>
  </rdf:RDF>
 </metadata>
</svg>
