<?xml version="1.0" encoding="UTF-8"?>
<!-- Created with Inkscape (http://www.inkscape.org/) -->
<svg id="svg2" width="254.74" height="340.83" version="1.0" xmlns="http://www.w3.org/2000/svg" xmlns:cc="http://creativecommons.org/ns#" xmlns:dc="http://purl.org/dc/elements/1.1/" xmlns:rdf="http://www.w3.org/1999/02/22-rdf-syntax-ns#" xmlns:xlink="http://www.w3.org/1999/xlink">
 <defs id="defs4">
  <linearGradient id="linearGradient7131">
   <stop id="stop7133" stop-color="#141414" offset="0"/>
   <stop id="stop7135" stop-color="#5d5d5d" offset=".15379"/>
   <stop id="stop7137" stop-color="#ececec" offset=".29589"/>
   <stop id="stop7139" stop-color="#ececec" offset=".39089"/>
   <stop id="stop7141" stop-color="#a2a2a2" offset=".55537"/>
   <stop id="stop7143" stop-color="#a2a2a2" offset=".62542"/>
   <stop id="stop7145" stop-color="#ececec" offset=".71387"/>
   <stop id="stop7147" stop-color="#ececec" offset=".77573"/>
   <stop id="stop7149" stop-color="#5d5d5d" offset=".886"/>
   <stop id="stop7151" stop-color="#141414" offset="1"/>
  </linearGradient>
  <linearGradient id="linearGradient3505">
   <stop id="stop3507" stop-color="#4d4d4d" offset="0"/>
   <stop id="stop3509" stop-color="#868686" offset="1"/>
  </linearGradient>
  <linearGradient id="linearGradient3481">
   <stop id="stop3483" stop-color="#e2e2e2" offset="0"/>
   <stop id="stop3487" stop-color="#bcbcbc" offset=".29808"/>
   <stop id="stop3485" stop-color="#fff" offset="1"/>
  </linearGradient>
  <linearGradient id="linearGradient3441">
   <stop id="stop3443" stop-color="#6d6d6d" offset="0"/>
   <stop id="stop3447" stop-color="#303030" offset=".69"/>
   <stop id="stop3445" stop-color="#757575" offset="1"/>
  </linearGradient>
  <linearGradient id="linearGradient3375">
   <stop id="stop3377" stop-color="#b5b5b5" offset="0"/>
   <stop id="stop3383" stop-color="#5d5d5d" offset=".08"/>
   <stop id="stop3385" stop-color="#ececec" offset=".27"/>
   <stop id="stop3395" stop-color="#ececec" offset=".32"/>
   <stop id="stop3387" stop-color="#a2a2a2" offset=".47"/>
   <stop id="stop3393" stop-color="#a2a2a2" offset=".53"/>
   <stop id="stop3379" stop-color="#ececec" offset=".68"/>
   <stop id="stop3397" stop-color="#ececec" offset=".73"/>
   <stop id="stop3391" stop-color="#5d5d5d" offset=".93269"/>
   <stop id="stop3381" stop-color="#c5c5c5" offset="1"/>
  </linearGradient>
  <linearGradient id="linearGradient3346">
   <stop id="stop3348" stop-color="#666" offset="0"/>
   <stop id="stop3350" stop-color="#ebebeb" offset="1"/>
  </linearGradient>
  <linearGradient id="linearGradient3338">
   <stop id="stop3340" stop-color="#d6d6d6" offset="0"/>
   <stop id="stop3342" stop-color="#fff" offset="1"/>
  </linearGradient>
  <linearGradient id="linearGradient3651" x1="336.71" x2="406.78" y1="313.26" y2="386.16" gradientUnits="userSpaceOnUse" xlink:href="#linearGradient3338"/>
  <linearGradient id="linearGradient3653" x1="349.92" x2="402.42" y1="320.46" y2="399.16" gradientUnits="userSpaceOnUse" xlink:href="#linearGradient3346"/>
  <linearGradient id="linearGradient3655" x1="315.03" x2="447.57" y1="294.36" y2="418.9" gradientUnits="userSpaceOnUse" xlink:href="#linearGradient3346"/>
  <linearGradient id="linearGradient3663" x1="357.97" x2="361.96" y1="358.42" y2="358.42" gradientUnits="userSpaceOnUse" xlink:href="#linearGradient3346"/>
  <linearGradient id="linearGradient3665" x1="361.96" x2="365.95" y1="357.26" y2="357.26" gradientTransform="translate(0 1.1569)" gradientUnits="userSpaceOnUse" xlink:href="#linearGradient3441"/>
  <linearGradient id="linearGradient3667" x1="365.95" x2="369.94" y1="358.11" y2="358.11" gradientTransform="translate(0 .31125)" gradientUnits="userSpaceOnUse" xlink:href="#linearGradient3338"/>
  <linearGradient id="linearGradient3669" x1="369.94" x2="373.93" y1="357.02" y2="357.02" gradientTransform="translate(0 1.3986)" gradientUnits="userSpaceOnUse" xlink:href="#linearGradient3441"/>
  <linearGradient id="linearGradient3671" x1="373.93" x2="377.92" y1="358.53" y2="358.53" gradientTransform="translate(0 -.1116)" gradientUnits="userSpaceOnUse" xlink:href="#linearGradient3481"/>
  <linearGradient id="linearGradient3673" x1="382.94" x2="377.92" y1="360.28" y2="360.28" gradientTransform="translate(0 1.0361)" gradientUnits="userSpaceOnUse" xlink:href="#linearGradient3441"/>
  <linearGradient id="linearGradient3675" x1="382.94" x2="386.93" y1="358.35" y2="358.35" gradientTransform="translate(0 .069611)" gradientUnits="userSpaceOnUse" xlink:href="#linearGradient3481"/>
  <linearGradient id="linearGradient3677" x1="390.01" x2="386.93" y1="356.12" y2="356.12" gradientTransform="translate(0 1.5798)" gradientUnits="userSpaceOnUse" xlink:href="#linearGradient3505"/>
  <linearGradient id="linearGradient3679" x1="394" x2="389.99" y1="355.39" y2="355.39" gradientTransform="translate(0 .19043)" gradientUnits="userSpaceOnUse" xlink:href="#linearGradient3346"/>
  <linearGradient id="linearGradient3692" x1="366.33" x2="385.91" y1="388.87" y2="388.87" gradientUnits="userSpaceOnUse" xlink:href="#linearGradient3375"/>
  <linearGradient id="linearGradient3695" x1="579.31" x2="604.41" y1="127.66" y2="127.66" gradientUnits="userSpaceOnUse" xlink:href="#linearGradient3375"/>
  <linearGradient id="linearGradient3698" x1="585.18" x2="598.96" y1="143.94" y2="143.94" gradientUnits="userSpaceOnUse">
   <stop id="stop3304" stop-color="#b5b5b5" offset="0"/>
   <stop id="stop3310" stop-color="#fff" offset=".5"/>
   <stop id="stop3306" stop-color="#c5c5c5" offset="1"/>
  </linearGradient>
  <linearGradient id="linearGradient3772" x1="376.42" x2="379.99" y1="472.87" y2="476.91" gradientUnits="userSpaceOnUse" xlink:href="#linearGradient3338"/>
  <linearGradient id="linearGradient7121" x1="276.36" x2="499.04" y1="391.59" y2="656.89" gradientUnits="userSpaceOnUse" xlink:href="#linearGradient3505"/>
  <linearGradient id="linearGradient7159" x1="236.21" x2="499.05" y1="507.6" y2="507.6" gradientUnits="userSpaceOnUse" xlink:href="#linearGradient3338"/>
  <linearGradient id="linearGradient7276" x1="242.1" x2="495.62" y1="458.61" y2="542.37" gradientTransform="matrix(.9288 0 0 .86375 36.713 86.997)" gradientUnits="userSpaceOnUse" xlink:href="#linearGradient7131"/>
  <linearGradient id="linearGradient7278" x1="236.7" x2="495.62" y1="496.15" y2="542.37" gradientTransform="matrix(.9288 0 0 .86375 36.713 86.997)" gradientUnits="userSpaceOnUse" xlink:href="#linearGradient7131"/>
 </defs>
 <metadata id="metadata7">
  <rdf:RDF>
   <cc:Work rdf:about="">
    <dc:format>image/svg+xml</dc:format>
    <dc:type rdf:resource="http://purl.org/dc/dcmitype/StillImage"/>
    <dc:title>stop watch</dc:title>
    <dc:date>Dec 5, 2009</dc:date>
    <dc:creator>
     <cc:Agent>
      <dc:title>Klaas van Gend</dc:title>
     </cc:Agent>
    </dc:creator>
    <dc:rights>
     <cc:Agent>
      <dc:title/>
     </cc:Agent>
    </dc:rights>
    <dc:description>This is a stop watch.</dc:description>
    <dc:subject>
     <rdf:Bag>
      <rdf:li>stop watch</rdf:li>
      <rdf:li>chronograph</rdf:li>
     </rdf:Bag>
    </dc:subject>
    <cc:license rdf:resource="http://creativecommons.org/licenses/publicdomain/"/>
   </cc:Work>
   <cc:License rdf:about="http://creativecommons.org/licenses/publicdomain/">
    <cc:permits rdf:resource="http://creativecommons.org/ns#Reproduction"/>
    <cc:permits rdf:resource="http://creativecommons.org/ns#Distribution"/>
    <cc:permits rdf:resource="http://creativecommons.org/ns#DerivativeWorks"/>
   </cc:License>
  </rdf:RDF>
 </metadata>
 <g id="layer3" transform="translate(-250.8 -310.76)">
  <g id="g3362">
   <path id="path3324" d="m376.25 311.19c-22.682 0-41.094 18.412-41.094 41.094 0 22.682 18.412 41.094 41.094 41.094 22.682 0 41.094-18.412 41.094-41.094 0-22.682-18.412-41.094-41.094-41.094zm0 4.7812c19.909 1e-5 36.062 16.262 36.062 36.312-1e-5 20.051-16.154 36.312-36.062 36.312-19.909-1e-5 -36.062-16.262-36.062-36.312-1e-5 -20.051 16.154-36.312 36.062-36.312z" fill="url(#linearGradient3651)"/>
   <path id="path3333" transform="matrix(.75067 0 0 .77901 90.135 71.729)" d="m429.19 360.14a48.046 46.629 0 1 1-96.092 0 48.046 46.629 0 1 1 96.092 0z" fill="none" stroke="url(#linearGradient3653)" stroke-linecap="round" stroke-linejoin="round"/>
   <path id="path3335" transform="matrix(.85523 0 0 .88122 50.283 34.919)" d="m429.19 360.14a48.046 46.629 0 1 1-96.092 0 48.046 46.629 0 1 1 96.092 0z" fill="none" stroke="url(#linearGradient3655)" stroke-linecap="round" stroke-linejoin="round"/>
  </g>
  <rect id="rect3300" transform="matrix(.8757 .48286 -.4884 .87262 0 0)" x="585.18" y="136.03" width="13.78" height="15.832" fill="url(#linearGradient3698)"/>
  <rect id="rect3296" transform="matrix(.8757 .48286 -.4884 .87262 0 0)" x="579.31" y="113.24" width="25.103" height="28.841" fill="url(#linearGradient3695)"/>
  <rect id="rect3322" x="366.33" y="377.4" width="19.579" height="22.928" fill="url(#linearGradient3692)"/>
  <g id="g3544" transform="translate(0,4)">
   <rect id="rect3399" x="357.97" y="341.55" width="3.9886" height="33.748" fill="url(#linearGradient3663)"/>
   <rect id="rect3403" x="361.96" y="341.55" width="3.9886" height="33.748" fill="url(#linearGradient3665)"/>
   <rect id="rect3405" x="365.95" y="341.55" width="3.9886" height="33.748" fill="url(#linearGradient3667)"/>
   <rect id="rect3407" x="369.94" y="341.55" width="3.9886" height="33.748" fill="url(#linearGradient3669)"/>
   <rect id="rect3409" x="373.93" y="341.55" width="3.9886" height="33.748" fill="url(#linearGradient3671)"/>
   <rect id="rect3411" x="377.92" y="341.55" width="5.0156" height="33.748" fill="url(#linearGradient3673)"/>
   <rect id="rect3413" x="382.94" y="341.55" width="3.9886" height="33.748" fill="url(#linearGradient3675)"/>
   <rect id="rect3415" x="386.93" y="341.55" width="3.0826" height="33.748" fill="url(#linearGradient3677)"/>
   <rect id="rect3417" x="390.01" y="341.55" width="3.9886" height="33.748" fill="url(#linearGradient3679)"/>
  </g>
 </g>
 <g id="layer1" transform="translate(-250.8 -310.76)">
  <path id="path3226" transform="matrix(.96929 0 0 .9014 21.829 67.885)" d="m498.55 507.6a130.92 139.43 0 1 1-261.84 0 130.92 139.43 0 1 1 261.84 0z" fill="url(#linearGradient7159)" stroke="url(#linearGradient7121)" stroke-linecap="round" stroke-linejoin="round"/>
  <g id="g7251">
   <path id="path3288" d="m378.16 405c-49.893 0-92.791 29.8-111.53 72.406l226.84 86.344c4.0779-12.035 6.3125-24.923 6.3125-38.312 0-66.48-54.502-120.44-121.62-120.44z" fill="url(#linearGradient7276)"/>
   <path id="path7221" d="m266.62 477.41c-6.4719 14.714-10.062 30.966-10.062 48.031 0 66.48 54.471 120.44 121.59 120.44 53.604 0 99.143-34.406 115.31-82.125l-226.84-86.344z" fill="url(#linearGradient7278)"/>
  </g>
  <path id="path7239" transform="matrix(2.5194 0 0 2.7024 -108.93 -497.96)" d="m240.77 378.71a47.423 43.776 0 1 1-94.847 0 47.423 43.776 0 1 1 94.847 0z" fill="none" stroke="#000" stroke-linecap="round" stroke-linejoin="round" stroke-width=".7665"/>
 </g>
 <g id="layer4" transform="translate(-250.8 -310.76)">
  <path id="path3726" transform="matrix(1.9173 0 0 1.2975 -352.86 -140.6)" d="m432.74 512.47a50.964 75.308 0 1 1-101.93 0 50.964 75.308 0 1 1 101.93 0z" fill="#f9f9f9" fill-opacity=".6828" stroke="#000" stroke-linecap="round" stroke-linejoin="round"/>
  <g id="g3787">
   <path id="path3782" d="m376.14 445.4-0.25 0.53125c0.17743-0.01226 0.35296-0.0222 0.53125-0.03125l-0.28125-0.5zm-0.25 0.53125c-0.81644 0.05641-1.641 0.15855-2.4375 0.28125l1.4688 1.9688 0.96875-2.25zm-2.4375 0.28125-0.375-0.46875-0.1875 0.5625c0.19024-0.03323 0.37101-0.06425 0.5625-0.09375zm-0.5625 0.09375c-0.82812 0.14465-1.6351 0.31785-2.4375 0.53125l1.6875 1.8125 0.75-2.3438zm-2.4375 0.53125-0.375-0.40625-0.125 0.5625c0.16746-0.04781 0.33132-0.11139 0.5-0.15625zm-0.5 0.15625c-0.8081 0.23072-1.5973 0.4838-2.375 0.78125l1.8438 1.625 0.53125-2.4062zm-2.375 0.78125-0.4375-0.375-0.0625 0.5625c0.16483-0.06657 0.33369-0.12389 0.5-0.1875zm-0.5 0.1875c-0.77028 0.31111-1.5454 0.65753-2.2812 1.0312l2.0312 1.4375 0.25-2.4688zm-2.2812 1.0312-0.46875-0.3125v0.5625c0.15549-0.08258 0.31159-0.17018 0.46875-0.25zm-0.46875 0.25c-0.74747 0.39697-1.4494 0.82259-2.1562 1.2812l2.1562 1.1875v-2.4688zm-2.1562 1.2812-0.5-0.28125 0.0625 0.53125c0.13839-0.09322 0.29744-0.15912 0.4375-0.25zm-0.4375 0.25c-0.68753 0.46314-1.356 0.98123-2 1.5l2.25 0.96875-0.25-2.4688zm-2 1.5-0.5625-0.21875 0.125 0.59375c0.14608-0.12247 0.28899-0.25537 0.4375-0.375zm-0.4375 0.375c-0.64309 0.53915-1.2499 1.0954-1.8438 1.6875l2.3438 0.71875-0.5-2.4062zm-1.8438 1.6875-0.5625-0.1875 0.1875 0.5625c0.12284-0.127 0.24987-0.25025 0.375-0.375zm-0.375 0.375c-0.57857 0.59814-1.1304 1.229-1.6562 1.875l2.4062 0.46875-0.75-2.3438zm-1.6562 1.875-0.5625-0.125 0.25 0.53125c0.10497-0.13366 0.20525-0.27449 0.3125-0.40625zm-0.3125 0.40625c-0.5165 0.65769-1.0096 1.3296-1.4688 2.0312l2.4375 0.21875-0.96875-2.25zm-1.4688 2.0312-0.59375-0.0625 0.28125 0.5c0.09478-0.15084 0.21503-0.28855 0.3125-0.4375zm-0.3125 0.4375c-0.4425 0.70416-0.83684 1.4444-1.2188 2.1875l2.4688-0.03125-1.25-2.1562zm-1.2188 2.1875h-0.59375l0.34375 0.46875c0.07776-0.15836 0.16945-0.31203 0.25-0.46875zm-0.25 0.46875c-0.3703 0.75413-0.69504 1.5233-1 2.3125l2.4375-0.3125-1.4375-2zm-1 2.3125-0.5625 0.0625 0.375 0.40625c0.05801-0.15833 0.12682-0.31172 0.1875-0.46875zm-0.1875 0.46875c-0.28816 0.78652-0.52976 1.5896-0.75 2.4062l2.4062-0.5625-1.6562-1.8438zm-0.75 2.4062-0.5625 0.125 0.4375 0.375c0.04194-0.16744 0.08016-0.33372 0.125-0.5zm-0.125 0.5c-0.2022 0.80724-0.39838 1.6364-0.53125 2.4688l2.3438-0.8125-1.8125-1.6562zm-0.53125 2.4688-0.53125 0.1875 0.46875 0.34375c0.02491-0.17707 0.0344-0.35522 0.0625-0.53125zm-0.0625 0.53125c-0.11509 0.81805-0.20475 1.6304-0.25 2.4688l2.25-1.0312-2-1.4375zm-0.25 2.4688-0.5 0.25 0.5 0.28125c0.00633-0.1761-0.00946-0.35596 0-0.53125zm0 0.53125c-0.01263 0.35132-0.03125 0.70812-0.03125 1.0625 0 0.47939 0.00821 0.96379 0.03125 1.4375l2.125-1.25-2.125-1.25zm0 2.5-0.5 0.3125 0.53125 0.25c-0.01278-0.18788-0.02207-0.37366-0.03125-0.5625zm0.03125 0.5625c0.05694 0.83675 0.12347 1.6529 0.25 2.4688l2-1.4688-2.25-1zm0.25 2.4688-0.4375 0.34375 0.5625 0.1875c-0.03093-0.17744-0.09731-0.35273-0.125-0.53125zm0.125 0.53125c0.14501 0.83179 0.31689 1.6628 0.53125 2.4688l1.8125-1.7188-2.3438-0.75zm0.53125 2.4688-0.40625 0.375 0.53125 0.125c-0.04729-0.16574-0.0806-0.33307-0.125-0.5zm0.125 0.5c0.23098 0.80945 0.51457 1.5961 0.8125 2.375l1.625-1.875-2.4375-0.5zm0.8125 2.375-0.375 0.40625 0.5625 0.0625c-0.06281-0.15596-0.12734-0.31146-0.1875-0.46875zm0.1875 0.46875c0.31397 0.77961 0.65319 1.5369 1.0312 2.2812l1.4062-2-2.4375-0.28125zm1.0312 2.2812-0.3125 0.46875h0.5625c-0.08258-0.15549-0.17018-0.31159-0.25-0.46875zm0.25 0.46875c0.39955 0.75232 0.81922 1.4763 1.2812 2.1875l1.1875-2.1562-2.4688-0.03125zm1.2812 2.1875-0.28125 0.5 0.5625-0.0625c-0.09836-0.14555-0.18548-0.29008-0.28125-0.4375zm0.28125 0.4375c0.45953 0.68001 0.95473 1.3627 1.4688 2l0.96875-2.25-2.4375 0.25zm1.4688 2-0.21875 0.53125 0.5625-0.125c-0.11327-0.13534-0.23292-0.26883-0.34375-0.40625zm0.34375 0.40625c0.53435 0.63845 1.101 1.2537 1.6875 1.8438l0.71875-2.3438-2.4062 0.5zm1.6875 1.8438-0.15625 0.5625 0.5625-0.1875c-0.13228-0.12814-0.27642-0.24438-0.40625-0.375zm0.40625 0.375c0.6027 0.58385 1.1924 1.1573 1.8438 1.6875l0.46875-2.4375-2.3125 0.75zm1.8438 1.6875-0.09375 0.5625 0.53125-0.25c-0.13973-0.10956-0.29985-0.20045-0.4375-0.3125zm0.4375 0.3125c0.65234 0.5115 1.3358 0.9824 2.0312 1.4375l0.21875-2.4375-2.25 1zm2.0312 1.4375-0.0625 0.59375 0.5-0.28125c-0.15084-0.09478-0.28855-0.21503-0.4375-0.3125zm0.4375 0.3125c0.71393 0.44863 1.4336 0.86367 2.1875 1.25l-0.0625-2.4688-2.125 1.2188zm2.1875 1.25v0.5625l0.46875-0.34375c-0.15579-0.07632-0.31454-0.13973-0.46875-0.21875zm0.46875 0.21875c0.74553 0.36524 1.5328 0.69856 2.3125 1l-0.3125-2.4375-2 1.4375zm2.3125 1 0.0625 0.59375 0.4375-0.40625c-0.16889-0.06168-0.33259-0.12278-0.5-0.1875zm0.5 0.1875c0.77768 0.28402 1.5679 0.53233 2.375 0.75l-0.5625-2.375-1.8125 1.625zm2.375 0.75 0.125 0.5625 0.375-0.40625c-0.16945-0.04241-0.33174-0.11087-0.5-0.15625zm0.5 0.15625c0.81375 0.20365 1.6294 0.36681 2.4688 0.5l-0.8125-2.3438-1.6562 1.8438zm2.4688 0.5 0.1875 0.53125 0.34375-0.46875c-0.17605-0.02462-0.35623-0.03473-0.53125-0.0625zm0.53125 0.0625c0.81065 0.11339 1.6381 0.23643 2.4688 0.28125l-1.0312-2.25-1.4375 1.9688zm2.4688 0.28125 0.25 0.5 0.28125-0.5c-0.176-0.00633-0.35606 0.00945-0.53125 0zm0.53125 0c0.35132 0.01263 0.70812 0.03125 1.0625 0.03125 0.50022 0 0.97473-0.00618 1.4688-0.03125l-1.2812-2.125-1.25 2.125zm2.5312 0 0.28125 0.46875 0.21875-0.5c-0.16709 0.01136-0.33214 0.02273-0.5 0.03125zm0.5-0.03125c0.83722-0.05694 1.6837-0.15463 2.5-0.28125l-1.4688-2-1.0312 2.2812zm2.5-0.28125 0.34375 0.4375 0.1875-0.53125c-0.1762 0.0307-0.35397 0.06625-0.53125 0.09375zm0.53125-0.09375c0.82283-0.14335 1.6087-0.35127 2.4062-0.5625l-1.6562-1.7812-0.75 2.3438zm2.4062-0.5625 0.40625 0.4375 0.125-0.5625c-0.17543 0.05006-0.35448 0.07818-0.53125 0.125zm0.53125-0.125c0.7973-0.22751 1.6073-0.48875 2.375-0.78125l-1.8438-1.625-0.53125 2.4062zm2.375-0.78125 0.4375 0.375 0.0625-0.5625c-0.16631 0.06695-0.33218 0.12356-0.5 0.1875zm0.5-0.1875c0.78276-0.31511 1.534-0.68279 2.2812-1.0625l-2-1.4062-0.28125 2.4688zm2.2812-1.0625 0.46875 0.34375v-0.5625c-0.15291 0.08119-0.31424 0.14024-0.46875 0.21875zm0.46875-0.21875c0.74025-0.39304 1.4558-0.82769 2.1562-1.2812l-2.1562-1.1875v2.4688zm2.1562-1.2812 0.5 0.28125-0.0625-0.59375c-0.15041 0.10144-0.2851 0.21382-0.4375 0.3125zm0.4375-0.3125c0.69194-0.46667 1.3834-0.94572 2.0312-1.4688l-2.25-0.96875 0.21875 2.4375zm2.0312-1.4688 0.53125 0.21875-0.125-0.5625c-0.13762 0.11537-0.26648 0.2309-0.40625 0.34375zm0.40625-0.34375c0.63217-0.52999 1.2591-1.0751 1.8438-1.6562l-2.3438-0.75 0.5 2.4062zm1.8438-1.6562 0.5625 0.15625-0.1875-0.5625c-0.12951 0.13376-0.24296 0.27499-0.375 0.40625zm0.375-0.40625c0.57834-0.59733 1.1305-1.2299 1.6562-1.875l-2.4062-0.46875 0.75 2.3438zm1.6562-1.875 0.5625 0.125-0.21875-0.53125c-0.11037 0.14064-0.23085 0.26771-0.34375 0.40625zm0.34375-0.40625c0.51587-0.65735 0.97894-1.3613 1.4375-2.0625l-2.4375-0.1875 1 2.25zm1.4375-2.0625 0.59375 0.0625-0.28125-0.5c-0.09656 0.15388-0.21315 0.28558-0.3125 0.4375zm0.3125-0.4375c0.4449-0.70899 0.8665-1.4391 1.25-2.1875l-2.4688 0.0625 1.2188 2.125zm1.25-2.1875h0.5625l-0.34375-0.46875c-0.07632 0.15579-0.13973 0.31454-0.21875 0.46875zm0.21875-0.46875c0.36524-0.74554 0.69856-1.5015 1-2.2812l-2.4375 0.3125 1.4375 1.9688zm1-2.2812 0.5625-0.0625-0.375-0.40625c-0.05847 0.1596-0.12631 0.31047-0.1875 0.46875zm0.1875-0.46875c0.28816-0.78652 0.52976-1.5896 0.75-2.4062l-2.375 0.53125 1.625 1.875zm0.75-2.4062 0.5625-0.125-0.40625-0.375c-0.04241 0.16945-0.11087 0.33174-0.15625 0.5zm0.15625-0.5c0.20147-0.80505 0.36747-1.6387 0.5-2.4688l-2.3438 0.78125 1.8438 1.6875zm0.5-2.4688 0.53125-0.1875-0.46875-0.34375c-0.02495 0.17733-0.03435 0.35496-0.0625 0.53125zm0.0625-0.53125c0.11653-0.82825 0.20508-1.6509 0.25-2.5l-2.2188 1.0312 1.9688 1.4688zm0.25-2.5 0.53125-0.25-0.5-0.28125c-0.00614 0.17619-0.02197 0.35587-0.03125 0.53125zm0.03125-0.53125c0.01188-0.34086 0.03125-0.68751 0.03125-1.0312 0-0.47941-0.03946-0.96377-0.0625-1.4375l-2.0938 1.25 2.125 1.2188zm-0.03125-2.4688 0.5-0.3125-0.53125-0.25c0.01278 0.18785 0.02207 0.37368 0.03125 0.5625zm-0.03125-0.5625c-0.05778-0.84909-0.15183-1.6725-0.28125-2.5l-1.9688 1.5 2.25 1zm-0.28125-2.5 0.46875-0.34375-0.53125-0.1875c0.03057 0.17439 0.03506 0.3558 0.0625 0.53125zm-0.0625-0.53125c-0.14244-0.81249-0.35385-1.6185-0.5625-2.4062l-1.7812 1.6562 2.3438 0.75zm-0.5625-2.4062 0.4375-0.40625-0.5625-0.125c0.05006 0.17543 0.07818 0.35448 0.125 0.53125zm-0.125-0.53125c-0.23127-0.81046-0.51411-1.5951-0.8125-2.375l-1.5938 1.8438 2.4062 0.53125zm-0.8125-2.375 0.375-0.4375-0.5625-0.0625c0.06718 0.1662 0.12333 0.33229 0.1875 0.5zm-0.1875-0.5c-0.31463-0.77841-0.65269-1.538-1.0312-2.2812l-1.4062 2.0312 2.4375 0.25zm-1.0312-2.2812 0.34375-0.46875h-0.5625c0.08133 0.15282 0.14009 0.31432 0.21875 0.46875zm-0.21875-0.46875c-0.39105-0.73477-0.83054-1.4608-1.2812-2.1562l-1.2188 2.1562h2.5zm-1.2812-2.1562 0.28125-0.5-0.5625 0.0625c0.09631 0.14297 0.18744 0.29274 0.28125 0.4375zm-0.28125-0.4375c-0.47399-0.70364-0.96779-1.3732-1.5-2.0312l-0.96875 2.2812 2.4688-0.25zm-1.5-2.0312 0.21875-0.53125-0.5625 0.125c0.11355 0.13529 0.23264 0.26887 0.34375 0.40625zm-0.34375-0.40625c-0.5359-0.63851-1.0994-1.2538-1.6875-1.8438l-0.71875 2.3438 2.4062-0.5zm-1.6875-1.8438 0.15625-0.5625-0.5625 0.1875c0.13069 0.12629 0.27794 0.2463 0.40625 0.375zm-0.40625-0.375c-0.59496-0.57492-1.2015-1.1335-1.8438-1.6562l-0.46875 2.4062 2.3125-0.75zm-1.8438-1.6562 0.09375-0.5625-0.5 0.21875c0.13883 0.10888 0.26947 0.23242 0.40625 0.34375zm-0.40625-0.34375c-0.65505-0.51372-1.3639-0.98067-2.0625-1.4375l-0.1875 2.4375 2.25-1zm-2.0625-1.4375 0.0625-0.59375-0.5 0.28125c0.15388 0.09656 0.28558 0.21315 0.4375 0.3125zm-0.4375-0.3125c-0.70696-0.44362-1.4414-0.83617-2.1875-1.2188l0.0625 2.4688 2.125-1.25zm-2.1875-1.2188v-0.5625l-0.4375 0.3125c0.15011 0.07371 0.28886 0.17379 0.4375 0.25zm-0.4375-0.25c-0.75413-0.3703-1.5233-0.69504-2.3125-1l0.28125 2.4688 2.0312-1.4688zm-2.3125-1-0.0625-0.5625-0.40625 0.375c0.15833 0.05801 0.31172 0.12682 0.46875 0.1875zm-0.46875-0.1875c-0.78709-0.28837-1.6202-0.52965-2.4375-0.75l0.5625 2.4062 1.875-1.6562zm-2.4375-0.75-0.125-0.5625-0.375 0.4375c0.16816 0.0421 0.33302 0.07998 0.5 0.125zm-0.5-0.125c-0.80572-0.2017-1.6067-0.36736-2.4375-0.5l0.78125 2.3125 1.6562-1.8125zm-2.4375-0.5-0.1875-0.5625-0.34375 0.5c0.17493 0.02466 0.35733 0.03473 0.53125 0.0625zm-0.53125-0.0625c-0.82047-0.11564-1.659-0.23587-2.5-0.28125l1.0312 2.25 1.4688-1.9688zm-2.5-0.28125-0.25-0.5-0.28125 0.5c0.17909 0.00638 0.353-0.00962 0.53125 0zm-0.53125 0c-0.34827-0.01241-0.67997-0.03125-1.0312-0.03125-0.4898 0-0.98488 0.00721-1.4688 0.03125l1.25 2.125 1.25-2.125z" fill="#585858"/>
   <path id="path3730" transform="matrix(1.0116 0 0 .99575 -10.098 .15016)" d="m412.26 476.75a28.667 29.122 0 1 1-57.334 0 28.667 29.122 0 1 1 57.334 0z" fill="none" stroke="#000" stroke-linecap="round" stroke-linejoin="round"/>
   <text id="text3732" x="373.60901" y="455.81467" fill="#d30000" font-family="Nimbus Sans L" font-size="9px" stroke-width="1px" style="line-height:125%" xml:space="preserve"><tspan id="tspan3734" x="373.60901" y="455.81467">60</tspan></text>
   <text id="text3736" x="389.00931" y="469.74078" fill="#000000" font-family="Nimbus Sans L" font-size="9px" stroke-width="1px" style="line-height:125%" xml:space="preserve"><tspan id="tspan3738" x="389.00931" y="469.74078">10</tspan></text>
   <text id="text3740" x="390.41782" y="487.81219" fill="#000000" font-family="Nimbus Sans L" font-size="9px" stroke-width="1px" style="line-height:125%" xml:space="preserve"><tspan id="tspan3742" x="390.41782" y="487.81219">20</tspan></text>
   <text id="text3744" x="374.21652" y="499.04272" fill="#000000" font-family="Nimbus Sans L" font-size="9px" stroke-width="1px" style="line-height:125%" xml:space="preserve"><tspan id="tspan3746" x="374.21652" y="499.04272">30</tspan></text>
   <text id="text3748" x="355.83536" y="487.81219" fill="#000000" font-family="Nimbus Sans L" font-size="9px" stroke-width="1px" style="line-height:125%" xml:space="preserve"><tspan id="tspan3750" x="355.83536" y="487.81219">40</tspan></text>
   <text id="text3752" x="355.89386" y="469.74078" fill="#000000" font-family="Nimbus Sans L" font-size="9px" stroke-width="1px" style="line-height:125%" xml:space="preserve"><tspan id="tspan3754" x="355.89386" y="469.74078">50</tspan></text>
   <path id="path3756" d="m378.41 449.91-2.9688 26.188c0.24717 1.4213 1.4771 2.5 2.9688 2.5 1.4916 0 2.7216-1.0787 2.9688-2.5l-2.9688-26.188z" stroke="#000" stroke-linecap="round" stroke-linejoin="round" stroke-width=".95184"/>
   <path id="path3763" transform="matrix(1.0224 0 0 .88611 -8.4434 54.529)" d="m381.32 475.15a2.9577 3.4127 0 1 1-5.9154 0 2.9577 3.4127 0 1 1 5.9154 0z" fill="url(#linearGradient3772)" stroke="#000" stroke-linecap="round" stroke-linejoin="round"/>
  </g>
  <g id="g6791" transform="matrix(.99985 -.017452 .017452 .99985 -9.093 6.6961)" fill="#525252">
   <rect id="use6489" x="379.1" y="430.14" width="2.4796" height="7.4387"/>
   <rect id="use6491" transform="matrix(.99452 .10453 -.10453 .99452 0 0)" x="431.83" y="387.64" width="2.4796" height="7.4387"/>
   <rect id="use6493" transform="matrix(.97815 .20791 -.20791 .97815 0 0)" x="479.83" y="339.86" width="2.4796" height="7.4387"/>
   <rect id="use6495" transform="matrix(.95106 .30902 -.30902 .95106 0 0)" x="522.57" y="287.32" width="2.4796" height="7.4387"/>
   <rect id="use6497" transform="matrix(.91355 .40674 -.40674 .91355 0 0)" x="559.59" y="230.61" width="2.4796" height="7.4387"/>
   <rect id="use6499" transform="matrix(.86603 .5 -.5 .86603 0 0)" x="590.47" y="170.34" width="2.4796" height="7.4387"/>
   <rect id="use6501" transform="matrix(.80902 .58779 -.58779 .80902 0 0)" x="614.89" y="107.17" width="2.4796" height="7.4387"/>
   <rect id="use6503" transform="matrix(.74314 .66913 -.66913 .74314 0 0)" x="632.57" y="41.791" width="2.4796" height="7.4387"/>
   <rect id="use6505" transform="matrix(.66913 .74314 -.74314 .66913 0 0)" x="643.32" y="-25.075" width="2.4796" height="7.4387"/>
   <rect id="use6507" transform="matrix(.58779 .80902 -.80902 .58779 0 0)" x="647.02" y="-92.699" width="2.4796" height="7.4387"/>
   <rect id="use6509" transform="matrix(.5 .86603 -.86603 .5 0 0)" x="643.63" y="-160.34" width="2.4796" height="7.4387"/>
   <rect id="use6511" transform="matrix(.40674 .91355 -.91355 .40674 0 0)" x="633.19" y="-227.25" width="2.4796" height="7.4387"/>
   <rect id="use6513" transform="matrix(.30902 .95106 -.95106 .30902 0 0)" x="615.81" y="-292.71" width="2.4796" height="7.4387"/>
   <rect id="use6515" transform="matrix(.20791 .97815 -.97815 .20791 0 0)" x="591.69" y="-355.99" width="2.4796" height="7.4387"/>
   <rect id="use6517" transform="matrix(.10453 .99452 -.99452 .10453 0 0)" x="561.08" y="-416.41" width="2.4796" height="7.4387"/>
   <rect id="use6519" transform="rotate(90)" x="524.32" y="-473.29" width="2.4796" height="7.4387"/>
   <rect id="use6521" transform="matrix(-.10453 .99452 -.99452 -.10453 0 0)" x="481.82" y="-526.02" width="2.4796" height="7.4387"/>
   <rect id="use6523" transform="matrix(-.20791 .97815 -.97815 -.20791 0 0)" x="434.05" y="-574.02" width="2.4796" height="7.4387"/>
   <rect id="use6525" transform="matrix(-.30902 .95106 -.95106 -.30902 0 0)" x="381.51" y="-616.76" width="2.4796" height="7.4387"/>
   <rect id="use6527" transform="matrix(-.40674 .91355 -.91355 -.40674 0 0)" x="324.8" y="-653.78" width="2.4796" height="7.4387"/>
   <rect id="use6529" transform="matrix(-.5 .86603 -.86603 -.5 0 0)" x="264.53" y="-684.66" width="2.4796" height="7.4387"/>
   <rect id="use6531" transform="matrix(-.58779 .80902 -.80902 -.58779 0 0)" x="201.36" y="-709.08" width="2.4796" height="7.4387"/>
   <rect id="use6533" transform="matrix(-.66913 .74314 -.74314 -.66913 0 0)" x="135.98" y="-726.76" width="2.4796" height="7.4387"/>
   <rect id="use6535" transform="matrix(-.74314 .66913 -.66913 -.74314 0 0)" x="69.112" y="-737.5" width="2.4796" height="7.4387"/>
   <rect id="use6537" transform="matrix(-.80902 .58779 -.58779 -.80902 0 0)" x="1.4889" y="-741.2" width="2.4796" height="7.4387"/>
   <rect id="use6539" transform="matrix(-.86603 .5 -.5 -.86603 0 0)" x="-66.151" y="-737.82" width="2.4796" height="7.4387"/>
   <rect id="use6541" transform="matrix(-.91355 .40674 -.40674 -.91355 0 0)" x="-133.07" y="-727.38" width="2.4796" height="7.4387"/>
   <rect id="use6543" transform="matrix(-.95106 .30902 -.30902 -.95106 0 0)" x="-198.52" y="-710" width="2.4796" height="7.4387"/>
   <rect id="use6545" transform="matrix(-.97815 .20791 -.20791 -.97815 0 0)" x="-261.81" y="-685.87" width="2.4796" height="7.4387"/>
   <rect id="use6547" transform="matrix(-.99452 .10453 -.10453 -.99452 0 0)" x="-322.22" y="-655.27" width="2.4796" height="7.4387"/>
   <rect id="use6549" transform="scale(-1)" x="-379.1" y="-618.51" width="2.4796" height="7.4387"/>
   <rect id="use6551" transform="matrix(-.99452 -.10453 .10453 -.99452 0 0)" x="-431.83" y="-576.01" width="2.4796" height="7.4387"/>
   <rect id="use6553" transform="matrix(-.97815 -.20791 .20791 -.97815 0 0)" x="-479.83" y="-528.23" width="2.4796" height="7.4387"/>
   <rect id="use6555" transform="matrix(-.95106 -.30902 .30902 -.95106 0 0)" x="-522.57" y="-475.7" width="2.4796" height="7.4387"/>
   <rect id="use6557" transform="matrix(-.91355 -.40674 .40674 -.91355 0 0)" x="-559.59" y="-418.99" width="2.4796" height="7.4387"/>
   <rect id="use6559" transform="matrix(-.86603 -.5 .5 -.86603 0 0)" x="-590.47" y="-358.71" width="2.4796" height="7.4387"/>
   <rect id="use6561" transform="matrix(-.80902 -.58779 .58779 -.80902 0 0)" x="-614.89" y="-295.54" width="2.4796" height="7.4387"/>
   <rect id="use6563" transform="matrix(-.74314 -.66913 .66913 -.74314 0 0)" x="-632.57" y="-230.17" width="2.4796" height="7.4387"/>
   <rect id="use6565" transform="matrix(-.66913 -.74314 .74314 -.66913 0 0)" x="-643.32" y="-163.3" width="2.4796" height="7.4387"/>
   <rect id="use6567" transform="matrix(-.58779 -.80902 .80902 -.58779 0 0)" x="-647.02" y="-95.676" width="2.4796" height="7.4387"/>
   <rect id="use6569" transform="matrix(-.5 -.86603 .86603 -.5 0 0)" x="-643.63" y="-28.037" width="2.4796" height="7.4387"/>
   <rect id="use6571" transform="matrix(-.40674 -.91355 .91355 -.40674 0 0)" x="-633.19" y="38.879" width="2.4796" height="7.4387"/>
   <rect id="use6573" transform="matrix(-.30902 -.95106 .95106 -.30902 0 0)" x="-615.81" y="104.34" width="2.4796" height="7.4387"/>
   <rect id="use6575" transform="matrix(-.20791 -.97815 .97815 -.20791 0 0)" x="-591.69" y="167.62" width="2.4796" height="7.4387"/>
   <rect id="use6577" transform="matrix(-.10453 -.99452 .99452 -.10453 0 0)" x="-561.08" y="228.03" width="2.4796" height="7.4387"/>
   <rect id="use6579" transform="rotate(-90)" x="-524.32" y="284.92" width="2.4796" height="7.4387"/>
   <rect id="use6581" transform="matrix(.10453 -.99452 .99452 .10453 0 0)" x="-481.82" y="337.65" width="2.4796" height="7.4387"/>
   <rect id="use6583" transform="matrix(.20791 -.97815 .97815 .20791 0 0)" x="-434.05" y="385.64" width="2.4796" height="7.4387"/>
   <rect id="use6585" transform="matrix(.30902 -.95106 .95106 .30902 0 0)" x="-381.51" y="428.39" width="2.4796" height="7.4387"/>
   <rect id="use6587" transform="matrix(.40674 -.91355 .91355 .40674 0 0)" x="-324.8" y="465.4" width="2.4796" height="7.4387"/>
   <rect id="use6589" transform="matrix(.5 -.86603 .86603 .5 0 0)" x="-264.53" y="496.29" width="2.4796" height="7.4387"/>
   <rect id="use6591" transform="matrix(.58779 -.80902 .80902 .58779 0 0)" x="-201.36" y="520.7" width="2.4796" height="7.4387"/>
   <rect id="use6593" transform="matrix(.66913 -.74314 .74314 .66913 0 0)" x="-135.98" y="538.38" width="2.4796" height="7.4387"/>
   <rect id="use6595" transform="matrix(.74314 -.66913 .66913 .74314 0 0)" x="-69.112" y="549.13" width="2.4796" height="7.4387"/>
   <rect id="use6597" transform="matrix(.80902 -.58779 .58779 .80902 0 0)" x="-1.4888" y="552.83" width="2.4796" height="7.4387"/>
   <rect id="use6599" transform="matrix(.86603 -.5 .5 .86603 0 0)" x="66.151" y="549.44" width="2.4796" height="7.4387"/>
   <rect id="use6601" transform="matrix(.91355 -.40674 .40674 .91355 0 0)" x="133.07" y="539" width="2.4796" height="7.4387"/>
   <rect id="use6603" transform="matrix(.95106 -.30902 .30902 .95106 0 0)" x="198.52" y="521.62" width="2.4796" height="7.4387"/>
   <rect id="use6605" transform="matrix(.97815 -.20791 .20791 .97815 0 0)" x="261.81" y="497.5" width="2.4796" height="7.4387"/>
   <rect id="use6607" transform="matrix(.99452 -.10453 .10453 .99452 0 0)" x="322.22" y="466.89" width="2.4796" height="7.4387"/>
  </g>
  <g id="g6777" transform="matrix(1.0052 -.017546 .017546 1.0052 -16.089 -8.5044)" fill="#1c1c1c">
   <rect id="use6729" x="382.52" y="443.09" width="5.3134" height="12.398"/>
   <rect id="use6731" transform="matrix(.86603 .5 -.5 .86603 0 0)" x="599.49" y="179.29" width="5.3134" height="12.398"/>
   <rect id="use6733" transform="matrix(.5 .86603 -.86603 .5 0 0)" x="655.49" y="-157.66" width="5.3134" height="12.398"/>
   <rect id="use6735" transform="rotate(90)" x="535.51" y="-477.47" width="5.3134" height="12.398"/>
   <rect id="use6737" transform="matrix(-.5 .86603 -.86603 -.5 0 0)" x="271.71" y="-694.44" width="5.3134" height="12.398"/>
   <rect id="use6739" transform="matrix(-.86603 .5 -.5 -.86603 0 0)" x="-65.242" y="-750.44" width="5.3134" height="12.398"/>
   <rect id="use6741" transform="scale(-1)" x="-385.05" y="-630.46" width="5.3134" height="12.398"/>
   <rect id="use6743" transform="matrix(-.86603 -.5 .5 -.86603 0 0)" x="-602.02" y="-366.66" width="5.3134" height="12.398"/>
   <rect id="use6745" transform="matrix(-.5 -.86603 .86603 -.5 0 0)" x="-658.02" y="-29.707" width="5.3134" height="12.398"/>
   <rect id="use6747" transform="rotate(-90)" x="-538.04" y="290.1" width="5.3134" height="12.398"/>
   <rect id="use6749" transform="matrix(.5 -.86603 .86603 .5 0 0)" x="-274.24" y="507.07" width="5.3134" height="12.398"/>
   <rect id="use6751" transform="matrix(.86603 -.5 .5 .86603 0 0)" x="62.713" y="563.07" width="5.3134" height="12.398"/>
  </g>
  <text id="text7005" x="412.97604" y="466.59897" fill="#000000" font-family="Nimbus Sans L" font-size="12px" stroke-width="1px" style="line-height:125%" xml:space="preserve"><tspan id="tspan7007" x="412.97604" y="466.59897">5</tspan></text>
  <text id="text7009" x="433.57169" y="493.62363" fill="#000000" font-family="Nimbus Sans L" font-size="12px" stroke-width="1px" style="line-height:125%" xml:space="preserve"><tspan id="tspan7011" x="433.57169" y="493.62363">10</tspan></text>
  <text id="text7013" x="442.42734" y="527.5257" fill="#000000" font-family="Nimbus Sans L" font-size="12px" stroke-width="1px" style="line-height:125%" xml:space="preserve"><tspan id="tspan7015" x="442.42734" y="527.5257">15</tspan></text>
  <text id="text7017" x="433.57169" y="566.01093" fill="#000000" font-family="Nimbus Sans L" font-size="12px" stroke-width="1px" style="line-height:125%" xml:space="preserve"><tspan id="tspan7019" x="433.57169" y="566.01093">20</tspan></text>
  <text id="text7021" x="406.29636" y="591.03558" fill="#000000" font-family="Nimbus Sans L" font-size="12px" stroke-width="1px" style="line-height:125%" xml:space="preserve"><tspan id="tspan7023" x="406.29636" y="591.03558">25</tspan></text>
  <text id="text7025" x="370.87384" y="602.95386" fill="#000000" font-family="Nimbus Sans L" font-size="12px" stroke-width="1px" style="line-height:125%" xml:space="preserve"><tspan id="tspan7027" x="370.87384" y="602.95386">30</tspan></text>
  <text id="text7029" x="336.15976" y="591.03558" fill="#000000" font-family="Nimbus Sans L" font-size="12px" stroke-width="1px" style="line-height:125%" xml:space="preserve"><tspan id="tspan7031" x="336.15976" y="591.03558">35</tspan></text>
  <text id="text7033" x="311.20798" y="566.01093" fill="#000000" font-family="Nimbus Sans L" font-size="12px" stroke-width="1px" style="line-height:125%" xml:space="preserve"><tspan id="tspan7035" x="311.20798" y="566.01093">40</tspan></text>
  <text id="text7037" x="301.34216" y="527.5257" fill="#000000" font-family="Nimbus Sans L" font-size="12px" stroke-width="1px" style="line-height:125%" xml:space="preserve"><tspan id="tspan7039" x="301.34216" y="527.5257">45</tspan></text>
  <text id="text7041" x="311.36398" y="493.62363" fill="#000000" font-family="Nimbus Sans L" font-size="12px" stroke-width="1px" style="line-height:125%" xml:space="preserve"><tspan id="tspan7043" x="311.36398" y="493.62363">50</tspan></text>
  <text id="text7045" x="334.05975" y="466.59897" fill="#000000" font-family="Nimbus Sans L" font-size="12px" stroke-width="1px" style="line-height:125%" xml:space="preserve"><tspan id="tspan7047" x="334.05975" y="466.59897">55</tspan></text>
 </g>
 <g id="layer5" transform="translate(-250.8 -310.76)">
  <g id="g7270">
   <path id="path7266" d="m383.43 519.68 66.419-55.305-65.89 56.628-0.52923-1.3231z" fill="#002800" fill-rule="evenodd" stroke="#002800" stroke-width="1px"/>
   <path id="path7268" d="m374.7 530.53-30.96 26.197-2.9108-4.4985 32.019-25.668 1.8523 3.9693z" fill="#280000" fill-rule="evenodd" stroke="#141414" stroke-width="1px"/>
   <path id="path7262" transform="translate(-2.8889e-5 -1.2062)" d="m385.29 525.51a6.6155 6.6155 0 1 1-13.231 0 6.6155 6.6155 0 1 1 13.231 0z" fill="#e7e7e7" stroke="#002828" stroke-linecap="round" stroke-linejoin="round" stroke-width="2"/>
   <path id="path7264" transform="matrix(.47879 0 0 .47879 197.37 272.69)" d="m385.29 525.51a6.6155 6.6155 0 1 1-13.231 0 6.6155 6.6155 0 1 1 13.231 0z" fill="#141414" stroke="#002828" stroke-linecap="round" stroke-linejoin="round" stroke-width="2"/>
  </g>
 </g>
</svg>
