<?xml version="1.0" encoding="UTF-8"?>
<!-- Created with Inkscape (http://www.inkscape.org/) -->
<svg id="svg2" width="354.95" height="1187.6" version="1.0" xmlns="http://www.w3.org/2000/svg" xmlns:cc="http://creativecommons.org/ns#" xmlns:dc="http://purl.org/dc/elements/1.1/" xmlns:rdf="http://www.w3.org/1999/02/22-rdf-syntax-ns#" xmlns:xlink="http://www.w3.org/1999/xlink">
 <defs id="defs4">
  <linearGradient id="linearGradient5238">
   <stop id="stop5244" stop-color="#c13709" offset="0"/>
   <stop id="stop5242" stop-color="#6f1100" offset="1"/>
  </linearGradient>
  <linearGradient id="linearGradient3439">
   <stop id="stop3441" stop-color="#fff" stop-opacity=".39216" offset="0"/>
   <stop id="stop3443" stop-color="#fff" stop-opacity="0" offset="1"/>
  </linearGradient>
  <linearGradient id="linearGradient3218">
   <stop id="stop5100" stop-color="#6f1100" offset="0"/>
   <stop id="stop3222" stop-color="#c13709" offset="1"/>
  </linearGradient>
  <linearGradient id="linearGradient3393" x1="351.09" x2="398.62" y1="5.2656" y2="5.2656" gradientUnits="userSpaceOnUse" xlink:href="#linearGradient3218"/>
  <linearGradient id="linearGradient3395" x1="361.47" x2="361.47" y1="67.056" y2="55.041" gradientUnits="userSpaceOnUse" xlink:href="#linearGradient3218"/>
  <linearGradient id="linearGradient3397" x1="290.97" x2="322.86" y1="61.333" y2="61.333" gradientUnits="userSpaceOnUse" xlink:href="#linearGradient3218"/>
  <linearGradient id="linearGradient3399" x1="361.47" x2="361.47" y1="67.056" y2="55.041" gradientTransform="matrix(-1 0 0 1 750.16 -33.14)" gradientUnits="userSpaceOnUse" xlink:href="#linearGradient3218"/>
  <linearGradient id="linearGradient3402" x1="290.94" x2="323.36" y1="61.331" y2="61.331" gradientTransform="matrix(-1 0 0 1 750.16 -33.14)" gradientUnits="userSpaceOnUse" xlink:href="#linearGradient3218"/>
  <linearGradient id="linearGradient3406" x1="322.86" x2="290.97" y1="61.333" y2="61.333" gradientTransform="matrix(-1 0 0 1 750.16 -33.14)" gradientUnits="userSpaceOnUse" xlink:href="#linearGradient3218"/>
  <linearGradient id="linearGradient3408" x1="361.47" x2="361.47" y1="67.056" y2="55.041" gradientTransform="matrix(-1 0 0 1 749.4 -113.12)" gradientUnits="userSpaceOnUse" xlink:href="#linearGradient3218"/>
  <linearGradient id="linearGradient3410" x1="322.86" x2="290.97" y1="61.333" y2="61.333" gradientTransform="matrix(-1 0 0 1 749.4 -113.12)" gradientUnits="userSpaceOnUse" xlink:href="#linearGradient3218"/>
  <linearGradient id="linearGradient3412" x1="360.43" x2="352.38" y1="7.1923" y2="6.9603" gradientUnits="userSpaceOnUse" xlink:href="#linearGradient3218"/>
  <linearGradient id="linearGradient3414" x1="397.6" x2="389.53" y1="6.3077" y2="6.6251" gradientUnits="userSpaceOnUse" xlink:href="#linearGradient3218"/>
  <linearGradient id="linearGradient3416" x1="152.58" x2="208.42" y1="-36.438" y2="-36.438" gradientUnits="userSpaceOnUse" xlink:href="#linearGradient5238"/>
  <radialGradient id="radialGradient3418" cx="378.32" cy="641.15" r="177.47" gradientTransform="matrix(.49202 0 0 1.9162 186.18 -555.4)" gradientUnits="userSpaceOnUse" xlink:href="#linearGradient3218"/>
  <radialGradient id="radialGradient3420" cx="375.46" cy="628.43" r="52.725" gradientTransform="matrix(1 0 0 1.4343 0 -272.96)" gradientUnits="userSpaceOnUse" xlink:href="#linearGradient3439"/>
  <linearGradient id="linearGradient3422" x1="343.9" x2="418.05" y1="308.53" y2="308.53" gradientTransform="translate(-6,32)" gradientUnits="userSpaceOnUse">
   <stop id="stop3232" stop-color="#383838" offset="0"/>
   <stop id="stop3234" offset="1"/>
  </linearGradient>
  <linearGradient id="linearGradient3424" x1="406.38" x2="345.98" y1="889.73" y2="889.73" gradientUnits="userSpaceOnUse">
   <stop id="stop3419" stop-color="#6f1100" offset="0"/>
   <stop id="stop3423" stop-color="#982404" offset=".5"/>
   <stop id="stop3425" stop-color="#ac2d06" offset=".5"/>
   <stop id="stop3421" stop-color="#c13709" offset="1"/>
  </linearGradient>
  <linearGradient id="linearGradient3426" x1="383.14" x2="370.88" y1="1029.3" y2="1029.3" gradientTransform="matrix(2.0387 0 0 2.0387 -392.31 -1069.5)" gradientUnits="userSpaceOnUse" xlink:href="#linearGradient3218"/>
  <linearGradient id="linearGradient3428" x1="380.98" x2="380.98" y1="668.55" y2="466.17" gradientTransform="translate(-6,32)" gradientUnits="userSpaceOnUse" xlink:href="#linearGradient3439"/>
  <linearGradient id="linearGradient3430" x1="202.14" x2="411.47" y1="939.11" y2="1012.6" gradientUnits="userSpaceOnUse" xlink:href="#linearGradient3218"/>
  <linearGradient id="linearGradient3432" x1="388.54" x2="373.12" y1="1027.6" y2="987.04" gradientUnits="userSpaceOnUse">
   <stop id="stop3407" stop-color="#6f1100" stop-opacity="0" offset="0"/>
   <stop id="stop3413" stop-color="#982404" offset=".5"/>
   <stop id="stop3415" stop-color="#ac2d06" offset=".75"/>
   <stop id="stop3409" stop-color="#c13709" stop-opacity="0" offset="1"/>
  </linearGradient>
  <linearGradient id="linearGradient3434" x1="375.12" x2="375.12" y1="-94.893" y2="-109.32" gradientTransform="translate(2.6363 -2.6629)" gradientUnits="userSpaceOnUse" xlink:href="#linearGradient3218"/>
  <linearGradient id="linearGradient3436" x1="375.12" x2="375.12" y1="-96.827" y2="-88.666" gradientTransform="translate(2.6363 -.26629)" gradientUnits="userSpaceOnUse" xlink:href="#linearGradient5238"/>
  <linearGradient id="linearGradient3438" x1="179.34" x2="179.34" y1="-51.284" y2="-14.667" gradientTransform="translate(197.48 -73.699)" gradientUnits="userSpaceOnUse" xlink:href="#linearGradient5238"/>
  <linearGradient id="linearGradient3440" x1="191.6" x2="168.95" y1="-36.343" y2="-36.343" gradientUnits="userSpaceOnUse">
   <stop id="stop5296" stop-color="#c13709" offset="0"/>
   <stop id="stop5300" stop-color="#6f1100" offset=".5"/>
   <stop id="stop5302" stop-color="#c13709" offset=".5"/>
   <stop id="stop5298" stop-color="#6f1100" offset="1"/>
  </linearGradient>
 </defs>
 <metadata id="metadata7">
  <rdf:RDF>
   <cc:Work rdf:about="">
    <dc:format>image/svg+xml</dc:format>
    <dc:type rdf:resource="http://purl.org/dc/dcmitype/StillImage"/>
    <dc:title>Violin 4/4</dc:title>
    <dc:date>2008-05-09</dc:date>
    <dc:creator>
     <cc:Agent>
      <dc:title>Daniel Sturm (dStulle)</dc:title>
     </cc:Agent>
    </dc:creator>
   </cc:Work>
  </rdf:RDF>
 </metadata>
 <g id="layer1" transform="translate(-145.92 192.67)">
  <g id="g5394" transform="matrix(.89318 -.44969 .44969 .89318 -213.8 253.09)">
   <g id="g2698" transform="matrix(.58028 .81442 -.81442 .58028 554.88 -137.04)">
    <g id="g2541" transform="matrix(.88075 -.47357 .47357 .88075 -192.15 209.84)">
     <g id="g3312" transform="matrix(.99996 .0087265 -.0087265 .99996 -.50613 -17.659)">
      <path id="path3338" d="m354.5-72.438-2.9062 155.41 35.625-0.03125v-0.3125h10.906l-2.6562-155.06h-1.625-33.188-6.1562z" fill="url(#linearGradient3393)" fill-rule="evenodd" stroke="#000" stroke-width="1px"/>
      <path id="path3357" d="m354.5-72.438-2.9062 155.41 35.625-0.03125v-0.3125h10.906l-2.6562-155.06h-1.625-33.188-6.1562z" fill-opacity=".78431" fill-rule="evenodd" stroke="#000" stroke-width="1px"/>
      <g id="g5278" fill-rule="evenodd" stroke="#000" stroke-width="2">
       <path id="path5088" d="m322.26 55.541 78.424 1.5063v8.6615l-78.33 0.84732-0.0942-11.015z" fill="url(#linearGradient3395)"/>
       <path id="path5090" d="m322.36 57.424v7.9083c-0.013 16.725-7.6909 17.095-13.684 17.148-7.0608 0.06147-17.035-5.1293-17.196-20.913-0.16915-16.517 9.6991-21.59 16.93-21.374 5.9336 0.17715 13.573 0.15719 13.95 17.231z" fill="url(#linearGradient3397)"/>
      </g>
      <g id="g5282" fill-rule="evenodd" stroke="#000" stroke-width="2">
       <path id="path5142" d="m427.89 22.402-78.424 1.5063v8.6615l78.33 0.84732 0.0942-11.015z" fill="url(#linearGradient3399)"/>
       <path id="path5144" d="m427.8 24.284v7.9083c2e-3 2.8999 0.50122 4.2431 0.91558 6.2432 5.7035-5.6425 7.8144-5.6485 12.768-5.6054 5.125 0.04462 10.031 0.22852 14.454 3.7582 1.2572-2.845 2.339-6.2824 2.2717-8.6327-0.0755-2.6388-1.2613-5.8088-2.3701-8.6781-4.3742 3.1773-8.7556 3.46-14.089 3.6192-5.0834 0.15176-8.3565-0.63999-13.367-4.9506-0.32585 1.7955-0.52895 3.8912-0.58291 6.3378z" fill="url(#linearGradient3402)" stroke-linejoin="round"/>
      </g>
      <g id="g5316" transform="matrix(-1 0 0 1 751.2 -47.471)" fill-rule="evenodd" stroke="#000" stroke-width="2">
       <path id="path5318" d="m427.89 22.402-78.424 1.5063v8.6615l78.33 0.84732 0.0942-11.015z" fill="url(#linearGradient3399)"/>
       <path id="path5320" d="m427.8 24.284v7.9083c2e-3 2.8999 0.50122 4.2431 0.91558 6.2432 5.7035-5.6425 7.8144-5.6485 12.768-5.6054 5.125 0.04462 10.031 0.22852 14.454 3.7582 1.2572-2.845 2.339-6.2824 2.2717-8.6327-0.0755-2.6388-1.2613-5.8088-2.3701-8.6781-4.3742 3.1773-8.7556 3.46-14.089 3.6192-5.0834 0.15176-8.3565-0.63999-13.367-4.9506-0.32585 1.7955-0.52895 3.8912-0.58291 6.3378z" fill="url(#linearGradient3406)" stroke-linejoin="round"/>
      </g>
      <g id="g5290" fill-rule="evenodd" stroke="#000" stroke-width="2">
       <path id="path5160" d="m427.14-57.578-78.424 1.5063v8.6615l78.33 0.84732 0.0942-11.015z" fill="url(#linearGradient3408)"/>
       <path id="path5162" d="m427.05-55.695v7.9083c0.013 16.725 7.6909 17.095 13.684 17.148 7.0608 0.06147 17.035-5.1293 17.196-20.913 0.16915-16.517-9.6991-21.59-16.93-21.374-5.9336 0.17715-13.573 0.15719-13.95 17.231z" fill="url(#linearGradient3410)"/>
      </g>
      <path id="path3330" d="m362.47-72.438h-8.5046l-1.6081 75.599-1.6976 79.808 8.2551-0.03125 3.5552-155.38z" fill="url(#linearGradient3412)" fill-rule="evenodd" stroke="#000" stroke-linejoin="round" stroke-width="2"/>
      <path id="path3332" d="m390.17 82.656 8.8824-0.03125-2.7894-155.06h-7.6911l1.5981 155.09z" fill="url(#linearGradient3414)" fill-rule="evenodd" stroke="#000" stroke-width="2"/>
      <path id="path5228" transform="translate(194.84 -73.433)" d="m172.51-77.978c5.7546 6.1981 11.263 5.5212 16.926 0 4.2124 10.603 18.684 62.395 12.94 83.081-14.734-11.847-29.94-11.924-44.203 0-4.5609-20.131 8.9904-73.389 14.337-83.081z" fill="url(#linearGradient3416)" fill-rule="evenodd" stroke="#000" stroke-linejoin="round" stroke-width="2"/>
      <path id="path2383" d="m400.92 335.59-51.168 0.44141c-53.069 1e-5 -121.47 33.346-121.47 124.03 0 36.341 11.506 52.118 12.5 86.031 0.17179 5.8635-2.9502 12.5-8.0002 18.549 1.1104 2.6406 2.7972 5.7561 4.5825 9.0295 17.426-0.20201 34.002 7.7559 30.793 76.984-4.1021 87.98-21.743 96.135-47.063 90.18-2.128 2.1542-3.9271 4.6482-6.0434 7.6592 3.7922 5.7968 6.203 11.327 6.7628 18.067 3.3614 40.729-24.469 91.082-24.469 126.94 0 88.32 81.048 132.97 170.16 132.97l18.418-0.1914c89.109 0 161.37-44.399 161.38-132.72 0-35.855-27.83-86.208-24.469-126.94 0.49006-5.9011 2.3989-10.874 5.4112-15.911-1.8938-3.3483-3.4762-6.3608-5.7421-9.5732-24.757 5.4808-41.968-3.6319-46.013-90.391-3.1494-67.927 12.75-76.883 29.811-77.013 1.9579-3.0881 4.1251-7.4474 5.1707-9.4986-4.818-5.9108-7.7739-12.342-7.6067-18.051 0.99357-33.913 12.5-49.722 12.5-86.062 0-90.686-59.869-125.03-115.44-124.53z" fill="url(#radialGradient3418)" stroke="#000" stroke-linecap="round" stroke-linejoin="round" stroke-width="5"/>
      <path id="path3529" d="m428.19 628.43c0 41.767-23.606 75.625-52.725 75.625-29.119 0-52.725-33.859-52.725-75.625 0-41.767 23.606-75.625 52.725-75.625 29.119 0 52.725 33.859 52.725 75.625z" fill="url(#radialGradient3420)" opacity=".5"/>
      <path id="path3206" d="m433.91 627.57-7.4856 5.2174s2.8387 2.2511 0.96818 6.9156c-1.5045 3.7518-7.1916 2.906-7.4688-3.3195-0.3158-7.3745 5.9648-13.644 14.108-13.416 22.036 0.60208 26.927 78.676 26.927 78.676l3.5961 0.82987-3.0429 2.7662s7.6194 69.043 20.138 81.17l9.0418-6.7339s-4.2752-1.3422-3.8056-8.5614c0.44695-6.8717 10.834-8.7305 12.881 0.48613 1.7852 8.0381-4.753 18.806-18.698 18.374-21.575-0.66011-30.484-80.309-30.484-80.309l-3.1812-0.82987 2.9046-2.9046s-3.9509-62.732-16.399-78.361z" fill-opacity=".78431" fill-rule="evenodd" stroke="#000" stroke-linejoin="round" stroke-width="2"/>
      <path id="path3240" d="m334 698.86h84.871v4h-84.871v-4z" fill="#eedd4d" fill-opacity=".78431" fill-rule="evenodd" stroke="#000" stroke-width="1px"/>
      <path id="path42" d="m395.75 340.94c-32.689 1.3926-68.222-3.4728-99.562 12.375-31.89 14.455-55.228 45.735-60.281 80.344-5.8197 31.142 1.308 62.261 8.5 91.875 0.0101 0.0414 0.0212 0.0836 0.0312 0.125 2.4636 13.218 3.1485 27.711-4.2188 38.625-0.50347 0.73309-0.57964 1.6784-0.20004 2.4827s1.1578 1.3463 2.0438 1.4236c12.479 1.0899 23.608 10.561 26.312 22.812 0.0154 0.0949 0.0363 0.18878 0.0625 0.28125 9.0992 26.593 4.7904 55.693 3.5 84.125-2e-3 0.0414 2e-3 0.0836 0 0.125-2.0425 21.818-4.9541 44.616-17.469 62.312-0.0166 0.0235-0.0458 0.039-0.0625 0.0625-6.9409 7.8462-18.354 11.519-28.688 9.6875-0.91608-0.16566-1.8483 0.19137-2.4194 0.92656-0.57109 0.7352-0.68642 1.7268-0.29932 2.5734 9.3857 20.951 2.8432 45.11-2.625 67.375-8.9607 31.956-23.04 65.607-15.125 100.47 7.1979 34.952 32.097 64.493 63.906 80 44.967 23.517 97.252 24.656 146.22 20.156 0.021-0.01 0.0418-0.021 0.0625-0.031 40.641-4.7961 82.96-21.958 106.94-57.281 21.2-31.67 24.449-73.18 11.969-108.69-0.014-0.0505-0.0172-0.10573-0.0312-0.15625-8.7672-31.587-21.939-63.823-15.156-96 0.0251-0.0822 0.046-0.16565 0.0625-0.25-7e-3 0.0681 0.1777-0.63696 0.5625-1.375s0.90616-1.567 1.3125-2.4688c0.20317-0.45089 0.39523-0.91316 0.5-1.5625s0.0954-1.768-0.71875-2.6875c-0.81416-0.91948-1.9095-1.0823-2.6562-1.0625-0.5765 0.0153-1.1234 0.18885-1.6875 0.34375v-0.0312c-12.507 1.2531-25.824-5.0592-30.656-16.812-0.0268-0.0849-0.0581-0.1684-0.0937-0.25-12.594-23.521-12.116-51.558-14.688-78.469-2e-3 -0.031 2e-3 -0.0628 0-0.0937-1.171-23.948-1.5565-49.09 9.0312-70.312 4.9684-7.5202 13.469-12.925 22.438-13.812 0.88543-0.0909 1.6558-0.64569 2.0226-1.4566 0.36687-0.81097 0.27493-1.7558-0.24138-2.4808-8.4946-12.056-6.4201-28.011-3.1875-42.469 0.0107-0.0207 0.0211-0.0415 0.0312-0.0625 5.1188-25.83 12.783-52.339 8.9062-79.719h0.0312c-4e-3 -0.0423-0.0277-0.0827-0.0312-0.125-3.1379-37.25-23.671-75.727-59.969-90.75-17.059-7.6606-35.845-10.491-54.344-10.094-0.0104-7e-5 -0.0208-7e-5 -0.0312 0zm0.15625 5h0.0312c17.897-0.38107 36 2.4043 52.219 9.6875 0.0207 0.0107 0.0415 0.0211 0.0625 0.0312 34.152 14.135 53.932 50.936 56.906 86.688 9e-3 0.0419 0.0198 0.0836 0.0312 0.125 3.7224 26.055-3.6917 52.033-8.875 78.188-3.062 13.695-5.3742 29.784 2.1875 43.25-9.2197 1.969-17.509 7.5425-22.625 15.375-0.057 0.0802-0.10913 0.16367-0.15625 0.25-11.392 22.726-10.776 48.904-9.5938 73.031-1e-3 0.0417-1e-3 0.0833 0 0.125 2.5338 26.445 1.8809 55.235 15.156 80.219 0.0422 0.0793 0.0513 0.17073 0.0937 0.25h0.0312c5.6723 13.434 20.119 20.506 34.062 19.719-0.026 0.0493-0.0366 0.0752-0.0625 0.125-0.42722 0.81941-0.87568 1.6995-1.0625 2.875h-0.0312c-9e-3 0.0424-0.0224 0.0826-0.0312 0.125-7e-3 0.0505-0.0256 0.0732-0.0312 0.125h0.0312c-7.0787 34.061 6.6522 67.175 15.281 98.312 0.0191 0.0528 0.0399 0.10488 0.0625 0.15625 12.044 34.129 8.889 74.15-11.344 104.38-22.861 33.678-63.716 50.476-103.38 55.156-48.562 4.4629-99.858 3.1513-143.47-19.656-0.0207-0.0107-0.0415-0.0211-0.0625-0.0312-30.478-14.858-54.369-43.302-61.219-76.562 2.6e-4 -0.0208 2.6e-4 -0.0417 0-0.0625-7.4729-32.914 6.017-65.693 15.094-98.062 0.011-0.031 0.0214-0.0623 0.0312-0.0937 5.1357-20.911 11.648-44.722 3.7188-66.688 10.859 0.64686 21.973-3.5317 29.25-11.812 0.056-0.0701 0.10813-0.14308 0.15625-0.21875 13.633-19.109 16.47-43.013 18.531-65.062 0.0115-0.0414 0.0219-0.0831 0.0312-0.125 1.2626-28.01 5.8154-57.759-3.6875-85.812-0.0311-0.0918-0.0311-0.18954-0.0625-0.28125h-0.0312c-3.025-13.13-13.958-23.191-26.969-25.812 6.4886-12.156 5.5151-26.659 3.1562-39.25-9e-3 -0.0419-0.0198-0.0836-0.0312-0.125-7.1898-29.6-14.049-60.109-8.4688-89.969 5.9e-4 -0.0312 5.9e-4 -0.0625 0-0.0937 4.7953-32.841 27.256-62.885 57.5-76.594 0.0317-0.0201 0.063-0.041 0.0937-0.0625 29.586-14.961 64.164-10.397 97.469-11.812z" fill="#894300" fill-opacity=".58823" stroke="#421402" stroke-linejoin="round" stroke-width="2"/>
      <path id="path3228" d="m351.61 83.192 46.507 0.03185 13.425 514.65-73.143-0.25 13.211-514.43z" fill="url(#linearGradient3422)" fill-rule="evenodd" stroke="#000" stroke-width="1px"/>
      <path id="path3244" d="m337.88 810.53h74.125c-6 51-23.438 53.769-22.505 104.02 0.53356 27.495 7.2426 78.382 7.9498 111.62l-39.663-0.7071c0.70711-32.527 6.7643-84.074 6.6642-111.07-0.54545-49.048-21.571-54.354-26.571-103.85z" fill="url(#linearGradient3424)" fill-rule="evenodd" stroke="#000" stroke-width="2"/>
      <path id="path3356" d="m338.44 815.25 0.63243 5h71.555l0.73229-5h-72.92z" fill-rule="evenodd"/>
      <path id="path2436" d="m386.74 1028.9c0 4.2377-4.6862 5.4698-10.46 5.4698-5.7741 0-10.46-1.2321-10.46-5.4698 0-4.2379 4.6862-5.5662 10.46-5.5662 5.7741 0 10.46 1.3283 10.46 5.5662z" fill="url(#linearGradient3426)" stroke="#000" stroke-linecap="round" stroke-linejoin="round" stroke-width="1.5764"/>
      <path id="path3368" d="m352.95 827.17v6.0938c-1.2273 0.6468-2.0625 1.8921-2.0625 3.375 0 2.1314 1.7124 3.875 3.8438 3.875 2.1314 0 3.875-1.7437 3.875-3.875 0-1.4729-0.84868-2.724-2.0625-3.375v-6.0938h-3.5938z" fill="#894300" fill-opacity=".58823" stroke="#421402" stroke-linejoin="round" stroke-width="2"/>
      <path id="path3427" d="m351.61 83.192 46.507 0.03185 13.425 514.65-73.143-0.25 13.211-514.43z" fill="url(#linearGradient3428)" fill-rule="evenodd" stroke="#000" stroke-width="2"/>
      <path id="path3374" d="m354.33 827.78-7.9696-127.31 14.214-617.25 2.2548-26.534" fill="none" stroke="#ece9a5" stroke-linecap="round" stroke-width="4"/>
      <path id="path3379" d="m393.55 827.17v6.0938c-1.2273 0.6468-2.0625 1.8921-2.0625 3.375 0 2.1314 1.7124 3.875 3.8438 3.875 2.1314 0 3.875-1.7437 3.875-3.875 0-1.4729-0.84868-2.724-2.0625-3.375v-6.0938h-3.5938z" fill="#894300" fill-opacity=".58823" stroke="#421402" stroke-linejoin="round" stroke-width="2"/>
      <path id="path3381" d="m380.02 827.17v6.0938c-1.2273 0.6468-2.0625 1.8921-2.0625 3.375 0 2.1314 1.7124 3.875 3.8438 3.875 2.1314 0 3.875-1.7437 3.875-3.875 0-1.4729-0.84868-2.724-2.0625-3.375v-6.0938h-3.5938z" fill="#894300" fill-opacity=".58823" stroke="#421402" stroke-linejoin="round" stroke-width="2"/>
      <path id="path3383" d="m366.48 827.17v6.0938c-1.2273 0.6468-2.0625 1.8921-2.0625 3.375 0 2.1314 1.7124 3.875 3.8438 3.875 2.1314 0 3.875-1.7437 3.875-3.875 0-1.4729-0.84868-2.724-2.0625-3.375v-6.0938h-3.5938z" fill="#894300" fill-opacity=".58823" stroke="#421402" stroke-linejoin="round" stroke-width="2"/>
      <path id="path5342" d="m366.85 56.603-0.75318 9.4146" fill="none" stroke="#ece9a5" stroke-linecap="round" stroke-width="4"/>
      <path id="path5344" d="m370.9 56.791-0.75318 9.4146" fill="none" stroke="#ece9a5" stroke-linecap="round" stroke-width="4"/>
      <path id="path5362" d="m366.85 56.603-0.75318 9.4146" fill="none" opacity=".75" stroke="#000" stroke-linecap="round" stroke-width="4"/>
      <path id="path5364" d="m370.9 56.791-0.75318 9.4146" fill="none" opacity=".75" stroke="#000" stroke-linecap="round" stroke-width="4"/>
      <path id="path3385" d="m368.08 827.13-2.3666-126.51 4.1351-617.58-3.6629-107.41" fill="none" stroke="#ece9a5" stroke-linecap="round" stroke-width="3.5"/>
      <path id="path5352" d="m380.22 22.522 0.56487 10.168" fill="none" stroke="#ece9a5" stroke-linecap="round" stroke-width="2.5"/>
      <path id="path5386" d="m380.22 22.522 0.56487 10.168" fill="none" opacity=".75" stroke="#b5000f" stroke-linecap="round" stroke-width="2.5"/>
      <path id="path5354" d="m377.58 22.71 0.56487 10.168" fill="none" stroke="#ece9a5" stroke-linecap="round" stroke-width="2.5"/>
      <path id="path5388" d="m377.58 22.71 0.56487 10.168" fill="none" opacity=".75" stroke="#b5000f" stroke-linecap="round" stroke-width="2.5"/>
      <path id="path3387" d="m381.8 827.13 5.4637-126.4-8.2801-617.79 3.6483-140.51" fill="none" stroke="#ece9a5" stroke-linecap="round" stroke-width="3"/>
      <path id="path3389" d="m395.11 827.52 12.529-126.65-18.752-617.46-3.3991-60.853" fill="none" stroke="#ece9a5" stroke-linecap="round" stroke-width="2.5"/>
      <path id="path3588" d="m354.33 827.78-3.6928-58.991" fill="none" opacity=".75" stroke="#000" stroke-linecap="round" stroke-width="4"/>
      <path id="path59" d="m368.08 827.13-0.86822-45.894" fill="none" opacity=".75" stroke="#002bb9" stroke-linecap="round" stroke-width="3.5"/>
      <path id="path61" d="m381.8 827.13 2.3423-54.188" fill="none" opacity=".75" stroke="#039c12" stroke-linecap="round" stroke-width="3"/>
      <path id="path63" d="m395.11 827.52 3.6534-36.93" fill="none" opacity=".75" stroke="#b5000f" stroke-linecap="round" stroke-width="2.5"/>
      <path id="path3217" d="m410.48 1030.1c0-6.1323-0.84019-7.1552-2.542-7.1552-1.6078 0-2.3537 1.0229-2.3537 7.1552 0 0-0.19281 2.2595 2.3537 2.2595s2.542-2.2595 2.542-2.2595z" fill="#d3d7dd" stroke="#000" stroke-linecap="round" stroke-linejoin="round" stroke-width="2"/>
      <path id="path3224" d="m349.66 1030.1c0-6.1323-0.84019-7.1552-2.542-7.1552-1.6078 0-2.3537 1.0229-2.3537 7.1552 0 0-0.19281 2.2595 2.3537 2.2595s2.542-2.2595 2.542-2.2595z" fill="#d3d7dd" stroke="#000" stroke-linecap="round" stroke-linejoin="round" stroke-width="2"/>
      <g id="g2432" fill-rule="evenodd" stroke="#000" stroke-linecap="round" stroke-linejoin="round" stroke-width="2">
       <path id="path3393" d="m204.64 938.13c61.778-55.387 141.53-52.466 160.71 56.711l49.47 3.9094c14.332 0.52535 32.163 22.714 2.8966 25.686-98.303 9.9842-181.79-13.286-213.07-86.307z" fill="url(#linearGradient3430)"/>
       <path id="path3403" d="m204.64 938.13c61.778-55.387 141.53-52.466 160.71 56.711l49.47 3.9094c14.332 0.52535 32.163 22.714 2.8966 25.686-98.303 9.9842-181.79-13.286-213.07-86.307z" fill="url(#linearGradient3432)"/>
      </g>
      <g id="g3298">
       <path id="rect3226" d="m291.72 659.19c-4.543 20.656-5.9062 42.469-5.9062 42.469l-3.5938 0.8125 3.0312 2.7812c0-1e-5 -1.856 16.708-5.2188 35.125l10.75 1.625c3.7056-17.154 5.4062-32.344 5.4062-32.344l3.1562-0.8125-2.875-2.9062c-1e-5 0 1.4544-23.41 5.4375-45.188l-10.188-1.5625z" fill="#fff"/>
       <path id="rect3228" d="m295.66 663.56-11.281 74.312 7.0312 1.0625c3.2522-15.839 4.7812-29.281 4.7812-29.281l3.1562-0.8125-2.875-2.9062c-1e-5 0 1.3117-20.868 4.8125-41.531l-5.625-0.84375z" fill="#008612"/>
       <path id="text3230" d="m290.62 669.84c-6e-3 0.0858-0.0183 0.19647-0.0312 0.28125-0.0134 0.0882-0.0116 0.1662-0.0312 0.25 0.0767-2e-3 0.13972-5e-3 0.21875 0l-0.0625 0.5-0.125 0.875-0.96875-0.15625c-0.095-0.0145-0.18658-0.0456-0.28125-0.0625-0.0261 0.15786-0.0367 0.31133-0.0625 0.46875 0.0918 0.0117 0.18977 0.0173 0.28125 0.0312l0.96875 0.125-0.15625 0.875-0.0625 0.53125-0.1875-0.0312-0.0625 0.4375 0.1875 0.0312 0.375 0.0312 1.6875 0.28125 0.28125-1.8438c0.31833 0.0519 0.62278 0.11186 0.9375 0.1875 3e-3 -0.0863 0.0178-0.16179 0.0312-0.25 0.0129-0.0848 0.0389-0.16336 0.0625-0.25-0.32298-0.0214-0.64939-0.0486-0.96875-0.0937l0.125-0.875 0.0625-0.5 0.0625-0.4375-0.375-0.0625-0.21875-0.0312-1.0626-0.15625-0.1875-0.0312c-0.14246-0.0217-0.29915-0.0762-0.4375-0.125zm0.53125 0.59375 1.0938 0.15625 0.21875 0.0312-0.0625 0.5-0.125 0.875-1.3125-0.21875 0.125-0.84375 0.0625-0.5zm-0.25 1.7812 1.3125 0.21875-0.21875 1.375-1.3125-0.1875 0.0625-0.53125 0.15625-0.875zm-2.0625 2.625c-0.0224 0.14585-0.0716 0.29218-0.0937 0.4375 0.0684 7e-3 0.14752 0.0204 0.21875 0.0312l2.6875 0.40625 0.71875 0.0937-0.0625 0.5625-0.4375 2.875-3.625-0.5625c-0.0208 0.14731-0.0108 0.29095-0.0312 0.4375l3.9062 0.59375 0.5-3.2812 0.0937-0.5625c0.0139-0.0916 0.0341-0.25094 0.0625-0.4375-0.0746-0.0113-0.19789-9e-3 -0.34375-0.0312l-0.71875-0.125-2.6875-0.40625c-0.0625-9e-3 -0.12505-0.0211-0.1875-0.0312zm0.3125 0.71875c-8e-3 0.21391-0.031 0.41809-0.0625 0.625l-0.28125 1.8438c-0.032 0.2103-0.0698 0.42169-0.125 0.625 0.0689 4e-3 0.15429-0.01 0.21875 0 0.0678 0.0103 0.12408 0.0459 0.1875 0.0625 8e-3 -0.21053 0.0305-0.44592 0.0625-0.65625l0.125-0.84375 0.28125 0.0312 0.625 0.0937-0.0625 0.40625-0.15625-0.21875-0.65625 0.40625 0.21875 0.34375 0.5625-0.34375-0.0312 0.0937c-0.0253 0.1662-0.0481 0.33687-0.0937 0.5 0.0655 3e-3 0.12306 0.0214 0.1875 0.0312 0.0678 0.0103 0.15532 0.0147 0.21875 0.0312 5e-3 -0.1693 6e-3 -0.33378 0.0312-0.5l0.0937-0.6875 0.40625 0.0625 0.3125 0.0312-0.125 0.78125c-0.0294 0.19334-0.0718 0.40403-0.125 0.59375 0.0689 4e-3 0.12306-0.01 0.1875 0 0.0645 0.01 0.15193 0.0454 0.21875 0.0625 6e-3 -0.19695 2e-3 -0.40041 0.0312-0.59375l0.28125-1.6875c0.0294-0.19334 0.0724-0.40743 0.125-0.59375-0.0689-4e-3 -0.15432 0.01-0.21875 0-0.0645-0.01-0.12069-0.0454-0.1875-0.0625-5e-3 0.19357-0.0331 0.40044-0.0625 0.59375l-0.0625 0.5-0.3125-0.0625-0.40625-0.0312 0.0625-0.375c0.0253-0.16621 0.0794-0.33691 0.125-0.5-0.0655-3e-3 -0.15091-0.0209-0.21875-0.0312-0.0645-0.01-0.12411-0.0147-0.1875-0.0312-5e-3 0.1693-6e-3 0.3338-0.0312 0.5l-0.0625 0.375-0.625-0.0937-0.28125-0.0312 0.0937-0.59375c0.0315-0.20691 0.0693-0.41833 0.125-0.625-0.0655-3e-3 -0.11967 0.0103-0.1875 0-0.0645-0.01-0.15193-0.0141-0.21875-0.0312zm-1.5 7.75c-0.0188 0.14797-0.044 0.29066-0.0625 0.4375l0.46875 0.0625 1.7812 0.28125-0.0312 0.21875-0.1875 1.2812c-0.0232 0.15264-0.0757 0.2958-0.125 0.4375 0.079 5e-3 0.17199 0.0194 0.25 0.0312 0.078 0.0118 0.14176 0.0438 0.21875 0.0625-2e-3 -0.14946 8e-3 -0.31611 0.0312-0.46875l0.21875-1.3125 0.0312-0.1875 0.5625 0.0937c0.31205 0.0475 0.62956 0.0816 0.9375 0.15625 3e-3 -0.0864 0.0178-0.1618 0.0312-0.25s8e-3 -0.16675 0.0312-0.25c-0.3162-0.0203-0.62544-0.0463-0.9375-0.0937l-2.75-0.4375-0.46875-0.0625zm-0.46875 3.6875c-0.0167 0.14372-0.0149 0.29528-0.0312 0.4375l0.125 0.0625 1.7188 0.6875 0.1875-0.25c-0.78888-0.33512-1.3448-0.58465-1.6562-0.75-0.12999-0.069-0.22717-0.12174-0.34375-0.1875zm2.75 0.0312-0.84375 0.46875 0.1875 0.375 0.875-0.5-0.21875-0.34375zm1.0312 0.625c-0.2012 0.2505-0.45153 0.41699-0.75 0.53125l0.15625 0.40625c0.36808-0.13838 0.65794-0.37824 0.90625-0.6875l-0.3125-0.25zm-2.6875 0.5c-0.0112 0.16487-0.0406 0.33329-0.0625 0.5l-1.125-0.40625-0.1875 1.1875c-6e-3 0.0567 6e-3 0.0998 0 0.15625-0.0759 0.69592-0.15171 1.2574-0.21875 1.9062l0.21875 0.0312 0.125-0.75 0.84375 0.21885c-0.0366 0.24082-0.0998 0.48439-0.15625 0.71875 0.0616 6e-3 0.12643 0.0219 0.1875 0.0312 0.0644 0.01 0.12696 0.0186 0.1875 0.0312 0.0152-0.23714 0.0571-0.47789 0.0937-0.71875l1.125 0.28125 0.3125-2 0.0625-0.125c0.0504 0.0562 0.0951 0.10183 0.15625 0.15625l0.0937 0.0625-0.28125 1.875c-0.0268 0.17638-0.0784 0.36137-0.125 0.53125 0.0621 3e-3 0.12645-9e-3 0.1875 0 0.0645 0.01 0.12409 0.0147 0.1875 0.0312 3e-3 -0.1766 0.0357-0.35484 0.0625-0.53125l0.25-1.6875c0.1674 0.10874 0.34513 0.20437 0.53125 0.28125 0.0332-0.12684 0.0652-0.25569 0.125-0.375-0.30485-0.095-0.56355-0.22613-0.8125-0.4375-0.24609-0.20747-0.44743-0.45707-0.59375-0.75-0.0509 0.10678-0.10574 0.19999-0.1875 0.28125 0.0673 0.12822 0.12516 0.22885 0.21875 0.34375l0.0937 0.0937h-0.0625l-1-0.34375c0.0346-0.18213 0.0836-0.35013 0.125-0.53125-0.0616-6e-3 -0.12306-0.0215-0.1875-0.0312-0.0611-9e-3 -0.12696-0.0186-0.1875-0.0312zm-0.9375 0.625 0.8125 0.28125-0.0312 0.34375-0.0937-0.1875-0.75 0.375 0.1875 0.375 0.625-0.3125-0.15625 0.9375-0.84375-0.21875 0.25-1.5938zm1.125 0.375 0.84375 0.3125-0.0625 0.34375-0.1875-0.28125-0.65625 0.40625 0.1875 0.34375 0.625-0.34375-0.125 0.9375-0.84375-0.21875 0.21875-1.5zm-1.9688 4.4063c-3e-3 0.0289 3e-3 0.065 0 0.0937 0.0192-0.0268 0.0103-0.0669 0.0312-0.0937h-0.0312zm1.1562 0.21875c-0.0798 0.0171-0.15579 0.0449-0.21875 0.0937-0.12592 0.0977-0.22276 0.28345-0.3125 0.53125l-0.0625 0.1875c-0.0615 0.16879-0.13713 0.27867-0.21875 0.34375-0.0818 0.0662-0.18814 0.11266-0.3125 0.0937-0.0617-9e-3 -0.10986-0.0663-0.15625-0.0937-0.0132 0.14124-0.0498 0.23758-0.0625 0.375 0.0611 0.0248 0.11322 0.0512 0.1875 0.0625 0.20578 0.0313 0.39058 0.01 0.53125-0.0937 0.14164-0.10224 0.2563-0.28311 0.34375-0.53125l0.0625-0.1875c0.0636-0.18235 0.12065-0.31576 0.1875-0.375 0.0678-0.0579 0.1693-0.0795 0.28125-0.0625 0.13342 0.0203 0.2242 0.0759 0.28125 0.1875 0.0569 0.11276 0.0596 0.28215 0.0312 0.46875-0.0163 0.1074-0.0457 0.20184-0.0937 0.3125-0.0481 0.11068-0.10554 0.22316-0.1875 0.34375l0.34375 0.0625c0.0626-0.12237 0.11604-0.255 0.15625-0.375 0.0402-0.11998 0.0757-0.22502 0.0937-0.34375 0.0421-0.27702 0.0111-0.50964-0.0937-0.6875-0.105-0.17676-0.27613-0.27846-0.5-0.3125-0.0967-0.0147-0.20144-0.0171-0.28125 0zm-1.375 2.125c-0.0108 0.11955-0.0209 0.22752-0.0312 0.34375l0.625 0.0937-0.1875 1.25-0.5625-0.0937c-9e-3 0.10371-0.0228 0.24361-0.0312 0.34375l1.875 0.28125 0.0312-0.34375-1.0312-0.15625 0.1875-1.25 1.0312 0.15625 0.0625-0.34375-1.9688-0.28125zm-0.21875 2.5625c-0.0876 1.0745-0.12043 1.2723-0.15625 1.7812l1.7812-0.40625 0.0625-0.375-1.6875-1zm0.125 0.46875 1.2188 0.65625-1.3438 0.28125 0.125-0.9375zm-0.3125 2c-3e-3 0.047-0.0295 0.28566-0.0312 0.3125l1.1875 0.1875-2.2812 0.8125-0.0625 0.46875 2.5312 0.375 0.0312-0.3125-2.125-0.34375 2.3125-0.78125 0.0625-0.46875-1.625-0.25zm-0.59375 2.5c-0.16959 0.0312-0.30468 0.0938-0.4375 0.1875-0.24747 0.17652-0.40005 0.45509-0.46875 0.8125l0.25 0.21875c3e-3 -0.0311-5e-3 -0.061 0-0.0937 0.0471-0.3098 0.17828-0.5265 0.375-0.65625 0.19655-0.12859 0.47103-0.14566 0.8125-0.0937 0.34258 0.0521 0.56931 0.16252 0.71875 0.34375 0.14926 0.18233 0.20336 0.44022 0.15625 0.75-0.0239 0.15716-0.0803 0.3033-0.15625 0.4375-0.0759 0.13421-0.15459 0.23347-0.28125 0.34375l0.34375 0.0625c0.0982-0.11347 0.18659-0.23192 0.25-0.375 0.0632-0.14194 0.0999-0.30365 0.125-0.46875 0.0602-0.39573 0.0102-0.70964-0.1875-0.96875-0.19679-0.25781-0.52369-0.43705-0.9375-0.5-0.20635-0.0314-0.39291-0.0312-0.5625 0zm0.15625 1.2812-0.0937 0.5625h-0.0937c-2.6e-4 2e-3 -0.0284 0.28667-0.0312 0.3125l0.34375 0.0625 0.15625-0.90625-0.28125-0.0312zm-0.3125 1.5312c-9e-3 0.0808-0.0189 0.23681-0.0312 0.34375l0.21875 0.0312-0.1875 1.25-0.1875-0.0312c-0.0236 0.19606-5e-3 0.12504-0.0312 0.34375l1.5 0.21875 0.0312-0.34375-1.0312-0.15625 0.1875-1.25 1.0312 0.15625 0.0625-0.34375-1.5625-0.21875zm-0.3125 2.7188c-0.01 0.0804-0.021 0.22967-0.0312 0.3125l1.0625 0.59375-1.1875 0.25c-0.0123 0.0981-0.0186 0.24282-0.0312 0.34375l1.5-0.34375 0.0625-0.375-1.375-0.78125zm-0.28125 2.2812c-0.0138 0.10844-0.0483 0.23256-0.0625 0.34375l1.4062 0.21875 0.0625-0.34375-1.4062-0.21875zm-0.40625 3.0938c-0.019 0.1433-0.043 0.22887-0.0625 0.375 0.0231 3e-3 0.0387-4e-3 0.0625 0 0.33467 0.0509 0.597 0.16313 0.75 0.34375 0.15413 0.18076 0.20025 0.42932 0.15625 0.71875-0.0224 0.14698-0.0521 0.28428-0.125 0.40625-0.0731 0.12307-0.18757 0.21351-0.3125 0.3125l0.375 0.0625c0.0981-0.10539 0.15872-0.21519 0.21875-0.34375 0.061-0.12723 0.10194-0.28598 0.125-0.4375 0.0583-0.3833-0.0171-0.68125-0.21875-0.9375-0.20052-0.25607-0.49922-0.4381-0.90625-0.5-0.0226-3e-3 -0.0404 3e-3 -0.0625 0zm-0.34375 2.5938c-0.0828 0.60107-0.19178 1.271-0.28125 1.9062l1.2812 0.21875 0.0625-0.34375-1.0625-0.15625 0.1875-1.25 1.0625 0.15625 0.0312-0.34375-1.2812-0.1875zm-0.375 2.5938c-0.0167 0.11721-0.0456 0.2255-0.0625 0.34375l1.2812 0.21875 0.0625-0.34375-1.2812-0.21875zm-0.15625 1.0312c-0.0173 0.12026-0.045 0.2225-0.0625 0.34375l0.875 0.125-0.9375 0.34375c-0.0156 0.10766-0.0154 0.2041-0.0312 0.3125l1.3438-0.46875 0.0937-0.46875-1.2812-0.1875zm-0.25 1.5938c-0.016 0.10898-0.0151 0.23407-0.0312 0.34375l1.25 0.1875 0.0625-0.34375-1.2813-0.1875zm-0.15625 1.1875c-0.0168 0.11286-0.0456 0.23021-0.0625 0.34375l0.875 0.46875-0.96875 0.1875c-0.0173 0.11481-0.0451 0.22829-0.0625 0.34375l1.3438-0.28125 0.0625-0.40625-1.1875-0.65625z"/>
       <path id="text3236" d="m297.5 666.06-0.625 4.1875 0.75 0.125 0.5-3.3125 2.6562 0.40625c0.0482-0.30246 0.0759-0.6035 0.125-0.90625l-3.4062-0.5zm-0.6875 4.5312-0.15625 0.96875 1.6562 0.875-0.46875 3.0312-1.8125 0.34375-0.15625 0.96875 3.6562-0.8125c0.0397-0.29308 0.0845-0.58036 0.125-0.875l-1 0.21875 0.375-2.5 0.875 0.5c0.0435-0.30528 0.0806-0.59975 0.125-0.90625l-3.2188-1.8125zm-1.0938 7.1562-0.125 0.90625 2.8438 0.4375-0.15625 1c-0.055 0.36181-0.16437 0.62689-0.34375 0.8125-0.17983 0.18858-0.51381 0.37688-1 0.53125l-1.875 0.59375-0.125 0.96875 1.9688-0.625c0.40833-0.12917 0.75448-0.28357 1-0.4375 0.24505-0.15092 0.40386-0.31413 0.5-0.5 0.0409 0.31393 0.14465 0.56588 0.3125 0.78125 0.15662-1.3 0.32492-2.5874 0.5-3.9375l-3.5-0.53125zm-0.96875 6.4375-0.15625 0.90625 3.25 0.5-3.7188 2.75-0.1875 1.2188 4.1562-3.0625 0.125 0.1875c0.0718-0.64754 0.14203-1.2705 0.21875-1.9375l-3.6875-0.5625z" fill="#fff"/>
      </g>
      <path id="path3200" d="m312.85 627.57 7.4856 5.2174s-2.8387 2.2511-0.96818 6.9156c1.5045 3.7518 7.1916 2.906 7.4688-3.3195 0.3158-7.3745-5.9648-13.644-14.108-13.416-22.036 0.60208-26.927 78.676-26.927 78.676l-3.5961 0.82987 3.0429 2.7662s-7.6194 69.043-20.138 81.17l-9.0418-6.7339s4.2752-1.3422 3.8056-8.5614c-0.44695-6.8717-10.834-8.7305-12.881 0.48613-1.7852 8.0381 4.753 18.806 18.698 18.374 21.575-0.66011 30.484-80.309 30.484-80.309l3.1812-0.82987-2.9046-2.9046s3.9509-62.732 16.399-78.361z" fill-opacity=".78431" fill-rule="evenodd" stroke="#000" stroke-linejoin="round" stroke-width="2"/>
      <rect id="rect5178" x="334.38" y="-110.98" width="84.873" height="12.427" fill="url(#linearGradient3434)" stroke="#000" stroke-linecap="round" stroke-linejoin="round" stroke-width="2"/>
      <path id="path5180" d="m334.38-98.324 84.873-0.03231s-1.13 7.5594-5.5594 8.9232l-73.095-0.23398c-4.9263-1.1317-6.2183-8.6569-6.2183-8.6569z" fill="url(#linearGradient3436)" fill-rule="evenodd" stroke="#000" stroke-linejoin="round" stroke-width="2"/>
      <path id="path5220" d="m340.72-89.899c3.4491-1.2152 8.6956-22.327 10.138-33.818l53.238-0.078c0.078 11.703 5.2076 32.707 9.3902 34.429l-72.766-0.53257z" fill="url(#linearGradient3438)" fill-rule="evenodd" stroke="#000" stroke-linejoin="round" stroke-width="2"/>
      <path id="path5224" transform="translate(194.84 -73.433)" d="m172.51-77.978c2.5741 1.2612 5.3812 1.631 7.7223 0 2.2942 1.6209 5.1154 1.9241 8.8276 0 2.1392 29.157-0.12281 56.507 12.402 82.987-8.5315-4.1504-14.209-7.0503-21.453 0.094146-8.5898-6.3551-13.411-4.0131-21.297 0.18829 10.956-26.292 11.827-54.904 13.798-83.269z" fill="url(#linearGradient3440)" fill-rule="evenodd" stroke="#000" stroke-linejoin="round" stroke-width="2"/>
      <path id="path5338" d="m369.58-24.74 0.56487 10.168" fill="none" stroke="#ece9a5" stroke-linecap="round" stroke-width="3.5"/>
      <path id="path5340" d="m373.06-24.552 0.56487 10.168" fill="none" stroke="#ece9a5" stroke-linecap="round" stroke-width="3.5"/>
      <path id="path5346" d="m379.46-57.314-0.1883 10.168" fill="none" stroke="#ece9a5" stroke-linecap="round" stroke-width="3"/>
      <path id="path5348" d="m376.26-57.503-0.1883 10.168" fill="none" stroke="#ece9a5" stroke-linecap="round" stroke-width="3"/>
      <path id="path5350" d="m382.85 22.522 0.56487 10.168" fill="none" stroke="#ece9a5" stroke-linecap="round" stroke-width="2.5"/>
      <path id="path5382" d="m374.95 22.71 0.56487 10.168" fill="none" stroke="#ece9a5" stroke-linecap="round" stroke-width="2.5"/>
      <path id="path5390" d="m374.95 22.71 0.56487 10.168" fill="none" opacity=".75" stroke="#b5000f" stroke-linecap="round" stroke-width="2.5"/>
      <path id="path5384" d="m372.31 22.757 0.56487 10.168" fill="none" stroke="#ece9a5" stroke-linecap="round" stroke-width="2.5"/>
      <path id="path5392" d="m372.31 22.757 0.56487 10.168" fill="none" opacity=".75" stroke="#b5000f" stroke-linecap="round" stroke-width="2.5"/>
      <path id="path5366" d="m361.28 74.866 1.5449-18.18" fill="none" opacity=".75" stroke="#000" stroke-linecap="round" stroke-width="4"/>
      <path id="path5368" d="m376.64-24.552 0.56487 10.168" fill="none" stroke="#ece9a5" stroke-linecap="round" stroke-width="3.5"/>
      <path id="path5370" d="m373.06-24.552 0.56487 10.168" fill="none" opacity=".75" stroke="#002bb9" stroke-linecap="round" stroke-width="3.5"/>
      <path id="path5372" d="m376.64-24.552 0.56487 10.168" fill="none" opacity=".75" stroke="#002bb9" stroke-linecap="round" stroke-width="3.5"/>
      <path id="path5374" d="m373.06-57.503-0.1883 10.168" fill="none" stroke="#ece9a5" stroke-linecap="round" stroke-width="3"/>
      <path id="path5376" d="m379.46-57.314-0.1883 10.168" fill="none" opacity=".75" stroke="#039c12" stroke-linecap="round" stroke-width="3"/>
      <path id="path5378" d="m376.26-57.503-0.1883 10.168" fill="none" opacity=".75" stroke="#039c12" stroke-linecap="round" stroke-width="3"/>
      <path id="path5380" d="m373.06-57.503-0.1883 10.168" fill="none" opacity=".75" stroke="#039c12" stroke-linecap="round" stroke-width="3"/>
     </g>
    </g>
   </g>
  </g>
 </g>
</svg>
