<?xml version="1.0" encoding="UTF-8"?>
<!-- Created with Inkscape (http://www.inkscape.org/) -->
<svg id="svg1311" width="210mm" height="148mm" sodipodi:docbase="/home/patricia/clipart/karg/balloon" sodipodi:docname="thought_balloon.svg" sodipodi:version="0.32" xmlns="http://www.w3.org/2000/svg" xmlns:cc="http://web.resource.org/cc/" xmlns:dc="http://purl.org/dc/elements/1.1/" xmlns:rdf="http://www.w3.org/1999/02/22-rdf-syntax-ns#" xmlns:sodipodi="http://inkscape.sourceforge.net/DTD/sodipodi-0.dtd">
 <sodipodi:namedview id="base" bordercolor="#666666" borderopacity="1.0" gridempspacing="5" gridoriginx="0.0000000mm" gridoriginy="0.0000000mm" gridspacingx="5.0000000mm" gridspacingy="5.0000000mm" gridtolerance="1.0000000mm" guidetolerance="5.0000000mm" pagecolor="#ffffff" showgrid="true"/>
 <metadata id="metadata1316">
  <rdf:RDF>
   <cc:Work rdf:about="">
    <dc:format>image/svg+xml</dc:format>
    <dc:type rdf:resource="http://purl.org/dc/dcmitype/StillImage"/>
    <cc:license rdf:resource="http://web.resource.org/cc/PublicDomain"/>
    <dc:title>Cartoon Balloon</dc:title>
    <dc:date>08-Apr-2006</dc:date>
    <dc:creator>
     <cc:Agent>
      <dc:title>Steve Karg</dc:title>
     </cc:Agent>
    </dc:creator>
    <dc:publisher>
     <cc:Agent>
      <dc:title>Steve Karg</dc:title>
     </cc:Agent>
    </dc:publisher>
    <dc:subject>
     <rdf:Bag>
      <rdf:li>cartoon</rdf:li>
      <rdf:li>balloon</rdf:li>
      <rdf:li>talk</rdf:li>
      <rdf:li>bubble</rdf:li>
     </rdf:Bag>
    </dc:subject>
   </cc:Work>
   <cc:License rdf:about="http://web.resource.org/cc/PublicDomain">
    <cc:permits rdf:resource="http://web.resource.org/cc/Reproduction"/>
    <cc:permits rdf:resource="http://web.resource.org/cc/Distribution"/>
    <cc:permits rdf:resource="http://web.resource.org/cc/DerivativeWorks"/>
   </cc:License>
  </rdf:RDF>
 </metadata>
 <g id="layer1" fill="#fff" stroke="#000" stroke-linecap="round" stroke-linejoin="round">
  <path id="path7918" transform="matrix(.98511 0 0 .80475 -12.296 -34.365)" d="m602.36 232.09a239.17 150.59 0 1 1-478.35 0 239.17 150.59 0 1 1 478.35 0z" stroke-width="7.0866" sodipodi:cx="363.18896" sodipodi:cy="232.08659" sodipodi:rx="239.17323" sodipodi:ry="150.59055" sodipodi:type="arc"/>
  <path id="path7920" transform="matrix(1.1942 0 0 1 -79.483 -141.73)" d="m531.5 418.11a26.575 17.717 0 1 1-53.15 0 26.575 17.717 0 1 1 53.15 0z" stroke-width="5.315" sodipodi:cx="504.92126" sodipodi:cy="418.1102" sodipodi:rx="26.574802" sodipodi:ry="17.716536" sodipodi:type="arc"/>
  <path id="path11556" transform="matrix(.91824 0 0 .84258 76.717 -32.538)" d="m531.5 418.11a26.575 17.717 0 1 1-53.15 0 26.575 17.717 0 1 1 53.15 0z" stroke-width="5.315" sodipodi:cx="504.92126" sodipodi:cy="418.1102" sodipodi:rx="26.574802" sodipodi:ry="17.716536" sodipodi:type="arc"/>
  <path id="path11558" transform="matrix(.67308 0 0 .53975 218.79 128.12)" d="m531.5 418.11a26.575 17.717 0 1 1-53.15 0 26.575 17.717 0 1 1 53.15 0z" stroke-width="5.315" sodipodi:cx="504.92126" sodipodi:cy="418.1102" sodipodi:rx="26.574802" sodipodi:ry="17.716536" sodipodi:type="arc"/>
 </g>
</svg>
