<?xml version="1.0" encoding="UTF-8"?>
<!-- Created with Inkscape (http://www.inkscape.org/) -->
<svg id="svg1" width="446" height="204" version="1.0" xmlns="http://www.w3.org/2000/svg" xmlns:cc="http://creativecommons.org/ns#" xmlns:dc="http://purl.org/dc/elements/1.1/" xmlns:rdf="http://www.w3.org/1999/02/22-rdf-syntax-ns#">
 <metadata id="metadata4">
  <rdf:RDF>
   <cc:Work rdf:about="">
    <dc:format>image/svg+xml</dc:format>
    <dc:type rdf:resource="http://purl.org/dc/dcmitype/StillImage"/>
    <dc:title>Bread</dc:title>
    <dc:description>jean.victor.balin@gmail.com</dc:description>
    <dc:creator>
     <cc:Agent>
      <dc:title>Jean-Victor Balin</dc:title>
     </cc:Agent>
    </dc:creator>
    <dc:date>08-12-04</dc:date>
    <cc:license rdf:resource="http://creativecommons.org/licenses/publicdomain/"/>
    <dc:language>fr-FR</dc:language>
    <dc:subject>
     <rdf:Bag>
      <rdf:li>food</rdf:li>
      <rdf:li>bread</rdf:li>
     </rdf:Bag>
    </dc:subject>
   </cc:Work>
   <cc:License rdf:about="http://creativecommons.org/licenses/publicdomain/">
    <cc:permits rdf:resource="http://creativecommons.org/ns#Reproduction"/>
    <cc:permits rdf:resource="http://creativecommons.org/ns#Distribution"/>
    <cc:permits rdf:resource="http://creativecommons.org/ns#DerivativeWorks"/>
   </cc:License>
  </rdf:RDF>
 </metadata>
 <g id="g923" transform="translate(-76.823 -64.987)">
  <path id="path910" transform="translate(21.084 -27.572)" d="m175.09 119.49c-7.8975-1.4904-16.379-1.783-24.388-0.07203-34.82 7.44-66.022 40.123-83.396 69.331-6.04 10.155-12.48 23.841-10.341 36 0.987 5.607 4.403 10.56 5.948 16 3.521 12.391 6.088 22.262 17.789 30.045 27.168 18.07 64.718 17.984 96 21.124 30.978 3.109 61.876 3.083 93 3.846 21.185 0.519 49.44-0.8175 70.724-2.8435 26.883-2.558 44.196-6.8685 70.276-12.746 27.202-6.13 60.397-23.489 78.815-44.426 5.59-6.355 14.51-17.605 10.352-26.597-2.163-4.677-6.0513-10.089-9.4883-14.898-21.689-30.354-53.518-60.134-89.679-72.481-12.987-4.434-24.228-4.2174-30.453-1.1425-19.544-19.054-33.932-21.468-47.487-25.172-19.044-5.204-55.591-0.34774-61.624 5.3854-21.786-5.69-41.559-6.49-64.271 0.03698-10.526 3.025-21.476 6.106-21.777 18.61z"/>
  <path id="path913" transform="translate(21.084 -27.572)" d="m68.613 222.29c1.462-11.559 121.06-44.875 136.97-37.138-0.863-7.949-8.9178-22.725-12.594-29.992-9.2446-13.611-13.806-23.287-24.577-27.814-9.475-3.983-19.143 0.701-27.714 4.404-21.503 9.29-41.056 25.664-55.482 44-7.117 9.045-13.734 20.173-17.657 31-1.583 4.37-3.4544 12.342 1.0536 15.541z" fill="#fee5b2"/>
  <path id="path911" transform="translate(21.084 -27.572)" d="m275.7 101.75 15.021 14.985c2.1393 2.3598 7.6125 9.3092 9.2901 13.347 3.383 6.9774 86.836 39.649 92.109 70.668 17.432-1.319 72.068-23.482 83.964-9 3.814 4.642 6.6918 13.984 7.6378 20.014l7.4026-2.9423c-17.499-31.401-43.366-57.29-75.424-73.319-9.7304-6.0116-28.194-11.798-37.888-8.5992 11.256 17.187 17.639 25.74 22.276 46.553 0.41711 3.341 2.9258 12.662-1.0124 17.652-1.3763-3.9631-3.0373-11.027-4.7127-15.359-8.0274-20.749-15.219-33.334-25.565-46.867-11.933-15.608-35.978-26.798-56.098-28.959-12.494-1.343-24.624 1.295-37 1.826m-92 14c8.0908 3.6889 11.058 7.1827 16 14.964l2.9423 5.9565c3.909-7.7 11.461-15.944 19.058-18.918 18.111-7.089 35.369-4.01 48.668 11.36 8.776 10.142 15.126 24.538 20.472 36.637 2.7641 8.1944 5.9574 17.004 8.8051 17.579 3.4632 0.47727 5.71-7.2562 7.3486-9.7186-3.0828 0.22127-4.6069-5.5177-5.8279-8.4507-4.375-10.513-4.8708-16.962-12.089-27.409-8.891-12.869-24.479-30.773-40.547-34.698-10.586-2.585-25.205-0.36863-35.83 1.2034-8.725 1.292-23.83 3.4496-29 11.495z" fill="#fee5b2"/>
  <path id="path912" transform="translate(21.084 -27.572)" d="m302.09 173.92c-4.4905-0.70016-6.8547-9.8451-9.5451-14.988-10.171-24.699-20.182-45.193-51.844-45.181-6.031 2e-3 -11.293 0.844-17 2.864-6.803 2.408-20.537 5.4993-21.993 12.592-0.11066 5.111 0.27903 5.8765 2.5113 12.341 2.5566 9.5144 4.9507 19.362 5.5717 28.203 0.254 3.626 1.4541 10.809-3.149 12.967-5.021 0.591-10.724-6.373-13.155-9.982-6.873-10.202-13.312-21.87-24.786-27.607-30.343-15.172-68.318 23.99-85.004 44.712-5.904 7.331-18.97 19.036-15.353 29.895 1.995 5.992 11.128 11.497 15.781 15.54 25.423 22.091 49.785 23.684 81.139 27.769 43.514 5.668 57.546 10.435 101.17 10.113 6.022-0.045 41.079-4.2888 47.268-4.3628 36.142-0.43 73.364 3.5142 107.63-7.1698 19.141-5.97 36.138-23.064 51.284-37.084 3.498-3.237 18.585-9.5244 18.585-14.403-1e-3 -4.553-11.582-14.999-14.303-18.388-10.375-12.921-28.603-29.445-43.192-37.218-5.981-3.187-23.11-12.925-29.772-10.163-4.3186 3.2244-2.483 9.3085-2.263 13.381 0.617 11.095 7.6524 32.418-3.136 37.932-6.6487 1.3837-19.517-58.164-41.528-69.581-7.448-5.333-22.228-11.57-30.314-12.623-8.5513-1.4354-11.322-2.4677-20.795-2.3875-6.8464-0.00658-9.2912 3.026-10.905 5.231-0.82875 3.8624 1.2564 4.7595 4.1523 11.144 6.9376 19.635 9.3918 35.78 6.8231 45.806m79.738-50.521 1 1-1-1z" fill="#f9cb98"/>
  <path id="path914" transform="translate(21.084 -27.572)" d="m79.699 235.19c42.09 33.997 95.831 32.279 144.6 33.711 50.454 1.4813 101.92 9.8059 151.63-2.1068 26.377-6.321 65.584-16.471 90.741-30.688 5.7766-9.9809 4.7102-0.9145 7.962-14.466 3.2861-6.4818-22.227-30.69-31.253-37.916-8.5708-5.6001-13.819-7.9914-20.386-7.9313-6.0161 0.07461-5.8245 10.559-5.8887 16.079-0.14862 12.735-7.898 37.181-22.096 31.462-23.262-9.3701-23.103-50.009-34.82-71.171-7.91-14.286-19.919-23.64-34.468-17.979-8.3358 3.2429-8.1199 11.425-8.0305 20.385 0.17573 17.669 0.34806 13.994-0.2149 27.676-1.1146 6.1754-3.2837 20.537-9.832 21.771-7.0765 1.3345-14.333-19.46-16.821-25.381-9.9566-23.689-26.731-45.987-40.417-45.822-9.5981-3.8674-28.916 5.9588-31.698 18.146-2.3126 10.123 0.19482 22.246 0.52821 32.489 0.17774 5.4546-0.78122 18.434-6.6387 19.85-3.102 0.74966-6.7271 1.4051-9.3882-0.16402-15.724-9.2751-18.379-33.854-33.138-41.947-10.582-5.8023-22.008 1.8904-31.13 7.99-22.008 14.713-47.492 38.716-59.247 66.013z" fill="#f1b180"/>
  <path id="path915" transform="translate(21.084 -27.572)" d="m304.7 168.75 1 1-1-1m-103 12 1 1-1-1z" fill="#fee5b2"/>
  <path id="path916" transform="translate(21.084 -27.572)" d="m65.833 217.34c2.262 13.148 4.8599 32.502 14.05 42.364 16.292 17.479 48.677 19.549 70.816 22.198 45.678 5.466 91.021 6.55 137 6.846 34.707 0.223 68.26-2.7525 104-11.052 28.261-10.025 60.361-17.881 83-38.86 5.865-5.435 20.746-18.28 17.353-28.026-3.468-9.963-13.813 6.289-15.972 8.936-20.552 25.196-57.703 31.474-87.178 38.919-24.059 6.076-46.902 8.4982-71.683 8.0932-5.147-0.084-35.63 0.6965-40.813 0.8905-45.808 1.711-71.112-2.5062-116.71-7.9042-13.407-1.587-29.856-2.9754-42.725-7.7174-12.264-4.518-22.064-8.2612-31.99-16.755-6.76-5.785-11.049-14.078-19.151-17.932z" fill="#935149"/>
 </g>
</svg>
