<?xml version="1.0" encoding="UTF-8"?>
<!-- Generator: Adobe Illustrator 12.0.1, SVG Export Plug-In . SVG Version: 6.00 Build 51448)  -->
<!DOCTYPE svg  PUBLIC '-//W3C//DTD SVG 1.1//EN'  'http://www.w3.org/Graphics/SVG/1.1/DTD/svg11.dtd' [
	<!ENTITY ns_svg "http://www.w3.org/2000/svg">
	<!ENTITY ns_xlink "http://www.w3.org/1999/xlink">
]>
<svg id="Layer_1" width="596.31" height="316.76" enable-background="new 0 0 596.309 316.76" overflow="visible" version="1.1" viewBox="0 0 596.31 316.76" xml:space="preserve" xmlns="http://www.w3.org/2000/svg">
<g clip-rule="evenodd" fill-rule="evenodd">
	<path d="m82.015 44.476c-3.458 0.792-4.222-1.112-6-2-1.37-9.981 11.094-5.033 6 2z"/>
	<path d="m46.015 44.476c3.526 0.805 3.551 5.142 1 7-3.526-0.805-3.551-5.142-1-7z"/>
	<path d="m343.02 87.476c-15.552-5.688-19.13-21.549-32-28-6.746-3.381-23.209-5.361-32-5-15.568 0.64-28.903 6.06-40 14-4.994 3.573-14.109 11.465-18 17-8.004 11.387-5.977 27.395-13 38-5.377 8.12-13.172 9.704-18 18 0.264-6.056 5.577-9.876 9-14 3.299-3.975 8.063-8.311 10-14 3.379-9.924 2.621-15.894 8-25 9.626-16.297 23.794-28.569 45-34 10.207-2.614 23.062-4.214 34-3 25.341 2.814 32.199 21.028 47 36z" fill="#9B5F0D"/>
	<path d="m38.015 52.476c3.486 4.683-5.046 4.027 0 0z"/>
	<path d="m336.02 153.48c-3.104 0.104-2.854-3.146-7-2-3.75 2.154 0.293 6.154-2 9-19.143 6.524-40.259 11.074-54 23-11.454 14.546-21.774 30.226-33 45-15.116 0.79-29.926 6.411-45 4-5.193-5.985-6.629-26.896-8-47-0.806-11.814-1.531-27.6 2-37 4.42-11.769 21.572-18.174 26-31 2.51-22.341 9.77-33.962 24-45 12.484-9.683 24.725-14.117 45-14 9.646 0.056 22.169 0.907 30 6 5.334 3.469 7.412 9.993 13 16 4.135 4.444 10.534 7.44 16 11 10.793 7.028 15.35 8.98 19 23 1.125 4.319 2.438 11.2 2 13-1.175 4.818-9.685 9.117-14 13-5.509 4.957-10.011 8.295-14 13zm-100-63c0.914 1.753 1.859 3.474 5 3-0.888-3.649 1.766-5.326 0-7-3.261-0.26-4.813 1.187-5 4zm67-3c-1.798 1.783 1.158 3.917 2 6 2.049-1.618 4.635-2.699 5-6-1.334-1.427-5.666-1.427-7 0zm33 23c2.403 2.285 6.047 0.171 8-1 0.017-5.862-9.528-6.954-8 1zm3 14v2c0.61 0.057 1.184 0.149 1 1h2c0.057-0.61 0.149-1.184 1-1v-2c-0.61-0.057-1.184-0.149-1-1h-2c-0.057 0.61-0.15 1.184-1 1zm-21 4c1.122 0.211 1.557 1.11 2 2 2.933-0.068 3.714-2.286 5-4-1.911-2.768-7.129-2.514-7 2zm11 5c-0.857 3.19 1.574 3.093 2 5 3.201-0.132 4.399-2.267 4-6-2.465-0.132-4.819-0.151-6 1zm-15 7v5c3.176 1.504 8.138 1.504 8-3-1.131-3.851-4.288-2.698-8-2zm-108 17c3.131 0.464 4.464-0.869 4-4-1.352-0.314-1.91-1.423-4-1v5zm37 5c0.122 2.545 1.456 3.878 4 4 0.013-1.987 2.729-1.271 2-4-2.338-0.309-4.132-1.958-6 0zm-34 7c2.149-2.134 0.371-5.446-2-6-3.115 2.423-0.754 4.423 2 6zm-14 2c-1.687-2.717 1.586-4.684-2-6-2.226 1.533-3.379 7.048 2 6zm27 9c0.914 1.753 1.859 3.475 5 3 2.058-2.352 1.035-7.686-2-8-0.309 2.358-3.473 1.86-3 5zm-16 1c1.427 0.239 1.687 1.646 3 2 0.294-2.039 2.706-1.961 3-4-1.427-0.239-1.687-1.646-3-2-0.295 2.039-2.706 1.961-3 4zm9 15c2.917 0.251 3.45-1.883 5-3-0.623-3.043-2.221-5.112-6-5 0.119 2.881-0.547 6.546 1 8zm19 10c0.294-2.039 2.706-1.961 3-4h-5c-0.28 2.279 0.24 3.759 2 4zm-32 7c2.46 1.925 5.54 4.318 8 1-0.05-3.95-2.05-5.95-6-6-0.43 1.904-2.155 2.513-2 5zm25-2h2c1.119-1.44 1.078-2.44-1-3-0.055 1.278-1.282 1.385-1 3z" fill="#E6E5D3"/>
	<path d="m33.015 60.476c2.544 0.122 3.878 1.456 4 4-1.279 1.368-4.721 1.368-6 0 0.52-1.479 1.479-2.52 2-4z"/>
	<path d="m35.015 67.476c4.15-0.8 5.857 3.849 4 6-4.117 0.767-6.297-3.41-4-6z"/>
	<path d="m37.015 85.476c-2.488 0.154-3.096-1.571-5-2-1.708-11.394 12.431-3.112 5 2z"/>
	<path d="m44.015 87.476c0.229 3.562-1.438 5.229-5 5-3.173-3.093 1.907-8.172 5-5z"/>
	<path d="m241.02 86.476c1.766 1.674-0.888 3.351 0 7-3.141 0.474-4.086-1.247-5-3 0.187-2.813 1.739-4.26 5-4z"/>
	<path d="m310.02 87.476c-0.365 3.301-2.951 4.382-5 6-0.842-2.083-3.798-4.217-2-6 1.334-1.427 5.666-1.427 7 0z"/>
	<path d="m345.02 87.476c1.479 0.521 2.521 1.479 4 2-0.628 2.433-5.053 0.529-4-2z" fill="#9B5F0D"/>
	<path d="m350.02 90.476c3.21 0.791 4.369 3.631 7 5-2.131 2.064-6.784-1.834-7-5z" fill="#9B5F0D"/>
	<path d="m51.015 97.476h-5c-0.473-4.17 6.109-5.789 5 0z"/>
	<path d="m37.015 95.476c4.046-1.121 4.945 3.071 3 5-1.753-0.914-3.474-1.859-3-5z"/>
	<path d="m359.02 97.476c6.585 6.082 9.515 15.818 9 29-2.979-9.688-5.03-20.304-9-29z" fill="#9B5F0D"/>
	<path d="m44.015 98.476c1.94-0.396 1.461 4.555-1 3v-2c0.85 0.184 0.943-0.39 1-1z"/>
	<path d="m47.015 100.48c3.851-0.788 3.851 4.788 0 4v-4z"/>
	<path d="m57.015 103.48c0.81 0.19 0.997 1.003 2 1-0.19 0.81-1.003 0.997-1 2-0.81-0.19-0.997-1.003-2-1 0.19-0.81 1.003-0.997 1-2z"/>
	<path d="m26.015 105.48c-0.777 0.89-1.075 2.258-1 4-3.26 0.26-4.813-1.187-5-4 1.278-1.368 4.721-1.368 6 0z"/>
	<path d="m72.015 106.48c0.81 0.19 0.997 1.003 2 1-0.19 0.81-1.003 0.997-1 2-0.81-0.19-0.997-1.003-2-1 0.19-0.81 1.003-0.997 1-2z"/>
	<path d="m87.015 110.48c-0.136 1.646-6.864 1.646-7 0-0.069-4.374 6.287-1.156 7 0z"/>
	<path d="m92.015 110.48c1.313 0.354 1.573 1.761 3 2-0.102 2.544-3.727 2.363-5 1 0.353-1.313 1.76-1.573 2-3z"/>
	<path d="m100.02 114.48c-2.039 2.009-1.961-0.442-4-1 0.18-2.9 4.753-2.41 4 1z"/>
	<path d="m21.015 112.48c0.399 3.733-0.799 5.868-4 6-2.331-2.624 0.323-6.327 4-6z"/>
	<path d="m104.02 112.48c2.043 0.957 3.957 2.043 6 3-1.087 4.005-7.208 1.298-6-3z"/>
	<path d="m195.02 113.48c2.039 0.294 1.961 2.706 4 3-0.658 1.342-2.138 1.862-4 2-1.284-1.314-1.284-3.686 0-5z"/>
	<path d="m118.02 117.48c0.136-1.646 6.864-1.646 7 0 0.068 4.374-6.287 1.156-7 0z"/>
	<path d="m182.02 116.48c1.975 0.691 2.666 2.667 3 5-3.933 1.266-2.975-2.359-3-5z"/>
	<path d="m134.02 119.48h2v2h-2v-2z"/>
	<path d="m164.02 119.48c3.473-0.349 4.186 4.696 3 6-4.487 1.363-4.855-4.027-3-6z"/>
	<path d="m143.02 121.48c1.759 0.241 2.279 1.721 2 4-1.743-0.903-3.852-2.237-2-4z"/>
	<path d="m175.02 121.48c1.313 0.353 1.573 1.761 3 2-0.354 1.313-1.761 1.573-2 3-1.313-0.354-1.573-1.76-3-2 0.353-1.313 1.76-1.573 2-3z"/>
	<path d="m189.02 121.48c2.322 0.344 4.686 0.647 4 4-3.131 0.464-4.464-0.869-4-4z"/>
	<path d="m21.015 131.48c0.729 2.729-1.987 2.013-2 4-3.377-1.956-3.691-6.976-7-9 4.527-9.869 6.703 2.441 9 5z"/>
	<path d="m156.02 122.48c1.313 0.354 1.573 1.761 3 2-0.354 1.313-1.761 1.573-2 3-1.313-0.354-1.573-1.761-3-2 0.353-1.313 1.76-1.573 2-3z"/>
	<path d="m340.02 123.48h2c-0.184 0.851 0.39 0.943 1 1v2c-0.851-0.184-0.943 0.39-1 1h-2c0.184-0.851-0.39-0.943-1-1v-2c0.85 0.184 0.943-0.39 1-1z"/>
	<path d="m325.02 126.48c-1.286 1.714-2.067 3.932-5 4-0.443-0.89-0.878-1.789-2-2-0.129-4.514 5.089-4.768 7-2z"/>
	<path d="m168.02 126.48c1.172 0.162 0.843 1.823 1 3h-3c0.353-1.313 1.76-1.573 2-3z"/>
	<path d="m179.02 130.48c-2.081 2.169-3.232-0.122-5-1 0.087-2.975 5.963-2.675 5 1z"/>
	<path d="m31.015 132.48c1.368 1.278 1.368 4.722 0 6-2.813-0.187-4.26-1.74-4-5 0.89-0.777 2.258-1.075 4-1z"/>
	<path d="m335.02 132.48c0.399 3.733-0.799 5.868-4 6-0.426-1.907-2.857-1.81-2-5 1.181-1.151 3.535-1.132 6-1z"/>
	<path d="m322.02 142.48c0.138 4.504-4.824 4.504-8 3v-5c3.712-0.698 6.869-1.851 8 2z"/>
	<path d="m174.02 142.48c3.19-0.857 3.093 1.574 5 2-0.354 1.313-1.761 1.573-2 3-1.753-0.914-3.474-1.859-3-5z"/>
	<path d="m187.02 142.48c4.208 0.332-0.811 4.164-1 5-6.97 30.791 2.019 59.954 4 84-10.635-2.982-7.306-15.221-8-31-0.99-22.516-3.037-45.288 5-58z" fill="#9B5F0D"/>
	<path d="m428.02 150.48c-15.138-0.471-27.538 1.795-37 7 4.903-4.583 16.604-9.847 26-10 3.649-0.059 8.818 0.232 11 3z" fill="#9B5F0D"/>
	<path d="m16.015 148.48c2.296 2.796 0.55 7.955-4 7-2.675-3.174 0.101-7.303 4-7z"/>
	<path d="m36.015 148.48c4.116-0.767 6.296 3.41 4 6-4.25 0.917-4.271-2.396-4-6z"/>
	<path d="m163.02 149.48c4.063-0.94 3.466 5.415 2 7-4.515 0.128-4.769-5.089-2-7z"/>
	<path d="m206.02 152.48c2.09-0.423 2.648 0.686 4 1 0.464 3.131-0.869 4.464-4 4v-5z"/>
	<path d="m440.02 160.48c-32.368 6.298-50.908 26.425-74 42-35.661-4.32-50.167 32.509-69 49-6.021 1.312-12.201 2.466-18 4-2.877-2.99 1.392-7.675 3-11 5.209-10.771 11.077-25.291 20-33 7.104-0.495 11.127-7.048 17-10 15.617-7.852 32.691-9.914 47-20 11.971-8.438 20.938-18.41 34-25 12.364-1.085 34.445-8.105 40 4zm-48 6v5c0.776 0.224 1.973 0.027 2 1 2.933-0.067 3.714-2.286 5-4-4.426 0.155 0.473-2.827-2-4-2.488-0.154-3.096 1.571-5 2zm-8 14c2.152-0.848 3.537-2.463 3-6-5.654-4.351-10.328 5.616-3 6zm-13 9c-0.186-1.48-2.417-0.917-4-1-2.135 3.678 5.091 4.511 4 1zm-73 32h3v-3h-2c-0.055 1.278-1.282 1.385-1 3zm6 3h-4c-1.587 4.649 5.167 3.471 4 0zm-10 13c6.781 3.036 9.163-6.194 1-6-1.152 1.182-1.132 3.535-1 6z" fill="#E6E5D3"/>
	<path d="m389.02 158.48c3.806-1.73-6.368 2.895 0 0z" fill="#9B5F0D"/>
	<path d="m385.02 159.48c-1.87 8.137-15.69 12.971-22 20 1.187-8.819 16.132-12.528 22-20z" fill="#9B5F0D"/>
	<path d="m249.02 162.48c0.729 2.729-1.987 2.013-2 4-2.544-0.122-3.878-1.455-4-4 1.868-1.958 3.662-0.309 6 0z"/>
	<path d="m207.02 163.48c2.371 0.554 4.149 3.866 2 6-2.754-1.577-5.115-3.577-2-6z"/>
	<path d="m48.015 164.48c2.319-0.319 3.839 0.161 5 1 0.473 3.14-2.691 2.642-3 5-2.555-0.111-1.985-3.349-2-6z"/>
	<path d="m34.015 165.48h3c1.706 1.613 0.916 5.154-1 6-3.782 0.857-3.539-4.476-2-6z"/>
	<path d="m165.02 165.48c2.09-0.424 2.648 0.686 4 1 1.307 4.307-2.837 3.162-4 5-2.226-0.42-0.783-5.306 0-6z"/>
	<path d="m193.02 165.48c3.586 1.316 0.313 3.283 2 6-5.379 1.048-4.226-4.467-2-6z"/>
	<path d="m156.02 166.48c1.464 0.869 3.169 1.497 3 4-1.161 0.839-2.681 1.319-5 1-0.858-3.19 1.573-3.093 2-5z"/>
	<path d="m165.02 173.48c1.313 0.354 1.573 1.761 3 2-0.354 1.313-1.761 1.573-2 3-1.313-0.354-1.573-1.761-3-2 0.353-1.313 1.76-1.573 2-3z"/>
	<path d="m387.02 174.48c0.537 3.537-0.848 5.152-3 6-7.328-0.384-2.654-10.351 3-6z"/>
	<path d="m225.02 175.48c3.035 0.314 4.058 5.648 2 8-3.141 0.475-4.086-1.247-5-3-0.473-3.14 2.691-2.642 3-5z"/>
	<path d="m160.02 177.48c-0.294 2.039-2.706 1.961-3 4-4.769-1.113-0.061-7.803 3-4z"/>
	<path d="m209.02 177.48c1.313 0.354 1.573 1.761 3 2-0.294 2.039-2.706 1.961-3 4-1.313-0.354-1.573-1.761-3-2 0.294-2.039 2.705-1.961 3-4z"/>
	<path d="m359.02 180.48c3.806-1.73-6.368 2.895 0 0z" fill="#9B5F0D"/>
	<path d="m164.02 180.48h3v3h-3v-3z"/>
	<path d="m484.02 199.48c-1.653 3.631-4.841-2.986-7-5-3.005-2.803-5.921-5.108-8-7-35.432-0.765-48.768 20.566-73 31 1.112-4.015 7.158-6.71 13-11 9.889-7.263 28.314-19.502 43-22 13.871-2.36 27.484 2.407 32 14z" fill="#9B5F0D"/>
	<path d="m214.02 188.48c3.779-0.112 5.377 1.957 6 5-1.55 1.117-2.083 3.251-5 3-1.547-1.454-0.881-5.119-1-8z"/>
	<path d="m367.02 188.48c1.583 0.083 3.814-0.48 4 1 1.091 3.511-6.135 2.678-4-1z"/>
	<path d="m484.02 209.48c-12.669 0.495-23.506 14.873-34 8-4.007 1.286 0.274 2.067 0 5-30.197 8.469-54.791 22.543-84 32-0.74 5.26-2.731 9.269-4 14-9.431 4.236-21.41 5.923-32 9-2.842-9.325 5.917-13.501 12-17 4.001-4.665 9.888-13.773 16-21 2.67-3.156 9.743-10.402 13-11 11.134-2.042 20.196-3.731 29-8 15.865-7.692 33.845-25.347 55-29 14.954-2.582 24.642 5.268 29 18zm-35-9c1.003-3e-3 1.19 0.81 2 1-3e-3 -1.003 0.81-1.19 1-2-1.003 3e-3 -1.19-0.81-2-1 3e-3 1.003-0.81 1.191-1 2zm-15 2c-0.722 5.938 5.722 5.938 5 0-1.314-1.283-3.687-1.283-5 0zm6 5c0.411 2.713 4.756 4.126 7 2 0.61-4.247-3.628-2.674 0-5-2.462-3.416-6.546-1.016-7 3zm-18 15c0.914 1.753 1.859 3.475 5 3 1.427-1.334 1.427-5.666 0-7-3.261-0.261-4.813 1.188-5 4zm-71 38c2.557 2.438 5.465-0.411 7-2-1.479-0.521-2.521-1.479-4-2-0.294 2.039-2.706 1.961-3 4z" fill="#E6E5D3"/>
	<path d="m450.02 198.48c0.81 0.19 0.997 1.003 2 1-0.19 0.81-1.003 0.997-1 2-0.81-0.19-0.997-1.003-2-1 0.19-0.809 1.003-0.997 1-2z"/>
	<path d="m313.02 199.48c3.117 1.912-2.327 3.578-3 5-3.118-1.912 2.327-3.578 3-5z" fill="#9B5F0D"/>
	<path d="m439.02 202.48c0.722 5.938-5.722 5.938-5 0 1.313-1.283 3.686-1.283 5 0z"/>
	<path d="m232.02 202.48h5c-0.294 2.039-2.706 1.961-3 4-1.76-0.241-2.28-1.721-2-4z"/>
	<path d="m376.02 202.48h5c0.464 3.131-0.869 4.464-4 4 0.127-1.794-1.224-2.109-1-4z"/>
	<path d="m447.02 204.48c-3.628 2.326 0.61 0.753 0 5-2.244 2.126-6.589 0.713-7-2 0.454-4.016 4.538-6.416 7-3z"/>
	<path d="m204.02 208.48c3.95 0.05 5.95 2.05 6 6-2.46 3.318-5.54 0.925-8-1-0.155-2.487 1.57-3.096 2-5z"/>
	<path d="m228.02 208.48c2.078 0.56 2.119 1.56 1 3h-2c-0.282-1.615 0.945-1.722 1-3z"/>
	<path d="m575.02 230.48c12.273 16.604-2.463 36.212-16 44-20.626 11.866-51.92 5.89-77 0-8.025-1.885-16.316-4.979-24-6-10.638-1.414-22.943 1.169-32 0-15.593-2.013-29.602-13.881-43-15 7.503-5.524 16.626-7.999 26-12 10.717-4.574 21.002-10.26 34-14 14.812-4.263 35.66-16.041 53-18 2.569-0.29 7.606-0.329 10 0 8.638 1.188 15.168 10.262 24 13 15.298 4.742 30.881-0.099 45 8zm-76 3c0.429-1.904 2.154-2.513 2-5-1.278-0.055-1.385-1.282-3-1-1.375 1.282-1.742 5.98 1 6zm5 3c1.6 4.66 6.221 4.359 7-1-0.869-1.464-1.497-3.17-4-3-1.464 0.869-3.17 1.497-3 4zm55 7c0.279-2.279-0.241-3.759-2-4-0.28 2.279 0.241 3.759 2 4zm-68 5c1.126 1.983 8.531 3.917 8-1-2.11-0.89-1.736-4.264-5-4-1.118 1.55-3.251 2.083-3 5zm-43 1c-2.414 5.079 4.302 7.402 7 3-1.48-0.186-0.917-2.417-1-4-2.465-0.132-4.819-0.151-6 1zm113 4c0.169-2.169-3.547-0.453-5-1-2.276 3.961 6.125 4.43 5 1zm-8 12c0.229-3.562-1.438-5.229-5-5-2.823 3.442 1.382 7.648 5 5z" fill="#E6E5D3"/>
	<path d="m299.02 218.48h2v3h-3c-0.282-1.615 0.945-1.722 1-3z"/>
	<path d="m427.02 218.48c1.427 1.334 1.427 5.666 0 7-3.141 0.475-4.086-1.247-5-3 0.187-2.812 1.739-4.261 5-4z"/>
	<path d="m300.02 224.48h4c1.167 3.471-5.587 4.649-4 0z"/>
	<path d="m498.02 227.48c1.615-0.282 1.722 0.945 3 1 0.154 2.487-1.571 3.096-2 5-2.742-0.02-2.375-4.718-1-6z"/>
	<path d="m295.02 231.48c8.163-0.194 5.781 9.036-1 6-0.132-2.465-0.152-4.818 1-6z"/>
	<path d="m507.02 232.48c2.503-0.17 3.131 1.536 4 3-0.779 5.359-5.4 5.66-7 1-0.17-2.503 1.536-3.131 3-4z"/>
	<path d="m582.02 238.48c1.759 0.241 2.279 1.721 2 4-1.759-0.241-2.28-1.721-2-4z" fill="#9B5F0D"/>
	<path d="m557.02 239.48c1.759 0.241 2.279 1.721 2 4-1.759-0.241-2.28-1.721-2-4z"/>
	<path d="m494.02 243.48c3.264-0.264 2.89 3.11 5 4 0.531 4.917-6.874 2.983-8 1-0.251-2.917 1.882-3.45 3-5z"/>
	<path d="m587.02 243.48c9.242 16.865-1.971 32.971-12 43-10.037 10.037-26.081 20.03-43 22-32.371 3.769-59.237-12.815-82-12 1.852-4.68-4.057-4.695-2-12-5.224 2.443-5.345 9.988-9 14-23.195 0.853-50.521-8.757-71-17-0.427-10.094 3.275-16.058 5-24 21.94 2.125 37.449 15.871 61 17 6.392 0.307 12.871-2.344 20-2 16.783 0.809 33.467 10.528 52 14 22.36 4.188 44.09 1.624 60-9 8.805-5.88 21.112-16.181 21-34zm-134 46c1.944-1.929 1.046-6.121-3-5 0.334 2.333 1.025 4.309 3 5zm3 5c1.574-1.485 1.114-4.468-2-4-0.28 2.279 0.241 3.759 2 4z" fill="#9B5F0D"/>
	<path d="m349.02 244.48c0.672 6.02-7.91 11.412-13 15 3.197-6.136 8.615-10.052 13-15z" fill="#9B5F0D"/>
	<path d="m583.02 245.48c2.437 4.8 0.032 13.343-5 14 2.168-4.165 4.943-7.724 5-14z" fill="#9B5F0D"/>
	<path d="m277.02 248.48c-1.067 0.933-0.311 3.688-3 3 1.067-0.933 0.311-3.688 3-3z" fill="#9B5F0D"/>
	<path d="m454.02 248.48c0.083 1.583-0.48 3.814 1 4-2.698 4.402-9.414 2.079-7-3 1.181-1.151 3.535-1.132 6-1z"/>
	<path d="m273.02 252.48c1.94-0.396 1.461 4.555-1 3v-2c0.85 0.184 0.943-0.39 1-1z" fill="#9B5F0D"/>
	<path d="m556.02 252.48c1.453 0.547 5.169-1.169 5 1 1.125 3.43-7.276 2.961-5-1z"/>
	<path d="m354.02 256.48c1.479 0.521 2.521 1.479 4 2-1.535 1.589-4.443 4.438-7 2 0.294-2.039 2.706-1.961 3-4z"/>
	<path d="m548.02 260.48c3.562-0.229 5.229 1.438 5 5-3.618 2.648-7.823-1.558-5-5z"/>
	<path d="m577.02 260.48c2.433 0.628 0.529 5.053-2 4 0.52-1.479 1.479-2.52 2-4z" fill="#9B5F0D"/>
	<path d="m325.02 270.48c2.255 0.744 0.391 5.609 1 8-6.855 0.707-2.869-6.219-1-8z" fill="#9B5F0D"/>
	<path d="m450.02 284.48c4.046-1.121 4.944 3.071 3 5-1.975-0.691-2.666-2.667-3-5z"/>
	<path d="m454.02 290.48c3.114-0.468 3.574 2.515 2 4-1.759-0.241-2.28-1.721-2-4z"/>
	<path d="m184.02 125.48c3.14-1.111 2.642-0.468 5 1 0.341 4.541-2.753 5.64-6 4 0.319 3.986 0.055 7.388-2 9-1.44-0.56-2.44-1.56-3-3 1.169-4.498 5.14-6.193 6-11z"/>
	<path d="m333.02 192.48c0.6 1.137-13.383 4.467-17 8-0.971-5.322 10.124-7.195 17-8z" fill="#9B5F0D"/>
	<path d="m393.02 218.48c-5.678 5.929-15.041 4.364-22 7-9.483 3.593-13.704 11-19 18-2.692-2.263 1.686-3.946 3-6 6.53-10.202 10.11-12.263 26-16 3.826-0.9 7.718-3.402 12-3z" fill="#9B5F0D"/>
	<path d="m573.02 265.48c2.757 2.823-4.116 4.501-5 7-2.086-2.153 4.131-4.486 5-7z" fill="#9B5F0D"/>
	<path d="m375.02 122.48c32.073-3.653 69.116 2.761 74 35 25.777 3.89 43.767 15.566 45 44 5.007 0.941 12.456 0.596 19 3 4.806 1.766 8.602 7.783 14 10 8.094 3.324 19.581 2.424 29 4 8.287 1.387 18.719 3.841 25 8 11.856 7.852 19.3 30.07 13 48-18.857 29.615-45.028 47.348-91 41-18.268-2.522-35.319-13.655-53-12-5.106 0.479-12.068 4.488-16 4-20.538-2.553-43.008-11.219-62-16-3.91-4.424-9.695-6.972-12-13-25.098 10.702-66.336 9.8-73-17-23.291 5.65-43.292-4.719-49-25-23.593 5.469-40.456 2.742-63-2-10.39-2.186-21.511-2.887-31-5-10.125-2.255-21.062-6.85-32-10-43.021-12.39-110.28-9.768-112-65-0.276-8.85 3.491-17.169 4-25 0.985-15.149-2.137-24.318 2-35 2.362-6.098 7.375-9.618 10-16 3.825-9.298 3.9-20.632 10-30 1.685-2.586 5.544-6.081 8-9 13.704-16.291 38.173-30.699 62-36 30.433-6.771 69.637-2.098 101 1 32.431 3.204 67.503 13.973 93 26 16.427 7.749 30.049 20.807 41 34 2.851 3.434 4.332 8.361 8 12 4.083 4.05 9.507 6.824 14 10 4.596 3.249 8.445 6.811 14 10 2.062 9.271 7.891 14.775 8 26zm-105-93c-13.197-4.991-29.354-8.212-44-12-19.195-4.964-41.475-5.437-64-8-13.889-1.581-28.307-1.836-42-2-43.444-0.52-74.79 23.805-93 56-0.019 3.076 5.387 5.87 2 9-4.411 1.411-0.016-5.984-3-6-0.352 6.847-6.699 16.566-3 21 4.587-3.031-0.148-12.199 8-13 0.109 6.77-3.891 4.962-2 12 5.777 0.974 5.805 10.095 4 12-4.962 1.296-1.412-5.921-4-7-2.693 0.641-2.807 3.859-6 4-4.01-0.324-2.537-6.13-6-7-0.828 6.66-5.927 8.629-2 15-1.772 0.228-5.008-1.008-4 2-3.026 3.526 4.841 2.563 4 7-6.234 5.879-2.796 15.246-5 25 2.863-0.197 5.458-0.125 5 3-1.662 3.963-2.685 2.056-6 1-4.147 18.342-0.074 38.973 12 48 6.321 4.727 19.565 8.95 28 11 18.104 4.4 37.955 5.332 57 10 13.1 3.211 25.602 10.374 38 13 13.784 2.92 26.188 3.456 38 6-4.082-11.563-3.354-27.78-4-42-0.459-10.108-0.734-19.887 0-27 2.575-24.944 21.169-29.906 28-48 1.698-4.497 0.544-9.837 2-14 1.203-3.441 4.744-8.159 7-12 2.334-3.975 4.848-9.176 7-12 15.358-20.154 52.126-30.834 84-24-7.545-8.963-23.436-16.248-36-21zm26 22c-10.938-1.214-23.793 0.386-34 3-21.206 5.431-35.374 17.703-45 34-5.379 9.106-4.621 15.076-8 25-1.937 5.689-6.701 10.025-10 14-3.423 4.124-8.736 7.944-9 14 4.828-8.296 12.623-9.88 18-18 7.023-10.605 4.996-26.613 13-38 3.891-5.535 13.006-13.427 18-17 11.097-7.94 24.432-13.36 40-14 8.791-0.361 25.254 1.619 32 5 12.87 6.451 16.448 22.312 32 28-14.801-14.972-21.659-33.186-47-36zm54 89c4.315-3.883 12.825-8.182 14-13 0.438-1.8-0.875-8.681-2-13-3.65-14.02-8.207-15.972-19-23-5.466-3.56-11.865-6.556-16-11-5.588-6.007-7.666-12.531-13-16-7.831-5.093-20.354-5.944-30-6-20.275-0.117-32.516 4.317-45 14-14.23 11.038-21.49 22.659-24 45-4.428 12.826-21.58 19.231-26 31-3.531 9.4-2.806 25.186-2 37 1.371 20.104 2.807 41.015 8 47 15.074 2.411 29.884-3.21 45-4 11.226-14.774 21.546-30.454 33-45 13.741-11.926 34.857-16.476 54-23 2.293-2.846-1.75-6.846 2-9 4.146-1.146 3.896 2.104 7 2 3.989-4.705 8.491-8.043 14-13zm-1-51c-1.479-0.521-2.521-1.479-4-2-1.053 2.529 3.372 4.433 4 2zm8 6c-2.631-1.369-3.79-4.209-7-5 0.216 3.166 4.869 7.064 7 5zm11 31c0.515-13.182-2.415-22.918-9-29 3.97 8.696 6.021 19.312 9 29zm66 12c-15.183-6.461-36.182-14.264-55-9-10.915 3.053-17.913 13.114-26 20-10.69 9.104-19.449 16.363-31 22 1.263 0.52 6.073 2.438 3 4-21.125-6.681-36.145 7.959-49 16-3.048 4.613-8.626 12.086-14 20-5.147 7.58-12.251 14.367-15 20-7.028 14.403 7.766 20.161 19 25 5.84-8.535 13.717-20.514 19-29 2.029-3.26 2.82-8.023 5-11 8.275-11.298 24.372-22.634 38-27 5.203-1.667 11.769-1.616 18-4 6.123-2.343 12.563-8.377 18-13 17.357-14.76 51.881-41.407 78-20-0.67-6.664-6.04-8.626-8-14zm-252 62c0.694 15.779-2.635 28.018 8 31-1.981-24.046-10.97-53.209-4-84 0.189-0.836 5.208-4.668 1-5-8.037 12.712-5.99 35.484-5 58zm235-53c-9.396 0.153-21.097 5.417-26 10 9.462-5.205 21.862-7.471 37-7-2.182-2.768-7.351-3.059-11-3zm-17 9c-13.062 6.59-22.029 16.562-34 25-14.309 10.086-31.383 12.148-47 20-5.873 2.952-9.896 9.505-17 10-8.923 7.709-14.791 22.229-20 33-1.608 3.325-5.877 8.01-3 11 5.799-1.534 11.979-2.688 18-4 18.833-16.491 33.339-53.32 69-49 23.092-15.575 41.632-35.702 74-42-5.555-12.105-27.636-5.085-40-4zm-11 2c-6.368 2.895 3.806-1.73 0 0zm-26 21c6.31-7.029 20.13-11.863 22-20-5.868 7.472-20.813 11.181-22 20zm97-14c-34.205-10.741-68.836 24.86-89 37 0.632 4.701 7.511 3.156 7 9-6.976-4.489-14.176-8.228-26-6-15.997 3.014-31.619 24.361-44 39-6.185 7.312-13.838 11.067-14 21 4.548 7.452 13.873 10.127 24 12 9.575-19.759 28.038-30.629 39-49 7.789-11.601 22.524-7.881 37-14 5.009-2.117 10.212-7.483 15-11 18.108-13.301 48.633-31.393 72-15 1.792 3.875 3.914 7.42 7 10-0.491-19.307-14.906-28.888-28-33zm-101 15c-6.368 2.895 3.806-1.73 0 0zm93 5c-14.686 2.498-33.111 14.737-43 22-5.842 4.29-11.888 6.985-13 11 24.232-10.434 37.568-31.765 73-31 2.079 1.892 4.995 4.197 8 7 2.159 2.014 5.347 8.631 7 5-4.516-11.593-18.129-16.36-32-14zm3 6c-21.155 3.653-39.135 21.308-55 29-8.804 4.269-17.866 5.958-29 8-3.257 0.598-10.33 7.844-13 11-6.112 7.227-11.999 16.335-16 21-6.083 3.499-14.842 7.675-12 17 10.59-3.077 22.569-4.764 32-9 1.269-4.731 3.26-8.74 4-14 29.209-9.457 53.803-23.531 84-32 0.274-2.933-4.007-3.714 0-5 10.494 6.873 21.331-7.505 34-8-4.358-12.732-14.046-20.582-29-18zm-139 9c3.617-3.533 17.6-6.863 17-8-6.876 0.805-17.971 2.678-17 8zm-6 4c0.673-1.422 6.117-3.088 3-5-0.673 1.422-6.118 3.088-3 5zm220 18c-8.832-2.738-15.362-11.812-24-13-2.394-0.329-7.431-0.29-10 0-17.34 1.959-38.188 13.737-53 18-12.998 3.74-23.283 9.426-34 14-9.374 4.001-18.497 6.476-26 12 13.398 1.119 27.407 12.987 43 15 9.057 1.169 21.362-1.414 32 0 7.684 1.021 15.975 4.115 24 6 25.08 5.89 56.374 11.866 77 0 13.537-7.788 28.273-27.396 16-44-14.119-8.099-29.702-3.258-45-8zm-149-1c-15.89 3.737-19.47 5.798-26 16-1.314 2.054-5.692 3.737-3 6 5.296-7 9.517-14.407 19-18 6.959-2.636 16.322-1.071 22-7-4.282-0.402-8.174 2.1-12 3zm203 21c0.279-2.279-0.241-3.759-2-4-0.28 2.279 0.241 3.759 2 4zm-18 35c-15.91 10.624-37.64 13.188-60 9-18.533-3.472-35.217-13.191-52-14-7.129-0.344-13.608 2.307-20 2-23.551-1.129-39.06-14.875-61-17-1.725 7.942-5.427 13.906-5 24 20.479 8.243 47.805 17.853 71 17 3.655-4.012 3.776-11.557 9-14-2.057 7.305 3.852 7.32 2 12 22.763-0.815 49.629 15.769 82 12 16.919-1.97 32.963-11.963 43-22 10.029-10.029 21.242-26.135 12-43 0.112 17.819-12.195 28.12-21 34zm-230-18c5.09-3.588 13.672-8.98 13-15-4.385 4.948-9.803 8.864-13 15zm242 0c5.032-0.657 7.437-9.2 5-14-0.057 6.276-2.832 9.835-5 14zm-304-8c2.689 0.688 1.933-2.067 3-3-2.689-0.688-1.933 2.067-3 3zm-2 2v2c2.461 1.555 2.94-3.396 1-3-0.057 0.61-0.15 1.184-1 1zm303 11c2.529 1.053 4.433-3.372 2-4-0.521 1.48-1.48 2.521-2 4zm-7 8c0.884-2.499 7.757-4.177 5-7-0.869 2.514-7.086 4.847-5 7zm-242 6c-0.609-2.391 1.255-7.256-1-8-1.869 1.781-5.855 8.707 1 8z"/>
	<path d="m306.02 50.476c-31.874-6.834-68.642 3.846-84 24-2.152 2.824-4.666 8.025-7 12-2.256 3.841-5.797 8.559-7 12-1.456 4.163-0.302 9.503-2 14-6.831 18.094-25.425 23.056-28 48-0.734 7.113-0.459 16.892 0 27 0.646 14.22-0.082 30.437 4 42-11.812-2.544-24.216-3.08-38-6-12.398-2.626-24.9-9.789-38-13-19.045-4.668-38.896-5.6-57-10-8.435-2.05-21.679-6.273-28-11-12.074-9.027-16.147-29.658-12-48 3.315 1.056 4.338 2.963 6-1 0.458-3.125-2.137-3.197-5-3 2.204-9.754-1.234-19.121 5-25 0.841-4.437-7.026-3.474-4-7-1.008-3.008 2.228-1.772 4-2-3.927-6.371 1.172-8.34 2-15 3.463 0.87 1.99 6.676 6 7 3.193-0.141 3.307-3.359 6-4 2.588 1.079-0.962 8.296 4 7 1.805-1.905 1.777-11.026-4-12-1.891-7.038 2.109-5.23 2-12-8.148 0.801-3.413 9.969-8 13-3.699-4.434 2.648-14.153 3-21 2.984 0.016-1.411 7.411 3 6 3.387-3.13-2.019-5.924-2-9 18.21-32.195 49.556-56.52 93-56 13.693 0.164 28.111 0.419 42 2 22.525 2.563 44.805 3.036 64 8 14.646 3.788 30.803 7.009 44 12 12.564 4.752 28.455 12.037 36 21zm-230-8c1.778 0.888 2.542 2.792 6 2 5.094-7.033-7.37-11.981-6-2zm-29 9c2.551-1.858 2.526-6.195-1-7-2.551 1.858-2.526 6.195 1 7zm-9 1c-5.046 4.027 3.486 4.683 0 0zm-7 12c1.279 1.368 4.721 1.368 6 0-0.122-2.544-1.456-3.878-4-4-0.521 1.48-1.48 2.521-2 4zm8 9c1.857-2.151 0.15-6.8-4-6-2.297 2.59-0.117 6.767 4 6zm-7 10c1.904 0.429 2.512 2.154 5 2 7.431-5.112-6.708-13.394-5-2zm7 9c3.562 0.229 5.229-1.438 5-5-3.093-3.172-8.173 1.907-5 5zm7 5h5c1.109-5.789-5.473-4.17-5 0zm-6 3c1.945-1.929 1.046-6.121-3-5-0.474 3.141 1.247 4.086 3 5zm3-1v2c2.461 1.555 2.94-3.396 1-3-0.057 0.61-0.15 1.184-1 1zm4 5c3.851 0.788 3.851-4.788 0-4v4zm9 1c1.003-3e-3 1.19 0.81 2 1-3e-3 -1.003 0.81-1.19 1-2-1.003 3e-3 -1.19-0.81-2-1 3e-3 1.003-0.81 1.19-1 2zm-36 0c0.187 2.813 1.74 4.26 5 4-0.075-1.742 0.223-3.11 1-4-1.279-1.368-4.722-1.368-6 0zm51 3c1.003-3e-3 1.19 0.81 2 1-3e-3 -1.003 0.81-1.19 1-2-1.003 3e-3 -1.19-0.81-2-1 3e-3 1.003-0.81 1.19-1 2zm9 2c0.136 1.646 6.864 1.646 7 0-0.713-1.156-7.069-4.374-7 0zm10 3c1.273 1.363 4.898 1.544 5-1-1.427-0.239-1.687-1.646-3-2-0.24 1.427-1.647 1.687-2 3zm6 0c2.039 0.558 1.961 3.009 4 1 0.753-3.41-3.82-3.9-4-1zm-79 5c3.201-0.132 4.399-2.267 4-6-3.677-0.327-6.331 3.376-4 6zm93-3c-2.043-0.957-3.957-2.043-6-3-1.208 4.298 4.913 7.005 6 3zm85 3c1.862-0.138 3.342-0.658 4-2-2.039-0.294-1.961-2.706-4-3-1.284 1.314-1.284 3.686 0 5zm-70-1c-0.136-1.646-6.864-1.646-7 0 0.713 1.156 7.068 4.374 7 0zm60 4c-0.334-2.333-1.025-4.309-3-5 0.025 2.641-0.933 6.266 3 5zm-51 0h2v-2h-2v2zm33 4c1.186-1.304 0.473-6.349-3-6-1.855 1.973-1.487 7.363 3 6zm-22 0c0.279-2.279-0.241-3.759-2-4-1.852 1.763 0.257 3.097 2 4zm28-1c1.427 0.24 1.687 1.646 3 2 0.239-1.427 1.646-1.687 2-3-1.427-0.239-1.687-1.647-3-2-0.24 1.427-1.647 1.687-2 3zm20 1c0.686-3.353-1.678-3.656-4-4-0.464 3.131 0.869 4.464 4 4zm-181 1c3.309 2.024 3.623 7.044 7 9 0.013-1.987 2.729-1.271 2-4-2.297-2.559-4.473-14.869-9-5zm142-1c1.427 0.239 1.687 1.646 3 2 0.239-1.427 1.646-1.687 2-3-1.427-0.239-1.687-1.646-3-2-0.24 1.427-1.647 1.687-2 3zm24 11c0.56 1.44 1.56 2.44 3 3 2.055-1.612 2.319-5.014 2-9 3.247 1.64 6.341 0.541 6-4-2.358-1.468-1.86-2.111-5-1-0.86 4.807-4.831 6.502-6 11zm-12-7h3c-0.157-1.177 0.172-2.838-1-3-0.24 1.427-1.647 1.687-2 3zm8 0c1.768 0.878 2.919 3.169 5 1 0.963-3.675-4.913-3.975-5-1zm-147 4c-0.26 3.26 1.187 4.813 4 5 1.368-1.278 1.368-4.722 0-6-1.742-0.075-3.11 0.223-4 1zm150 14c0.239-1.427 1.646-1.687 2-3-1.907-0.426-1.81-2.857-5-2-0.474 3.141 1.247 4.086 3 5zm-165 8c4.55 0.955 6.296-4.204 4-7-3.899-0.303-6.675 3.826-4 7zm28-1c2.296-2.59 0.116-6.767-4-6-0.271 3.604-0.25 6.917 4 6zm125 2c1.466-1.585 2.063-7.94-2-7-2.769 1.911-2.515 7.128 2 7zm-115 14c0.309-2.358 3.473-1.86 3-5-1.161-0.839-2.681-1.319-5-1 0.015 2.651-0.555 5.889 2 6zm-14 1c1.916-0.846 2.706-4.387 1-6h-3c-1.539 1.524-1.782 6.857 2 6zm129 0c1.163-1.838 5.307-0.693 4-5-1.352-0.314-1.91-1.424-4-1-0.783 0.694-2.226 5.58 0 6zm-11 0c2.319 0.319 3.839-0.161 5-1 0.169-2.503-1.536-3.131-3-4-0.427 1.907-2.858 1.81-2 5zm9 5c1.427 0.239 1.687 1.646 3 2 0.239-1.427 1.646-1.687 2-3-1.427-0.239-1.687-1.646-3-2-0.24 1.427-1.647 1.687-2 3zm-6 5c0.294-2.039 2.706-1.961 3-4-3.061-3.803-7.769 2.887-3 4zm7 2h3v-3h-3v3z" fill="#9B5F0D"/>
	<path d="m344.02 109.48c-1.953 1.171-5.597 3.285-8 1-1.528-7.954 8.017-6.862 8-1z"/>
	<path d="m397.02 164.48c2.473 1.173-2.426 4.155 2 4-1.286 1.714-2.067 3.933-5 4-0.027-0.973-1.224-0.776-2-1v-5c1.904-0.429 2.512-2.154 5-2z"/>
	<path d="m442.02 152.48c-26.119-21.407-60.643 5.24-78 20-5.437 4.623-11.877 10.657-18 13-6.231 2.384-12.797 2.333-18 4-13.628 4.366-29.725 15.702-38 27-2.18 2.977-2.971 7.74-5 11-5.283 8.486-13.16 20.465-19 29-11.234-4.839-26.028-10.597-19-25 2.749-5.633 9.853-12.42 15-20 5.374-7.914 10.952-15.387 14-20 12.855-8.041 27.875-22.681 49-16 3.073-1.562-1.737-3.48-3-4 11.551-5.637 20.31-12.896 31-22 8.087-6.886 15.085-16.947 26-20 18.818-5.264 39.817 2.539 55 9 1.96 5.374 7.33 7.336 8 14z" fill="#9B5F0D"/>
	<path d="m488.02 198.48c-3.086-2.58-5.208-6.125-7-10-23.367-16.393-53.892 1.699-72 15-4.788 3.517-9.991 8.883-15 11-14.476 6.119-29.211 2.399-37 14-10.962 18.371-29.425 29.241-39 49-10.127-1.873-19.452-4.548-24-12 0.162-9.933 7.815-13.688 14-21 12.381-14.639 28.003-35.986 44-39 11.824-2.228 19.024 1.511 26 6 0.511-5.844-6.368-4.299-7-9 20.164-12.14 54.795-47.741 89-37 13.094 4.112 27.509 13.693 28 33zm-111 8c3.131 0.464 4.464-0.869 4-4h-5c-0.224 1.891 1.127 2.206 1 4z" fill="#9B5F0D"/>
</g>
</svg>
