<?xml version="1.0" encoding="UTF-8"?>
<!-- Created with Inkscape (http://www.inkscape.org/) -->
<svg id="svg5723" width="400" height="169.02" version="1.0" xmlns="http://www.w3.org/2000/svg" xmlns:cc="http://creativecommons.org/ns#" xmlns:dc="http://purl.org/dc/elements/1.1/" xmlns:rdf="http://www.w3.org/1999/02/22-rdf-syntax-ns#" xmlns:xlink="http://www.w3.org/1999/xlink">
 <metadata id="metadata299">
  <rdf:RDF>
   <cc:Work rdf:about="">
    <dc:format>image/svg+xml</dc:format>
    <dc:type rdf:resource="http://purl.org/dc/dcmitype/StillImage"/>
    <cc:license rdf:resource="http://creativecommons.org/licenses/publicdomain/"/>
   </cc:Work>
   <cc:License rdf:about="http://creativecommons.org/licenses/publicdomain/">
    <cc:permits rdf:resource="http://creativecommons.org/ns#Reproduction"/>
    <cc:permits rdf:resource="http://creativecommons.org/ns#Distribution"/>
    <cc:permits rdf:resource="http://creativecommons.org/ns#DerivativeWorks"/>
   </cc:License>
  </rdf:RDF>
 </metadata>
 <defs id="defs5725">
  <pattern id="pattern16303" patternTransform="matrix(.60653 0 0 .60653 456.48 743.92)" xlink:href="#pattern9238"/>
  <linearGradient id="linearGradient16283">
   <stop id="stop16285" stop-color="#252b41" offset="0"/>
   <stop id="stop16287" stop-color="#252b41" stop-opacity="0" offset="1"/>
  </linearGradient>
  <linearGradient id="linearGradient7359">
   <stop id="stop7361" offset="0"/>
   <stop id="stop7363" stop-color="#1e1d2e" offset="1"/>
  </linearGradient>
  <linearGradient id="linearGradient7172">
   <stop id="stop7174" stop-color="#fff" offset="0"/>
   <stop id="stop7176" stop-color="#03070b" stop-opacity=".65482" offset="1"/>
  </linearGradient>
  <linearGradient id="linearGradient6994">
   <stop id="stop6996" stop-color="#1b2c3c" offset="0"/>
   <stop id="stop6998" stop-color="#dfe8f1" offset="1"/>
  </linearGradient>
  <linearGradient id="linearGradient6168">
   <stop id="stop6170" stop-color="#fff" stop-opacity="0" offset="0"/>
   <stop id="stop6172" stop-color="#fdca01" offset="1"/>
  </linearGradient>
  <linearGradient id="linearGradient5896">
   <stop id="stop5898" stop-color="#fff" offset="0"/>
   <stop id="stop5907" stop-color="#a3701c" offset=".21875"/>
   <stop id="stop5900" stop-color="#582d00" offset="1"/>
  </linearGradient>
  <linearGradient id="linearGradient5915">
   <stop id="stop5917" stop-color="#aaa" offset="0"/>
   <stop id="stop5919" stop-color="#aaa" stop-opacity="0" offset="1"/>
  </linearGradient>
  <pattern id="pattern9238" patternTransform="matrix(.60653 0 0 .60653 308.75 855.34)" xlink:href="#pattern8227"/>
  <linearGradient id="linearGradient5979">
   <stop id="stop5981" stop-color="#eee" offset="0"/>
   <stop id="stop5983" stop-color="#eee" stop-opacity="0" offset="1"/>
  </linearGradient>
  <linearGradient id="linearGradient4971">
   <stop id="stop4973" offset="0"/>
   <stop id="stop4975" stop-opacity="0" offset="1"/>
  </linearGradient>
  <linearGradient id="linearGradient7563">
   <stop id="stop7565" stop-color="#888" offset="0"/>
   <stop id="stop7567" stop-color="#fff" offset="1"/>
  </linearGradient>
  <linearGradient id="linearGradient6653">
   <stop id="stop6655" stop-color="#410e0e" offset="0"/>
   <stop id="stop6657" stop-color="#100303" stop-opacity="0" offset="1"/>
  </linearGradient>
  <pattern id="pattern8227" width="17.5" height="13" patternTransform="translate(308.75 855.34)" patternUnits="userSpaceOnUse">
   <path id="path8209" d="m6.6667 9.6667c0-1.84-1.4934-3.3333-3.3333-3.3333-1.84 0-3.3333 1.4933-3.3333 3.3333 0 1.84 1.4933 3.3333 3.3333 3.3333 1.84 0 3.3333-1.4933 3.3333-3.3333z" color="rgb(0, 0, 0)" fill-rule="evenodd"/>
   <path id="path8207" d="m14 9.6667c0-1.84-1.4934-3.3333-3.3333-3.3333-1.84 0-3.3334 1.4933-3.3333 3.3333 0 1.84 1.4933 3.3333 3.3333 3.3333 1.84 0 3.3333-1.4933 3.3333-3.3333z" color="rgb(0, 0, 0)" fill-rule="evenodd"/>
   <path id="path8185" d="m10.167 3.3333c0-1.84-1.4934-3.3333-3.3333-3.3333-1.84 0-3.3333 1.4933-3.3333 3.3333 0 1.84 1.4933 3.3333 3.3333 3.3333 1.84 0 3.3333-1.4933 3.3333-3.3333z" color="rgb(0, 0, 0)" fill-rule="evenodd"/>
   <path id="path8189" d="m17.5 3.3333c0-1.84-1.4934-3.3333-3.3333-3.3333-1.84 0-3.3334 1.4933-3.3333 3.3333 0 1.84 1.4933 3.3333 3.3333 3.3333 1.84 0 3.3333-1.4933 3.3333-3.3333z" color="rgb(0, 0, 0)" fill-rule="evenodd"/>
  </pattern>
  <radialGradient id="radialGradient16455" cx="621.83" cy="590.57" r="71.858" gradientTransform="matrix(.72473 4.7749e-7 -9.2254e-7 1.4002 607.01 -234.04)" gradientUnits="userSpaceOnUse" spreadMethod="reflect" xlink:href="#linearGradient7359"/>
  <radialGradient id="radialGradient16457" cx="632.27" cy="608.5" r="71.858" gradientTransform="matrix(.49031 .012063 -.019763 .80327 779.58 102.6)" gradientUnits="userSpaceOnUse" spreadMethod="reflect" xlink:href="#linearGradient5979"/>
  <radialGradient id="radialGradient16459" cx="627.11" cy="603.69" r="71.858" gradientTransform="matrix(.85686 0 1.7021e-6 1.6555 524.14 -388.15)" gradientUnits="userSpaceOnUse" spreadMethod="reflect" xlink:href="#linearGradient4971"/>
  <linearGradient id="linearGradient16461" x1="667.76" x2="561.7" y1="528.76" y2="879.24" gradientTransform="translate(431.34)" gradientUnits="userSpaceOnUse" spreadMethod="reflect" xlink:href="#linearGradient6994"/>
  <linearGradient id="linearGradient16463" x1="627.95" x2="636.76" y1="539.87" y2="527.14" gradientTransform="translate(431.34)" gradientUnits="userSpaceOnUse" xlink:href="#linearGradient4971"/>
  <linearGradient id="linearGradient16465" x1="617.48" x2="639.13" y1="564.97" y2="546.08" gradientTransform="translate(431.34)" gradientUnits="userSpaceOnUse" xlink:href="#linearGradient5979"/>
  <linearGradient id="linearGradient16467" x1="636.04" x2="634.98" y1="522.03" y2="564.67" gradientTransform="translate(431.34)" gradientUnits="userSpaceOnUse" xlink:href="#linearGradient7172"/>
  <radialGradient id="radialGradient16469" cx="624.91" cy="583.85" r="8.25" gradientTransform="matrix(11.672 0 0 10.017 -6665.7 -5267.5)" gradientUnits="userSpaceOnUse" xlink:href="#linearGradient7172"/>
  <linearGradient id="linearGradient16471" x1="640.39" x2="630.81" y1="584.26" y2="622.66" gradientTransform="translate(431.34)" gradientUnits="userSpaceOnUse" xlink:href="#linearGradient7172"/>
  <linearGradient id="linearGradient16473" x1="627.19" x2="623.25" y1="643.59" y2="674.8" gradientTransform="translate(431.34)" gradientUnits="userSpaceOnUse" xlink:href="#linearGradient7172"/>
  <linearGradient id="linearGradient16475" x1="607.39" x2="594.91" y1="611.66" y2="640.13" gradientTransform="translate(431.34)" gradientUnits="userSpaceOnUse" xlink:href="#linearGradient7172"/>
  <linearGradient id="linearGradient16477" x1="602.03" x2="591.7" y1="543.92" y2="572.33" gradientTransform="translate(431.34)" gradientUnits="userSpaceOnUse" xlink:href="#linearGradient7172"/>
  <linearGradient id="linearGradient16479" x1="629.38" x2="641.48" y1="611.31" y2="573.3" gradientTransform="translate(431.34)" gradientUnits="userSpaceOnUse" xlink:href="#linearGradient4971"/>
  <linearGradient id="linearGradient16481" x1="613.96" x2="633.67" y1="647.56" y2="618.38" gradientTransform="translate(431.34)" gradientUnits="userSpaceOnUse" xlink:href="#linearGradient4971"/>
  <linearGradient id="linearGradient16483" x1="600.35" x2="592.51" y1="610.96" y2="591.56" gradientTransform="translate(431.34)" gradientUnits="userSpaceOnUse" xlink:href="#linearGradient4971"/>
  <linearGradient id="linearGradient16485" x1="606.29" x2="600.72" y1="545.46" y2="569.36" gradientTransform="translate(431.34)" gradientUnits="userSpaceOnUse" xlink:href="#linearGradient4971"/>
  <linearGradient id="linearGradient16487" x1="610.31" x2="623.41" y1="547.36" y2="545.77" gradientTransform="translate(431.34)" gradientUnits="userSpaceOnUse" xlink:href="#linearGradient6994"/>
  <linearGradient id="linearGradient16489" x1="606.05" x2="626.22" y1="613.67" y2="668.42" gradientTransform="translate(431.34)" gradientUnits="userSpaceOnUse" xlink:href="#linearGradient6994"/>
  <linearGradient id="linearGradient16491" x1="623.2" x2="640.17" y1="627.22" y2="638.06" gradientTransform="translate(431.34)" gradientUnits="userSpaceOnUse" xlink:href="#linearGradient6994"/>
  <linearGradient id="linearGradient16493" x1="599.1" x2="642" y1="599.91" y2="572.53" gradientTransform="translate(431.34)" gradientUnits="userSpaceOnUse" xlink:href="#linearGradient6994"/>
  <radialGradient id="radialGradient16495" cx="621.83" cy="590.57" r="71.858" gradientTransform="matrix(.72473 4.7749e-7 -9.2254e-7 1.4002 175.67 -234.04)" gradientUnits="userSpaceOnUse" spreadMethod="reflect" xlink:href="#linearGradient7359"/>
  <radialGradient id="radialGradient16497" cx="632.27" cy="608.5" r="71.858" gradientTransform="matrix(.49031 .012063 -.019763 .80327 348.25 102.6)" gradientUnits="userSpaceOnUse" spreadMethod="reflect" xlink:href="#linearGradient5979"/>
  <radialGradient id="radialGradient16499" cx="627.11" cy="603.69" r="71.858" gradientTransform="matrix(.72473 4.7749e-7 -9.2254e-7 1.4002 175.67 -234.04)" gradientUnits="userSpaceOnUse" spreadMethod="reflect" xlink:href="#linearGradient4971"/>
  <linearGradient id="linearGradient16501" x1="611.35" x2="640.58" y1="650.86" y2="543.44" gradientTransform="translate(-2,2)" gradientUnits="userSpaceOnUse" spreadMethod="reflect" xlink:href="#linearGradient6994"/>
  <linearGradient id="linearGradient16503" x1="621" x2="529.11" y1="585.91" y2="660.17" gradientUnits="userSpaceOnUse" spreadMethod="reflect" xlink:href="#linearGradient6994"/>
  <linearGradient id="linearGradient16505" x1="627.95" x2="636.76" y1="539.87" y2="527.14" gradientUnits="userSpaceOnUse" xlink:href="#linearGradient4971"/>
  <linearGradient id="linearGradient16507" x1="617.48" x2="639.13" y1="564.97" y2="546.08" gradientUnits="userSpaceOnUse" xlink:href="#linearGradient5979"/>
  <linearGradient id="linearGradient16509" x1="636.04" x2="634.98" y1="522.03" y2="564.67" gradientUnits="userSpaceOnUse" xlink:href="#linearGradient7172"/>
  <linearGradient id="linearGradient16513" x1="640.39" x2="630.81" y1="584.26" y2="622.66" gradientUnits="userSpaceOnUse" xlink:href="#linearGradient7172"/>
  <linearGradient id="linearGradient16515" x1="627.19" x2="623.25" y1="643.59" y2="674.8" gradientUnits="userSpaceOnUse" xlink:href="#linearGradient7172"/>
  <linearGradient id="linearGradient16517" x1="607.39" x2="594.91" y1="611.66" y2="640.13" gradientUnits="userSpaceOnUse" xlink:href="#linearGradient7172"/>
  <linearGradient id="linearGradient16519" x1="602.03" x2="591.7" y1="543.92" y2="572.33" gradientUnits="userSpaceOnUse" xlink:href="#linearGradient7172"/>
  <linearGradient id="linearGradient16521" x1="629.38" x2="641.48" y1="611.31" y2="573.3" gradientUnits="userSpaceOnUse" xlink:href="#linearGradient4971"/>
  <linearGradient id="linearGradient16523" x1="613.96" x2="633.67" y1="647.56" y2="618.38" gradientUnits="userSpaceOnUse" xlink:href="#linearGradient4971"/>
  <linearGradient id="linearGradient16525" x1="600.35" x2="592.51" y1="610.96" y2="591.56" gradientUnits="userSpaceOnUse" xlink:href="#linearGradient4971"/>
  <linearGradient id="linearGradient16527" x1="606.29" x2="600.72" y1="545.46" y2="569.36" gradientUnits="userSpaceOnUse" xlink:href="#linearGradient4971"/>
  <linearGradient id="linearGradient16529" x1="610.31" x2="623.41" y1="547.36" y2="545.77" gradientUnits="userSpaceOnUse" xlink:href="#linearGradient6994"/>
  <linearGradient id="linearGradient16531" x1="606.05" x2="626.22" y1="613.67" y2="668.42" gradientUnits="userSpaceOnUse" xlink:href="#linearGradient6994"/>
  <linearGradient id="linearGradient16533" x1="623.2" x2="640.17" y1="627.22" y2="638.06" gradientUnits="userSpaceOnUse" xlink:href="#linearGradient6994"/>
  <linearGradient id="linearGradient16535" x1="599.1" x2="642" y1="599.91" y2="572.53" gradientUnits="userSpaceOnUse" xlink:href="#linearGradient6994"/>
  <radialGradient id="radialGradient16537" cx="623.78" cy="586.53" r="71.858" gradientTransform="matrix(.70707 .040313 -.004984 1.2938 -140.36 -317.8)" gradientUnits="userSpaceOnUse" spreadMethod="reflect" xlink:href="#linearGradient7359"/>
  <linearGradient id="linearGradient16539" x1="718.94" x2="647.59" y1="307.84" y2="482.91" gradientTransform="translate(147.74 -111.43)" gradientUnits="userSpaceOnUse" xlink:href="#linearGradient6653"/>
  <linearGradient id="linearGradient16541" x1="138.69" x2="140.71" y1="605.62" y2="660.5" gradientTransform="translate(147.74 -111.43)" gradientUnits="userSpaceOnUse" xlink:href="#linearGradient6653"/>
  <linearGradient id="linearGradient16543" x1="174.99" x2="198.08" y1="720.53" y2="545.88" gradientTransform="translate(147.74 -111.43)" gradientUnits="userSpaceOnUse" xlink:href="#linearGradient5979"/>
  <linearGradient id="linearGradient16545" x1="180.69" x2="181.71" y1="654.62" y2="627.38" gradientTransform="translate(147.74 -111.43)" gradientUnits="userSpaceOnUse" xlink:href="#linearGradient6653"/>
  <radialGradient id="radialGradient16547" cx="144.49" cy="843.38" r="329.03" gradientTransform="matrix(2.3862 -.19755 .045194 .54589 -102.23 18.584)" gradientUnits="userSpaceOnUse" xlink:href="#linearGradient6653"/>
  <linearGradient id="linearGradient16549" x1="21.762" x2="213.55" y1="493.84" y2="389.54" gradientTransform="translate(147.74 -111.43)" gradientUnits="userSpaceOnUse" xlink:href="#linearGradient5979"/>
  <linearGradient id="linearGradient16551" x1="15.064" x2="364.31" y1="530.64" y2="530.64" gradientTransform="translate(147.74 -111.43)" gradientUnits="userSpaceOnUse" xlink:href="#linearGradient5896"/>
  <linearGradient id="linearGradient16553" x1="531.39" x2="526.56" y1="390.62" y2="348.48" gradientTransform="translate(147.74 -111.43)" gradientUnits="userSpaceOnUse" xlink:href="#linearGradient16283"/>
  <linearGradient id="linearGradient16555" x1="536.6" x2="527.18" y1="631.95" y2="690.57" gradientTransform="translate(149.6 -113.3)" gradientUnits="userSpaceOnUse" xlink:href="#linearGradient5979"/>
  <linearGradient id="linearGradient16557" x1="391.63" x2="350.01" y1="525.75" y2="657.3" gradientUnits="userSpaceOnUse" xlink:href="#linearGradient4971"/>
  <linearGradient id="linearGradient16559" x1="370.79" x2="432.79" y1="733.72" y2="568.25" gradientUnits="userSpaceOnUse" xlink:href="#linearGradient5979"/>
  <linearGradient id="linearGradient16561" x1="356.13" x2="357.01" y1="657.3" y2="638.3" gradientUnits="userSpaceOnUse" xlink:href="#linearGradient4971"/>
  <linearGradient id="linearGradient16563" x1="-2.4197" x2="-6.6623" y1="671.11" y2="597.57" gradientTransform="translate(147.74 -111.43)" gradientUnits="userSpaceOnUse" xlink:href="#linearGradient5979"/>
  <linearGradient id="linearGradient16565" x1="23.116" x2="27.494" y1="640.95" y2="614.26" gradientTransform="translate(147.74 -111.43)" gradientUnits="userSpaceOnUse" xlink:href="#linearGradient4971"/>
  <linearGradient id="linearGradient16567" x1="50.772" x2="71.355" y1="420.28" y2="470.67" gradientUnits="userSpaceOnUse" xlink:href="#linearGradient5979"/>
  <linearGradient id="linearGradient16569" x1="1.4749" x2="3.4805" y1="510.41" y2="488.08" gradientTransform="matrix(1.1326 0 0 1.0544 -4.4636 -23.154)" gradientUnits="userSpaceOnUse" xlink:href="#linearGradient5915"/>
  <linearGradient id="linearGradient16571" x1="-1039.7" x2="-1039.7" y1="503.28" y2="493.75" gradientTransform="translate(1056.9 6.364)" gradientUnits="userSpaceOnUse" xlink:href="#linearGradient5979"/>
  <linearGradient id="linearGradient16573" x1="38.673" x2="64.187" y1="428.33" y2="457.21" gradientTransform="matrix(.87892 0 0 .8924 7.0644 49.507)" gradientUnits="userSpaceOnUse" xlink:href="#linearGradient5979"/>
  <linearGradient id="linearGradient16575" x1="51.647" x2="66.614" y1="475.14" y2="447.78" gradientTransform="matrix(.87892 0 0 .8924 7.0644 49.507)" gradientUnits="userSpaceOnUse" xlink:href="#linearGradient5979"/>
  <linearGradient id="linearGradient16577" x1="41.741" x2="64.108" y1="420.98" y2="452.07" gradientTransform="matrix(1.2602 -.54079 -.070165 1.0859 -3.803 9.3962)" gradientUnits="userSpaceOnUse" xlink:href="#linearGradient5979"/>
  <linearGradient id="linearGradient16579" x1="-858.5" x2="-838.75" y1="514.43" y2="514.43" gradientTransform="translate(1175.5 -112.68)" gradientUnits="userSpaceOnUse" xlink:href="#linearGradient7563"/>
  <radialGradient id="radialGradient16581" cx="485.42" cy="622.22" r="83.828" gradientTransform="matrix(.87144 -.25291 .45002 1.5506 -62.869 -321.83)" gradientUnits="userSpaceOnUse" xlink:href="#linearGradient5979"/>
  <linearGradient id="linearGradient16583" x1="480.03" x2="711.39" y1="547.23" y2="462.82" gradientTransform="translate(147.93 -111.28)" gradientUnits="userSpaceOnUse" xlink:href="#linearGradient5896"/>
  <radialGradient id="radialGradient16585" cx="546.22" cy="282.17" r="85.484" gradientTransform="matrix(3.4352 0 0 2.2033 -1194.6 -430.37)" gradientUnits="userSpaceOnUse" xlink:href="#linearGradient6653"/>
  <linearGradient id="linearGradient16587" x1="577" x2="562.86" y1="482.08" y2="512.13" gradientUnits="userSpaceOnUse">
   <stop id="stop9889" stop-color="#fd3301" offset="0"/>
   <stop id="stop9891" stop-color="#fd3301" stop-opacity="0" offset="1"/>
  </linearGradient>
  <linearGradient id="linearGradient16589" x1="698.37" x2="696.86" y1="369.54" y2="412.09" gradientTransform="translate(147.93 -111.28)" gradientUnits="userSpaceOnUse" xlink:href="#linearGradient6653"/>
  <radialGradient id="radialGradient16591" cx="694.81" cy="524.13" r="74.5" gradientTransform="matrix(2.8264 -.75734 .2983 1.1133 -1280.3 299.46)" gradientUnits="userSpaceOnUse" xlink:href="#linearGradient6653"/>
  <radialGradient id="radialGradient16593" cx="759.13" cy="384.78" r="109.08" gradientTransform="matrix(2.3495 -.64123 .45595 1.6706 -993.18 130.55)" gradientUnits="userSpaceOnUse" xlink:href="#linearGradient6653"/>
  <radialGradient id="radialGradient16595" cx="740.1" cy="545.55" r="41.69" gradientTransform="matrix(2.9001 0 0 4.6481 -1417.2 -1993.8)" gradientUnits="userSpaceOnUse" xlink:href="#linearGradient6653"/>
  <radialGradient id="radialGradient16597" cx="743.96" cy="403.92" r="18.188" gradientTransform="matrix(2.121 .56833 -.2716 1.0136 -565.77 -547.95)" gradientUnits="userSpaceOnUse" xlink:href="#linearGradient6653"/>
  <radialGradient id="radialGradient16599" cx="735.36" cy="662.38" r="78.531" gradientTransform="matrix(2.6548 -.7186 .15105 .55805 -1169.1 673.5)" gradientUnits="userSpaceOnUse" xlink:href="#linearGradient5979"/>
  <linearGradient id="linearGradient16601" x1="746.39" x2="738.97" y1="629.16" y2="585.67" gradientTransform="translate(147.73 -111.44)" gradientUnits="userSpaceOnUse" xlink:href="#linearGradient5979"/>
  <radialGradient id="radialGradient16603" cx="694.37" cy="440.88" r="11.276" gradientTransform="matrix(3.5384 0 0 5.1887 -1615.2 -1965.7)" gradientUnits="userSpaceOnUse" xlink:href="#linearGradient6653"/>
  <radialGradient id="radialGradient16605" cx="683.88" cy="438.91" r="11.276" gradientTransform="matrix(5.2604 2.9916e-6 -2.0701e-6 3.6416 -2792.8 -1286.6)" gradientUnits="userSpaceOnUse" xlink:href="#linearGradient6653"/>
  <radialGradient id="radialGradient16607" cx="669.97" cy="436.95" r="11.276" gradientTransform="matrix(2.1139 -2.1139 3.4717 3.4717 -2159.9 218.56)" gradientUnits="userSpaceOnUse" xlink:href="#linearGradient6653"/>
  <linearGradient id="linearGradient16609" x1="641" x2="666.5" y1="488.24" y2="488.24" gradientTransform="translate(147.74 -111.43)" gradientUnits="userSpaceOnUse" xlink:href="#linearGradient6168"/>
  <radialGradient id="radialGradient16611" cx="670.3" cy="458.76" r="43.912" gradientTransform="matrix(3.8402 .7909 -1.0111 4.9095 -1192.1 -2457.2)" gradientUnits="userSpaceOnUse" xlink:href="#linearGradient6653"/>
  <radialGradient id="radialGradient16613" cx="731.87" cy="603.62" r="78.531" gradientTransform="matrix(.89447 -.26389 .16359 .5545 37.516 362)" gradientUnits="userSpaceOnUse" xlink:href="#linearGradient5979"/>
  <radialGradient id="radialGradient16615" cx="677.77" cy="596.82" r="78.531" gradientTransform="matrix(1.4472 -.53049 .12258 .33439 -283.84 677.44)" gradientUnits="userSpaceOnUse" xlink:href="#linearGradient5979"/>
  <radialGradient id="radialGradient16619" cx="672.33" cy="444.14" r="11.276" gradientTransform="matrix(-1.845 .45877 -1.1814 -4.7514 2551.6 2162.3)" gradientUnits="userSpaceOnUse" xlink:href="#linearGradient6653"/>
  <radialGradient id="radialGradient16623" cx="692.58" cy="414.13" r="109.08" gradientTransform="matrix(.27215 -6.7515e-8 8.4676e-8 .89047 803.54 -44.95)" gradientUnits="userSpaceOnUse" xlink:href="#linearGradient6653"/>
  <linearGradient id="linearGradient16625" x1="527.97" x2="524.5" y1="440.59" y2="457.09" gradientUnits="userSpaceOnUse" xlink:href="#linearGradient5915"/>
  <linearGradient id="linearGradient16627" x1="494.36" x2="503.73" y1="449.44" y2="461.89" gradientUnits="userSpaceOnUse" spreadMethod="reflect" xlink:href="#linearGradient7563"/>
  <linearGradient id="linearGradient16629" x1="470.5" x2="479.86" y1="474.01" y2="485.41" gradientUnits="userSpaceOnUse" spreadMethod="reflect" xlink:href="#linearGradient7563"/>
  <linearGradient id="linearGradient16631" x1="490.31" x2="491.38" y1="465.17" y2="473.16" gradientUnits="userSpaceOnUse" xlink:href="#linearGradient4971"/>
  <linearGradient id="linearGradient16633" x1="463.08" x2="473.85" y1="474.12" y2="481.29" gradientUnits="userSpaceOnUse" xlink:href="#linearGradient4971"/>
  <linearGradient id="linearGradient16635" x1="502.48" x2="511.13" y1="440.05" y2="455.03" gradientUnits="userSpaceOnUse" xlink:href="#linearGradient4971"/>
  <linearGradient id="linearGradient16637" x1="516.01" x2="529.98" y1="457.51" y2="450.26" gradientUnits="userSpaceOnUse" xlink:href="#linearGradient7563"/>
  <radialGradient id="radialGradient16639" cx="498.18" cy="456.27" r="5.5547" gradientTransform="matrix(3.5471 0 .84321 3.8858 -1683.1 -1299.1)" gradientUnits="userSpaceOnUse" xlink:href="#linearGradient5979"/>
  <radialGradient id="radialGradient16641" cx="512.22" cy="446.96" r="5.5547" gradientTransform="matrix(2.9095 0 0 3.0953 -978.07 -936.84)" gradientUnits="userSpaceOnUse" xlink:href="#linearGradient5979"/>
  <radialGradient id="radialGradient16643" cx="429.21" cy="515.31" r="29.948" gradientTransform="matrix(1.5498 0 0 .086121 -235.98 470.94)" gradientUnits="userSpaceOnUse" xlink:href="#linearGradient5979"/>
  <linearGradient id="linearGradient16645" x1="360.88" x2="363.75" y1="431.09" y2="386.31" gradientTransform="translate(147.74 -111.43)" gradientUnits="userSpaceOnUse" xlink:href="#linearGradient6994"/>
  <linearGradient id="linearGradient16647" x1="223.41" x2="224.29" y1="427.08" y2="415.67" gradientTransform="translate(147.74 -111.43)" gradientUnits="userSpaceOnUse" xlink:href="#linearGradient6994"/>
  <linearGradient id="linearGradient16649" x1="505.09" x2="543.56" y1="426.1" y2="391.98" gradientTransform="translate(147.74 -111.43)" gradientUnits="userSpaceOnUse" xlink:href="#linearGradient16283"/>
 </defs>
 <g id="g16312" transform="matrix(.45219 0 0 .45219 -51.544 -95.144)">
  <path id="path7345" d="m770.61 336.7c-2.2818 0.09136-4.6085 0.54192-6.9688 1.4062-30.212 11.063-54.719 82.9-54.719 160.34 0 17.407 1.2363 33.632 3.5 48.188l101.5-31.094c2.8704-18.086 4.4688-37.43 4.4688-57.156 0-71.394-20.856-122.77-47.781-121.69z" fill-rule="evenodd"/>
  <path id="path11311" d="m986.02 335.67c-18.088 0.62064-25.004 36.176-30.656 80.75-2.5749 20.304-5.2864 42.139-5.5312 59.938l0.375-2.75 44.375-76.656 1.625 0.53125c2.7344-35.516-0.58092-62.142-10.188-61.812z" fill-rule="evenodd"/>
  <g id="g12225" transform="matrix(.42926 0 .018452 .68663 518.2 24.913)" fill-rule="evenodd">
   <path id="path12100" d="m1049 478.84-142.97 1.125c-24.178 0-49.399 51.541-52.041 111.34-2.6426 59.803 14.822 104.31 39 104.31l146.45-0.09375c24.178 0 45.951-48.541 48.594-108.34 2.6427-59.803-14.854-108.34-39.031-108.34z" fill="url(#radialGradient16455)"/>
   <path id="path12102" d="m1049 478.84-143.13 1.125c-24.178 0-49.399 51.541-52.041 111.34-2.6426 59.803 14.822 104.31 39 104.31l146.61-0.09375c24.178 0 45.951-48.541 48.594-108.34 2.6427-59.803-14.854-108.34-39.031-108.34z" fill="url(#radialGradient16457)" opacity=".14523"/>
   <path id="path12104" d="m1049 478.84-142.97 1.125c-24.178 0-49.399 51.541-52.041 111.34-2.6426 59.803 14.822 104.31 39 104.31l146.45-0.09375c24.178 0 45.951-48.541 48.594-108.34 2.6427-59.803-14.854-108.34-39.031-108.34z" fill="url(#radialGradient16459)"/>
  </g>
  <g id="g12205" transform="matrix(.42926 0 .013472 .68663 521.89 24.913)" fill-rule="evenodd">
   <path id="path12106" d="m1055.7 493.12c-0.7974-0.01252-1.5894 0.05465-2.4063 0.21875-18.848 3.7863-32.477 50.153-32.094 101.41 0.3797 50.788 12.819 87.813 30.094 83.625 19.096-4.6294 32.113-49.619 32.094-100.41 0.5239-48.406-11.473-84.589-27.688-84.844z" fill="url(#linearGradient16461)"/>
   <path id="path12108" d="m1063.6 508.88c5.7847-0.3625 8.75 13.536 8.75 27.75 0 1.9644-0.0614 3.8928-0.1866 5.759-6.7078 5.8354-13.362 12.573-18.727 16.473-0.3836-3.616 0.1078-10.185 0.1636-19.482 0.085-14.15 1.5593-29.971 10-30.5z" fill="url(#linearGradient16463)"/>
   <path id="path12110" d="m1053.4 558.91 13.634-11.927 4.6617-0.89905-16.619 16.561c-0.7118-0.86258-1.2977-2.0401-1.6767-3.7348z" fill="url(#linearGradient16465)"/>
   <path id="path12112" d="m1063.6 508.88c-3.9852 0.24974-6.4086 3.9054-7.875 9.1875 5.3226-0.0265 1.7786 11.102 2.8438 11.188 5.3522 0.42983 9.2812 3.9771 9.2812 13.375 0 1.4268-0.2387 2.7903-0.6562 4.0938-0.4003 1.2496 1.7127 0.6142 3.8125 0l-15.844 15.844c1.6636 1.4986 3.6135 2.2992 5.6875 2.0625 6.572-0.75 10.25-8.03 11-16.25 0-0.63361-0.0434-1.2569-0.0937-1.875 0.0013-0.01007-0.0013-0.02118 0-0.03125 0.3913-3.0851 0.5937-6.3939 0.5937-9.8438 0-14.214-2.9653-28.112-8.75-27.75z" fill="url(#linearGradient16467)"/>
   <path id="path12114" transform="matrix(.99849 0 0 1.1039 426.44 -60.056)" d="m632 584.86c0 12.15-3.6936 22-8.25 22s-8.25-9.8497-8.25-22 3.6936-22 8.25-22 8.25 9.8497 8.25 22z" fill="url(#radialGradient16469)"/>
   <path id="path12116" d="m1071.6 569c-4.1149 0.19662-7.5869 5.4053-9.4063 13.125 2.6496-3.3825 6.2757-6.9225 9.125-8.6562 2.2332-1.3588 2.6437 5.7852-5.125 8.2188 1.9044 5.1405 2.8593 29.374-1.5937 29.625-0.716 0.04043-1.5669-1.1496-2.375-2.9062 1.7807 8.516 5.0998 14.25 9.0625 14.25 5.6532 0 10.062-11.617 10.062-26.438 0-14.82-3.58-26.815-9.125-27.219-0.2064-0.01505-0.4215-0.00972-0.625 0z" fill="url(#linearGradient16471)"/>
   <path id="path12118" d="m1052.9 613.56c-2.0224-0.01207-3.5423 1.8061-4.6563 4.8125 3.1394 4.3487 5.7538 14.992 8.5 20.594 5.9447 12.127-0.4832 19.024-10.156 17.594-0.3013-0.04454-0.6178-0.14672-0.9375-0.28125 0.8164 8.0979 3.1821 13.44 9.1562 14.094 4.313 0.47175 7.2814-8.405 8.5-28.5 1.1899-19.62-4.4214-27.391-9.875-28.25-0.185-0.02914-0.3542-0.06144-0.5312-0.0625z" fill="url(#linearGradient16473)"/>
   <path id="path12120" d="m1034.4 583.19c-2.824-0.06974-5.8475 3.6872-8.1562 9.25 0.1049-0.06853 0.2076-0.16327 0.3125-0.21875 8.0242-4.2426 7.7812 13.307 7.7812 23.406 0 6.6545-0.9934 17.457-2.9375 24.062 0.6828 0.32156 1.3914 0.48578 2.125 0.4375 6.9456-0.45703 11.149-8.989 9.0938-28.906-1.454-14.093-1.9737-27.877-8.2188-28.031z" fill="url(#linearGradient16475)"/>
   <path id="path12122" d="m1039.6 515.53c-0.2035 0.01479-0.4119 0.05137-0.625 0.09375-1.1427 0.22732-2.1711 1.0504-3.0937 2.3438 7.6774 0.37027 3.7147 13.981 3.0312 25.25-0.7713 12.719-2.5708 20.683-5.5312 23.062 1.6249 3.4278 3.5397 5.6 5.25 6 4.0829 0.95488 9.0625-13.877 9.0625-29.469 0-15.105-1.7854-27.74-8.0938-27.281z" fill="url(#linearGradient16477)"/>
   <path id="path12124" d="m1071.8 573.31c-0.1238 0.02172-0.2667 0.07132-0.4063 0.15625-2.8493 1.7338-6.4754 5.2737-9.125 8.6562-0.9927 3.8452-1.5625 8.3306-1.5625 13.125 0 4.822 0.5904 9.2964 1.5938 13.156 0.8081 1.7566 1.659 2.9467 2.375 2.9062 4.453-0.25147 3.4981-24.484 1.5937-29.625 7.2831-2.2814 7.388-8.7008 5.5313-8.375z" fill="url(#linearGradient16479)"/>
   <path id="path12126" d="m1048.3 618.38c-1.9084 5.1508-2.6753 13.852-2.9062 23.125-0.1378 5.5327-0.1167 10.524 0.3125 14.781 0.3197 0.13453 0.6362 0.23671 0.9375 0.28125 9.673 1.4303 16.101-5.4672 10.156-17.594-2.7462-5.6022-5.3606-16.245-8.5-20.594z" fill="url(#linearGradient16481)"/>
   <path id="path12128" d="m1028.6 591.56c-0.6139 0.03851-1.2789 0.2585-2.0312 0.65625-0.1049 0.05548-0.2076 0.15022-0.3125 0.21875-2.2166 5.3409-3.75 12.358-3.75 19.312 0 12.574 3.6188 25.447 8.9062 27.938 1.9441-6.6052 2.9375-17.408 2.9375-24.062 0-9.1528 0.1845-24.435-5.75-24.062z" fill="url(#linearGradient16483)"/>
   <path id="path12130" d="m1035.9 517.97c-3.0837 4.3226-4.9817 14.023-5.9688 25.531-0.8048 9.3832 0.9903 17.553 3.4688 22.781 2.9604-2.3796 4.7599-10.344 5.5312-23.062 0.6835-11.269 4.6462-24.88-3.0312-25.25z" fill="url(#linearGradient16485)"/>
   <path id="path12132" d="m1046.8 527.78c-1.3235 2.8088-2.6256 8.5306-3.3125 15.125-0.9758 9.3678-0.3502 16.969 1.4063 16.969 0.3158 0 0.6642-0.26106 1-0.71875 1.0786-4.8211 1.75-10.534 1.75-16.344 0-5.5085-0.2361-10.695-0.8438-15.031z" fill="url(#linearGradient16487)" opacity=".3"/>
   <path id="path12134" d="m1039.1 609.12c-1.794 0-2.2419 12.768-1 28.5 0.0162 0.2044 0.046 0.39037 0.0625 0.59375 2.7145-2.3833 4.5111-7.0786 4.9063-14.469-1.2428-8.6868-2.7521-14.625-3.9688-14.625z" fill="url(#linearGradient16489)" opacity=".3"/>
   <path id="path12136" d="m1055.8 616.38c-3.3663 0-0.0022 8.9817 7.6563 21.688 0.1635-9.8669-1.5767-16.28-4.0625-20.062-1.5077-1.0618-2.7433-1.625-3.5938-1.625z" fill="url(#linearGradient16491)" opacity=".4"/>
   <path id="path12138" d="m1042.3 572.53c-0.8179 3.7717-1.3125 8.2255-1.3125 13.031 0 5.3676 0.5924 10.322 1.5938 14.344 2.1722-2.0717 3.7187-7.3309 3.7187-13.531 0-6.473-1.6766-11.982-4-13.844z" fill="url(#linearGradient16493)"/>
   <path id="path12140" d="m1055.6 494.16c-11.895 2.7967-16.597 15.965-20.781 26.094-2.7262 8.177-4.8983 16.516-6.5313 24.969 1.5643-7.5983 3.5743-15.099 6.0313-22.469 4.1839-10.129 8.8862-23.297 20.781-26.094 8.4892-0.37873 13.234 8.6855 16.375 15.281 11.272 27.793 11.222 58.763 9.6563 88.406-0.9135 9.8404-1.9894 19.873-3.875 29.688 2.2028-10.608 3.3837-21.508 4.375-32.188 1.5657-29.643 1.6158-60.613-9.6563-88.406-3.1407-6.5958-7.8858-15.66-16.375-15.281z" fill="#fff"/>
  </g>
  <g id="g12182" transform="translate(147.74 -111.43)" fill-rule="evenodd">
   <path id="path4995" d="m617.66 478.84-52.115 1.125c-24.178 0-49.399 51.541-52.041 111.34-2.6426 59.803 14.822 104.31 39 104.31l55.594-0.09375c24.178 0 45.951-48.541 48.594-108.34 2.6426-59.803-14.854-108.34-39.031-108.34z" fill="url(#radialGradient16495)"/>
   <path id="path11299" d="m617.66 478.84-52.115 1.125c-24.178 0-49.399 51.541-52.041 111.34-2.6426 59.803 14.822 104.31 39 104.31l55.594-0.09375c24.178 0 45.951-48.541 48.594-108.34 2.6426-59.803-14.854-108.34-39.031-108.34z" fill="url(#radialGradient16497)" opacity=".14523"/>
   <path id="path11295" d="m617.66 478.84-52.115 1.125c-24.178 0-49.399 51.541-52.041 111.34-2.6426 59.803 14.822 104.31 39 104.31l55.594-0.09375c24.178 0 45.951-48.541 48.594-108.34 2.6426-59.803-14.854-108.34-39.031-108.34z" fill="url(#radialGradient16499)"/>
   <path id="path16305" d="m622.41 495.12c-0.79742-0.01252-1.5893 0.05465-2.4062 0.21875-18.848 3.7863-32.477 50.153-32.094 101.41 0.3797 50.788 12.819 87.813 30.094 83.625 19.096-4.6294 32.113-49.619 32.094-100.41 0.52392-48.406-11.473-84.589-27.688-84.844z" fill="url(#linearGradient16501)"/>
   <path id="path7020" d="m624.41 493.12c-0.79742-0.01252-1.5893 0.05465-2.4062 0.21875-18.848 3.7863-32.477 50.153-32.094 101.41 0.3797 50.788 12.819 87.813 30.094 83.625 19.096-4.6294 32.113-49.619 32.094-100.41 0.52392-48.406-11.473-84.589-27.688-84.844z" fill="url(#linearGradient16503)"/>
   <path id="path5034" d="m632.25 508.88c5.7846-0.3625 8.75 13.536 8.75 27.75 0 1.9644-0.06146 3.8928-0.18662 5.759-6.7078 5.8354-13.362 12.573-18.727 16.473-0.38358-3.616 0.10783-10.185 0.16365-19.482 0.08496-14.15 1.5592-29.971 10-30.5z" fill="url(#linearGradient16505)"/>
   <path id="rect6006" d="m622.07 558.91 13.634-11.927 4.6616-0.89905-16.619 16.561c-0.71187-0.86258-1.2978-2.0401-1.6768-3.7348z" fill="url(#linearGradient16507)"/>
   <path id="path5020" d="m632.25 508.88c-3.9852 0.24974-6.4087 3.9054-7.875 9.1875 5.3226-0.0265 1.7785 11.102 2.8438 11.188 5.3522 0.42983 9.2812 3.9771 9.2812 13.375 0 1.4268-0.23873 2.7903-0.65625 4.0938-0.40028 1.2496 1.7127 0.6142 3.8125 0l-15.844 15.844c1.6636 1.4986 3.6135 2.2992 5.6875 2.0625 6.572-0.75 10.25-8.03 11-16.25 0-0.63361-0.04343-1.2569-0.09375-1.875 0.00128-0.01007-0.00128-0.02118 0-0.03125 0.39128-3.0851 0.59375-6.3939 0.59375-9.8438 0-14.214-2.9654-28.112-8.75-27.75z" fill="url(#linearGradient16509)"/>
   <path id="path7002" transform="matrix(.99849 0 0 1.1039 -4.891 -60.056)" d="m632 584.86c0 12.15-3.6936 22-8.25 22s-8.25-9.8497-8.25-22 3.6936-22 8.25-22 8.25 9.8497 8.25 22z" fill="url(#radialGradient16469)"/>
   <path id="path7052" d="m640.22 569c-4.1149 0.19662-7.5869 5.4053-9.4062 13.125 2.6496-3.3825 6.2757-6.9225 9.125-8.6562 2.2331-1.3588 2.6436 5.7852-5.125 8.2188 1.9044 5.1405 2.8593 29.374-1.5938 29.625-0.71601 0.04043-1.5668-1.1496-2.375-2.9062 1.7807 8.516 5.0998 14.25 9.0625 14.25 5.6532 0 10.062-11.617 10.062-26.438 0-14.82-3.58-26.815-9.125-27.219-0.20642-0.01505-0.42152-0.00972-0.625 0z" fill="url(#linearGradient16513)"/>
   <path id="path7073" d="m621.59 613.56c-2.0224-0.01207-3.5423 1.8061-4.6562 4.8125 3.1394 4.3487 5.7537 14.992 8.5 20.594 5.9446 12.127-0.48325 19.024-10.156 17.594-0.30125-0.04454-0.61783-0.14672-0.9375-0.28125 0.81642 8.0979 3.1821 13.44 9.1562 14.094 4.313 0.47175 7.2813-8.405 8.5-28.5 1.1898-19.62-4.4214-27.391-9.875-28.25-0.18501-0.02914-0.35424-0.06144-0.53125-0.0625z" fill="url(#linearGradient16515)"/>
   <path id="path7078" d="m603.06 583.19c-2.824-0.06974-5.8476 3.6872-8.1562 9.25 0.10488-0.06853 0.20757-0.16327 0.3125-0.21875 8.0242-4.2426 7.7812 13.307 7.7812 23.406 1e-5 6.6545-0.99343 17.457-2.9375 24.062 0.6828 0.32156 1.3913 0.48578 2.125 0.4375 6.9455-0.45703 11.149-8.989 9.0938-28.906-1.454-14.093-1.9737-27.877-8.2188-28.031z" fill="url(#linearGradient16517)"/>
   <path id="path7081" d="m608.25 515.53c-0.2035 0.01479-0.41197 0.05137-0.625 0.09375-1.1427 0.22732-2.1711 1.0504-3.0938 2.3438 7.6774 0.37027 3.7147 13.981 3.0312 25.25-0.77137 12.719-2.5709 20.683-5.5312 23.062 1.625 3.4278 3.5397 5.6 5.25 6 4.0829 0.95488 9.0625-13.877 9.0625-29.469 0-15.105-1.7854-27.74-8.0938-27.281z" fill="url(#linearGradient16519)"/>
   <path id="path7125" d="m640.47 573.31c-0.12378 0.02172-0.26668 0.07132-0.40625 0.15625-2.8493 1.7338-6.4754 5.2737-9.125 8.6562-0.99275 3.8452-1.5625 8.3306-1.5625 13.125 0 4.822 0.59038 9.2964 1.5938 13.156 0.80816 1.7566 1.659 2.9467 2.375 2.9062 4.453-0.25147 3.4981-24.484 1.5938-29.625 7.2831-2.2814 7.3879-8.7008 5.5312-8.375z" fill="url(#linearGradient16521)"/>
   <path id="path7151" d="m616.94 618.38c-1.9084 5.1508-2.6753 13.852-2.9062 23.125-0.13779 5.5327-0.11673 10.524 0.3125 14.781 0.31967 0.13453 0.63625 0.23671 0.9375 0.28125 9.673 1.4303 16.101-5.4672 10.156-17.594-2.7463-5.6022-5.3606-16.245-8.5-20.594z" fill="url(#linearGradient16523)"/>
   <path id="path7164" d="m597.25 591.56c-0.61391 0.03851-1.279 0.2585-2.0312 0.65625-0.10493 0.05548-0.20762 0.15022-0.3125 0.21875-2.2166 5.3409-3.75 12.358-3.75 19.312 0 12.574 3.6189 25.447 8.9062 27.938 1.9441-6.6052 2.9375-17.408 2.9375-24.062 0-9.1528 0.18449-24.435-5.75-24.062z" fill="url(#linearGradient16525)"/>
   <path id="path7330" d="m604.53 517.97c-3.0837 4.3226-4.9817 14.023-5.9688 25.531-0.80484 9.3832 0.99031 17.553 3.4688 22.781 2.9604-2.3796 4.7599-10.344 5.5312-23.062 0.68346-11.269 4.6461-24.88-3.0312-25.25z" fill="url(#linearGradient16527)"/>
   <path id="path9040" d="m615.5 527.78c-1.3236 2.8088-2.6256 8.5306-3.3125 15.125-0.97581 9.3678-0.35019 16.969 1.4062 16.969 0.31583 0 0.66426-0.26106 1-0.71875 1.0786-4.8211 1.75-10.534 1.75-16.344 0-5.5085-0.23608-10.695-0.84375-15.031z" fill="url(#linearGradient16529)" opacity=".3"/>
   <path id="path10036" d="m607.75 609.12c-1.794 0-2.242 12.768-1 28.5 0.01614 0.2044 0.04595 0.39037 0.0625 0.59375 2.7145-2.3833 4.5111-7.0786 4.9062-14.469-1.2428-8.6868-2.7521-14.625-3.9688-14.625z" fill="url(#linearGradient16531)" opacity=".3"/>
   <path id="path10049" d="m624.5 616.38c-3.3663 0-0.00226 8.9817 7.6562 21.688 0.16352-9.8669-1.5767-16.28-4.0625-20.062-1.5077-1.0618-2.7433-1.625-3.5938-1.625z" fill="url(#linearGradient16533)" opacity=".4"/>
   <path id="path10281" d="m611 572.53c-0.81797 3.7717-1.3125 8.2255-1.3125 13.031 0 5.3676 0.59236 10.322 1.5938 14.344 2.1722-2.0717 3.7188-7.3309 3.7188-13.531 0-6.473-1.6767-11.982-4-13.844z" fill="url(#linearGradient16535)"/>
   <path id="path10294" d="m624.31 494.16c-11.895 2.7967-16.597 15.965-20.781 26.094-2.7262 8.177-4.8983 16.516-6.5312 24.969 1.5642-7.5983 3.5742-15.099 6.0312-22.469 4.1839-10.129 8.8862-23.297 20.781-26.094 8.4892-0.37873 13.234 8.6855 16.375 15.281 11.272 27.793 11.222 58.763 9.6562 88.406-0.91346 9.8404-1.9894 19.873-3.875 29.688 2.2028-10.608 3.3837-21.508 4.375-32.188 1.5658-29.643 1.6158-60.613-9.6562-88.406-3.1408-6.5958-7.8858-15.66-16.375-15.281z" fill="#fff"/>
  </g>
  <path id="path7367" d="m288.32 365.48-50.849-1.8594c-23.589-1.3449-48.379 44.875-51.17 99.986-2.7911 55.11 14.09 97.208 37.679 98.553l54.24 3.0058c23.589 1.3449 45.004-42.295 47.795-97.405 2.7911-55.11-14.106-100.93-37.695-102.28z" fill="url(#radialGradient16537)" fill-rule="evenodd"/>
  <path id="rect5741" d="m677.24 210.42c-26.685-0.08052-55.899 0.48906-84.594 2.3438-91.378 5.9062-153.6 8.8988-299.09 94.562-98.006-0.30879-159.87 86.796-179.16 126-1.4411 20.985 0.95421 43.259 7.5938 66.938-0.18258 14.238 5.2622 23.967 9.5938 34.594 20.068 3.6596 39.443 5.9554 58.562 7.7188l6.4375-0.84376c77.187 8.2185 156.77 12.424 236.78 15.938l15.188 3.3438c39.861 1.1088 79.498 3.4011 118.41 1.875 63.525-2.4916 101.68-5.808 137.22-11.938 2.5843-0.44574 9.5312-20.812 9.5312-20.813 3.8223-51.366 20.868-181.81 57.594-183.25 33.839-1.3233 41.37 98.646 25.219 174.25 51.158-16.137 101.03-36.182 153.88-47.25 0 0 10.865-86.562 15.938-105.09 0.98274-3.5902 7.5043-26.903 14.188-29.719 10.358-4.3647 15.763-2.0041 13.938 57.969l3.4688 2.9375c-2.8516-26.879 7.0665-31.46-8.9688-74.781-10.638-28.739-28.914-39.687-33.094-40.344-13.026-2.0461-55.165-4.1114-65.469-4.5938-1.7699-3.277-5.7245-6.3785-10.844-8.0938-1.1217-0.37583-2.2424-0.66703-3.3438-0.875-36.784-31.712-71.268-54.366-91.531-57-2.1946-0.28533-48.731-3.6979-107.44-3.875z" fill="#fdca01" fill-rule="evenodd"/>
  <path id="rect12277" d="m667.11 210.42c-23.861 0.08044-49.361 0.7209-74.469 2.3438-91.378 5.9062-153.6 8.8988-299.09 94.562-1.6368-0.00516-3.2584 0.01952-4.875 0.0625 4.796 0.31726 9.5386 0.63126 14.625 1.0938l23.531-1.7812c129.75-2.1506 262.27-9.8231 389.25-6.4375 11.177 0.713 20.017 0.45906 36.406 3.3438l86.969-41.25 36.531 8.75c-36.701-31.612-71.09-54.183-91.312-56.812-2.1946-0.28533-48.731-3.6979-107.44-3.875-3.3356-0.01006-6.7163-0.01149-10.125 0z" fill="url(#linearGradient16539)" fill-rule="evenodd"/>
  <path id="path11867" d="m219.33 517.6c3.7779 6.3054 14.598 5.5682 23.406 6.8438 6.6326 2.9383 4.8869 2.973-1.6562 4.5938 63.962 4.2428 127.36 8.4759 190.38 12.719l6.2812 7.3125c-3.2829-7.9533-4.1498-14.469-2.7188-19.594l0.09375-0.0625c-71.927-2.7729-143.85-5.7596-215.78-11.812z" fill="url(#linearGradient16541)" fill-rule="evenodd"/>
  <path id="rect8273" d="m114.33 434.45c-1.2807 20.656 1.1353 42.556 7.6562 65.812-0.18258 14.238 5.2622 23.967 9.5938 34.594 20.068 3.6596 39.443 5.9554 58.562 7.7188l6.4375-0.84376c77.187 8.2185 156.77 12.424 236.78 15.938l15.188 3.3438c39.861 1.1088 79.498 3.4011 118.41 1.875 16.748-0.65691 31.687-1.3817 45.312-2.1875l5.375-19.406c-11.617-31.515-24.5-62.818-41.375-93.5-0.22806 0.2193-0.45928 0.43752-0.6875 0.65625-183.4 5.3645-380.97-1.6842-461.25-14zm23.406 81.5 68 0.5c76.667 6.8782 153.33 10.046 230 13l164-0.5c-13.386 12.944-28.801 15.745-43.375 22.75-122.25 0.28444-235-6.1344-357.25-16.5l-66.188-10.125 4.8125-9.125z" fill="url(#linearGradient16543)" fill-rule="evenodd"/>
  <path id="path4913" d="m137.74 515.95-4.8125 9.125 66.188 10.125c122.25 10.366 235 16.784 357.25 16.5 14.574-7.0051 29.989-9.8058 43.375-22.75l-164 0.5c-0.20842-0.00803-0.41658-0.02322-0.625-0.03125l-0.09375 0.0625c-1.431 5.1249-0.56419 11.64 2.7188 19.594l-6.2812-7.3125c-63.02-4.2429-126.41-8.4759-190.38-12.719 6.5431-1.6207 8.2889-1.6555 1.6562-4.5938-8.8078-1.2755-19.628-0.53833-23.406-6.8438-4.5314-0.38133-9.0624-0.74971-13.594-1.1562l-68-0.5z" fill="url(#linearGradient16545)" fill-rule="evenodd"/>
  <path id="path6199" d="m189.74 397.18c39.553-35.482 84.637-60.177 143-84.25" fill="none" opacity=".7" stroke="#986601"/>
  <path id="rect6647" d="m683.66 300.51c-40.533 0.06669-83.445 4.7469-123.51 10.141l-232.69 3.125c-13.292-3.9208-25.462-5.5866-37.125-6.25-96.299 1.4217-157.12 87.159-176.22 125.97-0.02554 0.3718-0.03937 0.7524-0.0625 1.125 80.276 12.316 277.85 19.365 461.25 14 56.283-61.305 120.36-139.34 196.81-140-28.519-8.763-56.938-8.1619-88.463-8.1101z" fill="url(#radialGradient16547)" fill-rule="evenodd"/>
  <path id="path6193" d="m188.74 397.43c38.317-35.07 82.901-60.182 142-84.5" fill="none" opacity=".5" stroke="url(#linearGradient16549)"/>
  <path id="path4925" d="m163.3 414.93c105.64 9.6566 231.45 8.4323 348.24 6.5" fill="none" opacity=".86" stroke="url(#linearGradient16551)"/>
  <path id="path10364" d="m750.24 303.37c6.784-24.26 15.587-81.175 37.614-81.1 26.181 0.08862 47.928 19.343 85.6 48.102-12.122 0.15935-42.952-10.656-52.672 6.8556-5.3841 9.7008-4.1179 23.494-3.679 34.325-9.3462 1.1089-27.012 4.748-30.494 2.6873-4.5746-2.7074-26.769-10.774-36.369-10.87z"/>
  <path id="path6785" d="m630.2 214.88c-62.515 0.70451-119.78 5.007-174.52 18.519-30.487 7.5264-98.689 41.181-153.36 71.075-11.729 6.3058 13.949 6.5707 21.062 8.6875 12.148 1.5979 33.555-0.30778 56-0.71875 54.01-0.98894 119.66-0.92641 176.62-0.625 59.449-11.539 104.12-11.245 165.5-11.062 8.9331-27.793 20.996-56.376 34-81.719-20.569-2.9674-41.529-4.0546-62.53-4.3759-21.001-0.32131-42.045 0.12331-62.782 0.21962z"/>
  <path id="rect16291" d="m625.74 244.08h106.77l-9.8995 28.638-86.267 2.4749-10.607-31.113z" fill="url(#linearGradient16553)" fill-rule="evenodd" opacity=".8"/>
  <path id="path8247" d="m744.54 254.57c-1.486-0.06107-3.0657 0.31319-4.5 1.1875-12.087 0.34081-24.21 0.63791-36.094 3.1562-37.781 7.2649-73.667 21.59-110.44 32.531-4.4159 1.9487-12.211 2.8626-14.656 5.7188 6.5514-1.0444 9.8637 3.8305 15.219 6.4375 1.5449 0.61918 3.1255 1.1062 4.75 1.4688 9.5924 0.70554-12.216-3.0327-2.2812-5.1562 19.039-6.0563 38.135-11.932 57.125-18.156 22.349-7.8411 45.378-14.133 69-16.531 4.7391 0.41876 12.084-2.6254 15.25 0.90625-3.1262 11.505-7.5563 22.608-11.438 33.875-8.9974 0.36295-18.003 0.73074-27 1.0938 9.0168-0.03237 18.105 0.733 27.062-0.375 4.1723-7.5206 6.0234-16.095 9.75-23.844 1.6752-3.5343 6.0904-14.614 10.188-9.3438-4.8228 19.268-6.5402 26.322-6.5312 26.875 0.47011-0.51017 8.4698-29.113 10.594-30.188 2.2374-5.4819-1.5421-9.473-6-9.6562zm-191.97 50.219c-1.6895 0.09525-3.4543 0.13535-5 0.90625-0.96664 0.44547 0.02438 1.3879 0.5 1.8125 0.9928 0.77343 2.0828 1.557 2.6562 2.7188 0.43399 0.58342 0.0074 2.3386 1.1875 1.8438 1.2172-0.25523 2.4784 0.06973 3.6562 0.375 0.79052 0.23592 1.5773 0.47698 2.375 0.6875 0.8349 0.29055 1.7512 0.41134 2.5625-0.03125 2.751-1.1337 5.3431-2.629 7.8125-4.2812 0.58022-0.48649 1.4676-0.86997 1.6562-1.625-0.93145-0.35312-1.9071-0.56743-2.875-0.8125-4.7536-1.08-9.6533-1.6841-14.531-1.5938zm173.44 4.9375c-2.4023 0.24797-13.254 3.7985-18.625 5.6875-53.244 0.81933-107.08 4.5517-158.22 20.344-20.056 10.92-6.194-5.2326 2.3125-14.094 0.10473-9.4175-15.956 4.1942-17.469 9.5312-18.35 7.0246-40.719 5.4653-60.562 9.5312-95.798 16.663-193.8 26.754-285.16 62.125-17.23 6.0992-30.883 14.474-44.656 26.406-1.7026 1.9039 4.4531 1.394 3.3125 0.46875 4.3482-6.1896 38.594-13.695 26.531-13.688 10.366-7.6202 31.822-10.74 46.25-16.688 98.026-28.95 199.91-40.586 300.66-55.906 10.557 0.78248 14.443-11.218 22-16.469-1.4721 6.6813-24.418 33.202-30.375 49.781 9.8848-11.761 20.163-35.043 41.531-35.781 39.659-11.358 80.716-18.903 121.97-20.719 14.332-1.6979 29.855 1.5096 42.719-6.3438 7.647-3.3023 9.2226-4.3363 7.7812-4.1875zm12.188 2.1562c-4.4626 1.3044-7.8267 1.9145-15.031 4.375-3.7274 1.273-8.7027 3.5433-7.9688 5.0625 3.0075 0.58029 7.1385-2.4867 9-3.125 4.4006-1.2478 11.428-4.7795 14-6.3125z" fill="#fff"/>
  <path id="rect8270" d="m188.39 467.04c84.522 8.974 229.65 13.08 256.92 5.8709l-1.5298 12.338c-81.139-2.079-162.21-4.0871-246.98-9.8047l-8.404-8.404z" fill="#fff" fill-rule="evenodd"/>
  <path id="rect8267" d="m118.94 442.75c33.441 9.4922 80.426 22.822 91.119 32.354-0.24071 13.508-0.28143 27.321 0 41.268-4.3463 4.2573-8.4106 8.4441-14.444 13.123-23.831 0.28118-44.992-2.1085-64.872-5.7774-4.0983-6.7408-4.671-15.048-4.8696-23.522-6.3967-18.856-6.5221-38.161-6.9329-57.444z" fill="#666" fill-rule="evenodd"/>
  <path id="rect8294" d="m713.27 531.38c-31.504 4.8518-63.402 8.1175-95.781 9.4688 0.05356 0.14514 0.10275 0.29235 0.15625 0.4375l-5.375 19.406c38.065-2.2566 65.752-5.2389 91.906-9.75 2.3312-0.40208 7.964-16.312 9.0938-19.563zm-101.41 29.344c-1.0183 0.05999-2.0918 0.09715-3.125 0.15625v0.03125c1.0784-0.06157 2.063-0.12482 3.125-0.1875z" fill="url(#linearGradient16555)" fill-rule="evenodd"/>
  <path id="path8237" d="m118.94 442.75c33.441 9.4922 80.426 22.822 91.119 32.354-0.24071 13.508-0.28143 27.321 0 41.268-4.3463 4.2573-8.4106 8.4441-14.444 13.123-23.831 0.28118-44.992-2.1085-64.872-5.7774-4.0983-6.7408-4.671-15.048-4.8696-23.522-6.3967-18.856-6.5221-38.161-6.9329-57.444z" fill="url(#pattern16303) #000000" fill-rule="evenodd"/>
  <g id="g9291" transform="translate(147.74 -111.43)">
   <path id="rect8264" d="m274.64 590.14c0.998-3.985 141.45-24.395 147.77-21.71 3.6209 1.5379 31.209 67.418 30.581 71.201-0.33633 2.0259-30.997 17.24-41.32 17.625-10.004 0.37362-100.04-1.8031-105.05-2.101-12.416-0.73854-15.666-5.8887-18.909-14.123-1.8619-4.728-13.583-48.853-13.073-50.891z" fill="#666" fill-rule="evenodd"/>
   <path id="path5943" d="m274.64 590.14c0.998-3.985 141.45-24.395 147.77-21.71 3.6209 1.5379 31.209 67.418 30.581 71.201-0.33633 2.0259-30.997 17.24-41.32 17.625-10.004 0.37362-100.04-1.8031-105.05-2.101-12.416-0.73854-15.666-5.8887-18.909-14.123-1.8619-4.728-13.583-48.853-13.073-50.891z" fill="none"/>
   <path id="path8235" d="m274.64 590.14c0.998-3.985 141.45-24.395 147.77-21.71 3.6209 1.5379 31.209 67.418 30.581 71.201-0.33633 2.0259-30.997 17.24-41.32 17.625-10.004 0.37362-100.04-1.8031-105.05-2.101-12.416-0.73854-15.666-5.8887-18.909-14.123-1.8619-4.728-13.583-48.853-13.073-50.891z" fill="url(#pattern9238) #000000" fill-rule="evenodd"/>
   <path id="path9240" d="m274.64 590.14c0.998-3.985 141.45-24.395 147.77-21.71 3.6209 1.5379 31.209 67.418 30.581 71.201-0.33633 2.0259-30.997 17.24-41.32 17.625-10.004 0.37362-100.04-1.8031-105.05-2.101-12.416-0.73854-15.666-5.8887-18.909-14.123-1.8619-4.728-13.583-48.853-13.073-50.891z" fill="url(#linearGradient16557)" fill-rule="evenodd"/>
   <path id="rect8239" d="m421.09 568.25c-3.953 25.209-8.2254 49.14-8.5312 88.938 11.086-1.1438 40.11-15.592 40.438-17.562 0.62796-3.7825-26.973-69.65-30.594-71.188-0.23694-0.10064-0.7129-0.1497-1.3125-0.1875z" fill="url(#linearGradient16559)" fill-rule="evenodd" opacity=".6"/>
   <path id="path9287" d="m274.64 590.14c0.998-3.985 141.45-24.395 147.77-21.71 3.6209 1.5379 31.209 67.418 30.581 71.201-0.33633 2.0259-30.997 17.24-41.32 17.625-10.004 0.37362-100.04-1.8031-105.05-2.101-12.416-0.73854-15.666-5.8887-18.909-14.123-1.8619-4.728-13.583-48.853-13.073-50.891z" fill="url(#linearGradient16561)" fill-rule="evenodd"/>
  </g>
  <path id="path9299" d="m118.95 442.76c0.4108 19.284 0.50954 38.581 6.9062 57.438 0.1986 8.474 0.77669 16.79 4.875 23.531 19.881 3.669 41.044 6.0624 64.875 5.7812 0.70025-0.54309 1.3805-1.0943 2.0312-1.625-3.4928-19.543-3.9633-39.842-2.125-60.719-19.351-8.1655-51.685-17.345-76.562-24.406z" fill="url(#linearGradient16563)" fill-rule="evenodd" opacity=".9"/>
  <path id="path10282" d="m118.94 442.75c33.441 9.4922 80.426 22.822 91.119 32.354-0.24071 13.508-0.28143 27.321 0 41.268-4.3463 4.2573-8.4106 8.4441-14.444 13.123-23.831 0.28118-44.992-2.1085-64.872-5.7774-4.0983-6.7408-4.671-15.048-4.8696-23.522-6.3967-18.856-6.5221-38.161-6.9329-57.444z" fill="url(#linearGradient16565)" fill-rule="evenodd"/>
  <g id="g5950" transform="translate(147.74 -111.43)" fill-rule="evenodd">
   <path id="rect8261" d="m69.628 438.31 6.6769 3.2805c-28.956 26.319-46.472 55.556-60.982 85.486l-34.554-4.803c24.418-33.123 51.698-62.978 88.859-83.964z"/>
   <path id="path7087" d="m69.628 438.31 6.6769 3.2805c-28.956 26.319-46.472 55.556-60.982 85.486l-34.554-4.803c24.418-33.123 51.698-62.978 88.859-83.964z" fill="url(#linearGradient16567)"/>
   <path id="rect4940" d="m72.781 439.88c-9.6114 5.1439-18.652 10.76-27.188 16.812-19.448 16.716-38.619 33.609-51.188 54.594l27.031 3.5938c13.376-25.654 29.865-50.548 54.875-73.281l-3.5312-1.7188z" fill="url(#linearGradient16569)"/>
   <path id="path5926" d="m5.5116 500.13c-3.1224 5.4147-1.0874 9.5312 5.1563 9.5312 0.731 0 1.4707-0.0792 2.25-0.1875-0.46123-0.3269-0.87517-0.70706-1.25-1.1562-1.4907-1.7864-2.1402-4.5163-1.5625-8.1875h-4.5938zm5 0 0.625 0.09375c-0.56237 3.498 0.11363 5.8946 1.375 7.4062 0.57006 0.68316 1.2659 1.178 2.0625 1.5312 1.4308-0.31736 2.9016-0.77362 4.375-1.375-0.24262-0.16082-0.46984-0.34269-0.6875-0.53125-1.6567-1.4352-2.4491-3.7159-1.7812-6.7188l0.96875 0.21875c-0.61052 2.7451 0.077163 4.5445 1.4688 5.75 0.3479 0.30138 0.74845 0.55596 1.1875 0.78125 3.7944-1.7228 7.5001-4.2383 10.281-7.1562h-19.875z" fill="url(#linearGradient16571)"/>
   <path id="path6910" d="m67.71 442.5c-1.1723 0.08388-2.4786-0.0366-3.5211 0.57608-4.9513 1.3248-6.445 3.5925-8.8113 5.6986-2.342 3.3177-2.8401 7.8648-1.2154 11.604 0.39644 0.94102 0.9097 1.8305 1.5176 2.6467 0.58801-0.99694 2.0707-1.9025 2.1036-2.9415-1.6548-2.9203-1.4807-6.7489 0.39323-9.5214 2.4212-3.7284 7.1367-5.4957 11.411-4.7959 0.96211 0.12908 1.9587 0.77152 2.5664-0.33678 0.42462-0.56013 1.6863-1.2618 1.5864-1.722-1.9068-0.79765-3.9679-1.2094-6.0301-1.2075z" fill="url(#linearGradient16573)"/>
   <path id="path6917" d="m67.71 445.62c-4.1861-0.04767-8.4802 2.3043-10.25 6.2458-1.2409 2.6773-1.0509 5.958 0.47184 8.4788 4.251-4.9362 8.7329-9.6677 13.431-14.167-1.1801-0.3746-2.4172-0.55789-3.653-0.55776z" fill="url(#linearGradient16575)"/>
   <path id="path7011" d="m60.156 448.56c-9.9128 3.0936-17.626 7.9101-22.25 14.688-8.4613 4.7021-13.424 12.984-12.875 25.438 3.2648-12.964 4.636-16.52 11.344-22.844-2.5008 4.6964-3.6944 10.203-3.3125 16.594 6.6525-19.494 8.6474-22.062 27.094-33.875zm-32.25 23c-5.5857 3.7782-8.9573 11.32-8.625 23.375 2.1183-13.454 2.7514-15.222 8.625-23.375z" fill="url(#linearGradient16577)"/>
  </g>
  <path id="rect4924" d="m320.99 394.81c5.8044-0.88615 11.309-0.64119 16.25 1.5-6.0523 8.0745-13.929 11.346-20.5 13 0.07607-4.1489-0.81352-8.7884 4.25-14.5z" stroke="url(#linearGradient16579)"/>
  <path id="path7903" d="m730.99 376.98c-0.61579 1.2944-1.2197 2.5904-1.8438 3.875l-126.06 38.156c-9.0552 9.8808-17.925 19.701-26.594 29.156 16.694 30.418 29.473 61.45 41 92.688 29.913-1.2483 59.402-4.1491 88.562-8.4062-0.63257-6.0986-1.0307-12.375-1.1875-18.781-0.93436-38.186 10.258-97.264 26.125-136.69z" fill="url(#radialGradient16581)" fill-rule="evenodd" opacity=".45"/>
  <path id="path7917" d="m602.95 419.59 128.69-39.952 9.5459 3.182" fill="none" opacity=".5" stroke="url(#linearGradient16583)" stroke-linecap="round"/>
  <path id="path10102" d="m750.5 303.49c6.784-24.26 15.587-81.175 37.614-81.1 26.181 0.08862 47.928 19.343 85.6 48.102-12.122 0.15935-44.72-11.01-54.439 6.502-5.3841 9.7008-2.3501 23.848-1.9113 34.679-9.3462 1.1089-27.012 4.748-30.494 2.6873-4.5746-2.7074-26.769-10.774-36.369-10.87z"/>
  <path id="path10104" d="m767.18 308.42c-61.999 3.4944-115.79 57.157-163.91 109.66l126.06-38.156c10.992-22.63 19.942-43.254 44.553-47.726l-0.02145-21.586c-2.1493-0.94167-4.376-1.6595-6.6875-2.1875z" fill="url(#radialGradient16585)" fill-rule="evenodd" opacity=".6805"/>
  <g id="g9895" transform="translate(147.93 -111.28)" fill-rule="evenodd">
   <path id="path10109" d="m548.01 501.88 35.002-11.314-3.8891 15.203-18.385 3.182-12.728-7.0711z" fill="#980101"/>
   <path id="path9883" d="m553 502.38c5.134 4.0654 10.761 5.2112 16.964 2.9481 8.0262 1.1021 9.0731-5.3525 10.192-11.729-9.0521 2.9271-18.104 5.8542-27.156 8.7812z" fill="url(#linearGradient16587)"/>
  </g>
  <path id="rect9899" d="m841.55 267.12c-9.3799 0.03241-18.029 2.2137-22.281 9.875-0.27728 0.49959-0.51833 1.0092-0.75 1.5312-0.03214 0.07244-0.06243 0.1459-0.09375 0.21875-0.21115 0.48494-0.41661 0.96658-0.59375 1.4688-0.02142 0.06172-0.04158 0.12553-0.0625 0.1875-0.19934 0.59031-0.37372 1.17-0.53125 1.7812s-0.28485 1.2455-0.40625 1.875c28.053 0.14391 61.662-1.7973 77.469 6.6562-0.5813-3.1692-2.0031-6.9034-3.5313-10.312-1.908-4.2566-6.6381-6.3119-11.031-8.0938-3.405-0.87538-5.3269-1.7172-6.125-1.8125-0.0402 3.4e-4 -0.0844-1e-4 -0.125 0-0.2263 5.6e-4 -0.4751-0.01879-0.7188-0.03125-0.0646-0.00185-0.1219 0.00235-0.1875 0-0.02-0.00126-0.0424 0.00134-0.0625 0-7.0972-0.27072-19.579-3.3831-30.969-3.3438z" fill="url(#linearGradient16589)" fill-rule="evenodd" opacity=".82573"/>
  <path id="path10113" d="m832.37 285.89c32.902-1.1815 13.532 14.539 59.375 9.0551-21.823 16.559-69.067-11.77-67.774 24.933-4.1345-40.644-8.0728-33.39 8.3988-33.988zm-9.9833-10.79c7.2324-4.7664 16.947-4.3135 25.206-3.4571 5.3244 0.5521 15.336 1.0906 20.708 1.37-9.4367 1.9282-20.928 0.94896-27.915 0.51418-6.2721-0.39024-12.065-0.6306-17.999 1.5728z" fill="#fff"/>
  <path id="rect9941" d="m890.77 280.41c1.5282 3.4091 2.95 7.1433 3.5313 10.312-0.0405-0.02165-0.0843-0.04098-0.125-0.0625 0.0296 0.30835 0.0259 0.61846 0.0312 0.9375-1.5336 16.381-31.876 12.887-62.5 15.5l-0.78125 21.75-20.031 6.3438 2.125 3.9062c98-25.319 119.35-51.165 146.87-52.5-1.702-0.94836-3.0366-1.467-3.8437-1.5938-12.532-1.9684-51.376-3.9225-63.531-4.5l-1.75-0.09375z" fill="url(#radialGradient16591)" fill-rule="evenodd"/>
  <path id="rect9958" d="m959.89 286.6c-27.527 1.3349-48.875 27.181-146.88 52.5l-2.125-3.9062c-8.4267-5.8473-15.602-8.847-18.469-9.875-3.2535 0.91456-6.8004 9.213-10.75 8.25 0.84693 0.43944 1.6653 0.92816 2.4688 1.4375 34.918 22.136 29.256 109.16 25.625 163.78l144.12-50.156c3.6167-27.076 9.3253-67.633 12.625-79.688 0.98281-3.5902 7.5043-26.903 14.188-29.719 10.358-4.3647 15.762-2.0041 13.938 57.969l3.4688 2.9375c-2.8517-26.879 7.0666-31.46-8.9688-74.781-8.5834-23.189-22.138-34.787-29.25-38.75zm2.375 40.719c-4.5632 1.8996-10.441 4.8014-15.219 5.8438-0.86 33.379-6.6745 59.469-18.469 84.875 12.385-32.744 12.238-57.196 15.469-83.812l-0.125 0.0625c0.0118-0.11429 0.01966-0.22937 0.03125-0.34375l-25.094 9c-1.2407 13.083-4.3628 26.184-6.875 38.844 1.8364-12.458 5.266-25.667 5-38.125l-1.4062 0.53125c-1.0523 15.369-4.3933 29.578-7.375 43.875 2.2782-14.19 6.0496-28.786 5.7812-43.188-1.2531 0.17631-2.4892 0.35316-3.7188 0.5625-0.159 0.02706-0.24779-2.6135-0.5-2.5625-0.2224 0.04492-0.61029 2.7878-0.75 2.8125-0.863 0.15247-1.3654 0.20975-2.2188 0.375-0.2279 0.04413-0.36644-1.7637-0.59375-1.7188-0.2617 0.05173-0.61399 1.9785-0.875 2.0312-11.187 2.2607-21.68 5.4037-33.094 6.75 10.926-3.5882 21.868-6.6378 33.125-10.469-0.32612-0.3216-1.6389-8.4276-0.8125-8.9062-0.19033 0.89592 1.8839 8.35 3.25 8.1562 17.856-5.5363 35.869-10.729 54.469-14.594zm-181.84 5.6562c0.37532 0.28443 0.75685 0.45477 1.125 0.5625-0.37267-0.19155-0.74379-0.38477-1.125-0.5625z" fill="url(#radialGradient16593)" fill-rule="evenodd"/>
  <g id="g10143" transform="translate(147.74 -111.43)" fill-rule="evenodd">
   <path id="rect10129" d="m796.69 444.9-22.139 8.4375c-2.7713 32.847-9.0273 60.038-19.148 80.042-9.3274 20.125-24.063 33.162-42.094 45.156l83.312-32.344-21.688 3-0.34375-4.9062c17.603-37.282 19.922-69.094 22.099-99.386z" fill="url(#radialGradient16595)"/>
   <path id="rect9989" d="m775.14 454.09 21.176-8.4393c-3.7599 30.981-2.9156 59.01-22.621 100.62l-18.707-12.096c10.346-20.098 17.344-46.797 20.152-80.086z"/>
  </g>
  <path id="rect11822" d="m892.42 284.42c0.82725 2.1786 1.516 4.3552 1.875 6.3125-0.0405-0.02166-0.0843-0.04098-0.125-0.0625 0.0296 0.30834 0.02595 0.61846 0.03125 0.9375-0.31446 3.359-1.8527 5.8696-4.3438 7.7812l10.438 3.1875c7.9473-5.0481 16.213-9.8111 25.938-13.438-10.542-2.012-21.94-3.5087-33.812-4.7188z" fill="url(#radialGradient16597)" fill-rule="evenodd"/>
  <path id="path11834" d="m893.23 284.71c0.78776 2.0746 1.4436 4.1473 1.7855 6.0112-0.03856-0.02062-0.08027-0.03902-0.11903-0.05952 0.02819 0.29363 0.02471 0.58894 0.02976 0.89275-0.07913 0.84518-0.23905 1.6439-0.47613 2.3807 5.1312 0.70858 10.293 1.4627 15.534 2.4997 4.8006-2.6835 9.8752-5.1544 15.445-7.2313-10.039-1.9159-20.892-3.3412-32.198-4.4935z" fill-rule="evenodd"/>
  <path id="rect11845" d="m953.58 449.74c-51.029 18.604-103.06 34.513-153.81 53.875-0.94798 5.931-2.0307 11.792-3.25 17.5 51.158-16.137 101.03-36.182 153.88-47.25 0 0 1.3948-10.693 3.1875-24.125z" fill="url(#radialGradient16599)" fill-rule="evenodd"/>
  <path id="path11877" d="m917.45 466.43c-0.70448 0.01625-1.5264 0.22541-2.5 0.625-15.359 6.3037-32.51 8.4492-46.188 18.375-7.5934 5.5104-16.995 8.5423-23.906 14.875-11.729 10.747-36.58 14.136-48.312 20.594-0.01524 0.07158-0.01597 0.14721-0.03125 0.21875 22.112-6.975 43.993-14.666 65.969-22.062 3.4527-2.0818 6.8682-4.2267 9.9688-6.7812 4.8948-4.033 14.146-9.935 23.281-12.75 3.1624-0.97441 10.198-3.9209 12.812-1.0938 1.2852 1.3897 2.1308 3.294 2.4062 5.3125 11.662-3.3388 23.407-6.3955 35.312-9-1.8097-0.66555-3.7838-0.97223-5.875-0.78125-6.0328 0.55098-18.665 8.6824-19.031-0.96875-0.13039-3.4402-0.8535-6.6329-3.9062-6.5625z" fill="#fff" fill-rule="evenodd"/>
  <path id="path11882" d="m905.08 477.24c-3.1462 0.02017-7.1696 1.6113-9.3438 2.2812-9.1357 2.815-18.386 8.717-23.281 12.75-3.1074 2.5602-6.5395 4.6951-10 6.7812 16.069-5.4072 32.186-10.644 48.5-15.312-0.2755-2.0185-1.121-3.9228-2.4062-5.3125-0.81705-0.8835-2.0387-1.1967-3.4688-1.1875z" fill="url(#linearGradient16601)" fill-rule="evenodd"/>
  <path id="rect5068" d="m831.36 316.67-0.4375 12.188-0.46875 0.15625c1.7257 2.022 4.5799 3.5714 6.9688 7.4375 5.1091 8.2684 12.455 15.944 14.75 12.406 3.0417-4.6891-3.0235-19.288-5.5938-21.719-5.2631-4.9775-11.743-8.8913-15.219-10.469z" fill="url(#radialGradient16603)" fill-rule="evenodd"/>
  <path id="rect6054" d="m817.24 311.7c-4.8885 0.58658-11.951 1.8133-18.125 2.5938 6.521 4.0852 14.038 7.9843 21.781 12.781-4.3714-5.8981-2.897-10.374-3.6562-15.375z" fill="url(#radialGradient16605)" fill-rule="evenodd"/>
  <path id="rect6062" d="m770.24 307.85-0.53125 0.0625c22.221 9.5976 26.36 24.665 55.656 22.594-1.7598-1.3104-3.334-2.6271-4.8125-3.9375 0.11563 0.16638 0.21875 0.33134 0.34375 0.5-7.7432-4.797-15.26-8.6961-21.781-12.781-5.6759 0.71933-10.588 1.0464-12.25 0.0625-2.3222-1.3744-9.1743-4.1073-16.625-6.5z" fill="url(#radialGradient16607)" fill-rule="evenodd"/>
  <path id="path6158" d="m789.24 315.18c7.2822 5.3725 17.55 13.047 23.5 23.75 1.0315 32.909 1.6079 65.931 0 99.5" fill="none" opacity=".5" stroke="url(#linearGradient16609)" stroke-linecap="round"/>
  <path id="path6073" d="m781.86 316.49c5.7111 3.6278 11.813 8.2893 17.189 11.452-0.40008-4.7794-7.3472-7.0744-11.077-9.746-2.5854-2.1924-5.7616-3.8006-8.8262-4.2436 0.90472 0.846 1.8094 1.692 2.7142 2.538z" fill="#eee" fill-rule="evenodd"/>
  <path id="path6088" d="m774.14 332.79c-0.34356-5.9e-4 -0.68517 0.01495-1.0312 0.03125-1.3643 0.06425-2.7355 0.256-4.125 0.5625-0.01913 0.00565-0.04339-0.00567-0.0625 0-20.911 6.2057-29.375 25.495-39.594 46.531l-0.71875 0.21875c-2.9971 9.2037-4.8478 19.356-5.125 30.062-0.2476 9.5617 0.79355 18.769 2.8125 27.281 9.3338-46.466 23.926-89.77 45-90.594 23.38-0.91428 34.184 46.525 33.312 100.88 3.8517-11.692 6.253-25.229 6.625-39.594 0.04363-1.6848 0.04362-3.3445 0.03125-5-2.4704-29.009-9.1808-54.341-24.406-66.219-3.9453-2.6662-8.2196-4.1485-12.719-4.1562z" fill="url(#radialGradient16611)" fill-rule="evenodd"/>
  <path id="path6111" d="m775.89 346.7c-0.60533 0.02003-1.1984 0.08481-1.8125 0.1875-0.13542 0.02265-0.27115 0.06768-0.40625 0.09375 16.512 1.7495 26.259 28.752 29.625 64.625 2.2342 13.128 3.625 30.965 3.625 50.625 0 0.46357 0.00152 0.91348 0 1.375 1.2019-8.9364 1.8623-18.346 1.9062-27.844 0.23602-51.041-14.172-89.683-32.938-89.062z" fill="#fff" fill-rule="evenodd" opacity=".60996"/>
  <path id="path6128" d="m810.3 467.17c-2.237 13.97-4.1117 28.522-10.406 36.406 2.5466-0.97127 5.1034-1.9203 7.6562-2.875 1.348-9.9103 3.5726-21.403 2.75-33.531z" fill="url(#radialGradient16613)" fill-rule="evenodd"/>
  <path id="path6132" d="m812.42 427.26c0.40565 24.951-1.2662 50.621-2.6562 71.531l57.656-20.062c-5.8453-26.68-27.705-47.386-55-51.469z" fill="url(#radialGradient16615)" fill-rule="evenodd"/>
  <path id="path6149" d="m799.74 503.31c52.988-17.239 102.9-38.202 153.5-52.25" fill="url(#radialGradient16599)" fill-rule="evenodd" opacity=".7" stroke="#986601" stroke-linecap="round"/>
  <path id="path6176" d="m792.42 325.32c-2.6435 0.74308-5.473 6.3736-8.5625 7.9375-0.4753 0.24061-0.95004 0.35879-1.4375 0.375-0.24373 0.0081-0.50315-0.00231-0.75-0.0625 0.84693 0.43944 1.6653 0.92816 2.4688 1.4375 0.18681 0.11842 0.3761 0.25601 0.5625 0.40625 21.517 14.273 27.312 53.587 27.75 94.344 1.5974-16.463 0.57845-63.842 1.7812-68.562 2.1109-8.2853 1.7516-15.98-0.5625-22.281-0.22444 0.0582-0.43101 0.12931-0.65625 0.1875l-2.125-3.9062c-8.4267-5.8473-15.602-8.847-18.469-9.875zm-12 7.6562c0.37532 0.28443 0.75685 0.45477 1.125 0.5625-0.37267-0.19155-0.74379-0.38477-1.125-0.5625z" fill="url(#radialGradient16619)" fill-rule="evenodd"/>
  <path id="path6178" d="m789.24 315.18c7.2822 5.3725 17.55 13.047 23.5 23.75 1.0315 32.909 1.6079 65.931 0 99.5" fill="none" opacity=".64315" stroke="url(#linearGradient16609)" stroke-linecap="round"/>
  <path id="path6237" d="m890.27 298.58 19.318 7.3536c5.0158 9.6508 9.6645 20.074 12.823 31.582" fill="none" opacity=".3" stroke="#fdca01"/>
  <path id="path4991" d="m985.3 323.82c-6.9702 0-13.6 13.457-18.125 34.094 3.7149-12.244 10.03-20.844 16.188-20.844 0.95515 0 1.8605 0.19853 2.7188 0.59375 3.2976 0.1264 5.7708 2.9274 7.2188 11.562 1.1256 4.535 1.5824 10.095 1.3125 16.188 0.27414 8.1592 0.24528 18.43-0.15625 31.625l3.4688 2.9375c-2.8516-26.879 7.0665-31.46-8.9688-74.781-0.00812-0.02193-0.02312-0.04059-0.03125-0.0625-1.1693-0.83783-2.3666-1.3125-3.625-1.3125zm-21.312 52.344c-0.46019 3.4146-0.86786 6.9118-1.2188 10.531 0.38783-2.2774 0.75782-4.3995 1.125-6.4062-0.00269-1.3428 0.01695-2.7213 0.09375-4.125z" fill="url(#radialGradient16623)" fill-rule="evenodd"/>
  <path id="path5004" d="m987.52 337.17c-0.44846-0.00138-0.92048 0.10716-1.4062 0.28125-0.19099 0.06845-0.37281 0.14084-0.5625 0.25 7.0081-0.29839 10.407 10.037 8.9062 59.344l0.46875 0.40625c0.6769-5.604 1.0625-11.919 1.0625-18.625 0.81019-22.384-1.7418-41.635-8.4688-41.656z" fill="#eee" fill-rule="evenodd" opacity=".7"/>
  <g id="g8050" transform="translate(147.74 -111.43)" fill-rule="evenodd">
   <g id="g7042">
    <path id="rect6661" d="m503 437.86 56-5c-40.955 29.408-79.651 59.954-117 101l-80-0.5c41.866-33.7 84.728-67.038 141-95.5z"/>
    <path id="rect6982" d="m559 432.88-56 5c-6.3478 3.2107-12.507 6.4842-18.531 9.8125l10.531-3.3125 42.906 3.9375c6.966-5.213 13.997-10.341 21.094-15.438z" fill="url(#linearGradient16625)"/>
    <path id="path4929" d="m523.12 441.41c-0.49116-0.00938-0.98436 0.01016-1.4688 0.03125-14.868 0.64733-20.32 7.2191-28.281 12.531-1.5632 3.9554 2.633 14.243 9.5625 21.875 12.187-10.151 24.553-19.764 37.125-29.125-5.3382-3.1592-11.34-5.2056-16.938-5.3125z" fill="url(#linearGradient16627)"/>
    <path id="path7557" d="m500.15 466.75c-24.675 0.28754-44.347 16.443-43.365 28.941 0.38049 4.8435 4.0482 9.1282 9.9688 12.625 15.608-15.16 31.494-28.918 47.688-41.875-4.7291-1.3005-9.7733 0.25617-14.291 0.30882z" fill="url(#linearGradient16629)"/>
    <path id="path5857" d="m509.5 467.09c-3.0358 0.09232-6.2105 0.77599-9.3438 0.8125-3.0218 0.03522-5.9416 0.3281-8.7812 0.8125 4.0545 0.99769 7.5253 3.4942 10.062 6.875 3.3918-2.8351 6.7995-5.618 10.219-8.375-0.28676-0.02236-0.55243-0.11629-0.84375-0.125-0.42974-0.01285-0.88315-0.01306-1.3125 0z" fill="url(#linearGradient16631)"/>
    <path id="path9369" d="m487.38 469.34c-7.493 0-13.847 5.3-16.188 12.688 2.3708-5.3309 7.9123-9.0625 14.375-9.0625 5.3953-1e-5 10.16 2.6022 12.969 6.5625 0.91616-0.77591 1.8318-1.543 2.75-2.3125-3.1158-4.7641-8.1764-7.875-13.906-7.875z"/>
    <path id="path8456" d="m470.5 491.62c0.57026 3.5088 2.0325 6.6673 4.0938 9.2188 0.46786-0.43821 0.93791-0.87662 1.4062-1.3125-2.6505-1.9718-4.6139-4.7192-5.5-7.9062z" fill="#666"/>
    <path id="path10256" d="m483.97 474.66c-6.2208 0-11.281 5.0155-11.281 11.188 0 4.6534 2.8904 8.6296 6.9688 10.312 5.0096-4.587 10.057-9.0508 15.125-13.406-1.35-4.6742-5.6694-8.0938-10.812-8.0938z" fill="#1a1a1a"/>
    <path id="path4879" d="m485.56 474.12c-6.015 0-11.133 3.4748-13.312 8.375-0.27741 0.51014-0.88857 0.73752-1.432 0.53277-0.54339-0.20476-0.85252-0.77892-0.72429-1.3453 0.81178-2.5623 2.182-4.7707 3.8125-6.75-1.5148 0.85268-3.0424 1.7034-4.375 2.6562-7.6799 5.4915-12.034 12.395-11.594 18 0.3231 4.113 3.4308 7.9312 8.6875 11.219 9.967-9.6497 20.052-18.705 30.25-27.375-2.642-3.1796-6.6849-5.3125-11.312-5.3125z" fill="url(#linearGradient16633)"/>
    <path id="path4932" d="m486.19 473.16c-4.2432-0.00896-8.4187 2.1531-11.219 5.7812 3.1991-3.3062 8.3075-4.5622 13.094-2.8125 3.2465 1.1868 5.7086 3.5245 7.0625 6.3438 0.78378-0.67269 1.5585-1.3635 2.3438-2.0312-1.4439-2.9626-3.8704-5.3331-7.0625-6.5-1.3873-0.50716-2.8044-0.77826-4.2188-0.78125z" fill="#eee"/>
    <path id="path4937" d="m474.03 480.59c-2.6328 3.4071-3.6098 7.7389-2.5938 11.594 0.33869 1.285 0.89696 2.5157 1.6875 3.6562 0.91792 1.3243 2.0706 2.4011 3.375 3.2188 0.76315-0.70866 1.5168-1.4224 2.2812-2.125-1.6206-0.86361-3.0857-2.1153-4.2188-3.75-2.7274-3.935-2.7766-8.9004-0.53125-12.594z" fill="#eee"/>
    <path id="path4962" d="m523.09 443c-0.42899-0.00819-0.89481 0.01034-1.375 0.03125-14.043 0.6114-19.065 6.4616-26.875 11.812-0.34239 1.2386 0.02338 4.3916 1.5938 8.0625 0.22751 0.53183 0.48065 1.0788 0.75 1.625l30.344-20.969c-1.4974-0.31987-2.991-0.53488-4.4375-0.5625z" fill="url(#linearGradient16635)"/>
    <path id="path4981" d="m524.59 443.69c-6.3866 0-11.438 5.8222-11.438 12.75 0 3.3115 1.1817 6.3155 3.0625 8.5938 3.3254-2.6454 6.6466-5.2561 10-7.8438l0.0625-5.5938 5.5312-2.2188c0.441-0.17556 0.77469-0.56731 0.875-1.0312 0.10033-0.46393-0.04591-0.93919-0.375-1.2812-2.0053-2.0561-4.7287-3.375-7.7188-3.375z" fill="url(#linearGradient16637)"/>
    <path id="path4947" d="m524.59 445.12c-5.5133 0-10 5.0673-10 11.312 0 2.9894 1.0421 5.6957 2.7188 7.7188 2.4835-1.9687 4.9697-3.9073 7.4688-5.8438l0.0625-7.6875 6.4375-2.5625c-1.7722-1.8171-4.1106-2.9375-6.6875-2.9375z" fill="#980101"/>
    <path id="path5974" d="m482.03 477.68c-3.7068 1.1048-6.7506 4.8001-6.7662 8.2144-0.0117 2.5527 1.6547 4.2698 4.0606 4.4977 0.28997 0.03156 0.63097-0.15317 0.82081-0.44467 0.18984-0.29149 0.17775-0.61179-0.02908-0.771-0.79869-0.62441-1.276-1.6064-1.2704-2.8374 0.01249-2.7363 2.4237-5.6635 5.3944-6.5489 0.76531-0.22809 1.4797-0.3063 2.1284-0.24033 0.28999 0.03155 0.63099-0.15318 0.82082-0.44469 0.18983-0.29147 0.17776-0.61179-0.02909-0.77098-1.229-0.97161-3.0811-1.2648-5.1302-0.65405z" fill="url(#radialGradient16639)"/>
    <path id="path5977" d="m523.11 446.78c-3.326 0.80119-6.2633 4.0451-6.5293 7.2109-0.19897 2.367 1.1326 4.06 3.2214 4.4164 0.25147 0.04675 0.56357-0.10403 0.75127-0.36294 0.1877-0.25892 0.20081-0.55673 0.03156-0.71688-0.65286-0.62729-0.998-1.5669-0.90206-2.7083 0.21326-2.5372 2.5401-5.1068 5.2055-5.7489 0.68669-0.16541 1.3177-0.19487 1.8806-0.09458 0.25148 0.04675 0.56357-0.10403 0.75129-0.36295 0.1877-0.2589 0.2008-0.55672 0.03155-0.71687-1.0038-0.97527-2.6032-1.3588-4.4418-0.91593z" fill="url(#radialGradient16641)"/>
    <path id="rect7030" d="m525.34 441.5c0.06414 0.02063 0.21088 0.07132 0.28125 0.09375 4.8556 0.56263 9.8847 2.4306 14.438 5.125 1.0114-0.74846 2.0191-1.5016 3.0312-2.25-2.5448-1.2184-12.448-3.2031-17.75-2.9688z" fill="#fff"/>
   </g>
   <path id="path7061" d="m399.52 516.73 59.397-2.8284" fill="#fff" stroke="url(#radialGradient16643)" stroke-linecap="round"/>
  </g>
  <path id="path14244" d="m494.67 294.7c-13.353 1.0295-26.716 1.9498-40.059 3.1052 0.11964 3.9685 7.5926 0.41868 10.629 1.1102l20.992-1.5903c-1.6004 1.5138-6.6893 4.3723-6.1268 5.0589 30.353-2.7497 60.784 0.40749 91.064 2.5661 1.6874-3.8195-6.5646-1.6933-8.9507-2.6573-25.392-1.905-50.898-3.9436-76.362-2.2177 3.2915-3.8945 8.346-3.3651 12.922-3.3114 27.242 0.72702 54.49 1.2678 81.734 1.9364 5.9136 2.6389 11.736 5.4823 17.706 7.9944 2.2256-3.3307-6.2019-3.9366-8.2618-5.9008-4.8352-2.3746-9.6986-4.9383-15.247-4.2341-26.68-0.61981-53.36-1.2437-80.04-1.8594z" fill="url(#linearGradient16645)" fill-rule="evenodd" opacity=".6"/>
  <path id="path14262" d="m352.27 296.48c-0.30543 1.0884 5.4697 0.35638 7.4734 0.90051 4.8354 0.08866 11.766-2.8334 11.294 5.6431 0.40569 3.5885-0.50615 8.5983 4.6412 7.2712 11.777 0.5372 23.545 1.5124 35.329 1.7146 7.0872-0.07602 14.175-0.13586 21.262-0.1857-5.8153-1.4755-12.192-0.77319-18.228-1.447-9.4952-2.1881-19.212-3.9624-28.793-5.9976-2.5417 0.17172-7.8234-3.1608-8.5695-0.13065-7.9824 5.391 15.92 2.863 23.572 5.3721-8.9105-0.48438-17.821-0.96876-26.731-1.4531-1.0799-3.4544 0.65068-9.9443-2.3242-11.36-6.309-0.08476-12.617-0.23152-18.926-0.32766zm-2.6562 4.2188c-13.667 0.12077-27.333 0.25423-41 0.375-5.3693 2.495 2.9871 2.0816 5.1575 1.9258 12.083-0.12393 24.168-0.12102 36.249-0.39452 1.0093-0.32921 0.63614-1.998-0.40625-1.9062z" fill="url(#linearGradient16647)" fill-rule="evenodd" opacity=".6"/>
  <path id="path15309" d="m676.02 280.57c-5.0647 0.1097-10.45 0.65928-16.031 1.6875-19.018 3.5036-35.742 11.738-45.344 21.281 32.065-2.8411 62.937-2.9156 99.281-2.8125 0.00108-0.07369 0-0.14513 0-0.21875 0-12.632-15.959-20.413-37.906-19.938z" fill="url(#linearGradient16649)" fill-rule="evenodd" opacity=".8"/>
 </g>
</svg>
