<?xml version="1.0" encoding="UTF-8"?>
<!-- Created with Inkscape (http://www.inkscape.org/) -->
<svg id="svg2" width="345.33" height="152.65" version="1.0" xmlns="http://www.w3.org/2000/svg" xmlns:cc="http://creativecommons.org/ns#" xmlns:dc="http://purl.org/dc/elements/1.1/" xmlns:rdf="http://www.w3.org/1999/02/22-rdf-syntax-ns#" xmlns:xlink="http://www.w3.org/1999/xlink">
 <defs id="defs4">
  <linearGradient id="linearGradient3985">
   <stop id="stop3987" stop-color="#110a12" offset="0"/>
   <stop id="stop3989" stop-color="#463545" offset=".70253"/>
   <stop id="stop3991" stop-color="#57485b" offset=".77833"/>
   <stop id="stop3993" stop-color="#2b1d2e" offset=".92859"/>
   <stop id="stop3995" stop-color="#2e1f32" offset="1"/>
  </linearGradient>
  <linearGradient id="linearGradient3963">
   <stop id="stop3965" stop-color="#110a12" offset="0"/>
   <stop id="stop3975" stop-color="#291d2b" offset=".66995"/>
   <stop id="stop3973" stop-color="#1b0f1b" offset=".77833"/>
   <stop id="stop3971" stop-color="#1a0e1a" offset=".8867"/>
   <stop id="stop3967" stop-color="#0c050d" offset="1"/>
  </linearGradient>
  <linearGradient id="linearGradient3953">
   <stop id="stop3955" offset="0"/>
   <stop id="stop3957" stop-color="#2e1f32" offset="1"/>
  </linearGradient>
  <linearGradient id="linearGradient3465">
   <stop id="stop3467" stop-color="#9893aa" offset="0"/>
   <stop id="stop3477" stop-color="#9e99b0" offset=".49644"/>
   <stop id="stop3475" stop-color="#bab9ce" offset=".71916"/>
   <stop id="stop3473" stop-color="#caccdd" offset=".86466"/>
   <stop id="stop3469" stop-color="#cacddc" offset="1"/>
  </linearGradient>
  <linearGradient id="linearGradient10924" x1="938.65" x2="1242.6" y1="638.37" y2="401.18" gradientTransform="translate(-1694.1 -146.96)" gradientUnits="userSpaceOnUse">
   <stop id="stop3332" stop-color="#fff" offset="0"/>
   <stop id="stop3334" stop-color="#fff" stop-opacity="0" offset="1"/>
  </linearGradient>
  <filter id="filter11149">
   <feGaussianBlur id="feGaussianBlur11151" stdDeviation="1.0033143"/>
   <feBlend id="feBlend11153" in2="BackgroundImage" mode="screen"/>
  </filter>
  <filter id="filter3869" x="-.1935" y="-.16826" width="1.387" height="1.3365">
   <feGaussianBlur id="feGaussianBlur3871" stdDeviation="1.1373553"/>
   <feBlend id="feBlend3873" in2="BackgroundImage" mode="darken"/>
  </filter>
  <filter id="filter4767" x="-.038845" y="-.13175" width="1.0777" height="1.2635">
   <feGaussianBlur id="feGaussianBlur4769" stdDeviation="20.410829"/>
   <feBlend id="feBlend4771" in2="BackgroundImage" mode="lighten"/>
  </filter>
  <radialGradient id="radialGradient3739" cx="517.47" cy="861.49" r="107.41" gradientTransform="matrix(1.0473 0 0 1.3716 190.35 -379.66)" gradientUnits="userSpaceOnUse" xlink:href="#linearGradient3963"/>
  <radialGradient id="radialGradient3742" cx="522.32" cy="861.49" r="108.16" gradientTransform="matrix(1.0473 0 0 1.3321 216.48 -345.57)" gradientUnits="userSpaceOnUse" xlink:href="#linearGradient3985"/>
  <radialGradient id="radialGradient3744" cx="522.32" cy="861.49" r="108.16" gradientTransform="matrix(1.0473 0 0 1.3321 216.48 -345.57)" gradientUnits="userSpaceOnUse" xlink:href="#linearGradient3953"/>
  <radialGradient id="radialGradient3748" cx="836.11" cy="544.45" r="33.997" gradientTransform="matrix(1.546 -.28126 .14594 .8022 -470.34 -1158.1)" gradientUnits="userSpaceOnUse">
   <stop id="stop3908" stop-color="#191c26" offset="0"/>
   <stop id="stop3910" stop-color="#14135f" offset="1"/>
  </radialGradient>
  <linearGradient id="linearGradient3751" x1="762.04" x2="762.8" y1="524.29" y2="595.84" gradientTransform="translate(58.787 -1502.9)" gradientUnits="userSpaceOnUse">
   <stop id="stop3980" stop-color="#5f57c7" offset="0"/>
   <stop id="stop3986" stop-color="#2c2584" offset=".091948"/>
   <stop id="stop3988" stop-color="#0a0d1e" offset=".26694"/>
   <stop id="stop3990" stop-color="#0a0c21" offset=".58915"/>
   <stop id="stop3982" stop-color="#11131f" offset="1"/>
  </linearGradient>
  <radialGradient id="radialGradient3757" cx="866.89" cy="675.34" r="44.154" gradientTransform="matrix(1.1351 -.51133 .65759 1.4598 -579 14.051)" gradientUnits="userSpaceOnUse" xlink:href="#linearGradient3465"/>
  <linearGradient id="linearGradient3761" x1="485.28" x2="487.75" y1="536.66" y2="550.83" gradientTransform="translate(9.0077 -1463.2)" gradientUnits="userSpaceOnUse">
   <stop id="stop3441" stop-color="#2d2e40" offset="0"/>
   <stop id="stop3443" offset="1"/>
  </linearGradient>
  <linearGradient id="linearGradient3764" x1="567.58" x2="619.94" y1="536.66" y2="536.66" gradientTransform="translate(.9975 -1470.1)" gradientUnits="userSpaceOnUse">
   <stop id="stop3451" stop-color="#444053" offset="0"/>
   <stop id="stop3453" stop-color="#191826" offset="1"/>
  </linearGradient>
  <radialGradient id="radialGradient3769" cx="866.89" cy="675.34" r="44.154" gradientTransform="matrix(1.0454 -.51133 .60559 1.4598 -662.65 23.028)" gradientUnits="userSpaceOnUse" xlink:href="#linearGradient3465"/>
  <radialGradient id="radialGradient3773" cx="106.11" cy="760.44" r="317.74" gradientTransform="matrix(1.6684 -.62602 .17374 .46304 -197.4 -1014.4)" gradientUnits="userSpaceOnUse">
   <stop id="stop3795" stop-color="#090b1a" offset="0"/>
   <stop id="stop3803" stop-color="#2b2759" offset=".48703"/>
   <stop id="stop3809" stop-color="#444075" offset=".59658"/>
   <stop id="stop3801" stop-color="#4a477d" offset=".69101"/>
   <stop id="stop3805" stop-color="#686cac" offset=".84494"/>
   <stop id="stop3797" stop-color="#7d84bb" offset="1"/>
  </radialGradient>
  <linearGradient id="linearGradient3778" x1="-47.381" x2="502.24" y1="545.63" y2="545.63" gradientTransform="translate(-20.439 -1333.4)" gradientUnits="userSpaceOnUse">
   <stop id="stop3749" stop-color="#080b1c" offset="0"/>
   <stop id="stop3755" stop-color="#050b2d" offset=".35027"/>
   <stop id="stop3757" stop-color="#061550" offset=".55263"/>
   <stop id="stop3751" stop-color="#090f29" offset="1"/>
  </linearGradient>
  <linearGradient id="linearGradient3784" x1="-14.883" x2="397.44" y1="968" y2="968" gradientTransform="translate(1.5396 -1499.5)" gradientUnits="userSpaceOnUse">
   <stop id="stop11285" stop-color="#0e0910" offset="0"/>
   <stop id="stop11291" stop-color="#100813" offset=".5576"/>
   <stop id="stop11287" stop-color="#291c2d" offset="1"/>
  </linearGradient>
  <linearGradient id="linearGradient3788" x1="-71.324" x2="244.39" y1="-670.56" y2="-670.56" gradientUnits="userSpaceOnUse">
   <stop id="stop11049" stop-color="#42346b" offset="0"/>
   <stop id="stop11051" stop-color="#624d9e" offset="1"/>
  </linearGradient>
  <linearGradient id="linearGradient3791" x1="310.92" x2="410.94" y1="762.05" y2="757.15" gradientUnits="userSpaceOnUse">
   <stop id="stop11109" stop-color="#d48f0e" offset="0"/>
   <stop id="stop11111" stop-color="#e1b400" offset=".72334"/>
   <stop id="stop11113" stop-color="#f4d04d" offset="1"/>
  </linearGradient>
  <linearGradient id="linearGradient3794" x1="401.3" x2="412.94" y1="739.66" y2="757.15" gradientUnits="userSpaceOnUse">
   <stop id="stop11071" stop-color="#d48f0e" offset="0"/>
   <stop id="stop11077" stop-color="#e1b400" offset="2.5e-7"/>
   <stop id="stop11073" stop-color="#f4d04d" offset="1"/>
  </linearGradient>
  <linearGradient id="linearGradient3802" x1="-189.92" x2=".72577" y1="916.58" y2="884.66" gradientTransform="translate(17.781 -1544.6)" gradientUnits="userSpaceOnUse">
   <stop id="stop11217" stop-color="#c5cbe8" offset="0"/>
   <stop id="stop11223" stop-color="#5a5ea7" offset=".030529"/>
   <stop id="stop11225" stop-color="#484d8d" offset=".15154"/>
   <stop id="stop11227" stop-color="#2f2d6e" offset=".29443"/>
   <stop id="stop11229" stop-color="#050c29" offset=".57744"/>
   <stop id="stop11219" stop-color="#080b1a" offset="1"/>
  </linearGradient>
  <linearGradient id="linearGradient3805" x1="-180.62" x2="305.69" y1="999.15" y2="1006.7" gradientTransform="translate(6.5105 -1576.9)" gradientUnits="userSpaceOnUse">
   <stop id="stop11255" stop-color="#100c22" offset="0"/>
   <stop id="stop11257" stop-color="#170e3b" offset="1"/>
  </linearGradient>
  <linearGradient id="linearGradient3808" x1="213.72" x2="177.74" y1="877.09" y2="886.26" gradientTransform="translate(0,-1500)" gradientUnits="userSpaceOnUse">
   <stop id="stop3283" stop-color="#fff" offset="0"/>
   <stop id="stop3285" stop-color="#fff" stop-opacity="0" offset="1"/>
  </linearGradient>
  <linearGradient id="linearGradient3822" x1="-171.38" x2="-122.14" y1="802.15" y2="796.02" gradientTransform="translate(6.1056 -1447.7)" gradientUnits="userSpaceOnUse">
   <stop id="stop11180" stop-color="#312344" offset="0"/>
   <stop id="stop11186" stop-color="#251d50" offset=".13598"/>
   <stop id="stop11188" stop-color="#413d7b" offset=".5619"/>
   <stop id="stop11182" stop-color="#736e98" offset="1"/>
  </linearGradient>
  <radialGradient id="radialGradient3831" cx="42.641" cy="602.15" r="141.71" gradientTransform="matrix(1.4138 -.28783 .097913 .48094 -65.715 -1112)" gradientUnits="userSpaceOnUse">
   <stop id="stop3775" stop-color="#090a1c" offset="0"/>
   <stop id="stop3789" stop-color="#090b1a" offset=".42698"/>
   <stop id="stop3787" stop-color="#0f1233" offset=".57013"/>
   <stop id="stop3785" stop-color="#545385" offset=".69319"/>
   <stop id="stop3783" stop-color="#a2add6" offset=".76605"/>
   <stop id="stop3777" stop-color="#090a1c" stop-opacity="0" offset="1"/>
  </radialGradient>
  <radialGradient id="radialGradient3834" cx="433.39" cy="519.72" r="141.15" gradientTransform="matrix(2.8231 -1.7525 .25708 .41412 -944.15 -370.9)" gradientUnits="userSpaceOnUse">
   <stop id="stop3314" stop-color="#10101c" offset="0"/>
   <stop id="stop3328" stop-color="#42447b" offset=".45282"/>
   <stop id="stop3326" stop-color="#4f4f7a" offset=".54586"/>
   <stop id="stop3324" stop-color="#6a6f9b" offset=".73091"/>
   <stop id="stop3320" stop-color="#ced2e3" offset=".95732"/>
   <stop id="stop3316" stop-color="#eceffb" offset="1"/>
  </radialGradient>
  <radialGradient id="radialGradient3857" cx="-35.972" cy="746.81" r="44.993" gradientTransform="matrix(1.8746 -1.5664 .77627 .92904 -588.47 -27.563)" gradientUnits="userSpaceOnUse">
   <stop id="stop3407" stop-color="#f1eea8" offset="0"/>
   <stop id="stop3415" stop-color="#c3cde6" offset=".95659"/>
   <stop id="stop3409" stop-color="#fcfaff" offset="1"/>
  </radialGradient>
  <linearGradient id="linearGradient3866" x1="1289.8" x2="1227.5" y1="615.46" y2="615.46" gradientTransform="translate(-135.72,-1522.5)" gradientUnits="userSpaceOnUse">
   <stop id="stop3507" stop-color="#41345c" offset="0"/>
   <stop id="stop3509" stop-color="#131838" offset="1"/>
  </linearGradient>
  <linearGradient id="linearGradient3885" x1="822.74" x2="842.19" y1="655.66" y2="625.58" gradientTransform="translate(-46.005 -9.9793)" gradientUnits="userSpaceOnUse">
   <stop id="stop3919" stop-color="#6e659e" offset="0"/>
   <stop id="stop3925" stop-color="#8180b9" offset=".65031"/>
   <stop id="stop3921" stop-color="#6c629d" offset="1"/>
  </linearGradient>
  <linearGradient id="linearGradient3893" x1="899.1" x2="905.01" y1="584.32" y2="603.85" gradientTransform="translate(-39.191 -1529.2)" gradientUnits="userSpaceOnUse">
   <stop id="stop3954" stop-color="#b2b6db" offset="0"/>
   <stop id="stop3956" stop-color="#8283bc" offset="1"/>
  </linearGradient>
  <linearGradient id="linearGradient3896" x1="848.69" x2="858.83" y1="607.45" y2="614.48" gradientTransform="translate(-31.571 -1500.9)" gradientUnits="userSpaceOnUse">
   <stop id="stop3964" stop-color="#212248" offset="0"/>
   <stop id="stop3970" stop-color="#433863" offset=".21381"/>
   <stop id="stop3966" stop-color="#8e82a6" offset="1"/>
  </linearGradient>
  <linearGradient id="linearGradient3900" x1="945.06" x2="938.88" y1="475.98" y2="482.2" gradientTransform="translate(-12.338 -1449.9)" gradientUnits="userSpaceOnUse">
   <stop id="stop3920" stop-color="#e7e2fd" offset="0"/>
   <stop id="stop3926" stop-color="#b6bde3" offset=".28239"/>
   <stop id="stop3922" stop-color="#9dadda" offset="1"/>
  </linearGradient>
  <linearGradient id="linearGradient3919" x1="441.91" x2="474.18" y1="-644.7" y2="-644.34" gradientUnits="userSpaceOnUse">
   <stop id="stop4443" stop-color="#736470" offset="0"/>
   <stop id="stop4453" stop-color="#a79aa0" offset=".59437"/>
   <stop id="stop4445" stop-color="#958890" offset="1"/>
  </linearGradient>
  <linearGradient id="linearGradient3926" x1="390.44" x2="445.86" y1="902.98" y2="902.98" gradientTransform="translate(68.768 -1482.3)" gradientUnits="userSpaceOnUse">
   <stop id="stop3984" stop-color="#b4a5aa" offset="0"/>
   <stop id="stop3996" stop-color="#867b84" offset=".45559"/>
   <stop id="stop3998" stop-color="#675563" offset=".53431"/>
   <stop id="stop4000" stop-color="#443749" offset=".7612"/>
   <stop id="stop4002" stop-color="#978b99" offset=".83066"/>
   <stop id="stop3992" stop-color="#776a71" offset="1"/>
  </linearGradient>
  <radialGradient id="radialGradient4023" cx="983.61" cy="801.23" r="28.485" gradientTransform="matrix(1.1529 .065655 -.20222 3.5509 127.42 -3676.3)" gradientUnits="userSpaceOnUse">
   <stop id="stop4459" stop-color="#1c1714" offset="0"/>
   <stop id="stop4469" offset=".76527"/>
   <stop id="stop4467" stop-color="#594e5e" offset=".88494"/>
   <stop id="stop4461" stop-color="#68626e" offset="1"/>
  </radialGradient>
  <radialGradient id="radialGradient4028" cx="1055.1" cy="736.14" r="18.6" gradientTransform="matrix(1.1561 2.7829e-6 -7.4491e-6 3.0945 -126.56 -1543.1)" gradientUnits="userSpaceOnUse">
   <stop id="stop4566" stop-color="#bdbfd6" offset="0"/>
   <stop id="stop4574" stop-color="#d0cedc" offset=".87527"/>
   <stop id="stop4572" stop-color="#9693a0" offset=".92702"/>
   <stop id="stop4568" stop-color="#bec0d6" offset="1"/>
  </radialGradient>
 </defs>
 <metadata id="metadata7">
  <rdf:RDF>
   <cc:Work rdf:about="">
    <dc:format>image/svg+xml</dc:format>
    <dc:type rdf:resource="http://purl.org/dc/dcmitype/StillImage"/>
    <dc:title/>
    <cc:license rdf:resource="http://creativecommons.org/licenses/publicdomain/"/>
   </cc:Work>
   <cc:License rdf:about="http://creativecommons.org/licenses/publicdomain/">
    <cc:permits rdf:resource="http://creativecommons.org/ns#Reproduction"/>
    <cc:permits rdf:resource="http://creativecommons.org/ns#Distribution"/>
    <cc:permits rdf:resource="http://creativecommons.org/ns#DerivativeWorks"/>
   </cc:License>
  </rdf:RDF>
 </metadata>
 <g id="layer1" transform="translate(-337.26 816.45)" fill-rule="evenodd">
  <path id="path3742" d="m-635.41 406.5s161.99-104.14 187.06-123.42c25.07-19.284 1.9285-80.994 1.9285-80.994s-23.141 32.783-55.925 65.567c-28.926 23.141-52.068 42.426-96.422 79.066-44.354 44.354-36.64 61.71-36.64 59.782z" fill="url(#linearGradient10924)"/>
  <path id="path3752" d="m-618.28 427.83s57.788-38.242 69.685-42.491c11.898-4.2491 22.945-11.048 31.443-16.147s25.495-4.2491 25.495-4.2491l-2.5495 5.9487s-11.898-1.6996-25.495 5.9487c-13.597 7.6484-31.443 16.996-41.641 24.645-10.198 7.6484-32.293 19.546-36.542 20.396s-15.297 8.4982-15.297 8.4982l-5.099-2.5495z" fill="#fff" fill-opacity=".38571"/>
 </g>
 <g id="g10384" transform="translate(-337.26 816.45)">
  <g id="g3021" transform="matrix(.25 0 0 .25 382.44 -555.09)">
   <path id="path3527" d="m1006.5-671.08c6.8434-47.566 12.58-95.307 20.948-142.64 18.061-32.049 36.551-63.854 54.862-95.76 17.622-5.6525 35.245-11.305 52.867-16.957 16.958 21.28 33.915 42.56 50.872 63.84-3.9103 26.073-5.0474 52.728-10.857 78.412-6.2557 13.616-3.1918 32.324-16.548 42.018-51.749 24.892-103.42 50.073-155.14 75.08 0.9975-1.33 1.995-2.66 2.9925-3.99z"/>
   <path id="path3525" d="m627.75-590.12c-79.938 26.803-159.88 53.606-239.81 80.408l-42.32-158c34.326-52.195 68.653-104.39 102.98-156.58 54.546-10.815 109.09-21.63 163.64-32.445 18.339 46.082 36.677 92.164 55.016 138.25-4.232 30.565-8.464 61.129-12.696 91.694-8.9343 12.226-17.869 24.452-26.803 36.678z"/>
   <path id="path3515" transform="matrix(1.0466 0 0 1.071 8.5678 62.866)" d="m-59.85-635.17c-15.982 36.986-48.406 62.604-72.233 94.092-9.9634 18.367 13.191 29.864 28.18 31.812 29.05 7.2927 59.017 9.9052 88.295 16.15 100.6 18.173 203.24 36.977 305.73 24.356 88.655-8.735 177.85-14.345 265.55-30.647 15.952-3.1093 29.583-12.119 43.825-19.286 45.172-20.782 92.757-35.574 139.24-53.023 82.578-26.935 169.62-35.833 252.92-60.01 38.29-8.2344 78.015-3.1382 116.35-10.835 16.685-3.0449 22.775-21.663 13.28-34.919-13.024-27.009-33.975-49.303-55.283-70.021-55.253-51.753-128.31-87.549-204.86-88.938-33.817-0.74522-67.197 6.313-99.341 16.26-187.35 48.795-376.75 89.166-565.73 131.01-85.173 18.625-170.4 37.016-255.92 53.998z" filter="url(#filter4767)"/>
   <path id="path2539" d="m566.65-1041.3c-32.78 0.0365-65.996 2.7628-97.275 13.149-53.099 28.158-106.64 56.398-153.76 94.091-12.337 9.0002-23.665 20.019-37.28 26.888-21.616 5.4194-43.016 13.622-65.703 12.215-44.802 1.2586-89.811 0.37798-134.41 5.248-38.092 6.2723-76.33 13.427-112.87 26.059-41.595 18.131-81.142 42.652-112.75 75.471-15.416 15.851-27.729 35.809-29.231 58.335-5.1865 37.857-5.9519 76.668 0.26749 114.39 7.395 15.739 29.352 15.999 43.195 24.147 53.023 20.977 108.59 34.524 164.59 44.704 70.152 14.06 140.56 26.815 210.98 39.437 50.737-0.567 101.6 0.22333 152.17-4.6404 16.403-8.2433-0.39626-27.916 5.1261-40.918 0.95641-55.955 1.8168-113.95 25.289-165.91 17.354-41.319 47.983-80.983 92.26-94.782 32.07-9.425 68.703 1.0329 91.112 25.816 18.606 18.002 28.672 43.366 30.027 68.991 5.0708 33.413 5.85 68.457-6.0878 100.59-1.4842 10.53-16.382 30.033 3.3548 28.891 15.237-2.0362 30.229-5.9387 45.283-9.1993 47.757-12.128 94.533-27.838 142.51-39.156 68.14-17.58 137.06-32.292 204.45-52.694 16.123-2.7258 17.799-18.74 16.729-31.976 4.8059-50.246 10.956-102.72 38.052-146.55 9.9263-19.212 35.938-32.294 56.062-20.853 22.294 15.676 26.819 45.181 28.281 70.498 0.2907 24.024-5.2451 47.545-9.0681 71.122 15.467-4.5065 26.008-19.095 32.767-32.962 11.073-27.616 5.7172-57.939 6.7736-86.874 0.0857-25.567-0.0029-52.573-13.283-75.348-7.0032-12.172-15.624-26.93-30.912-28.878-23.057-3.5879-46.548-3.2631-69.794-4.9537-28.366-1.3594-57.054-2.2787-84.974 3.8144-19.602 3.4982-40.017 3.1881-58.88-3.6506-13.651-3.6002-27.44-6.9607-41.527-8.2789-15.002-10.728-34.069-15.675-52.291-12.322-13.332-1.1256-17.784 15.02-23.125 20.754-11.967-0.52715-30.72 2.6936-38.478-0.49704 8.5231-15.356 17.046-30.713 25.569-46.069-14.968-18.989-41.24-18.693-63.165-20.324-59.956-3.976-120.06-0.747-179.98 2.2226z" fill="#4a477d"/>
   <g id="g3999" transform="matrix(.51017 0 0 .75814 723.82 -1376.2)">
    <path id="path3921" d="m844.79 801.97c0.32254 51.761-21.459 106.98-66.954 134.91-34.202 20.802-81.622 14.407-109.63-14.038-43.283-40.16-56.042-104.85-44.196-161.11 9.1009-42.861 35.631-85.41 77.853-101.77 32.701-11.972 71.393-2.7319 95.661 22.126 32.593 30.426 47.135 76.155 47.271 119.89z" fill="url(#radialGradient3739)"/>
    <path id="path3943" d="m870.92 801.97c0.44785 51.841-23.106 107.12-69.965 132.91-34.87 18.703-81.036 11.157-108.6-17.114-44.419-41.866-55.911-110.14-39.003-167.26 11.87-39.799 40.848-77.905 82.373-89.005 31.625-8.1822 66.732 2.0338 89.54 25.308 31.193 29.318 45.565 73.075 45.656 115.15z" fill="url(#radialGradient3742)" stroke="url(#radialGradient3744)" stroke-width="1.5331"/>
    <path id="path3997" d="m844.49 812.93c-3.8138 42.18-25.537 86.289-65.706 104.36-32.203 14.809-72.482-1.7557-89.531-31.719-33.24-51.898-26.465-125.3 13.838-171.44 19.842-22.422 53.174-35.655 82.069-23.833 33.828 13.355 53.129 48.976 58.2 83.49 2.047 12.927 2.3679 26.113 1.13 39.138z" fill="#fcfbfd"/>
   </g>
   <path id="path3132" d="m895.6-983.62c20.796-3.2241 38.869 9.7846 57.64 16.253 4.0897 17.944-25.012 7.8848-27.986 22.108-7.291 11.812-22.218 13.092-34.46 15.326-4.306-13.409 4.0105-32.49 4.0689-48.122l0.36855-2.7826 0.36855-2.7826z" fill="url(#radialGradient3748)"/>
   <path id="path3976" d="m766.77-977.81c24.434-0.36289 48.868-0.72579 73.302-1.0887-4.3546 23.708-8.7092 47.417-13.064 71.125-32.418 4.2336-64.835 8.4673-97.253 12.701 12.338-27.579 24.676-55.158 37.014-82.737z" fill="url(#linearGradient3751)"/>
   <path id="path3974" d="m823.02-941.89c-15.852 10.525-27.205 26.2-37.74 41.732 12.503-1.4873 35.695 6.9848 33.428-14.182 1.4374-9.1831 2.8747-18.366 4.3121-27.549z" fill="#918ea5"/>
   <path id="path3513" d="m726.5-835.57c70.324-13.12 140.58-26.607 210.95-39.499h79.653c16.928 13.636 33.856 27.273 50.784 40.91-13.755 36.246-21.312 74.698-22.535 113.42-0.1139 12.109-2.6507 28.294-16.342 31.984-24.951 5.3661-50.279 8.9654-75.409 13.506-30.301 5.3972-60.936 9.3405-91.006 15.778-78.165 24.05-155.38 51.079-233.66 74.776-8.9852-13.959 7.9641-27.428 7.2363-42.039 6.6682-31.617 10.723-64.409 6.7506-96.611-5.3858-17.915-7.7788-37.183-2.7798-55.468 1.5592-13.904 7.0414-31.959 23.38-33.632 21.196-6.8052 41.958-15.57 62.98-23.127z" fill="#6e6288"/>
   <g id="g3483" transform="translate(0,-1500)">
    <path id="path3459" d="m813.5 570.18c5.7718-19.488 7.1674-41.023 18.464-58.361 13.201-12.452 33.111-11.555 49.823-9.0663 19.236 4.5497 23.498 26.108 28.693 42.186 2.1422 10.393 9.966 26.023 5.7662 33.841-27.632 2.4712-55.183-2.7281-82.705-4.5484-4.0612-1.8156-23.174 0.3333-20.042-4.0516z" fill="#bac5d5"/>
    <path id="path3463" d="m898.74 585.53c-1.4518-22.696 1.1816-46.182-5.5271-68.181-7.2564-18.387-29.343-21.892-46.496-17.721-16.722 1.3551-21.494 17.728-25.27 31.16-4.6474 14.131-8.423 28.561-11.035 43.209 8.7666 14.005 27.944 6.2086 41.43 10.134 15.595 1.1976 31.256 2.3142 46.898 1.3993z" fill="url(#radialGradient3757)"/>
   </g>
   <path id="path3457" d="m574.14-917.39c-12.621 4.2431-26.318-0.20077-19.903-15.608-0.25686-18.219 23.117-12.056 34.624-18.16 19.074-4.7316 38.149-9.4633 57.223-14.195-3.5267 19.044-7.0534 38.088-10.58 57.132-20.455-3.0564-40.91-6.1129-61.364-9.1694z" fill="#09080b"/>
   <path id="path3437" d="m428.46-913.59c43.39-11.491 87.126-22.105 131.63-28.27 0.69861 9.6775 7.3518 31.358-8.8566 28.462-41.424 0.76713-82.849 1.5342-124.27 2.3013 0.49875-0.83124 0.9975-1.6625 1.4962-2.4937z" fill="url(#linearGradient3761)"/>
   <path id="path3447" d="m570.57-923.94c-3.732-12.683 5.3199-22.874 18.331-19.981 11.284-0.47895 31.776-6.7416 37.278-3.5893-10.608 8.5742-25.941 2.0535-38.222 6.7697-16.46 5.4916 13.541 7.5917 19.018 9.1346 17.564 3.5263-9.2119 6.1496-15.315 8.5251-6.0973-0.92216-28.827 12.751-21.09-0.85898z" fill="url(#linearGradient3764)"/>
   <path id="path3427" d="m305.41-913.87c34.504-9.7609 70.746-1.2868 105.73-7.4469 19.303-0.98988 38.801 2.2666 57.9-2.0686 43.545-7.0493 86.433-17.572 129.73-25.923 45.875-9.5404 91.737-19.14 137.6-28.748 16.693-17.633 33.386-35.267 50.079-52.9-34.545-16.345-73.661-10.31-110.54-10.731-51.283 1.6165-102.71 1.3718-153.84 5.8994-17.298 2.1706-34.518 5.0167-51.551 8.7468-40.088 24.173-81.049 47.134-118.36 75.576-18.64 13.237-37.28 26.474-55.92 39.711 1.3881-0.62393 16.112-1.8803 9.1694-2.116z"/>
   <g id="g3487" transform="translate(0,-1500)">
    <path id="path3461" d="m620.43 577.32c5.14-18.984 6.2163-39.864 17.15-56.706 16.51-17.344 51.387-17.276 62.819 5.844 6.8303 15.861 5.5697 33.773 9.1694 50.505 3.7145 10.624 0.83869 16.658-10.823 13.82-24.859-1.3967-49.162-7.3932-73.808-10.373-1.6818-0.50471-4.2377-0.99552-4.507-3.0894z" fill="#bac5d5"/>
    <path id="path3479" d="m698.25 594.51c-1.3015-22.6 1.0102-45.82-4.954-67.87-5.9719-17.913-27.066-22.715-43.491-17.919-16.71 2.3391-19.333 19.669-23.303 32.872-3.9567 13.302-7.1209 26.841-9.4338 40.525 8.0329 16.374 30.376 6.7146 44.707 11.502 12.127 0.94181 24.318 1.7665 36.476 0.89058z" fill="url(#radialGradient3769)"/>
   </g>
   <path id="path3435" d="m296.24-907.52c12.075-13.742 32.259-11.429 48.722-13.988 55.137-3.3003 110.37 0.30261 165.52 1.4002 31.569 1.1145 64.406 4.0362 94.547-7.5982 14.358-5.1533 28.943-10.688 44.508-9.504 15.048 0.59636 30.751 2.5102 44.278 9.4408 14.207 9.7176 5.0045 39.131-12.446 37.05-113.53-3.4732-227.11-7.0225-340.58-12.376-14.868-1.2484-29.687-3.0128-44.54-4.4249z" fill="#2d2e40"/>
   <path id="path3791" d="m-144.58-705.1c-8.2987-12.818-33.532-17.456-27.174-37.194 5.9507-14.515 14.154-30.428 27.119-39.56 12.202-5.6471 27.865-3.4035 37.71-13.529 7.149-8.8182 14.426-27.006 27.881-14.676 11.784 13.289 26.639 5.3895 36.3-5.5948 26.983-19.174 53.645-40.614 85.507-51.02 34.001-8.2736 68.772-12.821 103.15-19.232 10.936-1.8497 21.875-3.6752 32.818-5.4826-4.8533 2.6552-23.396 7.104-19.93 8.7692 53.732-4.9841 107.31-12.417 161.26-14.524 13.102 1.6986 22.836 9.6344 36.977 6.1864 25.035 0.1687 50.202 1.4078 74.976-3.0149 8.3933-0.93838 25.733-3.5093 28.44-3.41-71.734 17.17-143.66 33.53-215.27 51.239-86.676 34.155-173.79 67.286-259.35 104.18-10.574 2.6863-17.422 10.87-24.064 18.885-7.1516 8.0484-14.303 16.097-21.455 24.145-28.302-2.0571-56.605-4.1142-84.907-6.1713z" fill="url(#radialGradient3773)"/>
   <path id="path11194" d="m-174.05-739.26c-2.0062 22.626-0.56288 45.447 2.9031 67.859 15.488 4.5188 30.854 13.286 47.392 7.8482 13.891 0.74473 17.961-11.703 4.6221-17.003-13.623-12.756-26.601-26.175-39.926-39.237-9.6236-0.02414-11.239-21.804-14.991-19.467z" fill="#090912"/>
   <path id="path11261" d="m197.13-638.83c27.412-0.62799 54.93 2.3783 82.265 0.21419 32.58-6.2393 64.504-16.008 95.465-27.795 13.47-6.0375 26.455-13.083 39.39-20.175 12.313-35.842 19.623-76.422 48.848-103.18 18.324-17.91 43.07-28.853 68.689-29.959 22.03-3.005 46.482 0.31475 63.074 16.37 14.565 10.92 29.949 22.686 37.241 39.959-4.2411 13.254 6.5628 16.004 16.639 11.578 16.402-2.271 32.803-4.542 49.205-6.813-5.9855-14.387-7.4639-30.599-16.037-43.878-6.18 0.49785-21.917 4.2574-21.545 2.6492 17.659-6.1005 35.319-12.201 52.978-18.302-8.6635-15.759-28.632-13.075-43.766-13.251-17.004-0.27771-34.22-0.91573-50.968 2.6056-11.355 9.2859-27.693 12.704-37.147-0.62996-23.697-11.475-50.891-6.6468-76.07-4.5799-21.052 2.8858-41.31 13.351-53.74 30.884-9.9211 10.892-15.392 29.08-32.254 30.815-28.271 9.1957-59.266 14.602-82.388 34.663-10.962 9.4482-22.651 17.86-37.686 17.59-12.53 1.8564-25.061 3.7127-37.591 5.5691-11.227 7.9073-19.767 26.161-36.327 19.66-14.361 0.6753-35.265-12.76-44.054 2.8822 14.836 3.6426 31.236 1.554 45.549 7.6634-9.9234 15.154-19.847 30.308-29.77 45.462z" fill="#060a36"/>
   <path id="path2973" d="m-65.825-698.51c15.524-13.74 28.783-30.35 46.05-41.921 87.709-49.489 182.51-84.926 278.13-115.75 64.841-19.913 131.96-32.114 199.52-37.592 5.2441-0.88892 22.836 1.363 20.1 4.4586-75.476 8.5807-150.06 25.32-221.95 49.886-53.177 17.288-107.17 33.157-157.78 57.217-13.665 6.8774-27.215 13.981-40.88 20.859 40.463 3.8874 79.239-12.477 118.83-16.541-10.572 5.3928-26.838 6.3468-32.248 17.928 5.1554 1.7916 28.435-7.2019 13.777 1.2495-13.096 2.5783-25.33 26.669-3.9973 23.593 37.907-1.6884 75.756-4.6585 113.61-7.2774-20.866 15.751-41.732 31.503-62.599 47.254 8.6049 3.5472 28.91-0.07073 29.66 8.404-11.947 10.911-29.282 2.6191-43.666 4.262-86.185-3.3484-172.37-6.6968-258.55-10.045 0.665-1.995 1.33-3.99 1.995-5.985z" fill="url(#linearGradient3778)"/>
   <path id="path11022" d="m196.36-696.92c9.7748-13.76 31.708-8.3947 40.812-23.089 12.886-9.9024 24.774-25.803 42.893-24.163 32.197-3.9882 66.159-13.443 88.118-38.955 11.506-12.268 20.502-27.114 24.884-43.421 13.529-12.28 32.058-16.127 48.255-23.584 24.594-8.0378 49.302-15.839 73.971-23.565 46.823-10.81 95.2-6.2186 142.8-7.5352 33.502 0.10063 67.003 0.4732 100.5 0.99215-29.147-3.3238-58.294-6.6476-87.441-9.9714 34.611-1.3082 69.162-4.01 103.41-9.2003 40.065-4.6208 78.62-16.971 117.91-25.545 16.31-2.6711 31.07-10.264 46.985-13.547 15.15-1.4934-9.0654 17.338 6.3593 12.749 20.669-6.5312 40.542-15.433 61.528-21.118 21.602-7.2755 43.464-14.447 66.405-15.787 13.377-1.1246 32.381-5.7348 38.094 10.968 10.476 12.527-4.9933 29.253 9.6913 39.141 6.0195 2.1984 13.688 9.76 2.2678 10.318-14.27 1.4764-27.837 9.5111-42.565 5.3802-13.298-7.3877-26.661-2.6796-38.494 5.0056-13.346 1.0478-28.368-2.6584-39.55 7.0798-1.3734 4.871 10.406 14.578-2.2181 12.731-91.276 18.742-182.55 37.484-273.83 56.227-14.995-5.2752-30.172-11.569-46.394-8.9534-17.976-0.02375-36.103-1.3607-53.984-0.55782-10.25 5.0671-22.45 14.399-32.413 3.3727-29.532-16.366-65.231-9.4338-94.887 2.7306-22.349 8.4754-44.29 21.787-56.655 42.904-13.823 11.241-32.986 10.035-48.264 18.368-17.643 6.8575-34.416 15.7-51.107 24.571-8.1226 13.044-22.229 21.497-37.739 20.484-16.56 1.9941-33.5 6.9465-45.646 18.989-11.836 10.82-27.438 5.2357-40.853 1.8254-7.6134-1.615-15.227-3.2299-22.84-4.8449z" fill="#b0b3d4"/>
   <path id="path11025" d="m-154.94-675.49c27.993 8.6755 55.986 17.351 83.979 26.027 3.5342-16.947 7.0684-33.895 10.603-50.842-23.967-8.0928-49.648-20.076-75.31-12.642-16.442 4.4774-12.948 25.106-19.271 37.457z" fill="#4b3e69"/>
   <path id="path11205" d="m116.97-594.7c27.297-14.653 54.595-29.306 81.892-43.959-29.515-2.9764-59.029-5.9528-88.544-8.9293 2.217 17.63 4.4341 35.259 6.6512 52.889z" fill="#1e1448"/>
   <path id="path11281" d="m398.75-552.33c-48.204-2.0441-96.387-8.6447-144.68-5.3899-59.487 2.5276-118.97 5.2106-178.47 7.4715-44.064-6.1355-88.128-12.271-132.19-18.406 90.726 27.546 183.01 52.95 278.01 59.494 50.926 4.5888 102.6 6.9004 153.3-0.52024 13.64 3.5716 27.955-3.5195 24.365-19.291 0.14386-7.7891-0.53234-15.569-0.33491-23.358z" fill="url(#linearGradient3784)"/>
   <path id="path11231" d="m-56.584-568.65c-34.461-14.446-68.843-29.1-103.68-42.634 1.4418-24.109-12.999-45.972-11.375-70.136-2.2042-6.5804-1.4058-16.607 5.6707-6.5715 14.473 12.361 30.046 24.027 47.96 30.828 18.785 11.461 17.241 39.53 37.431 49.706 8.3158 6.4187 23.001 8.3231 24.792 20.166 0.31789 6.2324-1.593 12.418-0.80301 18.642z" fill="#080c16"/>
   <path id="path11029" d="m-60.368-700.3c-3.652 16.91-7.3041 33.82-10.956 50.73 82.607 4.6748 165.34 7.7136 248.06 8.5203 19.314-1.3094 38.627-2.6188 57.941-3.9282 0.53855-13.45 12.511-31.333 5.8162-42.148-44.684-4.9333-89.672-6.6794-134.6-5.6725-55.477-1.2972-110.71-8.8784-166.27-7.5013z" fill="url(#linearGradient3788)"/>
   <g id="g11155" transform="translate(-1.1048 -1468)">
    <path id="path11041" d="m309.5 762.43c31.698-7.2705 62.212-19.886 94.753-23.266 16.94 9.684-7.8725 28.748-20.675 25.638-23.892 4.3503-47.951 7.8901-72.16 9.9011-7.3413 0.38989-8.5404-10.164-1.9176-12.272z" fill="url(#linearGradient3791)" stroke="url(#linearGradient3794)" stroke-width="2"/>
    <path id="path11055" transform="matrix(1.2182 0 0 1.2182 -97.892 -92.592)" d="m403.82 708.2c-5.955-8.6198-15.247-9.8089-17.058 2.0294 3.126-7.1773 2.4888-18.048-7.9161-12.032-7.0711 0.34791 18.077-4.1289 4.8716-11.042-7.0877-12.965 8.4017 13.341 10.311-1.5691 6.9411-16.907-4.7827 14.181 9.7105 6.5358 11.408-1.2626-18.183 3.5242-3.7731 10.424 1.2846 1.8844 2.5693 3.7688 3.854 5.6532z" fill="#fbfbfb" filter="url(#filter11149)" opacity=".76974"/>
   </g>
   <path id="path11165" d="m176.56-638.07c-0.10538 13.955-11.134 29.587-1.1525 42.297 15.593 6.6518 34.435 2.0202 51.321 3.7786 22.14-0.27919 44.327-1.0811 66.287-4.0829 15.216-8.726-0.83953-27.964-9.0292-36.202-14.964-9.2705-33.411-6.1762-50.131-7.3174-19.434 0.11987-38.837 1.4607-58.272 1.5276l0.75498 1e-5h5e-5 9e-5 0.22144z"/>
   <path id="path11167" d="m230.47-634.75c-14.557 12.505-0.78508 36.518 17.368 31.461 13.198-1.0546 32.636 5.2762 42.01-1.2397 4.5384-16.258-9.7345-33.402-26.514-31.621-10.978-0.08898-21.877 2.0961-32.863 1.3997z" fill="#73667e"/>
   <path id="path11163" d="m181.05-633.38c-2.1774 12.072-11.401 24.237-6.437 36.672 10.251 9.0712 26.291 2.6366 38.955 4.2853 23.617-1.0242 47.378 0.09436 70.873-2.4306 23.957-3.3043 5.0197-32.945-8.9443-38.118-17.794-5.7192-37.191-2.7794-55.622-2.1228-12.936 0.72726-25.897 0.76589-38.825 1.7143z" fill="#fff" opacity=".45223"/>
   <path id="path11169" d="m231.47-634.09c-13.593 8.5143 0.80886 18.798 11.423 12.958 16.813-5.9554 8.6693 16.404-3.1272 12.092-13.866 3.9744 9.3084 6.4204 15.147 6.7454 9.8912 2.6719 23.446-3.7494 28.896-2.9 2.9595 4.6449 0.95458-8.4584 4.9648 0.24324 0.14015-4.888 4.3659-17.893-5.175-11.978 9.4888-4.6378-5.4018-16.352-3.0984-3.3382-0.8029 12.698-14.433 20.893-23.643 13.709 4.7024-7.0957 13.461-0.21293 17.613-10.909 6.0231-13.459-7.6442 1.7308-10.563 2.4697 0.82674-6.271 10.642-12.383-1.7023-11.386-9.8498-2.0621-27.819 5.9824-32.782-3.7138l0.7115-1.7946 1.3362-2.1985zm24.406 11.844c18.491 0.25443-17.172 26.997-2.2903 10.348 1.719-3.1818 1.5234-6.908 2.2903-10.348z" fill="#f2f2f2"/>
   <path id="path11213" d="m-149.87-632.71c-11.554-7.3679-31.988 4.8288-14.685 14.621 15.975 12.282 36.878 14.086 55.26 21.057 21.533 7.1983 43.565 13.989 66.5 13.879 33.861 2.4719 67.722 4.9438 101.58 7.4157 9.5098-5.4259 4.8409-11.527-4.2272-9.3527-39.96-3.2933-79.919-6.5867-119.88-9.8801-28.184-12.58-56.368-25.16-84.552-37.74z" fill="url(#linearGradient3802)"/>
   <path id="path11233" d="m-161.62-610.6c49.737 16.982 99.527 33.812 149.21 50.948-15.633-5.2148-31.235-10.52-46.842-15.813 20.449 3.4476 41.342 1.6092 61.992 2.8523 69.507 1.5004 139.01 4.5421 208.53 4.487 33.786-0.75598 67.811-1.5604 101.36 3.2081 11.063 2.132 16.618 23.857-0.11849 17.528-53.951-1.5531-107.92 0.20106-161.87 0.11387-78.001-1.8856-156.06-6.3747-233.29-17.831-26.381-15.059-53.293-29.226-78.967-45.493z" fill="url(#linearGradient3805)"/>
   <path id="path3279" d="m213.01-633.14c-11.542 1.3451-33.347-6.447-30.791 13.237-1.5561 8.8143-9.8373 30.697 6.7836 22.759 12.877 0.2309 29.766-4.5266 24.355-20.72-0.11572-5.0916-0.23143-10.183-0.34715-15.275z" fill="url(#linearGradient3808)" opacity=".45223"/>
   <g id="g4010" transform="translate(-234.42 -1447)">
    <path id="path4012" d="m844.79 801.97c0.32254 51.761-21.459 106.98-66.954 134.91-34.202 20.802-81.622 14.407-109.63-14.038-43.283-40.16-56.042-104.85-44.196-161.11 9.1009-42.861 35.631-85.41 77.853-101.77 32.701-11.972 71.393-2.7319 95.661 22.126 32.593 30.426 47.135 76.155 47.271 119.89z" fill="url(#radialGradient3739)"/>
    <path id="path4014" d="m870.92 801.97c0.44785 51.841-23.106 107.12-69.965 132.91-34.87 18.703-81.036 11.157-108.6-17.114-44.419-41.866-55.911-110.14-39.003-167.26 11.87-39.799 40.848-77.905 82.373-89.005 31.625-8.1822 66.732 2.0338 89.54 25.308 31.193 29.318 45.565 73.075 45.656 115.15z" fill="url(#radialGradient3742)" stroke="url(#radialGradient3744)" stroke-width="1.5331"/>
    <path id="path4016" d="m844.49 812.93c-3.8138 42.18-25.537 86.289-65.706 104.36-32.203 14.809-72.482-1.7557-89.531-31.719-33.24-51.898-26.465-125.3 13.838-171.44 19.842-22.422 53.174-35.655 82.069-23.833 33.828 13.355 53.129 48.976 58.2 83.49 2.047 12.927 2.3679 26.113 1.13 39.138z" fill="#fcfbfd"/>
   </g>
   <path id="path11211" d="m241.2-651.89c39.345-2.737 78.69-5.4741 118.03-8.2111 18.475-8.8954 36.95-17.791 55.425-26.686-9.4934 31.971-14.924 65.229-14.213 98.626-1.8213 12.081 0.95814 28.933-4.1301 38.019-19.803 1.2965-40.232-0.03253-59.258 6.6319-15.967-0.52328-26.093-18.766-43.569-15.128-23.466-3.8978-47.305-3.3794-70.966-3.1527-51.933-3.9864-104.06-3.5446-156.09-5.5901-42.144-1.4677-84.362-2.2794-126.41-5.4802-16.267-3.2703-31.257-11.125-46.962-16.402-18.071-6.8481-36.143-13.696-54.214-20.544-3.7966-5.2772-12.695-19.349 0.43193-10.885 29.963 11.839 59.927 23.679 89.89 35.518 83.379 4.1822 166.72 9.3027 250.16 12.185 40.439-7.1404 80.878-14.281 121.32-21.421 0.03831-17.383-9.8956-36.859-27.248-42.201-11.297-2.8925-34.064-0.77361-38.5-3.5245 4.3725-2.2887 3.7337-8.1315 6.2976-11.754z" fill="#453c73"/>
   <path id="path11174" d="m-138.87-670.59c5.2863 9.4627 27.957 17.899 20.013 29.154-10.677 5.2144-30.633 7.9517-36.044 13.209 20.109 10.939 38.743 25.656 61.581 30.487 19.425 6.5356 39.381 11.816 60.009 12.171 55.532 4.782 111.17 8.5294 166.82 11.415 11.472 5.6779 18.808-6.6907 6.2737-12.058-8.9037-1.3052-20.2-5.2989-12.104-15.737 3.1698-12.984 11.357-33.405-7.3087-38.363-16.249-5.7926-33.848-1.3099-50.57-4.3308-46.999-2.4948-94.003-4.9154-140.98-7.7103-22.56-6.0792-45.12-12.158-67.68-18.238z"/>
   <path id="path11176" d="m-171.97-675.04c5.639 15.152 3.239 33.112 13.642 46.379 14.718-1.1299 28.436-9.9735 41.675-14.915-2.1319-12.808-17.326-23.651-30.611-23.218-9.0157-0.60674-16.991-3.7785-24.706-8.2456z" fill="url(#linearGradient3822)"/>
   <path id="path11201" d="m260.19-639.6c-29.459-1.5492-58.943-4.522-88.469-2.9855-8.2808 14.707-18.064 29.355-33.461 37.102-8.7303 7.9246-4.6182 22.505 8.4298 17.25 20.731 1.2177 41.598 4.3632 62.333 1.4783-10.328-4.0904-36.799 2.965-35.208-11.723-12.328-5.4172-1.8646-20.409-2.6154-31.082 9.9277-9.0391 27.147-9.4993 40.796-11.056 16.064-0.37494 32.134 0.69586 48.194 1.016z" fill="#170e48"/>
   <path id="path11198" d="m170.19-634.89c0.04081 11.625-8.7706 34.585-1.4565 39.072 4.996-10.737 8.0245-26.455 5.3495-36.819l-2.2242-1.0776-1.6689-1.1751zm-11.612-5.8062c-15.638 2.722-33.664 12.544-31.42 30.537-8.1932 13.33-1.3388 28.049 14.463 26.026 21.276 5.3746 43.539 2.3621 65.185 1.8116 19.405-0.92497 38.873-1.6764 58.096-4.6672-6.4323-0.56113-27.72-1.8883-9.8475-2.846 12.747-2.2158 37.197 0.00182 42.786-7.5451-11.705 6.4358-25.381 4.1483-38.191 6.1083-23.71 1.9612-47.51 0.69321-71.232 0.20017-4.6598-0.85183-25.637-6.9552-12.879 1.5717 5.9066 3.9162 15.77-1.209 20.13 3.3165-20.822-1.2046-41.662-2.749-62.493-4.0715 1.5505-15.523 19.682-18.824 26.044-30.274 3.3896-6.8334 17.775-23.631-0.64222-20.167z" fill="#362c69"/>
   <path id="path11203" d="m172.04-598.6c1.516 14.771 23.021 5.551 33.309 8.4791 30.902 0.89584 61.757-1.7308 92.506-4.4874 3.0312-7.2389 2.3259-9.0279-3.6863-2.9231-16.728 5.4775-34.648 1.922-51.902 3.5691-21.851 0.17749-44.001 2.4758-65.672-0.5028-1.934-0.75974-3.8052-2.1074-4.5553-4.135z" fill="#cbc3f4"/>
   <path id="path11209" d="m238.05-585.53c5.1205 0.03451 13.488-3.3372 3.5345-3.1702 11.111-4.0433 24.236-3.1613 36.182-4.1846 9.026 0.87723 18.116-1.0207 23.195-7.3184-0.82866 13.535 20.025 3.1607 30.084 4.4767 15.928-0.78417 31.892-0.96761 47.803-2.1414-11.85 12.764-31.223 6.8649-46.189 12.568-31.518 5.236-63.077 10.225-94.61 15.374-13.529-5.2896-28.379-0.63988-42.461-2.6249-24.857-0.1469-50.025 1.0936-74.504-4.1325 2.0797-14.201 23.546-5.5324 33.525-6.163 27.843 1.9546 55.646-1.5723 83.44-2.6835z" fill="#030e2c"/>
   <path id="path11207" d="m173.46-583.36c58.325 1.3885 116.21-9.088 174.46-8.7994-8.3656 3.3925-20.928 5.8572-30.917 8.5683-25.554 5.8083-51.878 6.8436-77.893 9.3506-22.882 1.5005-45.884 1.5591-68.775 1.4316 28.842-3.6887 57.791-6.5137 86.785-8.6902-26.107-0.34969-52.422 2.6237-78.394-0.08471-1.7712-0.54213-3.5231-1.1456-5.2646-1.7761z" fill="#9498d9"/>
   <path id="path11309" d="m392.64-552.15c-17.945 6.9366-35.632 14.538-53.736 21.062-24.666 0.47898-49.333 0.95792-73.999 1.4369 42.875-5.6999 85.332-14.063 127.73-22.499z" fill="#100813"/>
   <path id="path3759" d="m117.21-878.38c-48.626 18.441-98.688 33.994-144.78 58.387-20.772 13.778-39.426 30.443-59.974 44.533-0.18948-16.734 5.1852-32.818 13.72-47.039 7.8943-11.531 8.9525-29.913 23.955-34.337 32.566-16.193 67.302-29.348 103.88-31.946 44.783-5.2339 89.948-6.0478 134.99-5.4421-4.4755 4.7574-22.972 4.8212-33.048 7.7472-12.984 2.3635-25.959 4.8391-38.753 8.096z" fill="url(#radialGradient3831)"/>
   <path id="path2540" d="m401.49-903c31.181-30.225 63.64-59.106 96.44-87.529 10.86-13.253 24.339-23.587 39.951-30.535 6.5657-2.785 25.682-17.549 7.9334-13.982-28.585 1.591-57.753 3.6626-85.091 12.45-33.742 19.398-67.659 38.532-101.12 58.391-26.138 18.168-49.827 39.622-76.294 57.36-6.5871 3.928-8.6686 8.5695 0.80188 6.1737 39.097-2.179 78.326 0.95364 117.38-2.3278z" fill="url(#radialGradient3834)" opacity=".49681"/>
   <path id="path3330" d="m160.6-760.35c-13.629 0.69093-23.652 28.994-3.1837 24.04 50.816-2.5078 101.89-5.0819 151.76-15.888 15.839-2.3976 31.405-8.4408 42.617-20.252 15.72-13.795 32.949-28.802 38.943-49.542-2.4862-16.481-24.137-10.44-35.786-9.7716-46.536 5.4516-89.963 24.256-133.64 40.076-21.07 8.7391-40.967 19.988-60.711 31.338z" fill="#4d436b"/>
   <path id="path3338" d="m170.07-758.36c25.158-15.781 54.023-24.011 80.637-36.847 30.264-11.79 61.45-21.405 92.982-29.033 14.388-1.8768 30.838-8.8541 44.002 0.49067-1.4166 16.854-16.255 28.063-26.434 40.13-17.348 16.744-39.964 27.434-63.784 30.815-38.574 8.6988-78.192 12.662-117.67 12.312-12.447 6.3789-38.861-4.4967-16.768-14.439 2.3593-1.1105 4.7656-2.1322 7.0329-3.4277z" fill="#0d1023"/>
   <path id="path3332" d="m221.94-780.3c-7.1345 2.7316-14.12 10.445-1.8379 7.026 8.7955-4.4961 24.475 6.3449 11.612 12.172-21.943 0.93517-42.446 9.6565-63.802 13.831 2.7471-11.391 20.382-15.177 29.534-22.339 7.983-3.965 16.232-7.3599 24.494-10.691z" fill="#7b7ab7"/>
   <path id="path3340" d="m265.58-794.52c3.9634-7.9 26.867-12.011 15.612 1.42-1.8855 9.8318-11.02 12.002-14.069 1.3006l-0.75047-1.3084-0.79292-1.4122z" fill="#6d6faa"/>
   <path id="path3342" d="m302.49-796.76c7.4973-6.3682 33.258-21.918 27.111-0.86529-5.3262 11.704-22.45 25.129-26.089 5.0991l-0.66805-2.0817-0.35458-2.1521z" fill="#6d6faa"/>
   <path id="path3346" d="m264.84-776.94c4.7274 16.746-23.757 14.367-17.754-1.8521-0.08332-14.017 21.691-13.673 17.754 1.8521z" fill="#2d1924"/>
   <path id="path3344" d="m301.24-778.69c4.7274 16.746-23.757 14.367-17.754-1.8521-0.0833-14.017 21.691-13.673 17.754 1.8521z" fill="#2d1924"/>
   <path id="path3350" d="m264.09-776.32c-3.8569 17.713-13.882-11.785-2.407-4.3569 1.1984 1.2879 2.6772 2.4147 2.407 4.3569z" fill="#4f3f5b"/>
   <path id="path3348" d="m300.25-778.56c-3.8569 17.713-13.882-11.785-2.407-4.3569 1.1984 1.2879 2.6772 2.4147 2.407 4.3569z" fill="#4f3f5b"/>
   <path id="path3352" d="m271.88-774.69c-11.182 6.5546 18.512 11.065 0.64432 13.6-18.664 2.7952-1.958-15.681 3.9897-21.293 4.9643-5.8871 8.9613-10.227 7.7947 0.19949 2.439 5.3847 1.3682 19.077-0.44151 6.1942-1.226-16.132-6.2451-3.7591-11.987 1.2993z" fill="#8982b1"/>
   <path id="path3354" d="m259.41-792.15c13.337-7.9214 11.744 25.206 5.3804 13.269-0.05082-4.9928-3.4597-8.914-5.3804-13.269z" fill="#fefaf9"/>
   <path id="path3356" d="m295.88-793.27c11.493-6.2186 10.813 22.721 3.153 5.5934-1.3643-1.6212-3.2007-3.2526-3.153-5.5934z" fill="#fefaf9"/>
   <path id="path3362" d="m354.08-815.47c-9.7973 4.6605-30.273 19.38-17.195 30.192 11.917-7.1229 19.538 14.175 27.647 0.33662 10.928-6.0257 22.164-28.615 3.4443-31.483-4.5713-1.0321-9.5727-1.0542-13.897 0.95356z" fill="#f1f86e" fill-opacity=".39867"/>
   <path id="path3358" d="m386.17-827.46c-27.789 15.599-57.869 27.834-82.061 49.097-15.66 11.546-30.432 25.267-48.881 32.106 17.951-3.2264 37.462-5.9928 55.683-10.501 20.384-5.0968 39.13-16.021 54.65-29.997 8.6269-9.8102 17.881-20.376 21.658-33.103 0.41112-2.5646 0.08752-5.2543-1.0485-7.6015z" fill="#fefaf9" fill-opacity=".6113"/>
   <path id="path3364" d="m-147.38-784.04c-3.2592 17.918 23.806 30.173 35.002 15.639 16.86-16.226 35.218-31.461 48.533-50.871 4.0506-6.5456 14.814-29.712 1.7516-30.852" fill="none" stroke="#000" stroke-linejoin="round" stroke-width="2"/>
   <g id="g3417" transform="translate(0,-1500)">
    <path id="path3374" d="m-92.031 681.94c-17.201 1.9617-5.7387 36.98 6.6203 18.883 4.5077-6.3108 1.194-17.077-6.6203-18.883z" fill="#2d1924"/>
    <path id="path3378" d="m-88.906 689.44c-14.183 3.4811 7.6973 22.083 4.3659 4.5242-0.44985-2.1079-1.9416-4.4367-4.3659-4.5242z" fill="#4f3f5b"/>
    <path id="path3384" d="m-87.906 682.62c2.3618 5.2629 8.4218 22.608 11.155 8.1603-1.0083-4.9433-5.6749-10.032-11.155-8.1603z" fill="#fefaf9"/>
    <path id="path3399" d="m-102.8 705.69c-7.216-4.4127-15.868 12.761-4.345 7.3757 5.1491 4.4629 9.9415-4.7806 4.345-7.3757z" fill="#eae57f"/>
    <path id="path3401" d="m-73.002 661.96c16.501 3.9942-6.7507 19.82-15.408 17.084-17.459 5.4345-27.656 22.534-44.212 29.616-11.619 4.461 4.7737 30.391-9.0109 17.558-8.4628-16.122 12.767-23.744 23.141-30.748 14.475-11.919 24.763-31.879 45.49-33.51z" fill="#f1eea8"/>
    <path id="path3403" d="m-65.596 651.2c18.179 6.0714 0.12348 26.636-6.0506 36.248-9.6006 14.748-25.698 23.688-35.392 38.341-8.7371 10.334-27.119 14.855-36.375 2.7391-10.707-13.173 8.3565-23.894 15.383-33.262 18.313-17.898 40.075-31.804 62.435-44.066z" fill="url(#radialGradient3857)" opacity=".39809"/>
   </g>
   <path id="path3433" d="m419.95-903.49c89.604-0.03313 179.28 2.3281 268.84-0.32396 13.452-5.0591 16.414-21.505 25.35-31.56 16.65-25.614 33.3-51.229 49.95-76.843-72.533-12.07-146.24-5.0008-219.32-5.4594-29.969 0.4581-59.937 0.9511-89.905 1.4694 14.588-6.61 28.683-16.14 45.516-14.655 76.148-5.3419 152.64-13.18 228.96-6.4637 19.087 1.4353 38.136 3.5102 57.03 6.5981 6.1382 13.392-11.981 22.99-14.831 35.501-20.671 35.043-44.568 68.013-67.305 101.71-77.59 5.572-155.38-0.28185-232.85-4.8894-17.186-1.2171-34.373-2.6253-51.432-5.0856z" fill-opacity=".70432"/>
   <path id="path3495" d="m291.76-907.8c46.051-42.634 97.159-80.491 153.65-108.12 26.866-12.445 56.602-16.392 85.955-16.333 18.028 0.0215 35.501-5.1069 53.493-4.9855 62.205-2.7174 125.24-7.0601 186.8 4.9221 5.4941 13.725-19.736 14.24-22.099 27.273-23.098 26.971-44.986 55.219-72.144 78.343-14.119 12.521-28.14 25.938-44.55 35.219-18.514 3.756-37.454 0.06042-56.152 0.56411-93.556-3.4251-187.2-7.1933-280.42-15.997l-2.2776-0.41039-2.2643-0.47912z" fill="#fff" fill-opacity=".12957"/>
   <path id="path3429" d="m790.68-1028.8c-16.1-11.927-31.559 5.8628-37.498 19.773-18.439 24.346-45.113 41.213-61.901 66.992-15.433 19.762-36.827 33.243-57.163 47.268-5.1013 8.7039 15.879 2.7408 21.36 4.7508 15.988-0.16422 32.445-0.05134 47.855-4.6602 12.907-9.6796 16.745-26.935 27.11-39.037 20.079-31.695 40.159-63.391 60.238-95.086z" fill="#dfe2ed" fill-opacity=".70432"/>
   <path id="path3497" d="m666.54-655.01c87.385-26.615 175.23-51.733 262.27-79.449-5.2526-8.8573-23.609 1.9673-33.483 0.0519-57.468 7.3894-114.88 15.55-172.16 24.078-12.703 8.5625 9.7015 29.162-6.6633 35.415-16.68 6.5338-33.333 13.171-49.967 19.904z" fill="#050a30"/>
   <path id="path3499" d="m753.3-823.58c74.449-15.584 148.33-33.944 223.23-47.299 8.7919-3.3312 29.775 0.22615 21.704-14.081 11.65-7.8514 26.073-12.055 39.431-8.4475 12.797-4.4695 28.249-14.855 41.711-6.7225 12.471 9.8556 21.987-5.7931 33.387-6.575 9.5527 0.77593 11.058-6.3552 3.3864-11.238-5.8748-14.023 3.9884-36.434-14.806-43.292-5.7616-3.0206-29.913-2.4945-12.314-3.4418 26.96-1.1067 56.69-3.6255 80.076 12.593 11.04 6.3882 21.201 15.162 24.669 27.91 10.538 32.72 5.7449 67.614 4.5908 101.3-8.3746-11.662-36.334-0.89601-31.968-22.553-4.6759-18.555-9.6715-41.4-29.612-49.244-20.47-8.4771-45.373 2.7066-54.134 22.737-8.5462 14.828-14.758 30.92-19.202 47.423-15.484 9.7862-34.667 8.0357-52.05 11.189-59.311 4.9553-118.22 13.435-177.04 22.346-24.006 3.0648-48.154 7.1977-72.373 6.8902-7.2799-1.4622-25.809 0.79242-24.732-7.0564 11.685-9.7796 27.447-11.898 40.935-18.305 60.605-22.242 123.03-38.95 185.3-55.748-70.063 13.872-140.13 27.743-210.19 41.615z" fill="#050a30"/>
   <path id="path3501" d="m1109.5-892c20.552-7.6565 40.91 9.6556 48.257 27.893 11.486 28.989 7.0374 60.819 10.137 91.154-1.5909 5.0688 2.0712 26.289 5.3203 11.396 1.3416-17.577-0.6237-35.232 1.0712-52.834-0.0916-26.272-7.3236-54.817-27.756-72.686-9.5307-7.0201-22.506-12.666-34.26-8.9693-3.8868 1.2666-10.572 8.5832-2.7696 4.0464z" fill="#4a4172"/>
   <path id="path3503" d="m1085.7-895.08c18.012-16.16 48.452-16.447 65.211 1.581 7.5053 3.7189 9.6104 28.839 0.4117 14.927-10.412-11.381-29.059-24.65-44.108-14.578-8.5911 7.507-18.246 12.443-21.514-1.9294z" fill="url(#linearGradient3866)"/>
   <g id="g3879" transform="translate(-42.585 -1499.5)">
    <g id="g3875">
     <path id="path3079" d="m1215.6 582.26c-17.203 1.9319-12.975 28.407 4.5183 19.599 10.755-3.4193 6.856-21.141-4.5183-19.599z" fill="#960406"/>
     <path id="path3081" d="m1205.6 589.53c-10.612 10.761 5.4094 5.3926 0 0z" fill="#ececec"/>
    </g>
    <path id="path3083" transform="matrix(1.2091 0 0 1.3221 -203.99 -192.49)" d="m1184 593.28c-1.7637 19.779-26.119-7.633-6.3053-8.0884 3.7547 0.54784 6.4598 4.4109 6.3053 8.0884z" fill="#980207" filter="url(#filter3869)"/>
   </g>
   <path id="path3889" d="m808.84-1021.5c-13.434-14.574-18.466 13.812-25.927 21.249-8.194 13.564-16.388 27.128-24.582 40.692-2.2238 19.416-4.4477 38.832-6.6716 58.248 16.218 3.6598 18.713-12.761 19.251-24.763 2.9196-15.783 4.1374-32.21 9.6704-47.298 9.4199-16.043 18.84-32.085 28.26-48.128z" fill="#9b93a7"/>
   <path id="path3885" d="m790.49-1029.8c-29.252 45.247-58.504 90.493-87.756 135.74 12.363-2.8579 29.547-0.21434 33.794-16.016 22.476-38.378 44.929-76.768 67.271-115.22-4.4362-1.4998-8.8725-2.9997-13.309-4.4994z" fill="#afadc3"/>
   <path id="path3887" d="m770.14-965.98c-15.31 23.778-30.621 47.556-45.931 71.334 12.02-4.3395 36.629 5.5061 37.865-13.344 2.6888-19.33 5.3775-38.66 8.0663-57.99z" fill="#958fa9" stroke="#000" stroke-width=".2"/>
   <path id="path3891" d="m816.49-909.23c-16.33 0.84672-32.66 1.6934-48.989 2.5402-12.283 11.301-31.109 4.1547-45.962 9.1852-17.354 2.0186-34.699 4.1096-52.017 6.4188 32.703-0.74719 65.51-1.559 97.784-7.383 15.79-2.1355 31.58-4.271 47.37-6.4066l1.8145-4.3546z" fill="#7d6e91" stroke="#000" stroke-linejoin="round" stroke-width=".2"/>
   <path id="path3893" d="m727.22-896.89c14.396 23.398 17.797 51.186 26.128 76.931-4.3342 14.318-5.3916 28.965-2.5403 43.592-1.0762 21.722-2.646 43.422-4.3285 65.106-2.8923 15.377 14.805 26.014 10.506 41.419-1.6552 8.6987-3.5828 27.251 10.59 17.093 92.27-25.49 184.2-52.24 276.81-76.489" fill="none" stroke="#000" stroke-linejoin="round" stroke-width=".8"/>
   <path id="path3895" d="m996.48-716.9c13.741-30.587 26.583-61.941 32.659-95.075" fill="none" stroke="#000" stroke-linejoin="round" stroke-width=".8"/>
   <path id="path3897" d="m1027-806.17c4.7264-17.921 6.58-36.713 4.3546-55.158" fill="none" stroke="#b9b9b9" stroke-linejoin="round" stroke-width=".8"/>
   <path id="path3899" d="m1024.8-940.8c10.994-3.578 29.331-11.333 31.323 6.9185 9.4319 12.733 4.6645 38.619-14.947 32.969-10.033-9.885-14.503-27.034-16.377-39.888z" fill="none" stroke="#050505" stroke-linejoin="round" stroke-width=".8"/>
   <path id="path3901" d="m1019.7-939.79c2.8601 12.825 15.588 23.718 12.021 37.598-8.7013 10.241-13.192-13.069-14.757-19.979-1.9206-8-11.664-16.394 2.7366-17.619z" fill="#8b8dc2"/>
   <path id="path3903" d="m1010-937.48c-1.1131 14.588 17.333-6.4461 2.9377-0.87339-0.9792 0.29115-1.9585 0.58226-2.9377 0.87339z" fill="#21213b"/>
   <path id="path3905" d="m999.7-945.44c4.1317 0.9668 7.3891 4.0561 9.7507 7.4413" fill="none" stroke="#050505" stroke-width=".8"/>
   <path id="path3907" d="m1009.2-935.69c-0.7469 13.63 6.8395 27.36 13.593 38.163l0.5196 0.32674" fill="none" stroke="#050505" stroke-linejoin="round" stroke-width=".8"/>
   <path id="path3909" d="m965.32-950.06c10.493 6.7241 23.482 1.5388 34.897 4.1055" fill="none" stroke="#f1f1f1" stroke-linejoin="round" stroke-width=".8"/>
   <g id="g3927" transform="translate(0,-1500)">
    <path id="path3915" d="m794.86 607.96c-14.409 4.5151-25.82 27.701-16.367 38.38 10.882-3.9851 19.29-16.012 25.997-23.724-3.3334-4.55-13.588-7.3055-9.6301-14.656z" fill="url(#linearGradient3885)"/>
    <path id="path3911" d="m784.42 627.57c9.8709-5.0657 32.316-9.0723 36.061 2.2976-1.5708 15.741-19.166 21.819-32.832 20.417-16.675-2.2298-4.9336-13.314-3.2287-22.714z" fill="#021046"/>
    <path id="path3913" d="m789.04 612.3c-3.9166 4.0514-0.72083 11.614 4.5238 12.577" fill="none" stroke="#000" stroke-linejoin="round" stroke-width=".8"/>
   </g>
   <path id="path3919" d="m910.11-928.82c23.218-6.7215 45.733-15.694 67.635-25.881 11.882 1.1642 20.683-18.771 4.0217-17.686-11.21-3.7832-36.332-4.8268-39.612-4.1411 11.171 2.6627 35.335-1.3395 36.809 11.765-11.19 12.225-28.578 15.151-43.276 21.366-8.8697 4.053-25.539 7.0066-29.59 11.739 1.3374 0.94638 2.6748 1.8928 4.0121 2.8391z" fill="#756f8b"/>
   <path id="path3934" d="m794.29-890.44c1.4372 18.427 30.894 20.807 35.228 2.7002 6.8577-14.641 22.277-23.124 38.138-19.543 15.033-0.25625 31.681 1.012 44.89-7.3114 12.878-10.583 5.5113-35.586-11.795-35.483-19.454-1.7975-40.202-4.3618-58.783 3.1181-19.719 10.037-24.948 33.883-41.152 47.63-2.5138 2.689-4.8778 5.5772-6.5269 8.8896z" fill="#0f0f31"/>
   <path id="path3936" d="m795.08-889.63c4.2225-4.7722 14.629-19.414 20.127-11.568-8.955-0.72038-13.234 30.073-20.127 11.568z" fill="#888bc2"/>
   <path id="path3940" d="m810.86-907.23c16.722 3.6247 23.519-22.294 41.832-16.82 17.777-2.0878 35.982-2.4689 53.122-8.1406 15.848 5.2101 8.5348-14.181-2.3022-14.251-14.906-4.292-30.312 0.38007-45.343 1.3233-20.709 4.3425-35.374 21.684-47.309 37.888z" fill="url(#linearGradient3893)"/>
   <path id="path3960" d="m822.11-900.15c-4.3834 6.8343-24.196 25.105-4.0103 22.893 8.4096-3.3884 15.875-18.894 16.394-23.052-4.1278 0.05292-8.2556 0.10587-12.383 0.15878z" fill="url(#linearGradient3896)"/>
   <path id="path3972" d="m826.5-903.87c3.3829-15.928 22.012-19.627 35.894-19.315 16.679 2.1468 33.7-3.7629 50.086 0.85536 4.9662 9.0522-15.696 11.851-23.393 9.628-15.939 1.6393-34.124-3.0715-48.424 5.6022-3.2144 5.8303-8.5826 5.2358-14.163 3.2299z" fill="#433863"/>
   <path id="path3916" d="m918.46-979.63c2.3905 9.108 20.547 27.447 24.675 13.376-5.3279-8.4964-16.385-9.3506-24.675-13.376z" fill="url(#linearGradient3900)"/>
   <path id="path3917" d="m707.7-895.66c28.397-44.99 56.794-89.98 85.19-134.97-21.372-11.378-46.338-7.156-69.473-10.286-32.657-2.8157-65.486-3.6331-98.194-1.2347-37.858 1.5443-75.71 3.2201-113.56 4.8494" fill="none" stroke="#000" stroke-width="1.5"/>
   <path id="path4024" d="m449.31-573.05c14.181 5.404 16.933 23.653 30.89 29.793 12.476 8.3388 28.02 11.958 42.896 9.9851 7.7035-16.098-5.5188-32.44-5.6732-48.922-1.5651-7.6057-5.4046-23.926-5.573-26.065 4.2521 16.243 20.218-8.2794 18.28-4.8039 3.1309 24.427 5.7839 48.928 9.9012 73.217 16.414-2.8942 25.859-18.39 36.536-29.609 8.9571-12.057 15.186-25.986 19.167-40.427-4.6479-12.968 20.634-9.5573 8.6631 2.3394-10.836 32.524-30.992 65.532-64.455 78.213-30.042 11.709-64.74-3.6537-82.075-29.466-3.2324-4.5092-6.084-9.2886-8.5569-14.254z"/>
   <path id="path4026" d="m536.52-650.67c6.503 3.7806 27.773 4.1147 12.719 11.19-0.8307 7.6693-13.304 18.737-13.876 14.524 23.671 1.3476 47.341 2.6952 71.012 4.0428 1.426-9.5158 9.2194-32.259-3.5993-32.994-6.0473 6.5694 6.0592 23.477-9.3986 16.12-17.527-4.3251-34.922-9.2753-52.501-13.221l-1.6054-0.0597-2.7507 0.39863z"/>
   <path id="path4028" d="m490.44-620.37c-3.6333 16.082-27.228 15.844-30.156 32.996 10.961-4.8942 21.137-13.735 31.923-19.94 6.074-4.0913 14.06-10.348 19.388-8.8442-8.1689-9.8107-13.821 11.777-21.156-4.2114z"/>
   <path id="path4030" d="m480.64-654.66c-0.92125 5.7456-4.7175 23.751 6.0923 14.245 16.084-0.94922-11.031 15.444-13.951 21.742-5.2778 5.8966-20.627 17.082-18.519 20.716 12.184-9.4482 21.803-21.775 33.339-32.008 6.7102-6.0937 15.664-14.076 1.7359-17.324-3.246-1.9929-6.3484-4.3361-8.6963-7.3713z"/>
   <path id="path4032" d="m502.23-647.59c-11.537 8.926 16.51 15.553 9.4567 4.222 5.7449-2.8057 11.803 5.6412 13.914-3.1388 11.855 3.6595 9.6329-8.3525 0.39051-10.254-7.4741-7.9171-14.942-4.7153-15.666 5.7528-1.1073 3.4757-4.9577 4.5542-8.0951 3.4184z"/>
   <path id="path4038" d="m521.65-744.3c-11.627 14.642 27.006 14.167 12.589 0.16764-3.8837-1.5231-8.7716-2.2451-12.589-0.16764z" fill="#1f1f1f"/>
   <path id="path4034" d="m472.84-719.62c10.453 14.001 27.635-9.6121 41.011 1.5722 10.589 8.3111 31.979 2.9221 22.596-12.814-6.1681-9.1821-29.649-2.6832-31.042-6.7485 9.2478-1.0673 8.5754-9.7528-0.73086-4.9859-12.741 4.0307-23.247 13.003-31.834 22.976z" fill="#0f0e10"/>
   <path id="path4040" d="m477.27-713.09c10.199 10.717 16.059 35.602 35.493 26.97 9.4978-0.72665 3.9828 14.865 8.9446 1.8458 5.5765-10.207 16.469-31.12-1.9214-34.135-13.92-5.0754-30.578-3.998-42.516 5.319z" fill="#786d7c"/>
   <path id="path4036" d="m511.67-744.48c-1.7508 4.7879-13.733 10.689-1.6628 7.7043 7.0933-2.5814 17.022 8.0236 21.704 2.5538-6.3888-1.4059-13.453-4.0332-9.818-10.841-3.1668-2.1891-6.8325 1.6187-10.224 0.58311z" fill="#866d80"/>
   <path id="path4042" d="m559.57-714.72c-6.7738 15.967-13.548 31.934-20.322 47.901 4.6427 8.2078-0.46438 19.292 12.726 17.811 9.0283 0.77814 25.181 7.6626 29.741 4.6258-3.0129-14.158-1.7875-29.079-7.8464-42.638-3.3489-9.874-8.0624-19.325-14.299-27.7z" fill="#1f2521"/>
   <path id="path4044" d="m536.7-620.01c13.408 1.9633 33.604-1.3908 42.76 3.9027-5.0282 18.061-13.731 35.446-25.535 50.026-5.3025 7.5858-14.67 11.544-15.534-1.116-3.0769-14.64-1.9903-29.867-5.8666-44.382-1.0644-3.5152-0.00603-7.752 4.1754-8.4305z" fill="#120e11"/>
   <path id="path4046" d="m453.97-576.1c13.473-7.716 23.268-21.68 38.783-25.674 7.8975 8.9633 21.825 6.3716 20.501 20.528 3.1324 12.62 12.22 35.778-9.0284 36.458-19.838-0.05736-42.466-9.2186-49.724-29.03l-0.5318-2.2823z" fill="#120e11"/>
   <path id="path4048" d="m457.23-699.48c15.268 5.7729 16.039 25.951 26.766 36.833 3.6494 6.6354-8.6543 4.7777-5.6475 13.138 0.97604 16.008-9.6996 26.599-22.18 34.106-4.5781 5.3511-17.995 14.569-15.665 0.31706-2.8845-26.78 1.2122-54.437 13.952-78.343 0.91334-2.0222 1.8414-4.0377 2.7745-6.0509z" fill="#120e11"/>
   <path id="path4064" d="m456.7-695.1c-13.663 24.957-19.931 54.732-13.12 82.678 13.307 9.4086 27.02-14.347 22.887-27.093-3.4881-15.284 13.027-29.001 1.6154-42.823-2.9955-4.8716-6.7614-9.3565-11.383-12.761z" fill="url(#linearGradient3919)"/>
   <path id="path4050" d="m466.24-690.89c-0.85533 0.2566-4.2766 1.283-5.132 1.5396" stroke-width="1px"/>
   <path id="path4058" d="m466.49-691.41c-11.886 8.7959 20.674 21.431 4.3352 31.493-3.0312 8.3523-9.2512 30.727 2.3549 31.085 8.5332-8.7048 1.5744-27.251 11.503-32.366-4.5768-10.906-12.703-19.793-18.193-30.212z" fill="#48383f"/>
   <path id="path4060" d="m456.49-693.71c-0.7698 12.317-1.5396 24.633-2.3094 36.95" stroke-width="1px"/>
   <path id="path3198" d="m485.74-597.75c-12.232 8.7644 22.7 17.029 19.226 5.2184-5.6516-3.7702-14.382 0.3112-19.226-5.2184z" fill="#554446"/>
   <path id="path3200" d="m459.82-581.33c8.7106-5.1857 18.701-19.741 28.347-8.5142 12.009-0.97378 25.302 2.9381 24.781 17.165 1.8862 15.614-23.892 10.575-33.629 8.1442-6.4688-3.0975-19.524-8.3633-19.499-16.795z" fill="url(#linearGradient3926)"/>
   <g id="g4175" transform="translate(17.237 -1523.9)">
    <path id="path4177" d="m439.91 852.23c-2.7184 5.2414-2.7184-5.2414 0 0z" fill="#291f2a"/>
    <path id="path4179" d="m439.63 852.41c-1.1192 4.1503-1.1192-4.1503 0 0z" fill="#e9e2ea"/>
   </g>
   <g id="g4181" transform="translate(14.697 -1531.1)">
    <path id="path4183" d="m439.91 852.23c-2.7184 5.2414-2.7184-5.2414 0 0z" fill="#291f2a"/>
    <path id="path4185" d="m439.63 852.41c-1.1192 4.1503-1.1192-4.1503 0 0z" fill="#e9e2ea"/>
   </g>
   <g id="g4187" transform="translate(23.043 -1541.3)">
    <path id="path4189" d="m439.91 852.23c-2.7184 5.2414-2.7184-5.2414 0 0z" fill="#291f2a"/>
    <path id="path4191" d="m439.63 852.41c-1.1192 4.1503-1.1192-4.1503 0 0z" fill="#e9e2ea"/>
   </g>
   <g id="g4193" transform="translate(23.769 -1532.8)">
    <path id="path4195" d="m439.91 852.23c-2.7184 5.2414-2.7184-5.2414 0 0z" fill="#291f2a"/>
    <path id="path4197" d="m439.63 852.41c-1.1192 4.1503-1.1192-4.1503 0 0z" fill="#e9e2ea"/>
   </g>
   <g id="g4199" transform="translate(25.22 -1526.6)">
    <path id="path4201" d="m439.91 852.23c-2.7184 5.2414-2.7184-5.2414 0 0z" fill="#291f2a"/>
    <path id="path4203" d="m439.63 852.41c-1.1192 4.1503-1.1192-4.1503 0 0z" fill="#e9e2ea"/>
   </g>
   <g id="g4205" transform="translate(50.804 -1557.1)">
    <path id="path4207" d="m439.91 852.23c-2.7184 5.2414-2.7184-5.2414 0 0z" fill="#291f2a"/>
    <path id="path4209" d="m439.63 852.41c-1.1192 4.1503-1.1192-4.1503 0 0z" fill="#e9e2ea"/>
   </g>
   <g id="g4211" transform="translate(52.8 -1564.5)">
    <path id="path4213" d="m439.91 852.23c-2.7184 5.2414-2.7184-5.2414 0 0z" fill="#291f2a"/>
    <path id="path4215" d="m439.63 852.41c-1.1192 4.1503-1.1192-4.1503 0 0z" fill="#e9e2ea"/>
   </g>
   <g id="g4217" transform="translate(58.061 -1552.7)">
    <path id="path4219" d="m439.91 852.23c-2.7184 5.2414-2.7184-5.2414 0 0z" fill="#291f2a"/>
    <path id="path4221" d="m439.63 852.41c-1.1192 4.1503-1.1192-4.1503 0 0z" fill="#e9e2ea"/>
   </g>
   <g id="g4223" transform="translate(61.327 -1558.9)">
    <path id="path4225" d="m439.91 852.23c-2.7184 5.2414-2.7184-5.2414 0 0z" fill="#291f2a"/>
    <path id="path4227" d="m439.63 852.41c-1.1192 4.1503-1.1192-4.1503 0 0z" fill="#e9e2ea"/>
   </g>
   <g id="g4229" transform="translate(63.868 -1564.3)">
    <path id="path4231" d="m439.91 852.23c-2.7184 5.2414-2.7184-5.2414 0 0z" fill="#291f2a"/>
    <path id="path4233" d="m439.63 852.41c-1.1192 4.1503-1.1192-4.1503 0 0z" fill="#e9e2ea"/>
   </g>
   <g id="g4235" transform="translate(68.948 -1556.5)">
    <path id="path4237" d="m439.91 852.23c-2.7184 5.2414-2.7184-5.2414 0 0z" fill="#291f2a"/>
    <path id="path4239" d="m439.63 852.41c-1.1192 4.1503-1.1192-4.1503 0 0z" fill="#e9e2ea"/>
   </g>
   <g id="g4241" transform="translate(72.032 -1561.8)">
    <path id="path4243" d="m439.91 852.23c-2.7184 5.2414-2.7184-5.2414 0 0z" fill="#291f2a"/>
    <path id="path4245" d="m439.63 852.41c-1.1192 4.1503-1.1192-4.1503 0 0z" fill="#e9e2ea"/>
   </g>
   <g id="g4247" transform="translate(76.75 -1566.1)">
    <path id="path4249" d="m439.91 852.23c-2.7184 5.2414-2.7184-5.2414 0 0z" fill="#291f2a"/>
    <path id="path4251" d="m439.63 852.41c-1.1192 4.1503-1.1192-4.1503 0 0z" fill="#e9e2ea"/>
   </g>
   <g id="g4253" transform="translate(76.568 -1551.8)">
    <path id="path4255" d="m439.91 852.23c-2.7184 5.2414-2.7184-5.2414 0 0z" fill="#291f2a"/>
    <path id="path4257" d="m439.63 852.41c-1.1192 4.1503-1.1192-4.1503 0 0z" fill="#e9e2ea"/>
   </g>
   <g id="g4259" transform="translate(80.923 -1556)">
    <path id="path4261" d="m439.91 852.23c-2.7184 5.2414-2.7184-5.2414 0 0z" fill="#291f2a"/>
    <path id="path4263" d="m439.63 852.41c-1.1192 4.1503-1.1192-4.1503 0 0z" fill="#e9e2ea"/>
   </g>
   <g id="g4265" transform="translate(85.096 -1559.1)">
    <path id="path4267" d="m439.91 852.23c-2.7184 5.2414-2.7184-5.2414 0 0z" fill="#291f2a"/>
    <path id="path4269" d="m439.63 852.41c-1.1192 4.1503-1.1192-4.1503 0 0z" fill="#e9e2ea"/>
   </g>
   <g id="g4019" transform="translate(19.142 -1517.9)">
    <path id="path4021" d="m439.91 852.23c-2.7184 5.2414-2.7184-5.2414 0 0z" fill="#291f2a"/>
    <path id="path4023" d="m439.63 852.41c-1.1192 4.1503-1.1192-4.1503 0 0z" fill="#e9e2ea"/>
   </g>
   <g id="g4025" transform="translate(11.975 -1514.7)">
    <path id="path4027" d="m439.91 852.23c-2.7184 5.2414-2.7184-5.2414 0 0z" fill="#291f2a"/>
    <path id="path4029" d="m439.63 852.41c-1.1192 4.1503-1.1192-4.1503 0 0z" fill="#e9e2ea"/>
   </g>
   <g id="g4031" transform="translate(14.878 -1509.1)">
    <path id="path4033" d="m439.91 852.23c-2.7184 5.2414-2.7184-5.2414 0 0z" fill="#291f2a"/>
    <path id="path4035" d="m439.63 852.41c-1.1192 4.1503-1.1192-4.1503 0 0z" fill="#e9e2ea"/>
   </g>
   <g id="g4037" transform="translate(21.051 -1504)">
    <path id="path4039" d="m439.91 852.23c-2.7184 5.2414-2.7184-5.2414 0 0z" fill="#291f2a"/>
    <path id="path4041" d="m439.63 852.41c-1.1192 4.1503-1.1192-4.1503 0 0z" fill="#e9e2ea"/>
   </g>
   <g id="g4043" transform="translate(7.3484 -1501)">
    <path id="path4045" d="m439.91 852.23c-2.7184 5.2414-2.7184-5.2414 0 0z" fill="#291f2a"/>
    <path id="path4047" d="m439.63 852.41c-1.1192 4.1503-1.1192-4.1503 0 0z" fill="#e9e2ea"/>
   </g>
   <g id="g4049" transform="translate(11.794 -1495.4)">
    <path id="path4051" d="m439.91 852.23c-2.7184 5.2414-2.7184-5.2414 0 0z" fill="#291f2a"/>
    <path id="path4053" d="m439.63 852.41c-1.1192 4.1503-1.1192-4.1503 0 0z" fill="#e9e2ea"/>
   </g>
   <g id="g4055" transform="translate(15.785 -1492)">
    <path id="path4057" d="m439.91 852.23c-2.7184 5.2414-2.7184-5.2414 0 0z" fill="#291f2a"/>
    <path id="path4059" d="m439.63 852.41c-1.1192 4.1503-1.1192-4.1503 0 0z" fill="#e9e2ea"/>
   </g>
   <g id="g4061" transform="translate(5.534 -1486.5)">
    <path id="path4063" d="m439.91 852.23c-2.7184 5.2414-2.7184-5.2414 0 0z" fill="#291f2a"/>
    <path id="path4065" d="m439.63 852.41c-1.1192 4.1503-1.1192-4.1503 0 0z" fill="#e9e2ea"/>
   </g>
   <g id="g4067" transform="translate(9.8886 -1482.2)">
    <path id="path4069" d="m439.91 852.23c-2.7184 5.2414-2.7184-5.2414 0 0z" fill="#291f2a"/>
    <path id="path4071" d="m439.63 852.41c-1.1192 4.1503-1.1192-4.1503 0 0z" fill="#e9e2ea"/>
   </g>
   <g id="g4073" transform="translate(15.241 -1479.3)">
    <path id="path4075" d="m439.91 852.23c-2.7184 5.2414-2.7184-5.2414 0 0z" fill="#291f2a"/>
    <path id="path4077" d="m439.63 852.41c-1.1192 4.1503-1.1192-4.1503 0 0z" fill="#e9e2ea"/>
   </g>
   <g id="g4079" transform="translate(9.7978 -1471.4)">
    <path id="path4081" d="m439.91 852.23c-2.7184 5.2414-2.7184-5.2414 0 0z" fill="#291f2a"/>
    <path id="path4083" d="m439.63 852.41c-1.1192 4.1503-1.1192-4.1503 0 0z" fill="#e9e2ea"/>
   </g>
   <g id="g4085" transform="translate(15.241 -1469.1)">
    <path id="path4087" d="m439.91 852.23c-2.7184 5.2414-2.7184-5.2414 0 0z" fill="#291f2a"/>
    <path id="path4089" d="m439.63 852.41c-1.1192 4.1503-1.1192-4.1503 0 0z" fill="#e9e2ea"/>
   </g>
   <g id="g4091" transform="translate(26.581 -1436.2)">
    <path id="path4093" d="m439.91 852.23c-2.7184 5.2414-2.7184-5.2414 0 0z" fill="#291f2a"/>
    <path id="path4095" d="m439.63 852.41c-1.1192 4.1503-1.1192-4.1503 0 0z" fill="#e9e2ea"/>
   </g>
   <g id="g4097" transform="translate(32.75 -1439.6)">
    <path id="path4099" d="m439.91 852.23c-2.7184 5.2414-2.7184-5.2414 0 0z" fill="#291f2a"/>
    <path id="path4101" d="m439.63 852.41c-1.1192 4.1503-1.1192-4.1503 0 0z" fill="#e9e2ea"/>
   </g>
   <g id="g4103" transform="translate(37.74 -1442.3)">
    <path id="path4105" d="m439.91 852.23c-2.7184 5.2414-2.7184-5.2414 0 0z" fill="#291f2a"/>
    <path id="path4107" d="m439.63 852.41c-1.1192 4.1503-1.1192-4.1503 0 0z" fill="#e9e2ea"/>
   </g>
   <g id="g4109" transform="translate(36.107 -1427.6)">
    <path id="path4111" d="m439.91 852.23c-2.7184 5.2414-2.7184-5.2414 0 0z" fill="#291f2a"/>
    <path id="path4113" d="m439.63 852.41c-1.1192 4.1503-1.1192-4.1503 0 0z" fill="#e9e2ea"/>
   </g>
   <g id="g4115" transform="translate(41.097 -1431.6)">
    <path id="path4117" d="m439.91 852.23c-2.7184 5.2414-2.7184-5.2414 0 0z" fill="#291f2a"/>
    <path id="path4119" d="m439.63 852.41c-1.1192 4.1503-1.1192-4.1503 0 0z" fill="#e9e2ea"/>
   </g>
   <g id="g4121" transform="translate(45.723 -1436.1)">
    <path id="path4123" d="m439.91 852.23c-2.7184 5.2414-2.7184-5.2414 0 0z" fill="#291f2a"/>
    <path id="path4125" d="m439.63 852.41c-1.1192 4.1503-1.1192-4.1503 0 0z" fill="#e9e2ea"/>
   </g>
   <g id="g4127" transform="translate(45.996 -1421.8)">
    <path id="path4129" d="m439.91 852.23c-2.7184 5.2414-2.7184-5.2414 0 0z" fill="#291f2a"/>
    <path id="path4131" d="m439.63 852.41c-1.1192 4.1503-1.1192-4.1503 0 0z" fill="#e9e2ea"/>
   </g>
   <g id="g4133" transform="translate(51.257 -1426.6)">
    <path id="path4135" d="m439.91 852.23c-2.7184 5.2414-2.7184-5.2414 0 0z" fill="#291f2a"/>
    <path id="path4137" d="m439.63 852.41c-1.1192 4.1503-1.1192-4.1503 0 0z" fill="#e9e2ea"/>
   </g>
   <g id="g4139" transform="translate(54.977 -1432.5)">
    <path id="path4141" d="m439.91 852.23c-2.7184 5.2414-2.7184-5.2414 0 0z" fill="#291f2a"/>
    <path id="path4143" d="m439.63 852.41c-1.1192 4.1503-1.1192-4.1503 0 0z" fill="#e9e2ea"/>
   </g>
   <g id="g4145" transform="translate(58.334 -1423.9)">
    <path id="path4147" d="m439.91 852.23c-2.7184 5.2414-2.7184-5.2414 0 0z" fill="#291f2a"/>
    <path id="path4149" d="m439.63 852.41c-1.1192 4.1503-1.1192-4.1503 0 0z" fill="#e9e2ea"/>
   </g>
   <g id="g4151" transform="translate(61.872 -1429.2)">
    <path id="path4153" d="m439.91 852.23c-2.7184 5.2414-2.7184-5.2414 0 0z" fill="#291f2a"/>
    <path id="path4155" d="m439.63 852.41c-1.1192 4.1503-1.1192-4.1503 0 0z" fill="#e9e2ea"/>
   </g>
   <g id="g4157" transform="translate(64.049 -1435.8)">
    <path id="path4159" d="m439.91 852.23c-2.7184 5.2414-2.7184-5.2414 0 0z" fill="#291f2a"/>
    <path id="path4161" d="m439.63 852.41c-1.1192 4.1503-1.1192-4.1503 0 0z" fill="#e9e2ea"/>
   </g>
   <g id="g4163" transform="translate(68.494 -1422.5)">
    <path id="path4165" d="m439.91 852.23c-2.7184 5.2414-2.7184-5.2414 0 0z" fill="#291f2a"/>
    <path id="path4167" d="m439.63 852.41c-1.1192 4.1503-1.1192-4.1503 0 0z" fill="#e9e2ea"/>
   </g>
   <g id="g4169" transform="translate(71.397 -1429.7)">
    <path id="path4171" d="m439.91 852.23c-2.7184 5.2414-2.7184-5.2414 0 0z" fill="#291f2a"/>
    <path id="path4173" d="m439.63 852.41c-1.1192 4.1503-1.1192-4.1503 0 0z" fill="#e9e2ea"/>
   </g>
   <path id="path4401" d="m491.89-694.4c2.2237 17.324 26.194-0.07716 27.414 13.289 9.0592-8.5371 1.1838-20.032-10.342-15.829-5.7845-0.14056-11.546 0.88489-17.072 2.54z" fill="#432f38"/>
   <path id="path4403" d="m551.95-697.3c14.527 4.5509 10.985 22.954 12.466 34.777 2.5061 7.0404 0.06031 20.215-9.5626 12.035-16.826-0.11109-10.737-23.769-7.9651-33.991 1.6542-4.2869 3.5454-8.4813 5.062-12.821z" fill="#432f38"/>
   <path id="path4405" d="m554.3-685.33c-10.929 6.3307-11.152 30.698 1.068 34.318 8.4946 5.5545 18.355 2.1883 12.472-8.9629 0.26276-8.5888 3.5595-26.138-10.61-21.896-1.3077-0.85713-1.9125-2.338-2.9308-3.4598z" fill="#291f27"/>
   <path id="path4409" d="m549.41-675.89c6.5507 3.8634 24.213-12.15 9.8486-6.9512-2.7919 2.8127-5.1465 7.5483-9.8486 6.9512z" fill="#463548"/>
   <path id="path4411" d="m558.11-667.91c15.575-5.3869 14.962 25.063-0.92495 17.272-4.8124-4.5444 1.4712-11.754 0.92495-17.272z" fill="#493c50"/>
   <path id="path4413" d="m551.4-676.25c-2.4414 11.938 24.825 8.1764 13.037 23.267-5.8909 3.7135-10.7 2.7574-1.4336 5.1387 20.094 7.5521 13.131-19.657 9.2316-29.899-5.6582-13.684-12.53 1.951-20.835 1.4933z" fill="#735f74"/>
   <path id="path4415" d="m573.72-619.28c1.2848 11.415-11.44 26.308-19.964 12.651-10.462-5.3686 1.2358-12.924 7.7128-10.514 3.756-1.9405 8.0439-2.9024 12.251-2.1373z" fill="#735f74"/>
   <path id="path4417" d="m536.89-614.38c-6.5932 7.9005-2.6366 28.575 3.0508 30.769 7.4367-7.7936-6.9691-17.573-0.73877-25.948-0.61391-1.6799-1.535-3.2171-2.3121-4.8208z" fill="#524853"/>
   <path id="path4419" d="m541.6-618.74c9.7852 1.4085 35.057-5.8825 23.933 11.583-0.49191 12.971-20.588 30.726-26.298 11.455-1.7759-7.7264 1.0916-15.474 2.3648-23.038z" fill="#150b13"/>
   <path id="path4421" d="m544.51-620.37c-4.4973 7.4351-0.76742 24.824 3.0719 26.466 4.4095 11.882 22.53-7.835 13.109-11.165-9.2897 4.7221-16.056-0.86535-13.263-10.638-0.06308-1.907-1.0975-3.9164-2.918-4.6623z" fill="#403543"/>
   <path id="path4455" d="m1105.8-842.69c-17.398 6.9554-19.983 27.619-23.902 43.561-5.6263 18.224-8.4836 37.709-4.2021 56.531 1.7174 17.145 2.8849 36.589 16.188 49.238 14.881 4.7923 22.833-12.428 28.603-23.075 9.5414-19.843 10.39-42.911 8.7203-64.566-3.8925-20.673-8.3637-42.22-20.298-59.88-1.3783-1.2248-3.2373-2.0153-5.1099-1.8087z" fill="url(#radialGradient4023)"/>
   <path id="path4473" d="m1151.1-743.3c-13.621 6.6244-4.543 26.072-13.583 36.728-2.8192 6.2912-18.976 20.976-12.253 22.33 15.169-11.98 20.713-32.109 24.869-50.169 0.483-2.9425 0.8136-5.9108 0.9666-8.889z" fill="#3f2426"/>
   <path id="path4475" d="m1091.6-693.22c0.1371 7.1314 19.57 16.665 13.887 7.9501-5.2292-1.3358-10.122-4.0687-13.887-7.9501z" fill="#3f2426"/>
   <g id="g4576" transform="translate(0,-1500)">
    <path id="path4477" d="m1090.3 679.31c-15.165 11.692-12.131 32.791-12.714 49.665-0.0797 19.989-1.8142 41.609 8.9352 59.473 19.37 4.298 24.468-21.318 26.695-35.555 3.6061-23.671 1.7306-50.697-14.049-69.812-2.4349-2.1666-5.5484-3.7579-8.8673-3.7722z" fill="url(#radialGradient4028)"/>
    <g id="g4510" transform="matrix(.60359 0 0 .75448 820.53 138.2)">
     <path id="path4512" d="m439.91 852.23c-2.7184 5.2414-2.7184-5.2414 0 0z" fill="#291f2a"/>
     <path id="path4514" d="m439.63 852.41c-1.1192 4.1503-1.1192-4.1503 0 0z" fill="#e9e2ea"/>
    </g>
    <g id="g4516" transform="matrix(.60359 0 0 .75448 823.62 139.83)">
     <path id="path4518" d="m439.91 852.23c-2.7184 5.2414-2.7184-5.2414 0 0z" fill="#291f2a"/>
     <path id="path4520" d="m439.63 852.41c-1.1192 4.1503-1.1192-4.1503 0 0z" fill="#e9e2ea"/>
    </g>
    <g id="g4522" transform="matrix(.60359 0 0 .75448 825.8 136.75)">
     <path id="path4524" d="m439.91 852.23c-2.7184 5.2414-2.7184-5.2414 0 0z" fill="#291f2a"/>
     <path id="path4526" d="m439.63 852.41c-1.1192 4.1503-1.1192-4.1503 0 0z" fill="#e9e2ea"/>
    </g>
    <g id="g4528" transform="matrix(.60359 0 0 .75448 826.88 140.56)">
     <path id="path4530" d="m439.91 852.23c-2.7184 5.2414-2.7184-5.2414 0 0z" fill="#291f2a"/>
     <path id="path4532" d="m439.63 852.41c-1.1192 4.1503-1.1192-4.1503 0 0z" fill="#e9e2ea"/>
    </g>
    <g id="g4534" transform="matrix(.60359 0 0 .75448 829.97 137.29)">
     <path id="path4536" d="m439.91 852.23c-2.7184 5.2414-2.7184-5.2414 0 0z" fill="#291f2a"/>
     <path id="path4538" d="m439.63 852.41c-1.1192 4.1503-1.1192-4.1503 0 0z" fill="#e9e2ea"/>
    </g>
    <g id="g4540" transform="matrix(.60359 0 0 .75448 833.78 132.57)">
     <path id="path4542" d="m439.91 852.23c-2.7184 5.2414-2.7184-5.2414 0 0z" fill="#291f2a"/>
     <path id="path4544" d="m439.63 852.41c-1.1192 4.1503-1.1192-4.1503 0 0z" fill="#e9e2ea"/>
    </g>
    <g id="g4546" transform="matrix(.60359 0 0 .75448 835.96 48.385)">
     <path id="path4548" d="m439.91 852.23c-2.7184 5.2414-2.7184-5.2414 0 0z" fill="#291f2a"/>
     <path id="path4550" d="m439.63 852.41c-1.1192 4.1503-1.1192-4.1503 0 0z" fill="#e9e2ea"/>
    </g>
    <g id="g4552" transform="matrix(.60359 0 0 .75448 833.42 43.849)">
     <path id="path4554" d="m439.91 852.23c-2.7184 5.2414-2.7184-5.2414 0 0z" fill="#291f2a"/>
     <path id="path4556" d="m439.63 852.41c-1.1192 4.1503-1.1192-4.1503 0 0z" fill="#e9e2ea"/>
    </g>
    <g id="g4558" transform="matrix(.60359 0 0 .75448 838.32 54.192)">
     <path id="path4560" d="m439.91 852.23c-2.7184 5.2414-2.7184-5.2414 0 0z" fill="#291f2a"/>
     <path id="path4562" d="m439.63 852.41c-1.1192 4.1503-1.1192-4.1503 0 0z" fill="#e9e2ea"/>
    </g>
   </g>
   <path id="path4608" d="m1150.3-757.15c-9.5761-9.121-36.1-9.683-31.272-27.536 4.5212-17.757 10.212-35.214 16.953-52.251-10.221-8.9389-8.6671 15.132-14.91 19.638-3.2481 7.5526-6.7769 33.367-17.697 23.844-5.1857-9.8722-6.6325-32.453-14.988-34.662-7.5243 12.807 1.2274 27.111 3.7971 40.081 4.8893 11.664 10.476 22.74-1.4261 32.54-4.8721 7.6981-15.866 20.854-9.0214 28.942 8.1568-4.2151 14.871-28.994 24.353-19.546 3.4641 21.654 6.4792 43.465 9.8771 65.175 12.995-8.3192-1.7014-25.707 1.253-38.073 0.2638-10.665-4.9686-27.595-0.0739-34.401 10.412-0.35183 27.472 9.8655 34.121 1.6715-0.3222-1.8069-0.6444-3.6138-0.9666-5.4206z" fill="#c3c1cf"/>
   <path id="path4471" d="m1153.2-776.77c-6.34 3.517-13.407 5.5514-19.201 7.6727 0.7154 4.3242 21.863 8.8731 13.32 10.87-4.5663-3.2477-21.337-8.885-8.2128-1.9248 3.6136 4.4192 5.3699 20.166 13.111 10.153 2.6458-8.738-0.5076-17.909 0.9832-26.771z" fill="#100e0f"/>
   <path id="path4634" d="m1088.2-780.7c1.1199 15.139-8.8481 29.328-10.165 42.57 7.9298-9.2791 21.241-20.671 20.635-34.041-5.176-14.524-7.9398-29.761-12.928-44.347-1.4187-2.416-9.4299 21.031-4.4297 17.313 8.6526-5.2348 4.5274 15.033 6.8882 18.504z" fill="#fefdfd"/>
   <path id="path4610" d="m1082.3-812.26c5.7943 8.8545 2.7469 26.532 9.695 31.37 4.1803-10.687-6.4452-22.352-7.2325-33.092l-0.9913 0.36257-1.4712 1.359z" fill="#2d1b19"/>
   <path id="path4612" d="m1089.9-777.5c-4.1199 7.8078 2.3209 15.977 8.94 8.4588-1.6968-3.8848-6.483-5.182-8.94-8.4588z" fill="#2d1b19"/>
   <path id="path4614" d="m1102.1-771.33c-3.638 16.64 24.074-3.1406 6.3081-8.2637-3.2063 2.5596 1.108 9.653-6.3081 8.2637z" fill="#2d1b19"/>
   <path id="path4628" d="m1112.1-843.31c-7.8367 11.009 9.4187 13.014 2.8128 22.619-2.7997 8.9588-2.3664 22.927-12.64 23.539-2.2366 7.6652 8.9575 15.816 8.4884 3.3742 6.6903-15.826 13.381-31.653 20.071-47.479-5.7817 5.1463-12.916 0.07429-18.732-2.0527z" fill="#fefdfd"/>
   <path id="path4616" d="m1112.4-812.7c-5.0761 2.1072-10.55 21.158-2.6774 12.965 0.616-4.2615 4.4376-8.5922 2.6774-12.965z" fill="#2d1b19"/>
   <path id="path4618" d="m1089.2-732.86c-7.5341 8.5758 16.285-1.5675 1.458 0.31414l-0.738-0.15903-1e-4 -2e-5 -0.7199-0.15509z" fill="#2d1b19"/>
   <path id="path4620" d="m1094.1-737.76c6.851 6.9215 8.8081 26.593 10.087 29.329 0.2331-11.508 2.4312-24.27-10.087-29.329z" fill="#2d1b19"/>
   <path id="path4622" d="m1087.2-763.17c4.6198 8.0121-8.5645 16.321-7.099 21.818 2.2458-7.029 13.983-13.943 7.099-21.818z" fill="#2d1b19"/>
   <path id="path4624" d="m1125.8-836.65c11.101-7.2854-5.0058 17.177-5.2926 22.714-3.0777 6.9188-9.921 25.838-10.876 25.622 4.2595-14.816 10.946-28.898 16.592-43.146 0.643-1.3826 2.455-4.8505-0.4232-5.1894z" fill="#2d1b19"/>
   <path id="path4626" d="m1117-773.69c7.527 5.0391 25.714 12.527 26.426 16.011-9.1119-4.6258-19.374-8.314-26.426-16.011z" fill="#2d1b19"/>
   <path id="path4630" d="m1114.7-752.99c10.048 4.1811 33.858 2.4973 35.159 10.942-6.8549 3.4972-17.155 1.1652-17.465-4.4508-5.6817-2.0983-14.562-0.10975-17.694-6.4917z" fill="#fefdfd"/>
   <path id="path4632" d="m1094.4-739.13c12.998 7.2633 10.384 21.551 11.52 34.001 2.6075 8.1344-12.116 18.689 2.0242 19.337 12.012-7.2743-0.4342-21.247 1.2679-32.053-1.4185-9.5312-0.9545-25.627-7.8642-29.841-2.5542 2.6584-4.1407 6.1217-6.9474 8.5563z" fill="#fefdfd"/>
   <g id="g4650" transform="translate(0,-1500)">
    <path id="path4652" d="m1104.9 745.28c-3.8305 19.903-15.001-16.764-0.5748-3.7077l0.4271 1.8412 0.1477 1.8665z" fill="#808080"/>
    <path id="path4654" d="m1104.1 744.9c-0.7006 15.81-12.932-9.7103-1.0706-4.659l0.825 2.2598 0.2456 2.3992z" fill="#d8d7d7"/>
    <path id="path4656" d="m1102.4 744.91c-4.62 14.657-5.0092-13.862 0 0z" fill="#eaeaea"/>
    <path id="path4658" d="m1103.7 745c-3.2291 14.573-4.7779-14.198 0 0z" fill="#7f7f7f"/>
   </g>
   <g id="g4660" transform="translate(9.6164 -1487.3)">
    <path id="path4662" d="m1104.9 745.28c-3.8305 19.903-15.001-16.764-0.5748-3.7077l0.4271 1.8412 0.1477 1.8665z" fill="#808080"/>
    <path id="path4664" d="m1104.1 744.9c-0.7006 15.81-12.932-9.7103-1.0706-4.659l0.825 2.2598 0.2456 2.3992z" fill="#d8d7d7"/>
    <path id="path4666" d="m1102.4 744.91c-4.62 14.657-5.0092-13.862 0 0z" fill="#eaeaea"/>
    <path id="path4668" d="m1103.7 745c-3.2291 14.573-4.7779-14.198 0 0z" fill="#7f7f7f"/>
   </g>
   <g id="g4690" transform="translate(18.87 -1506.1)">
    <path id="path4692" d="m1104.9 745.28c-3.8305 19.903-15.001-16.764-0.5748-3.7077l0.4271 1.8412 0.1477 1.8665z" fill="#808080"/>
    <path id="path4694" d="m1104.1 744.9c-0.7006 15.81-12.932-9.7103-1.0706-4.659l0.825 2.2598 0.2456 2.3992z" fill="#d8d7d7"/>
    <path id="path4696" d="m1102.4 744.91c-4.62 14.657-5.0092-13.862 0 0z" fill="#eaeaea"/>
    <path id="path4698" d="m1103.7 745c-3.2291 14.573-4.7779-14.198 0 0z" fill="#7f7f7f"/>
   </g>
   <g id="g4680" transform="translate(13.245 -1528.1)">
    <path id="path4682" d="m1104.9 745.28c-3.8305 19.903-15.001-16.764-0.5748-3.7077l0.4271 1.8412 0.1477 1.8665z" fill="#808080"/>
    <path id="path4684" d="m1104.1 744.9c-0.7006 15.81-12.932-9.7103-1.0706-4.659l0.825 2.2598 0.2456 2.3992z" fill="#d8d7d7"/>
    <path id="path4686" d="m1102.4 744.91c-4.62 14.657-5.0092-13.862 0 0z" fill="#eaeaea"/>
    <path id="path4688" d="m1103.7 745c-3.2291 14.573-4.7779-14.198 0 0z" fill="#7f7f7f"/>
   </g>
   <g id="g4644" transform="translate(1.9959 -1524.7)">
    <path id="path4636" d="m1104.9 745.28c-3.8305 19.903-15.001-16.764-0.5748-3.7077l0.4271 1.8412 0.1477 1.8665z" fill="#808080"/>
    <path id="path4638" d="m1104.1 744.9c-0.7006 15.81-12.932-9.7103-1.0706-4.659l0.825 2.2598 0.2456 2.3992z" fill="#d8d7d7"/>
    <path id="path4640" d="m1102.4 744.91c-4.62 14.657-5.0092-13.862 0 0z" fill="#eaeaea"/>
    <path id="path4642" d="m1103.7 745c-3.2291 14.573-4.7779-14.198 0 0z" fill="#7f7f7f"/>
   </g>
   <g id="g4719" transform="translate(.18144 -1500.4)">
    <path id="path4721" d="m510.04 840.89c0.49239 19.644-27.674-0.58975-10.447-9.0644 5.4587-2.8146 11.431 3.7114 10.447 9.0644z" fill="#634c56"/>
    <path id="path4723" d="m508.22 842.43c-4.5616 19.525-20.107-14.106-1.9121-5.24 1.2836 1.412 1.9838 3.3333 1.9121 5.24z" fill="#fff2ff"/>
    <path id="path4725" d="m506.77 842.43c-5.7814 17.183-11.839-17.399 0 0z" fill="#6f5f6c"/>
    <path id="path4727" d="m505.5 841.89c-4.9721 10.9-5.9933-10.01 0 0z" fill="#13140f"/>
    <path id="path4729" d="m506.04 843.52c-5.1227 10.868-6.1755-10.04 0 0z" fill="#f5e8f2"/>
   </g>
   <g id="g4731" transform="matrix(.99698 .077717 -.077717 .99698 92.818 -1543.1)">
    <path id="path4733" d="m510.04 840.89c0.49239 19.644-27.674-0.58975-10.447-9.0644 5.4587-2.8146 11.431 3.7114 10.447 9.0644z" fill="#634c56"/>
    <path id="path4735" d="m508.22 842.43c-4.5616 19.525-20.107-14.106-1.9121-5.24 1.2836 1.412 1.9838 3.3333 1.9121 5.24z" fill="#fff2ff"/>
    <path id="path4737" d="m506.77 842.43c-5.7814 17.183-11.839-17.399 0 0z" fill="#6f5f6c"/>
    <path id="path4739" d="m505.5 841.89c-4.9721 10.9-5.9933-10.01 0 0z" fill="#13140f"/>
    <path id="path4741" d="m506.04 843.52c-5.1227 10.868-6.1755-10.04 0 0z" fill="#f5e8f2"/>
   </g>
   <g id="g4743" transform="matrix(.80239 .5968 -.5968 .80239 638.02 -1611.9)">
    <path id="path4745" d="m510.04 840.89c0.49239 19.644-27.674-0.58975-10.447-9.0644 5.4587-2.8146 11.431 3.7114 10.447 9.0644z" fill="#634c56"/>
    <path id="path4747" d="m508.22 842.43c-4.5616 19.525-20.107-14.106-1.9121-5.24 1.2836 1.412 1.9838 3.3333 1.9121 5.24z" fill="#fff2ff"/>
    <path id="path4749" d="m506.77 842.43c-5.7814 17.183-11.839-17.399 0 0z" fill="#6f5f6c"/>
    <path id="path4751" d="m505.5 841.89c-4.9721 10.9-5.9933-10.01 0 0z" fill="#13140f"/>
    <path id="path4753" d="m506.04 843.52c-5.1227 10.868-6.1755-10.04 0 0z" fill="#f5e8f2"/>
   </g>
   <g id="g4755" transform="translate(19.233 -1452.3)">
    <path id="path4757" d="m510.04 840.89c0.49239 19.644-27.674-0.58975-10.447-9.0644 5.4587-2.8146 11.431 3.7114 10.447 9.0644z" fill="#634c56"/>
    <path id="path4759" d="m508.22 842.43c-4.5616 19.525-20.107-14.106-1.9121-5.24 1.2836 1.412 1.9838 3.3333 1.9121 5.24z" fill="#fff2ff"/>
    <path id="path4761" d="m506.77 842.43c-5.7814 17.183-11.839-17.399 0 0z" fill="#6f5f6c"/>
    <path id="path4763" d="m505.5 841.89c-4.9721 10.9-5.9933-10.01 0 0z" fill="#13140f"/>
    <path id="path4765" d="m506.04 843.52c-5.1227 10.868-6.1755-10.04 0 0z" fill="#f5e8f2"/>
   </g>
   <g id="g4712" transform="matrix(.8428 .53823 -.53823 .8428 527.8 -1604.1)">
    <path id="path4700" d="m510.04 840.89c0.49239 19.644-27.674-0.58975-10.447-9.0644 5.4587-2.8146 11.431 3.7114 10.447 9.0644z" fill="#634c56"/>
    <path id="path4704" d="m508.22 842.43c-4.5616 19.525-20.107-14.106-1.9121-5.24 1.2836 1.412 1.9838 3.3333 1.9121 5.24z" fill="#fff2ff"/>
    <path id="path4706" d="m506.77 842.43c-5.7814 17.183-11.839-17.399 0 0z" fill="#6f5f6c"/>
    <path id="path4708" d="m505.5 841.89c-4.9721 10.9-5.9933-10.01 0 0z" fill="#13140f"/>
    <path id="path4710" d="m506.04 843.52c-5.1227 10.868-6.1755-10.04 0 0z" fill="#f5e8f2"/>
   </g>
   <g id="g4280" transform="translate(-1608.5 28.126)">
    <path id="path3477" d="m1567.4-778.78c-9.0697 8.1375 5.736 12.62 6.1401 15.365-2.5742 16.767 12.784-4.23 21.389-0.14691 7.1203 1.7425 31.259-6.5802 19.24-12.802-9.434 0.72825-23.505 2.1625-29.627 2.6587-4.5109-4.418-11.832-2.2983-17.142-5.0747z" fill="#fff"/>
    <path id="path3480" d="m1591.3-774.39c-11.574 6.1177-2.7229 9.3809 5.2073 6.1619 7.2527-0.01059 27.783-9.4085 9.5992-6.9344-4.9354 0.25751-9.8711 0.51501-14.806 0.77251z" fill="#ff2a2a"/>
    <path id="path3482" d="m1619.7-773.51c-12.898 9.9863-31.953 4.4142-43.947 15.821" fill="none" stroke="#000" stroke-width="1.5"/>
    <path id="path4256" d="m1566.9-778.56c-11.188 13.8 24.035 16.501 14.034 3.0097-4.4605-1.9329-9.6937-0.72513-14.034-3.0097z" fill="#8d8d8d"/>
    <path id="path4258" d="m1581.6-766.04c-2.3438 1.8312-4.6877 3.6623-7.0316 5.4934" fill="#b3b3b3" stroke="#000" stroke-width="1.5"/>
    <path id="path4262" d="m1586.7-769.11c7.6098-6.2392 9.3136 3.8312 0 0z" fill="#ffd42a"/>
    <path id="path4260" d="m1602.6-771.02c4.7334-8.6275 10.071 0.08076 0 0z" fill="#ffd42a"/>
    <path id="path4266" d="m1566.5-772.3c-1.6642 5.7362 6.8153-1.602 0 0z"/>
    <path id="path4268" d="m1570.9-770.65c-1.6643 5.7361 6.8153-1.6019 0 0z"/>
    <path id="path4270" d="m1576.9-769.22c-1.6642 5.7362 6.8153-1.6021 0 0z"/>
    <path id="path4272" d="m1574.8-772.08c-1.6644 5.7361 6.8154-1.6019 0 0z"/>
    <path id="path4274" d="m1569.9-773.73c-1.6646 5.7361 6.8154-1.6018 0 0z"/>
    <path id="path4276" d="m1567.9-777.14c-1.6645 5.7361 6.8153-1.6018 0 0z"/>
    <path id="path4278" d="m1573.9-775.27c-1.6643 5.7361 6.8153-1.6018 0 0z"/>
    <path id="path4264" d="m1578.4-774.06c-1.6644 5.7362 6.8154-1.6019 0 0z"/>
   </g>
  </g>
 </g>
</svg>
