<?xml version="1.0" encoding="UTF-8"?>
<!-- Created with Inkscape (http://www.inkscape.org/) -->
<svg id="svg2" width="943.1" height="619.35" version="1.1" xmlns="http://www.w3.org/2000/svg" xmlns:cc="http://creativecommons.org/ns#" xmlns:dc="http://purl.org/dc/elements/1.1/" xmlns:rdf="http://www.w3.org/1999/02/22-rdf-syntax-ns#" xmlns:xlink="http://www.w3.org/1999/xlink">
 <defs id="defs4">
  <linearGradient id="linearGradient4361">
   <stop id="stop4363" stop-color="#323639" offset="0"/>
   <stop id="stop4365" stop-color="#323639" stop-opacity="0" offset="1"/>
  </linearGradient>
  <linearGradient id="linearGradient4263">
   <stop id="stop4265" stop-color="#8e959d" offset="0"/>
   <stop id="stop4267" stop-color="#8e959d" stop-opacity="0" offset="1"/>
  </linearGradient>
  <linearGradient id="linearGradient4219">
   <stop id="stop4221" stop-color="#1a1a1a" offset="0"/>
   <stop id="stop4223" stop-color="#1a1a1a" stop-opacity="0" offset="1"/>
  </linearGradient>
  <linearGradient id="linearGradient4187">
   <stop id="stop4189" stop-color="#63747c" offset="0"/>
   <stop id="stop4191" stop-color="#63747c" stop-opacity="0" offset="1"/>
  </linearGradient>
  <linearGradient id="linearGradient4175">
   <stop id="stop4177" stop-color="#d3d3d3" offset="0"/>
   <stop id="stop4183" stop-color="#f0f1f3" offset=".28374"/>
   <stop id="stop4185" stop-color="#f8f8f9" offset=".59552"/>
   <stop id="stop4179" stop-color="#c1c4cd" offset="1"/>
  </linearGradient>
  <linearGradient id="linearGradient4181" x1="190.02" x2="186.83" y1="525.36" y2="417.99" gradientTransform="translate(-4.562 825.72)" gradientUnits="userSpaceOnUse" xlink:href="#linearGradient4175"/>
  <linearGradient id="linearGradient4233" x1="47.081" x2="28.726" y1="591.48" y2="549.54" gradientTransform="translate(-4.562 825.72)" gradientUnits="userSpaceOnUse" xlink:href="#linearGradient4175"/>
  <linearGradient id="linearGradient4241" x1="306.76" x2="210.98" y1="305.18" y2="251.96" gradientTransform="translate(-4.562 825.72)" gradientUnits="userSpaceOnUse" xlink:href="#linearGradient4175"/>
  <linearGradient id="linearGradient4243" x1="453.45" x2="498.89" y1="447.83" y2="447.83" gradientUnits="userSpaceOnUse" xlink:href="#linearGradient4187"/>
  <linearGradient id="linearGradient4245" x1="453.45" x2="498.89" y1="447.83" y2="447.83" gradientUnits="userSpaceOnUse" xlink:href="#linearGradient4219"/>
  <linearGradient id="linearGradient4269" x1="88.18" x2="68.572" y1="1393" y2="1321.2" gradientUnits="userSpaceOnUse" xlink:href="#linearGradient4263"/>
  <linearGradient id="linearGradient4277" x1="293.02" x2="257.53" y1="1146.2" y2="1134.1" gradientUnits="userSpaceOnUse" xlink:href="#linearGradient4263"/>
  <linearGradient id="linearGradient4285" x1="-366.35" x2="-116.16" y1="1201.9" y2="1201.9" gradientUnits="userSpaceOnUse" xlink:href="#linearGradient4175"/>
  <linearGradient id="linearGradient4293" x1="-394.58" x2="-193.58" y1="1335.7" y2="1335.7" gradientUnits="userSpaceOnUse" xlink:href="#linearGradient4175"/>
  <linearGradient id="linearGradient4301" x1="-203.45" x2="-150.84" y1="1222" y2="1222" gradientUnits="userSpaceOnUse" xlink:href="#linearGradient4175"/>
  <filter id="filter4329" color-interpolation-filters="sRGB">
   <feGaussianBlur id="feGaussianBlur4331" stdDeviation="2.2920185"/>
  </filter>
  <linearGradient id="linearGradient4339" x1="-184.9" x2="-158.9" y1="1222.4" y2="1222.4" gradientUnits="userSpaceOnUse" xlink:href="#linearGradient4263"/>
  <linearGradient id="linearGradient4349" x1="-356.97" x2="-224.11" y1="1329.5" y2="1329.5" gradientUnits="userSpaceOnUse" xlink:href="#linearGradient4263"/>
  <linearGradient id="linearGradient4367" x1="167.51" x2="214.56" y1="611.53" y2="611.53" gradientUnits="userSpaceOnUse" xlink:href="#linearGradient4361"/>
  <linearGradient id="linearGradient4375" x1="77.924" x2="196.2" y1="1433.1" y2="1433.1" gradientUnits="userSpaceOnUse" xlink:href="#linearGradient4175"/>
  <linearGradient id="linearGradient4405" x1="74.092" x2="133.4" y1="1409.5" y2="1409.5" gradientUnits="userSpaceOnUse" xlink:href="#linearGradient4175"/>
  <linearGradient id="linearGradient4442" x1="77.924" x2="196.2" y1="1433.1" y2="1433.1" gradientTransform="translate(320.48 -279.42)" gradientUnits="userSpaceOnUse" xlink:href="#linearGradient4175"/>
  <linearGradient id="linearGradient4446" x1="74.092" x2="133.4" y1="1409.5" y2="1409.5" gradientTransform="translate(320.48 -279.42)" gradientUnits="userSpaceOnUse" xlink:href="#linearGradient4175"/>
  <filter id="filter4476" color-interpolation-filters="sRGB">
   <feGaussianBlur id="feGaussianBlur4478" stdDeviation="2.0241936"/>
  </filter>
  <filter id="filter4520" color-interpolation-filters="sRGB">
   <feGaussianBlur id="feGaussianBlur4522" stdDeviation="1.0041284"/>
  </filter>
  <filter id="filter4526" color-interpolation-filters="sRGB">
   <feGaussianBlur id="feGaussianBlur4528" stdDeviation="0.60863013"/>
  </filter>
  <filter id="filter4530" color-interpolation-filters="sRGB">
   <feGaussianBlur id="feGaussianBlur4532" stdDeviation="0.4475806"/>
  </filter>
  <linearGradient id="linearGradient4542" x1="291.44" x2="311.13" y1="947.44" y2="987.35" gradientUnits="userSpaceOnUse" xlink:href="#linearGradient4175"/>
  <linearGradient id="linearGradient4552" x1="-414.44" x2="-355.14" y1="1548.4" y2="1556.1" gradientUnits="userSpaceOnUse" xlink:href="#linearGradient4175"/>
  <filter id="filter4601" color-interpolation-filters="sRGB">
   <feGaussianBlur id="feGaussianBlur4603" stdDeviation="1.1499091"/>
  </filter>
  <filter id="filter4611" color-interpolation-filters="sRGB">
   <feGaussianBlur id="feGaussianBlur4613" stdDeviation="1.289735"/>
  </filter>
  <filter id="filter4617" color-interpolation-filters="sRGB">
   <feGaussianBlur id="feGaussianBlur4619" stdDeviation="2.0322583"/>
  </filter>
 </defs>
 <metadata id="metadata7">
  <rdf:RDF>
   <cc:Work rdf:about="">
    <dc:format>image/svg+xml</dc:format>
    <dc:type rdf:resource="http://purl.org/dc/dcmitype/StillImage"/>
    <dc:title/>
   </cc:Work>
  </rdf:RDF>
 </metadata>
 <g id="layer1" transform="translate(68.736 -162.8)">
  <g id="g4897" transform="translate(348.39 -777.42)">
   <path id="path4605" d="m-245.3 1298.2-146.77 74.194 15.323 0.8064 54.032-19.355 50-19.355 58.871-25.806s6.4307-2.2514 2.4194-8.0645-33.871-2.4194-33.871-2.4194z" filter="url(#filter4611)"/>
   <path id="path3359" d="m298.66 986.95-10.484-45.161 41.935 47.581-31.452-2.4194z" filter="url(#filter4530)" stroke="#000" stroke-width="1px"/>
   <path id="path4524" d="m-161.01 1256.3s4.7226-19.346 6.4516-28.226 4.0497-18.327 4.0323-25c-0.0175-6.6732 1.942-10.669-2.4194-14.516s-20.161-0.8065-20.161-0.8065l-29.032 54.032 41.129 14.516z" filter="url(#filter4526)"/>
   <path id="path4482" d="m357.99 1184c-4.4728-0.022-9.1458 0.3544-15.969 1.2188-1.5361 0-3.0472 0.2216-4.5 0.6562-5.2711 0.8802-11.695 2.3017-17.781 3.875l-34.094-0.5312-2.5625 4.875 6.8438 11.375 2.625-1.6876c-1.3856 2.0688-2.4413 4.3533-3.3438 6.9376-0.47829 1.3696-0.84034 2.7799-1.125 4.1874l-10.344 3.9376 9.5312 6.375c0.0339 1.5051 0.10997 3.001 0.21875 4.4374 0.96109 7.9612 2.4666 12.511 10.5 18.531s25.036 7.5247 37.906 8.875 29.146 0.9075 38.719-0.8125 11.567-0.5672 18.531-6.4375 12.015-19.297 11.531-30.938-5.7544-23.079-13.938-28.75-15.95-4.8079-24.219-5.625c-3.1009-0.3064-5.7792-0.4863-8.5312-0.5z" filter="url(#filter4520)"/>
   <g id="g4431" transform="translate(-115.19 67.289)">
    <path id="path4407" d="m403.44 1146.1-14.228 5.4257 16.376 10.944-2.1486-16.37z"/>
    <path id="path4409" d="m398.98 1162.4c0.96109 7.9612 2.4504 12.528 10.484 18.548s25.033 7.5207 37.903 8.871 29.137 0.9135 38.71-0.8065 11.584-0.5813 18.548-6.4516 12.002-19.289 11.518-30.93-5.7544-23.076-13.937-28.747-15.924-4.8281-24.194-5.6452-13.62-0.6518-25 0.8065-32.843 6.7171-39.891 10.533-10.192 8.4606-12.44 14.899c-2.1665 6.2041-2.1549 12.938-1.7017 18.923z" fill="url(#linearGradient4442)"/>
    <path id="path4411" transform="matrix(1.0431 0 0 .93426 294.27 581.76)" d="m211.28 611.53c0 18.09-9.0634 32.755-20.244 32.755s-20.244-14.665-20.244-32.755c0-18.09 9.0634-32.755 20.244-32.755s20.244 14.665 20.244 32.755z" fill="none" stroke="#6e7a8a" stroke-width="6.5576"/>
    <path id="path4413" transform="matrix(.99978 0 0 1.0685 303.4 503.48)" d="m150.12 641.5c-12.834 1e-5 -23.238-14.872-23.238-33.217 0-18.345 10.404-33.217 23.238-33.217v0" fill="none" stroke="#e6e6e6" stroke-linecap="round" stroke-linejoin="round" stroke-width="1.6544"/>
    <path id="path4415" transform="matrix(.45764 0 0 .68168 397.14 736.49)" d="m211.28 611.53c0 18.09-9.0634 32.755-20.244 32.755s-20.244-14.665-20.244-32.755c0-18.09 9.0634-32.755 20.244-32.755s20.244 14.665 20.244 32.755z" fill="#323639" stroke="#323639" stroke-width="6.5576"/>
    <path id="path4417" transform="matrix(.99978 0 0 1.0685 325.36 503.48)" d="m150.12 641.5c-12.834 1e-5 -23.238-14.872-23.238-33.217 0-18.345 10.404-33.217 23.238-33.217v0" fill="none" stroke="#e6e6e6" stroke-linecap="round" stroke-linejoin="round" stroke-width="1.6544"/>
    <path id="path4419" transform="matrix(-.90331 0 0 .87718 665.76 616.49)" d="m211.28 611.53c0 18.09-9.0634 32.755-20.244 32.755s-20.244-14.665-20.244-32.755c0-18.09 9.0634-32.755 20.244-32.755s20.244 14.665 20.244 32.755z" fill="url(#linearGradient4367)"/>
    <path id="path4421" d="m474.45 1146.5 9.6942 5.7025-10.264 5.1322 0.57025-10.835z" fill="#999"/>
    <path id="path4423" d="m397.14 1122 56.74 0.8554-21.955 3.1364-17.678 3.9917-12.831 8.2686-6.843-11.405 2.5661-4.8472z" fill="url(#linearGradient4446)" stroke="#ccc"/>
   </g>
   <path id="path4474" d="m181.73 1243.4s16.876-21.819 28.226-41.936c11.35-20.116 25.268-53.086 37.097-79.839s25.621-58.091 33.871-80.645c8.2503-22.554 16.935-54.032 16.935-54.032l16.935-0.80645 14.516 2.4194s-4.834 45.027-7.2581 66.129c-2.4241 21.102-4.5383 41.666-7.2581 60.484s-5.6214 35.886-8.871 52.419c-3.2495 16.534-7.6323 34.549-10.484 46.774s-6.4516 26.613-6.4516 26.613l-107.26 2.4193z" filter="url(#filter4476)"/>
   <path id="path4303" d="m-131.17 1262 314.52-16.936 108.87-6.4516 97.581-3.2258s24.906-0.1648 37.097 2.0161c15.233 2.7254 30.004 7.9193 44.355 13.71 7.7483 3.1264 15.195 7.0249 22.379 11.29 5.8988 3.5022 12.162 6.7666 16.935 11.694 4.2286 4.3645 9.3821 9.5855 9.879 15.322 0.4969 5.737-3.9317 10.197-8.6694 15.726-4.7377 5.5286-13.253 10.569-20.766 14.718-7.5134 4.1489-23.79 9.879-23.79 9.879s-22.158 6.6346-31.452 8.871-11.841 3.1114-24.194 4.8387-30.907 3.1441-50 4.0323c-25.26 1.3327-12.88-0.5704-75.806 1.6129s-290.72 13.589-301.61 12.903-25.316-1.5366-40.927-4.0323c-15.611-2.4956-72.73-17.064-94.758-22.782s-20.324-5.3574-38.508-10.887-63.177-22.372-68.347-24.597-11.15-4.711-11.29-10.081c-0.1407-5.3697 4.9765-6.6183 12.903-9.4758 7.9267-2.8576 125.6-18.145 125.6-18.145z" fill="#1a1a1a" filter="url(#filter4329)"/>
   <path id="path3345" d="m-131.17 1262 314.52-16.936 108.87-6.4516 97.581-3.2258s24.906-0.1648 37.097 2.0161c15.233 2.7254 30.004 7.9193 44.355 13.71 7.7483 3.1264 15.195 7.0249 22.379 11.29 5.8988 3.5022 12.162 6.7666 16.935 11.694 4.2286 4.3645 9.3821 9.5855 9.879 15.322 0.4969 5.737-3.9317 10.197-8.6694 15.726-4.7377 5.5286-13.253 10.569-20.766 14.718-7.5134 4.1489-23.79 9.879-23.79 9.879s-22.158 6.6346-31.452 8.871-11.841 3.1114-24.194 4.8387-30.907 3.1441-50 4.0323c-25.26 1.3327-12.88-0.5704-75.806 1.6129s-290.72 13.589-301.61 12.903-25.316-1.5366-40.927-4.0323c-15.611-2.4956-72.73-17.064-94.758-22.782s-20.324-5.3574-38.508-10.887-63.177-22.372-68.347-24.597-11.15-4.711-11.29-10.081c-0.1407-5.3697 4.9765-6.6183 12.903-9.4758 7.9267-2.8576 125.6-18.145 125.6-18.145z" fill="url(#linearGradient4181)"/>
   <path id="path3347" d="m181.73 1243.4s16.876-21.819 28.226-41.936c11.35-20.116 25.268-53.086 37.097-79.839s25.621-58.091 33.871-80.645c8.2503-22.554 16.935-54.032 16.935-54.032l-8.4677-43.548 39.919 45.161s-4.834 45.027-7.2581 66.129c-2.4241 21.102-4.5383 41.666-7.2581 60.484s-5.6214 35.886-8.871 52.419c-3.2495 16.534-7.6323 34.549-10.484 46.774s-6.4516 26.613-6.4516 26.613l-107.26 2.4193z" fill="url(#linearGradient4241)"/>
   <path id="path3349" d="m205.12 1241.8c25.187-34.365 42.42-71.343 58.871-110.48 13.396-34.974 30.582-86.752 38.71-131.45l16.935-7.2581c-6.6507 54.264-9.987 99.719-21.244 146.46-11.387 47.284-22.954 74.541-31.175 104.34l-62.097-1.6129z" fill="url(#linearGradient4277)"/>
   <path id="path3363" d="m-247.3 1298.2-146.77 74.194 15.323 0.8064 54.032-19.355 50-19.355 58.871-25.806s6.4307-2.2514 2.4194-8.0645-33.871-2.4194-33.871-2.4194z" fill="url(#linearGradient4293)"/>
   <path id="path3365" d="m-161.82 1256.3s4.7226-19.346 6.4516-28.226 4.0497-18.327 4.0323-25c-0.0175-6.6732 1.942-10.669-2.4194-14.516s-20.161-0.8065-20.161-0.8065l-29.032 54.032 41.129 14.516z" fill="url(#linearGradient4301)"/>
   <path id="path4615" d="m-138.43 1264.8-16.129-10.887-181.45-130.65-29.032 3.2258 120.97 152.02 105.65-13.71z" filter="url(#filter4617)"/>
   <path id="path3367" d="m-159.4 1199.9h-7.2581l-17.742 42.742 10.484 2.4193 14.516-45.161z" fill="url(#linearGradient4339)"/>
   <path id="path3369" d="m-116.66 1266.8-38.71-12.903-181.45-130.65-29.032 3.2258 120.16 154.03 129.03-13.71z" fill="url(#linearGradient4285)"/>
   <g id="g3386" transform="translate(-4.562 825.72)" fill="url(#linearGradient4243)" stroke="url(#linearGradient4245)" stroke-width="1px">
    <path id="path3379" d="m498.39 437.44-9.2742-5.2419-3.2258 6.8548-14.919 7.6613-13.71 4.8387s-4.6477 7.801-2.9234 10.282c1.7243 2.4813 4.9769 1.5122 9.375 1.0081s14.516-6.4516 14.516-6.4516l16.935-8.4677 3.2258-10.484z"/>
    <path id="path3381" d="m469.25 447.22 9.2742 9.375"/>
    <path id="path3383" d="m485.58 439.46 9.9798 8.1653"/>
   </g>
   <path id="path4341" d="m-237.79 1299.3 13.686 2.281-132.87 58.165 119.18-60.446z" fill="url(#linearGradient4349)"/>
   <path id="path4556" d="m151.8 1397.3c-4.4719-0.022-9.148 0.3548-15.969 1.2188-1.5361 0-3.0472 0.2217-4.5 0.6562-5.2727 0.8802-11.692 2.3009-17.781 3.875l-34.094-0.5312-0.25 0.5-0.03125-0.094-36.781 17.969 27.938 4.5625 6.8438-3.6875 6.4375-3.1875 0.125 0.1875 2.625-1.6875c-1.3856 2.0687-2.4413 4.3533-3.3438 6.9375-0.47829 1.3697-0.84034 2.7799-1.125 4.1875l-10.344 3.9375 9.5312 6.375c0.03388 1.5051 0.10997 3.001 0.21875 4.4375 0.96109 7.9612 2.4666 12.511 10.5 18.531 8.0334 6.0204 25.036 7.5246 37.906 8.875 12.87 1.3503 29.115 0.9075 38.688-0.8126 9.5728-1.72 11.598-0.5671 18.562-6.4374 6.9647-5.8704 12.015-19.297 11.531-30.938-0.48421-11.641-5.7544-23.079-13.938-28.75-8.1831-5.6709-15.95-4.8079-24.219-5.625-3.1009-0.3064-5.7792-0.4862-8.5312-0.5z" filter="url(#filter4601)"/>
   <path id="path3355" d="m-359.4 1553.9-57.722-5.8278 73.851 11.473 135.48-41.935 116.13-44.355 92.742-36.29 75.806-34.677 47.581-17.742 45.968-16.935 50-14.516 23.387-5.6451s-13.807-9.3045-26.613-12.903-29.318-5.8832-50-4.8387-58.104 7.9776-72.581 14.516c-14.477 6.5386-16.935 12.903-16.935 12.903l-171.77 85.484-64.516 31.452-59.677 25.806-75.806 29.839-65.323 24.194z" fill="url(#linearGradient4233)"/>
   <g id="g4462">
    <path id="path4379" d="m82.957 1425.6-14.228 5.4257 16.376 10.944-2.1486-16.37z"/>
    <path id="path3373" d="m78.503 1441.8c0.9611 7.9612 2.4504 12.528 10.484 18.548s25.033 7.5207 37.903 8.871 29.137 0.9135 38.71-0.8065 11.584-0.5813 18.548-6.4516 12.002-19.289 11.518-30.93-5.7544-23.076-13.937-28.747-15.924-4.8281-24.194-5.6452-13.62-0.6518-25 0.8065-32.843 6.7171-39.891 10.533-10.192 8.4606-12.44 14.899c-2.1665 6.2041-2.1549 12.938-1.7017 18.923z" fill="url(#linearGradient4375)"/>
    <path id="path4351" transform="matrix(1.0431 0 0 .93426 -26.205 861.18)" d="m211.28 611.53c0 18.09-9.0634 32.755-20.244 32.755s-20.244-14.665-20.244-32.755c0-18.09 9.0634-32.755 20.244-32.755s20.244 14.665 20.244 32.755z" fill="none" stroke="#6e7a8a" stroke-width="6.5576"/>
    <path id="path4353" transform="matrix(.99978 0 0 1.0685 -17.075 782.9)" d="m150.12 641.5c-12.834 1e-5 -23.238-14.872-23.238-33.217 0-18.345 10.404-33.217 23.238-33.217v0" fill="none" stroke="#e6e6e6" stroke-linecap="round" stroke-linejoin="round" stroke-width="1.6544"/>
    <path id="path4357" transform="matrix(.45764 0 0 .68168 76.664 1015.9)" d="m211.28 611.53c0 18.09-9.0634 32.755-20.244 32.755s-20.244-14.665-20.244-32.755c0-18.09 9.0634-32.755 20.244-32.755s20.244 14.665 20.244 32.755z" fill="#323639" stroke="#323639" stroke-width="6.5576"/>
    <path id="path4355" transform="matrix(.99978 0 0 1.0685 4.8796 782.9)" d="m150.12 641.5c-12.834 1e-5 -23.238-14.872-23.238-33.217 0-18.345 10.404-33.217 23.238-33.217v0" fill="none" stroke="#e6e6e6" stroke-linecap="round" stroke-linejoin="round" stroke-width="1.6544"/>
    <path id="path4359" transform="matrix(-.90331 0 0 .87718 345.28 895.91)" d="m211.28 611.53c0 18.09-9.0634 32.755-20.244 32.755s-20.244-14.665-20.244-32.755c0-18.09 9.0634-32.755 20.244-32.755s20.244 14.665 20.244 32.755z" fill="url(#linearGradient4367)"/>
    <path id="path4377" d="m153.97 1425.9 9.6942 5.7025-10.264 5.1322 0.57025-10.835z" fill="#999"/>
    <path id="path4383" d="m39.586 1419.7 36.781-17.963 4.8471 15.468-6.843 3.3502-6.843 3.7066-27.942-4.562z" fill="#5e6168"/>
    <path id="path4389" d="m76.658 1401.4 56.74 0.8554-21.955 3.1364-17.678 3.9917-12.831 8.2686-6.843-11.405 2.5661-4.8472z" fill="url(#linearGradient4405)" stroke="#ccc"/>
   </g>
   <path id="path3351" d="m98.664 1348.2 40.323-8.0645 49.194-5.6452-29.032 17.742s-169.18 80.202-256.05 114.92c-80.054 31.992-146.63 53.104-243.95 85.887l-4.0323-2.4193c82.868-29.945 180.24-68.429 244.35-97.177 68.138-31.006 136.09-64.821 199.19-105.24z" fill="url(#linearGradient4269)"/>
   <path id="path4534" d="m298.66 986.95-10.484-45.161 41.935 47.581-31.452-2.4194z" fill="url(#linearGradient4542)" filter="url(#filter4530)"/>
   <path id="path4544" d="m-359.43 1553.9 15.978 5.6451-72.984-11.441 57.006 5.7963z" fill="url(#linearGradient4552)"/>
   <g id="g4779" transform="translate(0 831.16)" fill="#535d6c">
    <rect id="rect4623" transform="matrix(.9832 -.18253 .18253 .9832 0 0)" x="-35.319" y="487.24" width="4.6902" height="7.9877" rx="2" ry="2"/>
    <rect id="rect4625" transform="matrix(.9832 -.18253 .18253 .9832 0 0)" x="99.351" y="507.24" width="4.6902" height="7.9877" rx="2" ry="2"/>
    <rect id="rect4627" transform="matrix(.9832 -.18253 .18253 .9832 0 0)" x="-29.198" y="488.15" width="4.6902" height="7.9877" rx="2" ry="2"/>
    <rect id="rect4629" transform="matrix(.9832 -.18253 .18253 .9832 0 0)" x="-23.076" y="489.06" width="4.6902" height="7.9877" rx="2" ry="2"/>
    <rect id="rect4631" transform="matrix(.9832 -.18253 .18253 .9832 0 0)" x="-16.955" y="489.97" width="4.6902" height="7.9877" rx="2" ry="2"/>
    <rect id="rect4633" transform="matrix(.9832 -.18253 .18253 .9832 0 0)" x="-10.834" y="490.88" width="4.6902" height="7.9877" rx="2" ry="2"/>
    <rect id="rect4635" transform="matrix(.9832 -.18253 .18253 .9832 0 0)" x="-4.7123" y="491.79" width="4.6902" height="7.9877" rx="2" ry="2"/>
    <rect id="rect4637" transform="matrix(.9832 -.18253 .18253 .9832 0 0)" x="1.409" y="492.7" width="4.6902" height="7.9877" rx="2" ry="2"/>
    <rect id="rect4639" transform="matrix(.9832 -.18253 .18253 .9832 0 0)" x="7.5304" y="493.61" width="4.6902" height="7.9877" rx="2" ry="2"/>
    <rect id="rect4641" transform="matrix(.9832 -.18253 .18253 .9832 0 0)" x="13.652" y="494.52" width="4.6902" height="7.9877" rx="2" ry="2"/>
    <rect id="rect4643" transform="matrix(.9832 -.18253 .18253 .9832 0 0)" x="19.773" y="495.42" width="4.6902" height="7.9877" rx="2" ry="2"/>
    <rect id="rect4645" transform="matrix(.9832 -.18253 .18253 .9832 0 0)" x="25.894" y="496.33" width="4.6902" height="7.9877" rx="2" ry="2"/>
    <rect id="rect4647" transform="matrix(.9832 -.18253 .18253 .9832 0 0)" x="32.016" y="497.24" width="4.6902" height="7.9877" rx="2" ry="2"/>
    <rect id="rect4649" transform="matrix(.9832 -.18253 .18253 .9832 0 0)" x="38.137" y="498.15" width="4.6902" height="7.9877" rx="2" ry="2"/>
    <rect id="rect4651" transform="matrix(.9832 -.18253 .18253 .9832 0 0)" x="44.259" y="499.06" width="4.6902" height="7.9877" rx="2" ry="2"/>
    <rect id="rect4653" transform="matrix(.9832 -.18253 .18253 .9832 0 0)" x="50.38" y="499.97" width="4.6902" height="7.9877" rx="2" ry="2"/>
    <rect id="rect4655" transform="matrix(.9832 -.18253 .18253 .9832 0 0)" x="56.501" y="500.88" width="4.6902" height="7.9877" rx="2" ry="2"/>
    <rect id="rect4657" transform="matrix(.9832 -.18253 .18253 .9832 0 0)" x="62.623" y="501.79" width="4.6902" height="7.9877" rx="2" ry="2"/>
    <rect id="rect4659" transform="matrix(.9832 -.18253 .18253 .9832 0 0)" x="68.744" y="502.7" width="4.6902" height="7.9877" rx="2" ry="2"/>
    <rect id="rect4661" transform="matrix(.9832 -.18253 .18253 .9832 0 0)" x="74.865" y="503.61" width="4.6902" height="7.9877" rx="2" ry="2"/>
    <rect id="rect4663" transform="matrix(.9832 -.18253 .18253 .9832 0 0)" x="80.987" y="504.51" width="4.6902" height="7.9877" rx="2" ry="2"/>
    <rect id="rect4665" transform="matrix(.9832 -.18253 .18253 .9832 0 0)" x="87.108" y="505.42" width="4.6902" height="7.9877" rx="2" ry="2"/>
    <rect id="rect4667" transform="matrix(.9832 -.18253 .18253 .9832 0 0)" x="93.229" y="506.33" width="4.6902" height="7.9877" rx="2" ry="2"/>
    <rect id="rect4669" transform="matrix(.9832 -.18253 .18253 .9832 0 0)" x="-158.08" y="470.54" width="4.6902" height="7.9877" rx="2" ry="2"/>
    <rect id="rect4673" transform="matrix(.9832 -.18253 .18253 .9832 0 0)" x="-151.96" y="471.45" width="4.6902" height="7.9877" rx="2" ry="2"/>
    <rect id="rect4675" transform="matrix(.9832 -.18253 .18253 .9832 0 0)" x="-145.83" y="472.36" width="4.6902" height="7.9877" rx="2" ry="2"/>
    <rect id="rect4677" transform="matrix(.9832 -.18253 .18253 .9832 0 0)" x="-139.71" y="473.27" width="4.6902" height="7.9877" rx="2" ry="2"/>
    <rect id="rect4679" transform="matrix(.9832 -.18253 .18253 .9832 0 0)" x="-133.59" y="474.18" width="4.6902" height="7.9877" rx="2" ry="2"/>
    <rect id="rect4681" transform="matrix(.9832 -.18253 .18253 .9832 0 0)" x="-127.47" y="475.09" width="4.6902" height="7.9877" rx="2" ry="2"/>
    <rect id="rect4683" transform="matrix(.9832 -.18253 .18253 .9832 0 0)" x="-121.35" y="476" width="4.6902" height="7.9877" rx="2" ry="2"/>
    <rect id="rect4685" transform="matrix(.9832 -.18253 .18253 .9832 0 0)" x="-115.23" y="476.91" width="4.6902" height="7.9877" rx="2" ry="2"/>
    <rect id="rect4687" transform="matrix(.9832 -.18253 .18253 .9832 0 0)" x="-109.11" y="477.82" width="4.6902" height="7.9877" rx="2" ry="2"/>
    <rect id="rect4689" transform="matrix(.9832 -.18253 .18253 .9832 0 0)" x="-102.98" y="478.72" width="4.6902" height="7.9877" rx="2" ry="2"/>
    <rect id="rect4691" transform="matrix(.9832 -.18253 .18253 .9832 0 0)" x="-96.863" y="479.63" width="4.6902" height="7.9877" rx="2" ry="2"/>
    <rect id="rect4693" transform="matrix(.9832 -.18253 .18253 .9832 0 0)" x="-90.742" y="480.54" width="4.6902" height="7.9877" rx="2" ry="2"/>
    <rect id="rect4695" transform="matrix(.9832 -.18253 .18253 .9832 0 0)" x="-84.62" y="481.45" width="4.6902" height="7.9877" rx="2" ry="2"/>
    <rect id="rect4697" transform="matrix(.9832 -.18253 .18253 .9832 0 0)" x="-78.499" y="482.36" width="4.6902" height="7.9877" rx="2" ry="2"/>
    <rect id="rect4699" transform="matrix(.99923 -.039274 .039274 .99923 0 0)" x="-139.9" y="482.12" width="4.6902" height="7.9877" rx="2" ry="2"/>
    <rect id="rect4701" transform="matrix(.99923 -.039274 .039274 .99923 0 0)" x="-133.78" y="483.03" width="4.6902" height="7.9877" rx="2" ry="2"/>
    <rect id="rect4703" transform="matrix(.99923 -.039274 .039274 .99923 0 0)" x="-127.66" y="483.94" width="4.6902" height="7.9877" rx="2" ry="2"/>
    <rect id="rect4705" transform="matrix(.99923 -.039274 .039274 .99923 0 0)" x="-121.53" y="484.85" width="4.6902" height="7.9877" rx="2" ry="2"/>
    <rect id="rect4707" transform="matrix(.99923 -.039274 .039274 .99923 0 0)" x="-115.41" y="485.76" width="4.6902" height="7.9877" rx="2" ry="2"/>
    <rect id="rect4709" transform="matrix(.99923 -.039274 .039274 .99923 0 0)" x="-109.29" y="486.67" width="4.6902" height="7.9877" rx="2" ry="2"/>
    <rect id="rect4711" transform="matrix(.99923 -.039274 .039274 .99923 0 0)" x="-103.17" y="487.58" width="4.6902" height="7.9877" rx="2" ry="2"/>
    <rect id="rect4713" transform="matrix(.99923 -.039274 .039274 .99923 0 0)" x="-97.049" y="488.49" width="4.6902" height="7.9877" rx="2" ry="2"/>
    <rect id="rect4715" transform="matrix(.97257 -.2326 .2326 .97257 0 0)" x="170.22" y="530.98" width="4.6902" height="7.9877" rx="2" ry="2"/>
    <rect id="rect4717" transform="matrix(.9832 -.18253 .18253 .9832 0 0)" x="114.59" y="509.55" width="4.6902" height="7.9877" rx="2" ry="2"/>
    <rect id="rect4719" transform="matrix(.9832 -.18253 .18253 .9832 0 0)" x="120.71" y="510.46" width="4.6902" height="7.9877" rx="2" ry="2"/>
    <rect id="rect4721" transform="matrix(.9832 -.18253 .18253 .9832 0 0)" x="126.83" y="511.37" width="4.6902" height="7.9877" rx="2" ry="2"/>
    <rect id="rect4723" transform="matrix(.9832 -.18253 .18253 .9832 0 0)" x="132.95" y="512.27" width="4.6902" height="7.9877" rx="2" ry="2"/>
    <rect id="rect4725" transform="matrix(.9832 -.18253 .18253 .9832 0 0)" x="139.08" y="513.18" width="4.6902" height="7.9877" rx="2" ry="2"/>
    <rect id="rect4727" transform="matrix(.9832 -.18253 .18253 .9832 0 0)" x="145.2" y="514.09" width="4.6902" height="7.9877" rx="2" ry="2"/>
    <rect id="rect4729" transform="matrix(.9832 -.18253 .18253 .9832 0 0)" x="151.32" y="515" width="4.6902" height="7.9877" rx="2" ry="2"/>
    <rect id="rect4731" transform="matrix(.9832 -.18253 .18253 .9832 0 0)" x="157.44" y="515.91" width="4.6902" height="7.9877" rx="2" ry="2"/>
    <rect id="rect4733" transform="matrix(.9832 -.18253 .18253 .9832 0 0)" x="163.56" y="516.82" width="4.6902" height="7.9877" rx="2" ry="2"/>
    <rect id="rect4743" transform="matrix(.9832 -.18253 .18253 .9832 0 0)" x="282.72" y="531.72" width="4.6902" height="7.9877" rx="2" ry="2"/>
    <rect id="rect4745" transform="matrix(.97257 -.2326 .2326 .97257 0 0)" x="176.39" y="532.13" width="4.6902" height="7.9877" rx="2" ry="2"/>
    <rect id="rect4747" transform="matrix(.97257 -.2326 .2326 .97257 0 0)" x="182.47" y="533.26" width="4.6902" height="7.9877" rx="2" ry="2"/>
    <rect id="rect4749" transform="matrix(.97257 -.2326 .2326 .97257 0 0)" x="188.55" y="534.39" width="4.6902" height="7.9877" rx="2" ry="2"/>
    <rect id="rect4751" transform="matrix(.97257 -.2326 .2326 .97257 0 0)" x="194.63" y="535.52" width="4.6902" height="7.9877" rx="2" ry="2"/>
    <rect id="rect4753" transform="matrix(.97257 -.2326 .2326 .97257 0 0)" x="200.72" y="536.65" width="4.6902" height="7.9877" rx="2" ry="2"/>
    <rect id="rect4755" transform="matrix(.97257 -.2326 .2326 .97257 0 0)" x="206.8" y="537.77" width="4.6902" height="7.9877" rx="2" ry="2"/>
    <rect id="rect4757" transform="matrix(.97257 -.2326 .2326 .97257 0 0)" x="212.88" y="538.9" width="4.6902" height="7.9877" rx="2" ry="2"/>
    <rect id="rect4759" transform="matrix(.97257 -.2326 .2326 .97257 0 0)" x="218.96" y="540.03" width="4.6902" height="7.9877" rx="2" ry="2"/>
    <rect id="rect4761" transform="matrix(.97257 -.2326 .2326 .97257 0 0)" x="225.04" y="541.16" width="4.6902" height="7.9877" rx="2" ry="2"/>
    <rect id="rect4769" transform="matrix(.97257 -.2326 .2326 .97257 0 0)" x="231.13" y="541.87" width="4.6902" height="7.9877" rx="2" ry="2"/>
    <rect id="rect4771" transform="matrix(.97257 -.2326 .2326 .97257 0 0)" x="238.97" y="542.98" width="4.6902" height="7.9877" rx="2" ry="2"/>
    <rect id="rect4773" transform="matrix(.97257 -.2326 .2326 .97257 0 0)" x="246.33" y="544.27" width="4.6902" height="7.9877" rx="2" ry="2"/>
   </g>
   <path id="path4859" d="m25.457 1311.1 15.682-0.2851s-0.34233 8.6003 0.85537 12.831c1.1977 4.2303 6.2727 11.69 6.2727 11.69l-17.393 0.2852s-2.8548-6.394-3.9917-10.55c-1.137-4.1556-1.4256-13.971-1.4256-13.971z" fill="none" stroke="#808080" stroke-width=".2"/>
   <path id="path4861" d="m-145.98 1308.7 14.541-0.2851s0.79817 8.6003 1.9959 12.831c1.1977 4.2303 6.2727 11.69 6.2727 11.69l-14.826 1e-4s-4.2804-6.394-5.4174-10.55c-1.137-4.1556-2.5661-13.686-2.5661-13.686z" fill="none" stroke="#808080" stroke-width=".2"/>
   <path id="path4863" d="m-65.864 1338.9h32.789s6.7371 9.9788 11.12 13.971 14.826 9.6942 14.826 9.6942l-25.091-1.4256-20.529-2.281s-5.5194-6.6332-7.6983-9.9793c-2.179-3.3462-5.4174-9.9794-5.4174-9.9794z" fill="none" stroke="#808080" stroke-width=".2"/>
   <path id="path4865" d="m386.91 1277.3 19.674-2.5661s-0.74027 13.516 0.57024 20.814c1.3105 7.2981 8.5537 21.099 8.5537 21.099l-20.244 4.2768s-5.0781-10.666-6.843-17.963c-1.7648-7.2965-1.7108-25.661-1.7108-25.661z" fill="none" stroke="#808080" stroke-width=".2"/>
   <path id="path4867" d="m263.98 1300.1 16.395-0.8554s0.53169 7.8673 1.6394 12.474c1.1078 4.607 6.2015 14.47 6.2015 14.47l-18.248 1.283s-3.2829-9.104-4.2769-13.686c-0.99396-4.582-1.7107-13.686-1.7107-13.686z" fill="none" stroke="#808080" stroke-width=".2"/>
   <path id="path4869" d="m-131.73 1321.2c0 0.9448-0.76593 1.7107-1.7108 1.7107-0.94481 0-1.7107-0.7659-1.7107-1.7107s0.76593-1.7108 1.7107-1.7108c0.94482 0 1.7108 0.766 1.7108 1.7108z" fill="#535d6c"/>
   <path id="path4871" transform="translate(170 2)" d="m-131.73 1321.2c0 0.9448-0.76593 1.7107-1.7108 1.7107-0.94481 0-1.7107-0.7659-1.7107-1.7107s0.76593-1.7108 1.7107-1.7108c0.94482 0 1.7108 0.766 1.7108 1.7108z" fill="#535d6c"/>
   <path id="path4873" transform="translate(410 -8)" d="m-131.73 1321.2c0 0.9448-0.76593 1.7107-1.7108 1.7107-0.94481 0-1.7107-0.7659-1.7107-1.7107s0.76593-1.7108 1.7107-1.7108c0.94482 0 1.7108 0.766 1.7108 1.7108z" fill="#535d6c"/>
   <path id="path4875" transform="translate(536 -24)" d="m-131.73 1321.2c0 0.9448-0.76593 1.7107-1.7108 1.7107-0.94481 0-1.7107-0.7659-1.7107-1.7107s0.76593-1.7108 1.7107-1.7108c0.94482 0 1.7108 0.766 1.7108 1.7108z" fill="#535d6c"/>
  </g>
 </g>
</svg>
