<?xml version="1.0" encoding="UTF-8"?>
<!-- Created with Inkscape (http://www.inkscape.org/) -->
<svg id="svg1" width="348.24" height="378.47" version="1.1" xmlns="http://www.w3.org/2000/svg" xmlns:cc="http://creativecommons.org/ns#" xmlns:dc="http://purl.org/dc/elements/1.1/" xmlns:rdf="http://www.w3.org/1999/02/22-rdf-syntax-ns#" xmlns:xlink="http://www.w3.org/1999/xlink">
 <defs id="defs3">
  <linearGradient id="linearGradient8383">
   <stop id="stop8384" stop-color="#fff" stop-opacity=".79775" offset="0"/>
   <stop id="stop8385" stop-color="#fff" stop-opacity=".19101" offset="1"/>
  </linearGradient>
  <linearGradient id="linearGradient8386" x1="238.14" x2="253.04" y1="116.46" y2="131.07" gradientTransform="scale(1.0194 .98098)" gradientUnits="userSpaceOnUse" xlink:href="#linearGradient8383"/>
  <linearGradient id="linearGradient9631" x1="244.25" x2="249.02" y1="118.27" y2="121.25" gradientTransform="scale(1.0068 .99321)" gradientUnits="userSpaceOnUse" xlink:href="#linearGradient8383"/>
  <linearGradient id="linearGradient10266" x1="164" x2="179.83" y1="-7.8099" y2="10.028" gradientTransform="scale(1.4723 .67919)" gradientUnits="userSpaceOnUse" xlink:href="#linearGradient8383"/>
  <linearGradient id="linearGradient1552" x1="996.88" x2="996.88" y1="113.93" y2="43.688" gradientTransform="scale(.25723 3.8876)" gradientUnits="userSpaceOnUse" xlink:href="#linearGradient8383"/>
  <linearGradient id="linearGradient1553" x1="962.66" x2="962.66" y1="115.39" y2="37.896" gradientTransform="scale(.25723 3.8876)" gradientUnits="userSpaceOnUse">
   <stop id="stop1555" stop-opacity=".22472" offset="0"/>
   <stop id="stop1560" stop-opacity=".49412" offset=".5"/>
   <stop id="stop1556" stop-opacity=".18824" offset="1"/>
  </linearGradient>
  <linearGradient id="linearGradient2186" x1="387.82" x2="415.31" y1="25.473" y2="44.564" gradientTransform="scale(.60899 1.6421)" gradientUnits="userSpaceOnUse" xlink:href="#linearGradient8383"/>
  <linearGradient id="linearGradient2809" x1="148.43" x2="159.93" y1="142.93" y2="148.34" gradientTransform="scale(1.2639 .79123)" gradientUnits="userSpaceOnUse" xlink:href="#linearGradient8383"/>
  <linearGradient id="linearGradient2811" x1="215.23" x2="227.53" y1="146.29" y2="160.63" gradientTransform="scale(1.2967 .77119)" gradientUnits="userSpaceOnUse" xlink:href="#linearGradient8383"/>
  <linearGradient id="linearGradient2813" x1="155.59" x2="173.2" y1="151.92" y2="176.12" gradientTransform="scale(1.4147 .70688)" gradientUnits="userSpaceOnUse" xlink:href="#linearGradient8383"/>
  <linearGradient id="linearGradient2815" x1="247.4" x2="270.94" y1="-4.6202" y2="17.92" gradientTransform="scale(.92563 1.0803)" gradientUnits="userSpaceOnUse" xlink:href="#linearGradient8383"/>
  <linearGradient id="linearGradient5315" x1="354.46" x2="336.85" y1="51.486" y2="68.191" gradientTransform="scale(.70229 1.4239)" gradientUnits="userSpaceOnUse" spreadMethod="reflect" xlink:href="#linearGradient8383"/>
 </defs>
 <metadata id="metadata4">
  <rdf:RDF>
   <cc:Work rdf:about="">
    <dc:format>image/svg+xml</dc:format>
    <dc:type rdf:resource="http://purl.org/dc/dcmitype/StillImage"/>
    <dc:title>Longsword</dc:title>
    <dc:creator>
     <cc:Agent>
      <dc:title>Nicu Buculei</dc:title>
     </cc:Agent>
    </dc:creator>
   </cc:Work>
  </rdf:RDF>
 </metadata>
 <g id="g5316" transform="matrix(.74299 -.6693 .6693 .74299 -172.14 177.17)" fill-rule="evenodd">
  <path id="path2160" d="m247.81 119.41v0.0312l-12.844 1.3125c0.67054 5.1727-0.85994 18.028-4.5 29.906 2.4906 3.6401 7.1773 11.667 7.6562 17.031l9.7812-0.0937h0.0937l9.7812 0.0937c0.47895-5.3643 5.1657-13.391 7.6562-17.031-3.6401-11.878-5.1705-24.734-4.5-29.906l-12.844-1.3125v-0.0312h-0.15625-0.125z" fill="#dadac7" stroke="#000" stroke-width="1pt"/>
  <path id="path908" d="m237 426.43c-1.5-89.478-1.5049-178.33-1.7549-267.5 4.5631-7.1426 2.628-20.762 2.4348-31.144h20.578c0.51382 11.267-2.2232 23.152 3.0245 30.522 0.72053 88.694 1.5205 177.53 0.67853 266.85-0.79466 24.712-6.7356 47.88-10.103 71.821-4.9526-23.517-13.508-45.36-14.858-70.55z" fill="#cacbcb" stroke="#000" stroke-linejoin="round" stroke-width="1.25"/>
  <path id="path4029" d="m233.34 37.375c0.16853 1.1165 1.0843 1.2473 1 3.375 1.5168 23.194 2.0056 43.101 1.5 65.031-0.16853 1.3904-0.32308 3.2659-1.25 4.6562l13.031 0.21875 13-0.21875c-0.92691-1.3904-1.0815-3.2659-1.25-4.6562-0.50559-21.93-0.0168-41.837 1.5-65.031-0.0843-2.1277 0.86272-2.2585 1.0312-3.375l-14.281 0.21875-14.281-0.21875z" fill="#cacbcb" stroke="#000" stroke-linejoin="round" stroke-width="1pt"/>
  <path id="path1561" d="m234.4 38.183c0.16853 1.1165 1.0843 1.2473 1 3.375 1.5168 23.194 2.0056 40.901 1.5 62.831-0.16853 1.3904-0.32308 3.2659-1.25 4.6562l12.151 0.21875 11.68-0.21875c-0.92691-1.3904-1.0815-3.2659-1.25-4.6562-0.50559-21.93-0.0168-39.637 1.5-62.831-0.0843-2.1277 0.86272-2.2585 1.0312-3.375l-12.961 0.21875-13.401-0.21875z" fill="url(#linearGradient2186)"/>
  <path id="path2818" d="m260.91 44.094c-1.1355 0.07097-7.3222 13.72-13.406 27.594-5.9728-13.6-12.044-26.93-13.156-27-2.0404-0.27205-2.0606 3.4045-0.15625 6.125 0.76072 1.0777 5.9724 13.525 11.188 25.719-4.3674 10.048-9.092 21.063-9.625 21.969-1.7683 2.8565-1.6359 6.1378 0.8125 5.5938 1.0415-0.24506 5.8939-11.06 10.938-22.719 5.1457 11.912 10.127 23.032 11.188 23.281 2.4484 0.54409 2.5808-2.706 0.8125-5.5625-0.54734-0.93048-5.3522-12.166-9.875-22.562 5.3492-12.494 10.659-25.21 11.438-26.312 1.9043-2.7205 1.8841-6.397-0.15625-6.125z" fill="#9b9b5d" stroke="#000" stroke-width="1pt"/>
  <path id="path6517" d="m220.04 115.5c-7.1501-0.53625-19.484-3.0388-26.277-1.7875-5.7201 1.0725-7.5076 4.4688-8.0439 8.5801 0 3.9326 0.53626 6.0776 5.1838 9.4739 4.2901 2.6813 13.049 3.9326 13.049-4.2901-0.53626-5.0051-3.2176-4.1113-5.5413-2.6813 4.2901-3.9326 15.551-3.9326 21.629-3.5751 0-2.3238-1.0725-3.9326 0-5.7201z" fill="#9b9b5d" stroke="#000" stroke-linejoin="round" stroke-width="1pt"/>
  <path id="path7760" d="m276.53 115.29c7.1501-0.53625 19.484-3.0388 26.277-1.7875 5.7201 1.0725 7.5076 4.4688 8.0439 8.5801 0 3.9326-0.53626 6.0776-5.1838 9.4739-4.2901 2.6813-13.049 3.9326-13.049-4.2901 0.53626-5.0051 3.2176-4.1113 5.5413-2.6813-4.2901-3.9326-15.551-3.9326-21.629-3.5751 0-2.3238 1.0725-3.9326 0-5.7201z" fill="#9b9b5d" stroke="#000" stroke-linejoin="round" stroke-width="1pt"/>
  <path id="path1533" d="m247.41 110.25-13.031 0.0833s1.5405 3.0039 0 4.1042-12.54 0.65757-16.281 0.4375c-0.44013 1.5405-0.22139 4.6131 0.21875 6.5938 7.9225-0.44014 14.526 11.229 25.75 9.4688-1.9806 2.2007-2.6369 6.8226-0.65625 10.344 1.7606-3.7412 3.6196-9.1156 4.4375-9.5625 0.88028 0.44014 2.2082 5.7276 3.9688 9.4688 1.9806-3.5211 1.3244-8.143-0.65625-10.344 11.224 1.7606 17.827-9.9089 25.75-9.4688 0.44014-1.9806 0.6589-5.0533 0.21875-6.5938-3.7412 0.22007-14.741 0.6316-16.281-0.46875-1.5405-1.1004-0.13548-3.6666-0.13547-3.6666 0 0-13.302-0.39676-13.302-0.39594z" fill="#9b9b5d" stroke="#000" stroke-linejoin="round" stroke-width="1pt"/>
  <path id="path2812" d="m247.6 111.02-12.371-0.13679s1.5405 2.7838 0 3.8842-12.54 1.0977-16.281 0.87764c-0.44013 1.5405-0.66153 3.2927-0.22139 5.2733 7.9225-0.44014 14.746 11.229 25.97 9.4688-1.9806 2.2007-3.077 5.9424-1.0964 9.4635 1.7606-3.7412 3.3995-9.1156 4.2174-9.5625 0.88028 0.44014 2.2082 5.7276 3.9688 9.4688 1.9806-3.5211 4e-3 -7.2628-1.9767-9.4635 11.224 1.7606 18.488-9.9089 26.41-9.4688 0.44014-1.9806 0.21876-3.9529-0.22139-5.4934-3.7412 0.22007-13.64 0.85167-15.181-0.24868-1.5405-1.1004-1.676-3.0064-1.2358-3.8866-2.2007 0.44014-11.982-0.17669-11.982-0.17587z" fill="url(#linearGradient2813)"/>
  <path id="path5274" d="m233.46 37.922c0.16853-1.1165 1.0843-1.2473 1-3.375-0.2195-8.6847-5.4107-11.046-5.6804-24.839-0.0162-20.191 37.117-21.447 38.061-1.2973 0.43787 14.854-5.883 17.991-5.8491 26.136-0.0843 2.1277 0.86272 2.2585 1.0312 3.375l-14.281-0.21875-14.281 0.21875z" fill="#9b9b5d" stroke="#000" stroke-linejoin="round" stroke-width="1pt"/>
  <g id="g9632">
   <path id="path7761" transform="matrix(1.0695 0 0 1.1128 -19.772 -14.033)" d="m258.1 121.41c0 3.9983-3.3821 7.2432-7.5493 7.2432-4.1672 0-7.5493-3.245-7.5493-7.2432 0-3.9983 3.3821-7.2432 7.5493-7.2432 4.1672 0 7.5493 3.245 7.5493 7.2432z" fill="url(#linearGradient8386)" stroke="#000" stroke-width="1.1458"/>
   <path id="path8387" transform="matrix(1.4311 0 0 1.4304 -107.7 -53.432)" d="m252.6 121.99c0 2.0273-1.6758 3.6726-3.7406 3.6726s-3.7406-1.6453-3.7406-3.6726c0-2.0273 1.6758-3.6726 3.7406-3.6726s3.7406 1.6453 3.7406 3.6726z" fill="#004691" stroke="#000" stroke-width=".87367"/>
   <path id="path9009" d="m246.13 124.62c-4.9532-3.538 0.11792-9.5526 3.8918-7.5477 6.4863 4.5994 0.11793 10.142-3.8918 7.5477z" fill="url(#linearGradient9631)"/>
  </g>
  <path id="path2814" d="m235.2 36.968c0.16853-1.1165-0.23616-0.80717-0.32042-2.9349-0.2195-8.6847-4.9705-11.046-5.2402-24.839-0.15225-19.239 35.136-18.807 36.3-1.0772 0.43787 14.854-5.0027 17.771-4.9688 25.916-0.0843 2.1277-0.89784 2.0384-0.72931 3.1549l-12.521 0.0013-12.521-0.22139z" fill="url(#linearGradient2815)"/>
  <g id="g9636" transform="translate(-.42198 -106.95)">
   <path id="path9637" transform="matrix(1.0695 0 0 1.1128 -19.772 -14.033)" d="m258.1 121.41c0 3.9983-3.3821 7.2432-7.5493 7.2432-4.1672 0-7.5493-3.245-7.5493-7.2432 0-3.9983 3.3821-7.2432 7.5493-7.2432 4.1672 0 7.5493 3.245 7.5493 7.2432z" fill="url(#linearGradient8386)" stroke="#000" stroke-width="1.1458"/>
   <path id="path9638" transform="matrix(1.4311 0 0 1.4304 -107.7 -53.432)" d="m252.6 121.99c0 2.0273-1.6758 3.6726-3.7406 3.6726s-3.7406-1.6453-3.7406-3.6726c0-2.0273 1.6758-3.6726 3.7406-3.6726s3.7406 1.6453 3.7406 3.6726z" fill="#004691" stroke="#000" stroke-width=".87367"/>
   <path id="path9639" d="m246.13 124.62c-4.9532-3.538 0.11792-9.5526 3.8918-7.5477 6.4863 4.5994 0.11793 10.142-3.8918 7.5477z" fill="url(#linearGradient9631)"/>
  </g>
  <path id="path9644" d="m229.53 9.6625 10.037 1.8674c0.62245-2.5676 3.2679-5.9133 7.9363-6.0689 4.2016-0.15561 7.625 2.7232 8.5587 5.9133l9.9592-0.77807c0.77807-2.5676-0.38902-16.028-17.973-16.028-14.239 0-19.452 10.193-18.518 15.094z" fill="url(#linearGradient10266)"/>
  <path id="path930" d="m239.07 157.54c0.11793 11.086 0.21518 273.81 2.8717 282.87 4.9076 18.035 12.097 17.82 16.513-1.4359 1.4359-7.8973-2.1538-274.52-2.1538-280.71-0.7076-7.6097-6.4407-10.781-8.6049-20.307-2.8718 10.051-7.9842 14.04-8.6256 19.589z" fill="url(#linearGradient1552)" stroke="url(#linearGradient1553)" stroke-width="1pt"/>
  <path id="path2187" d="m217.2 116.04c-7.1501-0.53625-16.623-2.8187-23.416-1.5675-5.7201 1.0725-6.8474 4.0287-7.3837 8.14 0 3.9326 0.31619 4.9772 4.9638 8.3736 4.2901 2.6813 11.508 4.8128 11.508-3.4098-0.53626-5.0051-3.2176-3.4511-5.5413-2.0211 4.2901-3.9326 13.791-5.4731 19.869-5.1156 0-2.3238-1.0725-2.6121 0-4.3997z" fill="url(#linearGradient2809)"/>
  <path id="path2810" d="m277.95 115.6c7.1501-0.53625 17.944-2.3786 24.736-1.1273 5.7201 1.0725 6.8474 3.5885 7.3837 7.6998 0 3.9326 0.34402 4.9772-4.3036 8.3736-4.2901 2.6813-12.169 5.253-12.169-2.9696 0.53626-5.0051 4.0978-3.4511 6.4216-2.0211-4.2901-3.9326-15.772-5.6931-21.849-5.3356 0-2.3238 0.85244-2.8322-0.22007-4.6197z" fill="url(#linearGradient2811)"/>
  <path id="path4693" d="m260.84 45.03c-1.1355 0.07097-7.0501 14.4-13.134 28.274-5.9728-13.6-12.044-27.066-13.156-27.952-2.0404-0.27205-1.5165 2.8604 0.38784 5.5809 0.76072 1.0777 5.9724 13.389 11.188 25.583-4.3674 10.048-9.092 21.063-9.625 21.969-1.0882 2.9925-2.4521 5.3217-4e-3 4.7776 1.0415-0.24506 6.03-11.876 11.074-23.535 5.1457 11.912 10.399 23.712 11.46 23.961 1.7683 0.27204 1.7647-1.0737-4e-3 -3.9302-0.54734-0.93047-5.0802-12.71-9.603-23.107 4.8051-12.902 10.387-25.618 11.165-26.721 1.9043-2.7205 2.2922-5.1728 0.25182-4.9008z" fill="url(#linearGradient5315)"/>
 </g>
</svg>
