<?xml version="1.0" encoding="UTF-8"?>
<!-- Created with Inkscape (http://www.inkscape.org/) -->
<svg id="svg2" width="246.46" height="127.55" version="1.0" xmlns="http://www.w3.org/2000/svg" xmlns:cc="http://creativecommons.org/ns#" xmlns:dc="http://purl.org/dc/elements/1.1/" xmlns:rdf="http://www.w3.org/1999/02/22-rdf-syntax-ns#">
 <metadata id="metadata7">
  <rdf:RDF>
   <cc:Work rdf:about="">
    <dc:format>image/svg+xml</dc:format>
    <dc:type rdf:resource="http://purl.org/dc/dcmitype/StillImage"/>
   </cc:Work>
  </rdf:RDF>
 </metadata>
 <g id="g2834">
  <path id="path3264" d="m42.912 29.806c0.26522 0.47983-24.919 26.873-25.18 32.249-0.59445 12.243 29.471-26.885 28.473-28.089l-1.6466-3.7441-1.6465-0.416z" fill="#ececec" fill-rule="evenodd" stroke="#000" stroke-width=".15516px"/>
  <path id="path3260" d="m50.042 109.96 99.776 0.46476c0.2702-5.9488 0.61954-8.1944 2.2501-11.768 2.569-5.22 6.0556-6.8408 8.6207-8.2354 5.8057-3.1564 13.727-1.6289 16.34-0.54048 3.2565 1.3563 7.7643 5.633 9.5132 10.416 1.4907 4.0765 1.5666 8.0102 1.5911 10.171l56.109-0.3525s5.9797-94.85-5.2762-104.98c-11.256-10.13-200.85 0-200.85 0l-1.7588 22.022s7.0349-0.88088 7.0349 3.5235c0 4.4044-16.884 24.665-16.884 24.665s-23.567 10.57-24.974 18.939c-1.407 8.3683-0.35172 18.498-0.35172 18.498l12.755 1.7861s9.0849-7.4844 19.236-6.5117c10.182 0.97578 16.07 11.867 16.865 21.903z" fill="#ff0" fill-rule="evenodd" stroke="#000" stroke-width="1.2692"/>
  <path id="path3280" d="m0.49076 93.252v19.02h10.892s-1.1721-11.672 4.5137-18.139l1.6309-2.453-17.037 1.5724z" fill-rule="evenodd" stroke="#000" stroke-width=".16629px"/>
  <path id="path2384" transform="matrix(.095038 0 0 -.1124 -2.0943 204.3)" d="m480.88 852.67a142.38 128.24 0 1 1-284.76 0 142.38 128.24 0 1 1 284.76 0z" fill="#333" stroke="#000" stroke-width="79.476"/>
  <path id="path3254" transform="matrix(.096744 0 0 -.11351 136.37 205.32)" d="m480.88 852.67a142.38 128.24 0 1 1-284.76 0 142.38 128.24 0 1 1 284.76 0z" fill="#333" stroke="#000" stroke-width="79.476"/>
  <path id="path3266" d="m37.166 25.252c207.34-1.743 206.98-2.3531 206.98-2.3531" fill="none" stroke="#000" stroke-width="1.4682"/>
  <rect id="rect3268" x="81.032" y="34.206" width="24.622" height="29.95" fill="#ececec" stroke="#000" stroke-width="1.2397"/>
  <rect id="rect3272" x="113.74" y="33.875" width="24.622" height="29.95" fill="#ececec" stroke="#000" stroke-width="1.2397"/>
  <rect id="rect3274" x="146.46" y="33.545" width="24.622" height="29.95" fill="#ececec" stroke="#000" stroke-width="1.2397"/>
  <rect id="rect3276" x="179.17" y="33.215" width="24.622" height="29.95" fill="#ececec" stroke="#000" stroke-width="1.2397"/>
  <rect id="rect3278" x="211.18" y="32.774" width="24.622" height="29.95" fill="#ececec" stroke="#000" stroke-width="1.2397"/>
  <path id="path3282" d="m1.8894 92.344z" fill="none" stroke="#000" stroke-width=".14758px"/>
  <path id="path3284" d="m0.98107 82.233c244.6-2.6387 244.17-3.5623 244.17-3.5623" fill="none" stroke="#000" stroke-width="1.9621"/>
  <rect id="rect3369" x="77.122" y="64.985" width="1.4883" height="7.1489" fill="#1a1a1a" stroke="#000" stroke-width="1.1487"/>
  <rect id="rect3371" x="242.48" y="65.477" width="2.814" height="10.571" fill="#f00" stroke-width="0pt"/>
  <path id="path3377" d="m74.642 34.719s1.3104 29.823-0.3815 29.823c-4.8593 0-42.027 0.42239-42.027 0.42239s-3.9758-1.8517-0.44176-6.1724c3.534-5.5552 16.345-23.455 16.345-23.455l26.505-0.61724z" fill="#e6e6e6" fill-rule="evenodd" stroke="#000" stroke-width="1.3253"/>
  <path id="path2404" transform="matrix(2.4932 .18373 -.081228 1.1023 214.84 -58.321)" d="m-68.674 77.648a0.33337 6.334 0 1 1-0.66674 0 0.33337 6.334 0 1 1 0.66674 0z" fill="#800000" stroke-width="0pt"/>
 </g>
</svg>
