<?xml version="1.0" encoding="UTF-8"?>
<!-- Created with Inkscape (http://www.inkscape.org/) -->
<svg id="svg2" width="1416.2" height="1038.3" version="1.0" xmlns="http://www.w3.org/2000/svg" xmlns:cc="http://creativecommons.org/ns#" xmlns:dc="http://purl.org/dc/elements/1.1/" xmlns:rdf="http://www.w3.org/1999/02/22-rdf-syntax-ns#" xmlns:xlink="http://www.w3.org/1999/xlink">
 <metadata id="metadata7">
  <rdf:RDF>
   <cc:Work rdf:about="">
    <dc:format>image/svg+xml</dc:format>
    <dc:type rdf:resource="http://purl.org/dc/dcmitype/StillImage"/>
    <dc:title>hirundo</dc:title>
    <dc:date>2009-03-20</dc:date>
    <dc:creator>
     <cc:Agent>
      <dc:title>Giulio Orrù</dc:title>
     </cc:Agent>
    </dc:creator>
    <dc:subject>
     <rdf:Bag>
      <rdf:li>animal</rdf:li>
      <rdf:li>swallow</rdf:li>
      <rdf:li>spring</rdf:li>
      <rdf:li>color</rdf:li>
      <rdf:li>blue</rdf:li>
      <rdf:li>bird</rdf:li>
      <rdf:li>nature</rdf:li>
      <rdf:li>photorealistic</rdf:li>
     </rdf:Bag>
    </dc:subject>
    <cc:license rdf:resource="http://creativecommons.org/licenses/by/3.0/"/>
   </cc:Work>
   <cc:License rdf:about="http://creativecommons.org/licenses/by/3.0/">
    <cc:permits rdf:resource="http://creativecommons.org/ns#Reproduction"/>
    <cc:permits rdf:resource="http://creativecommons.org/ns#Distribution"/>
    <cc:requires rdf:resource="http://creativecommons.org/ns#Notice"/>
    <cc:requires rdf:resource="http://creativecommons.org/ns#Attribution"/>
    <cc:permits rdf:resource="http://creativecommons.org/ns#DerivativeWorks"/>
   </cc:License>
  </rdf:RDF>
 </metadata>
 <defs id="defs5">
  <linearGradient id="linearGradient3673">
   <stop id="stop3675" offset="0"/>
   <stop id="stop3677" stop-opacity="0" offset="1"/>
  </linearGradient>
  <linearGradient id="linearGradient3211">
   <stop id="stop3213" stop-color="#7f81dd" offset="0"/>
   <stop id="stop3225" stop-color="#1f2175" offset=".25"/>
   <stop id="stop3219" stop-color="#252f60" offset=".5"/>
   <stop id="stop3215" stop-color="#415d22" offset="1"/>
  </linearGradient>
  <linearGradient id="linearGradient3203">
   <stop id="stop3205" stop-color="#fff" offset="0"/>
   <stop id="stop3207" stop-color="#020234" offset="1"/>
  </linearGradient>
  <filter id="filter3245" color-interpolation-filters="sRGB">
   <feGaussianBlur id="feGaussianBlur3247" stdDeviation="1.355"/>
  </filter>
  <filter id="filter3253" color-interpolation-filters="sRGB">
   <feGaussianBlur id="feGaussianBlur3255" stdDeviation="2.6144036"/>
  </filter>
  <filter id="filter3643" x="-.14488" y="-.028765" width="1.2898" height="1.0575" color-interpolation-filters="sRGB">
   <feGaussianBlur id="feGaussianBlur3645" stdDeviation="0.63522409"/>
  </filter>
  <filter id="filter3343" color-interpolation-filters="sRGB">
   <feGaussianBlur id="feGaussianBlur3345" stdDeviation="5.1721522"/>
  </filter>
  <linearGradient id="linearGradient3023" x1="724.47" x2="690.56" y1="788.46" y2="738.96" gradientUnits="userSpaceOnUse">
   <stop id="stop3364" stop-color="#4d567f" offset="0"/>
   <stop id="stop3366" stop-color="#070b48" offset="1"/>
  </linearGradient>
  <linearGradient id="linearGradient3025" x1="695" x2="714.5" y1="766.5" y2="799.5" gradientUnits="userSpaceOnUse">
   <stop id="stop3378" stop-color="#141660" offset="0"/>
   <stop id="stop3380" stop-color="#b3c2c7" offset="1"/>
  </linearGradient>
  <radialGradient id="radialGradient3027" cx="1155.4" cy="580.01" r="296.98" gradientTransform="matrix(.9666 -.011132 .010639 .92381 32.414 57.056)" gradientUnits="userSpaceOnUse">
   <stop id="stop3566" stop-color="#c7aba0" offset="0"/>
   <stop id="stop3568" stop-color="#987a62" offset="1"/>
  </radialGradient>
  <radialGradient id="radialGradient3029" cx="1315.3" cy="190.48" r="134.1" gradientTransform="matrix(1 0 0 .82631 0 33.084)" gradientUnits="userSpaceOnUse">
   <stop id="stop3259" stop-color="#4255a4" offset="0"/>
   <stop id="stop3261" stop-color="#171579" offset="1"/>
  </radialGradient>
  <radialGradient id="radialGradient3031" cx="1329.7" cy="197.78" r="115.73" gradientTransform="matrix(1 0 0 .85156 0 29.359)" gradientUnits="userSpaceOnUse">
   <stop id="stop3273" stop-color="#c39d76" offset="0"/>
   <stop id="stop3275" stop-color="#bb7b63" offset="1"/>
  </radialGradient>
  <radialGradient id="radialGradient3033" cx="1292.6" cy="140.66" r="14.513" gradientTransform="matrix(1 0 0 1.0259 0 -3.6377)" gradientUnits="userSpaceOnUse">
   <stop id="stop3165" stop-color="#848484" offset="0"/>
   <stop id="stop3167" offset="1"/>
  </radialGradient>
  <linearGradient id="linearGradient3035" x1="1413" x2="1413.9" y1="163.3" y2="175.41" gradientUnits="userSpaceOnUse">
   <stop id="stop3208" stop-color="#484c6f" offset="0"/>
   <stop id="stop3210" offset="1"/>
  </linearGradient>
  <linearGradient id="linearGradient3037" x1="1426.1" x2="1438" y1="172.43" y2="161.03" gradientUnits="userSpaceOnUse">
   <stop id="stop3224" stop-color="#484c6f" stop-opacity="0" offset="0"/>
   <stop id="stop3226" stop-color="#484c6f" offset="1"/>
  </linearGradient>
  <linearGradient id="linearGradient3039" x1="859.85" x2="963.56" y1="644.71" y2="767.49" gradientTransform="translate(-391,337)" gradientUnits="userSpaceOnUse">
   <stop id="stop3495" stop-color="#7f81dd" offset="0"/>
   <stop id="stop3497" stop-color="#1f2175" offset=".44994"/>
   <stop id="stop3499" stop-color="#252f60" offset=".64881"/>
   <stop id="stop3501" stop-color="#415d22" offset="1"/>
  </linearGradient>
  <linearGradient id="linearGradient3041" x1="836.53" x2="855.75" y1="716" y2="736.85" gradientTransform="translate(-391,337)" gradientUnits="userSpaceOnUse" xlink:href="#linearGradient3203"/>
  <linearGradient id="linearGradient3043" x1="876.82" x2="934.57" y1="663.81" y2="723.65" gradientTransform="translate(-313,286)" gradientUnits="userSpaceOnUse" xlink:href="#linearGradient3211"/>
  <linearGradient id="linearGradient3045" x1="826.53" x2="855.75" y1="711" y2="736.85" gradientTransform="translate(-313,286)" gradientUnits="userSpaceOnUse" xlink:href="#linearGradient3203"/>
  <linearGradient id="linearGradient3047" x1="848.53" x2="934.57" y1="648.25" y2="723.65" gradientTransform="translate(2)" gradientUnits="userSpaceOnUse" xlink:href="#linearGradient3211"/>
  <linearGradient id="linearGradient3049" x1="822.53" x2="852.75" y1="712" y2="740.85" gradientTransform="translate(2)" gradientUnits="userSpaceOnUse" xlink:href="#linearGradient3203"/>
  <radialGradient id="radialGradient3051" cx="1420" cy="319.37" r="106.07" gradientTransform="matrix(.94575 -.041613 .036667 .83333 62.387 119.1)" gradientUnits="userSpaceOnUse">
   <stop id="stop3583" stop-color="#c4936d" offset="0"/>
   <stop id="stop3585" stop-color="#402302" offset="1"/>
  </radialGradient>
  <linearGradient id="linearGradient3053" x1="1349.5" x2="1368" y1="290.89" y2="367.49" gradientUnits="userSpaceOnUse">
   <stop id="stop3321" offset="0"/>
   <stop id="stop3323" stop-opacity="0" offset="1"/>
  </linearGradient>
  <linearGradient id="linearGradient3055" x1="932.53" x2="926.07" y1="695.25" y2="683.8" gradientTransform="translate(93.593 -97.75)" gradientUnits="userSpaceOnUse">
   <stop id="stop3602" stop-color="#06063a" offset="0"/>
   <stop id="stop3606" stop-color="#212474" offset="1"/>
  </linearGradient>
  <linearGradient id="linearGradient3057" x1="1027.9" x2="998.45" y1="567.26" y2="521.26" gradientTransform="translate(50.581 1.245)" gradientUnits="userSpaceOnUse" xlink:href="#linearGradient3673"/>
  <linearGradient id="linearGradient3059" x1="1205.4" x2="1160.4" y1="355.76" y2="260.76" gradientUnits="userSpaceOnUse" spreadMethod="reflect">
   <stop id="stop3294" stop-color="#cbe5f4" offset="0"/>
   <stop id="stop3296" stop-color="#0d0f76" offset="1"/>
  </linearGradient>
  <linearGradient id="linearGradient3061" x1="1205.4" x2="1160.4" y1="355.76" y2="260.76" gradientUnits="userSpaceOnUse" xlink:href="#linearGradient3673"/>
 </defs>
 <g id="layer24" transform="translate(-53.329 -79.668)" display="none">
  <path id="path3301" transform="matrix(-.78529 -.61913 .61913 -.78529 1889 1868.6)" d="m1347.8 755.7c-2.7749 86.037-73.472 191.05-97.256 128.36-24.045-63.383-41.294-143.79-30.867-310.51 159.5 1.9354 172.89-315.21 210.4-376.75 40.659-32.484-80.122 491.94-82.282 558.91z" display="inline" fill-opacity=".49027" filter="url(#filter3343)" opacity=".99"/>
 </g>
 <g id="layer8" transform="translate(-53.329 -79.668)" display="none">
  <path id="path3235" d="m1444.5 224.5c-5.5 46.16 5.268 79-13.5 79s-58-9.34-61.5-8.5c0-16.735 0.2635-74.031 18.442-107.35 9.0709-16.627 38.749-10.011 42.886-23.85 9.4478-31.609-18.434-45.298-10.328-45.298 18.768 0 29.5 59.84 24 106z" fill-opacity=".49027" filter="url(#filter3253)" opacity=".99"/>
  <path id="path3237" d="m1393.7 157.78c3.0905 2.3013-32.468 6.8808-64.652 20.218-28.062 11.628-56.561-0.33491-44.5-13.5 31.5-5.452 20.936-25.5 40.5-33 24.564 0 68.652 18.83 68.652 26.282z" fill-opacity=".53307" filter="url(#filter3245)" opacity=".99"/>
 </g>
 <g id="layer18" transform="translate(-53.329 -79.668)">
  <g id="g2985">
   <path id="path4130" d="m1149.6 760.65 58.688 19.671s4.0781 0.28668 8.7515 1.5059c8.8872 2.3186 23.526 9.1869 36.451 18.313 8.853 6.2513 16.968 14.491 21.614 19.357 4.1631 4.3604 3.3185 10.553 1.2244 10.839 1.4526-1.4523-11.977-15.301-26.211-24.524-10.401-6.7396-18.17-8.5348-22.515-11.176-2.5793-1.5679 4.5334 0.45362 4.5334 0.45362 8.4619 5.9402 5.2199 5.088 11.068 10.374 13.117 11.858 23.724 29.88 23.097 33.301s-2.6803 4.9897-2.6803 4.9897c2.4591-1.9011-15.355-21.327-25.206-29.569-1.2998-1.0875-18.785-13.79-26.304-18.572 0.9172 0.87684 1.1371-2.8465 2.8909-1.0708 3.9319 3.9808 12.006 11.778 16.174 17.769 6.7429 9.6922 11.634 19.082 15.438 26.795 4.8194 9.7703-2.4702 13.949-2.4702 13.949 1.622-2.048-10.764-24-18.794-34.538-6.1885-6.8064-14.55-13.564-20.017-18.208s-20.78-4.1623-25.425-1.1546c-2.8803 2.6201-4.3348 4.4929-7.0757 4.255 0.195-1.265-0.4105-8.1138 4.6853-11.087 3.4127-1.9911 10.906-5.0529 14.618-5.0879 2.1197-0.02 1.8148 2.7339 1.8148 2.7339l-67.02-21.805 22.672-7.5143z"/>
   <use id="use2542" transform="matrix(1.0421 .06402 -.065169 1.3122 -63.592 -284.55)" width="1540" height="1256" xlink:href="#path4130"/>
   <use id="use3390" transform="matrix(.99979 -.020618 .020618 .99979 -37.861 35.657)" width="1540" height="1256" xlink:href="#path3352"/>
   <path id="path3352" d="m73 980s347.17-87.071 431.14-118.97c83.534-31.736 309.92-165.13 365.86-222.53l73 105.5c-103.49 9.8127-353.11 94.515-438.82 121.93-85.708 27.411-431.18 114.07-431.18 114.07z" fill="url(#linearGradient3023)" stroke="url(#linearGradient3025)" stroke-dashoffset="3.5178" stroke-linecap="round" stroke-linejoin="round" stroke-width="4"/>
   <path id="path3562" d="m1377.4 561.62c-107.95 160.68-308.45 266.33-455.38 270.11-267.87 6.9078 35.392-280.69 145.66-398.81 124.45-133.31 177.61-159.56 340.83-144.25 135.65 12.728-3.7884 232.27-31.113 272.94z" fill="url(#radialGradient3027)" opacity=".99"/>
   <path id="path3193" d="m1441.6 301.28c3.9839-49.081 16.013-120.81-1.4129-161.36-17.554-40.848-63.763-61.906-111.11-60.156-47.383 1.7507-78.643 23.945-99.081 60.156s-40.275 78.021-48.833 102.62c70.378 98.958 109.22 22.411 260.44 58.741z" fill="url(#radialGradient3029)" opacity=".99"/>
   <path id="path3191" d="m1378.6 101.71c-88.3-15.028-42.559 41.672-100.13 78.376-43.729 27.88-81.118 56.884-56.987 87.939 9.1063 11.719 27.001 26.728 45.314 25.218 45.19-3.726 159.53-4.1999 176.2 3.091 4.0959-52.898 11.621-181.68-64.403-194.62z" fill="url(#radialGradient3031)" opacity=".99"/>
   <path id="path3153" transform="matrix(1.3139 0 0 1.2808 -405.62 -41.302)" d="m1307.1 140.66c0 8.2224-6.4975 14.888-14.513 14.888s-14.513-6.6656-14.513-14.888c0-8.2224 6.4975-14.888 14.513-14.888s14.513 6.6656 14.513 14.888z" fill="url(#radialGradient3033)" opacity=".99"/>
   <path id="path2381" transform="matrix(.96 0 0 .60784 51.845 53.776)" d="m1296.1 138.41c0 3.5239-1.4004 6.3805-3.1277 6.3805-1.7274 0-3.1278-2.8567-3.1278-6.3805s1.4004-6.3805 3.1278-6.3805c1.7273 0 3.1277 2.8567 3.1277 6.3805z" fill="#fff" opacity=".99"/>
   <path id="path3173" d="m1294.2 118.74c-17.495 0.50043-26.349 8.0441-26.393 20.983-0.067 19.936 27.191 39.773 45.294 35.564 20.759-8.1665 38.686-7.3876 46.044-14.7 7.5347-7.4868-12.51-15.891-28.99-26.78-11.294-7.4622-23.175-14.859-35.955-15.068zm-1.0739 6.3484c12.443 0.41555 15.719 9.6849 15.931 18.249 0.1652 6.688-6.5279 11.382-17.743 11.314-11.214-0.068-16.767-7.1906-16.867-13.88-0.1249-8.4401 6.2411-16.098 18.68-15.682z" fill="#212475" opacity=".99"/>
   <path id="path3155" d="m1273.1 134.55c-4.1818 17.771 11.693 24.127 22.343 21.747" fill="none" opacity=".99" stroke="#445640" stroke-dasharray="3.19799995, 3.19799995" stroke-dashoffset="3.5178" stroke-width="3.198"/>
   <path id="path3159" d="m1299.8 124.39c10.997 5.0113 10.609 14.944 11.385 19.142" fill="none" opacity=".99" stroke="#445640" stroke-dashoffset="3.5178" stroke-width="2.198"/>
   <path id="path3196" d="m1450.2 163.57c-0.1629-0.34952-44.744-7.7211-105.5 4.4842 28.714 12.537 64.792 24.426 102.46 28.007 5.7918-19.52 3.1837-32.18 3.0384-32.492z" fill="url(#linearGradient3035)" opacity=".99" stroke="url(#linearGradient3037)" stroke-dashoffset="3.5178" stroke-width="2.198"/>
   <path id="use3483" d="m387.33 1108.1c-55.843 63.019 513.24-198.68 782.4-567.12l-308.22 96.278c-62.293 124.09-417.98 407.43-474.17 470.84z" fill="url(#linearGradient3039)" opacity=".99" stroke="url(#linearGradient3041)" stroke-dashoffset="3.5178"/>
   <path id="path3477" d="m486.06 1080.8c199.96-97.653 552.32-381.54 688.35-539.54l-254.71 59.837c-97.648 97.216-517.28 497.76-433.65 479.71z" fill="url(#linearGradient3043)" opacity=".99" stroke="url(#linearGradient3045)" stroke-dashoffset="3.5178"/>
   <use id="use3243" transform="translate(-182,206)" width="1540" height="1256" xlink:href="#path2431"/>
   <use id="use3241" transform="translate(-114.78 133.64)" width="1540" height="1256" xlink:href="#path2431"/>
   <use id="use3235" transform="translate(-60 72)" width="1540" height="1256" xlink:href="#path2431"/>
   <path id="path2431" d="m800 786 537-424-150-91c-97.648 97.216-419.72 459.52-387 515z" fill="url(#linearGradient3047)" opacity=".99" stroke="url(#linearGradient3049)" stroke-dashoffset="3.5178"/>
   <path id="path3578" d="m1443.2 385.91c-50.95 18.221-26.609 48.015-48.083 47.023-21.121-0.97578-19.978-42.955-55.861-76.014-41.389-38.131-65.76-49.483-39.804-62.028 25.029-12.097 111.64-11.329 133.85-4.4403 25.172 7.8085 61.783 76.904 9.8996 95.459z" fill="url(#radialGradient3051)" opacity=".99"/>
   <path id="path3309" d="m1184.7 318.41c116.94-1.072 167.31-38.625 197.25 75.515" fill="none" opacity=".99" stroke="url(#linearGradient3053)" stroke-dashoffset="3.5178" stroke-linecap="round" stroke-linejoin="round" stroke-width="48"/>
   <use id="use3284" transform="matrix(.82349 -.16881 .2556 .95516 230.6 115.92)" width="1540" height="1256" xlink:href="#path3682"/>
   <use id="use3798" transform="matrix(.83352 -.14695 .18346 .88928 234.67 136.61)" width="1540" height="1256" xlink:href="#path3682"/>
   <use id="use3699" transform="matrix(1.1221 -.025385 .023387 1.218 -110.19 -100.14)" width="1540" height="1256" xlink:href="#path3682"/>
   <use id="use3692" transform="matrix(1.0348 .016307 -.022489 1.1397 -10.521 -95.638)" width="1540" height="1256" xlink:href="#path3682"/>
   <path id="path3682" d="m889.59 665.75c7.7013 10.009 221.47-95.947 250.5-165 28.522-67.848-37.54-10.487-76.161 11.631-87.827 50.3-196.16 123.86-174.34 153.37z" fill="url(#linearGradient3055)" opacity=".99" stroke="url(#linearGradient3057)" stroke-dashoffset="3.5178"/>
   <path id="path3592" d="m837.51 692.01c199.7-118.49 537.88-288.03 512-361.5-26.044-73.929-205.12 72.178-109.95-31.006 11.212-12.156-64.101-47.381-55.052-65.994-97.648 97.216-379.72 403.02-347 458.5z" fill="url(#linearGradient3059)" opacity=".99" stroke="url(#linearGradient3061)" stroke-dashoffset="3.5178"/>
   <use id="use3639" transform="matrix(2.8419 0 0 1.6981 -2396.7 -213.29)" width="1540" height="1256" xlink:href="#path3617"/>
   <use id="use3641" transform="matrix(4.7899 0 0 2.0755 -4898.4 -338.24)" width="1540" height="1256" xlink:href="#path3617"/>
   <path id="path3617" d="m1266.8 351c2.0133 12.954-2.8501 45.808-10.065 53" fill="#fff" filter="url(#filter3643)" opacity=".99"/>
   <use id="use3635" transform="matrix(1.5554 -.096883 .068619 1.1016 -747.77 102.15)" width="1540" height="1256" xlink:href="#path3617"/>
   <path id="path3657" transform="matrix(-3.7896 1.1003 -.35249 -1.214 4896.3 50.152)" d="m988.3 492.5c2.0133 12.954-2.8501 45.808-10.065 53" fill="#fff" filter="url(#filter3643)" opacity=".99"/>
   <path id="path3659" transform="matrix(-1.5387 -.8043 .96148 -1.3238 2644.2 1698.5)" d="m1171.3 300.5c2.0133 12.954-2.8501 45.808-10.065 53" fill="#fff" filter="url(#filter3643)" opacity=".99"/>
   <path id="path3665" transform="matrix(1.5702 0 0 1.3679 -699.8 -138.52)" d="m1226.8 376.5c2.0133 12.954-2.8501 45.808-10.065 53" fill="#fff" filter="url(#filter3643)" opacity=".99"/>
   <use id="use3667" transform="matrix(.68222 -.074034 .030097 .84183 407.29 139.62)" width="1540" height="1256" xlink:href="#path3617"/>
   <use id="use3669" transform="matrix(.62401 -.056897 .027529 .64697 496.98 181.81)" width="1540" height="1256" xlink:href="#path3617"/>
  </g>
 </g>
</svg>
