<?xml version="1.0" encoding="UTF-8"?>
<!-- Created with Inkscape (http://www.inkscape.org/) -->
<svg id="svg2" width="419.53pt" height="297.64pt" sodipodi:docbase="/mnt/data/clipart/karg" sodipodi:docname="blueberry.svg" sodipodi:version="0.32" version="1.0" xmlns="http://www.w3.org/2000/svg" xmlns:cc="http://web.resource.org/cc/" xmlns:dc="http://purl.org/dc/elements/1.1/" xmlns:rdf="http://www.w3.org/1999/02/22-rdf-syntax-ns#" xmlns:sodipodi="http://inkscape.sourceforge.net/DTD/sodipodi-0.dtd">
 <sodipodi:namedview id="base" bordercolor="#666666" borderopacity="1.0" gridtolerance="5px" guidetolerance="5px" pagecolor="#ffffff" showgrid="true"/>
 <metadata id="metadata7">
  <rdf:RDF>
   <cc:Work rdf:about="">
    <dc:format>image/svg+xml</dc:format>
    <dc:type rdf:resource="http://purl.org/dc/dcmitype/StillImage"/>
    <cc:license rdf:resource="http://web.resource.org/cc/PublicDomain"/>
    <dc:title>Blueberries</dc:title>
    <dc:date>05-June-2006</dc:date>
    <dc:creator>
     <cc:Agent>
      <dc:title>Steve Karg</dc:title>
     </cc:Agent>
    </dc:creator>
    <dc:publisher>
     <cc:Agent>
      <dc:title>kargs.net</dc:title>
     </cc:Agent>
    </dc:publisher>
    <dc:subject>
     <rdf:Bag>
      <rdf:li>blueberry</rdf:li>
      <rdf:li>fruit</rdf:li>
      <rdf:li>blue</rdf:li>
      <rdf:li>two</rdf:li>
     </rdf:Bag>
    </dc:subject>
    <dc:description>Two blueberries on a stem.</dc:description>
   </cc:Work>
   <cc:License rdf:about="http://web.resource.org/cc/PublicDomain">
    <cc:permits rdf:resource="http://web.resource.org/cc/Reproduction"/>
    <cc:permits rdf:resource="http://web.resource.org/cc/Distribution"/>
    <cc:permits rdf:resource="http://web.resource.org/cc/DerivativeWorks"/>
   </cc:License>
  </rdf:RDF>
 </metadata>
 <g id="layer1">
  <g id="g1311" transform="matrix(.5375 0 0 .5375 -50.631 -22.526)" fill-rule="evenodd" stroke="#000" stroke-width="5">
   <path id="path5729" d="m440.31 106.59s-7.875 21.75-1 61c6.875 39.25 22.625 47 30 101 7.375 54 1.6875 158.5 1.6875 158.5l19 7s3.9375-110.75-3.6875-165.5c-7.625-54.75-22.25-62.75-29-101-1.0503-5.9518-1.7339-11.449-2.125-16.5 7.8016 18.62 18.4 39.212 31.125 52.5 28.25 29.5 109.69 89.5 109.69 89.5l11-11s-86.937-68.25-114.69-95.5c-27.75-27.25-31-78-31-78h-8.3438l-12.656-2z" fill="#40ff40"/>
   <path id="path1354" d="m344.85 585.11 29-13s-51.058-36.051-52-86c-1-53 18.037-97.641 75.473-112 76-19 162.56 34.562 182.67 92.988 21 61-35.42 121.66-86.147 136.01-53 15-84-6-84-6l-17 21-13-21-16 6 2-16-21-2z" fill="#0080ff" sodipodi:nodetypes="ccsssscccccc"/>
   <path id="path2229" d="m630 444.09c70.111-1.0161 140.5-92.25 136-156s-90.75-106-160-95c-69.25 11-112.5 65.25-108 129s63 123 132 122z" fill="#0080ff" sodipodi:nodetypes="cssss"/>
   <path id="path3104" d="m616.82 351.09 15-17 25 3-6-24 17-14-34-2-17-15 1 23-17 13 21 10-5 23z" fill="#00f"/>
  </g>
 </g>
</svg>
