<?xml version="1.0" encoding="UTF-8"?>
<!DOCTYPE svg  PUBLIC '-//W3C//DTD SVG 20010904//EN'  'http://www.w3.org/TR/2001/REC-SVG-20010904/DTD/svg10.dtd'>
<!-- Created with Inkscape (http://www.inkscape.org/) -->
<svg id="svg1" width="400pt" height="400pt" xmlns="http://www.w3.org/2000/svg" xmlns:xlink="http://www.w3.org/1999/xlink">
 <defs id="defs3">
  <linearGradient id="linearGradient855">
   <stop id="stop856" stop-color="#dd7d0c" offset="0"/>
   <stop id="stop857" stop-color="#d5a224" offset="1"/>
  </linearGradient>
  <radialGradient id="radialGradient832" cx=".47744" cy=".53234" r=".42021" xlink:href="#linearGradient855"/>
  <linearGradient id="linearGradient850" x1="-.69608" x2="1.1471" y1=".25373" y2=".28358">
   <stop id="stop830" stop-color="#fff" stop-opacity=".34167" offset="0"/>
   <stop id="stop831" stop-color="#fff" stop-opacity="0" offset="1"/>
  </linearGradient>
  <radialGradient id="radialGradient874" xlink:href="#linearGradient855"/>
 </defs>
 <g id="g965" fill-rule="evenodd">
  <path id="path902" d="m225.35 162.88s-66.943 34.626-69.252 39.243c-2.3084 4.6168-27.701 22.314-34.626 37.704-6.1557 13.85-18.467 52.324-23.084 80.024 0.76947 5.3862 0 70.791 9.2336 80.024 9.2336 9.2336 86.18 66.174 111.57 68.482 25.392 7.6946 60.788 6.9252 77.716 1.5389 27.701-11.542 46.937-27.701 56.94-38.473 10.003-30.009 38.473-109.26 38.473-134.66-5.3863-18.467-13.85-48.476-29.24-78.485-19.237-43.09-137.73-63.866-137.73-55.402z" fill="url(#radialGradient874)" fill-opacity=".75" stroke="#000" stroke-linejoin="round" stroke-width="10"/>
  <path id="path901" d="m212.22 142.34c-5.7376-34.599-48.235-23.474-86.821-31.919 62.788-8.3434 120.06 3.0389 120.06 3.0389-26.575-25.899-0.53629-64.468-19.369-91.593 54.569 37.002 22.136 76.187 48.349 84.658-5.3596-28.985 55.726-24.314 112.96-65.852-15.343 46.457-65.675 61.079-73.117 81.81 1.4428 10.462 15.528 5.3327 10.114 16.514 11.165 13.967 59.891-25.321 90.208-27.748-4.4831 26.444-77.82 37.069-68.6 63.13-32.762-21.184-69.84-30.662-133.78-32.04z" fill="#007300" stroke="#000" stroke-linejoin="round" stroke-width="10"/>
  <path id="path908" d="m370.06 58.553c-21.139 25.212-52.066 28.866-81.128 66.392 6.8478-29.941 31.687-39.802 81.128-66.392z" fill="#0c0" fill-opacity=".5" stroke-width="1pt"/>
  <path id="path910" d="m236.06 38.428c16.323 22.852-15.264 40.163 20.638 72.864-8.1997-42.133-8.2611-26.039-20.638-72.864z" fill="#0c0" fill-opacity=".5" stroke-width="1pt"/>
  <path id="path900" d="m211.94 141.93c-5.7376-34.599-48.235-23.474-86.821-31.919 62.788-8.3434 103.74 5.2152 103.74 5.2152-26.575-25.899-75.463-70.394-94.296-97.519 54.569 37.002 105.77 82.113 131.98 90.585-5.3596-28.985 58.534-20.932 84.205-88.586 18.391 21.429-45.558 79.137-52.999 99.868 1.4428 10.462 30.735-34.034 129.13-52.006-45.602 27.628-97.356 59.839-102.77 71.02 11.165 13.967 109.89-4.0715 140.21-6.4983-4.4831 26.444-127.82 15.819-118.6 41.88-32.762-21.184-69.84-30.662-133.78-32.04z" fill="#007300" stroke="#000" stroke-linejoin="round" stroke-width="10"/>
  <path id="path905" d="m387.21 84.354c-28.594 11.853-52.786 28.749-94.907 55.393 18.818-22.324 38.311-37.766 94.907-55.393z" fill="#0c0" fill-opacity=".5" stroke-width="1pt"/>
  <path id="path907" d="m460.68 136.69c-31.557 4.3528-42.196 14.602-51.671 5.3365 18.818-1.6483-1.0358 0.57786 51.671-5.3365z" fill="#0c0" fill-opacity=".5" stroke-width="1pt"/>
  <path id="path909" d="m337.65 47.657c-32.087 62.35-26.736 32.689-55.799 54.98 3.5833-27.765 34.466-11.002 55.799-54.98z" fill="#0c0" fill-opacity=".5" stroke-width="1pt"/>
  <path id="path914" d="m137.33 109.2c70.732-3.2646 50.489-0.6301 68.689 9.3809-14.697-6.3179 4.8348-8.9075-68.689-9.3809z" fill="#0c0" fill-opacity=".5" stroke-width="1pt"/>
  <path id="path911" d="m141.04 24.215c47.88 45.704 76.416 44.052 116.33 88.79 9.2336 0.76947-76.677-46.966-116.33-88.79z" fill="#0c0" fill-opacity=".5" stroke-width="1pt"/>
  <path id="path898" d="m213.53 164.09c-5.7376-34.599-51.27-16.638-87.931 0.50498 47.891-50.43 104.85-27.209 104.85-27.209-26.575-25.899-39.157-67.386-107.41-75.886 84.093-14.12 118.88 60.48 145.09 68.951-5.3596-28.985-13.09-35.411 12.582-103.07 18.391 21.429 26.066 93.616 18.624 114.35 1.4428 10.462 68.873-70.894 180.37-35.255-50.895-8.6611-148.6 43.088-154.01 54.27 11.165 13.967 86.898-48.288 110.72 16.28-30.058-17.361-98.333-6.9586-89.113 19.102-32.762-21.184-69.84-30.662-133.78-32.04z" fill="#007300" stroke="#000" stroke-linejoin="round" stroke-width="10"/>
  <path id="path913" d="m147.09 153.79c67.52-30.469 56.564-22.751 96.563 4.838-28.557-3.968 1.4548 7.0151-24.073-4.1293-16.664-26.246-36.596-14.434-72.49-0.70869z" fill="#0c0" fill-opacity=".5" stroke-width="1pt"/>
  <path id="path891" d="m231.92 162.16c13.157 11.095-8.0308 19.504-18.81 27.574-4.1912 6.5311-24.306 7.783-31.68-1.7905-8.5309-9.8778 28.872-27.591 50.49-25.783z" fill="url(#radialGradient832)" fill-opacity=".75" stroke="#000" stroke-linejoin="round" stroke-width="10"/>
  <path id="path896" d="m234.63 172.24c12.185-20.453 56.333-4.0063 59.081 4.3502-4.1912 6.5311-14.535 22.349-26.637 21.347-7.8276-3.1496-25.07-16.123-32.444-25.697z" fill="url(#radialGradient832)" fill-opacity=".75" stroke="#000" stroke-linejoin="round" stroke-width="10"/>
  <path id="path895" d="m325.29 204.53c-4.5246-11.005-17.682-22.1-7.7078-27.11 21.894 4.5275 50.091 32.497 53.054 58.605-7.8276-3.1496-37.972-21.922-45.346-31.495z" fill="url(#radialGradient832)" fill-opacity=".75" stroke="#000" stroke-linejoin="round" stroke-width="10"/>
  <path id="path894" d="m274.28 198.74c2.9513-11.219 12.925-23.924 25.212-28.325 17.348 4.5636 24.186 23.872 26.934 32.228-4.1912 6.5311-10.362 29.99-22.464 28.987-7.8276-3.1496-22.308-23.317-29.682-32.89z" fill="url(#radialGradient832)" fill-opacity=".75" stroke="#000" stroke-linejoin="round" stroke-width="10"/>
  <path id="path885" d="m178.22 182.74c11.297 4.0623 12.084 15.174-1.193 28.04-4.1912 6.5311-8.0126 2.2544-24.306 7.783-8.5309-9.8778 13.212-31.421 25.499-35.823z" fill="url(#radialGradient832)" fill-opacity=".75" stroke="#000" stroke-linejoin="round" stroke-width="10"/>
  <path id="path892" d="m211.19 194.14c2.9513-11.219 12.925-16.229 25.212-20.631 17.348 4.5636 24.186 16.177 26.934 24.534-4.1912 6.5311-15.608 26.429-27.711 25.426-7.8276-3.1496-17.062-19.756-24.436-29.329z" fill="url(#radialGradient832)" fill-opacity=".75" stroke="#000" stroke-linejoin="round" stroke-width="10"/>
  <path id="path869" d="m174.41 211.73c2.9513-11.219 12.925-16.229 25.212-20.631 17.348 4.5636 24.186 16.177 26.934 24.534-4.1912 6.5311-14.35 16.945-30.644 22.474-7.8276-3.1496-14.129-16.803-21.503-26.376z" fill="url(#radialGradient832)" fill-opacity=".75" stroke="#000" stroke-linejoin="round" stroke-width="10"/>
  <path id="path868" d="m245.95 221.82c2.9513-11.219 9.104-20.506 21.391-24.908 17.348 4.5636 32.634 21.671 35.382 30.027-4.1912 6.5311-20.586 21.848-32.688 20.845-7.8276-3.1496-16.71-16.391-24.085-25.965z" fill="url(#radialGradient832)" fill-opacity=".75" stroke="#000" stroke-linejoin="round" stroke-width="10"/>
  <path id="path893" d="m306.19 227.86c2.9513-11.219 13.73-19.289 26.017-23.691 17.348 4.5636 24.186 16.177 26.934 24.534-4.1912 6.5311-11.065 23.262-23.168 22.259-7.8276-3.1496-22.41-13.529-29.784-23.102z" fill="url(#radialGradient832)" fill-opacity=".75" stroke="#000" stroke-linejoin="round" stroke-width="10"/>
  <path id="path890" d="m348.9 251.09c4.1912-6.5311-3.2665-20.489 6.7075-25.499 20.901 9.8603 34.124 39.511 17.83 45.04-7.8276-3.1496-17.163-9.9676-24.538-19.541z" fill="url(#radialGradient832)" fill-opacity=".75" stroke="#000" stroke-linejoin="round" stroke-width="10"/>
  <path id="path858" d="m279.09 250.53c2.9513-11.219 12.925-16.229 25.212-20.631 17.348 4.5636 24.186 16.177 26.934 24.534-4.1912 6.5311-6.5226 20.095-22.816 25.623-7.8276-3.1496-21.956-19.953-29.331-29.526z" fill="url(#radialGradient832)" fill-opacity=".75" stroke="#000" stroke-linejoin="round" stroke-width="10"/>
  <path id="path849" d="m197.11 240.6c2.9513-11.219 17.302-28.164 36.075-24.317 12.186 5.3865 26.499 16.785 26.934 24.534-4.1912 6.5311-9.3723 21.526-25.666 27.055-16.728-2.2195-29.969-17.698-37.343-27.272z" fill="url(#radialGradient832)" fill-opacity=".75" stroke="#000" stroke-linejoin="round" stroke-width="10"/>
  <path id="path884" d="m151.05 206.13c12.454 4.3666-0.01824 14.172-2.7013 24.371-4.1912 6.5312-10.888 12.579-27.182 18.108-8.5309-9.8778 17.596-38.078 29.883-42.479z" fill="url(#radialGradient832)" fill-opacity=".75" stroke="#000" stroke-linejoin="round" stroke-width="10"/>
  <path id="path870" d="m142.34 234.92c2.9513-11.219 13.462-18.269 25.749-22.671 9.5208 1.414 23.65 18.217 26.398 26.573-4.1912 6.5311-12.037 17.554-28.331 23.082-7.8276-3.1496-16.442-17.411-23.816-26.985z" fill="url(#radialGradient832)" fill-opacity=".75" stroke="#000" stroke-linejoin="round" stroke-width="10"/>
  <path id="path871" d="m111.78 261.78c2.9513-11.219 16.58-20.721 28.867-25.122 17.348 4.5636 20.532 20.668 23.28 29.025-4.1912 6.5311-17.552 15.012-33.845 20.541-7.8276-3.1496-10.927-14.87-18.302-24.444z" fill="url(#radialGradient832)" fill-opacity=".75" stroke="#000" stroke-linejoin="round" stroke-width="10"/>
  <path id="path852" d="m162.39 271.08c2.9513-11.219 17.218-32.548 35.991-28.701 13.425 10.075 25.074 17.501 31.292 26.77-4.1912 6.5311-11.232 14.494-30.024 24.818-16.728-2.2194-29.886-13.314-37.26-22.888z" fill="url(#radialGradient832)" fill-opacity=".75" stroke="#000" stroke-linejoin="round" stroke-width="10"/>
  <path id="path851" d="m238.57 268.22c2.9513-11.219 17.385-23.78 31.717-26.553 13.425 10.075 21.688 20.972 28.174 29.222-4.1912 6.5311-6.2543 19.075-22.548 24.603-15.924-5.2793-29.969-17.698-37.343-27.272z" fill="url(#radialGradient832)" fill-opacity=".75" stroke="#000" stroke-linejoin="round" stroke-width="10"/>
  <path id="path867" d="m321.17 274.33c2.9513-11.219 11.787-30.706 27.979-26.446 20.55 6.4963 21.42 21.992 24.168 30.349-1.7948 11.524-11.685 20.918-28.414 18.698-7.8276-3.1496-16.359-13.027-23.733-22.601z" fill="url(#radialGradient832)" fill-opacity=".75" stroke="#000" stroke-linejoin="round" stroke-width="10"/>
  <path id="path881" d="m355.94 302.01c2.9513-11.219 12.139-27.342 24.426-31.743 14.045 12.419 17.127 38.312 6.2464 56.169-19.763 4.6159-23.298-14.853-30.672-24.426z" fill="url(#radialGradient832)" fill-opacity=".75" stroke="#000" stroke-linejoin="round" stroke-width="10"/>
  <path id="path854" d="m277.16 300.18c2.9513-11.219 17.302-28.164 36.075-24.317 17.348 4.5636 31.126 18.002 26.934 24.534-4.1912 6.5311-9.4557 17.142-25.749 22.671-16.728-2.2194-29.886-13.314-37.26-22.888z" fill="url(#radialGradient832)" fill-opacity=".75" stroke="#000" stroke-linejoin="round" stroke-width="10"/>
  <path id="path853" d="m203.74 297.23c2.9513-11.219 17.117-22.76 31.097-28.898 15.119 8.3391 39.841 22.476 35.65 29.007-4.1912 6.5311-11.149 18.878-27.442 24.406-16.728-2.2195-31.93-14.943-39.305-24.516z" fill="url(#radialGradient832)" fill-opacity=".75" stroke="#000" stroke-linejoin="round" stroke-width="10"/>
  <path id="path865" d="m132.82 289.48c7.5776-10.002 12.842-20.613 28.682-19.718 17.348 4.5636 26.231 17.805 33.605 27.379-4.1912 6.5311-16.043 18.681-32.337 24.209-16.728-2.2194-22.576-22.297-29.951-31.87z" fill="url(#radialGradient832)" fill-opacity=".75" stroke="#000" stroke-linejoin="round" stroke-width="10"/>
  <path id="path879" d="m114.1 262.39c17.348 4.5636 10.742 20.274 13.491 28.631-4.1912 6.5311-10.876 20.775-27.169 26.303-8.5309-9.8778 1.3915-50.533 13.679-54.934z" fill="url(#radialGradient832)" fill-opacity=".75" stroke="#000" stroke-linejoin="round" stroke-width="10"/>
  <path id="path872" d="m105.39 318.98c2.9513-11.219 10.982-27.646 23.269-32.047 17.348 4.5636 26.129 27.593 28.878 35.95-4.1912 6.5312-12.12 13.17-28.414 18.698-7.8276-3.1496-16.359-13.027-23.733-22.601z" fill="url(#radialGradient832)" fill-opacity=".75" stroke="#000" stroke-linejoin="round" stroke-width="10"/>
  <path id="path856" d="m168.2 319.5c2.9513-11.219 14.988-28.773 33.762-24.925 11.649 7.4264 25.963 18.825 26.398 26.573-4.1912 6.5311-6.5226 20.095-22.816 25.623-16.728-2.2195-29.969-17.698-37.343-27.272z" fill="url(#radialGradient832)" fill-opacity=".75" stroke="#000" stroke-linejoin="round" stroke-width="10"/>
  <path id="path855" d="m247.4 323.98c2.9513-11.219 12.759-24.997 26.202-29.095 17.348 4.5636 37.528 21.868 36.807 29.312-4.1912 6.5311-18.893 20.112-35.187 25.641-16.728-2.2194-20.448-16.284-27.823-25.858z" fill="url(#radialGradient832)" fill-opacity=".75" stroke="#000" stroke-linejoin="round" stroke-width="10"/>
  <path id="path861" d="m312.1 322.46c2.9513-11.219 17.302-28.164 36.075-24.317 17.348 4.5636 24.705 28.309 20.513 34.84s-2.0631 12.544-18.356 18.072c-16.728-2.2194-30.857-19.022-38.232-28.596z" fill="url(#radialGradient832)" fill-opacity=".75" stroke="#000" stroke-linejoin="round" stroke-width="10"/>
  <path id="path882" d="m361.75 350.43c4.0245-15.299 5.551-25.803 22.196-27.967 10.927 14.87 7.3379 37.918-8.9556 43.446-7.8276-3.1496-5.8662-5.9052-13.241-15.479z" fill="url(#radialGradient832)" fill-opacity=".75" stroke="#000" stroke-linejoin="round" stroke-width="10"/>
  <path id="path860" d="m281.9 352.68c2.9513-11.219 17.302-28.164 36.075-24.317 17.348 4.5636 31.126 18.002 26.934 24.534-4.1912 6.5311-4.2095 20.703-20.503 26.232-16.728-2.2194-35.132-16.875-42.506-26.449z" fill="url(#radialGradient832)" fill-opacity=".75" stroke="#000" stroke-linejoin="round" stroke-width="10"/>
  <path id="path857" d="m206.7 347.08c7.5776-10.002 12.139-27.342 35.991-28.701 12.186 5.3865 30.672 24.426 26.481 30.957-4.1912 6.5311-9.6406 22.546-25.934 28.075-16.728-2.2194-29.164-20.758-36.538-30.332z" fill="url(#radialGradient832)" fill-opacity=".75" stroke="#000" stroke-linejoin="round" stroke-width="10"/>
  <path id="path864" d="m133.1 349.53c2.9513-11.219 13.212-31.421 31.902-31.957 16.007 9.6633 33.522 22.995 35.114 31.047-4.1912 6.5311-13.462 18.269-29.755 23.798-16.728-2.2195-29.886-13.314-37.26-22.888z" fill="url(#radialGradient832)" fill-opacity=".75" stroke="#000" stroke-linejoin="round" stroke-width="10"/>
  <path id="path878" d="m106.73 313.88c17.348 4.5636 26.129 27.593 28.878 35.95-4.1912 6.5312-12.824 6.4414-29.117 11.97-20.365-11.9-12.047-43.519 0.23968-47.92z" fill="url(#radialGradient832)" fill-opacity=".75" stroke="#000" stroke-linejoin="round" stroke-width="10"/>
  <path id="path886" d="m97.462 353.43c17.348 4.5636 14.665 14.763 17.414 23.12-4.1912 6.5311 9.7708 17.644-6.5226 23.173-8.5309-9.8778-17.022-38.043-10.891-46.292z" fill="url(#radialGradient832)" fill-opacity=".75" stroke="#000" stroke-linejoin="round" stroke-width="10"/>
  <path id="path866" d="m106.81 374.24c2.9513-11.219 17.302-28.164 36.075-24.317 17.348 4.5636 31.126 18.002 26.934 24.534 3.988 13.045-10.714 26.626-27.007 32.154-16.728-2.2195-28.627-22.798-36.002-32.371z" fill="url(#radialGradient832)" fill-opacity=".75" stroke="#000" stroke-linejoin="round" stroke-width="10"/>
  <path id="path862" d="m170.44 376.8c2.9513-11.219 18.643-33.264 37.416-29.416 17.348 4.5636 29.784 23.102 25.593 29.633s-9.4557 17.142-25.749 22.671c-16.728-2.2194-29.886-13.314-37.26-22.888z" fill="url(#radialGradient832)" fill-opacity=".75" stroke="#000" stroke-linejoin="round" stroke-width="10"/>
  <path id="path859" d="m245.9 381.38c2.9513-11.219 17.486-33.568 31.902-31.957 11.297 4.0623 39.305 24.516 35.114 31.047-4.1912 6.5311-13.11 21.633-29.404 27.162-16.728-2.2194-30.237-16.678-37.612-26.252z" fill="url(#radialGradient832)" fill-opacity=".75" stroke="#000" stroke-linejoin="round" stroke-width="10"/>
  <path id="path873" d="m328.07 379.74c2.9513-11.219 18.19-26.84 30.477-31.242 28.646 8.6259 20.208 64.204-7.8172 57.922-7.8276-3.1496-15.285-17.107-22.66-26.681z" fill="url(#radialGradient832)" fill-opacity=".75" stroke="#000" stroke-linejoin="round" stroke-width="10"/>
  <path id="path874" d="m287.45 407.23c2.9513-11.219 21.659-25.928 33.947-30.329 17.348 4.5636 24.085 25.965 26.833 34.322-4.1912 6.5311-12.12 13.17-28.414 18.698-7.8276-3.1496-24.991-13.117-32.365-22.691z" fill="url(#radialGradient832)" fill-opacity=".75" stroke="#000" stroke-linejoin="round" stroke-width="10"/>
  <path id="path863" d="m210.8 411.41c-3.0998-11.721 13.665-37.845 32.438-33.997 17.348 4.5636 38.852 30.94 34.66 37.471-4.1912 6.5311-9.4557 17.142-25.749 22.671-16.728-2.2194-33.975-16.571-41.35-26.145z" fill="url(#radialGradient832)" fill-opacity=".75" stroke="#000" stroke-linejoin="round" stroke-width="10"/>
  <path id="path880" d="m107.86 403.6c2.9513-11.219 0.1016-9.788 12.389-14.189 17.348 4.5636 38.398 37.364 41.146 45.721-22.076 4.0074-46.161-21.958-53.535-31.531z" fill="url(#radialGradient832)" fill-opacity=".75" stroke="#000" stroke-linejoin="round" stroke-width="10"/>
  <path id="path877" d="m199.92 448.54c1.5447-24.676 15.525-30.813 27.711-25.426 17.348 4.5636 39.675 13.708 35.298 25.643-4.1912 6.5312-18.625 19.092-39.276 22.384-7.8276-3.1496-16.359-13.027-23.733-22.601z" fill="url(#radialGradient832)" fill-opacity=".75" stroke="#000" stroke-linejoin="round" stroke-width="10"/>
  <path id="path875" d="m260.98 437.34c2.9513-11.219 13.295-27.037 25.582-31.439 17.348 4.5636 31.561 25.751 34.309 34.107-4.1912 6.5311-20.753 13.08-37.046 18.608-16.728-2.2194-22.326-9.1446-22.845-21.277z" fill="url(#radialGradient832)" fill-opacity=".75" stroke="#000" stroke-linejoin="round" stroke-width="10"/>
  <path id="path883" d="m318.12 431.65c2.9513-11.219 28.058-21.901 40.345-26.303 8.2626 10.898-6.7211 39.51-24.976 47.794-7.8276-3.1496-7.9943-11.918-15.369-21.491z" fill="url(#radialGradient832)" fill-opacity=".75" stroke="#000" stroke-linejoin="round" stroke-width="10"/>
  <path id="path887" d="m286.95 465.53c-6.0329-14.673 9.2754-13.438 21.211-21.204 9.0982 0.32225 17.63-8.9284 24.82 6.049-9.0024 10.718-40.349 26.464-46.031 15.154z" fill="url(#radialGradient832)" fill-opacity=".75" stroke="#000" stroke-linejoin="round" stroke-width="10"/>
  <path id="path876" d="m144.52 409.98c2.9513-11.219 25.934-28.075 33.762-24.925 17.348 4.5636 34.595 18.915 34.04 35.127-4.9128 13.975-16.312 19.701-36.695 21.972-7.8276-3.1496-23.733-22.601-31.107-32.174z" fill="url(#radialGradient832)" fill-opacity=".75" stroke="#000" stroke-linejoin="round" stroke-width="10"/>
  <path id="path889" d="m154.92 436.25c15.054-10.217 29.099 2.202 38.268 0.2519 7.5593 4.1696 13.241 15.479 20.43 30.456-16.025 4.5087-53.017-19.399-58.698-30.708z" fill="url(#radialGradient832)" fill-opacity=".75" stroke="#000" stroke-linejoin="round" stroke-width="10"/>
  <path id="path888" d="m231.5 469.48c15.054-10.217 24.139-16.551 33.308-18.501 7.5593 4.1696 14.767 4.975 28.276 19.434-10.511 7.0498-55.903 10.376-61.584-0.93272z" fill="url(#radialGradient832)" fill-opacity=".75" stroke="#000" stroke-linejoin="round" stroke-width="10"/>
  <path id="path903" d="m282 42.982s-21.866 39.493-6.5891 92.194c9.2336 0.76947-1.3194-41.503 6.5891-92.194z" fill="#0c0" fill-opacity=".5" stroke-width="1pt"/>
  <path id="path904" d="m429.87 104.68c-38.432 10.949-74.969 22.007-114.91 53.004 18.818-22.324 18.596-39.663 114.91-53.004z" fill="#0c0" fill-opacity=".5" stroke-width="1pt"/>
  <path id="path906" d="m421.72 164.78c-41.697-8.8956-30.258 1.6551-78.908 9.8004 42.758-14.707 52.92-24.127 78.908-9.8004z" fill="#0c0" fill-opacity=".5"/>
  <path id="path912" d="m174.43 71.213c50.174 22.896 35.974 4.4872 62.651 61.842-14.675-5.7597-18.921-37.641-62.651-61.842z" fill="#0c0" fill-opacity=".5" stroke-width="1pt"/>
  <path id="path915" d="m228.75 167.5c-30-22.5-213.75 153.75-87.5 257.5 63.75-17.5-7.5-210 87.5-257.5z" fill="url(#linearGradient850)" fill-opacity=".75"/>
 </g>
 <rdf:RDF xmlns="http://web.resource.org/cc/" xmlns:dc="http://purl.org/dc/elements/1.1/" xmlns:rdf="http://www.w3.org/1999/02/22-rdf-syntax-ns#">
  <Work rdf:about="">
   <dc:title>Clipart by Nicu Buculei - pear</dc:title>
   <dc:rights>
    <Agent>
     <dc:title>Nicu Buculei</dc:title>
    </Agent>
   </dc:rights>
   <dc:type rdf:resource="http://purl.org/dc/dcmitype/StillImage"/>
   <license rdf:resource="http://web.resource.org/cc/PublicDomain"/>
  </Work>
  <License rdf:about="http://web.resource.org/cc/PublicDomain">
   <permits rdf:resource="http://web.resource.org/cc/Reproduction"/>
   <permits rdf:resource="http://web.resource.org/cc/Distribution"/>
   <permits rdf:resource="http://web.resource.org/cc/DerivativeWorks"/>
  </License>
 </rdf:RDF>
</svg>
