<?xml version="1.0" encoding="UTF-8"?>
<svg id="svg2" width="21cm" height="21cm" version="1.1" xmlns="http://www.w3.org/2000/svg" xmlns:cc="http://creativecommons.org/ns#" xmlns:dc="http://purl.org/dc/elements/1.1/" xmlns:rdf="http://www.w3.org/1999/02/22-rdf-syntax-ns#">
 <metadata id="metadata28">
  <rdf:RDF>
   <cc:Work rdf:about="">
    <dc:format>image/svg+xml</dc:format>
    <dc:type rdf:resource="http://purl.org/dc/dcmitype/StillImage"/>
    <dc:title/>
   </cc:Work>
  </rdf:RDF>
 </metadata>
 <g id="layer1">
  <g id="g1340" transform="matrix(1.0301 0 0 1.0162 -19.832 -219.41)">
   <path id="path1378" d="m316.54 839.59c-25.317-2.6098-50.371-8.2585-73.059-20.09-31.974-10.211-62.156-29.225-84.622-54.317-20.257-25.62-32.662-56.294-50.056-83.713-14.564-39.302-24.483-81.587-17.014-123.56 2.5002-32.794 7.9325-65.974 25.656-94.362 23.717-45.644 58.957-85.66 100.56-115.81 25.202-13.93 52.872-25.01 81.25-30.428 62.113-4.1572 127.28-0.80129 183.86 27.753 43.284 15.464 84.676 38.691 114.36 74.542 33.643 37.062 49.983 86.67 58.586 135.09 2.4556 44.431 6.4093 91.674-14.247 132.78-14.588 32.738-30.17 66.63-54.887 92.916-31.201 25.908-67.368 48.39-107.11 57.848-53.913 6.6938-109.32 8.3027-163.28 1.3603z" fill="#d0f4b4"/>
   <path id="path1376" d="m316.17 837.77c-34.472-2.7192-66.446-16.247-97.584-30.221-35.208-17.039-66.383-44.214-81.296-81.086-12.064-24.818-31.131-46.351-35.635-74.376-16.348-44.869-9.4273-93.131-1.3168-138.86 8.041-31.344 24.685-60.269 42.545-86.941 30.318-33.866 59.116-74.147 104.77-87.904 30.183-10.624 60.585-23.99 93.402-20.274 28.128 0.54394 59.793 4.1715 79.86 26.07-17.178 2.1742-33.705 1.811-52.716-6.0304-26.29-15.87-59.076-12.84-84.346 2.7029-25.316 10.384 8.1645 25.723 20.878 24.826 19.107 28.856 57.17 3.2473 80.372 23.307 21.593-1.8114 5.4634 21.063 27.562 23.153 10.021 13.741 44.637 0.44577 44.67 14.122 5.7493 20.857 38.199 5.7999 51.506 1.2149-1.9161-22.805-26.859-36.979-47.49-49.852-15.41-10.887-2.5918-6.0922 4.314-6.1033 25.192-9.4907 19.867 26.719 42.43 25.244 0.58647-18.306 43.797 7.0236 22.447 15.193 18.302 33.428 24.236-22.089 0.17328-27.02-6.2708-8.5567-45.324-24.956-28.655-29.964 24.861 10.404 46.191 27.482 68.475 42.493 34.939 30.471 61.29 70.385 73.648 115.24 15.033 40.699 10.696 84.924 9.7663 127.41-6.085 37.547-24.353 72.253-43.071 104.98-23.93 41.535-65.809 67.94-109.53 84.814-41.336 14.562-86.396 11.082-129.59 12.017-18.604-0.06392-37.194-1.267-55.582-4.1554zm-46.648-456.41c-22.577-10.519-0.8107 28.729 0 0zm218 42.358c-20.366-5.8472-12.903-17.476 4.9492-10.399 14.47-1.6026-1.5706 18.349-4.9492 10.399zm-32.993-78.773c4.6383-7.343 4.6382 7.343 0 0z" fill="#aad38b"/>
   <path id="path1374" d="m318.4 837.31c-28.351-2.9724-55.886-10.388-81.45-23.012-39.787-13.906-77.809-40.267-95.055-80.022-12.994-27.418-34.383-51.194-38.055-82.276-18.29-49.852-10.113-104.82 2.6377-154.89 12.638-25.44 23.203-52.906 41.584-74.525 14.306-10.824 30.751-45.692 42.422-23.831 32.194-2.8652-12.095-34.863 20.29-40.269 6.4757-10.18 46.379-9.5672 30.519-13.527 11.056-3.7188 42.589-18.95 44.858-10.224-17.262 2.4127-42.181 13.927-12.747 19.03 13.053 12.741 35.046 8.8013 47.962 25.214 25.453 6.0768 51.842-2.2425 74.43 13.332-2.5306 23.793 39.133 27.987 58.542 32.558 4.3502 24.709 38.148 26.574 47.513 44.682 18.999 0.63067-12.419-24.36 13.138-24.671 11.636-8.1218-11.159-32.777-17.527-44.477-15-9.0837-59.067-37.292-20.54-27.754 14.382-1.7371 17.487 39.779 34.078 18.246 11.027 1.0068 31.984 11.98 15.968 19.27 10.423 13.955 29.236 40.026 45.04 39.759 9.5679-21.102-19.5-41.456-30.672-59.016-8.9335-13.483-34.35-22.11-38.363-32.924 25.508 6.0223 42.251 28.854 65.623 39.606 18.234 18.334 35.43 39.185 50.735 60.648 15.126 26.247 24.264 55.859 31.599 85.115 8.1832 51.199 7.1197 106.05-15.938 153.54-18.71 48.162-50.329 93.794-98.392 116.2-46.491 29.443-103.34 28.811-156.35 28.971-20.678-0.43914-41.377-1.72-61.848-4.7597zm4.1672-286.95c0.84572-17.974-30.411 12.73-3.139 1.8475l3.139-1.8475v2e-5zm105.81-19.57c-11.045-25.511-10.886 5.5298 0 0zm-15.424-16.215c4.7331-10.428 10.979-40.411 26.559-29.577-17.723 14.222 4.2708 24.055 11.752 7.4743-9.6772-24.574-37.451-46.715-64.049-55.997-16.195 5.6468-26.239 5.4024-30.34-12.929-22.456-4.3741-41.645-31.737-65.863-8.9302-10.432 5.4067 21.532 8.4119 2.0302 20.857-12.103 5.5276 15.634 14-7.2793 15.783-13.844 6.0664 22.546-1.3551 26.139 8.9486 16.119 22.488 51.006-7.4634 62.692 5.3385-12.817 11.184-41.67 22.714-15.016 37.565 18.14 9.9557 43.801-8.7985 53.42 13.233l-0.04441-1.7659zm-70.987-55.562c-5.0817-14.152 12.822-0.17731 0 0zm-18.442-15.924c-10.679-12.776 16.935 1.1781 0 0zm210.25 51.287c-5.7212-6.0816-0.58488 6.5101 0 0zm-8.3915-7.263c-10.853-11.675-13.907-1.521 0 0zm-261.07-36.245c-1.5865-7.5686-16.44 5.9236 1e-5 -1e-5l-1e-5 1e-5zm15.851-7.5666c-1.1722-6.2497-7.0444 6.4721 0 0zm-99.765-18.917c-4.6383-7.343-4.6382 7.3431 0 0zm75.951-15.606c23.338-11.555 17.579-44.224-11.481-28.449-9.0589-0.98819-10.083-14.656-12.959 3.8665 7.2802 12.133 10.75 16.458 4.0102 30.148 7.0282 2.1855 14.514-2.2854 20.43-5.5654zm116.1-9.9081c-0.91008-21.018-18.321 18.964 1e-5 1e-5l-1e-5 -1e-5zm-152.98-13.161c9.9408-26.119-20.589 9.7638 0 0zm67.217-10.449c-5.6911-4.1745-8.4398 6.5943 0 0zm279.09 68.671c-3.6009-12.086 11.098 3.965 0 0zm-83.293-26.506c-16.052-10.499 29.345 1.6878 4.852 1.9136l-4.852-1.9136h1e-5zm-66.199-74.382c-8.3686-6.8091 14.012 5.1014 0 0zm-25.174-1.8917c-27.315-4.2177-52.329-20.728-80.755-18.094 23.223-3.3036 51.061-5.9394 73.643 2.4637 15.435 0.59249 34.642 13.303 11.481 16.885l-4.3688-1.2546z" fill="#92a99a"/>
   <path id="path1372" d="m345.44 838.57c-34.175-3.2758-69.202-6.9614-100.24-22.762-28.558-8.4286-54.796-25.625-76.154-46.244-11.68-24.957-26.479-46.13-41.815-68.997-19.727-26.446-28.265-59.459-33.071-91.704-2.9929-37.643 2.8537-75.81 12.151-112.19 14.336-29.149 28.674-58.994 50.88-83.073 9.9637-13.695 24.522-32.858 33.293-14.848 29.556-2.4885-6.9992-32.348 22.25-39.474 5.5736-10.892 44.581-10.708 28.558-14.323 11.056-3.7188 42.589-18.95 44.858-10.224-22.752 1.7586-38.507 14.843-12.65 28.885 7.2775 9.5609-40.414 25.427-37.04 9.6924-16.382 14.175 16.856 24.754-1.6612 39.733 26.9 8.0782 37.537-41.373 64.962-13.364 12.53 6.442-28.396 20.76-3.8328 20.518 8.7417 12.713-14.501 18.379-0.8785 27.3-13.646-0.20378-18.144 13.699-1.1039 11.404 11.611-15.026 29.036 31.862 49.628 12.37 5.4252-8.1504 22.403-13.238 16.673 1.6674-6.1751 8.4709-29.846 11.506-9.301 26.904 13.8 20.981 40.383 5.0839 53.062 6.7418 13.813 29.039 9.6114-23.089 28.923-23.993 18.411-4.5474-16.593 26.608 10.623 18.694 11.479-7.0319 9.8919-32.26-4.3393-26.099-13.382-14.853-1.6051-33.979 13.153-14.411 15.117 3.0511 3.9501 32.585 20.752 25.228-5.8899-11.647 9.4092-20.833-10.761-29.425-9.8225-5.5366-37.356-27.529-13.13-17.059 19.315 2.4428 32.165 26.676 49.266 22.676-11.314 20.165 25.272 2.8609 4.7729-5.8907 6.6245-13.15 26.079-13.96 13.517-32.753 17.886 2.3022 40.512 24.689 55.225 26.372 9.5471-20.241-19.523-40.191-25.783-60.062 25.091 3.0893 38.799 27.467 55.354 44.387 26.363 29.224 38.661 67.734 48.152 105.13 7.2508 42.455 8.0101 87.36-3.9626 128.96-19.923 48.707-42.436 101.13-88.56 130.57-25.317 15.762-52.629 31.298-82.362 36.285-42.888 4.7496-86.332 5.7465-129.41 3.3743zm-185.54-124.02c-6.6497-12.16-25.299-35.525-33.937-30.602 8.7873 13.166 12.443 36.936 33.937 30.602zm162.67-164.19c0.84572-17.974-30.411 12.73-3.139 1.8475l3.139-1.8475v2e-5zm102.91-24.73c-20.955-16.188 5.2592 25.332 0 0zm-90.415-4.7706c7.317-5.6018 21.412-25.849-0.17514-11.35-8.6078 4.5189-26.285 22.606-4.3594 12.155l4.5346-0.80516v3e-5zm-17.73-14.323c10.554-19.302-11.88 8.9578-11.541-8.8326-2.6039 7.2152 5.187 16.438 11.541 8.8326zm216.45-12.161c-5.7212-6.0816-0.58488 6.5101 0 0zm-218.76-3.1839c-11.34-1.8786 3.4046 3.6698 0 0zm183.84-0.93722c-13.153-16.562-9.5007 10.065 0 0zm26.529-3.1419c-10.853-11.675-13.907-1.521 0 0zm-261.07-35.299c-1.6858-12.36-21.845 9.9454 0 0zm15.851-8.5125c-1.1722-6.2497-7.0444 6.4721 0 0zm-99.765-18.917c-4.6383-7.343-4.6382 7.3431 0 0zm38.787-38.211c9.7706-31.121-24.971 8.7287 0 0zm149.55 79.769c11.484-13.358 6.305 9.2387 0 0zm-26.779-6.9281c-5.0817-14.152 12.822-0.17731 0 0zm-18.442-15.924c-10.679-12.776 16.935 1.1781 0 0zm242.27 0.84235c-3.6009-12.086 11.098 3.965 0 0zm-198.91-11.98c10.761-15.215 4.7844 13.835 0 0zm-28.748-22.025c-0.0994-13.897 8.6768 10.571 0 1e-5v-1e-5zm-27.195-87.691c35.876-6.5042 7.6907 7.3331 0 0z" fill="#9ecf66"/>
   <path id="path1370" d="m345.44 838.57c-34.175-3.2758-69.202-6.9614-100.24-22.762-28.558-8.4286-54.796-25.625-76.154-46.244-11.688-24.957-26.467-46.145-41.841-68.997-29.461-43.034-39.68-97.715-31.237-148.96 5.1324-25.645 4.2966-54.188 22.311-75.197 3.0825-15.729 29.805-15.238 13.964-26.718 5.3488-25.499 33.013-40.914 53.261-22.104 22.511 10.12 44.943 3.1714 67.112 10.66-0.38702 21.325 10.733 12.365 24.019 9.6786 5.0274 9.6858 15.757 15.513 22.316 5.6187 14.875 21.824 42.07 26.17 58.899 8.8851 17.528 19.502-35.353 16.775-6.9034 37.415 14.347 21.582 40.448 3.867 54 7.5909 5.431 13.807 13.593 11.234 15.271 24.193 7.2895 6.4327 34.28 3.9758 16.053-9.6766-11.25-25.346 11.921-4.0812 16.393-7.7107-13.849-7.8708 10.594-45.208-13.449-39.054-13.382-14.853-1.6051-33.979 13.153-14.411 15.117 3.0511 3.9501 32.585 20.752 25.228-5.8899-11.647 9.4092-20.833-10.761-29.425-9.8225-5.5366-37.356-27.529-13.13-17.059 19.315 2.4428 32.165 26.676 49.266 22.676-8.4644 16.682 18.517 5.1714 21.996 23.502 14.995 10.137 33.355 16.582 40.166 34.623 14.063-4.8056-3.0557-29.408-7.7048-38.881-20.18-15.159-32.157-33.439-36.8-55.318 14.241-2.5254 39.4 15.173 54.275 28.532 1.7436 14.92 37.19 43.673 17.87 13.646-6.492-27.03-24.887-47.195-37.404-71.228-13.01-17.36 27.523 4.3871 29.688 13.831 16.886 23.711 36.63 44.697 50.014 69.441 16.252 38.154 26.128 79.174 24.164 120.87 0.51796 34.647-6.161 69.136-22.841 99.749-17.394 38.833-40.283 77.135-77.462 99.893-30.398 18.324-63.414 36.149-99.861 36.399-36.297 2.5988-72.813 3.5439-109.16 1.3191zm-185.54-124.02c-6.6497-12.16-25.299-35.525-33.937-30.602 8.7873 13.166 12.443 36.936 33.937 30.602zm235.57-129.89c13.774-3.8919-14.047-20.776 7.7817-17.398 12.51-6.0325 29.263 18.998 28.932-0.97886-25.468-3.963-47.855-17.466-72.184-25.857 4.1084 8.7792 24.257 31.441-1.8612 19.983-9.9865 6.3438-32.96-17.387-18.756 4.1549 16.595 7.0407 35.597 4.7803 45.266 23.473 4.0224 2.9561 7.829-1.6075 10.821-3.3769zm-67.101-27.036c3.3838-12.221 0.43167-18.251 14.55-16.939-1.7175-38.215-29.81 18.761-40.17-10.334 0.02117-20.789-20.818-40.39-39.206-25.984-3.6866 21.598-36.298-12.543-30.071 18.262 11.304 11.312 32.702 10.768 39.108 27.634 19.511-7.2258 39.043 20.533 55.789 7.3613zm-44.444-25.385c2.0543-6.3384 7.5454 3.6113 0 0zm71.488 18.828c-3.5874-11.206-7.9363 16.149 0 0zm115.9-11.181c0.45581-15.336-9.0242-29.121-16.224-6.8893-1.9797 8.3426 18.109 23.551 16.224 6.8893zm36.945 2.2746c-8.4848-13.124-7.0621 12.119 0 0zm-173.19-21.303c7.317-5.6018 21.412-25.849-0.17514-11.35-8.6078 4.5189-26.285 22.606-4.3594 12.155l4.5346-0.80516v3e-5zm-110.28-7.945c0.14574-11.707 15.744-21.631 1.2225-27.403 13.48 7.4207 42.62 11.874 24.267-11.77-13.997 7.2875-39.641-0.00726-35.144 23.383-6.8268 6.8272-0.78959 24.075 9.6546 15.789zm92.546-6.3776c10.554-19.302-11.88 8.9578-11.541-8.8326-2.6039 7.2152 5.187 16.438 11.541 8.8326zm-127.56-17.363c14.278-15.746 0.76933-47.06-19.461-25.825-12.448-6.5329-30.292 0.0518-23.047 13.3 12.172-10.876 26.896-4.995 35.963-10.609-11.498 10.83-4.9669 22.703 5.6936 25.472l0.85095-2.338-1e-5 1e-5zm125.25 2.0182c-11.34-1.8786 3.4046 3.6698 0 0zm183.84-0.93722c-13.153-16.562-9.5007 10.065 0 0zm-221.29-57.118c-3.9362-11.52-20.196-41.121 1.8904-41.209 15.457 1.3388 33.013 11.406 13.088 20.882-13.575 0.88687-6.2025 29.155-14.978 20.327zm89.313-1.1856c10.761-15.215 4.7844 13.835 0 0zm-124.01-9.4583c0.41137-15.396 18.746 2.7319 0 0zm95.259-12.567c-0.0994-13.897 8.6768 10.571 0 1e-5v-1e-5zm-132.3-16.492c-3.7328-13.969-13.218-27.012 8.6463-34.978 16.344-18.235 65.796-8.1094 57.572 11.693-13.027 10.704-26.728 6.1656-39.387 5.3314 4.2502 12.295-28.835 35.844-26.83 17.953zm14.531-7.9639c8.6662-25.642-24.571 10.736 0-1e-5v1e-5zm91.507-63.235c18.654-7.3642 16.337 7.5173 1e-5 1e-5l-1e-5 -1e-5z" fill="#8eb26d"/>
   <path id="path1368" d="m353.83 839.33c-37.715-4.0751-76.775-6.869-110.86-25.09-29.748-9.5701-59.56-26.009-78.618-51.21-5.629-24.871-25.606-40.481-37.15-62.456-5.7423-6.8696-25.894-41.456-4.9035-20.524 10.093 15.249 21.019 44.351 42.55 32.157 14.577 0.87704 22.487 39.323 32.895 17.379-19.063 0.30033-14.22-7.7053 0.6126-7.4192 8.4425-9.104-27.302-17.157-19.582-12.454 5.7204-19.211-14.822-9.3409-15.374-25.289-17.779-17.721-52.971-15.521-60.888-44.825-14.448-47.138-5.9847-97.636 6.381-144.12 5.8647-19.221 27.368-28.817 32.149-43.957-19.657-13.503 25.36-46.305 38.537-22.375 23.212 4.7798 42.822 8.038 65.353 8.9185 7.6583 7.1544 7.4163 24.585 24.452 13.72 20.429 8.609 40.174 4.9341 57.356 23.055 10.27-0.97945 51.221-16 26.155 1.9899-26.905 14.444 14.157 40.661 31.142 34.134 27.816-8.7614 33.771 34.998 63.422 30.015 11.513 9.1576 38.193 23.653 29.811-2.2235 23.565-5.4806-6.1718-29.959-18.32-27.97 0.82574-22.45-13.698-36.496-25.719-52.517 1.9944-17.138 35.793 9.5412 28.111 22.378 15.771 17.449 6.1783-0.76476 12.037-7.6727 7.7283-14.284-46.727-31.422-29.916-36.757 18.83 9.068 42.862 19.689 53.91 35.422 18.901 17.531 45.972 26.757 58.299 50.588 9.9068 18.972 16.717 13.361 12.296-5.472 1.7891-26.475-20.934-40.407-35.7-58.371-1.1542-9.4072-28.302-46.838-5.5488-29.152 28.942 2.639 44.12 32.787 56.53 55.798 9.3986-1.8955 20.306 20.581 16.984-0.04259-13.872-21.742-17.642-49.26-36.433-67.963-5.2763-9.7914-30.441-38.318-3.338-22.002 26.005 14.044 35.682 44.815 51.05 68.636 11.637 26.379 33.367 47.76 37.735 77.067 6.0005 39.556 7.0228 80.916-1.9549 120.06-18.674 50.507-40.528 105.08-87.266 136.09-37.149 26.477-81.855 43.21-127.94 41.701-26.071 0.75847-52.175 1.4926-78.254 0.75669zm-169.69-149.99c-5.0731-12.808-6.9214 9.8745 0 0zm424.58-26.522c-0.54574-30.197-10.79 31.882-0.57178 3.9829l0.57175-3.983 3e-5 3e-5zm-198.94-67.962c-27.521-2.548 1.5133-38.155 16.637-16.388 12.294 3.9016 31.17-9.1277 13.199-15.881-2.8912-14.958-43.583 5.0233-33.41-15.031-29.969 12.422-31.69-37.751-60.008-22.728-24.98-3.3518 17.346-24.734-6.5739-18.976-13.707 4.979-21.893 26.059-29.209 29.28-11.838-15.523-5.3839-41.947-33.888-39.078-18.355-6.675-19.53 23.492-39.192 8.7407-13.515 25.774 23.558 38.961 40.516 51.641 25.06 5.3451 50.452 26.236 77.497 22.287 18.129 1.6299 35.016 20.443 54.431 16.132zm99.613-48.65c10.431-10.115-29.454-27.618-12.595-5.5756 2.6208 4.0015 7.4274 8.7662 12.595 5.5756zm-284.6-33.28c-4.401-32.581 46.538-1.3574 33.754-34.522-8.1023-16.82-48.258-0.95971-43.409 18.732-6.8268 6.8272-0.78959 24.075 9.6546 15.789zm2.0592-25.377c-1.731-9.3816 11.642 9.5346 0 0zm90.487 19c11.45-40.394-34.989 8.9675 0 0zm180.87-18.003c-21.376-11.923 13.255 30.005 0-1e-5v1e-5zm-308.43 0.64019c12.307-13.466 5.2489-52.85-17.338-28.725-9.559 9.1749-26.296-17.422-25.594 7.8866-12.041 23.182 27.89-17.713 28.268 10.907 3.684 1.555 11.759 19.032 14.663 9.9312zm177.11-57.223c10.761-15.215 4.7844 13.835 0 0zm-92.334-13.288c-0.69274-14.058-9.5138-36.455 12.725-24.477 28.089 4.0208 8.0286 16.167-4.7198 23.134-1.1889 0.37544-6.7142 5.3998-8.0056 1.3435zm63.586-8.7371c-0.0994-13.897 8.6768 10.571 0 1e-5v-1e-5zm-133.49-9.7767c12.086-21.743 12.068 2.8973 0 0zm18.559-13.429c10.69-12.331-0.35267 12.254 0 0zm-21.239-11.289c4.4443-25.954 57.83-35.547 73.263-9.8023-2.601 12.398-31.262 12.142-41.365 4.538-7.9452 1.5242-27.896 16.029-31.898 5.2643z" fill="#6f8d73"/>
   <path id="path1366" d="m323.06 834.59c-30.897-3.0048-59.732-13.243-88.449-23.694-20.787-10.406-55.729-26.025-57.412-48.25 14.498-5.963-32.802-26.022-19.68-36.027 13.142 12.939 13.762 2.5005 6.2516-6.2809 8.0807 6.5308 28.808 33.874 37.721 23.779-17.25-3.6927 10.013-19.506-15.744-15.838-7.2064-8.5788 28.088-2.5961 8.966-13.865-7.667-10.721-20.643 5.3478-16.641-15.357-6.7262-8.5486-25.232-27.379-40.604-28.343-26.604-7.7507-40.603-32.841-41.332-60.024-3.458-38.741 2.6013-77.977 12.758-115.22 5.8819-19.222 27.32-28.802 32.172-43.954-13.898-11.667 24.833-46.422 34.452-20.973 21.968-2.5401 37.998 12.994 59.334 4.6139 24.053 2.1974 5.9738 19.338 1.361 24.139 14.383 0.73547 50.664-13.557 31.988 12.924-4.0617 18.643 32.175 1.1593 13.138 18.766-21.775-7.3725-21.676 30.076-44.01 13.799-13.537 25.779 23.52 38.851 40.41 51.642 22.035 3.7662 41.975 26.138 66.338 23.911 24.737-9.661 40.891 20.594 65.695 14.709-28.231-5.0486 3.2344-36.418 17.866-16.811 15.646 4.3129 30.73-8.3821 11.97-15.466-1.5573-18.126-41.209-0.14426-23.522-23.801 21.168-4.8241 48.776 22.265 61.741 10.82-8.0426-15.675 19.669-10.754 6.3583-27.766-9.8758-25.418 25.899-4.0808 36.856-12.309 5.2581 19.556 20.471 5.9764 2.5892-4.5367 9.1934-17.04 34.903 25.64 45.7 29.634-0.7179-24.745-4.0438-52.977-28.969-65.667-12.623-11.164-13.11-35.268 7.4126-23.537 24.628 6.7234 29.443 40.657 49.179 47.667 10.791-8.0727-15.662-38.23-18.48-55.929-5.2139-6.1368-24.124-47.118-3.6395-29.037 14.534 24.752 31.648 48.06 46.459 72.871 13.096 23.08 29.318 45.111 29.276 73.317 6.6595 48.424 4.7098 99.73-18.718 143.75-19.482 44.442-47.678 87.838-92.58 109.92-26.824 14.7-55.072 28.981-86.573 27.966-43.054 1.0558-86.861 4.4349-129.64-1.5457zm-17.715-56.574c-13.706-9.4619-4.2792 11.726 0 0zm-85.78-37.722c-5.259-13.863-16.053-19.836-6.5016-1.2654 0.98497 1.4993 5.9591 5.4416 6.5016 1.2654zm-35.431-50.963c-5.0731-12.808-6.9214 9.8745 0 0zm424.58-26.522c-0.54574-30.197-10.79 31.882-0.57178 3.9829l0.57175-3.983 3e-5 3e-5zm-99.325-116.61c10.431-10.115-29.454-27.618-12.595-5.5756 2.6208 4.0015 7.4274 8.7662 12.595 5.5756zm-4.5094-25.335c-4.6382-7.343-4.6382 7.3429 0 0zm-280.09-7.945c-3.2392-31.62 44.839-1.6814 35.635-35.06-8.8217-26.016-28.093 1.7779-43.738 6.0817 2.9797 9.2681-15.262 36.653 8.1022 28.979zm2.0592-25.377c-1.731-9.3816 11.642 9.5346 0 0zm-37.076 1.6369c12.307-13.466 5.2489-52.85-17.338-28.725-9.559 9.1749-26.296-17.422-25.594 7.8866-12.041 23.182 27.89-17.713 28.268 10.907 3.684 1.555 11.759 19.032 14.663 9.9312zm213.48 65.735c2.5132-7.0119 7.8343 6.7471 0 2e-5v-2e-5zm-7.002-9.7105c13.966-20.328 4.6026 10.424 0 0zm-86.895-11.25c-3.1031-15.731 9.9924 11.099 0-1e-5v1e-5zm68.722 2.0439c6.9877-7.7411 6.9877 7.7411 0 0zm-76.456-13.039c10.946-12.247 7.3694 7.6934 0 0zm-20.513-48.551c3.9014-6.6621 3.6163 9.1608 1e-5 0h-1e-5zm-6.8304-56.759c-3.0867-11.675 9.8205-28.757 10.494-9.4244-1.5885 2.4199-6.6907 18.32-10.494 9.4244zm-69.625-17.493c12.086-21.743 12.068 2.8973 0 0zm18.559-13.429c10.69-12.331-0.35267 12.254 0 0zm26.196-32.216c4.0263-6.8561 5.1685 4.1916 0 0z" fill="#6e924e"/>
   <path id="path1364" d="m324.02 833.85c-24.724-7.5716-56.062-1.239-74.663-22.754-20.038-5.6775-54.32-10.864-64.54-36.551 27.291-15.013-31.182-21.006-29.373-45.719-2.8382-9.2694 23.991 15.186 11.08-2.7941-7.1248-17.201 16.542 21.067 27.001 19.137 16.656 12.764 4.116-31.304 18.027-8.6914 6.8675 7.8585 35.242 24.181 18.536 2.3181-2.9897-10.962-10.564-17.984-8.7-25.032-17.359-3.5581-19.024-9.7973-16.433-24.586-14.024-8.4448-8.5105-23.7-31.047-23.874-11.885-13.215-17.147-1.3842-20.931-0.07032-8.795-16.675-24.51-19.66-38.046-22.089-2.1819-25.298-27.162-32.806-18.03-61.983 0.97874-28.943 5.9493-57.902 13.678-85.652 9.2463-19.226 17.723-29.498 31.618-37.097-12.252-18.819 16.37-48.871 35.664-26.879 23.984 0.15371 47.387 12.188 69.19 11.267 7.275 12.374-25.703 14.004-3.2654 16.356 14.177-3.473 41.507-8.9636 24.423 13.067-3.8421 18.116 31.718 2.1732 12.723 18.549-26.205 9.3587-15.654-40.765-44.79-21.014-7.8229 0.9244-21.192 2.7934-8.0353 8.8141-17.996-3.0118-21.921 46.455-1.8933 32.298 7.4451-24.266 11.775 0.77705 7.6472 12.433 18.029 24.28 44.644 44.003 75.429 47.357 21.352 7.3372 35.739 29.752 59.457 17.765 14.452 2.9948 37.336 19.294 48.044 11.278-17.728-3.0385-18.042-31.933 4.0412-23.203-17.499 18.811 42.666 4.8831 27.744-14.268-6.1995-18.442-49.177 2.5667-32.454-23.263 24.272-6.5054 47.978 26.04 66.266 15.092-11.739-25.782 40.561 8.3748 30.785-16.757-9.8103-7.3083-50.987-27.906-17.511-28.993 12.3 10.526 26.008-7.7321 32.783 11.661 18.518 2.1826-24.873-28.454 6.2286-17.199 21.606 4.4978-0.13398 24.282 20.007 23.666 9.3461 19.431 25.648 15.28 13.761-5.7109 12.655-30.391-24.958-44.369-34.463-67.92-10.511-22.12 33.745-2.8359 35.157 10.513 8.6311 12.371 13.258 36.594 22.943 42.389-4.8768-26.456 22.521 10.887 12.23-11.39-6.2029-25.368-20.175-48.663-32.661-71.651-13.729-10.599-1.8535-32.403 6.9447-9.2098 15.175 27.682 34.226 53.364 46.332 82.634 1.6258 13.701-2.4091 30.68 14.442 22.873 11.644 21.946 12.073 49.437 12.638 74.178 0.44721 32.522-1.4265 65.736-16.53 95.291-19.565 54.403-56.866 104.6-111.34 127.61-35.771 21.219-78.001 21.917-118.33 21.706-27.178-0.70672-55.236 3.4785-81.784-3.8956zm12.576-33.496c-14.559-6.7206-23.079-1.3092-2.8162 2.1878l2.4084-0.47751 0.40789-1.7103v1e-5zm-73.98-8.8478c13.223 3.6155-25.502-31.296-11.071-8.3545 6.7817 9.8964-5.7715 9.2093 11.071 8.3545zm42.734-13.491c-13.706-9.4619-4.2792 11.726 0 0zm-32.266-15.495c-14.626-14.887 28.147-16.303 5.3853-28.951-8.7091-3.561-51.065-10.713-40.13 1.1712 13.654 2.6042 32.851 14.399 8.3722 17.935-22.465-2.4399 32.371 21.125 26.373 9.8446zm46.811-1.7971c9.3454-16.288-22.7-6.1553-10.202-22.817-9.0042-29.42-33.333-3.9297-16.656 14.913 6.2517 6.4811 18.135 13.363 26.858 7.9039zm19.021-8.1342c-11.284-11.762-7.2928 11.002 0 0zm-80.185-31.101c-6.9909-11.888-6.4079 7.0268 0 0zm-30.779-30.39c-12.317-9.6913 8.209 12.787 0 0zm383.12-24.817c8.5358-33.099-27.337 5.875-4.7371 11.431 3.156-3.0201 3.8045-7.4298 4.7371-11.431zm-168.66-79.213c-2.5132-7.0119-7.8343 6.7471-1e-5 1e-5l1e-5 -1e-5zm12.901-3.0399c8.9486-11.473-23.573 4.9011 0-1e-5v1e-5zm45.099-20.605c-14.68-6.1047 5.7117 8.7627 0 0zm-265.92-25.538c-4.4764-7.5415-2.955 7.0258 0 0zm318.88-2.7258c-8.5381-16.582-5.3878 11.054 0 0zm57.119-2.0416c-8.64-7.1566 2.0273 11.259 0 0zm-105.6-12.257c-4.6382-7.343-4.6382 7.3429 0 0zm-315.15-31.393c15.769-17.295 2.4945-59.146-20.003-29.246-6.588 12.134-19.12-25.547-22.819 0.76441-5.2092 15.872-2.5818 19.638 10.904 8.9246 17.238-11.038 21.163 28.609 31.918 19.558zm-86.37 147.45c-6.1486-17.444 12.096-1.5201 0 0zm293.82-93.826c22.456-16.656 5e-5 10.122 0 0zm-19.105-7.0938c6.9877-7.7411 6.9877 7.7411 0 0zm-72.726-15.133c4.6382-7.3431 4.6382 7.3429 0 0zm326.34-8.4008c2.4079-8.9896 3.9166 7.0261 0 0zm-404.83-24.921c-1.731-9.3816 11.642 9.5346 0 0zm54.257-13.135c3.9014-6.6621 3.6163 9.1608 1e-5 0h-1e-5zm-1.9585-59.949c-7.8362-15.387 10.522-19.662 4.6875-4.4162 0.86288-5.4658-3.3483 7.7175-4.6875 4.4162zm-29.743-59.949c4.0263-6.8561 5.1685 4.1916 0 0z" fill="#6a9231"/>
   <path id="path1362" d="m324.02 833.85c-24.724-7.5716-56.062-1.239-74.663-22.754-20.038-5.6775-54.32-10.864-64.54-36.551 27.291-15.013-31.182-21.006-29.373-45.719-2.8382-9.2694 23.991 15.186 11.08-2.7941-7.1248-17.201 16.542 21.067 27.001 19.137 16.832 12.191 4.1533-32.369 19.04-7.6288 15.275 9.5108 50.521 35.027 60.197 23.39-11.865-15.18 26.689-11.141 7.0499-29.735 15.244-11.207 4.6621 34.987 29.004 30.633 18.54 4.8196 13.562-17.71-1.443-13.701 8.3367-20.768-22.456-43.997-39.349-40.312 8.4986 25.131-23.122 4.4726-36.848 11.601-14.492-7.5189-41.045-14.023-18.976-31.188 10.964-3.2844 45.017 24.573 28.709-3.8524-16.187-1.9567-24.422-34.439-46.571-20.913-14.418-26.672-51.577 5.1473-56.989-25.486-22.234-19.853-50.764-43.362-38.802-77.409 5.1225-22.599 9.9038 33.024 17.353 18.678-16.556-24.315-9.8098-56.276-6.1472-83.357 10.501 0.33372 30.175 7.0321 15.804-9.3296 12.809-2.6245 30.449 5.6539 23.749 17.769 15.002 12.597 34.014 10.365 48.823 23.246 20.996 4.153 36.413 11.77 50.426 27.364 28.35 6.2459 57.852 11.955 82.654 27.255 15.998 19.692 40.057-2.082 59.742 14.138 15.449 7.5702 28.401 8.9706 36.057-9.5647 20.184-3.0077 36.047-26.358 8.1532-33.301-13.402 5.125-35.87-6.0709-14.542-14.75 27.348 2.3859 48.311 20.177 75.166 25.821 14.409 1.8581 33.753 36.426 34.741 29.555-12.744-7.3653-10.375-44.798 5.4101-28.549 24.841 14.783-18.431-28.538-28.602-33.276-14.786-2.622-40.569-28.356-9.6602-23.258 11.739 9.0236 24.278-7.9093 30.773 10.964 18.518 2.1826-24.873-28.454 6.2286-17.199 21.644 4.3476-0.18435 24.454 19.998 23.462 10.431 10.098 31.616 35.339 40.064 31.661-14.821-24.947-18.627-57.043-39.121-80.261-16.326-6.2928-38.96-48.061-5.5727-31.461 27.316 11.212 27.849 46.858 44.779 67.69 3.8327 15.797 24.643 35.678 17.731 5.5636-2.9776-28.689-19.101-52.454-30.384-78.195-2.4714-9.0333-29.213-40.364-9.6684-36.301 18.268 30.116 39.274 59.285 52.312 92.247 4.2535 12.82-1.7214 54.224 12.792 49.564 0.38047-10.904 4.5825-37.191 8.4326-11.249 8.1868 39.177 7.5056 80.153 1.326 119.52-18.734 61.073-50.29 124.35-109.96 154.31-30.819 17.722-65.374 29.111-101.25 27.844-37.22-0.74186-75.566 5.0705-112.13-3.3111zm-76.794-34.616c2.7979-15.63 31.349 1.4614 12.808-15.676-10.662-17.66-47.06-6.5924-26.274 13.716 2.4213 5.1182 11.818 11.544 13.465 1.9603zm89.37 1.1204c-14.559-6.7206-23.079-1.3092-2.8162 2.1878l2.4084-0.47751 0.40789-1.7103v1e-5zm-31.245-22.339c-13.706-9.4619-4.2792 11.726 0 0zm33.566-25.426c-11.284-11.762-7.2928 11.002 0 0zm-21.538-48.431c-13.167-7.3785-28.949 7.8493-3.4998 1.3124l3.4998-1.3125 1e-5 2e-5zm-10.505-11.775c0.43722-11.708-24.448 11.032-2.1904 5.1235l1.4588-1.7612 0.73167-3.3623-1e-5 -2e-5zm-13.742-9.001c-8.6522-4.2066-0.13976 9.71 0 0zm-12.955-3.6218c-15.971-16.014 0.35327 10.212 0 0zm331.83-11.602c8.8062-25.362-15.838-19.125-15.757 0.62555 2.3868 11.66 15.108 11.987 15.757-0.62555zm-389.05-42.783c-7.703-6.353-21.338-23.125-13.05-4.2066 8.5307 4.6495 33.8 21.49 13.05 4.2066zm148.01-3.6568c-11.339-1.8785 3.4047 3.6698 0 0zm-183.67-9.5623c-10.618-5.3348 7.365 11.364 0 0zm13.95-5.5177c12.357-22.971-18.444 12.971 0 0zm282.62-3.602c4.1596-20.511-10.312-0.51381-5.0599 6.7326l2.268-1.9777 2.7919-4.7549v-3e-5zm-320.38-0.06128c1.3587-14.27-7.2609-22.044-6.6664-2.1599-1.2858 4.1308 11.531 10.068 6.6664 2.1599zm299.35-3.1373c16.297-35.552-50.127-13.687-19.24 4.8539 6.1348 3.3343 20.354 7.0405 19.24-4.8539zm-17.333 1.2596c19.838-19.894 16.412 12.012 0 0zm-297.25-10.718c-15.624-10.774-9.755 7.3882 0 0zm405.11-10.675c-9.3779-12.962-4.4889 9.025 0 0zm-399.28-35.97c-3.47-16.027-21.606 5.3489 0 0zm399.28-8.5751c-8.5381-16.582-5.3878 11.054 0 0zm-426.57-6.0936c-13.241-2.1342 1.2946 3.3534 0 0zm378.08-8.2054c-4.6382-7.343-4.6382 7.3429 0 0zm-359.9-22.588c-6.6708-11.447-17.889 6.9974 0 0zm61.582 171.68c-9.6154-9.7589 22.536 4.3049 0 3e-5v-3e-5zm-103.2-33.042c-6.1486-17.444 12.096-1.5201 0 0zm293.82-93.826c22.456-16.656 5e-5 10.122 0 0zm-19.105-7.0938c6.9877-7.7411 6.9877 7.7411 0 0zm-182.88-14.352c-0.65175-17.778 13.303 6.0419 0 0zm110.16-0.78082c4.6382-7.3431 4.6382 7.3429 0 0zm-128.67-10.404c-17.261-2.0724-18.914-22.973 0.34126-7.9392 10.03 6.1675 30.573-3.5546 11.235 9.0583-3.5607 2.5738-8.3211 1.0636-11.577-1.1191zm24.242-12.296c6.035-12.433 6.0349 12.433 0 0zm71.421-7.0554c-16.446-1.4266-8.9358-37.556-33.535-22.232-19.321 4.3251-45.669 3.6983-47.203-18.948-18.831 8.6854-37.376 8.505-54.074-5.454 10.571-35.857 40.7-9.2327 64.466-10.784 11.761 14.839 51.611-4.0214 43.197 19.313-26.204 8.6268 18.458 4.1978 27.665 2.8249-5.0436 13.47-6.5582 31.973 14.231 26.702 0.06623 7.7512-7.7697 11.717-14.748 8.578zm8.7646-16.702c3.9014-6.6621 3.6163 9.1608 1e-5 0h-1e-5zm-1.9585-59.949c-7.8362-15.387 10.522-19.662 4.6875-4.4162 0.86288-5.4658-3.3483 7.7175-4.6875 4.4162zm-29.743-59.949c4.0263-6.8561 5.1685 4.1916 0 0z" fill="#669313"/>
   <path id="path1360" d="m324.02 833.85c-24.724-7.5716-56.062-1.239-74.663-22.754-20.038-5.6775-54.32-10.864-64.54-36.551 27.291-15.013-31.182-21.006-29.373-45.719-2.8382-9.2694 23.991 15.186 11.08-2.7941-7.1248-17.201 16.542 21.067 27.001 19.137 16.832 12.191 4.1533-32.369 19.04-7.6288 15.275 9.5108 50.521 35.027 60.197 23.39-11.865-15.18 26.689-11.141 7.0499-29.735 15.244-11.207 4.6621 34.987 29.004 30.633 18.54 4.8196 13.562-17.71-1.443-13.701 10.256-19.418-28.302-50.734-40.376-36.187 8.2656 19.376-25.293 0.09707-35.822 7.4765-14.492-7.5189-41.045-14.023-18.976-31.188 10.756-5.0884 41.811 25.508 30.656-2.2533-14.901-11.053-29.596-32.463-48.749-22.453-13.688-26.77-51.592 5.0852-56.669-25.612-18.099-19.281-48.592-36.865-39.987-68.18-2.2634-16.452 8.7818-20.652 8.3703-1.7292 1.8875 20.871 23.665 7.6029 24.708 19.13 10.589 12.616 31.383-9.2395 26.327 13.823 6.0429 10.869 19.828-5.7382 26.268 12.283 8.126 9.5781 24.344-16.811 26.504 8.1468 7.1433-9.9533 33.399 9.4518 10.348 1.2818-12.282-0.67518 25.551 23.127 12.811 2.312 22.908 14.995-17.409-32.381 7.182-11.724 11.342 14.645 36.044 21.326 52.336 22.048 6.4621-18.236-26.479-37.987-43.207-26.449-7.0266-12.007-14.26-25.782-21.573-10.432-14.472-5.3966-11.136-28.824-34.461-25.493-18.717-6.6921-46.763-6.1251-39.983-32.188-14.154-12.213-36.028-6.8775-46.959-14.054 0.95778-15.735-1.5814-41.399 22.193-28.352 21.042-2.5845 30.965 20.764 53.407 18.006 15.937 21.081 50.732 10.283 62.731 37.038 28.706 6.7874 57.69 13.286 84.027 26.513 16.233 22.943 41.669 0.09267 62.467 16.441 15.449 7.5702 28.401 8.9706 36.057-9.5647 20.184-3.0077 36.047-26.358 8.1532-33.301-13.402 5.125-35.87-6.0709-14.542-14.75 27.348 2.3859 48.311 20.177 75.166 25.821 20.566 10.696 41.575 52.074 56.938 14.805-15.447-21.793-34.442-43.857-60.055-54.695-25.163-14.44 3.6053-19.808 17.045-12.178 9.1244-15.599 23.936 21.801 22.701 2.3465-30.82-23.989 29.024-10.099 10.962 8.0787 20.955 4.4459 32.86 32.183 51.948 37.584-13.989-24.89-18.223-55.53-36.843-79.454-11.845-3.9372-43.119-47.983-14.099-35.234 30.377 3.5735 32.469 42.228 46.96 63.106 5.2225 13.705 27.258 45.139 21.212 10.534-2.9776-28.689-19.101-52.454-30.384-78.195-2.4714-9.0333-29.213-40.364-9.6684-36.301 18.268 30.116 39.274 59.285 52.312 92.247 4.2535 12.82-1.7214 54.224 12.792 49.564 0.38047-10.904 4.5825-37.191 8.4326-11.249 8.1868 39.177 7.5056 80.153 1.326 119.52-18.734 61.073-50.29 124.35-109.96 154.31-30.819 17.722-65.374 29.111-101.25 27.844-37.22-0.74186-75.566 5.0705-112.13-3.3111zm-76.794-34.616c2.7979-15.63 31.349 1.4614 12.808-15.676-10.662-17.66-47.06-6.5924-26.274 13.716 2.4213 5.1182 11.818 11.544 13.465 1.9603zm89.37 1.1204c-14.559-6.7206-23.079-1.3092-2.8162 2.1878l2.4084-0.47751 0.40789-1.7103v1e-5zm-31.245-22.339c-13.706-9.4619-4.2792 11.726 0 0zm33.566-25.426c-11.284-11.762-7.2928 11.002 0 0zm-21.538-48.431c-13.167-7.3785-28.949 7.8493-3.4998 1.3124l3.4998-1.3125 1e-5 2e-5zm-10.505-11.775c-1.2603-6.7161-36.624-18.409-30.716-9.0464 5.9947 4.4949 27.366 23.758 30.716 9.0464zm305.13-24.225c8.8062-25.362-15.838-19.125-15.757 0.62555 2.3868 11.66 15.108 11.987 15.757-0.62555zm-213.98-6.034c-6.836-12.788-13.446-14.288-15.895-3.1724-17.538 5.804 13.199 6.7772 15.895 3.1724zm18.115-10.804c-14.509 2.7348-1.0318-7.7308-5.5666-11.285-14.24 5.3738-13.604 24.214 5.5666 11.285zm-21.62-13.649c-14.431-3.8274-23.463-20.882-43.961-15.993-21.435-0.92746-41.473-5.1303-59.045-12.653-4.4441 5.7382 20.057 8.8918 21.967 20.721 13.8 5.1588 23.358-9.856 37.969 1.0523 15.017-7.6062 36.501 17.355 43.07 6.872zm88.888-32.862c5.4756-17.949-48.123-39.199-48.261-7.4937 8.3719 10.503 40.95 19.025 48.261 7.4937zm69.954-69.649c-8.5381-16.582-5.3878 11.054 0 0zm-48.484-14.299c-4.6382-7.343-4.6382 7.3429 0 0zm-401.52 116.05c-6.1486-17.444 12.096-1.5201 0 0zm112.48-35.546c4.7224-7.4209 5.1267 3.981 0 0zm-101.5-30.513c-9.2128-29.071 20.479 8.6813 0 3e-5v-3e-5zm-4.7951-27.182c5.9431-11.784 3.9474 8.3236 0 0zm287.63-0.58453c22.456-16.656 5e-5 10.122 0 0zm-19.105-7.0938c6.9877-7.7411 6.9877 7.7411 0 0zm-72.726-15.133c4.6382-7.3431 4.6382 7.3429 0 0zm-33.007-29.755c-16.446-1.4266-8.9358-37.556-33.535-22.232-19.321 4.3251-45.669 3.6983-47.203-18.948-18.831 8.6854-37.376 8.505-54.074-5.454 10.571-35.857 40.7-9.2327 64.466-10.784 11.761 14.839 51.611-4.0214 43.197 19.313-26.204 8.6268 18.458 4.1978 27.665 2.8249-5.0436 13.47-6.5582 31.973 14.231 26.702 0.06623 7.7512-7.7697 11.717-14.748 8.578zm8.7646-16.702c3.9014-6.6621 3.6163 9.1608 1e-5 0h-1e-5zm-1.9585-59.949c-7.8362-15.387 10.522-19.662 4.6875-4.4162 0.86288-5.4658-3.3483 7.7175-4.6875 4.4162zm-29.743-59.949c4.0263-6.8561 5.1685 4.1916 0 0z" fill="#516d4e"/>
   <path id="path1358" d="m336.91 833.3c-11.818-8.3554 15.166-6.4562 5.4476-20.627 30.055-9.6628-28.253-36.073-30.272-11.934-15.569 13.591-24.103-19.786-43.082-15.528-11.893-16.79-31.165-16.635-41.733-5.2844-2.7082-7.6129-34.731-9.1722-22.861-18.014 11.341 11.485 17.041-0.90655 8.9249-10.536 20.331-6.8543 53.866 36.663 65.105 14.379-8.285-17.791 28.612 3.5548 10.067 4.9161-3.6926 33.473 42.107 10.006 55.209 11.629-12.483-6.9666-32.38-18.191-11.333-22.179 29.132 12.789-1.0921-24.857-7.1957-35.004-2.6942-17.685-22.949-19.296-14.588-4.4462-13.029 9.0716-40.703-31.791-42.605-5.0922 3.0671 12.826-20.4-3.9322-29.393 2.9506-11.59 4.8348-21.656-13.642-31.263-15.421 0.16905-18.213 15.048-21.112 22.042-4.7665 5.9177-7.9874 18.328 13.089 14.975-6.3214-8.7544-19.931-34.339-33.719-51.734-30.907-15.67-23.013-50.002 6.8886-55.179-23.203-16.954-18.751-47.276-35.072-39.864-65.04-1.5065-14.385 7.3178-27.054 8.2476-4.8696 1.8875 20.871 23.665 7.6029 24.708 19.13 10.589 12.616 31.383-9.2395 26.327 13.823 6.0429 10.869 19.828-5.7382 26.268 12.283 8.126 9.5781 24.344-16.811 26.504 8.1468 7.1433-9.9533 33.399 9.4518 10.348 1.2818-12.282-0.67518 25.551 23.127 12.811 2.312 22.908 14.995-17.409-32.381 7.182-11.724 11.342 14.645 36.044 21.326 52.336 22.048 6.4621-18.236-26.479-37.987-43.207-26.449-7.0266-12.007-14.26-25.782-21.573-10.432-14.472-5.3966-11.136-28.824-34.461-25.493-18.717-6.6921-46.763-6.1251-39.983-32.188-14.172-12.21-35.996-6.8788-46.979-14.059 0.18351-16.246 0.4234-39.842 23.028-28.508 21.413-3.1521 29.602 22.232 52.107 18.715 13.835 21.359 49.798 7.8987 60.658 34.14 26.225 13.894 62.316 16.022 83.495 35.82-4.6025 11.073 13.268-0.35152 20.9 9.459 23.25-16.738 53.02 18.174 71.692 3.1443 2.9428-15.032 27.061-21.482 14.694-3.3363 11.076 12.608 57.755 26.571 51.066-1.7989-22.538 1.663-42.567-43.501-9.6768-32.747 24.461-5.0685 41.705 19.359 57.191 35.413 17.957-4.8232 27.899-16.43 12.322-30.925-7.6787-10.176-43.112-35.793-15.976-37.298 9.7283 22.617 0.40967-14.867 14.745 2.9811 4.1803 14.985 20.977 18.457 13.809-1.4187 8.6812 14.849 27.521 19.69 38.731 31.421-11.431-23.831-18.109-51.82-31.302-76.545-8.7113-11.626 6.6226-28.275 10.533-5.7946 10.62 16.545 25.168 53.72 38.413 54.502 5.1648-27.762-17.706-55.929-17.415-79.25 25.613 17.017 29.936 48.721 33.348 76.054-3.686 16.972 12.594 27.21 10.681 4.11 5.6159-29.508 11.39 38.206 11.592 49.797 3.1025 38.593-2.001 78.138-20.461 112.6-17.13 39.547-40.551 78.201-77.833 101.68-30.761 18.942-64.491 35.698-101.42 35.929-37.811 1.5431-76.674 4.145-114.11-1.5218zm-19.529-129.14c-13.167-7.3785-28.949 7.8493-3.4998 1.3124l3.4998-1.3125 1e-5 2e-5zm-10.505-11.775c-1.2603-6.7161-36.624-18.409-30.716-9.0464 5.9947 4.4949 27.366 23.758 30.716 9.0464zm304.78-23.597c11.278-20.423-15.008-25.155-13.533-3.2134-6.3502 11.118 12.03 20.534 13.533 3.2134zm-213.62-6.6617c-6.836-12.788-13.446-14.288-15.895-3.1724-17.538 5.804 13.199 6.7772 15.895 3.1724zm18.115-10.804c-14.509 2.7348-1.0318-7.7308-5.5666-11.285-14.24 5.3738-13.604 24.214 5.5666 11.285zm-21.62-13.649c-14.431-3.8274-23.463-20.882-43.961-15.993-21.435-0.92746-41.473-5.1303-59.045-12.653-4.4441 5.7382 20.057 8.8918 21.967 20.721 13.8 5.1588 23.358-9.856 37.969 1.0523 15.017-7.6062 36.501 17.355 43.07 6.872zm-167.23 164.98c-15.644-2.5109-18.001-14.249-8.4499-24.376 8.2736 1.1201 32.31 39.822 8.4499 24.376zm78.061-32.095c-4.8974-6.9208 10.99 5.0124 0 0zm-108.16-15.133c2.7835-5.9731 4.1951 6.4842 0 0zm84.053-23.477c-0.56851-14.619 11.755 9.1592 0 0zm-178.07-97.335c-2.1734-10.024 6.4694 3.3702 0 0zm112.66-33.246c4.7224-7.4209 5.1267 3.981 0 0zm-101.5-30.513c-9.2128-29.071 20.479 8.6813 0 3e-5v-3e-5zm-4.7951-27.182c5.9431-11.784 3.9474 8.3236 0 0zm89.036-75.98c-0.17771-12.449-3.9361-21.994-18.044-21.572 5.629-22.102 54.245-2.0167 45.315 9.6459-24.325 0.75639 26.613 12.389-4.144 12.742-7.6374 0.13403-15.638 1.0584-23.127-0.8167zm10.591-14.302c-2.5203-20.199-11.477 12.578 0 0zm-50.466 0.22876c-12.133-2.5304-19.209-6.282-2.5221-13.063 5.4205-1.756 9.0292 12.048 13.342 1.256 3.6372 9.0648-0.52464 24.554-10.82 11.807z" fill="#588911"/>
   <path id="path1356" d="m336.91 833.3c-11.818-8.3554 15.166-6.4562 5.4476-20.627 30.055-9.6628-28.253-36.073-30.272-11.934-15.569 13.591-24.103-19.786-43.082-15.528-11.893-16.79-31.165-16.635-41.733-5.2844-2.7082-7.6129-34.731-9.1722-22.861-18.014 11.341 11.485 17.041-0.90655 8.9249-10.536 20.331-6.8543 53.866 36.663 65.105 14.379-8.285-17.791 28.612 3.5548 10.067 4.9161-3.6926 33.473 42.107 10.006 55.209 11.629-12.483-6.9666-32.38-18.191-11.333-22.179 29.132 12.789-1.0921-24.857-7.1957-35.004-2.6942-17.685-22.949-19.296-14.588-4.4462-15.328 5.8744-43.183-21.747-12.902-21.086 33.972-6.8899-26.866-28.396-31.527-20.8-18.501 22.7-43.03-22.266-66.043-18.464-17.434-10.483-41.89-7.4365-56.125-9.6798-9.241-29.618-55.939-41.005-46.424-77.77-1.4744-14.169 7.1595-27.16 8.3069-5.0663 4.858 32.71 51.596 10.93 56.903 39.197 14.982 3.3323 27.798 11.154 42.946 5.0056 7.3547 21.327 35.202 20.75 52.913 31.112 22.705 6.6668 47.47-5.8543 71.868-1.4427 17.15 0.91175 37.633-8.6962 40.183 16.454 19.139 22.846 43.924-9.1328 65.25 3.913 7.9715-12.651-33.044-29.923-49.811-33.122-24.826-15.723-58.024-7.272-84.002-20.246-24.72-4.309-51.445 1.827-67.478-20.769-22.293-15.094-53.529-17.582-75.795-30.129 1.4228-26.132-32.325-27.68-51.988-30.283-2.1465-19.472 1.8239-40.892 25.803-28.526 18.49 1.8601 28.978 19.845 48.559 17.909 13.83 21.373 49.804 7.9038 60.664 34.149 26.225 13.894 62.316 16.022 83.495 35.82-4.6025 11.073 13.268-0.35152 20.9 9.459 23.25-16.738 53.02 18.174 71.692 3.1443 7.6748-17.96 21.952-18.924 16.925-1.0996 12.257 8.113 49.957 25.9 55.305 14.648-2.5416-18.057-16.898-26.432-32.683-34.595-10.761-28.146 30.622-19.41 41.897-10.249 20.479 6.9469 25.796 38.399 52.48 27.387 7.4156 14.809 29.192 10.248 12.182-3.3964-12.125-21.443-40.491-38.5-46.265-59.657 6.1055-17.962 21.054 18.574 14.326-4.2497 10.475-6.8759 27.569 36.665 23.899 4.3056 5.9713 5.4393 28.53 23.489 39.233 27.322-11.777-25.195-20.584-51.997-32.591-77.475-6.8461-11.307 8.6643-23.583 11.428-2.988 10.62 16.545 25.168 53.72 38.413 54.502 5.1648-27.762-17.706-55.929-17.415-79.25 25.613 17.017 29.936 48.721 33.348 76.054-3.686 16.972 12.594 27.21 10.681 4.11 5.6159-29.508 11.39 38.206 11.592 49.797 3.1025 38.593-2.001 78.138-20.461 112.6-17.13 39.547-40.551 78.201-77.833 101.68-30.761 18.942-64.491 35.698-101.42 35.929-37.811 1.5431-76.674 4.145-114.11-1.5218zm0.64737-124.31c11.41-25.259-52.729-5.1199-32.325-2.4034 14.613-4.9098 22.464-1.484 32.325 2.4034zm16.226-5.9181c-6.5577-11.019-14.775 9.9989-1e-5 3e-5l1e-5 -3e-5zm257.87-34.282c11.278-20.423-15.008-25.155-13.533-3.2134-6.3502 11.118 12.03 20.534 13.533 3.2134zm-152-11.726c-1.5868-16.736-26.47 10.343-2.1072 0.51472l2.1072-0.51473-1e-5 1e-5zm70.518-31.977c-11.968-7.8594-2.2406 16.693 1e-5 1e-5l-1e-5 -1e-5zm-49.878-0.67614c-9.4475-14.447-10.938 14.376 0 0zm27.507-1.5888c-12.798-28.85-19.796 18.731 0 0zm75.378-13.523c-6.8781-32.7-9.8926 22.47 0 0zm-355.88 193.36c-15.644-2.5109-18.001-14.249-8.4499-24.376 8.2736 1.1201 32.31 39.822 8.4499 24.376zm78.061-32.095c-4.8974-6.9208 10.99 5.0124 0 0zm-108.16-15.133c2.7835-5.9731 4.1951 6.4842 0 0zm84.053-23.477c-0.56851-14.619 11.755 9.1592 0 0zm-22.954-13.72c-16.209 2.4534-45.756-2.809-50.489-19.079 4.1562-21.374 14.883-8.5615 23.894-0.43231 5.7366-10.254 9.6369 14.25 17.418-4.1083 9.7996-4.9946 35.716-7.5012 29.6 4.4076-21.798-3.7513 2.1294 35.384-20.423 19.212zm-155.11-83.615c-2.1734-10.024 6.4694 3.3702 0 0zm95.408-166.92c-0.17771-12.449-3.9361-21.994-18.044-21.572 5.629-22.102 54.245-2.0167 45.315 9.6459-24.325 0.75639 26.613 12.389-4.144 12.742-7.6374 0.13403-15.638 1.0584-23.127-0.8167zm10.591-14.302c-2.5203-20.199-11.477 12.578 0 0zm-50.466 0.22876c-12.133-2.5304-19.209-6.282-2.5221-13.063 5.4205-1.756 9.0292 12.048 13.342 1.256 3.6372 9.0648-0.52464 24.554-10.82 11.807z" fill="#4e6f2e"/>
   <path id="path1354" d="m340.31 835.42c-6.5013-10.845 27.722-36.379-2.8251-42.051-21.721-15.747-29.807 29.028-44.727 2.1057-23.144-9.9664-42.939-33.545-71.933-21.298-14.309 5.9174-28.272-22.304-9.3618-7.5537 15.554 0.29661-9.0293-25.919 14.677-14.078 18.251 6.8848 56.142 37.66 54.479 5.4253 12.203 6.8775 15.101 7.0161 7.2991 17.914 5.3464 27.802 39.341 1.9222 56.062 7.8894-7.0911-10.807-36.973-15.769-11.65-23.562 26.763 15.01 16.877-35.026-2.743-34.108 8.3615-6.5231 31.633 9.1193 8.0036-5.4285-14.263-1.4304-17.417-28.909-3.6915-11.052 17.451-6.4693-18.208-28.067-23.151-9.3856-0.64489-24.447-27.659-15.74-41.914-27.927-19.043-3.3035-7.7092 7.8875-4.018 10.203-28.734 15.382-41.212-39.672-68.83-21.78-11.777-27.101-51.557 2.692-55.503-24.155-17.722-16.861-43.021-29.89-41.858-58.514 10.993-1.8482 25.464 22.756 43.51 16.554 14.813-0.90433 9.4247-3.1631 14.241 12.154 7.3879 10.14 18.861-8.6836 24.323 9.6658 11.885 12.923 26.071-21.174 24.637 5.6837 20.066 16.019 46.432 22.823 70.656 28.739 7.8632-11.129 34.128-14.512 48.204-3.2626 8.6135-10.304 31.48-8.5577 41.383-3.3442 2.5438 31.454 34.852 25.38 53.386 13.293 14.695 7.5047 30.767 3.4746 10.582-9.9493-19.632-12.906-42.98-16.979-61.636-30.142-15.198 11.278-40.65-12.382-49.057-3.9627-12.524 0.49736-27.916-16.087-35.953-4.7986-11.749-9.2008-22.146-10.044-33.272-5.131-7.4952-23.952-26.25-14.432-41.363-30.802-14.971-2.3285-35.125-7.434-49.436-12.818 4.5674-24.742-21.227-29.019-38.507-35.092-21.025 16.407-11.851-41.262 10.223-23.518 19.064-0.28609 27.812 21.809 47.456 17.761 20.327 17.19 51.239 13.527 66.841 37.995 27.206 6.2743 56.943 12.264 80.097 27.44-4.2439 13.22 13.022 4.41 23.407 11.399 25.783-17.436 60.093 28.416 76.342-2.9249 7.7834-2.9408 16.565 20.981 30.254 22.893 9.0129 16.49 0.80825-15.211 16.824-1.8681 13.362 7.9208 26.657 2.5937 13.646-9.7529 8.9212-22.212-43.493-18.517-25.971-44.263 26.637-1.9503 52.084 12.138 64.577 35.304 11.813 11.99 29.79-10.044 40.515 10.715 18.305-7.6704-19.298-26.441-18.107-41.476-7.0395-8.9616-41.407-32.15-20.405-36.737 8.5426 12.215 6.5857 8.5761 7.9206-0.79634 11.949 1.965 15.585 25.541 29.087 14.237 22.373 6.1937 20.568 37.15 36.754 44.069-1.0424-26.027-13.059-49.144-21.702-74.636-5.5343-11.572-26.175-40.729-9.833-41.887 15.405 23.691 21.246 55.14 44.177 72.86 12.932 14.778 0.02055-36.987-2.8464-46.654-7.3308-17.851 2.9523-22.678 10.661-4.2406 6.2481 22.171 1.0095 57.14 14.975 70.85 4.6211-11.575 8.4904-26.936 12.027-4.7876 12.841 14.009-12.667 52.824-3.5993 51.986 10.363-13.275 3.4529 25.98 4.1235 33.162-5.2851 28.211-18.193 54.402-29.952 80.303-15.296 30.148-36.246 57.19-64.61 75.975-32.052 20.632-68.306 37.045-107.08 36.742-35.253 0.86396-70.562 1.3926-105.81 0.4163zm255.51-134.95c-5.8156-27.805-6.9354 27.722-0.05651 3.7616l0.0565-3.7616 1e-5 -1e-5zm-242.05 2.594c-6.5577-11.019-14.775 9.9989-1e-5 3e-5l1e-5 -3e-5zm256.96-23.781c14.091-11.842 3.3876-51.339-11.555-24.722-8.6444 18.112-16.927 28.169 11.555 24.722zm-363.2-3.3104c-8.6339-8.1113-3.6198 7.5272 0 0zm190.56-10.75c-11.34-1.8786 3.4048 3.6698 0 0zm11.189-1.8917c-11.34-1.8786 3.4046 3.6698 0 0zm10.36-6.2744c-1.5868-16.736-26.47 10.343-2.1072 0.51472l2.1072-0.51473-1e-5 1e-5zm-92.76 0c-4.4763-7.5415-2.955 7.0258 0 0zm-16.433-8.8588c-11.34-1.8787 3.4046 3.6698 0 0zm123.66-17.624c-17.12-12.856 7.8974 13.603 0 0zm56.054-5.4935c-11.968-7.8594-2.2406 16.693 1e-5 1e-5l-1e-5 -1e-5zm-49.878-0.67614c-9.4475-14.447-10.938 14.376 0 0zm27.507-1.5888c-12.798-28.85-19.796 18.731 0 0zm73.542 4.011c-11.548-7.3763-27.87-22.02-9.0018-3.1031 2.0824 1.0463 7.5096 8.3517 9.0018 3.1031zm2.339-17.534c-2.2336-33.105-13.92 21.257 0 0zm41.404-7.2244c-6.0116-5.1853-0.43859 8.8909 0 0zm4.6822-17.367c-4.2204-10.975-14.908-51.35-12.592-16.102 1.8941 3.5465 8.2834 30.531 12.592 16.102zm-454.95-44.927c-4.6382-7.343-4.6382 7.343 0 0zm38.711 256.54c-4.3785-19.396 18.257 8.928 0 0zm91.823-25.754c-4.8974-6.9208 10.99 5.0124 0 0zm-108.16-15.133c2.7835-5.9731 4.1951 6.4842 0 0zm105.26-36.106c1.651-15.786 22.072 8.7276 0 0zm-55.242-3.2227c-13.057 1.6751-55.536-13.276-28.896-23.871 14.262 12.559 28.043 10.816 43.468 6.579 7.2922 11.907-0.55213 22.238-14.572 17.292zm34.83-11.746c2.5132-7.0119 7.8343 6.7471 0 2e-5v-2e-5zm-4.2882-6.0524c-9.5061-3.8938-39.862-5.3053-11.809-5.9834 5.4891-11.948 21.273 9.918 11.809 5.9834zm320.68-230.29c-20.776-31.647 27.581 9.0882 4.2668 4.6721l-4.2669-4.672 1e-5 -1e-5zm-388.65-1.5088c-16.876 2.8209-12.122-26.324-28.239-23.124 10.03-15.958 46.924-1.6152 46.466 12.183-28.28-0.50397 21.632 12.171-4.6438 11.789-4.5283-0.27682-9.0562-0.55975-13.584-0.84748zm-0.60456-13.106c-2.5203-20.199-11.477 12.578 0 0zm-49.171-2.7094c-23.48-4.0735-0.36303-9.5875 7.0434-6.7515 8.0819-8.7216 2.0426 21.888-7.0434 6.7515z" fill="#4a7114"/>
   <path id="path1352" d="m340.31 835.42c-6.5013-10.845 27.722-36.379-2.8251-42.051-21.721-15.747-29.807 29.028-44.727 2.1057-23.144-9.9664-42.939-33.545-71.933-21.298-14.309 5.9174-28.272-22.304-9.3618-7.5537 15.554 0.29661-9.0293-25.919 14.677-14.078 18.251 6.8848 56.142 37.66 54.479 5.4253 12.203 6.8775 15.101 7.0161 7.2991 17.914 5.3464 27.802 39.341 1.9222 56.062 7.8894-7.0911-10.807-36.973-15.769-11.65-23.562 26.763 15.01 16.877-35.026-2.743-34.108 16.974-11.357 39.876 29.406 44.248-4.5757-4.8253-10.287-12.694-14.996 1.457-16.012-23.612-15.13-58.142-7.6654-81.925-24.893-21.903-17.239-46.401 3.2005-66.595-13.904-21.275-12.896-48.493-18.398-74.231-19.867-15.244-9.6625-36.645-32.946-50.114-51.192-12.889-22.713 5.0967-22.059 15.991-6.1636 17.42 5.4455 35.584 5.5562 46.838 22.413 19.503 11.864 37.657-4.472 48.681 15.721 22.195 10.995 51.134 30.273 75.27 16.964 25.222-0.90073 50.732 0.26815 73.778 4.7058 7.0516 34.566 46.662 12.605 69.7 15.839 13.591-0.83681 56.55 4.9222 38.146-18.187-29.456 3.6271-55.399-9.4172-81.002-22.061-25.11-6.969-52.332-13.145-77.217-13.607-19.296-12.517-49.633-3.6584-65.359-16.869-18.919-18.276-44.213-22.184-68.069-31.65-26.312 3.4833-13.559-31.591-39.608-31.104-10.505-12.837-38.357 5.0201-28.719-17.818 0.47446-29.543 40.572-6.0859 52.689 3.915 20.952 4.3282 45.02 16.277 65.815 24.286 16.967 24.168 51.587 19.901 76.495 31.999 16.047-3.4889 18.513 22.123 23.02 16.745 24.463 8.5631 53.052-3.5328 77.289 13.997 14.778 8.3567 21.335-30.622 27.959-3.8801 22.289 18.328 43.07 38.621 74.485 38.234 16.137 15.399 39.863 9.8606 50.265 20.859 19.428-12.043-23.528-24.447-28.201-39.326-21.812-0.38095-44.009-12.524-50.161-32.424-15.902 0.63808-38.069-28.332-12.798-27.864 31.21-3.1787 45.824 26.3 66.463 40.98 26.197-1.8562 38.779 35.648 61.791 25.901 0.27403-28.6-30.839-31.162-42.942-53.16-6.3073-17.037-40.729-30.814-30.642-47.028 8.2717 3.3706 14.334 16.997 9.7624 1.1573 13.342-4.3286 16.643 26.087 30.887 13.027 22.602 3.7806 21.716 44.164 37.795 42.462-1.6968-28.774-15.794-55.142-26.95-81.391-12.112-7.7599-16.523-50.277-1.367-26.052 12.853 23.207 20.846 52.185 42.389 68.112 8.8766-1.4295-4.9271-42.061-6.1285-57.252-3.5866-25.364 20.953 15.12 14.577 26.041 0.63729 15.227 6.3346 69.903 18.976 33.9 9.6506 5.8428 8.6296 43.118-0.30546 58.16-4.8955 9.7238-8.6686 25.61 7.3847 19.668 1.7091 28.546-15.161 53.384-23.151 79.715-13.641 28.821-29.016 57.868-53.704 78.562-25.38 22.297-56.641 37.75-88.75 47.397-47.113 8.037-95.82 4.7189-143.49 4.8351zm156.66-111.14c2.8646-22.76-7.7338 13.178 0 0zm-21.319 1.0001c31.179-13.187-62.925-16.353-21.373 0.09885 6.9153 2.3058 14.409 1.5442 21.373-0.09885zm-74.773-4.748c28.84-5.338-21.456-17.442-19.549-0.38828 6.4802 3.9471 12.675-1.3012 19.549 0.38828zm33.134 0.84449c-4.6382-7.3431-4.6383 7.343 0 0zm161.81-20.853c-3.5402-27.067-14.302 20.801-0.31103 6.2241l0.31104-6.224-1e-5 -2e-5zm14.912-21.236c16.304-15.697 0.72009-51.648-17.642-24.265 4.9053 15.902-15.006 28.535 17.642 24.265zm-83.484-7.8372c-7.2817-12.948-20.007 10.602-0.40797 1.1483l0.408-1.1483-3e-5 1e-5zm-21.521-9.5757c-27.1-11.252 3.4769 27.05 0 0zm124.7-70.015c-1.4172-13.439-16.566-60.182-12.859-21.819 3.3663 10.642 1.1019 59.388 12.859 21.819zm-455.62-52.082c-4.6382-7.343-4.6382 7.343 0 0zm38.711 256.54c-4.3785-19.396 18.257 8.928 0 0zm91.823-25.754c-4.8974-6.9208 10.99 5.0124 0 0zm-108.16-15.133c2.7835-5.9731 4.1951 6.4842 0 0zm105.26-36.106c1.651-15.786 22.072 8.7276 0 0zm-55.242-3.2227c-13.057 1.6751-55.536-13.276-28.896-23.871 14.262 12.559 28.043 10.816 43.468 6.579 7.2922 11.907-0.55213 22.238-14.572 17.292zm351.22-248.09c-20.776-31.647 27.581 9.0882 4.2668 4.6721l-4.2669-4.672 1e-5 -1e-5zm-388.65-1.5088c-16.876 2.8209-12.122-26.324-28.239-23.124 10.03-15.958 46.924-1.6152 46.466 12.183-28.28-0.50397 21.632 12.171-4.6438 11.789-4.5283-0.27682-9.0562-0.55975-13.584-0.84748zm-0.60456-13.106c-2.5203-20.199-11.477 12.578 0 0zm-49.171-2.7094c-23.48-4.0735-0.36303-9.5875 7.0434-6.7515 8.0819-8.7216 2.0426 21.888-7.0434 6.7515z" fill="#334a2c"/>
   <path id="path1350" d="m421.97 835.26c-23.913-3.6846-52.707 6.0384-72.965-10.574-0.76175-12.912 28.375 3.4266 12.274-11.206-13.797-6.7887 22.777-9.3917-2.6878-17.146 1.1719-7.3526 42.134-14.44 11.22-18.21-21.963 7.2155-22.921-36.899-13.833-36.22 28.153 6.6527-24.435-14.927 1.0282-11.817 10.88 21.073 24.166-16.07 9.0705-23.048 23.61-1.857-20.319-14.264-29.974-12.487-16.678-4.2016-30.144-5.7368-47.241-18.2-2.7765 5.9966-31.961-19.691-36.913-0.37776-8.8056-9.8653-18.967 5.0484-29.87-13.853-14.044-13.728-28.471-1.5055-42.76-15.979-21.106-8.3089-33.937 10.724-41.891-13.753-14.068-15.952-42.923-29.107-37.185-54.555 10.496 17.633 36.976 13.894 44.635 26.455-16.008 13.341 13.135-2.3567 18.562 10.293 13.687 0.62565 28.152 8.7724 40.316 1.7586 5.1308 25.474 43.301 25.113 64.033 36.082 17.674-2.771 29.63-13.261 51.433-6.0809 8.7438 4.4926 23.123-6.0098 33.704 4.7817 13.193-10.229 16.676 26.879 36.858 19.503 24.768-9.6449 35.702-1.9051 58.525-4.8116 8.7595-5.9946 16.081 8.9375 27.431-6.1761-2.918-27.291-45.905-3.4529-62.226-23.871-19.189-5.0051-36.615-25.685-54.193-18.436-8.4349-3.3084-25.956-0.56844-35.768-12.707-8.9088 16.226-29.629-8.1121-43.073 0.39467-14.773-15.131-36.815 4.1817-41.711-23.132-17.949 3.7092-26.726-16.498-38.595-12.994-18.701-4.909-45.152-5.8728-43.822-32.27-18.872-0.72227-28.292-20.824-45.384-10.579 5.6214-20.449 34.828-28.974 48.495-6.0942 23.675-0.07732 44.241 18.906 67.601 23.352-2.2963 25.077 43.243 14.901 57.473 30.932-21.55 4.247 10.644 20.994 9.0586 1.6608 15.465 2.7836-17.777 24.444 9.7215 19.702 22.888 7.9183 48.373-1.0767 72.103 2.3076 16.323 12.132 42.126 9.8701 52.559 2.6868 7.8223 8.7546-1.9214 19.751 16.434 11.583 16.577 9.7483 20.545 25.514 44.459 23.31 19.191-5.8556 45.082 25.631 51.215 20.174 8.2419-13.475 23.522 18.371 24.927-4.2526-18.823-12.869-31.64-33.312-54.544-35.026-18.154-4.9499-29.307-17.339-23.356-33.89-13.732 7.7588-23.867-5.6586-9.0739-15.531 31.403-5.939 35.159 37.463 63.687 36.914 4.4696 5.4792 17.497-2.5822 20.78 11.89 7.0241 14.769 27.314 16.775 34.29 8.1829-5.0723-29.163-37.894-29.07-46.954-56.554 10.093 6.3591 24.502 5.8696 24.632-6.3826-24.303 6.2308 0.72605-19.681 7.0643 1.2568-0.02981 14.393 21.49 39.673 18.883 12.047-6.8875-23.791-12.787-45.565-19.206-68.589 13.169 23.8 39.158 42.06 33.814 72.493 11.74 9.6699-0.79672 35.586 7.0467 41.194 1.8803-17.163 14.282-34.085 14.244-44.841-18.075 5.0631-15.146-36.807-14.434-48.846 3.6268 11.285 2.2455 51.538 16.584 40.701-3.6038-15.578 11.844-28.129 5.4362-5.598 11.055 21.829-15.349 45.924-6.4671 63.322 25.641-1.5039-2.3644 33.992 1.4463 47.276-9.2887 16.755-17.322 34.073-22.805 45.219-8.8362 25.664-24.773 48.646-45.983 65.6-19.479 18.192-43.097 32.981-69.151 38.622-20.282 13.984-48.368 10.851-72.309 14.474l-4.6678 0.13756-2.0029-0.21949 1e-5 1e-5zm-42.81-66.349c-14.967 0.14337-18.026-36.419-17.371-7.9694 1.7424 3.8842 15.766 12.265 17.371 7.9694zm6.3778-19.161c-6.9877-7.7412-6.9877 7.7411 0 0zm167.87-8.5558c3.63-9.2713-9.9436 9.2221 0 0zm-54.58-9.5729c-9.3021-2.3636-0.71411 11.134 0 0zm91.84-6.4462c13.419-15.022 5.0129-50.697-2.7868-21.529 7.1082 3.9703-10.69 46.657 2.7868 21.529zm-202.33 5.6582c-5.7213-6.0816-0.58489 6.5102 0 0zm169.89-3.271c-3.7018 3.4799 2.518 7.218 0 0zm-61.243-3.2838c2.8646-22.76-7.7338 13.178 0 0zm-21.319 1.0001c31.179-13.187-62.925-16.353-21.373 0.09885 6.9153 2.3058 14.409 1.5442 21.373-0.09885zm103.05-5.3084c-7.6725-1.386-4.6797 11.508 0 0zm-177.82 0.56036c28.84-5.338-21.456-17.442-19.549-0.38828 6.4802 3.9471 12.675-1.3012 19.549 0.38828zm33.134 0.84449c-4.6382-7.3431-4.6383 7.343 0 0zm73.645-22.678c-2.0054-4.0252-7.8487 6.2932 0 0zm83.928-14.742c6.0042-12.697 26.521 12.885 23.052-12.384 12.297-18.969-6.2264-36.5-21.324-19.881-10.77-12.518 10.434 20.777-5.3832 25.159-5.4797 7.8612-6.5747 21.341 3.6555 7.1058l1e-5 -1e-5zm-77.038-3.5966c-11.339-1.8785 3.4046 3.6699 0 0zm12.704-8.9095c-7.2817-12.948-20.007 10.602-0.40797 1.1483l0.408-1.1483-3e-5 1e-5zm-21.521-9.5757c-27.1-11.252 3.4769 27.05 0 0zm49.842 3.3519c-11.34-1.8786 3.4046 3.6698 0 0zm-60.955-13.841c-9.7404-7.2942-2.0725 7.8334 0 0zm-301.16-8.6701c-5.2355-7.9043-5.8771 9.8532 0 0zm302.56-3.9326c-13.241-2.1342 1.2946 3.3532 0 0zm104.89-42.255c-5.2409-10.876-5.2409 10.876 0 0zm-330.14-15.003c-2.9483-11.789-10.954 6.7489 0 0zm-10.642-4.387c-9.6717-11.342-7.8766 10.274 0 0zm-21.912-9.097c-9.3378-7.8608-4.4463 10.465 0 0zm-55.104-7.2424c-18.056-9.6588 0.63405 4.903 0 0zm21.187-4.4905c-8.1976-11.317-24.78-1.944-3.7635 3.6122l2.4544-0.94275 1.3092-2.6694v-1e-5zm-26.914-17.975c-18.258-13.814-2.4224 28.79 0 2e-5v-2e-5zm61.67 173.66c-14.026-2.2624-19.643-15.817-1.5726-5.8802 9.5953 8.354 23.14-18.042 22.109 5.9902-6.5698 1.7664-13.849 0.5635-20.536-0.11003zm-23.216-15.204c2.7835-5.9731 4.1951 6.4842 0 0zm-67.132-98.366c4.6382-7.3431 4.6382 7.343 0 0zm161.43-9.244c4.4921-14.832 10.405 7.0112 0 0zm227.99-31.817c-10.803-11.312 11.069-13.701 12.647 1.6317-3.8453 2.2514-9.2416 0.87868-12.647-1.6317zm-427.26-45.982c7.071-15.659-0.56727 10.985 0 0z" fill="#324e15"/>
   <path id="path1348" d="m421.97 835.26c-23.913-3.6846-52.707 6.0384-72.965-10.574-0.76175-12.912 28.375 3.4266 12.274-11.206-13.797-6.7887 22.777-9.3917-2.6878-17.146 1.1719-7.3526 42.134-14.44 11.22-18.21-22.186 7.6424-23.323-39.57-12.401-35.713 9.7545 4.7232-2.4707 30.352 21.028 26.212 32.245 6.0105 12.366-25.611-6.8396-23.488 11.721-31.267 45.247 10.136 68.417 1.1703 27.743 4.5914 47.998-14.786 74.42-16.018 10.858 0.30747 29.615-8.0906 23.902 9.8276 19.955 17.352 27.94-38.93 35.977-20.634-1.6311 12.629 19.767-15.756 11.736 5.3175-0.76574 21.674 14.529-21.716 17.12-20.722-5.5856-13.596-12.291-30.669 8.1856-19.621 27.192-2.2265 10.242 23.261 3.0572 33.726-7.5686 25.533-23.592 47.605-44.312 64.063-19.479 18.192-43.097 32.981-69.151 38.622-20.282 13.984-48.368 10.851-72.309 14.474l-4.6678 0.13756-2.0029-0.21949 1e-5 1e-5zm77.941-88.486c-8.9563-9.7296-4.2506 17.682 0 0zm51.592-21.195c6.382-18.481 11.487 1.2862 2e-5 -1e-5l-2e-5 1e-5zm-312.44-13.591c-14.026-2.2624-19.643-15.817-1.5726-5.8802 9.5953 8.354 23.14-18.042 22.109 5.9902-6.5698 1.7664-13.849 0.5635-20.536-0.11003zm291.93-0.47491c-21.723 2.9225 5.4479-18.52-17.44-14-14.587 5.2927-24.882 20.514-45.487 13.166-27.932-6.7875-54.057 0.59337-80.169-12.101-28.768-7.8947-60.747-2.0528-87.034-18.005-23.044-15.8-48.64-5.4861-71.642-15.699-22.824-15.198-52.238-18.378-79.066-23.14-12.996-19.568-46.116-33.615-44.353-58.037 6.9431 17.08 43.364 5.4915 36.909 23.125-10.751 9.7096 16-5.0443 19.469 7.2742 23.41 8.0117 43.15 1.5197 59.792 22.624 26.57 9.7764 51.774 20.763 79.143 9.5909 26.809 3.083 57.414-3.1678 72.344 21.894 23.967 10.605 48.574-5.2816 73.607-0.74388 10.037 1.8757 23.803-4.5014 29.817 6.2799 18.465 10.562 47.695 9.9262 67.163 2.4033-20.425-14.564-46.352-20.473-67.903-32.163-25.759-2.2822-53.223-0.44019-74.659-17.941-23.019-13.622-52.104-7.1271-74.35-21.187-22.776 7.8492-46.414-9.9965-70.589-7.1462-15.545-11.239-33.247-27.593-55.339-30.3-17.189-6.4851-40.495-7.8791-41.995-30.139-15.123-11.333-63.192-12.531-27.633-32.658 17.386 0.66976 26.639 20.095 44.978 16.847 13.687 16.522 52.894 10.286 51.586 33.092 17.448 8.3048 42.529 8.1555 55.913 20.463-22.116 0.912 12.595 23.041 7.6004 1.1849 20.232-0.43871-16.957 24.689 11.666 19.403 22.888 7.9183 48.373-1.0767 72.103 2.3076 16.323 12.132 42.126 9.8701 52.559 2.6868 7.8214 8.7569-1.9199 19.75 16.437 11.583 16.97 22.189 45.944 26.357 71.542 34.959 19.81 9.829 41.367 22.727 61.11 25.329 3.0137-22.033 18.333 24.555-6.0447 21.882-21.579-4.5964-20.133 24.706-40.034 17.166zm-337.52-68.799c-5.2355-7.9043-5.8771 9.8532 0 0zm77.308-61.191c-2.9483-11.789-10.954 6.7489 0 0zm-10.642-4.387c-9.6717-11.342-7.8766 10.274 0 0zm-21.912-9.097c-9.3378-7.8608-4.4463 10.465 0 0zm-33.917-11.733c-8.1976-11.317-24.78-1.944-3.7635 3.6122l2.4544-0.94275 1.3092-2.6694v-1e-5zm-26.914-17.975c-18.258-13.814-2.4224 28.79 0 2e-5v-2e-5zm38.454 158.45c2.7835-5.9731 4.1951 6.4842 0 0zm365.01-39.874c-25.748-11.891-41.022-39.75-69.544-43.832-19.459-2.8019-20.298-18.435-25.894-31.478-27.78 4.6624-5.3564-28.71 10.805-11.47 20.203 15.247 32.528 38.953 61.034 42.083 8.8391 15.201 31.103 23.264 40.023 32.525-10.233-0.27178-7.1318 15.576-16.425 12.172zm41.888-2.2423c-11.765-13.855 36.197-35.063 22.936-7.7237 0.61823 9.9442-18.185 15.718-22.936 7.7237zm-12.871-14.834c-14.36-15.9 3.4624-49.809-7.8632-72.419-0.98647-16.553-24.299-55.935-17.563-57.973 5.9795 15.829 21.814 26.895 28.739 40.737 0.30046 23.862 4.129 47.504 7.0212 70.939 11.826-18.369 26.408-43.311 6.0231-56.885 9.3408 19.48 19.259-17.314 19.908 9.4662-3.8995 23.837-13.629 49.307-27.846 67.956l-3.2663-0.45542-5.153-1.3659-2e-5 3e-5zm-21.958-38.739c-11.561-10.863-31.525-15.864-35.536-34.325 10.474 18.266 36.844-12.159 10.775-5.4454 15.251-22.188 29.358 25.443 32.253 38.282 0.62215 7.254-5.6668 9.0951-7.4921 1.4887zm-277.77-11.921c4.4921-14.832 10.405 7.0112 0 0zm231.02-33.232c-15.203-25.509 27.652 14.745 2e-5 3e-5l-2e-5 -3e-5zm78.417-21.802c1.2807-24.465 5.4697 13.868 0 0z" fill="#283526"/>
   <path id="path1346" d="m415.73 829.25c-12.531-10.651 1.7475 9.0919-16.214 3.4272-23.498 7.7008 7.6117-23.637-14.716-21.634-1.7303 7.905-6.3628 21.685-17.82 17.677 16.125-14.972-4.0417-38.727 18.191-45.529-5.5109-7.8853-37.876-12.473-9.9241-12.425 24.269 8.239 28.826-18.864 7.0452-25.622-21.027 11.195-3.1527-27.263 9.2628-9.4756 24.98 11.187 50.998 13.991 77.997 8.7187 11.949-9.9936 22.383-11.645 29.249-6.8788 8.1649-10.526 30.377-9.1329 39.804-7.5727-5.1784 12.709 10.957 10.781 12.257 17.922 3.3763-7.5832 27.804-50.732 21.236-23.819-12.878 30.97 16.526-19.154 14.262-4.6343-7.1184 14.228 1.3176 23.859 6.1605 4.6966 2.4444-17.594 23.184-7.2593 11.189-21.64-3.5098-2.7655-13.858-35.297 4.0314-14.908 17.466-16.867 23.116 24.561 10.821 17.273-8.3596-24.176-2.5084 36.815-20.27 44.283-16.231 23.569-39.274 42.543-63.81 57.218-28.577 9.3732-50.495 24.873-82.386 25.167-12.109-0.79352-26.293 7.0578-36.365-2.2426zm81.687-52.784c-10.621-18.808-3.7797 7.9894 0 0zm2.4868-29.691c-8.9563-9.7296-4.2506 17.682 0 0zm-146.07 1.0842c10.761-15.215 4.7844 13.835 0 0zm197.67-22.279c6.382-18.481 11.487 1.2862 2e-5 -1e-5l-2e-5 1e-5zm-20.513-14.066c-21.249 2.4786 5.363-19.555-19.121-13.897-13.652 0.72689-16.003 22.217-36.226 13.638-26.835-7.3196-54.278 1.4148-78.688-10.618-28.437-9.435-60.468-3.616-87.548-16.444-15.361-10.561-48.959-13.396-51.187-30.562 24.543 1.9014 46.207-12.664 72.401-5.7281 15.961 1.921 32.71 1.9708 38.1 19.393 27.337 10.619 55.444-1.8504 83.739-0.00279 24.271 3.9578 41.655 20.847 70.794 14.403 18.715 1.6831 25.905-10.113 4.6754-15.173-26.685-8.3532-49.602-29.303-77.962-23.599-24.574-0.75036-53.651-17.475-68.893-28.272 11.722-6.6825 21.641 9.7972 33.86-3.6015 14.067 3.3691 0.0485 33.254 23.472 15.348 12.921-16.235 30.927 16.978 51.071 14.106 28.552 1.4444 51.216 24.292 77.848 30.85 13.107 15.27 8.6767-22.088 17.621 3.6584 2.061 14.367-8.776 16.931-14.258 11.992 2.4272 16.449-30.49 3.4496-26.21 25.703-4.557 0.87555-9.032-0.56785-13.49-1.1935zm-199.53-35.628c-8.1117-12.035-9.7235 11.707 0 0zm-40.093-11.285c-15.27-12.353-6.0327 13.691 0 0zm-41.957 5.7009c4.6383-7.343 4.6381 7.3431 0 0zm-18.182-3.1452c-6.8612-10.238 32.121-25.456 19.114-6.6574-6.4327 2.4608-11.005 10.254-19.114 6.6574zm349.62-10.258c-25.756-11.871-41.022-39.743-69.544-43.82-20.726-1.8821-32.3-30.437-4.2707-30.098 10.911 12.371 30.254 26.901 49.679 28.253 3.9769 11.669 50.405 36.047 24.135 45.664zm45.242 0.13233c-15.028-11.102 9.0738-19.16 20.001-25.293 3.0607 12.762-12.531 32.818-20.001 25.293zm-428.9-5.6459c2.7834-5.9732 4.1952 6.4842 0 0zm394.66-8.5124c4.6502-10.121 8.7455 9.588 0 0zm17.457-3.4507c-10.983-20.361 2.2158-54.557-8.2106-80.072 0.87278-13.384 10.917 7.1867 9.7688 9.9327 8.5047 17.418 5.3315 47.505 7.1488 61.852 7.6059-7.8416 14.156-49.814 22.862-38.944-6.2046 14.103-10.81 53.157-31.569 47.231zm-466.81-4.4312c2.9154-6.9698 0.82067-25.209 15.439-18.962 9.6321-0.91114 22.864 3.3443 16.193 11.718 10.425-19.419 32.637 10.609 8.1199 5.6518-10.023 0.19235-21.763 2.0505-19.996-10.29-8.8058-2.2102-12.922 15.154-19.756 11.882zm55.014-13.181c5.8524-9.9454 3.1218 9.5346 0 0zm-66.732-1.2308c-17.945-6.9959-30.049-36.891-3.8983-20.418 2.2402-0.55718 11.286 31.07 3.8983 20.418zm211.87-8.0193c7.8788-5.7904 26.302-9.7277 9.2494-0.67543-2.5099 0.23853-6.9748 3.7453-9.2494 0.67543zm-32.634-4.6823c1.1721-6.2498 7.0444 6.4721 0 0zm21.445 1.0574c2.9869-6.1876 7.8644 4.0756-1e-5 1e-5l1e-5 -1e-5zm256.45-7.8388c-9.9814-8.0978-32.506-20.634-33.675-30.906 13.42 14.86 22.801-13.643 31.898 6.8702 4.3581 3.2607 15.287 42.89 1.7773 24.035zm-313.33-1.9598c-7.9563-4.5836-34.016 0.33691-26.953-13.959 6.0558 11.366 51.252 1.6026 32.394 17.189l-5.4407-3.2305 1e-5 -3e-5zm26.186 3.1968c0.75262-8.6848 10.488 7.2157 0 0zm-161.38-2.0223c2.7834-5.9732 4.1952 6.4841 0 0zm76.68-30.174c-16.589 4.723-18.522-15.634-3.7537-13.486 2.2541 5.1896 30.011 22.175 3.7537 13.486zm-30.06-7.5476c5.688-9.5373 12.749 8.4678 0 0zm-21.134-7.0477c-2.7071-9.8804-15.636-48.302-0.27061-23.33 0.21938 4.614 8.5603 26.344 0.27061 23.33zm13.675-4.5255c4.1957-11.093 2.083 12.828 0 0zm13.975-3.6832c-5.6525-17.927 20.415 12.171 0 0zm413.39-0.1496c-1.7716-12.347 10.892 12.087 0 0zm-429.91-12.801c-8.4223-17.739 17.892 6.7314 0 0zm-32.702-4.7876c1.7587-14.287 13.118 8.7404 0 0zm2.3155-13.576c-1.1388-10.87 11.771 7.6759 0 0z" fill="#253219"/>
   <path id="path1344" d="m419.82 831.26c-12.112-4.7081-15.389-19.736-13.447-24.585-17.853-3.97-28.292 8.4468-28.899 17.82-20.172 12.445 8.3883-20.013-5.5286-31.008 23.104-1.997 14.843-22.034-4.443-18.415-13.471-11.909 50.557 13.133 38.312-18.636-2.029-12.51-44.131-10.76-21.358-20.423 24.465 6.6768 46.425 20.098 72.394 22.003 10.475 21.234-1.7748-7.5585 17.237-7.7166 10.53-6.7901 24.468-20.765 15.173 1.2862-4.4946 26.463 29.009 0.24355 11.863-13.367 8.8546-3.6166 31.611-11.743 32.996-0.73141-2.7617 13.051 22.165 2.7948 9.4856 20.145 0.29099 13.649 13.634-30.466 27.629-18.145 14.823-28.251-1.5822 23.701 16.777 8.4982 16.652 32.454-51.382 7.9302-28.849 36.699-9.859 17.973-36.541 29.001-55.479 31.132-13.647 11.57-42.136 15.098-65.412 16.143-6.2379-0.24348-12.921 4.2792-18.451-0.69885zm102.77-51.621c-5.8965 3.0045-19.468-17.841-13.522 1.7967 4.0744 3.4047 9.8876 0.97252 13.522-1.7967zm-23.31-1.5801c-4.9588-20.939-16.227-3.0424-0.92606 1.8948l0.92605-1.8948 1e-5 -3e-5zm-104.43 52.466c5.8652-18.976 25.903 10.442 1.9006 1.8325l-1.421-0.76996-0.47964-1.0626h1e-5zm166.11-55.079c1.4794-9.6736 1.7869 7.7248 0 0zm-93.229-66.948c-24.055-12.175-50.254 1.1104-74.075-12.019-16.44-4.2307-37.582-4.8797-47.42-14.777-10.543 22.936-56.358-4.9972-34.851-28.062 8.3584-8.8859 32.443-0.01167 45.281 2.4344 3.9204 19.716 30.211 11.078 29.547 31.841 19.424-17.491 47.251-21.469 74.417-17.695 19.173 16.185 45.443 12.438 69.427 14.362 22.491 0.7005 21.804-14.998 1.3618-19.495-15.048-6.6812-41.422-14.832-48.743-22.812 27.487-0.14826 49.962 18.215 73.129 28.026 11.173 6.2193 38.889 10.47 12.493 16.048-16.719 3.4388-21.708 26.649-36.251 18.47 6.9687-21.429-36.821-7.8574-44.234 3.1032-6.5971 1.3964-13.401 0.88518-20.081 0.57576zm-52.37-25.471c29.836-13.059-24.045-4.8298-3.5664 1.1928l3.5664-1.1928 1e-5 -2e-5zm-83.797-3.7997c17.502-17.122-26.404-32.252-6.7792-13.988 6.0159 1.9808-7.9983 22.725 6.7792 13.988zm287.23 17.885c-6.6856-20.8 13.452 7.6555-1e-5 2e-5l1e-5 -2e-5zm-322.59-21.845c-8.1271-3.2717-48.871-18.107-32.003-18.917 7.6592 4.8415 47.883-16.96 31.075 3.5841-17.255-1.0592-10.34 14.992 2.3747 7.4104 0.02011 3.9478 14.089 16.021-1.446 7.9226zm272.06-29.299c-21.248-18.551-41.041-31.676-66.809-40.919-25.411-7.5859 10.241-33.374 16.449-8.4656 22.05 16.774 59.456 22.874 67.242 52.795-4.0314 8.9565-12.417-0.25808-16.882-3.41zm-55.943-48.495c-5.9807-10.052-5.0968 9.8258 0 0zm115.15 54.5c-10.253-15.028 33.203-9.3498 6.6207 0.79164l-3.1518-0.12298-3.469-0.66868 3e-5 2e-5zm-200.03-15.236c-8.9868-0.88198-34.459-23.721-13.139-20.001 4.723 34.695 34-7.3275 47.443 14.745 20.824 12.965-21.191 7.8739-34.304 5.2552zm-242.86-5.6273c-9.5299-15.784 22.126-0.96282 0-3e-5v3e-5zm-19.048-6.0833c-1.9889-18.807 15.124 9.8399 0 0zm443.75-14.988c-3.723-17.688 9.0699-20.055 6.8624-1.8294-0.05091 11.716-7.6501 28.986-6.8624 1.8294zm16.849 10.969c4.1512-16.074 7.457-1.9994-1e-5 3e-5l1e-5 -3e-5zm-241.19-4.8816c-1.6403-9.7739 9.8933 4.475 0-1e-5v1e-5zm-106.65-19.599c4.4506-11.669 11.583 7.737 0 0zm307.69-1.8917c-13.109-0.17374-34.559-23.481-9.9252-15.144 7.891-11.268 25.07 30.754 9.9252 15.144zm21.445-19.974c4.1546-12.258 3.6184 14.796 0 0z" fill="#1c2617"/>
   <path id="path1342" d="m420.45 827.29c-6.3432-18.553 22.511 12.45 0-1e-5v1e-5zm21.03-0.521c7.4351-7.5724 25.376-27.287 2.5984-16.708-17.233-20.657-56.477 7.4279-65.627-12.573 10.648-15.638 41.811-27.742 29.647-51.505 18.788 11.172 43.691 11.577 59.136 23.892-7.2927-15.317 25.515-30.245 16.66-5.7538 3.2617 17.189 25.229 20.986 10.092 37.843-1.3563 19.795-24.994 12.567-33.101 5.6267-2.2253 8.1449-8.5608 22.972-19.406 19.178zm26.942-29.317c2.3677-15.631 24.271 9.1364 10.888-11.606 5.3292-16.186-24.069-10.883-8.1452-0.08266-9.0929 2.2719-14.482 31.777-2.7431 11.689zm-37.199-6.0563c-8.5531-13.385-20.963 14.473 0 0zm14.452-14.882c11.857-17.929-23.335-6.9713-6.99 3.4967-2.5714 9.6611 7.2838-1.2449 6.99-3.4967zm40.908 45.004c6.7234-10.046 4.0589 6.0804 0 0zm14.958-9.792c-12.167-15.756 27.182-29.376 31.648-27.598 5.3441 12.051 18.308-16.18 21.229 6.539-14.061 9.5434-36.148 23.861-52.878 21.059zm13.972-38.577c-7.7526-17.82-13.637-44.161 14.299-37.581-7.7011 17.913 27.782 8.0173 7.1587 27.313-6.5927 10.038-23.066-14.057-14.417 5.9102 2.4934 4.099-4.4678 6.7457-7.041 4.3584zm-17.246-2.7325c10.431-22.761 18.483 3.264 0 0zm51.37-8.1511c3.9713-25.305 18.379 3.7702 0 0zm25.174-1.1624c-31.182-6.4785 15.973-15.593 4.6966 1.8498l-2.822-0.5541-1.8747-1.2957 1e-5 -2e-5zm-190.63-20.059c6.0947-2.0855 4.9838 3.5125 0 0zm69.603-39.71c-10.379-10.551-61.565 4.2184-29.218-13.842 2.7264-6.1605 3.6687 14.451 13.812 1.3832 16.125-0.88979 31.917 1.277 46.734-4.3958 21.326-0.73451 58.116 11.248 69.194-11.103 30.438 3.0136-7.8236 32.566-22.689 18.108-28.762-5.5791-49.845 27.239-77.831 9.8502zm2.6467-19.248c-3.1277-13.127-28.021-1.2197-7.5284-9.7378 15.124-3.0788 31.93 17.342 7.5284 9.7378zm112.42-38.789c-18.582-9.5131-0.17668-22.036 5.9886-4.492 16.458 3.9572 5.1264 19.746-5.9886 4.492zm-18.4-15.195c2.0368-25.019 13.654 4.6465 0 0zm-32.885-18.71c11.688-4.512-0.24617 8.5344 0 0zm93.612-4.3508c2.1396-20.412 4.8855 20.25 0 0z" fill="#171b13"/>
  </g>
 </g>
</svg>
