<?xml version="1.0" encoding="UTF-8"?>
<!-- Created with Inkscape (http://www.inkscape.org/) -->
<svg id="svg2" width="128" height="128" version="1.0" xmlns="http://www.w3.org/2000/svg" xmlns:cc="http://creativecommons.org/ns#" xmlns:dc="http://purl.org/dc/elements/1.1/" xmlns:rdf="http://www.w3.org/1999/02/22-rdf-syntax-ns#" xmlns:xlink="http://www.w3.org/1999/xlink">
 <defs id="defs4">
  <linearGradient id="linearGradient2338">
   <stop id="stop2340" stop-color="#b1b1b1" offset="0"/>
   <stop id="stop2342" stop-color="#e4e4e4" offset="1"/>
  </linearGradient>
  <linearGradient id="linearGradient2320">
   <stop id="stop2322" stop-color="#6a3c1d" offset="0"/>
   <stop id="stop2324" stop-color="#8f5127" offset="1"/>
  </linearGradient>
  <linearGradient id="linearGradient3405">
   <stop id="stop3407" stop-color="#4f3e2a" offset="0"/>
   <stop id="stop3409" stop-color="#72593c" offset="1"/>
  </linearGradient>
  <linearGradient id="linearGradient2810" x1="29.171" x2="27.52" y1="80.911" y2="90.512" gradientTransform="translate(.86486 .17297)" gradientUnits="userSpaceOnUse" xlink:href="#linearGradient2338"/>
  <linearGradient id="linearGradient2814" x1="84.761" x2="112.28" y1="100.17" y2="81.277" gradientTransform="translate(.86486 .17297)" gradientUnits="userSpaceOnUse" xlink:href="#linearGradient2338"/>
  <linearGradient id="linearGradient2818" x1="78.707" x2="74.732" y1="47.397" y2="54.369" gradientTransform="translate(.86486 .17297)" gradientUnits="userSpaceOnUse" xlink:href="#linearGradient2338"/>
  <linearGradient id="linearGradient2822" x1="34.369" x2="46.478" y1="54.491" y2="41.221" gradientTransform="translate(.86486 .17297)" gradientUnits="userSpaceOnUse" xlink:href="#linearGradient2338"/>
  <linearGradient id="linearGradient2826" x1="99.622" x2="101.52" y1="87.087" y2="89.289" gradientTransform="translate(.86486 .17297)" gradientUnits="userSpaceOnUse" xlink:href="#linearGradient2338"/>
  <linearGradient id="linearGradient2830" x1="96.686" x2="96.136" y1="84.824" y2="83.143" gradientTransform="translate(.86486 .17297)" gradientUnits="userSpaceOnUse" xlink:href="#linearGradient2338"/>
  <linearGradient id="linearGradient2834" x1="91.121" x2="92.467" y1="87.974" y2="88.28" gradientTransform="translate(.86486 .17297)" gradientUnits="userSpaceOnUse" xlink:href="#linearGradient2338"/>
  <linearGradient id="linearGradient2838" x1="64.205" x2="65.925" y1="102.47" y2="37.26" gradientTransform="translate(.86486 .17297)" gradientUnits="userSpaceOnUse" xlink:href="#linearGradient2338"/>
  <linearGradient id="linearGradient2842" x1="97.562" x2="97.688" y1="88.719" y2="89.812" gradientTransform="translate(.86486 .17297)" gradientUnits="userSpaceOnUse" xlink:href="#linearGradient2320"/>
  <linearGradient id="linearGradient2846" x1="97.656" x2="97.938" y1="92.156" y2="93.125" gradientTransform="translate(.86486 .17297)" gradientUnits="userSpaceOnUse" xlink:href="#linearGradient2320"/>
  <linearGradient id="linearGradient2850" x1="98.719" x2="99.75" y1="91.156" y2="91.156" gradientTransform="translate(.86486 .17297)" gradientUnits="userSpaceOnUse" xlink:href="#linearGradient2320"/>
  <linearGradient id="linearGradient2854" x1="95.969" x2="96.688" y1="92.062" y2="92.062" gradientTransform="translate(.86486 .17297)" gradientUnits="userSpaceOnUse" xlink:href="#linearGradient2320"/>
  <linearGradient id="linearGradient2858" x1="54.938" x2="55.969" y1="88.219" y2="89.062" gradientTransform="translate(.86486 .17297)" gradientUnits="userSpaceOnUse" xlink:href="#linearGradient2338"/>
  <linearGradient id="linearGradient2862" x1="56.438" x2="59.844" y1="90.938" y2="87.594" gradientTransform="translate(.86486 .17297)" gradientUnits="userSpaceOnUse" xlink:href="#linearGradient2338"/>
  <linearGradient id="linearGradient2866" x1="63.562" x2="64.438" y1="90.562" y2="98.812" gradientTransform="translate(.86486 .17297)" gradientUnits="userSpaceOnUse" xlink:href="#linearGradient3405"/>
  <filter id="filter3507" x="-.070994" y="-.10284" width="1.142" height="1.2057">
   <feGaussianBlur id="feGaussianBlur3509" stdDeviation="0.19827027"/>
  </filter>
  <linearGradient id="linearGradient3533" x1="54.938" x2="55.969" y1="88.219" y2="89.062" gradientTransform="translate(12.278 -6.8576)" gradientUnits="userSpaceOnUse" xlink:href="#linearGradient2338"/>
  <linearGradient id="linearGradient3535" x1="56.438" x2="59.844" y1="90.938" y2="87.594" gradientTransform="translate(12.278 -6.8576)" gradientUnits="userSpaceOnUse" xlink:href="#linearGradient2338"/>
  <linearGradient id="linearGradient3537" x1="63.562" x2="64.438" y1="90.562" y2="98.812" gradientTransform="translate(12.278 -6.8576)" gradientUnits="userSpaceOnUse" xlink:href="#linearGradient3405"/>
  <linearGradient id="linearGradient3567" x1="54.938" x2="55.969" y1="88.219" y2="89.062" gradientTransform="translate(24.002 -13.661)" gradientUnits="userSpaceOnUse" xlink:href="#linearGradient2338"/>
  <linearGradient id="linearGradient3569" x1="56.438" x2="59.844" y1="90.938" y2="87.594" gradientTransform="translate(24.002 -13.661)" gradientUnits="userSpaceOnUse" xlink:href="#linearGradient2338"/>
  <linearGradient id="linearGradient3571" x1="63.562" x2="64.438" y1="90.562" y2="98.812" gradientTransform="translate(24.002 -13.661)" gradientUnits="userSpaceOnUse" xlink:href="#linearGradient3405"/>
  <linearGradient id="linearGradient3603" x1="56.438" x2="59.844" y1="90.938" y2="87.594" gradientTransform="translate(37.179 -20.034)" gradientUnits="userSpaceOnUse" xlink:href="#linearGradient2338"/>
  <linearGradient id="linearGradient3635" x1="54.938" x2="55.969" y1="88.219" y2="89.062" gradientTransform="translate(20.765 -31.163)" gradientUnits="userSpaceOnUse" xlink:href="#linearGradient2338"/>
  <linearGradient id="linearGradient3637" x1="56.438" x2="59.844" y1="90.938" y2="87.594" gradientTransform="translate(20.765 -31.163)" gradientUnits="userSpaceOnUse" xlink:href="#linearGradient2338"/>
  <linearGradient id="linearGradient3639" x1="63.562" x2="64.438" y1="90.562" y2="98.812" gradientTransform="translate(20.765 -31.163)" gradientUnits="userSpaceOnUse" xlink:href="#linearGradient3405"/>
  <linearGradient id="linearGradient3669" x1="54.938" x2="55.969" y1="88.219" y2="89.062" gradientTransform="translate(4.7156 -43.581)" gradientUnits="userSpaceOnUse" xlink:href="#linearGradient2338"/>
  <linearGradient id="linearGradient3671" x1="56.438" x2="59.844" y1="90.938" y2="87.594" gradientTransform="translate(4.7156 -43.581)" gradientUnits="userSpaceOnUse" xlink:href="#linearGradient2338"/>
  <linearGradient id="linearGradient3673" x1="63.562" x2="64.438" y1="90.562" y2="98.812" gradientTransform="translate(4.7156 -43.581)" gradientUnits="userSpaceOnUse" xlink:href="#linearGradient3405"/>
  <linearGradient id="linearGradient3703" x1="54.938" x2="55.969" y1="88.219" y2="89.062" gradientTransform="translate(8.3483 -24.79)" gradientUnits="userSpaceOnUse" xlink:href="#linearGradient2338"/>
  <linearGradient id="linearGradient3705" x1="56.438" x2="59.844" y1="90.938" y2="87.594" gradientTransform="translate(8.3483 -24.79)" gradientUnits="userSpaceOnUse" xlink:href="#linearGradient2338"/>
  <linearGradient id="linearGradient3707" x1="63.562" x2="64.438" y1="90.562" y2="98.812" gradientTransform="translate(8.3483 -24.79)" gradientUnits="userSpaceOnUse" xlink:href="#linearGradient3405"/>
  <linearGradient id="linearGradient3737" x1="54.938" x2="55.969" y1="88.219" y2="89.062" gradientTransform="translate(-7.8006 -37.636)" gradientUnits="userSpaceOnUse" xlink:href="#linearGradient2338"/>
  <linearGradient id="linearGradient3739" x1="56.438" x2="59.844" y1="90.938" y2="87.594" gradientTransform="translate(-7.8006 -37.636)" gradientUnits="userSpaceOnUse" xlink:href="#linearGradient2338"/>
  <linearGradient id="linearGradient3741" x1="63.562" x2="64.438" y1="90.562" y2="98.812" gradientTransform="translate(-7.8006 -37.636)" gradientUnits="userSpaceOnUse" xlink:href="#linearGradient3405"/>
  <linearGradient id="linearGradient3771" x1="54.938" x2="55.969" y1="88.219" y2="89.062" gradientTransform="translate(-19.326 -31.196)" gradientUnits="userSpaceOnUse" xlink:href="#linearGradient2338"/>
  <linearGradient id="linearGradient3773" x1="56.438" x2="59.844" y1="90.938" y2="87.594" gradientTransform="translate(-19.326 -31.196)" gradientUnits="userSpaceOnUse" xlink:href="#linearGradient2338"/>
  <linearGradient id="linearGradient3775" x1="63.562" x2="64.438" y1="90.562" y2="98.812" gradientTransform="translate(-19.326 -31.196)" gradientUnits="userSpaceOnUse" xlink:href="#linearGradient3405"/>
  <linearGradient id="linearGradient3805" x1="54.938" x2="55.969" y1="88.219" y2="89.062" gradientTransform="translate(-3.2432 -18.416)" gradientUnits="userSpaceOnUse" xlink:href="#linearGradient2338"/>
  <linearGradient id="linearGradient3807" x1="56.438" x2="59.844" y1="90.938" y2="87.594" gradientTransform="translate(-3.2432 -18.416)" gradientUnits="userSpaceOnUse" xlink:href="#linearGradient2338"/>
  <linearGradient id="linearGradient3809" x1="63.562" x2="64.438" y1="90.562" y2="98.812" gradientTransform="translate(-3.2432 -18.416)" gradientUnits="userSpaceOnUse" xlink:href="#linearGradient3405"/>
  <linearGradient id="linearGradient3839" x1="54.938" x2="55.969" y1="88.219" y2="89.062" gradientTransform="translate(-14.472 -11.514)" gradientUnits="userSpaceOnUse" xlink:href="#linearGradient2338"/>
  <linearGradient id="linearGradient3841" x1="56.438" x2="59.844" y1="90.938" y2="87.594" gradientTransform="translate(-14.472 -11.514)" gradientUnits="userSpaceOnUse" xlink:href="#linearGradient2338"/>
  <linearGradient id="linearGradient3843" x1="63.562" x2="64.438" y1="90.562" y2="98.812" gradientTransform="translate(-14.472 -11.514)" gradientUnits="userSpaceOnUse" xlink:href="#linearGradient3405"/>
  <linearGradient id="linearGradient3873" x1="54.938" x2="55.969" y1="88.219" y2="89.062" gradientTransform="translate(-31.083 -24.724)" gradientUnits="userSpaceOnUse" xlink:href="#linearGradient2338"/>
  <linearGradient id="linearGradient3875" x1="56.438" x2="59.844" y1="90.938" y2="87.594" gradientTransform="translate(-31.083 -24.724)" gradientUnits="userSpaceOnUse" xlink:href="#linearGradient2338"/>
  <linearGradient id="linearGradient3877" x1="63.562" x2="64.438" y1="90.562" y2="98.812" gradientTransform="translate(-31.083 -24.724)" gradientUnits="userSpaceOnUse" xlink:href="#linearGradient3405"/>
  <linearGradient id="linearGradient3897" x1="54.938" x2="55.969" y1="88.219" y2="89.062" gradientTransform="translate(37.303 -20.097)" gradientUnits="userSpaceOnUse" xlink:href="#linearGradient2338"/>
  <linearGradient id="linearGradient3899" x1="56.438" x2="59.844" y1="90.938" y2="87.594" gradientTransform="translate(37.303 -20.097)" gradientUnits="userSpaceOnUse" xlink:href="#linearGradient2338"/>
  <linearGradient id="linearGradient3901" x1="63.562" x2="64.438" y1="90.562" y2="98.812" gradientTransform="translate(37.303 -20.097)" gradientUnits="userSpaceOnUse" xlink:href="#linearGradient3405"/>
  <linearGradient id="linearGradient3907" x1="53.409" x2="78.904" y1="98.121" y2="41.062" gradientTransform="translate(.86486 .17297)" gradientUnits="userSpaceOnUse" xlink:href="#linearGradient3405"/>
  <filter id="filter3939">
   <feGaussianBlur id="feGaussianBlur3941" stdDeviation="0.730625"/>
  </filter>
  <filter id="filter3965">
   <feGaussianBlur id="feGaussianBlur3967" stdDeviation="0.56262767"/>
  </filter>
 </defs>
 <metadata id="metadata7">
  <rdf:RDF>
   <cc:Work rdf:about="">
    <dc:format>image/svg+xml</dc:format>
    <dc:type rdf:resource="http://purl.org/dc/dcmitype/StillImage"/>
   </cc:Work>
  </rdf:RDF>
 </metadata>
 <g id="layer2" fill-rule="evenodd">
  <path id="path3909" d="m41.865 94.173-39.944-27.595 56.909-26.718 40.285 28.438-57.25 25.875z" fill-opacity=".66667" filter="url(#filter3939)"/>
  <path id="path3905" d="m91.427 90.673-26.625 11.75-27.312-20.5-1.125 0.4375-0.4375-1.25-1 0.25-0.625-1.625-19.812-14.875 22.312-10.375 27.875-13.25 23.938 16.375 30.937 21-1.5 0.625-0.5625 1.5-1.375 0.125-0.5 2.5625-1.75-2.5-9.125 3.9375-3.8125 8.3125-5.0625 2.5-4.4375-5z" fill="url(#linearGradient3907)"/>
  <path id="path3943" d="m64.589 41.21 0.24462 1.3454 49.78 36.204-16.757 10.029 3.7916 3.9139 23.973-9.6625-55.896-40.362-5.137-1.4677z" fill-opacity=".66667" filter="url(#filter3965)"/>
  <path id="path3481" d="m55.308 91.892-1.1243-0.17297-0.086487-1.1243 0.95135-1.7297 2.5081-1.6 3.2432 1.4703-5.4919 3.1568z" fill-opacity=".66667" filter="url(#filter3507)"/>
  <path id="path2808" d="m7.7754 61.881-0.30578 6.1767 57.425 43.176-0.12231-7.094-28.315-20.976-0.91733 0.85617-0.67271-1.5289-0.67271 0.18346-0.91733-2.0181-25.502-18.775z" fill="url(#linearGradient2810)"/>
  <path id="path2812" d="m64.711 104.51 28.621-12.843-0.061155-5.137 11.314-4.9536 0.06115 4.8313 10.396-4.5866 1.2231 2.5685 0.73386-2.6908h1.162l0.73386-1.2843 7.5832-3.547 0.18347 6.9105-24.279 10.763-0.12231-10.029-6.4213 2.9966 0.12231 9.7848-31.25 13.76v-6.5436z" fill="url(#linearGradient2814)"/>
  <path id="path2816" d="m64.466 36.563 0.061156 4.9536 54.856 37.244 3.8528-1.8958-58.77-40.301z" fill="url(#linearGradient2818)"/>
  <path id="path2820" d="m10.711 61.636 43.114-20.242 1.2843 1.4677 0.67271-0.73386 0.67271-1.957 7.889-3.7916 0.42809 4.8313-50.086 23.728-4.4643-3.2412 0.48924-0.061155z" fill="url(#linearGradient2822)"/>
  <path id="path2824" d="m100.85 85.242 1.5289-0.73386-0.06115 9.9071-1.8347-1.0396 0.36694-8.1336z" fill="url(#linearGradient2826)"/>
  <path id="path2828" d="m102.63 80.044 1.8347 1.5289-11.191 5.0147-1.7735-1.59 11.13-4.9536z" fill="url(#linearGradient2830)"/>
  <path id="path2832" d="m91.558 85.426 1.7735 1.1008v4.9536l-1.7123-0.97848-0.061155-5.0759z" fill="url(#linearGradient2834)"/>
  <path id="path2836" d="m91.741 90.685 1.59 0.97848-28.682 12.659-28.009-21.099-0.30578 0.061155-0.73386 0.5504-0.36693-0.30578-0.48924-1.2843-0.67271 0.48924-0.97848-1.957-25.624-19.08 45.805-21.832 1.59 1.7735 0.67271-0.79502 0.18346-2.0793 8.7452-4.2197 61.644 42.442-7.2775 3.1801-0.6727 1.4066-1.2231 0.12231-0.55039 2.5685-1.4677-2.3239-0.12231-0.061155-10.152 4.5866 0.06116-1.59 9.2956-3.9751 1.1619 0.85617 0.30578 0.97848 0.73386-1.8347 1.2843-0.24462 0.48924-1.4677 5.4428-2.3851-58.954-40.424-8.0725 3.7305-0.48924 1.59-0.73386 1.1008-1.4066-1.4677-43.481 20.365 8.0725 5.9932 16.267 12.17 0.30578 1.5289 0.97848-0.36693 0.42809 1.2843 1.2231-0.36693 27.459 20.487 26.725-11.742z" fill="url(#linearGradient2838)"/>
  <path id="path3973" d="m100.85 85.242 1.5289-0.73386-0.06115 9.9071-1.8347-1.0396 0.36694-8.1336z" fill-opacity=".15686"/>
  <path id="path2840" d="m95.959 89.454 5.6562-2.5938 0.25 0.9375-0.34375 1.4688-5.625 2.3438 0.0625-2.1562z" fill="url(#linearGradient2842)"/>
  <path id="path2844" d="m95.74 93.173 5.8437-2.6562 0.28125 0.84375-0.15625 1.0938-0.25 0.34375-5.5937 2.375-0.125-2z" fill="url(#linearGradient2846)"/>
  <path id="path2848" d="m98.802 87.267 0.09375 8.1562 0.8125 0.03125 1.3125-0.78125 0.0625-8.3125-1.1875 0.03125-1.0938 0.875z" fill="url(#linearGradient2850)"/>
  <path id="path2852" d="m96.459 96.517-0.0625-8.1875 0.8125-0.71875 0.96875-0.125 0.09375 8.4062-0.9375 0.59375-0.875 0.03125z" fill="url(#linearGradient2854)"/>
  <path id="path2856" d="m55.834 92.204 0.84375-3.25 1.25-1.5 1.8125-1.1562-1.5312-0.03125-1.1562 0.625-1.2812 1.1562-1.125 3.375 1.1875 0.78125z" fill="url(#linearGradient2858)"/>
  <path id="path2860" d="m55.99 92.142 0.28125-1.6875 0.59375-1.6875 1.0312-1.2812 1.7812-1 1.2812 0.15625 1.7812 1.625 0.40625 0.78125-7.1562 3.0938z" fill="url(#linearGradient2862)"/>
  <path id="path2864" d="m56.396 92.892 7.4062-3.4062 8.9062 6.625-7.25 3.5312-9.0625-6.75z" fill="url(#linearGradient2866)"/>
  <path id="path2868" d="m55.834 92.204 0.84375-3.25 1.25-1.5 1.8125-1.1562-1.5312-0.03125-1.1562 0.625-1.2812 1.1562-1.125 3.375 1.1875 0.78125z" fill-opacity=".15686"/>
  <path id="path2870" d="m56.396 92.892 7.4062-3.4062 8.9062 6.625-7.25 3.5312-9.0625-6.75z" fill-opacity=".15686"/>
  <path id="path3511" d="m66.721 84.861-1.1243-0.17297-0.086487-1.1243 0.95135-1.7297 2.5081-1.6 3.2432 1.4703-5.4919 3.1568z" fill-opacity=".66667" filter="url(#filter3507)"/>
  <path id="path3513" d="m67.247 85.174 0.84375-3.25 1.25-1.5 1.8125-1.1562-1.5312-0.03125-1.1562 0.625-1.2812 1.1562-1.125 3.375 1.1875 0.78125z" fill="url(#linearGradient3533)"/>
  <path id="path3515" d="m67.403 85.111 0.28125-1.6875 0.59375-1.6875 1.0312-1.2812 1.7812-1 1.2812 0.15625 1.7812 1.625 0.40625 0.78125-7.1562 3.0938z" fill="url(#linearGradient3535)"/>
  <path id="path3517" d="m67.809 85.861 7.4062-3.4062 8.9062 6.625-7.25 3.5312-9.0625-6.75z" fill="url(#linearGradient3537)"/>
  <path id="path3519" d="m67.247 85.174 0.84375-3.25 1.25-1.5 1.8125-1.1562-1.5312-0.03125-1.1562 0.625-1.2812 1.1562-1.125 3.375 1.1875 0.78125z" fill-opacity=".15686"/>
  <path id="path3521" d="m67.809 85.861 7.4062-3.4062 8.9062 6.625-7.25 3.5312-9.0625-6.75z" fill-opacity=".15686"/>
  <path id="path3545" d="m78.445 78.058-1.1243-0.17297-0.086487-1.1243 0.95135-1.7297 2.5081-1.6 3.2432 1.4703-5.4919 3.1568z" fill-opacity=".66667" filter="url(#filter3507)"/>
  <path id="path3547" d="m78.971 78.371 0.84375-3.25 1.25-1.5 1.8125-1.1562-1.5312-0.03125-1.1562 0.625-1.2812 1.1562-1.125 3.375 1.1875 0.78125z" fill="url(#linearGradient3567)"/>
  <path id="path3549" d="m79.127 78.308 0.28125-1.6875 0.59375-1.6875 1.0312-1.2812 1.7812-1 1.2812 0.15625 1.7812 1.625 0.40625 0.78125-7.1562 3.0938z" fill="url(#linearGradient3569)"/>
  <path id="path3551" d="m79.533 79.058 7.4062-3.4062 8.9062 6.625-7.25 3.5312-9.0625-6.75z" fill="url(#linearGradient3571)"/>
  <path id="path3553" d="m78.971 78.371 0.84375-3.25 1.25-1.5 1.8125-1.1562-1.5312-0.03125-1.1562 0.625-1.2812 1.1562-1.125 3.375 1.1875 0.78125z" fill-opacity=".15686"/>
  <path id="path3555" d="m79.533 79.058 7.4062-3.4062 8.9062 6.625-7.25 3.5312-9.0625-6.75z" fill-opacity=".15686"/>
  <path id="path3583" d="m92.304 71.934 0.28125-1.6875 0.59375-1.6875 1.0312-1.2812 1.7812-1 1.2812 0.15625 1.7812 1.625 0.40625 0.78125-7.1562 3.0938z" fill="url(#linearGradient3603)"/>
  <path id="path3613" d="m75.209 60.555-1.1243-0.17297-0.086487-1.1243 0.95135-1.7297 2.5081-1.6 3.2432 1.4703-5.4919 3.1568z" fill-opacity=".66667" filter="url(#filter3507)"/>
  <path id="path3615" d="m75.734 60.868 0.84375-3.25 1.25-1.5 1.8125-1.1562-1.5312-0.03125-1.1562 0.625-1.2812 1.1562-1.125 3.375 1.1875 0.78125z" fill="url(#linearGradient3635)"/>
  <path id="path3617" d="m75.89 60.805 0.28125-1.6875 0.59375-1.6875 1.0312-1.2812 1.7812-1 1.2812 0.15625 1.7812 1.625 0.40625 0.78125-7.1562 3.0938z" fill="url(#linearGradient3637)"/>
  <path id="path3619" d="m76.297 61.555 7.4062-3.4062 8.9062 6.625-7.25 3.5312-9.0625-6.75z" fill="url(#linearGradient3639)"/>
  <path id="path3621" d="m75.734 60.868 0.84375-3.25 1.25-1.5 1.8125-1.1562-1.5312-0.03125-1.1562 0.625-1.2812 1.1562-1.125 3.375 1.1875 0.78125z" fill-opacity=".15686"/>
  <path id="path3623" d="m76.297 61.555 7.4062-3.4062 8.9062 6.625-7.25 3.5312-9.0625-6.75z" fill-opacity=".15686"/>
  <path id="path3647" d="m59.159 48.138-1.1243-0.17297-0.086487-1.1243 0.95135-1.7297 2.5081-1.6 3.2432 1.4703-5.4919 3.1568z" fill-opacity=".66667" filter="url(#filter3507)"/>
  <path id="path3649" d="m59.684 48.451 0.84375-3.25 1.25-1.5 1.8125-1.1562-1.5312-0.03125-1.1562 0.625-1.2812 1.1562-1.125 3.375 1.1875 0.78125z" fill="url(#linearGradient3669)"/>
  <path id="path3651" d="m59.841 48.388 0.28125-1.6875 0.59375-1.6875 1.0312-1.2812 1.7812-1 1.2812 0.15625 1.7812 1.625 0.40625 0.78125-7.1562 3.0938z" fill="url(#linearGradient3671)"/>
  <path id="path3653" d="m60.247 49.138 7.4062-3.4062 8.9062 6.625-7.25 3.5312-9.0625-6.75z" fill="url(#linearGradient3673)"/>
  <path id="path3655" d="m59.684 48.451 0.84375-3.25 1.25-1.5 1.8125-1.1562-1.5312-0.03125-1.1562 0.625-1.2812 1.1562-1.125 3.375 1.1875 0.78125z" fill-opacity=".15686"/>
  <path id="path3657" d="m60.247 49.138 7.4062-3.4062 8.9062 6.625-7.25 3.5312-9.0625-6.75z" fill-opacity=".15686"/>
  <path id="path3681" d="m62.792 66.929-1.1243-0.17297-0.086487-1.1243 0.95135-1.7297 2.5081-1.6 3.2432 1.4703-5.4919 3.1568z" fill-opacity=".66667" filter="url(#filter3507)"/>
  <path id="path3683" d="m63.317 67.241 0.84375-3.25 1.25-1.5 1.8125-1.1562-1.5312-0.03125-1.1562 0.625-1.2812 1.1562-1.125 3.375 1.1875 0.78125z" fill="url(#linearGradient3703)"/>
  <path id="path3685" d="m63.473 67.179 0.28125-1.6875 0.59375-1.6875 1.0312-1.2812 1.7812-1 1.2812 0.15625 1.7812 1.625 0.40625 0.78125-7.1562 3.0938z" fill="url(#linearGradient3705)"/>
  <path id="path3687" d="m63.88 67.929 7.4062-3.4062 8.9062 6.625-7.25 3.5312-9.0625-6.75z" fill="url(#linearGradient3707)"/>
  <path id="path3689" d="m63.317 67.241 0.84375-3.25 1.25-1.5 1.8125-1.1562-1.5312-0.03125-1.1562 0.625-1.2812 1.1562-1.125 3.375 1.1875 0.78125z" fill-opacity=".15686"/>
  <path id="path3691" d="m63.88 67.929 7.4062-3.4062 8.9062 6.625-7.25 3.5312-9.0625-6.75z" fill-opacity=".15686"/>
  <path id="path3715" d="m46.643 54.083-1.1243-0.17297-0.086487-1.1243 0.95135-1.7297 2.5081-1.6 3.2432 1.4703-5.4919 3.1568z" fill-opacity=".66667" filter="url(#filter3507)"/>
  <path id="path3717" d="m47.168 54.395 0.84375-3.25 1.25-1.5 1.8125-1.1562-1.5312-0.03125-1.1562 0.625-1.2812 1.1562-1.125 3.375 1.1875 0.78125z" fill="url(#linearGradient3737)"/>
  <path id="path3719" d="m47.324 54.333 0.28125-1.6875 0.59375-1.6875 1.0312-1.2812 1.7812-1 1.2812 0.15625 1.7812 1.625 0.40625 0.78125-7.1562 3.0938z" fill="url(#linearGradient3739)"/>
  <path id="path3721" d="m47.731 55.083 7.4062-3.4062 8.9062 6.625-7.25 3.5312-9.0625-6.75z" fill="url(#linearGradient3741)"/>
  <path id="path3723" d="m47.168 54.395 0.84375-3.25 1.25-1.5 1.8125-1.1562-1.5312-0.03125-1.1562 0.625-1.2812 1.1562-1.125 3.375 1.1875 0.78125z" fill-opacity=".15686"/>
  <path id="path3725" d="m47.731 55.083 7.4062-3.4062 8.9062 6.625-7.25 3.5312-9.0625-6.75z" fill-opacity=".15686"/>
  <path id="path3749" d="m35.117 60.522-1.1243-0.17297-0.086487-1.1243 0.95135-1.7297 2.5081-1.6 3.2432 1.4703-5.4919 3.1568z" fill-opacity=".66667" filter="url(#filter3507)"/>
  <path id="path3751" d="m35.643 60.835 0.84375-3.25 1.25-1.5 1.8125-1.1562-1.5312-0.03125-1.1562 0.625-1.2812 1.1562-1.125 3.375 1.1875 0.78125z" fill="url(#linearGradient3771)"/>
  <path id="path3753" d="m35.799 60.772 0.28125-1.6875 0.59375-1.6875 1.0312-1.2812 1.7812-1 1.2812 0.15625 1.7812 1.625 0.40625 0.78125-7.1562 3.0938z" fill="url(#linearGradient3773)"/>
  <path id="path3755" d="m36.205 61.522 7.4062-3.4062 8.9062 6.625-7.25 3.5312-9.0625-6.75z" fill="url(#linearGradient3775)"/>
  <path id="path3757" d="m35.643 60.835 0.84375-3.25 1.25-1.5 1.8125-1.1562-1.5312-0.03125-1.1562 0.625-1.2812 1.1562-1.125 3.375 1.1875 0.78125z" fill-opacity=".15686"/>
  <path id="path3759" d="m36.205 61.522 7.4062-3.4062 8.9062 6.625-7.25 3.5312-9.0625-6.75z" fill-opacity=".15686"/>
  <path id="path3783" d="m51.2 73.303-1.1243-0.17297-0.086487-1.1243 0.95135-1.7297 2.5081-1.6 3.2432 1.4703-5.4919 3.1568z" fill-opacity=".66667" filter="url(#filter3507)"/>
  <path id="path3785" d="m51.726 73.615 0.84375-3.25 1.25-1.5 1.8125-1.1562-1.5312-0.03125-1.1562 0.625-1.2812 1.1562-1.125 3.375 1.1875 0.78125z" fill="url(#linearGradient3805)"/>
  <path id="path3787" d="m51.882 73.553 0.28125-1.6875 0.59375-1.6875 1.0312-1.2812 1.7812-1 1.2812 0.15625 1.7812 1.625 0.40625 0.78125-7.1562 3.0938z" fill="url(#linearGradient3807)"/>
  <path id="path3789" d="m52.288 74.303 7.4062-3.4062 8.9062 6.625-7.25 3.5312-9.0625-6.75z" fill="url(#linearGradient3809)"/>
  <path id="path3791" d="m51.726 73.615 0.84375-3.25 1.25-1.5 1.8125-1.1562-1.5312-0.03125-1.1562 0.625-1.2812 1.1562-1.125 3.375 1.1875 0.78125z" fill-opacity=".15686"/>
  <path id="path3793" d="m52.288 74.303 7.4062-3.4062 8.9062 6.625-7.25 3.5312-9.0625-6.75z" fill-opacity=".15686"/>
  <path id="path3817" d="m39.972 80.205-1.1243-0.17297-0.086487-1.1243 0.95135-1.7297 2.5081-1.6 3.2432 1.4703-5.4919 3.1568z" fill-opacity=".66667" filter="url(#filter3507)"/>
  <path id="path3819" d="m40.497 80.517 0.84375-3.25 1.25-1.5 1.8125-1.1562-1.5312-0.03125-1.1562 0.625-1.2812 1.1562-1.125 3.375 1.1875 0.78125z" fill="url(#linearGradient3839)"/>
  <path id="path3821" d="m40.653 80.455 0.28125-1.6875 0.59375-1.6875 1.0312-1.2812 1.7812-1 1.2812 0.15625 1.7812 1.625 0.40625 0.78125-7.1562 3.0938z" fill="url(#linearGradient3841)"/>
  <path id="path3823" d="m41.06 81.205 7.4062-3.4062 8.9062 6.625-7.25 3.5312-9.0625-6.75z" fill="url(#linearGradient3843)"/>
  <path id="path3825" d="m40.497 80.517 0.84375-3.25 1.25-1.5 1.8125-1.1562-1.5312-0.03125-1.1562 0.625-1.2812 1.1562-1.125 3.375 1.1875 0.78125z" fill-opacity=".15686"/>
  <path id="path3827" d="m41.06 81.205 7.4062-3.4062 8.9062 6.625-7.25 3.5312-9.0625-6.75z" fill-opacity=".15686"/>
  <path id="path3851" d="m23.361 66.995-1.1243-0.17297-0.086487-1.1243 0.95135-1.7297 2.5081-1.6 3.2432 1.4703-5.4919 3.1568z" fill-opacity=".66667" filter="url(#filter3507)"/>
  <path id="path3853" d="m23.886 67.308 0.84375-3.25 1.25-1.5 1.8125-1.1562-1.5312-0.03125-1.1562 0.625-1.2812 1.1562-1.125 3.375 1.1875 0.78125z" fill="url(#linearGradient3873)"/>
  <path id="path3855" d="m24.042 67.245 0.28125-1.6875 0.59375-1.6875 1.0312-1.2812 1.7812-1 1.2812 0.15625 1.7812 1.625 0.40625 0.78125-7.1562 3.0938z" fill="url(#linearGradient3875)"/>
  <path id="path3857" d="m24.449 67.995 7.4062-3.4062 8.9062 6.625-7.25 3.5312-9.0625-6.75z" fill="url(#linearGradient3877)"/>
  <path id="path3859" d="m23.886 67.308 0.84375-3.25 1.25-1.5 1.8125-1.1562-1.5312-0.03125-1.1562 0.625-1.2812 1.1562-1.125 3.375 1.1875 0.78125z" fill-opacity=".15686"/>
  <path id="path3861" d="m24.449 67.995 7.4062-3.4062 8.9062 6.625-7.25 3.5312-9.0625-6.75z" fill-opacity=".15686"/>
  <path id="path3885" d="m91.746 71.622-1.1243-0.17297-0.086487-1.1243 0.95135-1.7297 2.5081-1.6 3.2432 1.4703-5.4919 3.1568z" fill-opacity=".66667" filter="url(#filter3507)"/>
  <path id="path3887" d="m92.272 71.934 0.84375-3.25 1.25-1.5 1.8125-1.1562-1.2501 0.24992-1.3863 0.4972c-0.6611 0.187-1.0674 0.71376-1.5369 1.1562l-0.92051 3.2216 1.1875 0.78125z" fill="url(#linearGradient3897)"/>
  <path id="path3889" d="m92.428 71.872 0.28125-1.6875 0.59375-1.6875 1.0312-1.2812 1.7812-1 1.2812 0.15625 1.7812 1.625 0.40625 0.78125-7.1562 3.0938z" fill="url(#linearGradient3899)"/>
  <path id="path3891" d="m92.834 72.622 7.4062-3.4062 8.9062 6.625-7.25 3.5312-9.0625-6.75z" fill="url(#linearGradient3901)"/>
  <path id="path3893" d="m92.272 71.934 0.84375-3.25 1.25-1.5 1.8125-1.1562-1.1734 0.30104c-0.59842 0.20332-1.1968 0.17455-1.7953 0.625l-1.2046 1.0029-0.92051 3.1961 1.1875 0.78125z" fill-opacity=".15686"/>
  <path id="path3895" d="m92.834 72.622 7.4062-3.4062 8.9062 6.625-7.25 3.5312-9.0625-6.75z" fill-opacity=".15686"/>
  <path id="path3969" d="m7.7754 61.881-0.30578 6.1767 57.425 43.176-0.12231-7.094-28.315-20.976-0.91733 0.85617-0.67271-1.5289-0.67271 0.18346-0.91733-2.0181-25.502-18.775z" fill-opacity=".15686"/>
  <path id="path3971" d="m64.466 36.563 0.061156 4.9536 54.856 37.244 3.8528-1.8958-58.77-40.301z" fill-opacity=".15686"/>
  <path id="path3975" d="m91.558 85.426 1.7735 1.1008v4.9536l-1.7123-0.97848-0.061155-5.0759z" fill-opacity=".15686"/>
 </g>
 <g id="layer1" fill-rule="evenodd">
  <path id="path2310" d="m64.49 34.392-8.9295 4.2431-0.12164 2.1418-0.54372 0.86384-1.5996-1.9706-46.087 21.941-0.40625 6.8125 57.938 43 31.469-14.094-0.0625-2.1562 0.1875-0.09375v1.625c1.0017 0.11334 1.5865-0.32917 2.0938-0.875l-0.03125-1.5625 0.28125-0.125v1.4375c0.8125 0.047948 1.625 0.085368 2.4375-0.84375v-0.84375l1.25 0.8125 24.5-10.75-0.3125-7.0312-62.062-42.531zm0 0.53125 61.031 42.062-6.8511 3.0461-0.63845 1.4228-1.266 0.10452-0.55665 2.6226-1.2525-2.4119-10.029 4.3721v-0.96875l9.1435-4.1451 0.95364 0.8299 0.52681 1.0406 0.7814-1.9684 1.1905-0.18055 0.511-1.3053 5.7681-2.5211-59.062-40.531v-0.09375l-0.0625 0.03125-0.1875-0.125-8.2285 3.8315-0.46436 1.5121-0.61376 1.2885-1.4271-1.6342-43.829 20.408 24.358 18.21 0.46078 1.7189 0.8459-0.33607 0.71834 1.2087 0.93837-0.37616 27.647 20.669 26.844-11.75 1 0.625-28 12.437-28.11-21.051-1.2329 0.87318-0.49552-1.7144-0.75527 0.46549-0.62792-1.9546-25.278-18.931 44.996-21.671 1.6343 1.6768 0.79052-0.80446 0.071359-1.8132 8.7579-4.1697zm-0.40625 1.7812 0.28125 4.3125-49.75 23.75-3.9062-2.875 43.201-20.387 1.3284 1.5541 0.89187-1.3382 0.23163-1.3729 7.7216-3.6438zm0.65625 0.21875 57.969 39.906-3.1875 1.4062-54.656-37.031-0.125-4.2812zm-0.21875 4.6875 54.281 36.938-1.0002 0.43703-0.45486 1.5853-1.3151 0.074612-0.49732 2.2249-0.40181-1.2414-1.2533-0.91222-8.9524 3.8943-0.15625-3.125-2.0938-1.5938-11.406 4.9062 0.0625 5.75-26.406 11.531-27.394-20.318-1.0799 0.5235-0.51842-1.4127-0.71534 0.26578-0.58766-1.5286-19.674-14.592 33.125-15.656c-0.36284 0.26577-0.7754 0.6185-1.25 1.0938l-1.0625 3.3438 1.5 1.125 7.4688-3.5c-0.58741-1.3876-1.7147-2.2116-2.9375-3-0.38854-9.27e-4 -0.55311-0.17198-0.875-0.0625-0.37006-0.012651-0.88927 0.21526-1.2812 0.28125l10.688-5.0625c-0.29036 0.23882-0.57564 0.51268-0.90625 0.84375l-1.0625 3.3438 1.5 1.1562 7.4688-3.5312c-0.58741-1.3876-1.7147-2.2116-2.9375-3-0.38853-9.26e-4 -0.36561-0.23448-0.6875-0.125-0.19525-0.006674-0.40988 0.012281-0.625 0.03125l1.4375-0.6875zm-1.0938 0.96875c-0.79027 0.47394-2.1722 1.5237-2.8438 2.25-0.32654 1.0501-0.79926 2.0055-0.84375 3.2812l-0.75-0.40625 0.65625-3.1562 0.78125 0.46875c0.092881-0.15056-0.62652-0.56069-0.53125-0.6875 0.87705-1.1675 2.5936-1.6638 3.5312-1.75zm0.4375 0.375c0.16595-0.019174 0.33714-0.016832 0.5 0 0.99629 0.34542 2.0453 1.6123 2.5 2.2188l-6.8125 3c0.13106-0.56856 0.68628-2.4283 0.875-3.125 0.58579-0.98989 1.7758-1.9595 2.9375-2.0938zm-1.5625 1.0625-1.1875 2.125 0.21875 0.09375 1.0312-1.4688 0.53125 1.25 0.6875-0.1875-0.4375-1.3125 0.96875 0.65625 0.625-0.9375-0.21875-0.15625-0.3125 0.8125-1.1562-0.71875 0.25 1.5312-1-1.6875zm5.4375 1.5938-7.75 3.5938 9.2812 6.875 7.5-3.75-9.0312-6.7188zm-0.0625 0.375 8.6562 6.3438-6.8438 3.3125-8.7812-6.5312 6.9688-3.125zm-0.25 0.25 0.0625 1.5625 0.03125-0.03125 0.28125-1.5-0.375-0.03125zm0.03125 1.75-2.2188 1.0938 0.1875 0.1875 2.0938-1.2812h-0.0625zm0.84375 0.03125-0.0625 0.09375 3.9688 3.2812h0.15625l-4.0625-3.375zm-17.719 0.78125c-0.79027 0.47394-1.9222 1.3362-2.5938 2.0625-0.32654 1.0501-0.79926 2.0055-0.84375 3.2812l-0.75-0.40625 0.65625-3.1562 0.78125 0.46875c0.092879-0.15056-0.62652-0.56069-0.53125-0.6875 0.87705-1.1675 2.3436-1.4763 3.2812-1.5625zm0.6875 0.1875c0.16595-0.019175 0.33714-0.016832 0.5 0 0.99629 0.34542 2.0453 1.6123 2.5 2.2188l-6.8125 3c0.13105-0.56856 0.68628-2.4283 0.875-3.125 0.58578-0.98989 1.7758-1.9595 2.9375-2.0938zm13.062 0.125-2.9375 0.28125 0.09375 0.0625 2.75-0.125 0.09375-0.21875zm0.5 0.25-0.125 0.09375 4.375 4 0.15625-0.21875-4.4062-3.875zm-15.125 0.6875-1.1875 2.125 0.21875 0.09375 1.0312-1.4688 0.53125 1.25 0.6875-0.1875-0.4375-1.3125 0.96875 0.65625 0.625-0.9375-0.21875-0.15625-0.3125 0.8125-1.1562-0.71875 0.25 1.5312-1-1.6875zm22.5 1.5312-2.5 1.4688 0.1875 0.28125 2.3438-1.7188-0.03125-0.03125zm-17.062 0.0625-7.7188 3.5625 9.25 6.9062 7.5-3.75-9.0312-6.7188zm17.656 0.09375-0.0625 0.28125c0.94975 0.217 1.884 0.20705 2.8438 0.375v-0.09375c-0.93796-0.10328-1.8595-0.36823-2.7812-0.5625zm-17.719 0.28125 8.6562 6.3438-6.8438 3.3125-8.7812-6.5312 6.9688-3.125zm-0.25 0.25 0.0625 1.5625 0.03125-0.03125 0.28125-1.5-0.375-0.03125zm14.75 1.4375-0.40625 0.03125 0.125 1.4688h0.125l0.15625-1.5zm-14.719 0.3125-2.2188 1.0938 0.1875 0.1875 2.0938-1.2812h-0.0625zm0.84375 0.03125-0.0625 0.09375 3.9688 3.2812h0.15625l-4.0625-3.375zm24 0.625c-0.066766-0.006515-0.13828 0.003881-0.21875 0.03125-1.0148-0.034694-2.0522 0.11188-4.0938 2.1562l-1.0625 3.3438 1.5 1.125 7.4688-3.5c-0.58741-1.3876-1.7147-2.2116-2.9375-3-0.2914-6.96e-4 -0.45595-0.13671-0.65625-0.15625zm-39.312 0.15625c-0.38853-9.29e-4 -0.74061-0.17198-1.0625-0.0625-1.0148-0.034694-1.8647 0.049378-3.9062 2.0938l-1.0625 3.3438 1.5 1.125 7.4688-3.5c-0.58741-1.3876-1.7147-2.2116-2.9375-3zm38.75 0.1875c-0.79027 0.47393-1.9222 1.5237-2.5938 2.25-0.32654 1.0501-0.79926 2.0055-0.84375 3.2812l-0.75-0.40625 0.65625-3.1562 0.78125 0.46875c0.092878-0.15057-0.62652-0.56069-0.53125-0.6875 0.87705-1.1675 2.3436-1.6638 3.2812-1.75zm-27.406 0.125-2.9375 0.28125 0.09375 0.0625 2.75-0.125 0.09375-0.21875zm-12.5-0.0625c-0.79027 0.47393-1.9847 1.4612-2.6562 2.1875-0.32654 1.0501-0.79926 2.0055-0.84375 3.2812l-0.75-0.40625 0.65625-3.1562 0.78125 0.46875c0.092881-0.15057-0.62652-0.56069-0.53125-0.6875 0.87705-1.1675 2.4061-1.6013 3.3438-1.6875zm0.625 0.3125c0.16595-0.019177 0.33714-0.016832 0.5 0 0.99629 0.34542 2.0453 1.6123 2.5 2.2188l-6.8125 3c0.13106-0.56856 0.68628-2.4283 0.875-3.125 0.58579-0.98989 1.7758-1.9595 2.9375-2.0938zm12.375 0-0.125 0.09375 4.375 4 0.15625-0.21875-4.4062-3.875zm27.594 0c0.16595-0.019177 0.33714-0.016832 0.5 0 0.99629 0.34542 2.0453 1.6123 2.5 2.2188l-6.8125 3c0.13105-0.56856 0.68628-2.4283 0.875-3.125 0.58578-0.98989 1.7758-1.9595 2.9375-2.0938zm-41.531 1.0625-1.1875 2.125 0.21875 0.09375 1.0312-1.4688 0.53125 1.25 0.6875-0.1875-0.4375-1.3125 0.96875 0.65625 0.625-0.9375-0.21875-0.15625-0.3125 0.8125-1.1562-0.71875 0.25 1.5312-1-1.6875zm39.969 0-1.1875 2.125 0.21875 0.09375 1.0312-1.4688 0.53125 1.25 0.6875-0.1875-0.4375-1.3125 0.96875 0.65625 0.625-0.9375-0.21875-0.15625-0.3125 0.8125-1.1562-0.71875 0.25 1.5312-1-1.6875zm-18.656 1.1562-2.5 1.4688 0.1875 0.28125 2.3438-1.7188-0.03125-0.03125zm0.59375 0.15625-0.0625 0.28125c0.94975 0.217 1.884 0.20705 2.8438 0.375v-0.09375c-0.93795-0.10328-1.8595-0.36823-2.7812-0.5625zm-16.469 0.28125-7.75 3.5625 9.2812 6.9062 7.5-3.75-9.0312-6.7188zm39.969 0-7.75 3.5625 9.2812 6.9062 7.5-3.75-9.0312-6.7188zm-40.031 0.375 8.6562 6.3438-6.8438 3.3125-8.7812-6.5312 6.9688-3.125zm39.969 0 8.6562 6.3438-6.8438 3.3125-8.7812-6.5312 6.9688-3.125zm-40.219 0.25 0.0625 1.5625 0.03125-0.03125 0.28125-1.5-0.375-0.03125zm39.969 0 0.0625 1.5625 0.03125-0.03125 0.28125-1.5-0.375-0.03125zm-26.406 1.0625-0.40625 0.03125 0.125 1.4688h0.125l0.15625-1.5zm-13.531 0.6875-2.2188 1.0938 0.1875 0.1875 2.0938-1.2812h-0.0625zm39.969 0-2.2188 1.0938 0.1875 0.1875 2.0938-1.2812h-0.0625zm-39.125 0.03125-0.0625 0.09375 3.9688 3.2812h0.15625l-4.0625-3.375zm39.969 0-0.0625 0.09375 3.9688 3.2812h0.15625l-4.0625-3.375zm-16.875 0.5625c-0.049187-0.012374-0.10703 0.003881-0.1875 0.03125-1.0148-0.034691-2.2397 0.17438-4.2812 2.2188l-1.0625 3.3438 1.5 1.125 7.4688-3.5c-0.58741-1.3876-1.7147-2.2116-2.9375-3-0.2914-6.95e-4 -0.35244-0.18163-0.5-0.21875zm-0.40625 0.34375c-0.79027 0.47394-2.2347 1.5862-2.9062 2.3125-0.32654 1.0501-0.79926 2.0055-0.84375 3.2812l-0.75-0.40625 0.65625-3.1562 0.78125 0.46875c0.09288-0.15056-0.62652-0.56069-0.53125-0.6875 0.87705-1.1675 2.6561-1.7263 3.5938-1.8125zm-26.656 0.1875-2.9375 0.28125 0.09375 0.0625 2.75-0.125 0.09375-0.21875zm39.969 0-2.9375 0.28125 0.09375 0.0625 2.75-0.125 0.09375-0.21875zm-51.812-0.25c-0.38853-9.28e-4 -0.67811-0.29698-1-0.1875-1.0148-0.034693-1.9272 0.17438-3.9688 2.2188l-1.0625 3.3438 1.5 1.1562 7.4688-3.5312c-0.58741-1.3876-1.7147-2.2116-2.9375-3zm12.344 0.5-0.125 0.09375 4.375 4 0.15625-0.21875-4.4062-3.875zm26.531 0c0.16595-0.019174 0.33714-0.016832 0.5 0 0.99629 0.34542 2.0453 1.6123 2.5 2.2188l-6.8125 3c0.13105-0.56856 0.68628-2.4283 0.875-3.125 0.58578-0.98989 1.7758-1.9595 2.9375-2.0938zm13.438 0-0.125 0.09375 4.375 4 0.15625-0.21875-4.4062-3.875zm-53.156-0.3125c-0.79027 0.47393-2.2972 1.5237-2.9688 2.25-0.32654 1.0501-0.79926 2.0055-0.84375 3.2812l-0.75-0.40625 0.65625-3.1562 0.78125 0.46875c0.092881-0.15056-0.62652-0.56069-0.53125-0.6875 0.87705-1.1675 2.7186-1.6638 3.6562-1.75zm-19.563 0.78125 24.876 18.613 1.0332 2.0392 0.62565-0.37587 0.83079 1.8716 0.77329-1.0936 28.204 21.102v6.1562l-56.531-42.562 0.1875-5.75zm19.875-0.40625c0.16595-0.019176 0.33714-0.016832 0.5 0 0.99629 0.34542 2.0453 1.6123 2.5 2.2188l-6.8125 3c0.13106-0.56856 0.68628-2.4283 0.875-3.125 0.58579-0.98989 1.7758-1.9595 2.9375-2.0938zm37.844 1-1.1875 2.125 0.21875 0.09375 1.0312-1.4688 0.53125 1.25 0.6875-0.1875-0.4375-1.3125 0.96875 0.65625 0.625-0.9375-0.21875-0.15625-0.3125 0.8125-1.1562-0.71875 0.25 1.5312-1-1.6875zm-39.406 0.0625-1.1875 2.125 0.21875 0.09375 1.0312-1.4688 0.53125 1.25 0.6875-0.1875-0.4375-1.3125 0.96875 0.65625 0.625-0.9375-0.21875-0.15625-0.3125 0.8125-1.1562-0.71875 0.25 1.5312-1-1.6875zm21.812 1.0938-2.5 1.4688 0.1875 0.28125 2.3438-1.7188-0.03125-0.03125zm39.969 0-2.5 1.4688 0.1875 0.28125 2.3438-1.7188-0.03125-0.03125zm-39.375 0.15625-0.0625 0.28125c0.94975 0.217 1.884 0.20705 2.8438 0.375v-0.09375c-0.93795-0.10328-1.8595-0.36823-2.7812-0.5625zm39.969 0-0.0625 0.28125c0.94975 0.217 1.884 0.20705 2.8438 0.375v-0.09375c-0.93796-0.10328-1.8595-0.36823-2.7812-0.5625zm-17.531 0.28125-7.75 3.5625 9.2812 6.9062 7.5-3.75-9.0312-6.7188zm-0.0625 0.375 8.6562 6.3438-6.8438 3.3125-8.7812-6.5312 6.9688-3.125zm-39.344-0.3125-7.75 3.5938 9.2812 6.875 7.5-3.75-9.0312-6.7188zm39.094 0.5625 0.0625 1.5625 0.03125-0.03125 0.28125-1.5-0.375-0.03125zm-39.156-0.1875 8.6562 6.3438-6.8438 3.3125-8.7812-6.5312 6.9688-3.125zm-0.25 0.25 0.0625 1.5625 0.03125-0.03125 0.28125-1.5-0.375-0.03125zm65.281 0.75c-2.0435 0.084128-3.3875 0.61303-4.9688 2.0312l-1.0625 3.3438 1.4688 1.125 7.5-3.5c-0.58741-1.3876-1.7147-2.2116-2.9375-3zm-51.219 0.25-0.40625 0.03125 0.125 1.4688h0.125l0.15625-1.5zm39.969 0-0.40625 0.03125 0.125 1.4688h0.125l0.15625-1.5zm9.9688 0.25c-0.79026 0.47394-1.8597 1.2112-2.5312 1.9375-0.32654 1.0501-0.79926 2.0055-0.84375 3.2812l-0.75-0.40625 0.65625-3.1562 0.78125 0.46875c0.092884-0.15056-0.62652-0.56069-0.53125-0.6875 0.87705-1.1675 2.2811-1.3513 3.2188-1.4375zm0.75 0.0625c0.16596-0.019173 0.33714-0.016832 0.5 0 0.9963 0.34542 2.0453 1.6123 2.5 2.2188l-6.8125 3c0.13106-0.56856 0.68628-2.4283 0.875-3.125 0.58579-0.98989 1.7758-1.9595 2.9375-2.0938zm-25.312 0.375-2.2188 1.0938 0.1875 0.1875 2.0938-1.2812h-0.0625zm0.84375 0.03125-0.0625 0.09375 3.9688 3.2812h0.15625l-4.0625-3.375zm-40.25 0.03125-2.2188 1.0938 0.1875 0.1875 2.0938-1.2812h-0.0625zm0.84375 0.03125-0.0625 0.09375 3.9688 3.2812h0.15625l-4.0625-3.375zm62.312 0.59375-1.1875 2.125 0.21875 0.09375 1.0312-1.4688 0.53125 1.25 0.6875-0.1875-0.4375-1.3125 0.96875 0.65625 0.625-0.9375-0.21875-0.15625-0.3125 0.8125-1.1562-0.71875 0.25 1.5312-1-1.6875zm-38.219 0.09375c-0.38853-9.24e-4 -0.55311-0.23448-0.875-0.125-1.0148-0.034689-2.0522 0.11188-4.0938 2.1562l-1.0625 3.3438 1.5 1.1562 7.4688-3.5312c-0.58741-1.3876-1.7147-2.2116-2.9375-3zm11.344 0.34375-2.9375 0.28125 0.09375 0.0625 2.75-0.125 0.09375-0.21875zm-12.562-0.03125c-0.79027 0.47394-1.9222 1.3987-2.5938 2.125-0.32654 1.0501-0.79926 2.0055-0.84375 3.2812l-0.75-0.40625 0.65625-3.1562 0.78125 0.46875c0.092881-0.15056-0.62652-0.56069-0.53125-0.6875 0.87705-1.1675 2.3436-1.5388 3.2812-1.625zm0.6875 0.25c0.16595-0.019172 0.33714-0.016832 0.5 0 0.99629 0.34543 2.0453 1.6123 2.5 2.2188l-6.8125 3c0.13106-0.56856 0.68628-2.4283 0.875-3.125 0.58579-0.98989 1.7758-1.9595 2.9375-2.0938zm12.375 0.03125-0.125 0.09375 4.375 4 0.15625-0.21875-4.4062-3.875zm-39.906-0.1875-2.9375 0.28125 0.09375 0.0625 2.75-0.125 0.09375-0.21875zm0.5 0.25-0.125 0.09375 4.375 4 0.15625-0.21875-4.4062-3.875zm71.219 0.84375-7.75 3.5625 9.2812 6.9062 7.5-3.75-9.0312-6.7188zm-45.75 0.125-1.1875 2.125 0.21875 0.09375 1.0312-1.4688 0.53125 1.25 0.6875-0.1875-0.4375-1.3125 0.96875 0.65625 0.625-0.9375-0.21875-0.15625-0.3125 0.8125-1.1562-0.71875 0.25 1.5312-1-1.6875zm45.687 0.25 8.6562 6.3438-6.8438 3.3125-8.7812-6.5312 6.9687-3.125zm-0.25 0.25 0.0625 1.5625 0.03125-0.03125 0.28124-1.5-0.375-0.03125zm-24.125 0.6875-2.5 1.4688 0.1875 0.28125 2.3438-1.7188-0.03125-0.03125zm0.59375 0.15625-0.0625 0.28125c0.94975 0.217 1.884 0.20705 2.8438 0.375v-0.09375c-0.93795-0.10329-1.8595-0.36823-2.7812-0.5625zm-16.469 0.25-7.75 3.5938 9.2812 6.9062 7.5-3.7812-9.0312-6.7188zm-23.531-0.34375-2.5 1.4688 0.1875 0.28125 2.3438-1.7188-0.03125-0.03125zm0.59375 0.15625-0.0625 0.28125c0.94975 0.217 1.884 0.20705 2.8438 0.375v-0.09375c-0.93795-0.10328-1.8595-0.36823-2.7812-0.5625zm22.875 0.5625 8.6562 6.3438-6.8438 3.3125-8.7812-6.5312 6.9688-3.125zm-0.25 0.25 0.0625 1.5625 0.03125-0.03125 0.28125-1.5-0.375-0.03125zm40.344 0.03125-2.2188 1.0938 0.1875 0.1875 2.0938-1.2812h-0.0625zm0.84374 0.03125-0.0625 0.09375 3.9688 3.2812h0.15625l-4.0625-3.375zm-17.625 0.5625c-0.055047-0.012374-0.10703 0.003881-0.1875 0.03125-1.0148-0.034692-2.1772 0.17438-4.2188 2.2188l-1.0625 3.3438 1.5 1.125 7.4688-3.5c-0.58741-1.3876-1.7147-2.2116-2.9375-3-0.2914-6.95e-4 -0.39736-0.18163-0.5625-0.21875zm-10 0.46875-0.40625 0.03125 0.125 1.4688h0.125l0.15625-1.5zm9.4062 0c-0.79027 0.47394-1.9847 1.4612-2.6562 2.1875-0.32654 1.0501-0.79926 2.0055-0.84375 3.2812l-0.75-0.40625 0.65625-3.1562 0.78125 0.46875c0.092881-0.15056-0.62652-0.56069-0.53125-0.6875 0.87705-1.1675 2.4061-1.6013 3.3438-1.6875zm14.25 0.0625-2.9375 0.28125 0.09375 0.0625 2.75-0.125 0.09375-0.21875zm-13.625 0.25c0.16595-0.019175 0.33714-0.016832 0.5 0 0.99629 0.34542 2.0453 1.6123 2.5 2.2188l-6.8125 3c0.13106-0.56856 0.68628-2.4283 0.875-3.125 0.58579-0.98989 1.7758-1.9595 2.9375-2.0938zm14.125 0-0.125 0.09375 4.375 4 0.15625-0.21875-4.4062-3.875zm-63.562-0.25-0.40625 0.03125 0.125 1.4688h0.125l0.15625-1.5zm25.875 0.59375-2.2188 1.0938 0.1875 0.1875 2.0938-1.2812h-0.0625zm0.84375 0.03125-0.0625 0.09375 3.9688 3.2812h0.15625l-4.0625-3.375zm21.156 0.6875-1.1875 2.125 0.21875 0.09375 1.0312-1.4688 0.53125 1.25 0.6875-0.1875-0.4375-1.3125 0.96875 0.65625 0.625-0.9375-0.21875-0.15625-0.3125 0.8125-1.1562-0.71875 0.25 1.5312-1-1.6875zm-25.125 0.40625-2.9375 0.28125 0.09375 0.0625 2.75-0.125 0.09375-0.21875zm-11.344 0.21875c-0.38854-9.27e-4 -0.74061-0.23448-1.0625-0.125-1.0148-0.034692-1.8647 0.11188-3.9062 2.1562l-1.0625 3.3438 1.4688 1.125 7.5-3.5c-0.58741-1.3876-1.7147-2.2116-2.9375-3zm11.844 0.03125-0.125 0.09375 4.375 4 0.15625-0.21875-4.4062-3.875zm-13 0.21875c-0.79027 0.47394-1.9847 1.4612-2.6562 2.1875-0.32654 1.0501-0.79926 2.0055-0.84375 3.2812l-0.75-0.40625 0.65625-3.1562 0.78125 0.46875c0.092879-0.15056-0.62652-0.56069-0.53125-0.6875 0.87705-1.1675 2.4061-1.6013 3.3438-1.6875zm60.687 0.28125-2.5 1.4688 0.1875 0.28125 2.3438-1.7188-0.03125-0.03125zm-60.062 0.03125c0.16595-0.019175 0.33714-0.016832 0.5 0 0.99629 0.34542 2.0453 1.6123 2.5 2.2188l-6.8125 3c0.13105-0.56856 0.68628-2.4283 0.875-3.125 0.58578-0.98989 1.7758-1.9595 2.9375-2.0938zm60.656 0.125-0.0625 0.28125c0.94975 0.217 1.884 0.20705 2.8438 0.375v-0.09375c-0.93796-0.10328-1.8595-0.36823-2.7812-0.5625zm-18.219 0.28125-7.75 3.5625 9.2812 6.9062 7.5-3.75-9.0312-6.7188zm-0.0625 0.375 8.6562 6.3438-6.8438 3.3125-8.7812-6.5312 6.9688-3.125zm-0.25 0.25 0.0625 1.5625 0.03125-0.03125 0.28125-1.5-0.375-0.03125zm-43.688 0.03125-1.1875 2.125 0.21875 0.09375 1.0312-1.4688 0.53125 1.25 0.6875-0.1875-0.4375-1.3125 0.96875 0.65625 0.625-0.9375-0.21875-0.15625-0.3125 0.8125-1.1562-0.71875 0.25 1.5312-1-1.6875zm21.312 0.625-2.5 1.4688 0.1875 0.28125 2.3438-1.7188-0.03125-0.03125zm0.59375 0.15625-0.0625 0.28125c0.94975 0.217 1.884 0.20705 2.8438 0.375v-0.09375c-0.93796-0.10328-1.8595-0.36823-2.7812-0.5625zm37.094 0.25-0.40625 0.03125 0.125 1.4688h0.125l0.15625-1.5zm24.25 0 0.15625 6.4688-23.969 10.594 0.09375-9.9688-6.9687 3.1562 0.09375 9.6875-30.5 13.5-0.15625-6.25 28.594-12.687-0.15625-4.9375 10.906-5 0.125 4.9375 10.385-4.7368 1.4668 2.5983 0.75342-2.5547 1.2572-0.31429 0.54338-1.2756 7.3758-3.217zm-77.812 0.5625-7.75 3.5625 9.2812 6.9062 7.5-3.75-9.0312-6.7188zm38.281 0.125-2.2188 1.0938 0.1875 0.1875 2.0938-1.2812h-0.0625zm0.84375 0.03125-0.0625 0.09375 3.9688 3.2812h0.15625l-4.0625-3.375zm-39.188 0.21875 8.6562 6.3438-6.8438 3.3125-8.7812-6.5312 6.9688-3.125zm-0.25 0.25 0.0625 1.5625 0.03125-0.03125 0.28125-1.5-0.375-0.03125zm13.562 0.53125-0.40625 0.03125 0.125 1.4688h0.125l0.15625-1.5zm21.906 0.09375-2.9375 0.28125 0.09375 0.0625 2.75-0.125 0.09375-0.21875zm-12.469 0.03125c-0.078484-0.006515-0.13828 0.003881-0.21875 0.03125-1.0148-0.034695-1.9272 0.11188-3.9688 2.1562l-1.0625 3.3438 1.4688 1.1562 7.5-3.5312c-0.58741-1.3876-1.7147-2.2116-2.9375-3-0.2914-6.98e-4 -0.5458-0.13671-0.78125-0.15625zm12.969 0.21875-0.125 0.09375 4.375 4 0.15625-0.21875-4.4062-3.875zm-13.406 0.125c-0.79027 0.47393-1.9222 1.5237-2.5938 2.25-0.32654 1.0501-0.79926 2.0055-0.84375 3.2812l-0.75-0.40625 0.65625-3.1562 0.78125 0.46875c0.09288-0.15057-0.62652-0.56069-0.53125-0.6875 0.87705-1.1675 2.3436-1.6638 3.2812-1.75zm0.6875 0.375c0.16595-0.019178 0.33714-0.016832 0.5 0 0.99629 0.34542 2.0453 1.6123 2.5 2.2188l-6.8125 3c0.13105-0.56856 0.68628-2.4283 0.875-3.125 0.58578-0.9899 1.7758-1.9595 2.9375-2.0938zm-23.219 0.375-2.2188 1.0938 0.1875 0.1875 2.0938-1.2812h-0.0625zm0.84375 0.03125-0.0625 0.09375 3.9688 3.2812h0.15625l-4.0625-3.375zm53.531 0.21875 1.4688 1.1875-10.656 4.7188-1.625-1.1562 10.812-4.75zm-32.719 0.4375-1.1875 2.125 0.21875 0.09375 1.0312-1.4688 0.53125 1.25 0.6875-0.1875-0.4375-1.3125 0.96875 0.65625 0.625-0.9375-0.21875-0.15625-0.3125 0.8125-1.1562-0.71875 0.25 1.5312-1-1.6875zm-24.781 0.4375-2.9375 0.28125 0.09375 0.0625 2.75-0.125 0.09375-0.21875zm46.438 0.21875-2.5 1.4688 0.1875 0.28125 2.3438-1.7188-0.03125-0.03125zm-45.938 0.03125-0.125 0.09375 4.375 4 0.15625-0.21875-4.4062-3.875zm46.531 0.125-0.0625 0.28125c0.94975 0.217 1.884 0.20705 2.8438 0.375v-0.09375c-0.93795-0.10328-1.8595-0.36823-2.7812-0.5625zm-16.812 0.78125-7.75 3.5938 9.25 6.875 7.5312-3.75-9.0312-6.7188zm-0.0625 0.375 8.6562 6.3438-6.8438 3.3125-8.7812-6.5312 6.9688-3.125zm-0.25 0.25 0.0625 1.5625 0.03125-0.03125 0.28125-1.5-0.375-0.03125zm13.906 0.5625-0.40625 0.03125 0.125 1.4688h0.125l0.15625-1.5zm-35.938 0.125-2.5 1.4688 0.1875 0.28125 2.3438-1.7188-0.03125-0.03125zm0.59375 0.15625-0.0625 0.28125c0.94975 0.217 1.884 0.20705 2.8438 0.375v-0.09375c-0.93795-0.10328-1.8595-0.36823-2.7812-0.5625zm48.562 0.8125 0.0625 9.4688-1-0.6875v-0.34375l0.4375-0.1875c0.56748-1.0463 0.34176-1.8546 0.09375-2.6562l-0.5 0.21875 0.03125-1.0312 0.375-0.15625c0.56748-1.0463 0.34176-1.8546 0.09375-2.6562l-0.4375 0.21875v-0.875c-0.08181 0.016776-0.16783 0.018741-0.25 0.03125l0.03125-0.75 1.0625-0.59375zm-27.094 0.09375-2.2188 1.0938 0.1875 0.1875 2.0938-1.2812h-0.0625zm0.84375 0.03125-0.0625 0.09375 3.9688 3.2812h0.15625l-4.0625-3.375zm15.938 0.78125 1.25 0.96875 0.15625 4.7188-1.2188-0.875-0.1875-4.8125zm8.8437 0.03125v0.46875c-0.65968 0.0892-1.3098 0.2144-1.9062 1.0625v0.84375l-0.375 0.15625-0.03125-0.90625c-0.76191-0.17414-1.404 0.25095-2 0.90625v0.90625l-0.25 0.125-0.03125-1.4688 4.5937-2.0938zm-50.312 0.21875-0.40625 0.03125 0.125 1.4688h0.125l0.15625-1.5zm21.562 0.0625-2.9375 0.28125 0.09375 0.0625 2.75-0.125 0.09375-0.21875zm-11.375 0.21875c-0.38853-9.26e-4 -0.74061-0.10948-1.0625 0-1.0148-0.034691-1.8647-0.013122-3.9062 2.0312l-1.0625 3.3438 1.5 1.125 7.4688-3.5c-0.58741-1.3876-1.7147-2.2116-2.9375-3zm11.875 0.03125-0.125 0.09375 4.375 4 0.15625-0.21875-4.4062-3.875zm28.031 0.34375c0.19348-0.013437 0.38229 0.026022 0.5625 0.125v7.9062c-0.63541 0.46399-1.2708 0.9074-1.9062 0.71875l-0.0625-7.875c0.23893-0.36784 0.82584-0.83469 1.4062-0.875zm-41.375-0.125c-0.79027 0.47394-1.6722 1.4612-2.3438 2.1875-0.32654 1.0501-0.79926 2.0055-0.84375 3.2812l-0.75-0.40625 0.65625-3.1562 0.78125 0.46875c0.092882-0.15056-0.62652-0.56069-0.53125-0.6875 0.87705-1.1675 2.0936-1.6013 3.0312-1.6875zm0.9375 0.3125c0.16595-0.019174 0.33714-0.016832 0.5 0 0.99629 0.34542 2.0453 1.6123 2.5 2.2188l-6.8125 3c0.13106-0.56856 0.68628-2.4283 0.875-3.125 0.58579-0.98989 1.7758-1.9595 2.9375-2.0938zm41.562 0.34375c0.26358 0.57043 0.33769 1.2119-0.0625 2.0312l-0.25 0.09375 0.03125-1.9688 0.28125-0.15625zm-43.125 0.71875-1.1875 2.125 0.21875 0.09375 1.0312-1.4688 0.53125 1.25 0.6875-0.1875-0.4375-1.3125 0.96875 0.65625 0.625-0.9375-0.21875-0.15625-0.3125 0.8125-1.1562-0.71875 0.25 1.5312-1-1.6875zm39.25 0c0.12721 6.25e-4 0.26319 0.038112 0.375 0.125l0.09375 7.8438c-0.52822 0.32764-0.92264 0.66805-1.5312 0.59375v-7.875c0.27379-0.35586 0.68087-0.68938 1.0625-0.6875zm1.0625 0.5625v1.9375l-0.34375 0.125-0.03125-1.9062 0.375-0.15625zm-18.969 0.0625-2.5 1.4688 0.1875 0.28125 2.3438-1.7188-0.03125-0.03125zm0.59375 0.15625-0.0625 0.28125c0.94975 0.217 1.884 0.20705 2.8438 0.375v-0.09375c-0.93795-0.10329-1.8595-0.36823-2.7812-0.5625zm-16.5 0.8125-7.75 3.5625 9.2812 6.9062 7.5-3.75-9.0312-6.7188zm32.469 0.03125 0.03125 1.875-0.21875 0.09375-0.0625-1.625 0.03125-0.25 0.21875-0.09375zm-32.531 0.34375 8.6562 6.3438-6.8438 3.3125-8.7812-6.5312 6.9688-3.125zm-0.25 0.25 0.0625 1.5625 0.03125-0.03125 0.28125-1.5-0.375-0.03125zm13.594 0.53125-0.40625 0.03125 0.125 1.4688h0.125l0.15625-1.5zm21.594 0v1.125l-0.3125 0.125-0.03125-1.0938 0.34375-0.15625zm2.8125 0.15625c0.26358 0.57043 0.33769 1.2119-0.0625 2.0312l-0.3125 0.125 0.03125-2 0.34375-0.15625zm-5.1875 0.8125v1.2188l-0.1875 0.09375-0.03125-1.2188 0.21875-0.09375zm-32.781 0.25-2.2188 1.0938 0.1875 0.1875 2.0938-1.2812h-0.0625zm0.84375 0.03125-0.0625 0.09375 3.9688 3.2812h0.15625l-4.0625-3.375zm34.312 0.1875v1.9375l-0.28125 0.125-0.03125-1.9375 0.3125-0.125zm-38.281 0.90625-2.9375 0.28125 0.09375 0.0625 2.75-0.125 0.09375-0.21875zm35.906 0.125 0.03125 1.875-0.1875 0.09375-0.03125-1.875 0.1875-0.09375zm-35.406 0.125-0.125 0.09375 4.375 4 0.15625-0.21875-4.4062-3.875zm7.375 2.2188-2.5 1.4688 0.1875 0.28125 2.3438-1.7188-0.03125-0.03125zm0.59375 0.15625-0.0625 0.28125c0.94975 0.217 1.884 0.20705 2.8438 0.375v-0.09375c-0.93796-0.10328-1.8595-0.36823-2.7812-0.5625zm-3.2188 1.9688-0.40625 0.03125 0.125 1.4688h0.125l0.15625-1.5z"/>
  <path id="path2545" d="m53.267 39.844-0.23039 0.12278 0.53661 1.4978 0.1862-0.12278-0.49242-1.4978z"/>
  <path id="path2547" d="m54.886 41.543-0.142 0.034391 0.45581 1.5205 0.09781-0.034391-0.41161-1.5205z"/>
  <path id="path2549" d="m55.605 40.889-0.092449 0.089308 0.24778 0.98928 0.1237-0.27903-0.27903-0.79956z"/>
  <path id="path2551" d="m55.721 38.803c0.20355 0.56313 0.24377 0.95846 0.51608 1.4924l0.21209-0.20358c-0.19602-0.39677-0.57214-0.96869-0.77053-1.3643l0.042354 0.075445z"/>
  <path id="path2553" d="m55.928 41.514-0.15717 0.40939 0.90625 0.875 2.0799 0.18084-0.048636-0.24334-1.8794-0.042893-0.90089-1.179z"/>
  <path id="path2555" d="m56.615 42.579c-0.013085 0.42742-0.040563 0.85423-0.0625 1.2812l-0.003522-0.025888c0.076334-0.44432 0.28897-0.54223 0.31472-0.9902l-0.2487-0.26516z"/>
  <path id="path2557" d="m55.37 42.73-0.42012 0.026808 0.34153 1.5227 0.82322 0.67456 0.089308-0.035311-0.77589-0.7598-0.058058-1.429z"/>
  <path id="path2559" d="m55.211 44.164-0.37814 1.2295-0.008883-0.004442 0.67456-1.0527-0.28753-0.17234z"/>
  <path id="path2593" d="m114.01 80.886-0.21745-0.018956 1.1966 0.98928 0.02995-0.032821-1.0092-0.9375z"/>
  <path id="path2595" d="m115.49 82.829-0.017 0.10447 0.71116 1.3049 0.17326 0.009803-0.86742-1.4192z"/>
  <path id="path2597" d="m116.24 80.721-0.18084 0.10225 0.82009 1.2225 0.24712-0.22189-0.88637-1.1029z"/>
  <path id="path2599" d="m117.52 80.524-0.10539 0.1739 0.64709 0.97254 0.20294-0.14266-0.74464-1.0038z"/>
  <path id="path2601" d="m117.93 79.028-0.07035 0.013864c-0.01879 0.66356 0.55 0.89042 0.85826 1.4047l0.14044-0.24935c-0.3216-0.58176-0.37319-0.9238-0.92835-1.1692z"/>
  <path id="path2603" d="m118.29 81.493-0.34467 0.23483 0.51451 1.1951 1.2188 0.6875 0.03596-0.013214-1.0534-0.88101-0.3712-1.2232z"/>
  <path id="path2605" d="m116.5 83.972-0.30583 0.33303 0.51895 1.5022-0.1654 1.4419-0.75379 0.89553 0.03374-0.019606 0.97254-0.79576 0.25-1.4688-0.55021-1.8886z"/>
  <path id="path2607" d="m116.84 85.716-0.0085 0.22124c0.40299 0.65255 1.1544 0.12307 1.8292 0.36363l0.06027 0.012675c-0.59129-0.25527-1.2546-0.53389-1.881-0.59754z"/>
  <path id="path2641" d="m37.482 81.855-0.9123 1.2799 0.13778 0.25941 0.97346-1.3404-0.19893-0.19893z"/>
  <path id="path2643" d="m35.734 80.983-1.0013 1.3716 0.1996 0.28932 1.0319-1.3716-0.23018-0.28932z"/>
  <path id="path2645" d="m36.23 82.179-0.90289 1.6428 0.13979 0.16566 0.93346-1.6734-0.17037-0.13509z"/>
  <path id="path2647" d="m34.39 79.669-1.2453 1.1536 0.22884 0.22884 1.246-1.0924-0.22951-0.28999z"/>
  <path id="path2649" d="m33.949 82.643-0.92741 2.0924 0.375 2 0.051422-0.035284 0.023181-1.9919 0.86626-1.9987-0.38845-0.066534z"/>
  <path id="path2651" d="m35.42 83.987-0.13172 2.3038-0.96068 0.81183-0.013767 0.043354 1.2073-0.66096 0.16432-2.6767-0.26547 0.17876z"/>
  <path id="path2653" d="m33.146 84.423c-0.35704 0.22019-0.68948 0.47643-1.0312 0.71875l0.010759 0.018155c0.37888-0.22869 0.82321-0.12984 1.1855-0.38307l-0.16499-0.35384z"/>
 </g>
</svg>
