<?xml version="1.0" encoding="UTF-8"?>
<!-- Created with Inkscape (http://www.inkscape.org/) -->
<svg id="svg2" width="128" height="128" version="1.0" xmlns="http://www.w3.org/2000/svg" xmlns:cc="http://creativecommons.org/ns#" xmlns:dc="http://purl.org/dc/elements/1.1/" xmlns:rdf="http://www.w3.org/1999/02/22-rdf-syntax-ns#" xmlns:xlink="http://www.w3.org/1999/xlink">
 <defs id="defs4">
  <filter id="filter2972">
   <feGaussianBlur id="feGaussianBlur2974" stdDeviation="1.3855585"/>
  </filter>
  <linearGradient id="linearGradient2338">
   <stop id="stop2340" stop-color="#b1b1b1" offset="0"/>
   <stop id="stop2342" stop-color="#e4e4e4" offset="1"/>
  </linearGradient>
  <linearGradient id="linearGradient3068" x1="72.244" x2="79.395" y1="99.542" y2="67.805" gradientUnits="userSpaceOnUse" xlink:href="#linearGradient2338"/>
  <linearGradient id="linearGradient3072" x1="63.463" x2="64.258" y1="103.78" y2="98.92" gradientUnits="userSpaceOnUse" xlink:href="#linearGradient2338"/>
  <linearGradient id="linearGradient3076" x1="87.195" x2="87.195" y1="99.804" y2="95.827" gradientUnits="userSpaceOnUse" xlink:href="#linearGradient2338"/>
  <linearGradient id="linearGradient2342" x1="18.385" x2="31.024" y1="82.657" y2="67.012" gradientUnits="userSpaceOnUse" xlink:href="#linearGradient2338"/>
  <linearGradient id="linearGradient2346" x1="12.993" x2="15.468" y1="89.418" y2="86.413" gradientUnits="userSpaceOnUse" xlink:href="#linearGradient2338"/>
  <filter id="filter2946">
   <feGaussianBlur id="feGaussianBlur2948" stdDeviation="0.58541084"/>
  </filter>
  <filter id="filter2985">
   <feGaussianBlur id="feGaussianBlur2987" stdDeviation="0.63971791"/>
  </filter>
  <linearGradient id="linearGradient2991" x1="30.406" x2="40.659" y1="46.329" y2="28.917" gradientUnits="userSpaceOnUse" xlink:href="#linearGradient2338"/>
  <linearGradient id="linearGradient2995" x1="41.719" x2="44.288" y1="41.733" y2="39.346" gradientUnits="userSpaceOnUse" xlink:href="#linearGradient2338"/>
  <filter id="filter3055">
   <feGaussianBlur id="feGaussianBlur3057" stdDeviation="0.51064955"/>
  </filter>
  <linearGradient id="linearGradient3061" x1="77.156" x2="78.188" y1="38.281" y2="34.594" gradientUnits="userSpaceOnUse" xlink:href="#linearGradient2338"/>
  <linearGradient id="linearGradient3065" x1="84.125" x2="88.812" y1="38.688" y2="20.375" gradientUnits="userSpaceOnUse" xlink:href="#linearGradient2338"/>
  <linearGradient id="linearGradient3069" x1="92.062" x2="94.938" y1="41.031" y2="36.719" gradientUnits="userSpaceOnUse" xlink:href="#linearGradient2338"/>
  <filter id="filter3102">
   <feGaussianBlur id="feGaussianBlur3104" stdDeviation="0.51471824"/>
  </filter>
  <linearGradient id="linearGradient3108" x1="112.61" x2="121.09" y1="72.89" y2="56.538" gradientUnits="userSpaceOnUse" xlink:href="#linearGradient2338"/>
  <linearGradient id="linearGradient3112" x1="122.15" x2="125.42" y1="75.807" y2="72.183" gradientUnits="userSpaceOnUse" xlink:href="#linearGradient2338"/>
  <filter id="filter3136">
   <feGaussianBlur id="feGaussianBlur3138" stdDeviation="0.57214582"/>
  </filter>
 </defs>
 <metadata id="metadata7">
  <rdf:RDF>
   <cc:Work rdf:about="">
    <dc:format>image/svg+xml</dc:format>
    <dc:type rdf:resource="http://purl.org/dc/dcmitype/StillImage"/>
   </cc:Work>
  </rdf:RDF>
 </metadata>
 <g id="layer2">
  <path id="path2309" d="m66.844 38.469c-1.0512 0.005923-2.1052 0.033016-3.1562 0.0625-12.93 0.43485-27.066 5.086-35.031 15.312-0.18376 0.94656-0.33774 1.877-0.5 2.8125l1.3438 3c0.61627-3.2814 0.40121-6.9573 3.8438-8.7188 0.56737-0.20063 1.5718-2.247 2.2188-2.3438 0.1493-0.022338 0.27256 0.049354 0.375 0.28125 4.125 5.0521 9.4688 11.323 13.594 16.375-5.6785 3.7229-14.365 8.9517-20 12.594-0.041743-0.18281-0.080895-0.40577-0.125-0.59375l0.15625 1.8438c5.9102 0.037981 22.993-2.6415 28.656-2.375 2.5566 3.0467 8.4122 9.0158 10.969 12.062-0.10763 0.44853-0.17189 0.9196-0.25 1.375l0.96875-2.6562c-0.10633-0.17593-0.19174-0.32937-0.3125-0.5625-4.0258-3.2953-7.3769-8.8932-9.3438-11.125 2.141-0.20312 8.4019-1.1778 10.438-0.84375l0.03125-1.2812c-4.9041-0.27552-9.4145 0.76006-11.562 0.53125-1.9489-1.5337-4.8898-5.5256-6.9375-9.2188 4.6829-2.9071 9.7357-5.6447 11.5-6.6562 1.0533 0.34972 8.9129 2.7454 10.375 3.2188l0.46875-0.6875 2.9375-0.34375 3.625 8.125 0.5625 4.8438c7.1905-0.85481 17.663-2.3674 24.594-2.3438-1.7561 10.233-15.045 17.984-24.219 21.312l0.625 1.5625c1.1841-0.42446 3.2325-1.022 4.4688-1.3438 11.345-4.3668 22.641-14.695 20.594-28.062-2.0498-14.965-18.023-23.007-31.5-25.5-3.1067-0.53619-6.2527-0.67402-9.4062-0.65625zm-37.281 40.625 0.1875 1.8438-1.3125-0.75c0.17198 0.62141 0.35638 1.2502 0.5625 1.875 9.3416 10.564 25.138 14.27 38.688 15 0.36156 0.052147 0.70986 0.094736 1.0625 0.125l-1.25-2.1875c-0.071498 0.096736-0.138 0.19134-0.21875 0.28125-11.821-0.39807-27.762-5.0763-36.281-13.531-0.16724-1.8188-0.82146-2.4846-1.4375-2.6562zm34.844-39.219c5.716 0.047456 13.083 0.98454 18.5 2.75-6.5104 4.2708-13.365 9.6042-19.875 13.875-8.3646-2.5938-18.292-5.7188-26.656-8.3125 8.2253-5.2739 18.309-8.2732 28.031-8.3125zm19.656 3.2812c9.081 3.4898 19.997 10.546 21.875 20.688-0.58722 2.5656 1.0356 3.965 0.03125 6.375-7.1335-2.59-19.91-5.7651-26.25-9.1562 0.23798-5.5382 3.0292-12.647 4.3438-17.906zm-2.3438 2.2188c-0.80457 3.7765-3.8926 13.175-3.5312 14.844-3.6725 0.72346-9.7778-1.9884-14.062-3.4688 1.4282-1.536 14.968-8.3814 17.594-11.375zm-43.031 4.5312c0.70078 0.5071 6.6848 1.9612 10.5 3.625 3.7092 1.158 7.947 2.842 11.656 4-3.2317 2.1923-7.6586 5.7399-10.156 6.625-2.1449-4.2002-8.8537-9.5769-12-14.25zm41.719 13.656c4.7122 1.4096 17.038 5.0592 21.75 6.4688-5.0005 0.15343-16.641 1.3777-20.125 1.375-1.1417-3.3002-0.60556-5.5776-1.625-7.8438zm-29.469 2.5c2.0625 2.6875 4.125 6.0625 6.1875 8.75-7.25 0.66667-17.281 2.2083-24.531 2.875 5.1875-3.3542 13.156-8.2708 18.344-11.625z" fill="#800000" fill-opacity=".70588" filter="url(#filter2972)"/>
  <path id="path2950" d="m69.101 77.672-1.5684 0.33548-2.7496 0.87767-1.2908 1.3175-0.87061 2.3437s0.012266 3.3601 0.26321 3.5908c0.25095 0.23065 0.86646 2.7473 0.86645 2.7473l0.49111 2.9863 0.17096 3.4004-0.69878 4.0114 0.50221 1.5924-0.58663-0.53295-2.3987 0.76526-1.5274 0.97581 0.21286 0.87909 0.94775 0.75923 2.0911 0.50534 1.3137-0.12223 2.3821-0.81775 1.4209-0.70087-2.0186-0.58156-1.4855-0.83101c0.39954 0.14261 1.7178 0.62104 2.3773 1.0045 0.76377 0.44405 2.867 0.31135 2.867 0.31135l3.9086-0.0609 4.3265 0.44745 3.5641-0.23469 1.9839-1.0594 0.73104-2.1737-1.7583-2.2063-1.644-1.2314-0.3808-1.2074-2.5072-6.6225-2.3023-4.1353-1.7812-1.9726-1.1086-0.963-1.0408-1.3604-2.7029-2.0369z" fill-opacity=".62745" fill-rule="evenodd" filter="url(#filter2985)"/>
  <path id="path3066" d="m65.816 96.519 1.9027-6.9189 0.86486-5.9676 0.43243-5.2757s0.17297-4.4973 0-4.9297 0.86486-6.3135 0.86486-6.3135l1.5568-3.9784 1.6432-2.1622 2.9405-1.2108 1.6432-0.43243 1.9892 3.8919 0.60541 2.5081 0.77838 1.8162 1.1243 3.6324 0.95135 7.5243 0.43243 11.849v2.1622l1.2108 2.3351 1.0378 4.0649-1.3838 3.7189-2.2486 1.6432c-1.182 0.23443-2.364 0.5681-3.5459 0l-4.0649-1.2973-3.8054-0.34595s-2.0757 0-2.6811-0.86486c-0.60541-0.86487-2.2486-2.2487-2.2486-2.2487v-3.2z" fill="url(#linearGradient3068)" fill-rule="evenodd"/>
  <path id="path3070" d="m65.407 98.39-2.5633 1.0607-1.7678 1.5026-0.088388 1.591 0.70711 1.4142 1.8562 1.149 1.3258-0.08839 2.5633-1.149 1.591-1.0607-1.7678-1.2374-1.2374-1.6794-0.61872-1.5026z" fill="url(#linearGradient3072)" fill-rule="evenodd"/>
  <path id="path3074" d="m84.764 94.678 1.6794 0.44194 2.2097-0.088389 0.7955 0.53033-0.088388 1.9445 0.26516 1.149-0.7955 0.61872-3.182 0.53033-0.088388-2.6516-0.7955-2.4749z" fill="url(#linearGradient3076)" fill-rule="evenodd"/>
  <path id="path2348" d="m14.987 62.177-1.0771 0.46811-1.3989 1.2111-0.27893 2.3915 0.14393 3.9471-1.3173 3.261-1.0761 2.6558 1.6562 4.9765s1.4385 3.8475 1.5097 4.0616c0.071244 0.21408 2.2427 1.3245 2.2427 1.3245l-0.075566-0.22706 0.98769 0.78307 1.6844 0.31199 2.2446 2.47e-4 2.3554-0.42667 2.5289-0.7603 3.9082-2.22-1.0734-4.0802-1.5031-3.9467-0.00537-1.631-0.9959-3.2775-1.9962-4.0984-1.5897-1.8321-2.6495-1.7869-2.6592-0.96128-1.5654-0.14435zm-3.5937 23.873-1.1895 0.41534-0.71973 1.067-0.047535 0.71207 1.7307 1.116 1.2534 0.061699 1.8513-0.13651 2.4731-0.64278 1.0273-0.42761-1.244-0.98324-1.2172-0.42786-3.918-0.75408z" fill-opacity=".62745" fill-rule="evenodd" filter="url(#filter2946)"/>
  <path id="path2340" d="m15.998 85.927s-1.7678-1.9445-1.7678-2.2981c0-0.35355-0.17678-6.7175-0.17678-6.7175v-8.2201l1.9445-4.2426 2.3865-5.2149 1.149-6.4524 1.0607-3.8891 1.7678-1.8562 1.2374-0.70711 1.5026 0.35355 2.2981 1.7678 2.0329 3.0936 0.97227 3.0936 0.61872 6.8059-0.088388 5.3917-0.53033 2.6517 0.17678 6.5407-0.26516 6.7175-4.5962 3.3588-2.74 1.0607-2.4749 0.53033-2.2097-0.17678-1.591-0.61872-0.70711-1.3258v0.35355z" fill="url(#linearGradient2342)" fill-rule="evenodd"/>
  <path id="path2344" d="m15.822 86.457-3.6239-1.5026-1.3258 0.61872-1.0607 1.6794-0.26517 1.149 1.3258 1.9445 1.2374 0.17678 1.8562-0.088389 2.6516-0.88388 1.149-0.61872-0.88388-1.6794-1.0607-0.7955z" fill="url(#linearGradient2346)" fill-rule="evenodd"/>
  <path id="path2997" d="m28.702 47.286-2.7351-2.3306-1.7305-3.1344-0.2261-2.6695 0.99066-2.3221 0.1974-0.85316s-0.95778-3.7526-1.2361-4.7813c-0.27831-1.0287-0.79207-3.8157-0.79207-3.8157l1.7281-4.094 1.591-0.50823 0.95052-0.1348 1.914 0.76284 3.6092 2.7436 1.2352 4.2954 0.57051 3.5758 1.1422 1.867 2.1271 2.3999 1.0015 3.509-0.69092 2.9861-0.27468 0.91498-2.8171 1.0721s-1.8452 0.57253-2.199 0.57748c-0.35377 0.004955-2.5201 0.27827-2.5201 0.27827l-1.8358-0.33874z" fill-opacity=".62745" fill-rule="evenodd" filter="url(#filter3055)"/>
  <path id="path2989" d="m29.345 46.594-2.2981-3.4471-1.149-4.5962 0.26516-3.8891 1.4142-3.3588 0.35355-1.2374s-0.26516-5.4801-0.35355-6.9827c-0.088389-1.5026-0.088389-5.5685-0.088389-5.5685l2.4749-5.922 1.6794-0.70711 0.97227-0.17678 1.7678 1.149 3.0936 4.0659 0.44194 6.2756-0.088388 5.2149 0.7955 2.74 1.6794 3.5355 0.35355 5.1265-1.2374 4.331-0.44194 1.3258-3.0052 1.5026s-1.9445 0.7955-2.2981 0.7955c-0.35355 0-2.5633 0.35355-2.5633 0.35355l-1.7678-0.53033z" fill="url(#linearGradient2991)" fill-rule="evenodd"/>
  <path id="path2993" d="m40.659 42.44 1.2374 0.53033 2.8284-0.88388s0.97227-0.35355 0.88388-0.7955c-0.088388-0.44194-0.7955-1.7678-0.7955-1.7678s-0.61872-1.3258-0.97227-1.3258c-0.35355 0-2.4749 0.17678-2.4749 0.17678l-0.88388 0.61872 0.17678 3.4471z" fill="url(#linearGradient2995)" fill-rule="evenodd"/>
  <path id="path3071" d="m77.492 17.664-1.2783 1.165-0.26483 1.7253-2.0756 2.0963 1.671 5.5899 0.51332 2.8583 1.2125 2.8863s0.43033 1.0343 0.73287 1.7115l-0.15028-0.24682-3.9331 0.92359-0.71635 0.80636s1.3538 0.81301 1.5309 0.95869c0.17704 0.14568 2.0531 0.841 2.0531 0.841l1.8321-0.13455s1.3998-0.29561 1.7329-0.32562c0.0052 0.003282 0.025393-0.005401 0.030534-0.002243 0.06022 0.036991 0.1124 0.088863 0.16331 0.10702l2.1203 0.67738 2.8991 0.22347s2.3405-0.29091 3.1344-0.34921c0.7939-0.058306 1.6674-0.59851 1.6674-0.59851l-0.35959-1.7191 0.40962-1.1409 2.1024-0.4321-0.71708-1.1375-2.4037-2.0054-1.874-1.9253-2.95-6.3688-3.293-3.8046-2.0846-1.9891-1.7052-0.3905z" fill-opacity=".62745" fill-rule="evenodd" filter="url(#filter3102)"/>
  <path id="path3059" d="m80.5 38.625c-0.3125 0-1.875 0.3125-1.875 0.3125h-1.875s-1.625-1.3125-1.75-1.5625-1.1875-1.6875-1.1875-1.6875l1-1.1875 4.25-1 0.375 2.3125 1.0625 2.8125z" fill="url(#linearGradient3061)" fill-rule="evenodd"/>
  <path id="path3063" d="m80.625 38.812c-0.5625-0.4375-1.375-3.5625-1.4375-3.9375s-0.1875-3.75-0.1875-3.75l-0.1875-4.6875 0.5-4.5625 0.3125-9 2.8125-3.0625 0.875-2.6875 1.6875-1.6875 1.5625 0.8125 1.375 3.375 1.9375 6.375 0.6875 10.375 1.1875 3.25 1.6875 3.4375 0.3125 1.875-2.25 0.4375-0.8125 1.75-0.25 2.75s-1.0625 0.75-1.875 0.75-3.25 0.1875-3.25 0.1875l-2.8125-0.6875-1.875-1.3125z" fill="url(#linearGradient3065)" fill-rule="evenodd"/>
  <path id="path3067" d="m92.812 34.812-1.875 1.1875-0.4375 3.375 0.375 1.625s0.6875 0.4375 0.9375 0.4375 2.375 0.0625 2.375 0.0625l1.3125-0.3125 1.375-1.625-0.1875-2.3125-1.5-1.6875-2.375-0.75z" fill="url(#linearGradient3069)" fill-rule="evenodd"/>
  <path id="path3114" d="m116.72 76.771c-0.9317-0.084883-4.9123-0.40047-4.9123-0.40047l-3.257-1.8236-2.5597-3.0412-0.83692-2.8006 0.85958-2.2695-4.1055-6.3508 0.9647-3.4313 1.1019-4.0201 1.3226-0.5279 2.5413 0.27859 2.7746 1.4084 1.5937 2.0381 1.38 3.8436 0.95241 3.1928 1.2267 2.0151 2.3551 1.9663 3.2913 2.7418 1.6017 3.2468-0.15997 1.3973-0.44352 1.1937-0.81277 0.82535-1.6062 0.32429-3.2718 0.19346z" fill-opacity=".62745" fill-rule="evenodd" filter="url(#filter3136)"/>
  <path id="path3106" d="m114.55 76.293c-0.88388-0.26517-4.6846-1.3258-4.6846-1.3258l-2.2981-3.2704-0.97227-5.0381 0.61872-4.4194 2.0329-3.3588-0.7955-10.341 2.74-5.1265 3.182-6.0104 1.591-0.61872 2.3865 0.7955 2.0329 2.5633 0.53033 3.3588-0.61872 6.0988-0.70711 5.0381 0.17678 3.2704 1.3258 3.3588 1.8562 4.6846-0.08839 5.2149-0.88388 2.1213-1.0607 1.7678-1.2374 1.149-1.7678 0.26517-3.3588-0.17678z" fill="url(#linearGradient3108)" fill-rule="evenodd"/>
  <path id="path3110" d="m122.77 71.166 1.8562 0.088389h0.88388l0.17678 2.6516 0.97227 1.6794-1.8562 0.70711-1.591 0.26516h-1.4142l-1.2374-1.149 0.97227-0.97227 1.2374-3.2704z" fill="url(#linearGradient3112)" fill-rule="evenodd"/>
  <path id="path3140" d="m65.407 98.39-2.5633 1.0607-1.7678 1.5026-0.088388 1.591 0.70711 1.4142 1.8562 1.149 1.3258-0.08839 2.5633-1.149 1.591-1.0607-1.7678-1.2374-1.2374-1.6794-0.61872-1.5026z" fill-opacity=".15686" fill-rule="evenodd"/>
  <path id="path3142" d="m15.822 86.457-3.6239-1.5026-1.3258 0.61872-1.0607 1.6794-0.26517 1.149 1.3258 1.9445 1.2374 0.17678 1.8562-0.088389 2.6516-0.88388 1.149-0.61872-0.88388-1.6794-1.0607-0.7955z" fill-opacity=".15686" fill-rule="evenodd"/>
  <path id="path3144" d="m80.5 38.625c-0.3125 0-1.875 0.3125-1.875 0.3125h-1.875s-1.625-1.3125-1.75-1.5625-1.1875-1.6875-1.1875-1.6875l1-1.1875 4.25-1 0.375 2.3125 1.0625 2.8125z" fill-opacity=".15686" fill-rule="evenodd"/>
  <path id="path3146" d="m16.25 67.875c-0.52358-0.5016-1.0624-0.89655-1.75-0.25l2-4.125 0.25 0.1875-0.625 2.125 0.125 2.0625z" fill-opacity=".15686" fill-rule="evenodd"/>
  <path id="path3148" d="m28.125 65.812 1.5625-3-1.4375-4.9375c-1.0743 1.4661-3.1276 2.3563-1.5625 5.375 1.1589 0.56283 1.4378 1.5028 1.4375 2.5625z" fill-opacity=".15686" fill-rule="evenodd"/>
  <path id="path3150" d="m27 48.438c0.007247 1.9275 0.4496 3.7929-0.625 5.875 0.81694-0.68133 1.3963 0.53773 2.0625 1.0625 0.3597-2.1458 0.070366-1.9167-0.3125-4.0625l-1.125-2.875z" fill-opacity=".15686" fill-rule="evenodd"/>
  <path id="path3152" d="m22.562 80.875 0.125 3.125 2.125 2.125-3.6875 1.3125c0.687-0.55662 1.8833-1.0405 1.5-1.75 0.034024-1.2286-1.3015-1.2833-2.375-1.5625 2.022-0.77054 1.5494-2.1647 2.3125-3.25z" fill-opacity=".15686" fill-rule="evenodd"/>
  <path id="path3154" d="m71.375 67.625 0.75-5.4375-0.8125 0.875-2 5.5625c0.67817-0.40799 1.2366-1.7738 2.0625-1z" fill-opacity=".15686" fill-rule="evenodd"/>
  <path id="path3156" d="m75.188 103.06 2.4375-0.1875 1.5625-0.4375c0.91802-0.68851 3.9241-4.8337 3.375-3.9375-0.3409 0.55639-0.9375 2.875-0.9375 2.875-0.65209 1.095-1.3347 2.1924 0.125 3.125l-4.125 0.1875-2.4375-1.625z" fill-opacity=".15686" fill-rule="evenodd"/>
  <path id="path3158" d="m66.25 94.125-0.375 3.5625 0.0625 1.9375 1.375 1.6875 3.375 1.4375c-2.1267-2.3488-4.8435-4.2183-4.4375-8.625z" fill-opacity=".15686" fill-rule="evenodd"/>
  <path id="path3160" d="m120 73.5-4.4375 1.8125h-3.625l1.875 0.875 2.875 0.3125c0.26663-1.67 2.2078-2.0004 3.3125-3z" fill-opacity=".15686" fill-rule="evenodd"/>
  <path id="path3164" d="m122 63.875 0.875 3.75-0.25 3.5625c-1.4453-0.8065-2.9961-1.1557-4.9375 0.1875-0.3467-2.8107 1.5894-5.4788 3.875-8.125l0.4375 0.625z" fill-opacity=".15686" fill-rule="evenodd"/>
  <path id="path3166" d="m107.88 61.312 1.125-2.1875 2-1.5s-1.3125 4.6875-3.125 3.6875z" fill-opacity=".15686" fill-rule="evenodd"/>
  <path id="path3170" d="m116.44 37.438-1.625 3-0.1875 3.4375c-0.72121-0.76916-0.30043-2.7945-2.5-1.9375l1.875-3.75 1.25-1 0.9375-0.3125 0.25 0.5625z" fill-opacity=".15686" fill-rule="evenodd"/>
  <path id="path3172" d="m91.75 30c-1.5609-0.004177-1.9489 1.3322-2.375 2.625-1.0979 0.58439-1.5864 0.25466-2.375 0.375 0.35934-1.5384 0.38038-3.1191 2-4.5l1.5625-2 1.1875 3.5z" fill-opacity=".15686" fill-rule="evenodd"/>
  <path id="path3174" d="m82.625 15.062c-0.56492-1.4111-1.2834-2.4713-3-1.25l2.8125-4 1.3125 2.1875 1.75 0.8125c-1.442 0.11483-1.1837 2.7644-2.875 2.25z" fill-opacity=".15686" fill-rule="evenodd"/>
  <path id="path3176" d="m78.875 32.188c0 0.25 1.75 5.875 1.75 5.875l2.3125 2.4375 4.5625 0.4375c-3.0188-2.5059-6.6595-3.2348-8.625-8.75z" fill-opacity=".15686" fill-rule="evenodd"/>
  <path id="path3178" d="m37.75 32.188c-1.2652 2.8125-1.0021 5.625-1.1875 8.4375 0.43491 1.276-0.37763 3.0511-0.6875 4.625 1.1684-0.77215 1.9495-2.8351 3.5625-2.125l-1-1.75 0.5-6.4375-1.1875-2.75z" fill-opacity=".15686" fill-rule="evenodd"/>
  <path id="path3180" d="m28.812 45.688-1.125-1.5-0.4375-1.8125c1.0632 0.56699 1.837-0.60309 2.75-0.9375l-1.3125 2.25 0.125 2z" fill-opacity=".15686" fill-rule="evenodd"/>
  <path id="path3182" d="m28.812 36.125s-1.25-0.75-1.25-1.625 0.25-3.375 0.25-3.375l-1.5 2.875-0.5625 4.1875c1.1324-1.1917 2.0915-2.3238 3.0625-2.0625z" fill-opacity=".15686" fill-rule="evenodd"/>
  <path id="path3184" d="m30.625 13.438 0.6875-2.125-1.9375 1.375-1.875 4.5625c1.0333-1.3295 1.9439-3.5174 3.125-3.8125z" fill-opacity=".15686" fill-rule="evenodd"/>
 </g>
 <g id="layer1">
  <path id="path2310" d="m84.75 5.2188c-1.2451 0.12149-2.2406 1.3267-2.5625 3.1875v0.03125c-0.12641 0.81501-0.51448 1.3141-1.0312 1.875-0.51677 0.56094-1.1648 1.1315-1.7188 1.9688l-0.03125 0.0625-0.03125 0.09375c-0.33143 1.1315-0.41945 3.3528-0.46875 5.6562-0.048751 2.2777-0.031715 4.5212-0.03125 5.5312 5e-6 0.011413 0 0.051414 0 0.0625-0.44723 3.0971-0.72215 6.2421-0.3125 9.4062-1.9941-0.027457-3.4994 0.88103-4.8125 2.25-0.29676 0.99727 0.30851 1.3958 0.875 2.0625 0.61037 1.1041 1.6127 1.4638 2.7812 1.8438 1.0401-0.063986 2.0842-0.014153 3.125 0 0.24645 0.25803 0.51934 0.51016 0.84375 0.75v0.03125c2.7752 1.9025 6.074 1.4879 8.9688 0.375 0.28576 0.81373 0.77206 1.255 1.5938 1.6562 1.6468 0.17407 3.0491-0.26369 4.375-1.1875 1.7936-1.8466 1.2886-3.5797-0.34375-5.1875l-0.03125-0.03125h-0.03125c-0.57856-0.38209-1.2096-0.71887-1.875-0.90625-0.010695-0.60699-0.082437-1.3959-0.21875-1.9688-1.0331-2.1326-1.9248-4.3561-2.8125-6.5625-0.17668-5.0226-0.54971-13.54-3.25-18.219-0.011432-0.036955-0.019411-0.057501-0.03125-0.09375h-0.03125c-0.28721-0.87187-0.66134-1.5754-1.1562-2.0312-0.51871-0.47779-1.1587-0.717-1.7812-0.65625zm0.09375 1c0.31695-0.030925 0.64934 0.083251 1 0.40625s0.71885 0.8484 0.96875 1.6562v0.0625l0.03125 0.0625c2.4963 4.2438 2.9806 12.949 3.1562 17.969l-1.0312 2.0625-0.40625 2.9375-1.5625 1.4688 0.0625 0.125 1.9062-0.78125 0.375 0.65625 0.1875-0.0625-0.15625-0.78125 0.09375-3.3125 0.84375-1.4375c0.78057 1.9235 1.578 3.8713 2.5312 5.75 0.15616 0.65622 0.14091 1.0824 0.09375 1.625-0.92729 0.050832-1.8415 0.57035-2.5 1.6875-0.22045 1.0129-0.24076 2.0577-0.25 3.0938-2.7617 1.1051-5.7394 1.481-8.2188-0.21875-0.92103-0.68092-1.3809-1.34-1.6875-2.1562s-0.44868-1.793-0.59375-2.9688v-0.03125c-0.6267-3.3972-0.31321-6.7976 0.1875-10.25v-0.03125-0.0625c0-1.0065-0.017612-3.2796 0.03125-5.5625 0.048301-2.2566 0.20907-4.5227 0.4375-5.3438 0.45639-0.66352 1.0126-1.1843 1.5625-1.7812 0.17551-0.19051 0.33944-0.40326 0.5-0.625l1.0312 1.5625-0.0625 1.875-0.84375 1.375v0.03125l1.125-1.0938 0.25-1.5625 1.7188 0.375 0.03125-0.0625-1.6562-0.875 0.03125-0.125-1.125-2.375c0.12184-0.28634 0.22789-0.59346 0.28125-0.9375 0.27634-1.5976 1.0224-2.2819 1.6562-2.3438zm-52.094 4.3125c-4.5514-0.048676-5.4617 5.3344-5.9375 9.125-0.55144 3.5868 1.382 7.3205 0.84375 10.906-1.4298 2.5805-2.3831 5.4856-2.3438 8.3438v0.09375c0.8703 2.8526 2.0347 5.4733 3.8438 7.8438 3.6241 1.1703 6.8202-0.32121 10-2.0312h0.03125v-0.03125c0.57801-0.55673 0.94974-1.1754 1.2188-1.8438 0.78625 0.071873 1.7342 0.26925 2.7188-0.1875v0.03125c1.056-0.29428 2.2028-0.40684 2.7812-1.6562-0.51331-1.0864-1.227-2.033-1.9688-2.9688-1.023-0.56896-1.9414-0.39197-2.9688-0.09375-0.002618-0.16714 0.001984-0.33383 0-0.5-2.1e-5 -0.00856 1.1e-5 -0.022742 0-0.03125 0.001585-0.011473-0.001547-0.019799 0-0.03125 0.39712-2.9402-0.78997-4.6371-1.9688-7.125-1.386-3.2171-0.5-7.5817-0.5-11.281-0.99176-3.4964-2.0725-7.3409-5.75-8.5625zm-0.125 0.5625c3.2888 0.83927 3.9224 5.282 4.875 8.0938-0.006464 2.3207-0.24713 4.7936 0 7.2188l0.15625 5.875 0.9375 2.5312-2.125 5.8438h0.09375l1.8125-4-0.21875 1.125-0.3125 3.5-2.0938 3.9688h0.1875l2.5-3.6562 0.1875-3.6875 0.53125-3v-0.03125-0.03125l-1.0938-2.6562 0.125-2.6875c0.086347 0.24911 0.14433 0.50473 0.25 0.75 1.2345 2.2822 1.7244 4.5873 1.5625 7.1562 0.27614 2.3666-0.016373 4.731-1.125 6.8125-2.821 1.946-5.868 2.9912-9.3125 2.5625-0.90489-1.4471-0.52327-2.1223-0.6875-3.125l1.25-2.125-0.21875-0.25-1.4375 2.3438-0.03125 1.625c-1.267-2.0531-1.2553-4.1424-2.125-6.4375-0.023995-2.3671 0.26816-4.9136 1.1875-7.0625l-0.125 2.7812 1.3438 1.7188 0.125-0.125-1.1562-1.5312 0.34375-3.9062c0.007559-0.062853 0.024328-0.1246 0.03125-0.1875v-0.15625l1.5312-1.5938 0.03125-0.3125-1.5 1.3125c0.23737-3.2778-0.28322-6.6091-0.3125-9.9062v-0.0625-0.03125c0.44244-2.4246 1.0009-6.3664 3.0938-7.9688l-0.34375 1.625 0.25 0.15625 0.75-2.1562c0.32644-0.15366 0.67083-0.26919 1.0625-0.3125zm45.656 23c0.14464 5.01e-4 0.29055 0.023045 0.4375 0.03125 0.003712 0.020647-0.003776 0.041851 0 0.0625h-0.03125c0.14514 1.1763 0.29164 2.2167 0.65625 3.1875 0.12521 0.33337 0.27719 0.65795 0.46875 0.96875-0.77923 0.16101-1.5987 0.50423-2.3438 0.53125-1.1769-0.19442-1.3329-1.0947-2.0625-2.0625-0.3748-0.1807-0.98996-0.84893-1.25-1.1562 1.0936-1.1007 2.5359-1.568 4.125-1.5625zm14.906 1.0625c0.64796 0.01083 1.3549 0.80287 2.0938 1.2812 1.5485 1.1839 1.7483 2.6941 0.625 4.1875-0.97921 0.81415-2.5594 0.38734-3.7812 0.46875-0.62316-0.17502-1.105-0.52378-1.375-1.0312-0.011074-0.85864 0.51062-2.4652 0.625-3.3125 0.55359-0.892 1.1676-1.6045 1.8125-1.5938zm22.656 1.5625c-1.9684 0.28281-2.7906 1.7091-3.5312 3.4062-1.363 2.8298-2.8789 5.5811-4.0625 8.5-0.10551 3.1839 0.38956 6.3605 0.6875 9.5312-0.21774 1.2307-1.2207 2.458-1.9375 3.5625-3.9521-12.884-20.926-22.562-41.188-22.562-15.051 1e-6 -28.213 5.3438-35.625 13.375-0.4664-1.3693-1.1204-2.6423-2-3.7188v-0.09375l-0.125-0.0625c-0.82049-0.95782-1.8327-1.7518-3.125-2.25l-0.0625-0.03125h-0.0625c-4.957-0.34024-5.763 5.3663-6.0938 9.2188-0.73637 4.6791-3.1678 8.8227-4.875 13.188-0.41481 4.915-0.38184 9.8354-0.03125 14.75l0.0625 0.125c0.31988 0.85622 0.70474 1.5343 1.1562 2.0938l-2.9062-0.90625c-1.7231 0.48703-2.3091 1.655-2.875 3.2188-0.016554 1.3691 0.92359 1.9992 1.9375 2.7188 2.6173 0.3271 4.8576-0.65954 7.0312-2-0.13824-0.50303-0.43657-0.9523-0.75-1.375 0.69391 0.23223 1.454 0.37733 2.3438 0.4375 3.3386-0.20381 6.3802-1.3148 9.2812-2.9062l0.0625-0.03125 0.03125-0.0625c0.56584-0.64313 0.96898-1.3624 1.25-2.125 7.4288 7.8468 20.395 13.081 35.188 13.125-0.069755 0.57599-0.12371 1.179-0.15625 1.8125-1.166 0.12088-2.0015 1.1192-2.8438 1.7188-1.3959 0.80128-1.9348 1.259-2.25 2.7188 0.37976 1.9915 1.8277 2.9938 3.7188 3.0938 1.8112 0.02066 3.8113-1.1608 5-2.1875 2.1505 0.63391 4.4824 0.50981 6.625 1.3438 2.0191 0.99547 4.1908 0.80561 6.3438 0.34375 1.8964-0.67187 3.4595-2.1404 4.125-4.4062 1.3601-0.16277 2.6293-0.50652 3.625-1.4062 0.16059-1.0442 0.008365-2.1837-0.0625-3.25-0.15493-0.54482-0.75447-0.5732-1.2188-0.75-1.2777-0.002447-2.4509-0.076158-3.6875-0.34375-0.20839-0.52336-0.42714-1.0488-0.65625-1.5625 11.95-3.9336 20.747-11.566 23.062-20.688 0.61407 1.2417 1.5845 2.2855 3.0625 3 3.1171 1.1823 6.0763 1.768 9.3438 1.0312 0.22669-0.13323 0.4534-0.25382 0.65625-0.40625 0.74145 0.7937 1.3686 1.1661 2.4375 1 1.5088-0.41526 3.3137 0.15688 4.375-1.75-0.85243-1.0009-1.7679-1.9702-1-3.7812-0.98162-0.63417-1.9685-0.61414-2.9688-0.5 0.39516-2.1645 0.18098-4.5302-0.34375-6.5312-0.68737-2.2795-2.1361-4.2337-2.7188-6.5625-0.45793-3.6321 0.79642-7.6376 0.96875-11.438 0.36551-2.5467 0.39533-4.5852-0.59375-6.9688l-0.03125-0.0625-0.03125-0.03125c-1.4881-1.6576-3.0474-2.6324-4.5625-2.5625zm0.15625 0.21875c0.09908-0.004569 0.20959 0.039426 0.3125 0.0625l-1.9375 3.7188 0.21875 3.2812 0.1875 0.09375 0.1875-3.25 1.9375-3.625c0.81993 0.50025 1.7265 1.5914 2.7188 2.6875 1.161 2.0571 0.55919 4.1799 0.4375 6.4062-0.36401 3.8132-0.78716 7.5758-0.53125 11.406 0.5012 1.948 1.2367 3.8222 1.9062 5.7188l-1.1875 3.625-2.5625 4.2812-1.5938 0.375 0.03125 0.03125 1.4688-0.125 3.1875-4.375v-0.03125l0.03125-0.0625 0.9375-2.8125c0.03146 0.093521 0.06287 0.18755 0.09375 0.28125 1.1051 3.9469 1.02 8.8322-2.375 11.312-2.2089 0.83362-4.6956 0.12326-7-0.59375l3.0938 0.0625 5.0938-1.8438 1.0312-2.5312h-0.03125l-1.1562 2.0625-5.1562 1.9062-4.7812-0.25c-4.052-1.7889-3.4482-8.4982-2.9375-12.219 0.61723-0.92548 1.0672-1.8938 1.4062-2.9062 1.0891-0.90852 2.0574-1.7387 2.8125-3.5625l-0.15625 0.03125c-0.02153 1.0334-1.3541 1.5476-2.2812 2.2188-0.19561-3.1346-0.60531-6.4558-0.53125-9.5938 1.0634-2.92 3.0723-5.2873 4.375-8.1875v-0.03125-0.03125c0.45779-1.5418 1.3576-3.0267 2.75-3.5312zm-72.938 1.4062c0.26345-0.024223 0.49837-0.0146 0.6875 0.03125 0.54208 0.63114 0.98355 2.139 1.375 2.8438-0.43043 0.38576-1.6653 0.90092-2.4375 1.1875-0.65805 0.3002-1.3101-0.22253-2-0.40625 0.22936-0.96655 0.28484-1.9967 0.28125-3.0312 0.56556-0.28747 1.4047-0.56164 2.0938-0.625zm22.5 1.2188c19.998 1e-6 37.33 10.333 40.969 23.281h0.0625c-0.32284 2.9136-0.60742 6.1072 0.3125 8.6562-1.8828 9.2522-10.849 16.994-22.969 20.938-0.003975-0.008703 0.003977-0.022549 0-0.03125-0.5149-4.9258-0.20649-9.874-0.53125-14.812-0.047486-1.5699-0.25436-3.1092-0.5625-4.625l22.062-2.8125-25.094-7.5938c-0.053067-0.22367-0.67467-2.188-0.75-2.4062l4.1875-16.375-20.25 13.281-25.594-7.9375 13.062 16.031-19.469 12.844c-0.013558-0.59418-0.026747-1.1828-0.0625-1.7812-0.18821-3.1504-0.48613-6.3284 0.125-9.0938 0.46491-4.4913 0.089093-9.0077-0.53125-13.469v-0.03125c-0.051384-0.18846-0.099314-0.37605-0.15625-0.5625 7.3139-8.0323 20.433-13.5 35.188-13.5zm17.406 4.5938-4.25 15.656c-0.23262-0.29643-0.49184-0.57542-0.84375-0.8125-1.5978 0.017279-3.2728 0.68317-4.3438 1.3125l-10.312-3.25 19.75-12.906zm-58.25 2.4688c0.89754 0.35655 1.6254 0.98473 2.25 1.7188l1.2812 5.4062-0.4375 4.125-1.2812 5.5938 0.28125 0.09375 1.4375-4.75 1.2188 3.6562-1.4062 3.5625 2-3.3125-1.4688-5.625 0.28125-3.2812-0.4375-3.1562c0.47262 1.025 0.8325 2.1211 1.125 3.1875 0.96418 4.3561 1.1414 8.8068 1.0625 13.25-0.5908 3.1338-0.72817 6.1316-0.5 9.2812 0.18278 3.0594 0.029646 5.7874-1.6562 7.75-1.0873 0.67191-2.2138 1.3286-3.375 1.875l-1.5625-1.1562-0.53125-1.25-0.4375-2.9375-0.0625-0.125-0.25 3.125 0.09375 0.21875-2.5 0.21875v0.1875l2.75 0.125 0.4375 0.875 1.2812 1.0312c-1.4741 0.62892-2.9825 1.1007-4.5312 1.25-2.6564 0.11802-3.8247-2.1448-4.9688-4.2812-0.63231-4.3382-0.64809-10.049-0.53125-14.531 0.5781-1.7067 1.4027-3.287 2.25-4.8438-0.43019 1.1856-0.80109 2.3126-0.40625 4.0938l0.28125-0.03125c-0.3396-2.2674 0.55595-4.122 1.1562-6 1.0017-1.9342 1.8851-3.9211 2.1562-6.25v-0.03125-0.03125c0.18303-3.2908 0.93789-8.9777 5-9.0312zm13.125 2.7812 24.906 7.7812-11.844 8.125-13.062-15.906zm25.25 7.8125 10.062 3.3125c-1.5271 1.2022-2.5635 3.033-3.4375 5.2188-1.1827 2.6956-1.0842 5.6571-0.9375 8.5l-10.031 0.9375-7.6875-9.9062 12.031-8.0625zm14 2.5312c1.0497 0.81307 1.4086 1.9359 1.75 3.1562 0.19729 1.2743 0.91303 2.9048 1.75 4.125 1.4578 3.4312 1.8621 6.9725 2.0625 10.719 0.33762 4.9633 0.35374 10.167 0.8125 15.125 1.8406 1.9299 1.7035 5.149 1.75 7.125-0.58269 1.9726-1.8437 3.7055-3.4688 4.2812-1.6457 0.58305-3.6747-0.02525-5.5625-0.78125-0.11584-0.07018-0.22588-0.12731-0.34375-0.1875h2.4375l3.6562-1.7812 0.0625-0.21875 1.9062-1.125-0.09375-0.15625-1.6875 0.71875 0.6875-2.6875-0.21875-0.125-0.96875 3.3125-3.5 1.5h-0.09375l0.25-2.1562-0.0625-0.09375-0.875 2.25-3.4375-0.0625c-1.9393-0.35492-3.9862-0.15954-5.8125-1.125-0.67158-0.47991-1.5938-1.2508-2-2.5938-0.043961-4.6161 1.5051-7.4765 2.5625-10.344l0.03125-0.09375v-0.0625c0.054554-4.6661 0.67057-7.1387 0.75-11.906-0.077487-0.83588-0.12051-1.6512-0.125-2.4688l0.09375-0.09375h-0.09375c-0.005119-2.6705 0.39734-5.2663 1.3125-7.8438 0.16762-1.1378 0.50442-2.0688 0.96875-2.8438-0.26269 1.2803-0.40536 2.6767-0.28125 4.3438l0.21875-0.0625c-0.17302-2.1802 0.97424-4.0515 1.625-6.0312 1.0555-0.8042 2.3929-1.351 3.9375-1.8125zm2.75 3.125 24.125 7.25-21.094 2.4688c-0.51837-1.6076-1.2675-4.2142-1.9688-6.125-0.72118-1.0839-0.86374-2.3418-1.0625-3.5938zm-29.062 2.375 7.8438 10.25-27.594 2.5312 19.75-12.781zm73.125 6.3125c0.58435-0.021012 1.0408 0.25045 1.375 0.71875 0.10586 0.75559-0.49442 1.2652 0.625 2.3438 0.16035 1.5302-2.1268 1.5167-3.4062 1.9688-0.75192 0.18398-1.0865-0.66556-1.625-1.1875 1.0364-0.9771 1.7132-2.2199 2.0938-3.5938 0.00267-0.009635-0.00264-0.021603 0-0.03125 0.32902-0.15143 0.66141-0.20882 0.9375-0.21875zm-55.125 2.9062c0.03486 0.66286 0.073657 1.3315 0.09375 2-0.062451 3.7483-0.76202 6.3932-1.0625 9.625l-8.7812-10.75 9.75-0.875zm-9.9375 1.2812 8.9375 10.625c-0.04765 0.62182-0.084149 1.2647-0.09375 1.9688-0.7412 2.0059-1.5883 4.1387-2 6.9062-14.575-0.030153-27.659-5.3306-35.062-13.188 0.32274-1.1733 0.42136-2.4485 0.40625-3.75l27.812-2.5625zm-46.844 9.6562c0.98195 0.1172 2.6047 0.89053 3.4688 1.3438 0.93569 0.39074 1.2702 1.6098 1.8125 2.4375-1.2405 0.63629-3.1144 0.40957-4.5312 0.9375-0.88686 0.33046 0.40321-1.6795 0.5-1.8438 0.14962-0.25386-1.5896 1.8365-1.875 1.8438-0.70545-0.29885-1.2825-1.3093-1.625-1.875 0.57494-1.1818 1.0904-2.3094 2.25-2.8438zm73.125 9.8125c1.0746 0.33328 2.4223-0.045733 3.625 0.09375 0.45488 0.54102 0.34852 2.6408 0.375 3.4062-0.71375 0.7259-1.9502 0.5789-2.9688 0.71875-0.15277-1.4445-0.52804-2.8544-1.0312-4.2188zm-19.688 3.4688c-4.58e-4 0.10641-0.001185 0.20416 0 0.3125 0.24671 1.4101 1.1677 2.3604 2.0938 3.375 0.2852 0.15795 0.58038 0.25974 0.875 0.375-1.3626 0.80894-2.7002 1.6622-4.2812 1.75-1.5149 0.00483-2.3971-0.98295-3-2.2188-0.042566-0.7421 0.64444-1.8194 1.875-2.5312 0.73254-0.65108 1.5378-0.89286 2.4375-1.0625z"/>
 </g>
</svg>
