<?xml version="1.0" encoding="UTF-8"?>
<!-- Created with Inkscape (http://www.inkscape.org/) -->
<svg id="svg2" width="128" height="128" version="1.0" xmlns="http://www.w3.org/2000/svg" xmlns:cc="http://creativecommons.org/ns#" xmlns:dc="http://purl.org/dc/elements/1.1/" xmlns:rdf="http://www.w3.org/1999/02/22-rdf-syntax-ns#" xmlns:xlink="http://www.w3.org/1999/xlink">
 <defs id="defs4">
  <linearGradient id="linearGradient2966">
   <stop id="stop2968" stop-color="#573711" offset="0"/>
   <stop id="stop2970" stop-color="#8b571c" offset="1"/>
  </linearGradient>
  <linearGradient id="linearGradient2888">
   <stop id="stop2890" stop-color="#c7a94c" offset="0"/>
   <stop id="stop2892" stop-color="#e2ca80" offset="1"/>
  </linearGradient>
  <linearGradient id="linearGradient2894" x1="33.903" x2="62.616" y1="79.914" y2="53.449" gradientUnits="userSpaceOnUse" xlink:href="#linearGradient2888"/>
  <linearGradient id="linearGradient2898" x1="91.589" x2="82.422" y1="96" y2="47.395" gradientUnits="userSpaceOnUse" xlink:href="#linearGradient2888"/>
  <linearGradient id="linearGradient2904" x1="84.211" x2="87.88" y1="86.965" y2="87.148" gradientUnits="userSpaceOnUse" xlink:href="#linearGradient2888"/>
  <linearGradient id="linearGradient2908" x1="89.225" x2="90.082" y1="72.807" y2="95.251" gradientUnits="userSpaceOnUse" xlink:href="#linearGradient2888"/>
  <linearGradient id="linearGradient2912" x1="83.416" x2="86.535" y1="70.392" y2="67.151" gradientUnits="userSpaceOnUse" xlink:href="#linearGradient2888"/>
  <linearGradient id="linearGradient2916" x1="89.225" x2="87.146" y1="71.248" y2="67.884" gradientUnits="userSpaceOnUse" xlink:href="#linearGradient2888"/>
  <linearGradient id="linearGradient2920" x1="89.225" x2="90.082" y1="72.807" y2="95.251" gradientTransform="translate(15.411 -6.9105)" gradientUnits="userSpaceOnUse" xlink:href="#linearGradient2888"/>
  <linearGradient id="linearGradient2924" x1="89.225" x2="87.146" y1="71.248" y2="67.884" gradientTransform="translate(15.166 -6.9105)" gradientUnits="userSpaceOnUse" xlink:href="#linearGradient2888"/>
  <linearGradient id="linearGradient2928" x1="83.416" x2="86.535" y1="70.392" y2="67.151" gradientTransform="translate(15.289 -6.8494)" gradientUnits="userSpaceOnUse" xlink:href="#linearGradient2888"/>
  <linearGradient id="linearGradient2932" x1="84.211" x2="87.88" y1="86.965" y2="87.148" gradientTransform="translate(15.289 -7.0328)" gradientUnits="userSpaceOnUse" xlink:href="#linearGradient2888"/>
  <linearGradient id="linearGradient2938" x1="93.323" x2="92.161" y1="83.846" y2="86.414" gradientUnits="userSpaceOnUse" xlink:href="#linearGradient2888"/>
  <linearGradient id="linearGradient2942" x1="91.733" x2="97.42" y1="97.178" y2="83.173" gradientUnits="userSpaceOnUse" xlink:href="#linearGradient2888"/>
  <linearGradient id="linearGradient2952" x1="97.909" x2="93.017" y1="88.8" y2="96.322" gradientUnits="userSpaceOnUse">
   <stop id="stop2948" stop-color="#1e0c00" offset="0"/>
   <stop id="stop2950" stop-color="#4f1f00" offset="1"/>
  </linearGradient>
  <linearGradient id="linearGradient2972" x1="59.574" x2="66.91" y1="42.617" y2="33.557" gradientUnits="userSpaceOnUse" xlink:href="#linearGradient2966"/>
  <linearGradient id="linearGradient2976" x1="71.904" x2="73.893" y1="49.997" y2="36.12" gradientUnits="userSpaceOnUse" xlink:href="#linearGradient2966"/>
  <filter id="filter3102">
   <feGaussianBlur id="feGaussianBlur3104" stdDeviation="1.0779148"/>
  </filter>
  <filter id="filter3112">
   <feGaussianBlur id="feGaussianBlur3114" stdDeviation="0.21924324"/>
  </filter>
 </defs>
 <metadata id="metadata7">
  <rdf:RDF>
   <cc:Work rdf:about="">
    <dc:format>image/svg+xml</dc:format>
    <dc:type rdf:resource="http://purl.org/dc/dcmitype/StillImage"/>
   </cc:Work>
  </rdf:RDF>
 </metadata>
 <g id="layer2" fill-rule="evenodd">
  <path id="path2980" d="m102.12 95.5-3.375-1.375-10.5 4.125-1.375 4.125-6-1.75-13.625-17-6.875 23-57.5-37.5 38.125-21 63.625 44.625-2.5 2.75z" fill-opacity=".56164" filter="url(#filter3102)"/>
  <path id="path2309" d="m9.773 68.151 44.886-29.146 3.6324 2.2486v6.7459l7.4378 2.0757 1.7297 3.7189-4.7568 54.573-10.724-8.0432-24.303-18.508-17.903-13.665z" fill="url(#linearGradient2894)"/>
  <path id="path2896" d="m62.53 108.45 20.065-8.9081 43.33-19.286-39.957-37.016-1.4703 3.2865-8.9081 0.17297-4.7568 5.9676-3.5459 0.95135-4.7568 54.832z" fill="url(#linearGradient2898)"/>
  <path id="path2900" d="m9.773 68.151 44.886-29.146 3.6324 2.2486v6.7459l7.4378 2.0757 1.7297 3.7189-4.7568 54.573-10.724-8.0432-24.303-18.508-17.903-13.665z" fill-opacity=".15686"/>
  <path id="path2902" d="m82.804 99.318 0.67271-28.498 2.9354 1.4677 0.24462 30.088-3.8528-3.0578z" fill="url(#linearGradient2904)"/>
  <path id="path2906" d="m86.657 102.31-0.18347-29.905 3.6082-0.97848 1.2231 28.804-4.6478 2.0793z" fill="url(#linearGradient2908)"/>
  <path id="path2910" d="m83.416 70.759 3.1189-3.6082-0.18346 5.137-2.9354-1.5289z" fill="url(#linearGradient2912)"/>
  <path id="path2914" d="m86.412 72.471 3.6082-1.0396-3.4858-4.5866-0.12231 5.6263z" fill="url(#linearGradient2916)"/>
  <path id="path2918" d="m102.07 95.404-0.18347-29.905 3.6082-0.97848 1.2231 28.804-4.6478 2.0793z" fill="url(#linearGradient2920)"/>
  <path id="path2922" d="m101.58 65.561 3.6082-1.0396-3.4858-4.5866-0.12231 5.6263z" fill="url(#linearGradient2924)"/>
  <path id="path2926" d="m98.704 63.909 3.1189-3.6082-0.18347 5.137-2.9354-1.5289z" fill="url(#linearGradient2928)"/>
  <path id="path2930" d="m98.521 85.191 0.24462-21.404 2.9355 1.4677 0.42809 30.333c-0.61213-0.38996-1.1968-1.0245-1.6575-1.4145l-0.00143-7.4248-1.9492-1.5571z" fill="url(#linearGradient2932)"/>
  <path id="path2936" d="m90.571 81.583 4.5866 1.4677-4.4032 5.8709-0.18347-7.3386z" fill="url(#linearGradient2938)"/>
  <path id="path2940" d="m91.182 98.095-0.24462-9.1733 4.0974-6.2378 5.3205 4.0362-0.24462 7.4609-8.9287 3.9139z" fill="url(#linearGradient2942)"/>
  <path id="path2944" d="m92.283 97.484v-7.2775l2.8743-4.0362 3.547 1.8347 0.12231 6.6048-6.5436 2.8743z" fill="url(#linearGradient2952)"/>
  <path id="path2954" d="m82.804 99.318 0.67271-28.498 2.9354 1.4677 0.24462 30.088-3.8528-3.0578z" fill-opacity=".15686"/>
  <path id="path2956" d="m83.416 70.759 3.1189-3.6082-0.18346 5.137-2.9354-1.5289z" fill-opacity=".15686"/>
  <path id="path2958" d="m98.704 63.909 3.1189-3.6082-0.18347 5.137-2.9354-1.5289z" fill-opacity=".15686"/>
  <path id="path2960" d="m98.521 85.191 0.24462-21.404 2.9355 1.4677 0.42809 30.333c-0.61213-0.38996-1.1968-1.0245-1.6575-1.4145l-0.00143-7.4248-1.9492-1.5571z" fill-opacity=".15686"/>
  <path id="path2962" d="m90.571 81.583 4.5866 1.4677-4.4032 5.8709-0.18347-7.3386z" fill-opacity=".15686"/>
  <path id="path2964" d="m55.685 39.258 13.877-10.341-1.812 24.616s-0.92808-0.7513-0.92808-0.92808c0-0.17678-0.83969-2.2981-0.83969-2.2981l-7.8224-2.0771 0.044194-6.7175-2.5191-2.2539z" fill="url(#linearGradient2972)"/>
  <path id="path2974" d="m69.694 29.138 15.424 15.203-0.97227 2.1655-8.8388 0.35355-4.552 5.6569-3.182 1.0165 2.1213-24.395z" fill="url(#linearGradient2976)"/>
  <path id="path2978" d="m55.685 39.258 13.877-10.341-1.812 24.616s-0.92808-0.7513-0.92808-0.92808c0-0.17678-0.83969-2.2981-0.83969-2.2981l-7.8224-2.0771 0.044194-6.7175-2.5191-2.2539z" fill-opacity=".15686"/>
  <path id="path3106" d="m84.757 44.368-1.9892 0.95135-7.0919 1.2973-5.6216 4.5838-1.8162 1.4703-2.0757-2.2486-7.5243-3.4595-0.43243-5.2757-1.5568-2.7676-1.2108 0.6054 2.5946 1.9892 0.086487 6.573 7.6973 2.0757 1.4703 3.2865 2.3351-0.51892 0.95135-0.43243 4.9297-5.8811 8.3027 0.086487 0.95135-2.3351z" fill-opacity=".60731" filter="url(#filter3112)"/>
 </g>
 <g id="layer1">
  <path id="path2317" d="m69.695 28.269-14.062 10.938-1-0.4375-45.312 29.25 53.312 40.719 20.188-8.9375 3.875 3.0313 4.9375-2.4062-0.09375-2.0625 8.5625-4 1.9375 1.75 4.5938-2.375-0.1875-4.375 20-8.875-40.625-37.344-0.90625 0.625-15.219-15.5zm0.21875 1.5938 14.781 14.781-0.75 1.375-8.7188 0.5-4.5312 5.6875-2.4688 0.5 1.6875-22.844zm-1 0.1875-1.4062 22.812h-0.03125l-1.375-2.75-7.375-2.3438-0.34375-6.4062-2.4688-1.9375 13-9.375zm-14.188 9.125 3.1875 2.2188-0.125 6.5625-3.625 5.1875c-1.539 0.24618-3.067 0.58802-4.5938 0.90625l-5.4688 3.2812-3.9062-0.5v0.15625l3.4062 0.65625-1.3438 3.8438 1.7188-3.75 0.1875 0.03125 5.4688-3.4062c1.4237-0.29308 2.9753-0.38897 4.4062-0.65625l2.3438 7.5625c-1.5688 1.4521-2.1306 3.4997-2.75 5.4688 0.008581 0.062914 0.021251 0.12497 0.03125 0.1875l-5.75 6.5-3.4688 1.3438 3.6875-1.0938 5.6875-6.0625c0.32434 1.3558 0.90324 2.6381 1.4062 3.9375 0.053512 0.065816 0.088437 0.098662 0.09375 0.125 0.018922-0.019591 0.044271-0.036458 0.125-0.0625-0.59888-1.471-1.2056-3.3176-1.5312-4.8438 0.58475-1.8632 2.0328-3.6913 2.6875-5.5312l-2.3125-7.625 4.1875-4.9375 7.4688 1.7812 0.84375 3.9688 0.03125-0.03125-4.4375 52.531-1.8438-2-0.625-5.5938 0.0625 4.9375-2.7188-2.9688-0.84375-0.34375-2.0312-5.625 1.0312-3.0625-1.2812 3.0625 1.9062 5.4688-6.6562-2.8438 7.8438 3.5938 4.5625 6.125-51.375-39.688 44.312-28.812zm0.6875 53.094 0.25-0.625-0.03125-0.0625-0.21875 0.6875zm4.5 7.0625v-0.1875l-0.03125-0.09375 0.03125 0.28125zm-15.469-24.562-0.4375 0.125-0.0625 0.0625 0.5-0.1875zm41.375-30.938 39.062 36.344-18.469 8.3125-0.75-24-3.875-4.8125-3.2187 4.0625-0.25 21.219-3.3438-2.5-4.2812-1.1562-0.375-10.031-3.75-4.8125-3.375 4.25-0.71875 28.5-19.188 8.6563 2-2.8438 0.84375-5.1563 5.5-2.125 6.9375 1.5312-4.9688-1.2812 2.2188-3.25-0.09375-0.03125-2.4062 3.1875-1.8438-0.46875-5.2812 2 0.8125-5.0625 2.9688-5.5312-0.09375-0.03125-3.0938 5.5312-1.6875 10.469-2.2812 2.6875 4.875-53.438 3.3125-1.4062 4.4375-5.5625 8.1875-0.0625 3.3438 4.0312-0.0625 8.0312 1.1875 1.9688-0.75-2.125v-7.4375l8.3438 4.2812 0.125-0.1875-8.4375-4.4688-0.03125 0.03125v-0.28125l-2.9062-4.1875 1.375-2.8438zm2.2812 17.219 0.09375 0.28125 0.03125-0.0625-0.125-0.21875zm13.875-0.4375 3.0335 3.91-3.3147 0.96496 0.28125-4.875zm-0.53125 0.40625 0.15625 4.4688-2.6562-1.5 2.5-2.9688zm-2.4908 3.0915 2.7873 1.5107 0.23927 29.639-1.2857-1.1477-0.09375-7.4688-1.8125-1.3438 0.1654-21.19zm6.2683 0.42835 0.91004 28.73-3.9062 2-0.3125-29.774 3.3087-0.95581zm-18.559 2.8864 3.0938 4-3.25 0.9375 3.375-0.75 1.25 28.312-4.3277 1.9763-0.29734-29.539-0.0625-0.03125 0.21875-4.9062zm-0.3125 0.3125-0.03125 4.5312-2.75-1.4688 2.7812-3.0625zm-2.75 3.25 2.8094 1.4321 0.11742 29.546-3.4893-2.5723 0.5625-28.406zm7.125 10.906 3.7188 1.2812-3.4062 5.3125-0.3125-6.5938zm4.4375 1.2304 5.0937 3.7384-0.15625 6.6875-1.1875 0.53125-0.03125-6.0938-3.75-2-2.9375 4.2188 0.03125 6.9688-0.8125 0.46875-0.34375-8.7188 4.0938-5.8009zm0.029029 3.1272 3.5022 1.9549 0.033471 6.0054-6.2544 2.8643-0.038832-6.8589 2.7576-3.9656z" fill-rule="evenodd"/>
 </g>
</svg>
