<?xml version="1.0" encoding="UTF-8"?>
<!DOCTYPE svg  PUBLIC '-//W3C//DTD SVG 1.0//EN'  'http://www.w3.org/TR/2001/REC-SVG-20010904/DTD/svg10.dtd'>
<!-- Created with Sodipodi ("http://www.sodipodi.com/") -->
<svg id="svg649" width="201.28pt" height="169.89pt" xml:space="preserve" xmlns="http://www.w3.org/2000/svg"><g id="g623" transform="matrix(.81138 0 0 .81686 -178.06 -60.288)" fill="#100" fill-rule="evenodd"><path id="path621" d="m527.71 223.38c0 32.511-18.356 84.001-35.91 97.532-9.6911 7.47-46.348-21.099-45.827-34.527 0.7136-18.359 41.771-39.488 49.533-60.833 3.5905-9.8738-5.3332-27.113-15.476-32.823-48.889-27.524-145.47-43.762-161.62-66.881-8.8291-12.642 57.797-40.399 86.695-40.399 28.898 0 67.109 18.365 86.695 40.399 21.283 23.943 35.91 65.021 35.91 97.532z"/><path id="path622" d="m221.29 223.38c0 32.511 18.356 84.001 35.91 97.532 9.6911 7.47 46.348-21.099 45.827-34.527-0.7136-18.359-41.771-39.488-49.533-60.833-3.5905-9.8738 5.3332-27.113 15.476-32.823 48.889-27.524 145.47-43.762 161.62-66.881 8.8291-12.642-57.797-40.399-86.695-40.399-28.898 0-67.109 18.365-86.695 40.399-21.283 23.943-35.91 65.021-35.91 97.532z"/></g></svg>
