<?xml version="1.0" encoding="UTF-8"?>
<!DOCTYPE svg  PUBLIC '-//W3C//DTD SVG 20010904//EN'  'http://www.w3.org/TR/2001/REC-SVG-20010904/DTD/svg10.dtd'>
<!-- Created with Inkscape (http://www.inkscape.org/) -->
<svg id="svg548" width="400pt" height="400pt" xmlns="http://www.w3.org/2000/svg">
 <metadata>
  <rdf:RDF xmlns:cc="http://web.resource.org/cc/" xmlns:dc="http://purl.org/dc/elements/1.1/" xmlns:rdf="http://www.w3.org/1999/02/22-rdf-syntax-ns#">
   <cc:Work rdf:about="">
    <dc:title>Clipart by Nicu Buculei - bee</dc:title>
    <dc:description/>
    <dc:subject>
     <rdf:Bag>
      <rdf:li/>
      <rdf:li>plant</rdf:li>
     </rdf:Bag>
    </dc:subject>
    <dc:publisher>
     <cc:Agent rdf:about="http://www.openclipart.org">
      <dc:title>Nicu Buculei</dc:title>
     </cc:Agent>
    </dc:publisher>
    <dc:creator>
     <cc:Agent>
      <dc:title>Nicu Buculei</dc:title>
     </cc:Agent>
    </dc:creator>
    <dc:rights>
     <cc:Agent>
      <dc:title>Nicu Buculei</dc:title>
     </cc:Agent>
    </dc:rights>
    <dc:date/>
    <dc:format>image/svg+xml</dc:format>
    <dc:type rdf:resource="http://purl.org/dc/dcmitype/StillImage"/>
    <cc:license rdf:resource="http://web.resource.org/cc/PublicDomain"/>
    <dc:language>en</dc:language>
   </cc:Work>
   <cc:License rdf:about="http://web.resource.org/cc/PublicDomain">
    <cc:permits rdf:resource="http://web.resource.org/cc/Reproduction"/>
    <cc:permits rdf:resource="http://web.resource.org/cc/Distribution"/>
    <cc:permits rdf:resource="http://web.resource.org/cc/DerivativeWorks"/>
   </cc:License>
  </rdf:RDF>
 </metadata>
 <g id="g837" fill-rule="evenodd">
  <path id="path785" d="m215 202.5s11.25 126.25 5 175-10 66.25 3.75 83.75c28.75 7.5 121.25 17.5 142.5-15-1.25-42.5-51.25-101.25-60-148.75s29.409-93.604-28.091-104.85-64.409 12.354-63.159 9.8544z" fill="#fafada" stroke="#000" stroke-linejoin="round" stroke-width="10"/>
  <path id="path786" d="m215 211.25s3.75 51.25-11.25 90c26.25 18.75 105-3.75 123.75-3.75-25-38.75-15-73.75-15-81.25s-100-7.5-97.5-5z" fill="#f0f0df" stroke="#000" stroke-linejoin="round" stroke-width="10"/>
  <path id="path784" d="m20 271.25c11.25-88.75 141.25-233.75 242.5-237.5 116.25-17.5 218.75 111.25 231.25 157.5-31.25 18.75-182.5 30-220 46.25-37.5 23.75-232.5 36.25-253.75 33.75z" fill="#fa0000" stroke="#000" stroke-linejoin="round" stroke-width="10"/>
  <path id="path787" d="m255 118.75c-55 22.5-42.5 107.5 13.75 98.75 91.25-16.25 25-108.75-13.75-98.75z" fill="#faffff"/>
  <path id="path788" d="m32.272 254.45c-6.25-10 26.25-92.5 61.25-77.5 43.75 21.25-21.25 108.75-61.25 77.5z" fill="#faffff"/>
  <path id="path789" d="m248.36 38.522c80-11.25 26.25 27.5-1.25 35-23.75 5-105-7.5 1.25-35z" fill="#faffff"/>
  <path id="path790" d="m142.5 102.5c31.25-11.25 87.5 51.25 20 76.25-68.75 8.75-55-61.25-20-76.25z" fill="#faffff"/>
  <path id="path791" d="m430.93 107.66c-32.5-26.25-78.75-18.75-67.5 38.75 26.25 53.75 96.25 7.5 67.5-38.75z" fill="#faffff"/>
  <path id="path792" d="m327.18 42.817c-30 16.25 5 75 56.25 27.5-10-11.25-47.5-25-56.25-27.5z" fill="#faffff"/>
  <path id="path793" d="m488.27 187.89c-5-12.5-17.659-56.796-45.159-20.546-29.613 56.32 45.159 20.546 45.159 20.546z" fill="#faffff"/>
  <path id="path1193" d="m296.12 307.44c6.4725 9.7087 56.634 106.8 58.252 124.6 1.6181 17.799-16.181 24.272-25.89 21.036s-43.689-134.3-32.362-145.63z" fill="#e6e4df"/>
  <path id="path1194" d="m289.64 37.217c-80.906-6.4725-216.83 79.288-260.52 223.3 12.945 4.8544 4.8544 12.945 45.307 0 53.398-190.94 174.76-197.41 215.21-223.3z" fill="#fff" fill-opacity=".43333"/>
 </g>
</svg>
