<?xml version="1.0" encoding="UTF-8"?>
<!-- Created with Inkscape (http://www.inkscape.org/) -->
<svg id="svg2" width="300" height="246.69" version="1.0" xmlns="http://www.w3.org/2000/svg" xmlns:cc="http://creativecommons.org/ns#" xmlns:dc="http://purl.org/dc/elements/1.1/" xmlns:rdf="http://www.w3.org/1999/02/22-rdf-syntax-ns#" xmlns:xlink="http://www.w3.org/1999/xlink">
 <defs id="defs4">
  <linearGradient id="linearGradient3492">
   <stop id="stop3494" stop-color="#53af35" offset="0"/>
   <stop id="stop3500" stop-color="#458635" offset=".5"/>
   <stop id="stop3496" stop-color="#33a43a" offset="1"/>
  </linearGradient>
  <linearGradient id="linearGradient5441">
   <stop id="stop5443" stop-color="#59b118" offset="0"/>
   <stop id="stop5445" stop-color="#289614" offset="1"/>
  </linearGradient>
  <linearGradient id="linearGradient5408">
   <stop id="stop5410" stop-color="#fff" stop-opacity=".13688" offset="0"/>
   <stop id="stop5412" stop-color="#fff" stop-opacity=".6654" offset="1"/>
  </linearGradient>
  <linearGradient id="linearGradient5398">
   <stop id="stop5400" stop-color="#e14328" stop-opacity="0" offset="0"/>
   <stop id="stop5402" stop-opacity="0" offset="1"/>
  </linearGradient>
  <linearGradient id="linearGradient3208">
   <stop id="stop3210" stop-color="#e45231" offset="0"/>
   <stop id="stop3212" stop-color="#d60f0b" offset="1"/>
  </linearGradient>
  <filter id="filter4935" x="-.58977" y="-.24936" width="2.1795" height="1.4987" color-interpolation-filters="sRGB">
   <feGaussianBlur id="feGaussianBlur4937" stdDeviation="7.5178088"/>
  </filter>
  <filter id="filter5145" x="-.26557" y="-.1622" width="1.5311" height="1.3244" color-interpolation-filters="sRGB">
   <feGaussianBlur id="feGaussianBlur5147" stdDeviation="3.1950705"/>
  </filter>
  <filter id="filter3376" x="-.12997" y="-.16878" width="1.2599" height="1.3376" color-interpolation-filters="sRGB">
   <feGaussianBlur id="feGaussianBlur3378" stdDeviation="11.680985"/>
  </filter>
  <filter id="filter3450" x="-.09105" y="-.13605" width="1.1821" height="1.2721" color-interpolation-filters="sRGB">
   <feGaussianBlur id="feGaussianBlur3452" stdDeviation="8.1029294"/>
  </filter>
  <radialGradient id="radialGradient2517" cx="400.02" cy="363.34" r="74.84" gradientTransform="matrix(2.169 .41947 -.35094 1.8147 -495.05 -752.76)" gradientUnits="userSpaceOnUse" xlink:href="#linearGradient3208"/>
  <linearGradient id="linearGradient2519" x1="348.53" x2="492.29" y1="338.96" y2="338.96" gradientTransform="translate(-141.42 -280.82)" gradientUnits="userSpaceOnUse" xlink:href="#linearGradient5408"/>
  <linearGradient id="linearGradient2521" x1="368.22" x2="492.29" y1="301.84" y2="369.27" gradientTransform="translate(-141.42 -280.82)" gradientUnits="userSpaceOnUse" xlink:href="#linearGradient5398"/>
  <linearGradient id="linearGradient2523" x1="307.17" x2="370.22" y1="15.765" y2="-160" gradientTransform="matrix(1.642 0 0 1.642 -264.87 612.78)" gradientUnits="userSpaceOnUse" xlink:href="#linearGradient5441"/>
  <radialGradient id="radialGradient2525" cx="400.02" cy="363.34" r="74.84" gradientTransform="matrix(-2.9388 .56834 .47548 2.4587 1615.9 -414.41)" gradientUnits="userSpaceOnUse" xlink:href="#linearGradient3208"/>
  <linearGradient id="linearGradient2527" x1="348.53" x2="492.29" y1="338.96" y2="338.96" gradientTransform="matrix(.67744 -1.1734 1.1734 .67744 -160.84 970.16)" gradientUnits="userSpaceOnUse" xlink:href="#linearGradient5408"/>
  <linearGradient id="linearGradient2529" x1="368.22" x2="492.29" y1="301.84" y2="369.27" gradientTransform="matrix(.67744 -1.1734 1.1734 .67744 -160.84 970.16)" gradientUnits="userSpaceOnUse" xlink:href="#linearGradient5398"/>
  <linearGradient id="linearGradient2531" x1="307.17" x2="370.22" y1="15.765" y2="-160" gradientTransform="matrix(-1.642 0 0 1.642 1026.8 589.85)" gradientUnits="userSpaceOnUse" xlink:href="#linearGradient5441"/>
  <linearGradient id="linearGradient2533" x1="258.15" x2="347.67" y1="-147.06" y2="-59.918" gradientUnits="userSpaceOnUse" xlink:href="#linearGradient3492"/>
  <linearGradient id="linearGradient2535" x1="258.15" x2="347.67" y1="-147.06" y2="-59.918" gradientTransform="matrix(-.58661 .51647 .51647 .58661 748.15 -291.19)" gradientUnits="userSpaceOnUse" xlink:href="#linearGradient3492"/>
 </defs>
 <metadata id="metadata7">
  <rdf:RDF>
   <cc:Work rdf:about="">
    <dc:format>image/svg+xml</dc:format>
    <dc:type rdf:resource="http://purl.org/dc/dcmitype/StillImage"/>
   </cc:Work>
  </rdf:RDF>
 </metadata>
 <g id="layer1" transform="translate(13.023 -431.35)">
  <g id="g2468" transform="matrix(.38228 0 0 .38228 -4.7677 338.02)">
   <g id="g3624" transform="matrix(1.642 0 0 1.642 -264.87 612.78)">
    <path id="path2383" d="m343.64 123.55c-29.389 49.338-78.565 50.113-103.86 36.457-30.741-16.593-46.173-67.796-11.114-114.06 29.475-38.899 65.249-18.337 72.488-3.1839 19.925 6.1919 33.221 9.8325 42.806 20.517 13.99 15.593 19.125 27.288-0.31608 60.274z" fill="url(#radialGradient2517)" stroke-opacity="0"/>
    <path id="path3220" transform="matrix(1.6586 0 0 1.1144 -385.16 -322.12)" d="m389.98 362.12c-7.0857 20.56-7.5397 35.559-11.494 34.197-3.9538-1.3626-12.434-22.896-5.3485-43.456 7.0856-20.56 17.38-33.82 26.815-27.019 3.6526 2.633-2.8875 15.718-9.9731 36.278z" fill="#ed8c41" filter="url(#filter4935)"/>
    <path id="path4939" d="m265.97 51.366c-3.0068 0.75169-8.885 5.0177-10.581 6.7139-4.4062 4.4062-6.4779 3.8645-9.0914 9.0914-1.8302 3.6604-3.3924 6.7543-4.5711 11.469-0.71379 2.8552-0.55833 8.9002 0.18383 11.765 1.4541 5.6122 1.9474 3.1701 3.3876 6.0504 2.7706 5.5413 4.3556-1.5655 4.2752-4.7444-0.12536-4.9546 1.087-6.3789 2.2549-11.05 1.0122-4.0487 4.6112-8.2122 6.0609-11.112 2.2084-4.4169 5.4064-6.7722 7.0711-10.102 1.693-3.386 2.897-3.678 4.6831-4.5711 1.3469-0.67344-0.10674-4.4017-3.673-3.5102z" fill="#e76f14" fill-rule="evenodd" filter="url(#filter5145)"/>
    <path id="path5149" d="m246.44 164.4s-17.238-24.172-19.286-37.143c-2.1429-13.571 8.5714-32.857 8.5714-32.857s-3.5714-9.2857-13.571-5c-10 4.2857-12.857 18.571-12.857 18.571s2.1429 17.857 4.2857 22.857c2.1428 5 15 22.857 17.857 24.286 2.8571 1.4286 15 9.2857 15 9.2857z" fill="#fff" fill-opacity=".21642" fill-rule="evenodd"/>
    <path id="path5393" d="m304.71 97.628c0 3.7457-2.7961 5.9018-7.3304 5.9018-4.5343 0-8.9794-2.8423-8.3406-6.5332 0.75761-4.3771 3.9092-3.4821 7.9617-2.5217 4.6402 1.0998 7.3304 0.92252 7.7092 3.153z" fill="#fff" fill-opacity=".49254"/>
    <path id="path5396" d="m274.27 21.521-25.75 3.5312-40.906 33.844 6.0625 16.156c9.458-14.24 24.753-34.737 44.438-37.875 14.57-2.3228 28.728 10.905 35.5 18.469 0.71044-0.88254-0.90391-1.6763-1.0562-2.4649-0.27186-1.4083-1.377-2.3878-1.8737-3.3814-0.57905-1.1581-1.7889-1.579-1.7889-3.06 0-0.85245-0.25-2.3135-0.25-3.5312-1e-5 -1.2506 2.0284-1 3.0312-1 2.3904 1e-5 2.698-0.30726 4.8125 0.75 1.1348 0.56738 1.9464 1.1138 3.2812 1.7812 1.4295 0.71475 2.4325 1.4506 3.5312 2 1.5361 0.76807 2.9373 1.5233 4.2812 2.5312 1.1861 0.88959 2.1987 1.3817 3.2812 2.0312 1.3821 0.82929 2.2962 1.8315 3.5625 2.7812 1.2201 0.91506 1.5 1.4397 1.5 3.0312 0 1.6556-0.25531 1.9076-1.75 2.2812-1.68 0.41999-3.5306 0.64362-5.3125 1-0.34033 0.06808-0.69453 0.16582-1.0312 0.25-1.3484 0.33711-2.5814 0.26254-3.5312 0.5-1.3552 0.33879-2.5928 0.70085-3.625 1.1875 3.7215 1.8916 10.965 4.7748 21.438 5.3125 3.5578 0.18563 5.467 1.3967 7.7188 3.375 8.8688 7.7916 9.9688 23.75 9.9688 23.75 1e-5 -1e-5 11.636-9.8774 10.5-18.969-0.57882-4.6305-4.2658-11.329-8.25-15.812-4.4746-5.0351-13.219-9.6875-13.219-9.6875l-25.656-9.3438-4.4062-6.375-24.5-13.062zm20.031 34.906c1.0284 1.1751 0.46749 0.26487 0 0z" fill="url(#linearGradient2519)" fill-rule="evenodd" stroke="url(#linearGradient2521)" stroke-width="1px"/>
   </g>
   <path id="path5423" d="m215.72 690.89c3.9532-5.9297 17.458 4.5422 41.88-100.04 24.568-105.5 121.08-273.67 121.08-273.67l13.269 16.586c-5e-3 -9e-4 -106.07 140.55-129.48 259.57-17.004 48.369-17.523 109.88-17 109.89 0.38192 0.34372-1.134 6.8355-9.6408 4.1466-8.6352-2.7295-13.484-6.0961-15.55-7.6712-5.7344-4.372-5.0039-7.7262-4.5612-8.8115z" fill="url(#linearGradient2523)" fill-rule="evenodd"/>
   <path id="path3540" d="m479.56 772.88c39.819 66.847 106.45 67.897 140.72 49.395 41.65-22.482 62.559-91.856 15.058-154.54-39.935-52.703-88.405-24.844-98.212-4.3138-26.996 8.3893-45.01 13.322-57.998 27.798-18.954 21.126-25.912 36.973 0.42826 81.665z" fill="url(#radialGradient2525)" stroke-opacity="0"/>
   <path id="path3542" transform="matrix(2.2472 0 0 -1.5099 -331.97 1307.4)" d="m389.98 362.12c-7.0857 20.56-7.5397 35.559-11.494 34.197-3.9538-1.3626-12.434-22.896-5.3485-43.456 7.0856-20.56 17.38-33.82 26.815-27.019 3.6526 2.633-2.8875 15.718-9.9731 36.278z" fill="#ed8c41" filter="url(#filter4935)"/>
   <path id="path3544" transform="matrix(1.3549 0 0 -1.3549 -191.58 857.58)" d="m543.37 47.295c-3.0068 0.75169-8.885 5.0177-10.581 6.7139-4.4062 4.4062-6.4779 3.8645-9.0914 9.0914-1.8302 3.6604-3.3924 6.7543-4.5711 11.469-0.71379 2.8552-0.55833 8.9002 0.18383 11.765 1.4541 5.6122 1.9474 3.1701 3.3876 6.0504 2.7706 5.5413 4.3556-1.5655 4.2752-4.7444-0.12536-4.9546 1.087-6.3789 2.2549-11.05 1.0122-4.0487 4.6112-8.2122 6.0609-11.112 2.2084-4.4169 5.4064-6.7722 7.0711-10.102 1.693-3.386 2.897-3.678 4.6831-4.5711 1.3469-0.67344-0.10674-4.4017-3.673-3.5102z" fill="#e76f14" fill-rule="evenodd" filter="url(#filter5145)"/>
   <path id="path3546" d="m580.27 843.37s-34.55-20.599-44.155-35.576c-10.05-15.67-7.2616-45.431-7.2616-45.431s-9.4881-9.5747-19.56 1.1886c-10.072 10.763-5.8358 30.042-5.8358 30.042s12.384 20.986 17.766 26.022c5.3816 5.0359 31.058 20.187 35.381 20.403 4.3226 0.21618 23.666 3.3502 23.666 3.3502z" fill="#fff" fill-opacity=".21642" fill-rule="evenodd"/>
   <path id="path3548" d="m582.07 726.98c0 5.075 3.7884 7.9963 9.9319 7.9963s12.166-3.851 11.301-8.8517c-1.0265-5.9304-5.2965-4.7179-10.787-3.4166-6.287 1.49-9.9319 1.2499-10.445 4.272z" fill="#fff" fill-opacity=".49254"/>
   <path id="path3550" d="m475.53 687.23-13.301 32.606 11.999 70.925 23.064 3.8314c-10.301-20.744-23.99-52.577-14.337-77.8 7.1451-18.67 32.257-26.322 45.72-29.143-0.55426-1.4315-2.5792-0.075-3.6078-0.4306-1.8366-0.63503-3.7346-2e-3 -5.2369-0.0921-1.7511-0.1051-3.0646 1.0293-4.8023 0.026-1.0002-0.57749-2.8839-1.2739-4.3128-2.0989-1.4674-0.84719 0.20079-3.0575 0.88015-4.2342 1.6193-2.8048 1.4672-3.3739 4.1402-5.1387 1.4345-0.94714 2.6256-1.5293 4.3129-2.6434 1.8071-1.1931 3.35-1.8715 4.739-2.7886 1.9419-1.2821 3.7772-2.4146 5.8704-3.3087 1.8474-0.78913 3.1108-1.6438 4.6063-2.4741 1.9094-1.0599 3.7045-1.4535 5.6768-2.296 1.9002-0.81169 2.7055-0.78472 4.5729 0.29346 1.9426 1.1216 2.0653 1.5918 1.4912 3.5988-0.64531 2.2558-1.6366 4.5787-2.4256 6.911-0.15066 0.44544-0.27594 0.92727-0.40527 1.3794-0.51792 1.8105-1.4407 3.2068-1.8055 4.4822-0.52051 1.8196-0.93415 3.5171-1.0624 5.0579 4.7406-3.0852 13.03-9.6308 20.756-21.555 2.628-4.0488 5.3424-5.4686 9.1891-6.7706 15.15-5.128 20.479-13.087 11.269-21.41-9.5031-8.5872-7.9756-2.0382-15.935-0.40046-8.9393 1.8393-20.322 8.9477-20.322 8.9477l-28.344 23.774-10.465 0.85143-31.924 19.898zm54.528 0.143c2.0755-0.41058 0.62748-0.36909 0 0z" fill="url(#linearGradient2527)" fill-rule="evenodd" stroke="url(#linearGradient2529)" stroke-width="1.3549px"/>
   <path id="path3558" d="m594.52 690.79c0 5.075 3.7884 7.9963 9.9319 7.9963 6.1434 0 12.166-3.851 11.3-8.8517-1.0265-5.9304-5.2965-4.7179-10.787-3.4166-6.287 1.49-9.9319 1.2499-10.445 4.272z" fill="#fff" fill-opacity=".49254"/>
   <path id="path3560" d="m595.78 693.13c0 5.7731 4.3095 9.0962 11.298 9.0962 6.9885 0 13.84-4.3808 12.855-10.069-1.1677-6.7462-6.025-5.3669-12.271-3.8865-7.1518 1.695-11.298 1.4218-11.882 4.8596z" fill="#fff" fill-opacity=".49254"/>
   <path id="path3644" d="m546.26 667.97c-3.9532-5.9297-17.458 4.5422-41.88-100.04-24.568-105.5-121.08-273.67-121.08-273.67l-13.269 16.586c5e-3 -9.1e-4 106.07 140.55 129.48 259.57 17.004 48.369 17.523 109.88 17 109.89-0.38192 0.34373 1.134 6.8355 9.6408 4.1466 8.6352-2.7295 13.484-6.0961 15.55-7.6712 5.7344-4.372 5.004-7.7262 4.5612-8.8115z" fill="url(#linearGradient2531)" fill-rule="evenodd"/>
   <g id="g3608" transform="matrix(1.642 0 0 1.642 -264.87 612.78)" fill-rule="evenodd">
    <path id="path5453" d="m394.96-182.39s-63.063-1.8002-97.857 14.286c-33.445 15.462-71.182 51.293-97.5 102.86-7.6014 14.893-25 50.714-26.429 47.857s66.786 25 124.64-6.7857c41.013-22.532 83.214-65 93.214-96.429 10-31.429 8.2143-58.929 3.9286-61.786z" fill="url(#linearGradient2533)"/>
    <path id="path3186" d="m178.49-19.856c3.458-4.312 15.19-15.367 19.793-21.505 3.7816-5.0422 4.5398-11.44 8.0812-16.162 5.0357-6.7142 7.148-12.199 13.132-18.183 4.2234-4.2234 7.1173-10.148 12.122-15.152 11.976-11.976 23.306-28.628 34.345-42.426 1.3469-1.6836 18.856-11.448 20.203-13.132 5.8347-7.2934 17.675-12.374 26.769-14.647 21.321-5.3302 32.259-10.732 53.033-16.668 1.3349-0.3814 27.948-2.1887 29.294-2.5254 7.5603-1.8901-21.723 6.9459-28.284 8.5863-7.183 1.7958-10.987 3.9783-17.173 7.0711-4.987 2.4935-15.694 5.7098-20.203 9.0914-5.6671 4.2504-13.125 7.8254-19.698 11.112-7.8556 3.9278-18.147 12.411-23.234 19.193-5.3465 7.1286-10.452 9.9464-16.668 16.162-6.7661 6.7661-12.378 16.419-19.193 23.234-7.0976 7.0976-12.358 16.399-19.193 23.234-6.4461 6.4461-9.1402 14.696-16.162 21.718-5.7337 5.7337-25.472 22.967-29.005 24.303-1.8364 0.69455-14.33 6.0103-7.9608-3.3036z" fill="#2f5a30" filter="url(#filter3376)" stroke="#000" stroke-width="1px"/>
    <path id="path3380" d="m185.4-20.885c6.4594 1.7998 23.234 4.4446 32.577 2.7779 11.044-1.97 24.374-3.5355 33.588-5.8084 5.9914-1.4781 15.142-10.196 20.456-13.385 4.7565-2.8539 9.6225-5.8214 14.142-8.0812 6.3508-3.1754 9.8956-7.3516 16.162-11.112 4.0134-2.408 9.2013-10.321 11.112-14.142 2.7016-5.4032 5.5277-9.5683 10.102-14.142 4.9749-4.9749 4.8304-7.4109 11.112-12.122 5.578-4.1835 8.3314-7.3212 13.132-12.122 1.0102-1.0102 2.0203-2.0203 3.0305-3.0305 4.1304-4.1304 4.9949-7.0152 9.0914-11.112 5.0617-5.0617 9.7763-9.7763 14.142-14.142 4.0079-4.008 8.4208-9.4309 12.122-13.132 4.4157-4.4157 6.0394-11.685 10.354-10.607 4.3582 1.0896-4.3337 20.223-7.0711 26.769-2.5921 6.1983-7.6375 8.2039-10.102 13.132-2.0566 4.1132-4.5457 6.8618-7.3236 12.122-2.1815 4.1307-4.8612 8.9018-8.0812 12.122-5.1345 5.1345-7.6474 10.895-14.142 14.142-4.4501 2.225-11.32 9.2999-15.152 13.132-4.2111 4.2111-7.0013 9.0391-11.112 12.122-5.7398 4.3048-13.049 12.586-19.193 15.657-6.2341 3.117-12.971 5.728-17.678 8.0812-7.2177 3.6088-17.916 9.6486-24.244 14.395-8.8514 6.6385-19.626 7.3958-31.315 9.3439-9.0973 1.5162-22.101 0.34635-30.557-1.7678-4.7495-1.1874-14.525-2.4028-15.152-9.0914z" fill="#4d7635" filter="url(#filter3450)"/>
    <path id="path3490" d="m385.99-168.62s-24.057 0.94543-49.497 19.698c-8.9931 6.629-36.231 32.338-47.032 45.369-16.403 19.79-48.183 55.233-82.502 83.007 18.453-10.52 13.868-8.028 25.593-16.624 11.553-8.4696 47.556-47.506 52.928-53.416 5.0508-5.5558 40.066-44.966 58.39-58.599 8.6344-6.4243 27.727-15.043 42.12-19.435z" fill="#69a439"/>
    <path id="path3520" d="m367.32-159.6s-5.5717 21.364-7.1429 31.607c-1.7289 11.272-3.576 36.253-3.5714 36.25-0.23809-12.024-0.64852-25.298 1e-5 -37.321 0 0 3.2143-19.286 7.3214-29.107 4.2065-10.059 3.3929-1.7857 3.3929-1.4286z" fill="#6aa635"/>
    <path id="path3522" d="m342.38-143.6s-6.2024 23.782-7.9514 35.185c-1.9246 12.547-3.9807 40.357-3.9757 40.353-0.26504-13.385-0.72192-28.161 1e-5 -41.546 0 0 3.5781-21.469 8.1501-32.402 4.6826-11.198 3.7769-1.9878 3.7769-1.5903z" fill="#6aa635"/>
    <path id="path3524" d="m315.62-120.58s-5.0658 19.424-6.4944 28.738c-1.5719 10.248-3.2513 32.962-3.2472 32.959-0.21648-10.932-0.58964-23.001 1e-5 -33.933 0 0 2.9224-17.535 6.6567-26.465 3.8246-9.1457 3.0848-1.6236 3.0848-1.2989z" fill="#6aa635"/>
    <path id="path3526" d="m286.33-87.567s-4.56 17.484-5.8459 25.868c-1.4149 9.2249-2.9267 29.67-2.9229 29.668-0.19486-9.8405-0.53076-20.704 1e-5 -30.545 0 0 2.6306-15.784 5.992-23.822 3.4427-8.2325 2.7768-1.4615 2.7768-1.1692z" fill="#6aa635"/>
    <path id="path3528" d="m263.11-70.716s-4.0541 15.545-5.1974 22.998c-1.258 8.2016-2.602 26.379-2.5987 26.377-0.17325-8.7489-0.47189-18.407 0-27.156 0 0 2.3388-14.033 5.3273-21.179 3.0608-7.3192 2.4688-1.2993 2.4688-1.0395z" fill="#6aa635"/>
    <path id="path3530" d="m362.71-164.97s-21.706 4.0392-32.035 4.8783c-11.366 0.92333-36.416 0.99018-36.412 0.98586 11.976 1.0921 25.188 2.445 37.227 2.6527 0 0 19.465-1.8354 29.554-5.2341 10.333-3.4809 2.0224-3.2574 1.6661-3.2827z" fill="#6aa635"/>
    <path id="path3532" d="m334.51-146.91s-21.706 4.0392-32.035 4.8783c-11.366 0.92333-36.416 0.99018-36.412 0.98586 11.976 1.0921 25.188 2.445 37.227 2.6527 0 0 19.465-1.8354 29.554-5.2341 10.333-3.4809 2.0224-3.2574 1.6661-3.2827z" fill="#6aa635"/>
    <path id="path3534" d="m306.23-123.67s-21.706 4.0392-32.035 4.8783c-11.366 0.92333-36.416 0.99018-36.412 0.98586 11.976 1.0921 25.188 2.445 37.227 2.6527 0 0 19.465-1.8354 29.554-5.2341 10.333-3.4809 2.0224-3.2574 1.6661-3.2827z" fill="#6aa635"/>
    <path id="path3536" d="m285.01-95.389s-21.706 4.0392-32.035 4.8783c-11.366 0.92333-36.416 0.99018-36.412 0.98586 11.976 1.0921 25.188 2.445 37.227 2.6527 0 0 19.465-1.8354 29.554-5.2341 10.333-3.4809 2.0224-3.2574 1.6661-3.2827z" fill="#6aa635"/>
    <path id="path3538" d="m259.79-68.115s-16.451 2.6019-23.618 3.1425c-7.8861 0.59479-24.063 0.63785-24.059 0.63507 7.0475 0.7035 14.731 1.575 22.359 1.7088 0 0 13.661-1.1823 22.237-3.3717 8.7836-2.2423 3.2938-2.0983 3.0798-2.1147z" fill="#6aa635"/>
   </g>
   <g id="g3592" transform="matrix(1.6083 .33074 -.33074 1.6083 -366.29 485.21)" fill-rule="evenodd">
    <path id="path3562" d="m422.27-194.2s36.064-33.626 64.782-42.16c27.605-8.203 68.248-6.6739 110.32 9.982 12.151 4.8108 40.858 16.838 40.22 14.424-0.63759-2.4138-26.266 49.158-76.622 60.393-35.696 7.9644-82.385 4.8474-104.48-8.4243-22.098-13.272-35.253-30.326-34.215-34.215z" fill="url(#linearGradient2535)"/>
    <path id="path3564" transform="matrix(-.58661 .51647 .51647 .58661 971.31 -364.02)" d="m454.37-138.59c3.458-4.312 15.19-15.367 19.793-21.505 3.7816-5.0422 4.5398-11.44 8.0812-16.162 5.0357-6.7142 7.148-12.199 13.132-18.183 4.2234-4.2234 7.1173-10.148 12.122-15.152 11.976-11.976 23.306-28.628 34.345-42.426 1.3469-1.6836 18.856-11.448 20.203-13.132 5.8347-7.2934 17.675-12.374 26.769-14.647 21.321-5.3302 32.259-10.732 53.033-16.668 1.3349-0.3814 27.948-2.1887 29.294-2.5254 7.5603-1.8901-21.723 6.9459-28.284 8.5863-7.183 1.7958-10.987 3.9783-17.173 7.0711-4.987 2.4935-15.694 5.7098-20.203 9.0914-5.6671 4.2504-13.125 7.8254-19.698 11.112-7.8556 3.9278-18.147 12.411-23.234 19.193-5.3465 7.1286-10.452 9.9464-16.668 16.162-6.7661 6.7661-12.378 16.419-19.193 23.234-7.0976 7.0976-12.358 16.399-19.193 23.234-6.4461 6.4461-9.1402 14.696-16.162 21.718-5.7337 5.7337-25.472 22.967-29.005 24.303-1.8364 0.69455-14.33 6.0103-7.9608-3.3036z" fill="#2f5a30" filter="url(#filter3376)" stroke="#000" stroke-width="1px"/>
    <path id="path3566" transform="matrix(-.58661 .51647 .51647 .58661 971.31 -364.02)" d="m461.28-139.62c6.4594 1.7998 23.234 4.4446 32.577 2.7779 11.044-1.97 24.374-3.5355 33.588-5.8084 5.9914-1.4781 15.142-10.196 20.456-13.385 4.7565-2.8539 9.6225-5.8214 14.142-8.0812 6.3508-3.1754 9.8956-7.3516 16.162-11.112 4.0134-2.408 9.2013-10.321 11.112-14.142 2.7016-5.4032 5.5277-9.5683 10.102-14.142 4.9749-4.9749 4.8304-7.4109 11.112-12.122 5.578-4.1835 8.3314-7.3212 13.132-12.122 1.0102-1.0102 2.0203-2.0203 3.0305-3.0305 4.1304-4.1304 4.9949-7.0152 9.0914-11.112 5.0617-5.0617 9.7763-9.7763 14.142-14.142 4.0079-4.008 8.4208-9.4309 12.122-13.132 4.4157-4.4157 6.0394-11.685 10.354-10.607 4.3582 1.0896-4.3337 20.223-7.0711 26.769-2.5921 6.1983-7.6375 8.2039-10.102 13.132-2.0566 4.1132-4.5457 6.8618-7.3236 12.122-2.1815 4.1307-4.8612 8.9018-8.0812 12.122-5.1345 5.1345-7.6474 10.895-14.142 14.142-4.4501 2.225-11.32 9.2999-15.152 13.132-4.2111 4.2111-7.0013 9.0391-11.112 12.122-5.7398 4.3048-13.049 12.586-19.193 15.657-6.2341 3.117-12.971 5.728-17.678 8.0812-7.2177 3.6088-17.916 9.6486-24.244 14.395-8.8514 6.6385-19.626 7.3958-31.315 9.3439-9.0973 1.5162-22.101 0.34636-30.557-1.7678-4.7495-1.1874-14.525-2.4028-15.152-9.0914z" fill="#4d7635" filter="url(#filter3450)"/>
    <path id="path3568" d="m434.64-190.76s14.601-11.87 39.209-14.009c8.6991-0.75597 37.956 0.25787 51.021 2.3237 19.843 3.1373 56.791 7.5151 91.267 6.0836-16.258 3.359-12.281 2.4529-23.599 3.4659-11.151 0.99813-52.433-3.3066-58.636-3.9986-5.8322-0.65058-46.726-5.6846-64.517-4.2187-8.383 0.69077-24.034 5.4956-34.746 10.353z" fill="#69a439"/>
    <path id="path3570" d="m450.25-195.11s14.302 9.6546 20.514 14.852c6.8356 5.7192 20.821 19.42 20.817 19.42-6.0702-7.1763-12.685-15.175-19.275-21.893 0 0-11.846-9.6532-19.328-13.293-7.6627-3.7282-2.9126 0.70477-2.7281 0.91427z" fill="#6aa635"/>
    <path id="path3572" d="m473.15-198.6s15.921 10.747 22.836 16.533c7.6093 6.3666 23.178 21.618 23.173 21.618-6.7573-7.9886-14.121-16.892-21.457-24.371 0 0-13.187-10.746-21.515-14.798-8.53-4.1502-3.2422 0.78454-3.0369 1.0178z" fill="#6aa635"/>
    <path id="path3574" d="m500.73-198.92s13.004 8.7781 18.652 13.504c6.215 5.2 18.931 17.657 18.927 17.657-5.5191-6.5248-11.533-13.797-17.525-19.906 0 0-10.77-8.7768-17.573-12.086-6.967-3.3897-2.6481 0.64079-2.4804 0.83128z" fill="#6aa635"/>
    <path id="path3576" d="m534.96-194.68s11.705 7.9015 16.789 12.155c5.5944 4.6807 17.04 15.893 17.037 15.894-4.968-5.8732-10.382-12.419-15.775-17.918 0 0-9.695-7.9004-15.818-10.88-6.2713-3.0513-2.3837 0.5768-2.2327 0.74826z" fill="#6aa635"/>
    <path id="path3578" d="m557.29-196.79s10.407 7.025 14.927 10.807c4.9738 4.1615 15.15 14.13 15.147 14.131-4.4169-5.2217-9.23-11.042-14.025-15.93 0 0-8.6195-7.024-14.063-9.6727-5.5756-2.7128-2.1193 0.51281-1.985 0.66526z" fill="#6aa635"/>
    <path id="path3580" d="m450.18-200.64s14.819-8.8408 21.312-13.683c7.1443-5.3285 21.873-18.227 21.869-18.227-6.4615 6.8261-13.513 14.443-20.468 20.783 0 0-12.367 8.9766-20.04 12.193-7.859 3.2945-2.8686-0.86632-2.6728-1.0652z" fill="#6aa635"/>
    <path id="path3582" d="m476.05-204.61s14.819-8.8408 21.312-13.683c7.1443-5.3285 21.873-18.227 21.869-18.227-6.4615 6.8261-13.513 14.443-20.468 20.783 0 0-12.367 8.9766-20.04 12.193-7.8589 3.2945-2.8686-0.86633-2.6728-1.0652z" fill="#6aa635"/>
    <path id="path3584" d="m504.64-205.59s14.819-8.8408 21.312-13.683c7.1443-5.3285 21.873-18.226 21.869-18.227-6.4615 6.8261-13.513 14.443-20.468 20.783 0 0-12.367 8.9766-20.04 12.193-7.859 3.2945-2.8686-0.86632-2.6728-1.0652z" fill="#6aa635"/>
    <path id="path3586" d="m531.7-199.95s14.819-8.8408 21.312-13.683c7.1443-5.3285 21.873-18.227 21.869-18.227-6.4615 6.8261-13.513 14.443-20.468 20.783 0 0-12.367 8.9766-20.04 12.193-7.859 3.2945-2.8686-0.86633-2.6728-1.0652z" fill="#6aa635"/>
    <path id="path3588" d="m560.58-196.97s10.994-6.9701 15.478-10.354c4.9333-3.724 14.445-12.054 14.441-12.053-3.7708 4.0524-7.8279 8.5319-12.234 12.55 0 0-8.6244 6.3619-14.786 9.5069-6.3107 3.2211-3.0159 0.47022-2.8988 0.35012z" fill="#6aa635"/>
   </g>
  </g>
 </g>
</svg>
