<?xml version="1.0" encoding="UTF-8"?>
<!DOCTYPE svg  PUBLIC '-//W3C//DTD SVG 20010904//EN'  'http://www.w3.org/TR/2001/REC-SVG-20010904/DTD/svg10.dtd'>
<!-- Created with Inkscape (http://www.inkscape.org/) -->
<svg id="svg1" width="400pt" height="400pt" xmlns="http://www.w3.org/2000/svg" xmlns:xlink="http://www.w3.org/1999/xlink">
 <defs id="defs3">
  <radialGradient id="radialGradient832">
   <stop id="stop830" stop-color="#fff" stop-opacity=".525" offset="0"/>
   <stop id="stop831" stop-color="#fff" stop-opacity="0" offset="1"/>
  </radialGradient>
 </defs>
 <g id="g844">
  <path id="path834" d="m321.78 240.56c-16.035-13.688-112.54-11.986-91.397 104.94 23.751 102.08 152.34 79.858 179.21 37.42 49.955-80.415-22.069-166.7-87.811-142.36z" fill="#ca0000" fill-rule="evenodd" stroke="#000" stroke-linejoin="round" stroke-width="10"/>
  <path id="path826" d="m171.7 265.18c-16.035-13.688-139.8-11.986-118.66 104.94 23.751 102.08 141.74 91.777 176.38 54.754 70.8-77.373-1.6035-171.87-57.725-159.7z" fill="#ca0000" fill-rule="evenodd" stroke="#000" stroke-linejoin="round" stroke-width="10"/>
  <path id="path835" d="m294.52 252.73c-3.2069 18.251 38.483 28.898 70.552 7.6047" fill="none" stroke="#000" stroke-linejoin="round" stroke-width="10"/>
  <path id="path827" d="m144.44 281.91c-3.2069 18.251 19.242 50.191 51.311 28.898" fill="none" stroke="#000" stroke-linejoin="round" stroke-width="10"/>
  <path id="path828" d="m130.69 293.81c-59.328-41.065-101.02 60.837-54.518 73.005 60.931 21.293 107.43-33.461 54.518-73.005z" fill="url(#radialGradient832)" fill-opacity=".33333" fill-rule="evenodd" stroke-width="1pt"/>
  <path id="path836" d="m324.99 246.64c-83.38-54.754-102.62 132.32-56.121 144.49 86.587 44.107 109.04-104.94 56.121-144.49z" fill="url(#radialGradient832)" fill-opacity=".33333" fill-rule="evenodd" stroke-width="1pt"/>
  <path id="path845" d="m375 25c-5.3589 1.3397-21.334 21.969-29.034 35.269-98.361 50.281-133.53 108.47-158.31 159.07-13.052 26.654-19.301 53.46-22.375 69.125-1.537 7.8327-2.2798 13.839-2.6875 17.438 1.0332 10.871 15.565 8.6495 14.938 2.375 4.144-8.4774 1.093-10.386 2.5625-17.875 2.939-14.978 8.9279-37.2 21.531-62.938 22.024-44.977 59.451-100.72 141.31-147.78l2.875 3.3438c-30.179 42.359-47.171 104.71-27.031 182.31 4.0539 2.4654 18.52 1.6321 19.688-2.5-20.444-87.35 3.0409-154.52 36.781-189.66 7.4544-4.6467 22.409-17.675 26-18.188 4.061-7.2787-12.183-26.651-26.25-30z" fill="#552400" fill-rule="evenodd" stroke="#000" stroke-linejoin="round" stroke-width="10"/>
 </g>
 <rdf:RDF xmlns="http://web.resource.org/cc/" xmlns:dc="http://purl.org/dc/elements/1.1/" xmlns:rdf="http://www.w3.org/1999/02/22-rdf-syntax-ns#">
  <Work rdf:about="">
   <dc:title>Clipart by Nicu Buculei - pear</dc:title>
   <dc:rights>
    <Agent>
     <dc:title>Nicu Buculei</dc:title>
    </Agent>
   </dc:rights>
   <dc:type rdf:resource="http://purl.org/dc/dcmitype/StillImage"/>
   <license rdf:resource="http://web.resource.org/cc/PublicDomain"/>
  </Work>
  <License rdf:about="http://web.resource.org/cc/PublicDomain">
   <permits rdf:resource="http://web.resource.org/cc/Reproduction"/>
   <permits rdf:resource="http://web.resource.org/cc/Distribution"/>
   <permits rdf:resource="http://web.resource.org/cc/DerivativeWorks"/>
  </License>
 </rdf:RDF>
</svg>
