<?xml version="1.0" encoding="UTF-8"?>
<!DOCTYPE svg  PUBLIC '-//W3C//DTD SVG 20010904//EN'  'http://www.w3.org/TR/2001/REC-SVG-20010904/DTD/svg10.dtd'>
<!-- Created with Inkscape (http://www.inkscape.org/) -->
<svg id="svg1" width="620pt" height="800pt" xmlns="http://www.w3.org/2000/svg" xmlns:cc="http://web.resource.org/cc/" xmlns:dc="http://purl.org/dc/elements/1.1/" xmlns:rdf="http://www.w3.org/1999/02/22-rdf-syntax-ns#" xmlns:xlink="http://www.w3.org/1999/xlink">
 <defs id="defs3">
  <linearGradient id="linearGradient5521">
   <stop id="stop5522" stop-color="#373620" stop-opacity=".78351" offset="0"/>
   <stop id="stop5523" stop-color="#6c3620" stop-opacity="0" offset="1"/>
  </linearGradient>
  <linearGradient id="linearGradient4897" x1=".85119" x2="-.2619" y1=".57812" y2=".0625">
   <stop id="stop6744" stop-opacity=".35052" offset="0"/>
   <stop id="stop6745" stop-color="#fff" stop-opacity=".010309" offset="1"/>
  </linearGradient>
  <linearGradient id="linearGradient6149" x1=".32463" x2=".80224" y1=".64844" y2=".30469" xlink:href="#linearGradient5521"/>
  <radialGradient id="radialGradient3053" xlink:href="#linearGradient5521"/>
 </defs>
 <path id="path5" transform="matrix(1.2526 -1.0807 1.4928 .90682 222.23 235.87)" d="m69.422 61.246c-9.1919-4.344-8.5217-14.989-11.966-23.744-2.695-3.0951-6.9803-4.8421-9.6132-3.0278-4.0863-0.7514-10.949-4.8895-13.245-3.4565 2.2532 5.455-0.32162 9.9721-6.5504 9.2854-5.0343 0.16863-10.927-0.22873-6.8246 5.9646-0.52609 3.3196-10.164 7.018-8.5228 8.9208 4.7788 2.7159-2.9784 4.8533-1.9116 8.7311-1.506 2.6759-8.6789 6.2631-1.3906 6.8225 6.186 0.42532 16.042 3.2527 18.372 7.3569-4.7585 0.73257-10.289-0.3286-13.937 3.5186-3.5227 1.5702-2.7325 2.6313-2.1317 5.4887-3.7327 2.4047-9.6975 13.231-1.5283 13.035 4.7081 2.2561-4.3495 8.9094 0.56943 12.567 5.9639 1.9617 2.4356 9.2152 4.4725 12.361 5.4663-1.7341 5.8655 2.6359 5.2579 6.9491 5.7374 0.73119 4.5445 12.788 8.7286 11.079 3.4071-2.9226 5.8868-9.3442 10.131-6.986 0.63633-5.3445 1.8436-10.678 5.4478-14.969 3.8342-3.6413-3.4288 5.5101 2.3158 4.1582 2.0291 3.4222-0.72287 11.332 2.7518 12.592 3.6059 0.45283 11.573-3.4886 9.3125 2.875-0.17149 4.1879-2.4971 10.503 3.923 7.4414-1.4094 4.0278 1.3384 10.558 6.507 8.1316 2.1768 2.8576 1.8911 12.785 6.32 9.177 4.5682-3.1126 10.576-5.0661 12.244-10.35 4.598 1.4679 4.2937-7.1286 8.2555-9.2123 1.774-4.4145 5.1308-3.7718 9.0396-3.2805 0.14754-4.5247-1.6618-11.442-0.28963-14.47 4.2175 0.2715 11.695 6.0221 11.312-1.4375 1.3887-3.6136 1.4877-10.913 3.6872-12.21 3.8494 4.2511 9.2176 2.921 13.376 2.2252 3.5525 0.17987 10.898 5.0786 8.7512-1.7106-0.17726-12.659 3.1814-26.188-2.814-38.055 6.7838-2.4474 0.13722-13.95-5.0867-12.474-5.7521 0.68985 4.9098-6.7825 6.1548-9.4188 4.7264-3.3899-4.8093-1.5421-5.9915-5.4748-1.6318-3.7664-5.0403-3.4509-7.9389-4.1946 3.1183-6.7195-8.1779-2.6823-9.9454-4.5989 2.8051-4.1833 0.58281-5.9252-4.0154-5.3244-3.0954-0.24485-6.3912 0.057867-6.0762-2.2625-5.2341 3.2623-7.2459 0.26585-7.3183-4.891-4.7201 0.53918-9.0901 3.953-12.06 6.1727-5.1367-3.5565-9.4869 6.5771-6.454 10.784 1.9668 4.9 2.1471 11.881-2.5366 14.959-3.6176 1.3779-5.2715 1.7071-8.7822 0.95159zm-18.949 40.772c2.9521 1.0999 8.6386 1.756 3 4.25-2.181 1.4011-6.5073 6.0333-4.25 0.75 0.41667-1.6667 0.83333-3.3333 1.25-5z" fill="#447f4a" stroke="#000100" stroke-width="3.7694"/>
 <path id="path4264" d="m400.62 216.39c-17.999 5.9945-33.051-4.383-50.436-8.5994-7.9963 0.10576-15.972 3.1528-16.562 7.6434-6.2404 3.7347-21.014 7.3988-21.751 11.179 10.966 2.5116 14.484 9.3904 5.6564 15.499-6.0544 5.5935-14.029 11.601 0.3553 12.784 4.2967 3.5788-2.2551 17.348 2.6412 17.3 10.041-2.7016 3.5142 7.6198 10.64 9.9834 2.1081 4.0541-1.5218 15.059 8.443 7.6896 8.3837-6.2995 24.95-14.387 33.997-13.184-4.8671 5.8068-13.379 10.821-12.206 18.253-2.0686 5.2309 0.5053 5.3392 5.5234 7.2809-1.0859 6.2145 7.6046 22.478 17.544 13.472 9.2655-3.0422 7.852 12.78 19.474 10.781 10.399-4.6663 16.808 5.7243 24.055 6.3754 4.2586-7.48 11.282-3.9486 16.96 0.61934 8.2785-5.5374 24.782 6.6846 27.473 0.6139-0.09511-6.3323-6.5753-14.835 2.2616-17.284-7.1813-5.5341-13.631-11.675-15.522-19.462-0.633-7.4455 3.9306 8.7021 9.1083 1.2681 7.6506 0.91048 16.011 11.057 22.245 8.445 5.1929-3.4863 9.289-15.671 15.957-7.457 6.037 3.983 12.551 12.223 16.023 2.5084 4.2473 5.1756 17.437 8.1275 20.29 0.34177 6.9927 0.23885 21.455 9.5498 21.616 1.4917 1.0757-7.7594 5.6845-16.023-0.1133-22.618 7.951-3.638-5.2634-11.105-3.4112-17.276-4.3679-5.9203 0.79634-8.9653 6.4262-12.744-6.5699-4.2626-19.163-8.5799-21.963-12.808 5.6883-4.3116 23.64-7.1778 12.025-13.529-3.655-4.7777-14.427-11.504-13.608-15.057 11.168-0.30503 15.907-7.3128 20.077-12.437 4.7186-3.6761 21.233-7.1724 8.4085-11.009-19.12-11.288-35.109-27.186-60.335-31.468 4.8441-9.5506-20.653-12.798-24.993-5.8142-6.1754 6.8418-3.975-11.456-6.3509-15.193 0.8599-8.1819-8.3264 3.7991-15.678 1.5104-7.6667-1.652-11.465 2.3177-16.206 4.7759-6.125-9.4632-14.248 6.4055-19.323 6.5777-2.7312-6.8249-8.1154-6.003-12.978-0.48879-4.243 3.1232-7.9194 6.9594-10.989 4.5149-1.6864 8.6148-8.6796 8.0718-16.469 3.4736-5.1076 5.59-5.4853 13.408-5.8924 18.631-11.744 2.3262-2.065 16.217 8.0148 16.754 9.7787 2.3178 20.426 8.4532 19.153 16.306-2.4746 5.159-4.0549 7.245-9.5804 10.354zm37.129 57.451c5.3398-2.1929 13.443-7.7434 10.102 0.61185-0.64033 3.6276 0.8554 12.504-4.2041 5.2731-1.9661-1.9617-3.9322-3.9233-5.8984-5.885z" fill="url(#linearGradient4897)"/>
 <g id="g1748">
  <path id="path14" transform="translate(-6.6559 143.77)" d="m301.7 130.79v1h44v-1c-3.453-1.946-7.94-3.042-10.566-6.144-4.337-5.121-5.3154-16.785-7.5774-23.255-2.736-7.8272-6.2216-14.773-10.886-21.601-2-2.9289-11.581-13.193-10.487-16.989 0.77379-6.3022 10.19-11.12 15.179-12.939 24.594-8.9667 44.601 1.4977 65.93 10.657 3.2502 1.0697 32.506 17.579 35.964 8.9917 1.371-3.4056-2.5824-3.7657-8.5657-2.6804-9.8012 2.292-24.798-7.6989-33.102-11.273-24.909-11.665-59.945-22.905-80.889 4.2317-16.734-16.016-43.137-31.399-67-31.985-5.9497-0.1462-31.64 0.7242-26.828 12.88 3.2951 8.3235 22.38 9.6143 29.828 10.858 26.992 4.5074 50.549 7.0159 67.56 31.247 6.122 8.7202 16.997 31.014 10.261 41.721-2.239 3.559-9.09 4.757-12.821 6.279z" fill="#6c3620"/>
  <path id="path5525" transform="translate(-6.6559 143.77)" d="m301.7 130.79v1h44v-1c-3.453-1.946-7.94-3.042-10.566-6.144-4.337-5.121-5.3154-16.785-7.5774-23.255-2.736-7.8272-6.2216-14.773-10.886-21.601-2-2.9289-11.581-13.193-10.487-16.989 0.77379-6.3022 10.19-11.12 15.179-12.939 24.594-8.9667 44.601 1.4977 65.93 10.657 3.2502 1.0697 32.506 17.579 35.964 8.9917 1.371-3.4056-2.5824-3.7657-8.5657-2.6804-9.8012 2.292-24.798-7.6989-33.102-11.273-24.909-11.665-59.945-22.905-80.889 4.2317-16.734-16.016-43.137-31.399-67-31.985-5.9497-0.1462-31.64 0.7242-26.828 12.88 3.2951 8.3235 22.38 9.6143 29.828 10.858 26.992 4.5074 50.549 7.0159 67.56 31.247 6.122 8.7202 16.997 31.014 10.261 41.721-2.239 3.559-9.09 4.757-12.821 6.279z" fill="url(#linearGradient6149)" stroke="#000136" stroke-width="6.25"/>
 </g>
 <g id="g3595" transform="translate(-6.6559 143.77)" fill="none" fill-opacity=".75" fill-rule="evenodd" stroke="url(#radialGradient3053)" stroke-linecap="round" stroke-linejoin="round" stroke-width="3.75">
  <path id="path1321" transform="matrix(1.2526 -1.0807 1.4928 .90682 228.88 92.104)" d="m74.372 63.678c6.045 25.154 11.361 66.754 4.5176 92.089"/>
  <path id="path1322" transform="matrix(1.2526 -1.0807 1.4928 .90682 228.88 92.104)" d="m74.563 64.026c22.558 8.6381 45.17 24.077 59.294 43.898"/>
  <path id="path1323" transform="matrix(1.2526 -1.0807 1.4928 .90682 228.88 92.104)" d="m74.627 63.772c19.007-7.76 39.587-9.0968 59.74-7.2527"/>
  <path id="path1324" transform="matrix(1.2526 -1.0807 1.4928 .90682 228.88 92.104)" d="m74.5 63.708c-18.621-5.147-39.695-4.7964-57.704 2.4812"/>
  <path id="path1325" transform="matrix(1.2526 -1.0807 1.4928 .90682 228.88 92.104)" d="m74.72 63.742c-18.412 3.9286-34.67 27.46-40.248 45.027-3.1011 7.8459-3.8981 11.836-6.4789 16.969"/>
 </g>
 <g id="g1758" fill-rule="evenodd" stroke="#000100">
  <path id="path4322" transform="translate(-6.6559 143.77)" d="m349.09 121.43 140.34 67.15 28.483 151.71-175.56-61.678 11.911-15.42-24.34-10.943-60.073-32.829 79.235-97.989z" stroke-width="6.25"/>
  <path id="path4228" transform="matrix(1 0 0 .86442 360.41 387.83)" d="m172.45 111.87a31.137 31.137 0 1 0-62.274 0 31.137 31.137 0 1 0 62.274 0z" fill="#8b0065" stroke-linecap="round" stroke-linejoin="round" stroke-width="6.7223"/>
  <path id="path4245" transform="matrix(.95056 0 0 .87671 368.76 344.95)" d="m172.45 111.87a31.137 31.137 0 1 0-62.274 0 31.137 31.137 0 1 0 62.274 0z" fill="#8b0065" stroke-linecap="round" stroke-linejoin="round" stroke-width="6.8464"/>
  <path id="path4248" transform="matrix(.88877 0 0 .77839 339.46 400.5)" d="m172.45 111.87a31.137 31.137 0 1 0-62.274 0 31.137 31.137 0 1 0 62.274 0z" fill="#8b0065" stroke-linecap="round" stroke-linejoin="round" stroke-width="7.5143"/>
  <path id="path4254" transform="matrix(.91349 0 0 .86442 366.9 302.11)" d="m172.45 111.87a31.137 31.137 0 1 0-62.274 0 31.137 31.137 0 1 0 62.274 0z" fill="#8b0065" stroke-linecap="round" stroke-linejoin="round" stroke-width="7.0334"/>
  <path id="path4251" transform="matrix(.93817 0 0 .80299 334.04 357.94)" d="m172.45 111.87a31.137 31.137 0 1 0-62.274 0 31.137 31.137 0 1 0 62.274 0z" fill="#8b0065" stroke-linecap="round" stroke-linejoin="round" stroke-width="7.2009"/>
  <path id="path4260" transform="matrix(.98764 0 0 .82755 275.75 375.71)" d="m172.45 111.87a31.137 31.137 0 1 0-62.274 0 31.137 31.137 0 1 0 62.274 0z" fill="#8b0065" stroke-linecap="round" stroke-linejoin="round" stroke-width="6.9133"/>
  <path id="path4263" transform="matrix(1 0 0 .86442 279.9 334.96)" d="m172.45 111.87a31.137 31.137 0 1 0-62.274 0 31.137 31.137 0 1 0 62.274 0z" fill="#8b0065" stroke-linecap="round" stroke-linejoin="round" stroke-width="6.7223"/>
  <path id="path4257" transform="matrix(1 0 0 .86442 325.82 305.7)" d="m172.45 111.87a31.137 31.137 0 1 0-62.274 0 31.137 31.137 0 1 0 62.274 0z" fill="#8b0065" stroke-linecap="round" stroke-linejoin="round" stroke-width="6.7223"/>
  <path id="path4269" transform="matrix(1 0 0 .86442 340.86 257.11)" d="m172.45 111.87a31.137 31.137 0 1 0-62.274 0 31.137 31.137 0 1 0 62.274 0z" fill="#8b0065" stroke-linecap="round" stroke-linejoin="round" stroke-width="6.7223"/>
  <path id="path4290" transform="matrix(.95056 0 0 .79068 230.72 356.8)" d="m172.45 111.87a31.137 31.137 0 1 0-62.274 0 31.137 31.137 0 1 0 62.274 0z" fill="#8b0065" stroke-linecap="round" stroke-linejoin="round" stroke-width="7.2092"/>
  <path id="path4293" transform="matrix(1 0 0 .86442 230.98 319)" d="m172.45 111.87a31.137 31.137 0 1 0-62.274 0 31.137 31.137 0 1 0 62.274 0z" fill="#8b0065" stroke-linecap="round" stroke-linejoin="round" stroke-width="6.7223"/>
  <path id="path4287" transform="matrix(.9752 0 0 .90139 183.11 311.54)" d="m172.45 111.87a31.137 31.137 0 1 0-62.274 0 31.137 31.137 0 1 0 62.274 0z" fill="#8b0065" stroke-linecap="round" stroke-linejoin="round" stroke-width="6.6662"/>
  <path id="path4296" transform="matrix(.95048 0 0 .85212 276.36 292.88)" d="m172.45 111.87a31.137 31.137 0 1 0-62.274 0 31.137 31.137 0 1 0 62.274 0z" fill="#8b0065" stroke-linecap="round" stroke-linejoin="round" stroke-width="6.9448"/>
  <path id="path4299" transform="matrix(.9382 0 0 .83984 313.42 263.33)" d="m172.45 111.87a31.137 31.137 0 1 0-62.274 0 31.137 31.137 0 1 0 62.274 0z" fill="#8b0065" stroke-linecap="round" stroke-linejoin="round" stroke-width="7.041"/>
  <path id="path4266" transform="matrix(.96292 0 0 .80297 337.69 218.19)" d="m172.45 111.87a31.137 31.137 0 1 0-62.274 0 31.137 31.137 0 1 0 62.274 0z" fill="#8b0065" stroke-linecap="round" stroke-linejoin="round" stroke-width="7.1078"/>
  <path id="path4302" transform="matrix(.92579 0 0 .8645 308.85 217.86)" d="m172.45 111.87a31.137 31.137 0 1 0-62.274 0 31.137 31.137 0 1 0 62.274 0z" fill="#8b0065" stroke-linecap="round" stroke-linejoin="round" stroke-width="6.9862"/>
  <path id="path4305" transform="matrix(1 0 0 .86442 249.94 246.31)" d="m172.45 111.87a31.137 31.137 0 1 0-62.274 0 31.137 31.137 0 1 0 62.274 0z" fill="#8b0065" stroke-linecap="round" stroke-linejoin="round" stroke-width="6.7223"/>
  <path id="path4308" transform="matrix(.88904 0 0 .90086 232.18 269.87)" d="m172.45 111.87a31.137 31.137 0 1 0-62.274 0 31.137 31.137 0 1 0 62.274 0z" fill="#8b0065" stroke-linecap="round" stroke-linejoin="round" stroke-width="6.9838"/>
  <path id="path4284" transform="matrix(.91349 0 0 .81526 146.5 292.46)" d="m172.45 111.87a31.137 31.137 0 1 0-62.274 0 31.137 31.137 0 1 0 62.274 0z" fill="#8b0065" stroke-linecap="round" stroke-linejoin="round" stroke-width="7.2424"/>
  <path id="path4317" transform="matrix(.96292 0 0 .83984 177.43 268.63)" d="m172.45 111.87a31.137 31.137 0 1 0-62.274 0 31.137 31.137 0 1 0 62.274 0z" fill="#8b0065" stroke-linecap="round" stroke-linejoin="round" stroke-width="6.95"/>
  <path id="path4311" transform="matrix(1 0 0 .86442 135.33 238.35)" d="m172.45 111.87a31.137 31.137 0 1 0-62.274 0 31.137 31.137 0 1 0 62.274 0z" fill="#8b0065" stroke-linecap="round" stroke-linejoin="round" stroke-width="6.7223"/>
  <path id="path4314" transform="matrix(1.037 0 0 .90134 191.77 219.1)" d="m172.45 111.87a31.137 31.137 0 1 0-62.274 0 31.137 31.137 0 1 0 62.274 0z" fill="#8b0065" stroke-linecap="round" stroke-linejoin="round" stroke-width="6.4648"/>
  <path id="path4272" transform="matrix(1 0 0 .86442 300.38 175.16)" d="m172.45 111.87a31.137 31.137 0 1 0-62.274 0 31.137 31.137 0 1 0 62.274 0z" fill="#8b0065" stroke-linecap="round" stroke-linejoin="round" stroke-width="6.7223"/>
  <path id="path4275" transform="matrix(1 0 0 .86442 248.63 199.26)" d="m172.45 111.87a31.137 31.137 0 1 0-62.274 0 31.137 31.137 0 1 0 62.274 0z" fill="#8b0065" stroke-linecap="round" stroke-linejoin="round" stroke-width="6.7223"/>
  <path id="path7375" transform="matrix(1 0 0 .86442 262.57 154.83)" d="m172.45 111.87a31.137 31.137 0 1 0-62.274 0 31.137 31.137 0 1 0 62.274 0z" fill="#8b0065" stroke-linecap="round" stroke-linejoin="round" stroke-width="6.7223"/>
  <path id="path4281" transform="matrix(1 0 0 .86442 159.14 197.86)" d="m172.45 111.87a31.137 31.137 0 1 0-62.274 0 31.137 31.137 0 1 0 62.274 0z" fill="#8b0065" stroke-linecap="round" stroke-linejoin="round" stroke-width="6.7223"/>
  <path id="path4278" transform="matrix(1 0 0 .86442 208.59 170.72)" d="m172.45 111.87a31.137 31.137 0 1 0-62.274 0 31.137 31.137 0 1 0 62.274 0z" fill="#8b0065" stroke-linecap="round" stroke-linejoin="round" stroke-width="6.7223"/>
 </g>
 <path id="path2330" transform="matrix(.22066 -.14638 .26346 .26803 352.98 369.32)" d="m172.45 111.87a31.137 31.137 0 1 0-62.274 0 31.137 31.137 0 1 0 62.274 0z" fill="#b33283" fill-rule="evenodd"/>
 <path id="path2325" transform="matrix(.24161 -.10836 .21614 .30747 401.41 332.24)" d="m172.45 111.87a31.137 31.137 0 1 0-62.274 0 31.137 31.137 0 1 0 62.274 0z" fill="#b33283" fill-rule="evenodd"/>
 <path id="path2324" transform="matrix(.25989 -.050757 .14079 .34847 402 278.81)" d="m172.45 111.87a31.137 31.137 0 1 0-62.274 0 31.137 31.137 0 1 0 62.274 0z" fill="#b33283" fill-rule="evenodd"/>
 <path id="path2321" transform="matrix(.18908 -.18538 .3093 .21351 338.34 291.26)" d="m172.45 111.87a31.137 31.137 0 1 0-62.274 0 31.137 31.137 0 1 0 62.274 0z" fill="#b33283" fill-rule="evenodd"/>
 <path id="path1077" transform="matrix(.18908 -.18538 .3093 .21351 353.25 240.68)" d="m172.45 111.87a31.137 31.137 0 1 0-62.274 0 31.137 31.137 0 1 0 62.274 0z" fill="#b33283" fill-rule="evenodd"/>
 <path id="path2320" transform="matrix(.22386 -.14143 .25743 .27383 393.67 249.84)" d="m172.45 111.87a31.137 31.137 0 1 0-62.274 0 31.137 31.137 0 1 0 62.274 0z" fill="#b33283" fill-rule="evenodd"/>
 <path id="path2322" transform="matrix(.22652 -.084555 .24015 .26099 427.24 280.19)" d="m172.45 111.87a31.137 31.137 0 1 0-62.274 0 31.137 31.137 0 1 0 62.274 0z" fill="#b33283" fill-rule="evenodd"/>
 <path id="path2323" transform="matrix(.18908 -.18538 .3093 .21351 297.72 256.21)" d="m172.45 111.87a31.137 31.137 0 1 0-62.274 0 31.137 31.137 0 1 0 62.274 0z" fill="#b33283" fill-rule="evenodd"/>
 <path id="path2326" transform="matrix(.2449 -.1007 .20634 .31413 438.05 322.63)" d="m172.45 111.87a31.137 31.137 0 1 0-62.274 0 31.137 31.137 0 1 0 62.274 0z" fill="#b33283" fill-rule="evenodd"/>
 <path id="path2327" transform="matrix(.22066 -.14638 .26346 .26803 418.4 382.97)" d="m172.45 111.87a31.137 31.137 0 1 0-62.274 0 31.137 31.137 0 1 0 62.274 0z" fill="#b33283" fill-rule="evenodd"/>
 <path id="path2328" transform="matrix(.24651 -.096688 .20119 .31745 451.36 367.6)" d="m172.45 111.87a31.137 31.137 0 1 0-62.274 0 31.137 31.137 0 1 0 62.274 0z" fill="#b33283" fill-rule="evenodd"/>
 <path id="path2329" transform="matrix(.22066 -.14638 .26346 .26803 342.15 325.08)" d="m172.45 111.87a31.137 31.137 0 1 0-62.274 0 31.137 31.137 0 1 0 62.274 0z" fill="#b33283" fill-rule="evenodd"/>
 <path id="path2331" transform="matrix(.24171 -.10813 .21585 .30768 457.46 415.49)" d="m172.45 111.87a31.137 31.137 0 1 0-62.274 0 31.137 31.137 0 1 0 62.274 0z" fill="#b33283" fill-rule="evenodd"/>
 <path id="path2332" transform="matrix(.18908 -.18538 .3093 .21351 284.07 308.92)" d="m172.45 111.87a31.137 31.137 0 1 0-62.274 0 31.137 31.137 0 1 0 62.274 0z" fill="#b33283" fill-rule="evenodd"/>
 <path id="path2333" transform="matrix(.22066 -.14638 .26346 .26803 418.37 431.92)" d="m172.45 111.87a31.137 31.137 0 1 0-62.274 0 31.137 31.137 0 1 0 62.274 0z" fill="#b33283" fill-rule="evenodd"/>
 <path id="path2334" transform="matrix(.24953 -.088601 .19074 .32384 461.49 457.54)" d="m172.45 111.87a31.137 31.137 0 1 0-62.274 0 31.137 31.137 0 1 0 62.274 0z" fill="#b33283" fill-rule="evenodd"/>
 <path id="path2335" transform="matrix(.18908 -.18538 .3093 .21351 243.39 284.29)" d="m172.45 111.87a31.137 31.137 0 1 0-62.274 0 31.137 31.137 0 1 0 62.274 0z" fill="#b33283" fill-rule="evenodd"/>
 <path id="path2337" transform="matrix(.22066 -.14638 .26346 .26803 371 414.31)" d="m172.45 111.87a31.137 31.137 0 1 0-62.274 0 31.137 31.137 0 1 0 62.274 0z" fill="#b33283" fill-rule="evenodd"/>
 <path id="path2338" transform="matrix(.22066 -.14638 .26346 .26803 304.84 348.25)" d="m172.45 111.87a31.137 31.137 0 1 0-62.274 0 31.137 31.137 0 1 0 62.274 0z" fill="#b33283" fill-rule="evenodd"/>
 <metadata id="metadata94">
  <rdf:RDF id="RDF95">
   <cc:Work id="Work96" rdf:about="">
    <dc:title id="title97">grape</dc:title>
    <dc:description id="description99"/>
    <dc:subject id="subject100">
     <rdf:Bag id="Bag101">
      <rdf:li id="li102">food</rdf:li>
      <rdf:li id="li104">wine</rdf:li>
      <rdf:li id="li106">fruit</rdf:li>
      <rdf:li id="li108">grape</rdf:li>
     </rdf:Bag>
    </dc:subject>
    <dc:publisher id="publisher110">
     <cc:Agent id="Agent111" rdf:about="http://www.openclipart.org">
      <dc:title id="title112"/>
     </cc:Agent>
    </dc:publisher>
    <dc:creator id="creator113">
     <cc:Agent id="Agent114" rdf:about="">
      <dc:title id="title115">Jean-Victor Balin (balin_j@epita.fr)</dc:title>
     </cc:Agent>
    </dc:creator>
    <dc:rights id="rights117">
     <cc:Agent id="Agent118" rdf:about="">
      <dc:title id="title119"/>
     </cc:Agent>
    </dc:rights>
    <dc:date id="date120"/>
    <dc:format id="format121">image/svg+xml</dc:format>
    <dc:type id="type123" rdf:resource="http://purl.org/dc/dcmitype/StillImage"/>
    <cc:license id="license124" rdf:resource="Public Domain">
     <dc:date id="date125">57</dc:date>
    </cc:license>
    <dc:language id="language127">en</dc:language>
   </cc:Work>
   <cc:License id="License129" rdf:about="Public Domain">
    <cc:permits id="permits130" rdf:resource="http://web.resource.org/cc/Reproduction"/>
    <cc:permits id="permits131" rdf:resource="http://web.resource.org/cc/Distribution"/>
    <cc:permits id="permits132" rdf:resource="http://web.resource.org/cc/DerivativeWorks"/>
   </cc:License>
  </rdf:RDF>
 </metadata>
</svg>
