<?xml version="1.0" encoding="UTF-8"?>
<!DOCTYPE svg  PUBLIC '-//W3C//DTD SVG 20010904//EN'  'http://www.w3.org/TR/2001/REC-SVG-20010904/DTD/svg10.dtd'>
<!-- Created with Inkscape (http://www.inkscape.org/) -->
<svg id="svg1" width="400pt" height="400pt" xmlns="http://www.w3.org/2000/svg" xmlns:cc="http://web.resource.org/cc/" xmlns:dc="http://purl.org/dc/elements/1.1/" xmlns:rdf="http://www.w3.org/1999/02/22-rdf-syntax-ns#" xmlns:xlink="http://www.w3.org/1999/xlink">
 <defs id="defs3">
  <radialGradient id="radialGradient9" cx="161.81" cy="240.19" r="100.14" fx="160.59" fy="243.68" gradientTransform="scale(.88069 1.1355)" gradientUnits="userSpaceOnUse">
   <stop id="stop830" stop-color="#fff" offset="0"/>
   <stop id="stop831" stop-color="#fff" stop-opacity="0" offset="1"/>
  </radialGradient>
  <radialGradient id="radialGradient10" cx="353.25" cy="367.81" r="228.91" gradientTransform="scale(1.008 .9921)" gradientUnits="userSpaceOnUse">
   <stop id="stop856" stop-color="#dd6204" offset="0"/>
   <stop id="stop857" stop-color="#e48e17" offset="1"/>
  </radialGradient>
 </defs>
 <path id="path982" d="m222.68 36.451c-273.04 66.58-212.86 365.29-111.04 410.89 289.42 123.65 365.88-83.7 374.98-142.67 22.062-181.42-134.7-302.46-263.94-268.22z" fill="url(#radialGradient10)" fill-rule="evenodd" stroke="#000" stroke-linejoin="round" stroke-width="10"/>
 <path id="path989" d="m177.17 162c-96.475-22.827-160.18 121.75-65.53 209.25 131.06 70.384 180.21-112.23 65.53-209.25z" fill="url(#radialGradient9)" fill-opacity=".75" fill-rule="evenodd" stroke-width="1pt"/>
 <path id="path983" d="m67.957 137.27c109.22-43.752 136.52-55.166 185.67-49.459 25.484 17.12 118.32 13.316 189.31 131.26-60.069-112.23-81.912-123.65-127.42-129.35-45.507 0 43.687-15.218 105.58 11.414-58.249-38.046-141.98-19.023-101.94-57.068-29.124 3.8046-30.945 13.316-50.968 28.534-43.687-13.316-27.304-32.339-103.76-15.218 56.428-3.8046 45.507 1.9023 72.811 11.414-109.22 15.218-143.8 51.361-169.29 68.482z" fill="#fff" fill-opacity=".1" fill-rule="evenodd" stroke-width="1pt"/>
 <path id="path984" d="m263.68 83.612c2.0306 11.168 3.5592 48.714 7.162 48.714 7.8061-3.1376 17.73-40.26 21.933-44.025 4.2033-3.7651 42.054 28.52 45.056 27.265 3.0023-1.255-26.355-53.642-25.154-57.407-8.4065-0.62752-19.717 8.0661-23.32 1.7909-3.6028-6.2752-10.71-2.8979-20.317-11.056-15.743 17.239-42.338 24.974-49.544 35.642 7.2056 5.0201 36.06 1.107 44.183-0.92368z" fill="#090" fill-rule="evenodd" stroke="#000" stroke-linejoin="round" stroke-width="10"/>
 <path id="path985" d="m273.15 68.108c3.0023 8.1577 10.208 6.2752 13.811 2.5101 7.2056-1.8826 2.3583-11.182 4.3889-25.876-6.6051-3.7651-6.9764-2.8979-14.182-1.0153-1.2009 3.7651-6.4195 20.616-4.0176 24.382z" fill="#090" fill-rule="evenodd" stroke="#000" stroke-linejoin="round" stroke-width="10"/>
 <path id="path986" d="m280.58 53.583s-9.2362 14.525-0.8297 16.407c6.6051-2.5101 8.6358-16.407 0.8297-16.407z" fill="#00eb00" fill-rule="evenodd" stroke-width="1pt"/>
 <path id="path987" d="m269.18 70.269c-1.0153 0-34.86 8.0096-31.857 11.147 9.6075 0 25.252-2.362 31.857-11.147z" fill="#00ea00" fill-rule="evenodd" stroke-width="1pt"/>
 <path id="path988" d="m269.71 74.069c3.0023 9.4128-2.9039 36.826 0.0984 39.964 9.6075 0 10.11-34.944-0.0984-39.964z" fill="#00ea00" fill-rule="evenodd" stroke-width="1pt"/>
 <metadata id="metadata16">
  <rdf:RDF id="RDF1">
   <cc:Work id="Work2" rdf:about="">
    <dc:title id="title3">Clipart by Nicu Buculei - pear</dc:title>
    <dc:rights id="rights5">
     <cc:Agent id="Agent6">
      <dc:title id="title7">Nicu Buculei</dc:title>
     </cc:Agent>
    </dc:rights>
    <dc:type id="type9" rdf:resource="http://purl.org/dc/dcmitype/StillImage"/>
    <cc:license id="license10" rdf:resource="http://web.resource.org/cc/PublicDomain"/>
    <dc:format id="format17">image/svg+xml</dc:format>
   </cc:Work>
   <cc:License id="License11" rdf:about="http://web.resource.org/cc/PublicDomain">
    <cc:permits id="permits12" rdf:resource="http://web.resource.org/cc/Reproduction"/>
    <cc:permits id="permits13" rdf:resource="http://web.resource.org/cc/Distribution"/>
    <cc:permits id="permits14" rdf:resource="http://web.resource.org/cc/DerivativeWorks"/>
   </cc:License>
  </rdf:RDF>
 </metadata>
</svg>
