<?xml version="1.0" encoding="UTF-8"?>
<!DOCTYPE svg  PUBLIC '-//W3C//DTD SVG 20010904//EN'  'http://www.w3.org/TR/2001/REC-SVG-20010904/DTD/svg10.dtd'>
<svg id="svg1" width="250pt" height="270pt" xmlns="http://www.w3.org/2000/svg" xmlns:cc="http://web.resource.org/cc/" xmlns:dc="http://purl.org/dc/elements/1.1/" xmlns:rdf="http://www.w3.org/1999/02/22-rdf-syntax-ns#" xmlns:xlink="http://www.w3.org/1999/xlink">
 <defs id="defs400">
  <linearGradient id="linearGradient3899">
   <stop id="stop3900" stop-opacity="0" offset="0"/>
   <stop id="stop3901" stop-color="#07891f" stop-opacity=".69072" offset="1"/>
  </linearGradient>
  <linearGradient id="linearGradient3902" x1=".625" x2=".375" y1=".22656" y2=".80469" xlink:href="#linearGradient3899"/>
  <linearGradient id="linearGradient3903" x1=".63971" x2=".33088" y1=".090323" y2=".62581" xlink:href="#linearGradient3899"/>
 </defs>
 <g id="g4543">
  <path id="path4" transform="translate(-140.22 -56.244)" d="m194 72.534c-8.55 2.0364-20.848 18.861-15.397 27.465 2.798 4.4148 12.31 9.2708 12.107 15.091-0.182 5.217-6.926 13.142-9.336 17.91-3.855 7.628-5.384 16.528-6.204 25-2.703 27.929 18.777 53.875 27.74 79 7.481 20.97 4.365 41.788 8.351 63 7.459 39.703 42.398 89.997 88.739 79.985 19.847-4.288 33.545-17.643 51-26.814 14.76-7.756 30.472-10.595 43-22.261 8.106-7.548 16.241-14.877 20.762-25.056 4.435-9.985 5.2739-18.149 6.2789-29.079 1.21-13.159-4.6288-30.699-10.729-41.775-21.271-38.618-63.666-53.881-95.273-82.17-18.98-16.987-33.332-38.394-58.039-48.504-8.189-3.351-16.287-3.525-25-3.311-3.782 0.092-8.414 1.786-11.957-0.047-11.7-6.0503-7.694-32.804-26.043-28.434z"/>
  <path id="path329" d="m197.18 295.92c10.925 0.64696 27.39-8.3024 35.593-17.43l0.18618-0.10974c-17.92-6.1995-32.477 0.06413-35.78 17.54z" fill="#78423b"/>
  <path id="path50" d="m91.51 49.812c-2.4927-0.058443-5.2947 0.6501-7.9822 1.2111l-4.1568 1.5c2.5663 4.8051 4.9062 9.108 7.4101 13.945 3.3895 6.5485 7.4728 15.851-0.449 20.492-5.2855 3.0973-12.812 3.8551-16.301-1.398-4.1989-6.3222-7.4237-13.104-10.938-19.781l-0.1875 0.125c-7.0082 3.2671-9.965 8.8508-12.625 15.844-7.612 20.014-3.682 33.491 3.5 53 7.305 19.844 18.929 37.066 24.375 58 4.037 15.518 0.59925 30.958 3.4062 46 7.454 39.951 40.12 86.098 85.531 77.531 10.548-1.99 25.805-11.828 33.469-19.219 4.397-4.242 5.9102-9.8005 11.531-13.312 12.601-7.873 27.761-0.96875 39-11.094 7.123-6.417 10.688-10.948 16.5-18.281 5.771-7.281 8.6905-17.578 10.438-26.625 11.41-59.11-53.856-86.274-90.844-116.66-28.152-23.124-48.748-62.251-91.677-61.281z" fill="#00b200" stroke="url(#linearGradient3903)"/>
  <path id="path60" d="m91.236 54.814c-1.6625-0.024979-7.9327 1.3793-9.4198 2.1844 0.75108 2.0523 4.7865 9.0975 5.5754 11.447 1.3093 3.4861 2.968 6.4122 2.7089 10.004-0.59497 3.6374-1.5653 5.7431-4.1202 8.0877-0.97247 1.308-34.765 14.845-29.293 33.212 1.21 4.062 2.8138 8.215 4.7188 12 7.612 15.125 20.955 26.774 32.281 39 7.171 7.742 11.727 14.807 18.625 22.875 6.416 7.505 11.648 19.305 17.938 27.125 8.023 9.975 20.723 17.274 32.531 21.812 35.431 13.617 96.032 14.363 96.281-36.656 0.02601-5.335-1.2622-11.881-2.7812-17-2.596-8.746-9.2772-16.749-15.031-23.25-21.274-24.034-51.481-37.516-74.469-59.906-16.086-15.667-29.877-30.296-49-42.375-7.7528-4.8975-17.16-8.4196-26.545-8.5606z" fill="#7ed77e"/>
  <path id="path10" transform="translate(-140.22 -56.244)" d="m193.13 81.032c-3.713 2.0759-8.769 11.78-7.486 15.968 1.894 6.177 9.877 11.989 13.889 17 5.432 6.783 8.076 14.751 12.739 21.772 2.149 3.236 6.321 3.678 9.577 1.77 4.88-2.859 2.833-9.508 0.745-13.542-6.191-11.96-12.861-23.66-18.649-35.91-2.018-4.2695-4.849-10.393-10.815-7.0579z" fill="#78423b"/>
  <path id="path16" transform="translate(-140.22 -56.244)" d="m215.64 135.57c1.3162 3.4573 6.1336-2.5401 4.7906-7.5731-2.844-10.651-11.292-21.801-15.909-32-1.435-3.1701-3.156-9.942-6.068-11.953-5.09-3.5157-9.55 7.3117-9.251 10.953 0.517 6.312 8.844 12.363 12.717 17.015 5.622 6.753 11.699 14.915 13.72 23.558z" fill="#cc6f64"/>
  <path id="path1395" transform="matrix(1.5514 0 0 .85861 -27.856 15.031)" d="m62.971 82.119a6.0376 12.528 0 1 1-6.4142-21.217l3.0643 10.794z" fill="#7ed77e" fill-rule="evenodd"/>
  <path id="path3272" d="m91.51 49.812c-2.4927-0.05844-5.2947 0.65011-7.9822 1.2111l-4.1568 1.5c2.5663 4.8051 4.9062 9.108 7.4101 13.945 3.3895 6.5485 7.4728 15.851-0.449 20.492-5.2855 3.0973-12.812 3.8551-16.301-1.398-4.1989-6.3222-7.4237-13.104-10.938-19.781l-0.1875 0.125c-7.0082 3.2671-9.965 8.8508-12.625 15.844-7.612 20.014-3.682 33.491 3.5 53 7.305 19.844 18.929 37.066 24.375 58 4.037 15.518 0.59925 30.958 3.4062 46 7.454 39.951 40.12 86.098 85.531 77.531 10.548-1.99 25.805-11.828 33.469-19.219 4.397-4.242 5.9102-9.8005 11.531-13.312 12.601-7.873 27.761-0.96875 39-11.094 7.123-6.417 10.688-10.948 16.5-18.281 5.771-7.281 8.6905-17.578 10.438-26.625 11.41-59.11-53.856-86.274-90.844-116.66-28.152-23.124-48.748-62.251-91.677-61.281z" fill="url(#linearGradient3902)"/>
 </g>
 <metadata>
  <rdf:RDF xmlns="http://web.resource.org/cc/" xmlns:dc="http://purl.org/dc/elements/1.1/" xmlns:rdf="http://www.w3.org/1999/02/22-rdf-syntax-ns#">
   <Work rdf:about="">
    <dc:title>Green Pear</dc:title>
    <dc:description/>
    <dc:subject>
     <rdf:Bag>
      <rdf:li>food</rdf:li>
      <rdf:li>fruit</rdf:li>
      <rdf:li>pear</rdf:li>
     </rdf:Bag>
    </dc:subject>
    <dc:publisher>
     <Agent rdf:about="http://www.openclipart.org">
      <dc:title/>
     </Agent>
    </dc:publisher>
    <dc:creator>
     <Agent rdf:about="">
      <dc:title>Jean-Victor Balin</dc:title>
     </Agent>
    </dc:creator>
    <dc:rights>
     <Agent rdf:about="">
      <dc:title/>
     </Agent>
    </dc:rights>
    <dc:date/>
    <dc:format>image/svg+xml</dc:format>
    <dc:type rdf:resource="http://purl.org/dc/dcmitype/StillImage"/>
    <license rdf:resource="Public Domain">
     <dc:date>12</dc:date>
    </license>
    <dc:language>en</dc:language>
   </Work>
   <License rdf:about="Public Domain">
    <permits rdf:resource="http://web.resource.org/cc/Reproduction"/>
    <permits rdf:resource="http://web.resource.org/cc/Distribution"/>
    <permits rdf:resource="http://web.resource.org/cc/DerivativeWorks"/>
   </License>
  </rdf:RDF>
 </metadata>
</svg>
