<?xml version="1.0" encoding="UTF-8"?>
<!-- Created with Inkscape (http://www.inkscape.org/) -->
<svg id="svg2" width="419.53pt" height="297.64pt" sodipodi:docbase="/home/skarg/data/clipart/karg" sodipodi:docname="raspberry.svg" sodipodi:version="0.32" version="1.0" xmlns="http://www.w3.org/2000/svg" xmlns:cc="http://web.resource.org/cc/" xmlns:dc="http://purl.org/dc/elements/1.1/" xmlns:rdf="http://www.w3.org/1999/02/22-rdf-syntax-ns#" xmlns:sodipodi="http://inkscape.sourceforge.net/DTD/sodipodi-0.dtd">
 <sodipodi:namedview id="base" bordercolor="#666666" borderopacity="1.0" gridspacingx="5px" gridspacingy="5px" gridtolerance="5px" guidetolerance="5px" pagecolor="#ffffff" showgrid="true"/>
 <metadata id="metadata7">
  <rdf:RDF>
   <cc:Work rdf:about="">
    <dc:format>image/svg+xml</dc:format>
    <dc:type rdf:resource="http://purl.org/dc/dcmitype/StillImage"/>
    <dc:creator>
     <cc:Agent>
      <dc:title>Steve Karg</dc:title>
     </cc:Agent>
    </dc:creator>
    <dc:publisher>
     <cc:Agent>
      <dc:title>kargs.net</dc:title>
     </cc:Agent>
    </dc:publisher>
    <cc:license rdf:resource="http://web.resource.org/cc/PublicDomain"/>
    <dc:title>Raspberry</dc:title>
    <dc:date>10-June-2006</dc:date>
    <dc:subject>
     <rdf:Bag>
      <rdf:li>Raspberry</rdf:li>
      <rdf:li>red</rdf:li>
     </rdf:Bag>
    </dc:subject>
    <dc:description>Red Raspberry</dc:description>
   </cc:Work>
   <cc:License rdf:about="http://web.resource.org/cc/PublicDomain">
    <cc:permits rdf:resource="http://web.resource.org/cc/Reproduction"/>
    <cc:permits rdf:resource="http://web.resource.org/cc/Distribution"/>
    <cc:permits rdf:resource="http://web.resource.org/cc/DerivativeWorks"/>
   </cc:License>
  </rdf:RDF>
 </metadata>
 <g id="layer1">
  <g id="g10246" transform="translate(-5.1061 -45)" fill-rule="evenodd" stroke="#000">
   <path id="path3238" d="m210.13 136.92c-1.519 9.7562-0.40908 14.032 5.5495 21.376 4.7107 5.8067 17.493 1.6847 18.694-6.0282 1.519-9.7562 0.40907-14.032-5.5495-21.376-6.0609-3.837-17.493-1.6847-18.694 6.0282z" fill="#ff0040" stroke-width="2.4972" sodipodi:nodetypes="csscs"/>
   <path id="path3240" d="m190.39 144.08c-0.38244 9.8894 1.2112 13.975 7.9681 20.429 5.3418 5.1024 17.546-0.77007 17.848-8.5884 0.38243-9.8894-1.2112-13.975-7.9681-20.429-6.4541-2.9602-17.546 0.77007-17.848 8.5883z" fill="#a50040" stroke-width="2.4972" sodipodi:nodetypes="csscs"/>
   <path id="path3242" d="m199.61 165.01c0.97173-9.8832-0.37047-14.058-6.7111-20.876-5.0127-5.3898-17.513-0.14953-18.281 7.6638-0.97176 9.8832 0.37046 14.058 6.711 20.876 6.248 3.3031 17.513 0.14955 18.281-7.6638z" fill="#aa0040" stroke-width="2.4972" sodipodi:nodetypes="csscs"/>
   <path id="path3244" d="m186.86 174.15c-2.3735-9.5688-4.9987-12.854-13.126-16.427-6.4254-2.8246-16.261 7.4249-14.385 14.99 2.3735 9.5688 4.9987 12.854 13.126 16.427 6.8778 0.35938 16.261-7.4249 14.385-14.99z" fill="#a40040" stroke-width="2.4972" sodipodi:nodetypes="csscs"/>
   <path id="path3246" d="m174.99 187.79c-5.3891-7.8126-8.913-9.7067-17.619-9.4709-6.8831 0.18641-12.554 13.944-8.2935 20.121 5.3891 7.8125 8.913 9.7067 17.619 9.4709 6.4782-2.6625 12.554-13.944 8.2935-20.121z" fill="#ff0040" stroke-width="2.4972" sodipodi:nodetypes="csscs"/>
   <path id="path3248" d="m167.11 206.45c-6.8638-6.1214-10.681-7.0022-19.088-4.4045-6.646 2.0537-9.2832 16.958-3.8569 21.798 6.8638 6.1214 10.681 7.0023 19.088 4.4045 5.7362-4.3483 9.2832-16.958 3.8569-21.798z" fill="#ff0040" stroke-width="2.4972" sodipodi:nodetypes="csscs"/>
   <path id="path3226" d="m194.77 118.95c-0.94556 9.7062 0.34256 13.869 6.4406 20.815 4.8209 5.4912 16.861 0.77276 17.609-6.9006 0.94555-9.7062-0.34257-13.869-6.4406-20.815-6.0124-3.4786-16.861-0.77275-17.609 6.9007z" fill="#d00040" stroke-width="2.4327" sodipodi:nodetypes="csscs"/>
   <path id="path3228" d="m176.22 127.02c0.1512 9.7798 1.8932 13.731 8.71 19.757 5.3892 4.764 16.784-1.6527 16.664-9.3844-0.15121-9.7798-1.8932-13.731-8.7101-19.757-6.3435-2.5933-16.784 1.6527-16.664 9.3844z" fill="#cb0040" stroke-width="2.4327" sodipodi:nodetypes="csscs"/>
   <path id="path3230" d="m186.15 147.2c0.41417-9.8037-1.0914-13.856-7.5281-20.262-5.0886-5.0645-16.8 0.74341-17.127 8.4939-0.41419 9.8037 1.0914 13.856 7.5281 20.262 6.1638 2.9421 16.8-0.74339 17.127-8.4939z" fill="#c80040" stroke-width="2.4327" sodipodi:nodetypes="csscs"/>
   <path id="path3232" d="m174.41 156.87c-2.7769-9.3232-5.4662-12.432-13.446-15.545-6.3088-2.4609-15.203 8.1554-13.008 15.526 2.7769 9.3232 5.4662 12.432 13.446 15.545 6.6136 0.00476 15.203-8.1554 13.008-15.526z" fill="#d60040" stroke-width="2.4327" sodipodi:nodetypes="csscs"/>
   <path id="path3234" d="m163.74 170.94c-5.5764-7.4364-9.0545-9.1266-17.39-8.4509-6.59 0.53417-11.307 14.401-6.8985 20.28 5.5764 7.4364 9.0545 9.1266 17.39 8.4509 6.0722-2.9573 11.307-14.401 6.8985-20.28z" fill="#cd0040" stroke-width="2.4327" sodipodi:nodetypes="csscs"/>
   <path id="path3236" d="m157.16 189.76c-6.9019-5.6923-10.608-6.3674-18.533-3.3759-6.2649 2.365-8.0131 17.21-2.5567 21.71 6.9019 5.6923 10.608 6.3675 18.533 3.3759 5.2724-4.5834 8.0131-17.21 2.5567-21.71z" fill="#ff0040" stroke-width="2.4327" sodipodi:nodetypes="csscs"/>
   <path id="path2329" d="m201.4 120.31c1.7103-10.729 0.32672-15.375-6.9181-23.233-5.7275-6.2116-21.036-1.3028-22.388 7.1791-1.7103 10.729-0.32671 15.375 6.9181 23.233 7.3265 4.0134 21.036 1.3028 22.388-7.1791z" fill="#ff0040" stroke-width="2.8644" sodipodi:nodetypes="csscs"/>
   <path id="path2331" d="m177.35 129.97c1.1693-10.807-0.44578-15.372-8.0753-22.827-6.0316-5.8935-21.073-0.16351-21.997 8.38-1.1693 10.807 0.44577 15.372 8.0753 22.827 7.518 3.6117 21.073 0.16353 21.997-8.38z" fill="#ff0040" stroke-width="2.8644" sodipodi:nodetypes="csscs"/>
   <path id="path2333" d="m162.01 139.96c-2.856-10.463-6.0149-14.055-15.795-17.962-7.7315-3.0886-19.567 8.1187-17.309 16.39 2.856 10.463 6.0149 14.055 15.795 17.962 8.2759 0.39296 19.567-8.1187 17.309-16.39z" fill="#ff0040" stroke-width="2.8644" sodipodi:nodetypes="csscs"/>
   <path id="path2335" d="m147.73 154.87c-6.4846-8.5426-10.725-10.614-21.201-10.356-8.2822 0.20383-15.106 15.248-9.9794 22.001 6.4846 8.5426 10.725 10.614 21.201 10.356 7.7951-2.9113 15.106-15.248 9.9794-22.001z" fill="#ff0040" stroke-width="2.8644" sodipodi:nodetypes="csscs"/>
   <path id="path2325" d="m310.59 261.41c8.8173 5.2175 13.391 5.528 22.869 1.5528 7.4928-3.1427 8.6218-18.857 1.6511-22.982-8.8173-5.2175-13.391-5.528-22.869-1.5528-6.13 5.3572-8.6218 18.857-1.6511 22.982z" fill="#ff0040" stroke-width="2.7577" sodipodi:nodetypes="csscs"/>
   <path id="path2323" d="m260.81 295.33c-1.4411 10.143 0.02439 14.487 7.3275 21.719 5.7736 5.717 20.721 0.73915 21.861-7.28 1.4411-10.143-0.0244-14.487-7.3275-21.719-7.297-3.6097-20.721-0.73915-21.861 7.28z" fill="#ff0040" stroke-width="2.7577" sodipodi:nodetypes="csscs"/>
   <path id="path2223" d="m284.22 292.74c-1.1958 7.6619 0.02024 10.943 6.0802 16.405 4.7908 4.3184 17.194 0.55832 18.139-5.4989 1.1958-7.6619-0.02024-10.943-6.0802-16.405-6.0549-2.7266-17.194-0.55832-18.139 5.4989z" fill="#ff0040" stroke-width="2.1833" sodipodi:nodetypes="csscs"/>
   <path id="path2225" d="m296.37 284.09c2.2432 8.0006 4.9151 10.796 13.36 13.979 6.676 2.5158 17.277-5.7207 15.503-12.046-2.2432-8.0006-4.9151-10.796-13.36-13.979-7.2157-0.48321-17.277 5.7207-15.503 12.046z" fill="#ff0040" stroke-width="2.332" sodipodi:nodetypes="csscs"/>
   <path id="path2317" d="m307.36 269.79c4.9913 7.5454 8.4644 9.5433 17.366 9.9896 7.037 0.35283 13.721-11.783 9.7746-17.748-4.9913-7.5454-8.4645-9.5433-17.366-9.9896-6.785 1.9395-13.721 11.783-9.7746 17.748z" fill="#ff0040" stroke-width="2.4175" sodipodi:nodetypes="csscs"/>
   <path id="path2235" d="m241.61 289.92c-1.9712 10.055-0.73546 14.469 6.1785 22.069 5.4659 6.0081 20.654 1.8109 22.213-6.1384 1.9712-10.055 0.73546-14.469-6.1785-22.069-7.0978-3.9826-20.654-1.8109-22.213 6.1383z" fill="#ff0040" stroke-width="2.7577" sodipodi:nodetypes="csscs"/>
   <path id="path2237" d="m265.52 281.49c-1.4411 10.143 0.02439 14.487 7.3275 21.719 5.7736 5.717 20.721 0.73915 21.861-7.28 1.4411-10.143-0.0244-14.487-7.3275-21.719-7.297-3.6097-20.721-0.73915-21.861 7.28z" fill="#ff0040" stroke-width="2.7577" sodipodi:nodetypes="csscs"/>
   <path id="path2239" d="m280.88 272.51c2.5271 9.9316 5.5373 13.402 15.051 17.352 7.521 3.123 19.464-7.1014 17.466-14.953-2.5271-9.9316-5.5373-13.402-15.051-17.352-8.1291-0.59984-19.464 7.1014-17.466 14.953z" fill="#ff0040" stroke-width="2.7577" sodipodi:nodetypes="csscs"/>
   <path id="path2241" d="m295.33 258.86c6.1477 8.224 10.262 10.292 20.573 10.34 8.1514 0.03806 15.268-13.938 10.408-20.44-6.1478-8.224-10.262-10.292-20.573-10.34-7.7452 2.5249-15.268 13.938-10.408 20.44z" fill="#ff0040" stroke-width="2.7577" sodipodi:nodetypes="csscs"/>
   <path id="path2321" d="m219.21 282.37c-2.1374 10.974-0.79748 15.791 6.6994 24.086 5.9268 6.5573 22.396 1.9764 24.086-6.6994 2.1374-10.974 0.79748-15.791-6.6994-24.086-7.6963-4.3466-22.396-1.9764-24.086 6.6994z" fill="#ff0040" stroke-width="3" sodipodi:nodetypes="csscs"/>
   <path id="path2245" d="m202.96 270.07c-4.3541 10.957-4.0362 16.267 1.5894 26.547 4.4475 8.1276 21.507 6.9712 24.949-1.6912 4.3541-10.957 4.0362-16.267-1.5894-26.547-6.6347-6.214-21.507-6.9712-24.949 1.6912z" fill="#ff0040" stroke-width="3.0946" sodipodi:nodetypes="csscs"/>
   <path id="path2247" d="m225.38 270.36c-2.1374 11.677-0.79748 16.803 6.6994 25.628 5.9268 6.9772 22.396 2.103 24.086-7.1285 2.1374-11.677 0.79748-16.803-6.6994-25.628-7.6963-4.6249-22.396-2.103-24.086 7.1285z" fill="#ff0040" stroke-width="3.0946" sodipodi:nodetypes="csscs"/>
   <path id="path2249" d="m251.31 260.57c-1.5626 11.78 0.02645 16.824 7.9454 25.222 6.2604 6.6391 22.468 0.85838 23.704-8.4542 1.5626-11.78-0.02645-16.824-7.9454-25.222-7.9123-4.1919-22.468-0.85838-23.704 8.4542z" fill="#ff0040" stroke-width="3.0946" sodipodi:nodetypes="csscs"/>
   <path id="path2251" d="m267.96 250.14c2.7402 11.534 6.0042 15.564 16.32 20.151 8.1552 3.6268 21.105-8.2469 18.938-17.365-2.7402-11.534-6.0042-15.564-16.32-20.151-8.8146-0.6966-21.105 8.2469-18.938 17.365z" fill="#ff0040" stroke-width="3.0946" sodipodi:nodetypes="csscs"/>
   <path id="path2319" d="m302.92 236.71c6.1477 8.224 10.262 10.292 20.573 10.34 8.1514 0.03806 15.268-13.938 10.408-20.44-6.1478-8.224-10.262-10.292-20.573-10.34-7.7452 2.5249-15.268 13.938-10.408 20.44z" fill="#ff0040" stroke-width="2.7577" sodipodi:nodetypes="csscs"/>
   <path id="path2253" d="m283.63 234.3c6.6661 9.5506 11.128 11.952 22.308 12.008 8.8387 0.0442 16.555-16.186 11.285-23.737-6.6661-9.5505-11.128-11.952-22.308-12.008-8.3983 2.9321-16.555 16.186-11.285 23.737z" fill="#ff0040" stroke-width="3.0946" sodipodi:nodetypes="csscs"/>
   <path id="path2255" d="m289.73 221.45c8.6126 7.5856 13.483 8.7871 24.354 6.0071 8.5941-2.1977 12.454-19.917 5.6456-25.914-8.6126-7.5856-13.483-8.7871-24.354-6.0071-7.4999 4.9767-12.454 19.917-5.6456 25.914z" fill="#ff0040" stroke-width="3.0946" sodipodi:nodetypes="csscs"/>
   <path id="path2257" d="m186.16 259.51c-4.0404 10.26-3.7454 15.231 1.4749 24.858 4.1271 7.6103 19.958 6.5275 23.152-1.5836 4.0404-10.26 3.7454-15.231-1.4749-24.858-6.1568-5.8185-19.958-6.5275-23.152 1.5836z" fill="#ff0040" stroke-width="2.8846" sodipodi:nodetypes="csscs"/>
   <path id="path2259" d="m212.24 256.52c-1.9834 10.934-0.74003 15.733 6.2168 23.997 5.4998 6.5331 20.782 1.9691 22.35-6.6748 1.9834-10.934 0.74003-15.733-6.2168-23.997-7.1418-4.3306-20.782-1.9691-22.35 6.6748z" fill="#ff0040" stroke-width="2.8846" sodipodi:nodetypes="csscs"/>
   <path id="path2261" d="m230.69 248.17c-1.5626 11.071 0.02645 15.811 7.9454 23.704 6.2604 6.2395 22.468 0.80671 23.704-7.9454 1.5626-11.071-0.02645-15.811-7.9454-23.704-7.9123-3.9396-22.468-0.80672-23.704 7.9454z" fill="#ff0040" stroke-width="3" sodipodi:nodetypes="csscs"/>
   <path id="path2263" d="m251.76 237.59c2.5428 10.799 5.5716 14.573 15.144 18.869 7.5677 3.3959 19.584-7.722 17.574-16.26-2.5428-10.799-5.5716-14.573-15.144-18.869-8.1795-0.65225-19.584 7.722-17.574 16.26z" fill="#ff0040" stroke-width="2.8846" sodipodi:nodetypes="csscs"/>
   <path id="path2265" d="m266.3 227.63c6.1859 8.4044 10.326 10.518 20.701 10.567 8.202 0.0389 15.363-14.244 10.472-20.888-6.1859-8.4044-10.326-10.518-20.701-10.567-7.7933 2.5803-15.363 14.244-10.472 20.888z" fill="#ff0040" stroke-width="2.7964" sodipodi:nodetypes="csscs"/>
   <path id="path2267" d="m276.24 202.14c7.9921 7.1028 12.512 8.2278 22.6 5.6248 7.975-2.0579 11.557-18.649 5.2389-24.265-7.9921-7.1028-12.512-8.2278-22.6-5.6248-6.9596 4.66-11.557 18.649-5.2389 24.265z" fill="#ff0040" stroke-width="2.8846" sodipodi:nodetypes="csscs"/>
   <path id="path2269" d="m162.68 242.94c-4.5319 11.121-4.201 16.51 1.6543 26.944 4.6291 8.249 22.385 7.0753 25.968-1.7165 4.5319-11.121 4.201-16.51-1.6543-26.944-6.9056-6.3069-22.385-7.0753-25.968 1.7165z" fill="#ff0040" stroke-width="3.1806" sodipodi:nodetypes="csscs"/>
   <path id="path2271" d="m192.55 238.17c-2.2246 11.851-0.83005 17.054 6.973 26.011 6.1688 7.0815 23.31 2.1344 25.069-7.235 2.2246-11.851 0.83005-17.054-6.973-26.011-8.0105-4.694-23.31-2.1344-25.069 7.235z" fill="#ff0040" stroke-width="3.1806" sodipodi:nodetypes="csscs"/>
   <path id="path2273" d="m219.49 227.35c-1.6264 12.721 0.02754 18.169 8.2698 27.238 6.5161 7.1699 23.386 0.92699 24.672-9.1301 1.6264-12.721-0.02753-18.169-8.2698-27.238-8.2354-4.527-23.386-0.92701-24.672 9.1301z" fill="#ff0040" stroke-width="3.2809" sodipodi:nodetypes="csscs"/>
   <path id="path2275" d="m236.82 221.36c2.8521 11.706 6.2494 15.796 16.986 20.452 8.4882 3.681 21.967-8.3701 19.712-17.624-2.8521-11.706-6.2494-15.796-16.986-20.452-9.1745-0.707-21.967 8.3701-19.712 17.624z" fill="#ff0040" stroke-width="3.1806" sodipodi:nodetypes="csscs"/>
   <path id="path2277" d="m253.13 205.28c6.9383 9.6933 11.582 12.131 23.219 12.187 9.1996 0.04485 17.231-16.428 11.746-24.091-6.9383-9.6932-11.582-12.131-23.219-12.187-8.7412 2.976-17.231 16.428-11.746 24.091z" fill="#ff0040" stroke-width="3.1806" sodipodi:nodetypes="csscs"/>
   <path id="path2279" d="m264.28 182.94c8.9642 7.699 14.034 8.9184 25.349 6.0969 8.945-2.2306 12.963-20.215 5.8761-26.301-8.9642-7.699-14.034-8.9184-25.349-6.0969-7.8062 5.0511-12.963 20.215-5.8761 26.301z" fill="#ff0040" stroke-width="3.1806" sodipodi:nodetypes="csscs"/>
   <path id="path2281" d="m145 223.84c-4.3826 11.609-4.0627 17.235 1.5998 28.127 4.4766 8.6113 21.648 7.3861 25.113-1.7919 4.3826-11.609 4.0627-17.235-1.5998-28.127-6.6782-6.5839-21.648-7.3861-25.113 1.7919z" fill="#ff0040" stroke-width="3.1958" sodipodi:nodetypes="csscs"/>
   <path id="path2283" d="m173.02 218.63c-2.2095 12.157-0.82441 17.493 6.9256 26.681 6.127 7.2638 23.152 2.1894 24.899-7.4213 2.2096-12.157 0.82441-17.493-6.9256-26.681-7.9562-4.8149-23.152-2.1894-24.899 7.4213z" fill="#ff0040" stroke-width="3.2104" sodipodi:nodetypes="csscs"/>
   <path id="path2285" d="m201.62 216.68c-1.4595 11.686 0.02471 16.691 7.4213 25.022 5.8475 6.5866 20.986 0.85158 22.14-8.3873 1.4595-11.686-0.0247-16.691-7.4213-25.022-7.3904-4.1588-20.986-0.8516-22.14 8.3873z" fill="#ff0040" stroke-width="2.9789" sodipodi:nodetypes="csscs"/>
   <path id="path2287" d="m215.35 205.16c2.8521 11.706 6.2494 15.796 16.986 20.452 8.4882 3.681 21.967-8.3702 19.712-17.624-2.8521-11.706-6.2494-15.796-16.986-20.452-9.1745-0.70701-21.967 8.3702-19.712 17.624z" fill="#ff0040" stroke-width="3.1806" sodipodi:nodetypes="csscs"/>
   <path id="path2289" d="m231.66 189.08c6.9383 9.6932 11.582 12.131 23.219 12.187 9.1996 0.04486 17.231-16.428 11.746-24.091-6.9383-9.6933-11.582-12.131-23.219-12.187-8.7412 2.976-17.231 16.428-11.746 24.091z" fill="#ff0040" stroke-width="3.1806" sodipodi:nodetypes="csscs"/>
   <path id="path2291" d="m250 163.35c8.9642 7.699 14.034 8.9184 25.349 6.0969 8.945-2.2306 12.963-20.215 5.8761-26.301-8.9643-7.699-14.034-8.9184-25.349-6.0969-7.8062 5.0511-12.963 20.215-5.8761 26.301z" fill="#ff0040" stroke-width="3.1806" sodipodi:nodetypes="csscs"/>
   <path id="path2293" d="m130.83 203.08c-4.8837 11.877-4.5272 17.632 1.7828 28.775 4.9884 8.8097 24.123 7.5562 27.984-1.8332 4.8837-11.877 4.5272-17.632-1.7828-28.775-7.4417-6.7356-24.123-7.5563-27.984 1.8332z" fill="#ff0040" stroke-width="3.4121" sodipodi:nodetypes="csscs"/>
   <path id="path2295" d="m155.98 203.39c-2.3973 12.657-0.89448 18.213 7.5143 27.779 6.6477 7.5628 25.12 2.2795 27.015-7.7268 2.3974-12.657 0.89448-18.213-7.5143-27.779-8.6324-5.0131-25.12-2.2795-27.015 7.7268z" fill="#ff0040" stroke-width="3.4121" sodipodi:nodetypes="csscs"/>
   <path id="path2297" d="m185.06 192.78c-1.7527 12.768 0.02967 18.236 8.9118 27.339 7.022 7.1964 25.201 0.93043 26.587-9.1638 1.7527-12.768-0.02967-18.236-8.9118-27.339-8.8747-4.5438-25.201-0.93043-26.587 9.1638z" fill="#ff0040" stroke-width="3.4121" sodipodi:nodetypes="csscs"/>
   <path id="path2299" d="m203.74 181.47c3.0735 12.502 6.7345 16.87 18.305 21.843 9.1472 3.9312 23.672-8.9391 21.242-18.822-3.0735-12.502-6.7345-16.87-18.305-21.843-9.8867-0.75506-23.672 8.9391-21.242 18.822z" fill="#ff0040" stroke-width="3.4121" sodipodi:nodetypes="csscs"/>
   <path id="path2301" d="m221.31 164.3c7.477 10.352 12.481 12.955 25.021 13.016 9.9138 0.04792 18.569-17.545 12.658-25.729-7.477-10.352-12.481-12.955-25.021-13.016-9.4198 3.1782-18.569 17.545-12.658 25.729z" fill="#ff0040" stroke-width="3.4121" sodipodi:nodetypes="csscs"/>
   <path id="path2303" d="m232.85 141.28c8.7889 7.5146 13.759 8.7047 24.853 5.9508 8.7701-2.1771 12.709-19.73 5.7612-25.671-8.7889-7.5146-13.759-8.7047-24.853-5.9509-7.6535 4.9301-12.709 19.73-5.7612 25.671z" fill="#ff0040" stroke-width="3.1114" sodipodi:nodetypes="csscs"/>
   <path id="path2337" d="m138.24 175.28c-8.2591-6.6934-12.853-7.6566-22.968-4.8161-7.997 2.2456-11.17 18.543-4.641 23.835 8.2591 6.6934 12.853 7.6566 22.968 4.8161 6.9023-4.7547 11.17-18.543 4.641-23.835z" fill="#ff0040" stroke-width="2.8644" sodipodi:nodetypes="csscs"/>
   <path id="path2305" d="m117.9 208.47c7.585 8.9646 12.33 10.96 23.723 9.9791 9.0073-0.77581 15.517-17.778 9.5209-24.865-7.585-8.9646-12.33-10.96-23.723-9.9791-8.311 3.7214-15.517 17.778-9.5208 24.865z" fill="#ff0040" stroke-width="3.1404" sodipodi:nodetypes="csscs"/>
   <path id="path2307" d="m144.21 188.58c-2.1854 11.761-0.81541 16.924 6.8501 25.813 6.0601 7.0275 22.9 2.1181 24.627-7.1798 2.1854-11.761 0.81541-16.924-6.8501-25.813-7.8694-4.6582-22.9-2.1181-24.627 7.1798z" fill="#ff0040" stroke-width="3.1404" sodipodi:nodetypes="csscs"/>
   <path id="path2309" d="m170.72 178.73c-1.5978 11.864 0.02705 16.945 8.124 25.404 6.4012 6.6869 22.974 0.86455 24.237-8.5151 1.5978-11.864-0.02705-16.945-8.124-25.404-8.0902-4.2221-22.974-0.86456-24.237 8.5151z" fill="#ff0040" stroke-width="3.1404" sodipodi:nodetypes="csscs"/>
   <path id="path2311" d="m187.75 168.22c2.8018 11.617 6.1392 15.676 16.687 20.296 8.3386 3.6529 21.579-8.3063 19.364-17.49-2.8018-11.617-6.1392-15.676-16.687-20.296-9.0128-0.70161-21.579 8.3063-19.364 17.49z" fill="#ff0040" stroke-width="3.1404" sodipodi:nodetypes="csscs"/>
   <path id="path2313" d="m203.77 152.26c6.816 9.6193 11.378 12.038 22.81 12.095 9.0375 0.04451 16.928-16.303 11.539-23.907-6.816-9.6193-11.378-12.038-22.81-12.094-8.5872 2.9533-16.928 16.303-11.539 23.907z" fill="#ff0040" stroke-width="3.1404" sodipodi:nodetypes="csscs"/>
   <path id="path2327" d="m195.98 118.8c9.164 5.759 13.995 6.3078 24.154 2.7438 8.0314-2.8176 9.7325-18.755 2.4877-23.308-9.164-5.759-13.995-6.3078-24.154-2.7438-6.6604 5.141-9.7325 18.755-2.4877 23.308z" fill="#ff0040" stroke-width="2.8644" sodipodi:nodetypes="csscs"/>
   <path id="path2315" d="m211.88 128.01c8.8062 7.6403 13.787 8.8503 24.902 6.0504 8.7874-2.2136 12.734-20.06 5.7725-26.101-8.8063-7.6403-13.787-8.8503-24.902-6.0504-7.6686 5.0125-12.734 20.06-5.7725 26.101z" fill="#ff0040" stroke-width="3.1404" sodipodi:nodetypes="csscs"/>
  </g>
 </g>
</svg>
