<?xml version="1.0" encoding="UTF-8"?>
<!-- Created with Inkscape (http://www.inkscape.org/) -->
<svg id="svg2" width="122.17" height="74.754" version="1.0" xmlns="http://www.w3.org/2000/svg" xmlns:cc="http://creativecommons.org/ns#" xmlns:dc="http://purl.org/dc/elements/1.1/" xmlns:rdf="http://www.w3.org/1999/02/22-rdf-syntax-ns#">
 <metadata id="metadata3">
  <rdf:RDF>
   <cc:Work rdf:about="">
    <dc:title>Adventurer Hat</dc:title>
    <dc:description/>
    <dc:subject>
     <rdf:Bag>
      <rdf:li>clothing</rdf:li>
     </rdf:Bag>
    </dc:subject>
    <dc:publisher>
     <cc:Agent rdf:about="http://www.openclipart.org/">
      <dc:title>Open Clip Art Library</dc:title>
     </cc:Agent>
    </dc:publisher>
    <dc:creator>
     <cc:Agent>
      <dc:title>Nicu Buculei</dc:title>
     </cc:Agent>
    </dc:creator>
    <dc:rights>
     <cc:Agent>
      <dc:title>Nicu Buculei</dc:title>
     </cc:Agent>
    </dc:rights>
    <dc:date/>
    <dc:format>image/svg+xml</dc:format>
    <dc:type rdf:resource="http://purl.org/dc/dcmitype/StillImage"/>
    <cc:license rdf:resource="http://web.resource.org/cc/PublicDomain"/>
    <dc:language>en</dc:language>
   </cc:Work>
   <cc:License rdf:about="http://web.resource.org/cc/PublicDomain">
    <cc:permits rdf:resource="http://web.resource.org/cc/Reproduction"/>
    <cc:permits rdf:resource="http://web.resource.org/cc/Distribution"/>
    <cc:permits rdf:resource="http://web.resource.org/cc/DerivativeWorks"/>
   </cc:License>
  </rdf:RDF>
 </metadata>
 <g id="layer1" transform="translate(-3.2188 -16.487)">
  <g id="g2055" transform="translate(-1,4)" fill-rule="evenodd">
   <path id="path4735" d="m60.031 13.344c-4.5029 1.5548-9.4695-2.2031-13.828 1.3475-9.3804 6.2271-8.5382 19.35-10.172 29.309-3.2832 1.9871-0.79288 6.4167-3.3125 9.125 1.3297 5.1577-4.225 4.8332-7.9688 5.625-6.8099 1.6327-14.651 0.20877-20.531 4.5938 0.96955 11.441 14.124 15.448 23.453 18.209 25.753 6.3926 53.143 7.6021 79.244 2.5831 8.0337-1.7808 19.846-5.2801 19.46-15.448-1.8408-9.7777-14.074-12.205-22.438-10.344-4.2643-10.026-2.797-21.352-6.4688-31.562-6.614-14.084-23.884-15.738-37.438-13.438z"/>
   <path id="path1295" d="m100.81 59.125c-19.778 6.183-67.274 8.6804-91.312 3.6875-1.6649 0.3686-2.8539 0.81841-3.0938 1.5 0.67923 24.113 112.44 28.19 117.53 7.8125 3.0565-7.981-8.3393-15.111-22.094-11.375-0.3825-0.135-0.73111-0.74206-1.0312-1.625z" fill="#4c2200"/>
   <path id="path2102" d="m67.781 14.5c-5.7738 0.25969-10.415 1.3679-11.625 1.75-1.1887-0.67923-2.9046-2.0442-7.2812-0.65625-10.726 2.7916-10.012 26.195-11.938 37.906 20.471-1.5066 43.37-0.26974 63.125 2.4688-1.3933-7.8555-2.0325-23.09-4.3125-28.156-5.5188-11.78-18.346-13.745-27.969-13.312z" fill="#632d00"/>
   <path id="path1294" d="m47.314 56.526c-5.8712 0.10266-9.9088 0.41095-10.673 0.96283-0.16194 0.11696-0.38539 0.23447-0.62931 0.35241-0.075101 0.21464-0.13867 0.47522-0.22025 0.66706-8.8986 3.8994-27.884 3.5151-29.152 5.4575 31.615 10.085 92.146-1.1907 96.792-3.4887 0.77357-3.417-42.263-4.1934-56.118-3.9511z" fill="#b16f37"/>
   <path id="path1306" d="m47.314 56.054c-5.8712 0.10266-9.9088 0.41095-10.673 0.96283-0.16194 0.11696-0.38539 0.23447-0.62931 0.35241-0.075101 0.21464-0.13867 0.47522-0.22025 0.66706-8.8986 3.8994-24.135 3.4318-28.319 5.3742 35.102 9.8802 98.657-3.9336 95.793-3.1555 0.19042-3.2504-42.096-4.4433-55.951-4.201z" fill="#8e4000"/>
   <path id="path1316" d="m50.567 15.416c9.2829 7.5848-0.96225 28.924-4.7546 33.452-6.7923 9.5093 22.754 8.83 20.886 0.84904-9.6791-4.415-9.8489-16.132-9.5093-31.754-1.5639-1.6769-3.7358-0.50943-6.6225-2.5471z" fill="#371800"/>
   <path id="path1310" d="m36.473 46.107c19.471-13.868 47.773-0.52201 62.999 5.3081 1.1106 1.0931 3.8595 8.2728 3.1504 8.1456-13.57-2.2219-54.44-3.8859-67.515-1.1689-0.59433 0.25471-1.1663-5.3395 0.38953-6.5309 1.8435-1.5825-0.13482-4.3804 0.97601-5.7538z"/>
   <path id="path1312" d="m63.306 27.506c-2.2058-19.966 25.881-11.956 25.898 6.2613-3.7779-10.51-21.177-18.752-25.898-6.2613z" fill="#512400"/>
   <path id="path1314" d="m50.719 17.344c-4.5642 0.27579-9.8279 13.812-8.3826 13.438 2.4276-7.6468 9.721-14.5 10.135-4.6184 0.84692-2.7568 1.4171-7.3888-1.7524-8.8194z" fill="#512400"/>
  </g>
 </g>
</svg>
