<?xml version="1.0" encoding="UTF-8"?>
<!-- Created with Inkscape (http://www.inkscape.org/) -->
<svg id="svg2" width="124.4" height="49.515" version="1.0" xmlns="http://www.w3.org/2000/svg" xmlns:cc="http://creativecommons.org/ns#" xmlns:dc="http://purl.org/dc/elements/1.1/" xmlns:rdf="http://www.w3.org/1999/02/22-rdf-syntax-ns#">
 <g id="layer1" transform="translate(-1.9106 -40.424)">
  <g id="g10793" transform="matrix(.82946 0 0 .82946 -101.17 -279.93)" fill-rule="evenodd">
   <path id="path10779" d="m218.4 386.87c-6.1059 0.35459-7.6594 7.3874-10.719 11.5-2.9177 4.8719-10.352 3.8457-12.562-1.0938-2.3362-3.8682-4.9928-9.8248-10.562-8.625-5.343 1.7778-6.0333 9.1992-7.3398 13.979-1.6885 4.1021 0.09326 10.646-2.6836 12.525-8.0148-2.5044-16.267-6.1898-24.539-7.9688-7.51-2.1167-15.961-4.6855-21.957 1.6777-5.1314 5.4535-2.461 14.353 3.8457 17.746 13.182 8.2284 27.576 11.559 42.615 14.838 20.734 3.8926 40.734 5.7562 61.103-1.002 6.5056-1.9689 12.25-5.346 18.443-7.957 8.4092-4.6262 17.483-11.267 18.844-21.436 0.92639-6.619-4.0347-11.655-10.332-11.871-5.5049-0.33653-11.547 0.28284-16 3.8125-6.2001 3.7795-12.708 7.0453-19.406 9.8438-0.42506-8.151-1.0126-16.892-5.5312-23.938-0.79401-1.0091-1.8889-1.9139-3.2188-2.0312z" fill="#b9a165"/>
   <path id="path10785" d="m180.12 392.38c-2.4167 7.4167-3.5833 13.958-5 22.25 0.125 0.875-30.125-8.875-34.375-9.5 19.375 8.25 13.125 16.25 21.5 21.625 3.875 3.625 18.75 2 20.375 0.75-2.375-2.75 3.125-33.5-2.5-35.125z" fill-opacity=".082353"/>
   <path id="path10787" d="m179.49 394.58c-2.4167 7.4167-3.0833 11.708-4.5 20 0.125 0.875-27.625-8.375-31.875-9 19.375 8.25 11 13.5 19.375 18.875 3.875 3.625 17.125 3.125 18.75 1.875-2.375-2.75 3.875-30.125-1.75-31.75z" fill-opacity=".082353"/>
   <path id="path10789" d="m245.82 403.72c17.121-10.701 27.168-1.1607 27.422 8.9231-2.394 5.7674-2.7205 6.0938-4.788 7.835 1.8499-12.514-15.452-15.561-22.634-16.758z" fill-opacity=".082353"/>
   <path id="path10791" d="m247.89 402.15c17.121-10.701 24.992 0.2539 25.246 10.338-2.394 5.7674-1.4146 4.5704-3.4822 6.3115 1.3058-13.929-13.167-16.976-21.764-16.649z" fill-opacity=".082353"/>
   <path id="path10562" d="m218.53 386.22c-6.1059 0.35459-7.6594 7.3874-10.719 11.5-2.9177 4.8719-10.352 3.8457-12.562-1.0938-2.3362-3.8682-4.9928-9.8248-10.562-8.625-5.343 1.7778-6.4122 8.2518-7.7188 13.031-1.6885 4.1021-0.28567 11.589-3.0625 13.469-8.0148-2.5044-15.51-6.5648-23.781-8.3438-7.51-2.1167-17.098-3.7382-23.094 2.625-5.1314 5.4535-2.6505 14.732 3.6562 18.125 13.182 8.2284 28.524 12.128 43.562 15.406 20.734 3.8926 42.819 5.9456 63.188-0.8125 6.5056-1.9689 11.682-6.4828 17.875-9.0938 8.4092-4.6262 17.483-11.457 18.844-21.625 0.92639-6.619-5.1715-12.034-11.469-12.25-5.5049-0.33653-11.547 0.28284-16 3.8125-6.2001 3.7795-12.708 7.0453-19.406 9.8438-0.42506-8.151-1.0126-16.892-5.5312-23.938-0.79401-1.0091-1.8889-1.9139-3.2188-2.0312zm-1.2188 2c6.8241 0.9333 6.0873 9.3524 7.4062 14.875-0.00883 4.0034 3.5707 17.469-1.125 18.75-15.537 9.689-33.858 11.062-45.5 2.0312-4.785-1.2278-0.8246-17.574-0.15625-22.625 1.3228-4.5208 1.5402-10.607 7-11.688 6.0395-0.01936 7.6872 6.5386 11.312 9.9688 3.7162 4.2084 10.907 3.5514 13.188-1.3125 2.2652-3.4881 3.5726-8.4534 7.875-10zm1.875 7.5938c-2.7574-0.31492-4.7798 2.7182-6.625 4.4688-2.3852 2.6853-3.8039 5.4594-3.2812 9.875 0.92159-3.9522 1.6947-5.5286 3.6562-8.1562 1.2377-1.5203 2.8971-3.3092 4.6875-4.0938 2.0666-0.93315 3.3759 2.2068 3.9375 3.9062 1.6888 0.85459 0.41923-3.4675-0.3125-4.0312-0.48735-0.53068-1.3419-1.8713-2.0625-1.9688zm40.5 3.5938c6.0425-0.60385 11.959 3.0297 11.969 9.8438-0.24439 9.6674-7.1446 16.524-14.812 21.125-4.4995 2.375-9.9701 3.6289-14.219 6.4375-17.328 8.4846-35.544 8.4948-54.25 6.3125-18.431-2.6533-37.383-7.1559-53.906-16-5.4027-2.4706-10.103-7.6912-8.0625-13.938 2.3836-7.5786 11.542-8.1917 18.312-6.625 9.3888 1.7398 17.689 4.5564 26.469 8.1875 7.4159-0.54787-0.04382 8.5803 6.6562 10.312 11.372 8.675 27.513 7.4157 39.969 1.8438 4.7967-2.2391 10.787-5.1473 9.5312-11.344 0.40027-4.5858 8.1895-4.3708 11.594-7.25 4.4175-1.8275 8.4862-5.7715 12.844-7.5938 2.5698-0.73872 5.2286-1.2426 7.9062-1.3125z"/>
   <path id="path10783" d="m221.96 400.76c0-0.25-2.625-5.25-4.125-4.75s-9.25 10.625-8.5 13 13 1 12.625-8.25z" fill-opacity=".082353"/>
   <path id="path10781" d="m220.88 400c-0.25-1-1.75-4.625-3.25-4.125s-8.625 9.125-7.875 11.5 11.5 1.875 11.125-7.375z" fill-opacity=".082353"/>
  </g>
 </g>
 <metadata id="metadata31">
  <rdf:RDF>
   <cc:Work rdf:about="">
    <dc:title>hat - clothing</dc:title>
    <dc:description/>
    <dc:subject>
     <rdf:Bag>
      <rdf:li>hat</rdf:li>
     </rdf:Bag>
    </dc:subject>
    <dc:publisher>
     <cc:Agent>
      <dc:title/>
     </cc:Agent>
    </dc:publisher>
    <dc:creator>
     <cc:Agent>
      <dc:title>Nicu Buculei</dc:title>
     </cc:Agent>
    </dc:creator>
    <dc:rights>
     <cc:Agent>
      <dc:title>Nicu Buculei</dc:title>
     </cc:Agent>
    </dc:rights>
    <dc:date/>
    <dc:format>image/svg+xml</dc:format>
    <dc:type rdf:resource="http://purl.org/dc/dcmitype/StillImage"/>
    <cc:license rdf:resource="http://web.resource.org/cc/PublicDomain"/>
    <dc:language>en</dc:language>
   </cc:Work>
   <cc:License rdf:about="http://web.resource.org/cc/PublicDomain">
    <cc:permits rdf:resource="http://web.resource.org/cc/Reproduction"/>
    <cc:permits rdf:resource="http://web.resource.org/cc/Distribution"/>
    <cc:permits rdf:resource="http://web.resource.org/cc/DerivativeWorks"/>
   </cc:License>
  </rdf:RDF>
 </metadata>
</svg>
