<?xml version="1.0" encoding="UTF-8"?>
<!-- Created with Sodipodi ("http://www.sodipodi.com/") -->
<svg id="svg602" width="300" height="109.22" space="preserve" version="1.0" xmlns="http://www.w3.org/2000/svg" xmlns:cc="http://creativecommons.org/ns#" xmlns:dc="http://purl.org/dc/elements/1.1/" xmlns:rdf="http://www.w3.org/1999/02/22-rdf-syntax-ns#" xmlns:xlink="http://www.w3.org/1999/xlink">
 <metadata id="metadata3">
  <rdf:RDF>
   <cc:Work rdf:about="">
    <dc:title>couronne</dc:title>
    <dc:description/>
    <dc:subject>
     <rdf:Bag>
      <rdf:li/>
      <rdf:li>festive</rdf:li>
      <rdf:li>party</rdf:li>
      <rdf:li>recreation</rdf:li>
     </rdf:Bag>
    </dc:subject>
    <dc:publisher>
     <cc:Agent rdf:about="http://www.openclipart.org">
      <dc:title>Open Clip Art Library</dc:title>
     </cc:Agent>
    </dc:publisher>
    <dc:creator>
     <cc:Agent>
      <dc:title>Franck Doucet</dc:title>
     </cc:Agent>
    </dc:creator>
    <dc:rights>
     <cc:Agent>
      <dc:title/>
     </cc:Agent>
    </dc:rights>
    <dc:date/>
    <dc:format>image/svg+xml</dc:format>
    <dc:type rdf:resource="http://purl.org/dc/dcmitype/StillImage"/>
    <cc:license rdf:resource="http://creativecommons.org/licenses/publicdomain/"/>
    <dc:language>en</dc:language>
   </cc:Work>
   <cc:License rdf:about="http://creativecommons.org/licenses/publicdomain/">
    <cc:permits rdf:resource="http://creativecommons.org/ns#Reproduction"/>
    <cc:permits rdf:resource="http://creativecommons.org/ns#Distribution"/>
    <cc:permits rdf:resource="http://creativecommons.org/ns#DerivativeWorks"/>
   </cc:License>
  </rdf:RDF>
 </metadata>
 <defs id="defs604">
  <linearGradient id="linearGradient723">
   <stop id="stop724" stop-color="#006a00" offset="0"/>
   <stop id="stop725" stop-color="#ffffb7" offset="1"/>
  </linearGradient>
  <linearGradient id="linearGradient702">
   <stop id="stop703" stop-color="#ff5a00" offset="0"/>
   <stop id="stop704" stop-color="#fff" offset="1"/>
  </linearGradient>
  <linearGradient id="linearGradient662">
   <stop id="stop663" stop-color="#853d00" offset="0"/>
   <stop id="stop664" stop-color="#ffea00" offset="1"/>
  </linearGradient>
  <linearGradient id="linearGradient2613" x1="79.615" x2="128.05" y1="983.85" y2="983.86" gradientTransform="matrix(1.5269 0 0 .43331 -113.57 -298.41)" gradientUnits="userSpaceOnUse" spreadMethod="reflect" xlink:href="#linearGradient662"/>
  <linearGradient id="linearGradient2615" x1="71.826" x2="115.08" y1="941.46" y2="939.13" gradientTransform="matrix(1.6139 0 0 .40993 -113.57 -298.41)" gradientUnits="userSpaceOnUse" spreadMethod="reflect" xlink:href="#linearGradient662"/>
  <linearGradient id="linearGradient2617" x1="65.57" x2="104.15" y1="1363.3" y2="1345.3" gradientTransform="matrix(2.0477 0 0 .3231 -113.57 -298.41)" gradientUnits="userSpaceOnUse" spreadMethod="reflect" xlink:href="#linearGradient662"/>
  <linearGradient id="linearGradient2619" x1="66.687" x2="105.92" y1="1247.6" y2="1229.3" gradientTransform="matrix(2.0193 0 0 .32763 -113.57 -298.41)" gradientUnits="userSpaceOnUse" spreadMethod="reflect" xlink:href="#linearGradient662"/>
  <linearGradient id="linearGradient2621" x1="449.48" x2="469.47" y1="584.73" y2="584.73" gradientTransform="scale(1.0318 .96922)" gradientUnits="userSpaceOnUse" xlink:href="#linearGradient662"/>
  <linearGradient id="linearGradient2623" x1="541.84" x2="553.82" y1="536.29" y2="536.29" gradientTransform="scale(.9418 1.0618)" gradientUnits="userSpaceOnUse" xlink:href="#linearGradient723"/>
  <linearGradient id="linearGradient2629" x1="242.61" x2="270.28" y1="692.76" y2="692.76" gradientTransform="scale(1.2649 .79057)" gradientUnits="userSpaceOnUse" xlink:href="#linearGradient662"/>
  <linearGradient id="linearGradient2631" x1="210.7" x2="215.93" y1="994.62" y2="983.82" gradientTransform="scale(1.6657 .60036)" gradientUnits="userSpaceOnUse" xlink:href="#linearGradient702"/>
  <linearGradient id="linearGradient2639" x1="-125.47" x2="-121.23" y1="1137.6" y2="1128.8" gradientTransform="scale(1.4791 .6761)" gradientUnits="userSpaceOnUse" xlink:href="#linearGradient702"/>
  <linearGradient id="linearGradient2641" x1="753.73" x2="769.89" y1="318.48" y2="318.48" gradientTransform="scale(.65624 1.5238)" gradientUnits="userSpaceOnUse" xlink:href="#linearGradient662"/>
  <linearGradient id="linearGradient2643" x1="695.98" x2="704.07" y1="366.05" y2="356.69" gradientTransform="scale(.72556 1.3782)" gradientUnits="userSpaceOnUse" xlink:href="#linearGradient723"/>
 </defs>
 <g id="g2575" transform="translate(3.457e-6 -55.086)" fill-rule="evenodd">
  <path id="path615" d="m296.87 83.912c-1.1967 27.277-84.506 47.841-152.58 46.244-64.154-1.5053-140.73-21.904-139.96-49.758l-1.2542 36.784c-0.65592 24.938 95.976 45.463 142.27 46.549 42.129 0.98851 149.67-15.114 150.39-43.794l1.1378-36.025z" fill="url(#linearGradient2613)"/>
  <path id="path675" d="m295.07 86.608c-1.6504 0.7728-3.9153-0.14259-3.9734-0.80542 0.48161-1.7014 0.97688-6.4583 3.008-9.4037 1.676-7.8182 2.4887-16.879-2.8511 1.8589 2.4833-5.4613 2.2713-11.525 1.8326-13.767-0.44321-2.8904-2.2982-6.8106-3.4483-9.405-1.1658 3.7401-4.2392 6.3183-4.0667 15.113 0.01366 2.4004 0.08451 3.7145 1.9054 8.2146-5.5318-2.4546-10.286 3.9453-7.7779 13.214 4.6117-10.692 11.721-9.3592 7.6156-0.68821-0.36008 0.77711-2.2233 3.6502-4.5478 7.5548 7.2344-4.4784 12.433-11.268 12.304-11.886zm-24.09 18.444c-5.1379 0.25638-4.7939-3.6716-4.2372-6.3648 0.76434-3.4935 4.9647-10.733 10.567-4.8696 4.4199-13.963-3.8953-15.396-9.5178-5.6456 2.6903-4.6744 2.3426-7.3351 0.51031-12.243-1.8322-4.9074-2.6598-4.4408-4.3288-7.8709-1.7109 4.4618-3.6717 6.1616-4.6719 11.454-0.81599 5.2714-0.30095 6.7261 2.519 11.553-7.5634-3.9248-16.406 5.4152-11.845 13.962 5.1196-7.8123 12.307-8.3552 11.739-2.133-0.40303 2.4394-0.7314 4.6438-4.4954 8.3206 4.462-1.4237 10.766-3.9958 13.76-6.1636zm-32.55 12.291c-3.918-1.6747-4.2922-3.4844-3.845-6.025 0.622-3.2972 5.333-8.5154 12.842-5.0614 4.2532-10.636-5.4877-13.795-13.906-4.6533 2.292-4.2639 3.0446-8.9737 1.7285-12.857-1.3736-3.7077-3.7118-6.0556-5.8861-9.1922-2.1382 3.6258-5.9847 7.8648-6.277 11.749-0.2842 3.8847 1.311 8.0145 4.0788 12.404-12.295-6.5964-19.892 3.7316-13.493 11.174 3.7106-5.9073 11.603-7.7594 13.854-2.3625 1.3078 3.3845-1.0934 4.8828-4.7048 8.4789l15.608-3.6555zm-54.432 9.5197c3.553-3.2911 4.7495-7.105 2.9335-9.8598-3.7212-5.289-10.769-3.751-15.381 1.0812-7.4935-8.7168 5.1982-18.414 15.585-10.677-1.817-2.9939-4.3242-6.5339-3.7703-11.469 0.554-4.9351 3.9914-7.8368 6.7235-11.385 2.8255 3.5312 4.5213 3.4245 6.3342 8.0817 1.813 4.6571-1.5267 10.872-2.7752 13.841 8.9992-8.3438 21.599-0.77312 15.958 9.2951-3.9971-5.3775-12.768-4.9926-14.793 0.51764-1.4214 4.2019 0.67413 6.9686 4.8949 9.0762l-15.709 1.4978zm-27.976 2.6475c-5.0824-4.4432-5.9451-7.6612-4.2841-10.745 2.6814-4.3734 10.665-5.7084 15.783-0.3304 6.6858-9.3506-5.8439-17.97-15.499-9.337 1.5427-3.1441 5.0956-8.0099 4.1036-12.876-0.99217-4.8659-5.495-6.3455-7.1905-10.193-2.4991 3.7692-5.9985 5.3609-7.3886 10.161-1.3902 4.8004 1.421 9.8086 2.9296 12.655-11.388-8.3328-22.872 0.2899-15.379 9.7214 5.0594-4.8757 12.248-4.9783 15.094 0.15617 2.2557 3.7676 0.95028 7.152-3.9491 10.698l15.78 0.09004zm-44.131-1.8326c-3.5152-3.3315-4.6681-7.1588-2.8208-9.8927 3.7814-5.2462 10.811-3.628 15.368 1.2567 7.5925-8.6308-4.9878-18.472-15.462-10.854 1.8511-2.973 4.3986-6.4841 3.9009-11.425-0.49771-4.9411-3.9018-7.882-6.5932-11.461-2.8656 3.4988-4.5601 3.3728-6.426 8.009-1.866 4.6361 1.4025 10.888 2.6171 13.872-8.9034-8.4459-21.589-1.0194-16.063 9.1126 4.0582-5.3316 12.824-4.8466 14.786 0.68633 1.3733 4.2178-0.7536 6.9604-4.9981 9.0197l15.691 1.6769zm-53.834-9.4016c3.9369-1.6299 4.3316-3.4351 3.9136-5.9807-0.58442-3.3041-5.2355-8.5757-12.784-5.2076-4.1315-10.684 5.6447-13.731 13.958-4.4944-2.2432-4.2898-2.9421-9.0079-1.5817-12.876 1.4157-3.6919 3.7805-6.0129 5.9905-9.1245 2.0966 3.65 5.8945 7.9326 6.1425 11.82 0.23987 3.8877-1.4024 7.9989-4.22 12.357 12.369-6.4557 19.848 3.9583 13.364 11.327-3.6429-5.9493-11.514-7.8912-13.826-2.5204-1.3462 3.3694 1.0376 4.895 4.6078 8.5321l-15.565-3.8334zm-31.675-12.167c5.1347 0.31494 4.8355-3.6167 4.3096-6.3161-0.7244-3.502-4.8419-10.789-10.511-4.9898-4.2603-14.013 4.0707-15.351 9.5815-5.5366-2.6368-4.7048-2.2587-7.3614-0.37058-12.248 1.8881-4.8861 2.7104-4.4101 4.4183-7.821 1.6599 4.4811 3.6012 6.2031 4.5409 11.506 0.7558 5.2803 0.22417 6.729-2.6506 11.524 7.6077-3.8384 16.343 5.602 11.685 14.097-5.0301-7.8703-12.21-8.4951-11.714-2.2668 0.37513 2.4438 0.67836 4.6518 4.4001 8.3713-4.4455-1.4744-10.719-4.1183-13.689-6.3201zm-22.769-18.905c1.8797 2.0192 3.2917 1.3176 3.3615-0.080282 0.0015454-1.7682-0.14511-10.389-3.6391-8.951-1.5867-7.8368-1.7719-22.789 3.571 0.91449-1.6836-5.7304-1.9056-9.5867-1.4413-11.823 0.47624-2.8852 2.373-6.2935 3.5526-8.8745 1.123 3.7531 4.1697 5.8757 3.8968 14.668-0.040995 2.4001-0.12681 3.7134-1.9988 8.1924 5.8509-10.483 10.24 4.0624 7.6265 13.302-4.4893-10.744-11.613-9.4924-7.6072-0.77508 0.35122 0.78118 2.1816 3.6753 4.4613 7.6062-7.1828-4.5606-11.919-13.562-11.783-14.179z" fill="url(#linearGradient2615)"/>
  <path id="path690" d="m3.0437 119.06c-1.3646 0-1.6507 4.2837 0.19066 5.9677 21.409 29.382 102.8 39.786 145.97 39.255 64.523-0.79159 138.17-19.074 146.3-40.978 0.9672-3.0556 0.96728-5.6072 0-5.4275-9.343 21.672-67.576 38.17-146.51 41.349-53.988 2.1887-124.44-12.496-145.94-40.166z" fill="url(#linearGradient2617)"/>
  <path id="path692" d="m296.26 85.396c1.3645-0.010574 1.6837 2.7458-0.14454 5.969-18.131 30.563-102.49 42.106-145.66 41.908-64.527-0.29233-116.53-9.5305-146.25-39.848-1.8811-1.9626-3.1659-5.4032-0.042052-5.4273 30.924 29.567 81.776 41.605 146.47 40.217 54.02-1.1541 127.39-13.458 145.62-42.819z" fill="url(#linearGradient2619)"/>
  <g id="g731" transform="matrix(.52121 -.62445 .62445 .52121 -391.94 135.54)">
   <path id="path722" d="m469.02 568.19c-2.0601 0-3.7186 1.6585-3.7186 3.7187v9.0314c0 2.0601 1.6585 3.7187 3.7186 3.7187h10.094c2.0601 0 3.7187-1.6586 3.7187-3.7187v-9.0314c0-2.0602-1.6586-3.7187-3.7187-3.7187h-10.094zm-0.8906-1.4532c-2.4237 0-4.375 1.9513-4.375 4.375v10.625c0 2.4237 1.9513 4.3749 4.375 4.3749h11.875c2.4237 0 4.3749-1.9512 4.3749-4.3749v-10.625c0-2.4237-1.9512-4.375-4.3749-4.375h-11.875z" fill="url(#linearGradient2621)"/>
   <g id="g728" transform="translate(-40 .62497)">
    <rect id="rect727" x="505.3" y="567.56" width="17.531" height="16.469" ry="3.7187" fill="#007d00"/>
    <rect id="rect719" x="510.3" y="569.44" width="11.281" height="12.719" ry="2.8719" fill="url(#linearGradient2623)"/>
   </g>
  </g>
  <g id="g736" transform="matrix(.56834 -.58188 .58188 .56834 -520.91 89.715)">
   <path id="path737" d="m469.02 568.19c-2.0601 0-3.7186 1.6585-3.7186 3.7187v9.0314c0 2.0601 1.6585 3.7187 3.7186 3.7187h10.094c2.0601 0 3.7187-1.6586 3.7187-3.7187v-9.0314c0-2.0602-1.6586-3.7187-3.7187-3.7187h-10.094zm-0.8906-1.4532c-2.4237 0-4.375 1.9513-4.375 4.375v10.625c0 2.4237 1.9513 4.3749 4.375 4.3749h11.875c2.4237 0 4.3749-1.9512 4.3749-4.3749v-10.625c0-2.4237-1.9512-4.375-4.3749-4.375h-11.875z" fill="url(#linearGradient2621)"/>
   <g id="g738" transform="translate(-40 .62497)">
    <rect id="rect739" x="505.3" y="567.56" width="17.531" height="16.469" ry="3.7187" fill="#007d00"/>
    <rect id="rect740" x="510.3" y="569.44" width="11.281" height="12.719" ry="2.8719" fill="url(#linearGradient2623)"/>
   </g>
  </g>
  <g id="g741" transform="matrix(.81339 0 0 .81339 -116.08 -298.77)">
   <path id="path698" d="m318.8 538.38c-5.1505 0-9.2969 4.1465-9.2969 9.2969 0 5.1505 4.1464 9.2969 9.2969 9.2969h11.156c5.1505 0 9.2969-4.1464 9.2969-9.2969 0-5.1504-4.1464-9.2969-9.2969-9.2969h-11.156zm-0.9844-1.6405c-6.0594 0-10.938 4.8781-10.938 10.938s4.8781 10.938 10.938 10.938h13.125c6.0593 0 10.938-4.8781 10.938-10.938s-4.8782-10.938-10.938-10.938h-13.125z" fill="url(#linearGradient2629)"/>
   <g id="g705" transform="translate(-24.375 -50.625)">
    <rect id="rect695" x="334.5" y="589" width="29.75" height="18.594" ry="9.2969" fill="#e50000"/>
    <rect id="rect700" x="340.75" y="590.88" width="20.375" height="7.3438" ry="3.6719" fill="url(#linearGradient2631)"/>
   </g>
  </g>
  <g id="g756" transform="matrix(.61684 .29449 -.33651 .76503 15.808 -389.41)">
   <path id="path757" d="m318.8 538.38c-5.1505 0-9.2969 4.1465-9.2969 9.2969 0 5.1505 4.1464 9.2969 9.2969 9.2969h11.156c5.1505 0 9.2969-4.1464 9.2969-9.2969 0-5.1504-4.1464-9.2969-9.2969-9.2969h-11.156zm-0.9844-1.6405c-6.0594 0-10.938 4.8781-10.938 10.938s4.8781 10.938 10.938 10.938h13.125c6.0593 0 10.938-4.8781 10.938-10.938s-4.8782-10.938-10.938-10.938h-13.125z" fill="url(#linearGradient2629)"/>
   <g id="g758" transform="translate(-24.375 -50.625)">
    <rect id="rect759" x="334.5" y="589" width="29.75" height="18.594" ry="9.2969" fill="#e50000"/>
    <rect id="rect760" x="340.75" y="590.88" width="20.375" height="7.3438" ry="3.6719" fill="url(#linearGradient2631)"/>
   </g>
  </g>
  <g id="g772" transform="matrix(.81339 0 0 .81339 -107.97 -383.81)">
   <path id="path762" transform="matrix(-.75824 .36231 .41403 .94041 478.93 -5.6408)" d="m318.8 538.38c-5.1505 0-9.2969 4.1465-9.2969 9.2969 0 5.1505 4.1464 9.2969 9.2969 9.2969h11.156c5.1505 0 9.2969-4.1464 9.2969-9.2969 0-5.1504-4.1464-9.2969-9.2969-9.2969h-11.156zm-0.9844-1.6405c-6.0594 0-10.938 4.8781-10.938 10.938s4.8781 10.938 10.938 10.938h13.125c6.0593 0 10.938-4.8781 10.938-10.938s-4.8782-10.938-10.938-10.938h-13.125z" fill="url(#linearGradient2629)"/>
   <rect id="rect764" transform="matrix(-.75824 .36231 .41403 .94041 476.45 -62.08)" x="334.5" y="589" width="29.75" height="18.594" ry="9.2969" fill="#e50000"/>
   <rect id="rect765" transform="matrix(-.89248 .45109 .38426 .92323 0 0)" x="-192.89" y="763.42" width="14.627" height="6.6859" ry="3.343" fill="url(#linearGradient2639)"/>
  </g>
  <g id="g793" transform="matrix(.81339 0 0 .81339 -113.57 -298.41)">
   <path id="path777" d="m504.07 506.73c0.322-1.1505-1.9438 1.4819-2.5773 1.1932l-2.3676-1.2337c-2.07-0.7306-2.2424-3.4323-1.7328-5.1706l4.8252-12.725c0.8409-1.8488 3.2516-0.2584 2.9963-0.958-0.7874-2.2366-2.7089-3.5709-3.9064-1.4542l-6.1537 15.044c-0.7555 2.1167-0.9695 5.4262 1.2576 6.4026l4.7325 1.9937c1.2328 0.5346 2.3745-0.764 2.9262-3.0926z" fill="url(#linearGradient2641)"/>
   <path id="path789" d="m497.21 501.76c-0.7227 1.9292 0.1706 4.2985 2.0998 5.0212l1.7387 0.9806c0.4448 0.3321 1.3297 0.2983 2.365-0.5372 2.1874-1.875 4.1796-5.5885 4.9566-8.3019 0.4163-1.4117-0.8989-10.344-3.77-11.293-0.384-0.1304-1.9547-0.22-2.4429 1.0061l-4.9472 13.124z" fill="#007d00"/>
   <path id="path791" transform="matrix(.94997 .31234 -.31234 .94997 176.36 -134.23)" d="m512.74 497.98c-0.3107 1.1332-4.0287 5.7704-6.3564 6.9333-1.6852 0.8419-2.1431-1.8618-2.005-7.2769 0.0317-1.2397-0.3961-8.52 2.0395-8.5569 2.4588-0.0373 6.7579 7.5227 6.3219 8.9005z" fill="url(#linearGradient2643)"/>
  </g>
  <g id="g797" transform="matrix(-.81339 0 0 .81339 413.57 -297.9)">
   <path id="path798" d="m504.07 506.73c0.322-1.1505-1.9438 1.4819-2.5773 1.1932l-2.3676-1.2337c-2.07-0.7306-2.2424-3.4323-1.7328-5.1706l4.8252-12.725c0.8409-1.8488 3.2516-0.2584 2.9963-0.958-0.7874-2.2366-2.7089-3.5709-3.9064-1.4542l-6.1537 15.044c-0.7555 2.1167-0.9695 5.4262 1.2576 6.4026l4.7325 1.9937c1.2328 0.5346 2.3745-0.764 2.9262-3.0926z" fill="url(#linearGradient2641)"/>
   <path id="path799" d="m497.21 501.76c-0.7227 1.9292 0.1706 4.2985 2.0998 5.0212l1.7387 0.9806c0.4448 0.3321 1.3297 0.2983 2.365-0.5372 2.1874-1.875 4.1796-5.5885 4.9566-8.3019 0.4163-1.4117-0.8989-10.344-3.77-11.293-0.384-0.1304-1.9547-0.22-2.4429 1.0061l-4.9472 13.124z" fill="#007d00"/>
   <path id="path800" transform="matrix(.94997 .31234 -.31234 .94997 176.36 -134.23)" d="m512.74 497.98c-0.3107 1.1332-4.0287 5.7704-6.3564 6.9333-1.6852 0.8419-2.1431-1.8618-2.005-7.2769 0.0317-1.2397-0.3961-8.52 2.0395-8.5569 2.4588-0.0373 6.7579 7.5227 6.3219 8.9005z" fill="url(#linearGradient2643)"/>
  </g>
 </g>
</svg>
