<?xml version="1.0" encoding="UTF-8"?>
<!-- Created with Sodipodi ("http://www.sodipodi.com/") -->
<svg id="svg602" width="300" height="164.31" space="preserve" version="1.0" xmlns="http://www.w3.org/2000/svg" xmlns:cc="http://creativecommons.org/ns#" xmlns:dc="http://purl.org/dc/elements/1.1/" xmlns:rdf="http://www.w3.org/1999/02/22-rdf-syntax-ns#" xmlns:xlink="http://www.w3.org/1999/xlink">
 <metadata id="metadata3">
  <rdf:RDF>
   <cc:Work rdf:about="">
    <dc:title>couronne</dc:title>
    <dc:description/>
    <dc:subject>
     <rdf:Bag>
      <rdf:li/>
      <rdf:li>festive</rdf:li>
      <rdf:li>party</rdf:li>
      <rdf:li>recreation</rdf:li>
     </rdf:Bag>
    </dc:subject>
    <dc:publisher>
     <cc:Agent rdf:about="http://www.openclipart.org">
      <dc:title>Open Clip Art Library</dc:title>
     </cc:Agent>
    </dc:publisher>
    <dc:creator>
     <cc:Agent>
      <dc:title>Franck Doucet</dc:title>
     </cc:Agent>
    </dc:creator>
    <dc:rights>
     <cc:Agent>
      <dc:title/>
     </cc:Agent>
    </dc:rights>
    <dc:date/>
    <dc:format>image/svg+xml</dc:format>
    <dc:type rdf:resource="http://purl.org/dc/dcmitype/StillImage"/>
    <cc:license rdf:resource="http://creativecommons.org/licenses/publicdomain/"/>
    <dc:language>en</dc:language>
   </cc:Work>
   <cc:License rdf:about="http://creativecommons.org/licenses/publicdomain/">
    <cc:permits rdf:resource="http://creativecommons.org/ns#Reproduction"/>
    <cc:permits rdf:resource="http://creativecommons.org/ns#Distribution"/>
    <cc:permits rdf:resource="http://creativecommons.org/ns#DerivativeWorks"/>
   </cc:License>
  </rdf:RDF>
 </metadata>
 <defs id="defs604">
  <linearGradient id="linearGradient723">
   <stop id="stop724" stop-color="#006a00" offset="0"/>
   <stop id="stop725" stop-color="#ffffb7" offset="1"/>
  </linearGradient>
  <linearGradient id="linearGradient702">
   <stop id="stop703" stop-color="#ff5a00" offset="0"/>
   <stop id="stop704" stop-color="#fff" offset="1"/>
  </linearGradient>
  <linearGradient id="linearGradient662">
   <stop id="stop663" stop-color="#853d00" offset="0"/>
   <stop id="stop664" stop-color="#ffea00" offset="1"/>
  </linearGradient>
  <linearGradient id="linearGradient2485" x1="114.39" x2="319.06" y1="782.29" y2="992.65" gradientTransform="matrix(1.898 0 0 .52686 -139.62 -366.87)" gradientUnits="userSpaceOnUse" xlink:href="#linearGradient662"/>
  <linearGradient id="linearGradient2487" x1="117.36" x2="297.3" y1="881.44" y2="973.06" gradientTransform="matrix(1.8755 0 0 .5332 -139.62 -366.87)" gradientUnits="userSpaceOnUse" xlink:href="#linearGradient662"/>
  <linearGradient id="linearGradient2489" x1="79.615" x2="128.05" y1="983.85" y2="983.86" gradientTransform="matrix(1.8772 0 0 .53272 -139.62 -366.87)" gradientUnits="userSpaceOnUse" spreadMethod="reflect" xlink:href="#linearGradient662"/>
  <linearGradient id="linearGradient2491" x1="71.826" x2="115.08" y1="941.46" y2="939.13" gradientTransform="matrix(1.9842 0 0 .50398 -139.62 -366.87)" gradientUnits="userSpaceOnUse" spreadMethod="reflect" xlink:href="#linearGradient662"/>
  <linearGradient id="linearGradient2493" x1="65.57" x2="104.15" y1="1363.3" y2="1345.3" gradientTransform="matrix(2.5175 0 0 .39722 -139.62 -366.87)" gradientUnits="userSpaceOnUse" spreadMethod="reflect" xlink:href="#linearGradient662"/>
  <linearGradient id="linearGradient2495" x1="66.687" x2="105.92" y1="1247.6" y2="1229.3" gradientTransform="matrix(2.4826 0 0 .4028 -139.62 -366.87)" gradientUnits="userSpaceOnUse" spreadMethod="reflect" xlink:href="#linearGradient662"/>
  <linearGradient id="linearGradient2497" x1="449.48" x2="469.47" y1="584.73" y2="584.73" gradientTransform="scale(1.0318 .96922)" gradientUnits="userSpaceOnUse" xlink:href="#linearGradient662"/>
  <linearGradient id="linearGradient2499" x1="541.84" x2="553.82" y1="536.29" y2="536.29" gradientTransform="scale(.9418 1.0618)" gradientUnits="userSpaceOnUse" xlink:href="#linearGradient723"/>
  <linearGradient id="linearGradient2505" x1="242.61" x2="270.28" y1="692.76" y2="692.76" gradientTransform="scale(1.2649 .79057)" gradientUnits="userSpaceOnUse" xlink:href="#linearGradient662"/>
  <linearGradient id="linearGradient2507" x1="210.7" x2="215.93" y1="994.62" y2="983.82" gradientTransform="scale(1.6657 .60036)" gradientUnits="userSpaceOnUse" xlink:href="#linearGradient702"/>
  <linearGradient id="linearGradient2515" x1="-125.47" x2="-121.23" y1="1137.6" y2="1128.8" gradientTransform="scale(1.4791 .6761)" gradientUnits="userSpaceOnUse" xlink:href="#linearGradient702"/>
  <linearGradient id="linearGradient2517" x1="753.73" x2="769.89" y1="318.48" y2="318.48" gradientTransform="scale(.65624 1.5238)" gradientUnits="userSpaceOnUse" xlink:href="#linearGradient662"/>
  <linearGradient id="linearGradient2519" x1="695.98" x2="704.07" y1="366.05" y2="356.69" gradientTransform="scale(.72556 1.3782)" gradientUnits="userSpaceOnUse" xlink:href="#linearGradient723"/>
 </defs>
 <g id="g2445" transform="matrix(.81339 0 0 .81339 -2.0073e-5 0)" fill-rule="evenodd">
  <path id="path686" d="m28.083 83.687c-6.3148 0.3512-8.1606-0.0039-7.9158-3.3761 0.0106-4.3003 3.9392-12.398 10.265-6.4355 4.8792-20.734-6.3741-20.128-11.512-6.3957 0.7893-3.9565 1.5638-10.136 1.1445-16.562-0.1764-2.4022-3.7793-5.3373-5.8553-9.5427-2.072 5.4974-3.9926 5.9899-5.1851 12.503-0.9662 6.4864 0.2802 12.492 2.8764 18.106-9.6275-4.3798-9.4844 11.347-6.2286 22.426-0.6956-11.751 8.3433-17.948 7.086-7.5806-0.3558 3.0188-1.4697 9.6339-5.4682 13.276 5.4756-5.0981 15.921-14.335 20.794-16.418zm29.788-11.759c-6.3148 0.3512-7.6768-1.8702-7.0113-5.1852 0.9152-4.3003 6.9544-14.509 13.883-7.34 7.8943-21.035-7.8817-21.033-13.02-7.3003 1.9954-5.7656 2.8285-9.0343 0.5415-15.055-2.287-6.0203-2.8748-7.1464-4.9507-11.352-2.0721 5.4974-4.8972 9.3065-6.0897 15.82-0.9662 6.4864-0.3228 8.2711 3.1779 14.186-9.3261-13.727-16.721 5.9197-11.053 16.396 6.2392-9.6404 11.66-9.5055 11.006-1.8519-0.4783 3.0018-2.0727 5.4127-6.9758 9.0549 5.4756-1.7815 16.826-4.6865 20.492-7.3725zm43.953-10.893c-4.8285-1.1269-7.7133-3.9521-7.1815-7.0787 0.7416-4.058 6.0703-12.638 15.327-8.4446 7.2863-16.091-9.4017-18.2-16.702-3.0649 2.788-5.2582 3.6802-11.48 2.0349-16.245-1.7146-4.5487-4.1793-8.2717-6.8744-12.112-2.6032 4.4726-6.4496 10.564-6.7818 15.342-0.3221 4.7779 0.3888 9.8438 3.8223 15.221-10.045-13.567-24.003-2.948-16.51 13.832 4.5204-7.2885 14.211-9.6208 17.016-3.0016 1.6315 4.1518-0.4054 6.9152-5.7246 10.457l21.575-4.9051zm27.262-4.7474c4.345-4.071 6.3922-9.3713 4.1403-12.745-4.612-6.4762-13.266-4.536-18.902 1.4372-9.2737-10.664 6.2615-22.675 19.085-13.236-2.2549-3.668-5.3621-8.0024-4.7157-14.074 0.6465-6.0711 4.8522-9.6627 8.186-14.044 3.4985 4.3215 5.5826 4.1785 7.8441 9.8914 2.2615 5.7128-1.8007 13.376-3.3148 17.036 11.005-10.321 26.549-1.1019 19.684 11.316-4.9518-6.5831-15.732-6.0484-18.183 0.7401-1.718 5.1758-0.0268 8.864 6.3829 10.822l-20.207 2.856zm72.059-4.9914c-7.4855-3.0147-10.076-7.2664-8.0559-11.069 3.2659-5.3955 13.071-7.0928 19.401-0.5169 8.154-11.543-7.3106-22.052-19.12-11.37 1.8745-3.8762 6.2085-9.8832 4.9547-15.858-1.2539-5.9753-6.8-7.7627-8.9115-12.482-3.046 4.6515-7.337 6.6328-9.0123 12.544-1.6754 5.9114 1.8158 12.049 3.6904 15.538-14.059-10.165-28.118 0.5168-18.839 12.059 6.1859-6.0297 15.023-6.2063 18.558 0.0861 2.7995 4.6161 1.5199 8.7861-6.5891 11.069h23.924zm45.834 4.6898c-4.345-4.0711-5.1862-9.9744-2.9343-13.348 4.612-6.4762 13.266-4.536 18.902 1.4372 9.2737-10.664-6.2615-22.675-19.085-13.236 2.2549-3.668 5.3621-8.0024 4.7157-14.074-0.6465-6.0711-4.8522-9.6627-8.186-14.044-3.4985 4.3215-5.5826 4.1785-7.8441 9.8914-2.2615 5.7128 1.8007 13.376 3.3148 17.036-11.005-10.321-26.549-1.1019-19.684 11.316 4.9518-6.5831 15.732-6.0484 18.183 0.7401 1.718 5.1758-1.7822 9.1656-6.9859 11.727l19.604 2.5546zm29.101 4.7476c4.527-1.1269 7.1103-3.9521 6.5785-7.0787-0.7416-4.058-6.0703-12.638-15.327-8.4446-7.2863-16.091 9.4017-18.2 16.702-3.0649-2.788-5.2582-3.6802-11.48-2.0349-16.245 1.7146-4.5487 4.1793-8.2717 6.8744-12.112 2.6032 4.4726 6.4496 10.564 6.7818 15.342 0.3221 4.7779-0.3888 9.8438-3.8223 15.221 10.045-13.567 24.003-2.948 16.51 13.832-4.5204-7.2885-14.211-9.6208-17.016-3.0016-1.6315 4.1518 1.6114 6.0107 6.0261 10.457l-21.273-4.9051zm45.345 11.798c6.3148 0.3512 6.7209-2.7648 6.1067-6.0897-1.5182-8.5215-8.1604-14.509-15.089-7.34-7.8943-21.035 7.8817-21.033 13.02-7.3003-1.9954-5.7656-2.8285-9.0343-0.5415-15.055 2.287-6.0203 2.8748-7.1464 4.9507-11.352 2.0721 5.4974 4.8972 9.3065 6.0897 15.82 0.9662 6.4864 0.3228 8.2711-3.1779 14.186 9.3261-13.727 16.721 5.9197 11.053 16.396-6.2392-9.6404-11.66-9.5055-11.006-1.8519 0.4783 3.0018 1.4696 4.8097 6.0712 9.3563-5.4756-1.7814-13.81-4.0834-17.477-6.7694zm26.152 12.06c4.6122 0.3512 5.9604-0.0039 5.7816-3.3761-0.0077-4.3003-2.8771-12.398-7.4974-6.4355-3.5637-20.734 4.6556-20.128 8.4086-6.3957-0.5765-3.9565-1.1422-10.136-0.836-16.562 0.1289-2.4022 2.7604-5.3373 4.2767-9.5427 1.5133 5.4974 2.9161 5.9899 3.7871 12.503 0.7057 6.4864-0.2046 12.492-2.1009 18.106 7.0319-4.3798 5.1182 8.0303 2.7402 19.109 0.5081-11.751-4.2847-14.631-3.3664-4.264 0.2599 3.0188 1.6764 7.2218 4.5969 10.864-3.9993-5.0981-12.232-11.923-15.79-14.006z" fill="url(#linearGradient2485)"/>
  <path id="path648" d="m4.2889 153.16c0.6842-33.56 102.49-61.238 186.2-61.238 78.894 0 173.29 22.863 173.14 57.12l1.0946-45.247c0.087-30.669-119.58-53.11-176.5-53.11-51.809 0-183.52 22.893-183.58 58.164l-0.3595 44.31z" fill="url(#linearGradient2487)"/>
  <path id="path615" d="m364.98 103.16c-1.4713 33.535-103.89 58.817-187.59 56.853-78.873-1.8507-173.02-26.929-172.07-61.174l-1.5419 45.223c-0.8064 30.659 118 55.894 174.91 57.229 51.795 1.2153 184.01-18.581 184.89-53.842l1.3989-44.29z" fill="url(#linearGradient2489)"/>
  <path id="path675" d="m362.76 106.48c-2.0291 0.9501-4.8136-0.1753-4.885-0.9902 0.5921-2.0917 1.201-7.94 3.6981-11.561 2.0605-9.6119 3.0597-20.751-3.5052 2.2854 3.053-6.7143 2.7924-14.169 2.253-16.925-0.5449-3.5535-2.8255-8.3731-4.2394-11.563-1.4333 4.5982-5.2118 7.7679-4.9997 18.58 0.0168 2.9511 0.1039 4.5667 2.3425 10.099-6.801-3.0178-12.645 4.8504-9.5623 16.246 5.6697-13.145 14.41-11.506 9.3628-0.8461-0.4427 0.9554-2.7334 4.4876-5.5912 9.2881 8.8941-5.5059 15.285-13.853 15.126-14.614zm-29.617 22.676c-6.3167 0.3152-5.8937-4.514-5.2093-7.8251 0.9397-4.295 6.1037-13.195 12.991-5.9868 5.4339-17.167-4.789-18.929-11.701-6.9408 3.3075-5.7468 2.88-9.018 0.6274-15.051s-3.2701-5.4596-5.322-9.6767c-2.1034 5.4855-4.5141 7.5752-5.7437 14.082-1.0032 6.4808-0.37 8.2692 3.0969 14.204-9.2987-4.8253-20.17 6.6576-14.562 17.166 6.2941-9.6046 15.13-10.272 14.432-2.6224-0.4955 2.999-0.8992 5.7092-5.5267 10.23 5.4857-1.7503 13.236-4.9126 16.917-7.5777zm-40.018 15.111c-4.8169-2.0589-5.2769-4.2838-4.7272-7.4073 0.7647-4.0537 6.5565-10.469 15.789-6.2226 5.229-13.076-6.7467-16.96-17.096-5.7209 2.8179-5.2422 3.7431-11.032 2.1251-15.807-1.6887-4.5584-4.5634-7.4449-7.2365-11.301-2.6287 4.4577-7.3577 9.6692-7.7171 14.445-0.3494 4.776 1.6118 9.8532 5.0146 15.25-15.116-8.1098-24.456 4.5877-16.588 13.738 4.5619-7.2626 14.266-9.5396 17.033-2.9045 1.6078 4.161-1.3442 6.0031-5.7842 10.424l19.188-4.4942zm-66.921 11.704c4.3682-4.0462 5.8392-8.7351 3.6065-12.122-4.5749-6.5024-13.24-4.6116-18.91 1.3293-9.2127-10.717 6.3908-22.639 19.16-13.127-2.2339-3.6808-5.3163-8.0329-4.6353-14.1 0.6811-6.0673 4.9072-9.6348 8.266-13.997 3.4738 4.3413 5.5586 4.2102 7.7875 9.9359 2.2289 5.7256-1.877 13.366-3.4119 17.017 11.064-10.258 26.554-0.9505 19.619 11.428-4.9141-6.6112-15.697-6.138-18.187 0.6364-1.7475 5.1659 0.8288 8.5674 6.0179 11.158l-19.314 1.8414zm-34.394 3.2549c-6.2484-5.4626-7.3091-9.4189-5.267-13.21 3.2966-5.3768 13.111-7.0181 19.404-0.4062 8.2197-11.496-7.1847-22.093-19.055-11.479 1.8966-3.8654 6.2647-9.8476 5.0451-15.83-1.2198-5.9823-6.7557-7.8013-8.8402-12.532-3.0725 4.634-7.3747 6.5908-9.0837 12.492-1.7091 5.9017 1.747 12.059 3.6017 15.558-14.001-10.245-28.12 0.3564-18.907 11.952 6.2202-5.9943 15.058-6.1205 18.557 0.192 2.7732 4.632 1.1683 8.7929-4.8551 13.152l19.401 0.1107zm-54.256-2.253c-4.3217-4.0958-5.7391-8.8012-3.468-12.162 4.6489-6.4498 13.292-4.4603 18.894 1.545 9.3344-10.611-6.1321-22.71-19.01-13.344 2.2758-3.6551 5.4077-7.9717 4.7959-14.046-0.6119-6.0747-4.797-9.6903-8.1058-14.091-3.523 4.3015-5.6063 4.1466-7.9003 9.8465-2.2941 5.6998 1.7243 13.386 3.2175 17.055-10.946-10.384-26.542-1.2533-19.748 11.203 4.9893-6.5548 15.766-5.9586 18.178 0.8438 1.6884 5.1855-0.9265 8.5573-6.1448 11.089l19.291 2.0616zm-66.185-11.559c4.8401-2.0038 5.3254-4.2232 4.8115-7.3528-0.7185-4.0622-6.4367-10.543-15.717-6.4024-5.0794-13.135 6.9397-16.881 17.16-5.5255-2.7579-5.274-3.6171-11.074-1.9446-15.83 1.7405-4.5389 4.6479-7.3924 7.3649-11.218 2.5776 4.4874 7.2469 9.7525 7.5518 14.532 0.2949 4.7797-1.7241 9.8341-5.1882 15.192 15.207-7.9368 24.402 4.8664 16.431 13.926-4.4787-7.3142-14.156-9.7017-16.998-3.0986-1.6551 4.1424 1.2756 6.0181 5.6649 10.49l-19.136-4.7129zm-38.942-14.958c6.3127 0.3872 5.9449-4.4465 5.2983-7.7652-0.8906-4.3055-5.9528-13.264-12.922-6.1346-5.2377-17.228 5.0046-18.873 11.78-6.8068-3.2417-5.7842-2.7769-9.0503-0.4556-15.058 2.3213-6.0071 3.3322-5.4219 5.432-9.6154 2.0407 5.5092 4.4274 7.6263 5.5827 14.146 0.9292 6.4918 0.2756 8.2728-3.2587 14.168 9.3531-4.719 20.093 6.8872 14.365 17.331-6.1841-9.6759-15.012-10.444-14.401-2.7869 0.4612 3.0045 0.834 5.719 5.4096 10.292-5.4654-1.8127-13.179-5.0632-16.83-7.7701zm-27.993-23.242c2.311 2.4825 4.0469 1.6199 4.1327-0.0987 0.0019-2.1739-0.1784-12.772-4.474-11.005-1.9507-9.6348-2.1784-28.018 4.3903 1.1243-2.0699-7.0451-2.3428-11.786-1.772-14.536 0.5855-3.5471 2.9174-7.7374 4.3676-10.911 1.3807 4.6141 5.1263 7.2237 4.7908 18.033-0.0504 2.9507-0.1559 4.5653-2.4574 10.072 7.1932-12.888 12.589 4.9944 9.3762 16.354-5.5193-13.209-14.277-11.67-9.3525-0.9529 0.4318 0.9604 2.6821 4.5185 5.4849 9.3512-8.8307-5.6069-14.654-16.673-14.487-17.432z" fill="url(#linearGradient2491)"/>
  <path id="path690" d="m3.742 146.38c-1.6777 0-2.0294 5.2665 0.2344 7.3368 26.321 36.123 126.39 48.914 179.46 48.261 79.326-0.9732 169.87-23.45 179.86-50.38 1.1891-3.7566 1.1892-6.8937 0-6.6727-11.486 26.644-83.08 46.927-180.13 50.836-66.375 2.6908-152.99-15.363-179.42-49.381z" fill="url(#linearGradient2493)"/>
  <path id="path692" d="m364.23 104.99c1.6776-0.013 2.07 3.3757-0.1777 7.3384-22.29 37.575-126.01 51.766-179.08 51.523-79.332-0.3594-143.27-11.717-179.8-48.99-2.3127-2.4129-3.8923-6.6428-0.0517-6.6725 38.019 36.351 100.54 51.15 180.07 49.444 66.414-1.4189 156.62-16.546 179.03-52.643z" fill="url(#linearGradient2495)"/>
  <g id="g731" transform="matrix(.64079 -.76772 .76772 .64079 -481.86 166.63)">
   <path id="path722" d="m469.02 568.19c-2.0601 0-3.7186 1.6585-3.7186 3.7187v9.0314c0 2.0601 1.6585 3.7187 3.7186 3.7187h10.094c2.0601 0 3.7187-1.6586 3.7187-3.7187v-9.0314c0-2.0602-1.6586-3.7187-3.7187-3.7187h-10.094zm-0.8906-1.4532c-2.4237 0-4.375 1.9513-4.375 4.375v10.625c0 2.4237 1.9513 4.3749 4.375 4.3749h11.875c2.4237 0 4.3749-1.9512 4.3749-4.3749v-10.625c0-2.4237-1.9512-4.375-4.3749-4.375h-11.875z" fill="url(#linearGradient2497)"/>
   <g id="g728" transform="translate(-40 .62497)">
    <rect id="rect727" x="505.3" y="567.56" width="17.531" height="16.469" ry="3.7187" fill="#007d00"/>
    <rect id="rect719" x="510.3" y="569.44" width="11.281" height="12.719" ry="2.8719" fill="url(#linearGradient2499)"/>
   </g>
  </g>
  <g id="g736" transform="matrix(.69873 -.71538 .71538 .69873 -640.42 110.3)">
   <path id="path737" d="m469.02 568.19c-2.0601 0-3.7186 1.6585-3.7186 3.7187v9.0314c0 2.0601 1.6585 3.7187 3.7186 3.7187h10.094c2.0601 0 3.7187-1.6586 3.7187-3.7187v-9.0314c0-2.0602-1.6586-3.7187-3.7187-3.7187h-10.094zm-0.8906-1.4532c-2.4237 0-4.375 1.9513-4.375 4.375v10.625c0 2.4237 1.9513 4.3749 4.375 4.3749h11.875c2.4237 0 4.3749-1.9512 4.3749-4.3749v-10.625c0-2.4237-1.9512-4.375-4.3749-4.375h-11.875z" fill="url(#linearGradient2497)"/>
   <g id="g738" transform="translate(-40 .62497)">
    <rect id="rect739" x="505.3" y="567.56" width="17.531" height="16.469" ry="3.7187" fill="#007d00"/>
    <rect id="rect740" x="510.3" y="569.44" width="11.281" height="12.719" ry="2.8719" fill="url(#linearGradient2499)"/>
   </g>
  </g>
  <g id="g741" transform="translate(-142.72 -367.31)">
   <path id="path698" d="m318.8 538.38c-5.1505 0-9.2969 4.1465-9.2969 9.2969 0 5.1505 4.1464 9.2969 9.2969 9.2969h11.156c5.1505 0 9.2969-4.1464 9.2969-9.2969 0-5.1504-4.1464-9.2969-9.2969-9.2969h-11.156zm-0.9844-1.6405c-6.0594 0-10.938 4.8781-10.938 10.938s4.8781 10.938 10.938 10.938h13.125c6.0593 0 10.938-4.8781 10.938-10.938s-4.8782-10.938-10.938-10.938h-13.125z" fill="url(#linearGradient2505)"/>
   <g id="g705" transform="translate(-24.375 -50.625)">
    <rect id="rect695" x="334.5" y="589" width="29.75" height="18.594" ry="9.2969" fill="#e50000"/>
    <rect id="rect700" x="340.75" y="590.88" width="20.375" height="7.3438" ry="3.6719" fill="url(#linearGradient2507)"/>
   </g>
  </g>
  <g id="g756" transform="matrix(.75836 .36206 -.41372 .94054 19.435 -478.76)">
   <path id="path757" d="m318.8 538.38c-5.1505 0-9.2969 4.1465-9.2969 9.2969 0 5.1505 4.1464 9.2969 9.2969 9.2969h11.156c5.1505 0 9.2969-4.1464 9.2969-9.2969 0-5.1504-4.1464-9.2969-9.2969-9.2969h-11.156zm-0.9844-1.6405c-6.0594 0-10.938 4.8781-10.938 10.938s4.8781 10.938 10.938 10.938h13.125c6.0593 0 10.938-4.8781 10.938-10.938s-4.8782-10.938-10.938-10.938h-13.125z" fill="url(#linearGradient2505)"/>
   <g id="g758" transform="translate(-24.375 -50.625)">
    <rect id="rect759" x="334.5" y="589" width="29.75" height="18.594" ry="9.2969" fill="#e50000"/>
    <rect id="rect760" x="340.75" y="590.88" width="20.375" height="7.3438" ry="3.6719" fill="url(#linearGradient2507)"/>
   </g>
  </g>
  <g id="g772" transform="translate(-132.75 -471.87)">
   <path id="path762" transform="matrix(-.75824 .36231 .41403 .94041 478.93 -5.6408)" d="m318.8 538.38c-5.1505 0-9.2969 4.1465-9.2969 9.2969 0 5.1505 4.1464 9.2969 9.2969 9.2969h11.156c5.1505 0 9.2969-4.1464 9.2969-9.2969 0-5.1504-4.1464-9.2969-9.2969-9.2969h-11.156zm-0.9844-1.6405c-6.0594 0-10.938 4.8781-10.938 10.938s4.8781 10.938 10.938 10.938h13.125c6.0593 0 10.938-4.8781 10.938-10.938s-4.8782-10.938-10.938-10.938h-13.125z" fill="url(#linearGradient2505)"/>
   <rect id="rect764" transform="matrix(-.75824 .36231 .41403 .94041 476.45 -62.08)" x="334.5" y="589" width="29.75" height="18.594" ry="9.2969" fill="#e50000"/>
   <rect id="rect765" transform="matrix(-.89248 .45109 .38426 .92323 0 0)" x="-192.89" y="763.42" width="14.627" height="6.6859" ry="3.343" fill="url(#linearGradient2515)"/>
  </g>
  <g id="g793" transform="translate(-139.62 -366.87)">
   <path id="path777" d="m504.07 506.73c0.322-1.1505-1.9438 1.4819-2.5773 1.1932l-2.3676-1.2337c-2.07-0.7306-2.2424-3.4323-1.7328-5.1706l4.8252-12.725c0.8409-1.8488 3.2516-0.2584 2.9963-0.958-0.7874-2.2366-2.7089-3.5709-3.9064-1.4542l-6.1537 15.044c-0.7555 2.1167-0.9695 5.4262 1.2576 6.4026l4.7325 1.9937c1.2328 0.5346 2.3745-0.764 2.9262-3.0926z" fill="url(#linearGradient2517)"/>
   <path id="path789" d="m497.21 501.76c-0.7227 1.9292 0.1706 4.2985 2.0998 5.0212l1.7387 0.9806c0.4448 0.3321 1.3297 0.2983 2.365-0.5372 2.1874-1.875 4.1796-5.5885 4.9566-8.3019 0.4163-1.4117-0.8989-10.344-3.77-11.293-0.384-0.1304-1.9547-0.22-2.4429 1.0061l-4.9472 13.124z" fill="#007d00"/>
   <path id="path791" transform="matrix(.94997 .31234 -.31234 .94997 176.36 -134.23)" d="m512.74 497.98c-0.3107 1.1332-4.0287 5.7704-6.3564 6.9333-1.6852 0.8419-2.1431-1.8618-2.005-7.2769 0.0317-1.2397-0.3961-8.52 2.0395-8.5569 2.4588-0.0373 6.7579 7.5227 6.3219 8.9005z" fill="url(#linearGradient2519)"/>
  </g>
  <g id="g797" transform="matrix(-1 0 0 1 508.45 -366.25)">
   <path id="path798" d="m504.07 506.73c0.322-1.1505-1.9438 1.4819-2.5773 1.1932l-2.3676-1.2337c-2.07-0.7306-2.2424-3.4323-1.7328-5.1706l4.8252-12.725c0.8409-1.8488 3.2516-0.2584 2.9963-0.958-0.7874-2.2366-2.7089-3.5709-3.9064-1.4542l-6.1537 15.044c-0.7555 2.1167-0.9695 5.4262 1.2576 6.4026l4.7325 1.9937c1.2328 0.5346 2.3745-0.764 2.9262-3.0926z" fill="url(#linearGradient2517)"/>
   <path id="path799" d="m497.21 501.76c-0.7227 1.9292 0.1706 4.2985 2.0998 5.0212l1.7387 0.9806c0.4448 0.3321 1.3297 0.2983 2.365-0.5372 2.1874-1.875 4.1796-5.5885 4.9566-8.3019 0.4163-1.4117-0.8989-10.344-3.77-11.293-0.384-0.1304-1.9547-0.22-2.4429 1.0061l-4.9472 13.124z" fill="#007d00"/>
   <path id="path800" transform="matrix(.94997 .31234 -.31234 .94997 176.36 -134.23)" d="m512.74 497.98c-0.3107 1.1332-4.0287 5.7704-6.3564 6.9333-1.6852 0.8419-2.1431-1.8618-2.005-7.2769 0.0317-1.2397-0.3961-8.52 2.0395-8.5569 2.4588-0.0373 6.7579 7.5227 6.3219 8.9005z" fill="url(#linearGradient2519)"/>
  </g>
 </g>
</svg>
