<?xml version="1.0" encoding="UTF-8"?>
<!-- Created with Inkscape (http://www.inkscape.org/) -->
<svg id="svg2" width="288.98" height="276.66" version="1.1" xmlns="http://www.w3.org/2000/svg" xmlns:cc="http://creativecommons.org/ns#" xmlns:dc="http://purl.org/dc/elements/1.1/" xmlns:rdf="http://www.w3.org/1999/02/22-rdf-syntax-ns#">
 <defs id="defs4">
  <filter id="filter4576" color-interpolation-filters="sRGB">
   <feGaussianBlur id="feGaussianBlur4578" stdDeviation="1.2878736"/>
  </filter>
 </defs>
 <metadata id="metadata7">
  <rdf:RDF>
   <cc:Work rdf:about="">
    <dc:format>image/svg+xml</dc:format>
    <dc:type rdf:resource="http://purl.org/dc/dcmitype/StillImage"/>
    <dc:title/>
   </cc:Work>
  </rdf:RDF>
 </metadata>
 <g id="layer1" transform="translate(-165.32 -199.86)">
  <g id="g2884">
   <path id="path4580" transform="matrix(-1.017 0 0 1.0088 851.05 -77.079)" d="m502.68 544.28c-3.4957-2.2133-3.9362-4.7023-1.6185-9.1463 0.82161-1.5754 1.4938-3.1935 1.4938-3.5959s-3.355-1.7064-7.4556-2.8979c-9.4608-2.749-36.663-14.031-46.762-19.394-4.2447-2.2542-10.043-6.1328-12.885-8.6191l-5.1676-4.5205 0.58085-9.0542c0.31946-4.9798 1.3206-13.251 2.2248-18.381 0.90414-5.1299 1.3855-9.5856 1.0697-9.9014s-5.7 1.0689-11.965 3.0772c-6.2648 2.0082-12.76 3.6514-14.434 3.6514-1.6736 0-3.7547 0.27314-4.6247 0.60699-2.1956 0.84251-1.9776 5.0744 0.41821 8.1201 1.1 1.3984 2 3.8392 2 5.4239 0 2.3187-0.69655 3.2135-3.5674 4.5825-3.2248 1.5378-3.825 1.5552-6.25 0.18126-3.2627-1.8486-3.3379-4.7975-0.33643-13.185 4.0681-11.369 6.34-14.409 15.154-20.278 3.575-2.3808 10.477-7.2603 15.338-10.843 11.638-8.5783 16.764-10.989 24.019-11.294 3.2215-0.13561 6.4222-0.71547 7.1128-1.2886 0.69056-0.57312 1.5513-3.9284 1.9127-7.4562 0.90696-8.8524 7.1932-23.305 13.749-31.61 4.5842-5.8073 6.1319-8.8192 9.94-19.344 4.4055-12.175 21.378-38.746 31.924-49.976 10.66-11.352 32.23-25.799 48.845-32.717 18.403-7.661 43.163-10.782 59.63-7.5151 14.109 2.7988 30.501 12.438 38.12 22.416 4.1948 5.4937 9.008 15.335 9.868 20.177 0.34193 1.925 0.2099 5.525-0.29338 8-2.0757 10.208-9.5359 36.91-11.856 42.437-2.4236 5.7732-2.4485 6.0733-0.90101 10.865 0.8753 2.7102 1.5915 5.7153 1.5915 6.678 0 0.96266 0.9 2.8945 2 4.2929s2 3.1894 2 3.9799c0 3.7068-7.0783 6.2689-9.8 3.5473-1.6625-1.6625-1.5018-5.3046 0.3-6.8 1.7428-1.4464 2.0404-8.548 0.40067-9.5614-0.60734-0.37536-3.6282 1.7691-6.75 4.7917-8.5826 8.3098-14.88 12.434-16.957 11.105-3.9559-2.5318 0.2543-25.849 5.9648-33.035 1.5626-1.9663 2.8411-4.2326 2.8411-5.0364 0-0.80375 0.73874-3.0181 1.6416-4.9208 2.1289-4.4863 0.91737-5.782-4.5438-4.8593-4.2614 0.71995-4.8368 1.3148-12.109 12.517-1.6068 2.475-4.316 6.1266-6.0204 8.1147-3.8388 4.4775-9.6974 24.819-11.055 38.385-1.5433 15.417-3.0008 47.812-2.1876 48.622 0.42608 0.42413 7.1744 3.9705 14.996 7.8808 7.8218 3.9103 15.033 8.1407 16.024 9.4009s2.4162 5.7462 3.1665 9.9689c1.1904 6.6999 1.7288 7.893 4.2274 9.369 3.4957 2.065 4.2127 4.026 4.2992 11.759 0.0369 3.3 0.62834 6.9829 1.3143 8.1843 2.8481 4.9879-0.27268 9.9301-5.9951 9.4941-5.1563-0.3929-6.0785-1.8345-5.3896-8.4252 0.33365-3.1922 0.87204-6.8614 1.1964-8.1538 0.4886-1.9468 0.0752-2.5293-2.4098-3.3956-1.6498-0.57512-3.4776-1.9388-4.0618-3.0303-0.59045-1.1032-4.1648-3.2019-8.0484-4.7256-5.7014-2.2369-7.2634-2.511-8.4932-1.4904-1.5082 1.2517-9.0183 14.685-15.206 27.199-4.0397 8.1697-6.3982 10.1-15.066 12.33-8.8252 2.2709-38.885 3.5404-43.555 1.8394-1.7729-0.64566-5.3667-1.2082-7.9862-1.25-2.6195-0.0418-8.0104-0.97608-11.98-2.0761s-7.5294-2-7.911-2c-0.38155 0-0.6156 2.0566-0.5201 4.5702 0.13767 3.6235-0.24065 4.8146-1.8264 5.75-3.9949 2.3566-6.2103 2.4658-9.3754 0.4618zm143.03-32.218c1.117-2.4515 0.6102-5.5638-0.90591-5.5638-0.96781 0-4.247 5.3309-4.247 6.9043 0 2.1442 4.0446 1.092 5.1529-1.3405z" fill="#333" filter="url(#filter4576)"/>
   <g id="g4582">
    <path id="path4038" d="m341.58 467.79c3.2599-2.4842 3.3481-3.3328 0.85485-8.2232-1.0423-2.0445-1.5559-3.9269-1.1414-4.1831 0.41458-0.25622 4.4663-1.6386 9.0038-3.072 20.122-6.3565 50.271-20.615 58.412-27.626l4.8793-4.2015-0.65707-8.704c-0.36139-4.7872-1.3189-12.465-2.1279-17.062-2.1489-12.211-2.1757-12.079 2.2764-11.253 2.0625 0.38267 7.4617 1.9781 11.998 3.5453 4.5365 1.5672 10.059 2.8496 12.271 2.8496 3.3211 0 4.2221 0.43633 5.1624 2.5 0.6265 1.375 1.5168 2.5 1.9786 2.5 0.46172 0 0.83949 0.45 0.83949 1s-0.59656 1-1.3257 1c-2.0106 0-5.6743 4.353-5.6743 6.7419 0 2.3533 4.3431 6.2581 6.9606 6.2581 0.92995 0 2.7231-1.0988 3.9848-2.4419l2.294-2.4419-2.2234-5.8081c-4.1824-10.925-7.9126-18.137-10.214-19.747-1.2658-0.88556-4.4556-3.0616-7.0884-4.8356-2.6328-1.774-9.7297-6.7598-15.771-11.08-11.446-8.1847-18.274-11.133-23.557-10.172-5.0763 0.92297-7.2514-1.6995-8.2722-9.9735-0.99159-8.0373-8.3706-25.039-13.02-30-3.5647-3.8031-6.1905-8.8082-10.207-19.456-1.7544-4.6508-4.8089-11.107-6.7878-14.347-8.7716-14.361-10.935-17.715-16.421-25.454-9.8332-13.872-26.007-27.061-46.677-38.063-17.899-9.5271-32.964-13.34-53.5-13.54-20.322-0.19828-30.069 2.7551-44.716 13.549-11.176 8.2367-20.301 23.344-20.119 33.311 0.10872 5.9649 9.3713 40.699 12.927 48.476 1.8415 4.0274 2.2595 6.0113 1.5802 7.5-2.093 4.587-3.1726 7.7053-3.1726 9.1634 0 0.84987-0.9 2.6894-2 4.0878s-2 2.9319-2 3.4077c0 1.5982 3.981 4.8651 5.9286 4.8651 2.1908 0 5.0714-2.5097 5.0714-4.4184 0-0.70156-0.90614-2.3204-2.0136-3.5973-1.5594-1.798-1.8704-3.1296-1.3787-5.903 1.0162-5.7316 1.9808-5.7553 7.0008-0.17185 2.5825 2.8723 7.3263 7.009 10.542 9.1926 4.8475 3.2919 6.1884 3.7872 7.8481 2.8989 2.7227-1.4572 2.5912-5.3584-0.61026-18.103-1.7303-6.888-3.5868-11.73-5.5-14.345-1.5884-2.1708-2.888-4.5513-2.888-5.2898s-0.88072-3.0692-1.9572-5.1792c-2.2405-4.3917-1.9136-5.0897 2.3738-5.0692 4.8367 0.0231 7.7843 2.09 11.574 8.1155 1.9303 3.0694 5.5492 8.1094 8.0419 11.2 3.9992 4.9583 4.93 7.1216 7.9146 18.394 1.8603 7.0264 3.7287 16.375 4.152 20.775 2.2719 23.616 2.9941 34.795 2.7131 42l-0.31196 8-9 4.3124c-14.068 6.7406-22.166 11.943-23.341 14.993-0.57097 1.4821-1.3331 5.1697-1.6936 8.1947-0.56056 4.7035-1.221 6.0263-4.5603 9.1345-4.5525 4.2373-5.0814 7.3534-1.4048 8.2762 1.375 0.34511 2.5 0.98288 2.5 1.4173s0.66917 1.6633 1.487 2.731c1.4322 1.8696 1.4783 1.849 1.25-0.55887-0.19589-2.066 0.24979-2.5558 2.567-2.8216 1.7641-0.20235 3.1949-1.1794 3.8578-2.6343 1.0092-2.2148 12.228-7.5483 15.863-7.5412 2.0369 4e-3 7.5964 9.3454 16.541 27.793 2.4082 4.967 4.5464 7.9096 6.698 9.2181 5.1982 3.1612 15.259 4.8324 33.236 5.5207 13.778 0.52753 17.773 0.36898 21.077-0.83643 2.2421-0.81805 5.1702-1.2783 6.5068-1.0228s5.9064-0.46698 10.155-1.6055c10.676-2.8611 10.607-2.8765 10.032 2.2192-0.54362 4.8229 0.60098 6.3744 5.3244 7.217 2.0086 0.35832 3.753-0.12831 5.6547-1.5775zm-137-18.009c1.7565-1.023 2.2321-4.5224 1.1583-8.5224-0.39913-1.4868-1.3469-2.0906-3.2364-2.0619-1.4696 0.0224-3.3205-0.15651-4.1132-0.39747-0.87803-0.2669-2.2238 0.98045-3.4436 3.1919-1.9097 3.462-1.9229 3.7513-0.2857 6.25 1.8438 2.8139 6.494 3.5357 9.9206 1.5399z" fill="#6ea48c"/>
    <path id="path4036" d="m340.58 466.78c1.7834-1.0387 2.312-4.5364 0.98469-6.5153-0.40408-0.60245-2.4216-1.3616-4.4833-1.6869-4.0279-0.6356-5.7514 0.91711-5.7514 5.1813 0 3.4534 5.451 5.2336 9.25 3.0208zm-38.25-5.1241c1.375-0.59257 4.975-1.1748 8-1.2938 7.305-0.28738 37.724-8.2478 51.5-13.477 18.221-6.9168 40.359-18.179 45.874-23.336l4.8736-4.5585-0.71868-7.815c-0.39528-4.2983-1.5232-12.315-2.5064-17.815-0.98326-5.5-1.559-10.386-1.2793-10.858 0.74375-1.2546 7.1126-0.0127 17.312 3.3759 9.9713 3.3128 15.686 3.8207 16.587 1.4741 0.79477-2.0712-2.1885-6.3409-5.8258-8.338-1.6571-0.90984-8.031-5.3465-14.164-9.8593-14.475-10.651-19.857-13.33-28.737-14.304-3.9068-0.42886-7.5239-1.2004-8.0381-1.7146-0.51416-0.51417-1.3206-4.2741-1.7921-8.3554-0.64006-5.5406-2.0401-9.954-5.5264-17.421-2.5681-5.5-5.7148-11.125-6.9927-12.5-3.8496-4.142-7.0071-10.017-10.481-19.5-3.7653-10.279-11.574-23.58-25.03-42.635-8.4016-11.897-29.57-28.232-48.378-37.332-28.867-13.967-63.354-15.597-84.176-3.9796-21.032 11.735-32.149 30.531-27.474 46.453 0.56413 1.9214 2.6035 9.5684 4.5319 16.993 3.5607 13.71 7.1305 23.675 10.747 30 4.3545 7.6161 17.968 19.475 21.569 18.789 2.5562-0.48682 2.4717-4.0054-0.37378-15.557-1.7582-7.1374-3.6247-12.128-5.5718-14.896-1.6104-2.2899-2.9279-4.7716-2.9279-5.5148 0-0.74323-0.92842-3.0836-2.0632-5.2007-3.0499-5.6905-2.0979-6.9649 4.7767-6.3948 6.185 0.51291 7.682 1.7862 13.286 11.301 1.375 2.3343 4.4513 6.6692 6.8363 9.6331 3.8091 4.7338 4.7442 6.9664 7.6914 18.364 4.05 15.663 5.9723 33.345 5.9723 54.936v15.96l-2.5 1.2498c-1.375 0.68737-6.325 3.0956-11 5.3517-13.754 6.6376-17.808 9.6051-19.125 14-1.3757 4.5918-0.65988 6.9779 2.0934 6.9779 1.139 0 2.0314 0.65894 2.0314 1.5 0 0.825-0.38812 1.5-0.8625 1.5-0.47437 0-2.4892 1.2375-4.4773 2.75-1.9882 1.5125-4.6289 3.4788-5.8683 4.3694-1.901 1.3662-2.0502 1.8644-0.95358 3.1857 0.71495 0.86145 2.6599 1.865 4.3222 2.2301 2.4212 0.53179 3.5532 0.15513 5.692-1.8939 1.4683-1.4067 5.9995-3.9308 10.069-5.6091 7.027-2.8977 7.495-2.965 9.2945-1.3365 1.7345 1.5697 7.0265 10.942 15.277 27.056 4.3853 8.5653 5.6752 9.7498 12.805 11.759 9.6184 2.7103 41.067 4.2825 45.702 2.2849zm-77.5-52.796c0.33992-0.55 1.743-1 3.118-1 1.412 0 2.231 0.43519 1.882 1-0.33992 0.55-1.743 1-3.118 1-1.412 0-2.231-0.43519-1.882-1zm-22.353 40.33c2.0847-0.55371 3.1181-4.3056 1.6674-6.0536-0.90565-1.0912-1.428-1.0318-2.9373 0.33408-1.695 1.5339-1.8839 1.5359-2.4636 0.0252-0.91941-2.3959-2.285-1.9976-3.0065 0.87687-1.0595 4.2213 1.6617 6.1663 6.74 4.8174zm245.1-41.411c0.9625-0.5606 1.75-1.9055 1.75-2.9886 0-1.6139-0.46234-1.8533-2.5612-1.3265-2.0607 0.5172-2.6698 0.22776-3.1166-1.481-0.71206-2.7229-1.9432-2.7004-3.4219 0.0627-1.0225 1.9106-0.80616 2.4778 1.7148 4.495 3.2761 2.6215 3.2647 2.619 5.635 1.2384zm-258.92-82.587c1.3445-1.3445 0.61379-4.8853-1.248-6.048-1.9472-1.216-2.5873-0.87221-4.4388 2.384-1.283 2.2564 3.8118 5.539 5.6868 3.664z" fill="#828f3a"/>
    <path id="path4034" d="m341.28 465.41c0.799-0.96275 0.88637-2.0106 0.26082-3.1284-0.6392-1.1422-1.1641-1.3192-1.638-0.55236-1.1338 1.8346-3.3037 1.2906-3.8967-0.97694-0.30281-1.1579-1.1428-1.9107-1.8666-1.6729-1.8035 0.59265-2.2963 5.8583-0.64615 6.9044 2.1034 1.3334 6.4708 1.0116 7.7866-0.57382zm-38.865-4.168c1.8745-0.67773 5.3156-1.2665 7.647-1.3083 2.3314-0.0418 7.601-0.99849 11.71-2.1259s8.2769-2.2146 9.2612-2.416c15.202-3.1112 35.89-10.506 54.79-19.585 13.676-6.5693 19.5-10.43 19.5-12.927 0-1.3433 0.65953-2.022 1.9648-2.022 3.3202 0 4.3636-3.5653 3.6731-12.55-0.34592-4.5003-1.3335-11.896-2.1946-16.436s-1.3135-8.9105-1.0053-9.7136c0.67437-1.7574 3.1237-1.3318 16.165 2.8088 19.628 6.2315 23.915 1.2951 6.9581-8.0115-4.103-2.2518-7.8203-4.7356-8.2607-5.5194-2.4725-4.4002-24.245-15.593-29.801-15.32-6.2507 0.3067-7.5976-0.24784-9.051-3.7263-0.79693-1.9073-1.449-5.4733-1.449-7.9244 0-7.1489-6.9288-23.076-13.253-30.465-3.1893-3.726-5.9603-9.3088-11.148-22.461-3.1922-8.0925-5.2074-11.585-15.972-27.682-13.25-19.814-25.395-30.893-48.115-43.892-10.402-5.9514-16.334-8.3312-29.512-11.838-8.2542-2.1969-11.729-2.5443-26.5-2.649-15.117-0.10721-17.757 0.12797-23.835 2.1232-12.635 4.1475-25.459 13.201-31.487 22.228-4.1399 6.1996-8.178 15.593-8.178 19.023 0 1.0557 1.6161 8.1263 3.5914 15.712 1.9752 7.5862 4.2439 16.493 5.0415 19.793 1.9885 8.2274 8.3948 21.135 13.571 27.342 4.6598 5.5883 14.344 12.556 16.016 11.522 2.7426-1.695-2.2423-22.461-7.3099-30.452-1.6001-2.5232-2.9094-5.4746-2.9094-6.5589s-0.66069-2.8448-1.4682-3.9124c-2.3596-3.1196-1.9089-6.1297 1.0281-6.8668 6.5222-1.637 13.613 2.7889 16.832 10.505 0.8211 1.9688 2.2624 4.2182 3.203 4.9988s3.446 3.769 5.5676 6.641c3.042 4.1178 4.5108 7.7122 6.947 17.001 1.6992 6.4786 3.4732 15.829 3.9423 20.779 1.3514 14.261 3.1344 48.573 2.5969 49.974-0.26872 0.70027-6.487 4.2255-13.818 7.8338-16.604 8.1722-18.779 9.8928-19.524 15.448-0.54133 4.036-0.44004 4.2518 2.0624 4.3944 1.4474 0.0825 3.0674 0.195 3.5999 0.25 0.53254 0.055 2.5139-1.3579 4.403-3.1398 2.3386-2.2058 5.1412-3.6007 8.7818-4.3707 2.9408-0.62203 9.4517-2.8766 14.468-5.0102 5.0168-2.1336 10.642-3.873 12.5-3.8652 3.1702 0.0132 2.9161 0.26477-4.1215 4.08-7.0955 3.8466-13.054 7.3776-21 12.445-2.0662 1.3177-5.958 2.499-9.5 2.8837-4.5156 0.49043-7.6699 1.6604-12.75 4.729-3.7125 2.2426-6.75 4.4599-6.75 4.9275 0 1.1379 3.4362 2.9204 5.6295 2.9204 0.96856 0 2.9106-1.0854 4.3157-2.412 2.649-2.501 14.116-7.588 17.105-7.588 0.93783 0 2.2327 0.6357 2.8776 1.4127 1.6418 1.9782 11.382 19.658 15.572 28.264 3.33 6.8404 3.7472 7.2717 8.901 9.2 9.8657 3.6912 41.818 5.9929 48.692 3.5076zm-84.092-55.95c0-1.3018 2.1441-4.4343 3.0352-4.4343 1.3502 0 1.2041 2.3607-0.23518 3.8-1.2547 1.2547-2.8 1.6048-2.8 0.63426zm-15.022 42.092c0.71879-0.8661 1.1066-1.775 0.86189-2.0197-0.92487-0.92488-7.9006 0.81228-7.5506 1.8803 0.58079 1.7721 5.2529 1.8695 6.6887 0.13943zm244.36-40.193c1.4336-1.4336 0.53382-2.3333-2.3333-2.3333-2.1569 0-3-0.47778-3-1.7 0-1.2897-0.27997-1.42-1.1601-0.53992s-0.57844 1.6444 1.25 3.1667c2.5214 2.0993 4.1214 2.5285 5.2434 1.4065zm-259-83c1.3405-1.3405 0.61662-3.3333-1.2109-3.3333-2.0866 0-4.4742 2.3149-3.4471 3.342 0.85371 0.85371 3.8011 0.84822 4.658-9e-3z" fill="#137246"/>
    <path id="path4032" d="m340.53 465.8c0.95936-0.55931 1.4562-1.6533 1.1332-2.4951-0.44032-1.1475-0.8967-1.2323-1.9457-0.36168-1.8145 1.5059-4.5678 0.37688-4.1929-1.7192 0.51176-2.8606-2.0916-2.6594-2.8137 0.21742-1.0711 4.2676 3.5534 6.8454 7.819 4.3586zm-36.208-5.3344c1.925-0.74077 4.9-1.132 6.6111-0.86951 1.8835 0.28899 6.0929-0.55185 10.668-2.1309 4.1563-1.4346 8.2476-2.6083 9.0919-2.6083 2.721 0 6.6291-2.2759 6.6291-3.8605 0-1.1974 0.26667-1.2728 1.2-0.33948 0.66 0.66 1.9694 1.2 2.9098 1.2 3.1239 0 19.476-5.7865 31.011-10.974 20.002-8.9952 20.42-9.2438 20.042-11.923-0.34107-2.4177 3.8967-6.9889 6.5519-7.0675 0.66815-0.0198 1.7491-1.0485 2.4021-2.286 1.8539-3.5133 5.7565-6.7358 7.3956-6.1068 2.0157 0.7735 2.01-8.1613-0.0125-19.643-0.8235-4.675-1.4979-9.5737-1.4986-10.886-1e-3 -2.256 0.24602-2.352 4.5428-1.7631 2.4993 0.34257 7.8102 1.7501 11.802 3.1279 8.7848 3.0321 16.125 4.1862 17.055 2.6815 0.84518-1.3675-4.0753-3.9323-7.5202-3.9199-1.4406 5e-3 -5.4906-0.94168-9-2.1042-3.5093-1.1625-14.145-3.3956-23.635-4.9625-9.4898-1.5669-17.522-3.1171-17.85-3.4449-1.6099-1.6099 1.1422-2.9271 5.0086-2.3972 5.0551 0.69289 6.3879-0.0426 7.1709-3.9574 0.50554-2.5277 0.16306-3.3159-2.0791-4.7851-1.678-1.0995-3.592-1.5311-5.1055-1.1512-2.9323 0.73595-6.3905 3.5568-6.3905 5.2127 0 1.8491-2.9152 4.3492-5.0714 4.3492-2.8095 0-2.3542-1.2505 1.1897-3.2678 2.2667-1.2902 2.9675-2.2962 2.5941-3.7239-0.28135-1.0759-0.0697-3.8804 0.47022-6.2322 1.3015-5.6686-0.4902-13.902-4.2866-19.698-2.0991-3.2047-2.9074-5.6815-2.9373-9-0.0426-4.7336-1.9357-9.0991-7.5338-17.373-1.6913-2.4998-5.2439-9.8686-7.8947-16.375s-6.1366-13.531-7.7462-15.61c-1.6096-2.0791-4.4164-6.4159-6.2373-9.6374-4.4132-7.8078-11.704-17.036-19.083-24.154-6.5102-6.2795-14.83-12.929-16.176-12.929-0.45804 0-3.2243-1.575-6.1473-3.5-2.923-1.925-5.7393-3.5-6.2586-3.5-0.51925 0-1.2111-0.69588-1.5375-1.5464-0.77943-2.0312-8.9096-6.1093-13.899-6.9718-2.1696-0.37507-6.6116-2.0378-9.8711-3.695-5.7297-2.913-7.7547-3.3515-19.574-4.2386-3.025-0.22704-7.975-0.73689-11-1.133-9.926-1.2998-19.222-0.53196-21.71 1.7931-1.7446 1.6305-3.0588 1.9518-6.2381 1.5254-3.0332-0.40683-4.6254-0.0703-6.4475 1.363-1.3308 1.0468-2.7301 1.9032-3.1096 1.9032-0.3795 0-4.2025 2.4753-8.4955 5.5007-8.3558 5.8885-13.746 12.695-17.152 21.66-2.6582 6.9958-2.3666 10.235 2.6572 29.516 5.4646 20.973 9.4084 31.45 12.35 32.807 1.318 0.60825 1.9378 1.5976 1.6227 2.5902-1.1068 3.4872 16.583 19.266 18.948 16.901 2.1346-2.1346-4.208-25.342-8.3731-30.637-1.1284-1.4345-2.0516-3.4354-2.0516-4.4466 0-1.0111-1.0011-3.8989-2.2246-6.4173-2.7764-5.7147-1.6926-6.7964 6.0967-6.0847 6.3962 0.58441 9.2468 2.8379 12.789 10.11 1.3395 2.75 4.6266 7.4485 7.3046 10.441 4.2373 4.735 5.0776 5.268 6.4759 4.1075 2.364-1.9619 2.9241-0.65633 1.1721 2.7318-0.84362 1.6314-1.3547 3.1453-1.1358 3.3642 0.21894 0.21894 1.5941 4.8885 3.056 10.377 3.2048 12.032 4.4528 24.445 5.1284 51.009l0.50939 20.03-7.3358 2.8452c-9.2977 3.6062-20.485 10.071-21.854 12.629-1.6679 3.1166 1.3531 2.4887 5.4862-1.1402 4.2276-3.7119 7.1148-3.3518 6.0831 0.75875-0.65779 2.6208-0.63785 2.631 3.9476 2.0025 2.5348-0.34743 7.8471-2.176 11.805-4.0634 9.5209-4.5402 15.831-6.092 23.169-5.6978 1.9182 0.10304 1.9151 0.14616-0.1125 1.5664-1.1468 0.80322-4.5094 2.4119-7.4725 3.5748-2.9631 1.1629-8.9875 4.2489-13.388 6.8578-15.261 9.0485-17.065 9.9252-22.519 10.943-6.3506 1.185-7.9716 1.7864-13.741 5.0983-4.5926 2.6364-5.3913 4.5316-2.2552 5.3517 1.2414 0.32465 3.2566-0.49128 5.3789-2.1779 1.8666-1.4834 6.6273-3.9656 10.579-5.5162l7.1856-2.8192 2.5123 2.3602c2.3318 2.1906 7.6775 11.543 16.135 28.23 3.9322 7.7578 6.8687 9.6625 17.723 11.496 10.608 1.7914 37.53 2.2783 41.5 0.7505zm18.194-27.812c-0.39525-2.0851 3.6657-7.7966 5.5435-7.7966 2.453 0 7.2623-3.0178 7.2623-4.5571 0-0.82814 0.675-1.7647 1.5-2.0813 0.825-0.31659 1.5025-1.315 1.5056-2.2186 0.0111-3.2623 2.0508-8.902 4.0557-11.214 1.3242-1.5268 1.8489-3.1511 1.4856-4.5988-0.43232-1.7225 0.7073-3.6605 4.9457-8.4106 5.7492-6.4433 6.8933-10.039 3.7575-11.808-1.1306-0.63792-1.396-1.3041-0.75-1.8821 1.1663-1.0436 10.657-3.2422 13.826-3.2029 2.0128 0.0249 1.9448 0.22853-0.91786 2.75-4.9657 4.3739-8.8043 10.019-14.376 21.14-2.8703 5.7295-6.3984 12.255-7.8404 14.5-1.4419 2.2455-3.5787 6.1109-4.7484 8.5899s-3.7731 5.9528-5.7853 7.7194c-2.0122 1.7667-3.6585 3.7058-3.6585 4.3091 0 1.8091-5.4484 0.64604-5.8058-1.2393zm74.256-22.547c-2.2918-2.5679-2.5442-2.6341-3.8123-1-0.74689 0.9625-1.8709 1.75-2.4977 1.75-1.4048 0-1.5107-2.6527-0.13976-3.5 0.55-0.33992 1-2.3862 1-4.5472 0-3.4583-0.26471-3.9006-2.209-3.691-1.4233 0.15348-2.3386-0.38425-2.5733-1.5118-0.44657-2.1452 1.3956-2.2796 3.4252-0.25 0.825 0.825 2.7332 1.5 4.2405 1.5 4.3831 0 10.499 9.6297 8.0157 12.622-1.6487 1.9866-2.685 1.7257-5.4493-1.3716zm-87.95 0.91667c0-1.9576 1.9485-1.7917 2.3318 0.1985 0.23391 1.2146-0.11011 1.7087-0.98631 1.4167-0.74002-0.24667-1.3455-0.9735-1.3455-1.6152zm63.5-72.167c0-0.55 0.45-1 1-1s1 0.45 1 1-0.45 1-1 1-1-0.45-1-1zm-47.812-19.938c-0.25-0.75 0.125-1.125 0.875-0.875 0.72188 0.24062 1.5094 1.0281 1.75 1.75 0.25 0.75-0.125 1.125-0.875 0.875-0.72187-0.24063-1.5094-1.0281-1.75-1.75zm-128.38-14.746c0.72188-0.28887 1.5844-0.25335 1.9167 0.0789 0.33229 0.3323-0.25834 0.56864-1.3125 0.52522-1.165-0.048-1.4019-0.28494-0.60417-0.60416zm5.9375 144.03c2.3248-0.9595 1.2688-2.4842-1.5-2.1656-1.5125 0.17403-2.75 0.76026-2.75 1.3027 0 1.1332 2.4096 1.6225 4.25 0.86293zm14.313-37.925c1.0815-1.3032 1.0688-1.7242-0.0737-2.4302-0.77872-0.48127-2.1375-0.44958-3.1133 0.0726-0.95229 0.50965-2.439 0.65511-3.3039 0.32324-1.1233-0.43106-1.5724-2e-3 -1.5724 1.5036 0 1.7268 0.6095 2.107 3.3776 2.107 1.8576 0 3.9662-0.7093 4.6857-1.5762zm230.44-3.4238c0.33992-0.55-0.0835-1-0.94098-1-0.85746 0-1.559 0.45-1.559 1s0.42344 1 0.94098 1 1.2191-0.45 1.559-1zm-258.5-83.5c0-1.0034-0.65585-1.5203-1.6789-1.3233-2.2299 0.42944-2.278 2.208-0.0711 2.633 1.0946 0.2108 1.75-0.27967 1.75-1.3096z" fill="#4d8404"/>
    <path id="path4030" d="m340.53 465.8c0.95936-0.55931 1.4562-1.6533 1.1332-2.4951-0.44032-1.1475-0.8967-1.2323-1.9457-0.36168-1.8145 1.5059-4.5678 0.37688-4.1929-1.7192 0.51176-2.8606-2.0916-2.6594-2.8137 0.21742-1.0711 4.2676 3.5534 6.8454 7.819 4.3586zm-36.208-5.3344c1.925-0.74077 4.9-1.132 6.6111-0.86951 1.8835 0.28899 6.0929-0.55185 10.668-2.1309 4.1563-1.4346 8.2476-2.6083 9.0919-2.6083 2.721 0 6.6291-2.2759 6.6291-3.8605 0-1.1974 0.26667-1.2728 1.2-0.33948 1.4628 1.4628 3.811 1.5265 7.3046 0.19826 2.438-0.92695 2.5128-1.1238 1.0008-2.6357-1.9497-1.9497-1.1278-2.8884 3.2446-3.7053 3.441-0.64292 4.3864 0.8064 2.05 3.1428-0.93333 0.93333-0.91136 1.2 0.0989 1.2 2.1653 0 8.1184-3.163 7.5831-4.0291-0.56359-0.91186 2.1774-3.9709 3.558-3.9709 0.49346 0 0.63817 0.675 0.32159 1.5-0.31659 0.825-1.0525 1.5-1.6353 1.5-0.58282 0-0.83264 0.22703-0.55516 0.50451 1.063 1.063 6.7015-1.6728 6.1907-3.0038-0.76881-2.0035 2.6844-4.9536 10.583-9.041 3.8805-2.0082 7.0555-4.2673 7.0555-5.0203s0.94353-1.874 2.0967-2.4912c1.7024-0.91111 2.0091-1.811 1.6306-4.7852-0.79578-6.2538-4.4953-17.52-6.1506-18.731-1.7597-1.2867-2.1203-3.4325-0.57681-3.4325 1.5199 0 1.1938-6.3563-0.4391-8.5589-1.2624-1.7027-1.7084-1.7765-3.6316-0.60048-1.905 1.1648-2.4292 1.0993-3.9979-0.5-2.0865-2.1273-3.631-7.3406-2.1747-7.3406 0.53546 0 2.1177 0.9 3.5161 2s3.5678 2 4.8209 2c2.138 0 3.6868 1.3297 18.406 15.803 2.2 2.1631 5.35 5.7716 7 8.0189 1.65 2.2473 3.3375 4.1068 3.75 4.1323 1.24 0.0765 0.84534-9.8969-0.75-18.954-0.8235-4.675-1.4979-9.5737-1.4986-10.886-1e-3 -2.256 0.24602-2.352 4.5428-1.7631 2.4993 0.34257 7.8102 1.7501 11.802 3.1279 8.9058 3.0739 16.123 4.1889 17.081 2.639 0.44787-0.72467-0.3191-1.1178-2.1806-1.1178-1.5793 0-6.8933-1.3818-11.809-3.0706-10.484-3.6018-40.045-8.9257-49.573-8.9278-5.9747-1e-3 -6.798 0.24727-8.273 2.4985-0.90094 1.375-2.2676 2.5-3.0371 2.5-2.425 0-8.3644 7.9886-13.702 18.429-13.607 26.616-21.97 39.571-25.544 39.571-2.6505 0-9.7996-7.1519-16.891-16.898-2.3667-3.2526-4.7789-6.2078-5.3603-6.5672-0.58146-0.35936-1.0572-1.5268-1.0572-2.5944 0-1.22-0.68537-1.941-1.845-1.941-2.0222 0-5.155-2.9536-5.155-4.8601 0-0.66145-0.7875-1.4801-1.75-1.8191-0.9625-0.33907-3.1-1.609-4.75-2.822s-4.8-3.1348-7-4.2707c-3.4828-1.7982-3.7414-2.1525-2-2.7404 6.1791-2.086 8.1657-2.9579 9.6897-4.2528 0.92933-0.78965 3.8543-1.5879 6.5-1.774 2.6457-0.18604 6.8353-0.77987 9.3103-1.3196s8.1288-1.6677 12.564-2.5065c4.4351-0.83882 13.885-2.9829 21-4.7645 7.1148-1.7817 14.229-3.1701 15.809-3.0854 1.5801 0.0847 3.6626-0.26861 4.6276-0.7851 2.136-1.1432 3.2259-6.0115 1.7463-7.8003-0.81538-0.98578-0.55185-1.4376 1.0887-1.8666 2.5981-0.67941 2.7389-2.8567 0.54003-8.3521-0.98023-2.4498-1.4043-5.4161-1.0694-7.4798 0.71662-4.416-0.8448-9.9931-3.4869-12.455-1.9065-1.7762-1.9838-2.3353-0.91165-6.5934 0.91719-3.6425 0.90182-4.9776-0.0708-6.1495-1.0107-1.2178-0.92484-1.6746 0.46045-2.4498 3.859-2.1596 0.54501-6.4418-5.7972-7.491-6.1788-1.0221-8.1552-0.95167-9.6542 0.34409-1.3834 1.1959-2.001 1.2142-3.773 0.11167-1.7951-1.1169-2.5667-1.062-5.0513 0.35964-2.8085 1.607-2.959 1.5944-3.5596-0.29799-0.34493-1.0868-0.0444-2.678 0.66773-3.5362 1.0824-1.3042 0.98254-1.7886-0.60851-2.952-1.0468-0.76549-3.0951-1.3918-4.5517-1.3918-2.9644 0-4.9694-3.166-4.9694-7.847 0-1.5141-0.55874-3.3117-1.2416-3.9946-0.98886-0.98886-0.93796-1.4336 0.25-2.1847 0.8204-0.51867 2.2526-0.94994 3.1826-0.95836 0.93004-8e-3 1.9691-0.46531 2.309-1.0153s1.6616-1 2.937-1c1.2859 0 2.9991-1.0024 3.8456-2.25 1.2916-1.9036 1.7338-2.0383 2.872-0.875 1.0531 1.0763 1.0738 1.4746 0.0953 1.8333-1.8289 0.67059-1.5269 4.9714 0.40095 5.7112 1 0.38375 2.3775-0.14635 3.4938-1.3446 1.7052-1.8303 2.1024-1.8696 5.3169-0.52653 4.9356 2.0622 8.774 1.9251 8.3558-0.29845-0.18104-0.9625-1.339-2.1942-2.5733-2.7371-2.4246-1.0665-2.8249-2.0359-1.2442-3.0129 1.9052-1.1775 0.98135-3.7143-3-8.2373-2.2-2.4993-4-5.3464-4-6.3267 0-0.98036-1.125-3.1195-2.5-4.7536s-2.5-3.46-2.5-4.0577c0-1.3194-4.439-2.554-6.4324-1.789-1.8155 0.6967-4.0506 4.6643-2.6275 4.6643 0.67143 0 0.68323 0.86059 0.0352 2.5651-1.3252 3.4856-1.2606 3.658 0.93189 2.4846 2.7105-1.4506 5.8179 1.4689 6.6649 6.2618 0.58959 3.3362 0.40888 3.8807-1.4492 4.3666-1.4147 0.36995-2.1228 1.3502-2.1228 2.9385 0 1.3108-0.3949 2.3834-0.87756 2.3834-1.6716 0-2.9385-2.5217-3.6424-7.25-0.67131-4.5094-2.4658-6.2002-3.98-3.75-0.33992 0.55-2.054 0.98405-3.809 0.96457-2.9389-0.0326-3.033-0.1314-1.191-1.25 2.4511-1.4885 3.3369-4.973 1.0402-4.0916-1.0274 0.39425-1.5827-0.0272-1.6678-1.266-0.45377-6.6026-1.16-8.357-3.364-8.357-0.75548 0-1.6416 0.7875-1.9691 1.75s-1.4854 2.8155-2.573 4.1178c-1.5516 1.8577-2.2766 2.1196-3.366 1.2155-1.0665-0.88513-1.7442-0.79652-2.9229 0.38224-2.2113 2.2113-3.8527 1.8872-3.4902-0.68908 0.23214-1.6499-0.46113-2.5829-2.6871-3.6163-5.6035-2.6013-7.4505-4.1256-6.8609-5.6621 0.36147-0.942 1.927-1.5098 4.2178-1.5298 3.42-0.0299 3.5242-0.12166 1.7019-1.5-1.0676-0.80751-2.7732-1.4682-3.79-1.4682-1.0169 0-3.5612-1.8-5.654-4s-4.7748-4.0562-5.9599-4.125c-1.1852-0.0687-2.6049-0.18125-3.155-0.25-0.55005-0.0687-2.6388-1.4325-4.6416-3.0306-2.7106-2.1629-4.0374-2.6558-5.1904-1.9286-1.7192 1.0845-2.8354 3.4818-1.5117 3.247 2.4637-0.43703 4.1332 0.3253 5.2395 2.3924 0.67854 1.2679 2.5536 2.8034 4.1667 3.4123 1.6132 0.60889 3.2143 1.9341 3.5581 2.9448 1.7896 5.2611 4.0442 9.2805 5.3794 9.5903 0.97544 0.22631 0.37583 0.94499-1.7146 2.0551-3.2069 1.703-3.2198 1.7001-5.3784-1.2196-1.1901-1.6097-2.7244-2.7116-3.4094-2.4487-0.6851 0.2629-2.7526-0.8984-4.5944-2.5807s-3.7353-3.0587-4.2076-3.0587c-0.47237 0-2.7809-1.575-5.1301-3.5-2.3492-1.925-4.5493-3.5-4.8891-3.5-1.4336 0-10.291-6.9204-15.679-12.25-3.197-3.1625-6.7028-5.75-7.7908-5.75s-3.2434-0.65641-4.7898-1.4587c-1.865-0.96758-3.2065-1.131-3.9844-0.48534-0.82308 0.6831-2.0086-0.14928-3.9755-2.7913-1.5415-2.0706-4.2999-5.1754-6.1299-6.8995s-3.3272-3.8617-3.3272-4.75-0.585-1.6151-1.3-1.6151c-2.0033 0-3.7 2.1553-3.7 4.7 0 2.3582-1.397 3.0847-2.5 1.3-1.0687-1.7292-3.1322-1.1119-8.6495 2.5876-7.4252 4.9787-8.6785 6.1921-12.471 12.075-3.9424 6.1146-6.3443 12.576-6.3644 17.123-0.0327 7.3839 12.046 49.273 15.2 52.715 0.50406 0.55 3.0245 1 5.601 1 4.173 0 4.7213 0.25991 5.0212 2.3801 0.29548 2.0894 0.032 2.3037-2.1571 1.7543-1.3715-0.34423-3.2105-0.90094-4.0866-1.2371-2.5969-0.99653-1.8328 0.8078 2.466 5.8231 4.8631 5.6736 14.031 12.09 15.366 10.755 2.1346-2.1346-4.208-25.342-8.3731-30.637-1.1284-1.4345-2.0516-3.4354-2.0516-4.4466 0-1.0111-1.0011-3.8989-2.2246-6.4173-2.7764-5.7147-1.6926-6.7964 6.0967-6.0847 6.3217 0.57761 9.233 2.8359 12.601 9.7744 2.12 4.3677 11.234 15.903 12.468 15.78 2.5335-0.25064 9.7436-15.936 13.075-28.445 1.8914-7.101 5.2468-15.5 6.1922-15.5 1.1637 0 0.68841 2.5189-1.6871 8.9403-0.90343 2.4422-1.3812 5.4816-1.0618 6.7544 0.33563 1.3373-0.084 3.3287-0.99411 4.7177-0.93657 1.4294-1.4514 3.9608-1.2702 6.2456 0.23723 2.9907-0.053 3.8453-1.3097 3.857-2.7766 0.0259-4.676 2.4106-6.4746 8.1287l-1.7367 5.5214 5.8257 4.6533-2.4459 3.3152c-3.0111 4.0813-2.9102 6.5172 0.39709 9.5838 2.9116 2.6998 3.195 4.4934 1.0488 6.6396-1.105 1.105-1.4831 3.6911-1.4358 9.8214 0.0651 8.4378 2.0044 20.42 3.1238 19.3 0.33645-0.33645 0.90834-0.13178 1.2709 0.45481 0.36254 0.58659-0.0424 1.0665-0.89986 1.0665-1.3463 0-1.559 2.1577-1.559 15.813v15.813l-7.25 2.8259c-8.6684 3.3787-16.796 7.8351-19.265 10.564-1.7334 1.9154-1.7264 1.9837 0.2048 1.9837 1.1 0 2.8324-0.91981 3.8498-2.044 2.541-2.8077 5.9602-2.2088 5.9602 1.044 0 2.2404 0.36349 2.4728 3.5 2.2381 4.0819-0.30546 8.4704-1.8807 12.013-4.3118 3.8108-2.6155 15.551-5.7054 24.327-6.4029 8.8067-0.69988 9.5945 0.50556 1.8672 2.8571-7.2878 2.2178-15.537 6.1479-29.834 14.214-7.2201 4.0732-13.668 7.4058-14.329 7.4058-1.203 0-11.677 3.8489-17.793 6.5384-3.7395 1.6445-4.1557 2.9914-1.1659 3.7733 1.4251 0.37267 3.0276-0.35671 5.0682-2.3068 1.6413-1.5685 6.3424-4.0766 10.447-5.5736l7.4628-2.7218 2.5459 2.3918c2.3616 2.2187 7.6845 11.522 16.169 28.261 3.9322 7.7578 6.8687 9.6625 17.723 11.496 10.608 1.7914 37.53 2.2783 41.5 0.7505zm71.186-35.862c-0.18377-0.96417 0.40903-2.0382 1.3173-2.3868 1.9853-0.76181 5.0308 1.966 4.0203 3.601-1.0524 1.7028-4.9507 0.81596-5.3376-1.2142zm0.52394-8.747c-0.28765-1.1-0.11514-2 0.38337-2s0.90638 0.9 0.90638 2-0.17252 2-0.38337 2-0.61872-0.9-0.90638-2zm-22.882-44.655c-1.0058-0.91024-1.8291-2.3727-1.8295-3.25-4.3e-4 -0.87725-1.602-3.395-3.5591-5.595s-4.6939-5.2753-6.0818-6.8341c-4.9346-5.5419-1.3389-3.8093 5.1069 2.4608 3.6035 3.5053 8.154 7.8286 10.112 9.6074 1.9582 1.7788 3.2778 3.6913 2.9325 4.25-0.9635 1.559-4.6409 1.2072-6.6811-0.63909zm-93.806-3.75c-0.0122-0.49774 0.87776-0.0905 1.9778 0.90499s1.99 2.5277 1.9778 3.405c-0.0162 1.1611-0.55419 0.91494-1.9778-0.90499-1.0755-1.375-1.9655-2.9072-1.9778-3.405zm-3.0222-25.036c0-0.79254 0.41891-1.6999 0.9309-2.0163 1.1889-0.73478 2.3846 1.1378 1.5691 2.4573-0.91956 1.4879-2.5 1.2091-2.5-0.44098zm57-15.559c0-0.55 0.45-1 1-1s1 0.45 1 1-0.45 1-1 1-1-0.45-1-1zm9.5778-2.25c-0.25317-1.2375-0.6523-4.3506-0.88697-6.9179-0.36531-3.9967-0.14421-4.7418 1.5377-5.1816 2.5189-0.65871 4.7715 0.20712 4.7715 1.834 0 0.69882 0.61205 1.7785 1.3601 2.3994 1.638 1.3594 1.0187 5.8814-1.1457 8.3661-2.1556 2.4746-5.0812 2.215-5.6366-0.5zm-80.069-25c0.38443-3.6676 0.42818-3.75 1.9911-3.75 1.9762 0 1.9059 1.894-0.15499 4.1713-2.0844 2.3033-2.1208 2.295-1.8361-0.42126zm67.333-12.544c-3.3112-3.7163-5.7429-8.7377-6.4881-13.398-0.57565-3.5999-0.46496-3.8088 2.0188-3.8088 1.967 0 2.6278 0.50631 2.6278 2.0136 0 1.1075 0.41715 2.795 0.927 3.75s1.1681 2.5171 1.4628 3.4712c0.39118 1.2666 1.361 1.6387 3.5936 1.3788 3.346-0.38958 4.8811 0.92192 3.1295 2.6736-0.61208 0.61208-1.1129 2.0729-1.1129 3.2462 0 4.3368-2.6372 4.6251-6.1585 0.67312zm-10.842-8.4564c0-1.1711 1.4568-0.87974 1.875 0.375 0.20625 0.61875-0.13125 0.95625-0.75 0.75s-1.125-0.7125-1.125-1.125zm-5-2.8436c0-0.60149 0.9-1.329 2-1.6166s2-0.99553 2-1.573 0.25618-0.79385 0.56929-0.48074c0.85431 0.85431-1.862 4.764-3.3098 4.764-0.6927 0-1.2594-0.49213-1.2594-1.0936zm0.39583-8.6356c1.0165-1.0165 1.8552 0.51389 1.0212 1.8634-0.63003 1.0194-0.86558 1.0202-1.2043 4e-3 -0.2316-0.69478-0.14921-1.5351 0.18308-1.8674zm-92.646 181.08c2.3248-0.9595 1.2688-2.4842-1.5-2.1656-1.5125 0.17403-2.75 0.76026-2.75 1.3027 0 1.1332 2.4096 1.6225 4.25 0.86293zm13.27-37.873c1.7994-2.1682 0.40844-3.0431-2.4262-1.526-1.3217 0.70736-2.896 0.98148-3.4985 0.60915-0.61489-0.38002-1.0954 7e-3 -1.0954 0.88205 0 2.0676 5.3111 2.094 7.0201 0.0349zm231.48-3.4758c0.33992-0.55-0.0835-1-0.94098-1-0.85746 0-1.559 0.45-1.559 1s0.42344 1 0.94098 1 1.2191-0.45 1.559-1zm-137.14-12.5c0.31658-0.825 0.13972-1.5-0.39301-1.5-1.9195 0-2.4886-0.18667-3.7428-1.2275-1.7154-1.4237-2.5564-0.38931-1.7498 2.1522 0.77694 2.4479 5.0082 2.8616 5.8856 0.57536zm-121.36-71c0-1.0034-0.65585-1.5203-1.6789-1.3233-2.2299 0.42944-2.278 2.208-0.0711 2.633 1.0946 0.2108 1.75-0.27967 1.75-1.3096zm133.88-60.375c-0.20625-0.61875-0.7125-1.125-1.125-1.125-1.1711 0-0.87974 1.4568 0.375 1.875 0.61875 0.20625 0.95625-0.13125 0.75-0.75zm-13.49-10.843c1.1922-1.1922 0.59594-4.075-0.96681-4.6747-2.438-0.93556-5.4182-0.7194-5.4182 0.39301 0 0.55-0.675 1-1.5 1-1.6256 0-1.8958 0.91953-0.73469 2.5 0.82178 1.1185 7.6625 1.7389 8.6197 0.78165zm-8.2767-13.34c-2.6506-2.2074-3.479-2.0712-2.5249 0.41514 0.34679 0.90372 1.5949 1.6282 2.7735 1.6099 2.1102-0.0328 2.1064-0.0637-0.24865-2.025z" fill="#345a02"/>
    <path id="path4028" d="m339.08 465.78c1.2375-0.46729 2.25-1.3365 2.25-1.9315 0-0.70971-0.56489-0.76578-1.642-0.16298-0.90312 0.50541-2.4738 0.70141-3.4904 0.43556-1.4205-0.37146-1.7011-1.0702-1.2121-3.0184 0.44452-1.7711 0.29095-2.3216-0.50959-1.8269-1.763 1.0896-1.3576 5.4088 0.60416 6.4368 0.99667 0.52226 2.7186 0.55128 4 0.0674zm-35.25-5.5163c2.2-0.82363 5.3504-1.2507 7.0009-0.94904 4.1606 0.76044 12.768-2.7022 16.547-6.6565 1.6983-1.777 4.0696-3.2448 5.2698-3.2616 1.6563-0.0232 2.2618-0.72969 2.5131-2.932 0.18207-1.5958 2.0946-5.8043 4.25-9.3522 2.1554-3.5479 3.9195-7.4173 3.9202-8.5985 6.7e-4 -1.1813 1.1257-3.4553 2.5-5.0533 1.5684-1.8237 2.4988-4.1288 2.4988-6.191 0-1.807 0.39089-3.527 0.86865-3.8223 0.47775-0.29527 1.1725-2.4371 1.5439-4.7596 0.4088-2.5565 1.9793-5.8206 3.9801-8.2722 1.8177-2.2272 3.8678-5.7671 4.5558-7.8664 1.2524-3.8218 0.812-5.8696-0.88532-4.1163-1.0668 1.102-7.0631 12.585-7.0631 13.526 0 0.92453-11.807 21.061-17.389 29.657-3.1436 4.8409-5.345 7.25-6.6248 7.25-2.7512 0-8.1782-5.1004-16.455-15.465-7.6204-9.5424-18.945-21.034-24.913-25.28-2.2267-1.5843-4.8012-2.4979-6.8439-2.4286-1.801 0.0611-4.3995 0.14699-5.7745 0.19093-5.9378 0.18971-18.841 5.7112-36 15.405-4.675 2.641-8.7057 4.9947-8.9571 5.2303-0.2514 0.23563 0.32378 1.6477 1.2782 3.138 0.9544 1.4903 3.1324 5.4096 4.84 8.7096 1.7076 3.3 4.4053 7.8961 5.9948 10.214 1.5895 2.3174 4.0269 6.477 5.4164 9.2434 2.1784 4.3371 3.3803 5.4393 8.727 8.003 7.1084 3.4084 14.891 4.6998 32.701 5.4257 9.6458 0.39319 13.413 0.1676 16.5-0.98797zm-18.5-15.198c0-2.1057 1.8449-4.2 3.7-4.2 1.6643 0 1.708 4.6687 0.05 5.3377-2.4944 1.0065-3.75 0.62558-3.75-1.1377zm47 7.8c0-0.55-0.19844-1-0.44098-1s-0.7191 0.45-1.059 1-0.14148 1 0.44098 1 1.059-0.45 1.059-1zm-130.75-5.6623c-0.6875-0.27741-1.8125-0.27741-2.5 0s-0.125 0.50439 1.25 0.50439 1.9375-0.22698 1.25-0.50439zm157.25-37.338c0.33992-0.55 0.16803-1-0.38197-1s-1.2781 0.45-1.618 1-0.16803 1 0.38197 1 1.2781-0.45 1.618-1zm51.127-2.4715c0.32868-0.85654-0.28912-6.8383-1.3729-13.293-1.191-7.0934-1.6337-12.397-1.1191-13.408 0.67302-1.3217 0.27659-1.7889-1.892-2.2298-18.863-3.8354-34.743-4.5659-34.743-1.5982 0 0.86565 3.3156 3.1916 7.8401 5.5 6.2371 3.1821 10.176 6.309 19.265 15.293 8.4803 8.3824 11.579 10.892 12.022 9.7356zm37.102-1.1326c-0.33229-0.33229-1.1948-0.36781-1.9167-0.0789-0.79773 0.31922-0.56078 0.55618 0.60417 0.60416 1.0542 0.0434 1.6448-0.19293 1.3125-0.52522zm-210.85-4.9192c5.3137-2.4736 5.3715-2.5479 4.7863-6.1539-0.82809-5.1029-1.8011-5.7614-6.3229-4.279-8.3921 2.7513-12.694 5.0046-11.614 6.084 0.74335 0.74335 1.7578 0.69655 3.4149-0.15754 1.949-1.0045 2.1408-0.98594 1.1074 0.10736-1.7536 1.8552-1.5574 5.5905 0.33179 6.3154 2.2626 0.86824 2.3667 0.84419 8.2968-1.9164zm139.12-2.9176c0-1.3425-0.47994-2.7376-1.0665-3.1001-1.543-0.95362-1.8249-0.31314-1.2286 2.7911 0.65422 3.4056 2.2951 3.6265 2.2951 0.30902zm-126.37-3.6475c1.9396-0.56219 3.3516-1.7443 3.7071-3.1036 0.55747-2.1318 0.63245-2.1428 2.5798-0.38047 4.2448 3.8415 6.2304-1.1166 2.2768-5.6855-1.4257-1.6476-1.6379-1.6526-3.3762-0.0794-1.7514 1.585-2.0347 1.5158-5.078-1.2419-1.7727-1.6063-3.5873-3.4831-4.0325-4.1706-2.8237-4.3612-2.8548 2.4056-0.0368 8.009 1.0043 1.997 1.103 3.2908 0.35718 4.6843-1.8068 3.376-1.6152 3.4806 3.6026 1.9683zm38.031-7.4788c0.33077-0.86197 0.0793-2.0894-0.55891-2.7275-1.4315-1.4315-4.444 0.18946-4.9286 2.6519-0.43182 2.194 4.6477 2.264 5.4875 0.0756zm-10.53-0.14875c0.75115-1.0365 2.4907-2.6579 3.8657-3.6032 1.92-1.3199 2.5143-2.6238 2.5615-5.6202 0.0685-4.3481 1.7797-7.0607 4.454-7.0607 2.6777 0 3.1444 2.6499 0.74705 4.2417-2.2386 1.4864-1.9227 4.7714 0.45611 4.743 3.0214-0.0361 3.9754-1.8899 4.3311-8.4158 0.22273-4.0866 1.3566-9.1775 2.9077-13.054 1.3984-3.4955 2.5426-7.4402 2.5426-8.7659 0-1.5453 0.89394-2.8889 2.4905-3.7434 2.243-1.2004 2.6903-1.1026 4.5 0.98403 1.7671 2.0375 2.5477 4.7495 2.1075 7.3221-0.0763 0.44615 0.63977 2.1292 1.5914 3.7402 1.3344 2.2589 1.4589 3.2003 0.54419 4.115-0.86661 0.86661-0.89014 1.5425-0.0874 2.5098 1.529 1.8423 2.8689 1.6582 5.4276-0.74554 2.7932-2.624 2.1255-5.5177-1.7336-7.5133-2.783-1.4391-3.0555-4.0977-0.31216-3.045 0.72915 0.2798 1.8506-0.12366 2.492-0.89658 0.90927-1.0956 0.73642-2.0191-0.7843-4.1906-1.0728-1.5319-1.7748-3.2802-1.5599-3.8852 0.2149-0.60496-0.29927-1.6726-1.1426-2.3724-1.9704-1.6352-1.9618-3.0276 0.0187-3.0276 0.85361 0 2.0226 1.35 2.5978 3 0.5752 1.65 1.3768 3 1.7813 3 1.9294 0 1.767-1.5292-0.47441-4.4678-1.3512-1.7715-2.4568-3.7521-2.4568-4.4013s-1.1025-1.5995-2.45-2.1118c-3.0234-1.1495-7.8606-10.802-7.1135-14.195 0.69801-3.1699-4.7085-7.673-6.9645-5.8008-0.80961 0.67192-1.472 2.3545-1.472 3.739s-0.70389 3.032-1.5642 3.6611c-1.3948 1.0199-1.3322 1.4387 0.57796 3.8671 1.6211 2.0609 1.9786 3.4678 1.4699 5.784-0.78565 3.577-2.5039 4.5203-5.4055 2.9674-2.4115-1.2906-2.7164-4.679-0.62873-6.9859 3.9006-4.3101-6.5627-6.177-11.041-1.97-3.0995 2.9118-3.767 5.9141-1.3149 5.9141 1.0485 0 1.9064 0.45 1.9064 1s-0.9 1-2 1c-2.7248 0-2.5372 2.6 0.25 3.4649 3.3952 1.0535 6.837 1.2033 7.3821 0.32129 0.81829-1.324 2.3679-0.8737 2.3679 0.6881 0 1.5929-5.3573 4.835-6.3497 3.8427-1.1983-1.1983-1.8443 2.7444-0.67958 4.1478 1.6385 1.9743 0.32735 5.5352-2.0381 5.5352-2.1513 0-2.4303 1.2016-0.92991 4.005 1.3059 2.4401-0.86656 3.9896-2.2151 1.5799-0.66186-1.1827-1.313-1.3938-2.1519-0.6976-0.66155 0.54903-1.6608 0.68649-2.2206 0.30545-1.463-0.99583-4.6733-9.9661-3.9725-11.1 0.32449-0.52503 0.0823-1.2683-0.53814-1.6518-0.62046-0.38346-1.4153-0.23878-1.7663 0.32153-0.35101 0.5603-2.5507 2.0134-4.8882 3.2291-4.7025 2.4457-5.2531 3.5552-2.239 4.5119 1.106 0.35104 2.681 1.934 3.5 3.5177 1.3023 2.5184 1.3061 2.9818 0.0304 3.6957-1.1943 0.66835-1.2396 1.2556-0.24999 3.2404 1.0536 2.1134 3.6288 2.8033 2.9586 0.79266-0.1375-0.4125 0.2-0.75 0.75-0.75s1-0.68465 1-1.5214 1.0954-2.0205 2.4342-2.6305c2.0536-0.93568 2.8989-0.73689 5.4063 1.2714 3.6347 2.9113 4.643 5.7703 2.3319 6.6119-0.91981 0.33497-2.6792 1.3802-3.9097 2.3228l-2.2373 1.7137 2.9873 1.2374c2.7942 1.1574 4.2058 3.9947 1.9874 3.9947-0.55 0-1-0.45-1-1s-0.9-1-2-1c-1.292 0-2 0.66667-2 1.8834 0 1.0424 0.89308 2.1169 2 2.4064 1.3364 0.34947 2 1.364 2 3.0576 0 1.394 0.47185 2.8262 1.0486 3.1826 0.71316 0.44076 0.66274 1.1129-0.15762 2.1014-0.83645 1.0079-0.88681 1.7727-0.16429 2.4952s1.4605 0.46423 2.4076-0.84262zm7.6685-39.758c-0.66992-0.93548 0.85442-2.4793 2.4794-2.5111 1.0088-0.0197 2.6293 4.2368 2.0113 5.2832-0.46296 0.7839-3.1178-0.85496-4.4908-2.7722zm7.1972-8.5264c0-0.55 0.45-1 1-1s1 0.45 1 1-0.45 1-1 1-1-0.45-1-1zm-22 45.607c0-1.4532-2.4148-2.8588-3.3333-1.9403-0.29088 0.29087-0.28673 1.1599 9e-3 1.9311 0.69719 1.8168 3.3241 1.8241 3.3241 9e-3zm-11-1.4159c0-1.4615-2.8215-4.703-3.5016-4.0229-0.3658 0.3658 0.2724 1.6026 1.4182 2.7484 1.1458 1.1458 2.0833 1.7193 2.0833 1.2745zm48.756-0.85549c1.5756-0.63521 0.61804-2.3356-1.3152-2.3356-0.79254 0-1.441 0.675-1.441 1.5 0 1.542 0.57319 1.7158 2.7562 0.83564zm107.97-1.9398c-0.3323-0.33229-1.1948-0.36781-1.9167-0.0789-0.79773 0.31922-0.56078 0.55618 0.60417 0.60416 1.0542 0.0434 1.6448-0.19293 1.3125-0.52522zm-106.78-4.8318c0.6454-0.77766 1.3602-3.2916 1.5886-5.5865 0.32573-3.2741 0.11396-4.057-0.98351-3.6359-0.90369 0.34678-1.7704-0.52994-2.4494-2.4775-1.2335-3.5385-3.1025-2.9392-3.1025 0.99482 0 3.1859 1.6479 5.2133 3.6219 4.4558 0.75797-0.29087 1.3781-0.0788 1.3781 0.47115 0 0.55-0.675 1.259-1.5 1.5756-1.6248 0.62351-2.0549 4.1774-0.61331 5.0683 0.48768 0.30141 1.4148-0.0883 2.0602-0.86591zm-50.558-2.7795c-1.0865-2.1011-1.8762-2.697-2.6065-1.9667-1.4606 1.4606-0.35111 3.8001 2.107 4.4429 1.9834 0.51869 2.0016 0.42859 0.49953-2.4761zm67.957-3.9988c0.7967-3.0466-1.4461-4.1877-2.878-1.4643-1.2937 2.4604-0.97092 3.6786 0.97465 3.6786 0.72839 0 1.5849-0.9964 1.9034-2.2142zm-73.346 1.2142c0-0.55-0.19844-1-0.44098-1s-0.7191 0.45-1.059 1-0.14148 1 0.44098 1 1.059-0.45 1.059-1zm-2-18.878c0-2.6427-2.7367-4.7858-4.2188-3.3037-0.84532 0.84532-0.6678 1.6491 0.69737 3.1576 2.2878 2.528 3.5214 2.5792 3.5214 0.14607zm-7-8.5154c0-0.21616-0.69837-0.661-1.5519-0.98855-0.88992-0.34149-1.2913-0.17385-0.94098 0.39301 0.58726 0.95021 2.4929 1.4054 2.4929 0.59554zm8.75-1.2693c1.6996-0.68579 1.5922-4.3377-0.12756-4.3377-1.8457 0-3.9562 2.651-3.1495 3.9562 0.68809 1.1134 1.2898 1.1834 3.2771 0.38152zm4.8609-13.374c2.2308-0.84114 3.7655-3.5452 2.8514-5.0242-0.88677-1.4348 4.1728-2.2047 6.4566-0.98243 1.7961 0.96125 2.466 0.71676 4.5615-1.665 1.351-1.5354 2.4705-3.1854 2.4879-3.6667 0.0174-0.48125 1.3424-0.61285 2.9444-0.29244 2.973 0.59461 4.8782-0.70366 4.5236-3.0826-0.10249-0.6875-0.2426-1.7266-0.31135-2.309-0.0687-0.58246-0.54128-0.80174-1.0501-0.48729-0.50879 0.31444-2.1075 0.033-3.5527-0.62549-2.2049-1.0046-3.1419-0.89339-5.8249 0.69151-1.7585 1.0388-3.3098 1.7968-3.4474 1.6845-1.1327-0.92524-1.9559 0.21042-1.483 2.0458 0.51002 1.9792 0.38418 2.0896-1.0456 0.91738-1.8243-1.4956-5.2198-0.81038-7.9755 1.6096-1.3748 1.2073-2.2687 1.3059-4.1341 0.45599-2.2506-1.0255-2.4147-0.8677-3.0175 2.902-0.3506 2.1925-0.37423 4.4123-0.0525 4.9328 1.2254 1.9827 5.9723 3.6861 8.069 2.8955zm-68.611-4.9319c0-0.53273-0.675-0.70959-1.5-0.39301-0.825 0.31659-1.5 0.75246-1.5 0.96862 0 0.21615 0.675 0.39301 1.5 0.39301s1.5-0.43588 1.5-0.96862zm23.729-5.3679c-1.0802-10.466-4.424-17.151-5.5843-11.165-0.41484 2.1404 1.8522 9.7102 3.1852 10.636 0.5026 0.34889 0.71679 1.2254 0.47597 1.9479-0.29027 0.87082-1.3982 0.23572-3.2872-1.8844-3.0232-3.393-5.5187-4.17-5.5187-1.7182 0 0.81382 1.7695 2.3824 3.9322 3.4857 2.1627 1.1033 4.2142 2.4625 4.559 3.0203 0.34477 0.55786 1.1133 1.0143 1.7078 1.0143 0.70829 0 0.89103-1.8396 0.53011-5.3365zm-19.451-14.275c0.35458-0.35458 3.2496-0.92458 6.4333-1.2667 5.6017-0.60189 5.7914-0.71888 5.8734-3.622 0.0466-1.65-0.45158-4.125-1.1072-5.5s-1.4565-3.8947-1.7797-5.5994c-0.32323-1.7047-1.5763-4.775-2.7846-6.8228-1.7686-2.9975-2.6343-3.6136-4.4407-3.1602-3.0517 0.76594-4.7491-1.5516-4.9237-6.7226-0.16376-4.8497-0.83072-6.2402-3.7401-7.7972-1.9212-1.0282-2.0279-0.90662-1.4003 1.5941l0.67943 2.7071-6.088-4.335-3e-3 2.3181c-5e-3 3.5071 4.1778 17.972 9.0556 31.318 2.3738 6.4949 3.2276 7.8867 4.2256 6.8886zm80.998-3.3352c0.69768-2.6679-0.67113-3.448-3.2377-1.8452-2.4512 1.5308-2.1488 3.178 0.65991 3.5942 1.3681 0.20272 2.2182-0.37407 2.5778-1.749zm-40.879-2.2562c0.91829-1.4015 4.7896-11.435 8.6028-22.297s7.651-20.845 8.5284-22.184c0.87736-1.339 1.4549-3.4192 1.2834-4.6226-0.2641-1.8533-1.2109-2.313-6.1895-3.0056-5.6008-0.77905-6.0161-0.68494-8.8145 1.9971-1.6152 1.5481-5.2702 3.9695-8.1223 5.3809l-5.1855 2.5662-0.0761 10.434c-0.0573 7.8523-0.50597 11.256-1.8134 13.757-2.422 4.6327-1.4331 7.6349 4.809 14.6l5.3081 5.9227 1.6696-2.5482zm25.603-0.23823c0-1.0555-1.9191-1.4989-2.4899-0.57533-0.34546 0.55897 0.0734 1.0163 0.9309 1.0163 0.85746 0 1.559-0.19844 1.559-0.44098zm-43-23.83c0-1.9165 0.675-4.0447 1.5-4.7294s1.5-2.7097 1.5-4.5 0.675-3.8153 1.5-4.5c1.7341-1.4392 2.0215-8.0785 0.41896-9.681-1.5336-1.5336-1.4338-11.522 0.14031-14.042 1.1227-1.7977 1.0408-2.7283-0.55036-6.2569-1.8764-4.1612-6.639-9.0198-8.8415-9.0198-0.64854 0-1.7898 1.3795-2.5361 3.0655-1.2453 2.8134-1.1688 3.2658 0.93089 5.5007 2.6735 2.8459 2.9295 7.1604 0.75437 12.716l-1.4808 3.7821-1.1244-3.7821c-0.6184-2.0801-1.4261-5.8071-1.7948-8.2821-0.78293-5.2548-4.2588-14-5.5645-14-0.49589 0-1.3125 1.0807-1.8147 2.4016-0.67233 1.7684-1.9492 2.5766-4.8425 3.0655-2.5419 0.42945-5.0006 1.7884-6.9628 3.8484-3.9043 4.0989-8.2321 10.579-8.2321 12.325 0 0.74881 2.9733 4.1735 6.6072 7.6104 6.7587 6.3922 17.393 20.432 17.393 22.962 0 0.86363 2.0314 1.9239 5.25 2.7402 2.8875 0.73232 5.8125 1.5405 6.5 1.796 0.84973 0.31579 1.25-0.65127 1.25-3.02zm12.5-30.547c2.8558-0.30253 6.4302-3.4716 6.4778-5.7431 0.0122-0.58352-2.2663-1.6475-5.0634-2.3644-6.465-1.6569-7.6578-0.70973-5.7769 4.5878 1.2173 3.4286 1.6822 3.8036 4.3625 3.5197z" fill="#023019"/>
    <path id="path4026" d="m316.6 457.74c0.97427-0.55345 3.5689-2.891 5.7659-5.1946 3.5292-3.7004 3.926-4.596 3.4065-7.6883-0.37176-2.213-2.1478-5.1548-4.8298-8-2.333-2.475-7.5735-8.55-11.646-13.5-13.687-16.638-24.896-26.5-30.118-26.5-1.5675 0-2.85 0.27274-2.85 0.6061 0 0.33335 1.3694 2.3351 3.0431 4.4483 1.6737 2.1132 3.7408 5.8899 4.5936 8.3927 0.85278 2.5028 1.9584 4.8026 2.4569 5.1107 0.49852 0.3081 0.9064 1.4849 0.9064 2.615 0 2.8778 3.7765 9.5544 8.2326 14.555 4.1375 4.6429 4.8359 8.4342 2.1088 11.448-1.3499 1.4916-1.447 2.2974-0.52144 4.3287 0.69229 1.5194 0.75436 2.4959 0.15866 2.4959-0.53821 0-0.97856 0.45-0.97856 1s0.635 1 1.4111 1c0.7761 0 2.4636 1.2375 3.75 2.75 1.9723 2.319 3.2008 2.7805 7.8389 2.9446 3.025 0.10704 6.2971-0.25821 7.2714-0.81167zm-41.271-14.047c0-2.3268-2.879-8.8364-3.9081-8.8364-1.3313 0 0.52663 7.0471 2.3345 8.855 1.4314 1.4314 1.5736 1.4298 1.5736-0.0186zm-11.388-5.3189c1.8472-1.3745 1.8448-1.4867-0.11186-5.1741-1.2405-2.3378-2.9494-3.988-4.5-4.3456-5.472-1.2618-2.1389-11.519 7.6692-23.601 4.2339-5.2155 4.458-7.8918 0.58076-6.9357-5.7304 1.4131-18.25 7.6622-33.957 16.95l-4.2074 2.4878 3.3801 5.8004c6.2109 10.658 6.9476 11.52 11.035 12.91 5.4764 1.8626 5.7932 1.7853 7.5-1.8294 2.076-4.3965 3.6626-4.5234 5.373-0.4298 1.8712 4.4785 4.6617 6.0849 7.2389 4.1672zm5.3881-21.458c0-1.6175-0.45-3.2191-1-3.559-0.59512-0.3678-1 0.82295-1 2.941 0 1.9575 0.45 3.559 1 3.559s1-1.3234 1-2.941zm139.63-15.809c-0.29249-1.5125-1.0912-6.926-1.775-12.03-1.0739-8.0162-1.523-9.3417-3.2977-9.7332-13.953-3.0776-31.554-4.4703-31.554-2.4968 0 0.54453 2.8721 2.2923 6.3825 3.884 3.5104 1.5917 9.0799 5.3087 12.377 8.26 9.9794 8.9336 17.062 14.866 17.749 14.866 0.35773 0 0.4111-1.2375 0.11862-2.75zm-172.66-0.34111c1.3595-0.55468 2.754-1.4652 3.099-2.0234 0.84299-1.364-0.0758-5.8855-1.196-5.8855-1.5664 0-9.3748 6.0989-9.3748 7.3224 0 1.5331 4.3205 1.8722 7.4718 0.58648zm-39.972-102.29c0-0.75791 1.0063-2.0462 2.2363-2.8628 1.95-1.2947 2.059-1.6984 0.85161-3.1532-1.1957-1.4407-1.1396-1.8476 0.41119-2.9816 2.1076-1.5411 1.569-4.762-1.4421-8.6243-1.5601-2.0012-2.1992-2.2506-3.203-1.25-0.68969 0.6875-1.5729 1.25-1.9627 1.25-0.38979 0-3.1021-3.0375-6.0273-6.75-3.8773-4.9208-5.4132-6.2714-5.6677-4.9838-0.19201 0.97141 0.80627 3.8334 2.2184 6.36 1.4121 2.5266 2.2958 5.0334 1.9637 5.5707-1.144 1.851 2.826 8.8164 5.392 9.4604 2.1223 0.53265 2.3773 1.0453 1.9204 3.8605-0.49005 3.0199 0.63695 5.4823 2.5092 5.4823 0.44 0 0.8-0.62011 0.8-1.378zm35.366-2.872c0.77691-1.2375 2.0039-4.725 2.7266-7.75s4.3133-13.074 7.9791-22.332c4.9888-12.599 6.3298-16.96 5.332-17.343-2.1873-0.83935-7.4041 3.5196-7.4041 6.1866 0 2.4532-3.2712 5.4715-5.9725 5.5108-0.84012 0.0122-2.6074 0.85248-3.9272 1.8672-2.2889 1.7598-2.3235 1.9538-0.75 4.2003 1.9547 2.7908 2.0826 5.6209 0.38496 8.519-0.67939 1.1598-2.6791 4.8224-4.4437 8.1392l-3.2085 6.0305 3.5922 4.6108c1.9757 2.5359 3.7467 4.6108 3.9354 4.6108 0.18875 0 0.97883-1.0125 1.7557-2.25zm-20.865-23c-0.29504-1.2375-0.71599-3.6-0.93543-5.25-0.21945-1.65-1.6102-7.95-3.0906-14-1.4804-6.05-2.9172-12.462-3.193-14.25-0.29093-1.8856-1.091-3.25-1.9056-3.25-0.77229 0-2.2776-0.54547-3.3451-1.2122-2.5008-1.5618-3.8058-0.25672-2.2441 2.2441 0.66668 1.0675 1.2122 3.4436 1.2122 5.2802 0 2.2533 0.79902 4.0899 2.4569 5.6474 2.2892 2.1506 4.4147 8.9643 5.0038 16.041 0.29781 3.5774 1.6518 8.2926 2.7997 9.75 1.6985 2.1564 3.8366 1.4968 3.2413-1zm-7.5017-7.632c0-0.55-0.45-1.2781-1-1.618s-1-0.16803-1 0.38197 0.45 1.2781 1 1.618 1 0.16803 1-0.38197z" fill="#000e07"/>
   </g>
  </g>
 </g>
</svg>
