<?xml version="1.0" encoding="UTF-8"?>
<!-- Created with Inkscape (http://www.inkscape.org/) -->
<svg id="svg1" width="291.1" height="148.67" version="1.0" xmlns="http://www.w3.org/2000/svg" xmlns:cc="http://creativecommons.org/ns#" xmlns:dc="http://purl.org/dc/elements/1.1/" xmlns:rdf="http://www.w3.org/1999/02/22-rdf-syntax-ns#" xmlns:xlink="http://www.w3.org/1999/xlink">
 <metadata id="metadata34">
  <rdf:RDF>
   <cc:Work rdf:about="">
    <dc:format>image/svg+xml</dc:format>
    <dc:type rdf:resource="http://purl.org/dc/dcmitype/StillImage"/>
   </cc:Work>
  </rdf:RDF>
 </metadata>
 <defs id="defs3">
  <linearGradient id="linearGradient1017">
   <stop id="stop1019" stop-color="#fff" stop-opacity=".175" offset="0"/>
   <stop id="stop1018" stop-color="#fff" stop-opacity=".375" offset="1"/>
  </linearGradient>
  <linearGradient id="linearGradient1021" x1="-8.4762" x2="9.7079" y1="-177.46" y2="-157.48" gradientTransform="scale(1.5789 .63334)" gradientUnits="userSpaceOnUse">
   <stop id="stop1024" stop-opacity=".40833" offset="0"/>
   <stop id="stop1023" stop-opacity="0" offset="1"/>
  </linearGradient>
  <linearGradient id="linearGradient1025" x1="-3.1914" x2="12.01" y1="-154.59" y2="-127.91" gradientTransform="scale(1.5552 .64301)" gradientUnits="userSpaceOnUse" xlink:href="#linearGradient1017"/>
  <linearGradient id="linearGradient1026" x1="-27.045" x2="-19.673" y1="-210.39" y2="-178.84" gradientTransform="scale(1.9161 .52189)" gradientUnits="userSpaceOnUse" xlink:href="#linearGradient1017"/>
 </defs>
 <g id="g1875" transform="translate(-15.581 -55.789)">
  <path id="path1235" d="m200.7 60.432c-1.6183 0.08386-3.2772 0.40704-4.9062 1-41.466 17.789-84.101-2.381-100.69 16.594-10.919 12.491-16.897 37.715-19.875 53.937-0.06433 0.01585-0.18599 0.04669-0.25 0.0625-0.16044 0.88328-0.26975 2.0714-0.40625 3.125-1.0184 5.8861-1.6471 10.342-1.7812 11.438-30.796 13.452-65.288 60.29-45.219 53.594 45.02-36.763 214.63-67.52 264.19-62.969 5.468-5.671-10.511-11.624-48.531-21.406 1.2117-10.247-19.732-56.557-42.531-55.375z" fill-opacity=".039216" fill-rule="evenodd"/>
  <path id="path1871" d="m203.43 61.151c-1.6183 0.08386-3.2772 0.40704-4.9062 1-41.466 17.789-84.101-2.381-100.69 16.594-10.919 12.491-16.897 37.715-19.875 53.938-0.06433 0.01585-0.18599 0.04669-0.25 0.0625-0.16044 0.88328-0.26975 2.0714-0.40625 3.125-1.0184 5.8861-1.6471 10.342-1.7812 11.438-30.796 13.452-65.288 60.29-45.219 53.594 45.02-36.763 214.63-67.52 264.19-62.969 5.468-5.671-10.511-11.624-48.531-21.406 1.2117-10.247-19.732-56.557-42.531-55.375z" fill-opacity=".039216" fill-rule="evenodd"/>
  <path id="path1872" d="m206.34 62.605c-1.6183 0.08386-3.2772 0.40704-4.9062 1-41.466 17.789-84.101-2.381-100.69 16.594-10.919 12.491-16.897 37.715-19.875 53.937-0.06433 0.01585-0.18599 0.04669-0.25 0.0625-0.16044 0.88328-0.26975 2.0714-0.40625 3.125-1.0184 5.8861-1.6471 10.342-1.7812 11.438-30.796 13.452-65.288 60.29-45.219 53.594 45.02-36.763 214.63-67.52 264.19-62.969 5.468-5.671-10.511-11.624-48.531-21.406 1.2117-10.247-19.732-56.557-42.531-55.375z" fill-opacity=".039216" fill-rule="evenodd"/>
  <path id="path1873" d="m210.21 63.09c-1.6183 0.08386-3.2772 0.40704-4.9062 1-41.466 17.789-84.101-2.381-100.69 16.594-10.919 12.491-16.897 37.715-19.875 53.937-0.06433 0.01585-0.18599 0.04669-0.25 0.0625-0.16044 0.88328-0.26975 2.0714-0.40625 3.125-1.0184 5.8861-1.6471 10.342-1.7812 11.438-30.796 13.452-65.288 60.29-45.219 53.594 45.02-36.763 214.63-67.52 264.19-62.969 5.468-5.671-10.511-11.624-48.531-21.406 1.2117-10.247-19.732-56.557-42.531-55.375z" fill-opacity=".039216" fill-rule="evenodd"/>
  <path id="path1874" d="m214.57 64.059c-1.6183 0.08386-3.2772 0.40704-4.9062 1-41.466 17.789-84.101-2.381-100.69 16.594-10.919 12.491-16.897 37.715-19.875 53.938-0.06433 0.01585-0.18599 0.04669-0.25 0.0625-0.16044 0.88328-0.26975 2.0714-0.40625 3.125-1.0184 5.8861-1.6471 10.342-1.7812 11.438-30.796 13.452-65.288 60.29-45.219 53.594 45.02-36.763 214.63-67.52 264.19-62.969 5.468-5.671-10.511-11.624-48.531-21.406 1.2117-10.247-19.732-56.557-42.531-55.375z" fill-opacity=".039216" fill-rule="evenodd"/>
  <g id="g1446" transform="translate(167.5,178.75)">
   <path id="path898" d="m-33.416-86.995c31.845-3.6501 52.509 0.9566 68.918 12.41" fill="none" stroke="#000" stroke-width=".94826pt"/>
   <path id="path912" d="m27.759-122.35c-1.6183 0.08387-3.258 0.41507-4.8871 1.008-41.466 17.789-84.117-2.3718-100.7 16.603-15.873 18.158-21.807 64.494-22.303 68.546-30.796 13.452-65.297 60.3-45.228 53.604 45.02-36.763 214.62-67.533 264.18-62.982 5.468-5.671-10.504-11.614-48.525-21.396 1.2117-10.247-19.733-56.564-42.532-55.382z" fill="#005d00" fill-rule="evenodd" stroke="#000" stroke-width=".94826pt"/>
   <path id="path911" d="m-100.15-36.243c32.307-9.6683 108.08-25.765 170.08-30.567-0.94801-4.4682-0.58733-4.987-1.7579-9.025-25.484-2.3711-126.27 15.235-166.12 25.075-0.87894 4.839-1.3184 13.197-2.1974 14.517z" fill-opacity=".99167" fill-rule="evenodd"/>
   <path id="path913" d="m5.2101-68.323s30.288-6.0227 34.909-4.647c2.9975 2.7297 1.7074 5.6676-0.66612 7.3345-3.9967 1.6669-27.478 4.7518-32.515 4.9178-2.3314-0.10476-4.0592-5.605-1.7278-7.6053z" fill="#fff" fill-opacity=".48333" fill-rule="evenodd"/>
   <path id="path588" d="m1.6135-111.3c-10.624 5.8892-68.153 26.517-76.637 22.149-9.0447-1.9929-7.9588-5.9139-3.7403-7.1888 7.4181 2.9572 9.27 11.257 80.377-14.96z" fill="url(#linearGradient1026)" fill-rule="evenodd" stroke-width="1pt"/>
   <path id="path583" d="m37.972-105.3c-5.6489 16.832-18.18 41.28-73.914 25.442 41.218-4.0003 48.646-12.038 73.914-25.442z" fill="url(#linearGradient1025)" fill-rule="evenodd" stroke-width="1pt"/>
   <path id="path578" d="m35.001-111.47c-21.213-6.9445-64.123 12.784-72.31 23.766 0.53009 12.232 64.899-7.6577 72.31-23.766z" fill="url(#linearGradient1021)" fill-rule="evenodd" stroke-width="1pt"/>
  </g>
 </g>
</svg>
