<?xml version="1.0" encoding="UTF-8"?>
<!DOCTYPE svg  PUBLIC '-//W3C//DTD SVG 1.0//EN'  'http://www.w3.org/TR/2001/REC-SVG-20010904/DTD/svg10.dtd'>
<!-- Created with Inkscape (http://www.inkscape.org/) -->
<svg id="svg1" width="80pt" height="80pt" xmlns="http://www.w3.org/2000/svg">
 <path id="path864" d="m55.406 1.4062c-4.1535 0.26417-7.9831 1.6259-11.188 3.8125-6.4088 4.3733-10.488 11.427-12.656 18.906 1.2743 4.1973 5.6264 5.8939 9.5938 2.7812 1.6793-5.7936 4.9045-10.856 8.6875-13.438 3.7434-2.5544 7.8957-3.3463 14.219-0.40625 1.1137 0.63147 1.7154 1.4252 2.1875 3.4062 0.48372 2.0298 0.50037 5.141-0.09375 8.875-1.1882 7.468-4.6826 17.25-8.9062 26.781-8.4472 19.062-20.04 37.92-20.25 38.25-0.26536 4.6772 4.4708 7.2383 8.4375 5.375 1.1364-1.7858 12.155-19.673 20.969-39.562 4.407-9.9448 8.183-20.187 9.625-29.25 0.72102-4.5316 0.88611-8.8007-0.0625-12.781s-3.3436-7.834-7.1875-9.9375l-0.25-0.125c-4.4957-2.1313-8.9715-2.9517-13.125-2.6875z" fill="#fff" fill-rule="evenodd" stroke="#f06" stroke-linejoin="round" stroke-width="1.25"/>
 <path id="path866" d="m31.933 24.179c2.5008-3.655 8.8488-1.5389 9.4259 2.3084" fill="none" stroke="#f06" stroke-width="1pt"/>
 <path id="path867" d="m36.742 90.189c6.1557-2.5008 9.426 2.116 8.8489 4.8092 0.38473 2.5008 8.8488-15.005 8.8488-15.005-3.0779-0.38473-9.2336-0.5771-12.889 2.5008-2.3084 2.5008-4.8092 7.6947-4.8092 7.6947z" fill="#f06" fill-rule="evenodd"/>
 <path id="path868" d="m47.707 70.568c4.6168-2.5008 10.965-2.8855 13.273-2.5008 0.19237 0.5771 5.771-12.311 5.771-12.311-3.9114-0.19237-7.8229-0.76947-11.734 1.7313l-7.3099 13.081z" fill="#f06" fill-rule="evenodd"/>
 <path id="path870" d="m60.018 45.56c3.7832-2.116 7.9511-1.7313 11.927-2.3084l3.2702-11.734c-3.5267-0.38473-7.4382 0-11.157 2.3084l-4.0397 11.734z" fill="#f06" fill-rule="evenodd"/>
 <path id="path871" d="m66.559 22.476c3.0137-4.5527 6.0275-7.9511 9.0412-8.4641-1.2183-4.2321-3.9756-8.6565-9.426-10.965-2.9496 2.4366-4.5527 5.8351-4.2321 9.0412 4.2321 2.3084 5.1939 6.3481 4.6168 10.388z" fill="#f06" fill-rule="evenodd"/>
 <path id="path873" d="m54.632 11.127c-3.5908-1.7313-7.7588-4.0397-9.2336-6.9252-4.745 3.2061-6.7969 6.2198-10.195 10.195 2.8855 2.5649 7.1176 2.629 10.003 3.655 2.9496-4.0397 3.9756-5.0015 9.4259-6.9252z" fill="#f06" fill-rule="evenodd"/>
 <path id="path875" d="m38.281 87.496c10.388-12.504 31.548-61.557 28.278-69.06 0-2.116 0.38473-2.116 2.116-1.9237 3.8473 12.504-25.2 70.406-26.739 71.176-1.5389 0.76946-3.655-0.19237-3.655-0.19237z" fill="#fff" fill-opacity=".5" fill-rule="evenodd"/>
 <path id="path876" d="m33.664 20.745c0.19237-7.887 12.696-18.275 20.198-18.275 2.5008 0 0.5771 0.5771 0.5771 0.5771-11.542 2.8855-18.082 12.889-18.66 17.313 0.19237 0.76946-2.116 0.38473-2.116 0.38473z" fill="#fff" fill-opacity=".5" fill-rule="evenodd"/>
 <metadata>
  <rdf:RDF xmlns="http://web.resource.org/cc/" xmlns:dc="http://purl.org/dc/elements/1.1/" xmlns:rdf="http://www.w3.org/1999/02/22-rdf-syntax-ns#">
   <Work rdf:about="">
    <dc:title>Candy</dc:title>
    <dc:description/>
    <dc:subject>
     <rdf:Bag>
      <rdf:li>unsorted</rdf:li>
     </rdf:Bag>
    </dc:subject>
    <dc:publisher>
     <Agent rdf:about="http://www.openclipart.org">
      <dc:title>HASH(0x88b272c)</dc:title>
     </Agent>
    </dc:publisher>
    <dc:creator>
     <Agent rdf:about="">
      <dc:title>Nicu Buculei</dc:title>
     </Agent>
    </dc:creator>
    <dc:rights>
     <Agent rdf:about="">
      <dc:title>Nicu Buculei</dc:title>
     </Agent>
    </dc:rights>
    <dc:date/>
    <dc:format>image/svg+xml</dc:format>
    <dc:type rdf:resource="http://purl.org/dc/dcmitype/StillImage"/>
    <license rdf:resource="http://web.resource.org/cc/PublicDomain">
     <dc:date/>
    </license>
    <dc:language>en</dc:language>
   </Work>
   <License rdf:about="http://web.resource.org/cc/PublicDomain">
    <permits rdf:resource="http://web.resource.org/cc/Reproduction"/>
    <permits rdf:resource="http://web.resource.org/cc/Distribution"/>
    <permits rdf:resource="http://web.resource.org/cc/DerivativeWorks"/>
   </License>
  </rdf:RDF>
 </metadata>
</svg>
