<?xml version="1.0" encoding="UTF-8"?>
<!-- Generator: Adobe Illustrator 12.0.0, SVG Export Plug-In . SVG Version: 6.00 Build 51448)  -->
<svg id="Layer_1" width="282.15" height="416.42" enable-background="new 0 0 282.153 416.418" sodipodi:docbase="F:\openclip\wmf\01" sodipodi:docname="spaventapasseri.svg" sodipodi:version="0.32" space="preserve" version="1.1" viewBox="0 0 282.15 416.42" xmlns="http://www.w3.org/2000/svg" xmlns:cc="http://web.resource.org/cc/" xmlns:dc="http://purl.org/dc/elements/1.1/" xmlns:rdf="http://www.w3.org/1999/02/22-rdf-syntax-ns#" xmlns:sodipodi="http://inkscape.sourceforge.net/DTD/sodipodi-0.dtd">
 <metadata>
  <rdf:RDF xmlns:cc="http://web.resource.org/cc/" xmlns:dc="http://purl.org/dc/elements/1.1/" xmlns:rdf="http://www.w3.org/1999/02/22-rdf-syntax-ns#">
   <cc:Work rdf:about="">
    <dc:title>Various Cliparts</dc:title>
    <dc:description/>
    <dc:subject>
     <rdf:Bag>
      <rdf:li/>
     </rdf:Bag>
    </dc:subject>
    <dc:publisher>
     <cc:Agent rdf:about="http://www.openclipart.org/">
      <dc:title/>
     </cc:Agent>
    </dc:publisher>
    <dc:creator>
     <cc:Agent>
      <dc:title>Architetto Francesco Rollandin</dc:title>
     </cc:Agent>
    </dc:creator>
    <dc:rights>
     <cc:Agent>
      <dc:title>Architetto Francesco Rollandin</dc:title>
     </cc:Agent>
    </dc:rights>
    <dc:date/>
    <dc:format>image/svg+xml</dc:format>
    <dc:type rdf:resource="http://purl.org/dc/dcmitype/StillImage"/>
    <cc:license rdf:resource="http://web.resource.org/cc/PublicDomain"/>
    <dc:language>en</dc:language>
   </cc:Work>
   <cc:License rdf:about="http://web.resource.org/cc/PublicDomain">
    <cc:permits rdf:resource="http://web.resource.org/cc/Reproduction"/>
    <cc:permits rdf:resource="http://web.resource.org/cc/Distribution"/>
    <cc:permits rdf:resource="http://web.resource.org/cc/DerivativeWorks"/>
   </cc:License>
  </rdf:RDF>
 </metadata>
 <sodipodi:namedview id="base" bordercolor="#666666" borderopacity="1.0" pagecolor="#ffffff"/>
 <path id="path3" d="m111.44 114.28c13.619-2.09 27.812-3.606 41.606-3.394 3.064 0.047 20.595-0.332 19.202 5.757-2.473 10.814-4.945 21.628-7.418 32.442-1.355 5.928-0.115 13.389-6.797 12.872-11.906-0.921-23.813-1.842-35.719-2.764-13.336-1.031-9.682-32.988-10.874-44.913" fill="#FF7F00"/>
 <path id="path5" d="m111.44 114.28c13.619-2.09 27.812-3.606 41.606-3.394 3.064 0.047 20.595-0.332 19.202 5.757-2.473 10.814-4.945 21.628-7.418 32.442-1.355 5.928-0.115 13.389-6.797 12.872-11.906-0.921-23.813-1.842-35.719-2.764-13.336-1.031-9.682-32.988-10.874-44.913" fill="none" stroke="#f00" stroke-linecap="square" stroke-miterlimit="10" stroke-width="2"/>
 <path id="path7" d="m234.03 179c4.663 5.812 12.906 9.969 18.908 14.467 8.599 6.444 15.646 2.98 5.393-4.568-13.36-9.836 6.438 2.059 10.217 3.108 15.59 4.333-6.199-11.266-9.646-12.88 3.41 1.481 19.326 9.345 20.939 4.188 1.609-5.145-16.621-10.119-19.797-10.787 2.904 0.731 22.147 6.571 21.065-0.508-1.132-7.402-22.36-3.602-26.776-7.741 3.06-0.724 18.493-6.024 8.503-8.883-14.438-4.131-28.995 10.754-28.806 23.604" fill="#fff"/>
 <path id="path9" d="m234.03 179c4.663 5.812 12.906 9.969 18.908 14.467 8.599 6.444 15.646 2.98 5.393-4.568-13.36-9.836 6.438 2.059 10.217 3.108 15.59 4.333-6.199-11.266-9.646-12.88 3.41 1.481 19.326 9.345 20.939 4.188 1.609-5.145-16.621-10.119-19.797-10.787 2.904 0.731 22.147 6.571 21.065-0.508-1.132-7.402-22.36-3.602-26.776-7.741 3.06-0.724 18.493-6.024 8.503-8.883-14.354-4.107-28.93 10.478-28.807 23.731" fill="none" stroke="#404040" stroke-linecap="square" stroke-miterlimit="10" stroke-width="2"/>
 <path id="path11" d="m227.68 171.39c2.46-3.846 14.206-23.85 14.212-9.264 3e-3 9.759-15.091 24.016-14.212 9.264" fill="#fff"/>
 <path id="path13" d="m227.68 171.39c2.46-3.846 14.206-23.85 14.212-9.264 3e-3 9.759-15.091 24.016-14.212 9.264" fill="none" stroke="#000" stroke-linecap="square" stroke-miterlimit="10" stroke-width="2"/>
 <path id="path15" d="m47.988 177.86c-4.213 5.202-13.783 11.852-19.797 15.101-13.574 7.333-7.864 0.856-3.045-6.217 7.126-10.461-6.283 4.74-12.69 4.441-13.954-0.65 6.796-11.329 10.787-13.198-3.427 1.432-19.508 9.35-20.939 4.061-1.379-5.096 16.609-10.083 19.924-10.66-2.972 0.693-22.141 6.471-21.193-0.507 1.022-7.526 22.398-3.486 26.777-7.869-3.426-0.706-18.109-5.388-8.502-8.82 13.908-4.969 29.429 11.452 28.678 23.668" fill="#fff"/>
 <path id="path17" d="m47.988 177.86c-4.213 5.202-13.783 11.852-19.797 15.101-13.574 7.333-7.864 0.856-3.045-6.217 7.126-10.461-6.283 4.74-12.69 4.441-13.954-0.65 6.796-11.329 10.787-13.198-3.427 1.432-19.508 9.35-20.939 4.061-1.379-5.096 16.609-10.083 19.924-10.66-2.972 0.693-22.141 6.471-21.193-0.507 1.022-7.526 22.398-3.486 26.777-7.869-3.426-0.706-18.109-5.388-8.502-8.82 14.127-5.047 28.918 11.208 28.808 23.794" fill="none" stroke="#404040" stroke-linecap="square" stroke-miterlimit="10" stroke-width="2"/>
 <path id="path19" d="m54.333 170.12c-2.439-4.148-14.191-23.538-14.086-9.136 0.08 10.877 15.717 23.084 14.086 9.136" fill="#fff"/>
 <path id="path21" d="m54.333 170.12c-2.439-4.148-14.191-23.538-14.086-9.136 0.07 9.598 15.021 24.038 14.213 9.264" fill="none" stroke="#000" stroke-linecap="square" stroke-miterlimit="10" stroke-width="2"/>
 <path id="path23" d="m221.72 410.22c17.008-7.484 3.109-28.033-1.637-38.535-6.123-13.548-18.767-13.359-30.469-5.373-15.411 10.518-4.511 24.97 1.637 38.647 6.788 15.104 18.313 11.058 30.469 5.261" fill="#5A3D1C"/>
 <path id="path25" d="m221.72 410.22c17.008-7.484 3.109-28.033-1.637-38.535-6.123-13.548-18.767-13.359-30.469-5.373-15.411 10.518-4.511 24.97 1.637 38.647 6.822 15.181 18.012 10.939 30.596 5.261" fill="none" stroke="#800000" stroke-linecap="square" stroke-miterlimit="10" stroke-width="2"/>
 <path id="path27" d="m26.669 379.89c-12.375 1.323-22.674-10.768-19.479-22.906 2.169-8.243 9.729-10.246 17.259-7.806 12.467 4.043 27.283-2.23 39.911 0.762 10.088 2.39 16.277 13.35 10.279 23.731-7.418 12.838-36.602 6.716-47.97 6.219" fill="#5A3D1C"/>
 <path id="path29" d="m26.669 379.89c-12.375 1.323-22.674-10.768-19.479-22.906 2.169-8.243 9.729-10.246 17.259-7.806 12.467 4.043 27.283-2.23 39.911 0.762 10.678 2.53 14.771 12.049 10.596 22.906-5.449 14.172-37.68 7.136-48.159 7.171" fill="none" stroke="#800000" stroke-linecap="square" stroke-miterlimit="10" stroke-width="2"/>
 <path id="path31" d="m225.65 393.85c-7.646-9.638-22.29-24.229-35.659-17.514 14.32-11.082 28.752 6.934 35.659 17.514" fill="#FF9F40"/>
 <path id="path33" d="m225.65 393.85c-7.646-9.638-22.29-24.229-35.659-17.514 14.467-11.197 28.282 6.974 35.787 17.514" fill="none" stroke="#BF0000" stroke-linecap="square" stroke-miterlimit="10" stroke-width="2"/>
 <path id="path35" d="m201.8 359.59c2.134 12.118 5.72 32.647 21.065 33.883-18.557 1.834-19.861-21.051-21.065-33.883" fill="#FF9F40"/>
 <path id="path37" d="m201.8 359.59c2.134 12.118 5.72 32.647 21.065 33.883-18.206 1.799-20.298-20.793-20.938-33.756" fill="none" stroke="#BF0000" stroke-linecap="square" stroke-miterlimit="10" stroke-width="2"/>
 <path id="path39" d="m203.82 351.85c3.648 11.639 12.502 30.823 27.284 28.934-17.233 6.129-24.304-16.736-27.284-28.934" fill="#FF9F40"/>
 <path id="path41" d="m203.82 351.85c3.648 11.639 12.502 30.823 27.284 28.934-17.243 6.134-24.17-16.662-27.284-28.807" fill="none" stroke="#BF0000" stroke-linecap="square" stroke-miterlimit="10" stroke-width="2"/>
 <path id="path43" d="m233.01 371.26c-12.185-0.692-32.618-4.991-34.39-19.67-1.467 17.977 22.187 19.982 34.39 19.67" fill="#FF9F40"/>
 <path id="path45" d="m233.01 371.26c-12.185-0.692-32.618-4.991-34.39-19.67-1.484 18.19 21.835 19.483 34.518 19.797" fill="none" stroke="#BF0000" stroke-linecap="square" stroke-miterlimit="10" stroke-width="2"/>
 <path id="path47" d="m201.54 360.6c0.99 12.113 0.524 33.22-13.959 37.182 18.004-1.34 16.268-24.787 13.959-37.182" fill="#FF9F40"/>
 <path id="path49" d="m201.54 360.6c0.99 12.113 0.524 33.22-13.959 37.182 18.23-1.356 15.822-24.56 14.087-37.182" fill="none" stroke="#BF0000" stroke-linecap="square" stroke-miterlimit="10" stroke-width="2"/>
 <path id="path51" d="m185.93 366.19c8.624 8.826 20.832 22.568 13.96 35.66 14.56-13.615-3.474-27.736-13.96-35.66" fill="#FF9F40"/>
 <path id="path53" d="m185.93 366.19c8.624 8.826 20.832 22.568 13.96 35.66 14.326-13.396-3.045-27.925-13.96-35.533" fill="none" stroke="#BF0000" stroke-linecap="square" stroke-miterlimit="10" stroke-width="2"/>
 <path id="path55" d="m197.61 356.03c1.093 12.209 0.395 33.346-14.087 37.31 18.406-1.06 15.871-24.85 14.087-37.31" fill="#FF9F40"/>
 <path id="path57" d="m197.61 356.03c1.093 12.209 0.395 33.346-14.087 37.31 18.308-1.055 15.954-24.739 14.087-37.183" fill="none" stroke="#BF0000" stroke-linecap="square" stroke-miterlimit="10" stroke-width="2"/>
 <path id="path59" d="m197.1 398.55c0.142-12.386-1.786-32.83-16.498-36.168 18.338 0.283 17.446 23.371 16.498 36.168" fill="#FF9F40"/>
 <path id="path61" d="m197.1 398.55c0.142-12.386-1.786-32.83-16.498-36.168 18.338 0.283 17.446 23.371 16.498 36.168" fill="none" stroke="#BF0000" stroke-linecap="square" stroke-miterlimit="10" stroke-width="2"/>
 <path id="path63" d="m200.27 356.92c-6.118 10.487-16.116 29.127-4.947 39.468-16-9.674-1.846-29.302 4.947-39.468" fill="#FF9F40"/>
 <path id="path65" d="m200.27 356.92c-6.118 10.487-16.116 29.127-4.947 39.468-15.749-9.522-2.341-29.272 5.075-39.468" fill="none" stroke="#BF0000" stroke-linecap="square" stroke-miterlimit="10" stroke-width="2"/>
 <path id="path67" d="m206.74 352.1c-4.123 11.556-10.063 31.708 2.918 39.721-17.293-6.419-8.041-28.142-2.918-39.721" fill="#FF9F40"/>
 <path id="path69" d="m206.74 352.1c-4.123 11.556-10.063 31.708 2.918 39.721-17.131-6.357-8.274-28.095-2.918-39.595" fill="none" stroke="#BF0000" stroke-linecap="square" stroke-miterlimit="10" stroke-width="2"/>
 <path id="path71" d="m217.02 385.73c-8.597-8.638-22.307-24.563-14.086-37.182-12.658 13.678 4.631 28.726 14.086 37.182" fill="#FF9F40"/>
 <path id="path73" d="m217.02 385.73c-8.597-8.638-22.307-24.563-14.086-37.182-12.485 13.489 4.186 28.771 14.212 37.182" fill="none" stroke="#BF0000" stroke-linecap="square" stroke-miterlimit="10" stroke-width="2"/>
 <path id="path75" d="m199.51 357.43c-6.582 10.073-20.964 26.262-34.393 19.924 14.786 10.684 28.209-8.942 34.393-19.924" fill="#FF9F40"/>
 <path id="path77" d="m199.51 357.43c-6.582 10.073-20.964 26.262-34.393 19.924 14.852 10.732 27.958-8.973 34.393-19.798" fill="none" stroke="#BF0000" stroke-linecap="square" stroke-miterlimit="10" stroke-width="2"/>
 <path id="path79" d="m183.77 351.97c1.729 12.052 1.603 30.8-11.675 36.294 19.651-0.737 15.407-23.805 11.675-36.294" fill="#FF9F40"/>
 <path id="path81" d="m183.77 351.97c1.729 12.052 1.603 30.8-11.675 36.294 19.651-0.737 15.407-23.805 11.675-36.294" fill="none" stroke="#BF0000" stroke-linecap="square" stroke-miterlimit="10" stroke-width="2"/>
 <path id="path83" d="m199.26 351.47c-6.857 10.188-20.636 25.879-34.39 19.924 14.753 10.673 28.128-9.06 34.39-19.924" fill="#FF9F40"/>
 <path id="path85" d="m199.26 351.47c-6.857 10.188-20.636 25.879-34.39 19.924 14.821 10.723 27.874-9.093 34.39-19.797" fill="none" stroke="#BF0000" stroke-linecap="square" stroke-miterlimit="10" stroke-width="2"/>
 <path id="path87" d="m83.521 373.29c-7.845-9.19-22.382-24.64-35.659-17.387 14.128-12.085 28.481 7.74 35.659 17.387" fill="#FF9F40"/>
 <path id="path89" d="m83.521 373.29c-7.845-9.19-22.382-24.64-35.659-17.387 13.959-11.94 28.513 7.324 35.659 17.513" fill="none" stroke="#BF0000" stroke-linecap="square" stroke-miterlimit="10" stroke-width="2"/>
 <path id="path91" d="m59.664 339.03c1.564 12.273 5.938 32.603 21.065 33.884-18.333 1.797-20.296-20.827-21.065-33.884" fill="#FF9F40"/>
 <path id="path93" d="m59.664 339.03c1.564 12.273 5.938 32.603 21.065 33.884-18.294 1.793-20.26-20.721-21.065-33.757" fill="none" stroke="#BF0000" stroke-linecap="square" stroke-miterlimit="10" stroke-width="2"/>
 <path id="path95" d="m61.567 331.29c3.975 11.635 12.365 30.879 27.41 28.935-17.35 6.002-24.256-16.634-27.41-28.935" fill="#FF9F40"/>
 <path id="path97" d="m61.567 331.29c3.975 11.635 12.365 30.879 27.41 28.935-17.364 6.007-24.115-16.563-27.41-28.808" fill="none" stroke="#BF0000" stroke-linecap="square" stroke-miterlimit="10" stroke-width="2"/>
 <path id="path99" d="m90.881 350.7c-12.341-0.738-32.438-4.962-34.517-19.67-1.219 17.98 21.827 19.958 34.517 19.67" fill="#FF9F40"/>
 <path id="path101" d="m90.881 350.7c-12.341-0.738-32.438-4.962-34.517-19.67-1.235 18.209 21.659 19.479 34.517 19.796" fill="none" stroke="#BF0000" stroke-linecap="square" stroke-miterlimit="10" stroke-width="2"/>
 <path id="path103" d="m55.222 341.44c1.092 12.209 0.395 33.344-14.086 37.31 18.405-1.062 15.869-24.85 14.086-37.31" fill="#FF9F40"/>
 <path id="path105" d="m55.222 341.44c1.092 12.209 0.395 33.344-14.086 37.31 18.306-1.056 15.953-24.739 14.086-37.183" fill="none" stroke="#BF0000" stroke-linecap="square" stroke-miterlimit="10" stroke-width="2"/>
 <path id="path107" d="m43.674 345.76c9.184 8.19 20.54 22.829 13.959 35.533 14.666-12.964-3.086-28.373-13.959-35.533" fill="#FF9F40"/>
 <path id="path109" d="m43.674 345.76c9.184 8.19 20.54 22.829 13.959 35.533 14.742-13.031-3.181-28.107-13.833-35.533" fill="none" stroke="#BF0000" stroke-linecap="square" stroke-miterlimit="10" stroke-width="2"/>
 <path id="path111" d="m49.131 338.52c1.095 12.238 0.444 33.149-13.959 37.311 18.032-1.363 16.189-24.791 13.959-37.311" fill="#FF9F40"/>
 <path id="path113" d="m49.131 338.52c1.095 12.238 0.444 33.149-13.959 37.311 18.189-1.375 15.819-24.583 14.086-37.183" fill="none" stroke="#BF0000" stroke-linecap="square" stroke-miterlimit="10" stroke-width="2"/>
 <path id="path115" d="m62.836 377.1c0.25-12.327-2.012-32.982-16.624-36.167 18.37 0.129 17.57 23.387 16.624 36.167" fill="#FF9F40"/>
 <path id="path117" d="m62.836 377.1c0.25-12.327-2.012-32.982-16.624-36.167 18.37 0.129 17.57 23.387 16.624 36.167" fill="none" stroke="#BF0000" stroke-linecap="square" stroke-miterlimit="10" stroke-width="2"/>
 <path id="path119" d="m48.623 335.35c-6.278 10.493-16.25 29.181-5.076 39.595-15.598-10.008-2.223-29.116 5.076-39.595" fill="#FF9F40"/>
 <path id="path121" d="m48.623 335.35c-6.278 10.493-16.25 29.181-5.076 39.595-15.408-9.886-2.541-29.151 5.076-39.467" fill="none" stroke="#BF0000" stroke-linecap="square" stroke-miterlimit="10" stroke-width="2"/>
 <path id="path123" d="m64.994 331.92c-4.231 11.671-9.909 31.444 2.918 39.721-17.119-6.558-8.251-28.115-2.918-39.721" fill="#FF9F40"/>
 <path id="path125" d="m64.994 331.92c-4.231 11.671-9.909 31.444 2.918 39.721-17.119-6.558-8.251-28.115-2.918-39.721" fill="none" stroke="#BF0000" stroke-linecap="square" stroke-miterlimit="10" stroke-width="2"/>
 <path id="path127" d="m74.892 365.17c-8.65-8.815-22.395-24.295-14.086-37.182-13.066 12.929 4.442 29.093 14.086 37.182" fill="#FF9F40"/>
 <path id="path129" d="m74.892 365.17c-8.65-8.815-22.395-24.295-14.086-37.182-13.066 12.929 4.442 29.093 14.086 37.182" fill="none" stroke="#BF0000" stroke-linecap="square" stroke-miterlimit="10" stroke-width="2"/>
 <path id="path131" d="m52.304 333.19c-6.916 9.879-20.751 26.366-34.391 19.924 14.628 10.865 28.199-9.179 34.391-19.924" fill="#FF9F40"/>
 <path id="path133" d="m52.304 333.19c-6.916 9.879-20.751 26.366-34.391 19.924 14.694 10.914 27.947-9.212 34.391-19.796" fill="none" stroke="#BF0000" stroke-linecap="square" stroke-miterlimit="10" stroke-width="2"/>
 <path id="path135" d="m41.517 331.42c1.795 11.969 1.653 30.835-11.548 36.294 19.311-1.053 15.735-23.826 11.548-36.294" fill="#FF9F40"/>
 <path id="path137" d="m41.517 331.42c1.795 11.969 1.653 30.835-11.548 36.294 19.541-1.065 15.3-23.604 11.675-36.294" fill="none" stroke="#BF0000" stroke-linecap="square" stroke-miterlimit="10" stroke-width="2"/>
 <path id="path139" d="m53.953 339.03c-10.57 5.791-30.693 13.102-39.594 1.27 8.036 15.817 29.457 5.585 39.594-1.27" fill="#FF9F40"/>
 <path id="path141" d="m53.953 339.03c-10.57 5.791-30.693 13.102-39.594 1.27 8.183 16.108 28.873 5.146 39.721-1.143" fill="none" stroke="#BF0000" stroke-linecap="square" stroke-miterlimit="10" stroke-width="2"/>
 <path id="path143" d="m27.938 187.25c9.551-7.826 23.55-23.006 16.497-36.167 11.57 14.095-6.02 28.895-16.497 36.167" fill="#FF9F40"/>
 <path id="path145" d="m27.938 187.25c9.551-7.826 23.55-23.006 16.497-36.167 11.686 14.236-6.067 28.431-16.497 36.294" fill="none" stroke="#BF0000" stroke-linecap="square" stroke-miterlimit="10" stroke-width="2"/>
 <path id="path147" d="m61.441 162.51c-12.148 2.042-32.213 6.872-33.123 21.955-2.881-18.036 20.599-20.859 33.123-21.955" fill="#FF9F40"/>
 <path id="path149" d="m61.441 162.51c-12.148 2.042-32.213 6.872-33.123 21.955-2.881-18.036 20.599-20.859 33.123-21.955" fill="none" stroke="#BF0000" stroke-linecap="square" stroke-miterlimit="10" stroke-width="2"/>
 <path id="path151" d="m69.181 164.16c-11.35 4.693-30.24 13.082-28.045 28.171-6.451-17.588 16.538-24.14 28.045-28.171" fill="#FF9F40"/>
 <path id="path153" d="m69.181 164.16c-11.35 4.693-30.24 13.082-28.045 28.171-6.296-17.164 15.956-24.599 28.171-28.045" fill="none" stroke="#BF0000" stroke-linecap="square" stroke-miterlimit="10" stroke-width="2"/>
 <path id="path155" d="m50.654 193.98c1-12.149 3.819-32.98 18.908-34.898-18.343-1.614-19.065 22.864-18.908 34.898" fill="#FF9F40"/>
 <path id="path157" d="m50.654 193.98c1-12.149 3.819-32.98 18.908-34.898-18.284-1.61-19.063 22.555-18.908 35.024" fill="none" stroke="#BF0000" stroke-linecap="square" stroke-miterlimit="10" stroke-width="2"/>
 <path id="path159" d="m60.552 162.25c-12.125 1.531-33.1 1.225-37.563-12.944 1.554 18.315 25.175 15.111 37.563 12.944" fill="#FF9F40"/>
 <path id="path161" d="m60.552 162.25c-12.125 1.531-33.1 1.225-37.563-12.944 1.554 18.315 25.175 15.111 37.563 12.944" fill="none" stroke="#BF0000" stroke-linecap="square" stroke-miterlimit="10" stroke-width="2"/>
 <path id="path163" d="m54.333 146.77c-8.097 9.139-22.08 21.243-35.025 14.975 13.701 13.987 27.92-3.737 35.025-14.975" fill="#FF9F40"/>
 <path id="path165" d="m54.333 146.77c-8.097 9.139-22.08 21.243-35.025 14.975 13.701 13.987 27.92-3.737 35.025-14.975" fill="none" stroke="#BF0000" stroke-linecap="square" stroke-miterlimit="10" stroke-width="2"/>
 <path id="path167" d="m64.866 158.06c-12.055 1.627-33.112 1.304-37.563-12.816 1.548 18.011 25.478 15.52 37.563 12.816" fill="#FF9F40"/>
 <path id="path169" d="m64.866 158.06c-12.055 1.627-33.112 1.304-37.563-12.816 1.565 18.224 25.249 15.098 37.563 12.944" fill="none" stroke="#BF0000" stroke-linecap="square" stroke-miterlimit="10" stroke-width="2"/>
 <path id="path171" d="m251.92 187.64c-9.298-8.18-23.689-22.799-16.497-36.168-11.691 13.969 6.153 28.528 16.497 36.168" fill="#FF9F40"/>
 <path id="path173" d="m251.92 187.64c-9.298-8.18-23.689-22.799-16.497-36.168-11.691 13.969 6.153 28.528 16.497 36.168" fill="none" stroke="#BF0000" stroke-linecap="square" stroke-miterlimit="10" stroke-width="2"/>
 <path id="path175" d="m218.29 162.76c12.109 2.063 32.514 6.911 33.248 22.082 2.92-18.441-20.759-20.613-33.248-22.082" fill="#FF9F40"/>
 <path id="path177" d="m218.29 162.76c12.109 2.063 32.514 6.911 33.248 22.082 2.867-18.104-20.483-21.019-33.122-21.954" fill="none" stroke="#BF0000" stroke-linecap="square" stroke-miterlimit="10" stroke-width="2"/>
 <path id="path179" d="m210.55 164.54c11.52 4.078 30.409 13.37 28.172 28.173 6.218-17.299-15.851-24.54-28.172-28.173" fill="#FF9F40"/>
 <path id="path181" d="m210.55 164.54c11.52 4.078 30.409 13.37 28.172 28.173 6.218-17.299-15.851-24.54-28.172-28.173" fill="none" stroke="#BF0000" stroke-linecap="square" stroke-miterlimit="10" stroke-width="2"/>
 <path id="path183" d="m229.08 194.36c-0.209-12.109-4.075-33.023-18.655-35.026 18.037-0.905 19.416 22.382 18.655 35.026" fill="#FF9F40"/>
 <path id="path185" d="m229.08 194.36c-0.209-12.109-4.075-33.023-18.655-35.026 18.267-0.917 18.94 22.202 18.782 35.026" fill="none" stroke="#BF0000" stroke-linecap="square" stroke-miterlimit="10" stroke-width="2"/>
 <path id="path187" d="m219.31 162.51c12.112 1.534 33.219 1.342 37.563-12.944-1.461 18.01-25.459 15.65-37.563 12.944" fill="#FF9F40"/>
 <path id="path189" d="m219.31 162.51c12.112 1.534 33.219 1.342 37.563-12.944-1.479 18.222-25.23 15.229-37.563 13.071" fill="none" stroke="#BF0000" stroke-linecap="square" stroke-miterlimit="10" stroke-width="2"/>
 <path id="path191" d="m225.4 147.02c8.19 9.087 22.17 21.382 35.152 14.975-13.633 14.563-27.891-4.448-35.152-14.975" fill="#FF9F40"/>
 <path id="path193" d="m225.4 147.02c8.19 9.087 22.17 21.382 35.152 14.975-13.411 14.325-28.092-4.009-35.024-14.975" fill="none" stroke="#BF0000" stroke-linecap="square" stroke-miterlimit="10" stroke-width="2"/>
 <path id="path195" d="m214.99 158.45c12.244 1.04 32.992 1.563 37.563-12.944-1.55 18.249-25.208 15.105-37.563 12.944" fill="#FF9F40"/>
 <path id="path197" d="m214.99 158.45c12.244 1.04 32.992 1.563 37.563-12.944-1.55 18.249-25.208 15.105-37.563 12.944" fill="none" stroke="#BF0000" stroke-linecap="square" stroke-miterlimit="10" stroke-width="2"/>
 <path id="path199" d="m59.283 173.68c-10.831 5.571-22.331-5.9-20.241-17.005 1.253-6.663 7.333-9.077 12.756-11.705l50.505-24.465c5.553-2.69 8.113-5.035 12.055 0.509 2.319 3.262 3.45 19.709 3.554 25.127 0.232 12.106-3.423 12.943-14.346 15.837-14.753 3.911-29.492 7.963-44.283 11.702" fill="#FF7F00"/>
 <path id="path201" d="m59.283 173.68c-10.831 5.571-22.331-5.9-20.241-17.005 1.081-5.747 5.808-8.339 10.596-10.658l50.505-24.465c18.095-8.766 15.982 7.365 17.579 22.75 1.126 10.861-1.087 14.215-11.116 16.873-15.732 4.168-31.464 8.337-47.196 12.506" fill="none" stroke="#BF0000" stroke-linecap="square" stroke-miterlimit="10" stroke-width="2"/>
 <path id="path203" d="m220.58 175.2c10.925 5.548 22.466-5.797 20.369-17.004-1.259-6.723-7.252-9.039-12.744-11.705-16.8-8.155-33.6-16.31-50.399-24.464-15.71-7.626-16.213 12.676-16.107 25.383 0.102 12.217 3.854 13.176 14.853 16.09 14.541 3.853 29.959 7.781 44.028 11.7" fill="#FF7F00"/>
 <path id="path205" d="m220.58 175.2c10.925 5.548 22.466-5.797 20.369-17.004-1.09-5.823-5.727-8.298-10.588-10.659-16.8-8.155-33.6-16.31-50.399-24.464-6.268-3.042-9.662-6.44-14.33-0.537-2.792 3.531-3.437 17.888-3.808 23.097-0.779 10.959 1.612 14.392 11.688 17.062 15.732 4.169 31.464 8.337 47.196 12.506" fill="none" stroke="#BF0000" stroke-linecap="square" stroke-miterlimit="10" stroke-width="2"/>
 <path id="path207" d="m124.38 153.62c15.482 0.331 35.029-2.63 49.746 4.061 12.399 5.638 8.088 33.363 6.979 44.416-2.247 22.422 11.348 49.16 17.782 70.806 6.387 21.48 8.492 44.597 12.299 66.643 2.492 14.433 11.291 42.019-15.36 39.582-23.548-2.152-21.271-39.138-23.94-55.277-4.171-25.214-8.324-44.056-18.393-67.415-9.999-23.198-39.748-6.27-54.443 4.312-16.7 12.023-14.976 22.679-18.72 43.272-2.404 13.226-1.356 37.449-12.295 46.555-11.044 9.192-32.323-0.78-30.353-15.129 2.305-16.786 5.063-33.482 8.035-50.162 2.622-14.713 4.718-28.396 15.606-39.004 11.414-11.12 22.616-22.456 34.133-33.471 6.125-5.857 8.667-7.232 8.33-15.661-0.446-11.161-0.893-22.323-1.339-33.484-0.275-6.876 18.015-10.62 21.933-10.044" fill="#0080FF"/>
 <path id="path209" d="m124.38 153.62c15.482 0.331 35.029-2.63 49.746 4.061 12.399 5.638 8.088 33.363 6.979 44.416-2.247 22.422 11.348 49.16 17.782 70.806 6.387 21.48 8.492 44.597 12.299 66.643 2.492 14.433 11.291 42.019-15.36 39.582-23.548-2.152-21.271-39.138-23.94-55.277-4.171-25.214-8.324-44.056-18.393-67.415-9.999-23.198-39.748-6.27-54.443 4.312-16.7 12.023-14.976 22.679-18.72 43.272-2.404 13.226-1.356 37.449-12.295 46.555-11.044 9.192-32.323-0.78-30.353-15.129 2.305-16.786 5.063-33.482 8.035-50.162 2.475-13.887 4.458-27.425 14.323-37.754 10.488-10.981 21.631-21.535 32.605-32.031 4.854-4.643 11.535-8.5 11.259-15.406l-1.398-34.95c-0.316-7.909 15.977-12.475 22-11.394" fill="none" stroke="#00f" stroke-linecap="square" stroke-miterlimit="10" stroke-width="2"/>
 <path id="path211" d="m156.62 196.9c0-5.664 3.56-28.852 0-32.488-1.518-1.55-31.986-1.55-33.503 0-1.55 1.583-1.55 30.905 0 32.488 3.54 3.617 27.813 0 33.503 0" fill="#409FFF"/>
 <path id="path213" d="m156.62 196.9c0-5.664 3.56-28.852 0-32.488-1.518-1.55-31.986-1.55-33.503 0-1.55 1.583-1.55 30.905 0 32.488 3.54 3.617 27.813 0 33.503 0" fill="none" stroke="#00f" stroke-linecap="square" stroke-miterlimit="10" stroke-width="2"/>
 <path id="path215" d="m155.1 169.49c13.07-7.774-26.706-8.84-29.951-6.217-12.214 9.874 25.74 6.217 29.951 6.217" fill="#409FFF"/>
 <path id="path217" d="m155.1 169.49c13.07-7.774-26.706-8.84-29.951-6.217-12.214 9.874 25.74 6.217 29.951 6.217" fill="none" stroke="#00f" stroke-linecap="square" stroke-miterlimit="10" stroke-width="2"/>
 <line id="line219" x1="125.78" x2="125.91" y1="172.79" y2="175.45" fill="none" stroke="#FFFF40" stroke-linecap="square" stroke-miterlimit="10"/>
 <line id="line221" x1="125.78" x2="125.91" y1="177.23" y2="179.89" fill="none" stroke="#FFFF40" stroke-linecap="square" stroke-miterlimit="10"/>
 <line id="line223" x1="125.78" x2="125.91" y1="182.05" y2="184.72" fill="none" stroke="#FFFF40" stroke-linecap="square" stroke-miterlimit="10"/>
 <line id="line225" x1="125.78" x2="125.91" y1="186.37" y2="189.03" fill="none" stroke="#FFFF40" stroke-linecap="square" stroke-miterlimit="10"/>
 <line id="line227" x1="125.78" x2="125.91" y1="190.81" y2="193.47" fill="none" stroke="#FFFF40" stroke-linecap="square" stroke-miterlimit="10"/>
 <line id="line229" x1="153.95" x2="153.95" y1="173.04" y2="175.7" fill="none" stroke="#FFFF40" stroke-linecap="square" stroke-miterlimit="10"/>
 <line id="line231" x1="153.95" x2="153.95" y1="177.48" y2="180.15" fill="none" stroke="#FFFF40" stroke-linecap="square" stroke-miterlimit="10"/>
 <line id="line233" x1="153.95" x2="153.95" y1="182.3" y2="184.97" fill="none" stroke="#FFFF40" stroke-linecap="square" stroke-miterlimit="10"/>
 <line id="line235" x1="153.95" x2="153.95" y1="186.62" y2="189.28" fill="none" stroke="#FFFF40" stroke-linecap="square" stroke-miterlimit="10"/>
 <line id="line237" x1="153.95" x2="153.95" y1="191.06" y2="193.73" fill="none" stroke="#FFFF40" stroke-linecap="square" stroke-miterlimit="10"/>
 <line id="line239" x1="129.97" x2="132.63" y1="193.47" y2="193.47" fill="none" stroke="#FFFF40" stroke-linecap="square" stroke-miterlimit="10"/>
 <line id="line241" x1="134.54" x2="137.2" y1="193.47" y2="193.47" fill="none" stroke="#FFFF40" stroke-linecap="square" stroke-miterlimit="10"/>
 <line id="line243" x1="139.23" x2="141.9" y1="193.47" y2="193.47" fill="none" stroke="#FFFF40" stroke-linecap="square" stroke-miterlimit="10"/>
 <line id="line245" x1="143.55" x2="146.21" y1="193.47" y2="193.47" fill="none" stroke="#FFFF40" stroke-linecap="square" stroke-miterlimit="10"/>
 <line id="line247" x1="148.12" x2="150.78" y1="193.47" y2="193.47" fill="none" stroke="#FFFF40" stroke-linecap="square" stroke-miterlimit="10"/>
 <line id="line249" x1="129.21" x2="131.87" y1="173.04" y2="173.04" fill="none" stroke="#FFFF40" stroke-linecap="square" stroke-miterlimit="10"/>
 <line id="line251" x1="133.65" x2="136.31" y1="173.04" y2="173.04" fill="none" stroke="#FFFF40" stroke-linecap="square" stroke-miterlimit="10"/>
 <line id="line253" x1="138.47" x2="141.14" y1="173.04" y2="173.04" fill="none" stroke="#FFFF40" stroke-linecap="square" stroke-miterlimit="10"/>
 <line id="line255" x1="142.66" x2="145.32" y1="173.04" y2="173.04" fill="none" stroke="#FFFF40" stroke-linecap="square" stroke-miterlimit="10"/>
 <line id="line257" x1="147.23" x2="149.89" y1="173.04" y2="173.04" fill="none" stroke="#FFFF40" stroke-linecap="square" stroke-miterlimit="10"/>
 <path id="path259" d="m118.55 161.62c8.926-4.2 0.322-47.577-8.503-45.813-8.903 1.78-1.141 44.937 8.503 45.813" fill="#0080FF"/>
 <path id="path261" d="m118.55 161.62c8.926-4.2 0.322-47.577-8.503-45.813-8.903 1.78-1.141 44.937 8.503 45.813" fill="none" stroke="#00f" stroke-linecap="square" stroke-miterlimit="10" stroke-width="2"/>
 <path id="path263" d="m161.69 162.25c-8.595-4.356-0.332-47.496 8.629-45.813 8.828 1.659 1.256 45.116-8.629 45.813" fill="#0080FF"/>
 <path id="path265" d="m161.69 162.25c-8.595-4.356-0.332-47.496 8.629-45.813 8.858 1.664 1.161 44.974-8.503 45.813" fill="none" stroke="#00f" stroke-linecap="square" stroke-miterlimit="10" stroke-width="2"/>
 <path id="path267" d="m145.58 104c-11.595 3.809-31.441 10.514-30.33 25.761-5.104-17.884 18.385-22.756 30.33-25.761" fill="#FF9F40"/>
 <path id="path269" d="m145.58 104c-11.595 3.809-31.441 10.514-30.33 25.761-5.014-17.566 18.058-23.148 30.33-25.634" fill="none" stroke="#BF0000" stroke-linecap="square" stroke-miterlimit="10" stroke-width="2"/>
 <path id="path271" d="m153.06 101.72c-11.596 3.808-31.44 10.514-30.33 25.761-5.099-17.888 18.38-22.757 30.33-25.761" fill="#FF9F40"/>
 <path id="path273" d="m153.06 101.72c-11.596 3.808-31.44 10.514-30.33 25.761-5.009-17.571 18.053-23.148 30.33-25.635" fill="none" stroke="#BF0000" stroke-linecap="square" stroke-miterlimit="10" stroke-width="2"/>
 <path id="path275" d="m158.27 87.635c-9.051 8.221-24.278 22.451-17.006 35.913-11.912-14.194 7.371-28.469 17.006-35.913" fill="#FF9F40"/>
 <path id="path277" d="m158.27 87.635c-9.051 8.221-24.278 22.451-17.006 35.913-11.765-14.019 6.949-28.507 17.133-35.913" fill="none" stroke="#BF0000" stroke-linecap="square" stroke-miterlimit="10" stroke-width="2"/>
 <path id="path279" d="m159.03 100.83c-11.581 3.927-31.373 10.414-30.203 25.761-5.11-18.081 18.449-22.673 30.203-25.761" fill="#FF9F40"/>
 <path id="path281" d="m159.03 100.83c-11.581 3.927-31.373 10.414-30.203 25.761-4.992-17.662 17.898-23.147 30.331-25.634" fill="none" stroke="#BF0000" stroke-linecap="square" stroke-miterlimit="10" stroke-width="2"/>
 <path id="path283" d="m135.55 103.12c11.712 3.685 31.472 10.516 30.457 25.762 4.952-17.911-18.211-22.815-30.457-25.762" fill="#FF9F40"/>
 <path id="path285" d="m135.55 103.12c11.712 3.685 31.472 10.516 30.457 25.762 4.873-17.625-17.924-23.122-30.329-25.635" fill="none" stroke="#BF0000" stroke-linecap="square" stroke-miterlimit="10" stroke-width="2"/>
 <path id="path287" d="m128.06 100.96c11.73 3.21 31.503 10.672 30.457 25.634 4.897-17.62-18.028-23.234-30.457-25.634" fill="#FF9F40"/>
 <path id="path289" d="m128.06 100.96c11.73 3.21 31.503 10.672 30.457 25.634 4.896-17.618-17.942-23.125-30.33-25.634" fill="none" stroke="#BF0000" stroke-linecap="square" stroke-miterlimit="10" stroke-width="2"/>
 <path id="path291" d="m122.86 86.746c9.276 8.132 24.304 22.541 17.132 36.04 11.723-14.486-7.026-28.25-17.132-36.04" fill="#FF9F40"/>
 <path id="path293" d="m122.86 86.746c9.276 8.132 24.304 22.541 17.132 36.04 11.541-14.263-6.649-28.448-17.132-35.913" fill="none" stroke="#BF0000" stroke-linecap="square" stroke-miterlimit="10" stroke-width="2"/>
 <path id="path295" d="m122.1 99.944c11.7 3.804 31.41 10.42 30.33 25.762 5.076-17.986-18.22-22.753-30.33-25.762" fill="#FF9F40"/>
 <path id="path297" d="m122.1 99.944c11.7 3.804 31.41 10.42 30.33 25.762 4.986-17.667-17.892-23.147-30.33-25.635" fill="none" stroke="#BF0000" stroke-linecap="square" stroke-miterlimit="10" stroke-width="2"/>
 <path id="path299" d="m154.97 105.53c8.669 8.667 24.381 22.682 37.184 14.34-13.207 12.568-29.109-4.308-37.184-14.34" fill="#FF9F40"/>
 <path id="path301" d="m154.97 105.53c8.669 8.667 24.381 22.682 37.184 14.34-13.296 12.654-28.808-4.417-37.184-14.213" fill="none" stroke="#BF0000" stroke-linecap="square" stroke-miterlimit="10" stroke-width="2"/>
 <path id="path303" d="m149.38 100.07c8.593 8.689 24.459 22.629 37.182 14.34-13.526 12.572-28.699-4.414-37.182-14.34" fill="#FF9F40"/>
 <path id="path305" d="m149.38 100.07c8.593 8.689 24.459 22.629 37.182 14.34-13.526 12.572-28.699-4.414-37.182-14.34" fill="none" stroke="#BF0000" stroke-linecap="square" stroke-miterlimit="10" stroke-width="2"/>
 <path id="path307" d="m134.41 102.23c11.511 4.648 31.388 10.389 39.847-2.158-7.028 16.811-28.255 8.027-39.847 2.158" fill="#FF9F40"/>
 <path id="path309" d="m134.41 102.23c11.511 4.648 31.388 10.389 39.847-2.158-7.048 16.86-28.026 7.891-39.72 2.285" fill="none" stroke="#BF0000" stroke-linecap="square" stroke-miterlimit="10" stroke-width="2"/>
 <path id="path311" d="m145.7 95.249c8.675 8.9 24.277 22.303 37.184 14.34-13.339 12.565-28.908-4.474-37.184-14.34" fill="#FF9F40"/>
 <path id="path313" d="m145.7 95.249c8.675 8.9 24.277 22.303 37.184 14.34-13.339 12.565-28.908-4.474-37.184-14.34" fill="none" stroke="#BF0000" stroke-linecap="square" stroke-miterlimit="10" stroke-width="2"/>
 <path id="path315" d="m132.51 104.89c-9.463 7.781-27.086 19.08-38.579 9.391 11.213 14.297 29.538-0.525 38.579-9.391" fill="#FF9F40"/>
 <path id="path317" d="m132.51 104.89c-9.463 7.781-27.086 19.08-38.579 9.391 11.304 14.415 29.223-0.701 38.579-9.264" fill="none" stroke="#BF0000" stroke-linecap="square" stroke-miterlimit="10" stroke-width="2"/>
 <path id="path319" d="m138.72 100.2c-9.358 7.887-27.119 18.912-38.579 9.391 11.095 14.151 29.926-0.439 38.579-9.391" fill="#FF9F40"/>
 <path id="path321" d="m138.72 100.2c-9.358 7.887-27.119 18.912-38.579 9.391 11.301 14.414 29.274-0.775 38.706-9.264" fill="none" stroke="#BF0000" stroke-linecap="square" stroke-miterlimit="10" stroke-width="2"/>
 <path id="path323" d="m143.04 95.883c-9.598 7.538-27.044 19.212-38.579 9.391 11.211 14.291 29.475-0.609 38.579-9.391" fill="#FF9F40"/>
 <path id="path325" d="m143.04 95.883c-9.598 7.538-27.044 19.212-38.579 9.391 11.304 14.409 29.159-0.786 38.579-9.264" fill="none" stroke="#BF0000" stroke-linecap="square" stroke-miterlimit="10" stroke-width="2"/>
 <path id="path327" d="m118.17 45.884c-5.923 10.601-19.13 27.27-32.995 22.081 15.157 9.786 27.957-10.833 32.995-22.081" fill="#FF9F40"/>
 <path id="path329" d="m118.17 45.884c-5.923 10.601-19.13 27.27-32.995 22.081 15.403 9.945 27.312-10.943 33.122-21.955" fill="none" stroke="#BF0000" stroke-linecap="square" stroke-miterlimit="10" stroke-width="2"/>
 <path id="path331" d="m122.48 39.284c-6.313 10.709-18.838 27.098-33.121 22.208 15.703 9.142 27.45-10.575 33.121-22.208" fill="#FF9F40"/>
 <path id="path333" d="m122.48 39.284c-6.313 10.709-18.838 27.098-33.121 22.208 15.764 9.178 27.21-10.58 33.121-22.081" fill="none" stroke="#BF0000" stroke-linecap="square" stroke-miterlimit="10" stroke-width="2"/>
 <path id="path335" d="m137.46 38.143c-9.8 7.086-28.7 17.076-39.212 6.599 10.279 14.916 29.504 1.703 39.212-6.599" fill="#FF9F40"/>
 <path id="path337" d="m137.46 38.143c-9.8 7.086-28.7 17.076-39.212 6.599 10.373 15.051 29.182 1.489 39.212-6.472" fill="none" stroke="#BF0000" stroke-linecap="square" stroke-miterlimit="10" stroke-width="2"/>
 <path id="path339" d="m125.02 33.828c-6.362 10.389-19.041 27.305-33.121 22.081 15.575 9.653 27.313-10.781 33.121-22.081" fill="#FF9F40"/>
 <path id="path341" d="m125.02 33.828c-6.362 10.389-19.041 27.305-33.121 22.081 15.575 9.653 27.313-10.781 33.121-22.081" fill="none" stroke="#BF0000" stroke-linecap="square" stroke-miterlimit="10" stroke-width="2"/>
 <path id="path343" d="m158.77 45.122c6.211 10.531 19.003 27.446 33.122 22.208-15.526 9.424-27.55-10.786-33.122-22.208" fill="#FF9F40"/>
 <path id="path345" d="m158.77 45.122c6.211 10.531 19.003 27.446 33.122 22.208-15.584 9.459-27.318-10.789-33.122-22.081" fill="none" stroke="#BF0000" stroke-linecap="square" stroke-miterlimit="10" stroke-width="2"/>
 <path id="path347" d="m154.46 38.65c6.346 10.363 19.086 27.288 33.121 22.081-15.561 9.754-27.23-10.919-33.121-22.081" fill="#FF9F40"/>
 <path id="path349" d="m154.46 38.65c6.346 10.363 19.086 27.288 33.121 22.081-15.561 9.754-27.23-10.919-33.121-22.081" fill="none" stroke="#BF0000" stroke-linecap="square" stroke-miterlimit="10" stroke-width="2"/>
 <path id="path351" d="m139.49 37.508c10.131 6.814 28.511 17.233 39.212 6.472-10.163 15.36-29.263 1.301-39.212-6.472" fill="#FF9F40"/>
 <path id="path353" d="m139.49 37.508c10.131 6.814 28.511 17.233 39.212 6.472-10.163 15.36-29.263 1.301-39.212-6.472" fill="none" stroke="#BF0000" stroke-linecap="square" stroke-miterlimit="10" stroke-width="2"/>
 <path id="path355" d="m151.92 33.066c6.576 10.506 18.782 27.116 33.121 22.208-15.901 9.392-27.034-10.921-33.121-22.208" fill="#FF9F40"/>
 <path id="path357" d="m151.92 33.066c6.576 10.506 18.782 27.116 33.121 22.208-15.727 9.288-27.129-10.668-32.994-22.081" fill="none" stroke="#BF0000" stroke-linecap="square" stroke-miterlimit="10" stroke-width="2"/>
 <path id="path359" d="m141.77 113.02c-35.638-1.95-52.565-56.481-13.578-68.909 49.573-15.801 60.444 66.681 13.578 68.909" fill="#FFFF80"/>
 <path id="path361" d="m141.77 113.02c-35.638-1.95-52.565-56.481-13.578-68.909 49.573-15.801 60.444 66.681 13.578 68.909" fill="none" stroke="#BF8080" stroke-linecap="square" stroke-miterlimit="10" stroke-width="2"/>
 <path id="path363" d="m125.78 75.452c-8.537-1.464-9.521-17.385 0-17.386 9.522-1e-3 8.538 15.922 0 17.386" fill="#fff"/>
 <path id="path365" d="m125.78 75.452c-8.537-1.464-9.521-17.385 0-17.386 9.522-1e-3 8.538 15.922 0 17.386" fill="none" stroke="#000" stroke-linecap="square" stroke-miterlimit="10"/>
 <path id="path367" d="m150.91 75.071c-8.79-1.023-9.322-17.26 0-17.259 9.452 1e-3 8.621 16.385 0 17.259" fill="#fff"/>
 <path id="path369" d="m150.91 75.071c-8.79-1.023-9.322-17.26 0-17.259 9.446 1e-3 8.632 16.045 0 17.385" fill="none" stroke="#000" stroke-linecap="square" stroke-miterlimit="10"/>
 <path id="path371" d="m116.52 60.224c3.993-6.69 12.799-11.403 16.878-1.65-3.662-11.194-12.842-7.275-16.878 1.65"/>
 <path id="path373" d="m116.52 60.224c3.993-6.69 12.799-11.403 16.878-1.65-3.589-10.971-12.876-7.604-16.75 1.65" fill="none" stroke="#000" stroke-linecap="square" stroke-miterlimit="10"/>
 <path id="path375" d="m159.79 60.478c-3.857-6.82-12.729-11.27-16.752-1.65 3.682-11.256 13.104-7.058 16.752 1.65"/>
 <path id="path377" d="m159.79 60.478c-3.857-6.82-12.729-11.27-16.752-1.65 3.618-11.061 13-7.417 16.752 1.777" fill="none" stroke="#000" stroke-linecap="square" stroke-miterlimit="10"/>
 <path id="path379" d="m125.78 63.396c6.456 1.382 7.529 11.812 0 11.802-7.683-0.011-6.259-10.524 0-11.802" fill="#000080"/>
 <path id="path381" d="m125.78 63.396c6.456 1.382 7.529 11.812 0 11.802-7.468-0.01-6.548-10.485 0-11.675" fill="none" stroke="#000" stroke-linecap="square" stroke-miterlimit="10"/>
 <path id="path383" d="m150.91 63.396c6.455 1.382 7.528 11.812 0 11.802-7.683-0.01-6.261-10.524 0-11.802" fill="#000080"/>
 <path id="path385" d="m150.91 63.396c6.455 1.382 7.528 11.812 0 11.802-7.469-0.01-6.549-10.484 0-11.675" fill="none" stroke="#000" stroke-linecap="square" stroke-miterlimit="10"/>
 <path id="path387" d="m122.74 67.965c0.133-2.923 0.133-2.92 0 0" fill="#fff"/>
 <path id="path389" d="m148.24 68.092c0.194-2.677 0.196-2.712 0 0" fill="#fff"/>
 <path id="path391" d="m139.1 86.873c-7.477-0.807-7.721-11.197 0.128-11.167 7.936 0.031 7.488 10.845-0.128 11.167" fill="#9F4040"/>
 <path id="path393" d="m139.1 86.873c-7.477-0.807-7.721-11.197 0.128-11.167 7.857 0.03 7.536 10.542 0 11.294" fill="none" stroke="#000" stroke-linecap="square" stroke-miterlimit="10"/>
 <path id="path395" d="m137.71 76.721c-1.123 1.018-2.28 1.397-2.792 3.173-0.643 0.663 3.792-4.08 2.792-3.173" fill="#fff"/>
 <path id="path397" d="m117.15 83.573c13.618 21.223 29.428 19.93 42.893 0" fill="none" stroke="#FF4040" stroke-linecap="square" stroke-miterlimit="10" stroke-width="2"/>
 <path id="path399" d="m119.18 79.259c-0.419 4.889-3.716 6.411-7.996 4.061" fill="none" stroke="#FF4040" stroke-linecap="square" stroke-miterlimit="10" stroke-width="2"/>
 <path id="path401" d="m165.63 84.462c-4.669 1.299-7.11-1.338-6.345-6.092" fill="none" stroke="#FF4040" stroke-linecap="square" stroke-miterlimit="10" stroke-width="2"/>
 <path id="path403" d="m137.46 51.467c5.553 0.046 32.777 2.581 34.264-5.838 1.76-9.967-29.307-12.723-34.264-12.69-5.341 0.036-35.26 2.965-33.629 13.325 1.265 8.041 28.452 5.203 33.629 5.203" fill="#9F4040"/>
 <path id="path405" d="m137.46 51.467c5.553 0.046 32.777 2.581 34.264-5.838 1.76-9.967-29.307-12.723-34.264-12.69-5.341 0.036-35.26 2.965-33.629 13.325 1.265 8.041 28.452 5.203 33.629 5.203" fill="none" stroke="#800000" stroke-linecap="square" stroke-miterlimit="10" stroke-width="2"/>
 <path id="path407" d="m153.95 45.629c14.979-0.531 7.664-28.331 6.917-36.611-0.381-4.211-3.7-7.489-7.869-7.869-4.227-0.384-8.431 3.316-12.627 3.363-4.396 0.049-8.833-3.766-13.261-3.363-10.943 0.995-13.714 29.504-11.865 35.977 4.181 14.638 27.245 8.503 38.705 8.503" fill="#9F4040"/>
 <path id="path409" d="m153.95 45.629c14.979-0.531 7.664-28.331 6.917-36.611-0.385-4.261-3.373-6.641-7.171-7.805-3.336-1.022-8.932 2.038-12.085 2.943-4.505 1.294-9.443-3.88-13.802-3.07-13.343 2.48-11.014 25.241-12.454 35.273-2.201 15.334 31.892 9.27 38.723 9.27" fill="none" stroke="#800000" stroke-linecap="square" stroke-miterlimit="10" stroke-width="2"/>
 <path id="path411" d="m130.35 4.767c-6.05 0.797-8.568 6.906-8.503 11.802 1.059-4.986 3.837-9.527 8.503-11.802" fill="#DFBFBF"/>
 <path id="path413" d="m130.35 4.767c-6.05 0.797-8.568 6.906-8.503 11.802 1.059-4.986 3.837-9.527 8.503-11.802" fill="none" stroke="#DFBFBF" stroke-linecap="square" stroke-miterlimit="10" stroke-width="2"/>
 <path id="path415" d="m117.91 159.72c-9.824-6.46 9.859-6.284 0 0"/>
 <path id="path417" d="m117.91 159.72c-9.695-6.375 9.699-6.602 0 0.126" fill="none" stroke="#fff" stroke-linecap="square" stroke-miterlimit="10"/>
 <path id="path419" d="m162.84 160.22c-9.731-6.542 9.954-6.459 0 0"/>
 <path id="path421" d="m162.84 160.22c-9.731-6.542 9.954-6.459 0 0" fill="none" stroke="#fff" stroke-linecap="square" stroke-miterlimit="10"/>
</svg>
