<?xml version="1.0" encoding="UTF-8"?>
<!DOCTYPE svg  PUBLIC '-//W3C//DTD SVG 20010904//EN'  'http://www.w3.org/TR/2001/REC-SVG-20010904/DTD/svg10.dtd'>
<!-- Created with Sodipodi ("http://www.sodipodi.com/") -->
<svg id="svg548" width="210mm" height="297mm" xmlns="http://www.w3.org/2000/svg">
 <metadata>
  <rdf:RDF xmlns:cc="http://web.resource.org/cc/" xmlns:dc="http://purl.org/dc/elements/1.1/" xmlns:rdf="http://www.w3.org/1999/02/22-rdf-syntax-ns#">
   <cc:Work rdf:about="">
    <dc:title>My lovely baby</dc:title>
    <dc:description>My lovely baby</dc:description>
    <dc:subject>
     <rdf:Bag>
      <rdf:li>people</rdf:li>
      <rdf:li>daughter</rdf:li>
      <rdf:li>lovely</rdf:li>
     </rdf:Bag>
    </dc:subject>
    <dc:publisher>
     <cc:Agent rdf:about="http://www.openclipart.org">
      <dc:title>Enrique Meza C</dc:title>
     </cc:Agent>
    </dc:publisher>
    <dc:creator>
     <cc:Agent>
      <dc:title>Enrique Meza C</dc:title>
     </cc:Agent>
    </dc:creator>
    <dc:rights>
     <cc:Agent>
      <dc:title>Enrique Meza C</dc:title>
     </cc:Agent>
    </dc:rights>
    <dc:date/>
    <dc:format>image/svg+xml</dc:format>
    <dc:type rdf:resource="http://purl.org/dc/dcmitype/StillImage"/>
    <cc:license rdf:resource="http://web.resource.org/cc/PublicDomain"/>
    <dc:language>en</dc:language>
   </cc:Work>
   <cc:License rdf:about="http://web.resource.org/cc/PublicDomain">
    <cc:permits rdf:resource="http://web.resource.org/cc/Reproduction"/>
    <cc:permits rdf:resource="http://web.resource.org/cc/Distribution"/>
    <cc:permits rdf:resource="http://web.resource.org/cc/DerivativeWorks"/>
   </cc:License>
  </rdf:RDF>
 </metadata>
 <path id="path643" transform="matrix(.8266 0 0 .91674 27.989 196.28)" d="m631.12-70.944-2.355-1.1775c6.019 3.0099 3.196 1.4299-9.42-2.3549-11.268-3.4752-20.128-7.7863-32.136-7.8974-6.181 2.4724-1.345 6.72-3.937 13.583 4.268 4.2687-0.737 1.429 5.459 3.7344 6.572 5.2999 12.435 7.9599 21.194 9.4198 12.384 3.3658 2.308 3.7629 15.342 3.8772 5.67-0.6299 11.041-1.0943 7.35-5.708-4.151-2.6607 12.247 3.4209-1.497-13.476z" fill="#e3a298" fill-rule="evenodd" stroke="#000" stroke-width="1pt"/>
 <path id="path612" transform="matrix(.5297 0 0 .5386 648.51 -21.189)" d="m-192.31 298.06c9.968 3.837 20.088-3.247 27.31-8.473 7.911-9.212 3.434-17.738 11.824-24.773 10.333-8.436 11.482-14.806 16.899-31.964 0.274-15.662-0.999-29.884-4.096-37.821 4.917-41.523 15.19-61.236-19.539-83.729-9.613-0.275-103.85 33.133-115.66 72.415 1.923 6.876 5.834 32.712 5.01 64.571 20.033 41 41.013 48.152 78.255 49.774z" fill="#e2a298" fill-rule="evenodd" stroke="#000" stroke-width="1pt"/>
 <path id="path640" transform="matrix(1.1564 .84557 -.80598 1.2132 229.02 -565.01)" d="m399.23 215.18c0 0.183-4.065-3.429-4.065-3.246 0-1.535 7.624-14.921 6.457-12.005-36.775-2.931-16.44 31.282-24.065 38.167-2.712 12.254 9.056 8.189 21.928 27.476 11.992 13.149 26.947-3.688 19.687 30.981 7.398-3.569 0.036-16.852 16.593-18.422 2.496-16.117-38.076-25.742-38.076-30.491 0.188-2.261-0.55-4.592-0.55-7.141-1.424-5.653-3.639-11.334-4.394-17.029-0.602-0.803 7.828-12.157 7.225-12.96l-7.225 12.96c-0.602-0.803 8.735-4.741 6.485-8.29z" fill="#232b32" fill-rule="evenodd" stroke="#000" stroke-width="1pt"/>
 <path id="path639" transform="matrix(.44508 0 0 .45275 810.83 12.968)" d="m-699.6 158.14c-4.447-1.913-6.097-6.082-10.52-8.129-14.733-0.381-7.663 20.731-6.216 26.779 1.853 8.049 5.714 25.174 25.822 33.951 2.877-0.181 11.593 2.411 16.259-0.478 4.843-2.639 4.981-9.394 6.216-11.955-7.968-12.582-5.637-20.683-11.477-28.691-7.626-5.147-5.579-16.737-20.084-11.477z" fill="#e3a298" fill-rule="evenodd" stroke="#000" stroke-width="1pt"/>
 <path id="path573" transform="matrix(1.4096 0 0 1.4788 -79.366 -278.43)" d="m348.78 599.49c-3.375-8.713 171.82 39.675 167.72 50.438 0 0-102.51 40.087-103.88 67.793-2.05 5.638-2.386 21.532-2.386 22.257 0 0.724 8.698 23.193 7.973 23.193s21.744 26.092 21.744 26.817 20.559 15.051 36.649 25.462c1.992 3.314-7.374 3.789-11.691-3.308 1.31 12.241-8.422 8.392-16.261-1.135 1.262 8.834 1.952 19.56-23.193-0.725 1.356 4.007 3.342 1.442 4.288 5.543-1.262 4.101-3.888 16.78-21.462 5.738-3.691-3.154-9.643-12.415-9.643-12.73-22.525 28.467-31.484 12.767-29.717-0.725-5.048 8.203-34.005 27.669-30.441-1.45-2.43 4.324-3.999 4.503-6.523 8.288-19.875 16.406-22.469-6.617-20.167-7.972 0.095-1.04-26.476 20.319-20.294-1.45 3.659 3.155 43.645-27.235 44.37-27.96 0.724-0.725 5.307-32.207 12.994-24.519l-0.081-153.56z" fill="#7d97a3" fill-rule="evenodd" stroke="#000" stroke-width="1pt"/>
 <path id="path613" transform="matrix(.33371 -.44298 .57454 .31484 377.07 116.47)" d="m143.92 123.67c4.394 5.493-3.224 10.671-6.771 11.643 2.675 2.108 1.687 6.975-2.002 10.863 5.829-3.398 5.539-5.82 6.64-8.96 4.81-1.614 11.791-12.456 2.133-13.546z" fill="#a18f79" fill-rule="evenodd" stroke="#a7387d" stroke-width=".125"/>
 <path id="path610" transform="matrix(.75863 0 0 .48013 179.25 525.04)" d="m435.85 664.3c-8.706 112.06-12.098 114.12 12.375 155.04 13.36 37.084-29.613 76.032-47.65-17.895-28.853 98.269-60.176 61.196-52.217 12.916-11.951-49.036 67.652-41.133 25.643-210.7-16.334-300.37 19.228 193.26 61.849 60.632z" fill="#f0f7fb" fill-opacity=".79006" fill-rule="evenodd" stroke="#000" stroke-width="1pt"/>
 <path id="path605" transform="matrix(.4308 -1.0982 .99236 .43275 -109.46 596.54)" d="m174.41 720.96c6.63-26.253-78.499-90.145-97.212-102.13-64.498-66.871 49.632-13.35 82.527 20.148 14.633 22.423 25.723 26.921 23.973 38.196 4.4 6.663 22.909 30.881 15.221 32.418l-24.509 11.372z" fill="#638ab5" fill-rule="evenodd" stroke="#000" stroke-width="1pt"/>
 <path id="path575" transform="matrix(1.4096 0 0 1.4788 -79.366 -278.43)" d="m174.41 720.96c6.63-26.253-64.872-62.099-73.602-71.63-64.498-66.871-40.392-99.287-39.378-101.8 9.8057 26.227 61.73 64.972 106.36 82.506 7.776 5.023 17.654 35.858 15.904 47.133 4.4 6.663 22.909 30.881 15.221 32.418l-24.509 11.372z" fill="#638ab5" fill-rule="evenodd" stroke="#000" stroke-width="1pt"/>
 <path id="path574" transform="matrix(1.4096 0 0 1.4788 -79.366 -278.43)" d="m186.61 743.26c-9.613 1.142-12.125-9.213-1.113-15.172-23.41 6.116-7.598-14.48 0.775-19.86-4.058 2.029-28.935 5.019-1.546-13.916-30.77 11.835-7.294-13.675 0.096-16.67-35.213 25.069-14.205-18.071-10.147-17.395-27.726 30.431-18.844-4.011-18.844-4.736-20.964 22.944-14.496-9.76-14.496-9.76-29.755 21.978-14.496-10.147-14.496-10.147-36.518 7.101-19.569-12.66-19.569-12.66s-33.285 10.672-11.983-12.321c-17.921 10.482-14.35-3.916-10.92-7.297-6.0378 7.101-21.69 5.843-6.8128-9.035-13.187 3.043-13.334-2.806-7.2479-11.597-1.0144-2.705-20.291 2.653-9.4222-10.872 3.7679-4.058 2.8991-2.899 2.8991-2.899-4.7338 2.029-12.705-3.046-2.1743-10.872 0.7248-0.724 45.662 58.708 46.387 60.158 0.725 1.449 56.533 25.368 56.533 25.368l23.194 26.817 5.798 31.891-6.91 40.975z" fill="#e8f6fd" fill-rule="evenodd" stroke="#000" stroke-width="1pt"/>
 <path id="path554" transform="matrix(1.4096 0 0 1.4788 -79.366 -278.43)" d="m497.76 347.57c26.215 17.464 29.367 24.165 69.419 32.917-2.67 6.377-6.878 5.58-14.161 11.445-2.145 5.907-5.314 9.252-8.996 16.184-1.025 1.025 8.998-2.987 8.273-2.987l8.273-8.713c-3.075 6.15 2.723 21.319-5.974 23.493 2.899 10.872 12 12.425 8.624 11.4 7.9-32.801 28.194-14.625 14.445-58.312-37.119-37.618-38.802-16.18-63.057-46.146l-6.523 1.45-10.323 19.269z" fill="#bdd9f6" fill-rule="evenodd" stroke="#000" stroke-width="1pt"/>
 <path id="path555" transform="matrix(1.4096 0 0 1.4788 -79.366 -278.43)" d="m354.42 341.34-21.743 16.67-24.643 8.698-21.744 5.798-21.019 10.872 2.175 11.596-4.349 16.67-2.9 1.45 1e-3 -5.798s0.724-11.597 1.449-10.872c-1.449 1.45-4.349-4.349-5.073-4.349-0.725 0-7.248 9.423-7.248 9.423l-5.074 3.623s-6.523 5.074-7.248 5.074c-0.724 0-7.972 2.899-7.972 2.899l3.624-8.697c19.811-23.677 8.456-16.187 20.294-28.267l13.046-7.973c35.031-29.958 58.466-26.575 79.002-50.735l1.45 11.597s7.972 13.771 7.972 12.321z" fill="#bbd4f3" fill-rule="evenodd" stroke="#000" stroke-width="1pt"/>
 <path id="path558" transform="matrix(1.4096 0 0 1.4788 -79.366 -278.43)" d="m416.03 422.52-17.395 10.147-25.368 10.147-14.496 5.798s-13.046 2.174-13.771 2.174h-22.468s-17.009-4.348-17.009-5.073c29.104-45.024 72.072-44.063 87.313-42.763 0 0 23.194 18.12 23.194 19.57z" fill="#bbd2ef" fill-rule="evenodd" stroke="#000" stroke-width="1pt"/>
 <path id="path559" transform="matrix(1.4096 0 0 1.4788 -79.366 -276.81)" d="m418.63 419.14c-0.724 0 18.42 7.724 18.42 7.724l17.395 0.725h15.221s19.569-1.449 19.569-0.725c0 0.725 5.123-1.111 4.398-1.836-7.476-10.178-21.715-17.641-44.068-21.744l-30.935 15.856z" fill="#b7cfec" fill-rule="evenodd" stroke="#000" stroke-width="1pt"/>
 <path id="path560" transform="matrix(1.4096 0 0 1.4788 -79.366 -278.43)" d="m344.28 317.72c-1.838 3.587 31.166-24.943 31.166-24.943l30.441-2.899s10.148-10.147 10.872-10.872c0.725-0.725 15.946 8.698 15.946 8.698h15.22l9.423 7.972 15.22 2.175s29.717 13.771 29.717 14.496c0 0.724 14.495 15.945 14.495 16.67-0.512 7.387-2.796 16.158-13.046 17.908-2.562 1.748-23.193-16.459-23.193-16.459l-62.332 13.046-44.3-15.681s-19.606 15.857-21.656 13.507c-13.325-4.4-10.747-21.356-7.973-23.618z" fill="#e3a298" fill-rule="evenodd" stroke="#000" stroke-width="1pt"/>
 <path id="path557" transform="matrix(1.4096 0 0 1.4788 -79.366 -278.43)" d="m377.62 337.72s-7.973-7.973-8.698-7.973-9.422-16.67-9.422-16.67-2.512-2.03-2.512-4.784c2.016-35.167 8.089-45.989 30.392-21.308l3.286 6.523c-0.676-2.029-13.046 45.662-13.046 44.212z" fill="#a4c1e6" fill-rule="evenodd" stroke="#000" stroke-width="1pt"/>
 <path id="path561" transform="matrix(1.4096 0 0 1.4788 -79.366 -278.43)" d="m418.98 422.62c21.061 1.691 27.835 4.011 43.389 6.04l39.914-3.237s40.588-17.395 40.588-16.67c0 0.724 13.046-10.147 13.046-10.147v4.348s-5.074 7.973-5.074 8.698c0 0.724-10.147 9.422-10.147 10.147-1.691 0.049-4.4 3.143-13.578 10.582-69.295 28.305-92.267-1.886-108.14-9.761z" fill="none" stroke="#000" stroke-width="1pt"/>
 <path id="path634" transform="matrix(1.4096 0 0 1.4788 -847.01 -311.58)" d="m964.44 298.67c5.364 4.102 5.679 4.733 5.679 4.733l6.625 2.839 17.037 0.631s0.315 2.839 0.315 3.155c0 0.315-6.625 2.208-6.625 2.524 0 0.315-9.149 0-9.465 0-0.315 0-16.089-9.149-16.089-9.465 0-0.315 1.893-3.47 2.523-4.417z" fill-rule="evenodd" stroke="#000" stroke-width="1pt"/>
 <path id="path563" transform="matrix(1.4096 0 0 1.4788 -79.366 -278.43)" d="m252.66 399.18c-142.02 68.027-182.94 132-191.06 147.28-3.0431 3.719-4.7156 10.966 10.147 31.166 5.6376 7.899 26.36 42.893 51.473 49.767 13.838 21.738 59.829 16.999 64.954 70.299-7.328 7.013-3.382 19.664-0.46 32.315l-2.464 16.594c-3.339 53.547 79.324 71.613 128.62 52.474 29.555-7.428 43.141-27.913 44.891-32.526 20.125-40.233-48.214-106.29-57.258-180.95-0.478 0-0.867-19.69 8.697-31.89 3.347-8.854 7.973-8.698 8.698-8.698 0.724 0 39.863-7.248 40.588-7.248s59.433-21.743 59.433-21.743l47.111-28.267s45.662-35.515 46.387-35.515c0.724 0 44.937-52.185 44.937-52.185l-52.185 25.368-47.836 2.899c-1.913 0.956-39.603-6.03-40.327-6.03-0.725 0-48.823 23.425-48.823 23.425s-40.012 6.378-52.909 5.025c-31.156-19.611-31.852-47.45-62.621-51.556z" fill="#85abd1" fill-rule="evenodd" stroke="#000" stroke-width="1pt"/>
 <path id="path596" transform="matrix(1.4096 0 0 1.4788 -79.366 -278.43)" d="m414.11 426.9c-49.732 79.857-163.06 207.53-169.28 212.79 15.78-10.52 105.68-121.94 106.16-121.94 0.479 0 64.077-90.377 63.121-90.855z" fill="none" stroke="#000" stroke-width="1pt"/>
 <path id="path598" transform="matrix(1.4096 0 0 1.4788 -79.366 -278.43)" d="m415.54 427.85c-14.346 42.559-39.69 95.638-43.994 98.507 4.304-0.957-58.817 113.81-80.813 140.11-3.347 4.782-60.73 78.422-60.73 78.422l81.77-107.11 61.686-109.98s43.037-99.942 42.081-99.942z" fill="none" stroke="#000" stroke-width="1pt"/>
 <path id="path564" transform="matrix(1.4096 0 0 1.4788 -79.366 -278.43)" d="m318.18 545.01c2.174 0 80.312-7.254 113.4-49.858 48.673-51.312 80.439-25.53 121.67-95.1 14.107-8.6-8.216 18.845 14.253 33.34 5.073 5.074 20.237 85.88-7.49 141.67-9.467 24.683-44.695 95.336-44.695 96.061 0 0.724-17.395-24.643-17.395-24.643h-39.139l-56.533 5.073-25.119-8.786c-37.281-24.167-21.773-49.358-29.841-81.212l-8.097-8.573-21.019-7.973z" fill="#759fc4" fill-rule="evenodd" stroke="#000" stroke-width="1pt"/>
 <path id="path568" transform="matrix(1.4096 0 0 1.4788 -79.366 -280.3)" d="m553.02 589.95c4.058 6.763 50.696 116.87-16.671 242.16-47.356 4.666-142.6-53.568-124.66-110.97 23.575-33.825 63.281-17.035 106.33-52.91-2.563-6.15 33.65-75.765 35.002-78.277z" fill="#95bae4" fill-rule="evenodd" stroke="#000" stroke-width="1pt"/>
 <path id="path572" transform="matrix(1.4096 0 0 1.4788 -79.366 -278.43)" d="m360.94 762.75c19.688-29.125 19.27-48.237 20.295-89.45-3.075-5.85-34.211-111.09-42.111-120.02-4.131-3.246-13.9-10.592-23.156-8.201-4.337 5.764-17.924 8.177-15.361 53.79 2.563 45.101 73.146 123 60.333 163.88z" fill="#618fba" fill-rule="evenodd" stroke="#000" stroke-width="1pt"/>
 <path id="path570" transform="matrix(1.4096 0 0 1.4788 -79.366 -278.43)" d="m434.7 650.41c-10.545 13.703-18.469 29.513-15.402 44.489 5.431 4.307 15.671-0.915 22.141-13.35-1.033 15.169 13.746 12.965 18.195-4.268 6.478 10.957 8.704 13.421 18.911-5.242-1.536 14.532 16.184 7.959 25.561-12.837l-69.406-8.792z" fill="#92abb2" fill-rule="evenodd" stroke="#000" stroke-width="1pt"/>
 <path id="path571" transform="matrix(1.4096 0 0 1.4788 -79.366 -278.43)" d="m385.9 662.84c2.863 15.333 2.41 8.221-3.74 18.983-9.225 0.513-14.159-7.766-13.135-14.341-0.513-8.624-13.002 4.196-19.921-4.473-2.819-6.875 0.849-16.619 0.849-16.619-1.794 1.281-7.936 4.226-7.123 3.713-13.538-4.613-0.885-17.131-1.398-22.469-3.588-1.75-7.38 1.749-7.38 1.024-8.969 2.351-8.873-8.696-7.379-11.383 0.723-2.174 2.686-5.117 3.667-6.868 0.726-0.725-5.073-1.28-7.124-3.287 0.094-4.762-0.07-9.523 16.423-14.796 37.885 39.393 31.439 46.754 46.261 70.516z" fill="#cfdce4" fill-rule="evenodd" stroke="#000" stroke-width="1pt"/>
 <path id="path611" transform="matrix(.52991 0 0 .28406 378.96 519.08)" d="m410.67 670.86c-22.133 69.356-45.523 78.521-54.176 9.956-6.288-86.596 29.988-15.105 44.783-45.71 121.12-94.906 20.481 160.53 9.393 35.754z" fill="#f0f7fb" fill-opacity=".79006" fill-rule="evenodd" stroke="#000" stroke-width="1pt"/>
 <path id="path569" transform="matrix(1.4096 0 0 1.4788 -79.366 -278.43)" d="m325.34 556.65c-17.244 8.065 0.874 10.75 12.586 10.359l-12.241 2.899c-17.169 7.432-0.872 11.985 11.172 8.397-2.819 1.538-26.533 21.971 7.036 15.565-15.124 9.769-11.542 25.945 6.903 18.545-14.606 31.007 8.698 22.468 8.698 22.468-0.256 39.207 14.02 19.276 17.395 15.221 0.813 36.175 19.056 11.56 19.825 7.248 1.538 16.7 17.352 19.686 17.864 0.256 15.631 31.05 18.331 2.606 19.613-0.981 11.677 21.711 17.717 15.233 18.12-0.981 4.1 23.319 10.872 7.811 10.872 2.43 7.687 18.194 12.578 4.489 11.553-1.918 0 0 15.132 22.118 18.72 0.381 2.819 6.451 31.84 23.707 19.284 2.226 0-0.725-7.142-18.399-43.53-16.562-13.838 0.3-30.39 8.625-69.34 6.575-33.826-3.588-27.666-34.304-45.523-76.76-7.175-9.225-13.887-30.231-29.007-15.368z" fill="#c9d1d3" fill-rule="evenodd" stroke="#000" stroke-width="1pt"/>
 <path id="path556" transform="matrix(1.4096 0 0 1.4788 -79.366 -278.43)" d="m490.49 338.3c0.628 5.748-12.853 11.016-12.853 11.741 0 0.724-6.523-18.845-6.523-18.845l6.185-30.441c27.441-31.366 54.543-5.588 27.207 8.356l-14.016 29.189z" fill="#8cadd1" fill-rule="evenodd" stroke="#000" stroke-width="1pt"/>
 <path id="path553" transform="matrix(1.4096 0 0 1.4788 -79.366 -278.43)" d="m417.99 422.44s30.613-17.662 31.79-18.839c1.178-1.177 3.134-16.484 3.134-16.484l23.947-37.677-5.887-17.662 5.887-31.79-25.903 27.08-30.613 15.307-23.549-17.661-6.497-29.949c-7.309 9.96-13.08 20.945-12.701 43.718l8.601 13.311 11.195 33.697-4.13 18.11 24.726 18.839z" fill="#7ca7cf" fill-rule="evenodd" stroke="#000" stroke-width="1pt"/>
 <path id="path562" transform="matrix(1.4096 0 0 1.4788 -79.366 -278.43)" d="m416.03 423.24s-66.361 31.549-107.66 22.709c-15.603 10.771-54.353-46.578-54.353-46.578l-5.509 12.514c-0.676 77.093 62.881 84.064 120.41 46.145 0.725-0.724 13.771-8.697 13.771-9.422s34.065-25.368 33.341-25.368z" fill="#7da2ca" fill-rule="evenodd" stroke="#000" stroke-width="1pt"/>
 <path id="path595" transform="matrix(1.4096 0 0 1.4788 -79.366 -278.43)" d="m422.44 421.32c33.357 44.888 70.752 24.456 82.05 19.92 51.663-33.479 51.644-36.261 52.32-43.501-16.906 13.723-68.793 39.777-134.37 23.581z" fill="#9ab9de" fill-rule="evenodd" stroke="#000" stroke-width="1pt"/>
 <path id="path599" transform="matrix(1.4096 0 0 1.4788 -78.644 -292.07)" d="m416.98 432.63c-6.694 52.123-20.562 100.42-20.562 99.942 7.651-18.172 20.562-108.07 20.562-99.942z" fill="none" stroke="#000" stroke-width="1pt"/>
 <path id="path601" transform="matrix(1.4096 0 0 1.4788 -79.366 -278.43)" d="m416.98 347.99v0.479 2.391c1.604 4.922 1.836 10.417 2.391 15.78v15.302c0 3.567-0.113 7.114 0.478 10.52 0.788 3.454 1.683 6.206 1.913 10.042 0.728 2.99 0.335 6.302-0.478 8.607-1.422 1.648-2.85 5.106-3.826 6.695" fill="none" stroke="#000" stroke-width="1pt"/>
 <path id="path604" transform="matrix(1.4096 0 0 1.4788 -79.366 -278.43)" d="m571.26 287.75" fill="none" stroke="#000" stroke-width="1pt"/>
 <path id="path606" transform="matrix(1.4096 0 0 1.4788 -79.366 -278.43)" d="m553.99 427.07c-32.18 73.192-110.42 130.61-110.42 130.61 25.87-22.295 96.538-91.491 110.42-130.61z" fill="none" stroke="#000" stroke-width="1pt"/>
 <path id="path607" transform="matrix(1.4096 0 0 1.4788 -79.366 -278.43)" d="m557.78 432.75c-5.679 34.703-7.572 44.799-7.572 44.799-2.524-1.262-8.203 27.132-26.501 56.157 20.822-37.438 30.287-65.411 34.073-100.96z" fill="none" stroke="#000" stroke-width="1pt"/>
 <path id="path608" transform="matrix(1.4096 0 0 1.4788 -79.366 -278.43)" d="m246.71 405.62c-27.762 44.167-41.644 84.549-33.441 163.42 2.734-102.85 2.944-98.431 33.441-163.42z" fill="none" stroke="#000" stroke-width="1pt"/>
 <path id="path609" transform="matrix(1.4096 0 0 1.4788 -111.78 -276.43)" d="m260.23 409c-30.467 37.405-61.255 54.794-53.052 133.67-6.058-83.237 27.289-95.05 53.052-133.67z" fill="none" stroke="#000" stroke-width="1pt"/>
 <path id="path617" transform="matrix(.5297 0 0 .5386 647.56 -19.979)" d="m-185.05 220.25c-6.317 0.824-5.748 6.287-5.748 6.765 0.824 2.126 1.561 3.013 5.752 3.767 8.86-3.092 11.049-0.192 14.62 0.012 12.084 6.246 14.526-6.197 12.248-9.863-1.098-4.669-6.005-13.99-7.755-17.825-1.749-3.835-2.281-9.22-3.056-16.418l6.077-12.639c11.605-6.87 17.442-8.247 21.906-8.252 9.338 3.57 3.092-4.445-2.055-2.726-4.653 0.096-13.356 0.743-20.653 9.628l0.596 1.403" fill-opacity="0" stroke="#000" stroke-width="1pt"/>
 <path id="path618" transform="matrix(.5297 0 0 .5386 647.56 -19.979)" d="m-228.68 193.57c11.419 4.007 23.017 3.25 27.295-1.257 3.096-11.245-21.252-14.627-27.295 1.257z" fill="#fff" fill-rule="evenodd" stroke="#000" stroke-width="1pt"/>
 <path id="path619" transform="matrix(.5297 0 0 .5386 647.56 -19.979)" d="m-164.97 190.88c9.618 0.837 21.982 1.949 23.909-7.376 3.296-2.197-19.454-13.497-23.909 7.376z" fill="#fff" fill-rule="evenodd" stroke="#000" stroke-width="1pt"/>
 <path id="path630" transform="matrix(.5297 0 0 .5386 647.56 -19.979)" d="m-173.3 254.24" fill="none" stroke="#000" stroke-width="1pt"/>
 <path id="path616" transform="matrix(.5297 0 0 .5386 647.56 -19.979)" d="m-169.76 245.46-9.033-1.231c-8.239 5.494-19.649 9.218-23.219 9.492l11.355 0.824 9.023 2.969 18.934-1.302 12.27-13.896c-3.845 0.549-6.551 0.152-12.248-1.496-4.323 3.57-4.885 3.816-7.082 4.64z" fill="#88485c" fill-rule="evenodd" stroke="#000" stroke-width="1pt"/>
 <path id="path615" transform="matrix(.5297 0 0 .5386 647.56 -19.979)" d="m-194.22 253.86c0.203 0.753 7.924 7.66 9.847 7.386 7.965 2.472 17.206 0.966 19.881-1.231 2.95-5.219 12.779-16.534 12.779-16.534-7.964 5.219-16.401 7.448-16.605 7.448-5.694 0.983-10.839 0.319-16.258 0.478-4.588 1.55-7.253 1.178-9.644 2.453z" fill="#a05a75" fill-rule="evenodd" stroke="#000" stroke-width="1pt"/>
 <path id="path621" transform="matrix(.5297 0 0 .5386 647.56 -19.979)" d="m-153.02 180.63c-3.845-1.099-11.76 0.023-9.563 9.564 5.768 3.499 13.408-1.05 9.563-9.564z" fill="#000004" fill-rule="evenodd" stroke="#000" stroke-width="1pt"/>
 <path id="path620" transform="matrix(.5297 0 0 .5386 647.08 -20.519)" d="m-225.5 190.2c6.246 12.634 16.95 3.987 15.028 0.213-0.066-5.839-9.195-8.107-15.028-0.213z" fill="#00000c" fill-opacity=".98342" fill-rule="evenodd" stroke="#000" stroke-width="1pt"/>
 <path id="path635" transform="matrix(.30386 0 0 .35467 606.79 14.966)" d="m-147.18 185.63c3.495 1.233 7.16 0.457 7.703-2.364-1.94-1.405-5.358-4.557-7.703 2.364z" fill="#fff" fill-rule="evenodd" stroke="#000" stroke-width="1pt"/>
 <path id="path636" transform="matrix(.26832 0 0 .44624 570.59 .8688)" d="m-147.18 185.63c3.495 1.233 7.16 0.457 7.703-2.364-1.94-1.405-5.358-4.557-7.703 2.364z" fill="#fff" fill-rule="evenodd" stroke="#000" stroke-width="1pt"/>
 <path id="path638" transform="matrix(.46813 0 0 .52382 826.05 4.873)" d="m-574.42 98.886c21.911-30.355 24.768-11.679 30.596 21.98 22.457 13.292 10.923-5.822 17.536-17.145-17.241-26.42 9.722-50.692-39.472-79.456-40.574-17.207-34.738 8.9513-78.137-6.6752-9.372 2.8075-69.92 25.093-79.33 66.847-10.804 30.057-0.425 22.461 3.665 81.079 11.01-23.691 54.678-20.851 43.479 36.9 25.97-21.876-10.193-73.235 6.51-74.345 55.005 43.777-19.591-2.275 62.471-3.124 9.318-39.674 7.294-64.038 32.682-26.061z" fill="#232b32" fill-rule="evenodd" stroke="#000" stroke-width="1pt"/>
 <path id="path641" transform="matrix(.98309 0 0 .64419 62.403 -80.661)" d="m517.41 232.79c-0.112 0-1.505-1.419-1.421-1.419 6.329 0.63 0.25-0.179-1.352 0.338-1.47 0.602-6.14 3.459-7.829 7.258 1.448 1.257 5.204-5.516 7.45-6.062 0.129-0.389 2.969 0.111 3.152-0.115z" fill="#232b32" fill-rule="evenodd" stroke="#000" stroke-width="1pt"/>
 <path id="path642" transform="matrix(-.89047 .43705 .26019 .5835 928.91 -288.84)" d="m517.41 232.79c-0.112 0-1.505-1.419-1.421-1.419 6.329 0.63 0.25-0.179-1.352 0.338-1.47 0.602-10.619 4.126-10.081 11.806 0.571-5.485 7.081-10.064 9.327-10.61 0.129-0.389 3.344 0.111 3.527-0.115z" fill="#232b32" fill-rule="evenodd" stroke="#000" stroke-width="1pt"/>
 <path id="path644" transform="matrix(.092108 0 0 .10393 564.28 97.912)" d="m-164.97 190.88c9.618 0.837 21.982 1.949 23.909-7.376 3.296-2.197-19.454-13.497-23.909 7.376z" fill="#fff" fill-rule="evenodd" stroke="#000" stroke-width="1pt"/>
 <path id="path645" transform="matrix(.8266 0 0 .91674 422.54 -11.485)" d="m142.7 122.98c4.394 5.493-0.504 12.449-4.003 14.513 2.651 1.562 1.219 8.365-2.47 12.253 5.805-3.943 4.458-9.389 5.559-12.529 3.708-2.653 5.115-11.097 0.914-14.237z" fill="#a18f79" fill-rule="evenodd" stroke="#a7387d" stroke-width=".125"/>
 <path id="path648" transform="matrix(.26009 0 0 .13885 394.8 65.344)" d="m527.48 94.495c0 0.0458 2.747-1.0071 2.06-6.4545 1.236 2.5635 3.845 11.764 4.394-0.5494 4.099 10.47 3.16 7.64 5.769-1.3732" fill="none" stroke="#000" stroke-width="1pt"/>
 <path id="path649" transform="matrix(.24997 -.079658 .037454 .14456 393.17 108.35)" d="m527.48 94.495c0 0.0458 2.747-1.0071 2.06-6.4545 1.236 2.5635 3.845 11.764 4.394-0.5494 4.099 10.47 3.16 7.64 5.769-1.3732" fill="none" stroke="#000" stroke-width="1pt"/>
 <path id="path650" transform="matrix(.26009 0 0 .13885 398.2 65.47)" d="m527.48 94.495c0 0.0458 2.747-1.0071 2.06-6.4545 1.236 2.5635 3.845 11.764 4.394-0.5494 4.099 10.47 3.16 7.64 5.769-1.3732" fill="none" stroke="#000" stroke-width="1pt"/>
 <path id="path651" transform="matrix(.25266 -.068452 .029711 .13489 427.07 100.21)" d="m527.48 94.495c0 0.0458 2.747-1.0071 2.06-6.4545 1.236 2.5635 3.845 11.764 4.394-0.5494 4.099 10.47 3.16 7.64 5.769-1.3732" fill="none" stroke="#000" stroke-width="1pt"/>
 <path id="path652" transform="matrix(.26009 0 0 .13885 428.96 62.952)" d="m527.48 94.495c0 0.0458 2.747-1.0071 2.06-6.4545 1.236 2.5635 3.845 11.764 4.394-0.5494 4.099 10.47 3.16 7.64 5.769-1.3732" fill="none" stroke="#000" stroke-width="1pt"/>
 <path id="path653" transform="matrix(.23958 .11227 -.048729 .1279 447.71 4.6652)" d="m527.48 94.495c0 0.0458 2.747-1.0071 2.06-6.4545 1.236 2.5635 3.845 11.764 4.394-0.5494 4.099 10.47 3.16 7.64 5.769-1.3732" fill="none" stroke="#000" stroke-width="1pt"/>
 <path id="path654" transform="matrix(.8266 0 0 .91674 -18.127 38.015)" d="m612.84 52.281c8.695-2.8419 24.74-7.1186 17.031 25.444 13.545-37.193-12.204-12.768 14.995-29.29 1.91-17.047-23.346-32.505-32.576-31.085-3.196 1.9176-3.783 21.932 0.55 34.93z" fill="#232b32" fill-rule="evenodd"/>
</svg>
