<?xml version="1.0" encoding="UTF-8"?>
<!-- Created with Inkscape (http://www.inkscape.org/) -->
<svg id="svg2" width="522" height="361.72" version="1.0" xmlns="http://www.w3.org/2000/svg" xmlns:cc="http://creativecommons.org/ns#" xmlns:dc="http://purl.org/dc/elements/1.1/" xmlns:rdf="http://www.w3.org/1999/02/22-rdf-syntax-ns#" xmlns:xlink="http://www.w3.org/1999/xlink">
 <defs id="defs4">
  <linearGradient id="linearGradient3224">
   <stop id="stop3226" stop-color="#18181a" offset="0"/>
   <stop id="stop3228" stop-color="#18181a" stop-opacity="0" offset="1"/>
  </linearGradient>
  <linearGradient id="linearGradient3217">
   <stop id="stop3219" offset="0"/>
   <stop id="stop3221" stop-opacity="0" offset="1"/>
  </linearGradient>
  <linearGradient id="linearGradient3201">
   <stop id="stop3203" stop-color="#373737" offset="0"/>
   <stop id="stop3205" stop-opacity="0" offset="1"/>
  </linearGradient>
  <radialGradient id="radialGradient2943" cx="182.23" cy="468.34" r="120.47" gradientTransform="matrix(.98756 -2.3941 1.229 .50696 -573.31 657.82)" gradientUnits="userSpaceOnUse">
   <stop id="stop3178" offset="0"/>
   <stop id="stop3180" stop-color="#1b140f" offset="1"/>
  </radialGradient>
  <linearGradient id="linearGradient2945" x1="383.59" x2="353.51" y1="342.7" y2="342.55" gradientUnits="userSpaceOnUse">
   <stop id="stop2455" stop-color="#1a1c1a" offset="0"/>
   <stop id="stop2457" stop-color="#c3c6c6" offset="1"/>
  </linearGradient>
  <linearGradient id="linearGradient2947" x1="240.32" x2="178.65" y1="225.52" y2="397.39" gradientUnits="userSpaceOnUse">
   <stop id="stop3297" stop-color="#373737" offset="0"/>
   <stop id="stop3299" stop-opacity="0" offset="1"/>
  </linearGradient>
  <linearGradient id="linearGradient2949" x1="344.55" x2="243.71" y1="206.4" y2="491.18" gradientTransform="translate(.14928 -.038994)" gradientUnits="userSpaceOnUse" xlink:href="#linearGradient3201"/>
  <linearGradient id="linearGradient2951" x1="226.92" x2="149.7" y1="386.27" y2="293.95" gradientUnits="userSpaceOnUse">
   <stop id="stop3215" stop-color="#1a1a1a" offset="0"/>
   <stop id="stop3217" stop-color="#1a1a1a" stop-opacity="0" offset="1"/>
  </linearGradient>
  <linearGradient id="linearGradient2953" x1="163.39" x2="161.47" y1="259.73" y2="251.35" gradientUnits="userSpaceOnUse" xlink:href="#linearGradient3224"/>
  <linearGradient id="linearGradient2955" x1="163.39" x2="161.47" y1="259.73" y2="251.35" gradientTransform="matrix(.65184 0 0 1.0048 44.168 15.502)" gradientUnits="userSpaceOnUse" xlink:href="#linearGradient3224"/>
  <linearGradient id="linearGradient2957" x1="199.72" x2="61.156" y1="368.45" y2="581.96" gradientUnits="userSpaceOnUse" xlink:href="#linearGradient3201"/>
  <linearGradient id="linearGradient2961" x1="552.73" x2="65.72" y1="-37.019" y2="569.56" gradientUnits="userSpaceOnUse" xlink:href="#linearGradient3217"/>
  <linearGradient id="linearGradient2963" x1="543.66" x2="61.156" y1="85.929" y2="581.96" gradientUnits="userSpaceOnUse" xlink:href="#linearGradient3201"/>
  <linearGradient id="linearGradient2965" x1="386.53" x2="65.72" y1="283.33" y2="569.56" gradientUnits="userSpaceOnUse" xlink:href="#linearGradient3217"/>
  <linearGradient id="linearGradient2967" x1="-14.35" x2="224.03" y1="617.82" y2="413.8" gradientUnits="userSpaceOnUse" xlink:href="#linearGradient3217"/>
 </defs>
 <metadata id="metadata7">
  <rdf:RDF>
   <cc:Work rdf:about="">
    <dc:format>image/svg+xml</dc:format>
    <dc:type rdf:resource="http://purl.org/dc/dcmitype/StillImage"/>
   </cc:Work>
  </rdf:RDF>
 </metadata>
 <g id="layer1" transform="translate(-68.571 -233.5)">
  <g id="g2906">
   <path id="path2396" transform="matrix(.89597 0 0 .91818 5.7619 24.852)" d="m562.86 505.22c0 48.128-40.294 87.143-90 87.143-49.706 0-90-39.015-90-87.143s40.294-87.143 90-87.143c49.706 0 90 39.015 90 87.143z"/>
   <path id="path3275" d="m188.99 282.9 64.925 1.9285 1.2856 12.214 54.64-0.64283 2.5713 119.57h12.857l-4.4998-124.71 25.07-16.713v-20.57l-158.78 1.9285 1.9285 26.999z" fill="#666" fill-rule="evenodd"/>
   <path id="path3236" d="m199.31 347.45c1.7256-4.314 14.668-21.57 14.668-21.57l3.0198-5.1769-5.6083-25.021 3.4512-8.1967 5.1769-4.314 20.707-3.8826 6.0397 6.4711v10.354l2.5884 9.9223-3.8826 1.7256v4.7455l-0.43141 4.7454-4.7454 3.4512-2.5884 1.7256 0.86281 12.511 6.9025 12.942 10.785 6.4711 16.393 10.785 4.314 4.314v10.354l12.511-24.59 3.8826-3.4512 3.8826 1.2942 1.2942 3.4512-4.7455 10.354-0.4314 9.0595 2.5884 2.157 5.6083 4.7455 9.9223 17.256 9.4909 0.4314 10.354-15.962 9.4909 6.0397-7.3339 12.942 2.5884 1.2942 17.256-11.217 3.4512 48.317-59.102-0.43141-47.023-73.77-52.2-13.805 0.86281-6.4711z" fill="#434345" fill-rule="evenodd"/>
   <path id="path2390" d="m221.51 490.58 76.331 29.584 160.5 0.74075 47.347-71.41s12.085-41.537-0.6598-66.798c-4.3526-8.627-11.913-11.349-21.507-12.505-22.01-2.651-80.063-6.934-130.27-6.6862 1.0871 17.411 4.3276 51.377 4.4083 77.869-16.261 0.77459-43.048 1.236-49.858 0.90451-11.707-23.742-36.172-71.233-51.298-83.264-22.55-3.2233-67.78-8.5034-89.95-7.739-20.303 0.70007-55.9-4.5677-66.803 11.087-5.976 8.5802-0.86677 15.105-5.1359 24.65-4.1955 9.3804-22.826 25.538-22.826 25.538l39.857 21.434 109.87 56.594z" fill="#008000" fill-rule="evenodd"/>
   <path id="path3312" d="m357.21 384.99 149.74 3.5639s1.1252 1.975 1.7527 6.9425c-6.7774 0-151.09-0.93829-151.09-0.93829l-0.39867-9.5681z" fill="#ff0" fill-rule="evenodd" stroke="#000" stroke-width="1px"/>
   <path id="path2400" d="m290.12 235.91c-41.865-0.0791-85.704 1.6143-98.406 5.2188-8.4593 2.4004-11.674 17.168-11.674 17.168l-8.6695 94.245c31.252 2.4931 81.677 5.2622 86.969 9.6181 18.847 15.515 50.031 83.344 50.031 83.344h53.406l-8.9062-173.44 9.875-7.6875 2.9375-10.796s-13.202-13.068-18.757-13.495c-16.54-1.2725-31.687-4.1305-56.806-4.178zm-96.469 28 57.781 0.65625c0-1e-5 0.51975 8.1258 1.4375 92.625-5.7804-2.4936-34.516-5.1001-62.812-7.5938l3.5938-85.688zm149.72 0.4375 10.719 175.91-47.312 0.0625c-1e-5 -1e-5 -22.496-52.981-47.188-79.75l-1.7188-95.625 85.5-0.59375z" fill="#1a1a1a" fill-rule="evenodd"/>
   <path id="path2404" d="m69.69 415.2c1.0495-4.8107 8.4241-13.019 16.082-21.443 7.6583-8.4241 30.062-32.46 52.842-36.76 30.843-5.8213 80.496 1.0366 105.68 3.8291 4.0464 0.4486 9.9113 1.1992 13.019 3.8291 14.771 12.5 39.047 56.817 50.544 83.475 6.9566 16.129-9.1899 72.753-9.1899 72.753l-76.583-29.188-124.06-63.477-16.087-11.476s-4.0861 2.2202-5.9706 2.0413c-2.159-0.20506-6.7399-1.4657-6.2777-3.5846z" fill="url(#radialGradient2943)" fill-rule="evenodd"/>
   <path id="path3314" d="m358.01 397.15h151.3" fill="none" stroke="#000" stroke-width="1px"/>
   <path id="path3316" d="m402.26 521.53c0-7.1734-0.47074-32.854 2.2072-43.592 3.819-15.314 16.944-35.081 28.142-47.462 5.0607-5.5954 23.849-17.181 30.806-20.13 18.957-8.0356 47.069-4.3983 49.183-3.8699 0 0 1.1766-3.583-5.4961-4.6866-10.401-1.7202-34.659-0.62826-49.11 2.2072-9.4548 1.8551-31.147 12.775-41.672 22.329-14.421 13.092-28.047 36.178-32.033 50.551-1.4894 5.3706-4.1713 24.182-3.5466 40.789 6.342 1.089 22.072 7.7251 22.072 7.7251" fill="#000080" fill-rule="evenodd"/>
   <path id="path3318" d="m180.23 259.57 186.22-4.9005s-5.4191-8.5234-8.1675-10.89c-4.3183-3.7184-11.187-8.4605-16.88-8.712-36.053-1.5927-86.668-2.7528-123.6 0.5445-9.4157 0.84058-23.822-0.66357-31.037 5.445-4.4948 3.8059-6.534 18.513-6.534 18.513z" fill="#008000" fill-rule="evenodd"/>
   <path id="path2437" d="m154.01 351.76 7.3339-76.359 20.707-15.962 0.86281-12.942-16.393-0.86281-0.86281 12.511 1.7256-1.2942-9.4909 5.6083-4.7455 0.2157-0.43141 10.785 4.7455 0.64711" fill="#18181a" fill-rule="evenodd" stroke="#000" stroke-width="1px"/>
   <path id="path2451" d="m371.87 281.01-2.157 4.7455-3.0198 163.5s1.0031 3.7861 2.5884 4.7455c2.2172 1.3418 6.4333 1.8096 8.6281 0.4314 1.3733-0.86236 2.5884-4.7454 2.5884-4.7454l2.5884-163.07-1.7256-4.7455v-15.962s-2.5033-2.3495-3.8826-2.5884c-1.5774-0.27322-5.1769 1.2942-5.1769 1.2942l-0.43141 16.393z" fill="url(#linearGradient2945)" fill-rule="evenodd"/>
   <path id="path2392" d="m190.07 349.65 3.6034-85.684 57.783 0.66787s0.49886 8.0972 1.4166 92.596c-5.7804-2.4936-34.506-5.0868-62.803-7.5804z" fill="url(#linearGradient2947)" fill-rule="evenodd"/>
   <path id="path2402" d="m259.72 360.59-1.7217-95.614 85.493-0.58013 10.709 175.88-47.32 0.0611s-22.469-52.981-47.161-79.75z" fill="url(#linearGradient2949)" fill-rule="evenodd"/>
   <path id="path3210" d="m161.78 275.4-7.7653 75.496 17.688 0.43141 8.6281-89.732" fill="url(#linearGradient2951)" fill-rule="evenodd" stroke="#000" stroke-width="1px"/>
   <path id="path3221" d="m165.23 257.28s-4.8907 0.32123-4.5297-3.2355c0.40218-3.9628-0.2455-3.9454 0.2157-5.6083 0.86283-3.1109 5.1768-3.0198 5.1768-3.0198l-0.86281 11.864z" fill="url(#linearGradient2953)" fill-rule="evenodd" stroke="#ccc" stroke-width=".3"/>
   <path id="path3232" d="m152.3 273.81s-3.6193 0.53848-3.384-3.0354c0.26215-3.982-0.16003-3.9644 0.1406-5.6353 0.56242-3.1259 3.3745-3.0344 3.3745-3.0344l-0.13101 11.705z" fill="url(#linearGradient2955)" fill-rule="evenodd" stroke="#ccc" stroke-width=".24279"/>
   <path id="path2383" transform="translate(31.429)" d="m262.86 482.36c0 62.329-50.528 112.86-112.86 112.86-62.329 0-112.86-50.528-112.86-112.86 0-62.329 50.528-112.86 112.86-112.86 62.329 0 112.86 50.528 112.86 112.86z" fill="#1a1a1a"/>
   <path id="path2387" transform="matrix(1 0 0 1.0328 27.714 -19.422)" d="m562.86 505.22c0 48.128-40.294 87.143-90 87.143-49.706 0-90-39.015-90-87.143s40.294-87.143 90-87.143c49.706 0 90 39.015 90 87.143z" fill="#1a1a1a"/>
   <path id="path3204" transform="matrix(.57615 0 0 .57615 94.666 204.99)" d="m262.86 482.36c0 62.329-50.528 112.86-112.86 112.86-62.329 0-112.86-50.528-112.86-112.86 0-62.329 50.528-112.86 112.86-112.86 62.329 0 112.86 50.528 112.86 112.86z" fill="#ff0"/>
   <path id="path3206" transform="matrix(.55709 0 0 .57535 238.56 212.45)" d="m562.86 505.22c0 48.128-40.294 87.143-90 87.143-49.706 0-90-39.015-90-87.143s40.294-87.143 90-87.143c49.706 0 90 39.015 90 87.143z" fill="#ff0"/>
   <path id="path2403" transform="matrix(.47523 0 0 .47523 109.8 252.53)" d="m262.86 482.36c0 62.329-50.528 112.86-112.86 112.86-62.329 0-112.86-50.528-112.86-112.86 0-62.329 50.528-112.86 112.86-112.86 62.329 0 112.86 50.528 112.86 112.86z"/>
   <path id="path2405" transform="matrix(.44952 0 0 .48386 282.3 260.08)" d="m562.86 505.22c0 48.128-40.294 87.143-90 87.143-49.706 0-90-39.015-90-87.143s40.294-87.143 90-87.143c49.706 0 90 39.015 90 87.143z"/>
   <path id="path2407" d="m152.62 430.51s-0.68182 7.5153 6.1517 7.5153c6.8335 0 53.299 5.2452 53.299 5.2452l7.7477-5.4622 11.387 21.175-5.0153 4.7881-5.9219 48.054 4.1037 6.3815-9.1114 9.1114-9.1114-4.5557-58.539-6.1492-8.6568 2.7324-9.1114-11.389 7.0634-6.1594 6.3764-49.653-5.692-9.7932 15.031-11.841z" fill="#ff0" fill-rule="evenodd"/>
   <path id="path3199" transform="matrix(.51115 0 0 .51115 104.69 235.35)" d="m262.86 482.36c0 62.329-50.528 112.86-112.86 112.86-62.329 0-112.86-50.528-112.86-112.86 0-62.329 50.528-112.86 112.86-112.86 62.329 0 112.86 50.528 112.86 112.86z" fill="none" stroke="url(#linearGradient2957)" stroke-width="2.1042"/>
   <path id="path3209" transform="matrix(.53509 0 0 .53509 100.83 224.07)" d="m262.86 482.36c0 62.329-50.528 112.86-112.86 112.86-62.329 0-112.86-50.528-112.86-112.86 0-62.329 50.528-112.86 112.86-112.86 62.329 0 112.86 50.528 112.86 112.86z" fill="none" stroke="url(#linearGradient2957)" stroke-width="2.1042"/>
   <path id="path3213" transform="matrix(.2398 0 0 .2398 145.85 363.06)" d="m262.86 482.36c0 62.329-50.528 112.86-112.86 112.86-62.329 0-112.86-50.528-112.86-112.86 0-62.329 50.528-112.86 112.86-112.86 62.329 0 112.86 50.528 112.86 112.86z" fill="url(#linearGradient2961)"/>
   <path id="path3225" transform="matrix(.14802 0 0 .14802 159.16 407.25)" d="m262.86 482.36c0 62.329-50.528 112.86-112.86 112.86-62.329 0-112.86-50.528-112.86-112.86 0-62.329 50.528-112.86 112.86-112.86 62.329 0 112.86 50.528 112.86 112.86z" fill="none" stroke="url(#linearGradient2963)" stroke-width="20.268"/>
   <path id="path3233" d="m481.92 470.75 32.434 5.2954 9.2669-3.9715 9.9288 11.253-8.605 7.2811-5.2954 33.758 5.9573 10.591-7.2811 8.605-7.943-3.9715-37.729-5.2954-5.9573 4.6334-9.2669-13.238 1.9858-6.6192 7.2811-39.715-3.9715-4.6334 13.9-9.9288 5.2954 5.9573z" fill="#ff0" fill-rule="evenodd"/>
   <path id="path3231" transform="matrix(.47785 0 0 .49514 271.91 254.2)" d="m562.86 505.22c0 48.128-40.294 87.143-90 87.143-49.706 0-90-39.015-90-87.143s40.294-87.143 90-87.143c49.706 0 90 39.015 90 87.143z" fill="none" stroke="#000" stroke-width="2.1442"/>
   <path id="path3229" transform="matrix(.4955 0 0 .51337 264.86 244.63)" d="m562.86 505.22c0 48.128-40.294 87.143-90 87.143-49.706 0-90-39.015-90-87.143s40.294-87.143 90-87.143c49.706 0 90 39.015 90 87.143z" fill="none" stroke="#000" stroke-width="2.1442"/>
   <path id="path3235" transform="matrix(.2398 0 0 .2398 456.11 388.36)" d="m262.86 482.36c0 62.329-50.528 112.86-112.86 112.86-62.329 0-112.86-50.528-112.86-112.86 0-62.329 50.528-112.86 112.86-112.86 62.329 0 112.86 50.528 112.86 112.86z" fill="url(#linearGradient2965)"/>
   <path id="path3239" transform="matrix(.1985 0 0 .1985 459.26 409.41)" d="m262.86 482.36c0 62.329-50.528 112.86-112.86 112.86-62.329 0-112.86-50.528-112.86-112.86 0-62.329 50.528-112.86 112.86-112.86 62.329 0 112.86 50.528 112.86 112.86z" fill="#ff0"/>
   <path id="path3245" transform="matrix(.12588 0 0 .12588 469.67 444.6)" d="m262.86 482.36c0 62.329-50.528 112.86-112.86 112.86-62.329 0-112.86-50.528-112.86-112.86 0-62.329 50.528-112.86 112.86-112.86 62.329 0 112.86 50.528 112.86 112.86z" fill="url(#linearGradient2967)"/>
   <path id="path3249" transform="matrix(.11876 0 0 .11876 472.66 445.78)" d="m262.86 482.36c0 62.329-50.528 112.86-112.86 112.86-62.329 0-112.86-50.528-112.86-112.86 0-62.329 50.528-112.86 112.86-112.86 62.329 0 112.86 50.528 112.86 112.86z" fill="#ff0"/>
  </g>
 </g>
</svg>
