<?xml version="1.0" encoding="UTF-8"?>
<!-- Created with Inkscape (http://www.inkscape.org/) -->
<svg id="svg3610" width="58.808" height="49.887" version="1.1" xmlns="http://www.w3.org/2000/svg" xmlns:cc="http://creativecommons.org/ns#" xmlns:dc="http://purl.org/dc/elements/1.1/" xmlns:rdf="http://www.w3.org/1999/02/22-rdf-syntax-ns#" xmlns:xlink="http://www.w3.org/1999/xlink">
 <defs id="defs3612">
  <linearGradient id="linearGradient4449" x1="6.5225" x2="5.3033" y1="428.96" y2="430.68" gradientTransform="translate(312.25 20.831)" gradientUnits="userSpaceOnUse" spreadMethod="reflect">
   <stop id="stop6635" stop-color="#d3d7cf" offset="0"/>
   <stop id="stop6637" stop-color="#888a85" offset="1"/>
  </linearGradient>
  <linearGradient id="linearGradient4451" x1="138.09" x2="146.77" y1="370.28" y2="382.98" gradientTransform="matrix(.42794 0 0 .42794 33.779 217.07)" gradientUnits="userSpaceOnUse" xlink:href="#linearGradient3689"/>
  <linearGradient id="linearGradient3689">
   <stop id="stop3691" stop-color="#d3d7cf" offset="0"/>
   <stop id="stop3693" offset="1"/>
  </linearGradient>
  <linearGradient id="linearGradient4455" x1="265.49" x2="259" y1="453.36" y2="464.99" gradientTransform="translate(50.847 -30.05)" gradientUnits="userSpaceOnUse">
   <stop id="stop4354" stop-color="#eeeeec" offset="0"/>
   <stop id="stop4356" stop-color="#888a85" offset="1"/>
  </linearGradient>
 </defs>
 <metadata id="metadata3615">
  <rdf:RDF>
   <cc:Work rdf:about="">
    <dc:format>image/svg+xml</dc:format>
    <dc:type rdf:resource="http://purl.org/dc/dcmitype/StillImage"/>
    <dc:title/>
   </cc:Work>
  </rdf:RDF>
 </metadata>
 <g id="layer1" transform="translate(-23.929 -81.723)">
  <g id="g4398" transform="translate(-270.4 -333.23)">
   <path id="path4190" d="m317.1 447.13c-0.22568-4e-3 -0.4584 0.0623-0.71875 0.15625-1.0414 0.37582-1.9062 1.4416-1.9062 2.375 0 0.58338 0.3419 0.97089 0.84375 1.0938l5.5061 3.1708 3.0938-3.0625-6.1624-3.5145-0.0312-0.0312c-0.17775-0.10392-0.38352-0.18305-0.625-0.1875z" fill="url(#linearGradient4449)" stroke="#000" stroke-linecap="round" stroke-linejoin="round" stroke-width=".5"/>
   <path id="path4192" transform="matrix(.65357 -.23586 0 .65357 251.92 232.8)" d="m110.36 374.49c0 1.4289-1.2924 2.5873-2.8866 2.5873s-2.8866-1.1584-2.8866-2.5873c0-1.4289 1.2924-2.5873 2.8866-2.5873s2.8866 1.1584 2.8866 2.5873z" fill="#555753" stroke="#000" stroke-linecap="round" stroke-linejoin="round" stroke-width=".76503"/>
   <g id="g4194" transform="translate(206.35 59.618)">
    <path id="path4196" transform="matrix(-.18314 -.2966 .2966 -.18314 41.282 467.88)" d="m148.59 262c0 4.4415-5.3351 8.042-11.916 8.042-6.5812 0-11.916-3.6005-11.916-8.042 0-4.4414 5.3351-8.042 11.916-8.042 6.5812 0 11.916 3.6005 11.916 8.042z" fill="#c00"/>
    <path id="path4198" d="m92.872 375.53c-0.39582-3e-3 -0.76744 0.091-1.0966 0.29421l-2.2317 1.2838 4.0599 7.2617 2.8123-1.685c1.0475-0.94151 1.0475-2.9964-0.06687-4.801-0.90351-1.4632-2.2896-2.3455-3.477-2.3537z" fill="url(#linearGradient4451)" fill-rule="evenodd" stroke="#000" stroke-width=".21397"/>
    <path id="path4200" transform="matrix(-.18314 -.2966 .2966 -.18314 38.893 469.26)" d="m148.59 262c0 4.4415-5.3351 8.042-11.916 8.042-6.5812 0-11.916-3.6005-11.916-8.042 0-4.4414 5.3351-8.042 11.916-8.042 6.5812 0 11.916 3.6005 11.916 8.042z" fill="#555753" stroke="#000" stroke-linejoin="bevel" stroke-width=".61383"/>
    <path id="path4202" transform="matrix(-.10007 -.16206 .16206 -.10007 62.786 428.93)" d="m148.59 262c0 4.4415-5.3351 8.042-11.916 8.042-6.5812 0-11.916-3.6005-11.916-8.042 0-4.4414 5.3351-8.042 11.916-8.042 6.5812 0 11.916 3.6005 11.916 8.042z" fill="#d3d7cf"/>
   </g>
   <g id="g4204" transform="translate(212.7 63.728)">
    <path id="path4206" transform="matrix(-.18314 -.2966 .2966 -.18314 41.282 467.88)" d="m148.59 262c0 4.4415-5.3351 8.042-11.916 8.042-6.5812 0-11.916-3.6005-11.916-8.042 0-4.4414 5.3351-8.042 11.916-8.042 6.5812 0 11.916 3.6005 11.916 8.042z" fill="#c00"/>
    <path id="path4208" d="m92.872 375.53c-0.39582-3e-3 -0.76744 0.091-1.0966 0.29421l-2.2317 1.2838 4.0599 7.2617 2.8123-1.685c1.0475-0.94151 1.0475-2.9964-0.06687-4.801-0.90351-1.4632-2.2896-2.3455-3.477-2.3537z" fill="url(#linearGradient4451)" fill-rule="evenodd" stroke="#000" stroke-width=".21397"/>
    <path id="path4210" transform="matrix(-.18314 -.2966 .2966 -.18314 38.893 469.26)" d="m148.59 262c0 4.4415-5.3351 8.042-11.916 8.042-6.5812 0-11.916-3.6005-11.916-8.042 0-4.4414 5.3351-8.042 11.916-8.042 6.5812 0 11.916 3.6005 11.916 8.042z" fill="#555753" stroke="#000" stroke-linejoin="bevel" stroke-width=".61383"/>
    <path id="path4212" transform="matrix(-.10007 -.16206 .16206 -.10007 62.786 428.93)" d="m148.59 262c0 4.4415-5.3351 8.042-11.916 8.042-6.5812 0-11.916-3.6005-11.916-8.042 0-4.4414 5.3351-8.042 11.916-8.042 6.5812 0 11.916 3.6005 11.916 8.042z" fill="#d3d7cf"/>
   </g>
   <path id="path4214" d="m309.92 426.17-15.343 8.8583 30.686 17.717 15.343-8.8583-30.686-17.717z" fill="#d3d7cf" fill-rule="evenodd" stroke="#000" stroke-linecap="round" stroke-linejoin="bevel" stroke-width=".5"/>
   <path id="path4343" d="m324.2 443.39c-1.7979 1.0438-3.6848 1.4134-5.2812 0.90625l-1.365 0.85272v3.2188l6.6462-3.8527v-1.125z" fill="#555753" fill-rule="evenodd" stroke="#000" stroke-linecap="round" stroke-linejoin="bevel" stroke-width=".5"/>
   <path id="path4392" d="m309.93 435.25c-1.7979 1.0438-3.6848 1.4134-5.2812 0.90625l-1.365 0.85272v3.2188l6.6462-3.8527v-1.125z" fill="#555753" fill-rule="evenodd" stroke="#000" stroke-linecap="round" stroke-linejoin="bevel" stroke-width=".5"/>
   <path id="path3658" d="m306.66 415.2c-2.7748 0.0192-5.9825 2.0808-8.0938 5.5-2.815 4.5589-2.608 9.819 0.46875 11.719 0.27838 0.17189 0.57143 0.29957 0.875 0.40625l30.312 17.875 10.875-16-31.5-18.562-0.125-0.0625c-0.0786-0.0558-0.13604-0.13643-0.21875-0.1875-0.76918-0.47495-1.6688-0.6939-2.5938-0.6875z" fill="url(#linearGradient4455)" stroke="#000" stroke-linejoin="bevel" stroke-width=".5"/>
   <path id="path4345" transform="matrix(.42796 -.69308 -.69308 -.42796 458.18 649.18)" d="m148.59 262c0 4.4415-5.3351 8.042-11.916 8.042-6.5812 0-11.916-3.6005-11.916-8.042 0-4.4414 5.3351-8.042 11.916-8.042 6.5812 0 11.916 3.6005 11.916 8.042z" fill="#555753" stroke="#000" stroke-linejoin="bevel" stroke-width=".5"/>
   <g id="g4216" transform="translate(235.5 77.867)">
    <path id="path4218" transform="matrix(-.18314 -.2966 .2966 -.18314 41.282 467.88)" d="m148.59 262c0 4.4415-5.3351 8.042-11.916 8.042-6.5812 0-11.916-3.6005-11.916-8.042 0-4.4414 5.3351-8.042 11.916-8.042 6.5812 0 11.916 3.6005 11.916 8.042z" fill="#c00"/>
    <path id="path4220" d="m92.872 375.53c-0.39582-3e-3 -0.76744 0.091-1.0966 0.29421l-2.2317 1.2838 4.0599 7.2617 2.8123-1.685c1.0475-0.94151 1.0475-2.9964-0.06687-4.801-0.90351-1.4632-2.2896-2.3455-3.477-2.3537z" fill="url(#linearGradient4451)" fill-rule="evenodd" stroke="#000" stroke-width=".21397"/>
    <path id="path4222" transform="matrix(-.18314 -.2966 .2966 -.18314 38.893 469.26)" d="m148.59 262c0 4.4415-5.3351 8.042-11.916 8.042-6.5812 0-11.916-3.6005-11.916-8.042 0-4.4414 5.3351-8.042 11.916-8.042 6.5812 0 11.916 3.6005 11.916 8.042z" fill="#555753" stroke="#000" stroke-linejoin="bevel" stroke-width=".61383"/>
    <path id="path4224" transform="matrix(-.10007 -.16206 .16206 -.10007 62.786 428.93)" d="m148.59 262c0 4.4415-5.3351 8.042-11.916 8.042-6.5812 0-11.916-3.6005-11.916-8.042 0-4.4414 5.3351-8.042 11.916-8.042 6.5812 0 11.916 3.6005 11.916 8.042z" fill="#d3d7cf"/>
   </g>
   <path id="path4232" d="m330.52 456.84c0.89924 1.4563 1.2122 3.0276 0.96875 4.2812l6 3.4688v-17.719l-9.9688-5.625 0.0671 10.969c0.43258 1.1038 0.41241 2.4355 2.9329 4.625z" fill="#888a85" fill-rule="evenodd" stroke="#000" stroke-linejoin="bevel" stroke-width=".5"/>
   <path id="path4234" d="m352.84 455.72v-17.717l-15.343 8.8583v17.717l15.343-8.8583z" fill="#555753" fill-rule="evenodd" stroke="#000" stroke-linejoin="bevel" stroke-width=".5"/>
   <path id="path4236" d="m352.89 444.69-0.0442-6.6888-15.343 8.8583 0.0442 6.6888 15.343-8.8583z" fill="#729fcf" fill-rule="evenodd" stroke="#000" stroke-linejoin="bevel" stroke-width=".5"/>
   <path id="path4238" d="m336.49 447.54-7.7024-4.3126 0.0942 5.0807 7.5154 5.1461 0.0928-5.9143z" fill="#729fcf" fill-rule="evenodd" stroke="#000" stroke-width=".5"/>
   <path id="path4240" d="m343 432.46-15.343 8.8583 9.7965 5.656 15.343-8.8583-9.7965-5.656z" fill="#d3d7cf" fill-rule="evenodd" stroke="#000" stroke-linejoin="bevel" stroke-width=".5"/>
   <g id="g4242" transform="translate(230.14 77.27)">
    <path id="path4244" transform="matrix(.65357 -.23586 0 .65357 40.11 163.75)" d="m110.36 374.49c0 1.4289-1.2924 2.5873-2.8866 2.5873s-2.8866-1.1584-2.8866-2.5873c0-1.4289 1.2924-2.5873 2.8866-2.5873s2.8866 1.1584 2.8866 2.5873z" fill="#d3d7cf"/>
    <path id="path4246" transform="matrix(.43922 -.15851 0 .43922 63.146 235.71)" d="m110.36 374.49c0 1.4289-1.2924 2.5873-2.8866 2.5873s-2.8866-1.1584-2.8866-2.5873c0-1.4289 1.2924-2.5873 2.8866-2.5873s2.8866 1.1584 2.8866 2.5873z" fill="#eeeeec"/>
    <path id="path4248" transform="matrix(.14598 -.052681 0 .14598 94.172 333.89)" d="m110.36 374.49c0 1.4289-1.2924 2.5873-2.8866 2.5873s-2.8866-1.1584-2.8866-2.5873c0-1.4289 1.2924-2.5873 2.8866-2.5873s2.8866 1.1584 2.8866 2.5873z" fill="#fff"/>
   </g>
   <g id="g4250" transform="translate(240.3 71.24)">
    <path id="path4252" transform="matrix(.65357 -.23586 0 .65357 40.11 163.75)" d="m110.36 374.49c0 1.4289-1.2924 2.5873-2.8866 2.5873s-2.8866-1.1584-2.8866-2.5873c0-1.4289 1.2924-2.5873 2.8866-2.5873s2.8866 1.1584 2.8866 2.5873z" fill="#d3d7cf"/>
    <path id="path4254" transform="matrix(.43922 -.15851 0 .43922 63.146 235.71)" d="m110.36 374.49c0 1.4289-1.2924 2.5873-2.8866 2.5873s-2.8866-1.1584-2.8866-2.5873c0-1.4289 1.2924-2.5873 2.8866-2.5873s2.8866 1.1584 2.8866 2.5873z" fill="#eeeeec"/>
    <path id="path4256" transform="matrix(.14598 -.052681 0 .14598 94.172 333.89)" d="m110.36 374.49c0 1.4289-1.2924 2.5873-2.8866 2.5873s-2.8866-1.1584-2.8866-2.5873c0-1.4289 1.2924-2.5873 2.8866-2.5873s2.8866 1.1584 2.8866 2.5873z" fill="#fff"/>
   </g>
   <g id="g4258" transform="matrix(.44276 0 0 .44276 290.39 287.99)">
    <path id="path4260" transform="matrix(.65357 -.23586 0 .65357 40.11 163.75)" d="m110.36 374.49c0 1.4289-1.2924 2.5873-2.8866 2.5873s-2.8866-1.1584-2.8866-2.5873c0-1.4289 1.2924-2.5873 2.8866-2.5873s2.8866 1.1584 2.8866 2.5873z" fill="#d3d7cf"/>
    <path id="path4262" transform="matrix(.43922 -.15851 0 .43922 63.146 235.71)" d="m110.36 374.49c0 1.4289-1.2924 2.5873-2.8866 2.5873s-2.8866-1.1584-2.8866-2.5873c0-1.4289 1.2924-2.5873 2.8866-2.5873s2.8866 1.1584 2.8866 2.5873z" fill="#f57900"/>
    <path id="path4264" transform="matrix(.14598 -.052681 0 .14598 94.172 333.89)" d="m110.36 374.49c0 1.4289-1.2924 2.5873-2.8866 2.5873s-2.8866-1.1584-2.8866-2.5873c0-1.4289 1.2924-2.5873 2.8866-2.5873s2.8866 1.1584 2.8866 2.5873z" fill="#fff"/>
   </g>
   <g id="g4266" transform="matrix(.44276 0 0 .44276 302.56 281.67)">
    <path id="path4268" transform="matrix(.65357 -.23586 0 .65357 40.11 163.75)" d="m110.36 374.49c0 1.4289-1.2924 2.5873-2.8866 2.5873s-2.8866-1.1584-2.8866-2.5873c0-1.4289 1.2924-2.5873 2.8866-2.5873s2.8866 1.1584 2.8866 2.5873z" fill="#d3d7cf"/>
    <path id="path4270" transform="matrix(.43922 -.15851 0 .43922 63.146 235.71)" d="m110.36 374.49c0 1.4289-1.2924 2.5873-2.8866 2.5873s-2.8866-1.1584-2.8866-2.5873c0-1.4289 1.2924-2.5873 2.8866-2.5873s2.8866 1.1584 2.8866 2.5873z" fill="#f57900"/>
    <path id="path4272" transform="matrix(.14598 -.052681 0 .14598 94.172 333.89)" d="m110.36 374.49c0 1.4289-1.2924 2.5873-2.8866 2.5873s-2.8866-1.1584-2.8866-2.5873c0-1.4289 1.2924-2.5873 2.8866-2.5873s2.8866 1.1584 2.8866 2.5873z" fill="#fff"/>
   </g>
   <path id="path4274" d="m341.98 450.56 0.89755-0.45148 5.1048-8.7111-1.6855 0.97314-4.3168 8.1894z" fill="#fff" fill-rule="evenodd"/>
   <path id="path4276" d="m343.94 449.49 0.89755-0.45148 5.1048-8.7111-1.6855 0.97314-4.3168 8.1894z" fill="#fff" fill-rule="evenodd"/>
   <path id="path4384" d="m317.58 448.01s-1.8562-0.88388-1.9445-1.0607c-0.0884-0.17677-0.0442-2.961-0.0442-2.961l1.9887 1.0607v2.961z" fill="#888a85" fill-rule="evenodd" stroke="#000" stroke-linejoin="bevel" stroke-width=".5"/>
   <path id="path4386" d="m315.46 444.07s1.9445 1.149 2.1655 1.0606c0.22097-0.0884 1.2893-0.7513 1.2893-0.7513l-1.8196-1.0386-1.6352 0.72921z" fill="#d3d7cf" fill-rule="evenodd" stroke="#000" stroke-linejoin="bevel" stroke-width=".5"/>
   <path id="path4394" d="m303.3 439.88s-1.8562-0.88388-1.9445-1.0607c-0.0884-0.17677-0.0442-2.961-0.0442-2.961l1.9887 1.0607v2.961z" fill="#888a85" fill-rule="evenodd" stroke="#000" stroke-linejoin="bevel" stroke-width=".5"/>
   <path id="path4396" d="m301.18 435.94s1.9445 1.149 2.1655 1.0606c0.22097-0.0884 1.2893-0.7513 1.2893-0.7513l-1.8196-1.0386-1.6352 0.72921z" fill="#d3d7cf" fill-rule="evenodd" stroke="#000" stroke-linejoin="bevel" stroke-width=".5"/>
  </g>
 </g>
</svg>
