<?xml version="1.0" encoding="UTF-8"?>
<!-- Created with Inkscape (http://www.inkscape.org/) -->
<svg id="svg2" width="692.09" height="538.73" version="1.0" xmlns="http://www.w3.org/2000/svg" xmlns:cc="http://creativecommons.org/ns#" xmlns:dc="http://purl.org/dc/elements/1.1/" xmlns:rdf="http://www.w3.org/1999/02/22-rdf-syntax-ns#" xmlns:xlink="http://www.w3.org/1999/xlink">
 <defs id="defs4">
  <linearGradient id="linearGradient899">
   <stop id="stop900" stop-color="#fff" stop-opacity="0" offset="0"/>
   <stop id="stop901" stop-color="#fff" offset="1"/>
  </linearGradient>
  <linearGradient id="linearGradient2309" x1="333.88" x2="332.59" y1="452.34" y2="435.47" gradientTransform="matrix(.97225 0 0 1.0106 29.264 -4.8752)" gradientUnits="userSpaceOnUse" xlink:href="#linearGradient899"/>
  <linearGradient id="linearGradient2311" x1="339.8" x2="347.75" y1="440.27" y2="453.59" gradientTransform="matrix(.98869 0 0 1 23.674 0)" gradientUnits="userSpaceOnUse">
   <stop id="stop11741" stop-color="#fff" offset="0"/>
   <stop id="stop11743" stop-color="#fff" stop-opacity="0" offset="1"/>
  </linearGradient>
  <linearGradient id="linearGradient2313" x1="334.57" x2="331.26" y1="451.43" y2="462.76" gradientTransform="matrix(.97225 0 0 1.0106 9.2638 -4.8752)" gradientUnits="userSpaceOnUse" xlink:href="#linearGradient899"/>
  <linearGradient id="linearGradient2315" x1="438.4" x2="436.75" y1="460.98" y2="454.83" gradientUnits="userSpaceOnUse" xlink:href="#linearGradient899"/>
 </defs>
 <metadata id="metadata7">
  <rdf:RDF>
   <cc:Work rdf:about="">
    <dc:format>image/svg+xml</dc:format>
    <dc:type rdf:resource="http://purl.org/dc/dcmitype/StillImage"/>
   </cc:Work>
  </rdf:RDF>
 </metadata>
 <g id="layer1" transform="translate(-8.2839 -84.946)">
  <g id="g2274" transform="matrix(1.1768 0 0 1.1768 -48.932 -33.182)">
   <g id="g3690" transform="matrix(21.759 0 0 21.759 -7637.9 -9509)">
    <path id="path8064" transform="matrix(1 .029484 0 .97896 -80 -3.9067)" d="m451.19 442.97c-2.6113 0.10337-5.0974 0.35519-7.4688 0.6875-0.39996 0.056-0.78547 0.43091-0.78125 0.875l0.125 13.875c4e-3 0.47451 0.39526 0.875 0.875 0.875h14.969c0.46903 0 0.83165-0.41249 0.84375-0.84375 2.8e-4 -0.01 9e-5 -0.0214 0-0.0312l0.53125-14.375a0.46957 0.46957 0 0 0 0-0.0312c-4e-3 -0.47551-0.40598-0.84387-0.84375-0.875-2.9108-0.20715-5.6382-0.25964-8.25-0.15625z"/>
    <path id="rect8030" d="m364.01 444.32c4.5852-0.64256 9.556-0.92048 15.184-0.51994 0.21633 0.0154 0.39315 0.17471 0.3952 0.39173l-0.5207 14.017c2e-3 0.21702-0.17091 0.39173-0.3878 0.39173h-14.531c-0.21689 0-0.39315-0.17471-0.3952-0.39173l-0.13227-13.497c-2e-3 -0.21702 0.17302-0.36164 0.38781-0.39174z" fill="#228b22"/>
    <path id="path7978" transform="matrix(1 0 .019712 1 -89.042 0)" d="m442.06 445.47a0.57837 0.57837 0 0 0-0.0625 0.03125l-3.4062 0.28125c-0.67803 0.0565-1.1544 0.48242-1.4062 1.0312-0.54946 1.1971-2.25 4.1875-2.25 4.1875-0.21633 0.40256-0.41322 0.88063-0.40625 1.4062l0.0625 3.9688h-0.34375a0.57837 0.57837 0 0 0 0 0.0312c-0.5352 0.0142-0.96875 0.47073-0.96875 0.96875v0.375c0 0.49804 0.4537 0.95116 0.96875 0.9375v0.0312l1.2812-0.0312a0.57837 0.57837 0 0 0 0.1875-0.0312c0.0571 8e-3 0.0973 0.0625 0.15625 0.0625a0.57837 0.57837 0 0 0 0.0312-0.0312l6.1562-0.21875v0.0312c0.0143 0 0.0171-0.0308 0.0312-0.0312 0.66835-0.0234 1.25-0.57706 1.25-1.25v-10.469c0-0.68726-0.594-1.2812-1.2812-1.2812z"/>
    <path id="rect7967" d="m362.06 446.06-3.4062 0.28125c-0.38707 0.0323-0.77264 0.35956-0.9375 0.71875-0.58538 1.2754-2.2812 4.2188-2.2812 4.2188-0.18353 0.34152-0.31763 0.73828-0.3125 1.125l0.0625 5.0312c0 0.38585 0.30165 0.68751 0.6875 0.6875l6.1875-0.21875c0.38586 0 0.68749-0.30166 0.6875-0.6875v-10.469c0-0.38586-0.30165-0.6875-0.6875-0.6875zm-7.8125 10.906c-0.21682 6e-3 -0.375 0.1892-0.375 0.40625v0.375c0 0.21705 0.15819 0.38075 0.375 0.375l1.2812-0.0312c-0.33966-0.0469-0.625-0.30331-0.625-0.65625v-0.46875h-0.65625z" fill="#8b0000"/>
    <path id="path3666" d="m361.84 446.43-3.3117 0.27263c-0.37633 0.0313-0.7512 0.34855-0.91149 0.69674-0.56914 1.2363-2.2179 4.0896-2.218 4.0896-0.17844 0.33107-0.30882 0.71568-0.30383 1.0906l0.0608 4.8772c0 0.37403 0.29328 0.66646 0.66843 0.66645l6.0158-0.21205c0.37515 0 0.66841-0.29243 0.66842-0.66645v-10.148c0-0.37405-0.29328-0.66644-0.66842-0.66644zm-7.5957 10.572c-0.21081 6e-3 -0.3646 0.18341-0.3646 0.39381v0.36352c0 0.2104 0.1538 0.36909 0.3646 0.36352l1.2457-0.0303c-0.33024-0.0455-0.60766-0.29402-0.60766-0.63615v-0.4544h-0.63804z" fill="url(#linearGradient2309)"/>
    <path id="rect7980" d="m355.16 455.03 0.0312 1.9062h1c0.21689 0 0.40624-0.18922 0.40625-0.40625v-1.0938c0-0.21705-0.18936-0.40625-0.40625-0.40625h-1.0312z" fill="#fff"/>
    <path id="rect7989" d="m357.78 446.97c-0.0196 0.0335-0.0467 0.0595-0.0625 0.0937-0.58538 1.2754-2.2812 4.2188-2.2812 4.2188-0.11607 0.21599-0.19619 0.44384-0.25 0.6875h5.0625c0.24203 0 0.42585-0.1649 0.4375-0.40625l0.21875-4.1562c0.0117-0.24138-0.16423-0.4375-0.40625-0.4375h-2.7188z"/>
    <path id="rect7987" d="m357.62 447.22c-0.63556 1.3368-2.1875 4.0625-2.1875 4.0625-0.076 0.14146-0.13482 0.28173-0.1875 0.4375h4.8125c0.21689 0 0.39582-0.1587 0.40625-0.375l0.1875-3.75c0.0104-0.21629-0.15811-0.37501-0.375-0.375h-2.6562z" fill="#fff"/>
    <path id="rect7994" d="m360.62 451.75c-0.081 0.13339-0.21042 0.21875-0.375 0.21875h-5.0625c-0.0313 0.14162-0.0644 0.29535-0.0625 0.4375v0.0625l5.0938-0.15625c0.21671-5e-3 0.39581-0.15871 0.40625-0.375v-0.1875z" fill="#ff8c00"/>
    <path id="rect7999" d="m360.43 453.42h1.2083c0.16735 0 0.30208 0.13472 0.30208 0.30207s-0.13473 0.30208-0.30208 0.30208h-1.2083c-0.16735 0-0.30208-0.13473-0.30208-0.30208s0.13473-0.30207 0.30208-0.30207z"/>
    <path id="rect7982" d="m354.97 454.81v0.21875h1.2188c0.21689 0 0.40625 0.1892 0.40625 0.40625v1.0938c-1e-5 0.21703-0.18936 0.40625-0.40625 0.40625h-1.2188v0.21875h1.5312c0.21689 0 0.40624-0.18919 0.40625-0.40625v-1.5312c0-0.21705-0.18936-0.40625-0.40625-0.40625h-1.5312z"/>
    <path id="path3661" d="m364.35 445.07c4.3727-0.60897 9.1131-0.87236 14.481-0.49276 0.2063 0.0146 0.37492 0.16558 0.37689 0.37125l-0.49659 13.284c2e-3 0.20567-0.16298 0.37125-0.36981 0.37125h-13.858c-0.20685 0-0.37493-0.16558-0.37689-0.37125l-0.12614-12.791c-2e-3 -0.20568 0.16499-0.34274 0.36983-0.37126z" fill="url(#linearGradient2311)"/>
    <path id="rect8045" d="m369.69 441.94c-0.21689 0-0.40028 0.15838-0.40625 0.375l-0.375 14.625c0.95741 0.43455 1.625 1.3807 1.625 2.5 0 0.3268-0.0832 0.64642-0.1875 0.9375h0.0937c0.21689 0 0.40029-0.15838 0.40625-0.375l0.46875-17.688c6e-3 -0.21661-0.1581-0.37499-0.375-0.375h-1.25z"/>
    <path id="rect8033" d="m370.03 442.38c-0.21689 0-0.40102 0.15815-0.40625 0.375l-0.3125 13.906c0.40864 0.2257 0.75579 0.53252 1.0312 0.90625l0.375-14.812c5e-3 -0.21684-0.18935-0.375-0.40625-0.375h-0.28125z" fill="#8b0000"/>
    <path id="path8043" d="m374.28 441.62c-0.17202-1e-5 -0.32249 0.0479-0.4375 0.125-0.115 0.0771-0.18327 0.19441-0.1875 0.3125l-0.53125 14.812c0.31288-0.12297 0.64365-0.1875 1-0.1875 1.1051-1e-5 2.0578 0.65581 2.5 1.5938l-1.1875-16.25c-9e-3 -0.12672-0.11589-0.20375-0.25-0.28125-0.10949-0.0771-0.23424-0.125-0.40625-0.125h-0.5zm2.5 18.625c-0.11304 0.37229-0.31481 0.71239-0.5625 1 0.34401 0 0.61092-0.20285 0.59375-0.4375l-0.0312-0.5625z"/>
    <path id="rect8035" d="m374.44 442.19c-0.10846 0-0.2081 0.0543-0.28125 0.125-0.0731 0.0707-0.15259 0.17284-0.15625 0.28125l-0.4375 13.719c0.1817-0.0319 0.3717-0.0937 0.5625-0.0937 0.57684 0 1.1255 0.17117 1.5938 0.4375l-0.59375-14.094c-5e-3 -0.11633-0.0411-0.17886-0.125-0.25-0.0684-0.0707-0.14155-0.125-0.25-0.125h-0.3125z" fill="#8b0000"/>
    <path id="path3686" transform="matrix(1 0 0 1.0054 20 -2.417)" d="m341.84 446.59-3.3125 0.28125c-0.30557 0.0254-0.64287 0.29315-0.78125 0.59375-0.57818 1.256-2.2188 4.0938-2.2188 4.0938-0.17092 0.31708-0.28574 0.69368-0.28125 1.0312l0.0625 4.875c-1e-5 0.30111 0.19785 0.50001 0.5 0.5l6.0312-0.21875c0.30216 0 0.49999-0.1989 0.5-0.5v-10.156c0-0.30114-0.19785-0.5-0.5-0.5zm-7.5938 10.562c-0.12533 3e-3 -0.21875 0.11532-0.21875 0.25v0.34375c0 0.13465 0.0882 0.2222 0.21875 0.21875l0.6875-0.0312c-0.11412-0.12684-0.21875-0.2793-0.21875-0.46875v-0.3125h-0.46875z" fill="url(#linearGradient2313)"/>
    <path id="path7949" transform="matrix(1.3309 0 0 1.3309 -225.86 -152.78)" d="m442.97 460.02c0 1.3343-1.0817 2.416-2.416 2.416s-2.416-1.0817-2.416-2.416c0-1.3343 1.0817-2.416 2.416-2.416s2.416 1.0817 2.416 2.416z" color="#000000"/>
    <path id="path7065" transform="matrix(1.1441 0 0 1.1441 -143.59 -66.874)" d="m442.97 460.02c0 1.3343-1.0817 2.416-2.416 2.416s-2.416-1.0817-2.416-2.416c0-1.3343 1.0817-2.416 2.416-2.416s2.416 1.0817 2.416 2.416z" fill="#ff8c00"/>
    <path id="path7944" d="m360.56 457.97c-0.76893 0-1.4062 0.63732-1.4062 1.4062 0 0.76893 0.63732 1.375 1.4062 1.375 0.76893 0 1.375-0.60607 1.375-1.375 0-0.76893-0.60608-1.4063-1.375-1.4062zm-0.0937 0.28125c0.66081 1e-5 1.1875 0.5267 1.1875 1.1875-1e-5 0.66079-0.5267 1.2188-1.1875 1.2188-0.66079 1e-5 -1.1875-0.55795-1.1875-1.2188-1e-5 -0.6608 0.5267-1.1875 1.1875-1.1875z"/>
    <path id="path7942" transform="matrix(.4955 0 0 .4955 142.18 231.51)" d="m442.97 460.02c0 1.3343-1.0817 2.416-2.416 2.416s-2.416-1.0817-2.416-2.416c0-1.3343 1.0817-2.416 2.416-2.416s2.416 1.0817 2.416 2.416z" fill="#1e90ff"/>
    <path id="path7951" transform="matrix(1.3309 0 0 1.3309 -218.55 -152.78)" d="m442.97 460.02c0 1.3343-1.0817 2.416-2.416 2.416s-2.416-1.0817-2.416-2.416c0-1.3343 1.0817-2.416 2.416-2.416s2.416 1.0817 2.416 2.416z"/>
    <path id="path7953" transform="matrix(1.1441 0 0 1.1441 -136.28 -66.874)" d="m442.97 460.02c0 1.3343-1.0817 2.416-2.416 2.416s-2.416-1.0817-2.416-2.416c0-1.3343 1.0817-2.416 2.416-2.416s2.416 1.0817 2.416 2.416z" fill="#ff8c00"/>
    <path id="path7955" d="m367.87 457.97c-0.76893 0-1.4062 0.63732-1.4062 1.4062 0 0.76893 0.63732 1.375 1.4062 1.375 0.76893 0 1.375-0.60607 1.375-1.375 0-0.76893-0.60608-1.4063-1.375-1.4062zm-0.0937 0.28125c0.66081 1e-5 1.1875 0.5267 1.1875 1.1875-1e-5 0.66079-0.5267 1.2188-1.1875 1.2188-0.66079 1e-5 -1.1875-0.55795-1.1875-1.2188-1e-5 -0.6608 0.5267-1.1875 1.1875-1.1875z"/>
    <path id="path7957" transform="matrix(.4955 0 0 .4955 149.48 231.51)" d="m442.97 460.02c0 1.3343-1.0817 2.416-2.416 2.416s-2.416-1.0817-2.416-2.416c0-1.3343 1.0817-2.416 2.416-2.416s2.416 1.0817 2.416 2.416z" fill="#1e90ff"/>
    <path id="path7959" transform="matrix(1.3309 0 0 1.3309 -212.2 -152.78)" d="m442.97 460.02c0 1.3343-1.0817 2.416-2.416 2.416s-2.416-1.0817-2.416-2.416c0-1.3343 1.0817-2.416 2.416-2.416s2.416 1.0817 2.416 2.416z" color="#000000"/>
    <path id="path7961" transform="matrix(1.1441 0 0 1.1441 -129.93 -66.874)" d="m442.97 460.02c0 1.3343-1.0817 2.416-2.416 2.416s-2.416-1.0817-2.416-2.416c0-1.3343 1.0817-2.416 2.416-2.416s2.416 1.0817 2.416 2.416z" fill="#ff8c00"/>
    <path id="path7963" d="m374.22 457.97c-0.76893 0-1.4062 0.63732-1.4062 1.4062 0 0.76893 0.63732 1.375 1.4062 1.375 0.76893 0 1.375-0.60607 1.375-1.375 0-0.76893-0.60608-1.4063-1.375-1.4062zm-0.0937 0.28125c0.66081 1e-5 1.1875 0.5267 1.1875 1.1875-1e-5 0.66079-0.5267 1.2188-1.1875 1.2188-0.66079 1e-5 -1.1875-0.55795-1.1875-1.2188-1e-5 -0.6608 0.5267-1.1875 1.1875-1.1875z"/>
    <path id="path7965" transform="matrix(.4955 0 0 .4955 155.84 231.51)" d="m442.97 460.02c0 1.3343-1.0817 2.416-2.416 2.416s-2.416-1.0817-2.416-2.416c0-1.3343 1.0817-2.416 2.416-2.416s2.416 1.0817 2.416 2.416z" fill="#1e90ff"/>
    <path id="path3670" transform="matrix(1.0046 0 0 1.0046 -82.195 -2.8514)" d="m442.97 460.02c0 1.3343-1.0817 2.416-2.416 2.416s-2.416-1.0817-2.416-2.416c0-1.3343 1.0817-2.416 2.416-2.416s2.416 1.0817 2.416 2.416z" fill="url(#linearGradient2315)"/>
    <path id="path3674" transform="matrix(1.0046 0 0 1.0046 -74.882 -2.8514)" d="m442.97 460.02c0 1.3343-1.0817 2.416-2.416 2.416s-2.416-1.0817-2.416-2.416c0-1.3343 1.0817-2.416 2.416-2.416s2.416 1.0817 2.416 2.416z" fill="url(#linearGradient2315)"/>
    <path id="path3678" transform="matrix(1.0046 0 0 1.0046 -68.57 -2.8514)" d="m442.97 460.02c0 1.3343-1.0817 2.416-2.416 2.416s-2.416-1.0817-2.416-2.416c0-1.3343 1.0817-2.416 2.416-2.416s2.416 1.0817 2.416 2.416z" fill="url(#linearGradient2315)"/>
   </g>
  </g>
 </g>
</svg>
