<?xml version="1.0" encoding="UTF-8"?>
<!-- Created with Inkscape (http://www.inkscape.org/) -->
<svg id="svg2" width="466.11" height="466.12" version="1.0" viewBox="0 0 466.12 466.12" xml:space="preserve" xmlns="http://www.w3.org/2000/svg" xmlns:cc="http://creativecommons.org/ns#" xmlns:dc="http://purl.org/dc/elements/1.1/" xmlns:rdf="http://www.w3.org/1999/02/22-rdf-syntax-ns#"><metadata id="metadata167"><rdf:RDF><cc:Work rdf:about=""><dc:format>image/svg+xml</dc:format><dc:type rdf:resource="http://purl.org/dc/dcmitype/StillImage"/></cc:Work></rdf:RDF></metadata>
	
		<g id="g2975"><path id="path13" d="m233.06 0.5c-128.44 0-232.56 104.12-232.56 232.56 0 128.44 104.12 232.56 232.56 232.56 128.44 0 232.56-104.12 232.56-232.56-1e-3 -128.44-104.12-232.56-232.56-232.56zm0 363.96c-72.567 0-131.4-58.828-131.4-131.4 0-72.566 58.828-131.4 131.4-131.4 72.566 0 131.4 58.828 131.4 131.4-1e-3 72.567-58.829 131.4-131.4 131.4z" stroke="#000"/><path id="path15" d="m233.06 25.5c-114.63 0-207.56 92.927-207.56 207.56s92.927 207.56 207.56 207.56 207.56-92.928 207.56-207.56-92.928-207.56-207.56-207.56zm0 395.35c-103.71 0-187.79-84.078-187.79-187.79s84.077-187.79 187.79-187.79 187.79 84.078 187.79 187.79-84.078 187.79-187.79 187.79z" fill="#fff" stroke="#000"/><g id="g17" stroke="#000">
						
							<radialGradient id="XMLID_9_" cx="233.06" cy="233.06" r="134.88" gradientUnits="userSpaceOnUse">
							<stop id="stop20" stop-color="#fff" offset=".0056"/>
							<stop id="stop22" stop-color="#fdfdfd" offset=".419"/>
							<stop id="stop24" stop-color="#f6f6f6" offset=".5678"/>
							<stop id="stop26" stop-color="#ebebeb" offset=".674"/>
							<stop id="stop28" stop-color="#dadada" offset=".7598"/>
							<stop id="stop30" stop-color="#c4c4c4" offset=".8334"/>
							<stop id="stop32" stop-color="#a8a8a8" offset=".8985"/>
							<stop id="stop34" stop-color="#898989" offset=".9558"/>
							<stop id="stop36" stop-color="#6b6b6b" offset="1"/>
							
							
							
						</radialGradient>
						<circle id="circle38" cx="233.06" cy="233.06" r="134.88" fill="url(#XMLID_9_)"/> 
						<circle id="circle40" cx="233.06" cy="233.06" r="128.17" fill="#fff"/> 
						
							<radialGradient id="XMLID_10_" cx="233.06" cy="233.06" r="122.07" gradientUnits="userSpaceOnUse">
							<stop id="stop43" stop-color="#fff" offset="0"/>
							<stop id="stop45" stop-color="#fdfdfd" offset=".3577"/>
							<stop id="stop47" stop-color="#f6f6f6" offset=".493"/>
							<stop id="stop49" stop-color="#eaeaea" offset=".5905"/>
							<stop id="stop51" stop-color="#d9d9d9" offset=".67"/>
							<stop id="stop53" stop-color="#c3c3c3" offset=".7384"/>
							<stop id="stop55" stop-color="#a7a7a7" offset=".7993"/>
							<stop id="stop57" stop-color="#868686" offset=".8545"/>
							<stop id="stop59" stop-color="#606060" offset=".9054"/>
							<stop id="stop61" stop-color="#353535" offset=".9526"/>
							<stop id="stop63" stop-color="#0b0b0b" offset=".9949"/>
							<stop id="stop65" offset="1"/>
							
							
							
						</radialGradient>
						<circle id="circle67" cx="233.06" cy="233.06" r="122.07" fill="url(#XMLID_10_)"/> 
					</g><g id="g69" stroke="#000">
						
							<radialGradient id="XMLID_11_" cx="233.06" cy="233.06" r="43.023" gradientUnits="userSpaceOnUse">
							<stop id="stop72" stop-color="#fff" offset="0"/>
							<stop id="stop74" stop-color="#fdfdfd" offset=".3726"/>
							<stop id="stop76" stop-color="#f6f6f6" offset=".5069"/>
							<stop id="stop78" stop-color="#ebebeb" offset=".6026"/>
							<stop id="stop80" stop-color="#dadada" offset=".68"/>
							<stop id="stop82" stop-color="#c4c4c4" offset=".7463"/>
							<stop id="stop84" stop-color="#a8a8a8" offset=".805"/>
							<stop id="stop86" stop-color="#888" offset=".8581"/>
							<stop id="stop88" stop-color="#626262" offset=".9069"/>
							<stop id="stop90" stop-color="#373737" offset=".9523"/>
							<stop id="stop92" stop-color="#0e0e0e" offset=".9926"/>
							<stop id="stop94" offset="1"/>
							
							
							
						</radialGradient>
						<circle id="circle96" cx="233.06" cy="233.06" r="43.023" fill="url(#XMLID_11_)"/> 
						<circle id="circle98" cx="233.06" cy="233.06" r="32.506"/> 
						<circle id="circle100" cx="233.06" cy="233.06" r="29" fill="#fff"/> 
						<circle id="circle102" cx="233.06" cy="233.06" r="19.364"/> 
					</g><g id="g104" stroke="#000">
						<g id="g106">
							<g id="g108">
								
									<radialGradient id="XMLID_12_" cx="229.16" cy="152.86" r="31.171" gradientUnits="userSpaceOnUse">
									<stop id="stop111" stop-color="#fff" offset="0"/>
									<stop id="stop113" stop-color="#fcfcfc" offset=".158"/>
									<stop id="stop115" stop-color="#f2f2f2" offset=".2879"/>
									<stop id="stop117" stop-color="#e0e0e0" offset=".4079"/>
									<stop id="stop119" stop-color="#c8c8c8" offset=".5219"/>
									<stop id="stop121" stop-color="#a9a9a9" offset=".6317"/>
									<stop id="stop123" stop-color="#828282" offset=".7383"/>
									<stop id="stop125" stop-color="#555" offset=".8424"/>
									<stop id="stop127" stop-color="#212121" offset=".942"/>
									<stop id="stop129" offset="1"/>
									
									
									
								</radialGradient>
								<circle id="circle131" cx="229.16" cy="152.86" r="31.171" fill="url(#XMLID_12_)"/> 
								<circle id="circle133" cx="229.16" cy="161.64" r="18.762"/> 
							</g>
							<g id="g135">
								
									<radialGradient id="XMLID_13_" cx="154.91" cy="210.8" r="31.18" gradientUnits="userSpaceOnUse">
									<stop id="stop138" stop-color="#fff" offset="0"/>
									<stop id="stop140" stop-color="#fcfcfc" offset=".158"/>
									<stop id="stop142" stop-color="#f2f2f2" offset=".2879"/>
									<stop id="stop144" stop-color="#e0e0e0" offset=".4079"/>
									<stop id="stop146" stop-color="#c8c8c8" offset=".5219"/>
									<stop id="stop148" stop-color="#a9a9a9" offset=".6317"/>
									<stop id="stop150" stop-color="#828282" offset=".7383"/>
									<stop id="stop152" stop-color="#555" offset=".8424"/>
									<stop id="stop154" stop-color="#212121" offset=".942"/>
									<stop id="stop156" offset="1"/>
									
									
									
								</radialGradient>
								<circle id="circle158" cx="154.91" cy="210.8" r="31.171" fill="url(#XMLID_13_)"/> 
								<circle id="circle160" cx="163.26" cy="213.51" r="18.763"/> 
							</g>
							<g id="g162">
								
									<radialGradient id="XMLID_14_" cx="187.07" cy="299.32" r="31.174" gradientUnits="userSpaceOnUse">
									<stop id="stop165" stop-color="#fff" offset="0"/>
									<stop id="stop167" stop-color="#fcfcfc" offset=".158"/>
									<stop id="stop169" stop-color="#f2f2f2" offset=".2879"/>
									<stop id="stop171" stop-color="#e0e0e0" offset=".4079"/>
									<stop id="stop173" stop-color="#c8c8c8" offset=".5219"/>
									<stop id="stop175" stop-color="#a9a9a9" offset=".6317"/>
									<stop id="stop177" stop-color="#828282" offset=".7383"/>
									<stop id="stop179" stop-color="#555" offset=".8424"/>
									<stop id="stop181" stop-color="#212121" offset=".942"/>
									<stop id="stop183" offset="1"/>
									
									
									
								</radialGradient>
								<circle id="circle185" cx="187.07" cy="299.32" r="31.171" fill="url(#XMLID_14_)"/> 
								<circle id="circle187" cx="192.23" cy="292.22" r="18.762"/> 
							</g>
							<g id="g189">
								
									<radialGradient id="XMLID_15_" cx="281.2" cy="296.09" r="31.173" gradientUnits="userSpaceOnUse">
									<stop id="stop192" stop-color="#fff" offset="0"/>
									<stop id="stop194" stop-color="#fcfcfc" offset=".158"/>
									<stop id="stop196" stop-color="#f2f2f2" offset=".2879"/>
									<stop id="stop198" stop-color="#e0e0e0" offset=".4079"/>
									<stop id="stop200" stop-color="#c8c8c8" offset=".5219"/>
									<stop id="stop202" stop-color="#a9a9a9" offset=".6317"/>
									<stop id="stop204" stop-color="#828282" offset=".7383"/>
									<stop id="stop206" stop-color="#555" offset=".8424"/>
									<stop id="stop208" stop-color="#212121" offset=".942"/>
									<stop id="stop210" offset="1"/>
									
									
									
								</radialGradient>
								<circle id="circle212" cx="281.2" cy="296.09" r="31.171" fill="url(#XMLID_15_)"/> 
								<circle id="circle214" cx="276.04" cy="288.99" r="18.763"/> 
							</g>
							<g id="g216">
								
									<radialGradient id="XMLID_16_" cx="307.21" cy="205.57" r="31.181" gradientUnits="userSpaceOnUse">
									<stop id="stop219" stop-color="#fff" offset="0"/>
									<stop id="stop221" stop-color="#fcfcfc" offset=".158"/>
									<stop id="stop223" stop-color="#f2f2f2" offset=".2879"/>
									<stop id="stop225" stop-color="#e0e0e0" offset=".4079"/>
									<stop id="stop227" stop-color="#c8c8c8" offset=".5219"/>
									<stop id="stop229" stop-color="#a9a9a9" offset=".6317"/>
									<stop id="stop231" stop-color="#828282" offset=".7383"/>
									<stop id="stop233" stop-color="#555" offset=".8424"/>
									<stop id="stop235" stop-color="#212121" offset=".942"/>
									<stop id="stop237" offset="1"/>
									
									
									
								</radialGradient>
								<circle id="circle239" cx="307.21" cy="205.57" r="31.172" fill="url(#XMLID_16_)"/> 
								<path id="path241" d="m304.66 226.13c-9.853 3.201-20.439-2.191-23.643-12.047-3.201-9.855 2.192-20.441 12.048-23.643 9.854-3.201 20.44 2.191 23.641 12.047 3.203 9.856-2.19 20.442-12.046 23.643z"/>
							</g>
						</g>
						<g id="g243" fill="#fff">
							<g id="g245">
								<path id="path247" d="m241.18 166.29c0 6.023-4.882 10.904-10.907 10.904-6.021 0-10.902-4.881-10.902-10.904 0-6.021 4.881-10.906 10.902-10.906 6.025-1e-3 10.907 4.884 10.907 10.906z"/>
								<polygon id="polygon249" points="224.85 175.67 219.44 166.29 224.85 156.91 235.69 156.91 241.1 166.29 235.69 175.67"/>
								<polygon id="polygon251" points="225.46 174.62 220.65 166.29 225.46 157.96 235.08 157.96 239.89 166.29 235.08 174.62"/>
							</g>
							<g id="g253">
								<circle id="circle255" cx="168.53" cy="212.8" r="10.905"/> 
								<polygon id="polygon257" points="175.78 220.86 165.19 223.11 157.94 215.06 161.28 204.75 171.88 202.5 179.13 210.55"/>
								<polygon id="polygon259" points="174.97 219.95 165.56 221.96 159.12 214.8 162.1 205.65 171.51 203.65 177.94 210.8"/>
							</g>
							<g id="g261">
								<circle id="circle263" cx="193.69" cy="285.89" r="10.906"/> 
								<polygon id="polygon265" points="203.59 281.49 202.46 292.26 192.56 296.67 183.79 290.3 184.93 279.53 194.82 275.12"/>
								<polygon id="polygon267" points="202.48 281.98 201.48 291.55 192.69 295.46 184.9 289.81 185.91 280.24 194.7 276.33"/>
							</g>
							<g id="g269">
								<path id="path271" d="m262.16 290.96c-3.539-4.875-2.459-11.693 2.415-15.233 4.87-3.54 11.69-2.462 15.231 2.413 3.539 4.87 2.459 11.69-2.413 15.23-4.871 3.543-11.693 2.46-15.233-2.41z"/>
								<polygon id="polygon273" points="269.85 273.78 279.74 278.18 280.88 288.96 272.11 295.33 262.22 290.92 261.08 280.14"/>
								<polygon id="polygon275" points="269.98 274.98 278.76 278.9 279.77 288.46 271.98 294.12 263.2 290.21 262.19 280.64"/>
							</g>
							<g id="g277">
								<circle id="circle279" cx="293.59" cy="210.63" r="10.906"/> 
								<polygon id="polygon281" points="282.99 208.38 290.24 200.33 300.84 202.58 304.18 212.88 296.94 220.94 286.34 218.68"/>
								<polygon id="polygon283" points="284.18 208.63 290.61 201.48 300.02 203.48 303 212.63 296.56 219.78 287.15 217.78"/>
							</g>
						</g>
					</g><g id="g285" fill="#fff">
						<path id="path287" d="m246.93 56.859-0.575 16.875-3.25-0.111 0.243-7.125-2.438-0.083-0.62 18.188 1.813 0.062-0.347 10.187-9.25-0.314 0.347-10.187 2.125 0.072 0.62-18.188-2.563-0.087-0.243 7.125-3.25-0.111 0.575-16.875 16.813 0.572z"/>
						<path id="path289" d="m269.66 70.415-4.301 19.938 1.625 0.351-1.684 7.813-7-1.51 1.684-7.813 1.438 0.31 2.697-12.5-1.438-0.31 1.604-7.438 5.375 1.159zm1.875-9.603-1.35 6.25-3.938-0.85 1.35-6.25 3.938 0.85z"/>
						<path id="path291" d="m287.96 75.665 5.063 1.985-1.259 3.21c1.498-2.17 2.835-3.024 4.01-2.564 1.806 0.709 1.903 3.116 0.293 7.223-1.059 2.698-2.046 4.941-2.963 6.729l-3.017-1.183c0.511-0.965 0.848-1.655 1.012-2.073 0.977-2.489 1.043-3.899 0.2-4.229-0.615-0.241-1.367 0.771-2.256 3.036l-3.471 8.852 1.625 0.637-2.916 7.438-6.688-2.622 2.916-7.438 1.375 0.539 4.656-11.875-1.375-0.539 2.795-7.126z"/>
						<path id="path293" d="m315.4 107.43c-0.449 0.997-1.072 2.14-1.867 3.428-3.037 4.914-6.059 6.441-9.066 4.584-2.105-1.301-2.953-2.966-2.543-4.992 0.41-2.027 2.385-5.907 5.926-11.638 2.695-4.365 4.865-7.126 6.508-8.284 1.643-1.156 3.396-1.159 5.262-7e-3 1.848 1.143 2.613 2.732 2.295 4.767-0.318 2.036-1.824 5.232-4.514 9.589l-1.02 1.604-6.016-3.715-1.514 2.392-0.623 1.229c-0.393 0.883-0.238 1.52 0.463 1.908 0.813 0.458 1.684-0.065 2.613-1.57l0.488-0.792 0.352-0.514 3.256 2.011zm-3.445-7.395 2.543 1.571 1.068-1.728c0.857-1.39 0.871-2.341 0.041-2.854-0.877-0.542-1.834 0.023-2.867 1.696-0.215 0.348-0.476 0.786-0.785 1.315z"/>
						<path id="path295" d="m371.62 124.85 4.105 5.875c2.055 2.939 2.877 5.241 2.471 6.904-0.408 1.663-2.301 3.675-5.68 6.035-2.492 1.741-4.352 2.669-5.578 2.784-1.229 0.115-2.547-0.512-3.959-1.879 0.754 2.151 0.883 3.754 0.383 4.808-0.5 1.053-2.105 2.527-4.818 4.424-3.566 2.492-6.26 3.687-8.078 3.584-1.818-0.104-3.709-1.559-5.67-4.365l-4.426-6.333 8.375-5.853 1.049 1.5 14.875-10.395-1.049-1.5 8-5.589zm-12.769 17.667-6 4.192 0.496 0.71c1.008 1.443 2.604 1.402 4.785-0.121 1.818-1.271 2.219-2.636 1.199-4.095l-0.48-0.686zm8.875-6.202-5.438 3.8 0.576 0.824c0.838 1.201 2.176 1.16 4.012-0.123 1.789-1.25 2.238-2.514 1.346-3.791l-0.496-0.71z"/>
						<path id="path297" d="m382.06 160.52 2.221 5.063-3.154 1.384c2.547-0.473 4.07-0.142 4.568 0.991 0.764 1.742-0.859 3.492-4.867 5.251-2.633 1.154-4.898 2.038-6.795 2.652l-1.301-2.967c1.029-0.31 1.746-0.553 2.15-0.73 2.41-1.057 3.439-1.982 3.092-2.777-0.254-0.58-1.471-0.392-3.648 0.563l-8.732 3.83 0.656 1.5-7.313 3.207-2.877-6.563 7.313-3.207 0.604 1.375 11.688-5.127-0.604-1.375 6.999-3.07z"/>
						<path id="path299" d="m375.62 205.15-7.681 1.799c-0.645-0.645-1.054-1.334-1.226-2.068-0.37-1.58 0.244-2.916 1.842-4.009-1.902-0.205-3.021-1.024-3.356-2.457-0.604-2.576 2.167-4.584 8.313-6.023 3.227-0.756 6.015 0.167 8.364 2.768 1.17 1.32 2.227 1.871 3.17 1.65 1.178-0.276 1.66-0.869 1.447-1.779-0.227-0.965-1.035-1.284-2.428-0.958-0.286 0.066-0.706 0.207-1.259 0.42l-0.873-3.726c1.131-0.541 2.491-0.997 4.081-1.37 4.426-1.037 7.08 0.324 7.961 4.084 0.817 3.489-1.059 5.77-5.627 6.841l-2.196 0.515-7.891 1.849c-2.248 0.526-3.285 1.161-3.11 1.903 0.034 0.14 0.19 0.327 0.469 0.561zm4.158-6.908c-1.617-1.951-3.167-2.753-4.649-2.405-1.282 0.3-1.798 0.983-1.548 2.052 0.268 1.141 1.534 1.445 3.8 0.915l2.397-0.562z"/>
						<path id="path301" d="m377.85 233.9-8 0.293-0.248-6.75 8-0.293 0.045 1.188 8.137-0.298 1.002-0.037 1.254-0.074c1.82-0.066 2.715-0.533 2.684-1.4-0.055-1.489-1.811-2.171-5.268-2.044l-7.939 0.291 0.053 1.438-8 0.293-0.248-6.75 8-0.293 0.055 1.5 12.75-0.467-0.055-1.5 7.625-0.279 0.195 5.313-3.463 0.127c2.596 0.918 3.924 2.239 3.988 3.964 0.084 2.305-1.832 3.529-5.75 3.673l-2.123 0.078-12.75 0.467 0.056 1.56z"/>
						<path id="path303" d="m404.85 264.54-29.75-4.672-0.225 1.438-7.938-1.246 0.736-4.688 2.6 0.408c-0.199-0.43-0.51-0.818-0.928-1.168-1.141-0.956-1.611-2.081-1.408-3.375 0.424-2.699 3.92-3.533 10.49-2.502l7.953 1.249c7.336 1.152 10.795 3.061 10.377 5.725-0.234 1.498-1.34 2.5-3.316 3.005l5.715 0.897 0.254-1.625 6.313 0.991-0.873 5.563zm-15.936-8.225c0.244-1.08-0.863-1.813-3.322-2.198l-3.301-0.547-3.057-0.48c-2.553-0.401-3.889-0.043-4.008 1.076-0.104 1.023 1.697 1.827 5.406 2.41 5.288 0.83 8.05 0.743 8.282-0.261z"/>
					</g><g id="g305" fill="#fff">
						<path id="path307" d="m218 406.8 0.575-16.875 3.25 0.111-0.243 7.125 2.438 0.083 0.62-18.188-1.813-0.062 0.347-10.188 9.25 0.314-0.347 10.188-2.125-0.072-0.62 18.188 2.563 0.087 0.243-7.125 3.25 0.111-0.575 16.875-16.813-0.572z"/>
						<path id="path309" d="m193.4 402.84 1.349-6.25 3.938 0.85-1.349 6.25-3.938-0.85zm1.875-9.602 4.3-19.938-1.625-0.351 1.685-7.813 7 1.51-1.685 7.813-1.438-0.31-2.696 12.5 1.438 0.31-1.604 7.438-5.375-1.159z"/>
						<path id="path311" d="m176.97 387.99-5.063-1.985 1.259-3.21c-1.498 2.17-2.835 3.024-4.01 2.564-1.806-0.709-1.903-3.116-0.293-7.223 1.059-2.698 2.046-4.941 2.963-6.729l3.017 1.183c-0.511 0.965-0.848 1.655-1.012 2.073-0.977 2.489-1.043 3.899-0.2 4.229 0.615 0.241 1.367-0.771 2.256-3.036l3.471-8.852-1.625-0.637 2.916-7.438 6.688 2.622-2.916 7.438-1.375-0.539-4.656 11.875 1.375 0.539-2.795 7.126z"/>
						<path id="path313" d="m149.52 356.23c0.45-0.997 1.073-2.14 1.868-3.428 3.036-4.914 6.059-6.441 9.067-4.584 2.105 1.301 2.953 2.966 2.543 4.992-0.41 2.027-2.385 5.907-5.926 11.638-2.696 4.365-4.865 7.127-6.508 8.284-1.643 1.156-3.396 1.159-5.262 7e-3 -1.849-1.143-2.613-2.732-2.295-4.768s1.823-5.232 4.514-9.589l1.02-1.604 6.015 3.715 1.515-2.392 0.623-1.229c0.393-0.883 0.238-1.52-0.464-1.908-0.813-0.458-1.684 0.065-2.613 1.57l-0.488 0.792-0.351 0.514-3.258-2.01zm3.446 7.396-2.544-1.571-1.067 1.728c-0.858 1.39-0.872 2.341-0.042 2.854 0.878 0.542 1.834-0.023 2.867-1.696 0.215-0.349 0.478-0.787 0.786-1.315z"/>
						<path id="path315" d="m93.308 338.81-4.105-5.875c-2.054-2.939-2.877-5.241-2.47-6.904 0.408-1.663 2.301-3.675 5.679-6.035 2.492-1.741 4.352-2.669 5.579-2.784s2.547 0.512 3.958 1.879c-0.754-2.151-0.882-3.754-0.382-4.808 0.5-1.053 2.105-2.527 4.818-4.424 3.566-2.492 6.259-3.687 8.077-3.584 1.818 0.104 3.709 1.559 5.67 4.365l4.426 6.333-8.375 5.853-1.048-1.5-14.875 10.394 1.048 1.5-8 5.59zm3.895-11.465 5.438-3.8-0.576-0.824c-0.838-1.201-2.175-1.16-4.011 0.123-1.789 1.25-2.238 2.514-1.347 3.791l0.496 0.71zm8.875-6.202 6-4.192-0.496-0.71c-1.008-1.443-2.604-1.402-4.785 0.121-1.818 1.271-2.218 2.636-1.198 4.095l0.479 0.686z"/>
						<path id="path317" d="m82.875 303.14-2.221-5.063 3.154-1.384c-2.548 0.473-4.07 0.142-4.568-0.991-0.764-1.742 0.858-3.492 4.866-5.251 2.633-1.154 4.898-2.038 6.796-2.652l1.301 2.967c-1.029 0.31-1.746 0.553-2.151 0.73-2.409 1.057-3.439 1.982-3.092 2.777 0.255 0.58 1.472 0.392 3.649-0.563l8.732-3.83-0.657-1.5 7.313-3.207 2.878 6.563-7.313 3.207-0.604-1.375-11.688 5.127 0.604 1.375-6.999 3.07z"/>
						<path id="path319" d="m89.312 258.5 7.681-1.799c0.645 0.645 1.054 1.334 1.226 2.068 0.37 1.58-0.244 2.916-1.842 4.009 1.902 0.205 3.021 1.024 3.356 2.457 0.604 2.576-2.167 4.584-8.313 6.023-3.227 0.756-6.015-0.167-8.364-2.768-1.17-1.32-2.227-1.871-3.17-1.65-1.178 0.276-1.66 0.869-1.447 1.779 0.227 0.965 1.035 1.284 2.428 0.958 0.286-0.066 0.706-0.207 1.259-0.42l0.873 3.726c-1.131 0.541-2.491 0.997-4.081 1.37-4.426 1.037-7.08-0.324-7.961-4.084-0.817-3.489 1.059-5.77 5.627-6.841l2.196-0.515 7.891-1.849c2.248-0.526 3.285-1.161 3.11-1.903-0.034-0.14-0.19-0.327-0.469-0.561zm-4.159 6.909c1.617 1.951 3.167 2.753 4.649 2.405 1.282-0.3 1.798-0.983 1.548-2.052-0.268-1.141-1.534-1.445-3.8-0.915l-2.397 0.562z"/>
						<path id="path321" d="m87.076 229.76 8-0.293 0.248 6.75-8 0.293-0.044-1.188-8.137 0.298-1.003 0.037-1.253 0.074c-1.82 0.066-2.715 0.533-2.684 1.4 0.055 1.489 1.811 2.171 5.267 2.044l7.94-0.291-0.053-1.438 8-0.293 0.247 6.75-8 0.293-0.055-1.5-12.75 0.467 0.055 1.5-7.625 0.279-0.194-5.313 3.463-0.127c-2.596-0.918-3.925-2.239-3.988-3.964-0.084-2.305 1.832-3.529 5.75-3.673l2.123-0.078 12.75-0.467-0.057-1.56z"/>
						<path id="path323" d="m60.076 199.11 29.75 4.672 0.226-1.438 7.938 1.246-0.736 4.688-2.6-0.408c0.199 0.43 0.509 0.818 0.928 1.168 1.141 0.956 1.61 2.081 1.407 3.375-0.424 2.699-3.92 3.533-10.489 2.502l-7.953-1.249c-7.337-1.152-10.796-3.061-10.378-5.725 0.235-1.498 1.341-2.5 3.316-3.005l-5.714-0.897-0.255 1.625-6.313-0.991 0.873-5.563zm15.935 8.225c-0.244 1.08 0.863 1.813 3.323 2.198l3.3 0.547 3.058 0.48c2.553 0.401 3.888 0.043 4.007-1.076 0.104-1.023-1.697-1.827-5.406-2.41-5.288-0.829-8.048-0.743-8.282 0.261z"/>
					</g></g>
		
	</svg>
