<?xml version="1.0" encoding="UTF-8"?>
<!-- Created with Inkscape (http://www.inkscape.org/) -->
<svg id="svg2" width="974.41" height="578.73" version="1.0" xmlns="http://www.w3.org/2000/svg" xmlns:cc="http://creativecommons.org/ns#" xmlns:dc="http://purl.org/dc/elements/1.1/" xmlns:rdf="http://www.w3.org/1999/02/22-rdf-syntax-ns#" xmlns:xlink="http://www.w3.org/1999/xlink">
 <metadata id="metadata3">
  <rdf:RDF>
   <cc:Work rdf:about="">
    <dc:title>Truck2</dc:title>
    <dc:description>truck</dc:description>
    <dc:subject>
     <rdf:Bag>
      <rdf:li>transport</rdf:li>
     </rdf:Bag>
    </dc:subject>
    <dc:publisher>
     <cc:Agent rdf:about="http://www.openclipart.org/">
      <dc:title>Open Clip Art Library</dc:title>
     </cc:Agent>
    </dc:publisher>
    <dc:creator>
     <cc:Agent>
      <dc:title>Jarno Vasamaa</dc:title>
     </cc:Agent>
    </dc:creator>
    <dc:rights>
     <cc:Agent>
      <dc:title>Jarno Vasamaa</dc:title>
     </cc:Agent>
    </dc:rights>
    <dc:date/>
    <dc:format>image/svg+xml</dc:format>
    <dc:type rdf:resource="http://purl.org/dc/dcmitype/StillImage"/>
    <cc:license rdf:resource="http://web.resource.org/cc/PublicDomain"/>
    <dc:language>en</dc:language>
   </cc:Work>
   <cc:License rdf:about="http://web.resource.org/cc/PublicDomain">
    <cc:permits rdf:resource="http://web.resource.org/cc/Reproduction"/>
    <cc:permits rdf:resource="http://web.resource.org/cc/Distribution"/>
    <cc:permits rdf:resource="http://web.resource.org/cc/DerivativeWorks"/>
   </cc:License>
  </rdf:RDF>
 </metadata>
 <defs id="defs3">
  <linearGradient id="linearGradient2620">
   <stop id="stop2622" offset="0"/>
   <stop id="stop2624" stop-color="#d0d0d6" offset="1"/>
  </linearGradient>
  <linearGradient id="linearGradient3000" x1="25.048" x2="259.21" y1="765.1" y2="584.18" gradientTransform="matrix(1.6817 0 0 .71751 -67.868 -124.78)" gradientUnits="userSpaceOnUse" xlink:href="#linearGradient2620"/>
  <linearGradient id="linearGradient3002" x1="254.87" x2="183.89" y1="606.67" y2="621.13" gradientTransform="matrix(1.4969 0 0 .8061 -67.868 -124.78)" gradientUnits="userSpaceOnUse">
   <stop id="stop2762" offset="0"/>
   <stop id="stop2764" stop-opacity="0" offset="1"/>
  </linearGradient>
  <linearGradient id="linearGradient3004" x1="313.45" x2="463.38" y1="375.54" y2="371.45" gradientTransform="matrix(1.7874 0 0 .67508 -67.868 -124.78)" gradientUnits="userSpaceOnUse">
   <stop id="stop2680" stop-color="#2c2f68" offset="0"/>
   <stop id="stop2682" stop-color="#a1b6c3" offset="1"/>
  </linearGradient>
  <linearGradient id="linearGradient3006" x1="526.63" x2="598.34" y1="612.36" y2="612.36" gradientTransform="matrix(1.3808 0 0 .87384 -67.868 -124.78)" gradientUnits="userSpaceOnUse">
   <stop id="stop2856" stop-color="#ffffd9" stop-opacity=".81633" offset="0"/>
   <stop id="stop2866" stop-color="#ffffd9" offset=".5"/>
   <stop id="stop2858" stop-color="#ffffd9" offset="1"/>
  </linearGradient>
  <linearGradient id="linearGradient3008" x1="59.133" x2="422.17" y1="459.34" y2="265.61" gradientTransform="matrix(1.2114 0 0 .99603 -67.868 -124.78)" gradientUnits="userSpaceOnUse">
   <stop id="stop2816" stop-color="#4e4e4e" offset="0"/>
   <stop id="stop2818" stop-color="#d0d0d6" offset="1"/>
  </linearGradient>
  <linearGradient id="linearGradient3010" x1="486.69" x2="510.9" y1="223.97" y2="48.32" gradientTransform="matrix(1.1733 0 0 1.0284 -67.868 -124.78)" gradientUnits="userSpaceOnUse" xlink:href="#linearGradient2620"/>
  <linearGradient id="linearGradient3012" x1="446.04" x2="421.29" y1="1057.6" y2="629.14" gradientTransform="matrix(1.9056 .060454 -.020068 .63257 -45.328 -159.12)" gradientUnits="userSpaceOnUse" xlink:href="#linearGradient2620"/>
  <linearGradient id="linearGradient3014" x1="152" x2="301.44" y1="688.14" y2="671.05" gradientTransform="matrix(1.5012 0 0 .80377 -67.868 -124.78)" gradientUnits="userSpaceOnUse" xlink:href="#linearGradient2620"/>
  <linearGradient id="linearGradient3016" x1="692.28" x2="392.87" y1="201.78" y2="206.49" gradientTransform="matrix(.927 0 0 1.3016 -67.868 -124.78)" gradientUnits="userSpaceOnUse">
   <stop id="stop2901" offset="0"/>
   <stop id="stop2903" stop-color="#878787" offset="1"/>
  </linearGradient>
 </defs>
 <g id="g2957" transform="translate(-3.2182 -5.9905e-6)">
  <path id="path2756" d="m30.721 465.82 27.605-130.14 287.88-15.774 177.46-17.746 368.72 116.34-19.718 104.5s-7.8872 15.774-21.69 23.661c-13.803 7.8872-39.436 13.803-55.21 9.859s-29.577-5.9154-37.464-19.718c-7.8872-13.803-55.21-72.956-55.21-72.956l-78.872 25.633s0 17.746-9.859 43.379c-9.859 25.633-13.803 35.492-25.633 39.436-11.831 3.9436-54.855 7.2595-68.119 3.3159-23.661-3.9436-44.273-92.046-44.273-92.046l-17.746 1.9718s5.9154 7.8872-15.774 15.774c-21.69 7.8872-102.53 9.859-161.69 9.859-59.154 0-90.727 5.3222-114.39 5.3222-6.659-10.11-15.749-15.181-15.749-15.181s-9.859 0-39.436-1.9718c-29.577-1.9718-30.112 5.247-34.055-4.612-3.9436-9.859-17.211-30.88-17.211-30.88l-29.577 1.9718z" fill-rule="evenodd" stroke="#000" stroke-width="1.0985px"/>
  <path id="path2746" d="m40.58 440.19c7.8872-65.069 15.774-90.702 15.774-90.702l3.9436-7.8872 120.28 5.9154 15.774 53.238h9.859l94.646-5.9154-1.9718-55.21-108.45-3.9436-128.17-5.9154-11.831 23.661-9.859 86.759z" fill="url(#linearGradient3000)" fill-rule="evenodd" stroke="#000" stroke-width="1.0985px"/>
  <path id="path2758" d="m297.36 339.05-103.98 3.8992 16.897 57.189 97.48-2.5995-10.398-58.488z" fill="url(#linearGradient3002)" fill-rule="evenodd"/>
  <path id="path2688" d="m391.56 329.77 5.9154 153.8 63.097 7.8872 3.9436-88.731s9.8589-19.718 23.661-29.577c13.803-9.859 43.379-11.831 57.182-3.9436 13.803 7.8872 33.52 21.69 39.436 41.408 5.9154 19.718-1.9718 94.646 23.661 94.646s53.238-5.9154 53.238-5.9154l7.8872-72.956-3.9436-67.041-100.56-51.267-153.8-3.9436-19.718 25.633z" fill="#232326" fill-opacity=".97838" fill-rule="evenodd" stroke="#000" stroke-width="5.4923"/>
  <rect id="rect2868" x="761.97" y="116.96" width="52.765" height="74.35" rx="8.7941" ry="20.277" fill="#101111"/>
  <path id="path2676" d="m421.52 86.072-6.9713 90.627 112.94 27.885 264.91 2.7885-6.9713-118.51-237.03-13.943-126.88 11.154z" fill="url(#linearGradient3004)" fill-rule="evenodd" stroke="#000" stroke-width="16.477"/>
  <path id="path2674" d="m510.75 323.1h41.828l4.1828-111.54-61.348-6.9713 5.5771 108.75 9.7599 9.7599z" fill="#0000a7" fill-rule="evenodd" stroke="#000" stroke-width="1.0985px"/>
  <path id="path2662" d="m659.94 385.82v48.788s11.154 3.4848 29.28 3.4848c18.125 0 59.953 5.2272 64.136 1.7424 4.1828-3.4848 8.3656-55.757-2.7885-59.242-11.154-3.4848-47.405 3.4848-58.559 1.7424-11.154-1.7424-30.674-5.2272-32.068 3.4848z" fill="url(#linearGradient3006)" fill-rule="evenodd" stroke="#000" stroke-width="1.228px"/>
  <path id="path2664" d="m938.79 427.67c0-9.7599-2.7885-36.251 2.7885-40.434 5.5771-4.1828 16.731-11.154 20.914-9.7599 4.1828 1.3943 5.5771 13.943 5.5771 22.308 0 8.3656 4.1828 23.703-2.7885 26.491-6.9714 2.7885-20.914 4.1828-26.491 1.3943z" fill="#ffffd9" fill-rule="evenodd" stroke="#000" stroke-width="1.0985px"/>
  <path id="path1846" d="m4.3167 152.76 301.29-34.523 28.246-94.154 69.046-21.969 6.2769 9.4154-59.631 50.215-3.1385 266.77-304.43-3.1385-12.554 9.4154-25.108-25.108v-156.92z" fill="url(#linearGradient3008)" fill-rule="evenodd" stroke="#000" stroke-width="2.1969"/>
  <path id="path1850" d="m407.77 13.484 298.91 28.967 2.1818-14.484-305.46-26.898 4.3636 12.414z" fill="#d7dadc" fill-rule="evenodd" stroke="#000" stroke-width="2.1394"/>
  <path id="path1852" d="m344.5 328.21 6.5455-266.18 56.727-50.182 298.91 30.546-37.091 15.273-205.09-6.5455-48 15.273-21.818 233.46v43.636h-45.818s-30.546 6.5455-21.818-2.1818c8.7273-8.7273 17.455-13.091 17.455-13.091z" fill="url(#linearGradient3010)" fill-rule="evenodd" stroke="#000" stroke-width="1.0985px"/>
  <path id="path1856" d="m582.31 487.15c0.0108 50.573-25.133 91.579-56.153 91.579-31.02 0-56.164-41.007-56.153-91.579-0.0108-50.573 25.133-91.579 56.153-91.579 31.02 0 56.164 41.007 56.153 91.579z" fill="#232323"/>
  <path id="path1858" d="m200.5 444.55c7e-3 40.061-15.543 72.544-34.728 72.544-19.185 0-34.736-32.484-34.728-72.544-7e-3 -40.061 15.543-72.544 34.728-72.544 19.185 0 34.736 32.484 34.728 72.544z" fill="#181a1a"/>
  <path id="path1860" d="m112.01 434.21c7e-3 36.662-13.495 66.39-30.152 66.39s-30.158-29.728-30.152-66.39c-0.0067-36.662 13.495-66.39 30.152-66.39s30.158 29.728 30.152 66.39z" fill="#1e1e1e"/>
  <path id="path2642" d="m390.85 313.34s0-50.194 1.3943-78.079c1.3943-27.885 13.943-158.95 15.337-164.52 1.3943-5.5771 5.5771-8.3656 23.703-13.943 18.125-5.5771 36.251-5.5771 69.713-8.3656 33.462-2.7885 61.348 0 61.348 0s92.022 8.3656 122.7 9.7599c30.674 1.3943 105.96 8.3656 111.54 11.154 5.5771 2.7885 8.3656 16.731 8.3656 16.731s-107.36-9.7599-129.67-11.154c-22.308-1.3943-118.51-6.9713-118.51-6.9713h-19.52c-5.5771 0-16.731 1.3942-16.731 1.3942l-103.18 9.7599s-2.7885-5.5771-4.1828 4.1828c-1.3943 9.7599-6.9713 92.022-6.9713 92.022s0 5.5771 2.7885 6.9713c2.7885 1.3943 108.75 23.703 108.75 23.703s-2.7885 1.3943-2.7885 9.7599v107.36s-118.51 4.1828-124.09-9.7599z" fill="#0000b3" fill-rule="evenodd" stroke="#000" stroke-width="2.1969"/>
  <path id="path2644" d="m547 323.1s-5.5771-72.502-2.7885-90.627c2.7885-18.125 12.548-22.308 12.548-22.308h90.627l132.46 2.7885h22.308s34.857 9.7599 66.925 22.308c32.068 12.548 62.742 22.308 72.502 34.857 9.7599 12.548 15.337 18.125 18.125 33.462 2.7885 15.337 2.7885 75.29 2.7885 75.29s-18.125 0-19.52 8.3656-4.1828 40.434-4.1828 40.434-47.405 13.943-92.022 13.943c-44.617 0-76.685 1.3943-83.656-1.3943-6.9713-2.7885-9.7599-13.943-9.7599-13.943s4.1828-33.462-2.7885-37.645c-6.9713-4.1828-30.674-1.3943-65.531-4.1828-34.857-2.7885-55.771 6.9713-73.896-8.3656-18.125-15.337-29.28-43.222-41.828-48.799-12.548-5.5771-22.308-4.1828-22.308-4.1828z" fill="#0000b3" fill-rule="evenodd" stroke="#000" stroke-width="2.1969"/>
  <path id="path2646" d="m754.75 429.06s0-122.7-4.1828-128.27 0-5.5771 0-5.5771l185.44 2.7885s8.3656 48.799 6.9713 72.502-6.9713 59.953-6.9713 59.953-51.588 8.3656-86.445 9.7599c-34.857 1.3943-76.685 4.1828-83.656 0-6.9713-4.1828-11.154-11.154-11.154-11.154z" fill="#000075" fill-opacity=".81622" fill-rule="evenodd" stroke="#000" stroke-width="1.0985px"/>
  <path id="path2648" d="m560.95 218.53 167.31 59.953 206.35 1.3943s-9.7599-13.943-23.703-13.943c-13.943 0-121.3 13.943-186.83-5.5771-65.531-19.52-138.03-41.828-149.19-41.828h-13.943z" fill="#fff" fill-opacity=".58919" fill-rule="evenodd"/>
  <path id="path2650" d="m971.09 428.64s2.964-5.4858 2.5661 7.0562c-0.3979 12.542 4.7785 25.261-0.9284 29.265s-6.8794-3.0082-11.723 17.763c-4.8438 20.771 3.3849 25.217-3.7155 29.176-7.1005 3.9596-260 16.861-260 16.861s-27.916 0.50936-36.1-5.3302c-8.1845-5.8395-5.9068-33.667-8.4728-40.723-2.5661-7.0562-9.4455-10.064-9.4455-10.064s-4.3806-37.803 1.1937-37.626c5.5743 0.17684 27.783 3.6713 51.473 4.4229 23.691 0.75158 90.626 1.4801 170.24-1.5741s104.92-9.2263 104.92-9.2263z" fill="url(#linearGradient3012)" fill-rule="evenodd" stroke="#000" stroke-width="4.3939"/>
  <path id="path2652" d="m956.92 469.5s-87.217 12.25-179.15 12.25-58.931 1.75-58.931 1.75 126.11 0.87502 166.18-2.6251 71.895-11.375 71.895-11.375z" fill="#fff" fill-opacity=".23784" fill-rule="evenodd"/>
  <path id="path2686" d="m535.85 199.01c0-8.3656-1.3943-115.72-1.3943-115.72" fill="none" stroke="#000" stroke-width="16.477"/>
  <path id="path2874" d="m531.73 217.7-40.773-28.781v-91.139s11.992-21.586 40.773-21.586c28.781 0 9.5936-2.3984 9.5936-2.3984" fill="none" stroke="#000" stroke-width="6.8654"/>
  <path id="path2722" d="m216.07 432.3-1.9718 13.803 177.46 23.661 3.9436-86.759-179.43-9.859v17.746l165.63 11.831v49.295l-165.63-19.718z" fill="url(#linearGradient3014)" fill-rule="evenodd" stroke="#000" stroke-width="2.1969"/>
  <path id="path2768" d="m62.106 333.85 126.07 6.4987 15.597 59.788" fill="none" stroke="#000" stroke-width="2.1969"/>
  <path id="path2770" d="m540.41 484.62c0 17.946-6.9829 32.493-15.597 32.493s-15.597-14.548-15.597-32.493c0-17.946 6.9829-32.493 15.597-32.493s15.597 14.548 15.597 32.493z" fill-opacity=".64865" stroke="#8b8a91" stroke-linecap="round" stroke-linejoin="round" stroke-opacity=".37838" stroke-width="7.9638"/>
  <path id="path2772" d="m173.65 445.87c0 13.643-4.2616 24.704-9.5185 24.704s-9.5185-11.06-9.5185-24.704c0-13.643 4.2616-24.704 9.5185-24.704s9.5185 11.06 9.5185 24.704z" fill-opacity=".64865" stroke="#8b8a91" stroke-linecap="round" stroke-linejoin="round" stroke-opacity=".68108" stroke-width="3.7411"/>
  <path id="path2774" d="m88.084 431.08c0 12.309-3.7752 22.287-8.4322 22.287s-8.4322-9.9782-8.4322-22.287 3.7752-22.287 8.4322-22.287 8.4322 9.9782 8.4322 22.287z" fill-opacity=".64865" stroke="#8b8a91" stroke-linecap="round" stroke-linejoin="round" stroke-opacity=".75676" stroke-width="3.3445"/>
  <rect id="rect2836" x="253.68" y="163.13" width="20.622" height="134.32" rx="0" ry="6.7837" fill="#fff" fill-opacity=".31892" opacity=".98429"/>
  <rect id="rect2838" x="209.74" y="167.87" width="20.622" height="131.78" fill="#fff" fill-opacity=".31892" opacity=".98429"/>
  <rect id="rect2840" x="166.58" y="170.07" width="19.906" height="131.78" fill="#fff" fill-opacity=".31892" opacity=".98429"/>
  <rect id="rect2842" x="124.36" y="174.81" width="18.226" height="129.24" fill="#fff" fill-opacity=".31892" opacity=".98429"/>
  <rect id="rect2844" x="82.072" y="178.2" width="16.677" height="125.85" fill="#fff" fill-opacity=".27027" opacity=".98429"/>
  <rect id="rect2846" x="39.783" y="180.4" width="15.129" height="115.67" fill="#fff" fill-opacity=".25405" opacity=".98429"/>
  <path id="path2820" d="m17.915 183.08 293.74-25.995" fill="none" stroke="#000" stroke-opacity=".38919" stroke-width="5.4923"/>
  <path id="path2848" d="m476.52 461.93s1.3866-25.439 11.093-37.31c9.7064-11.871 16.64-20.351 24.959-20.351 8.3198 0-12.48 13.567-12.48 13.567s-9.7064 10.176-13.866 22.047c-4.1599 11.871-9.7064 22.047-9.7064 22.047z" fill="#fff" fill-opacity=".19459" fill-rule="evenodd"/>
  <path id="path2850" d="m133.95 422.93s0.89177-19.453 7.1342-28.531c6.2424-9.0782 10.701-15.563 16.052-15.563 5.3506 0-8.026 10.375-8.026 10.375s-6.2424 7.7813-8.9177 16.859c-2.6753 9.0781-6.2424 16.859-6.2424 16.859z" fill="#fff" fill-opacity=".26487" fill-rule="evenodd"/>
  <path id="path2852" d="m55.934 416.14s0.89178-19.453 7.1342-28.531c6.2424-9.0782 10.701-15.563 16.052-15.563 5.3506 0-8.026 10.375-8.026 10.375s-6.2424 7.7813-8.9177 16.859c-2.6753 9.0781-6.2424 16.859-6.2424 16.859z" fill="#fff" fill-opacity=".3027" fill-rule="evenodd"/>
  <path id="rect2870" d="m471.75 90.584c-5.3148 0-9.5772 3.5124-9.5772 7.8609v13.079c0 4.3485 4.2624 7.8266 9.5772 7.8266-5.3148 0-9.5772 9.9232-9.5772 22.244v37.073c0 12.321 4.2624 22.244 9.5772 22.244h38.378c5.3148 0 9.6115-9.9231 9.6116-22.244v-37.073c0-12.321-4.2967-22.244-9.6116-22.244 5.3148 0 9.6115-3.4781 9.6116-7.8266v-13.079c0-4.3485-4.2967-7.8609-9.6116-7.8609h-38.378z" fill="url(#linearGradient3016)" stroke="#000" stroke-linecap="round" stroke-linejoin="round" stroke-width="3.1581"/>
  <path id="path2895" d="m401.24 331.09 1.8396 144.41 51.51 8.2784s-31.274-14.717-38.632-46.911c-7.3586-32.194-14.717-105.78-14.717-105.78z" fill-opacity=".62162" fill-rule="evenodd"/>
  <path id="path2897" d="m496.9 337.53s48.403-5.5189 60.504 0c12.101 5.5189 34.79 29.434 40.84 40.472 6.0504 11.038-25.714-27.595-40.84-31.274-15.126-3.6793-60.504-9.1982-60.504-9.1982z" fill="#fff" fill-opacity=".081081" fill-rule="evenodd"/>
 </g>
</svg>
