<?xml version="1.0" encoding="UTF-8"?>
<!-- Created with Inkscape (http://www.inkscape.org/) -->
<svg id="svg3897" width="58.808" height="57.795" version="1.1" xmlns="http://www.w3.org/2000/svg" xmlns:cc="http://creativecommons.org/ns#" xmlns:dc="http://purl.org/dc/elements/1.1/" xmlns:rdf="http://www.w3.org/1999/02/22-rdf-syntax-ns#" xmlns:xlink="http://www.w3.org/1999/xlink">
 <defs id="defs3899">
  <linearGradient id="linearGradient2856" x1="6.5225" x2="5.3033" y1="428.96" y2="430.68" gradientTransform="translate(-62.788 36.424)" gradientUnits="userSpaceOnUse" spreadMethod="reflect">
   <stop id="stop6635" stop-color="#d3d7cf" offset="0"/>
   <stop id="stop6637" stop-color="#888a85" offset="1"/>
  </linearGradient>
  <linearGradient id="linearGradient2858" x1="138.09" x2="146.77" y1="370.28" y2="382.98" gradientTransform="matrix(.42794 0 0 .42794 33.779 217.07)" gradientUnits="userSpaceOnUse" xlink:href="#linearGradient3689"/>
  <linearGradient id="linearGradient3689">
   <stop id="stop3691" stop-color="#d3d7cf" offset="0"/>
   <stop id="stop3693" offset="1"/>
  </linearGradient>
 </defs>
 <metadata id="metadata3902">
  <rdf:RDF>
   <cc:Work rdf:about="">
    <dc:format>image/svg+xml</dc:format>
    <dc:type rdf:resource="http://purl.org/dc/dcmitype/StillImage"/>
    <dc:title/>
   </cc:Work>
  </rdf:RDF>
 </metadata>
 <g id="layer1" transform="translate(-13.929 -66.102)">
  <g id="g2868" transform="translate(94.636 -356.53)">
   <path id="path2684" d="m-57.938 462.73c-0.22568-4e-3 -0.4584 0.0623-0.71875 0.15625-1.0414 0.37582-1.9062 1.4416-1.9062 2.375 0 0.58338 0.3419 0.97089 0.84375 1.0938l5.5061 3.1708 3.0938-3.0625-6.1623-3.5145-0.03125-0.0312c-0.17776-0.10392-0.38352-0.18305-0.625-0.1875z" fill="url(#linearGradient2856)" stroke="#000" stroke-linecap="round" stroke-linejoin="round" stroke-width=".5"/>
   <path id="path2686" transform="matrix(.65357 -.23586 0 .65357 -123.12 248.4)" d="m110.36 374.49c0 1.4289-1.2924 2.5873-2.8866 2.5873s-2.8866-1.1584-2.8866-2.5873c0-1.4289 1.2924-2.5873 2.8866-2.5873s2.8866 1.1584 2.8866 2.5873z" fill="#555753" stroke="#000" stroke-linecap="round" stroke-linejoin="round" stroke-width=".76503"/>
   <g id="g2688" transform="translate(-168.69 75.211)">
    <path id="path2690" transform="matrix(-.18314 -.2966 .2966 -.18314 41.282 467.88)" d="m148.59 262c0 4.4415-5.3351 8.042-11.916 8.042-6.5812 0-11.916-3.6005-11.916-8.042 0-4.4414 5.3351-8.042 11.916-8.042 6.5812 0 11.916 3.6005 11.916 8.042z" fill="#c00"/>
    <path id="path2692" d="m92.872 375.53c-0.39582-3e-3 -0.76744 0.091-1.0966 0.29421l-2.2317 1.2838 4.0599 7.2617 2.8123-1.685c1.0475-0.94151 1.0475-2.9964-0.06687-4.801-0.90351-1.4632-2.2896-2.3455-3.477-2.3537z" fill="url(#linearGradient2858)" fill-rule="evenodd" stroke="#000" stroke-width=".21397"/>
    <path id="path2694" transform="matrix(-.18314 -.2966 .2966 -.18314 38.893 469.26)" d="m148.59 262c0 4.4415-5.3351 8.042-11.916 8.042-6.5812 0-11.916-3.6005-11.916-8.042 0-4.4414 5.3351-8.042 11.916-8.042 6.5812 0 11.916 3.6005 11.916 8.042z" fill="#555753" stroke="#000" stroke-linejoin="bevel" stroke-width=".61383"/>
    <path id="path2696" transform="matrix(-.10007 -.16206 .16206 -.10007 62.786 428.93)" d="m148.59 262c0 4.4415-5.3351 8.042-11.916 8.042-6.5812 0-11.916-3.6005-11.916-8.042 0-4.4414 5.3351-8.042 11.916-8.042 6.5812 0 11.916 3.6005 11.916 8.042z" fill="#d3d7cf"/>
   </g>
   <g id="g2698" transform="translate(-162.34 79.32)">
    <path id="path2700" transform="matrix(-.18314 -.2966 .2966 -.18314 41.282 467.88)" d="m148.59 262c0 4.4415-5.3351 8.042-11.916 8.042-6.5812 0-11.916-3.6005-11.916-8.042 0-4.4414 5.3351-8.042 11.916-8.042 6.5812 0 11.916 3.6005 11.916 8.042z" fill="#c00"/>
    <path id="path2702" d="m92.872 375.53c-0.39582-3e-3 -0.76744 0.091-1.0966 0.29421l-2.2317 1.2838 4.0599 7.2617 2.8123-1.685c1.0475-0.94151 1.0475-2.9964-0.06687-4.801-0.90351-1.4632-2.2896-2.3455-3.477-2.3537z" fill="url(#linearGradient2858)" fill-rule="evenodd" stroke="#000" stroke-width=".21397"/>
    <path id="path2704" transform="matrix(-.18314 -.2966 .2966 -.18314 38.893 469.26)" d="m148.59 262c0 4.4415-5.3351 8.042-11.916 8.042-6.5812 0-11.916-3.6005-11.916-8.042 0-4.4414 5.3351-8.042 11.916-8.042 6.5812 0 11.916 3.6005 11.916 8.042z" fill="#555753" stroke="#000" stroke-linejoin="bevel" stroke-width=".61383"/>
    <path id="path2706" transform="matrix(-.10007 -.16206 .16206 -.10007 62.786 428.93)" d="m148.59 262c0 4.4415-5.3351 8.042-11.916 8.042-6.5812 0-11.916-3.6005-11.916-8.042 0-4.4414 5.3351-8.042 11.916-8.042 6.5812 0 11.916 3.6005 11.916 8.042z" fill="#d3d7cf"/>
   </g>
   <path id="path2708" d="m-65.113 441.76-15.343 8.8583 30.686 17.717 15.343-8.8583-30.686-17.717z" fill="#555753" fill-rule="evenodd" stroke="#000" stroke-linecap="round" stroke-linejoin="bevel" stroke-width=".5"/>
   <path id="path2710" d="m-79.206 449.58 30.686 17.717v-17.717l-30.686-17.717v17.717z" fill="#d3d7cf" fill-rule="evenodd" stroke="#000" stroke-linejoin="bevel" stroke-width=".5"/>
   <path id="path2712" d="m-33.302 458.32-15.343 8.8583v-17.717l15.343-8.8583v17.717z" fill="#888a85" fill-rule="evenodd" stroke="#000" stroke-linecap="round" stroke-linejoin="bevel" stroke-width=".5"/>
   <path id="path2714" d="m-63.988 422.88-15.343 8.8583 30.686 17.717 15.343-8.8583-30.686-17.717z" fill="#eeeeec" fill-rule="evenodd" stroke="#000" stroke-linecap="round" stroke-linejoin="bevel" stroke-width=".5"/>
   <g id="g2740" transform="translate(-139.54 93.459)">
    <path id="path2742" transform="matrix(-.18314 -.2966 .2966 -.18314 41.282 467.88)" d="m148.59 262c0 4.4415-5.3351 8.042-11.916 8.042-6.5812 0-11.916-3.6005-11.916-8.042 0-4.4414 5.3351-8.042 11.916-8.042 6.5812 0 11.916 3.6005 11.916 8.042z" fill="#c00"/>
    <path id="path2744" d="m92.872 375.53c-0.39582-3e-3 -0.76744 0.091-1.0966 0.29421l-2.2317 1.2838 4.0599 7.2617 2.8123-1.685c1.0475-0.94151 1.0475-2.9964-0.06687-4.801-0.90351-1.4632-2.2896-2.3455-3.477-2.3537z" fill="url(#linearGradient2858)" fill-rule="evenodd" stroke="#000" stroke-width=".21397"/>
    <path id="path2746" transform="matrix(-.18314 -.2966 .2966 -.18314 38.893 469.26)" d="m148.59 262c0 4.4415-5.3351 8.042-11.916 8.042-6.5812 0-11.916-3.6005-11.916-8.042 0-4.4414 5.3351-8.042 11.916-8.042 6.5812 0 11.916 3.6005 11.916 8.042z" fill="#555753" stroke="#000" stroke-linejoin="bevel" stroke-width=".61383"/>
    <path id="path2748" transform="matrix(-.10007 -.16206 .16206 -.10007 62.786 428.93)" d="m148.59 262c0 4.4415-5.3351 8.042-11.916 8.042-6.5812 0-11.916-3.6005-11.916-8.042 0-4.4414 5.3351-8.042 11.916-8.042 6.5812 0 11.916 3.6005 11.916 8.042z" fill="#d3d7cf"/>
   </g>
   <path id="path2750" d="m-44.512 472.43c0.89924 1.4563 1.2122 3.0276 0.96875 4.2812l6 3.4688v-17.719l-9.9688-5.625 0.0671 10.969c0.43258 1.1038 0.41242 2.4355 2.9329 4.625z" fill="#888a85" fill-rule="evenodd" stroke="#000" stroke-linejoin="bevel" stroke-width=".5"/>
   <path id="path2752" d="m-22.192 471.31v-17.717l-15.343 8.8583v17.717l15.343-8.8583z" fill="#555753" fill-rule="evenodd" stroke="#000" stroke-linejoin="bevel" stroke-width=".5"/>
   <path id="path2754" d="m-22.148 460.28-0.04419-6.6888-15.343 8.8583 0.04419 6.6888 15.343-8.8583z" fill="#729fcf" fill-rule="evenodd" stroke="#000" stroke-linejoin="bevel" stroke-width=".5"/>
   <path id="path2756" d="m-38.544 463.13-7.7024-4.3126 0.09424 5.0807 7.5154 5.1461 0.09276-5.9143z" fill="#729fcf" fill-rule="evenodd" stroke="#000" stroke-width=".5"/>
   <path id="path2758" d="m-32.036 448.05-15.343 8.8583 9.7965 5.656 15.343-8.8583-9.7965-5.656z" fill="#d3d7cf" fill-rule="evenodd" stroke="#000" stroke-linejoin="bevel" stroke-width=".5"/>
   <g id="g2760" transform="translate(-144.9 92.863)">
    <path id="path2762" transform="matrix(.65357 -.23586 0 .65357 40.11 163.75)" d="m110.36 374.49c0 1.4289-1.2924 2.5873-2.8866 2.5873s-2.8866-1.1584-2.8866-2.5873c0-1.4289 1.2924-2.5873 2.8866-2.5873s2.8866 1.1584 2.8866 2.5873z" fill="#d3d7cf"/>
    <path id="path2764" transform="matrix(.43922 -.15851 0 .43922 63.146 235.71)" d="m110.36 374.49c0 1.4289-1.2924 2.5873-2.8866 2.5873s-2.8866-1.1584-2.8866-2.5873c0-1.4289 1.2924-2.5873 2.8866-2.5873s2.8866 1.1584 2.8866 2.5873z" fill="#eeeeec"/>
    <path id="path2766" transform="matrix(.14598 -.052681 0 .14598 94.172 333.89)" d="m110.36 374.49c0 1.4289-1.2924 2.5873-2.8866 2.5873s-2.8866-1.1584-2.8866-2.5873c0-1.4289 1.2924-2.5873 2.8866-2.5873s2.8866 1.1584 2.8866 2.5873z" fill="#fff"/>
   </g>
   <g id="g2768" transform="translate(-134.73 86.833)">
    <path id="path2770" transform="matrix(.65357 -.23586 0 .65357 40.11 163.75)" d="m110.36 374.49c0 1.4289-1.2924 2.5873-2.8866 2.5873s-2.8866-1.1584-2.8866-2.5873c0-1.4289 1.2924-2.5873 2.8866-2.5873s2.8866 1.1584 2.8866 2.5873z" fill="#d3d7cf"/>
    <path id="path2772" transform="matrix(.43922 -.15851 0 .43922 63.146 235.71)" d="m110.36 374.49c0 1.4289-1.2924 2.5873-2.8866 2.5873s-2.8866-1.1584-2.8866-2.5873c0-1.4289 1.2924-2.5873 2.8866-2.5873s2.8866 1.1584 2.8866 2.5873z" fill="#eeeeec"/>
    <path id="path2774" transform="matrix(.14598 -.052681 0 .14598 94.172 333.89)" d="m110.36 374.49c0 1.4289-1.2924 2.5873-2.8866 2.5873s-2.8866-1.1584-2.8866-2.5873c0-1.4289 1.2924-2.5873 2.8866-2.5873s2.8866 1.1584 2.8866 2.5873z" fill="#fff"/>
   </g>
   <g id="g2776" transform="matrix(.44276 0 0 .44276 -84.648 303.58)">
    <path id="path2778" transform="matrix(.65357 -.23586 0 .65357 40.11 163.75)" d="m110.36 374.49c0 1.4289-1.2924 2.5873-2.8866 2.5873s-2.8866-1.1584-2.8866-2.5873c0-1.4289 1.2924-2.5873 2.8866-2.5873s2.8866 1.1584 2.8866 2.5873z" fill="#d3d7cf"/>
    <path id="path2780" transform="matrix(.43922 -.15851 0 .43922 63.146 235.71)" d="m110.36 374.49c0 1.4289-1.2924 2.5873-2.8866 2.5873s-2.8866-1.1584-2.8866-2.5873c0-1.4289 1.2924-2.5873 2.8866-2.5873s2.8866 1.1584 2.8866 2.5873z" fill="#f57900"/>
    <path id="path2782" transform="matrix(.14598 -.052681 0 .14598 94.172 333.89)" d="m110.36 374.49c0 1.4289-1.2924 2.5873-2.8866 2.5873s-2.8866-1.1584-2.8866-2.5873c0-1.4289 1.2924-2.5873 2.8866-2.5873s2.8866 1.1584 2.8866 2.5873z" fill="#fff"/>
   </g>
   <g id="g2784" transform="matrix(.44276 0 0 .44276 -72.479 297.26)">
    <path id="path2786" transform="matrix(.65357 -.23586 0 .65357 40.11 163.75)" d="m110.36 374.49c0 1.4289-1.2924 2.5873-2.8866 2.5873s-2.8866-1.1584-2.8866-2.5873c0-1.4289 1.2924-2.5873 2.8866-2.5873s2.8866 1.1584 2.8866 2.5873z" fill="#d3d7cf"/>
    <path id="path2788" transform="matrix(.43922 -.15851 0 .43922 63.146 235.71)" d="m110.36 374.49c0 1.4289-1.2924 2.5873-2.8866 2.5873s-2.8866-1.1584-2.8866-2.5873c0-1.4289 1.2924-2.5873 2.8866-2.5873s2.8866 1.1584 2.8866 2.5873z" fill="#f57900"/>
    <path id="path2790" transform="matrix(.14598 -.052681 0 .14598 94.172 333.89)" d="m110.36 374.49c0 1.4289-1.2924 2.5873-2.8866 2.5873s-2.8866-1.1584-2.8866-2.5873c0-1.4289 1.2924-2.5873 2.8866-2.5873s2.8866 1.1584 2.8866 2.5873z" fill="#fff"/>
   </g>
   <path id="path2792" d="m-33.056 466.15 0.89755-0.45148 5.1048-8.7111-1.6855 0.97314-4.3168 8.1894z" fill="#fff" fill-rule="evenodd"/>
   <path id="path2794" d="m-31.094 465.08 0.89755-0.45148 5.1048-8.7111-1.6855 0.97314-4.3168 8.1894z" fill="#fff" fill-rule="evenodd"/>
   <g id="g2796" transform="translate(-62.788 36.424)" stroke-width=".5">
    <path id="path2798" d="m-15.343 413.58v-17.565" fill="none" stroke="#000"/>
    <path id="path2800" d="m-15.091 413.86v-17.565" fill="#eeeeec" fill-rule="evenodd" stroke="#eeeeec"/>
   </g>
   <g id="g2802" transform="translate(-59.97 38.236)" stroke-width=".5">
    <path id="path2804" d="m-15.343 413.58v-17.565" fill="none" stroke="#000"/>
    <path id="path2806" d="m-15.091 413.86v-17.565" fill="#eeeeec" fill-rule="evenodd" stroke="#eeeeec"/>
   </g>
   <g id="g2808" transform="translate(-56.65 39.959)" stroke-width=".5">
    <path id="path2810" d="m-15.343 413.58v-17.565" fill="none" stroke="#000"/>
    <path id="path2812" d="m-15.091 413.86v-17.565" fill="#eeeeec" fill-rule="evenodd" stroke="#eeeeec"/>
   </g>
   <g id="g2814" transform="translate(-53.833 41.683)" stroke-width=".5">
    <path id="path2816" d="m-15.343 413.58v-17.565" fill="none" stroke="#000"/>
    <path id="path2818" d="m-15.091 413.86v-17.565" fill="#eeeeec" fill-rule="evenodd" stroke="#eeeeec"/>
   </g>
   <g id="g2820" transform="translate(-51.016 43.495)" stroke-width=".5">
    <path id="path2822" d="m-15.343 413.58v-17.565" fill="none" stroke="#000"/>
    <path id="path2824" d="m-15.091 413.86v-17.565" fill="#eeeeec" fill-rule="evenodd" stroke="#eeeeec"/>
   </g>
   <g id="g2826" transform="translate(-47.696 45.218)" stroke-width=".5">
    <path id="path2828" d="m-15.343 413.58v-17.565" fill="none" stroke="#000"/>
    <path id="path2830" d="m-15.091 413.86v-17.565" fill="#eeeeec" fill-rule="evenodd" stroke="#eeeeec"/>
   </g>
   <g id="g2832" transform="translate(-44.628 47.119)" stroke-width=".5">
    <path id="path2834" d="m-15.343 413.58v-17.565" fill="none" stroke="#000"/>
    <path id="path2836" d="m-15.091 413.86v-17.565" fill="#eeeeec" fill-rule="evenodd" stroke="#eeeeec"/>
   </g>
   <g id="g2838" transform="translate(-41.81 48.931)" stroke-width=".5">
    <path id="path2840" d="m-15.343 413.58v-17.565" fill="none" stroke="#000"/>
    <path id="path2842" d="m-15.091 413.86v-17.565" fill="#eeeeec" fill-rule="evenodd" stroke="#eeeeec"/>
   </g>
   <g id="g2844" transform="translate(-38.49 50.654)" stroke-width=".5">
    <path id="path2846" d="m-15.343 413.58v-17.565" fill="none" stroke="#000"/>
    <path id="path2848" d="m-15.091 413.86v-17.565" fill="#eeeeec" fill-rule="evenodd" stroke="#eeeeec"/>
   </g>
   <g id="g2850" transform="translate(-35.422 52.378)" stroke-width=".5">
    <path id="path2852" d="m-15.343 413.58v-17.565" fill="none" stroke="#000"/>
    <path id="path2854" d="m-15.091 413.86v-17.565" fill="#eeeeec" fill-rule="evenodd" stroke="#eeeeec"/>
   </g>
  </g>
 </g>
</svg>
