<?xml version="1.0" encoding="UTF-8"?>
<!-- Created with Inkscape (http://www.inkscape.org/) -->
<svg id="svg4522" width="61.872" height="53.658" version="1.1" xmlns="http://www.w3.org/2000/svg" xmlns:cc="http://creativecommons.org/ns#" xmlns:dc="http://purl.org/dc/elements/1.1/" xmlns:rdf="http://www.w3.org/1999/02/22-rdf-syntax-ns#" xmlns:xlink="http://www.w3.org/1999/xlink">
 <defs id="defs4524">
  <linearGradient id="linearGradient3978" x1="138.09" x2="146.77" y1="370.28" y2="382.98" gradientTransform="matrix(.42794 0 0 .42794 33.779 217.07)" gradientUnits="userSpaceOnUse" xlink:href="#linearGradient3689"/>
  <linearGradient id="linearGradient3689">
   <stop id="stop3691" stop-color="#d3d7cf" offset="0"/>
   <stop id="stop3693" offset="1"/>
  </linearGradient>
 </defs>
 <metadata id="metadata4527">
  <rdf:RDF>
   <cc:Work rdf:about="">
    <dc:format>image/svg+xml</dc:format>
    <dc:type rdf:resource="http://purl.org/dc/dcmitype/StillImage"/>
    <dc:title/>
   </cc:Work>
  </rdf:RDF>
 </metadata>
 <g id="layer1" transform="translate(-20.731 -86.505)">
  <g id="g3896" transform="translate(-40.391 -248.09)">
   <path id="path3898" d="m62.959 362.33 9.0019-5.4327-0.63131-2.6298-8.9461 4.1869 0.57549 3.8756z" fill="#555753" fill-rule="evenodd"/>
   <g id="g3900" transform="translate(-25.017 -16.476)">
    <path id="path3902" transform="matrix(-.18314 -.2966 .2966 -.18314 41.282 467.88)" d="m148.59 262c0 4.4415-5.3351 8.042-11.916 8.042-6.5812 0-11.916-3.6005-11.916-8.042 0-4.4414 5.3351-8.042 11.916-8.042 6.5812 0 11.916 3.6005 11.916 8.042z" fill="#c00"/>
    <path id="path3904" d="m92.872 375.53c-0.39582-3e-3 -0.76744 0.091-1.0966 0.29421l-2.2317 1.2838 4.0599 7.2617 2.8123-1.685c1.0475-0.94151 1.0475-2.9964-0.06687-4.801-0.90351-1.4632-2.2896-2.3455-3.477-2.3537z" fill="url(#linearGradient3978)" fill-rule="evenodd" stroke="#000" stroke-width=".21397"/>
    <path id="path3906" transform="matrix(-.18314 -.2966 .2966 -.18314 38.893 469.26)" d="m148.59 262c0 4.4415-5.3351 8.042-11.916 8.042-6.5812 0-11.916-3.6005-11.916-8.042 0-4.4414 5.3351-8.042 11.916-8.042 6.5812 0 11.916 3.6005 11.916 8.042z" fill="#555753" stroke="#000" stroke-linejoin="bevel" stroke-width=".61383"/>
    <path id="path3908" transform="matrix(-.10007 -.16206 .16206 -.10007 62.786 428.93)" d="m148.59 262c0 4.4415-5.3351 8.042-11.916 8.042-6.5812 0-11.916-3.6005-11.916-8.042 0-4.4414 5.3351-8.042 11.916-8.042 6.5812 0 11.916 3.6005 11.916 8.042z" fill="#d3d7cf"/>
   </g>
   <g id="g3910" transform="translate(-18.036 -12.073)">
    <path id="path3912" transform="matrix(-.18314 -.2966 .2966 -.18314 41.282 467.88)" d="m148.59 262c0 4.4415-5.3351 8.042-11.916 8.042-6.5812 0-11.916-3.6005-11.916-8.042 0-4.4414 5.3351-8.042 11.916-8.042 6.5812 0 11.916 3.6005 11.916 8.042z" fill="#c00"/>
    <path id="path3914" d="m92.872 375.53c-0.39582-3e-3 -0.76744 0.091-1.0966 0.29421l-2.2317 1.2838 4.0599 7.2617 2.8123-1.685c1.0475-0.94151 1.0475-2.9964-0.06687-4.801-0.90351-1.4632-2.2896-2.3455-3.477-2.3537z" fill="url(#linearGradient3978)" fill-rule="evenodd" stroke="#000" stroke-width=".21397"/>
    <path id="path3916" transform="matrix(-.18314 -.2966 .2966 -.18314 38.893 469.26)" d="m148.59 262c0 4.4415-5.3351 8.042-11.916 8.042-6.5812 0-11.916-3.6005-11.916-8.042 0-4.4414 5.3351-8.042 11.916-8.042 6.5812 0 11.916 3.6005 11.916 8.042z" fill="#555753" stroke="#000" stroke-linejoin="bevel" stroke-width=".61383"/>
    <path id="path3918" transform="matrix(-.10007 -.16206 .16206 -.10007 62.786 428.93)" d="m148.59 262c0 4.4415-5.3351 8.042-11.916 8.042-6.5812 0-11.916-3.6005-11.916-8.042 0-4.4414 5.3351-8.042 11.916-8.042 6.5812 0 11.916 3.6005 11.916 8.042z" fill="#d3d7cf"/>
   </g>
   <g id="g3920" transform="translate(2.872 -.22348)">
    <path id="path3922" transform="matrix(-.18314 -.2966 .2966 -.18314 41.282 467.88)" d="m148.59 262c0 4.4415-5.3351 8.042-11.916 8.042-6.5812 0-11.916-3.6005-11.916-8.042 0-4.4414 5.3351-8.042 11.916-8.042 6.5812 0 11.916 3.6005 11.916 8.042z" fill="#c00"/>
    <path id="path3924" d="m92.872 375.53c-0.39582-3e-3 -0.76744 0.091-1.0966 0.29421l-2.2317 1.2838 4.0599 7.2617 2.8123-1.685c1.0475-0.94151 1.0475-2.9964-0.06687-4.801-0.90351-1.4632-2.2896-2.3455-3.477-2.3537z" fill="url(#linearGradient3978)" fill-rule="evenodd" stroke="#000" stroke-width=".21397"/>
    <path id="path3926" transform="matrix(-.18314 -.2966 .2966 -.18314 38.893 469.26)" d="m148.59 262c0 4.4415-5.3351 8.042-11.916 8.042-6.5812 0-11.916-3.6005-11.916-8.042 0-4.4414 5.3351-8.042 11.916-8.042 6.5812 0 11.916 3.6005 11.916 8.042z" fill="#555753" stroke="#000" stroke-linejoin="bevel" stroke-width=".61383"/>
    <path id="path3928" transform="matrix(-.10007 -.16206 .16206 -.10007 62.786 428.93)" d="m148.59 262c0 4.4415-5.3351 8.042-11.916 8.042-6.5812 0-11.916-3.6005-11.916-8.042 0-4.4414 5.3351-8.042 11.916-8.042 6.5812 0 11.916 3.6005 11.916 8.042z" fill="#d3d7cf"/>
   </g>
   <path id="path3930" d="m61.375 343.69v17.719l1.375 0.8125c0.09699-1.02 0.52596-1.8774 1.2812-2.3438 0.40897-0.25253 0.85197-0.34715 1.3438-0.34375 1.4754 0.0102 3.1899 1.0883 4.3125 2.9062 0.52907 0.85682 0.86935 1.772 1 2.625 0.17258-0.21386 0.35724-0.41646 0.59375-0.5625 1.6359-1.0101 4.1907 0.13853 5.6875 2.5625 0.82083 1.3293 1.1325 2.7434 1 3.9375l13.32 7.4776c0.16598-0.82022 0.57338-1.5078 1.2188-1.9062 1.6359-1.0101 4.1907 0.13853 5.6875 2.5625 0.806 1.3053 1.114 2.7245 1 3.9062l8.2112 4.9599v-17.719l-46.031-26.594z" fill="#babdb6" fill-rule="evenodd" stroke="#000" stroke-linejoin="bevel" stroke-width=".5"/>
   <path id="path3932" d="m122.74 379.13v-17.717l-15.343 8.8583v17.717l15.343-8.8583z" fill="#888a85" fill-rule="evenodd" stroke="#000" stroke-linejoin="bevel" stroke-width=".5"/>
   <path id="path3934" d="m76.715 334.84-15.343 8.8583 46.029 26.575 15.343-8.8583-46.029-26.575z" fill="#eeeeec" fill-rule="evenodd" stroke="#000" stroke-linejoin="bevel" stroke-width=".5"/>
   <path id="path3936" d="m122.74 373.13v-11.717l-15.343 8.8583v11.717l15.343-8.8583z" fill="#729fcf" fill-rule="evenodd" stroke="#000" stroke-linejoin="bevel" stroke-width=".5"/>
   <path id="path3938" d="m61.372 350.29 15.343 8.8583v-5.7165l-15.343-8.8583v5.7165z" fill="#729fcf" fill-rule="evenodd" stroke="#000" stroke-linejoin="bevel" stroke-width=".5"/>
   <path id="path3940" d="m85.216 364.06 14.236 8.2191v-5.7165l-14.236-8.2191v5.7165z" fill="#729fcf" fill-rule="evenodd" stroke="#000" stroke-linejoin="bevel" stroke-width=".5"/>
   <path id="path3942" d="m78.787 369.95 4.959 2.8631-0.10131-15.382-4.959-2.8631 0.10131 15.382z" fill="#babdb6" fill-rule="evenodd" stroke="#000" stroke-linejoin="bevel" stroke-width=".5"/>
   <path id="path3944" d="m79.477 360.75 3.3753 1.9488v-5.0094l-3.3753-1.9488v5.0094z" fill="#729fcf" fill-rule="evenodd" stroke="#000" stroke-linejoin="bevel" stroke-width=".5"/>
   <path id="path3946" d="m101.36 382.99 4.959 2.8631-0.10131-15.382-5.8173-3.3586-0.0504 7.5001 0.94532 0.56205 0.0647 7.8158z" fill="#babdb6" fill-rule="evenodd" stroke="#000" stroke-linejoin="bevel" stroke-width=".5"/>
   <path id="path3948" d="m101.26 373.32 4.1665 2.4055v-5.0094l-4.1665-2.4055v5.0094z" fill="#729fcf" fill-rule="evenodd" stroke="#000" stroke-linejoin="bevel" stroke-width=".5"/>
   <path id="path3950" d="m66.322 353.17v-5.625" fill="none" stroke="#000" stroke-width=".5"/>
   <path id="path3952" d="m71.634 356.24v-5.625" fill="none" stroke="#000" stroke-width=".5"/>
   <path id="path3954" d="m89.828 366.65v-5.625" fill="none" stroke="#000" stroke-width=".5"/>
   <path id="path3956" d="m94.64 369.46v-5.625" fill="none" stroke="#000" stroke-width=".5"/>
   <path id="path3958" d="m110.47 379.92 0.89755-0.45148 6.9252-15.486-1.6855 0.97314-6.1372 14.964z" fill="#fff" fill-rule="evenodd"/>
   <path id="path3960" d="m112.28 378.88 0.89755-0.45148 6.9252-15.486-1.6855 0.97314-6.1372 14.964z" fill="#fff" fill-rule="evenodd"/>
   <g id="g3962">
    <path id="path3964" transform="matrix(.65357 -.23586 0 .65357 40.11 163.75)" d="m110.36 374.49c0 1.4289-1.2924 2.5873-2.8866 2.5873s-2.8866-1.1584-2.8866-2.5873c0-1.4289 1.2924-2.5873 2.8866-2.5873s2.8866 1.1584 2.8866 2.5873z" fill="#d3d7cf"/>
    <path id="path3966" transform="matrix(.43922 -.15851 0 .43922 63.146 235.71)" d="m110.36 374.49c0 1.4289-1.2924 2.5873-2.8866 2.5873s-2.8866-1.1584-2.8866-2.5873c0-1.4289 1.2924-2.5873 2.8866-2.5873s2.8866 1.1584 2.8866 2.5873z" fill="#eeeeec"/>
    <path id="path3968" transform="matrix(.14598 -.052681 0 .14598 94.172 333.89)" d="m110.36 374.49c0 1.4289-1.2924 2.5873-2.8866 2.5873s-2.8866-1.1584-2.8866-2.5873c0-1.4289 1.2924-2.5873 2.8866-2.5873s2.8866 1.1584 2.8866 2.5873z" fill="#fff"/>
   </g>
   <g id="g3970" transform="translate(9.8146 -5.9124)">
    <path id="path3972" transform="matrix(.65357 -.23586 0 .65357 40.11 163.75)" d="m110.36 374.49c0 1.4289-1.2924 2.5873-2.8866 2.5873s-2.8866-1.1584-2.8866-2.5873c0-1.4289 1.2924-2.5873 2.8866-2.5873s2.8866 1.1584 2.8866 2.5873z" fill="#d3d7cf"/>
    <path id="path3974" transform="matrix(.43922 -.15851 0 .43922 63.146 235.71)" d="m110.36 374.49c0 1.4289-1.2924 2.5873-2.8866 2.5873s-2.8866-1.1584-2.8866-2.5873c0-1.4289 1.2924-2.5873 2.8866-2.5873s2.8866 1.1584 2.8866 2.5873z" fill="#eeeeec"/>
    <path id="path3976" transform="matrix(.14598 -.052681 0 .14598 94.172 333.89)" d="m110.36 374.49c0 1.4289-1.2924 2.5873-2.8866 2.5873s-2.8866-1.1584-2.8866-2.5873c0-1.4289 1.2924-2.5873 2.8866-2.5873s2.8866 1.1584 2.8866 2.5873z" fill="#fff"/>
   </g>
  </g>
 </g>
</svg>
