<?xml version="1.0" encoding="UTF-8"?>
<!-- Created with Inkscape (http://www.inkscape.org/) -->
<svg id="svg4197" width="59.231" height="45.85" version="1.1" xmlns="http://www.w3.org/2000/svg" xmlns:cc="http://creativecommons.org/ns#" xmlns:dc="http://purl.org/dc/elements/1.1/" xmlns:rdf="http://www.w3.org/1999/02/22-rdf-syntax-ns#" xmlns:xlink="http://www.w3.org/1999/xlink">
 <defs id="defs4199">
  <linearGradient id="linearGradient4078" x1="6.5225" x2="5.3033" y1="428.96" y2="430.68" gradientTransform="translate(327.59 -19.919)" gradientUnits="userSpaceOnUse" spreadMethod="reflect">
   <stop id="stop6635" stop-color="#d3d7cf" offset="0"/>
   <stop id="stop6637" stop-color="#888a85" offset="1"/>
  </linearGradient>
  <linearGradient id="linearGradient4080" x1="138.09" x2="146.77" y1="370.28" y2="382.98" gradientTransform="matrix(.42794 0 0 .42794 33.779 217.07)" gradientUnits="userSpaceOnUse" xlink:href="#linearGradient3689"/>
  <linearGradient id="linearGradient3689">
   <stop id="stop3691" stop-color="#d3d7cf" offset="0"/>
   <stop id="stop3693" offset="1"/>
  </linearGradient>
 </defs>
 <metadata id="metadata4202">
  <rdf:RDF>
   <cc:Work rdf:about="">
    <dc:format>image/svg+xml</dc:format>
    <dc:type rdf:resource="http://purl.org/dc/dcmitype/StillImage"/>
    <dc:title/>
   </cc:Work>
  </rdf:RDF>
 </metadata>
 <g id="layer1" transform="translate(-7.051 -67.075)">
  <g id="g4031" transform="translate(-302.2 -311.16)">
   <path id="path4025" d="m325.25 385.24 0.125-6.5 31 17.5-0.375 6.875-30.75-17.875z" fill="#c17d11" fill-rule="evenodd" stroke="#000" stroke-width=".5"/>
   <path id="path3021" d="m332.44 406.38c-0.22568-4e-3 -0.4584 0.0623-0.71875 0.15625-1.0414 0.37582-1.9062 1.4416-1.9062 2.375 0 0.58338 0.3419 0.97089 0.84375 1.0938l5.5061 3.1708 3.0938-3.0625-6.1624-3.5145-0.0312-0.0312c-0.17775-0.10392-0.38352-0.18305-0.625-0.1875z" fill="url(#linearGradient4078)" stroke="#000" stroke-linecap="round" stroke-linejoin="round" stroke-width=".5"/>
   <path id="path3023" transform="matrix(.65357 -.23586 0 .65357 267.26 192.05)" d="m110.36 374.49c0 1.4289-1.2924 2.5873-2.8866 2.5873s-2.8866-1.1584-2.8866-2.5873c0-1.4289 1.2924-2.5873 2.8866-2.5873s2.8866 1.1584 2.8866 2.5873z" fill="#555753" stroke="#000" stroke-linecap="round" stroke-linejoin="round" stroke-width=".76503"/>
   <g id="g3025" transform="translate(221.69 18.868)">
    <path id="path3027" transform="matrix(-.18314 -.2966 .2966 -.18314 41.282 467.88)" d="m148.59 262c0 4.4415-5.3351 8.042-11.916 8.042-6.5812 0-11.916-3.6005-11.916-8.042 0-4.4414 5.3351-8.042 11.916-8.042 6.5812 0 11.916 3.6005 11.916 8.042z" fill="#c00"/>
    <path id="path3029" d="m92.872 375.53c-0.39582-3e-3 -0.76744 0.091-1.0966 0.29421l-2.2317 1.2838 4.0599 7.2617 2.8123-1.685c1.0475-0.94151 1.0475-2.9964-0.06687-4.801-0.90351-1.4632-2.2896-2.3455-3.477-2.3537z" fill="url(#linearGradient4080)" fill-rule="evenodd" stroke="#000" stroke-width=".21397"/>
    <path id="path3031" transform="matrix(-.18314 -.2966 .2966 -.18314 38.893 469.26)" d="m148.59 262c0 4.4415-5.3351 8.042-11.916 8.042-6.5812 0-11.916-3.6005-11.916-8.042 0-4.4414 5.3351-8.042 11.916-8.042 6.5812 0 11.916 3.6005 11.916 8.042z" fill="#555753" stroke="#000" stroke-linejoin="bevel" stroke-width=".61383"/>
    <path id="path3033" transform="matrix(-.10007 -.16206 .16206 -.10007 62.786 428.93)" d="m148.59 262c0 4.4415-5.3351 8.042-11.916 8.042-6.5812 0-11.916-3.6005-11.916-8.042 0-4.4414 5.3351-8.042 11.916-8.042 6.5812 0 11.916 3.6005 11.916 8.042z" fill="#d3d7cf"/>
   </g>
   <g id="g3035" transform="translate(228.04 22.978)">
    <path id="path3037" transform="matrix(-.18314 -.2966 .2966 -.18314 41.282 467.88)" d="m148.59 262c0 4.4415-5.3351 8.042-11.916 8.042-6.5812 0-11.916-3.6005-11.916-8.042 0-4.4414 5.3351-8.042 11.916-8.042 6.5812 0 11.916 3.6005 11.916 8.042z" fill="#c00"/>
    <path id="path3039" d="m92.872 375.53c-0.39582-3e-3 -0.76744 0.091-1.0966 0.29421l-2.2317 1.2838 4.0599 7.2617 2.8123-1.685c1.0475-0.94151 1.0475-2.9964-0.06687-4.801-0.90351-1.4632-2.2896-2.3455-3.477-2.3537z" fill="url(#linearGradient4080)" fill-rule="evenodd" stroke="#000" stroke-width=".21397"/>
    <path id="path3041" transform="matrix(-.18314 -.2966 .2966 -.18314 38.893 469.26)" d="m148.59 262c0 4.4415-5.3351 8.042-11.916 8.042-6.5812 0-11.916-3.6005-11.916-8.042 0-4.4414 5.3351-8.042 11.916-8.042 6.5812 0 11.916 3.6005 11.916 8.042z" fill="#555753" stroke="#000" stroke-linejoin="bevel" stroke-width=".61383"/>
    <path id="path3043" transform="matrix(-.10007 -.16206 .16206 -.10007 62.786 428.93)" d="m148.59 262c0 4.4415-5.3351 8.042-11.916 8.042-6.5812 0-11.916-3.6005-11.916-8.042 0-4.4414 5.3351-8.042 11.916-8.042 6.5812 0 11.916 3.6005 11.916 8.042z" fill="#d3d7cf"/>
   </g>
   <path id="path3045" d="m325.27 385.42-15.343 8.8583 30.686 17.717 15.343-8.8583-30.686-17.717z" fill="#e9b96e" fill-rule="evenodd" stroke="#000" stroke-linecap="round" stroke-linejoin="bevel" stroke-width=".5"/>
   <g id="g3053" transform="translate(250.84 37.117)">
    <path id="path3055" transform="matrix(-.18314 -.2966 .2966 -.18314 41.282 467.88)" d="m148.59 262c0 4.4415-5.3351 8.042-11.916 8.042-6.5812 0-11.916-3.6005-11.916-8.042 0-4.4414 5.3351-8.042 11.916-8.042 6.5812 0 11.916 3.6005 11.916 8.042z" fill="#c00"/>
    <path id="path3057" d="m92.872 375.53c-0.39582-3e-3 -0.76744 0.091-1.0966 0.29421l-2.2317 1.2838 4.0599 7.2617 2.8123-1.685c1.0475-0.94151 1.0475-2.9964-0.06687-4.801-0.90351-1.4632-2.2896-2.3455-3.477-2.3537z" fill="url(#linearGradient4080)" fill-rule="evenodd" stroke="#000" stroke-width=".21397"/>
    <path id="path3059" transform="matrix(-.18314 -.2966 .2966 -.18314 38.893 469.26)" d="m148.59 262c0 4.4415-5.3351 8.042-11.916 8.042-6.5812 0-11.916-3.6005-11.916-8.042 0-4.4414 5.3351-8.042 11.916-8.042 6.5812 0 11.916 3.6005 11.916 8.042z" fill="#555753" stroke="#000" stroke-linejoin="bevel" stroke-width=".61383"/>
    <path id="path3061" transform="matrix(-.10007 -.16206 .16206 -.10007 62.786 428.93)" d="m148.59 262c0 4.4415-5.3351 8.042-11.916 8.042-6.5812 0-11.916-3.6005-11.916-8.042 0-4.4414 5.3351-8.042 11.916-8.042 6.5812 0 11.916 3.6005 11.916 8.042z" fill="#d3d7cf"/>
   </g>
   <path id="path4027" d="m309.88 386.74 15.375-8.25-0.125 7-15.625 8.75 0.375-7.5z" fill="#8f5902" fill-rule="evenodd" stroke="#000" stroke-linejoin="bevel" stroke-width=".5"/>
   <path id="path3253" d="m309.88 393.74 0.125-6.5 31 17.5-0.375 6.875-30.75-17.875z" fill="#c17d11" fill-rule="evenodd" stroke="#000" stroke-width=".5"/>
   <path id="path4029" d="m341.28 404.85 15.375-8.25-0.125 7-15.625 8.75 0.375-7.5z" fill="#8f5902" fill-rule="evenodd" stroke="#000" stroke-width=".5"/>
   <path id="path3063" d="m345.87 416.09c0.89924 1.4563 1.2122 3.0276 0.96875 4.2812l6 3.4688v-17.719l-9.9688-5.625 0.0671 10.969c0.43258 1.1038 0.41241 2.4355 2.9329 4.625z" fill="#888a85" fill-rule="evenodd" stroke="#000" stroke-linejoin="bevel" stroke-width=".5"/>
   <path id="path3065" d="m368.19 414.97v-17.717l-15.343 8.8583v17.717l15.343-8.8583z" fill="#555753" fill-rule="evenodd" stroke="#000" stroke-linejoin="bevel" stroke-width=".5"/>
   <path id="path3067" d="m368.23 403.94-0.0442-6.6888-15.343 8.8583 0.0442 6.6888 15.343-8.8583z" fill="#729fcf" fill-rule="evenodd" stroke="#000" stroke-linejoin="bevel" stroke-width=".5"/>
   <path id="path3069" d="m351.83 406.79-7.7024-4.3126 0.0942 5.0807 7.5154 5.1461 0.0928-5.9143z" fill="#729fcf" fill-rule="evenodd" stroke="#000" stroke-width=".5"/>
   <path id="path3071" d="m358.34 391.71-15.343 8.8583 9.7965 5.656 15.343-8.8583-9.7965-5.656z" fill="#d3d7cf" fill-rule="evenodd" stroke="#000" stroke-linejoin="bevel" stroke-width=".5"/>
   <g id="g3073" transform="translate(245.48 36.52)">
    <path id="path3075" transform="matrix(.65357 -.23586 0 .65357 40.11 163.75)" d="m110.36 374.49c0 1.4289-1.2924 2.5873-2.8866 2.5873s-2.8866-1.1584-2.8866-2.5873c0-1.4289 1.2924-2.5873 2.8866-2.5873s2.8866 1.1584 2.8866 2.5873z" fill="#d3d7cf"/>
    <path id="path3077" transform="matrix(.43922 -.15851 0 .43922 63.146 235.71)" d="m110.36 374.49c0 1.4289-1.2924 2.5873-2.8866 2.5873s-2.8866-1.1584-2.8866-2.5873c0-1.4289 1.2924-2.5873 2.8866-2.5873s2.8866 1.1584 2.8866 2.5873z" fill="#eeeeec"/>
    <path id="path3079" transform="matrix(.14598 -.052681 0 .14598 94.172 333.89)" d="m110.36 374.49c0 1.4289-1.2924 2.5873-2.8866 2.5873s-2.8866-1.1584-2.8866-2.5873c0-1.4289 1.2924-2.5873 2.8866-2.5873s2.8866 1.1584 2.8866 2.5873z" fill="#fff"/>
   </g>
   <g id="g3081" transform="translate(255.65 30.49)">
    <path id="path3083" transform="matrix(.65357 -.23586 0 .65357 40.11 163.75)" d="m110.36 374.49c0 1.4289-1.2924 2.5873-2.8866 2.5873s-2.8866-1.1584-2.8866-2.5873c0-1.4289 1.2924-2.5873 2.8866-2.5873s2.8866 1.1584 2.8866 2.5873z" fill="#d3d7cf"/>
    <path id="path3085" transform="matrix(.43922 -.15851 0 .43922 63.146 235.71)" d="m110.36 374.49c0 1.4289-1.2924 2.5873-2.8866 2.5873s-2.8866-1.1584-2.8866-2.5873c0-1.4289 1.2924-2.5873 2.8866-2.5873s2.8866 1.1584 2.8866 2.5873z" fill="#eeeeec"/>
    <path id="path3087" transform="matrix(.14598 -.052681 0 .14598 94.172 333.89)" d="m110.36 374.49c0 1.4289-1.2924 2.5873-2.8866 2.5873s-2.8866-1.1584-2.8866-2.5873c0-1.4289 1.2924-2.5873 2.8866-2.5873s2.8866 1.1584 2.8866 2.5873z" fill="#fff"/>
   </g>
   <g id="g3089" transform="matrix(.44276 0 0 .44276 305.73 247.24)">
    <path id="path3091" transform="matrix(.65357 -.23586 0 .65357 40.11 163.75)" d="m110.36 374.49c0 1.4289-1.2924 2.5873-2.8866 2.5873s-2.8866-1.1584-2.8866-2.5873c0-1.4289 1.2924-2.5873 2.8866-2.5873s2.8866 1.1584 2.8866 2.5873z" fill="#d3d7cf"/>
    <path id="path3093" transform="matrix(.43922 -.15851 0 .43922 63.146 235.71)" d="m110.36 374.49c0 1.4289-1.2924 2.5873-2.8866 2.5873s-2.8866-1.1584-2.8866-2.5873c0-1.4289 1.2924-2.5873 2.8866-2.5873s2.8866 1.1584 2.8866 2.5873z" fill="#f57900"/>
    <path id="path3095" transform="matrix(.14598 -.052681 0 .14598 94.172 333.89)" d="m110.36 374.49c0 1.4289-1.2924 2.5873-2.8866 2.5873s-2.8866-1.1584-2.8866-2.5873c0-1.4289 1.2924-2.5873 2.8866-2.5873s2.8866 1.1584 2.8866 2.5873z" fill="#fff"/>
   </g>
   <g id="g3097" transform="matrix(.44276 0 0 .44276 317.9 240.92)">
    <path id="path3099" transform="matrix(.65357 -.23586 0 .65357 40.11 163.75)" d="m110.36 374.49c0 1.4289-1.2924 2.5873-2.8866 2.5873s-2.8866-1.1584-2.8866-2.5873c0-1.4289 1.2924-2.5873 2.8866-2.5873s2.8866 1.1584 2.8866 2.5873z" fill="#d3d7cf"/>
    <path id="path3101" transform="matrix(.43922 -.15851 0 .43922 63.146 235.71)" d="m110.36 374.49c0 1.4289-1.2924 2.5873-2.8866 2.5873s-2.8866-1.1584-2.8866-2.5873c0-1.4289 1.2924-2.5873 2.8866-2.5873s2.8866 1.1584 2.8866 2.5873z" fill="#f57900"/>
    <path id="path3103" transform="matrix(.14598 -.052681 0 .14598 94.172 333.89)" d="m110.36 374.49c0 1.4289-1.2924 2.5873-2.8866 2.5873s-2.8866-1.1584-2.8866-2.5873c0-1.4289 1.2924-2.5873 2.8866-2.5873s2.8866 1.1584 2.8866 2.5873z" fill="#fff"/>
   </g>
   <path id="path3105" d="m357.32 409.81 0.89755-0.45148 5.1048-8.7111-1.6855 0.97314-4.3168 8.1894z" fill="#fff" fill-rule="evenodd"/>
   <path id="path3107" d="m359.28 408.74 0.89755-0.45148 5.1048-8.7111-1.6855 0.97314-4.3168 8.1894z" fill="#fff" fill-rule="evenodd"/>
  </g>
 </g>
</svg>
