<?xml version="1.0" encoding="UTF-8"?>
<!-- Created with Inkscape (http://www.inkscape.org/) -->
<svg id="svg2" width="187.32" height="248.87" version="1.0" xmlns="http://www.w3.org/2000/svg" xmlns:cc="http://creativecommons.org/ns#" xmlns:dc="http://purl.org/dc/elements/1.1/" xmlns:rdf="http://www.w3.org/1999/02/22-rdf-syntax-ns#">
 <metadata id="metadata7">
  <rdf:RDF>
   <cc:Work rdf:about="">
    <dc:format>image/svg+xml</dc:format>
    <dc:type rdf:resource="http://purl.org/dc/dcmitype/StillImage"/>
   </cc:Work>
  </rdf:RDF>
 </metadata>
 <g id="layer2" transform="translate(-41.421 -1.5075)">
  <path id="path2412" d="m116.73 1.9376 76.28 62.575-74.337 137.59" fill="none" stroke="#000" stroke-width=".8603px"/>
  <path id="path2414" d="m117.44 2.3312-75.336 62.84 76.283 136.51" fill="none" stroke="#000" stroke-width=".85677px"/>
  <path id="path2416" d="m41.921 65.142 151.27-0.25254" fill="none" stroke="#000" stroke-width="1px"/>
  <path id="path2418" d="m117.18 2.4989 1.5152 199.03" fill="none" stroke="#000" stroke-width=".965"/>
  <path id="path3210" d="m118.69 200.5c-0.01513 5.3144 3.9339 11.026 9.0914 15.152 7.226 5.7808 17.855 8.3782 26.769 10.607 9.8465 2.4616 19.312 2.0442 29.294 4.0406 18.049 3.6099 21.142 2.1939 38.386 9.0914" fill="none" stroke="#000" stroke-width="1px"/>
  <path id="path3212" transform="translate(107.08 232.34)" d="m27.779-27.287-5.9462 1.9665-5.9727 1.8844 1.27-6.1328 1.3544-6.1147 4.6761 4.1663 4.6183 4.2303z" fill="#f00" stroke="#2e6a00" stroke-linejoin="round" stroke-width="1.465"/>
  <path id="path3214" transform="matrix(.63717 .77072 -.77072 .63717 83.018 218.18)" d="m27.779-27.287-5.9462 1.9665-5.9727 1.8844 1.27-6.1328 1.3544-6.1147 4.6761 4.1663 4.6183 4.2303z" fill="#f00" stroke="#2e6a00" stroke-linejoin="round" stroke-width="1.465"/>
  <path id="path3216" transform="translate(121.22 243.95)" d="m27.779-27.287-5.9462 1.9665-5.9727 1.8844 1.27-6.1328 1.3544-6.1147 4.6761 4.1663 4.6183 4.2303z" fill="#008080" stroke="#2e6a00" stroke-linejoin="round" stroke-width="1.465"/>
  <path id="path3218" transform="matrix(.63717 .77072 -.77072 .63717 97.16 229.79)" d="m27.779-27.287-5.9462 1.9665-5.9727 1.8844 1.27-6.1328 1.3544-6.1147 4.6761 4.1663 4.6183 4.2303z" fill="#008080" stroke="#2e6a00" stroke-linejoin="round" stroke-width="1.465"/>
  <path id="path3222" transform="matrix(.96934 -.24574 .24574 .96934 145.58 252.23)" d="m27.779-27.287-5.9462 1.9665-5.9727 1.8844 1.27-6.1328 1.3544-6.1147 4.6761 4.1663 4.6183 4.2303z" fill="#00f" stroke="#2e6a00" stroke-linejoin="round" stroke-width="1.465"/>
  <path id="path3224" transform="matrix(.80703 .59051 -.59051 .80703 118.78 244.42)" d="m27.779-27.287-5.9462 1.9665-5.9727 1.8844 1.27-6.1328 1.3544-6.1147 4.6761 4.1663 4.6183 4.2303z" fill="#00f" stroke="#2e6a00" stroke-linejoin="round" stroke-width="1.465"/>
  <path id="path3226" transform="matrix(.95511 -.29626 .29626 .95511 167.02 255.6)" d="m27.779-27.287-5.9462 1.9665-5.9727 1.8844 1.27-6.1328 1.3544-6.1147 4.6761 4.1663 4.6183 4.2303z" fill="#ff0" stroke="#d83900" stroke-linejoin="round" stroke-width="1.465"/>
  <path id="path3228" transform="matrix(.8369 .54735 -.54735 .8369 139.85 249.21)" d="m27.779-27.287-5.9462 1.9665-5.9727 1.8844 1.27-6.1328 1.3544-6.1147 4.6761 4.1663 4.6183 4.2303z" fill="#ff0" stroke="#d83900" stroke-linejoin="round" stroke-width="1.465"/>
  <path id="path3230" transform="matrix(.98326 -.18223 .18223 .98326 183.4 258.16)" d="m27.779-27.287-5.9462 1.9665-5.9727 1.8844 1.27-6.1328 1.3544-6.1147 4.6761 4.1663 4.6183 4.2303z" fill="#f00" stroke="#2e6a00" stroke-linejoin="round" stroke-width="1.465"/>
  <path id="path3232" transform="matrix(.76695 .6417 -.6417 .76695 157.16 248.62)" d="m27.779-27.287-5.9462 1.9665-5.9727 1.8844 1.27-6.1328 1.3544-6.1147 4.6761 4.1663 4.6183 4.2303z" fill="#f00" stroke="#2e6a00" stroke-linejoin="round" stroke-width="1.465"/>
  <path id="path3234" transform="translate(200.23 259.78)" d="m27.779-27.287-5.9462 1.9665-5.9727 1.8844 1.27-6.1328 1.3544-6.1147 4.6761 4.1663 4.6183 4.2303z" fill="#008080" stroke="#2e6a00" stroke-linejoin="round" stroke-width="1.465"/>
  <path id="path3236" transform="matrix(.63717 .77072 -.77072 .63717 176.17 245.62)" d="m27.779-27.287-5.9462 1.9665-5.9727 1.8844 1.27-6.1328 1.3544-6.1147 4.6761 4.1663 4.6183 4.2303z" fill="#008080" stroke="#2e6a00" stroke-linejoin="round" stroke-width="1.465"/>
  <path id="path3171" d="m44.289 64.103c2.5046-2.1975 72.159-60.191 72.219-60.129 0.12445 0.13004 0.5707 60.172 0.44826 60.313-0.06035 0.069448-16.55 0.1572-36.644 0.19501-34.989 0.065831-36.512 0.04981-36.024-0.37881l-3e-6 2e-6z" fill="#f00" stroke-width="0pt"/>
  <path id="path3173" d="m118.03 34.929c-0.1002-16.147-0.14251-29.774-0.09402-30.284l0.08817-0.92621 36.606 30.032c20.133 16.518 36.719 30.145 36.858 30.284 0.16748 0.16748-12.067 0.25188-36.512 0.25188h-36.764l-0.18219-29.358z" fill="#ff0" stroke-width="0pt"/>
  <path id="path3175" d="m80.584 132.9-37.424-66.973 36.907-0.18882c20.299-0.10385 36.93-0.16067 36.958-0.12627 0.06175 0.075807 1.087 134.14 1.0264 134.21-0.02348 0.02765-16.884-30.088-37.467-66.923l3e-6 1e-5z" fill="#00f" stroke-width="0pt"/>
  <path id="path3177" d="m119.17 191.19c-0.00721-7.3444-0.57233-86.935-0.83155-117.11l-0.07321-8.5232h36.713c34.416 0 36.703 0.026792 36.548 0.42833-0.09039 0.23558-16.224 30.152-35.852 66.481-19.628 36.329-35.869 66.393-36.092 66.81-0.37757 0.70753-0.40488 0.17324-0.41299-8.0812z" fill="#0f0" stroke-width="0pt"/>
 </g>
</svg>
