<?xml version="1.0" encoding="UTF-8"?>
<!DOCTYPE svg  PUBLIC '-//W3C//DTD SVG 20010904//EN'  'http://www.w3.org/TR/2001/REC-SVG-20010904/DTD/svg10.dtd'>
<!-- Created with Inkscape (http://www.inkscape.org/) -->
<svg id="svg1" width="160pt" height="160pt" xmlns="http://www.w3.org/2000/svg" xmlns:cc="http://web.resource.org/cc/" xmlns:dc="http://purl.org/dc/elements/1.1/" xmlns:rdf="http://www.w3.org/1999/02/22-rdf-syntax-ns#" xmlns:xlink="http://www.w3.org/1999/xlink">
 <metadata>
  <rdf:RDF xmlns:cc="http://web.resource.org/cc/" xmlns:dc="http://purl.org/dc/elements/1.1/" xmlns:rdf="http://www.w3.org/1999/02/22-rdf-syntax-ns#">
   <cc:Work rdf:about="">
    <dc:title>knitting</dc:title>
    <dc:description/>
    <dc:subject>
     <rdf:Bag>
      <rdf:li/>
      <rdf:li>recreation</rdf:li>
     </rdf:Bag>
    </dc:subject>
    <dc:publisher>
     <cc:Agent rdf:about="http://www.openclipart.org">
      <dc:title>Nicu Buculei</dc:title>
     </cc:Agent>
    </dc:publisher>
    <dc:creator>
     <cc:Agent>
      <dc:title>Nicu Buculei</dc:title>
     </cc:Agent>
    </dc:creator>
    <dc:rights>
     <cc:Agent>
      <dc:title>Nicu Buculei</dc:title>
     </cc:Agent>
    </dc:rights>
    <dc:date/>
    <dc:format>image/svg+xml</dc:format>
    <dc:type rdf:resource="http://purl.org/dc/dcmitype/StillImage"/>
    <cc:license rdf:resource="http://web.resource.org/cc/PublicDomain"/>
    <dc:language>en</dc:language>
   </cc:Work>
   <cc:License rdf:about="http://web.resource.org/cc/PublicDomain">
    <cc:permits rdf:resource="http://web.resource.org/cc/Reproduction"/>
    <cc:permits rdf:resource="http://web.resource.org/cc/Distribution"/>
    <cc:permits rdf:resource="http://web.resource.org/cc/DerivativeWorks"/>
   </cc:License>
  </rdf:RDF>
 </metadata>
 <defs id="defs3">
  <radialGradient id="radialGradient1841" cx=".66355" cy=".29798" r=".32279" fx=".65888">
   <stop id="stop1839" stop-color="#fff" stop-opacity=".42135" offset="0"/>
   <stop id="stop1840" stop-color="#fff" stop-opacity="0" offset="1"/>
  </radialGradient>
 </defs>
 <path id="path3697" d="m51.356 150.24 3.9119 0.05929 9.1519-1.5154c3.6631-1.0094 7.3262-0.7687 10.989-0.91867l4.9087 0.90926 5.9271-0.75301c4.0496-0.42388 7.1618-1.3165 10.743-1.9748l8.6615-3.8902 7.4115-9.7487 4.84-11.517 3.4121-11.839c0.03545-2.3528-0.5541-4.4713-1.2999-7.0585l-3.0214-8.3801-8.7895-21.519-2.6496-6.4524-7.0491-5.6711-9.0926-2.4247-9.0926-0.60617-9.6988-2.7278-11.558-0.97797-9.6583 3.0996-2.7278 2.1216-9.1801 4.3995-6.0429 7.9301-7.5085 8.5834-5.7586 11.517-1.5154 6.971 0.90926 8.4864 3.637 13.336 4.8494 12.123 3.9401 7.2741 6.0617 2.7278 7.5772 4.8494 7.7118 3.5872z" fill="#8c4f61" fill-rule="evenodd"/>
 <path id="path1209" d="m60.625 169.69 1.875-8.125-1.25-36.562-4.0625 6.5625v7.5 13.75l1.25 10.625 2.1875 6.25z" fill="#ffae00" fill-rule="evenodd"/>
 <path id="path1831" d="m97.812 165.94-13.438-19.375-9.375-13.438-4.0625-3.75-6.5625-9.375-2.8125 4.0625 5.625 6.875 9.6875 12.812 7.5 9.375 3.4375 4.0625 6.25 7.8125 3.75 0.9375z" fill="#ffae00" fill-rule="evenodd"/>
 <path id="path2453" d="m57.586 102.71 1.5154-0.60617-0.90926-13.033-0.90926-13.942-1.5154-12.123-1.8185-17.882 1.5154-2.1216-4.5463-1.2123-3.0309 2.1216 1.8185 1.8185 1.2123 3.0309 1.5154 20.004 0.30309 6.6679 0.60617 5.7586 1.2123 10.002 1.2123 10.002 1.8185 1.5154z" fill="#ffae00" fill-rule="evenodd"/>
 <path id="path3075" d="m48.191 102.41 3.334 0.30309-1.2123-3.637-8.4864-9.3957-14.548-16.064-15.154-18.488-0.60617-2.4247-4.5463 2.1216-0.60617 2.1216 3.0309 0.90926 13.336 15.154 14.245 16.064 11.214 11.82v1.5154z" fill="#ffae00" fill-rule="evenodd"/>
 <path id="path4319" d="m107.83 141.24 21.854-0.82469 17.731-0.82469 27.126-0.00648 6.4283-3.1555 5.6189-2.4047 7.1943-3.6395-2.383 0.33422-12.646 3.5114-19.174 2.8864-16.288 1.6494-11.752 0.61852-10.309-0.61852-11.546 0.20617-1.6494-0.20617-0.20617 2.4741z" fill="#8c4f61" fill-rule="evenodd"/>
 <path id="path4941" d="m169.06 122.27-6.5975 0.20617-6.8037-0.41235-4.9482-1.4432-2.2679-2.0617 2.0617-3.9173 4.9482-2.0617 8.4531-1.0309 1.6494 0.82469-4.9482 2.2679-1.0309 1.6494 0.82469 1.6494 3.9173 2.6802 4.742 1.6494z" fill="#8c4f61" fill-rule="evenodd"/>
 <path id="path1194" d="m54.085 41.354c-4.5595-0.83175-9.4196 2.8961-4.4276 5.5766 4.9897 10.702-5.6837 12.304-12.727 16.105-1.9156 4.9844-13.074 12.056-3.4967 10.977 9.7201 2.4483 14.381 6.0718 17.516 15.19 6.0831 1.33 0.70668 8.6987-1.6539 7.8144-4.592-5.3941-1.2736-1.0407 1.7573-1.1366-7.8277-1.6134-13.544-17.551-12.879-17.399-0.54532 3.8742 4.6628 12.014-0.69318 5.1113-8.2465-9.6374-17.396-18.625-24.761-28.942 1.0558-7.8198-13.256 5.2638-3.6448 3.5629 5.4287 6.0991 11.599 12.841 16.569 18.542-6.9505 9.3307-12.29 21.628-7.517 33.143 3.4282 10.273 5.5612 21.714 12.446 30.276 8.8658 1.5138 15.326 12.377 25.273 9.9601-12.725 1.9079-5.5636-15.409-2.1074-22.288 5.4296-10.622 12.816-20.207 21.248-28.614-7.0934 4.4321-13.339 14.686-18.55 22.333-5.704 7.5459-7.9458 20.311-9.4924 26.543-7.6517-4.3642 0.010927-17.402 2.8827-24.457 5.6765-10.652 13.031-20.422 21.535-28.975-6.2704 3.7857-11.843 12.906-16.76 19.565-6.0958 9.4993-12.034 20.211-11.24 31.879-8.9572-5.4175-2.4912-19.256 0.65737-27.2 3.1048-4.9986 8.321-15.54 12.047-16.181 6.4154 3.7183 1.054-8.1791 7.6903-9.164 8.5408-9.1313-5.8077 6.4374-4.4961 1.3157-0.29648-5.1123-2.8533-14.916 4.3416-7.2648 9.3965 7.338 19.372 17.495 18.071 30.42-0.50722 6.5835 2.1916 22.36-0.36368 22.825-2.9361-4.6763-9.797-9.527-0.57643-6.7871 3.6306-1.4066-9.3292 0.10315-8.6478-5.1102-4.6351-5.2024-10.313-10.501-2.008-15.431 2.9873-7.2879 7.0899 5.4618 11.194 1.7826-7.2827-0.05942-8.7663-6.708-3.8453-9.7576-10.697 9.4264-20.59 20.934-24.132 35.236-1.5582 3.4402 0.49004 13.729 0.13458 4.0005-0.023579-4.9738 5.1183-19.135 3.5609-6.7228-0.061809 10.542-0.91266 21.369 2.7825 31.447 1.5565 8.2743 3.5262-7.3557 3.2154-10.073 0.74735-5.612-2.7906-18.981 0.51506-19.466-2.1458 3.349 2.9784 12.391 0.30341 3.763 0.44017-7.0215 9.8377 6.7643 15.839 3.8934-1.0964 0.54519-19.279-0.52345-15.645 1.4221 9.6366-2.6962 19.619-0.38129 24.012 9.2156 1.8912 4.3715 15.631 15.004 8.4247 3.7807-2.4045-8.2422-13.181-14.2-13.374-21.766-0.90425-10.777 0.29688-21.835-1.8284-32.442-4.3057-10.434-13.155-18.742-22.815-24.24-1.1273-4.2629-1.7259-11.721 4.7926-5.8909 11.624 7.9697 21.505 19.923 24.856 33.792 1.1321 11.486 2.1221 23.496-1.1597 34.702 1.7501 0.87341 3.2615-13.428 2.8506-18.233 0.096524-10.887-0.56352-22.402-7.4222-31.444-6.232-9.1109-13.948-18.439-24.73-22.106-0.85069-9.9971-1.7502-19.99-2.6594-29.982 2.3837-1.06 1.5436-3.3906-0.86389-3.0998zm-1.6431 0.85722c7.0714 0.64252-8.3129 5.2991-1.683 0.098497l1.683-0.098497zm1.5887 3.5983c1.6221 19.116 3.686 37.046 4.6413 56.206-5.7609 1.3772-2.7948-11.215-4.5509-15.327-0.5951-5.2804-2.1522-20.613-1.9762-20.309 1.3864 11.787 2.7728 23.575 4.1593 35.362 1.4106-1.929 0.023061-6.5074 0.16063-9.4339-1.924-15.183-3.3676-30.953-5.5908-45.77-0.37412-1.2453 2.3285 0.61329 3.1568-0.72782zm-42.781 7.5614c1.4694 3.772-8.7796 5.3524-1.9963 0.26137 0.39464-0.20444 1.5797-0.18431 1.9963-0.26137zm50.424-0.41376c-4.3375-0.78317-8.2731 2.5051-1.6092 0.71144 6.9836 5.439 16.166 9.0331 23.322 14.889 12.226 11.422 23.621 25.351 27.339 42.02 0.13092 8.6438 4.4528 19.295-1.4374 26.333-1.6074 3.2273-8.5754 9.7678-4.8097 2.6894 2.0185-10.032 1.5262-20.646-0.8135-30.568-6.6046-15.843-16.544-30.834-30.021-41.634-4.8824-1.7993-14.868-7.8188-16.527-7.9868 6.4475 6.0209 15.98 6.0615 21.647 13.19 10.709 11.219 20.223 24.366 24.944 39.247 1.27 10.358 3.0064 21.765-1.5907 31.504-11.446 7.8473-3.8015-11.596-5.1268-18.041 0.83783-14.745-5.7842-28.722-15.701-39.331-6.4721-6.7445-15.059-16.283-23.748-17.389 14.754 6.1104 25.801 19.156 33.66 32.699 7.4413 13.38 4.6921 29.095 3.9402 43.596 0.54153 2.8479-14.332 3.1116-4.5496 2.8939 8.3975 0.54482 13.448-6.4282 20.313-5.8616 15.389-0.90507 30.878-2.4388 46.306-1.5409 7.769-0.94041 17.784 2.4512 23.87-3.5632 4.0708-2.9727 16.677-3.2885 13.337-11.116-9.7139-8.8778-24.518 0.84469-34.191-8.5476 1.4169-7.6567 15.021-3.3366 21.645-3.3075 4.2896 0.63743 18.006 2.5345 6.5084-0.34493-4.4452-0.78846-10.56-1.3216-2.8173-0.89419 6.8212-0.81253-10.34-1.5517-12.69-1.5264-8.1957 0.83058-22.628-1.9924-25.452 7.8729 6.8963 6.2535 17.877 3 26.457 3.6307 5.7399 0.0357 21.359-1.7337 17.805 7.2281-14.526 6.0962-29.576 6.3517-45.031 8.2925-12.317 1.3509-26.082 0.91448-38.436 0.87499 5.5538 2.3155 21.041-0.31861 22.734 0.54987-7.0665-0.05521-19.922 2.6466-22.969 0.4163 7.5666-8.6544 10.42-19.822 13.609-30.597-1.8937-12.972-8.1522-25.007-13.009-37.113-2.3618-9.1418-10.537-15.083-19.934-14.944-8.4118 0.42342-16.337-3.729-24.769-4.1404l-2.2013-0.19172zm-0.033879 0.67756c6.924 2.0433 19.891-0.72928 20.181 9.346 1.1416 8.6778-1.0501-7.538 0.14673-5.4717 5.7609 0.60105 18.862 1.008 18.304 5.1566-4.4356-0.17724-19.362 11.931-8.8072 4.8115 6.766-4.876 13.952-6.7456 15.781 3.4862 3.0939 8.6693 11.132 21.908 9.837 28.408-4.9963-0.44922-9.5079-4.9135-12.857-6.879 4.8838 7.8464 18.426 5.0394 16.719 16.634-2.1694 6.4046-5.5588 20.497-8.1646 21.614 0.01694-9.4592-0.29684-19.271-3.6419-28.22 1.3024 4.319 18.005 8.6868 7.0009 4.245-8.4542-2.3822-9.1499-11.089-14.127-17.488-8.0362-6.4719 7.1555-6.2799 8.007-11.047-5.9693 4.9278-12.954 8.4517-16.522-0.37225-6.3459-7.6893-14.078-14.415-23.34-18.137-2.6757-1.9215-6.8981-5.3909-8.5166-6.0864zm-49.377 2.1923c12.019 15.963 26.56 29.797 38.899 45.515-0.058719 3.0919-4.8291-3.3096-6.8054-4.7855-7.9028-8.8134-15.806-17.627-23.708-26.44 9.7512 10.604 19.502 21.208 29.254 31.811 0.033802-2.3681-3.6834-5.0865-5.2816-7.5316-11.348-12.337-22.987-24.528-34.335-36.865-2.244 1.2429 1.7526-1.2371 1.9782-1.7036zm38.299 1.0938c-0.57896 6.3311 5.5679 20.386-4.7531 13.979-3.8014 0.24681-14.301-8.8407-6.6422-1.7563 6.7517 2.8926 15.966 3.0506 13.772 12.829 0.23293 3.9422 2.7291 13.313-2.1579 5.9282-4.001-5.94-4.4038-9.0801 2.0341-6.8751-6.6369-2.6028-18.325-6.4809-21.273-9.3227 3.8247-8.7473 10.731-10.444 19.021-14.781zm45.075 2.4223c-3.3855-0.39959-13.936 6.4562-11.705 6.4776 3.0252-3.3072 8.8854-4.4431 11.705-6.4776zm-51.833 1.3212c-0.4835 3.8543 13.198 7.3742 3.1154 2.7232-1.1555-0.75252-2.3057-1.5843-3.1154-2.7232zm61.031 6.6909c-3.7454-0.18302-14.831 5.8246-12.958 6.2335 3.5855-3.1774 9.68-4.2142 12.958-6.2335zm2.4731 5.6576c-5.0379 0.88888-17.95 11.08-6.3017 3.735 1.2067-1.5089 6.471-2.0441 6.3017-3.735zm-81.171 4.2347c4.846 4.7211 1.8858 13.775 8.1851 18.903 1.6435 3.3973 15.914 14.658 6.8698 6.1776-6.1773-4.1134-13.378-16.794-11.352-20.969 3.6245 3.2024 5.1786 6.9019 7.5567 10.907 3.885 5.6584 15.758 8.6045 6.1576 15.397-5.1757 6.7904-6.315 16.291-15.663 18.667-8.337 3.5576 8.3431-1.2784 8.6123-5.1262-4.1518 5.0758 0.21838 18.282-5.0309 18.531-6.4124-6.235-7.9077-16.312-11.083-24.555-3.269-6.9382-4.6244-21.7-1.3263-23.832-0.55683 11.716 8.6358 20.282 17.169 26.841-4.79-6.1332-15.265-12.264-16.131-22.161-2.9258-4.664 3.081-16.122 3.994-14.147-2.0896 11.265 4.2773 22.122 13.442 28.292 7.8571 5.469-5.6557-5.2897-6.9983-7.3975-6.0902-6.3107-7.1337-17.12-5.2001-24.268l0.79764-1.2596zm74.65 6.9788c-0.50988 4.656 16.212 10.039 13.598 8.0242-5.1118-1.2888-10.183-3.9376-13.598-8.0242zm-39.807 1.8125c-4.7598 3.7394 0.15742 2.9361 0 0zm-25.612 1.5076c3.3709 3.7548 6.7417 7.5096 10.113 11.264-3.8982-3.2256-8.1183-6.4334-10.113-11.264zm18.853 5.5729c4.2024 8.5212-4.1578 13.136-7.7819 20.157-5.6422 8.787-8.9826 19.327-7.8188 29.83-9.018-5.871-1.974-20.381 1.5414-28.661 3.6926-4.9287 5.6776-13.188 11.552-11.451 0.018912-4.141-1.7642-6.2651 2.507-9.8754zm109.8 19.26c-10.283 0.58157-3.3933 9.7959 3.2862 9.5366-5.2586 0.52326-24.986 0.48662-15.458-7.6939 3.9492-1.9683 7.8665-1.6933 12.172-1.8427zm-93.791 1.7786c-1.7191 5.8497 18.564 9.5138 5.6576 5.4882-2.2744-1.3661-4.1487-3.3232-5.6576-5.4882zm-38.011 0.98246c-2.9153 2.1241-17.279 1.625-6.5215 2.2021 1.1586-0.18581 7.6638-0.30396 6.5215-2.2021zm33.725 3.8282c1.6284 4.3268 10.788 9.7774 15.398 9.2487-5.8502-1.4919-11.376-4.7346-15.398-9.2487zm-1.5584 2.5045c10.374 13.418 20.667 25.439 29.829 39.718 2.4398 4.4405 5.2557 8.3008 0.058601 2.6764-0.53498-2.5353-4.0267-6.0653-5.7033-8.7595-8.2962-10.741-17.175-21.045-25.472-31.786-0.1727 2.3744 3.9782 5.7211 5.3724 8.2961 7.9751 10.333 15.804 20.229 23.78 30.562-10.626-12.519-20.221-25.528-30.033-38.79 0.70983-1.0353 1.3292-0.97493 2.1682-1.9166zm-2.5747 2.5264c2.9052 4.6655 12.304 14.988 10.948 15.808-6.3114-4.2492-13.248-7.301-10.948-15.808zm-1.0538 2.1585c-0.1315 13.557 1.7857 26.599 0.64009 40.106-1.4278 9.1111-4.3049-11.946-3.5239-16.796 0.003372-4.1709-0.31791-19.032 0.22673-17.337 0.090761 9.6209 0.32731 20.846 0.41808 30.466 1.5987-1.7882 0.43078-7.9887 0.87929-10.888-0.071685-7.5112 0.00241-15.751-0.069275-23.263 0.66869-1.2158 0.5949-1.1836 1.429-2.2892zm133.74 1.1108c0.33615 1.6323 0.0812 1.2254 0 0zm-1.5245 3.4047c-6.4732 2.7242-12.381 5.7558-18.603 8.4511-9.7785 0.41927-19.57 0.05955-29.351-0.08325 16.004-1.8608 32.882-2.2322 47.954-8.3678zm-131.09 1.2027c3.4795 6.1043 18.282 10.494 15.277 14.925-6.5826-2.2389-17.474-6.2754-15.277-14.925z" fill-rule="evenodd"/>
 <path id="path1216" d="m51.307 150.14 3.9119 0.05929 9.1519-1.5154c3.6631-1.0094 7.3262-0.7687 10.989-0.91867l4.9087 0.90926 5.9271-0.75301c4.0496-0.42388 7.1618-1.3165 10.743-1.9748l8.6615-3.8902 7.4115-9.7487 4.84-11.517 3.4121-11.839c0.03545-2.3528-0.5541-4.4713-1.2999-7.0585l-3.0214-8.3801-8.7895-21.519-2.6496-6.4524-7.0491-5.6711-9.0926-2.4247-9.0926-0.60617-9.6988-2.7278-11.558-0.97797-9.6583 3.0996-2.7278 2.1216-9.1801 4.3995-6.0429 7.9301-7.5085 8.5834-5.7586 11.517-1.5154 6.971 0.90926 8.4864 3.637 13.336 4.8494 12.123 3.9401 7.2741 6.0617 2.7278 7.5772 4.8494 7.7118 3.5872z" fill="url(#radialGradient1841)" fill-rule="evenodd"/>
</svg>
