<?xml version="1.0" encoding="UTF-8"?>
<!-- Created with Inkscape (http://www.inkscape.org/) -->
<svg id="svg2" width="300" height="208.44" version="1.0" xmlns="http://www.w3.org/2000/svg" xmlns:cc="http://creativecommons.org/ns#" xmlns:dc="http://purl.org/dc/elements/1.1/" xmlns:rdf="http://www.w3.org/1999/02/22-rdf-syntax-ns#">
 <metadata id="metadata16">
  <rdf:RDF>
   <cc:Work rdf:about="">
    <dc:format>image/svg+xml</dc:format>
    <dc:type rdf:resource="http://purl.org/dc/dcmitype/StillImage"/>
   </cc:Work>
  </rdf:RDF>
 </metadata>
 <g id="g2400">
  <path id="path1309" d="m164.61 3.2145c-20.54 5.653-41.593 16.895-56.403 27.78-14.81 10.885-53.497 38.313-62.33 47.004-8.5636 8.4267-18.679 11.366-23.105 21.75-1.707 4.0045 11.575 16.084 14.178 17.338 6.7547 3.2547 17.765-2.5164 22.789-2.8611 16.305-1.1186 33.014-3.2882 49.528 7.8888-3.0557 3.0849 1.7966-0.23628-4.4497 26.82-2.2027 9.5412-7.016 34.295-1.1016 39.017 5.8763 4.6923 9.4652-13.6 15.303-10.799-0.00292 0.00436-0.00123 0.0154-0.00332 0.01931-0.00127 0.00352-0.00285 0.01624-0.00331 0.01932 3.4e-4 0.00267-0.00447 0.01705-0.00333 0.01931 0.00197 0.00186 0.01542 0.00207 0.01818 0.00353 0.01776 0.00529 0.05675 0.00266 0.09413-0.00169 0.01098 0.00528 0.02532 0.00175 0.03633 0.00705 0.04127 0.01984 0.07887 0.04323 0.12052 0.06329l0.03474-0.09303c2.7639-0.71432 24.313-10.208 43.985-6.3905 11.089 2.152 28.776-3.8809 38.951-7.028 16.136-4.9908 38.789-9.501 53.159-9.7585 10.586-0.1897 20.164-6.1829 30.349-6.8816 6.0085-0.4122 0.43725-19.783 0.31306-21.83-0.59687-9.8347-12.839-24.947-19.144-38.377-6.305-13.43-16.871-30.478-28.509-43.846-11.638-13.368-27.338-30.678-38.392-36.005-11.054-5.3264-13.123-9.9958-35.414-3.8605z" fill="#008000" fill-rule="evenodd" stroke="#000" stroke-width=".60923px"/>
  <path id="path5882" d="m115.53 50.404c-13.327 3.2282-24.74 45.823-41.165 53.228-10.743 4.843-40.018 12.201-37.415 13.455 6.7547 3.2547 17.765-2.5164 22.789-2.8611 16.305-1.1186 33.014-3.2882 49.528 7.8888-3.0557 3.0849 1.7966-0.23628-4.4497 26.82-2.2027 9.5412-7.016 34.295-1.1016 39.017 5.8763 4.6923 9.4652-13.6 15.303-10.799-0.00292 0.00436-0.00123 0.0154-0.00332 0.01931-0.00127 0.00352-0.00285 0.01624-0.00331 0.01932 3.4e-4 0.00267-0.00447 0.01705-0.00333 0.01931 0.00197 0.00186 0.01542 0.00207 0.01818 0.00353 0.01776 0.00529 0.05675 0.00266 0.09413-0.00169 0.01098 0.00528 0.02532 0.00175 0.03633 0.00705 0.04127 0.01984 0.07887 0.04323 0.12052 0.06329l0.03474-0.09303c2.7639-0.71432 24.313-10.208 43.985-6.3905 11.089 2.152 28.776-3.8809 38.951-7.028 16.136-4.9908 38.789-9.501 53.159-9.7585 10.586-0.1897 20.164-6.1829 30.349-6.8816 6.0085-0.4122-37.34 3.3043-20.064-9.192 7.664-5.5436-76.736 11.554-109.14-25.419-32.084-36.611-27.377-65.422-41.025-62.117z" fill="#0e0000" fill-rule="evenodd" opacity=".10112"/>
  <path id="path5878" d="m24.136 95.201c2.5955 1.7198 20.026 23.768 22.085 22.225 0.24894-2.4346-1.7839-3.393-3.214-3.671 1.9148-2.4335 2.2757-4.978-1.0471-5.1967-3.684-0.6505-7.7059-1.1069-3.7515-5.0697 1.8258-2.2211-0.12276-6.1654-1.2438-8.1718-2.9453-1.5908-5.1647-4.4692-6.372-6.4258" fill-rule="evenodd" opacity=".26966" stroke="#000" stroke-width=".60679"/>
  <path id="path5003" d="m260.72 142.68c-5.4463-1.9316-12.28-4.1625-17.096-3.8647-3.3075-2.794-5.8462 0.64897-8.7119 1.5653-0.48093-5.3794-8.4135 2.2749-11.908 2.3189-2.4812 1.4241-0.77099-4.2398-5.2141-2.0854-5.524 0.52188-8.941 0.90142-13.039 2.6756-0.98432 5.8568-9.8303 9.1561-11.154 2.7368-4.8231 2.0988-13.792 6.1699-13.85-0.469-7.7218 5.9892-7.9674 11.401-15.506 14.292 0.66705-5.1839-16.351-7.973-18.671-2.5325-4.6704 1.8807 0.97152-6.813-5.7777-4.4238-7.6021-2.2102-3.1774 13.109-18.678 6.8459-8.6306-0.27763-3.8511 12.221-9.5468 17.456-1.5175 5.5056-8.1013-1.918-10.766-1.5058 0.61979 8.7175 2.4908 5.7614 0.52572 11.692-1.1725 7.4302-2.7419 11.151 5.4321 12.698 2.6468-3.5842-0.13306-2.0678 0.45897 4.5445 4.7201-1.374 10.925-9.239 10.288-1.1559 3.203-4.8777 13.343-7.42 13.215-12.674 5.1325 0.53876 10.893 6.271 15.225-0.69657 4.3496-5.1466 10.602-7.5336 10.667-3.5586 5.2874 4.9385 5.8162 3.9377 11.313 2.6809-1.416-6.3676 12.864-0.43752 5.3232-6.777 2.995-2.9993 11.101-4.7521 15.785-3.7098 4.144 6.0332 16.771 6.5325 18.735-1.277 0.41223-6.143 10.001-8.244 13.586-3.9969 6.2346-5.4664 16.069 2.4768 21.434-1.7134-4.8224-6.2589 6.8155-10.349 8.9889-5.55 4.2699-2.2927 8.2435-10.542 12.914-4.6362 5.3722-1.7508 11.932-4.185 16.477-6.0096 3.411 5.6232 12.241-0.16161 8.4134-6.9674-2.0721-4.8612 6.8048 2.3934 4.3881-3.7743-2.749-6.6346-6.6096-15.855-11.34-15.55-6.4413-1.6094-10.261 2.7373-10.528 8.8884-0.08145-4.4888-7.6911-0.11328-11.683 1.5144l-2.1883 0.52062-2.6145-1.8441" fill-rule="evenodd" opacity=".29404" stroke="#000" stroke-width=".4396px"/>
  <path id="path1307" d="m264.32 144.32c-5.4464-1.9316-10.493-2.2031-15.309-1.9053-3.3074-2.794-7.2325-1.8777-10.098-0.96133-0.48093-5.3794-7.0272 4.8015-10.521 4.8455-2.4812 1.4241-0.77099-4.2398-5.2141-2.0854-5.524 0.52188-11.928-2.9034-16.026-1.1293-0.98432 5.8568-9.8303 9.1561-11.154 2.7368-4.8231 2.0988-10.805 9.9748-10.863 3.3359-9.0522-0.39682-12.93 8.5031-20.469 11.394 0.66706-5.1839-11.389-5.0748-13.708 0.36575-4.6704 1.8807-1.242-9.8227-7.9912-7.4335-7.6021-2.2102-7.3946 12.936-16.464 9.8556-8.6306-0.27763-7.4252 8.3019-13.121 13.537-1.5175 5.5056-4.5272 2.0008-7.192 2.413 4.385 6.223-13.444 4.9268-8.151 14.524-1.1725 7.4302 0.6202 12.771 8.7942 14.318 2.6469-3.5842 5.1815-6.5193 5.7736 0.09307 4.7201-1.374 10.925-9.239 10.288-1.1559 3.203-4.8777 13.343-7.42 13.215-12.674 5.1325 0.53877 10.893 6.271 15.225-0.69657 4.3496-5.1466 5.0679-0.94731 5.1336 3.0277 5.2874 4.9385 11.35-2.6486 16.847-3.9054-1.416-6.3676 12.864-0.43752 5.3232-6.777 2.995-2.9993 11.101-4.7521 15.785-3.7098 4.1102 3.8989 16.771 6.5325 18.735-1.277 0.41223-6.143 10.001-8.244 13.586-3.9969 6.2346-5.4663 16.069 2.4768 21.434-1.7134-4.8224-6.2589 6.8155-10.349 8.9889-5.5499 4.2699-2.2927 8.2435-10.542 12.914-4.6362 5.3722-1.7507 11.932-4.185 16.477-6.0096 3.411 5.6232 12.241-0.16161 8.4134-6.9674-2.0721-4.8612 6.8048 2.3934 4.3881-3.7743 0.05398-7.0582-2.6044-17.981-11.34-15.55-6.4413-1.6094-10.261 2.7373-10.528 8.8884-0.08145-4.4887-10.252-2.8678-14.243-1.2401l-1.3076 0.69153-0.93455 0.73953" fill="#fff" fill-rule="evenodd" stroke="#000" stroke-width=".4396px"/>
  <path id="path3126" d="m107.28 136.32c2.2952-29.857 17.386-43.454 14.729-67.334-1.5701-14.115-14.28-3.4154-10.138 9.825" fill="none" stroke="#000" stroke-width=".60923px"/>
  <path id="path3249" d="m113.35 177.06c-1.5175 5.5056-4.5272 2.0008-7.192 2.413 4.385 6.223-13.444 4.9268-8.151 14.524-1.1725 7.4302 0.62021 12.771 8.7943 14.318 2.6468-3.5842 5.1815-6.5193 5.7735 0.09308 4.7201-1.374 10.925-9.239 10.288-1.1559 3.203-4.8777 13.343-7.42 13.215-12.674 5.1325 0.53875 10.647 5.3721 14.979-1.5954 4.3496-5.1466 5.3139-0.04845 5.3795 3.9266 5.2874 4.9386 11.35-2.6486 16.847-3.9054-1.416-6.3676 6.4808-1.1295 5.3232-6.777-0.75813-3.6986 24.592-2.6036 20.946-6.2206-10.895-10.808-27.915 5.4762-30.378 4.4368-2.4624-1.0394-5.1832-0.40901-1.7432-1.9876 3.44-1.5786-4.9283 1.0178-11.898-1.4577-6.9694-2.4756-12.071 0.65414-12.536 6.829-5.2494-3.2648-5.6255 0.44356-13.804 2.7176 5.2111-7.6184-9.2094-2.0238-9.2094-2.0238s2.5124-8.3531-2.0023-7.2506c2.4272-4.3594-0.26671-5.7024-0.26671-5.7024s1.3296-3.7435-4.3662 1.4922z" fill-rule="evenodd" opacity=".11236"/>
  <path id="path2251" d="m27.806 89.071c-0.95144-1.6945-3.916-2.1611-4.2974-3.5981 0.66258-1.669-1.9436-0.45842-2.4572-1.3759-3.0659 2.5097-7.298 3.5961-9.5699 7.048 1.2081-0.26494 1.2052-2.031-0.1148-0.72812-2.486 1.235-4.8886 3.4045-3.9538 6.5 0.22642 1.5885-1.7729 2.9554 0.66775 3.3316-0.31825 2.5432-4.1334 2.4361-4.1356 4.6807 0.84447 2.4482 0.47299 4.9997-1.5355 6.7169-1.9867 1.8579-1.1685 4.5925-1.0961 6.8494-0.99917 1.5096-1.5616 2.9133-0.24465 4.3512 0.27882 2.5935 2.4318 4.3107 2.4478 7.0091 0.90639 1.4143 2.724 1.3268 3.6524 2.925 2.7121 0.23054 2.9111 4.0176 5.4946 4.5428 2.2192 0.72383 4.8451 0.22193 6.8447 0.75271 1.64 1.3296 3.5225 2.2563 5.5872 2.6297 2.5955 1.6519 3.4776-2.4594 5.0483-3.7833 0.081446-2.07 1.5686-2.231 2.5645-0.48804 2.2666 1.5367 4.6151-1.1096 6.2401-2.5099 1.5887-1.7316 3.371-3.2307 5.14-4.749 2.5114-2.835 3.4031-6.8925 3.2626-10.624 0.24894-2.3385-1.9254-2.4679-3.3554-2.7349 0.64657-1.9606 2.2757-4.7815-1.0471-4.9914-1.9055-0.4977-6.2256-2.6266-3.7515-4.8695 1.8258-2.1334-0.6869-5.0052-1.808-6.9323-1.9415-1.5452-3.0696-3.6977-4.2768-5.5771-2.3373-0.37242-4.5276-1.7928-5.1235-4.2724-0.62396-1.9692-0.17279-0.51094 0.024099 0.44767" fill="#fff" fill-rule="evenodd" stroke="#000" stroke-width=".59469"/>
  <path id="path4128" d="m8.4074 115.09c-1.1704-1.4388 3.451-0.76101 3.0696-2.198 0.66258-1.669-0.1303-1.7385-0.64385-2.656-3.0659 2.5097-2.3438-3.436-4.6157 0.01591 1.2081-0.26493 1.0094-4.6294-0.31056-3.3266-2.486 1.235-1.9593-4.2437-1.9616-1.9991 0.84447 2.4482 0.47299 4.9997-1.5355 6.7169-1.9867 1.8579-1.1685 4.5925-1.0961 6.8494-0.99917 1.5096-1.5616 2.9133-0.24465 4.3512 0.27882 2.5935 2.4318 4.3107 2.4478 7.0091 0.90639 1.4143 2.724 1.3268 3.6524 2.925 2.7121 0.23054 2.9111 4.0176 5.4946 4.5428 2.2192 0.72383 4.8451 0.22193 6.8447 0.75271 1.64 1.3296 3.5225 2.2563 5.5872 2.6297 2.5955 1.6519 3.4776-2.4594 5.0483-3.7833 0.081446-2.07 1.5686-2.231 2.5645-0.48804 2.2666 1.5367 4.6151-1.1096 6.2401-2.5099 1.5887-1.7316-6.1003 0.26263-4.3313-1.2556 2.5114-2.835-5.6665 3.9571-5.8071 0.22548 0.24894-2.3385-9.0419 2.9753-7.0743-1.1358 0.64658-1.9606 1.1226-0.54666-2.2002-0.75663-1.9055-0.4977-7.1657-4.0154-4.6916-6.2583 1.8258-2.1334-0.98096 0.33358-2.102-1.5935-1.9415-1.5452-0.70144-0.69439-1.9087-2.5737-2.3373-0.37242-1.3097-1.3278-1.9055-3.8074-1.0111 2.9092-0.71742-2.6351-0.52053-1.6765z" fill-rule="evenodd" opacity=".095506"/>
  <path id="path5880" d="m108.74 122.78s9.6078-24.495 11.916-34.267c2.1599-9.1431 1.8804-23.1-1.3545-25.683-3.2349-2.5832-7.4899 1.8846-7.9384 7.1748-0.44846 5.2903-0.82407 6.6234 1.3475 16.715 0.98441 4.5745 0.49276 15.418-0.84565 20.535s-4.2589 16.772-3.1253 15.525z" fill-opacity=".22346" fill-rule="evenodd"/>
 </g>
</svg>
