<?xml version="1.0" encoding="UTF-8"?>
<!-- Generator: Adobe Illustrator 12.0.1, SVG Export Plug-In . SVG Version: 6.00 Build 51448)  -->
<svg id="Layer_1" width="301.66" height="236.88" enable-background="new 0 0 427.129 335.394" overflow="visible" version="1.0" viewBox="0 0 427.13 335.39" xml:space="preserve" xmlns="http://www.w3.org/2000/svg" xmlns:cc="http://creativecommons.org/ns#" xmlns:dc="http://purl.org/dc/elements/1.1/" xmlns:rdf="http://www.w3.org/1999/02/22-rdf-syntax-ns#"><metadata id="metadata470"><rdf:RDF><cc:Work rdf:about=""><dc:format>image/svg+xml</dc:format><dc:type rdf:resource="http://purl.org/dc/dcmitype/StillImage"/></cc:Work></rdf:RDF></metadata>
<g id="g3" transform="matrix(1.0018 0 0 1.0018 .00022302 -.00024435)">
	<path id="path5" d="m333.39 12.417c-5.247-0.121-4.825-5.912-7.382-8.725-5.054 0.014-11.798 1.577-17.785 3.021-2.143 0.516-4.445 1.13-6.041 2.349-1.205-0.905 0.908-1.303 0.672-2.349 7.518-1.491 15.811-5.21 23.489-4.363 1.489 2.314 2.88 4.727 3.691 7.718 0.712 1.19 3.042 0.761 3.356 2.349z" fill="#eff0f0"/>
	<path id="path7" d="m325.67 5.705c-2.227 1.975 1.984 8.729-2.35 9.06-0.221-2.798 0.445-6.484-0.336-8.725-2.291 1.735 1.475 9.527-2.35 9.731-0.223-3.134 0.444-7.156-0.336-9.731 0.959-1.415 4.315-1.777 5.372-0.335z" fill="#5e6e66"/>
	<path id="path9" d="m319.63 5.705c-0.203 3.264 0.419 7.354-0.336 10.067h-2.349v-9.06c0.741-0.492 1.442-1.02 2.685-1.007z" fill="#5e6e66"/>
	<path id="path11" d="m315.94 6.712v2.349c-4.086 0.481-9.082 3.321-13.088 1.678 2.83-2.876 8.63-2.78 13.088-4.027z" fill="#5e6e66"/>
	<path id="path13" d="m326 7.383c1.527 1.716 2.046 4.441 4.025 5.705-0.963 0.603-2.062 1.07-3.69 1.007-0.034-1.666-0.448-4.004-0.335-6.712z" fill="#5e6e66"/>
	<path id="path15" d="m289.43 10.067c-4.312-0.37-7.606 3.005-10.737 1.678 2.253-1.478 8.371-3.558 10.737-1.678z" fill="#00a5d9"/>
	<path id="path17" d="m315.94 10.403c-2.004 1.489-8.351 4.568-10.401 1.678 3.858 0.055 7.077-2.313 10.401-1.678z" fill="#5e6e66"/>
	<path id="path19" d="m304.86 19.128c-4.026 1.23-8.574 1.939-11.744 4.026-2.268-5.004-6.624-7.917-11.074-10.738 3.482-0.24 6.328-2.338 9.396-2.014 1.543 0.164 1.992 1.288 3.354 2.014 3.327 1.77 8.696 3.346 10.068 6.712z" fill="#00a5d9"/>
	<path id="path21" d="m315.94 12.417v3.355c-3.037 0.128-4.547-1.27-7.383-1.342 1.931-1.2 4.554-1.708 7.383-2.013z" fill="#5e6e66"/>
	<path id="path23" d="m346.81 13.087c-9.988 3.324-22.328 6.08-32.215 8.389 9.769-3.766 20.988-6.081 32.215-8.389z"/>
	<path id="path25" d="m281.37 15.437c0.385 0.119 0.851 0.591 0.335 0.671-5.65 1.283-10.827 3.043-16.441 4.363 3.994-3.052 10.741-3.351 16.106-5.034z"/>
	<path id="path27" d="m350.16 17.45c-10.905 2.967-22.959 6.567-33.558 8.725 10.252-3.621 22.47-7.058 33.558-8.725z"/>
	<path id="path29" d="m258.22 22.483c-2.582 1.802-7.25 3.235-10.066 3.691 2.745-1.84 6.134-3.037 10.066-3.691z"/>
	<path id="path31" d="m238.08 24.497c8.975 3.235 4.271 20.096-0.335 24.496 3.498-8.062 7.924-18.466 0.335-24.496z"/>
	<path id="path33" d="m288.42 24.497c-3.179 2.302-7.923 3.039-12.416 4.026 3.482-1.998 7.921-3.04 12.416-4.026z"/>
	<path id="path35" d="m235.06 25.839c9.424 3.505 4.06 19.121 0.336 24.833-0.326-4.616 5.48-11.058 4.025-18.121-0.22-1.064-1.21-1.705-1.007-3.02-0.97-1.377-2.673-2.023-3.354-3.692z"/>
	<path id="path37" d="m308.56 27.181c-3.599 2.554-9.584 2.721-13.759 4.698 1.319-2.26 10.024-3.823 13.759-4.698z"/>
	<path id="path39" d="m359.9 26.846c0.412 0.146 0.688 0.43 0.672 1.007-8.172 2.231-16.575 4.23-25.168 6.04 6.85-3.664 17.269-3.76 24.496-7.047z"/>
	<path id="path41" d="m231.37 29.195c-7.461 3.054-14.356 6.672-22.147 9.396 6.409-4.105 14.447-6.582 21.477-10.067 0.569-0.124 0.631 0.261 0.67 0.671z"/>
	<path id="path43" d="m271.31 29.866c-6.688 3.377-14.584 5.55-22.146 8.054 6.704-3.362 14.278-5.854 22.146-8.054z"/>
	<path id="path45" d="m289.43 32.55h1.007c-2.881 2.489-8.668 2.071-11.744 4.363-25.953 6.934-47.326 18.446-67.113 31.543-19.836 10.365-34.992 25.41-51.342 39.261 15.379-16.796 34.355-30.653 54.7-42.617 22.508-13.237 45.104-25.376 74.158-32.55h0.334z"/>
	<path id="path47" d="m330.03 34.899c-2.203 1.041-4.672 1.816-7.719 2.014 1.588-1.54 5.572-2.11 7.719-2.014z"/>
	<path id="path49" d="m222.65 36.242c-14.583 6.781-28.635 14.093-41.945 22.147 12.074-9.29 26.46-16.269 41.945-22.147z"/>
	<path id="path51" d="m318.62 37.919c-3.646 1.612-8.113 2.401-12.416 3.356 3.273-1.984 7.648-2.866 12.416-3.356z"/>
	<path id="path53" d="m375 43.96c-5.495 2.671-13.439 4.681-19.128 6.04 5.56-2.612 13.346-4.765 19.128-6.04z"/>
	<path id="path55" d="m223.99 48.993c-5.374 4.57-12.199 7.159-18.12 11.074-5.539 3.663-11.024 7.426-16.107 11.409-5.084 1.627-7.445 5.978-12.416 7.718 14.207-11.406 29.845-21.384 46.643-30.201z"/>
	<path id="path57" d="m187.41 49.665c-3.43 3.394-8.161 5.486-12.081 8.389 1.182-3.181 4.906-3.819 7.383-5.705 1.119-1.123 3.381-2.875 4.698-2.684z"/>
	<path id="path59" d="m351.51 51.342c-2.97 2.192-8.489 3.569-12.08 4.027 3.524-1.846 7.612-3.127 12.08-4.027z"/>
	<path id="path61" d="m300.84 52.349h1.007c-0.96 4.969-3.198 8.658-7.047 10.738 2.241-3.352 5.152-6.034 6.04-10.738z"/>
	<path id="path63" d="m295.8 55.034c-2.313 0.176-6.718-0.148-11.074 0.671 2.416-1.762 8.246-2.203 11.074-0.671z"/>
	<path id="path65" d="m279.02 56.711h0.672c-1.547 2.5-5.814 2.36-8.725 3.356-19.4 6.641-40.367 15.609-57.384 24.161 18.88-12.107 42.706-19.265 65.437-27.517z"/>
	<path id="path67" d="m308.56 57.047c-1.846 3.301-3.007 7.285-7.048 8.389 2.822-2.324 4.081-6.209 7.048-8.389z"/>
	<path id="path69" d="m289.43 60.403c-1.421 1.599-4.297 1.743-7.047 2.013 1.382-1.418 5.364-2.014 7.047-2.013z"/>
	<path id="path71" d="m308.56 60.738h1.006c11.785 11.441 18.403 32.718 23.49 50.671-2.695-2.995-2.752-7.569-4.027-11.409-2.111-6.362-5.188-12.262-6.711-17.785-4.469-7.277-7.072-16.418-13.758-21.477z"/>
	<path id="path73" d="m166.61 63.423c5.388 1.127 6.94 11.621 4.027 16.778 0.371-7.306 0.228-14.098-4.027-16.778z"/>
	<path id="path75" d="m325.33 129.87c-1.875-0.41-0.797-2.576-1.006-3.691-0.541-2.872-1.851-5.847-2.015-8.725-1.063-0.39-0.576-2.331-1.679-2.685-3.541-15.22-9.194-28.27-13.423-41.946-4.402-8.162-16.62-9.829-26.846-7.718 5.283-3.708 15.964-1.009 21.141 0.671 6.534 3.322 8.01 11.246 10.738 19.463 4.607 13.864 11.489 29.712 13.09 44.631z"/>
	<path id="path77" d="m274.66 63.758c0.835 1.386-2.861 1.467-4.697 2.014-2.221 0.661-4.558 1.457-5.705 2.349-19.757 5.187-36.941 12.947-52.685 22.148-0.683-1.189 2.142-2.095 3.69-3.021 14.332-8.562 31.655-14.867 50-20.47 3.1-0.946 6.281-2.174 9.062-3.02h0.335z"/>
	<path id="path79" d="m306.88 66.107c5.322 0.16 7.591 6.278 8.726 11.745-3.137-3.686-3.573-10.074-8.726-11.745z"/>
	<path id="path81" d="m272.31 67.45c-21.459 8.743-44.428 17.764-63.422 27.852 14.896-9.979 34.276-16.864 52.348-23.825 3.678-1.416 6.713-3.283 11.074-4.027z"/>
	<path id="path83" d="m298.15 72.483c-1.609 0.646-2.576-1.872-4.698-2.349-1.897-0.427-4.259 0.9-5.704-0.671 4.225-1.009 8.729 0.382 10.402 3.02z"/>
	<path id="path85" d="m386.41 69.127c-2.968 1.395-6.026 2.699-9.731 3.356 2.601-1.759 5.795-2.929 9.731-3.356z"/>
	<path id="path87" d="m158.22 69.463c-3.1 3.5-6.977 6.223-11.074 8.725 3.06-3.54 6.791-6.408 11.074-8.725z"/>
	<path id="path89" d="m136.41 76.846c-2.637 2.699-6.7 2.834-7.383 7.047-1.134 7 1.358 14.859 0.335 20.134-5.579-0.125-5.749-5.661-11.409-5.705 0.767-7.881-1.816-17.04 1.007-22.819 5.074-4.053 12.751-0.744 17.45 1.343zm-8.054 3.691c-2.718-1.197-5.416-2.414-8.725-3.021 1.634 1.863 6.935 3.541 8.725 3.021zm-8.054 14.094c0.782-4.252 0.113-9.955 0.335-14.765h-1.007c0.438 4.708-0.88 11.171 0.672 14.765zm2.349 4.362c0.19-4.641 1.341-10.086-0.335-12.416 0.151 2.992-1.128 7.81 0.335 12.416zm2.014 2.349c0.331-2.615 0.999-8.347-0.335-10.403-0.36 2.644-0.96 8.308 0.335 10.403z" fill="#c9cacc"/>
	<path id="path91" d="m372.65 73.826c-4.717 2.331-10.24 3.853-15.771 5.369 4.48-2.353 10.977-4.446 15.771-5.369z"/>
	<path id="path93" d="m299.16 74.832h0.671c3.355 4.928 5.879 12.456 7.383 18.121-3.58-5.146-4.649-12.801-8.054-18.121z"/>
	<path id="path95" d="m119.63 77.517c3.309 0.606 6.007 1.824 8.725 3.021-1.79 0.519-7.091-1.159-8.725-3.021z"/>
	<path id="path97" d="m139.09 78.523v3.355c-2.902 1.349-5.42 3.082-7.718 5.034-2.266-5.121 3.095-7.966 7.718-8.389z" fill="#c9cacc"/>
	<path id="path99" d="m119.63 79.866h1.007c-0.223 4.811 0.446 10.513-0.335 14.765-1.553-3.594-0.235-10.057-0.672-14.765z"/>
	<path id="path101" d="m157.21 87.248c-1.478 6.872 3.48 27.241-3.691 28.523-3.194 0.571-3.53-1.624-6.375-2.013v-10.403c-2.214 1.415-0.373 6.946-1.343 8.725-3.625-1.409-6.955-3.112-9.731-5.369 0.621-6.725-0.308-15.049 1.007-21.812 2.32-1.13 3.473-3.144 5.705-3.691 4.829-1.185 10.426 4.47 14.428 6.04zm-10.067 2.349c-2.933-1.654-5.873-3.299-9.061-4.698 1.797 2.364 6.74 5.088 9.061 4.698zm2.684 2.014c1.831-0.743 4.082-1.064 5.369-2.349-1.631-0.317-4.622 0.685-5.369 2.349zm-7.382 15.1c0.259-6.136 0.084-7.483 0.335-14.094h-1.006c0.49 5.179-1.61 9.714 0.671 14.094zm6.711 6.376c1.838-1.362 0.995-4.522 1.007-6.711 0.025-4.779 0.411-8.789 0-12.08-0.074-0.262-0.281-0.39-0.671-0.336-0.744 5.552-0.162 14.113-0.336 19.127zm3.356-15.772c1.729-0.173 3.351-0.453 4.027-1.678-1.731 0.171-3.641 0.163-4.027 1.678zm0 3.02c1.261-0.414 4.891-1.288 3.356-2.349-0.448 1.454-3.673 0.131-3.356 2.349zm-7.718 10.739c0.332-3.164 1-9.475-0.335-12.081-0.106 4.009-1.389 10.188 0.335 12.081zm7.382-8.389c1.881-0.021 3.386-0.417 4.362-1.342-2.125-0.225-3.326 0.475-4.362 1.342zm0.336 2.684c0.989 0.638 3.066-0.502 3.691-1.342-0.812-0.462-3.048 0.519-3.691 1.342zm0 2.685c0.863 0.512 3.17-0.398 3.691-1.342-1.435 0.242-3.135 0.22-3.691 1.342z" fill="#c9cacc"/>
	<path id="path103" d="m273.65 83.557c4.683 0.576 8.599 1.917 12.753 3.02-3.153 0.52-9.654-1.264-12.753-3.02z"/>
	<path id="path105" d="m138.08 84.899c3.188 1.398 6.128 3.044 9.061 4.698-2.321 0.39-7.264-2.334-9.061-4.698z"/>
	<path id="path107" d="m135.06 85.57c-0.098 2.699-2.63 2.963-3.691 4.698 1.864 0.41 1.962-0.946 3.02-1.342 0.758 1.662-2.125 2.565-3.02 3.691-0.773-0.904-0.119-3.236-0.335-4.698 1.743-0.381 2.22-2.029 4.026-2.349z" fill="#c9cacc"/>
	<path id="path109" d="m122.31 86.577c1.677 2.33 0.526 7.775 0.335 12.416-1.462-4.606-0.183-9.424-0.335-12.416z"/>
	<path id="path111" d="m206.54 86.913c0.394 0.054 0.283 0.612 0.336 1.007-6.061 4.297-13.243 8.604-19.128 13.423-2.951 2.416-4.528 6.249-7.382 9.06 5.048-11.507 16.893-16.216 26.174-23.49z"/>
	<path id="path113" d="m301.51 94.295c-8.438-1.071-17.187-4.737-26.174-6.376-0.207-0.299-0.406-0.6 0-0.671 8.242 1.496 18.101 4.266 26.174 7.047z"/>
	<path id="path115" d="m308.89 86.913c4.519 10.583 8.85 21.353 10.737 34.563-1.802-0.227-0.819-2.198-1.007-3.02-2.482-10.939-7.328-21.615-9.73-31.543z"/>
	<path id="path117" d="m155.2 89.262c-1.288 1.285-3.539 1.606-5.369 2.349 0.747-1.664 3.738-2.666 5.369-2.349z"/>
	<path id="path119" d="m124.33 90.939c1.334 2.056 0.667 7.788 0.335 10.403-1.294-2.095-0.694-7.759-0.335-10.403z"/>
	<path id="path121" d="m320.3 90.939c0.542-0.095 0.578 0.317 1.008 0.335 3.529 8.886 7.342 17.49 9.396 27.853-3.676-7.055-4.938-15.849-8.391-23.154-0.673-1.426-2.026-2.489-2.013-5.034z"/>
	<path id="path123" d="m134.73 101.34c-1.153 0.972-1.708 2.542-3.691 2.685v-9.731c0.312-1.59 2.473-1.33 3.02-2.685 1.67 2.412-7e-3 6.911 0.671 9.731z" fill="#c9cacc"/>
	<path id="path125" d="m141.78 92.617h1.006c-0.251 6.611-0.076 7.958-0.335 14.094-2.281-4.38-0.181-8.915-0.671-14.094z"/>
	<path id="path127" d="m281.37 92.953c9.017 0.491 17.992 3.931 26.51 6.04-1.333 1.225-3.491-0.632-5.032-1.007-6.686-1.624-14.856-2.9-21.478-5.033z"/>
	<path id="path129" d="m204.19 93.624c0.57-0.124 0.633 0.262 0.671 0.671-8.218 6.815-18.74 9.849-21.812 21.141-1.165 4.28-1.758 12.288-1.678 16.778 2.08-15.37 8.147-26.752 19.799-32.55-2.418 3.669-6.958 5.246-9.731 8.725-7.176 9.004-10.337 24.157-9.061 38.926-0.476-0.029-0.95-0.055-1.007 0.336-1.352-1.985-1.205-4.876-1.342-7.383-0.579-10.549 0.794-23.309 5.033-32.214 5.436-5.75 12.771-9.6 19.128-14.43z"/>
	<path id="path131" d="m149.5 93.959c0.39-0.054 0.597 0.074 0.671 0.336 0.411 3.291 0.025 7.301 0 12.08-0.012 2.189 0.832 5.35-1.007 6.711 0.174-5.013-0.408-13.574 0.336-19.127z"/>
	<path id="path133" d="m156.54 95.638c-0.676 1.225-2.298 1.504-4.027 1.678 0.386-1.516 2.296-1.508 4.027-1.678z"/>
	<path id="path135" d="m155.87 97.986c1.535 1.062-2.095 1.936-3.356 2.349-0.317-2.218 2.908-0.895 3.356-2.349z"/>
	<path id="path137" d="m144.46 98.993c1.336 2.605 0.667 8.917 0.335 12.081-1.723-1.893-0.44-8.072-0.335-12.081z"/>
	<path id="path139" d="m122.31 109.06c-2.643 1.384-4.194 3.86-6.04 6.041-1.699-2.218-0.264-6.317 1.007-7.718-1.329-0.433-0.686 1.104-2.014 0.671 0.513-2.191-1.211-2.144-2.349-2.685 2.342-2.917 5.533-7.799 9.396-3.691-0.205 1.56 0.137 4.84 0 7.382zm-6.711-3.355c1.767-0.806 3.125-2.021 4.027-3.691-2.209 0.363-3.281 1.864-4.027 3.691zm0.671 6.04c1.916-0.545 3.146-1.775 3.691-3.691-1.526 0.933-3.238 1.682-3.691 3.691z" fill="#c9cacc"/>
	<path id="path141" d="m156.54 101.34c-0.977 0.925-2.481 1.322-4.362 1.342 1.035-0.866 2.236-1.566 4.362-1.342z"/>
	<path id="path143" d="m119.63 102.01c-0.901 1.671-2.26 2.885-4.027 3.691 0.746-1.826 1.818-3.327 4.027-3.691z"/>
	<path id="path145" d="m234.06 102.35h0.67c16.258 2.871 31.916 6.339 46.979 10.403 4.371 2.005 10.396 2.357 13.759 5.369-18.746-6.421-39.039-11.297-60.738-14.765-0.413-0.147-0.688-0.43-0.67-1.007z"/>
	<path id="path147" d="m123.99 103.69c3.051 1.41 7.949 3.313 10.738 0.336-1.01 6.156 4.756 5.535 7.383 8.054-0.912 2.779-3.17 4.212-4.362 6.711-3.94-3.89-7.562-8.099-13.423-10.067-0.828-1.808-0.383-2.935-0.336-5.034z" fill="#fff"/>
	<path id="path149" d="m156.21 104.03c-0.625 0.84-2.703 1.98-3.691 1.342 0.643-0.823 2.879-1.804 3.691-1.342z"/>
	<path id="path151" d="m311.24 105.7h1.007c1.006 4.027 3.035 7.032 3.021 12.081-2.031-3.341-2.413-8.326-4.028-12.081z"/>
	<path id="path153" d="m111.58 106.38c2.4 0.156 3.521 2.996 1.342 4.363 0.227 0.78 1.761 0.252 1.342 1.678-1.795 0.342-1.669-1.238-3.355-1.007-1e-3 -1.903 0.236-3.567 0.671-5.034z" fill="#c9cacc"/>
	<path id="path155" d="m156.21 106.71c-0.521 0.944-2.829 1.854-3.691 1.342 0.556-1.121 2.256-1.099 3.691-1.342z"/>
	<path id="path157" d="m278.02 123.15c4.172 5.808 0.315 12.937-4.697 16.107-5.706 3.608-19.387 6.902-29.865 7.383-14.309 0.657-30.414-0.907-42.617-6.041-5.932-2.495-12.599-7.496-13.422-11.745-0.767-3.955 1.982-7.93 4.698-10.403 5.209-4.743 16.693-8.949 25.168-10.402 24.446-4.192 50.387 2.47 60.735 15.101zm-72.147-4.027c-3.145 0.525-6.269 1.145-8.725 2.685 12.609-2.55 29.93-4.89 44.965-5.034-11.392-0.815-25.586 0.571-36.24 2.349zm4.697 2.349c-6.049 0.98-12.316 2.539-17.114 5.034 16.374-4.96 37.478-7.082 56.711-5.034 7.896 0.841 14.924 3.434 21.812 4.027-17.564-6.03-41.752-7.21-61.409-4.027zm44.295 3.356c-8.809-1.359-19.141-1.562-29.529-1.342-0.337-1e-3 -0.398 0.272-0.671 0.335-0.263 0.074-0.392 0.281-0.336 0.671 13.801-1.085 27.28 0.547 38.926 2.685-2.172-1.605-5.493-1.902-8.39-2.349zm-14.429 2.685c6.256 0.596 15.557 2.456 19.799 2.013-5.969-0.878-13.943-3.249-19.799-2.013zm29.865 6.711c-0.072-0.262-0.281-0.39-0.671-0.335-7.528 8.985-25.871 7.936-41.274 8.053 15.541 1.593 34.878 1.379 41.945-7.718z" fill="#c9cacc"/>
	<path id="path159" d="m119.96 108.05c-0.545 1.916-1.776 3.146-3.691 3.691 0.452-2.009 2.164-2.758 3.691-3.691z"/>
	<path id="path161" d="m132.72 116.78c-2.902 2.02-5.348 4.496-7.383 7.382 3.059-0.657 5.435-4.837 8.054-7.047 2.652 2.158 4.533 5.086 5.705 8.725-3.74 2.077-7.798 3.835-11.745 5.705-1.501-5.658-4.515-9.803-8.725-12.751 1.178-3.521 4.918-4.478 6.711-7.383-3.539-0.023-5.533 6.036-9.06 6.04 1.711-3.21 4.66-5.183 7.382-7.382 3.831 1.427 7.148 3.367 9.061 6.711zm-5.369 10.403c3.543-1.603 5.542-4.749 8.054-7.383-3.658 1.488-5.751 4.541-8.054 7.383z" fill="#c9cacc"/>
	<path id="path163" d="m109.56 111.41c-0.014 1.104-0.566 1.671-0.335 3.02-1.136 0.094-1.927 0.534-3.356 0.335 0.834-1.514 1.755-2.941 3.691-3.355z" fill="#c9cacc"/>
	<path id="path165" d="m352.51 111.41c0.391-0.055 0.598 0.074 0.672 0.335 12.006 32.625 22.445 66.816 28.858 105.03-2.233-3.976-2.34-8.692-3.356-13.088-3.123-13.504-6.237-27.106-9.729-40.604-3.215-12.426-7.366-25.555-11.744-38.255-1.493-4.332-3.69-8.331-4.696-12.416-0.602-0.245-0.054-0.609-5e-3 -1.006z"/>
	<path id="path167" d="m110.9 112.42c1.561 0.452 3.345 0.682 3.355 2.685-0.8 0.556-2.051-0.682-3.355-0.671v-2.014z" fill="#c9cacc"/>
	<path id="path169" d="m242.11 116.78c-15.035 0.144-32.356 2.483-44.965 5.034 2.457-1.54 5.581-2.16 8.725-2.685 10.654-1.778 24.848-3.164 36.24-2.349z"/>
	<path id="path171" d="m304.19 117.45c1.479 0.086 1.695 1.437 2.015 2.685-1.282-0.284-1.616-1.517-2.015-2.685z"/>
	<path id="path173" d="m101.51 119.8c-0.548 2.36-2.675 3.142-4.362 4.362 0.615-2.293 2.276-3.54 4.362-4.362z"/>
	<path id="path175" d="m135.4 119.8c-2.512 2.634-4.511 5.78-8.054 7.383 2.303-2.842 4.396-5.895 8.054-7.383z"/>
	<path id="path177" d="m271.98 125.5c-6.888-0.593-13.914-3.186-21.812-4.027-19.233-2.048-40.338 0.073-56.711 5.034 4.797-2.495 11.065-4.054 17.114-5.034 19.657-3.183 43.845-2.003 61.409 4.027z"/>
	<path id="path179" d="m408.55 120.13c-0.846 1.732-4.146 2.783-5.369 3.021 1.187-1.611 3.228-2.366 5.369-3.021z"/>
	<path id="path181" d="m263.25 127.18c-11.645-2.138-25.125-3.77-38.926-2.685-0.055-0.39 0.074-0.597 0.336-0.671 0.271-0.063 0.334-0.336 0.671-0.335 10.39-0.219 20.722-0.017 29.53 1.342 2.897 0.447 6.218 0.744 8.389 2.349z"/>
	<path id="path183" d="m281.71 123.82c7.301 0.307 14.118 4.003 20.47 6.376 3.141-0.665 2.842-4.766 4.698-6.711 0.306 3.549-1.644 4.844-2.685 7.047 4.498 2.326 9.248 4.399 13.759 6.711 2.327-1.141 3.763-3.172 5.704-4.698 0.941 1.445-2.856 3.813-4.362 5.034 5.974 4.43 12.776 8.028 16.778 14.43-3.396-1.876-6.812-6.601-10.402-9.396-2.854-0.951-4.691-2.915-7.383-4.027-4.027 1.565-7.029 4.156-12.08 4.698 3.408-1.849 7.4-3.114 10.738-5.033-3.647-3.288-9.11-4.76-13.76-7.047-1.806 0.549-4.229 2.253-5.703 2.013 0.709-1.416 2.973-1.277 4.024-2.349-6.037-2.909-13.076-4.819-19.796-7.048z"/>
	<path id="path185" d="m331.04 123.49c1.581 0.88 1.287 3.634 1.342 6.04 4.293 3.313 9.29 5.923 12.081 10.738-4.229-2.706-6.908-6.962-11.745-9.06-0.626 0.828-0.521 2.388-1.342 3.02-0.903-0.817-0.015-2.679 0-3.691-0.552-1.35-2.545-1.258-3.356-2.349 1.056-0.921 2.387 0.731 3.356 1.007-0.116-1.768-0.763-4.48-0.336-5.705z"/>
	<path id="path187" d="m398.82 125.17c-5.574 4.163-13.857 7.389-20.136 9.731 6.124-3.609 14.172-7.08 20.136-9.731z"/>
	<path id="path189" d="m361.58 126.17c0.39-0.055 0.597 0.074 0.671 0.335 5.512 17.418 11.312 34.548 15.102 53.692-2.668-4.715-2.789-11.978-5.369-16.779-1.195-6.969-3.439-12.89-5.033-19.463-2.382-5.933-4.081-10.622-5.371-17.785z"/>
	<path id="path191" d="m260.23 129.53c-4.244 0.443-13.543-1.417-19.799-2.013 5.857-1.236 13.831 1.135 19.799 2.013z"/>
	<path id="path193" d="m116.94 128.86c0.88 1.125-1.338 1.394-1.678 2.349-1.315-0.47 0.438-2.348 1.678-2.349z"/>
	<path id="path195" d="m122.98 131.54c1.332 1.319-1.327 3.89-3.02 4.362 0.338-2.122 2.211-2.71 3.02-4.362z"/>
	<path id="path197" d="m187.41 132.89c0.527 0.144 0.287 1.055 1.342 0.671-0.2 0.695 0.415 2.205-0.335 2.349-1.201-0.142-0.944-1.74-1.007-3.02z" fill="#c9cacc"/>
	<path id="path199" d="m228.35 141.95c15.403-0.117 33.746 0.932 41.274-8.053 0.39-0.055 0.599 0.074 0.671 0.335-7.067 9.097-26.404 9.311-41.945 7.718z"/>
	<path id="path201" d="m110.9 134.9c-1.233 1.501-2.723 4.369-4.362 4.362 1.16-1.748 1.972-3.844 4.362-4.362z"/>
	<path id="path203" d="m105.87 142.95c-0.597 1.417-1.762 2.265-2.349 3.691 0.84 1.172 2.265 1.762 2.685 3.355-1.953 2.531-5.113 5.363-7.383 8.054-8.189 9.709-14.089 26.58-29.53 25.839-4.669-0.225-12.287-2.657-11.409-9.396 0.474-3.637 3.124-6.86 5.369-10.065 6.072-8.674 12.763-18.744 19.463-25.839 1.104-0.014 1.671-0.566 3.021-0.335 0.712-1.19 1.576-2.227 2.685-3.021 7.633 0.753 13.049 3.726 17.448 7.717zm-17.114 18.12c5.132-5.271 9.069-11.735 13.758-17.449-0.074-0.262-0.281-0.39-0.671-0.336-4.733 5.558-9.353 11.229-13.087 17.785zm-2.685 4.363c-0.876-5.915-5.497-11.316-9.396-13.758-0.037-0.822-1.109-0.071-1.007 0.335 5.859 3.788 10.349 10.643 9.396 20.134 1.653-1.202 1.226-5.233 1.007-6.711zm-6.711-5.705c2.11 2.826 3.582 6.69 3.691 10.737 0.029 1.094-0.996 2.558 0.335 3.357 2.05-9.438-3.436-16.84-9.731-20.136 1.205 2.631 3.965 3.712 5.705 6.042zm-5.369 20.47c2.262-1.652 3.994-3.834 5.369-6.375-2.851 1.063-4.262 3.568-5.369 6.375z" fill="#00a5d9"/>
	<path id="path205" d="m189.76 135.23c0.448 0.335 0.659 0.907 1.342 1.007 0.263 1.382-0.515 1.722-0.336 3.02-1.591-0.78-1.187-3-1.006-4.027z" fill="#c9cacc"/>
	<path id="path207" d="m329.36 136.24c1.146 1.132-1.664 3.554-3.69 3.691 0.858-1.601 2.705-2.216 3.69-3.691z"/>
	<path id="path209" d="m219.29 146.98c0.21 1.02-0.43 2.891 0.335 3.356 1.39 0.047 0.351-2.335 0.671-3.356 8.579 1.301 20.958 1.447 29.866 0 0.558 1.008 0.253 2.879 0.671 4.027 1.328-0.349 0.234-3.121 1.007-4.027 4.722-0.425 8.636-1.655 12.753-2.685v4.698c-21.316 6.16-53.43 4.695-69.126-5.369-0.212-1.13 0.432-3.117-0.335-3.691-1.324-0.205-0.395 1.842-0.671 2.685-1.983-0.59-3.117-2.029-2.685-5.034 7.009 3.956 17.07 7.756 27.514 9.396z" fill="#c9cacc"/>
	<path id="path211" d="m333.72 137.25c3.666 1.815 6.11 4.851 7.717 8.725-1.688-0.1-1.604-1.973-2.349-3.02-1.836-1.856-3.939-3.444-5.368-5.705z"/>
	<path id="path213" d="m276.68 137.92h1.343c0.254 2.044-0.189 3.388-1.678 3.691 0.109-1.233-0.287-2.97 0.335-3.691z" fill="#c9cacc"/>
	<path id="path215" d="m400.84 139.26c4.268 11.168 7.035 23.837 9.062 37.249-1.712-2.416-1.413-5.713-2.015-8.387-2.135-9.525-5.135-18.685-7.047-28.862z"/>
	<path id="path217" d="m162.58 142.28c1.895 5.6 2.063 12.925 3.355 19.127 1.065 2.07 2.631 5.418 2.349 7.717-4.285-6.352-4.976-18.048-5.704-26.844z"/>
	<path id="path219" d="m359.9 142.95c0.391-0.054 0.598 0.074 0.672 0.335 6.049 21.244 12.676 41.911 16.777 65.101-1.104-0.909-1.785-3.002-2.015-4.026-0.634-2.842-0.731-5.164-1.343-8.726-3.101-18.149-10.805-34.558-14.091-52.684z"/>
	<path id="path221" d="m101.84 143.29c0.39-0.054 0.597 0.074 0.671 0.336-4.689 5.714-8.626 12.179-13.758 17.449 3.734-6.556 8.354-12.227 13.087-17.785z"/>
	<path id="path223" d="m183.39 144.63h1.007c-0.197 5.956-2.741 9.563-6.711 11.745 2.191-3.625 5.903-5.729 5.704-11.745z"/>
	<path id="path225" d="m85.065 172.15c0.953-9.492-3.537-16.347-9.396-20.134-0.103-0.407 0.97-1.157 1.007-0.335 3.899 2.442 8.52 7.843 9.396 13.758 0.219 1.478 0.646 5.509-1.007 6.711z"/>
	<path id="path227" d="m294.12 154.7c1.1-0.019 1.282-0.955 2.684-0.671 0.217 1.222-1.598 0.415-1.678 1.342 5.543 5.979 11.098 13.736 13.088 22.147-4.25-7.83-7.807-16.354-14.43-21.812-10.984 2.327-20.227 6.396-30.872 9.061 8.897-4.189 19.495-6.679 29.528-9.731-0.402-2.169-3.52-1.626-4.361-3.355 2.202-0.461 4.463 1.754 6.041 3.019z"/>
	<path id="path229" d="m400.5 152.35c0.542-0.095 0.578 0.317 1.007 0.335 1.038 5.897 2.844 11.026 3.691 17.114-2.816-4.566-3.192-11.573-4.698-17.449z"/>
	<path id="path231" d="m73.656 153.69c6.296 3.296 11.782 10.698 9.731 20.135-1.332-0.8-0.306-2.264-0.335-3.357-0.109-4.046-1.582-7.91-3.691-10.736-1.74-2.332-4.5-3.413-5.705-6.042z"/>
	<path id="path233" d="m183.05 156.04h1.006c-0.073 5.89 2.333 9.3 4.698 12.75-4.084-2.066-5.238-7.064-5.704-12.75z"/>
	<path id="path235" d="m308.56 171.48c-3.807-4.359-4.945-11.386-10.402-14.094 0.306-1.218 0.99-0.205 2.015-0.335 3.383 4.22 6.686 8.523 8.387 14.429z"/>
	<path id="path237" d="m399.16 159.4c2.22 4.939 3.443 10.873 4.36 17.113-2.352-4.59-3.588-12.056-4.36-17.113z"/>
	<path id="path239" d="m135.06 160.4c3.717 6.573 7.126 15.244 9.396 22.146-1.805-0.723-1.722-2.786-2.349-4.361-2.315-5.814-5.642-11.839-7.047-17.785z"/>
	<path id="path241" d="m291.44 169.13c-11.776 6.119-24.375 11.418-36.912 16.778 1.541-1.358 3.537-2.497 5.369-3.354 10.025-4.693 21.004-8.479 30.537-13.758 0.544-0.095 0.578 0.317 1.006 0.334z"/>
	<path id="path243" d="m363.25 168.79c4.307 11.019 8.064 24.373 9.396 37.248-2.919-12.408-6.775-25.662-9.396-37.248z"/>
	<path id="path245" d="m230.7 169.46c2.462-0.668 4.878 1.604 5.704 3.69-1.86-1.27-3.617-2.645-5.704-3.69z"/>
	<path id="path247" d="m228.02 169.8c2.412 0.943 3.996 2.715 6.041 4.027-1.791 0.99-4.627-2.438-6.041-4.027z"/>
	<path id="path249" d="m181.37 170.47c-7.353 3.722-15.005 7.144-22.147 11.074 5.995-5.078 13.815-8.33 22.147-11.074z"/>
	<path id="path251" d="m320.3 171.14c0 2.048-4.677 4.003-6.376 4.362 1.575-2.005 4.44-2.718 6.376-4.362z"/>
	<path id="path253" d="m79.361 173.83c-1.375 2.539-3.107 4.721-5.369 6.375 1.107-2.807 2.518-5.312 5.369-6.375z"/>
	<path id="path255" d="m238.08 175.84c3.218 1.596 4.688 9.629 4.698 14.43-1.915-0.125-0.829-2.373-1.007-3.355-0.718-3.981-1.942-8.091-3.691-11.075z"/>
	<path id="path257" d="m187.75 175.84c-7.531 3.449-14.653 6.258-21.477 10.066-7.706 4.303-14.021 10.676-21.476 15.438-4.777 3.051-9.451 6.242-14.43 9.061 12.576-9.287 25.006-19.291 39.262-27.181 5.418-2.999 11.401-5.834 18.121-7.384z"/>
	<path id="path259" d="m235.06 176.51c3.859 2.517 5.119 9.422 4.699 15.102-1.481-4.615-1.769-11.097-4.699-15.102z"/>
	<path id="path261" d="m418.62 177.18c-9.896 6.213-19.396 12.82-29.53 18.792 1.6-2.13 4.158-3.563 6.376-5.033 6.812-4.517 14.359-8.966 21.478-13.759h1.676z"/>
	<path id="path263" d="m226 178.52c-1.324 2.255-5.227 1.934-6.711 4.027-12.038 4.293-21.833 10.828-33.222 15.771 0.799-2.243 3.508-2.435 5.369-3.354 10.518-5.202 22.571-12.151 34.564-16.444z"/>
	<path id="path265" d="m309.22 180.2c1.016 1.229 2.071 4.188 1.68 5.705-1.495-0.81-1.885-4.291-1.68-5.705z"/>
	<path id="path267" d="m362.92 181.21c2.325 5.064 4.166 12.377 4.698 18.121-2.521-4.871-3.84-12.704-4.698-18.121z"/>
	<path id="path269" d="m81.039 181.88c0.357 2.486-2.843 4.312-5.369 5.033 1.367-2.099 3.09-3.843 5.369-5.033z" fill="#fff"/>
	<path id="path271" d="m295.13 186.24c-13.527 8.842-30.017 16.514-45.637 22.146 14.912-7.458 31.352-13.391 44.631-22.483 0.542-0.094 0.578 0.318 1.006 0.337z"/>
	<path id="path273" d="m320.3 190.27h1.008c3.719 13.731 8.444 28.241 9.062 43.96-2.705-15.898-5.672-29.613-10.07-43.96z"/>
	<path id="path275" d="m144.8 191.94c-5.216 3.846-9.819 8.303-16.107 11.074 4.515-4.209 10.242-7.208 14.765-11.409 0.531 0.028 1.279-0.161 1.342 0.335z"/>
	<path id="path277" d="m242.45 193.62c1.514 5.108-0.093 12.871-2.015 16.777 0.977-5.543 1.201-11.962 2.015-16.777z"/>
	<path id="path279" d="m318.96 195.64c4.86 11.135 7.556 24.437 8.726 39.262-1.865-0.604-0.854-3.44-1.008-4.696-1.483-12.161-5.433-24.28-7.718-34.566z"/>
	<path id="path281" d="m44.126 198.99c1.192 0.484 1.284 2.07 1.342 3.689-0.608-1.068-1.203-2.15-1.342-3.689z" fill="#fff"/>
	<path id="path283" d="m222.65 200c-10.158 5.271-21.908 9.662-33.558 13.758 10.498-5.275 22.167-9.38 33.558-13.758z"/>
	<path id="path285" d="m39.092 201.34h1.007c-1.667 6.414 1.259 11.01 7.383 10.738-6.241 2.622-10.635-4.714-8.39-10.738z"/>
	<path id="path287" d="m317.28 203.02h1.007c2.599 10.937 5.978 21.093 6.712 33.894-2.275-4.178-1.602-9.513-2.686-14.095-1.513-6.396-3.572-12.577-4.697-18.792-0.177-0.27-0.349-0.546-0.336-1.007z"/>
	<path id="path289" d="m365.27 206.38c-7.746 4.783-15.939 9.115-24.832 12.752 7.15-5.151 16.586-8.021 23.825-13.086 0.542-0.096 0.577 0.315 1.007 0.334z"/>
	<path id="path291" d="m160.57 208.39h1.007c0.312 5.407 2.481 11.36-0.335 15.437 0.795-5.989 0.048-10.196-0.672-15.437z"/>
	<path id="path293" d="m119.63 209.4c-7.198 5.105-14.177 10.432-22.483 14.43 3.174-3.984 9.232-5.086 12.416-9.061 4.363-0.783 5.414-4.877 10.067-5.369z"/>
	<path id="path295" d="m317.28 212.75c3.199 6.531 2.596 16.867 5.033 24.16-2.627 0.396-1.424-2.185-1.679-3.354-1.328-6.119-2.362-13.831-3.354-20.806z"/>
	<path id="path297" d="m239.43 213.76c0.392-0.055 0.597 0.074 0.671 0.336-1.467 6.363-3.252 12.408-5.703 17.785-0.408-3.699 2.854-9.412 4.025-13.758-0.195-1.986 0.529-3.051 1.007-4.363z"/>
	<path id="path299" d="m164.93 220.13c0.542-0.096 0.578 0.316 1.006 0.334 8e-3 0.791-0.578 0.988-0.335 2.015-1.717-0.039-0.456-1.11-0.671-2.349z"/>
	<path id="path301" d="m64.596 223.49c1.64 6.004 3.156 15.582 2.685 21.477-1.486-6.354-2.482-14.96-2.685-21.477z"/>
	<path id="path303" d="m50.837 223.83h1.007c-0.389 9.424-1.477 18.092-3.02 25.502-0.841-7.35 2.155-16.62 2.013-25.502z"/>
	<path id="path305" d="m112.25 223.83c0.64 1.055-1.367 1.85-2.349 2.348-5.967 4.328-13.19 9.177-20.134 11.41 7.538-4.543 15.335-8.827 22.483-13.758z"/>
	<path id="path307" d="m212.92 223.83c-10.255 5.068-21.767 8.881-33.557 12.416 1.652-2.264 6.198-1.633 8.054-3.691 9.422-1.989 16.343-6.477 25.503-8.725z"/>
	<path id="path309" d="m45.133 225.17c0.542-0.097 0.578 0.315 1.007 0.336-0.97 8.09-1.348 16.771-4.698 22.481 1.014-6.463 3.727-15.222 3.691-22.817z"/>
	<path id="path311" d="m163.92 226.17h1.007c-1.105 5.158-2.146 10.383-4.027 14.766-0.133-4.721 2.449-9.631 3.02-14.766z"/>
	<path id="path313" d="m40.099 227.18c1.874 2.221 1.294 4.812-2.013 5.033-0.551-1.353-1.657-2.146-2.014-3.691 1.475-0.316 2.163-1.417 4.027-1.342z" fill="#eff0f0"/>
	<path id="path315" d="m160.57 227.18h1.007c-0.933 5.443-1.737 11.015-4.362 14.765 0.801-5.239 2.911-9.17 3.355-14.765z"/>
	<path id="path317" d="m41.441 231.54c0.95 1.521-1.604 2.414-3.02 2.686 0.185-1.716 2.3-1.504 3.02-2.686z" fill="#eff0f0"/>
	<path id="path319" d="m142.11 232.55c-3.007 1.977-6.547 3.338-10.067 4.697-3.524 1.36-7.378 2.64-11.409 3.354 6.748-3.094 14.021-5.663 21.476-8.051z"/>
	<path id="path321" d="m41.441 234.23c-0.326 1.352-1.301 2.055-2.013 3.021-1.213 0.315-0.468-1.322-0.671-2.016 0.936-0.293 1.658-0.802 2.684-1.005z" fill="#eff0f0"/>
	<path id="path323" d="m253.19 236.24c2.496 5.451 4.103 13.562 4.026 20.469-1.562-7.109-3.336-13.991-4.026-20.469z"/>
	<path id="path325" d="m300.5 237.25c-11.63 5.26-23.893 9.887-36.912 13.758 6.654-3.049 13.803-5.709 20.805-8.389 5.334-2.041 10.281-3.666 16.107-5.369z"/>
	<path id="path327" d="m352.51 237.92c-29-0.416-49.939 10.537-73.154 18.455-20.078 6.851-40.721 13.222-62.08 18.457-43.112 10.566-89.723 18.959-137.58 23.488-6.512 0.616-13.649 0.717-20.805 1.344-7.456 0.651-15.417 1.299-22.819 0.672-9.395-0.799-21.352-2.52-21.812-12.082 8.676 14.602 41.917 10.438 62.081 8.726 75.07-6.379 148.5-22.429 212.08-44.966 15.636-5.542 30.507-11.942 48.657-13.76 4.294-0.429 9.633-1.384 15.433-0.334z" fill="#eff0f0"/>
	<path id="path329" d="m250.17 238.25c2.6 5.121 3.771 13.453 3.691 20.136-1.69-4.903-2.075-13.931-3.691-20.136z"/>
	<path id="path331" d="m356.54 240.27c-31.396 12.676-61.936 26.206-96.309 35.905v-12.08c24.363-6.391 44.031-17.578 69.463-22.482-0.014 2.915-1.096 6.055 0.336 8.389 0.979-2.15-0.301-6.562 0.671-8.725 8.223-1.332 17.662-2.824 25.839-1.007z" fill="#fff"/>
	<path id="path333" d="m247.48 239.93c2.502 5.329 3.504 13.945 3.69 20.47-1.726-4.011-1.676-9.665-2.687-14.43-0.393-1.877-1.516-3.791-1.003-6.04z"/>
	<path id="path335" d="m244.46 240.6c2.546 5.396 3.728 13.946 3.69 20.806-1.442-6.328-2.775-14.373-3.69-20.806z"/>
	<path id="path337" d="m54.193 241.61h0.671c1.292 0.839 0.706 5.325 0.335 6.711-2.167-0.404-0.465-4.679-1.006-6.711z"/>
	<path id="path339" d="m159.9 244.29c-1.076 1.607-0.712 4.658-2.685 5.369 0.538-2.146 0.636-4.733 2.685-5.369z"/>
	<path id="path341" d="m155.87 245.3c0.571-0.123 0.633 0.264 0.671 0.673-2.123 4.812-3.989 9.881-6.375 14.43-1.612-1.473 1.792-3.516 1.342-6.041 2.061-2.413 2.741-6.208 4.362-9.062z"/>
	<path id="path343" d="m144.46 247.31c-8.895 3.301-19.21 6.96-28.859 8.391 9.378-3.039 18.611-6.222 28.859-8.391z"/>
	<path id="path345" d="m67.616 247.65c0.632 1.459 1.064 4.646 0.336 6.376-0.968-1.187-1.53-5.11-0.336-6.376z"/>
	<path id="path347" d="m349.83 247.65c1.001-0.131-0.438 2.543-0.336 3.691-0.739-0.761-0.392-3.283 0.336-3.691z" fill="#eff0f0"/>
	<path id="path349" d="m100.5 248.66c-6.817 3.696-14.138 6.891-22.483 9.061 4.153-2.848 9.964-3.959 14.765-6.041 2.248-0.975 4.152-2.176 6.04-3.354 0.779-0.11 1.289 0.051 1.678 0.334z"/>
	<path id="path351" d="m347.48 250.67c1.222-0.326 0.153 1.636 1.679 1.008-1.103 1.023-1.273 2.978-3.021 3.355v-3.355c1.077 0.295 0.695-0.87 1.342-1.008z" fill="#eff0f0"/>
	<path id="path353" d="m54.529 251.34c2.803 1.727-1.081 4.468-0.336 7.383-1.109 0.681-0.81 2.77-2.349 3.021 1.03-3.333 1.904-6.822 2.685-10.404z"/>
	<path id="path355" d="m344.8 253.02c0.771 0.685 0.122 2.787 0.336 4.026-0.869 0.361-1.247 1.213-2.349 1.343-0.352-2.815 0.366-4.556 2.013-5.369z" fill="#eff0f0"/>
	<path id="path357" d="m341.78 256.04c0.912 5.658-5.275 6.992-8.391 9.732-0.77-0.686-0.119-2.787-0.335-4.027 3.013-1.798 5.596-4.026 8.726-5.705z" fill="#eff0f0"/>
	<path id="path359" d="m31.375 259.4c1.671 0.454 2.559 1.691 4.027 2.35-0.612 2.742-2.266 4.445-3.691 6.375 2.602 0.473 3.373-3.783 4.698-5.705 2.922 0.101 4.697 1.344 7.718 1.344-0.43 2.926-1.896 4.814-3.02 7.048-5.698-0.119-10.555-1.079-12.416-5.033 0.916-2.108 1.828-4.215 2.684-6.379z" fill="#00a5d9"/>
	<path id="path361" d="m65.267 260.74c-1.555 1.577-4.815 1.448-7.383 2.015 1.427-1.526 5.187-2.361 7.383-2.015z"/>
	<path id="path363" d="m98.488 260.4c-1.428 2.375-6.08 1.525-8.054 3.355-5.903 0.584-9.955 3.021-16.107 3.354 1.879-1.736 4.702-1.396 7.047-2.014 5.647-1.489 11.402-3.506 17.114-4.695z"/>
	<path id="path365" d="m332.04 262.75v3.689c-11.247 6.538-23.714 11.855-36.913 16.441-4.328 2.171-10.02 4.732-14.765 5.369v-3.69c16.893-7.156 35.487-12.608 50.335-21.812 0.449 3e-3 0.897 3e-3 1.343 3e-3z" fill="#eff0f0"/>
	<path id="path367" d="m119.96 307.38c-0.295-4.391 0.666-8.026 0-11.074-2.015 2.486-0.471 6.312-1.007 11.074-15.73 2.598-36.49 4.062-50.335 5.369-0.867-2.846 0.022-8.402-0.335-10.738-1.874 1.259-0.941 3.896-1.007 6.039-0.045 1.469-0.412 3.195 0 4.699-12.876 0.258-22.921 2.197-37.248 0.334v-10.737c-2.473 2.261-0.059 7.333-1.342 10.737-2.507-0.4-5.151-0.666-7.383-1.342-0.41-4.955 1.273-8.199-0.335-12.416-1.544 2.594-0.239 8.037-0.671 11.746-5.076 0.133-1.984-10.197-2.349-13.761 10.752 6.167 30.393 4.231 43.959 3.354 25.941-1.679 52.579-4.722 78.859-9.062 40.374-6.666 80.999-15.64 117.11-26.511 0.472-0.141 0.634-0.135 1.007-0.334 0.561 3.135 0.561 8.609 0 11.744-42.024 14.582-88.93 24.274-138.93 30.879z" fill="#eff0f0"/>
	<path id="path369" d="m210.9 266.78c0.774 1.506-1.955 1.463-2.685 1.678-10.138 3.015-21.563 5.311-32.214 7.719-14.261 3.228-30.244 5.146-44.631 7.385 26.119-5.214 53.413-9.844 78.188-16.441 0.551-0.152 0.745-0.272 1.342-0.341z"/>
	<path id="path371" d="m123.99 272.82c2.278 2.771 1.951 9.883 1.678 14.094-1.302-2.016-0.935-7.66-1.342-11.408-0.119-1.083-0.815-1.87-0.336-2.686z"/>
	<path id="path373" d="m279.02 272.82c-0.572 0.77-1.892 0.793-3.021 1.006 0.576-0.768 1.893-0.793 3.021-1.006z" fill="#fff"/>
	<path id="path375" d="m117.95 273.82h1.007c0.632 4.291 0.838 9.006 1.007 13.76-2.495-2.785-0.54-9.77-2.014-12.752v-1.008z"/>
	<path id="path377" d="m120.64 273.82h0.671c1.664 0.372 0.808 2.309 1.006 3.691 0.487 3.391 2.002 8.5 0 10.402 0.581-5.835-1.728-8.785-1.677-14.093z"/>
	<path id="path379" d="m275.67 273.82c-0.634 0.598-1.354 1.106-2.686 1.008 0.842-0.392 1.293-1.17 2.686-1.008z" fill="#fff"/>
	<path id="path381" d="m49.495 274.83h1.007c-1.574 4.688-2.363 10.166-3.691 15.102 5.048 0.999 10.748-0.198 16.107 0 0.679-4.354 0.917-9.148 2.013-13.087 1.613 3.321-1.226 7.923-0.335 12.752 8.307 0.58 15.873-1.345 22.819-1.009-6.424 1.854-14.849 1.707-22.819 2.016-0.976 1.262 0.544 5.02-1.342 5.369-0.239-2.018-0.2-2.889 0-4.698-4.484-0.97-12.355 0.054-16.443 0-1 0.454-0.048 2.859-1.678 2.687 0.392-2.07-0.266-3.09-2.014-3.021 0.582-0.939 0.879-0.314 2.014-0.335 2.032-4.685 2.641-10.786 4.362-15.776z"/>
	<path id="path383" d="m291.78 277.52c-7.906 2.606-16.133 4.896-25.168 6.376 7.553-2.745 17.097-5.269 25.168-6.376z"/>
	<path id="path385" d="m17.28 283.89c0.744-0.186 0.478 0.641 1.007 0.671-0.301 1.377-1.026 2.329-1.678 3.356-1.096-1.337 0.371-2.972 0.671-4.027z" fill="#00a5d9"/>
	<path id="path387" d="m278.69 284.9c1.446 0.229 0.309 3.047 0.67 4.361-22.272 7.705-45.354 14.602-70.133 19.799-0.345-0.672 0.222-2.754 0-4.361 24.449-5.304 47.529-11.979 69.463-19.799z" fill="#eff0f0"/>
	<path id="path389" d="m18.287 286.24c1.538 0.141 1.775 1.581 2.685 2.35-0.171 0.947-0.812 1.427-1.007 2.351 0.917 0.815 1.338-0.896 2.014-1.342 2.857 0.665 6.413 1.854 9.396 1.342 0.082 2.208-1.131 3.12-1.342 5.034-5.821-0.667-10.028-2.948-13.087-6.376 0.046-1.521 1.492-1.641 1.341-3.359z" fill="#00a5d9"/>
	<path id="path391" d="m14.26 294.63c1.352 0.326 1.89 1.466 2.685 2.349-0.448 3.108-0.333 7.95-0.335 12.415-3.392-1.863-0.927-9.587-1.678-14.094-0.571 0.125-0.634-0.261-0.672-0.67z" fill="#fff"/>
	<path id="path393" d="m207.21 305.03c2.111-0.209 0.324 3.479 1.343 4.361-47.881 10.195-94.361 19.879-147.99 22.482v-4.361c30.201-1.836 61.079-5.92 91.61-11.408 1.849 0.117-0.365 2.998 0.671 3.354 1.512 1.098 0.882-2.334 1.006-3.691 16.99-3.081 36.591-6.327 53.356-10.737z" fill="#eff0f0"/>
	<path id="path395" d="m144.8 308.72c-8.071 2.779-16.682 5.02-25.839 6.711 3.5-2.227 8.347-2.607 12.751-3.689 4.545-1.118 8.875-3.19 13.088-3.022z"/>
	<path id="path397" d="m164.6 309.06c-7.826 2.801-16.428 4.824-25.167 6.711 6.983-3.42 16.437-4.367 24.161-7.047 0.269 0.178 0.544 0.35 1.006 0.336z"/>
	<path id="path399" d="m118.96 309.39c-4.073 1.812-11.097 2.234-15.772 2.352 4.978-1.065 10.543-1.539 15.772-2.352z" fill="#fff"/>
	<path id="path401" d="m151.51 309.39c-1.481 2.219-4.363 1.793-6.711 2.352-6.068 1.439-11.522 3.68-18.457 4.697 1.766-2.139 4.909-1.648 7.383-2.35 5.757-1.629 11.782-3.64 17.785-4.699z"/>
	<path id="path403" d="m16.609 312.08c-2.388 0.52-4.229 1.588-6.711 2.014 1.528-1.464 5.182-5.55 6.711-2.014z" fill="#fff"/>
	<path id="path405" d="m99.495 312.75c-0.602 0.041-0.708-0.412-1.342-0.336-5.432 0.984-2.154-0.266 0.335-0.672 1.908-0.312 5.441-0.469 3.02 0.336-1.115 0.372-0.381 0.016-2.013 0.672z" fill="#fff"/>
	<path id="path407" d="m20.301 313.08c-0.276 2.9-4.091 2.393-6.041 3.021-3.335 1.072-6.614 2.674-9.731 3.354-0.827-0.898 2.538-3.225 3.691-4.363 4.774 0.371 8.25-3.613 12.081-2.012z" fill="#fff"/>
	<path id="path409" d="m90.099 313.08c0.465-0.764 2.335-0.125 3.355-0.334 1.625 0.492-2.737 0.242-3.355 0.67-0.83 0.043-0.571-0.41 0-0.336z" fill="#fff"/>
	<path id="path411" d="m66.945 314.09c-0.371 0.859-1.802 0.658-3.02 0.67 0.37-0.859 1.802-0.658 3.02-0.67z" fill="#fff"/>
	<path id="path413" d="m63.253 314.43c-8.684 2.225-19.857 1.746-27.181 1.006 8.705-0.691 18.697-0.096 27.181-1.006z" fill="#fff"/>
	<path id="path415" d="m35.737 315.1c-2.43 1.146-7.605-0.729-2.349-0.336 0.955 0.072 1.658 0.608 2.349 0.336z" fill="#fff"/>
	<path id="path417" d="m34.059 317.78c-7.981 2.645-16.395 4.857-25.168 6.711 3.6-2.314 8.51-2.83 13.087-4.027 3.972-1.038 8.106-3.04 12.081-2.684z"/>
	<path id="path419" d="m3.187 326.17c-0.322 1.822-0.201 2.02-0.335 4.027-1.337-0.881-1.221-2.699-1.342-4.027 0.639-0.629 0.606 0.2 1.677 0z" fill="#eff0f0"/>
	<path id="path421" d="m4.193 326.84c1.068 0.273 2.47 0.213 3.355 0.67 0.347 1.24-0.058 2.35 0.336 4.027-1.259 0.844-3.346 0.129-4.027-0.672-0.132-1.585 0.108-2.8 0.336-4.025z" fill="#eff0f0"/>
	<path id="path423" d="m59.227 332.21c-16.274 0.441-26.231 2.256-40.604 1.006 0.136-1.43-0.325-3.457 0.336-4.361 15.664 0.809 29.333-1.07 40.604-1.344-0.146 1.533 0.338 3.695-0.336 4.699z" fill="#eff0f0"/>
	<path id="path425" d="m8.891 327.52c2.37 0.986 5.883 0.83 8.725 1.344v4.361c-3.117-0.127-6.057-0.432-8.725-1.006-0.655-1.072 0.377-2.839 0-4.699z" fill="#eff0f0"/>
	<path id="path427" d="m390.43 215.77c-0.942-2.363-0.334-4.48-2.014-6.712-2.975-18.142-6.854-35.854-11.074-52.013-3.262-12.488-5.986-25.335-10.738-36.577-5.852-13.842-11.981-28.509-19.463-42.282-3.635-6.692-8.438-13.194-12.416-20.134-1.861-3.251-3.56-7.118-5.705-10.403-2.127-3.259-4.549-7.118-6.711-9.396-5.108-5.383-9.395-13.013-14.766-18.792 1.244-0.77 3.241-0.787 4.363-1.678-1.157-1.023-4.125 0.775-4.698 0.335-5.578-3.93-11.069-7.947-18.456-10.067 3.842-1.862 8.883-2.526 13.758-3.354-2.678 1.685-7.132 1.593-9.396 3.691 2.415 0.286 5.161-1.994 8.389-2.014-3.427 5.207 4.479 9.533 10.403 10.403 4.982 0.731 10.213-0.844 14.094 0 0.691-0.091 0.08-1.486 1.006-1.342 6.793-1.709 12.975-4.028 20.135-5.369 3.625 0.984 6.799 3.567 9.396 6.04 8.148 7.756 14.704 18.992 22.146 26.846 3.871 6.42 7.017 13.566 11.41 19.463 3.459 9.583 8.573 16.202 11.072 26.174 2.214 3.861 3.661 8.792 5.369 13.423 1.727 4.682 2.579 9.674 5.033 13.087 2.16 9.804 4.797 18.771 7.719 28.188 2.409 14.777 5.031 27.42 6.711 41.611-0.646 0.81-0.99 1.917-1.007 3.354-1.668 0.682-1.974 2.727-3.691 3.355 0.395-1.285 1.87-1.486 2.352-2.686 1.018-3.861 0.456-7.896 0-11.744-2.425-20.452-7.459-40.116-12.081-58.389-0.229-0.779-0.856-1.157-1.342-1.678-5.868-21.312-14.156-40.206-23.826-57.718-5.752-10.086-11.752-19.988-19.127-28.523-5.754-6.659-10.741-14.101-18.12-19.127 3.224 4.549 7.932 7.799 11.409 12.081 1.806 2.223 3.156 4.595 5.033 6.711 8.938 10.083 16.65 22.203 22.817 35.57 0.329 0.454 0.896 0.67 1.342 1.007 6.446 12.631 11.83 26.569 16.778 40.604 1.649 4.681 2.475 9.751 5.033 14.094 3.904 16.917 8.729 36.156 11.073 54.698 0.535 4.236 0.928 9.187 0 12.416-9.938 8.404-21.113 15.574-30.872 24.16 4.844-1.844 8.918-6.557 13.759-10.066 3.544-2.57 7.194-4.947 10.737-7.719 0.887-0.692 1.885-2.178 3.021-1.678-9.615 7.386-19.473 14.531-28.855 22.15zm-75.84-194.29c9.887-2.31 22.227-5.065 32.215-8.389-11.227 2.307-22.446 4.622-32.215 8.389zm2.013 4.698c10.599-2.158 22.65-5.758 33.558-8.725-11.088 1.667-23.306 5.104-33.558 8.725zm18.793 7.718c8.593-1.81 16.996-3.809 25.168-6.04 0.018-0.577-0.26-0.86-0.672-1.007-7.227 3.287-17.646 3.383-24.496 7.047zm-13.088 3.02c3.047-0.198 5.516-0.973 7.719-2.014-2.147-0.096-6.131 0.474-7.719 2.014zm33.558 13.087c5.688-1.359 13.633-3.369 19.128-6.04-5.782 1.275-13.568 3.428-19.128 6.04zm-16.443 5.369c3.591-0.458 9.11-1.834 12.08-4.027-4.468 0.9-8.556 2.181-12.08 4.027zm37.248 17.114c3.705-0.657 6.765-1.961 9.731-3.356-3.935 0.427-7.129 1.597-9.731 3.356zm-19.799 6.711c5.531-1.516 11.056-3.038 15.771-5.369-4.793 0.924-11.29 3.017-15.771 5.369zm46.309 43.96c1.225-0.238 4.523-1.289 5.369-3.021-2.141 0.656-4.182 1.411-5.369 3.021zm-24.497 11.745c6.277-2.342 14.562-5.569 20.137-9.731-5.966 2.65-14.014 6.121-20.137 9.731zm29.195 33.222c0.602 2.675 0.303 5.972 2.015 8.388-2.024-13.41-4.794-26.079-9.062-37.249 1.912 10.178 4.912 19.338 7.047 28.861zm-2.684 1.677c-0.85-6.088-2.653-11.217-3.691-17.114-0.429-0.018-0.465-0.43-1.007-0.335 1.505 5.876 1.881 12.883 4.698 17.449zm-1.679 6.711c-0.917-6.241-2.143-12.174-4.36-17.113 0.77 5.057 2.006 12.523 4.36 17.113zm13.423 0.672c-7.116 4.793-14.665 9.242-21.478 13.759-2.218 1.47-4.774 2.903-6.376 5.033 10.136-5.972 19.635-12.579 29.53-18.792h-1.676z" fill="#eff0f0"/>
	<path id="path429" d="m357.55 238.25c-0.531 0.283 1.648 1.894 0.336 3.021-2.006 1.015-4.049 1.991-6.376 2.687 1.222 8.045-2.771 10.877-5.705 14.765-3.581 1.491-5.749 4.983-9.06 7.048-3.246 2.021-7.278 2.893-10.067 5.704-21.823 10.056-45.185 18.573-68.792 26.847-60.359 15.918-126.04 31.025-196.64 34.898-10.222 0.561-19.342 1.498-28.188 2.014-4.611 0.268-10.557 0.227-16.443-0.336-6.158-0.59-13.29-1.256-16.443-5.033-0.49-1.52 0.288-5.139 0-8.391 3.555-4.945 7.886-9.115 13.423-12.08-1.538-4.816-1.948-14.254-1.007-20.805 0.678-4.721 3.95-8.782 6.04-13.424 2.992-6.646 6.261-13.293 9.732-19.799 1.323-2.479 2.159-4.414 3.355-7.719 0.763-2.105 1.777-4.533 2.349-7.718-2.751-1.831-5.979-7.082-3.356-10.737 0.882-1.23 2.647-1.246 4.362-2.015 0.515-7.374-1.915-13.972-1.006-22.146 1.025-9.23 7.272-18.338 12.416-25.84 5.493-8.012 11.292-15.083 16.107-21.813 5.182-7.242 10.594-14.873 16.778-21.477 3.15-3.363 6.137-6.644 9.061-10.067 3.701-4.335 7.338-8.406 11.409-12.081 5.268-4.755 10.664-10.377 16.443-15.101 1.797-6.805-2.852-18.925 1.007-23.826 1.851-2.351 7.114-2.853 11.074-2.349 4.463 0.568 8.285 3.631 11.745 4.698 16.531-12.027 34.059-26.102 53.691-36.242 10.5-5.423 21.818-10.476 33.221-15.436 23.649-10.288 49.834-16.954 75.168-22.147 6.247-1.281 13.896-4.374 22.147-3.02 4.241 0.696 5.372 4.229 6.711 8.725 5.633 4.957 13.995-2.488 21.142 1.007 8.932 8.376 16.795 18.014 24.496 28.188 2.963 3.913 5.832 8.062 8.389 12.416 1.287 2.189 1.89 4.956 3.356 7.047 4.603 6.552 8.864 16.591 12.416 24.832 3.502 8.128 5.711 16.77 9.06 25.167 0.354 0.881 1.268 1.437 1.68 2.349 1.419 3.136 2.16 7.725 3.354 11.745 3.82 12.843 7.928 30.573 10.066 43.288 0.714 4.239 1.639 10.124 2.014 14.767 0.85 10.473-2.922 11.432-8.725 16.105-17.946 14.459-37.849 29.674-55.705 42.951-1.694-0.2-3.183-0.613-5.032-0.667zm-27.516-228.19c-0.812-2.992-2.202-5.404-3.691-7.718-7.681-0.848-15.974 2.872-23.488 4.363 0.235 1.046-1.877 1.443-0.672 2.349 1.596-1.218 3.897-1.833 6.041-2.349 5.986-1.443 12.73-3.006 17.784-3.021 2.556 2.813 2.134 8.604 7.382 8.725-0.315-1.587-2.645-1.158-3.356-2.349zm89.261 183.56c-1.137-0.5-2.135 0.983-3.021 1.678-3.545 2.771-7.194 5.146-10.738 7.719-4.841 3.514-8.915 8.225-13.758 10.066 9.758-8.588 20.934-15.756 30.872-24.162 0.927-3.229 0.534-8.18 0-12.416-2.348-18.542-7.171-37.779-11.074-54.696-2.561-4.343-3.383-9.414-5.033-14.094-4.948-14.034-10.332-27.973-16.778-40.604-0.447-0.336-1.013-0.553-1.342-1.007-6.167-13.367-13.881-25.487-22.818-35.57-1.877-2.116-3.229-4.489-5.033-6.711-3.479-4.282-8.187-7.532-11.408-12.081 7.379 5.026 12.365 12.469 18.12 19.127 7.376 8.536 13.376 18.438 19.128 28.523 9.669 17.512 17.957 36.405 23.825 57.718 0.483 0.521 1.112 0.899 1.342 1.678 4.622 18.272 9.657 37.937 12.081 58.389 0.456 3.852 1.018 7.883 0 11.744-0.479 1.197-1.957 1.398-2.352 2.686 1.721-0.631 2.023-2.676 3.691-3.354 0.017-1.438 0.361-2.547 1.007-3.356-1.68-14.188-4.302-26.833-6.711-41.611-2.922-9.416-5.559-18.383-7.719-28.188-2.454-3.414-3.309-8.406-5.033-13.087-1.708-4.631-3.155-9.562-5.369-13.423-2.499-9.973-7.614-16.592-11.073-26.174-4.395-5.896-7.539-13.042-11.41-19.463-7.441-7.854-13.998-19.09-22.146-26.846-2.599-2.473-5.771-5.056-9.396-6.04-7.16 1.341-13.342 3.66-20.135 5.369-0.927-0.144-0.313 1.251-1.007 1.342-3.881-0.844-9.108 0.731-14.094 0-5.925-0.87-13.83-5.196-10.403-10.403-3.228 0.02-5.974 2.3-8.389 2.014 2.264-2.099 6.718-2.007 9.396-3.691-4.875 0.83-9.916 1.493-13.759 3.354 7.388 2.121 12.878 6.138 18.456 10.067 0.573 0.44 3.541-1.359 4.698-0.335-1.122 0.891-3.119 0.908-4.363 1.678 5.371 5.779 9.655 13.409 14.767 18.792 2.162 2.277 4.584 6.137 6.711 9.396 2.146 3.285 3.843 7.152 5.705 10.403 3.978 6.94 8.781 13.442 12.416 20.134 7.479 13.772 13.61 28.44 19.463 42.282 4.752 11.242 7.478 24.089 10.738 36.577 4.221 16.161 8.1 33.872 11.073 52.013 1.681 2.229 1.068 4.349 2.015 6.712 9.382-7.622 19.24-14.767 28.858-22.149zm-98.993-187.58c0.78 2.575 0.113 6.598 0.336 9.731 3.822-0.205 0.057-7.997 2.35-9.731 0.779 2.24 0.113 5.926 0.336 8.725 4.335-0.331 0.121-7.085 2.35-9.06-1.06-1.443-4.416-1.081-5.372 0.335zm-3.356 0.671v9.06h2.35c0.755-2.712 0.133-6.803 0.336-10.067-1.244-0.013-1.945 0.515-2.686 1.007zm-14.093 4.026c4.006 1.643 9.002-1.197 13.088-1.678v-2.349c-4.458 1.248-10.258 1.152-13.088 4.027zm23.489 3.356c1.63 0.063 2.729-0.404 3.69-1.007-1.979-1.264-2.498-3.988-4.025-5.705-0.113 2.709 0.301 5.047 0.335 6.712zm-47.65-2.349c3.131 1.327 6.426-2.048 10.736-1.678-2.364-1.88-8.482 0.2-10.736 1.678zm26.846 0.336c2.053 2.891 8.398-0.189 10.402-1.678-3.323-0.635-6.542 1.733-10.402 1.678zm-10.739 0.336c-1.364-0.726-1.813-1.85-3.356-2.014-3.065-0.325-5.912 1.774-9.396 2.014 4.45 2.821 8.808 5.734 11.074 10.738 3.17-2.087 7.718-2.796 11.743-4.026-1.37-3.367-6.739-4.943-10.065-6.712zm-143.62 58.724c-3.93 2.922-8.743 5.169-10.738 9.396 1.318 0.088 1.643-0.818 2.013-1.678 2.612-1.86 5.081-4.243 7.718-6.375 2.571-2.08 5.156-4.571 8.054-5.369-4.547 4.514-10.261 7.86-14.765 12.416 2.038-0.024 2.949 1.078 5.033 1.007 1.542-1.722 3.66-3.165 5.705-4.698 1.934-1.45 3.977-3.758 6.375-3.691-3.855 2.968-7.968 5.678-11.409 9.061 5.074 2.644 11.846 3.59 9.731 13.423 2.438-0.47 2.577-3.24 5.034-3.691-1.051 2.529-3.607 3.552-5.034 5.705-1.283 6.838 2.383 19.006-4.698 20.47-4.9 1.013-6.422-2.816-10.738-3.691-2.542 1.597-3.607 4.67-5.705 6.711 1.865 1.267 2.119 4.145 3.691 5.705 1.831-2.534 4.318-6.194 6.711-7.047-6.87 8.678-13.72 17.376-21.476 25.167 3.6-6.244 8.921-10.766 13.087-16.443-4.639 1.736-8.553 4.199-13.087 6.04-7.314-6.78-14.196-13.992-27.517-14.765-2.171 1.328-3.551 5.129-6.04 5.033-0.179-0.483 1.308-0.819 0.335-1.007-1.151 1.514-2.96 1.855-3.355 3.356-0.294 1.564 0.87-0.462 1.007 0.671-2.319 4.057-6.2 6.552-8.725 10.403 4.88-0.49 5.851-6.676 9.396-7.382-0.257 1.98-2.381 2.093-2.685 4.027 8.247 1.149 14.397 4.395 19.127 9.06-0.711 1.415-2.056 2.195-2.685 3.691 1.166 0.736 2.06 1.743 2.685 3.02-3.208 3.392-5.326 7.873-9.061 10.738-3.837 6.789-9.542 11.711-13.087 18.792-3.791 3.033-5.015 8.632-9.396 11.073-3.212 4.617-8.642 10.105-16.107 10.738-6.89 0.584-13.081-2.049-14.094-8.389-0.54-3.382 1.334-8.691 3.02-12.082 2.702-5.432 7.873-9.629 10.403-14.766-9.18 11.626-19.88 21.729-23.826 38.591 0.033 0.646 1.31-0.579 1.342 0.673-1.417 5.021 1.163 8.885 3.691 11.071 2.637 1.056 6.378 1.005 8.725 2.351-8.782 0.506-12.882-3.672-14.429-10.402-0.139 15.195 19.144 15.066 29.194 10.066 7.292-3.627 15.732-10.129 22.147-16.441 5.256-5.174 9.229-11.196 12.416-15.771h1.007c7.261-10.414 14.723-20.625 23.154-29.867v-1.342c13.341-14.751 26.4-30.387 40.604-43.959 5.594-5.346 12.798-9.777 19.127-15.101 4.476-3.766 8.835-7.587 13.422-11.074 11.416-8.676 23.993-15.544 36.913-22.147 7.249-3.705 13.729-8.089 21.142-11.074 7.716-3.107 15.787-5.127 24.496-7.718 5.375-1.599 10.912-5.79 12.416-10.738 3.082-10.135-5.535-20.155-15.771-19.463 1.415-0.057-6e-3 0.516 0 1.007-1.604-0.471-3.036 0.968-4.024 0 1.812-0.628 0.061-0.401-0.338-1.342 0.859-0.035 1.602-0.19 2.016-0.671-7.866 0.144-14.609 4.083-21.479 5.369-2.441 0.458-5.316-0.243-6.711 2.349-7.547 2.744-15.304 5.278-21.812 9.061 2.729-0.184 4.553-3.05 7.384-2.014-22.732 9.37-44.646 19.56-63.087 33.222 8.779 2.567 7.608 16.786 5.369 26.51-0.516 2.241-1.038 4.833-2.685 5.705 2.209-9.822 7.703-27.627-3.691-31.543-2.535 1.381-4.542 3.289-7.047 4.698 0.513-1.396 3.286-2.296 3.02-3.356-3.62 2.804-7.459 5.785-11.408 8.721zm157.38-56.711c2.836 0.072 4.346 1.471 7.383 1.342v-3.355c-2.829 0.305-5.452 0.813-7.383 2.013zm-269.8 224.5c-0.923 0.867-3.29 0.291-3.355 2.014 1.532-0.734 1.069 0.857 1.006 3.355-1.021 0.957-1.715-1.346-1.678 0.672 0.19 0.35 0.732 2.328 0.671 3.354-0.295-0.691 1.106-1.271 1.006-0.671-0.752 4.06-2.887 6.731-4.026 10.401 1.004 1.121 1.973 2.277 3.691 2.686 2.224-2.492 2.418-8.74 5.034-9.73-0.829 3.98-3.017 6.604-3.691 10.738 2.918-0.121 4.157 1.437 7.383 1.008 1.078-3.621 1.486-7.91 3.355-10.738-0.016 3.037-1.523 7.4-2.349 10.738 0.748 0.93 3.785-0.431 4.027 1.006h-4.362c-0.87 2.373-1.994 4.494-2.685 7.048 4.346 0.196 8.469-0.991 12.751-0.337-8.548 1.896-23.129 2.805-27.517-3.354-2.938 5.899-5.945 11.729-8.725 17.785 0.857 0.709 0.936 2.196 2.349 2.349 1.388-2.455 3.076-5.23 4.362-8.054 1.341-2.94 1.539-6.733 4.362-8.389-2.218 6.171-5.136 11.644-7.718 17.448 1.791 2.014 6.151 1.455 9.396 2.015 3.542-5.185 4.671-12.778 9.061-17.114-3.177 7.896-7.106 15.042-10.067 23.154 23.789 2.468 47.169-0.893 68.792-3.355 39.31-4.479 76.02-11.031 112.42-19.127 9.934-3.488 19.977-4.931 29.529-7.719 10.55-3.079 21.334-6.501 31.879-10.066 27.628-9.342 53.308-24 88.591-18.791 8.876-6.562 18.249-12.623 25.839-20.471-4.398 2.59-8.283 6.246-12.416 9.396-4.111 3.134-8.328 6.521-13.088 8.054 9.117-5.647 16.531-12.999 25.84-18.456-2.1-9.098-3.479-18.787-5.369-28.188-3.994-19.855-9.211-39.354-14.43-57.382-1.434-1.028-0.996-3.925-2.686-4.698-5.349-17.919-13.776-32.754-21.143-48.657-8.677-10.987-13.548-24.633-22.146-35.57-5.689-7.238-11.011-14.534-16.777-21.477-4.84 0.753-8.281 2.904-13.088 3.691 2.451 8.812-2.006 15.362-7.047 18.792 11.928-1.378 22.604 1.004 28.188 7.047 12.604 13.88 22.637 35.839 30.872 57.046 3.665 9.436 6.063 21.262 6.041 32.215-0.028 13.206-5 21.098-10.738 29.194-8.653 8.236-17.806 15.975-26.175 24.497-12.16 10.145-25.996 18.688-39.934 27.182-6.084 3.707-12.443 7.623-18.793 10.738-4.426 2.172-9.584 3.865-14.43 6.041-12.072 5.418-25.464 11.449-39.261 16.106-17.465 5.894-35.349 11.836-55.034 14.765-12.673 1.887-40.013 6.678-44.631-5.369-2.95-7.692 3.682-15.716 8.389-21.141 7.048-8.123 13.693-14.423 21.141-21.141 3.767-3.399 7.484-6.979 11.409-9.732 21.788-15.293 45.167-30.632 71.141-40.604 5.771-2.216 12.439-3.714 17.785-6.375 15.878-4.837 35.011-11.595 55.033-14.765 18.6-2.945 45.373-2.049 47.649 14.094 0.605 4.297-0.444 7.292-1.679 10.403 8.622-8 15.42-16.583 16.441-30.873 0.854-11.934-1.89-23.419-5.367-31.879-3.354-8.154-6.24-18.172-9.731-25.839-2.11-4.635-4.793-9.665-7.048-13.423-2.04-3.401-4.292-6.504-6.375-9.396-3.298-4.577-6.104-9.411-9.062-12.081-7.582-6.839-24.352-6.754-37.248-3.355-6.576 1.733-12.818 4.647-19.127 7.382-14.646 6.352-28.941 13.881-41.609 21.812-17.332 10.852-33.228 24.095-47.986 36.577-4.107 3.474-7.812 7.848-11.409 11.745-9.29 10.066-18.899 20.046-27.181 30.537-1.702 2.156-3.271 4.63-5.034 6.711-0.189 0.223-1.119 0.126-1.342 0.335-1.734 1.628-3.355 4.534-5.034 6.711-5.221 6.777-10.98 14.169-15.101 20.806-0.974 0.027-1.231 0.514-1.678 1.006-5.016 5.546-9.243 12.383-15.771 17.785-6.018 4.98-12.83 10.369-20.134 13.422-9.175 3.837-21.283 2.842-26.51-3.354 0.604 3.838-0.853 7.1 1.007 8.727 0.537-2.612-1.48-6.041 0-7.383 1.437 1.473 3e-3 5.812 1.678 7.047 2.124 0.109-9e-3 -4.035 2.014-4.026-0.673 5.705 3.717 9.168 2.013 14.094-0.409 1.185-1.979 2.124-2.685 3.356-1.093 1.906-1.11 4.238-3.02 5.369-0.331-2.362 1.938-3.882 1.349-5.374zm176.18-206.71c-3.11 1.408-7.551 3.548-4.699 2.685 4.333-1.312 8.184-3.197 12.751-5.705-2.634 1.217-5.36 1.8-8.052 3.02zm-28.525 14.765c1.269-0.856 3.079-1.172 4.027-2.349-1.476 0.649-3.339 0.911-4.027 2.349zm-10.738 6.711c2.5-1.415 4.896-2.934 7.047-4.698-2.522 1.393-5.249 2.581-7.047 4.698zm-9.06 6.376c2.798-1.584 7.297-4.98 8.389-6.041-3.067 1.744-5.911 3.71-8.389 6.041zm-3.021 2.349c0.23-1.335 2.335-0.797 2.349-2.349-0.885 0.47-2.844 1.612-2.349 2.349zm-44.63 13.087c-2.823 5.779-0.24 14.938-1.007 22.819 5.66 0.044 5.83 5.579 11.409 5.705 1.022-5.275-1.469-13.134-0.335-20.134 0.683-4.213 4.746-4.348 7.383-7.047-4.699-2.087-12.376-5.396-17.45-1.343zm12.416 11.41c2.298-1.952 4.816-3.685 7.718-5.034v-3.355c-4.623 0.422-9.984 3.267-7.718 8.389zm11.409-5.705c-2.232 0.547-3.384 2.562-5.705 3.691-1.314 6.763-0.386 15.087-1.007 21.812 2.776 2.257 6.106 3.96 9.731 5.369 0.97-1.779-0.871-7.311 1.343-8.725v10.403c2.846 0.389 3.181 2.584 6.375 2.013 7.171-1.283 2.214-21.652 3.691-28.523-4-1.57-9.597-7.225-14.428-6.04zm-11.744 6.711c0.216 1.461-0.438 3.793 0.335 4.698 0.895-1.125 3.778-2.029 3.02-3.691-1.058 0.396-1.156 1.752-3.02 1.342 1.062-1.735 3.593-2 3.691-4.698-1.806 0.32-2.283 1.968-4.026 2.349zm3.02 3.692c-0.547 1.354-2.708 1.095-3.02 2.685v9.731c1.982-0.143 2.538-1.712 3.691-2.685-0.679-2.82 0.998-7.319-0.671-9.731zm-11.746 10.067c-3.863-4.107-7.054 0.774-9.396 3.691 1.138 0.541 2.862 0.493 2.349 2.685 1.328 0.433 0.685-1.104 2.014-0.671-1.271 1.401-2.706 5.5-1.007 7.718 1.846-2.181 3.397-4.657 6.04-6.041 0.137-2.542-0.205-5.822 0-7.382zm2.014 7.047c5.861 1.969 9.482 6.177 13.423 10.067 1.192-2.5 3.45-3.933 4.362-6.711-2.627-2.519-8.393-1.898-7.383-8.054-2.789 2.977-7.687 1.074-10.738-0.336-0.046 2.099-0.491 3.226 0.336 5.034zm-13.423 2.684c1.686-0.231 1.56 1.349 3.355 1.007 0.418-1.425-1.116-0.897-1.342-1.678 2.179-1.367 1.058-4.207-1.342-4.363-0.435 1.467-0.672 3.131-0.671 5.034zm12.752-1.342c-2.723 2.199-5.671 4.172-7.382 7.382 3.527-4e-3 5.521-6.063 9.06-6.04-1.793 2.905-5.533 3.862-6.711 7.383 4.209 2.949 7.224 7.094 8.725 12.751 3.947-1.87 8.005-3.628 11.745-5.705-1.172-3.639-3.053-6.567-5.705-8.725-2.619 2.209-4.995 6.39-8.054 7.047 2.035-2.887 4.48-5.363 7.383-7.382-1.914-3.344-5.231-5.284-9.061-6.711zm-27.852 10.067c3.172-1.988 7.793-6.056 8.389-8.389-2.75 2.842-5.733 5.453-8.389 8.389zm10.067-5.369c1.429 0.199 2.22-0.241 3.356-0.335-0.231-1.349 0.321-1.916 0.335-3.02-1.936 0.413-2.857 1.84-3.691 3.355zm5.033-0.336c1.304-0.01 2.555 1.227 3.355 0.671-0.011-2.002-1.794-2.232-3.355-2.685v2.014zm-4.697 3.692c7.475 1.934 13.494 7.478 18.456 10.738-2.021-5.138-5.994-8.324-10.403-11.074v-1.342c-2.696-1.384-3.872-0.221-7.382-0.671 1.488 2.651 6.181 2.097 7.382 5.034-2.747-1.503-6.512-1.989-8.053-4.698-1.686-0.232-1.56 1.348-3.356 1.006 0.558 1.778 2.213 0.711 3.356 1.007zm-17.786 17.113c-1.108 0.794-1.973 1.831-2.685 3.021-1.35-0.231-1.916 0.321-3.021 0.335-6.7 7.095-13.391 17.165-19.463 25.839-2.245 3.207-4.896 6.43-5.369 10.066-0.877 6.738 6.74 9.172 11.409 9.396 15.441 0.739 21.341-16.129 29.53-25.839 2.27-2.691 5.43-5.523 7.383-8.054-0.42-1.594-1.844-2.183-2.685-3.355 0.587-1.426 1.752-2.275 2.349-3.691-4.397-3.99-9.813-6.963-17.448-7.718zm194.63 15.101c-5.479 1.195-10.955 2.053-15.771 3.355-30.481 8.245-59.319 17.463-84.228 31.208-7.742 4.273-15.478 9.837-23.154 15.1-7.63 5.231-15.453 10.178-22.483 16.107-3.491 2.943-6.564 6.346-9.731 9.396-3.153 3.037-6.724 5.703-10.067 9.061-5.207 5.229-15.366 15.219-14.765 23.825 0.87 12.461 25.682 10.528 37.584 8.725 19.794-3.002 38.539-8.551 56.04-14.765 25.002-8.878 53.023-19.99 73.825-32.887 14.625-9.065 29.91-16.748 42.617-28.522 2.314-2.146 4.73-4.429 6.712-6.376 5.7-5.607 14.224-11.512 13.423-21.141-1.092-13.13-18.332-15.762-32.215-15.101-5.751 0.276-11.861 0.722-17.787 2.015zm-233.22 38.927c-0.882 0.099-0.264-1.304-1.342-1.007-1.215 4.111 0.985 9.449 4.363 9.729-1.701-1.063-4.854-5.394-2.685-7.047-0.061 6.224 6.026 7.739 10.738 6.375-1.187 2.092-5.473 0.787-7.382 1.345 11.019 3.446 18.652-4.398 23.154-10.738-4.483 0.039-5.475 6.984-9.396 5.369 1.459-0.442 2.473-1.33 3.02-2.687-5.701 2.646-14.409 2.644-17.449-2.351v4.026c0.705 0.861 2.281 0.853 2.349 2.351-4.965-0.057-3.318-8.899-2.685-11.746 0.755 0.141-0.05 1.841 1.007 1.679 0.746-1.269 1.391-2.638 3.02-3.021-0.422 2.375-2.65 2.941-3.02 5.369 3.81 7.825 19.417 4.316 22.147-2.35-9.014 1.725-21.217-1.148-19.127-10.402-1.257 0.979-2.508 1.967-3.02 3.69 0.673 0.073 1.358-1.498 2.013-0.337-2.928 2.897-4.918 6.723-5.705 11.753zm25.838-2.35c2.526-0.721 5.726-2.547 5.369-5.033-2.278 1.189-4.001 2.933-5.369 5.033zm-39.597 41.61c0.356 1.546 1.463 2.341 2.014 3.69 3.308-0.221 3.887-2.812 2.013-5.032-1.864-0.074-2.552 1.027-4.027 1.342zm-2.684 1.007c-3.968 0.348-1.562 9.562 3.356 8.725 0.838-0.875 1.071-3.885-0.336-4.36 0.103 1.442 0.024 2.709-1.342 2.687-1.979-0.146-2.339-1.91-2.684-3.691 0.708-0.299 0.583-1.43 1.678-1.342 1.489-0.035 1.166 1.742 2.349 2.014-0.271-2.12-1.251-4.187-3.021-4.033zm5.033 4.699c1.417-0.271 3.97-1.163 3.02-2.686-0.72 1.182-2.835 0.97-3.02 2.686zm0.336 1.006c0.203 0.691-0.542 2.331 0.671 2.014 0.712-0.967 1.687-1.668 2.013-3.021-1.026 0.204-1.748 0.713-2.684 1.007zm298.32 3.019c-18.152 1.815-33.021 8.218-48.657 13.76-63.583 22.537-137.01 38.587-212.08 44.966-20.164 1.714-53.404 5.876-62.081-8.726 0.46 9.562 12.417 11.283 21.812 12.082 7.401 0.627 15.363-0.021 22.819-0.672 7.156-0.627 14.293-0.728 20.805-1.344 47.858-4.529 94.47-12.922 137.58-23.488 21.356-5.235 42-11.606 62.08-18.457 23.213-7.918 44.154-18.871 73.154-18.455-5.799-1.05-11.138-0.095-15.435 0.334zm-6.376 3.021c-0.972 2.161 0.309 6.572-0.671 8.726-1.432-2.336-0.35-5.475-0.336-8.39-25.432 4.904-45.1 16.093-69.463 22.481v12.082c34.373-9.7 64.912-23.23 96.309-35.906-8.177-1.816-17.616-0.324-25.839 1.007zm-299.33 85.905c19.294-0.871 39.371-1.34 58.725-3.354 45.232-4.711 89.911-14.248 131.88-23.154 15.846-4.607 33.084-9.012 48.994-14.43 7.291-2.482 14.5-5.391 21.476-8.055 7.487-2.859 14.784-5.016 20.47-8.727-16.686 4.578-34.249 8.728-51.006 13.422-1.854 0.521-4.003 1.019-6.041 0.674 13.773-4.143 29.318-7.939 43.624-11.41 5.03-1.221 10.06-3.15 14.767-3.689 3.434-0.395 4.396-0.947 7.383-2.351 10.729-5.038 21.621-11.858 27.518-20.808-11.083 4.287-22.821 7.9-33.223 13.761-10.496 5.912-22.094 9.543-33.223 14.43 7.338-1.276 14.368-4.646 21.477-5.032-37.344 9.856-72.321 22.084-111.41 30.201 3.2 2.17 8.167 2.57 11.745 4.361-4.713 0.711-8.823-3.314-13.758-3.689-3.72-0.283-10.01 1.979-15.771 3.02-7.091 1.277-14.345 3.07-19.463 3.691-16.773 2.035-31.504 6.281-44.631 9.061 3.279-2.426 9.364-2.047 12.751-4.361-17.696 2.594-40.099 5.393-60.402 6.375-3.601 0.174-7.269-0.523-10.738 0-9.1 1.373-17.061 6.693-25.167 6.041 6.59-2.023 13.889-3.338 20.134-5.705-8.568-0.312-14.767 0.027-21.477-1.342-1.988-0.406-3.096-1.115-4.698-1.008-3.189 0.217-6.724 2.385-10.067 3.355-3.305 0.961-8.055 0.934-9.396 4.361 7.049 0.104 13.485-5.074 20.47-5.033-5.816 2.686-13.265 3.738-18.792 6.711 7.605 3.475 18.461 3.108 27.848 2.684zm318.12-75.838c-0.102-1.147 1.337-3.821 0.336-3.69-0.728 0.407-1.075 2.929-0.336 3.69zm-3.355 0.336v3.355c1.746-0.38 1.918-2.332 3.021-3.355-1.523 0.628-0.457-1.334-1.68-1.008-0.647 0.138-0.265 1.303-1.341 1.008zm-3.356 6.712c1.102-0.13 1.479-0.981 2.349-1.343-0.214-1.239 0.435-3.344-0.336-4.026-1.648 0.813-2.366 2.554-2.013 5.369zm-9.732 3.355c0.215 1.24-0.435 3.344 0.335 4.027 3.113-2.74 9.302-4.074 8.39-9.732-3.131 1.679-5.714 3.907-8.725 5.705zm-309.4 9.396c-1.847 3.988-5.379 7.994-4.698 12.081 3.948-7.798 7.656-15.833 11.409-23.825-3.418 2.602-4.755 7.52-6.711 11.744zm5.034-5.369c1.861 3.954 6.718 4.914 12.416 5.033 1.125-2.23 2.59-4.122 3.02-7.047-3.021 0-4.796-1.244-7.718-1.344-1.325 1.922-2.096 6.178-4.698 5.705 1.426-1.931 3.079-3.634 3.691-6.375-1.468-0.658-2.356-1.896-4.027-2.351-0.855 2.168-1.767 4.275-2.684 6.379zm302.01-3.02c-14.849 9.201-33.442 14.653-50.335 21.812v3.69c4.746-0.637 10.438-3.198 14.765-5.369 13.199-4.586 25.666-9.903 36.913-16.441v-3.691c-0.447-1e-3 -0.895-1e-3 -1.343-1e-3zm-71.811 13.758c0.56-3.135 0.56-8.609 0-11.744-0.375 0.199-0.537 0.193-1.008 0.335-36.115 10.87-76.74 19.844-117.11 26.51-26.28 4.341-52.917 7.384-78.859 9.062-13.566 0.877-33.207 2.812-43.959-3.354 0.365 3.562-2.727 13.894 2.349 13.761 0.432-3.709-0.874-9.152 0.671-11.746 1.609 4.217-0.075 7.461 0.335 12.416 2.232 0.676 4.875 0.941 7.383 1.342 1.284-3.404-1.13-8.479 1.342-10.737v10.737c14.327 1.863 24.372-0.076 37.248-0.334-0.412-1.504-0.045-3.23 0-4.699 0.065-2.145-0.867-4.78 1.007-6.039 0.358 2.336-0.531 7.895 0.335 10.738 13.846-1.309 34.605-2.771 50.335-5.369 0.536-4.762-1.008-8.588 1.007-11.074 0.666 3.048-0.295 6.686 0 11.074 49.997-6.611 96.903-16.303 138.93-30.879zm17.113-2.685c1.129-0.213 2.446-0.236 3.02-1.006-1.129 0.213-2.446 0.238-3.02 1.006zm-3.02 1.008c1.33 0.101 2.051-0.41 2.685-1.008-1.394-0.162-1.845 0.616-2.685 1.008zm-152.68 34.898c54.629-7.268 106.16-18.438 152.35-34.898-46.969 15.446-98.502 26.33-152.35 34.898zm-103.69-21.811c0.651-1.027 1.376-1.979 1.678-3.356-0.529-0.03-0.263-0.854-1.007-0.671-0.3 1.055-1.767 2.69-0.671 4.027zm192.62 16.778c0.222 1.607-0.345 3.689 0 4.361 24.78-5.197 47.86-12.094 70.133-19.799-0.361-1.314 0.777-4.133-0.67-4.361-21.934 7.82-45.014 14.495-69.463 19.799zm-192.28-15.1c3.06 3.428 7.266 5.709 13.087 6.376 0.211-1.914 1.424-2.826 1.342-5.034-2.983 0.514-6.539-0.677-9.396-1.342-0.675 0.447-1.097 2.158-2.014 1.342 0.195-0.924 0.835-1.4 1.007-2.35-0.91-0.77-1.146-2.209-2.685-2.351 0.152 1.72-1.294 1.84-1.341 3.359zm-2.013 5.703c0.751 4.507-1.714 12.23 1.678 14.094 3e-3 -4.465-0.113-9.307 0.335-12.415-0.795-0.883-1.333-2.022-2.685-2.349 0.038 0.409 0.101 0.795 0.672 0.67zm138.92 20.471c-0.125 1.355 0.506 4.787-1.006 3.691-1.037-0.355 1.177-3.236-0.671-3.355-30.531 5.488-61.41 9.572-91.61 11.408v4.363c53.625-2.604 100.1-12.289 147.99-22.484-1.019-0.883 0.769-4.57-1.343-4.361-16.766 4.41-36.367 7.656-53.356 10.738zm-50.671-4.027c4.675-0.115 11.699-0.537 15.772-2.35-5.229 0.813-10.794 1.287-15.772 2.35zm-93.288 2.349c2.482-0.426 4.323-1.494 6.711-2.014-1.529-3.535-5.183 0.551-6.711 2.014zm91.61-2.013c2.421-0.805-1.112-0.646-3.02-0.336-2.49 0.406-5.767 1.656-0.335 0.672 0.634-0.076 0.74 0.377 1.342 0.336 1.632-0.657 0.898-0.301 2.013-0.672zm-93.288 3.019c-1.154 1.139-4.518 3.465-3.691 4.363 3.117-0.684 6.396-2.281 9.731-3.355 1.949-0.629 5.765-0.119 6.041-3.021-3.831-1.602-7.307 2.382-12.081 2.013zm81.879-1.678c0.618-0.428 4.98-0.178 3.355-0.67-1.02 0.209-2.89-0.43-3.355 0.334-0.571-0.074-0.83 0.379 0 0.336zm-26.174 1.342c1.218-0.012 2.649 0.189 3.02-0.67-1.218 0.012-2.65-0.189-3.02 0.67zm-27.853 0.672c7.324 0.74 18.497 1.219 27.181-1.006-8.484 0.91-18.476 0.315-27.181 1.006zm-2.684-0.672c-5.256-0.395-0.081 1.482 2.349 0.336-0.691 0.272-1.394-0.264-2.349-0.336zm-31.879 11.41c0.121 1.328 5e-3 3.146 1.342 4.027 0.135-2.01 0.014-2.205 0.335-4.027-1.07 0.2-1.037-0.629-1.677 0zm2.349 4.698c0.681 0.801 2.768 1.516 4.027 0.672-0.394-1.678 0.011-2.787-0.336-4.027-0.885-0.457-2.288-0.395-3.355-0.67-0.229 1.224-0.469 2.439-0.336 4.025zm55.704-3.356c-11.271 0.273-24.94 2.15-40.604 1.344-0.661 0.904-0.2 2.932-0.336 4.361 14.373 1.25 24.33-0.564 40.604-1.006 0.675-1.004 0.191-3.166 0.336-4.699zm-50.671 4.699c2.668 0.574 5.608 0.879 8.725 1.006v-4.361c-2.842-0.514-6.355-0.355-8.725-1.344 0.377 1.86-0.655 3.627 0 4.699z"/>
	<path id="path431" d="m162.58 62.416c0.266 1.06-2.507 1.96-3.02 3.356 2.505-1.409 4.512-3.317 7.047-4.698 11.394 3.917 5.9 21.721 3.691 31.543 1.647-0.872 2.169-3.463 2.685-5.705 2.239-9.724 3.41-23.943-5.369-26.51 18.441-13.662 40.355-23.852 63.087-33.222-2.831-1.037-4.655 1.83-7.383 2.014 6.509-3.782 14.266-6.316 21.812-9.061 1.394-2.592 4.269-1.891 6.711-2.349 6.867-1.287 13.61-5.225 21.478-5.369-0.413 0.481-1.153 0.636-2.014 0.671 0.396 0.941 2.146 0.714 0.336 1.342 0.989 0.968 2.42-0.471 4.025 0-6e-3 -0.491 1.415-1.062 0-1.007 10.236-0.691 18.854 9.329 15.771 19.463-1.504 4.948-7.041 9.139-12.416 10.738-8.709 2.591-16.781 4.611-24.496 7.718-7.412 2.985-13.894 7.369-21.143 11.074-12.92 6.604-25.497 13.472-36.913 22.147-4.587 3.487-8.946 7.309-13.422 11.074-6.329 5.324-13.534 9.755-19.127 15.101-14.204 13.573-27.263 29.208-40.604 43.959v1.342c-8.432 9.241-15.893 19.453-23.154 29.866h-1.007c-3.188 4.576-7.16 10.599-12.416 15.772-6.415 6.312-14.855 12.812-22.147 16.441-10.051 5-29.333 5.129-29.194-10.066 1.547 6.729 5.647 10.908 14.429 10.402-2.347-1.346-6.088-1.295-8.725-2.351-2.528-2.188-5.108-6.052-3.691-11.073-0.032-1.252-1.31-0.021-1.342-0.671 3.946-16.858 14.646-26.965 23.826-38.591-2.53 5.136-7.701 9.334-10.403 14.766-1.686 3.389-3.56 8.7-3.02 12.08 1.013 6.342 7.204 8.975 14.094 8.391 7.466-0.633 12.895-6.121 16.107-10.738 4.381-2.442 5.605-8.041 9.396-11.073 3.545-7.081 9.25-12.003 13.087-18.792 3.734-2.865 5.853-7.347 9.061-10.738-0.625-1.277-1.519-2.284-2.685-3.02 0.629-1.497 1.974-2.277 2.685-3.691-4.73-4.666-10.881-7.911-19.127-9.06 0.303-1.934 2.428-2.047 2.685-4.027-3.545 0.707-4.516 6.892-9.396 7.382 2.525-3.851 6.406-6.346 8.725-10.403-0.137-1.133-1.301 0.893-1.007-0.671 0.395-1.5 2.204-1.842 3.355-3.356 0.972 0.188-0.515 0.523-0.335 1.007 2.489 0.096 3.869-3.705 6.04-5.033 13.321 0.772 20.203 7.984 27.517 14.765 4.534-1.841 8.448-4.304 13.087-6.04-4.166 5.677-9.487 10.199-13.087 16.443 7.756-7.792 14.606-16.49 21.476-25.167-2.394 0.853-4.881 4.513-6.711 7.047-1.572-1.56-1.826-4.438-3.691-5.705 2.097-2.041 3.163-5.114 5.705-6.711 4.316 0.875 5.838 4.704 10.738 3.691 7.081-1.464 3.415-13.631 4.698-20.47 1.427-2.153 3.983-3.176 5.034-5.705-2.457 0.452-2.595 3.222-5.034 3.691 2.115-9.833-4.657-10.779-9.731-13.423 3.441-3.382 7.554-6.092 11.409-9.061-2.398-0.066-4.442 2.242-6.375 3.691-2.045 1.533-4.163 2.976-5.705 4.698-2.084 0.071-2.996-1.031-5.033-1.007 4.504-4.556 10.218-7.902 14.765-12.416-2.898 0.798-5.483 3.289-8.054 5.369-2.637 2.133-5.106 4.515-7.718 6.375-0.371 0.86-0.695 1.766-2.013 1.678 1.995-4.227 6.808-6.474 10.738-9.396 3.947-2.932 7.786-5.913 11.408-8.721zm102.68-41.946c5.615-1.32 10.791-3.08 16.442-4.363 0.517-0.08 0.05-0.552-0.335-0.671-5.364 1.684-12.111 1.983-16.107 5.034zm-17.114 5.705c2.815-0.456 7.482-1.89 10.065-3.691-3.93 0.653-7.319 1.85-10.065 3.691zm-10.402 22.818c4.607-4.4 9.309-21.261 0.335-24.496 7.588 6.03 3.162 16.434-0.335 24.496zm38.254-20.47c4.493-0.987 9.237-1.725 12.416-4.026-4.495 0.986-8.934 2.028-12.416 4.026zm-37.584 1.007c-0.203 1.313 0.787 1.956 1.007 3.02 1.455 7.063-4.354 13.505-4.026 18.121 3.725-5.712 9.088-21.327-0.336-24.833 0.68 1.67 2.383 2.316 3.355 3.692zm-7.717-1.007c-7.029 3.485-15.066 5.962-21.477 10.067 7.79-2.724 14.687-6.342 22.147-9.396-0.038-0.409-0.1-0.794-0.67-0.671zm18.456 9.396c7.563-2.503 15.458-4.676 22.147-8.054-7.867 2.201-15.441 4.693-22.147 8.054zm39.932-5.369c-29.056 7.174-51.651 19.313-74.159 32.55-20.344 11.964-39.32 25.821-54.699 42.617 16.35-13.851 31.506-28.896 51.342-39.261 19.788-13.097 41.161-24.61 67.114-31.543 3.076-2.292 8.862-1.874 11.744-4.363h-1.008-0.334zm-108.39 25.839c13.31-8.054 27.362-15.367 41.945-22.147-15.485 5.878-29.871 12.857-41.945 22.147zm-3.356 20.805c4.971-1.74 7.332-6.091 12.416-7.718 5.083-3.983 10.568-7.747 16.107-11.409 5.921-3.916 12.746-6.504 18.12-11.074-16.797 8.817-32.435 18.795-46.643 30.201zm5.369-26.845c-2.477 1.886-6.201 2.523-7.383 5.705 3.92-2.903 8.651-4.996 12.081-8.389-1.317-0.191-3.579 1.561-4.698 2.684zm-12.08 27.852c2.914-5.158 1.361-15.651-4.027-16.778 4.255 2.68 4.398 9.472 4.027 16.778zm-23.49-2.013c4.097-2.502 7.974-5.225 11.074-8.725-4.283 2.317-8.014 5.185-11.074 8.725zm-50 45.973c1.688-1.22 3.814-2.002 4.362-4.362-2.086 0.821-3.747 2.068-4.362 4.362zm18.121 7.047c0.339-0.955 2.558-1.224 1.678-2.349-1.241 1e-3 -2.994 1.879-1.678 2.349zm4.698 4.698c1.693-0.472 4.352-3.043 3.02-4.362-0.809 1.651-2.682 2.239-3.02 4.362zm-13.423 3.355c1.639 6e-3 3.129-2.861 4.362-4.362-2.39 0.518-3.202 2.614-4.362 4.362zm-59.06 72.819c-6.124 0.271-9.049-4.324-7.383-10.738h-1.007c-2.245 6.023 2.149 13.359 8.39 10.738z" fill="#fff"/>
	<path id="path433" d="m37.415 244.29c1.91-1.129 1.927-3.461 3.02-5.369 0.706-1.231 2.275-2.172 2.685-3.355 1.704-4.926-2.687-8.389-2.013-14.094-2.022-0.01 0.11 4.139-2.014 4.027-1.674-1.234-0.241-5.576-1.678-7.047-1.48 1.34 0.537 4.77 0 7.381-1.859-1.627-0.402-4.889-1.007-8.726 5.228 6.195 17.335 7.19 26.51 3.354 7.304-3.053 14.116-8.44 20.134-13.422 6.528-5.403 10.755-12.24 15.771-17.785 0.447-0.493 0.704-0.979 1.678-1.008 4.121-6.635 9.879-14.026 15.101-20.805 1.678-2.178 3.299-5.083 5.034-6.711 0.224-0.209 1.153-0.112 1.342-0.335 1.762-2.081 3.332-4.556 5.034-6.711 8.282-10.49 17.891-20.471 27.181-30.537 3.597-3.897 7.302-8.271 11.409-11.745 14.758-12.482 30.654-25.726 47.986-36.577 12.668-7.931 26.963-15.46 41.609-21.812 6.309-2.735 12.551-5.649 19.129-7.382 12.896-3.396 29.666-3.484 37.248 3.355 2.959 2.669 5.763 7.503 9.061 12.081 2.083 2.892 4.335 5.995 6.375 9.396 2.256 3.758 4.938 8.788 7.049 13.423 3.49 7.667 6.377 17.685 9.73 25.839 3.479 8.46 6.225 19.945 5.369 31.879-1.023 14.29-7.821 22.872-16.443 30.873 1.232-3.108 2.284-6.105 1.678-10.403-2.275-16.143-29.051-17.039-47.648-14.094-20.021 3.17-39.155 9.928-55.033 14.765-5.347 2.661-12.016 4.16-17.785 6.375-25.974 9.973-49.353 25.312-71.141 40.604-3.925 2.756-7.642 6.333-11.409 9.73-7.448 6.72-14.093 13.02-21.141 21.143-4.707 5.425-11.339 13.445-8.389 21.143 4.618 12.045 31.958 7.254 44.631 5.367 19.685-2.929 37.569-8.869 55.034-14.765 13.797-4.657 27.188-10.688 39.262-16.106 4.845-2.176 10.004-3.867 14.43-6.039 6.348-3.115 12.708-7.031 18.792-10.738 13.937-8.494 27.772-17.039 39.933-27.182 8.369-8.521 17.521-16.262 26.176-24.499 5.737-8.096 10.709-15.988 10.737-29.194 0.022-10.953-2.376-22.779-6.041-32.215-8.235-21.207-18.271-43.167-30.872-57.046-5.584-6.042-16.261-8.425-28.188-7.047 5.041-3.43 9.496-9.98 7.047-18.792 4.806-0.788 8.248-2.938 13.087-3.691 5.769 6.942 11.088 14.238 16.778 21.477 8.6 10.937 13.471 24.583 22.146 35.57 7.364 15.903 15.794 30.738 21.144 48.657 1.688 0.773 1.252 3.67 2.685 4.698 5.219 18.03 10.437 37.527 14.431 57.38 1.891 9.401 3.271 19.092 5.368 28.188-9.31 5.457-16.723 12.808-25.84 18.456 4.76-1.531 8.976-4.92 13.088-8.055 4.134-3.148 8.017-6.808 12.416-9.396-7.59 7.848-16.963 13.909-25.839 20.471-35.283-5.209-60.963 9.45-88.591 18.791-10.546 3.565-21.329 6.987-31.88 10.066-9.553 2.788-19.596 4.229-29.528 7.718-36.396 8.097-73.106 14.649-112.42 19.13-21.623 2.463-45.003 5.821-68.792 3.354 2.96-8.112 6.89-15.26 10.067-23.154-4.389 4.336-5.519 11.932-9.061 17.114-3.245-0.56-7.605-1e-3 -9.396-2.015 2.583-5.808 5.5-11.277 7.718-17.449-2.823 1.654-3.021 5.447-4.362 8.39-1.286 2.821-2.975 5.601-4.362 8.056-1.414-0.152-1.492-1.642-2.349-2.351 2.78-6.058 5.787-11.886 8.725-17.785 4.388 6.159 18.968 5.252 27.517 3.354-4.283-0.654-8.405 0.531-12.751 0.336 0.69-2.555 1.814-4.674 2.685-7.047h4.362c-0.242-1.437-3.279-0.076-4.027-1.008 0.826-3.336 2.333-7.701 2.349-10.736-1.869 2.828-2.278 7.117-3.355 10.736-3.226 0.43-4.465-1.127-7.383-1.006 0.675-4.137 2.863-6.758 3.691-10.738-2.615 0.99-2.81 7.238-5.034 9.73-1.718-0.406-2.687-1.562-3.691-2.686 1.14-3.67 3.274-6.344 4.026-10.401 0.1-0.601-1.302-0.021-1.006 0.671 0.061-1.025-0.481-3.006-0.671-3.355-0.038-2.016 0.657 0.287 1.678-0.67 0.063-2.5 0.526-4.092-1.006-3.355 0.066-1.725 2.432-1.146 3.355-2.014 0.582 1.498-1.687 3.018-1.349 5.375zm257.38-212.42c4.175-1.977 10.16-2.144 13.759-4.698-3.735 0.875-12.44 2.438-13.759 4.698zm11.41 9.396c4.303-0.955 8.771-1.744 12.416-3.356-4.768 0.49-9.143 1.372-12.416 3.356zm-11.41 21.812c3.849-2.081 6.087-5.77 7.047-10.738h-1.007c-0.888 4.704-3.799 7.386-6.04 10.738zm-10.067-7.382c4.356-0.819 8.761-0.495 11.074-0.671-2.828-1.532-8.658-1.091-11.074 0.671zm-71.141 28.523c17.016-8.551 37.982-17.52 57.383-24.161 2.909-0.996 7.178-0.855 8.725-3.356h-0.672c-22.732 8.252-46.558 15.41-65.436 27.517zm87.919-18.792c4.041-1.104 5.202-5.088 7.048-8.389-2.967 2.18-4.226 6.065-7.048 8.389zm-19.127-3.02c2.75-0.27 5.626-0.414 7.047-2.013-1.683-1e-3 -5.665 0.595-7.047 2.013zm39.932 19.799c1.521 5.523 4.599 11.423 6.711 17.785 1.274 3.84 1.332 8.414 4.026 11.409-5.087-17.953-11.704-39.23-23.489-50.671h-1.006c6.687 5.059 9.29 14.2 13.758 21.477zm-10.066 3.02c-2.729-8.217-4.204-16.141-10.738-19.463-5.177-1.681-15.855-4.38-21.141-0.671 10.226-2.111 22.441-0.443 26.846 7.718 4.227 13.676 9.883 26.726 13.424 41.946 1.1 0.354 0.612 2.295 1.678 2.685 0.164 2.878 1.474 5.854 2.015 8.725 0.209 1.115-0.869 3.282 1.006 3.691-1.604-14.919-8.486-30.767-13.09-44.631zm-37.919-21.477c-2.778 0.846-5.962 2.074-9.062 3.02-18.345 5.603-35.668 11.908-50 20.47-1.551 0.926-4.375 1.831-3.69 3.021 15.743-9.201 32.928-16.961 52.685-22.148 1.147-0.892 3.484-1.688 5.705-2.349 1.836-0.546 5.532-0.627 4.697-2.014h-0.335zm41.275 14.095c-1.135-5.467-3.401-11.585-8.726-11.745 5.153 1.67 5.589 8.058 8.726 11.745zm-128.19 76.845c3.901-2.363 8.536-3.992 11.745-7.047-4.662 1.154-7.243 4.39-11.745 5.705-0.202-1.214-0.202-1.806 0-3.02 3.06-0.408 4.821-2.114 7.047-3.356-2.507-0.441-4.793 2.104-7.382 2.685-0.819-3.881-1.198-9.986-1.007-13.758 3.201 6.53 10.021 9.441 16.107 13.087-4.033 2.566-8.733 4.466-12.081 7.718 5.854-1.12 10.131-8.675 16.107-6.375-3.228 2.365-7.741 3.444-10.402 6.375 4.457-0.265 9.468-7.423 14.094-5.369-4.371 3.682-10.748 5.359-15.101 9.061 6.525-2.312 11.751-5.922 17.45-9.061 2.529 1.272 6.454 1.151 9.396 2.014-4.461 3.257-9.956 5.482-14.767 8.389 6.498 0.018 13.303-9.596 20.134-7.382-4.223 2.712-9.511 4.359-13.087 7.718 2.733-0.85 5.47-2.365 8.39-4.027 2.426-1.379 5.418-3.955 8.055-4.362 3.49-0.539 7.751 0.166 11.408 0 16.932-0.769 35.324-4.019 39.599-17.45 2.897-1.576 6.437-2.512 8.726-4.698-3.66 0.479-5.439 2.837-8.726 3.691v-2.685c2.938-0.751 5.162-2.22 7.383-3.691-2.397-0.558-5.217 3.022-7.383 2.685 0.507-7.239-3.299-10.992-7.047-14.094-10.853-8.982-29.271-12.318-47.986-11.745 5.429-6.652 9.948-14.213 14.095-22.147 6.711-2.706 16.229-6.778 25.838-10.067 12.183-4.169 28.597-10.699 37.248 0.671 2.979 3.914 2.715 8.317 6.041 12.081-1.504-10.864-7.121-18.863-17.449-20.134-7.076-0.871-11.814 1.468-17.113 3.02-23.782 6.968-50.066 19.656-68.792 29.866-0.571 0.659-0.783 1.677-1.678 2.014-1.06 0.17-1.473 0.987-2.685 1.006-8.807 6.551-17.008 14.743-17.785 28.188-0.376 6.507 1.504 14.275 0.671 21.141 2.296 2.318 1.052 6.127 1.678 9.061 1.004 4.707 4.313 7.043 7.383 9.396-0.052 1.85-1.607 2.195-1.678 4.027 2.146-0.314 1.806-3.117 3.021-4.363 1.056-0.16 1.312 0.479 2.013 0.672-0.331 0.787-0.588 1.648-0.671 2.686 1.336-1.461 2.643-2.951 4.362-4.027-1.932-0.695-3.414-0.575-6.375-0.67-0.56-1.342-1.137-2.667-2.349-3.356-1.149 0.641 1.577 2.392 0 2.349-2.586-3.129-4.527-6.892-4.702-12.422zm73.825-83.221c-18.072 6.961-37.453 13.846-52.349 23.825 18.997-10.088 41.963-19.109 63.422-27.852-4.361 0.744-7.396 2.611-11.073 4.027zm26.511-2.014c1.445 1.571 3.807 0.244 5.704 0.671 2.122 0.478 3.089 2.996 4.698 2.349-1.673-2.638-6.177-4.029-10.402-3.02zm19.462 23.49c-1.504-5.665-4.026-13.193-7.383-18.121h-0.671c3.406 5.32 4.475 12.975 8.054 18.121zm-20.805-6.376c-4.154-1.103-8.07-2.444-12.753-3.02 3.099 1.756 9.6 3.54 12.753 3.02zm-106.04 23.825c2.854-2.811 4.432-6.644 7.382-9.06 5.885-4.819 13.067-9.125 19.128-13.423-0.053-0.395 0.058-0.953-0.336-1.007-9.28 7.275-21.125 11.984-26.174 23.49zm94.966-23.154c-0.406 0.071-0.207 0.373 0 0.671 8.987 1.639 17.735 5.305 26.174 6.376-8.073-2.781-17.932-5.551-26.174-7.047zm43.289 31.208c0.187 0.822-0.795 2.793 1.007 3.02-1.891-13.211-6.221-23.981-10.738-34.563 2.402 9.928 7.248 20.604 9.731 31.543zm3.69-22.483c3.451 7.305 4.715 16.099 8.39 23.154-2.054-10.362-5.865-18.966-9.396-27.853-0.431-0.018-0.467-0.43-1.009-0.335-0.011 2.545 1.342 3.608 2.015 5.034zm-19.462 2.013c1.543 0.375 3.7 2.231 5.033 1.007-8.518-2.109-17.492-5.549-26.51-6.04 6.623 2.133 14.793 3.409 21.477 5.033zm-117.78 10.068c-4.239 8.905-5.612 21.665-5.033 32.214 0.137 2.506-0.01 5.398 1.342 7.383 0.057-0.391 0.531-0.365 1.007-0.336-1.277-14.769 1.884-29.922 9.061-38.926 2.773-3.479 7.313-5.056 9.731-8.725-11.651 5.798-17.719 17.181-19.799 32.55-0.08-4.491 0.514-12.499 1.678-16.778 3.072-11.292 13.594-14.326 21.812-21.141-0.038-0.41-0.101-0.795-0.671-0.671-6.357 4.83-13.692 8.68-19.128 14.43zm49.664-4.699c21.699 3.468 41.992 8.344 60.738 14.765-3.363-3.012-9.388-3.364-13.759-5.369-15.063-4.063-30.724-7.532-46.979-10.403h-0.67c-0.018 0.578 0.257 0.861 0.67 1.007zm80.537 14.43c0.017-5.049-2.015-8.053-3.021-12.081h-1.007c1.616 3.756 1.998 8.741 4.028 12.081zm37.248-5.369c1.008 4.085 3.204 8.084 4.698 12.416 4.378 12.7 8.529 25.829 11.744 38.255 3.492 13.497 6.608 27.1 9.731 40.604 1.017 4.395 1.121 9.113 3.354 13.088-6.413-38.217-16.854-72.409-28.858-105.03-0.074-0.261-0.281-0.39-0.67-0.335-0.048 0.396-0.596 0.76 1e-3 1.006zm-46.308 7.718c-0.317-1.248-0.534-2.598-2.015-2.685 0.399 1.168 0.733 2.401 2.015 2.685zm-4.699 10.738c-1.054 1.072-3.317 0.933-4.026 2.349 1.479 0.24 3.899-1.464 5.705-2.013 4.647 2.287 10.11 3.759 13.758 7.047-3.338 1.919-7.328 3.185-10.736 5.033 5.051-0.542 8.053-3.132 12.08-4.698 2.689 1.112 4.529 3.076 7.383 4.027 3.592 2.795 7.007 7.52 10.4 9.396-4-6.402-10.805-10-16.776-14.43 1.506-1.221 5.306-3.588 4.36-5.034-1.939 1.526-3.377 3.558-5.702 4.698-4.513-2.312-9.263-4.386-13.761-6.711 1.041-2.203 2.99-3.498 2.687-7.047-1.856 1.945-1.56 6.047-4.698 6.711-6.352-2.373-13.169-6.069-20.47-6.376 6.717 2.23 13.756 4.14 19.796 7.048zm29.867-1.678c-0.97-0.275-2.304-1.928-3.356-1.007 0.812 1.091 2.807 0.999 3.356 2.349-0.015 1.012-0.903 2.875 0 3.691 0.821-0.632 0.716-2.192 1.342-3.02 4.837 2.098 7.517 6.354 11.745 9.06-2.791-4.815-7.788-7.425-12.081-10.738-0.055-2.406 0.239-5.16-1.342-6.04-0.427 1.226 0.22 3.938 0.336 5.705zm35.569 14.765c1.594 6.573 3.838 12.494 5.033 19.463 2.582 4.801 2.7 12.064 5.368 16.779-3.786-19.144-9.589-36.273-15.101-53.692-0.074-0.261-0.281-0.39-0.672-0.335 1.294 7.163 2.993 11.852 5.372 17.785zm-41.275-4.026c2.027-0.138 4.836-2.559 3.691-3.691-0.985 1.474-2.832 2.089-3.691 3.691zm13.423 3.02c0.743 1.047 0.659 2.92 2.349 3.02-1.604-3.874-4.051-6.91-7.717-8.725 1.429 2.261 3.532 3.849 5.368 5.705zm-170.8 26.173c0.282-2.299-1.284-5.646-2.349-7.717-1.292-6.202-1.461-13.528-3.355-19.127 0.727 8.796 1.418 20.492 5.704 26.844zm205.7 26.511c0.608 3.562 0.708 5.884 1.342 8.726 0.229 1.024 0.909 3.117 2.015 4.026-4.104-23.19-10.729-43.857-16.779-65.101-0.072-0.261-0.279-0.39-0.67-0.335 3.283 18.126 10.987 34.535 14.092 52.684zm-196.31-39.262c3.971-2.182 6.515-5.79 6.711-11.745h-1.007c0.199 6.016-3.513 8.12-5.704 11.745zm11.073 12.417c-2.365-3.454-4.771-6.862-4.698-12.751h-1.006c0.466 5.685 1.62 10.683 5.704 12.751zm-46.644 9.396c0.627 1.576 0.544 3.64 2.349 4.362-2.27-6.903-5.679-15.574-9.396-22.147 1.405 5.945 4.732 11.97 7.047 17.785zm230.54 27.853c-1.33-12.877-5.09-26.229-9.396-37.25 2.621 11.587 6.477 24.841 9.396 37.25zm-213.42-24.499c7.143-3.932 14.794-7.354 22.147-11.074-8.331 2.744-16.151 5.996-22.147 11.074zm10.403 1.679c-14.255 7.89-26.686 17.894-39.262 27.181 4.979-2.818 9.652-6.01 14.43-9.061 7.455-4.762 13.77-11.135 21.476-15.438 6.823-3.811 13.946-6.617 21.477-10.066-6.72 1.55-12.703 4.385-18.121 7.384zm197.99 16.107c-0.532-5.742-2.373-13.055-4.698-18.121 0.858 5.418 2.177 13.251 4.698 18.121zm-37.248 34.9c-0.615-15.719-5.342-30.229-9.061-43.96h-1.009c4.4 14.347 7.367 28.062 10.07 43.96zm-186.91-42.618c-4.523 4.201-10.25 7.2-14.765 11.409 6.288-2.771 10.891-7.229 16.107-11.074-0.063-0.496-0.811-0.307-1.342-0.335zm183.22 38.591c0.153 1.256-0.856 4.094 1.007 4.697-1.168-14.826-3.863-28.127-8.725-39.262 2.286 10.287 6.236 22.406 7.718 34.565zm-9.06-26.175c1.125 6.214 3.187 12.396 4.697 18.792 1.084 4.582 0.407 9.917 2.686 14.094-0.734-12.8-4.113-22.955-6.712-33.893h-1.007c-0.013 0.462 0.159 0.738 0.336 1.007zm46.644 2.015c-7.239 5.064-16.675 7.935-23.825 13.086 8.893-3.637 17.086-7.969 24.832-12.752-0.43-0.019-0.465-0.43-1.007-0.334zm-254.7 8.724c-3.184 3.975-9.242 5.074-12.416 9.061 8.306-3.998 15.285-9.322 22.483-14.43-4.653 0.492-5.704 4.586-10.067 5.369zm211.07 18.792c0.254 1.172-0.949 3.752 1.678 3.354-2.438-7.293-1.834-17.629-5.031-24.16 0.989 6.975 2.023 14.687 3.353 20.806zm-253.36 11.409c0.471-5.896-1.044-15.473-2.685-21.477 0.204 6.518 1.2 15.124 2.685 21.477zm-18.456 4.362c1.543-7.41 2.631-16.078 3.02-25.502h-1.007c0.142 8.882-2.854 18.152-2.013 25.502zm40.939-11.745c6.944-2.234 14.167-7.082 20.134-11.41 0.982-0.498 2.989-1.293 2.349-2.348-7.147 4.932-14.944 9.216-22.483 13.758zm-48.322 10.403c3.35-5.711 3.728-14.395 4.698-22.482-0.429-0.02-0.465-0.432-1.007-0.336 0.037 7.594-2.676 16.353-3.691 22.818zm215.77 8.724c0.074-6.908-1.53-15.019-4.026-20.469 0.69 6.479 2.464 13.361 4.026 20.469zm27.181-14.093c-7.002 2.68-14.148 5.34-20.805 8.389 13.02-3.871 25.282-8.498 36.912-13.758-5.826 1.703-10.773 3.328-16.107 5.369zm-30.536 15.772c0.08-6.683-1.092-15.015-3.691-20.136 1.616 6.205 2.001 15.233 3.691 20.136zm-5.369-12.416c1.009 4.765 0.96 10.419 2.685 14.43-0.188-6.524-1.19-15.141-3.69-20.47-0.516 2.249 0.607 4.163 1.005 6.04zm-0.336 15.435c0.035-6.857-1.146-15.408-3.691-20.805 0.914 6.434 2.247 14.479 3.691 20.805zm-192.95-13.087c0.371-1.386 0.957-5.872-0.335-6.711h-0.671c0.54 2.032-1.162 6.307 1.006 6.711zm12.752 5.705c0.729-1.729 0.296-4.917-0.336-6.376-1.194 1.266-0.632 5.189 0.336 6.376zm30.872-5.705c-1.888 1.181-3.792 2.382-6.04 3.354-4.801 2.082-10.612 3.193-14.765 6.041 8.345-2.17 15.666-5.362 22.483-9.062-0.39-0.279-0.9-0.44-1.678-0.333zm-46.98 13.423c1.539-0.25 1.239-2.34 2.349-3.021-0.745-2.915 3.139-5.656 0.336-7.382-0.781 3.582-1.655 7.071-2.685 10.403zm6.04 1.007c2.567-0.565 5.828-0.438 7.383-2.016-2.196-0.344-5.956 0.491-7.383 2.016zm23.49 2.349c-2.345 0.618-5.167 0.274-7.047 2.015 6.153-0.336 10.204-2.771 16.107-3.355 1.974-1.829 6.625-0.979 8.054-3.354-5.712 1.185-11.467 3.202-17.114 4.694zm128.19 2.013c-24.775 6.602-52.069 11.23-78.188 16.443 14.387-2.239 30.37-4.157 44.631-7.383 10.651-2.41 22.077-4.707 32.214-7.719 0.729-0.218 3.459-0.175 2.685-1.68-0.597 0.072-0.791 0.192-1.342 0.339zm-85.235 8.39c0.407 3.748 0.04 9.394 1.342 11.408 0.273-4.211 0.6-11.322-1.678-14.095-0.478 0.818 0.218 1.605 0.336 2.687zm-6.376-0.671c1.474 2.982-0.481 9.967 2.014 12.752-0.169-4.754-0.375-9.469-1.007-13.76h-1.007v1.008zm4.362 13.087c2.002-1.903 0.487-7.015 0-10.403-0.199-1.384 0.658-3.319-1.006-3.69h-0.671c-0.051 5.306 2.258 8.256 1.677 14.093zm-77.18 2.685c-1.134 0.021-1.432-0.604-2.014 0.335 1.748-0.068 2.406 0.95 2.014 3.021 1.629 0.174 0.678-2.23 1.678-2.687 4.088 0.054 11.958-0.97 16.443 0-0.2 1.812-0.239 2.683 0 4.698 1.886-0.354 0.366-4.108 1.342-5.369 7.97-0.309 16.395-0.16 22.819-2.016-6.946-0.336-14.512 1.588-22.819 1.009-0.89-4.829 1.948-9.431 0.335-12.753-1.096 3.938-1.334 8.732-2.013 13.088-5.36-0.198-11.06 0.999-16.107 0 1.329-4.936 2.117-10.411 3.691-15.102h-1.007c-1.721 4.994-2.33 11.095-4.362 15.776z" fill="#00a5d9"/>
	<path id="path435" d="m222.98 29.195c-4.567 2.507-8.418 4.393-12.751 5.705-2.852 0.863 1.589-1.276 4.699-2.685 2.692-1.22 5.418-1.803 8.052-3.02z" fill="#fff"/>
	<path id="path437" d="m190.43 44.631c-0.948 1.177-2.758 1.493-4.027 2.349 0.688-1.438 2.551-1.7 4.027-2.349z" fill="#fff"/>
	<path id="path439" d="m182.72 48.993c-2.151 1.765-4.547 3.284-7.047 4.698 1.798-2.117 4.525-3.305 7.047-4.698z" fill="#fff"/>
	<path id="path441" d="m175 54.027c-1.092 1.061-5.591 4.456-8.389 6.041 2.478-2.332 5.322-4.298 8.389-6.041z" fill="#fff"/>
	<path id="path443" d="m165.94 60.067c-0.014 1.552-2.119 1.013-2.349 2.349-0.496-0.737 1.463-1.879 2.349-2.349z" fill="#fff"/>
	<path id="path445" d="m238.42 84.563c-3.031 8.602-8.711 14.556-13.423 21.477-1.296-0.066-2.474-0.012-3.354 0.335 0.023-2.179 1.379-1.002 2.686-1.678 4.576-5.49 8.854-11.279 12.08-18.121-1.609 0.292-2.006 1.799-2.35 3.355-3.974 4.417-6.608 10.169-10.738 14.43 3.289-5.437 8.69-11.666 11.744-18.457 1.915 0.352 1.537-1.593 3.355-1.341z" fill="#00a5d9"/>
	<path id="path447" d="m104.19 111.74c-0.596 2.333-5.217 6.401-8.389 8.389 2.656-2.936 5.639-5.547 8.389-8.389z" fill="#fff"/>
	<path id="path449" d="m102.85 117.11c1.796 0.342 1.67-1.238 3.356-1.006 1.542 2.709 5.307 3.194 8.053 4.698-1.202-2.937-5.895-2.382-7.382-5.034 3.51 0.45 4.687-0.712 7.382 0.671v1.342c4.409 2.75 8.382 5.936 10.403 11.074-4.962-3.26-10.981-8.804-18.456-10.738-1.143-0.296-2.798 0.771-3.356-1.007z" fill="#c9cacc"/>
	<path id="path451" d="m274.66 139.6c1.39-0.048 0.35 2.335 0.672 3.355-3 1.922-5.438 4.406-9.73 5.034v-4.027c1.66-0.688 3.324-1.373 5.032-2.014 0.607 0.623 0.058 2.405 1.007 2.685 1.006-0.56-0.465-3.597 1.008-3.691 1.451-0.221 0.108 2.351 1.007 2.685 1.504-0.172-0.025-3.378 1.004-4.027z" fill="#c9cacc"/>
	<path id="path453" d="m55.535 177.52c-0.655-1.162-1.34 0.411-2.013 0.336 0.512-1.726 1.763-2.711 3.02-3.69-2.089 9.254 10.113 12.125 19.127 10.402-2.731 6.666-18.338 10.176-22.147 2.35 0.37-2.428 2.598-2.996 3.02-5.369-1.629 0.385-2.274 1.752-3.02 3.021-1.057 0.162-0.251-1.539-1.007-1.678-0.634 2.845-2.28 11.689 2.685 11.744-0.068-1.498-1.644-1.486-2.349-2.35v-4.025c3.041 4.99 11.748 4.994 17.449 2.35-0.547 1.354-1.561 2.242-3.02 2.686 3.921 1.617 4.913-5.328 9.396-5.369-4.502 6.342-12.135 14.188-23.154 10.738 1.91-0.557 6.196 0.75 7.382-1.344-4.711 1.365-10.799-0.15-10.738-6.375-2.169 1.654 0.983 5.98 2.685 7.049-3.378-0.283-5.578-5.621-4.363-9.732 1.078-0.295 0.46 1.105 1.342 1.008 0.788-5.036 2.778-8.862 5.705-11.752z" fill="#fff"/>
	<path id="path455" d="m36.408 233.56c-1.183-0.271-0.86-2.05-2.349-2.015-1.095-0.088-0.97 1.045-1.678 1.342 0.345 1.781 0.705 3.547 2.684 3.691 1.366 0.023 1.445-1.24 1.342-2.686 1.407 0.479 1.174 3.486 0.336 4.361-4.917 0.838-7.324-8.377-3.356-8.726 1.771-0.149 2.751 1.918 3.021 4.033z" fill="#eff0f0"/>
	<path id="path457" d="m3.522 324.5c5.527-2.975 12.976-4.027 18.792-6.711-6.984-0.043-13.421 5.137-20.47 5.033 1.341-3.43 6.091-3.402 9.396-4.363 3.343-0.971 6.877-3.139 10.067-3.355 1.603-0.105 2.71 0.604 4.698 1.01 6.709 1.367 12.909 1.029 21.477 1.342-6.245 2.369-13.544 3.684-20.134 5.705 8.106 0.652 16.068-4.668 25.167-6.039 3.47-0.523 7.137 0.174 10.738 0 20.303-0.982 42.707-3.783 60.402-6.377-3.388 2.314-9.473 1.938-12.751 4.359 13.126-2.775 27.857-7.021 44.631-9.061 5.118-0.621 12.372-2.412 19.463-3.689 5.761-1.038 12.051-3.305 15.771-3.021 4.936 0.375 9.045 4.402 13.758 3.691-3.578-1.791-8.545-2.193-11.745-4.362 39.085-8.116 74.065-20.344 111.41-30.202-7.108 0.389-14.142 3.758-21.479 5.034 11.128-4.887 22.727-8.519 33.223-14.43 10.399-5.858 22.14-9.472 33.223-13.759-5.896 8.945-16.787 15.768-27.518 20.806-2.986 1.401-3.947 1.956-7.384 2.349-4.706 0.539-9.733 2.473-14.766 3.691-14.308 3.471-29.851 7.27-43.624 11.41 2.037 0.345 4.188-0.152 6.041-0.672 16.757-4.696 34.32-8.846 51.006-13.424-5.686 3.713-12.98 5.865-20.471 8.727-6.976 2.664-14.186 5.57-21.477 8.053-15.91 5.418-33.148 9.822-48.992 14.43-41.969 8.908-86.646 18.445-131.88 23.154-19.354 2.016-39.43 2.484-58.725 3.355-9.382 0.423-20.238 0.79-27.848-2.684zm263.08-40.604c9.035-1.479 17.262-3.77 25.168-6.376-8.071 1.107-17.615 3.631-25.168 6.376zm-134.9 27.852c-4.405 1.082-9.251 1.465-12.751 3.691 9.157-1.693 17.768-3.934 25.839-6.713-4.213-0.166-8.543 1.906-13.088 3.022zm31.879-3.02c-7.724 2.68-17.178 3.627-24.161 7.047 8.74-1.887 17.341-3.91 25.167-6.711-0.461 0.014-0.736-0.158-1.006-0.336zm-29.865 5.369c-2.474 0.699-5.617 0.211-7.383 2.35 6.934-1.018 12.389-3.258 18.457-4.697 2.348-0.559 5.23-0.133 6.711-2.352-6.003 1.059-12.028 3.07-17.785 4.699zm-111.74 6.375c-4.578 1.197-9.488 1.713-13.087 4.027 8.773-1.855 17.187-4.066 25.168-6.711-3.976-0.355-8.11 1.647-12.081 2.684z" fill="#eff0f0"/>
	<path id="path459" d="m30.368 259.4c-3.753 7.992-7.461 16.027-11.409 23.825-0.681-4.087 2.851-8.093 4.698-12.081 1.955-4.224 3.292-9.142 6.711-11.744z" fill="#00a5d9"/>
	<path id="path461" d="m272.65 274.83c-46.191 16.463-97.719 27.633-152.35 34.898 53.849-8.568 105.38-19.452 152.35-34.898z" fill="#fff"/>
	<path id="path463" d="m192.11 167.11c1.577 0.043-1.149-1.708 0-2.349 1.212 0.689 1.79 2.014 2.349 3.356 2.962 0.095 4.443-0.025 6.375 0.671-1.72 1.076-3.026 2.564-4.362 4.025 0.083-1.035 0.34-1.896 0.671-2.686-0.702-0.192-0.958-0.832-2.013-0.672-1.215 1.246-0.874 4.049-3.021 4.363 0.071-1.832 1.626-2.178 1.678-4.027-3.07-2.354-6.379-4.688-7.383-9.396-0.625-2.933 0.619-6.743-1.678-9.061 0.833-6.865-1.047-14.634-0.671-21.141 0.777-13.445 8.978-21.637 17.785-28.188 1.212-0.019 1.625-0.836 2.685-1.006 0.895-0.336 1.106-1.354 1.678-2.014 18.725-10.209 45.01-22.897 68.792-29.866 5.299-1.552 10.037-3.891 17.114-3.02 10.328 1.271 15.945 9.271 17.449 20.134-3.326-3.763-3.062-8.167-6.041-12.081-8.652-11.37-25.066-4.841-37.248-0.671-9.608 3.29-19.127 7.361-25.838 10.067-4.146 7.935-8.666 15.495-14.096 22.147 18.717-0.573 37.137 2.763 47.986 11.745 3.748 3.103 7.554 6.854 7.047 14.094 2.166 0.337 4.984-3.243 7.383-2.685-2.221 1.471-4.441 2.939-7.383 3.691v2.685c3.284-0.854 5.062-3.212 8.727-3.691-2.289 2.186-5.826 3.122-8.727 4.698-4.271 13.431-22.667 16.681-39.6 17.45-3.656 0.166-7.918-0.539-11.407 0-2.638 0.407-5.63 2.983-8.056 4.362-2.92 1.662-5.652 3.177-8.389 4.027 3.576-3.358 8.864-5.006 13.088-7.718-6.832-2.214-13.637 7.4-20.135 7.382 4.811-2.907 10.305-5.132 14.766-8.389-2.94-0.862-6.865-0.742-9.396-2.014-5.699 3.138-10.925 6.749-17.45 9.061 4.353-3.701 10.729-5.378 15.101-9.061-4.626-2.054-9.637 5.104-14.094 5.369 2.661-2.932 7.175-4.011 10.402-6.375-5.976-2.299-10.252 5.255-16.107 6.375 3.348-3.252 8.047-5.151 12.081-7.718-6.086-3.646-12.906-6.557-16.107-13.087-0.191 3.772 0.188 9.877 1.007 13.758 2.589-0.581 4.875-3.125 7.382-2.685-2.226 1.242-3.987 2.948-7.047 3.356-0.202 1.214-0.202 1.806 0 3.02 4.501-1.315 7.083-4.55 11.745-5.705-3.209 3.055-7.843 4.684-11.745 7.047 0.18 5.537 2.121 9.3 4.703 12.423zm42.952-81.208c-3.053 6.791-8.455 13.02-11.744 18.457 4.129-4.26 6.766-10.013 10.738-14.43 0.344-1.557 0.737-3.063 2.349-3.355-3.226 6.842-7.503 12.631-12.08 18.121-1.306 0.675-2.66-0.501-2.685 1.678 0.883-0.347 2.06-0.401 3.354-0.335 4.712-6.921 10.393-12.875 13.423-21.477-1.817-0.254-1.439 1.691-3.355 1.341zm-46.643 34.228c7.02-7.297 17.125-11.511 29.866-13.087 5.445-5.627 9.963-12.185 13.758-19.463-16.795 8.373-36.389 15.736-43.624 32.55zm28.858-12.08c-8.474 1.453-19.958 5.66-25.167 10.402-2.716 2.473-5.464 6.448-4.698 10.403 0.824 4.249 7.491 9.25 13.422 11.745 12.203 5.134 28.311 6.697 42.617 6.041 10.48-0.481 24.158-3.774 29.865-7.383 5.015-3.17 8.869-10.299 4.699-16.107-10.347-12.632-36.288-19.294-60.738-15.101zm-28.858 27.852c0.75-0.146 0.136-1.654 0.335-2.349-1.056 0.384-0.815-0.527-1.342-0.671 0.063 1.28-0.194 2.878 1.007 3.02zm2.349 3.355c-0.179-1.298 0.599-1.638 0.336-3.02-0.684-0.1-0.894-0.672-1.342-1.007-0.182 1.027-0.586 3.247 1.006 4.027zm1.006-1.678c-0.432 3.005 0.702 4.444 2.685 5.034 0.276-0.842-0.652-2.89 0.671-2.685 0.768 0.574 0.123 2.562 0.335 3.691 15.699 10.064 47.811 11.529 69.127 5.369v-4.698c-4.115 1.029-8.031 2.26-12.752 2.685-0.771 0.906 0.321 3.678-1.007 4.027-0.418-1.147-0.112-3.019-0.671-4.027-8.908 1.447-21.287 1.301-29.866 0-0.321 1.021 0.72 3.403-0.671 3.356-0.766-0.465-0.125-2.336-0.335-3.356-10.443-1.64-20.504-5.44-27.516-9.396zm84.564 4.027c1.486-0.303 1.932-1.647 1.678-3.691h-1.343c-0.622 0.721-0.226 2.458-0.335 3.691zm-2.686 2.014c-0.896-0.333 0.445-2.906-1.006-2.685-1.473 0.094-2e-3 3.131-1.006 3.691-0.951-0.28-0.399-2.062-1.009-2.685-1.708 0.641-3.373 1.325-5.032 2.014v4.027c4.295-0.627 6.73-3.111 9.73-5.034-0.321-1.021 0.718-3.403-0.672-3.355-1.026 0.649 0.503 3.855-1.005 4.027z"/>
	<path id="path465" d="m300.84 148.32c13.882-0.661 31.123 1.97 32.215 15.101 0.801 9.629-7.723 15.534-13.423 21.141-1.979 1.948-4.397 4.23-6.712 6.376-12.707 11.774-27.992 19.457-42.617 28.522-20.802 12.896-48.822 24.009-73.825 32.887-17.501 6.214-36.245 11.763-56.04 14.766-11.902 1.805-36.714 3.735-37.584-8.726-0.601-8.606 9.558-18.599 14.765-23.825 3.343-3.355 6.914-6.023 10.067-9.061 3.167-3.051 6.241-6.453 9.731-9.396 7.031-5.93 14.853-10.876 22.483-16.107 7.677-5.263 15.412-10.826 23.154-15.1 24.907-13.744 53.745-22.963 84.228-31.208 4.816-1.303 10.293-2.16 15.771-3.355 5.928-1.295 12.038-1.741 17.787-2.015zm-12.752 3.356c0.844 1.729 3.959 1.188 4.361 3.355-10.033 3.053-20.631 5.542-29.528 9.731 10.646-2.665 19.888-6.734 30.872-9.061 6.623 5.458 10.18 13.982 14.43 21.812-1.99-8.412-7.545-16.168-13.088-22.147 0.08-0.927 1.895-0.12 1.678-1.342-1.399-0.283-1.584 0.652-2.684 0.671-1.578-1.264-3.839-3.479-6.041-3.019zm12.082 5.369c-1.023 0.131-1.709-0.882-2.014 0.335 5.457 2.708 6.597 9.734 10.402 14.094-1.7-5.906-5.003-10.209-8.388-14.429zm-9.732 11.745c-9.533 5.278-20.511 9.063-30.537 13.758-1.832 0.857-3.828 1.996-5.369 3.354 12.537-5.36 25.137-10.659 36.912-16.778-0.429-0.017-0.463-0.429-1.006-0.334zm-54.027 4.362c-0.826-2.085-3.242-4.359-5.704-3.691 2.087 1.044 3.844 2.419 5.704 3.691zm-2.348 0.672c-2.045-1.312-3.629-3.084-6.041-4.027 1.414 1.588 4.25 5.016 6.041 4.027zm79.864 1.677c1.699-0.359 6.376-2.314 6.376-4.362-1.936 1.644-4.801 2.357-6.376 4.362zm-72.148 11.409c0.179 0.982-0.907 3.23 1.008 3.355-0.012-4.801-1.48-12.834-4.698-14.43 1.748 2.984 2.972 7.094 3.69 11.075zm-2.011 4.698c0.42-5.679-0.839-12.584-4.699-15.101 2.929 4.005 3.217 10.487 4.699 15.101zm-48.323 3.356c-1.861 0.921-4.57 1.111-5.369 3.354 11.389-4.941 21.184-11.479 33.222-15.771 1.483-2.094 5.388-1.771 6.711-4.026-11.994 4.293-24.047 11.242-34.564 16.443zm119.46-9.06c0.393-1.52-0.666-4.476-1.68-5.705-0.204 1.414 0.186 4.895 1.68 5.705zm-16.779 0c-13.279 9.092-29.719 15.025-44.631 22.483 15.62-5.634 32.107-13.306 45.637-22.147-0.428-0.019-0.464-0.431-1.006-0.336zm-53.691 24.496c1.922-3.906 3.527-11.669 2.016-16.777-0.816 4.815-1.04 11.234-2.016 16.777zm-51.342 3.355c11.648-4.096 23.398-8.486 33.557-13.758-11.392 4.379-23.061 8.484-33.557 13.758zm-27.852 10.069c2.816-4.076 0.647-10.029 0.335-15.438h-1.007c0.72 5.242 1.467 9.449 0.672 15.438zm77.18-5.705c-1.171 4.346-4.434 10.06-4.025 13.758 2.451-5.377 4.236-11.422 5.703-17.785-0.074-0.262-0.279-0.391-0.671-0.336-0.478 1.311-1.202 2.376-1.007 4.363zm-72.818 4.361c-0.242-1.025 0.343-1.223 0.335-2.014-0.429-0.018-0.464-0.43-1.006-0.336 0.215 1.241-1.046 2.312 0.671 2.35zm21.812 10.068c-1.855 2.06-6.401 1.429-8.054 3.691 11.79-3.535 23.302-7.349 33.557-12.416-9.16 2.249-16.081 6.737-25.503 8.725zm-26.51 8.388c1.881-4.383 2.922-9.606 4.027-14.765h-1.007c-0.571 5.135-3.153 10.045-3.02 14.765zm-3.691 1.007c2.625-3.75 3.43-9.32 4.362-14.765h-1.007c-0.444 5.596-2.554 9.527-3.355 14.765zm-36.577-1.341c4.031-0.717 7.885-1.994 11.409-3.354 3.52-1.359 7.061-2.723 10.067-4.699-7.455 2.387-14.728 4.956-21.476 8.053zm36.577 9.06c1.973-0.711 1.609-3.761 2.685-5.369-2.05 0.635-2.148 3.222-2.685 5.369zm-5.705 4.697c0.449 2.525-2.954 4.568-1.342 6.041 2.387-4.549 4.252-9.617 6.375-14.43-0.038-0.409-0.1-0.795-0.671-0.672-1.62 2.854-2.3 6.649-4.362 9.061zm-35.906 1.344c9.649-1.431 19.964-5.09 28.859-8.391-10.248 2.169-19.481 5.352-28.859 8.391z" fill="#fff"/>
</g>
</svg>
