<?xml version="1.0" encoding="UTF-8"?>
<!-- Created with Inkscape (http://www.inkscape.org/) -->
<svg id="svg2" width="197.16" height="267.39" version="1.0" xmlns="http://www.w3.org/2000/svg" xmlns:cc="http://creativecommons.org/ns#" xmlns:dc="http://purl.org/dc/elements/1.1/" xmlns:rdf="http://www.w3.org/1999/02/22-rdf-syntax-ns#" xmlns:xlink="http://www.w3.org/1999/xlink">
 <metadata id="metadata160">
  <rdf:RDF>
   <cc:Work rdf:about="">
    <dc:format>image/svg+xml</dc:format>
    <dc:type rdf:resource="http://purl.org/dc/dcmitype/StillImage"/>
    <cc:license rdf:resource="http://creativecommons.org/licenses/publicdomain/"/>
   </cc:Work>
   <cc:License rdf:about="http://creativecommons.org/licenses/publicdomain/">
    <cc:permits rdf:resource="http://creativecommons.org/ns#Reproduction"/>
    <cc:permits rdf:resource="http://creativecommons.org/ns#Distribution"/>
    <cc:permits rdf:resource="http://creativecommons.org/ns#DerivativeWorks"/>
   </cc:License>
  </rdf:RDF>
 </metadata>
 <defs id="defs4">
  <linearGradient id="linearGradient8205">
   <stop id="stop8207" stop-opacity="0" offset="0"/>
   <stop id="stop9098" stop-opacity=".040892" offset=".53646"/>
   <stop id="stop8209" offset="1"/>
  </linearGradient>
  <linearGradient id="linearGradient29584">
   <stop id="stop29586" stop-color="#51504c" offset="0"/>
   <stop id="stop29588" stop-color="#d6d3c4" offset="1"/>
  </linearGradient>
  <linearGradient id="linearGradient13584">
   <stop id="stop13586" stop-color="#7c7a75" offset="0"/>
   <stop id="stop13588" stop-color="#e2dfd5" offset="1"/>
  </linearGradient>
  <radialGradient id="radialGradient2628" cx="152.45" cy="152.52" r="99.208" gradientTransform="matrix(.61401 0 0 .55144 56.31 67.193)" gradientUnits="userSpaceOnUse">
   <stop id="stop41144" stop-color="#295a85" offset="0"/>
   <stop id="stop41146" stop-color="#1c3850" offset="1"/>
  </radialGradient>
  <radialGradient id="radialGradient2630" cx="125.49" cy="140.57" r="53.819" gradientTransform="matrix(1.5806 .061373 -.13976 3.5994 -54.824 -363.18)" gradientUnits="userSpaceOnUse" xlink:href="#linearGradient8205"/>
  <radialGradient id="radialGradient2632" cx="130.4" cy="139.73" r="53.819" gradientTransform="matrix(-.55289 1.3759 -3.3423 -1.3431 636.5 152.07)" gradientUnits="userSpaceOnUse" xlink:href="#linearGradient8205"/>
  <radialGradient id="radialGradient2634" cx="79.726" cy="97.085" r="46.846" gradientTransform="matrix(1 0 0 .68302 0 30.774)" gradientUnits="userSpaceOnUse">
   <stop id="stop13544" stop-color="#fff" stop-opacity=".4052" offset="0"/>
   <stop id="stop13550" stop-color="#fff" stop-opacity=".12639" offset=".5"/>
   <stop id="stop13546" stop-color="#fff" stop-opacity="0" offset="1"/>
  </radialGradient>
  <linearGradient id="linearGradient2636" x1="43.043" x2="175.51" y1="85.213" y2="176.43" gradientUnits="userSpaceOnUse">
   <stop id="stop40251" stop-color="#cacaca" offset="0"/>
   <stop id="stop40253" stop-color="#7b7b7b" offset="1"/>
  </linearGradient>
  <linearGradient id="linearGradient2638" x1="119.37" x2="109.21" y1="258.73" y2="280.89" gradientUnits="userSpaceOnUse" xlink:href="#linearGradient13584"/>
  <linearGradient id="linearGradient2640" x1="119.79" x2="113.57" y1="237.89" y2="237.89" gradientUnits="userSpaceOnUse">
   <stop id="stop20718" stop-color="#51504d" offset="0"/>
   <stop id="stop20720" stop-color="#1f1f1d" offset="1"/>
  </linearGradient>
  <radialGradient id="radialGradient2642" cx="203.62" cy="123.93" r="33.771" gradientTransform="matrix(.82341 -.56744 2.7639 4.0107 -303.74 -267.45)" gradientUnits="userSpaceOnUse">
   <stop id="stop26923" stop-color="#ccc9c0" offset="0"/>
   <stop id="stop26925" stop-color="#a8a598" offset="1"/>
  </radialGradient>
  <linearGradient id="linearGradient2644" x1="153.22" x2="135.58" y1="41.938" y2="231.27" gradientUnits="userSpaceOnUse">
   <stop id="stop33142" stop-color="#6b6965" offset="0"/>
   <stop id="stop33148" stop-color="#8a8274" offset=".5"/>
   <stop id="stop33144" stop-color="#31302e" offset="1"/>
  </linearGradient>
  <linearGradient id="linearGradient2646" x1="125.65" x2="152.47" y1="235.68" y2="38.542" gradientUnits="userSpaceOnUse" xlink:href="#linearGradient29584"/>
  <linearGradient id="linearGradient2648" x1="149.5" x2="146.87" y1="42.946" y2="41.071" gradientUnits="userSpaceOnUse">
   <stop id="stop39360" stop-color="#4f4e4a" offset="0"/>
   <stop id="stop39362" stop-color="#e2dfd5" offset="1"/>
  </linearGradient>
  <linearGradient id="linearGradient2650" x1="104.72" x2="152.03" y1="221.71" y2="42.048" gradientUnits="userSpaceOnUse" xlink:href="#linearGradient29584"/>
  <radialGradient id="radialGradient2652" cx="115.73" cy="218.31" r="68.382" fx="111.1" fy="196.08" gradientTransform="matrix(.66751 .23966 -.10267 .28596 66.311 160.54)" gradientUnits="userSpaceOnUse">
   <stop id="stop14484" stop-opacity=".71429" offset="0"/>
   <stop id="stop14486" stop-opacity="0" offset="1"/>
  </radialGradient>
  <linearGradient id="linearGradient2654" x1="55.258" x2="139.86" y1="280.57" y2="294.75" gradientTransform="translate(.0052697 .099372)" gradientUnits="userSpaceOnUse" xlink:href="#linearGradient13584"/>
 </defs>
 <g id="g2535" transform="translate(-21.17 -25.952)">
  <g id="layer3">
   <path id="path5437" transform="matrix(.99236 0 0 1 .62283 -3.2143)" d="m219.29 128.39c0.011 54.743-44.364 99.127-99.107 99.127-54.743 0-99.118-44.384-99.107-99.127-0.010998-54.743 44.364-99.127 99.107-99.127 54.743 0 99.118 44.384 99.107 99.127z" fill="url(#radialGradient2628)" stroke="#000" stroke-linecap="round" stroke-linejoin="round" stroke-width=".20077"/>
   <path id="path6326" d="m51.518 196.26c3.2315-0.13553 4.9935 3.1507 6.9233 5.212 1.9356 1.2792 3.7115 2.7622 5.5852 4.0194 3.2201 0.66539 5.9063 2.7262 8.9875 3.8145 1.9372 0.2966 1.5951 3.5602 3.6315 1.9801 1.494 2.2676 4.0928 0.05795 5.993 2.16 2.4685 1.3729 4.8871 2.9514 7.6764 3.5586 6.5336 2.4497 13.119 5.0415 20.118 5.7606 4.0902 0.58513 8.1927 1.0817 12.3 1.5265-13.577 1.2303-27.38-1.432-39.882-6.7457-11.095-4.8824-21.462-11.572-30.216-19.977-0.36868-0.42955-0.86496-0.79272-1.1185-1.309z" fill="#dcdbdd" fill-rule="evenodd" stroke="#000" stroke-width=".5"/>
   <path id="path7213" d="m149.91 211.96c-0.61118-0.00257-1.1852-0.28054-1.7905-0.30173-0.50395 0.07745-0.88842 0.46633-1.3773 0.59991-0.4373 0.1219-0.8683 0.26293-1.2364 0.53984-0.44543 0.22787-0.95543 0.28801-1.4285 0.44496-0.7922 0.20486-1.6106 0.32435-2.3666 0.65264-0.7344 0.23395-1.4991 0.34906-2.2498 0.51197-0.57945 0.21832-1.1193 0.53343-1.6733 0.80817 0.04424 0.2956 0.70507 0.1743 0.99121 0.22594 0.91786-0.01618 1.839 0.03822 2.7545-0.03477 0.71875-0.10258 1.4196-0.30948 2.1125-0.52001 0.66574-0.27546 1.2163-0.807 1.9493-0.92162 0.76064-0.12705 1.4689-0.4392 2.1515-0.78612 0.59653-0.2492 1.4015-0.03031 1.8364-0.61082 0.14399-0.18167 0.24115-0.39461 0.32704-0.60836z" fill="#475422" fill-rule="evenodd" stroke="#000" stroke-width=".5"/>
   <path id="path8102" d="m157.95 209.38c-0.09464 0.39423-0.6152 0.13415-0.88623 0.09591-0.57038-0.1854-1.1723-0.05139-1.7445 0.05106-0.34603 0.10489-0.54827-0.30849-0.78274-0.49816-0.2847-0.27386-0.52382-0.61417-0.87223-0.80952-0.36202-0.07525-0.62637-0.47233-1.0264-0.36726-0.40218 0.13549-0.02752 0.6191 0.119 0.83641 0.16435 0.24648 0.45851 0.42973 0.46761 0.75538 0.02083 0.31518-0.02011 0.64903-0.14741 0.93758-0.23729 0.23118-0.60673 0.12866-0.90397 0.18464-0.38348 0.0175-0.60017 0.38088-0.77508 0.67542-0.05239 0.19757-0.37676 0.60485-0.11103 0.69046 0.54626 0.05217 1.0998 0.05549 1.647 0.01904 0.60117-0.09026 1.087-0.48391 1.615-0.753 0.59478-0.37825 1.1582-0.86684 1.877-0.98237 0.41532-0.08909 0.83481-0.15493 1.2555-0.2078 0.27749-0.06567 0.26071-0.40656 0.26852-0.62779z" fill="#475422" fill-rule="evenodd" stroke="#000" stroke-width=".5"/>
   <path id="path8104" d="m112.05 208.48c0.59738-0.05133 1.2079 0.03519 1.7938-0.12487 0.38837-0.04987 0.8085-0.05861 1.1674 0.11793 0.25384 0.20555 0.14377 0.58325 0.05947 0.84535-0.19931 0.2813-0.5837 0.29116-0.8966 0.31957-0.46916-0.00617-0.89727 0.20085-1.3258 0.36359-0.4723 0.1992-0.99568 0.13528-1.487 0.05854-0.22567-0.02839-0.44354-0.10296-0.60451-0.27082-0.23637-0.21902-0.45195-0.46114-0.6629-0.70382-0.23266-0.3336-0.33699-0.74372-0.38105-1.1419 0.06291-0.28452 0.41956-0.2747 0.65037-0.26959 0.38588-0.01095 0.83727-0.00409 1.1058 0.32073 0.1813 0.17587 0.37451 0.33983 0.58112 0.48531z" fill="#475422" fill-rule="evenodd" stroke="#000" stroke-width=".5"/>
   <path id="path8106" d="m127.5 201.79c-1.2063 1.4657-3.1761 2.7712-5.2473 3.1457-1.772 0.94558-3.4666 3.2782-5.7009 2.0549-1.8278-0.97322-4.223 0.36149-5.6978-1.2694-2.7009 1.1511-4.6007-1.6118-6.7469-2.5919-0.69424-2.4301-2.4246-4.3577-5.0893-3.4821-2.192 0.66877-0.37562-2.4225-2.5214-2.4758-0.8769-2.3502-4.1493-1.365-5.9197-2.93-2.2291-0.79707-4.5703-1.3725-6.8619-1.9925-2.5415 0.16895-4.6586-0.70968-6.7186-2.0233-2.506-0.35479-4.6215-1.1658-6.7173-2.4835-2.3688-0.85615 1.0098-2.6182-1.0531-3.8677-1.1142-2.1146-0.30342-4.5934-0.87417-6.8294 1.3885-1.4368 4.246-0.26591 5.9341 0.45942 2.369 0.50135 4.7752 1.1646 7.2098 1.1607 0.68314-0.30126 2.2444-2.2886 2.5802-0.20388 2.3752 0.25997 4.9573-1.62 7.2639 0.11645 0.63888 2.0734 2.8784 2.8456 4.4068 1.1239 1.3476-0.61002 3.5311 0.70664 4.3323 0.0281 0.99171-1.1538 2.6648 2.6525 4.5575 2.015 2.3952 0.12692 0.30316 1.2986-0.40577 2.0606 0.33702 2.3476 3.2469 2.8966 4.7874 4.3242 1.9364 1.5847 4.2272 0.22815 4.9549-1.7924 0.69739-1.6206 3.8435-3.8163 3.1701-0.4621-0.38783 1.7394 1.0832 2.3559 2.4208 1.7886 0.30676 2.0607-0.75809 5.0426 2.1249 5.5849 1.4059 1.2909 2.0293 2.9582 3.7994 3.4157-0.2238 1.7959 3.0703 2.7413 2.012 5.126z" fill="#475422" fill-rule="evenodd" stroke="#000" stroke-width=".5"/>
   <path id="path8108" d="m129.38 186.61c-0.8317-0.97458-1.7136-1.9149-2.8064-2.6-0.8664-0.43439-1.3183-1.4997-0.10725-1.7376 0.03542-1.4415-1.8584-0.99884-2.5956-1.7965-1.0733-0.70846-1.8608-1.731-2.9262-2.4277-1.5818-0.73555-3.3291-1.129-4.7782-2.1464-1.2336-0.5301-2.3052-1.3422-3.4524-1.9791-1.2667-0.24379-2.6065-0.24286-3.8718 0.01242-1.3524 0.53798-2.6018-0.1352-2.9148-1.5367-0.6689-1.1405-2.0312-1.8572-3.3072-1.9429-0.5031 0.87478 0.24109 2.3198 0.78212 3.1432 1.163 0.64596 2.5283 0.8717 3.7627 1.3759 1.3536 1.1594 3.1548 1.6973 4.3756 3.0265 0.44306 1.3175-1.4395 1.6013-1.7966 1.8225 0.854 1.2043 2.5613 0.29307 3.7266 0.71276 0.8124 0.78557 1.4226 1.862 2.6353 2.1042 1.1475 0.43295 2.3592 0.00237 3.3287-0.61091 1.3456-0.68957 2.9452-0.4949 3.7469 0.87829 1.1246 0.98787 2.2695 1.9524 3.3107 3.0287 0.7899 0.78631 1.9017 0.5128 2.888 0.67338z" fill="#64633b" fill-rule="evenodd" stroke="#000" stroke-width=".5"/>
   <path id="path8110" d="m86.25 164.11c0.27952 0 0.44643 0.92505 0.44643 1.3393 0 0.27461 0.71792 0.62682 0.89286 0.71429 0.25561 0.1278 0.17857 0.77407 0.17857 1.1607 0 0.69447-0.284 0.80357-0.98214 0.80357-0.62593 0-0.82632 0.22235-1.0714-0.26786-0.1932-0.3864-0.18832-0.91236-0.35714-1.25-0.21209-0.42418-0.34826-0.79468-0.625-1.0714-0.16796-0.16797-0.38958-0.95773-0.44643-1.0714-0.24456-0.48912-0.71429-0.097-0.71429 0.35714 0 0.51535-0.29219 0.60876-0.71429 0.71429-0.28615 0.07153-0.71428 0.62814-0.71428-0.08929 0-0.51827-0.064381-0.88252-0.17857-1.3393-0.097336-0.38934 0-0.93558 0-1.3393 0-0.42809 0.26586-0.621 0.44643-0.98214 0.20324-0.40649 0.55114-0.63657 0.89286-0.89286 0.31604-0.23703 1.0222-0.40888 1.3393-0.53572 0.56224-0.22489 1.2087 0.29185 1.5179 0.44643 0.56515 0.28258 1.2078 0.60388 1.6071 0.80357 0.58528 0.29264 0.88838 0.35267 1.25 0.71429 0.2995 0.2995 0.53811 0.625 1.0714 0.625h1.5179c0.7546 0 0.53572 0.0407 0.53572 0.625 0 0.34938-0.6494 0.65342-0.89286 0.71429-0.66962 0.1674-1.4383 0.08928-2.1429 0.08928-0.51584 0-1.0311 0.03241-1.5179-0.08928-0.51232-0.12809-0.75901-0.17858-1.3393-0.17858z" fill="#64633b" fill-rule="evenodd" stroke="#000" stroke-width=".5"/>
   <path id="path8112" d="m78.929 152.68c0.87679-0.59016 2.0227-0.14159 2.9728-0.5505 1.1541-0.02513 0.75575 1.1939 1.0535 1.8479 0.47785 0.6585 1.4557 0.62924 1.9312 1.2898-0.14115 1.0708-1.5354 0.56417-2.2195 0.37594-0.85213-0.29723-1.7386 0.78411-1.0829 1.4897 0.43946 0.65085 0.85898 1.3374 1.0631 2.0944 0.16917 1.0051-0.96732 1.1008-1.5963 0.67525-0.73375-0.33069-1.4573-1.0005-2.3173-0.78388-0.87095 0.43969-0.65964 1.7667-1.6101 2.1468-0.85487 0.67971-1.8159-0.05428-2.0715-0.92027-0.57484-0.7971-1.5603-1.0029-2.3898-1.4038-0.7404-0.35601-1.4685-0.7589-2.0826-1.3063-0.9122-0.51825-1.5043-1.6182-1.2512-2.6644-0.005259-0.99256-0.99294-1.4898-1.6516-2.0468-0.6204-0.72577 0.2418-1.6056 0.95173-1.8306 0.84281-0.59647 1.3463 0.4254 1.5689 1.0392 0.77357 0.42448 1.7606 0.29183 2.5617 0.03478 0.90881-0.15328 1.6979 0.69683 2.6143 0.40525 0.93387-0.07194 1.8439-0.76808 2.7845-0.37891 0.26853 0.14371 0.50168 0.34421 0.77103 0.48655z" fill="#64633b" fill-rule="evenodd" stroke="#000" stroke-width=".5"/>
   <path id="path8114" d="m92.321 173.93c-0.087445 0.01398-0.41745 0.00258-0.60373 0.00113-0.58761-0.00599-1.189-0.07365-1.7211-0.34031-0.55912-0.23482-1.1667-0.39402-1.777-0.3207-0.51723 0.04071-1.102 0.11394-1.5391-0.23315-0.16936-0.13428-0.38847-0.35023-0.28976-0.58458 0.18982-0.20653 0.51283-0.17732 0.77035-0.21246 1.0043-0.02832 2.0112 0.0338 3.0138-0.04648 0.31887 0.00905 0.69879-0.09368 0.9561 0.15382 0.39158 0.41022 0.46855 1.0534 0.95679 1.3813 0.080799 0.06356 0.16222 0.12709 0.2336 0.2014z" fill="#64633b" fill-rule="evenodd" stroke="#000" stroke-width=".5"/>
   <path id="path8118" d="m73.214 164.2c-0.21606-0.77595-1.0261-1.0632-1.7251-1.2167-0.5786-0.472-0.54755-1.3509-1.1082-1.8668-0.28749-0.63455-0.94324-0.9059-1.5883-1.0162-0.84928-0.18239-1.7673-0.36475-2.3919-1.0219-0.45941-0.38455-0.90759-0.79098-1.2625-1.2749-0.77812-0.74444-1.7341-1.2735-2.4843-2.0479-0.40276-0.55004-1.2283-0.18597-0.94341 0.48969 0.15439 0.67958 0.88492 0.81147 1.348 1.1989 0.66558 0.62485 0.94257 1.6357 1.8213 2.0328 0.58716 0.164 1.3248-0.0757 1.7946 0.43078 1.0091 0.52674 1.6541 1.4925 2.3094 2.383 0.45072 0.52883 1.1126 0.86312 1.8066 0.90835 0.74676 0.15172 1.0797 1.1437 1.9144 1.0541 0.17102-0.00407 0.34063-0.02846 0.50959-0.05332z" fill="#64633b" fill-rule="evenodd" stroke="#000" stroke-width=".5"/>
   <path id="path8120" d="m61.607 154.55c-0.98641-0.88629-2.3282-1.5048-2.7776-2.8524-0.36985-0.93281-0.57694-1.9417-1.214-2.7482-0.59982-0.69078-0.74034-1.5695-0.97588-2.4172-0.24242-0.69944-0.50127-1.4563-1.1398-1.8802-0.77289-0.87638-0.4135-2.1128-0.38002-3.1553-0.031959-1.1185-0.89084-1.9256-1.2274-2.9424-0.33407-0.71784-0.57323-1.4831-0.85148-2.2152-0.46584-0.4964-0.18365-2.1711 0.47344-1.0975 0.83158 0.85752 1.6016 1.8175 1.9468 2.9798 0.53524 0.73694 0.8494 1.576 1.2641 2.3769 0.63495 0.94794 0.93341 2.0794 1.6338 2.9817 0.77117 0.91243 1.2053 2.0387 1.8644 3.0271 0.76822 0.95097 0.33269 2.2882 0.99661 3.2634 0.45925 0.95168 1.9038 1.014 2.1018 2.1247 0.1523 0.94683-1.0507 1.3892-1.2386 2.2572-0.13989 0.12659-0.30981 0.21211-0.47615 0.29776z" fill="#64633b" fill-rule="evenodd" stroke="#000" stroke-width=".5"/>
   <path id="path8122" d="m75.893 165.45c0.29444 0.51656 1.1234 0.26793 1.3685 0.84281 0.17414 0.40001 0.68791 0.50057 1.0588 0.66514 0.49809 0.15262 0.90865 0.47293 1.3358 0.75479 0.51647 0.41159 1.0363 1.0039 1.7644 0.92671 0.64791-0.0137 1.2952 0.1925 1.7876 0.62057 0.43225 0.34992 0.89847 0.75045 1.4885 0.74551 0.51482 0.11345 1.1196 0.27857 1.3994 0.76632 0.22455 0.6585-0.77306 0.45917-1.1605 0.47422-0.65925-0.05214-1.2881-0.33541-1.779-0.77242-0.58416-0.33771-1.0417-0.93301-1.7535-1.0124-0.70491-0.14235-1.4493-0.27013-2.0253-0.73318-0.72269-0.39662-1.122-1.259-1.9643-1.4612-0.70677-0.26275-1.2663-0.79052-1.8681-1.2218-0.23768-0.26109 0.097007-0.54495 0.34757-0.59514z" fill="#64633b" fill-rule="evenodd" stroke="#000" stroke-width=".5"/>
   <path id="path8124" d="m96.786 155.98c-0.3511 0.16877-0.13383 0.58706-0.063702 0.8619 0.10052 0.62353 0.062819 1.2605 0.052789 1.8906-0.29618 0.276-0.71179 0.05452-1.0026-0.11327-0.26393-0.09497-0.59988-0.65224-0.85405-0.29896-0.034938 0.33355 0.095747 0.68865-0.052162 1.0118-0.18096 0.42299-0.79136 0.42754-1.0938 0.13554-0.31534-0.26587-0.52166-0.63801-0.62718-1.0331-0.057395-0.48015-0.68808-0.2601-0.80586-0.66652-0.081428-0.3353 0.16185-0.64805 0.44802-0.79256 0.31401-0.13222 0.23558-0.43726-0.089452-0.44567-0.62608-0.27595-1.0858-0.85299-1.7677-1.0187-0.36073-0.11462-0.76545-0.2349-0.98218-0.57201 0.062881-0.47335 0.66041-0.2481 0.97746-0.30492 0.50014-0.06778 0.92541 0.28305 1.2239 0.64331 0.66782 0.63471 1.5992 0.81793 2.4366 1.1218 0.68462 0.17498 1.3728-0.10101 1.994-0.36646 0.067154-0.02275 0.13587-0.04127 0.20588-0.05282z" fill="#64633b" fill-rule="evenodd" stroke="#000" stroke-width=".5"/>
   <path id="path8126" d="m93.839 144.55c0.46179-0.00976 0.62264 0.54598 0.58019 0.92287-0.057843 0.59131-0.73735 0.91387-1.2749 0.79495-0.46448-0.0882-0.94186 0.16786-1.0499 0.64062-0.14168 0.43666-0.45843 0.80128-0.48574 1.27 0.030655 0.53904-0.74055 0.54213-0.66613 1.0751-0.007671 0.34524 0.2657 0.73489-0.030803 1.0271-0.2532 0.33548-0.73459 0.16151-0.82408-0.21014-0.14526-0.38227-0.13793-0.80123-0.2427-1.1937-0.024532-0.42166 0.36808-0.75414 0.29789-1.1804-0.2326-0.3611-0.76528-0.48403-0.81079-0.9752-0.12199-0.4253-0.11567-1.0212 0.33817-1.2478 0.33708-0.2187 0.79343-0.02518 1.0911-0.32383 0.30185-0.23907 0.42344-0.61629 0.56986-0.95452 0.45881-0.73832 1.7004-0.79637 2.1882-0.05937 0.11089 0.13477 0.21084 0.27804 0.31966 0.41443z" fill="#64633b" fill-rule="evenodd" stroke="#000" stroke-width=".5"/>
   <path id="path8128" d="m95.804 151.79c0.32786 0.29155 0.4836 0.71658 0.66856 1.1024 0.1233 0.28996 0.11591 0.68762-0.18371 0.86473-0.19794 0.18327-0.46366 0.3938-0.7499 0.28957-0.28617-0.00159-0.43455-0.34277-0.71866-0.3381-0.38289 0.13591-0.15015 0.70381-0.49499 0.87669-0.31327 0.10109-0.62296-0.09993-0.8799-0.25859-0.24652-0.1492-0.28813-0.46695-0.5018-0.63788-0.35429-0.21532-0.78439-0.06027-1.1717-0.11627-0.32616-0.02651-0.71112-0.20689-0.76231-0.5652-0.044699-0.35904 0.45567-0.58207 0.30889-0.94418-0.084282-0.22528-0.32242-0.46415-0.17044-0.7127 0.15202-0.31675 0.5544-0.2025 0.77507-0.03306 0.27541 0.16179 0.42447 0.44797 0.59661 0.70132 0.29998 0.31132 0.76218 0.32276 1.1506 0.44979 0.32076 0.07354 0.66152 0.16074 0.98823 0.10059 0.34972-0.17859 0.29911-0.70994 0.67411-0.85627 0.16066-0.03842 0.32232 0.02281 0.47138 0.0772z" fill="#64633b" fill-rule="evenodd" stroke="#000" stroke-width=".5"/>
   <path id="path8130" d="m97.857 164.64c0.072484-0.0053 0.14996-0.06408 0.026687-0.05583-0.55222-0.00311-1.1034 0.04916-1.6553 0.05862-0.13187 0.06644-0.16241 0.23147-0.20723 0.3596-0.069821 0.26833-0.12216 0.54484-0.12649 0.82246 0.052435 0.17298 0.24549 0.24082 0.39744 0.30379 0.24691 0.09309 0.51104 0.12862 0.77398 0.12193 0.40492 0.00641 0.83645 0.09554 1.2185-0.08355 0.075792-0.11701-0.039162-0.29504-0.056087-0.42906-0.11064-0.3702-0.2354-0.73639-0.37158-1.098z" fill="#64633b" fill-rule="evenodd" stroke="#000" stroke-width=".5"/>
   <path id="path8132" d="m92.321 167.95c0.42923-0.21462-0.17857 0.94867-0.17857 1.4286 0 0.34526 0.93002 0.35714 1.25 0.35714 0.66006 0 0.4655-0.45943 0.35714-0.89285-0.082763-0.33105-1.0536-0.66786-1.4286-0.89286z" fill="#475422" fill-rule="evenodd" stroke="#000" stroke-width=".5"/>
   <path id="path8134" d="m95.357 168.84c0.09744 0.42331 0.19322 0.91791 0.58903 1.1675 0.76811 0.56528 1.6621 0.91734 2.5024 1.3565 0.40705 0.19752 0.85408 0.27622 1.2927 0.367 0.24229 0.05401 0.73974 0.23366 0.73084-0.17675-0.05803-0.41028-0.47995-0.63336-0.84534-0.72431-0.50078-0.12318-1.0536-0.17553-1.4581-0.5307-0.38849-0.33889-0.86676-0.55736-1.2394-0.91506-0.34938-0.31075-0.78405-0.58603-1.2717-0.54468-0.10015-8.5e-4 -0.20031 0.00158-0.30045 4.6e-4z" fill="#64633b" fill-rule="evenodd" stroke="#000" stroke-width=".5"/>
   <path id="path8136" d="m95.625 137.05c-0.41479-0.02487-0.81375 0.12309-1.2183 0.19327-0.36861 0.06275-0.72823 0.22266-0.96956 0.51751-0.26045 0.30146-0.4439 0.66375-0.58905 1.0321-0.081778 0.27568-0.11041 0.57645-0.048983 0.85827 0.1299 0.30381 0.5064 0.33402 0.79287 0.34211 0.41657 0.02327 0.85897-0.00937 1.2155-0.24815 0.38628-0.1889 0.73541-0.4461 1.0285-0.76065 0.35846-0.36031 0.7017-0.76181 1.173-0.97784 0.22338-0.23982-0.20811-0.41017-0.38283-0.50359-0.32264-0.1457-0.67336-0.23146-0.96772-0.43575l-0.033446-0.01726z" fill="#475422" fill-rule="evenodd" stroke="#000" stroke-width=".5"/>
   <path id="path8138" d="m112.41 133.66c-0.42038-0.0665-0.85965 0.02944-1.2247 0.24481-0.06915 0.27821 0.31182 0.36041 0.47183 0.51321 0.18962 0.15407 0.55194 0.19474 0.55427 0.49517-0.01112 0.24047-0.12869 0.46389-0.24438 0.67014-0.13797 0.21684-0.38559 0.37323-0.43968 0.63557-0.00297 0.26488 0.2927 0.34118 0.50238 0.38102 0.56008 0.11754 1.1313 0.00229 1.696 0.00773 0.27035-0.06038 0.4163-0.32971 0.57179-0.53444 0.20971-0.29345 0.35004-0.6483 0.31729-1.0142 0.00364-0.26019-0.06548-0.55039-0.30202-0.69509-0.25308-0.17928-0.54543-0.29411-0.82861-0.41564-0.351-0.12155-0.72286-0.16777-1.0742-0.28826z" fill="#5a5f38" fill-rule="evenodd" stroke="#000" stroke-width=".5"/>
   <path id="path8140" d="m131.16 130.09c-0.76212-0.26343-1.8841 0.27898-1.7079 1.1891 0.19541 0.77263-0.73306 1.129-1.3055 1.3815-0.59548 0.30004-0.99592 0.90909-1.6646 1.0933-0.57391 0.1954-1.2323 0.2834-1.8116 0.08473-0.52186-0.34667-0.12069-1.9079-1.0948-1.2546-0.51715 0.51771-0.75113 1.2906-1.4489 1.6279-0.74962 0.45802-1.5535-0.1121-2.2513-0.39384-1.1142-0.16149-2.1073-0.84373-3.2585-0.79207-0.6717-0.01465-1.3489-0.03374-2.0071-0.1675-0.81055-0.01362-0.92299 1.2344 0.02046 1.0616 0.88014 0.07709 1.7035 0.45337 2.578 0.53068 0.80064 0.04183 1.6562-0.06785 2.3926 0.32143 0.47501 0.57148 1.4198 1.1726 1.0296 2.0365 0.77945 0.28379 1.8403-0.06839 1.9012-0.99297 0.47729-0.8475 1.3938-0.31259 1.4499 0.46766 0.64455 0.27895 1.4061-0.08163 2.1026 0.09273 0.68099 0.09562 1.3314 0.02524 1.5664-0.70043 0.2354 0.27919 0.42741 1.1646 1.1096 0.79867 0.63299-0.41492 0.22582-1.5322 1.2051-1.7393 0.7957-0.19903 0.76647-0.95088 1.0002-1.5324 0.47838-0.33514 1.3205-0.34652 1.1295-1.2011-0.11398-0.70436-0.53443-1.338-0.9351-1.9114z" fill="#5d633a" fill-rule="evenodd" stroke="#000" stroke-width=".5"/>
   <path id="path8142" d="m115.98 135.18c-0.10774-0.14705-0.03599 0.20424-0.0213 0.26479 0.06565 0.26276 0.13662 0.54635 0.33037 0.74641 0.11891 0.1052 0.29303 0.05036 0.4319 0.02201 0.25963-0.07677 0.46276-0.29928 0.74406-0.31272 0.41422-0.03845 0.82091 0.09116 1.2341 0.07704 0.15954-0.01956 0.36409-0.05246 0.44896-0.20727 0.02049-0.19578-0.20108-0.29655-0.33749-0.39056-0.288-0.16015-0.59225-0.29731-0.90931-0.38819-0.52949-0.0954-1.0665 0.02111-1.5865 0.12153-0.11161 0.02232-0.22322 0.04464-0.33482 0.06696z" fill="#757245" fill-rule="evenodd" stroke="#000" stroke-width=".5"/>
   <path id="path8144" d="m134.64 125.71c-0.7296 0.0745-1.4191 0.5111-1.7474 1.175-0.24727 0.38153-0.69763 0.60285-1.15 0.57144-0.47724 0.03746-1.0265 0.10864-1.3361 0.5196-0.38969 0.26198-0.37384 1.0942 0.234 0.94448 0.7763-0.02504 1.4532-0.51668 2.2255-0.54375 0.58829 0.06988 0.93024 0.61886 1.2831 1.031 0.28311 0.28585 0.71499 0.39721 1.106 0.32315 0.28253-0.28535-0.08958-0.9855 0.5247-0.99321 0.45431-0.05725 0.91156 0.04942 1.3677-0.00695 0.45203-0.01983 0.90656-0.07872 1.3358-0.2271-0.37537-0.29888-0.90487-0.11109-1.325-0.31276-0.495-0.15793-0.60744-0.70543-0.88996-1.0761-0.39521-0.6314-1.1842-0.82298-1.6284-1.4047z" fill="#6d7545" fill-rule="evenodd" stroke="#000" stroke-width=".5"/>
   <path id="path8146" d="m138.12 114.11c-0.49567 0.28789-0.51804 0.99898-1.0413 1.2564-0.3754 0.60009-0.22909 1.3433-0.39537 2.0017-0.00886 0.63366 0.14627 1.3564-0.28173 1.8956-0.53604 0.82653-0.94054 1.7705-0.96825 2.7656-0.1599 0.54724-0.36683 1.079-0.54764 1.6193-0.39803 0.27553-0.13424 0.93036 0.35175 0.61774 0.38716-0.1477 0.82969-0.52125 1.2388-0.22612 0.59578 0.24237 0.39795-0.6119 0.04859-0.77125-0.35098-0.39899-0.52417-0.98679-0.27201-1.4819 0.24531-0.5401 0.74658-0.893 1.15-1.3064 0.43989-0.42072 0.97441 0.16731 1.3652 0.09864 0.28536-0.39293-0.3734-0.64797-0.38482-1.0344-0.16552-0.65214-0.06648-1.3323-0.07776-1.9962 0.03709-0.53606 0.34058-0.99181 0.53921-1.4731 0.17954-0.61247 0.07173-1.3469-0.37263-1.8207-0.09894-0.0823-0.2225-0.13825-0.35202-0.14504z" fill="#61653b" fill-rule="evenodd" stroke="#000" stroke-width=".5"/>
   <path id="path8148" d="m144.2 127.14c-0.16559-0.06656-0.36409-0.00946-0.541-0.00585-0.43198 0.04471-0.86265 0.10641-1.2886 0.19051-0.26596-0.06172-0.5116 0.14841-0.57809 0.3957-0.0946 0.22954 0.13153 0.43265 0.35413 0.40178 0.76006 0.00138 1.5162-0.0993 2.2765-0.09206 0.53959-0.02629 1.0685-0.15577 1.5867-0.30003 0.22251-0.04028 0.31073-0.31707 0.13334-0.46522-0.22587-0.27028-0.60471-0.26607-0.92635-0.25903-0.34206 0.01387-0.68128 0.06773-1.0166 0.1342z" fill="#475422" fill-rule="evenodd" stroke="#000" stroke-width=".5"/>
   <path id="path8150" d="m153.39 122.77c-0.23476 0.09398-0.42554 0.27655-0.63255 0.42022-0.54645 0.43012-1.1115 0.83524-1.683 1.2313-0.13201 0.12704-0.41703 0.2259-0.41079 0.41858 0.22261 0.05477 0.45613-0.01358 0.68306-0.01228 0.403 0.00226 0.80955-0.0284 1.1936-0.15996 0.46182-0.15034 0.98783-0.19179 1.3565-0.54177 0.28792-0.26084 0.59358-0.54717 0.68144-0.94209 0.04651-0.2095 0.14325-0.42677 0.09193-0.64377-0.12942-0.21315-0.4253-0.10921-0.63256-0.12838-0.26464-0.04603-0.43558 0.18424-0.61448 0.33454l-0.03309 0.02363h-1e-5z" fill="#475422" fill-rule="evenodd" stroke="#000" stroke-width=".5"/>
   <path id="path8152" d="m39.643 117.41c-0.30293 0.58705-0.45672 1.2496-0.85389 1.7872-0.25959 0.44-0.3787 1.0226-0.11474 1.4882 0.16104 0.28917 0.50157 0.45464 0.82858 0.4111 0.34267-0.00977 0.67516-0.10962 1.0174-0.12459 0.17528-0.19165-0.049235-0.41761-0.15627-0.58072-0.19657-0.26845-0.39702-0.54982-0.45277-0.88574-0.1791-0.68786 0.023043-1.4304-0.26825-2.0955z" fill="#475422" fill-rule="evenodd" stroke="#000" stroke-width=".5"/>
   <path id="path8154" d="m31.339 82.589c-0.35725 0.57685-0.10538 1.3333-0.49544 1.8973-0.28853 0.99257-0.051956 2.0314-0.1292 3.0445-0.005433 0.63469 0.072139 1.3173-0.21691 1.9036-0.6006 0.92898-1.7573 1.3207-2.3064 2.2963-0.43773 0.58318-0.89307 1.156-1.2821 1.7724-0.44647 0.26861-0.31176-0.60626-0.10246-0.80018 0.40039-0.69369 0.77971-1.4025 1.0263-2.1678 0.36791-1.0528 0.62712-2.1525 1.1644-3.1376 0.37728-0.9216 0.52541-1.9418 1.1019-2.7759 0.42679-0.67013 0.99144-1.2618 1.24-2.0325z" fill="none" stroke="#000" stroke-width=".5"/>
   <path id="path8156" d="m99.196 48.125c-0.13244-0.65908-1.0906-0.55864-1.4501-1.0818-0.58223-0.19299-0.98215-0.63939-1.2096-1.1964-0.33148-0.60902-1.0387-0.81175-1.6226-1.0958-0.99998-0.42739-2.089-0.53966-3.1445-0.75791-0.66985-0.10697-1.3414 0.093718-2.0142-0.001812-0.79397-0.032013-1.6322-0.19819-2.3981 0.079801-0.78822 0.4032-0.97969 1.3525-1.5216 1.9863-0.39034 0.33654-0.22687 0.93385 0.32643 0.65945 0.65723-0.12765 1.0925-0.69866 1.73-0.86577 0.70672-0.26106 1.4155-0.67058 2.1982-0.50807 0.75364 0.036059 1.3306 0.53545 1.9725 0.85911 0.76441 0.29187 1.587 0.36309 2.3784 0.55344 0.60513 0.23851 1.228 0.50082 1.6469 1.0213 0.52842 0.44706 1.1817 0.71246 1.7229 1.1425 0.54773 0.29152 1.1997 0.1437 1.7426-0.079993 0.2148-0.27328-0.22381-0.52074-0.35714-0.71429z" fill="#6a674e" fill-rule="evenodd" stroke="#000" stroke-width=".5"/>
   <path id="path8158" d="m93.031 29.844c-3.1873 0.85146-7.5062 2.7634-9.3438 3.0312-2.6786 0.39044-6.2182 8.59-9.4375 5.0312-5.3443 1.025-9.729 5.7385-14.219 8.8438-11.612 9.5565-21.087 21.615-27.969 34.969-0.93836 6.8092 6.2289 6.3764 6.1875 0.125-0.41238-1.8031-2.5652-4.0715 0.9375-6.25-0.22904-3.4341 5.2351-6.8044 1.7188-1.4375-3.3519 4.3068-1.5343 10.716-0.25 15.188-0.56697 3.9972-0.81109 8.1946 0.75 10.375-3.0485 4.6792-3.2871 10.783-3.6562 16 4.1392 1.0743 5.151-6.1666 10.344-3.6875 4.5379 0.67027 10.291 2.8098 9.625 8.0938 1.0959 3.5674-2.9828 5.1052 1.5 6.5625 1.4445 4.6482-3.1389 8.9823-0.375 13.875 0.37612 5.9102 6.1916 8.3892 2.5312 1.9062-3.318-2.9108-2.294-11.562 2.125-9.3438 0.097234 5.5084 4.7829 10.345 9.75 7.1875 0.70289-3.9772-5.4411-10.954 2.5-9.4688 6.5312 1.0222-5.9854 4.867 1.6562 4.8125 1.6037-5.5104 7.9858 0.67985 12.25-0.625 3.6892 1.6013 7.3084-1.4731 8.9688-2.7812-3.1287-1.0013 3.3601-1.5159-0.15625-4.4375-4.8737-4.5652 8.7876-0.27176 2.2812-4.5312-5.8014 1.2907-3.497-5.872 1.2812-3.1562 5.4124-1.2351-2.4105 3.1382 2.875 2.3125 3.978 0.00839 1.4825 3.596 3.9062 5.4688-5.3393 4.0404 7.7812 5.2879 3.3438-1.0312-4.8038-3.3071 5.4232-2.7144 7.4062-3.8438 2.8523 3.7409 12.259-0.56049 14.281-4.5625 2.7088-3.7034 0.05995-6.174-3.2812-6.625-3.1099-3.3813 7.4213-2.9557 10-4.9062 3.5794 1.2778 7.9765 0.82037 10.281 2.7812 4.2609 3.773 6.4382-7.0061 10.125-1.25 2.6233-0.14703 5.8149-4.274 4.125 0.71875-3.6736 2.1822-12.46 4.438-9.1875 10.094-0.27749 7.1556 3.9087-3.7263 6.5625-0.75-0.48062-2.2664 4.6022-3.852 0.1875-5.5312 2.9166-5.3792 9.5315-0.55888 12.781-5 3.5832-0.57426 8.2068-1.2537 2.5-3.9688-0.92297-2.0834 3.8117 1.4334 2.0625-1.9688 3.3803-0.04446 5.386 1.9981 6.625-1.7188-0.07036-3.2673-6.2729-5.9017-10.375-5.0625-3.0353-0.52051-5.6813-1.1149-6.375 1.9062-0.43634-4.2383-3.6878 0.25252-6.3125-2.1875-4.476 0.8137-5.3875-4.7857-10.688-3.625-3.2126-1.7406-10.4-7.6949-12.594-3.5312-3.6745-1.8294-6.2385-2.151-9.3438-2.5938-1.2096-2.0328 3.2065-4.7551-2-5.4375-3.6249-1.2942-7.127-2.3638-10.281-5.5312-2.5393-0.4115-10.9-3.6196-3.8438-2.5938 4.0262 2.1915 8.8538-1.9709 3.1875-3.9062-1.7245-5.2678-8.7593-0.69627-12.188-6.125-2.9389-2.7347-6.5997 1.2445-8.6562-3.4062-0.9015 1.8827-5.1385 6.4874-3.3125 1.4688 1.4509-4.5376-4.0426 1.1156-2.1875-3.75-1.4407-2.7499-5.6511 9.8859-4.8438 3.0938-1.2866 0.19558-3.8218 1.4715-5.4062-1.2188 3.4485-0.36569 9.9549-1.6983 10.75-5.2188-3.8213-2.956-9.8315 6.7215-7.9688-1.2812 3.034-5.9277-4.0375 3.3502-1.4688-3.3125 0.12082-2.8539-5.1699-4.3302-1.625-5.4062-1.7559-2.062-8.3857-1.9191-2.1562-3.3438 2.4701-2.8684 5.7928-2.4968 1.6875 0.4375 2.5987 2.3829 7.6703-6.5485 11.781-7.3125 1.0487-0.31855 2.3309-2.5831 0.625-2.5625zm-33.969 18.344c0.031227 0.36771-0.36981 0.77226-0.625 1.0625-0.30211 0.36181-0.94522 0.48793-0.90625 1.0625-0.08359 0.3983 0.76428 0.43659 0.3125 0.8125-0.45299 0.48573-1.2754 0.23447-1.6875 0.78125-0.25679 0.5034-0.7389 0.81124-1 1.3125-0.29036 0.39134-0.70078 0.73752-0.90625 1.1875-0.35001 0.50235-0.57183 1.077-1.0625 1.4688-0.34148 0.30444-0.63781 0.99201-1.1875 0.8125-0.34421-0.35584-0.12634-0.97221 0.09375-1.3438 0.32574-0.39073 0.8165-0.63043 1.0625-1.0938 0.33469-0.42506 0.63529-0.8772 1-1.2812 0.34292-0.36945 0.63112-0.77652 0.875-1.2188 0.38678-0.38086 0.68787-0.84948 1-1.2812 0.45306-0.43574 1.0623-0.66696 1.4375-1.1875 0.35996-0.33484 0.67282-0.80588 1.1875-0.90625 0.14649-0.045486 0.27919-0.099194 0.40625-0.1875zm-2.1875 6.875c0.218 0.49482-0.42156 1.5084 0 2.1875 0.25371-0.21523 0.78193-0.42842 1.0312-0.09375 0.27055 0.86385-0.52596 1.4673-1 2.0625-0.36529 0.87797-1.1686 1.5189-1.375 2.4688-0.22027 0.8131-0.88051 1.6665-1.7812 1.75-0.94218-0.18636-0.1253-1.4534-0.5625-2.0625-0.38564 0.33112-0.72373 0.91295-1.1562 1.2812-0.40928 0.79811-1.58 1.1089-1.5 2.125 0.03087 0.42574 0.24715 1.8829-0.53125 1.25-0.29697-0.4324-0.72946-0.32644-0.65625 0.21875-0.38822 0.74966-1.4068 0.99368-1.5938 1.9062-0.15201 0.77898-1.4422 1.3847-1.875 0.59375 0.034727-0.74783 0.30711-1.4687 0.53125-2.1875 0.11094-0.76363 0.51567-1.4588 1.0938-1.9688 0.60621-0.50659 1.063-1.1899 1.8125-1.5 0.73344-0.37063 1.0751-1.1923 1.6875-1.7188 0.64602-0.50387 1.0103-1.2294 1.4375-1.9062 0.37572-0.58176 0.96263-1.0216 1.1562-1.7188 0.30797-0.7371 1.0333-1.1834 1.6562-1.625 0.9521 0.61096 0.9788-0.79808 1.625-1.0625zm-3.0938 11.188c0.1255-0.008551 0.26629 0.027492 0.375 0.09375 0.20212 0.11885 0.34233 0.32275 0.59375 0.34375 0.3618 0.063614 0.70288-0.16835 1.0625-0.125 0.13667 0.21398 0.24866 0.49047 0.1875 0.75-0.1242 0.24012-0.30727 0.43801-0.53125 0.59375-0.37038 0.13646-0.79681 0.098139-1.125 0.34375-0.37866 0.24496-0.69582 0.65813-1.1562 0.75-0.24106 0.010474-0.52527 0.041307-0.75-0.0625-0.22804-0.14734-0.1316-0.45616-0.03125-0.65625 0.16729-0.24565 0.24352-0.53709 0.34375-0.8125 0.1773-0.38476 0.3626-0.78005 0.6875-1.0625 0.091397-0.095867 0.21825-0.1477 0.34375-0.15625zm44.531 28.656c0.12477-0.007332 0.24864 0.007448 0.375 0.03125 0.40642 0.10246 0.84332 0.28829 0.96875 0.71875 0.53308 0.076194 1.0849 0.008092 1.625 0.0625 0.51281 0.10751 0.42588 0.88288-0.09375 0.90625-0.5392 0.1221-0.99886-0.18225-1.3125-0.59375-0.38296-0.42881-1.1219-0.34914-1.5625-0.0625-0.47032 0.41897-1.0454 0.69854-1.5312 1.0938-0.45702 0.21753-0.90637 0.61236-1.4375 0.5625-0.62465 0.023576-1.2614 0.057705-1.8438-0.21875-0.59997-0.066105-1.2415 0.097696-1.8125-0.09375-0.50266-0.14967-1.0949-0.039962-1.5625-0.3125-0.34999-0.27152-0.56768-0.688-0.9375-0.96875-0.035545-0.049347 0.010668-0.062166 0.0625-0.09375 0.41465 0.14446 0.86325 0.4492 1.3438 0.53125 0.59638 0.21207 1.2227 0.093838 1.8438 0.125 0.69531-0.019688 1.4025 0.035645 2.0938-0.03125 0.49378-0.20358 0.9886-0.4384 1.5-0.59375 0.42185-0.21369 0.82197-0.48134 1.2812-0.625 0.27936-0.24994 0.6257-0.4155 1-0.4375z" fill="#475422" fill-rule="evenodd" stroke="#000" stroke-width=".5"/>
   <path id="path3801" d="m193.75 64.625c2.375 3 2.375 5.5 3.125 5.875s1.125-0.625 1.75-1.5 0.375-2.625-0.125-3.5-4.25-5.375-5.5-6.625-1.375 2.5-1.25 3.125 1.625 2.625 2 2.625z" fill="#73662f" fill-rule="evenodd"/>
   <path id="path5439" d="m137.48 27.931c-0.45427 2.3749 7.2357 2.6229 2.3214 2.4219-3.7889-0.30716-7.0507-2.499-10.744-1.5123-3.7803-1.0989-8.2355-0.41746-11.778 1.3994-1.6054 1.5378-7.6366 1.5235-6.4105 4.0148-0.96101 1.3044-3.6287 2.9036-1.1 4.9122 1.7524 2.7595 1.9495 6.266-2.062 6.7528-2.1446 1.2283 1.9045 4.6345 3.8798 3.8862 2.2536 2.9198 7.9975 5.2313 6.1607 9.5536 3.3761-0.64221 3.6564 3.1635 6.3393 3.75-4.239 1.6105-1.3463 7.1378 1.7188 8.6482 1.6527 1.3261-3.3173 4.1856 1.0491 2.892 2.7409-1.2359 3.5738 3.5476 6.3267 0.91099 2.3459 0.92206 7.385 2.3286 5.579 5.4785 0.32683 2.4138 4.7182-0.037961 3.2729 3.1417-5.427-1.6079 3.1773 5.3511 3.5714 0.53572-0.80661-2.1744-2.1188-5.6363 1.2087-2.9239 1.4263 0.30043 6.4924-0.21327 4.5572 2.1706-1.7512-1.1853-5.2209 1.2738-3.404 2.0717 2.4632-1.6954 3.4776 3.0723 6.4655 1.1844 3.7757 1.8444 8.442 0.84856 12.047 2.2391 1.3909 3.5134 6.6552-1.4511 7.8864 2.9925 1.3179 0.9811 1.244 2.4477 0.79241 3.4263 2.9426-0.74113 6.1733 3.7343 8.0539 2.7748 0.07222-2.0401-5.2087-6.3659-0.47573-5.498 2.9423 0.73764-1.0621-6.1513 3.1794-2.7246 2.6939-2.0833 4.9862-6.2166 7.5409-9.0648 2.1539-2.2684 5.2641-6.0236 1.5882-8.4615-2.9898-3.4211 1.1702-7.4359-2.4257-10.449-0.26823-4.2561 3.4037-0.44055-6.3996-10.105-8.1262-7.3383-17.22-14.201-27.722-17.8-6.8848-2.7211-14.004-4.2857-21.018-6.6191z" fill="#dcdbdd" fill-rule="evenodd" stroke="#000" stroke-width=".5"/>
   <path id="path4652" d="m155.88 120.62c0.69009-0.65018 0.60078-1.6698 0.66472-2.5339 0.12299-0.68848-0.07874-2.4088 0.48866-2.944 0.45136-0.47524 1.8483-1.2669 2.1406-1.8768 1.7709-2.0407 3.3409-2.1783 5.7532-3.3535 0.60746-0.34295-1.1213 1.4816-1.7875 1.7808-0.69884 0.56462-2.1594 1.8367-2.7445 2.5388-1.7245 3.0607-1.3686 1.2483-2.668 3.4346-0.22264 0.31424-1.4732 2.8261-1.8473 2.9539z" fill="#937d59" fill-opacity=".68095" fill-rule="evenodd"/>
   <path id="path5542" d="m102 95.759c3.0814-0.49014 5.3067 2.3007 8.3759 2.0977 3.0035 0.80624 6.2753 0.13068 9.125 1.6146 2.8489 0.054019 13.407 2.558 13.918-1.5136 0.57636-2.854-11.51-6.6746-9.766-9.2156 0.41553-1.2825 7.821-4.7226 7.7977-1.6972-0.69057 3.1096 12.383 8.0696 10.215 11.067 2.268 0.95691 1.9314 4.853 4.7995 4.9463 3.5693 1.7264 1.3753 1.3391 5.3144 0.71613 3.5168-0.05482 7.0212-0.30296 10.502-0.76769 2.6253 0.092 5.1486-0.78939 7.6738-1.2336 2.0775 1.5057 4.4465 0.82147 6.6517 0.54432 1.2785 2.9237-1.8278 3.1917-3.9231 3.1342-2.4856 0.10612-5.225-0.44861-7.5167 0.54054-2.4007 0.44975-4.5059 2.7295-6.5272 0.23751-2.4643 0.3067-4.7362 2.1268-7.4071 1.7268-3.4547 1.0594-5.949-2.7111-9.4962-1.9307-5.4678-1.8901-8.9511 1.7688-13.873 3.0859-2.6948 0.07395-4.6556-3.1861-7.3558-2.9909-3.1602 0.0123-6.3674-2.313-9.2128-4.0508-3.0498-0.4791-4.8345-3.0484-7.3496-4.455-0.72932-0.46796-1.8671-0.83656-1.9446-1.8562z" fill="#937d59" fill-opacity=".54286" fill-rule="evenodd"/>
   <path id="path6430" d="m50.656 55.5c-2.344 3.0607-3.9263 6.9182-6.3125 9.75-2.638-0.30403-5.3576 4.7351-2.375 5.75 3.8293 3.138-0.70534 6.1275-1.9375 9.4375-1.0374 5.031 4.6886 8.4166 3.0312 13.594-0.026117 4.0872 4.3011 6.2455 8.2188 8.6562 4.0883 2.0452 0.779 9.7522 5.625 11.844 0.35055-2.1107 2.2175-3.2738 3.8438-3.9375 1.9445 0 2.5331-0.77849 3.5938 0.8125 1.0607 1.591 1.2267 4.0545-0.1875 5.4688-1.0607 1.0607-2.8655 3.5268-4.125 3.4688-2.8698 6.282 2.0962 3.6759 4.2188 5.9375 1.6001 4.0274 0.71376-2.2097 4.3438 0.5625 4.8674 0.45693 6.461 2.872 6.875 0.625 3.0979-2.3696 5.4214-1.0013 8.3125 1.3438 2.948 2.4359 17.232 0.27563 12.188-4-3.1709-0.40942-1.3426-2.9818 0.625-3.8125 3.8149-1.1163 6.3744-6.2155 3.0625-9.2812-2.5338-3.6909-5.6273-6.5284-9.7812-8.25-2.2184-2.1754-1.784-8.0031-6.3438-7.0625-4.4251 0.80765-1.3296-8.1721-5.4688-9.0938-4.6695-1.1072-14.258 0.66721-15.688-3.6562-2.9484-3.4773-2.2439-14.39-2.8125-19.031-0.74164-2.4947-9.6565-0.2975-10.281 2.6875-0.93092 2.9411-5.5103 3.6193-3-1.625 2.2295-2.8545 6.3831-7.9817 4.375-10.188zm2.8125 10.188c0.33776-0.041087 0.9141 0.51641 1.6875 0.59375 0.044194-0.088388 0.49556-0.25 0.9375-0.25 0.44194 0 0.51294 0.8554 0.46875 1.5625-0.044195 0.70711-1.2898 0.98705-1.6875 1.0312-0.39775 0.044194-1.3134 0.7143-1.8438 1.1562-0.53033 0.44194-1.2317-0.79512-1.1875-1.2812 0.044194-0.48614 1.1906-2.4848 1.5-2.75 0.03867-0.033146 0.076749-0.05663 0.125-0.0625zm-2.0312 20.969c1.0607 2e-6 -0.35264 6.1823 0.53125 9.1875 0.34916 1.1872 3.5386 6.5521 7.7812 12.562-2e-6 0.35355-7.9491-8.1278-8.6562-9.7188-0.70711-1.591-2.3027-4.4393-2.6562-5.5-0.35355-1.0607-1.9599-2.1054-2.8438-2.8125-0.88388-0.70711 4.6063 1.7613 5.8438-3.7188z" fill="#937d59" fill-opacity=".50952" fill-rule="evenodd"/>
   <path id="path20636" d="m59.22 62.702c3.0052-2.74 6.6291-4.2426 8.1317-5.2149s4.9497-4.1543 6.1872-4.5962c1.2374-0.44194 4.0659-1.4142 4.9497-1.591 0.88388-0.17678 2.2097-0.26516 2.2981 0.17678 0.088388 0.44194-0.088388 0.70711-2.0329 1.3258-1.9445 0.61872-3.4471 1.3258-4.0659 1.9445-0.61872 0.61872-1.3258 1.8562-3.2704 2.2097s-7.3362 3.0936-8.0433 3.8007c-0.70711 0.70711-4.0659 2.1213-4.1543 1.9445z" fill="#827e58" fill-opacity=".6619" fill-rule="evenodd"/>
   <path id="path21529" d="m97.05 59.52c1.6068 1.8986 4.6153 1.485 6.2817 1.4207 1.6095 0.042154 2.721 1.9723 3.981 3.1993 2.9367 0.87457 4.6332 0.63268 7.6749 1.4227 0.80282 0.20783 3.648 3.1951 5.24 3.837-5.1675-0.2623-9.3216-1.782-11.61-2.4495-1.3446-1.2152-3.5328-2.51-4.9803-3.5556-1.9641-0.6987-5.8024 0.48587-6.5873-3.8745z" fill="#484424" fill-rule="evenodd"/>
   <path id="path21531" d="m110.49 71.54c2.07 1.2772 5.7431 2.2618 8.0529 3.0148 1.7896 1.9884 4.4377 3.2547 5.7686 3.7908 1.124 1.0672 5.0237 1.8164 6.3132 2.4415-4.0343 1.5729-6.9457 0.090941-8.8235-1.1698-1.777-1.0034-2.6268-1.903-4.1113-3.2789-2.7779-0.1872-5.9329-2.1578-7.2-4.7984z" fill="#484424" fill-rule="evenodd"/>
   <path id="path25077" d="m88.212 60.315c0.88388-1.5026 2.8284-5.1265 3.0052-4.6846 0.17678 0.44194-0.70711 2.3865-0.26516 2.4749 0.44194 0.088389 2.5633-0.44194 2.8284 0 0.26516 0.44194 0 3.7123-0.61872 3.8007-0.61872 0.088389-2.2097-2.3865-2.8284-2.2097-0.61872 0.17678-1.9445 0.53033-2.1213 0.61872z" fill="#484424" fill-rule="evenodd"/>
   <path id="path25964" d="m93 182.25c0.75 0.125 4.1688-0.98468 8.7001 0.70282 4.0893 6.9024 10.175 6.1722 10.425 6.1722 0.5 0 2-2.375 2.625-2.75s1.375 1.25 1.875 2.375-1 3.75 0.25 4.75 3.375 2.125 2.25 3.25-4.3624-0.09099-5.3624 1.034 6.3963 8.4552-3.068 6.8122c-5.5212-0.95847-10.442-7.4105-12.192-8.5355-1.75-1.125-17.724-5.9358-18.929-6.4963-6.7086-3.1213-10.877-10.561-10.252-11.561 3.3517-1.8496 20.685 3.0447 23.678 4.2463z" fill="#6f5735" fill-opacity=".78199" fill-rule="evenodd"/>
   <path id="path29508" d="m140.62 72.5c-1.75 0-3.875 1.625-2.625 2.375s4.75 0.625 6.25 1.125 6.1571 2.8083 7.25 3.375c3.375 1.75 9.7507 4.6972 18.125 4.375-8.4274-2.0344-17.875-5.875-18.625-6.5s-4.125-3.875-5.375-4.375-5-0.375-5-0.375z" fill="#91899d" fill-opacity=".40284" fill-rule="evenodd"/>
   <path id="path30395" d="m139.25 78.625c-0.25 1.5-0.875 2.125-0.25 2.625s3.5 0 3.625 0.875-1.25 1.5-1.625 2.25 1.625 1.625 2.375 1.625 2.125 0.375 1.875-1.125-1.125-3.5-0.5-4.125 3.75-0.25 2.875-1.375-5.375-3.25-6.875-2-1.125 1.25-1.5 1.25z" fill="#91899d" fill-opacity=".40284" fill-rule="evenodd"/>
   <path id="path31282" d="m139.29 59.332c0.125 0.875-1.3384 0.79289-1.7134 1.5429s1.625 1.625 2.375 1.625 2.125 0.375 1.875-1.125 1.5266-1.6438 2.1516-2.2688c-1.06-4.0016-1.94-2.2828-4.6883 0.22595z" fill="#91899d" fill-opacity=".40284" fill-rule="evenodd"/>
   <path id="path31284" d="m126.3 52.972c-0.11957 0.52008-0.9119 1.4075-1.3211 1.7281-0.40916 0.32058 0.66388 1.3276 1.1409 1.5223 0.47705 0.19476 1.2663 0.7608 1.4486-0.14005 0.18225-0.90085 0.65029-0.74582 1.19-0.93182 0.53974-0.186 0.94881-0.8096 0.64821-1.6638-0.27968-0.41691-1.8516-0.45984-3.1067-0.51478z" fill="#91899d" fill-opacity=".40284" fill-rule="evenodd"/>
   <path id="path31286" d="m118.51 58.655c3.4399 2.1615 4.4414 4.0755 6.6988 4.5092-0.57113 0.16848-4.6595 1.2431-2.3838 4.2891 0.42786 0.57269 4.6726-1.7825 5.6462-1.7825 0.97357 0 7.6198 2.2063 7.2952 1.1593-0.32453-1.047 2.3726-0.11347 1.593-3.7317-0.19404-0.90048-5.0173-1.4618-6.1531-2.2471-0.78698-0.32501-6.4841-2.5105-12.696-2.1962z" fill="#91899d" fill-opacity=".40284" fill-rule="evenodd"/>
   <path id="path2027" d="m216.5 109c-3-4.5-5.625-13.625-7.375-13.875s-8.375 3.125-8.375 3.125-10.5-6.75-9.25-7.75 5.875 0.125 7.875-3.125c1.3836-3.5934 0.41531-8.4098 1.75-11.625 1.2065-2.9065-1.3419-5.5695-3.25-10.125 0.80916 1.331 9.125 11.625 12.625 20.875s6.25 22 6 22.5z" fill="#465322" fill-rule="evenodd" stroke="#000" stroke-linecap="round" stroke-linejoin="round" stroke-width=".5"/>
   <path id="path2914" d="m202.25 85.125c0 1 1 3.25 1 6s1.125 4.75 2.125 4.375 2.875-1.5 4.625-0.375 4.625 10.125 5.375 11.125 0.875-1.375 0.375-2.5-3.25-11-3.5-12.25-1.625-5.375-2.625-5.5c-1.1362 1.029-5.6698-4.3784-7.375-0.875z" fill="#6f693f" fill-rule="evenodd"/>
   <path id="path4688" d="m179.89 91.425c1.18 1.2923 1.4129 3.9573 0.01622 3.5399-1.3967-0.41734-3.6645-3.0862-5.0452-3.8567-1.3807-0.77053-6.2255-2.6531-7.381-3.078-2.2361-0.47913-1.412-2.7902 1.9064-1.0637 0.96726 0.1324 5.643 0.4332 6.8551 1.0191 1.2121 0.58591 3.6484 3.4394 3.6484 3.4394z" fill="#91899d" fill-opacity=".40284" fill-rule="evenodd"/>
   <path id="path4690" d="m190.2 64.919c0.74723 0.47211-0.26403 1.5331 0.06388 2.3048 0.3279 0.77175 2.2907-0.1837 2.777-0.75472 0.48624-0.57102 1.6632-1.3748 0.35907-2.1569-1.3041-0.78214-0.26181-2.2281-0.33246-3.1091-3.7339-1.7872-2.9958-0.002957-2.8675 3.716z" fill="#91899d" fill-opacity=".62085" fill-rule="evenodd"/>
   <path id="path4692" d="m113.34 38.074c-0.125 0.875 1.3384 0.79289 1.7134 1.5429s-1.625 1.625-2.375 1.625-2.125 0.375-1.875-1.125-1.5266-1.6438-2.1516-2.2688c1.06-4.0016 1.94-2.2828 4.6883 0.22595z" fill="#91899d" fill-opacity=".40284" fill-rule="evenodd"/>
  </g>
  <g id="layer8" fill="none" stroke="#000" stroke-linecap="round" stroke-linejoin="round" stroke-width=".5">
   <path id="path42055" d="m150.25 43c35.58 45.551 45.104 104.72 17.25 155.75-10.06 18.432-37.5 25-37.5 25"/>
   <path id="path42942" d="m149.5 43.25c5.0816 45.592-2.9331 92.477-18.75 135.25-5.908 15.977-12.25 32.25-28 44.75"/>
   <path id="path43829" d="m147.79 43.521c-29.216 34.65-47.642 73.323-65.035 117.48-3.3352 8.4668-11 29.5-9.5 51.75"/>
   <path id="path44716" d="m149.08 42.607c-20.627-0.63388-89.732 38.856-103.97 92.381-11.051 41.546-2.2356 48.362 0.58211 55.088"/>
   <path id="path45603" d="m149.55 42.107c-46.526-6.7855-85.396 13.46-104.65 33.916-22.405 23.801-23.481 53.44-23.481 53.44"/>
   <path id="path46490" d="m149 42.75c-17.75-11.5-48.5-8.75-52.5-8.5s-22.75 3.75-28.5 7"/>
   <path id="path47377" d="m149.5 42.75c-7.25-12.75-31.375-16-39.5-16"/>
   <path id="path48264" d="m150.25 41.75c30.75 9 47.125 23.5 57.5 39.25"/>
   <path id="path49151" d="m117.03 26.462c-18.738 4.773-16.617 13.17-16.617 15.291 0 2.1213 2.4749 19.092 33.234 31.113 30.759 12.021 49.497 7.0711 53.033 1.4142 3.5355-5.6569 8.1317-8.8388-5.3033-26.163"/>
   <path id="path50038" d="m87.681 31.854c-27.577 13.789-3.2246 37.879 0 40.659 20.506 17.678 46.198 31.292 92.985 32.527 10.215 0.26971 32.88-12.021 23.335-30.759"/>
   <path id="path50925" d="m58.677 47.854c-11.412 15.967 1.8232 34.396 10.323 42.646 6.9247 6.7211 36.5 31 76.5 38 46.284 8.0997 68.5-4.5 70.25-23.25"/>
   <path id="path51812" d="m38 70.5c-3.25 16.5 1.0702 29.663 25 49 24.75 20 81.213 41.441 120 37 32.75-3.75 33.812-22.875 34.75-26.5"/>
   <path id="path52699" d="m21.53 127.36c5 19.25 22.72 34.394 37.22 43.644s55.5 29 89.75 29 46-10 49-12.5"/>
   <path id="path53586" d="m25.826 154.31c11.5 25.75 36.424 37.687 45.924 42.437s39.75 17 67 18.25 43.75-14.25 43.75-14.25"/>
   <path id="path27736" d="m146.5 33.75c-13.25-2.25-17.646 1.3232-18 4.5-0.33183 2.9816 0.59099 9.4571 12 14.75 12.988 6.0255 27.5 5.25 28.25 3.5"/>
  </g>
  <g id="layer9">
   <path id="path7318" d="m165.79 37.439c20 17.5 36.211 55.061 38.211 85.061s-12.25 72-20.25 78-34.25 28-75.25 23.5-26.847-57.068-12.5-91c15.75-37.25 37.257-64.653 43.757-79.153s26.031-16.908 26.031-16.408z" fill="url(#radialGradient2630)" fill-rule="evenodd"/>
   <path id="path9988" d="m180.15 203.58c-23.715 19.2-62.365 27.378-90.497 16.767-28.132-10.611-48.728-31.55-58.096-52.002-4.3433-9.482-15.963-38.534-2.7047-76.473 5.2189-14.934 6.6851 49.445 37.832 69.121 31.147 19.676 107.42 6.6071 117.92 18.531 10.503 11.924 5.999 14.013-4.4561 24.056z" fill="url(#radialGradient2632)" fill-rule="evenodd"/>
   <path id="path12647" transform="matrix(.84298 .56551 -.53555 .79833 52.138 -29.219)" d="m126.57 97.085c0.00655 17.674-20.969 32.005-46.846 32.005s-46.852-14.33-46.846-32.005c-0.006548-17.674 20.969-32.005 46.846-32.005s46.852 14.33 46.846 32.005z" fill="url(#radialGradient2634)"/>
  </g>
  <g id="layer5">
   <path id="path4550" d="m32.178 80.561c-2.9257 5.1986-4.9245 10.379-5.9599 14.306-0.94242 3.5743-1.2374 13.599 4.8235 23.701 6.0609 10.102 20.828 23.348 33.328 31.384 12.5 8.0357 43.929 24.375 73.036 28.125s48.571 2.3214 59.286-4.1071c10.714-6.4286 14.085-10.202 16.72-17.734 1.4976-4.2819 2.8756-11.385 2.8756-11.385s1.0714 8.1905-1.381 14.476c-1.6875 4.3253-8.5714 19.821-39.107 22.679-30.536 2.8571-68.214-7.1429-94.107-19.643-25.893-12.5-46.786-32.017-52.679-42.017-5.8929-10-6.5032-22.793-5.1939-27.247 2.0842-7.0906 6.81-12.165 8.3593-12.537z" fill="url(#linearGradient2636)" fill-rule="evenodd"/>
  </g>
  <g id="layer4">
   <path id="path4638" d="m116.77 240.24s25.291 7.9234 42.89 14.016c17.358 6.0091 22.868 9.2779 25.506 11.996 5.2538 5.4111 2.114 11.367-3.7881 15.91-7.7024 4.9245-24.358 11.095-62.394 11.095-38.036 0-63.571-11.219-65.714-12.648s-8.9286-5.1786-8.75-10.566c0.1953-5.8923 5.5088-11.798 19.527-15.37 4.8852-1.2446 49.416-13.82 52.723-14.432z" fill="url(#linearGradient2638)" fill-rule="evenodd"/>
   <path id="path2866" d="m116.79 242.74c3.7984 0.00135 3.3149-1.3992 3.3149-1.3992s0.03125-4.259 0.03125-6.8465c-3.766 0.04746-8.0997-1.4521-8.0997-1.4521s-0.01366 1.2027 1.346 1.6122c0.02035 1.7934-0.02946 6.4568-0.02946 6.4568s-0.33187 1.6274 3.4371 1.6288z" fill="url(#linearGradient2640)" fill-rule="evenodd"/>
   <path id="path6412" d="m157.26 30.756s22.974 16.782 38.688 44.64c15.714 27.857 18.036 58.571 17.143 73.393-0.89285 14.821-6.6675 47.32-30.179 67.5-10.714 9.1964-24.241 13.17-29.018 14.732 5.3125-1.9196 25.089-10.446 35.625-29.196 9.355-16.649 16.786-37.679 14.464-65.179s-11.42-50.478-24.196-69.464c-10.569-15.707-24.001-26.761-26.589-28.782-2.5885-2.0203-5.5464-4.3708-6.3683-5.2803-1.3463-1.4897-1.0218-3.5314-0.21304-4.1497 1.4196-1.0854 3.69-0.7239 4.7829-0.56821 2.6685 0.38013 5.9238 2.3545 5.8607 2.3545z" fill="url(#radialGradient2642)" fill-rule="evenodd"/>
   <path id="path8186" d="m145.2 32.902c-1.2627 1.4521-0.88388 2.9673-0.56821 3.3461 0.31568 0.37881 8.5914 7.1999 9.9803 8.5257s14.011 13.382 18.556 19.822c4.5457 6.4397 15.657 23.739 19.193 34.093 3.5355 10.354 8.599 38.455 7.8338 50.003-1.1278 17.202-3.7932 33.335-12.506 47.982-8.7126 14.647-19.824 25.001-35.482 30.557-15.657 5.5558-33.84 3.283-41.921 0.88389s-19.824-7.955-19.824-7.955l-10.48-3.5355s7.3236 7.3236 21.087 11.869c13.763 4.5457 29.547 7.5761 41.669 4.672s32.325-12.374 43.31-28.284 17.551-43.563 17.425-53.664c-0.12627-10.102-3.71-39.415-6.4473-48.239-3.2843-10.586-13.124-28.28-19.185-36.74-6.0609-8.46-21.466-23.739-25.506-27.148s-6.8185-5.9346-7.1342-6.1872z" fill="url(#linearGradient2644)" fill-rule="evenodd"/>
   <path id="path7299" d="m146.28 29.315c-1.1161 1.875-1.3887 3.2449-0.9423 4.0931 0.44642 0.84821 14.29 11.667 18.933 17.024 22.867 25.836 27.574 39.825 34.139 63.445 7.2594 26.119 5.3424 59.328-9.9226 86.161-7.3806 12.973-23.955 25.893-35.959 29.619-12.723 3.9497-23.809 4.9701-35.952 2.6487-12.143-2.3214-26.488-9.0884-29.708-11.109-3.2199-2.0203-6.6923-4.6998-6.6923-4.6998l-1.0733-0.63134s-0.12627 1.2627 0.37881 2.0834c0.50508 0.82075 9.3867 7.0436 19.887 11.175 10.107 3.9762 20.875 6.8376 28.814 6.4494 11.446-0.55357 22.513-1.903 32.679-7.4107 13.25-7.1786 22.449-15.378 28.795-26.25 6.9464-11.902 15.402-32.768 15.045-57.768-0.35715-25-8.5-48-16.964-64.286-3.1681-6.0956-11.713-20.684-26.875-34.899-6.9724-6.5367-12.042-10.166-13.48-11.284-1.7046-1.3258-1.5308-3.6375-1.1031-4.3619z" fill="url(#linearGradient2646)" fill-rule="evenodd"/>
   <path id="path5525" transform="matrix(1.0424 .25022 0 1.074 -7.0469 -40.639)" d="m158.93 32.009c0 1.7505-2.3585 3.1696-5.2679 3.1696s-5.2679-1.4191-5.2679-3.1696 2.3585-3.1696 5.2679-3.1696 5.2679 1.4191 5.2679 3.1696z" fill="#b6b3a8"/>
   <path id="path2776" d="m147.17 39.74s-0.94702 2.2097-0.94702 2.4622 0.69224 1.2229 1.389 1.7046c1.6326 1.1288 3.7881 0.82075 3.9775 0.56821 0.1894-0.25254 0.44194-0.82075 0.44194-0.82075l-4.8614-3.9143z" fill="url(#linearGradient2648)" fill-rule="evenodd"/>
   <path id="path1887" d="m144.56 33.715c-1.25 1.4286-1.1161 3.4375-0.49107 4.1071 0.625 0.66964 12.589 10.893 15.625 14.062 3.0357 3.1696 11.794 12.68 17.812 22.009 8.4702 13.131 15.661 29.375 18.339 44.554 2.6786 15.179 5 42.155-3.0357 62.333-8.0357 20.179-19.679 33.917-32.536 40.702-12.857 6.7857-33.465 8.3367-41.071 7.4464-6.2064-0.72639-19.975-6.3547-19.975-6.3547l-8.8388-2.2728s12.334 8.455 27.613 10.096c15.279 1.6415 29.189 0.5691 43.116-6.9397 13.187-7.1101 26.941-21.087 33.759-42.174 6.8185-21.087 7.0848-40.293 3.6618-58.841-3.6368-19.707-8.3338-31.694-17.678-46.467s-16.956-22.073-25.696-30.683c-5.0313-4.9564-10.038-8.1444-10.543-9.0914-0.50507-0.94702-0.12627-2.336-0.06149-2.4864z" fill="url(#linearGradient2650)" fill-rule="evenodd"/>
   <path id="path3663" d="m99.483 222.77c6.8456 1.9893 23.739 1.8309 23.739 1.8309s8.8008 1.4088 13.447 1.4416c12.634 0.08929 15.214-1.7567 20.848-3.1696-8.1161 3.5871-13.658 6.6777-32.812 6.5179-11.131-0.09143-21.677-3.9651-25.221-6.6207z" fill="#31302e" fill-rule="evenodd"/>
  </g>
  <g id="layer6" fill-rule="evenodd">
   <path id="path13595" d="m116.63 242.74c-1.682 0.00212-3.6147-0.66953-3.2022-1.7302l-56.858 15.819-7.5425 14.614 48.083 16.499 87.681-11.785-12.964-17.56-51.677-17.315c0.07365 1.2522-1.8557 1.4566-3.522 1.4587z" fill="url(#radialGradient2652)"/>
   <path id="path14490" d="m44.84 267.99c-0.18146 0.71249-0.28876 1.4399-0.3125 2.1562-0.17857 5.3878 6.6071 9.1339 8.75 10.562 2.1429 1.4286 27.683 12.625 65.719 12.625 38.036 0 54.673-6.1692 62.375-11.094 3.6324-2.7959 6.2104-6.1213 6.4375-9.5312-0.73727 2.9108-3.0586 5.7167-6.1875 8.125-7.7024 4.9245-24.371 11.094-62.406 11.094-38.036 0-63.576-11.228-65.719-12.656-2.1429-1.4286-8.9286-5.1747-8.75-10.562 0.008036-0.24245 0.068134-0.47642 0.09375-0.71875z" fill="url(#linearGradient2654)"/>
   <path id="path17159" d="m44.666 268.38c-0.47978 3.3378 3.6452 10.263 15.438 14.496 29.331 10.526 61.026 9.0602 61.026 9.0602s-36.707-0.01251-63.501-11.064c-8.8004-3.6297-12.13-9.7291-12.964-12.492z" fill="#fff"/>
   <path id="path23379" d="m117.38 237.38v3.25s0.20833 1 0.66667 1c0.45833 0 0.625-0.875 0.625-0.875v-3.3333s-0.04167-1-0.60417-1c-0.375 0-0.70834 0.66666-0.6875 0.95833z" fill="#fff" fill-opacity=".2"/>
   <path id="path34920" d="m149.49 28.76c-1.0607 1.1196-0.82496 2.0035-0.64818 2.4749 0.17677 0.4714 1.6499 1.6499 2.0035 1.8267 0.35355 0.17678 0.64818 0.64818 0.64818 0.94281s-0.23571 0.58926-0.53033 0.58926c-0.29463 0-1.591-0.64818-2.2981-1.591s-1.0607-2.1213-0.88388-2.8284c0.17677-0.70711 1.7678-1.4142 1.7088-1.4142z" fill="#fff" fill-opacity=".4381"/>
   <path id="path35808" d="m158.26 31.981c0.13772 0.95612-0.35908 2.0186-1.5532 2.6445-0.92594 0.48531-3.3993 0.72565-5.8322-0.043936 1.6684 1.0862 3.4764 1.2637 4.6539 1.2131 1.0451-0.044943 2.0535-0.36432 2.504-0.93728 1.0754-1.3677 0.20034-2.9286 0.22759-2.8763z" fill-opacity=".4381"/>
  </g>
 </g>
</svg>
