<?xml version="1.0" encoding="UTF-8"?>
<!-- Created with Inkscape (http://www.inkscape.org/) -->
<svg id="svg1" width="200" height="175" version="1.0" xmlns="http://www.w3.org/2000/svg" xmlns:cc="http://creativecommons.org/ns#" xmlns:dc="http://purl.org/dc/elements/1.1/" xmlns:rdf="http://www.w3.org/1999/02/22-rdf-syntax-ns#" xmlns:xlink="http://www.w3.org/1999/xlink">
 <metadata id="metadata3">
  <rdf:RDF>
   <cc:Work rdf:about="">
    <dc:title>recycling_box_3d</dc:title>
    <dc:description/>
    <dc:subject>
     <rdf:Bag>
      <rdf:li>recycling</rdf:li>
      <rdf:li>recyclables</rdf:li>
      <rdf:li>recycle</rdf:li>
      <rdf:li>container</rdf:li>
     </rdf:Bag>
    </dc:subject>
    <dc:publisher>
     <cc:Agent rdf:about="http://www.openclipart.org">
      <dc:title>A.J. Ashton</dc:title>
     </cc:Agent>
    </dc:publisher>
    <dc:creator>
     <cc:Agent>
      <dc:title>A.J. Ashton</dc:title>
     </cc:Agent>
    </dc:creator>
    <dc:rights>
     <cc:Agent>
      <dc:title>A.J. Ashton</dc:title>
     </cc:Agent>
    </dc:rights>
    <dc:date/>
    <dc:format>image/svg+xml</dc:format>
    <dc:type rdf:resource="http://purl.org/dc/dcmitype/StillImage"/>
    <cc:license rdf:resource="http://web.resource.org/cc/PublicDomain"/>
    <dc:language>en</dc:language>
   </cc:Work>
   <cc:License rdf:about="http://web.resource.org/cc/PublicDomain">
    <cc:permits rdf:resource="http://web.resource.org/cc/Reproduction"/>
    <cc:permits rdf:resource="http://web.resource.org/cc/Distribution"/>
    <cc:permits rdf:resource="http://web.resource.org/cc/DerivativeWorks"/>
   </cc:License>
  </rdf:RDF>
 </metadata>
 <defs id="defs3">
  <linearGradient id="linearGradient3864">
   <stop id="stop3865" stop-color="#868686" offset="0"/>
   <stop id="stop3866" stop-color="#e8e8e8" offset="1"/>
  </linearGradient>
  <linearGradient id="linearGradient3793">
   <stop id="stop3794" stop-color="#000409" offset="0"/>
   <stop id="stop3795" stop-color="#000409" stop-opacity="0" offset="1"/>
  </linearGradient>
  <linearGradient id="linearGradient3768">
   <stop id="stop3769" stop-color="#ddd" offset="0"/>
   <stop id="stop3770" stop-color="#fff" offset="1"/>
  </linearGradient>
  <linearGradient id="linearGradient3764">
   <stop id="stop3765" stop-color="#fff" offset="0"/>
   <stop id="stop3766" stop-color="#fff" stop-opacity="0" offset="1"/>
  </linearGradient>
  <linearGradient id="linearGradient3756" x1="51.894" x2="34.798" y1="39.395" y2="103.56" gradientTransform="matrix(1.0019 0 0 .99814 -.68361 32.417)" gradientUnits="userSpaceOnUse" xlink:href="#linearGradient3793"/>
  <linearGradient id="linearGradient3763" x1="79.201" x2="91.427" y1="54.738" y2="156.74" gradientTransform="matrix(1.1767 0 0 .84983 -.68361 32.417)" gradientUnits="userSpaceOnUse">
   <stop id="stop3759" stop-color="#3b7fc5" offset="0"/>
   <stop id="stop3760" stop-color="#396da1" offset="1"/>
  </linearGradient>
  <linearGradient id="linearGradient3767" x1="43.776" x2="37.945" y1="47.679" y2="74.253" gradientTransform="matrix(2.1562 0 0 .46378 2.8791 26.819)" gradientUnits="userSpaceOnUse" spreadMethod="reflect" xlink:href="#linearGradient3764"/>
  <linearGradient id="linearGradient3779" x1="36.66" x2="34.214" y1="54.479" y2="81.604" gradientTransform="matrix(1.0108 -3.4011e-16 .13193 .98932 -9.096 26.819)" gradientUnits="userSpaceOnUse" xlink:href="#linearGradient3768"/>
  <linearGradient id="linearGradient3784" x1="163.94" x2="174.68" y1="66.834" y2="101.41" gradientTransform="matrix(.8528 0 0 1.1726 2.8791 26.819)" gradientUnits="userSpaceOnUse" spreadMethod="reflect" xlink:href="#linearGradient3764"/>
  <linearGradient id="linearGradient3790" x1="115.6" x2="127.99" y1="60.11" y2="79.868" gradientTransform="matrix(1.3024 0 0 .76783 2.8791 26.819)" gradientUnits="userSpaceOnUse" xlink:href="#linearGradient3793"/>
  <linearGradient id="linearGradient3796" x1="19.055" x2="60.604" y1="110.86" y2="-14.248" gradientTransform="matrix(2.1901 0 0 .45661 2.8791 26.819)" gradientUnits="userSpaceOnUse" xlink:href="#linearGradient3793"/>
  <linearGradient id="linearGradient3801" x1="542.23" x2="549.93" y1="21.063" y2="21.063" gradientTransform="matrix(.38725 3.3697e-19 2.8346e-17 5.2537 -96.214 21.611)" gradientUnits="userSpaceOnUse" spreadMethod="reflect" xlink:href="#linearGradient3764"/>
  <radialGradient id="radialGradient3806" cx="56.758" cy="178.72" r="54.056" gradientTransform="scale(1.5979 .62583)" gradientUnits="userSpaceOnUse" xlink:href="#linearGradient3793"/>
  <linearGradient id="linearGradient3875" x1="89.196" x2="106.57" y1="29.041" y2="23.232" gradientTransform="matrix(.82322 0 0 1.2148 0 22.5)" gradientUnits="userSpaceOnUse" spreadMethod="reflect" xlink:href="#linearGradient3864"/>
  <radialGradient id="radialGradient3878" cx="60.952" cy="7.3032" r="1.5434" gradientTransform="matrix(1.0924 0 0 .91542 0 22.5)" gradientUnits="userSpaceOnUse" spreadMethod="reflect" xlink:href="#linearGradient3793"/>
  <linearGradient id="linearGradient3886" x1="98.578" x2="86.999" y1="51.009" y2="56.07" gradientTransform="matrix(1.3579 0 0 .73641 0 22.5)" gradientUnits="userSpaceOnUse" spreadMethod="reflect" xlink:href="#linearGradient3768"/>
  <radialGradient id="radialGradient3910" cx="80.399" cy="1.9145" r="9.7997" gradientTransform="matrix(.70903 0 0 1.4104 0 22.5)" gradientUnits="userSpaceOnUse" xlink:href="#linearGradient3793"/>
  <radialGradient id="radialGradient3913" cx="59.478" cy="17.472" r="19.74" gradientTransform="matrix(.56091 .43013 -.61051 .8713 24.27 -1.6579)" gradientUnits="userSpaceOnUse" xlink:href="#linearGradient3764"/>
  <linearGradient id="linearGradient3914" x1="103.45" x2="83.031" y1="24.839" y2="19.991" gradientTransform="matrix(.6418 .069493 -.16675 1.5401 -5.9436 17.026)" gradientUnits="userSpaceOnUse" spreadMethod="reflect">
   <stop id="stop3889" stop-color="#2a832d" stop-opacity=".94845" offset="0"/>
   <stop id="stop3890" stop-color="#6bed71" stop-opacity=".82474" offset="1"/>
  </linearGradient>
  <linearGradient id="linearGradient2402" x1="95.439" x2="99.515" y1="48.82" y2="3.6301" gradientTransform="matrix(1.0892 .22575 -.10413 .89296 -2.2903 -.21082)" gradientUnits="userSpaceOnUse" xlink:href="#linearGradient3768"/>
  <radialGradient id="radialGradient3029" cx="106.92" cy="58.526" r="12.337" gradientTransform="scale(.99486 1.0052)" gradientUnits="userSpaceOnUse" xlink:href="#linearGradient3793"/>
  <linearGradient id="linearGradient3033" x1="90.016" x2="87.464" y1="75.273" y2="42.978" gradientTransform="scale(1.1802 .84735)" gradientUnits="userSpaceOnUse" xlink:href="#linearGradient3864"/>
  <linearGradient id="linearGradient3035" x1="95.439" x2="99.515" y1="48.82" y2="3.6301" gradientTransform="matrix(1.1099 .070135 .020428 .86502 -.78689 17.121)" gradientUnits="userSpaceOnUse" xlink:href="#linearGradient3768"/>
  <linearGradient id="linearGradient3036" x1="90.016" x2="87.464" y1="75.273" y2="42.978" gradientTransform="matrix(1.1688 -.15716 .11724 .80767 1.5106 17.017)" gradientUnits="userSpaceOnUse" xlink:href="#linearGradient3864"/>
  <linearGradient id="linearGradient3042" x1="84.461" x2="83.232" y1="106.35" y2="80.095" gradientTransform="scale(1.5152 .65999)" gradientUnits="userSpaceOnUse" spreadMethod="reflect" xlink:href="#linearGradient3864"/>
 </defs>
 <path id="path3916" d="m105.36-33.675z" fill="none" stroke="#000" stroke-width="1pt"/>
 <g id="g2452">
  <path id="path3802" transform="matrix(1.025 0 0 .80851 -4.4267 50.396)" d="m177.07 111.85c0 18.684-38.671 33.83-86.374 33.83-47.703 0-86.374-15.146-86.374-33.83 0-18.684 38.671-33.83 86.374-33.83 47.703 0 86.374 15.146 86.374 33.83z" fill="url(#radialGradient3806)"/>
  <path id="path3807" transform="matrix(.61076 -.0066595 -.025607 .27621 58.32 131.77)" d="m177.07 111.85c0 18.684-38.671 33.83-86.374 33.83-47.703 0-86.374-15.146-86.374-33.83 0-18.684 38.671-33.83 86.374-33.83 47.703 0 86.374 15.146 86.374 33.83z" fill="url(#radialGradient3806)" opacity=".27488"/>
  <path id="path3748" d="m13.612 69.008 6.5717 64.803c0.084827 1.4421 0.67862 4.1565 2.5448 4.8352l83.8 30.658c2.8841 1.4421 7.7593 0.84828 10.134-0.25448l56.719-31.93c2.5448-1.1028 4.3262-2.969 4.5807-5.5986l7.3352-61.076c0.42414-3.8023 3.9021-2.2605 4.3262-5.5538l0.89069-8.0162c0.16965-1.0603-0.9331-2.2479-2.4176-2.6721l-107.96-14.461c-2.1631-0.59379-5.0448-0.55138-7.0807-1e-6l-61.613 13.577c-1.6117 0.50896-2.7145 2.0359-2.5448 3.0538l2e-7 7.6345c0.38413 2.6995 3.5676 1.0281 4.7151 5z" fill="url(#linearGradient3763)" fill-rule="evenodd" stroke="#00287b" stroke-width=".3125"/>
  <path id="path3750" d="m20.153 53.893 93.59 20.005 67.319-18.163-104.01-14.396-56.9 12.554z" fill="url(#linearGradient3796)" fill-rule="evenodd" opacity=".59716" stroke="url(#linearGradient3767)" stroke-linejoin="round" stroke-opacity=".59444" stroke-width="1.25"/>
  <path id="path3752" d="m13.563 66.954 95.284 23.419 1.2543 76.086-90.991-52.061-5.5474-47.444z" fill="url(#linearGradient3756)" fill-rule="evenodd" opacity=".35071"/>
  <path id="path2742" d="m32.31 86.1c-0.30348 0.046722-0.60114 0.17931-0.87916 0.4375l-3.1207 6.125 7.1106 8.0937 3.0978-6.5312c-1.4306-3.9752-4.0842-8.4521-6.2085-8.125zm1.9313 0.1875c1.8882 1.4677 3.1565 3.7914 4.2897 6.625l3.0523 7.6562-1.8708 0.96875 7.1647 2.875 3.2498-7.0312-2.1541 0.71875-1.7918-4.5312c-0.57525-1.6833-2.0676-3.5756-3.3147-4l-8.6251-3.2812zm-10.785 9.3438 2.248 3.0312-1.6666 4.375c-0.83661 1.9778 1.0054 4.9323 2.1335 6.1562 1.1106 1.205 2.7694 1.9567 4.3063 2.5312l2.3874-5.0625 2.1876 2.3438-4.2211-10.562-7.3751-2.8125zm28 10.781-6.327 2.9375 3.7669 9.5c3.2079 1.5127 7.0713 1.4556 6.0708-3.2188l-3.5106-9.2188zm-26.931 1.2188 5.1753 13.031c1.0009 1.9202 2.7497 2.9592 4.5105 3.5938l4.7188 1.875-0.64402-10.688-9.0147-3.625c-1.3879-0.43287-3.2188-1.5332-4.7459-4.1875zm19.417 6.875-2.9707 7.25 4.069 10.125-0.11884-3.4688 3.2021 1.2812c1.1839 0.60151 2.6501 0.11014 3.1187-1.2188l3.4727-8.875c-1.2463 1.3384-2.9671 1.1348-4.9854 0.34375l-5.4396-2.125-0.348-3.3125z" fill="url(#linearGradient3779)" fill-rule="evenodd"/>
  <path id="text2783" d="m68.64 104.5 0.26751-2.8585c0.048328-0.49204-0.3277-1.0174-0.47644-1.1217-0.24809-0.15688-0.43896-0.0046-0.39524 0.55441l0.25223 3.2996 0.35194 0.1262m1.8983 0.68075 0.2675-2.8585c0.048328-0.49205-0.3277-1.0174-0.47644-1.1217-0.24809-0.15689-0.43896-0.0046-0.39524 0.55442l0.25223 3.2995 0.35194 0.12621m5.4685 1.7912 2.0473 8.7484 0.21329 0.07649 1.4072-9.9886c0.034831-0.2422 0.16118-0.68929 0.6091-0.52866l-0.060588-0.32735-1.9197-0.6884 0.060588 0.32735c0.17063 0.06119 1.007 0.27621 0.86767 1.245l-1.0089 6.9223-1.7769-7.7175c-0.29624-1.2778 0.25439-1.0464 0.585-0.92784l-0.060587-0.32735-2.4742-0.88726 0.060587 0.32735c0.20262 0.07267 0.66008 0.33859 0.86094 1.2086l0.3198 1.4051-0.76011 5.7381-1.7628-7.6955c-0.29624-1.2778 0.2544-1.0464 0.585-0.92782l-0.060587-0.32736-2.4742-0.88726 0.060588 0.32735c0.20262 0.07266 0.64942 0.33475 0.86094 1.2086l2.6791 11.301 0.22396 0.08031 0.91749-7.6852m9.1815 9.7446c-0.14541 0.23651-0.39633 0.3333-0.62536 0.387-0.22903 0.0537-0.70165-0.13276-1.1344-0.69543-0.3693-0.489-0.65378-1.5419-0.69296-2.5067 0.51418-0.01937 1.117 0.01005 1.6627-0.2697 0.44515-0.2309 0.72531-0.70773 0.76751-1.6095 0.043334-1.0032-0.56449-1.8664-1.2257-2.1035-1.1518-0.41304-2.3532 1.3804-2.0908 4.0893 0.13457 1.3726 0.71316 2.6159 1.2037 3.1144 0.67408 0.68319 1.1136 0.63706 1.3387 0.6159 0.5894-0.04333 1.125-1.0228 1.1727-1.1415 0.055026-0.13308-0.056083-0.41064-0.13974-0.27085l-0.23636 0.39066m-2.4341-3.199c-0.017287-1.008 0.010842-1.6092 0.33146-2.5129 0.12914-0.37817 0.36044-0.63481 0.55747-0.69998 0.29022-0.09969 0.58713 0.1596 0.72457 0.95598 0.17783 1.0146-0.090632 2.3616-1.6135 2.2569m-18.501 8.2222 0.72407 0.36153 2.3625 6.4164 1.5571 0.55836-0.060585-0.32734c-0.17064-0.06119-0.68028-0.44772-0.83629-0.86022l-2.0937-5.5559c0.83189-0.02429 1.5875-0.24575 1.6095-1.5792 0.03614-1.9566-1.1178-3.7797-2.6855-4.3419l-2.6235-0.94081 0.060587 0.32735c0.30928 0.11091 0.82342 0.41414 0.83905 1.2517l0.21404 8.6343c0.03355 1.1496-0.26449 0.99183-0.58444 0.87711l0.060585 0.32734 2.4529 0.87961-0.060585-0.32734c-0.30928-0.11091-0.82342-0.41415-0.83905-1.2517l-0.096621-4.4493m-0.11008-4.522c-0.0039-0.29005 0.046629-0.33984 0.21166-0.41649 0.3918 0.07258 0.95424 0.20635 1.3611 0.84467 0.44899 0.70434 0.63022 1.4145 0.66604 2.3612 0.067707 1.9259-0.73106 1.8602-2.1405 1.185l-0.098357-3.9745m8.6954 12.049c-0.14541 0.2365-0.39634 0.3333-0.62536 0.38698-0.22902 0.05372-0.70164-0.13274-1.1344-0.69542-0.3693-0.48899-0.65378-1.5419-0.69296-2.5067 0.51418-0.01937 1.117 0.01005 1.6627-0.2697 0.44516-0.23089 0.72531-0.70773 0.76751-1.6095 0.043335-1.0032-0.56449-1.8664-1.2257-2.1035-1.1518-0.41304-2.3532 1.3804-2.0908 4.0893 0.13457 1.3726 0.71316 2.6159 1.2037 3.1144 0.67408 0.68319 1.1136 0.63705 1.3387 0.61588 0.5894-0.04332 1.125-1.0228 1.1727-1.1415 0.055026-0.13308-0.056088-0.41064-0.13974-0.27084l-0.23636 0.39066m-2.4341-3.199c-0.017291-1.008 0.010844-1.6092 0.33146-2.5129 0.12914-0.37818 0.36044-0.63482 0.55747-0.7 0.29022-0.09968 0.58713 0.15961 0.72457 0.95598 0.17782 1.0146-0.090637 2.3616-1.6135 2.2569m7.0255 5.0153c-0.18247 0.35905-1.0565 0.96249-1.827-0.67216-0.23009-0.49001-0.65098-1.4729-0.6553-3.0026-0.020585-1.6714 0.17205-2.621 0.73229-2.9295 0.33401-0.18585 0.6259-0.11514 0.82403 0.04081 0.10608 0.08898 0.33227 0.28895 0.27891 0.59242-0.03819 0.22401-0.022532 0.739 0.13797 1.0682 0.16051 0.32922 0.34067 0.49571 0.46922 0.49086 0.19983 0.00376 0.27452-0.29207 0.26949-0.48065-0.01343-0.39534-0.28504-1.0021-0.5376-1.3983-0.26322-0.40002-0.40186-0.44974-0.7392-0.60467-1.3707-0.62737-2.4054 0.61463-2.2272 3.5141 0.1272 2.0322 0.8444 3.6477 2.091 4.1966 0.21666 0.09467 0.5439 0.19504 0.961-0.07987 0.26609-0.17624 0.59283-0.67033 0.6361-1.0284-0.00166-0.17039-0.081351-0.38575-0.16164-0.22776l-0.25209 0.52084m2.636 4.3242c-0.29634-0.31002-0.64435-0.46877-0.68818-0.06-0.019664 0.16273 0.008363 0.52935 0.20086 0.87003 0.17847 0.31871 0.57923 0.54731 0.82679 0.43234 0.31941-0.15713 0.63719-0.80723 0.71412-0.9834 0.45423-1.0426 0.84287-2.9238 1.1783-5.4693 0.070229-0.53513 0.14166-1.8169 0.10634-2.1692-0.051022-0.54465-0.21875-1.5047-0.6964-1.8798-0.44958-0.33101-0.51081 0.03755-0.51028 0.30941 0.003334 0.34078 0.3906 0.81924 0.65438 1.1685 0.18633 0.2536 0.20032 0.59819 0.23342 0.83079 0.13457 1.3726-0.3484 3.3898-0.45171 3.6923-0.62787-2.2627-1.2137-4.1367-2.1116-6.5132-0.09708-0.25554-0.10324-0.34265-0.3564-0.36551l-1.277-0.06743 0.061155 0.27663c0.27786 0.04871 0.67698-0.21567 1.2976 1.4162 0.56172 1.4749 1.5 4.0696 2.093 6.897-0.15278 0.89605-0.41443 1.6342-0.80517 2.1053l-0.46922-0.49087m6.8207-0.93296c-0.18247 0.35904-1.0565 0.96249-1.827-0.67215-0.23009-0.49003-0.65098-1.4729-0.6553-3.0026-0.020586-1.6714 0.17205-2.621 0.73229-2.9295 0.33401-0.18585 0.62589-0.11515 0.82403 0.0408 0.10608 0.08898 0.33227 0.28896 0.27891 0.59243-0.038197 0.22401-0.022534 0.739 0.13797 1.0682 0.1605 0.32922 0.34067 0.49571 0.46922 0.49086 0.19983 0.00375 0.27452-0.29208 0.26949-0.48066-0.01343-0.39533-0.28505-1.0021-0.5376-1.3983-0.26322-0.40001-0.40186-0.44973-0.7392-0.60467-1.3707-0.62737-2.4054 0.61464-2.2272 3.5141 0.1272 2.0322 0.8444 3.6477 2.091 4.1967 0.21666 0.09466 0.5439 0.19503 0.961-0.07987 0.26609-0.17626 0.59283-0.67033 0.63609-1.0284-0.001668-0.1704-0.081351-0.38575-0.16164-0.22776l-0.2521 0.52084m2.4196-8.8954c-0.011192-0.27569-0.02239-0.55137-0.097575-0.85001l-1.4622-0.09988 0.060587 0.32735c0.56524 0.2027 0.70781 0.21987 0.73354 1.112l0.26173 8.8382c0.041948 1.3564 0.62511 1.8712 0.95462 1.7686 0.47265-0.13615 0.6153-0.76416 0.75681-1.2907 0.089284-0.32455 0.024765-0.61936-0.10212-0.44412-0.10162 0.15033-0.15334 0.94679-0.42897 1.0177-0.44739 0.11124-0.39395-0.83742-0.41355-1.3199l-0.26283-9.0593m5.4035 11.531c-0.14541 0.2365-0.39634 0.3333-0.62537 0.38699-0.22903 0.0537-0.70164-0.13275-1.1344-0.69543-0.3693-0.48899-0.65378-1.5418-0.69296-2.5067 0.51417-0.01939 1.117 0.01004 1.6627-0.26971 0.44515-0.2309 0.72531-0.70774 0.76751-1.6095 0.043334-1.0032-0.5645-1.8664-1.2257-2.1035-1.1518-0.41304-2.3532 1.3804-2.0908 4.0893 0.13457 1.3726 0.71316 2.6159 1.2037 3.1144 0.67408 0.6832 1.1136 0.63706 1.3387 0.6159 0.58939-0.04333 1.125-1.0228 1.1727-1.1416 0.055026-0.13308-0.056086-0.41062-0.13974-0.27083l-0.23636 0.39066m-2.4341-3.199c-0.017288-1.008 0.01084-1.6092 0.33146-2.5129 0.12914-0.37818 0.36044-0.63482 0.55747-0.7 0.29022-0.09967 0.58713 0.15961 0.72457 0.95598 0.17782 1.0146-0.09064 2.3616-1.6135 2.257m4.8074 2.2842c0.076042-2.3328 0.17493-3.1973 0.28515-5.0764 0.10909-1.7777-0.032845-2.4908-0.17145-2.8631-0.15937-0.43071-0.34347-0.56464-0.46135-0.55597-0.22509 0.02116-0.27058 0.25953-0.29756 0.43663-0.042121 0.25657-0.011366 1.3373 0.06654 2.35l0.40523 5.5787 0.17344 0.13011m-0.47006 2.1406c0.094246 0.50922 0.40293 0.99347 0.70154 1.1006 0.29861 0.10707 0.45919-0.20887 0.36494-0.7181-0.094246-0.50921-0.40292-0.99346-0.70154-1.1005-0.29861-0.10709-0.45919 0.20886-0.36494 0.71808m3.2113-5.6741 0.26751-2.8584c0.04832-0.49205-0.32771-1.0174-0.47646-1.1217-0.24809-0.15688-0.43896-0.0046-0.39523 0.55442l0.25223 3.2995 0.35194 0.1262m1.8983 0.68075 0.2675-2.8585c0.04833-0.49205-0.3277-1.0174-0.47644-1.1217-0.24808-0.15688-0.43895-0.0046-0.39523 0.55442l0.25223 3.2995 0.35194 0.1262" fill="#fff" stroke="#fff" stroke-width=".75451"/>
  <path id="path3780" d="m117.81 93.324 66.097-21.953-4.3804 35.105c-5.7333 37.183-56.51 6.673-64.279 58.87l2.5629-72.022z" fill="url(#linearGradient3784)" fill-rule="evenodd" opacity=".26066"/>
  <rect id="rect3797" transform="matrix(1 .0020882 -.007633 .99997 0 0)" x="111.24" y="92.189" width="5.5047" height="74.679" rx="2.5192" ry="1.4394" fill="url(#linearGradient3801)" opacity=".34597"/>
  <path id="path3034" d="m91.241 35.522 46.558 2.1125-5.3487 29.554-44.864-2.8349 3.6549-28.832z" fill="url(#linearGradient3035)" stroke="url(#linearGradient3036)" stroke-linecap="round" stroke-linejoin="round" stroke-width=".61315"/>
  <path id="path3786" d="m185.7 68.491-66.918 22.037c-3.3083 1.0179-7.249 1.1015-10.001-0.14907l0.25938 22.328c1.6541-0.25448 3.6208-0.08358 6.4999-0.80336 2.8791-0.71979 66.58-23.033 66.58-23.033l3.5797-20.379z" fill="url(#linearGradient3790)" fill-rule="evenodd" opacity=".40758"/>
  <path id="path3037" transform="matrix(.6088 0 0 1.3455 60.112 -24.537)" d="m118.33 58.829a11.961 12.088 0 1 1-23.921 0 11.961 12.088 0 1 1 23.921 0z" fill="url(#radialGradient3029)" opacity=".55924"/>
  <path id="rect1777" d="m86.207 31.458 45.807 8.6159-9.5461 29.672-44.025-9.1249 7.7647-29.163z" fill="url(#linearGradient2402)" stroke="url(#linearGradient3033)" stroke-linecap="round" stroke-linejoin="round" stroke-width=".625"/>
  <path id="path3791" d="m12.953 54.711 7.1255-1.3778 94.009 21.184 67.947-19.192 5.8531 0.40356-73.8 22.351-101.13-23.369z" fill="#fff" fill-rule="evenodd" opacity=".20379"/>
  <rect id="rect3809" transform="matrix(.97133 .23774 0 1 0 0)" x="10.374" y="52.349" width="105.97" height="10.437" rx="2.3868" ry="2.0711" fill="#000409" fill-opacity=".46667" opacity=".3"/>
  <path id="path3887" d="m64.156 4.375c-2.5109-0.1421-4.2733 0.68577-4.375 1.625l-0.5 2.375 0.625 2.3125c-0.31962 2.9519-1.9512 13.237-5.875 18.719-4.0793 6.4382-12.847 7.2931-16.438 21.781-0.65791 2.6076-0.88928 3.5006-1.5312 6.125l33.656 7.1875c0.34152-1.709 0.64817-3.5301 1.0312-5.0938 3.2435-13.239-2.828-17.561-4.0625-26.219-1.2345-8.6577 2.3142-17.017 2.9688-19.719l1.4375-1.4375 0.5625-2c0.57843-1.1631-0.75825-3.9346-4.7812-5.1562-0.97488-0.29603-1.8818-0.45264-2.7188-0.5z" fill="url(#linearGradient3914)" fill-rule="evenodd"/>
  <path id="path3911" transform="translate(0 22.5)" d="m70.179 28.267c0.001058 6.7097-2.7384 12.15-6.1182 12.15s-6.1192-5.4404-6.1182-12.15c-0.001058-6.7097 2.7384-12.15 6.1182-12.15s6.1192 5.4404 6.1182 12.15z" fill-opacity=".52778" opacity=".41706"/>
  <path id="path2404" transform="matrix(2.0907 0 0 1.1445 -120.25 -10.285)" d="m118.33 58.829a11.961 12.088 0 1 1-23.921 0 11.961 12.088 0 1 1 23.921 0z" fill="url(#radialGradient3029)" opacity=".55924"/>
  <path id="rect3863" d="m81.188 41.719c-1.7999 0.019298-3.7487 0.21096-5.75 0.625-8.0051 1.6562-13.831 6.0019-13.062 9.7188l2.3438 11.375 31.562 6.75-5-24.125c-0.57673-2.7876-4.6939-4.4016-10.094-4.3438z" fill="url(#linearGradient3875)"/>
  <path id="path3813" d="m107.59 41.5c-4.3126-1.0782-11.169 10.644-10.781 12.969-0.25339 1.267-1.7509 2.3403-1.4375 3.5938 1.0436 4.1746 3.6843 3.9633-2.5312 8.625-1.1294 0.84709-1.8124 1.4751-2.6875 2.1875l23.594 5.0312 49.906-13.469c3.2111-2.5148-7.7169-4.4357-9.625-6.3438-4.7915-4.7915-3.9207 0.17912-3.0938 3.0625 0.2192 0.51439 0.44198 1.0224 0.5625 1.625 0.11416 0.57079-0.20105-0.36476-0.5625-1.625-2.3811-5.5878-10.193-5.9629-16.344 0.1875-6.5756 6.5756-2.5219 1e-6 -6.8438 0-5.9613 0-3.6007-4.3125-6.8125-4.3125-0.49462 0 0.66564-1.8443 0.34375-1.4688-6.9252 8.0793-5.6063-8.0422-13.688-10.062z" fill="url(#linearGradient3886)" fill-rule="evenodd"/>
  <path id="path3818" d="m111.22 45.469c-1.2064 0.30161-5.2313 3.8938-5.7812 6.0938-0.43208 1.7283 5.7702-0.16636 6.125-0.34375 2.7166-1.3583-1.1723-3.326 1.0625-2.9062-1.0418-1.0435-1.0637-1.1311-1.4062-2.8438zm1.4062 2.8438c0.01499 0.015011 0.01583 0.015831 0.03125 0.03125 0.51249 0.51249 1.0228 1.0803 1.5 1.6875-0.22889-0.85209-0.55279-1.5366-1.1562-1.6875-0.25304-0.063259-0.2033 9.98e-4 -0.375-0.03125zm1.5312 1.7188c0.51037 1.8999 0.39451 4.828 0.65625 5.875 0.58749 2.35 4.5666 2.7588-0.71875 1.4375-2.3981-0.59953-6.2561 1.0625 0.71875 1.0625 3.7972-2e-6 4.9084 0.59591 6.8438 2.5312 3.2299 3.2299 3.1604 0.60206 1.7812-2.1562-0.26475-0.52948-4.1368-1.7433-4.6875-2.1562-1.3655-1.0241-2.8674-2.5632-3.2188-3.9688-0.26388-1.0555-0.7858-1.8754-1.375-2.625zm-15.719 3.0312c-0.43499-0.028227-0.92586 4.6054 0.1875 5.7188 1.1244 1.1244 2.4305-2.3923 0.34375 1.7812-0.88707 1.7742-2.0801 2.875 1.0938 2.875 2.5983 1e-6 0.81667 1.8234 3.2188 3.625 2.0265 1.5199 2.4406 2.2828 4.3125 3.2188 1.9236 0.96182 7.1478 3.8999 2.9062 0.71875-2.4835-1.8626-3.9924-5.0549-6.5-7.5625-3.1839-3.1839 4.7046-1.911 6.125-1.4375 6.2703 2.0901-7.7744-5.4397-10.062-6.8125-1.9668-1.1801-1.7086-1.6264-1.125-1.8438-0.18524 0.004776-0.070633 0.03125-0.3125 0.03125-0.054555-0.21822-0.12536-0.30847-0.1875-0.3125zm39.406 3.5625c-0.52859-0.31715-3.3557 3.8052-3.9688 5.0312-0.43854 0.87706 6.1415-2.204 2.875 1.0625-0.91755 0.91755 3.25 0.88989 3.25 2.1875 0 0.68561-0.33528 1.4112-0.71875 2.125l9.5-2.5625c0.97853-0.77694 2.0084-1.375 3.4375-1.375 2.3076-1e-6 -4.5498-1.5463-6.8125-1.0938-1.4721 0.29442-2.0292 1.8125-3.9688 1.8125-1.1255 2e-6 1.137-3.6899 2.5312-3.9688 2.5368-0.50736 0.44809-2.5-1.4375-2.5-2.4536 1e-6 -1.541 1.7985-4.6875-0.71875zm19.062 1.375c-0.28935-0.11833-0.54125 0.071243-0.71875 0.78125-0.31945 1.2778-0.91667 2.9097-1.875 4.1875l4.8125-1.3125c-0.0179-0.020119-0.04507 0.023242-0.0625 0-0.13295-0.17726-1.2882-3.3013-2.1562-3.6562zm5.75 0.78125c-0.34682-0.34682-1.4292 1.0756-2.4688 2.5938l0.125-0.03125c0.73483-0.73832 1.5197-2.068 2.3438-2.5625zm-45.531 3.2188c-0.0494 0.020389-0.09705 0.13818-0.15625 0.375-0.48241 1.9296-1.0938 3.4602-1.0938 5.4062 0 1.5698-0.77206 3.8894-1.1875 5.875l3.25-0.875c0.19818-1.6128 0.46875-3.2613 0.46875-4.6562 0-0.11996-0.3459 0.11638-0.375 0-0.41443-1.6577-0.56042-6.2677-0.90625-6.125zm12.438 1.0938c-2.204 2.204-7.6127 6.0108-8.75 8.9062l7.6562-2.0625c-8.1771 2.7257 3.0487-8.7987 1.0938-6.8438z" fill="url(#linearGradient3042)" fill-rule="evenodd"/>
  <path id="path3876" d="m81.188 41.719c-1.7999 0.019298-3.7487 0.21096-5.75 0.625-8.0051 1.6562-13.831 6.0019-13.062 9.7188l2.3438 11.375 31.562 6.75-5-24.125c-0.57673-2.7876-4.6939-4.4016-10.094-4.3438z" fill="url(#radialGradient3878)" opacity=".1327"/>
  <path id="path3870" transform="matrix(.89489 -.21571 .20386 .9272 5.2756 33.602)" d="m85.294 32.135c0 2.8821-6.0423 5.2184-13.496 5.2184s-13.496-2.3364-13.496-5.2184 6.0423-5.2184 13.496-5.2184 13.496 2.3364 13.496 5.2184z" fill="#6e6e6e"/>
  <path id="path3900" d="m52.819 55.259c-2.0489-14.801-15.819-1.4639-10.207-13.638 3.4486-4.9218 8.819-6.9443 11.987-4.5146 3.1684 2.4297 1.6687 13.231-1.7799 18.153z" fill="url(#radialGradient3913)" opacity=".6019"/>
  <path id="path3905" d="m61.33 10.904c5.8531 2.5448 0.25448 17.305 0.25448 17.305s-2.5448 5.0896-5.5986 7.6345c-3.0538 2.5448-8.1434 2.2903-3.3083-3.3083 4.8352-5.5986 6.362-10.434 7.1255-15.014 0.76344-4.5807 1.5269-6.6165 1.5269-6.6165z" fill="url(#radialGradient3910)" fill-rule="evenodd" opacity=".41706"/>
  <path id="path3915" d="m60.776 9.9999c1.5489-0.038003 3.1229 0.17569 4.6728 0.34196 1.2447 0.50052 3.3 0.89471 3.4131 1.7608 0.17885 0.80133-1.5944 0.9049-2.6103 0.33589-1.2257-0.3887-2.5041-0.72924-3.7515-1.0982-1.277 0.00487-2.5561-0.75925-1.7514-1.2744 0.009146-0.022003 0.018292-0.044007 0.027437-0.06601z" fill-opacity=".25556" fill-rule="evenodd" opacity=".76303"/>
  <path id="path3931" d="m64.601 54.436 1.9794 9.5371 17.995 3.7789-2.3393-14.936s-7.1978 4.4986-17.635 1.6195z" fill-opacity=".16667" fill-rule="evenodd"/>
 </g>
</svg>
