<?xml version="1.0" encoding="UTF-8"?>
<!-- Created with Inkscape (http://www.inkscape.org/) -->
<svg id="svg2" width="446.86" height="465.34" version="1.0" xmlns="http://www.w3.org/2000/svg" xmlns:cc="http://creativecommons.org/ns#" xmlns:dc="http://purl.org/dc/elements/1.1/" xmlns:rdf="http://www.w3.org/1999/02/22-rdf-syntax-ns#" xmlns:xlink="http://www.w3.org/1999/xlink">
 <title id="title162">trash</title>
 <defs id="defs4">
  <linearGradient id="linearGradient3390">
   <stop id="stop3392" stop-color="#fff" offset="0"/>
   <stop id="stop3394" stop-color="#fff" stop-opacity="0" offset="1"/>
  </linearGradient>
  <linearGradient id="linearGradient3274">
   <stop id="stop3276" offset="0"/>
   <stop id="stop3278" stop-opacity="0" offset="1"/>
  </linearGradient>
  <linearGradient id="linearGradient2898">
   <stop id="stop2900" stop-color="#eceee9" offset="0"/>
   <stop id="stop2902" stop-color="#c6b6b6" stop-opacity="0" offset="1"/>
  </linearGradient>
  <filter id="filter3382" color-interpolation-filters="sRGB">
   <feGaussianBlur id="feGaussianBlur3384" stdDeviation="2.1557008"/>
  </filter>
  <filter id="filter3534" color-interpolation-filters="sRGB">
   <feGaussianBlur id="feGaussianBlur3536" stdDeviation="1.3702702"/>
  </filter>
  <radialGradient id="radialGradient2734" cx="284.86" cy="667.49" r="173.75" fx="343.45" fy="706.1" gradientTransform="matrix(1 0 0 .36628 0 423)" gradientUnits="userSpaceOnUse">
   <stop id="stop3252" offset="0"/>
   <stop id="stop3258" stop-opacity=".81081" offset=".72804"/>
   <stop id="stop3254" stop-opacity="0" offset="1"/>
  </radialGradient>
  <linearGradient id="linearGradient2736" x1="356.76" x2="368.41" y1="756.88" y2="205.34" gradientTransform="translate(119.2 32.325)" gradientUnits="userSpaceOnUse">
   <stop id="stop3139" offset="0"/>
   <stop id="stop3141" stop-opacity="0" offset="1"/>
  </linearGradient>
  <linearGradient id="linearGradient2738" x1="368.31" x2="502.32" y1="546.77" y2="546.77" gradientTransform="translate(119.2 32.325)" gradientUnits="userSpaceOnUse" spreadMethod="reflect" xlink:href="#linearGradient2898"/>
  <radialGradient id="radialGradient2740" cx="197" cy="623.3" r="69.277" gradientTransform="matrix(.97981 .19994 -.46661 2.2866 419.63 -785.86)" gradientUnits="userSpaceOnUse">
   <stop id="stop3336" offset="0"/>
   <stop id="stop3338" stop-opacity="0" offset="1"/>
  </radialGradient>
  <linearGradient id="linearGradient2742" x1="449.63" x2="349.37" y1="486.28" y2="314.89" gradientUnits="userSpaceOnUse" xlink:href="#linearGradient3390"/>
  <radialGradient id="radialGradient2744" cx="398.49" cy="499.08" r="171.43" gradientTransform="matrix(1.1552 0 0 .5 -61.865 180.47)" gradientUnits="userSpaceOnUse" spreadMethod="reflect" xlink:href="#linearGradient2898"/>
  <linearGradient id="linearGradient2746" x1="396.95" x2="365.06" y1="442.71" y2="360.93" gradientUnits="userSpaceOnUse" xlink:href="#linearGradient3390"/>
  <radialGradient id="radialGradient2748" cx="204.14" cy="464.34" r="171.43" fx="199.92" fy="598.39" gradientTransform="matrix(.92613 -4.6209e-8 6.1493e-8 1.9887 45.685 -460.64)" gradientUnits="userSpaceOnUse" xlink:href="#linearGradient2898"/>
  <linearGradient id="linearGradient2750" x1="342.86" x2="411.43" y1="551.69" y2="551.69" gradientTransform="translate(119.2 32.325)" gradientUnits="userSpaceOnUse" xlink:href="#linearGradient3390"/>
  <radialGradient id="radialGradient2752" cx="264.66" cy="564.46" r="24.244" fx="252.54" fy="545.36" gradientTransform="matrix(1 0 0 4.125 0 -1763.9)" gradientUnits="userSpaceOnUse" xlink:href="#linearGradient2898"/>
  <radialGradient id="radialGradient2754" cx="264.66" cy="564.46" r="24.244" fx="277.08" fy="552.42" gradientTransform="matrix(1 0 0 4.125 0 -1763.9)" gradientUnits="userSpaceOnUse" xlink:href="#linearGradient3274"/>
  <radialGradient id="radialGradient2784" cx="285.71" cy="532.36" r="171.43" fx="292.74" fy="648.24" gradientTransform="matrix(.91304 2.7805e-8 0 .81625 24.844 12.107)" gradientUnits="userSpaceOnUse">
   <stop id="stop3230" offset="0"/>
   <stop id="stop3232" stop-opacity="0" offset="1"/>
  </radialGradient>
  <linearGradient id="linearGradient2786" x1="312.57" x2="500.3" y1="728.26" y2="590.71" gradientUnits="userSpaceOnUse" xlink:href="#linearGradient3274"/>
  <radialGradient id="radialGradient2788" cx="400.02" cy="588.42" r="107.08" gradientTransform="matrix(.17174 .70808 -1.4749 .21806 1268.1 213.42)" gradientUnits="userSpaceOnUse" xlink:href="#linearGradient3390"/>
  <linearGradient id="linearGradient2790" x1="738.84" x2="300.95" y1="935.02" y2="534.76" gradientUnits="userSpaceOnUse" xlink:href="#linearGradient3274"/>
  <linearGradient id="linearGradient2792" x1="393.43" x2="476.03" y1="410.53" y2="498.67" gradientUnits="userSpaceOnUse" xlink:href="#linearGradient3390"/>
  <radialGradient id="radialGradient2794" cx="388.67" cy="655.16" r="107.08" fx="394.22" fy="754.89" gradientTransform="matrix(1 0 0 1.1604 0 -101.87)" gradientUnits="userSpaceOnUse">
   <stop id="stop3310" stop-opacity=".28729" offset="0"/>
   <stop id="stop3312" stop-opacity="0" offset="1"/>
  </radialGradient>
  <linearGradient id="linearGradient2796" x1="519.14" x2="452.31" y1="639.38" y2="645.06" gradientUnits="userSpaceOnUse" xlink:href="#linearGradient3390"/>
  <linearGradient id="linearGradient2798" x1="415.92" x2="508.94" y1="170.46" y2="585.6" gradientUnits="userSpaceOnUse">
   <stop id="stop3400" offset="0"/>
   <stop id="stop3402" stop-opacity="0" offset="1"/>
  </linearGradient>
  <radialGradient id="radialGradient2800" cx="401.51" cy="662.97" r="112.08" gradientTransform="matrix(.82178 -.42006 .79423 .79304 -439.66 275.58)" gradientUnits="userSpaceOnUse" xlink:href="#linearGradient3390"/>
  <linearGradient id="linearGradient2802" x1="353.55" x2="78.792" y1="625.84" y2="532.91" gradientTransform="translate(119.2 32.325)" gradientUnits="userSpaceOnUse" xlink:href="#linearGradient3390"/>
  <radialGradient id="radialGradient2804" cx="210.11" cy="721.03" r="54.548" gradientTransform="matrix(1 0 0 .25926 0 534.1)" gradientUnits="userSpaceOnUse">
   <stop id="stop3440" offset="0"/>
   <stop id="stop3442" stop-opacity="0" offset="1"/>
  </radialGradient>
  <radialGradient id="radialGradient2806" cx="154.01" cy="570.2" r="18.408" gradientTransform="matrix(.44223 -1.5188 3.8425 1.1188 -2050.2 199.92)" gradientUnits="userSpaceOnUse" xlink:href="#linearGradient3390"/>
  <radialGradient id="radialGradient2808" cx="192.25" cy="571.41" r="18.408" gradientTransform="matrix(.18187 -1.215 3.9579 .59246 -2066.2 442.31)" gradientUnits="userSpaceOnUse" xlink:href="#linearGradient3390"/>
  <linearGradient id="linearGradient2810" x1="159.61" x2="158.57" y1="600.22" y2="590.93" gradientTransform="matrix(1.1183 0 0 1.1183 24.142 -48.056)" gradientUnits="userSpaceOnUse">
   <stop id="stop3472" offset="0"/>
   <stop id="stop3474" stop-opacity="0" offset="1"/>
  </linearGradient>
  <linearGradient id="linearGradient2812" x1="168.74" x2="173.02" y1="618.08" y2="604.51" gradientTransform="matrix(1.1183 0 0 1.1183 24.142 -48.056)" gradientUnits="userSpaceOnUse">
   <stop id="stop3484" stop-color="#fff" stop-opacity=".75138" offset="0"/>
   <stop id="stop3486" stop-color="#fff" stop-opacity="0" offset="1"/>
  </linearGradient>
 </defs>
 <metadata id="metadata7">
  <rdf:RDF>
   <cc:Work rdf:about="">
    <dc:format>image/svg+xml</dc:format>
    <dc:type rdf:resource="http://purl.org/dc/dcmitype/StillImage"/>
    <dc:title>trash</dc:title>
    <dc:creator>
     <cc:Agent>
      <dc:title>hrum</dc:title>
     </cc:Agent>
    </dc:creator>
    <cc:license rdf:resource="http://creativecommons.org/licenses/publicdomain/"/>
   </cc:Work>
   <cc:License rdf:about="http://creativecommons.org/licenses/publicdomain/">
    <cc:permits rdf:resource="http://creativecommons.org/ns#Reproduction"/>
    <cc:permits rdf:resource="http://creativecommons.org/ns#Distribution"/>
    <cc:permits rdf:resource="http://creativecommons.org/ns#DerivativeWorks"/>
   </cc:License>
  </rdf:RDF>
 </metadata>
 <g id="layer1" transform="translate(-740.2 -329.89)">
  <g id="g2674" transform="translate(594.29 25.714)">
   <path id="path3248" transform="matrix(.96825 0 0 1.0952 112.08 -53.469)" d="m458.61 667.49a173.75 63.64 0 1 1-347.49 0 173.75 63.64 0 1 1 347.49 0z" fill="url(#radialGradient2734)" fill-rule="evenodd" opacity=".85405"/>
   <path id="path2314" d="m587.06 398.98-341.15 1.4062c12.932 29.809 43.885 269.8 44.133 270.09-2e-3 0.1258 0 0.249 0 0.375 0 30.926 56.592 56.031 126.31 56.031 68.394 0 124.12-24.137 126.22-54.25 0.5855-0.25227 0.90625-0.51736 0.90625-0.8125 0-8.5715 43.576-272.84 43.576-272.84z" fill="#fff" fill-rule="evenodd" stroke="url(#linearGradient2736)" stroke-linejoin="round" stroke-width="6.9396"/>
   <path id="path2918" d="m589.2 398.98-346.15 1.4062c12.932 29.809 46.742 269.8 46.99 270.09-2e-3 0.1258 0 0.249 0 0.375 0 30.926 56.592 56.031 126.31 56.031 68.394 0 124.12-24.137 126.22-54.25 0.5855-0.25227 0.90625-0.51736 0.90625-0.8125 0-8.5715 45.719-272.84 45.719-272.84z" fill="#808080" fill-rule="evenodd"/>
   <path id="path2936" d="m589.2 398.98-346.15 1.4062c12.932 29.809 46.742 269.8 46.99 270.09-2e-3 0.1258 0 0.249 0 0.375 0 30.926 56.592 56.031 126.31 56.031 68.394 0 124.12-24.137 126.22-54.25 0.5855-0.25227 0.90625-0.51736 0.90625-0.8125 0-8.5715 45.719-272.84 45.719-272.84z" fill="url(#linearGradient2738)" fill-rule="evenodd"/>
   <path id="path3332" d="m246.48 755.38s42.426 4.0406 76.772-4.0406c34.345-8.0812 46.467-28.284 46.467-28.284s16.162-191.93-24.244-218.19c-40.406-26.264-64.65 12.122-80.812 44.447-16.162 32.325-30.305 80.812-30.305 94.954 0 14.142 6.0609 44.447 6.0609 54.548 0 10.102 2.0203 54.548 6.0609 56.569z" fill="url(#radialGradient2740)" fill-rule="evenodd" filter="url(#filter3382)"/>
   <path id="path2312" transform="matrix(1.0032 0 0 .78974 129.71 109.64)" d="m457.14 360.93a171.43 85.714 0 1 1-342.86 0 171.43 85.714 0 1 1 342.86 0z" fill="#fff" fill-rule="evenodd" stroke="url(#linearGradient2742)" stroke-linejoin="round" stroke-width="10"/>
   <path id="path2906" transform="matrix(1.0032 0 0 .78974 129.71 109.64)" d="m457.14 360.93a171.43 85.714 0 1 1-342.86 0 171.43 85.714 0 1 1 342.86 0z" fill="#4d4d4d" fill-rule="evenodd"/>
   <path id="path2908" transform="matrix(1.0032 0 0 .78974 129.71 109.64)" d="m457.14 360.93a171.43 85.714 0 1 1-342.86 0 171.43 85.714 0 1 1 342.86 0z" fill="url(#radialGradient2744)" fill-rule="evenodd"/>
   <path id="path2310" transform="matrix(.95725 0 0 .75357 142.84 101.02)" d="m457.14 360.93a171.43 85.714 0 1 1-342.86 0 171.43 85.714 0 1 1 342.86 0z" fill="#4d4d4d" fill-rule="evenodd" stroke="url(#linearGradient2746)" stroke-linejoin="round" stroke-width="10"/>
   <path id="path2319" transform="matrix(.95725 0 0 .75357 142.84 101.02)" d="m457.14 360.93a171.43 85.714 0 1 1-342.86 0 171.43 85.714 0 1 1 342.86 0z" fill="url(#radialGradient2748)" fill-rule="evenodd"/>
   <path id="path3238" d="m490.63 458.97s8.5714 111.43 2.8571 148.57c-5.7143 37.143-31.429 40-31.429 80s14.286 28.571 14.286 28.571-2.8572-2.8571 25.714-45.714 28.571-42.857 28.571-62.857-8.5714-105.71-8.5714-120v-37.143l-31.429 8.5714z" fill="url(#linearGradient2750)" fill-rule="evenodd"/>
   <g id="g3200" transform="matrix(.97187 -.0076636 .0076636 .97187 124.66 46.272)" fill-rule="evenodd">
    <g id="g2966" transform="matrix(.74371 -.016858 .022662 .99974 52.199 .41176)">
     <path id="path2946" transform="matrix(1.1389 0 0 1.1389 -31.371 -78.144)" d="m288.9 564.46a24.244 100.01 0 1 1-48.487 0 24.244 100.01 0 1 1 48.487 0z" fill="url(#radialGradient2752)"/>
     <path id="path2956" transform="matrix(1.1389 0 0 1.1389 -31.371 -78.144)" d="m288.9 564.46a24.244 100.01 0 1 1-48.487 0 24.244 100.01 0 1 1 48.487 0z" fill="url(#radialGradient2754)"/>
    </g>
    <g id="g2974" transform="matrix(.37644 .034796 -.092041 .99576 380.98 -41.345)" opacity=".65405">
     <path id="path2976" transform="matrix(1.1389 0 0 1.1389 -31.371 -78.144)" d="m288.9 564.46a24.244 100.01 0 1 1-48.487 0 24.244 100.01 0 1 1 48.487 0z" fill="url(#radialGradient2752)"/>
     <path id="path2978" transform="matrix(1.1389 0 0 1.1389 -31.371 -78.144)" d="m288.9 564.46a24.244 100.01 0 1 1-48.487 0 24.244 100.01 0 1 1 48.487 0z" fill="url(#radialGradient2754)"/>
    </g>
    <g id="g2984" transform="matrix(.52426 .011544 -.022014 .99976 236.87 -5.0008)" opacity=".57297">
     <path id="path2986" transform="matrix(1.1389 0 0 1.1389 -31.371 -78.144)" d="m288.9 564.46a24.244 100.01 0 1 1-48.487 0 24.244 100.01 0 1 1 48.487 0z" fill="url(#radialGradient2752)"/>
     <path id="path2988" transform="matrix(1.1389 0 0 1.1389 -31.371 -78.144)" d="m288.9 564.46a24.244 100.01 0 1 1-48.487 0 24.244 100.01 0 1 1 48.487 0z" fill="url(#radialGradient2754)"/>
    </g>
    <g id="g2994" transform="matrix(.59718 -.021212 .035498 .99937 138.23 4.0639)" opacity=".80541">
     <path id="path2996" transform="matrix(1.1389 0 0 1.1389 -31.371 -78.144)" d="m288.9 564.46a24.244 100.01 0 1 1-48.487 0 24.244 100.01 0 1 1 48.487 0z" fill="url(#radialGradient2752)"/>
     <path id="path2998" transform="matrix(1.1389 0 0 1.1389 -31.371 -78.144)" d="m288.9 564.46a24.244 100.01 0 1 1-48.487 0 24.244 100.01 0 1 1 48.487 0z" fill="url(#radialGradient2754)"/>
    </g>
    <g id="g3004" transform="matrix(.45086 .0181 -.040113 .9992 303.28 -22.616)" opacity=".43243">
     <path id="path3006" transform="matrix(1.1389 0 0 1.1389 -31.371 -78.144)" d="m288.9 564.46a24.244 100.01 0 1 1-48.487 0 24.244 100.01 0 1 1 48.487 0z" fill="url(#radialGradient2752)"/>
     <path id="path3008" transform="matrix(1.1389 0 0 1.1389 -31.371 -78.144)" d="m288.9 564.46a24.244 100.01 0 1 1-48.487 0 24.244 100.01 0 1 1 48.487 0z" fill="url(#radialGradient2754)"/>
    </g>
    <g id="g3188" transform="matrix(.80445 0 0 1 31.514 4.2857)">
     <path id="path3056" transform="matrix(.42342 -.078085 .20655 1.12 -69.993 -86.387)" d="m288.9 564.46a24.244 100.01 0 1 1-48.487 0 24.244 100.01 0 1 1 48.487 0z" fill="url(#radialGradient2752)"/>
     <path id="path3058" transform="matrix(.42342 -.078085 .20655 1.12 -64.993 -82.101)" d="m288.9 564.46a24.244 100.01 0 1 1-48.487 0 24.244 100.01 0 1 1 48.487 0z" fill="url(#radialGradient2754)"/>
    </g>
    <g id="g3066" transform="matrix(.595 -.055264 .092483 .99571 6.7072 8.0795)" opacity=".80541">
     <path id="path3068" transform="matrix(1.1389 0 0 1.1389 -31.371 -78.144)" d="m288.9 564.46a24.244 100.01 0 1 1-48.487 0 24.244 100.01 0 1 1 48.487 0z" fill="url(#radialGradient2752)"/>
     <path id="path3070" transform="matrix(1.1389 0 0 1.1389 -31.371 -78.144)" d="m288.9 564.46a24.244 100.01 0 1 1-48.487 0 24.244 100.01 0 1 1 48.487 0z" fill="url(#radialGradient2754)"/>
    </g>
    <g id="g3072" transform="matrix(.44663 -.064213 .14231 .98982 -15.116 2.3949)" opacity=".43243">
     <path id="path3074" transform="matrix(1.1389 0 0 1.1389 -31.371 -78.144)" d="m288.9 564.46a24.244 100.01 0 1 1-48.487 0 24.244 100.01 0 1 1 48.487 0z" fill="url(#radialGradient2752)"/>
     <path id="path3076" transform="matrix(1.1389 0 0 1.1389 -31.371 -78.144)" d="m288.9 564.46a24.244 100.01 0 1 1-48.487 0 24.244 100.01 0 1 1 48.487 0z" fill="url(#radialGradient2754)"/>
    </g>
   </g>
   <path id="path3226" transform="matrix(.95725 0 0 .75357 142.84 101.02)" d="m457.14 360.93a171.43 85.714 0 1 1-342.86 0 171.43 85.714 0 1 1 342.86 0z" fill="url(#radialGradient2784)" fill-rule="evenodd"/>
   <path id="path3236" d="m473.48 433.26 17.143 22.857 31.429-2.8571-14.286-25.714-34.286 5.7143z" fill="#fff" fill-rule="evenodd"/>
   <path id="path3260" transform="matrix(.84615 .17411 -.2231 1.1777 66.857 -211.23)" d="m507.1 635.17a107.08 124.25 0 1 1-214.15 0 107.08 124.25 0 1 1 214.15 0z" fill="#808080" fill-rule="evenodd"/>
   <path id="path3264" transform="matrix(.84615 .17411 -.2231 1.1777 66.857 -211.23)" d="m507.1 635.17a107.08 124.25 0 1 1-214.15 0 107.08 124.25 0 1 1 214.15 0z" fill="url(#linearGradient2786)" fill-rule="evenodd"/>
   <path id="path3262" transform="matrix(.80958 .16659 -.21345 1.1268 53.18 -181.28)" d="m507.1 635.17a107.08 124.25 0 1 1-214.15 0 107.08 124.25 0 1 1 214.15 0z" fill="#ccc" fill-rule="evenodd"/>
   <path id="path3282" transform="matrix(.84615 .17411 -.2231 1.1777 66.857 -211.23)" d="m507.1 635.17a107.08 124.25 0 1 1-214.15 0 107.08 124.25 0 1 1 214.15 0z" fill="url(#radialGradient2788)" fill-rule="evenodd"/>
   <path id="path3280" transform="matrix(.80958 .16659 -.21345 1.1268 53.18 -181.28)" d="m507.1 635.17a107.08 124.25 0 1 1-214.15 0 107.08 124.25 0 1 1 214.15 0z" fill="#ccc" fill-rule="evenodd"/>
   <path id="path3288" transform="matrix(.80958 .16659 -.21345 1.1268 53.18 -181.28)" d="m507.1 635.17a107.08 124.25 0 1 1-214.15 0 107.08 124.25 0 1 1 214.15 0z" fill="url(#linearGradient2790)" fill-rule="evenodd"/>
   <path id="path3298" transform="matrix(.80958 .16659 -.21345 1.1268 53.18 -181.28)" d="m507.1 635.17a107.08 124.25 0 1 1-214.15 0 107.08 124.25 0 1 1 214.15 0z" fill="url(#linearGradient2792)" fill-rule="evenodd"/>
   <path id="path3302" transform="matrix(.80958 .16659 -.21345 1.1268 53.18 -181.28)" d="m507.1 635.17a107.08 124.25 0 1 1-214.15 0 107.08 124.25 0 1 1 214.15 0z" fill="url(#radialGradient2794)" fill-rule="evenodd"/>
   <path id="path3314" transform="matrix(.80958 .16659 -.21345 1.1268 53.18 -181.28)" d="m507.1 635.17a107.08 124.25 0 1 1-214.15 0 107.08 124.25 0 1 1 214.15 0z" fill="none" stroke="url(#linearGradient2796)" stroke-linejoin="round" stroke-width="10"/>
   <path id="path3386" transform="matrix(.69359 .14272 -.18287 .96531 72.074 -71.216)" d="m507.1 635.17a107.08 124.25 0 1 1-214.15 0 107.08 124.25 0 1 1 214.15 0z" fill="url(#linearGradient2798)" fill-rule="evenodd" stroke="url(#radialGradient2800)" stroke-linejoin="round" stroke-width="10"/>
   <path id="path3492" transform="matrix(1.1183 0 0 1.1183 24.142 -48.056)" d="m167 627.93 11.429-0.71428 5-15s-2.1429 2.1428 0-6.4286 5.7143-7.8571 6.4286-13.571c0.71429-5.7143-1.4286-5.7143 0.71429-10 2.1429-4.2857 3.5714-7.8571 3.5714-17.143 0-9.2857 5.7143-15.714 5.7143-15.714l2.1429-8.5714 6.4286-12.857-12.857-1.4286-3.5714 15.714v10.714s-0.71429 10-2.8571 15c-2.1429 5-6.4286 15-6.4286 18.571s2.1428 7.1429-0.71429 11.429-6.4286 13.571-6.4286 13.571l-5 7.1429-3.5714 9.2857z" fill-rule="evenodd" filter="url(#filter3534)" stroke="#000" stroke-width="1px"/>
   <path id="path3408" d="m171.73 706.89v-18.183s107.08-149.5 111.12-181.83 4.0406-34.345 4.0406-34.345l6.0609-2.0203-16.162-2.0203s-16.162-14.142-32.325-6.0609c-16.162 8.0812-52.528 26.264-60.609 54.548s-16.162 70.711-16.162 90.914-8.0812 40.406-8.0812 40.406 2.0203 56.569 12.122 58.589z" fill="url(#linearGradient2802)" fill-rule="evenodd"/>
   <path id="path3436" transform="matrix(1.4286 0 0 1.4286 -57.723 -280.73)" d="m264.66 721.03a54.548 14.142 0 1 1-109.1 0 54.548 14.142 0 1 1 109.1 0z" fill="url(#radialGradient2804)" fill-rule="evenodd"/>
   <path id="path3490" d="m247 555.25 7.1888-15.176h-13.579l-3.9938 16.774 10.384-1.5975z" fill="#b3b3b3" fill-rule="evenodd"/>
   <path id="path3488" d="m235.81 548.06 9.5851 6.3901-9.5851 2.3963-11.981-9.5851 11.981 0.79876z" fill-rule="evenodd" stroke="#000" stroke-width="1.1183px"/>
   <path id="path3446" d="m223.83 547.26s-5.5913 0.79877-8.7863 10.384c-3.195 9.5851-1.5975 30.353-6.3901 37.542-4.7925 7.1888-5.5913 6.3901-7.9876 15.975-2.3963 9.5851-7.1888 11.981 0.79876 16.774 7.9876 4.7925 7.9876 7.9876 7.9876 7.9876v13.579l11.981 1.5975 3.9938-15.176s-3.9938-6.3901-8.7863-11.183c-4.7926-4.7926-4.7926-7.1888-3.195-10.384 1.5975-3.195 6.3901-14.378 10.384-22.365 3.9938-7.9876 3.9938-11.183 3.9938-19.17 0-7.9876 0.79875-15.176 4.7925-17.573 3.9938-2.3963 5.5913-7.9876 5.5913-7.9876h-14.378z" fill="#434343" fill-rule="evenodd"/>
   <path id="path3448" d="m223.83 547.26s-5.5913 0.79877-8.7863 10.384c-3.195 9.5851-1.5975 30.353-6.3901 37.542-4.7925 7.1888-5.5913 6.3901-7.9876 15.975-2.3963 9.5851-7.1888 11.981 0.79876 16.774 7.9876 4.7925 7.9876 7.9876 7.9876 7.9876v13.579l11.981 1.5975 3.9938-15.176s-3.9938-6.3901-8.7863-11.183c-4.7926-4.7926-4.7926-7.1888-3.195-10.384 1.5975-3.195 6.3901-14.378 10.384-22.365 3.9938-7.9876 3.9938-11.183 3.9938-19.17 0-7.9876 0.79875-15.176 4.7925-17.573 3.9938-2.3963 5.5913-7.9876 5.5913-7.9876h-14.378z" fill="url(#radialGradient2806)" fill-rule="evenodd"/>
   <path id="path3464" d="m223.83 547.26s-5.5913 0.79877-8.7863 10.384c-3.195 9.5851-1.5975 30.353-6.3901 37.542-4.7925 7.1888-5.5913 6.3901-7.9876 15.975-2.3963 9.5851-7.1888 11.981 0.79876 16.774 7.9876 4.7925 7.9876 7.9876 7.9876 7.9876v13.579l11.981 1.5975 3.9938-15.176s-3.9938-6.3901-8.7863-11.183c-4.7926-4.7926-4.7926-7.1888-3.195-10.384 1.5975-3.195 6.3901-14.378 10.384-22.365 3.9938-7.9876 3.9938-11.183 3.9938-19.17 0-7.9876 0.79875-15.176 4.7925-17.573 3.9938-2.3963 5.5913-7.9876 5.5913-7.9876h-14.378z" fill="url(#radialGradient2808)" fill-rule="evenodd"/>
   <path id="path3468" d="m223.83 547.26s-5.5913 0.79877-8.7863 10.384c-3.195 9.5851-1.5975 30.353-6.3901 37.542-4.7925 7.1888-5.5913 6.3901-7.9876 15.975-2.3963 9.5851-7.1888 11.981 0.79876 16.774 7.9876 4.7925 7.9876 7.9876 7.9876 7.9876v13.579l11.981 1.5975 3.9938-15.176s-3.9938-6.3901-8.7863-11.183c-4.7926-4.7926-4.7926-7.1888-3.195-10.384 1.5975-3.195 6.3901-14.378 10.384-22.365 3.9938-7.9876 3.9938-11.183 3.9938-19.17 0-7.9876 0.79875-15.176 4.7925-17.573 3.9938-2.3963 5.5913-7.9876 5.5913-7.9876h-14.378z" fill="url(#linearGradient2810)" fill-rule="evenodd" opacity=".78453"/>
   <path id="path3478" d="m223.83 547.26s-5.5913 0.79877-8.7863 10.384c-3.195 9.5851-1.5975 30.353-6.3901 37.542-4.7925 7.1888-5.5913 6.3901-7.9876 15.975-2.3963 9.5851-7.1888 11.981 0.79876 16.774 7.9876 4.7925 7.9876 7.9876 7.9876 7.9876v13.579l11.981 1.5975 3.9938-15.176s-3.9938-6.3901-8.7863-11.183c-4.7926-4.7926-4.7926-7.1888-3.195-10.384 1.5975-3.195 6.3901-14.378 10.384-22.365 3.9938-7.9876 3.9938-11.183 3.9938-19.17 0-7.9876 0.79875-15.176 4.7925-17.573 3.9938-2.3963 5.5913-7.9876 5.5913-7.9876h-14.378z" fill="url(#linearGradient2812)" fill-rule="evenodd" opacity=".78453"/>
  </g>
 </g>
</svg>
