<?xml version="1.0" encoding="UTF-8"?>
<!DOCTYPE svg  PUBLIC '-//W3C//DTD SVG 20010904//EN'  'http://www.w3.org/TR/2001/REC-SVG-20010904/DTD/svg10.dtd'>
<!-- Created with Inkscape (http://www.inkscape.org/) -->
<svg id="svg1" width="700pt" height="700pt" xmlns="http://www.w3.org/2000/svg" xmlns:cc="http://web.resource.org/cc/" xmlns:dc="http://purl.org/dc/elements/1.1/" xmlns:rdf="http://www.w3.org/1999/02/22-rdf-syntax-ns#" xmlns:xlink="http://www.w3.org/1999/xlink">
 <metadata>
  <rdf:RDF xmlns:cc="http://web.resource.org/cc/" xmlns:dc="http://purl.org/dc/elements/1.1/" xmlns:rdf="http://www.w3.org/1999/02/22-rdf-syntax-ns#">
   <cc:Work rdf:about="">
    <dc:title>Shamrock for March</dc:title>
    <dc:description/>
    <dc:subject>
     <rdf:Bag>
      <rdf:li>hash</rdf:li>
      <rdf:li>holiday</rdf:li>
      <rdf:li/>
      <rdf:li>recreation</rdf:li>
     </rdf:Bag>
    </dc:subject>
    <dc:publisher>
     <cc:Agent rdf:about="http://www.openclipart.org">
      <dc:title>Nathan Eady</dc:title>
     </cc:Agent>
    </dc:publisher>
    <dc:creator>
     <cc:Agent>
      <dc:title>Nathan Eady</dc:title>
     </cc:Agent>
    </dc:creator>
    <dc:rights>
     <cc:Agent>
      <dc:title>Nathan Eady</dc:title>
     </cc:Agent>
    </dc:rights>
    <dc:date/>
    <dc:format>image/svg+xml</dc:format>
    <dc:type rdf:resource="http://purl.org/dc/dcmitype/StillImage"/>
    <cc:license rdf:resource="http://web.resource.org/cc/PublicDomain"/>
    <dc:language>en</dc:language>
   </cc:Work>
   <cc:License rdf:about="http://web.resource.org/cc/PublicDomain">
    <cc:permits rdf:resource="http://web.resource.org/cc/Reproduction"/>
    <cc:permits rdf:resource="http://web.resource.org/cc/Distribution"/>
    <cc:permits rdf:resource="http://web.resource.org/cc/DerivativeWorks"/>
   </cc:License>
  </rdf:RDF>
 </metadata>
 <defs id="defs3">
  <linearGradient id="linearGradient2307">
   <stop id="stop2308" stop-color="#b2ff00" stop-opacity="0" offset="0"/>
   <stop id="stop2315" stop-color="#abef0f" stop-opacity="0" offset=".37879"/>
   <stop id="stop2314" stop-color="#abef0f" stop-opacity=".45882" offset=".82681"/>
   <stop id="stop2309" stop-color="#abef0f" offset="1"/>
  </linearGradient>
  <radialGradient id="radialGradient2313" cx="399.93" cy="370.95" r="318.36" gradientTransform="scale(1.0254 .97524)" gradientUnits="userSpaceOnUse" xlink:href="#linearGradient2307"/>
  <radialGradient id="radialGradient2317" cx="399.93" cy="370.95" r="318.36" gradientTransform="matrix(-1.0254 0 0 .97524 918.83 -22.349)" gradientUnits="userSpaceOnUse" xlink:href="#linearGradient2307"/>
  <radialGradient id="radialGradient2319" cx="399.93" cy="370.95" r="318.36" gradientTransform="matrix(.99792 0 0 -.96838 -9.0808 825.01)" gradientUnits="userSpaceOnUse" xlink:href="#linearGradient2307"/>
  <radialGradient id="radialGradient2321" cx="399.93" cy="370.95" r="318.36" gradientTransform="matrix(-1.0254 0 0 -.97524 912.73 805.32)" gradientUnits="userSpaceOnUse" xlink:href="#linearGradient2307"/>
 </defs>
 <g id="layer1">
  <path id="path1061" d="m452.02 434.8c-34.941 243.11-14.787 319.53 160.84 411.18 15.355 3.359 40.788 0.95972 33.11-20.154-199.14-114.69-188.7-141.27-175.24-393.9-43.624 768.76 702.85-132.4 10.469-30.231 711.78-66.277-46.43-703.13-22.232-23.178 11.94-684.77-733.52 34.13-25.81 24.021-675.4-13.739-31.727 748.3 18.859 32.267z" fill="#427c08" stroke="#000" stroke-width=".25pt"/>
  <path id="path2306" d="m445.85 337.53c-16.287-66.505-8.1434-216.48-116.04-242.27-151.33-4.0717-200.87 130.29-185.26 195.44 38.003 96.364 177.8 86.863 278.91 93.649" fill="url(#radialGradient2313)" fill-rule="evenodd"/>
  <path id="path2316" d="m464.84 325.36c18.323-95.007 22.394-222.59 130.29-248.37 151.33-4.0717 204.94 126.22 179.16 191.37-54.289 96.364-173.73 111.29-274.84 118.08" fill="url(#radialGradient2317)" fill-rule="evenodd"/>
  <path id="path2318" d="m443.15 455.24c-15.851 66.036-26.248 249.56-131.26 275.17-124.88 30.509-195.49-129.38-180.3-194.07 36.985-95.685 199.5-120.86 297.91-127.6" fill="url(#radialGradient2319)" fill-rule="evenodd"/>
  <path id="path2320" d="m477.05 465.75c16.287 66.505-12.215 244.98 95.685 270.77 151.33 4.0717 211.05-181.19 195.44-246.34-38.003-96.364-163.55-84.827-262.63-81.434" fill="url(#radialGradient2321)" fill-rule="evenodd"/>
 </g>
</svg>
