<?xml version="1.0" encoding="UTF-8"?>
<!-- Created with Inkscape (http://www.inkscape.org/) -->
<svg id="svg1" width="700pt" height="700pt" xmlns="http://www.w3.org/2000/svg" xmlns:cc="http://creativecommons.org/ns#" xmlns:dc="http://purl.org/dc/elements/1.1/" xmlns:rdf="http://www.w3.org/1999/02/22-rdf-syntax-ns#" xmlns:xlink="http://www.w3.org/1999/xlink">
 <metadata id="metadata3">
  <rdf:RDF>
   <cc:Work rdf:about="">
    <dc:title>Shamrock for March</dc:title>
    <dc:description/>
    <dc:subject>
     <rdf:Bag>
      <rdf:li>hash</rdf:li>
      <rdf:li>holiday</rdf:li>
      <rdf:li/>
      <rdf:li>recreation</rdf:li>
     </rdf:Bag>
    </dc:subject>
    <dc:publisher>
     <cc:Agent rdf:about="http://www.openclipart.org">
      <dc:title>Nathan Eady</dc:title>
     </cc:Agent>
    </dc:publisher>
    <dc:creator>
     <cc:Agent>
      <dc:title>Nathan Eady</dc:title>
     </cc:Agent>
    </dc:creator>
    <dc:rights>
     <cc:Agent>
      <dc:title>Nathan Eady</dc:title>
     </cc:Agent>
    </dc:rights>
    <dc:date/>
    <dc:format>image/svg+xml</dc:format>
    <dc:type rdf:resource="http://purl.org/dc/dcmitype/StillImage"/>
    <cc:license rdf:resource="http://web.resource.org/cc/PublicDomain"/>
    <dc:language>en</dc:language>
   </cc:Work>
   <cc:License rdf:about="http://web.resource.org/cc/PublicDomain">
    <cc:permits rdf:resource="http://web.resource.org/cc/Reproduction"/>
    <cc:permits rdf:resource="http://web.resource.org/cc/Distribution"/>
    <cc:permits rdf:resource="http://web.resource.org/cc/DerivativeWorks"/>
   </cc:License>
  </rdf:RDF>
 </metadata>
 <defs id="defs3">
  <linearGradient id="linearGradient2307">
   <stop id="stop2308" stop-color="#b2ff00" stop-opacity="0" offset="0"/>
   <stop id="stop2315" stop-color="#abef0f" stop-opacity="0" offset=".37879"/>
   <stop id="stop2314" stop-color="#abef0f" stop-opacity=".45882" offset=".82681"/>
   <stop id="stop2309" stop-color="#abef0f" offset="1"/>
  </linearGradient>
  <radialGradient id="radialGradient2313" cx="399.93" cy="370.95" r="318.36" gradientTransform="matrix(1.0254 0 0 .97524 -34.55 -39.156)" gradientUnits="userSpaceOnUse" xlink:href="#linearGradient2307"/>
  <radialGradient id="radialGradient2317" cx="399.93" cy="370.95" r="318.36" gradientTransform="matrix(-1.0254 0 0 .97524 879.68 -38.472)" gradientUnits="userSpaceOnUse" xlink:href="#linearGradient2307"/>
  <radialGradient id="radialGradient2319" cx="399.93" cy="370.95" r="318.36" gradientTransform="matrix(.99792 0 0 -.96838 -41.327 778.94)" gradientUnits="userSpaceOnUse" xlink:href="#linearGradient2307"/>
 </defs>
 <g id="layer1">
  <path id="path1061" d="m424.38 384.13c121.68 203.96 47.402 181.33 153.93 425 15.355 3.359 40.788 0.95972 33.11-20.154-123.13-232.15-32.075-194.24-172.93-419.24 716.47-7.458-35.961-705.72-11.763-25.769 11.94-684.77-735.83 31.826-28.113 21.718-675.4-13.739-24.817 734.48 25.769 18.447z" fill="#427c08" stroke="#000" stroke-width=".25pt"/>
  <path id="path2306" d="m411.3 298.38c-16.287-66.505-8.1434-216.48-116.04-242.27-151.33-4.0717-200.87 130.29-185.26 195.44 38.003 96.364 177.8 86.863 278.91 93.649" fill="url(#radialGradient2313)" fill-rule="evenodd"/>
  <path id="path2316" d="m425.68 309.24c18.323-95.007 25.271-240.35 134.9-252.98 126.57-14.928 200.34 130.83 174.55 195.98-54.289 96.364-173.73 111.29-274.84 118.08" fill="url(#radialGradient2317)" fill-rule="evenodd"/>
  <path id="path2318" d="m410.91 409.17c-15.851 66.036-26.248 249.56-131.26 275.17-124.88 30.509-195.49-129.38-180.3-194.07 36.985-95.685 199.5-120.86 297.91-127.6" fill="url(#radialGradient2319)" fill-rule="evenodd"/>
 </g>
</svg>
