<?xml version="1.0" encoding="UTF-8"?>
<!-- Created with Inkscape (http://www.inkscape.org/) -->
<svg id="svg2" width="122.41" height="75.38" version="1.0" xmlns="http://www.w3.org/2000/svg" xmlns:cc="http://creativecommons.org/ns#" xmlns:dc="http://purl.org/dc/elements/1.1/" xmlns:rdf="http://www.w3.org/1999/02/22-rdf-syntax-ns#">
 <metadata id="metadata4">
  <rdf:RDF>
   <cc:Work rdf:about="">
    <dc:format>image/svg+xml</dc:format>
    <dc:type rdf:resource="http://purl.org/dc/dcmitype/StillImage"/>
   </cc:Work>
  </rdf:RDF>
 </metadata>
 <g id="layer1" transform="translate(-4.1121 -29.485)">
  <path id="path1311" d="m69.435 29.485c-4.1533 3.5238-1.7681 8.1037-3.1985 11.863-1.8263 3.3152-7.1179 1.7108-10.44 2.7032-2.1464-1.6293-2.0092-6.3062-3.8578-8.2521-1.9114 3.5075 3.4481 10.153-3.2997 10.736-6.4877 1.1034-0.82259-7.6896-2.9983-11.255-0.49779 0.92535-0.90901 1.2696-1.3935 1.1931 1.6786 5.0143-2.3249 13.453-7.6149 14.546-4.7284 4.0842-3.6378-5.7576-6.241-8.0698 0.45401-0.29264-1.0682 0.7037-0.64784 1.1432 2.6143 3.1899 1.1635 7.2328 0.51637 11.361-0.25225 1.9623-6.5793 2.8537-4.7677 3.5684 2.0302-0.96406-3.0698 3.3941-5.4811 2.9297 0.55668-3.1145-2.6461-5.2543-4.069-5.9394 1.3326 3.6659 4.0201 13.699-3.1634 12.772-1.3732-1.8711-2.1718-3.6637-5.5044-5.3951 4.4761 6.1931 2.7398 14.299-1.612 16.682 6.2087-2.8274 13.826-15.21 20.178-17.871 10.395-5.1106 21.163-9.8415 32.538-12.262 3.7431-0.00283 11.211-3.4797 11.022 2.4281 2.2399 5.5654 1.1555 11.838-2.5799 16.501-3.5226 5.3946-9.7861 10.167-16.526 7.6912-6.4654-1.6161-11.073-7.2954-12.252-13.732 0.40193-2.7471-2.6362-6.2392-4.6673-3.4648 0.41737 5.6442 3.3717 12.372 7.7653 16.162 5.4875 4.6354 13.787 4.8686 19.587 0.66462 6.5577-4.2175 12.74-10.914 13.109-19.066 0.18341-2.873-3.5935-9.9065 0.84503-7.7445 9.0629 1.1715 14.382 6.771 17.961 6.5221 3.1898 0.217 6.295-0.45507 1.8764 3.228 3.6474 0.06315-3.8624 3.8674-4.6492 6.1571-7.5593 9.291-19.378 13.892-30.76 16.44-8.7009 1.5879-17.689 1.8563-26.475 0.92432-4.5574-1.6131-9.2987-0.53101-13.784 0.73259-3.5689 0.84764-8.0814 1.4473-10.715-1.6639-4.7378-3.6262-5.7348 3.6355-0.59034 3.8692 6.6537 2.183 13.001-2.73 19.716-1.3563 3.4247-0.20664 6.5679 1.4168 3.1416 4.5546-0.26862 3.8043-0.34027 7.134-0.86652 12.857 2.9296-3.4518 1.641-8.8059 3.6112-12.94 0.48043-5.8022 9.7113-4.2399 8.6864 1.3561 0.94847 4.8524 2.9709 10.04 0.83187 14.804 6.3505-2.1098 1.6239-10.578 1.3941-15.418-0.84599-3.0879-0.4127-5.3631 3.6445-4.4054 3.0716 0.12521 7.9294-2.3172 6.0096 2.3628 1.5715 4.1721 2.4772 8.4786 2.3772 12.959 1.547-2.6162 3.0694-6.1326 1.1927-8.3773-1.515-3.3348-1.5452-11.286 4.3231-8.4497 3.3358 2.4521 1.9316 7.4658 3.0629 10.756 3.8482-3.0193 0.52599-7.4791 0.92057-11.376 1.9206-5.7859 10.939-3.4368 9.3255 2.7881 0.10286 2.6597 1.2776 5.1407 1.8171 5.8658 2.191-5.1567-3.4751-12.686 1.3292-16.264 5.325-0.93644 8.7645 3.9402 12.367 6.9085-0.93385-2.93-2.1401-6.4373-4.7723-7.817-6.4615-2.7536 5.3058-4.6828 7.8204-1.1432 0.78636 1.0363 0.50817-1.2645 0.16684-1.3695-3.2779-0.77859-5.5098-6.1576-0.48283-5.5049 5.663-0.38739 8.6053 6.4287 12.869 7.3756-1.1963-2.984-5.3262-7.1496-8.4057-8.8759-1.701-0.64052-6.471-1.0074-2.4237-2.2646 4.4244 1.0802 8.3161 2.3513 12.085 4.8284 0.29475-0.00654-0.40276-0.75943-0.408-0.70983-2.348-1.6028-8.0034-5.7043-7.5383-6.3456 4.3529-1.1754 8.5107 1.3975 11.927 2.6249-1.7013-2.6908-4.8761-4.736-5.995-4.947 6.8419-0.18118 15.945-2.4518 21.251-6.7973-4.8749 2.3951-9.8154 4.9435-15.455 4.9499-2.5526 0.14402-8.1518 0.6809-8.6023 0.04575 5.4454-2.6834 11.99-3.8173 16.492-7.9896-9.0421 4.4001-15.092 5.3886-13.527 4.2481 4.7164-0.30485 11.271-9.1953 12.334-10.566-7.8504 5.7805-1.935-1.6553-0.25665-4.0488-2.9047 1.8872-5.3835 6.7228-10.004 6.6083-1.2266-2.159-8.0302 1.2177-10.731-1.6629 0.2621-4.5501 0.12675-4.1231-4.46 0.52742-4.6695 0.98374-3.0811-4.1472-4.4676-6.0582-2.507 2.4881-0.43466 7.4001-6.2679 5.494-4.6193 0.97685-3.7132-5.1678-4.0729-7.5679-2.3815 2.1624 1.2879 9.0857-4.4306 7.5067-7.2138 1.7499-3.3492-6.7029-4.2484-10.652 0.005807-1.1094 0.6846-1.513 0.6107-2.6201zm-15.973 22.206c-4.6893 1.0707-11.402 6.4649-8.7747 11.568 4.7295 4.4933 15.019 0.92713 14.144-6.1771-0.63637-2.587-3.4118-3.9031-5.369-5.3905zm-2.9714 2.2018c2.7333 3.358-6.5364 9.3807-2.3774 2.8709 0.65782-1.0604 1.5036-1.9868 2.3774-2.8709zm3.5575 3.5116c-0.36716 3.1402-6.9043 5.8401-1.8684 2.143 0.71571-0.62413 1.3803-1.3228 1.8684-2.143zm1.5188 1.3251c0.072869 2.1704-3.1502 1.2387-0.16947 0.1566l0.16947-0.1566zm0.16309 1.0907c1.5217 2.8989-5.6399 3.7994-1.343 1.2246 0.46896-0.38395 0.91884-0.79151 1.343-1.2246zm-3.2823 1.9469-0.7815 0.4341 0.7815-0.4341z"/>
 </g>
</svg>
