<?xml version="1.0" encoding="UTF-8"?>
<!-- Created with Inkscape (http://www.inkscape.org/) -->
<svg id="svg2" width="340" height="350" version="1.0" xmlns="http://www.w3.org/2000/svg" xmlns:cc="http://creativecommons.org/ns#" xmlns:dc="http://purl.org/dc/elements/1.1/" xmlns:rdf="http://www.w3.org/1999/02/22-rdf-syntax-ns#" xmlns:xlink="http://www.w3.org/1999/xlink">
 <defs id="defs4">
  <filter id="filter3243" x="-.1487" y="-.13959" width="1.2974" height="1.2792">
   <feGaussianBlur id="feGaussianBlur3245" stdDeviation="15.504513"/>
  </filter>
  <filter id="filter3731" x="-1.0463" y="-1.0194" width="3.0925" height="3.0389">
   <feGaussianBlur id="feGaussianBlur3733" stdDeviation="141.99203"/>
  </filter>
  <radialGradient id="radialGradient3744" cx="342.86" cy="542.36" r="162.86" gradientTransform="matrix(1 0 0 1.0263 0 -14.273)" gradientUnits="userSpaceOnUse">
   <stop id="stop3229" stop-color="#ffbc00" stop-opacity="0" offset="0"/>
   <stop id="stop3237" stop-color="#ffbc00" stop-opacity="0" offset=".75"/>
   <stop id="stop3231" stop-color="#ffbc00" offset="1"/>
  </radialGradient>
 </defs>
 <metadata id="metadata7">
  <rdf:RDF>
   <cc:Work rdf:about="">
    <dc:format>image/svg+xml</dc:format>
    <dc:type rdf:resource="http://purl.org/dc/dcmitype/StillImage"/>
   </cc:Work>
  </rdf:RDF>
 </metadata>
 <g id="layer1" transform="translate(-55 -41.648)">
  <g id="g3735" transform="translate(-117.5 -325.57)">
   <path id="path3219" transform="translate(0 -.19985)" d="m505.71 542.36a162.86 167.14 0 1 1-325.71 0 162.86 167.14 0 1 1 325.71 0z" fill="#ffda00" fill-rule="evenodd"/>
   <path id="path3225" transform="translate(0 -.19985)" d="m505.71 542.36a162.86 167.14 0 1 1-325.71 0 162.86 167.14 0 1 1 325.71 0z" fill="url(#radialGradient3744)" fill-rule="evenodd"/>
   <path id="path2383" d="m505.71 542.36a162.86 167.14 0 1 1-325.71 0 162.86 167.14 0 1 1 325.71 0z" fill="none" stroke="#000" stroke-dashoffset="0pt" stroke-linejoin="round" stroke-width="10"/>
   <path id="path3155" transform="matrix(.3527 0 0 .3527 221.93 351.07)" d="m505.71 542.36a162.86 167.14 0 1 1-325.71 0 162.86 167.14 0 1 1 325.71 0z" fill-rule="evenodd" stroke="#000" stroke-dashoffset="0pt" stroke-linejoin="round" stroke-width="10"/>
   <path id="path3157" d="m350.54 456.85c2.223-3.103 5.1354-5.569 8.1707-7.8399 4.1049-2.5069 8.1098-5.1504 11.973-8.0132 3.8358-2.6575 7.6852-5.2213 10.833-8.6922 3.0185-2.9271 5.0789-6.5302 7.1157-10.151 1.435-2.6559 3.5053-5.4411 3.9256-8.4996-0.25565-1.7338-2.5181 0.4827-3.0152 0.81327-3.1901 2.0901-6.248 4.4189-9.0006 7.0613-2.7797 2.8589-5.0354 6.2274-7.0312 9.6725-1.7597 2.61-2.7435 5.4965-3.2519 8.5748-0.38087 3.175-0.34452 6.3826-0.34667 9.5753-0.19139 2.9523 0.47105 5.3407 3.1263 6.8047 3.3428 1.1276 6.9849 0.92737 10.469 0.95287 3.443-0.19433 6.9482-1.0481 10.142-2.372 1.0333-0.42832 1.9793-1.0449 2.9942-1.5151 3.4798-1.4818 6.6381-3.5558 9.7088-5.737 1.9756-1.0559 3.4526-3.2492 5.5886-4.0186 0.67261-0.24231 1.377-0.38519 2.0655-0.57778 2.2617 1.1334 1.0679 4.0044 0.43887 5.7789-1.6428 3.4673-3.9792 6.4861-6.3362 9.4801-1.6616 2.0354-3.6595 3.7219-5.6128 5.4636-2.6212 2.3931-5.3041 4.7238-7.3984 7.605-1.1839 2.1964-2.9215 5.0829-0.8923 7.2371 4.8477 1.864 10.444 1.4196 15.575 1.4917 6.4219 0.04306 12.844 0.0062 19.266-0.01384 4.4774-0.01465 8.9548-0.02723 13.432-0.03013 3.3865 0.00559 6.7928 0.52862 10.106 1.2169 1.9897 0.5358 5.3366 1.8407 4.2413 4.4548-2.8811 1.8698-6.3409 2.8655-9.6304 3.774-3.3772 0.83388-6.853 0.88313-10.254 1.5806-2.5546 0.28017-4.1732 1.4676-5.601 3.5853-1.6186 2.3216-1.9493 5.1617-3.1656 7.6621-1.1854 2.7236-3.0658 3.1969-1.9359 6.2863 3.3211 4.7388 7.6662 8.664 12.072 12.37 4.8334 3.544 9.0539 7.8198 13.713 11.564 2.6603 2.0815 5.5447 3.8496 8.2683 5.8458 2.2395 1.965 4.112 4.2996 5.3824 6.9924 1.027 3.2644-0.47305 4.3108-3.0918 5.72-2.7614 1.2464-5.6126 2.2442-8.437 3.3182-3.0537 1.3163-6.2796 1.7238-9.5609 1.9107-2.5328 0.0582-4.9807 0.79273-7.4865 1.131-2.4164 0.38796-3.6725 0.94234-4.7991 3.2843-1.3839 4.6611-0.3587 9.6476 0.27509 14.358 0.89395 6.7272 1.2357 13.504 1.9188 20.252 0.84582 5.2285 2.6914 10.143 5.0903 14.832 2.1242 3.2576 4.6798 6.1435 6.5257 9.582 1.6815 3.0571 3.15 6.2995 3.3569 9.8194-0.55902 3.5907-5.0792 3.6293-7.9986 3.869-4.7329 0.22071-9.4616 0.35803-14.14-0.46288-4.3253-1.0204-8.281-2.8902-11.812-5.5662-2.8486-2.342-5.1811-5.2101-8.1718-7.3776-2.6052-1.6079-5.4338-2.3009-8.4218-1.617-2.1985 2.1834-2.6201 5.5978-2.999 8.653-0.35343 4.0918-0.33298 8.203-0.317 12.306 0.35056 3.0419 0.92125 6.0468 1.217 9.0966 0.46655 2.7375-0.61349 4.8024-2.4216 6.7503-1.9267 1.3401-4.531 3.4823-6.9942 2.4962-0.10399-0.15829-0.25967-0.29283-0.31196-0.47486-0.10476-0.36463 0.88012-4.3061 0.94878-4.8128 0.51584-4.0415-0.28601-8.1491-1.5025-12.001-1.1945-2.5041-2.92-4.8115-4.7881-6.8673-1.917-2.0043-3.5508-4.287-6.1377-5.444-1.729-0.52078-3.6045-0.33722-5.2825 0.31842-0.55593 0.21723-0.88781 0.79888-1.3526 1.1733-3.1338 3.0513-5.3851 6.8192-7.6719 10.509-1.941 3.6027-3.9231 7.1459-4.9937 11.115-0.8198 3.0393-2.3904 5.788-3.5441 8.6996-1.3312 3.2304-3.3617 6.0368-5.3703 8.8648-0.98118 1.1079-3.5187 4.8061-5.1334 4.89-0.53642 0.02788-1.0599-0.17509-1.5899-0.26264-0.1575-4.2806 1.1905-8.4423 2.2455-12.545 1.8045-6.772 1.9789-13.805 3.1967-20.681 0.96879-4.8528 1.8258-9.7244 2.274-14.654 0.11101-3.052-1.27-4.9859-4.2449-5.5704-1.4065-0.06459-3.0654-0.02107-4.3257 0.73439-0.13337 0.07994-0.00691 0.3414-0.11653 0.45167-0.83865 0.84367-1.8472 1.5039-2.7032 2.33-3.2956 3.7705-5.3128 8.3818-7.4771 12.841-2.2899 5.2886-4.8047 10.435-7.7533 15.391-2.7464 4.5376-6.1324 8.625-9.5421 12.671-2.5861 2.8024-5.233 5.5328-7.9295 8.225-1.2343 1.0588-4.3509 3.9963-6.1304 2.6054-0.94084-0.73537-1.1486-2.4797-1.3985-3.4201-0.51801-8.215-0.22129-16.495 0.30168-24.707 0.69499-7.2864 2.395-14.42 3.5793-21.633 0.27774-2.272 1.2154-6.3337-1.4283-7.7323-0.42967-0.2273-0.93369-0.27084-1.4005-0.40627-4.424-0.07636-8.1133 2.4692-11.493 5.032-4.1629 3.6-7.874 7.7146-11.492 11.856-2.5462 2.6267-5.2843 4.8677-8.6681 6.2885-1.2448 0.40839-7.0707 2.9372-6.8413-0.39162 1.8341-3.7002 5.7252-6.0498 8.9725-8.3969 5.0768-3.7966 10.065-7.7235 14.245-12.512 3.0059-3.1067 4.4526-6.9411 5.879-10.895 0.75716-2.684-0.05416-3.5246-2.6146-4.1625-5.4381-0.72739-10.955-0.63443-16.432-0.66146-6.5761-0.00967-13.152 0.00866-19.728 0.01974-5.3046 0.2366-10.58 0.85631-15.879 1.1895-4.8978 0.55105-3.0875-0.52014-0.86447-2.8347 2.8778-2.2041 5.9275-4.1723 8.9443-6.1785 2.7573-1.3896 5.6018-2.5927 8.3873-3.9435 3.4473-2.0082 7.0006-3.8115 10.495-5.738 3.074-1.7113 6.0809-3.5283 9.0674-5.3877 2.594-1.7715 2.5012-3.0336 0.45598-5.1402-3.3002-2.4563-7.2316-3.9443-11.027-5.4661-3.5977-1.4611-7.1004-3.1287-10.5-5.0016-3.069-1.7012-6.1234-3.3462-9.3119-4.8128-3.364-1.3924-6.6077-3.0531-9.9188-4.5644-3.0358-1.5872-6.2687-2.9317-9.1254-4.8372-3.535-2.9143 2.4836-3.2245 4.4846-3.3978 5.4084-0.2283 10.804-0.16087 16.197-0.65955 3.7994-0.67149 7.5404-1.5936 11.372-2.078 2.9382-0.08921 5.7918-0.77437 8.6845-1.2245 1.7246-0.44393 3.3631-0.63929 2.7698-2.8233-1.8873-2.6728-5.0449-4.3418-7.7603-6.0909-3.8325-2.5852-7.5088-5.3871-11.115-8.2787-2.6281-1.879-5.1073-3.9355-7.5509-6.0411-1.7209-1.6933-3.3979-3.4252-5.0409-5.1942-1.5588-1.5434-3.1968-3.0139-4.6904-4.6216-1.521-1.34-2.8422-2.8223-4.5554-3.9165-1.1038 0.17763 1.1328-0.19088 1.751-0.08019 0.43215 0.07737 0.73683 0.48025 1.1268 0.68181 0.49911 0.25794 1.0111 0.49357 1.5358 0.69427 1.7705 0.67715 2.3312 0.71225 4.2631 1.1273 5.643 0.9198 11.379 1.0325 17.084 1.1402 3.581 0.05179 7.1625 0.03323 10.744 0.0208 2.2388-0.11641 4.0622 0.65281 4.9961-1.1875-0.44689-2.6649-1.729-5.1366-2.5853-7.6925-1.3613-4.6249-2.7526-9.2166-3.9809-13.88-1.5961-4.9266-3.1831-9.8662-4.9544-14.734-1.8078-4.7863-3.9459-9.4487-6.7474-13.736-0.97853-1.4345-2.2259-2.6431-3.2524-4.0397-0.1749-0.23795-0.3179-0.49801-0.48755-0.73973-0.06407-0.0913-0.31571-0.21511-0.21283-0.25821 0.55608-0.23297 1.1771-0.26157 1.7657-0.39235 3.1678 1.3898 6.0875 3.3277 9.021 5.1529 3.603 2.3012 7.4442 4.2195 11.023 6.5511 3.5397 2.0224 7.1844 3.8503 10.769 5.7919 3.3443 1.6093 6.775 3.0429 10.192 4.4927 0.63554 0.2223 4.2975 1.9752 0.44591 1.2358-0.20897-0.04012-1.4169-1.308-1.478-1.3696-2.9914-2.1797-3.3454-5.535-3.5182-8.9963-0.16432-6.4956 1.9004-12.766 3.95-18.853 2.2012-5.5334 3.1247-11.407 3.7088-17.297 0.30724-1.6461-0.34435-7.0165 1.7058-7.7167 0.77504-0.2647 1.607-0.3173 2.4104-0.47595 4.9616 1.9396 7.0804 7.9598 9.3156 12.368 4.0224 8.9467 8.1484 17.822 12.854 26.433 9.4462 13.748 8.4925 9.6629 8.32-3.6077-0.37481-4.8033 0.19887-9.5008 1.0065-14.223 1.25-5.3289 3.1096-10.533 5.086-15.635 1.7645-3.266 1.9128-7.4462 4.3561-10.326 1.0559-0.43877 1.6087-0.79304 3.0318-0.25237 1.3767 0.52304 5.2854 7.6172 5.9955 8.8271 3.7274 6.5386 4.1588 23.125 7.9725 29.614l0.15122 2.6342c-3.803-6.4948-5.654-25.228-9.3928-31.76-0.37986-0.64149-2.8487-4.8573-3.4569-5.7276-0.45868-0.65626-0.99076-1.2585-1.5088-1.8689-0.33401-0.39356-0.89491-0.64817-1.0463-1.1417-0.09835-0.32065 0.58071-0.62507 0.41495-0.91664-0.137-0.24097-0.52804 0.16889-0.79205 0.25334-2.5307 2.7992-2.6145 7.0516-4.3989 10.287-1.9811 5.0919-3.8315 10.292-5.0965 15.609-0.80429 4.7124-1.374 9.3981-1.0007 14.191 2.2171 22.176-5.5629 13.305-10.889 4.5174-4.7032-8.6131-8.838-17.487-12.872-26.43-2.2158-4.338-4.3463-10.4-9.3054-12.206 0.0736-0.15651 0.3926-0.48928 0.22079-0.46954-0.33063 0.038-0.64595 0.26981-0.83937 0.54064-1.3668 1.9139-0.35883 4.9583-0.92359 7.0675-0.59289 5.8995-1.5058 11.791-3.7166 17.332-2.053 6.0661-4.1111 12.323-3.9491 18.799 0.17448 3.4414 0.53852 6.7284 3.5071 8.8912 0.25666 0.25553 0.50351 0.52129 0.76997 0.76657 0.22975 0.2115 0.74848 0.29183 0.71735 0.60255-0.21177 2.114-2.3564 0.10012-3.0265-0.11245-3.4159-1.4566-6.8513-2.8836-10.19-4.5078-3.5893-1.9394-7.2374-3.7698-10.776-5.8009-3.5804-2.3249-7.4142-4.2507-11.015-6.5514-2.935-1.8199-5.8569-3.7607-9.0405-5.1133 0.28051-0.24525 0.50047-0.58573 0.84153-0.73575 0.0628-0.02763 0.31096 0.49695 0.68145 1.0065 1.021 1.4043 2.2749 2.6119 3.2467 4.0549 2.7892 4.3062 4.9334 8.9765 6.751 13.769 1.7755 4.8713 3.3518 9.8189 4.9562 14.747 1.2282 4.6595 2.625 9.2462 3.9881 13.867 0.87593 2.5888 2.1726 5.0869 2.6415 7.7871-1.1758 2.6961-5.2034 2.1303-7.6086 2.2018-3.5764 0.01101-7.153 0.02609-10.729-0.03176-5.7094-0.11652-11.451-0.23432-17.097-1.1638-0.86779-0.18893-6.6512-1.5513-6.9738-2.5394-0.12683-0.3885 0.30231-0.77261 0.55704-1.0922 0.0596-0.07478 0.18972 0.02417 0.28458 0.03625 1.7047 1.116 3.037 2.6085 4.5611 3.9519 1.4993 1.6021 3.1304 3.078 4.6876 4.6228 1.6431 1.7618 3.3117 3.4949 5.0324 5.1811 2.4354 2.1094 4.9206 4.1528 7.5358 6.0419 3.6033 2.8888 7.2723 5.6944 11.11 8.2654 2.7447 1.765 5.94 3.4518 7.8202 6.1772 0.83029 2.9811-3.2496 3.2729-5.3414 3.952-2.891 0.45665-5.7475 1.1198-8.6841 1.2198-3.8241 0.49316-7.5592 1.4204-11.358 2.0651-5.3966 0.48915-10.796 0.40882-16.206 0.66391-1.5374 0.14703-4.8588-0.29096-1.9676 2.1932 2.8592 1.8886 6.0751 3.2473 9.1107 4.8197 3.3087 1.5172 6.558 3.1666 9.9203 4.564 3.191 1.4655 6.2422 3.1255 9.3152 4.8223 3.3979 1.8642 6.8936 3.5318 10.486 4.9896 3.8093 1.5354 7.7662 3.0241 11.066 5.5133 2.0614 2.1398 2.2638 3.5547-0.3879 5.3801-2.9859 1.8652-5.9963 3.6807-9.0707 5.3961-3.4962 1.9223-7.0482 3.7252-10.489 5.744-2.784 1.352-5.6149 2.5738-8.3898 3.925-3.0189 1.995-6.0488 3.9808-8.9487 6.148-2.2856 2.3768-3.8978 2.9885 0.73631 2.526 5.2929-0.33704 10.565-0.94642 15.865-1.1732 6.5759-0.00882 13.152-0.02937 19.728-0.01835 5.4911 0.02717 11.026-0.07452 16.476 0.67794 2.6065 0.69783 3.4644 1.6447 2.6969 4.3807-1.4506 3.9624-2.8628 7.8332-5.8902 10.951-4.1699 4.8079-9.1662 8.7366-14.244 12.544-3.2298 2.3329-7.0371 4.6568-8.9571 8.2709-0.31457 2.3375 2.9311 1.068 4.118 1.0889 3.3983-1.3893 6.1333-3.6136 8.6922-6.2282 3.6225-4.1503 7.3502-8.2617 11.502-11.887 4.0389-3.0971 8.8594-5.9405 14.097-5.933 0.476 0.15343 0.99219 0.21496 1.428 0.46028 2.6504 1.4919 1.7576 5.5175 1.4539 7.872-1.2018 7.2109-2.9201 14.342-3.6149 21.63-0.52676 8.1925-0.82431 16.457-0.27885 24.652 1.1168 4.1199 1.8994 4.4271 4.8605 1.6045 2.6935-2.6988 5.3585-5.4161 7.95-8.2179 3.4122-4.0396 6.7969-8.1228 9.5517-12.651 2.956-4.9487 5.4751-10.089 7.7558-15.379 2.1656-4.4666 4.18-9.0838 7.4493-12.883 2.636-2.5876 5.9081-4.8213 9.7666-4.4518 3.0059 0.6683 4.4236 2.6564 4.3103 5.7636-0.454 4.9373-1.3231 9.8144-2.2973 14.674-1.231 6.8761-1.401 13.91-3.1862 20.688-1.0418 4.075-2.373 8.2038-2.2326 12.453-0.375 0.34422-0.87263 0.5906-1.125 1.0327-0.13643 0.23899 0.50949-0.21474 0.74205-0.36188 1.7796-1.126 3.1715-2.8031 4.4216-4.4654 2.0069-2.819 4.0447-5.6106 5.377-8.8315 1.1447-2.9117 2.7207-5.6524 3.5501-8.6848 1.0655-3.9874 3.056-7.5378 4.9977-11.158 2.2846-3.6984 4.5369-7.4678 7.6459-10.55 2.5179-2.1146 6.0336-3.3032 9.2762-2.3884 2.576 1.2091 4.237 3.4733 6.1607 5.496 1.8771 2.0731 3.6087 4.4005 4.8013 6.927 1.2126 3.8719 2.0227 7.9979 1.5232 12.058-0.04422 0.34779-1.0104 4.5285-0.9624 4.7094 0.04118 0.15529 0.18438 0.26313 0.27658 0.3947 1.9034 0.65997 2.3826-0.26409 4.341-1.5656 1.8179-1.8971 2.9196-3.9266 2.46-6.6368-0.29363-3.0546-0.8624-6.0645-1.2158-9.1106-0.01144-4.1096-0.02365-8.2264 0.3185-12.325 0.28196-2.3306 0.71198-7.315 3.0004-8.6604 0.7972-0.4687 1.7067-0.71265 2.5601-1.069 3.0153-0.6288 5.8625 0.08755 8.4694 1.7254 2.9777 2.1829 5.3178 5.0437 8.1696 7.3812 3.5216 2.6566 7.4638 4.5119 11.775 5.5104 4.677 0.80012 9.405 0.65952 14.133 0.42655 2.3769-0.20945 4.9534 0.09749 5.4297-2.7847-0.17774-3.5016-1.6608-6.7264-3.3244-9.766-1.8478-3.4373-4.4222-6.3125-6.5234-9.586-2.4-4.7084-4.2452-9.64-5.088-14.887-0.68187-6.7473-1.0238-13.522-1.9204-20.247-0.64188-4.7327-1.6755-9.7302-0.33178-14.423 1.448-3.186 4.1774-3.6395 7.396-4.3145 2.5035-0.34843 4.954-1.0765 7.4893-1.1202 2.3362-0.14017 4.6996-0.37473 6.9393-0.99723 2.8355-1.0751 5.6651-2.0708 8.4382-3.3 2.5594-1.3676 4.1661-2.2563 3.154-5.5163-1.2633-2.6702-3.1271-4.9867-5.3561-6.9278-2.7269-1.9897-5.6035-3.7692-8.2573-5.8577-4.6425-3.7606-8.8664-8.0261-13.692-11.576-4.4284-3.7211-8.7954-7.6638-12.136-12.422-1.1946-3.2111 0.64949-3.5876 1.9004-6.3944 1.241-2.4969 1.5531-5.3442 3.1608-7.6795 1.8688-2.8657 4.865-4.0846 8.1956-4.6016 3.3984-0.68406 6.876-0.72612 10.244-1.5863 2.425-0.679 4.8958-1.3593 7.0414-2.7281 1.2398-2.4625-2.3403-3.7576-4.1351-4.2249-3.3128-0.67011-6.7079-1.2027-10.092-1.1926-4.4701 0.00355-8.9402 0.00704-13.41 0.01935-6.4215 0.01733-12.843 0.06-19.265 0.01045-5.1491-0.0763-10.832 0.41568-15.659-1.5771-2.0664-2.306-0.39354-5.0788 0.84323-7.4229 2.0811-2.8984 4.7643-5.2339 7.3872-7.6335 1.9479-1.7418 3.9484-3.4186 5.619-5.4399 2.3507-2.9876 4.7055-5.9793 6.3521-9.4372 0.56698-1.5972 1.8761-4.5614-0.34825-5.5053 0.18851-0.12311 0.78133-0.43357 0.56554-0.36931-2.1623 0.64388-3.6257 3.0048-5.6008 4.0019-3.0719 2.1918-6.2342 4.2749-9.7177 5.7653-4.9834 2.3066-10.161 4.5771-15.73 4.7915-3.5014-0.02668-7.1736 0.18492-10.518-1.0076-2.6596-1.5261-3.3694-3.9482-3.1726-6.946 0.00299-3.1994-0.03374-6.4134 0.33704-9.596 0.50221-3.0939 1.4718-6.0029 3.2428-8.6249 1.9924-3.4582 4.2604-6.8319 7.0292-9.7121 2.7392-2.6574 5.7998-4.9882 8.9867-7.0834 0.93624-0.63404 5.3699-3.8312 5.7284-1.5314-0.38462 2.9834-2.5041 5.9669-3.9275 8.5558-2.0487 3.623-4.0825 7.2554-7.1165 10.183-3.1371 3.492-6.9772 6.0696-10.828 8.7192-3.8602 2.8647-7.8539 5.5238-11.97 8.0122-3.0317 2.2496-5.9443 4.702-8.155 7.7948l-1.369 0.34929z" fill="#fff" fill-rule="evenodd" filter="url(#filter3243)" stroke="#000" stroke-dashoffset="0pt" stroke-linejoin="round" stroke-width="3.527"/>
   <path id="path3223" transform="matrix(.3527 0 0 .3527 221.93 351.07)" d="m505.71 542.36a162.86 167.14 0 1 1-325.71 0 162.86 167.14 0 1 1 325.71 0z" fill-rule="evenodd" filter="url(#filter3731)"/>
   <path id="path3221" transform="matrix(.047738 0 0 .047738 361.37 499.15)" d="m505.71 542.36a162.86 167.14 0 1 1-325.71 0 162.86 167.14 0 1 1 325.71 0z" fill="#fff" fill-rule="evenodd" stroke="#000" stroke-dashoffset="0pt" stroke-linejoin="round" stroke-width="10.007"/>
  </g>
 </g>
</svg>
