<?xml version="1.0" encoding="UTF-8"?>
<!-- Created with Inkscape (http://www.inkscape.org/) -->
<svg id="svg2" width="678.16" height="840.02" version="1.1" xmlns="http://www.w3.org/2000/svg" xmlns:cc="http://creativecommons.org/ns#" xmlns:dc="http://purl.org/dc/elements/1.1/" xmlns:rdf="http://www.w3.org/1999/02/22-rdf-syntax-ns#" xmlns:xlink="http://www.w3.org/1999/xlink">
 <defs id="defs4">
  <radialGradient id="radialGradient3735" cx="323.06" cy="482.28" r="163.16" gradientTransform="matrix(.071941 2.1699 -1.2375 .041029 942.78 -321.35)" gradientUnits="userSpaceOnUse">
   <stop id="stop3731" stop-color="#ffb380" offset="0"/>
   <stop id="stop4545" stop-color="#ff9f5f" offset=".63861"/>
   <stop id="stop3733" stop-color="#ff5828" offset="1"/>
  </radialGradient>
  <filter id="filter4577" color-interpolation-filters="sRGB">
   <feGaussianBlur id="feGaussianBlur4579" stdDeviation="4.01074"/>
  </filter>
  <linearGradient id="linearGradient4581" x1="383.24" x2="399.42" y1="667.45" y2="980.97" gradientUnits="userSpaceOnUse">
   <stop id="stop4585" stop-color="#f60" offset="0"/>
   <stop id="stop4589" stop-color="#ff7f2a" stop-opacity=".28897" offset="1"/>
  </linearGradient>
  <filter id="filter4595" color-interpolation-filters="sRGB">
   <feGaussianBlur id="feGaussianBlur4597" stdDeviation="5.0489553"/>
  </filter>
  <filter id="filter4657" x="-.069449" y="-.44098" width="1.1389" height="1.882" color-interpolation-filters="sRGB">
   <feGaussianBlur id="feGaussianBlur4659" stdDeviation="4.1762669"/>
  </filter>
  <filter id="filter4703" x="-.085651" y="-.20034" width="1.1713" height="1.4007" color-interpolation-filters="sRGB">
   <feGaussianBlur id="feGaussianBlur4705" stdDeviation="8.0331023"/>
  </filter>
  <filter id="filter4782" x="-.28767" y="-.31343" width="1.5753" height="1.6269" color-interpolation-filters="sRGB">
   <feGaussianBlur id="feGaussianBlur4784" stdDeviation="7.32179"/>
  </filter>
  <filter id="filter4786" x="-.22838" y="-.43707" width="1.4568" height="1.8741" color-interpolation-filters="sRGB">
   <feGaussianBlur id="feGaussianBlur4788" stdDeviation="8.8384475"/>
  </filter>
  <filter id="filter4790" x="-.20574" y="-.55364" width="1.4115" height="2.1073" color-interpolation-filters="sRGB">
   <feGaussianBlur id="feGaussianBlur4792" stdDeviation="10.616596"/>
  </filter>
  <filter id="filter4794" x="-.50143" y="-.21402" width="2.0029" height="1.428" color-interpolation-filters="sRGB">
   <feGaussianBlur id="feGaussianBlur4796" stdDeviation="6.118925"/>
  </filter>
  <filter id="filter4801" x="-.36522" y="-.25455" width="1.7304" height="1.5091" color-interpolation-filters="sRGB">
   <feGaussianBlur id="feGaussianBlur4803" stdDeviation="6.2127456"/>
  </filter>
  <filter id="filter4807" x="-.22301" y="-.45818" width="1.446" height="1.9164" color-interpolation-filters="sRGB">
   <feGaussianBlur id="feGaussianBlur4809" stdDeviation="6.212745"/>
  </filter>
  <filter id="filter4813" x="-.45455" y="-.22388" width="1.9091" height="1.4478" color-interpolation-filters="sRGB">
   <feGaussianBlur id="feGaussianBlur4815" stdDeviation="7.3961256"/>
  </filter>
  <filter id="filter4819" x="-.33932" y="-.38336" width="1.6786" height="1.7667" color-interpolation-filters="sRGB">
   <feGaussianBlur id="feGaussianBlur4821" stdDeviation="8.7547695"/>
  </filter>
  <filter id="filter4823" x="-.34655" y="-.12157" width="1.6931" height="1.2431" color-interpolation-filters="sRGB">
   <feGaussianBlur id="feGaussianBlur4825" stdDeviation="5.7246818"/>
  </filter>
  <filter id="filter4829" x="-.26429" y="-.34688" width="1.5286" height="1.6938" color-interpolation-filters="sRGB">
   <feGaussianBlur id="feGaussianBlur4831" stdDeviation="7.7401794"/>
  </filter>
  <filter id="filter4843" x="-.26013" y="-.22276" width="1.5203" height="1.4455" color-interpolation-filters="sRGB">
   <feGaussianBlur id="feGaussianBlur4845" stdDeviation="19.880786"/>
  </filter>
  <filter id="filter4916" color-interpolation-filters="sRGB">
   <feGaussianBlur id="feGaussianBlur4918" stdDeviation="3.5967965"/>
  </filter>
  <filter id="filter4927" color-interpolation-filters="sRGB">
   <feGaussianBlur id="feGaussianBlur4929" stdDeviation="4.5994402"/>
  </filter>
  <filter id="filter4937" color-interpolation-filters="sRGB">
   <feGaussianBlur id="feGaussianBlur4939" stdDeviation="4.5588944"/>
  </filter>
  <filter id="filter4951" color-interpolation-filters="sRGB">
   <feGaussianBlur id="feGaussianBlur4953" stdDeviation="2.2896776"/>
  </filter>
  <filter id="filter3837" x="-.090626" y="-.17755" width="1.1813" height="1.3551" color-interpolation-filters="sRGB">
   <feGaussianBlur id="feGaussianBlur3839" stdDeviation="3.8288868"/>
  </filter>
  <filter id="filter3851" x="-.14984" y="-.03751" width="1.2997" height="1.075" color-interpolation-filters="sRGB">
   <feGaussianBlur id="feGaussianBlur3853" stdDeviation="3.2206503"/>
  </filter>
  <filter id="filter3861" color-interpolation-filters="sRGB">
   <feGaussianBlur id="feGaussianBlur3863" stdDeviation="6.1096871"/>
  </filter>
  <filter id="filter3871" x="-.076951" y="-.27238" width="1.1539" height="1.5448" color-interpolation-filters="sRGB">
   <feGaussianBlur id="feGaussianBlur3873" stdDeviation="4.6407131"/>
  </filter>
  <filter id="filter3885" x="-.077095" y="-.27059" width="1.1542" height="1.5412" color-interpolation-filters="sRGB">
   <feGaussianBlur id="feGaussianBlur3887" stdDeviation="4.0058375"/>
  </filter>
  <filter id="filter3934" x="-.16208" y="-.056672" width="1.3242" height="1.1133" color-interpolation-filters="sRGB">
   <feGaussianBlur id="feGaussianBlur3936" stdDeviation="3.0657839"/>
  </filter>
  <filter id="filter3954" color-interpolation-filters="sRGB">
   <feGaussianBlur id="feGaussianBlur3956" stdDeviation="3.8957637"/>
  </filter>
  <filter id="filter3958" color-interpolation-filters="sRGB">
   <feGaussianBlur id="feGaussianBlur3960" stdDeviation="3.2080035"/>
  </filter>
  <filter id="filter3964" x="-.15823" y="-.057177" width="1.3165" height="1.1144" color-interpolation-filters="sRGB">
   <feGaussianBlur id="feGaussianBlur3966" stdDeviation="11.688862"/>
  </filter>
  <filter id="filter3970" x="-.10434" y="-.070296" width="1.2087" height="1.1406" color-interpolation-filters="sRGB">
   <feGaussianBlur id="feGaussianBlur3972" stdDeviation="6.0835305"/>
  </filter>
 </defs>
 <metadata id="metadata7">
  <rdf:RDF>
   <cc:Work rdf:about="">
    <dc:format>image/svg+xml</dc:format>
    <dc:type rdf:resource="http://purl.org/dc/dcmitype/StillImage"/>
    <dc:title/>
   </cc:Work>
  </rdf:RDF>
 </metadata>
 <g id="layer2" transform="translate(-63.487 -140.96)">
  <path id="path4547" d="m368.18 670.79c-31.959 4.358-92.805-53.805-110.45-38.492-20.284 17.6 21.343 116.62-3.3471 137.23-39.463 32.943-163.05 17.259-177.4 46.859-11.876 24.511 55.672 94.956 98.74 115.48 63.482 30.246 147.31 38.32 220.91 36.818 90.413-1.8452 191.82-14.814 271.12-46.859 28.374-11.467 67.614-67.59 51.88-83.678-33.915-34.677-155.64-26.726-200.83-68.616-31.238-28.958 6.5119-143.23-20.083-160.66-23.612-15.479-88.859 56.238-130.54 61.921z" fill="url(#linearGradient4581)" filter="url(#filter4595)"/>
  <path id="path2916" d="m423.47 244.36s-25.575 3.8139-43.119 6.4481c-47.385 7.115-88.037 50.442-121.8 53.871-4.3041 31.485-31.31 73.697-37.89 105.18-4.8675 21.092-15.031 42.064-14.602 63.277 0.65312 32.329 12.995 64.835 17.847 97.35 5.2508 35.187 17.532 66.249 34.817 92.196 7.3729 11.068 19.689 28.406 30.559 35.256 28.61 18.028 52.586 22.75 84.924 22.22 33.643-0.55154 69.312-10.691 97.045-31.974 18.779-14.412 35.345-43.66 42.49-66.827 10.702-34.702 12.85-67.492 15.194-104.41 1.9825-31.224 8.3854-63.92-3.9893-93.513-7.1945-17.205-9.4264-32.564-25.216-49.267-16.234-17.174-26.682-42.658-37.738-66.541-10.169-21.968-29.534-39.745-38.519-63.259z" fill="url(#radialGradient3735)" filter="url(#filter4577)"/>
 </g>
 <g id="layer4" transform="translate(-63.487 -140.96)" fill="#fca">
  <path id="path4708" d="m376.55 509.29-14.225-22.593 0.83678-30.961-12.552 46.859 12.552 19.246 16.736 2.5103-3.3471-15.062z" filter="url(#filter4794)" opacity=".8"/>
  <path id="path4752" d="m507.92 500.93-25.103 15.062-67.779-10.878 59.411 44.349 30.124-4.1839 3.3471-44.349z" filter="url(#filter4786)" opacity=".6"/>
  <path id="path4758" d="m492.86 403.86-5.0206-35.145-33.471-20.919 9.2045 21.756-31.797 25.94 41.002-0.83677 20.083 9.2045z" filter="url(#filter4782)" opacity=".5"/>
  <path id="path4764" d="m459.39 637.32-44.349 10.041-64.432 10.878-15.062 15.899 56.901 9.2045 64.432-8.3678 2.5103-37.655z" filter="url(#filter4790)" opacity=".5"/>
 </g>
 <g id="layer5" transform="translate(-63.487 -140.96)" display="none">
  <path id="path4799" d="m312.41 431.68 19.526 17.751-1.1834 40.827-5.3252-20.709-34.318 20.709 34.91-34.318-13.609-24.259z" fill="#803300" filter="url(#filter4801)" opacity=".7"/>
  <path id="path4805" d="m446.13 477.24-66.861-17.159 49.702 32.543-17.159-17.159 34.318 1.7751z" fill="#c87137" filter="url(#filter4807)"/>
  <path id="path4811" d="m528.38 512.15-11.242 50.294-27.809 28.993 23.668-43.193 15.384-36.093z" fill="#784421" filter="url(#filter4813)"/>
  <path id="path4817" d="m393.7 510.13 18.827 5.439 16.736 21.756 5.8574 12.552 17.572 15.062-28.032-9.6229-12.97-14.644-11.296-9.2045v-9.6229l-9.6229-2.5103 2.9287-9.2045z" fill="#a05a2c" filter="url(#filter4819)" opacity=".8"/>
  <path id="path4827" transform="matrix(1 0 0 1.572 0 -340.94)" d="m222.58 562.01 24.267 19.246 18.409-6.6942 27.614-24.267-29.287 53.554-17.572-0.83677-23.43-41.002z" fill="#c87137" filter="url(#filter4829)" opacity=".60816"/>
  <path id="path4833" d="m210.64 539.96-34.318-63.903 33.135-97.037 39.052-78.103 82.837-36.685 61.536-2.3668-53.252 26.034-55.619 42.602-42.602 52.069-24.851 59.169-5.9169 98.221z" fill="#a24421" filter="url(#filter4843)" opacity=".6"/>
  <path id="path4145" d="m322.47 509.19c-9.6643 8.0535-20.273 14.148-24.259 28.697-3.9033 14.248-1.1834 28.894 0.59169 44.673-6.9397 2.6704-16.139 6.6834-15.976 14.792 0.16811 8.3312 6.7058 16.567 10.059 24.851 1.0464-7.6618-6.7741-19.757 4.1418-22.484 11.842-16.107-2.9841-39.124 17.751-61.536-3.8126-13.722 3.4123-20.42 7.692-28.993z" display="inline" fill="#784421" filter="url(#filter4823)" opacity=".5"/>
 </g>
 <g id="layer6" transform="translate(-63.487 -140.96)">
  <path id="path4854" d="m399.98 163.71c-16.206-11.409-53.214-19.305-82.004-10.041-47.403 15.253-88.555 44.394-113.8 82.004-29.649 44.169-50.028 97.509-65.269 148.95-11.536 38.935-10.041 81.446-15.062 122.17 0.71387 16.708-3.8126 32.252-20.083 45.186-6.376 125.51-10.108 81.877-25.103 61.921l13.388 73.636c9.6274 26.286-8.9235 29.517-18.409 40.165 8.3678 20.64 16.736 41.281 25.103 61.921 30.241 52.947 59.707 38.28 79.674 34.185 29.779-6.1074 50.306-22.315 80.43-29.567 7.2521-10.599 17.809-53.283 18.206-65.173 1.3317-39.888-1.1955-42.809-20.376-75.966-14.293-24.707-23.269-56.079-29.871-84.134-9.0186-38.329-13.399-74.549-14.564-115.73 13.388-32.355 15.709-58.563 29.098-90.919 8.3678-18.409 19.404-35.936 27.771-54.345 42.509-25.216 69.735-35.42 107.44-40.501 14.287-1.9253 29.678-4.3502 42.509-11.044 13.946 21.198 27.223 35.869 41.17 57.067 8.9256 21.756 23.709 39.328 32.634 61.085 13.946 14.504 5.4659 13.109 19.412 27.614 1.1157 20.64 16.457 59.857 17.573 80.498-2.7892 23.43-6.2484 54.223-9.0376 77.653 0 0-10.079 79.974-37.32 109.79-4.3351 4.744-42.227 112.8-20.751 142.08 21.198 15.62 105.15 45.465 71.126 116.31 25.661 5.5785 79.773-47.417 128.86-61.921 40.723 2.2314 24.545-49.091 43.512-45.186 1.6736-14.504 3.3471-29.008 5.0207-43.512 7.2521-16.178 14.504-32.355 21.756-48.533 0 0-41.839-83.678-48.533-90.372s-56.901-105.43-60.248-113.8c-3.3471-8.3678-18.409-123.84-18.409-123.84-12.621-36.905-22.521-73.13-43.512-112.13-11.946-37.66-23.411-64.486-40.165-87.025-12.608-16.962-32.274-24.92-48.533-33.471-33.021-17.367-57.547-12.77-73.636-5.0207z" fill="#a05a2c" filter="url(#filter4916)"/>
 </g>
 <g id="layer7" transform="translate(-63.487 -140.96)" fill="#28170b">
  <path id="path4921" d="m309.31 239.93 43.183-6.0255 55.233 17.072-25.106 12.051-34.144-4.017 11.047 8.034-62.263 16.068-29.123-2.0085 26.11 10.042-36.153 4.017 24.102 6.0255-37.157 29.123-20.085 52.221-8.034 63.267-9.0382 23.098 10.042 68.289 9.0382 41.174 13.055 50.212 19.081 34.144 15.064 20.085 3.0127 54.229-4.017 33.14-31.132 31.132 3.0127-16.068-28.119 6.0255 25.106-19.081 6.0255-17.072-28.119 28.119-32.136 13.055 35.149 6.0255-34.144 5.0212 32.136 4.017 15.064-5.0212-25.106 14.059-45.191 1.0042-34.144-4.017-18.076-10.042 25.106 4.017-14.059-10.042-19.081-15.064 27.115 8.034 30.127-3.0127 27.115-21.089-45.191 11.047-25.106-3.0127-25.106-34.144 30.127 28.119-12.051-21.089 17.072 5.0212h42.178l25.106-8.034-28.119-4.017-19.081-25.106 24.102 15.064 35.149 2.0085 29.123-23.098-42.178 10.042-35.149-5.0212-26.11-36.153 8.034-45.191 3.0127 32.136 14.059 35.149 20.085-2.0085v-15.064l28.119 10.042-13.055-55.233-6.0255 28.119-5.0212-30.127-19.081 25.106 10.042-35.149-12.051 2.0085 20.085-59.25-12.051-28.119-35.149 32.136 19.081-31.132-6.0255-53.225 19.081 36.153-8.034-49.208 14.059-46.195 1.0042 39.166 7.0297 43.183s1.0042-70.297 1.0042-74.314 5.0212-54.229 7.0297-59.25c2.0085-5.0212 16.068-41.174 16.068-41.174l-9.0382 40.17 13.055 34.144s5.0212-45.191 6.0255-50.212c1.0042-5.0212-4.017-49.208-4.017-49.208l19.081-28.119 24.102-38.161 58.246-34.144-45.191 33.14-27.115 41.174-13.055 29.123-8.034 28.119 17.072-26.11-9.0382 32.136 18.076-42.178 11.047-22.093 3.0127-18.076 30.127-13.055 23.098-3.0127-43.183 22.093 31.132-1.0042 18.076-11.047 19.081-1.0042-8.034-10.042 55.233 1.0042-37.157-8.034-39.166-6.0255z" filter="url(#filter4927)"/>
  <path id="path4931" d="m456.6 284.74 20.593 56.809 23.434 36.216 17.753 16.332 10.652 51.128 2.8404 46.867-2.8404 30.535 10.652-9.2314 12.782-22.013-6.391 42.606 2.1303 14.912-13.492 3.5505-4.2606-22.723-4.2606 31.245-8.5213 46.157-12.782 33.375-19.883 34.795-4.2606 36.926-19.883 28.404-7.8112 37.636 2.1303 49.708 17.043 34.085 17.753 21.303-14.202-27.694-14.202-28.404 5.6809-31.955 14.202 45.447 24.144 26.984 25.564 13.492 14.202 2.8404 2.8404 20.593-10.652 11.362-25.564 1.4202 26.984 7.1011 13.492-12.782 8.5213-26.984 14.202 25.564s-9.2314 9.2314-6.391 9.2314c2.8404 0 27.694-7.1011 27.694-7.1011l7.8112-23.434 29.825-18.463-2.8404 14.202 12.782-19.173-0.71011 18.463 32.665-15.622 18.463-22.013 2.8404-35.505-16.332 39.056-1.4202-13.492-14.912 16.332-12.072-22.013-9.9415 19.883-25.564 11.362 12.072-22.723 8.5213-29.114 2.8404-21.303 10.652 21.303 4.9708-20.593 14.202-2.1303 11.362 31.245 12.072-39.766-36.216 3.5505 29.825-15.622 14.202-13.492-17.043 4.9708-4.9708-26.274-15.622 31.955-15.622 12.782 7.8112-21.303 10.652-17.753 10.652-24.854-17.753 20.593-8.5213 4.9708-14.912 29.825-29.114 28.404-46.867 15.622-48.997-3.5505-26.274-24.144 24.854 9.2314 18.463 2.8404-12.072-10.652-7.8112-25.564s11.362 18.463 14.912 20.593c3.5505 2.1303 22.013 9.9415 22.013 9.9415l29.825 1.4202 22.013-4.9708 12.072-13.492 13.492-36.926-7.1011-44.737-2.1303 39.766-12.782 42.606-7.1011-27.694-9.9415-70.301 1.4202 43.317 2.1303 37.636-7.1011-31.955-12.072 29.825 2.1303-43.317 1.4202-36.216 8.5213-56.809-26.984 47.577-22.723 25.564-14.912 32.665v-40.476l26.274-49.708-24.854 29.114-7.8112 14.202 10.652-36.216 17.753-34.795 11.362-16.332 24.854-41.896 4.2606-39.766-2.8404-48.287-2.1303 54.678-11.362 33.375-12.072 27.694 12.782-59.649 2.8404-44.737-6.391-25.564 4.9708-35.505 11.362 39.056 1.4202-24.854-10.652-29.825-4.9708-31.245-22.723-40.476-21.303-24.854-48.287-37.636 44.737 41.186 26.984 35.505 9.9415 26.984-29.114-40.476-40.476-42.606 41.186 53.258 17.043 26.274-24.144-13.492 23.434 22.723 6.391 19.173-10.652 11.362-37.636-41.896-19.173-29.825-20.593-44.737z" filter="url(#filter4937)"/>
  <path id="path4941" d="m652.76 725.48 1.5064-37.659-9.5403-41.174-19.583-36.153-2.5106-38.161 12.051 38.161 18.076 11.047 17.072 17.072 1.5064 11.047-8.034-11.549-16.57-13.055-3.0127 5.5234s6.5276 11.549 8.5361 14.562c2.0085 3.0127 18.579 18.076 18.579 18.076l4.017 11.549-22.093-19.081 8.034 15.566 17.574 10.545 12.553-0.50212 7.5318 24.102-3.0127 13.557-6.0255-22.596-17.072-9.0382-8.034 10.545 14.562 5.5234-9.5403 9.5403-16.57 12.553z" filter="url(#filter4951)"/>
 </g>
 <g id="layer8" transform="translate(-63.487 -140.96)">
  <g id="g3011">
   <path id="path4599" d="m300.4 693.39c27.614 20.919 47.651 20.919 70.289 20.919 30.124 0 57.421-9.0665 71.963-19.246 8.3678-5.8574-42.676 9.2045-71.963 9.2045-40.165 0-78.657-18.409-70.289-10.878z" fill="#986601" filter="url(#filter4657)" opacity=".8"/>
   <path id="path4661" d="m488.68 672.47c-39.328 31.797-76.999 49.12-115.48 50.207-44.072 1.2443-73.078-18.409-109.62-47.696 36.26 33.75 74.67 94.127 111.29 93.719 38.41-0.42837 61.642-23.988 113.8-96.229z" fill="#803300" filter="url(#filter4703)" opacity=".8"/>
   <path id="path3835" d="m130.02 683.57c25.729 47.765 62.762 44.661 101.4 34.345-45.929 26.808-83.698 27.878-101.4-34.345z" fill="#d9bb7a" filter="url(#filter3837)" opacity=".6"/>
   <path id="path3841" d="m198.71 304.14c-36.363 65.721-69.945 131.8-40.069 206.07-3.9073-28.167-0.42068-48.939 6.5418-66.236l-16.355 20.443c5.522-67.306 27.249-114.36 49.881-160.27z" fill="#fdd99b" filter="url(#filter3851)" opacity=".6"/>
   <path id="path3855" d="m395.78 222.37c-9.536-7.3637-18.043-15.757-35.98-14.719 8.995-1.3629 17.99-2.7258 26.985-4.0886-26.44-2.1806-54.006-11.437-79.32-6.5418-33.227 6.425-62.894 25.62-89.95 54.788-30.164 32.519-51.425 58.656-67.871 107.12 25.882-48.44 48.968-75.203 71.142-98.945-66.708 107.21-58.245 94.691-71.96 177.45 18.21-81.326 48.571-137.01 95.674-197.07-26.126 32.092-24.515 49.054-27.803 68.689 32.241-90.188 67.096-80.434 101.4-97.31-24.095 14.567-47.915 29.244-50.699 52.335 43.34-36.623 75.118-50.97 128.38-41.704z" fill="#fdd99b" filter="url(#filter3861)" opacity=".6"/>
   <path id="path3865" d="m396.6 197.02c-23.735-12.72-50.961-19.153-80.137-22.079 19.006-0.64123 35.504-3.5123 63.783 4.0886-49.956-20.912-91.485-9.5178-128.38 19.625 42.66-35.971 87.972-56.028 141.47-26.985-13.187-3.9576-26.539-8.5752-37.615-4.0886 18.073 1.4681 28.777 8.0948 35.98 17.172-5.9967-0.27258-11.993-0.54515-17.99-0.81773 11.877 1.814 15.943 8.315 22.896 13.084z" fill="#fdd99b" filter="url(#filter3871)" opacity=".6"/>
   <path id="path3875" d="m361.84 186.39c-46.147-13.79-87.275-1.8591-124.7 29.029 24.458-11.768 43.956-22.857 61.33-24.532-34.612 11.379-36.58 18.814-49.881 25.35 37.27-16.128 72.735-30.133 104.67-24.123-9.1725-1.0844-11.806-6.6076-34.753-5.7241 13.901-3.9392 29.438-0.31349 43.34 0z" fill="#fdd99b" filter="url(#filter3885)" opacity=".7"/>
   <path id="path3889" transform="matrix(1.1112 0 0 1.11 -12.815 -66.637)" d="m119.63 549.04c-18.841 30.529-26.88 72.107-20.688 102.64 4.9421-28.677 5.0329-36.847 12.389-47.076-4.6345 15.677-8.2718 38.353-7.9322 63.975 2.4532-14.719 5.0836-39.25 8.627-46.337-1.0903 13.084 1.5399 43.553 0.44957 56.637 7.7002-32.748 14.883-62.594 29.806-81.986-2.4614-20.939-12.144 1.4507-22.079 25.35 3.8598-15.547 13.818-53.52 18.767-62.533-10.035-3.0364-20.613 37.352-25.308 53.538-0.3788-17.498 5.4226-31.906 8.995-47.428-5.3835 7.5135-9.3481 8.2873-18.808 35.162 1.8734-12.794 11.921-38.149 15.782-51.936z" fill="#fdd99b" filter="url(#filter3934)"/>
   <path id="path3938" d="m416.22 190.48c6.6958-0.38505 13.42-0.84032 17.99 4.0886-6.2078 1.5063-11.78 4.4947-16.355 9.8127 11.083-1.7534 22.435-0.20368 30.256 5.1108-9.0228-1.728-19.597 0.97967-26.985 4.7019 33.527-3.1395 67.054 15.575 100.58 41.704-12.888-12.594-22.607-27.348-42.522-35.98 14.675-0.10002 28.064 12.655 41.704 22.896-13.925-12.681-25.041-30.043-44.975-32.709 10.358-2.5772 20.716 1.2617 31.074 7.3596-15.249-16.47-29.107-19.041-43.34-25.35 13.828 2.2755 26.37 2.8801 50.699 18.808-29.682-21.343-57.958-49.438-98.127-20.443z" fill="#fdd99b" filter="url(#filter3958)" opacity=".7"/>
   <path id="path3948" d="m434.82 256.73c20.623 8.0951 43.327 23.989 48.571 42.21 14.762 51.298 25.249 59.942 50.305 81.529-26.598-15.419-43.303-29.808-60.135-71.699-6.4284-16-21.972-26.02-38.741-38.741 11.35 6.2543 23.069 11.032 32.959 23.129-7.1749-12.143-19.701-24.285-32.959-36.428z" fill="#fdd99b" filter="url(#filter3954)" opacity=".7"/>
   <path id="path3962" d="m436.67 246.08c82.199 44.672 138.96 110.29 147.19 215.88-7.087-30.135-14.174-39.443-21.261-55.606 10.425 33.88 21.774 65.392 6.5418 98.127 4.3612-8.7224 9.5402-14.174 13.084-26.167-2.7258 25.077 0.19844 44.888-8.1773 75.231-12.942 46.886-58.059 52.607-73.596 129.2 21.261-47.156 37.615-59.967 62.147-93.221-18.535 42.522-42.794 52.335-44.157 121.02 9.5498-87.468 94.037-100.14 85.044-255.13-3.7383-64.427-44.188-137.42-83.408-189.71-19.656-26.208-58.876-45.248-93.221-45.793 35.184 13.572 70.767 26.077 93.221 73.596-29.387-23.733-58.317-45.178-83.408-47.428z" fill="#fdd99b" filter="url(#filter3964)" opacity=".8"/>
   <path id="path3968" d="m602.51 599.04c9.2515 45.101 36.487 64.247 27.755 135.3-2.5785 20.981 3.2817 41.916-34.115 58.4-20.794 9.1662-36.042 6.5532-82.686-17.925 10.215 33.922 55.833 35.332 77.482 28.911 23.838-7.0707 54.262-43.085 58.979-69.387 5.3063-29.593-7.7096-77.096-28.911-98.298 5.7822 2.8911 19.66 5.204 32.38 65.917-0.9637-51.076-19.852-87.697-50.883-102.92z" fill="#fdd99b" filter="url(#filter3970)" opacity=".8"/>
  </g>
 </g>
</svg>
