<?xml version="1.0" encoding="UTF-8"?>
<!-- Created with Sodipodi ("http://www.sodipodi.com/") -->
<svg id="svg602" width="5cm" height="4.5cm" version="1.1" xml:space="preserve" xmlns="http://www.w3.org/2000/svg" xmlns:cc="http://creativecommons.org/ns#" xmlns:dc="http://purl.org/dc/elements/1.1/" xmlns:rdf="http://www.w3.org/1999/02/22-rdf-syntax-ns#" xmlns:xlink="http://www.w3.org/1999/xlink"><metadata id="metadata14"><rdf:RDF><cc:Work rdf:about=""><dc:format>image/svg+xml</dc:format><dc:type rdf:resource="http://purl.org/dc/dcmitype/StillImage"/></cc:Work></rdf:RDF></metadata><g id="g658" transform="translate(-18.975 7.7265)" fill-rule="evenodd"><path id="path611" d="m31.289 123.5c20.722 38.292 53.714 20.95 89.249 1.7204 35.536-19.23-60.148-0.9495-80.869-39.242-20.722-38.292 53.978-85.862 18.443-66.632-35.536 19.23-47.544 65.861-26.822 104.15z"/><path id="path622" d="m158.76 12.719c-35.725-24.888-83.409-18.188-106.51 14.964-23.096 33.153 80.164-2.5696 115.89 22.319 35.725 24.888-9.6136 100.96 13.483 67.809 23.096-33.153 12.858-80.204-22.867-105.09z"/><path id="path646" d="m56.391 12.718c35.725-24.888 83.409-18.188 106.51 14.964 23.096 33.153-80.164-2.5696-115.89 22.319-35.725 24.888 9.6136 100.96-13.483 67.81-23.096-33.153-12.858-80.205 22.867-105.09z"/></g></svg>
