<?xml version="1.0" encoding="UTF-8"?>
<!-- Created with Sodipodi ("http://www.sodipodi.com/") -->
<svg id="svg602" width="281.25" height="108.68" version="1.0" viewBox="0 0 225 86.942" xmlns="http://www.w3.org/2000/svg" xmlns:cc="http://creativecommons.org/ns#" xmlns:dc="http://purl.org/dc/elements/1.1/" xmlns:rdf="http://www.w3.org/1999/02/22-rdf-syntax-ns#">
 <metadata id="metadata603">Created by potrace 1.7, written by Peter Selinger 2001-2005
  <rdf:RDF>
   <cc:Work rdf:about="">
    <dc:format>image/svg+xml</dc:format>
    <dc:type rdf:resource="http://purl.org/dc/dcmitype/StillImage"/>
   </cc:Work>
  </rdf:RDF>
 </metadata>
 <path id="path605" d="m46.044 0.57594c-23.784 2.3016-36.278 14.029-43.512 40.882-1.8632 7.0145-2.4112 12.166-2.5208 25.318-0.1096 16.988 0.54801 20.167 4.4937 20.167 0.87682 0 7.5625-5.8089 14.906-12.933 14.577-14.139 23.126-20.496 35.182-25.976 34.305-15.783 84.394-15.235 117.38 1.4248 12.166 6.0281 19.4 11.508 33.538 24.989 8.4394 8.1106 13.7 12.495 15.015 12.275 7.8913-1.5344 4.7129-43.731-4.7129-62.144-3.8361-7.6721-10.741-15.015-17.208-18.304-11.837-6.0281-12.714-6.0281-81.434-6.2473-34.963-0.1096-66.967 0.1096-71.132 0.54801z"/>
</svg>
