<?xml version="1.0" encoding="UTF-8"?>
<!-- Created with Inkscape (http://www.inkscape.org/) -->
<svg id="svg1" width="180.92" height="85.681" version="1.1" xmlns="http://www.w3.org/2000/svg" xmlns:cc="http://creativecommons.org/ns#" xmlns:dc="http://purl.org/dc/elements/1.1/" xmlns:rdf="http://www.w3.org/1999/02/22-rdf-syntax-ns#" xmlns:xlink="http://www.w3.org/1999/xlink">
 <defs id="defs3">
  <linearGradient id="linearGradient1644">
   <stop id="stop1645" stop-color="#686868" offset="0"/>
   <stop id="stop1646" stop-color="#969696" offset="1"/>
  </linearGradient>
  <linearGradient id="linearGradient1577">
   <stop id="stop1578" stop-color="#613402" offset="0"/>
   <stop id="stop1579" stop-color="#836459" offset="1"/>
  </linearGradient>
  <linearGradient id="linearGradient1580" x1="78.86" x2="25.935" y1="193.01" y2="133.94" gradientTransform="scale(1.9727 .50693)" gradientUnits="userSpaceOnUse" xlink:href="#linearGradient1577"/>
  <linearGradient id="linearGradient2955" x1="79.637" x2="36.795" y1="214.7" y2="137.55" gradientTransform="scale(1.702 .58756)" gradientUnits="userSpaceOnUse" xlink:href="#linearGradient1644"/>
  <linearGradient id="linearGradient2962" x1="61.627" x2="53.88" y1="113.85" y2="106" gradientTransform="scale(.98134 1.019)" gradientUnits="userSpaceOnUse" xlink:href="#linearGradient1644"/>
  <linearGradient id="linearGradient2969" x1="153.27" x2="142.76" y1="104.04" y2="93.793" gradientTransform="scale(.86841 1.1515)" gradientUnits="userSpaceOnUse" xlink:href="#linearGradient1644"/>
  <linearGradient id="linearGradient2976" x1="93.122" x2="44.997" y1="168" y2="101.82" gradientTransform="scale(1.8613 .53725)" gradientUnits="userSpaceOnUse" xlink:href="#linearGradient1644"/>
  <linearGradient id="linearGradient2983" x1="27.52" x2="28.999" y1="361.89" y2="345.19" gradientTransform="scale(3.5147 .28452)" gradientUnits="userSpaceOnUse" xlink:href="#linearGradient1577"/>
  <linearGradient id="linearGradient3000" x1="248.82" x2="230.88" y1="66.743" y2="53.47" gradientTransform="scale(.65582 1.5248)" gradientUnits="userSpaceOnUse" xlink:href="#linearGradient1577"/>
 </defs>
 <metadata id="metadata4">
  <rdf:RDF>
   <cc:Work rdf:about="">
    <dc:format>image/svg+xml</dc:format>
    <dc:type rdf:resource="http://purl.org/dc/dcmitype/StillImage"/>
   </cc:Work>
  </rdf:RDF>
 </metadata>
 <g id="g3011" transform="translate(-6.1186 -46.719)" fill-rule="evenodd">
  <g id="g3006">
   <path id="path1641" d="m128.36 104.51-6.6986 0.63796c4.1467 2.8708 6.5022 14.821 5.2263 16.415 0 0.31898 6.3059-0.12262 7.2628 0.83431 2.2328-1.9139 0.90805-16.612-5.7905-17.888z" fill="url(#linearGradient2969)"/>
   <path id="path955" d="m55.183 103.67h6.3796c-4.1467 2.8708-7.0175 11.802-5.7416 13.397 0 0.31898-5.7416 0.31898-6.3796 0-2.2329-1.9139-0.95694-12.121 5.7416-13.397z" fill="url(#linearGradient2962)"/>
   <path id="path953" d="m31.579 73.365c-16.906 1.9139-24.242 9.5694-24.242 22.967-0.31898 9.5694 1.9139 23.923 18.82 25.199 17.544 1.2759 150.56 9.2504 150.24 10.207l-4.4657-8.6124-138.44-7.0176c-14.992-1.2759-17.225-8.9314-17.544-16.906 0.31898-7.9745 0.31898-16.268 14.673-18.501 0.31898-0.95694 0.95694-7.3365 0.95694-7.3365z" fill="url(#linearGradient2955)"/>
   <path id="path1642" d="m55.197 47.368c-14.354 1.9139-20.734 6.3796-20.734 17.863-0.31898 7.0175 1.5949 15.63 14.354 16.587 17.544 1.2759 138.44 8.6124 138.12 9.5694l-3.5088-6.6986-126.32-8.2935c-10.207-0.63796-15.949-1.5949-16.268-11.164-1e-6 -7.0175 0.95694-10.845 14.035-13.078 0.31898-0.95694 0.31898-4.7847 0.31898-4.7847z" fill="url(#linearGradient2976)"/>
  </g>
  <path id="path1650" d="m55.344 46.719c-7.7481 1.0136-18.071 2.8394-21.353 10.98-2 6.5442-2.969 14.853 1.881 20.292 6.0822 6.032 16.618 4.3373 24.381 5.3409 41.365 2.7757 83.091 5.643 124.41 9.0672 2.3112 1.3138 3.0563 0.23034 1.7126-2.4117-1.0077-1.9346-1.3938-3.8608-2.3916-5.8003-43.692-2.9378-88.356-5.988-132.04-9.0193-5.4229-0.0055-10.632-2.8582-10.291-9.0401-1.5619-6.7222 3.1807-12.027 9.5512-12.621 5.251 0.77092 3.9519-3.3724 4.1422-6.788zm-1.25 1.5c2.8056 6.815-10.356 3.1871-12.747 9.2336-2.3966 4.8175-2.4803 11.613 1.1903 15.864 5.4362 4.4591 12.917 3.3888 19.501 4.1354 40.175 2.6411 80.35 5.2823 120.53 7.9234 0.8333 1.7081 1.4163 3.6502 2.0183 5.2188-38.359-3.2595-76.172-5.3143-114.58-7.8884-8.5794-0.7664-17.275-0.66861-25.771-2.1002-6.4186-1.2103-10.079-7.7907-9.6643-13.958-0.41834-5.8928 1.6979-12.546 7.4842-15.103 3.7437-1.8985 7.9294-2.7058 12.046-3.3245zm-22.281 24.5c-9.5793 0.82209-20.72 4.5095-24.126 14.493-2.4534 8.4753-2.2259 18.283 2.0995 26.138 4.047 7.227 12.772 9.2204 20.427 9.1838 47.799 3.1687 95.643 5.7316 143.39 9.5663 2.131 0.79351 2.8979-0.11253 2.5036-1.2631-1.4209-2.7483-1.5779-5.4905-2.9912-8.2427-12.186-0.64925-25.332-1.2459-37.519-1.875 1.2648-5.441 0.49732-11.981-3.8278-15.662-2.8575-2.1052-7.7207-0.35119-10.936-0.43417-3.2084 0.094 4.5457 3.9017 3.6484 6.6175 0.75408 2.6804 4.332 9.5994-0.89279 8.2731-22.583-1.1442-44.528-1.9694-67.111-3.1136-0.24266-5.2697 2.7096-9.5105 7.2188-12.318-3.2358 0.20263-7.2306-1.394-10.382-0.5967-6.0062 1.402-5.3566 10.214-6.4677 12.778-7.839-0.72636-16.4-0.38191-23.75-3.727-7.1473-3.3036-6.6919-11.539-5.7276-18.419 0.1527-5.8232 5.1584-10.224 10.876-11.311 6.3928 0.701 2.437-6.0828 3.5631-10.088zm-1.4062 1.4688c1.5379 6.8949-1.526 7.3085-6.4457 7.5935-6.1097 1.965-9.0756 8.4235-8.984 14.466-0.80665 7.1012 1.3682 15.712 8.7577 18.457 7.7321 3.0247 16.177 2.1448 24.297 2.8798 4.71-0.68977 0.1479 0.82161 0.85465-6.3338 0.55097-4.5153 4.7257-7.6799 9.1354-6.8746 3.9952-0.36588-3.6092 4.812-2.8079 7.4088-0.84776 2.5646-0.26322 5.9828-3.2537 5.461 1.2248 0.23499 5.8292 0.20716 7.2366 0.77995 38.033 1.9287 73.832 3.8577 111.87 5.7564 1.2396 2.3958 2.4792 4.7917 3.7188 7.1875-38.151-3.2107-76.391-5.911-114.59-8.4192-12.688-0.95618-25.452-1.563-38.083-3.0514-8.3517-1.3163-12.796-8.3629-13.397-16.39-1.0116-8.472-1.2211-18.797 6.6448-23.921 4.4329-3.0349 9.7979-4.3108 15.054-5.0001zm97.375 31.031c5.4139 1.8673 6.1582 8.6498 6.0215 13.748 0.72561 3.8188-4.7374 1.0837-6.2715 1.332 1.0997-4.8761-4.1373-12.254-3.948-14.673 1.3994-0.13569 2.7987-0.27139 4.198-0.40708z"/>
  <g id="g3001">
   <path id="path950" d="m68.581 66.029-26.198 30.581 107.86 1.2346 15.949-31.496-97.608-0.31898z" fill="url(#linearGradient1580)"/>
   <path id="path951" d="m42.327 96.234 1e-6 7.4341 107.59 1.2759-1e-5 -7.6555-107.59-1.0545z" fill="url(#linearGradient2983)"/>
   <path id="path952" d="m149.5 97.566 16.587-31.496 0.0976 7.9332-16.324 30.858-0.36027-7.2952z" fill="url(#linearGradient3000)"/>
   <path id="path1583" d="m68.362 64.941c-1.0794 1.2591-3.7177 3.3158-4.8125 4.5938-1.0948 1.2779 0.91829 0.48991-0.1875 1.7812-1.1058 1.2913-3.6552 3.4909-5.1562 4.5312 0.18307 0.26304-0.28314 1.3053-0.75 2.2188-1.1146 1.3021-4.303 4.1523-5.1562 4.1562 0.05352-0.1256-0.02432 1.6916-0.09375 1.6875-1.1058 1.2913-5.4416 5.5579-5.5 5.2812 0.22987-0.13832 0.33815 1.2075 0.3125 1-0.93247 1.3471-4.5853 5.0267-5.125 5.6562 0.09136-0.14115-0.12477 2.5939-0.15625 2.4688v5.4687c36.28 0.48261 71.969 1.0382 108.25 1.4688 0.0348-0.0213 3.3026-4.81 3.6637-5.4576 0.18054-0.32381 0.68663-2.0325 0.72452-2.1053-0.0673 0.03245 2.8695-4.6126 2.8608-4.7063-0.12269 0.12836 0.91491-2.3719 0.7611-2.4853-0.0486-0.0083 2.3943-2.8909 3.2934-4.5797-0.048 0.20523 0.1491-1.868 0.23873-1.941-0.12079 0.03224 2.1764-3.1964 3.0667-4.8811 0.0485-0.10633 0.47906-2.0358 0.51825-1.9306-0.066-1.1575 1.1602-2.3847 1.7479-3.5067 0.0609-2.5531-0.36456-6.0259-0.0937-8.5312-1.4266 0.08615-66.484-0.08674-98.406-0.1875zm0.5625 1.25c32.125 0.10393 64.25 0.20857 96.375 0.3125-0.76892 1.5327-0.98395 3.2638-1.8259 4.875l-98.393-1.125c1.1975-1.3962 2.6466-2.666 3.8438-4.0625zm96.594 1.3125c0.0229 2.0162 0.17916 4.0637 0 6.0312-0.45076 0.8526-0.89299 1.7099-1.3438 2.5625l-0.26343-3.9885c0.78574-1.5095 0.90231-3.2002 1.6072-4.6052zm-100 3.875 96.562 1.25c-0.87351 1.6594-1.3028 3.5957-2.2041 5.2844l-99.796-1.4407 5.4375-5.0938zm97.031 1.875 1.0854 4.9866c-0.86458 1.6354-1.9394 2.5344-2.8042 4.1697-0.0597-0.54518-0.47506-3.5371-0.5708-3.7551-5e-3 -0.01244 1.4586-3.7961 2.2896-5.4011zm-102.88 4.4688 99.094 1.1875c-1.1378 2.1276-1.617 4.0153-2.7551 6.1448l-101.68-1.8635c1.5625-1.8229 3.7805-3.6465 5.3438-5.4688zm99.469 2.0625c0.0813 0.40724 1.4355 4.8616 1.4355 4.8616s-2.5318 3.0016-3.5293 4.8884l-0.39478-3.8093s1.4126-3.8819 2.4885-5.9407zm-104.97 4.25 100.78 2.125c-1.1099 2.0813-1.6068 4.2799-2.6926 6.3354l-103.84-2.5854c1.5314-1.7915 4.2163-4.0855 5.75-5.875zm101.28 2.8125 0.95215 5.0178s-2.1481 2.9832-3.1396 4.8572l-0.5791-3.2239c1.1679-2.2599 1.3781-3.9487 2.7666-6.6511zm-107.19 4.3125 102.91 2.1875c-0.66207 1.2643-1.4128 2.6293-2 3.8125l-105.72-1.2812c1.3847-1.6152 3.4301-3.1016 4.8125-4.7188zm103.34 3.0938 1.0772 4.5459s-1.919 2.6323-2.7334 4.1729l-0.3125-4.9375c0.0172 0.03214 1.3749-2.6437 1.9688-3.7812zm-108.72 2.7188 106.31 1.4062 0.15625 5.4687c-35.458-0.42658-70.917-0.85467-106.38-1.2812 0.02116-2.0413-0.16711-3.6046-0.09375-5.5937z"/>
  </g>
 </g>
</svg>
