<?xml version="1.0" encoding="UTF-8"?>
<!-- Created with Inkscape (http://www.inkscape.org/) -->
<svg id="svg2" width="122.52" height="171.81" version="1.1" xmlns="http://www.w3.org/2000/svg" xmlns:cc="http://creativecommons.org/ns#" xmlns:dc="http://purl.org/dc/elements/1.1/" xmlns:rdf="http://www.w3.org/1999/02/22-rdf-syntax-ns#">
 <title id="title4855">Snowman</title>
 <metadata id="metadata7">
  <rdf:RDF>
   <cc:Work rdf:about="">
    <dc:format>image/svg+xml</dc:format>
    <dc:type rdf:resource="http://purl.org/dc/dcmitype/StillImage"/>
    <dc:title>Snowman</dc:title>
    <cc:license rdf:resource="http://creativecommons.org/licenses/publicdomain/"/>
    <dc:date>2009-12-08</dc:date>
    <dc:creator>
     <cc:Agent>
      <dc:title>Jean-Victor Balin</dc:title>
     </cc:Agent>
    </dc:creator>
    <dc:publisher>
     <cc:Agent>
      <dc:title>openclipart.org</dc:title>
     </cc:Agent>
    </dc:publisher>
    <dc:language>fr-FR</dc:language>
    <dc:subject>
     <rdf:Bag>
      <rdf:li>xmas</rdf:li>
      <rdf:li>christmas</rdf:li>
      <rdf:li>snow</rdf:li>
      <rdf:li>winter</rdf:li>
      <rdf:li>cold</rdf:li>
      <rdf:li>snowman</rdf:li>
     </rdf:Bag>
    </dc:subject>
    <dc:description>jean.victor.balin@gmail.com</dc:description>
   </cc:Work>
   <cc:License rdf:about="http://creativecommons.org/licenses/publicdomain/">
    <cc:permits rdf:resource="http://creativecommons.org/ns#Reproduction"/>
    <cc:permits rdf:resource="http://creativecommons.org/ns#Distribution"/>
    <cc:permits rdf:resource="http://creativecommons.org/ns#DerivativeWorks"/>
   </cc:License>
  </rdf:RDF>
 </metadata>
 <g id="layer1" transform="translate(-38.812 -17.074)">
  <g id="g2867">
   <g id="g2906">
    <g id="g2902" transform="matrix(-.39553 .91845 .91845 .39553 155.75 -102.98)">
     <path id="path4857-6-7" d="m196.92 57.834-12.529 12.244-12.424-0.69393-0.1551-5.872-4.1928-5.6397-1.613 1.6446 4.2686 4.4497 0.18267 4.895-8.1444-1.5057-3.7677-3.6766-1.444 0.49927 4.6034 4.6165 8.1958 1.5331-2.8689 4.4905-5.6899-1.215 0.93315 1.9239 5.4132 0.86472 3.9318-5.7371 13.33 1.1096 12.739-12.224-0.76925-1.7072z" fill="#8f5902"/>
     <path id="path4857-4" d="m167.69 57.304-2.1875 2.125 4.5858 4.5915 0.22808 4.5427-7.7439-1.3475-4.1105-3.9738-2.0876 0.69573 5.2184 5.0522 7.7257 1.5901-2.5 3.9375-5.9842-1.494 1.2156 2.8341 5.8623 0.81627 3.8215-5.6798 13.315 1.0344 12.28-11.526 0.56814-0.61316c0.80679-1.5571-0.20869-2.6719-1.1762-2.4707l-12.258 12.237-12.135-0.58423-0.42173-5.6631-4.2154-6.1042v-5e-5zm-0.0937 1.0625 3.7329 5.2786 0.34393 5.9734 12.914 0.72447 12.151-11.965c0.67245 0.10521 0.66273 1.2011 0.27313 1.4363l-12.119 11.495-13.38-0.92079-3.8795 5.7429-5.1632-0.75204-0.68445-1.5519 5.4711 1.2835 2.9405-4.9206-8.388-1.7427-4.3234-4.2322 0.93481-0.19431 3.8361 3.6834 8.6349 1.5327-0.2599-5.4077-4.1597-4.3386 1.125-1.125h5e-5z" color="rgb(0, 0, 0)" fill="#312c29" style="text-indent:0pt;text-transform:none"/>
    </g>
   </g>
   <path id="path3928" d="m100.75 56c-8.6544 0.06938-12.588 2.256-14.562 5.4688s-2 7.8155-2 12.781c0 4.7389 1.7761 8.7535 5.0625 11.75a0.99476 0.99476 0 0 1-0.125 1.5938c-6.8918 4.5347-8.5938 12.441-8.5938 21.719 0 4.654 1.2683 9.009 3.5 12.781a0.99476 0.99476 0 0 1-0.34375 1.3438c-10.654 6.271-17.651 17.075-17.688 29.344 9.96e-4 0.0109-9.99e-4 0.0204 0 0.0312-4.1e-5 0.0211 0 0.0414 0 0.0625 1.0351 11.216 3.4043 19.786 9.5 25.625 6.1093 5.852 16.14 9.1418 32.938 9.375 0.0115 1.6e-4 0.0197-1.6e-4 0.0312 0 18.292-0.69726 28.512-1.7327 34.906-5.9375 6.3666-4.1866 9.3683-11.716 13.094-25.969-1.0573-12.402-10.392-25.827-23.094-32.969a0.99476 0.99476 0 0 1-0.4375-1.25c1.2907-3.3166 1.7548-7.3597 0.9375-12.281a0.99476 0.99476 0 0 1-0.0312-0.15625c0-9.019-4.7696-16.859-12.031-21.469a0.99476 0.99476 0 0 1-0.18755-1.5312c2.4424-2.6156 3.7428-6.3688 3.25-11.906-1.7147-6.2535-4.0338-10.65-7.25-13.562-3.2347-2.9288-7.4225-4.4353-13.156-4.75-1.3203-0.072456-2.5642-0.103-3.7188-0.09375z" fill="#fff"/>
   <path id="rect4107" d="m87.005 65.849 31.483-6.4979s2 2.5969 1.1469 2.9684c-13.054 5.6848-17.489 5.3125-30.875 7.1851-1.7363 0.24136-1.7544-3.6556-1.7544-3.6556z" fill="#dcdcdc"/>
   <path id="path3807-4-8-4" d="m96.366 55.321c-12.661 1.7409-12.594 10.05-12.594 18.938 0 10.587 8.3558 17.362 22.562 18.156 1.1246 0.06284 2.3225-0.34835 3.4007-0.43371-10.825-1.8835-19.631-7.5048-19.631-17.708 0-6.7351 2.2898-14.918 6.262-18.952z" fill="#dcdcdc"/>
   <path id="path4010" d="m131.43 175.96c0 1.4857-2.4129 2.602-3.6163 2.6902-1.9919 0.146-3.6163-1.2044-3.6163-2.6902s1.1781-3.925 3.6163-2.6902c1.7818 0.90236 3.6163 1.2044 3.6163 2.6902z" fill="#312c29"/>
   <path id="path4010-2" d="m132.58 160.03c0 1.4857-1.8807 2.5761-3.6163 2.6902-2.7803 0.1827-3.6163-1.2044-3.6163-2.6902s0.82525-2.7784 3.6163-3.7486c1.8865-0.65578 2.8225 2.1747 3.6163 3.7486z" fill="#312c29"/>
   <path id="path4010-2-7" d="m125.61 140.41c-1.1878 0.96854-2.9676 0.94438-4.1017-0.0597-0.85995-0.76138-1.2283-1.5685 0.0397-3.4686 0.85709-1.2843 2.4898-0.59331 4.0662-0.0816 1.1871 0.62891 1.4841 1.6695-4e-3 3.6099h-2.1e-4z" fill="#312c29"/>
   <path id="path4010-2-7-6" d="m121.81 121.21c-1.1878 0.96854-2.9676 0.94438-4.1017-0.0597-0.85995-0.76138-1.7028-3.0881 0.39251-3.9978 1.7391-0.75505 1.696 0.81791 3.0077 0.88861 1.3169-0.10071 2.0864 1.6671 0.70142 3.1689h-1e-5z" fill="#312c29"/>
   <path id="path4010-2-7-6-1" d="m113.33 103.9c-1.1246-1.6434-0.47674-4.1309 1.8038-4.2624 0.85708-0.04943 1.7842 0.90611 2.8313 1.7706 0.87592 0.78131 0.93974 2.2845-1.0626 3.2571-1.3672 0.55959-2.8412 0.25911-3.5725-0.76532z" fill="#312c29"/>
   <path id="path4010-2-7-6-1-4-22" d="m100.24 87.176c-0.56844-0.79063-0.24097-1.9874 0.91175-2.0506 0.43323-0.02378 0.90186 0.43592 1.4312 0.85185 0.44274 0.37589 0.475 1.0991-0.53713 1.567-0.6911 0.26922-1.2312 0.03464-1.8058-0.36819z" fill="#312c29"/>
   <path id="path4010-2-7-6-1-4-6" d="m104.11 88.499c-0.54102-0.79063-0.22936-1.9874 0.86778-2.0506 0.41234-0.02378 0.85836 0.43592 1.3621 0.85185 0.42141 0.37589 0.45211 1.0991-0.51122 1.567-0.65776 0.26922-1.1718 0.03464-1.7187-0.36819z" fill="#312c29"/>
   <path id="path4010-2-7-6-1-4-5" d="m108.89 89.127c-0.79729-0.53116-0.95544-1.7576 0.0386-2.2264 0.37358-0.17616 0.95908 0.08356 1.5818 0.28107 0.53135 0.19117 0.83009 0.85046 0.11143 1.6445-0.50949 0.49553-1.074 0.47007-1.7318 0.30079z" fill="#312c29"/>
   <path id="path4010-2-7-6-1-4-61" d="m113.51 88.83c-0.68295-0.39978-0.8722-1.4036-0.075-1.8378 0.29962-0.16318 0.7949 0.02291 1.3179 0.15592 0.44734 0.13216 0.72532 0.66151 0.17076 1.3508-0.39638 0.43307-0.86311 0.43914-1.4137 0.3311z" fill="#312c29"/>
   <path id="path4010-2-7-6-1-4-27" d="m117.73 88.185c-0.78999-0.04651-1.414-0.8553-0.90042-1.6039 0.19301-0.28132 0.71881-0.34013 1.2452-0.45881 0.45861-0.08512 0.94645 0.26057 0.76486 1.1264-0.15683 0.56575-0.57003 0.78286-1.1097 0.9363z" fill="#312c29"/>
   <path id="path4010-2-7-6-1-4-54" d="m120.69 86.666c-0.68518 0.09228-1.3555-0.49684-1.0404-1.2246 0.11843-0.27352 0.55946-0.4119 0.991-0.60174 0.37901-0.14972 0.85515 0.06509 0.84429 0.83787-0.0398 0.51135-0.35781 0.76665-0.79489 0.98849z" fill="#312c29"/>
   <path id="path4010-2-7-6-1-3" d="m99.537 74.287c-1.294-1.891-0.92277-4.5037 1.7013-4.6551 0.9862-0.05688 2.24 0.10709 3.445 1.1019 1.0079 0.89901 1.2684 3.3147-1.0356 4.4338-1.5732 0.64389-3.1146 0.33232-4.1106-0.88062z" fill="#312c29"/>
   <path id="path4010-2-7-6-1-2" d="m121.68 73.027c1.3428-1.3316 0.47674-4.1309-1.8038-4.2624-0.85708-0.04943-1.6594 0.34479-2.7066 1.2093-0.87592 0.78131-1.0645 2.8458 0.93789 3.8184 1.3672 0.55959 2.4358 0.072 3.5725-0.76532z" fill="#312c29"/>
   <path id="path3807-8" d="m88.719 87.137c-6.9083 4.7191-8.5938 12.948-8.5938 22.188 0 4.7693 1.2813 9.2331 3.5 13.094-10.908 6.4431-18.125 17.562-18.125 30.219 2.0774 22.711 9.5823 35.538 43.469 36 0.7348-0.028 1.3842-0.0647 2.0938-0.0937-25.302-3.0246-31.461-16.448-33.312-38.438 0-9.052 3.1617-17.361 8.4062-24 4.8463 5.8619 12.169 9.5938 20.375 9.5938 3.7131 0 7.4523-0.46214 10.906-1.4688-17.55-1.5528-31.281-14.89-31.281-31.125 0-5.7995 0.63347-11.28 2.5625-15.969z" fill="#dcdcdc"/>
   <path id="path3807-4-2-1" d="m132.48 122.58c-4.7065 8.8368-15.425 12.406-25.993 12.406-7.7427 0-14.75-3.1534-19.824-8.2812 4.8605 5.8758 12.162 9.625 20.333 9.625 10.757 0 21.677-3.9188 25.484-13.75z" fill="#a0a0a0"/>
   <path id="path3807-4-8-4-1" d="m120.67 87.539c-4.5857 3.5436-11.397 4.3697-18.805 3.5896-3.3018-0.34774-6.2727-1.0514-8.8695-2.0082 2.7624 1.7333 6.3609 2.9429 10.726 3.4027 7.1202 0.74988 13.565-0.37302 16.948-4.9841z" fill="#a0a0a0"/>
   <path id="path3807" d="m100.75 55.012c-17.654 0.14153-17.562 9.3247-17.562 19.25 0 4.9941 1.922 9.3231 5.4062 12.5-7.2742 4.7863-9.0625 13.158-9.0625 22.562 0 4.8376 1.3391 9.3645 3.6562 13.281-10.949 6.4444-18.188 17.595-18.188 30.281 2.0774 22.711 9.5823 35.538 43.469 36 36.671-1.3961 41.506-3.9742 49.031-32.844-1.0265-12.877-10.59-26.577-23.625-33.906 1.3626-3.5012 1.8101-7.7461 0.96875-12.812 0-9.3709-4.9729-17.534-12.5-22.312 2.6605-2.8491 4.0594-6.974 3.5312-12.75-3.4926-12.832-9.5765-18.51-21.344-19.156-1.3399-0.07353-2.6043-0.10318-3.7812-0.09375zm0 1c1.1545-0.0093 2.3984 0.02129 3.7188 0.09375 5.7337 0.31465 9.9216 1.8212 13.156 4.75 3.2162 2.9121 5.5353 7.309 7.25 13.563 0.49279 5.5375-0.80758 9.2907-3.25 11.906a0.99476 0.99476 0 0 0 0.1875 1.5312c7.2616 4.6097 12.031 12.45 12.031 21.469a0.99476 0.99476 0 0 0 0.0312 0.15625c0.81732 4.9216 0.35323 8.9646-0.9375 12.281a0.99476 0.99476 0 0 0 0.4375 1.25c12.702 7.142 22.036 20.567 23.094 32.969-3.7255 14.252-6.7271 21.782-13.094 25.969-6.3943 4.2048-16.614 5.2402-34.906 5.9375-0.0115-1.6e-4 -0.0198 1.6e-4 -0.0312 0-16.798-0.23318-26.828-3.523-32.938-9.375-6.0957-5.8391-8.4649-14.409-9.5-25.625 0-0.0211-4.1e-5 -0.0414 0-0.0625-9.99e-4 -0.0109 9.96e-4 -0.0204 0-0.0312 0.036-12.269 7.0334-23.073 17.688-29.344a0.99476 0.99476 0 0 0 0.34375-1.3438c-2.2317-3.7722-3.5-8.1272-3.5-12.781 0-9.2782 1.7019-17.184 8.5938-21.719a0.99476 0.99476 0 0 0 0.125-1.5938c-3.2864-2.9965-5.0625-7.0111-5.0625-11.75 0-4.9657 0.02584-9.5685 2-12.781 1.9742-3.2128 5.9081-5.3994 14.562-5.4688z" fill="#312c29"/>
   <path id="path4010-7" d="m128.33 174.57c0 0.47482-0.89213 0.83154-1.3371 0.85972-0.73647 0.0467-1.3371-0.3849-1.3371-0.85972s0.43557-1.2544 1.3371-0.85974c0.65878 0.28838 1.3371 0.38492 1.3371 0.85974z" fill="#8d7c6a"/>
   <path id="path4010-2-2" d="m130.56 158.17c0 0.58434-0.73967 1.0132-1.4223 1.058-1.0935 0.0718-1.4223-0.47369-1.4223-1.058 0-0.58433 0.32457-1.0927 1.4223-1.4743 0.74195-0.25792 1.1101 0.85528 1.4223 1.4743z" fill="#8d7c6a"/>
   <path id="path4010-2-7-7" d="m123.44 138.39c-0.4501 0.36703-1.1246 0.35788-1.5543-0.0226-0.32589-0.28852-0.46547-0.5944 0.0151-1.3144 0.3248-0.48668 0.94352-0.22483 1.5409-0.0309 0.44988 0.23834 0.56241 0.63267-1e-3 1.368h-8e-5z" fill="#8d7c6a"/>
   <path id="path4010-2-7-6-7" d="m119.58 119.17c-0.44562 0.36338-1.1134 0.35431-1.5388-0.0224-0.32264-0.28566-0.63886-1.1586 0.14726-1.4999 0.65247-0.28328 0.63628 0.30686 1.1284 0.33338 0.49408-0.0377 0.78275 0.62544 0.26314 1.1889z" fill="#8d7c6a"/>
   <path id="path4010-2-7-6-1-9" d="m114.26 101.95c-0.4682-0.61518-0.26574-1.5923 0.61589-1.688 0.33135-0.036 0.70951 0.31638 1.1324 0.63108 0.35492 0.28578 0.40911 0.86735-0.34822 1.2837-0.51915 0.24374-1.0965 0.1561-1.4001-0.22677z" fill="#8d7c6a"/>
   <path id="path4010-2-7-6-1-2-3" d="m119.32 71.669c0.68348-0.43741 0.57278-1.6899-0.37202-1.9509-0.35509-0.09808-0.72725-0.0051-1.2446 0.26306-0.43796 0.24871-0.70337 1.0978 0.0488 1.6865 0.52304 0.35813 1.0153 0.25002 1.5677 0.0014z" fill="#8d7c6a"/>
   <path id="path4010-2-7-6-1-3-1" d="m100.2 71.895c-0.48326-0.70622-0.34463-1.682 0.63536-1.7385 0.36832-0.02124 0.83659 0.03999 1.2866 0.41151 0.37642 0.33575 0.47372 1.2379-0.38675 1.6559-0.58753 0.24047-1.1632 0.12411-1.5352-0.32888z" fill="#8d7c6a"/>
   <g id="g4845">
    <path id="path4555-9" d="m114.06 75.709c1.5075-0.75629 7.2932 2.7424 13.894 3.9602 4.8075 0.83598 14.238 1.4122 14.114 3.3784-0.26275 1.5127-1.0202 1.841-2.1501 1.8768-5.9049-0.99769-11.507-1.6829-17.808-2.194-2.6215-0.02357-7.5071 0.61823-9.2155-0.14864-2.3926-2.3504-1.2516-5.1227 1.1663-6.8728z" fill="#f57800"/>
    <path id="path4555-9-4" d="m112.84 77.287c-1.1896 1.5961-1.3829 3.5571 0.36741 5.2817 1.6738 0.75355 6.4636 0.09967 9.032 0.12283 6.1736 0.50218 11.636 1.1691 17.421 2.1495 1.107-0.03519 1.8551-0.35597 2.1126-1.8424 4e-3 -0.06037 0.0141-0.09578 0-0.15354-0.36887 0.71698-0.944 0.92332-1.7146 0.95193-5.6849-1.125-11.079-1.911-17.145-2.4873-2.5238-0.02658-7.2341 0.71117-8.8789-0.15354-1.0806-1.2432-1.3865-2.5846-1.1941-3.8691z" fill="#ce5d01"/>
    <path id="path4555" d="m113.88 75.344-0.0312 0.03125h-0.0312c-1.266 0.91636-2.2127 2.1059-2.5312 3.4375s0.0687 2.8099 1.3438 4.0625l0.0312 0.03125 0.0625 0.03125c1.0222 0.45884 2.6614 0.46836 4.4375 0.40625 1.7648-0.06172 3.6309-0.22809 4.9062-0.21875 0.0109 8.83e-4 0.0204-8.84e-4 0.0312 0 6.2783 0.50999 11.867 1.1934 17.75 2.1875h0.0312 0.0625c0.60082-0.01904 1.1625-0.11801 1.625-0.46875s0.76462-0.90334 0.90625-1.7188v-0.03125-0.03125c0.0256-0.40531-0.21844-0.7482-0.53125-1s-0.72461-0.44473-1.2188-0.625c-0.98828-0.36055-2.2991-0.6573-3.7812-0.90625-2.9643-0.4979-6.5307-0.83692-8.9062-1.25-3.2535-0.60031-6.3208-1.7862-8.7812-2.7188-1.2302-0.46627-2.3324-0.87623-3.2188-1.125s-1.5772-0.38424-2.1562-0.09375zm0.375 0.71875c0.17474-0.08766 0.73382-0.07633 1.5625 0.15625 0.82868 0.23258 1.8953 0.62766 3.125 1.0938 2.4594 0.93218 5.5906 2.1325 8.9375 2.75 2.432 0.42289 5.9845 0.79049 8.9062 1.2812 1.4609 0.24538 2.761 0.51714 3.6562 0.84375 0.44762 0.1633 0.80208 0.34068 1 0.5 0.17696 0.14245 0.18387 0.23352 0.1875 0.3125-0.12274 0.65592-0.30604 1.0243-0.5625 1.2188-0.25109 0.19043-0.60569 0.28983-1.0938 0.3125-0.0204-0.0034-0.0421 0.0034-0.0625 0-5.8938-0.994-11.492-1.6774-17.781-2.1875-1.3456-0.0121-3.2195 0.12633-4.9688 0.1875-1.7227 0.06025-3.3268-0.0162-4.0312-0.3125-1.0673-1.0785-1.3162-2.1584-1.0625-3.2188 0.25543-1.0678 1.0554-2.1079 2.1875-2.9375z" color="rgb(0, 0, 0)" fill="#312c29" style="text-indent:0pt;text-transform:none"/>
    <path id="path4593" d="m123.65 78.855c-1.2831 0-2.3742 0.51218-2.875 1.25 0.8399-0.55705 2.2577-0.9375 3.8438-0.9375 0.2679 0 0.52573 0.04251 0.78125 0.0625-0.5017-0.22358-1.1034-0.375-1.75-0.375z" fill="#312c29"/>
    <path id="path4593-6" d="m125.08 79.087c-1.2831 0-2.3742 0.55691-2.875 1.3591 0.83991-0.60569 2.2577-1.0194 3.8438-1.0194 0.2679 0 0.52573 0.04622 0.78125 0.06796-0.5017-0.24311-1.1034-0.40774-1.75-0.40774z" fill="#312c29"/>
    <path id="path4593-6-5" d="m112.76 79.947c5e-3 1.2831 0.52046 2.3724 1.26 2.8706-0.55999-0.83797-0.94538-2.2545-0.9509-3.8405-8.9e-4 -0.26789 0.0406-0.52588 0.0598-0.78146-0.22186 0.50247-0.37116 1.1047-0.36887 1.7513z" fill="#312c29"/>
    <path id="path4593-6-5-0" d="m113.62 80.416c0.0735 1.281 0.64734 2.3409 1.4126 2.7987-0.60426-0.80663-1.0653-2.2003-1.1561-3.7837-0.0153-0.26745 0.0123-0.52731 0.0177-0.78354-0.1945 0.51368-0.31119 1.1231-0.27412 1.7686z" fill="#312c29"/>
    <path id="path4593-6-5-8" d="m114.5 80.839c0.0709 1.1814 0.6421 2.1685 1.4058 2.6044-0.6021-0.75428-1.0599-2.0467-1.1476-3.5071-0.0148-0.24666 0.0133-0.48553 0.0192-0.72147-0.19534 0.4696-0.31312 1.0288-0.27737 1.6242z" fill="#312c29"/>
   </g>
   <path id="path4857-6" d="m82.873 102.59-12.723-4.1163-6.6476 2.4885-6.325-0.83663-0.22807-5.4884-6.4346-8.3574-1.6518 1.6279 6.4435 7.3229 0.18267 4.895-8.1444-1.5057-6.8037-7.0129-1.2171 1.1503 7.2509 7.4628 8.3574 1.3721-2.8689 4.4905-7.2196 2.2301 1.2108 2.1357 6.6653-2.7922 4.1263-5.6534 6.6564 0.74215 6.7055-2.0626 12.793 4.9983-0.12732-3.0907z" fill="#8f5902"/>
   <path id="path4857" d="m50.562 85.75-0.28125 0.28125-1.6562 1.625-0.25 0.21875 0.21875 0.25 6.375 7.2812 0.15625 4.2812-7.5938-1.375-6.75-6.9375-0.21875-0.25-0.25 0.21875-1.2188 1.1562-0.28125 0.25 0.25 0.25 7.25 7.4688 0.09375 0.0625 0.125 0.0312 7.8125 1.2812-2.5 3.9375-7.0938 2.1875-0.4375 0.125 0.21875 0.40625 1.2188 2.125 0.15625 0.28125 0.28125-0.125 6.6562-2.8125 0.09375-0.0312 0.0625-0.0625 4.0312-5.5 6.4375 0.71875h0.0625 0.0625l6.6562-2.0312 12.625 4.9375 0.5 0.1875c0.52144-0.48271 0.81378-3.0232-0.15625-3.8438-0.06796-0.0575-0.25-0.0937-0.25-0.0937l-12.719-4.125-0.09375-0.03125-0.125 0.0625-6.5938 2.4375-5.9062-0.7813-0.21875-5.1875-0.03125-0.125-0.0625-0.0625-6.4375-8.375-0.21875-0.3125zm-0.09375 1.0625 6.125 7.9688 0.21875 5.3438 0.03125 0.3125 0.28125 0.0312 6.3438 0.84375h0.0625l0.09375-0.0312 6.5312-2.4375 12.375 4.0312c0.3661 0.38828 0.49522 1.5901 0.09375 2.2812l-12.281-4.8125-0.125-0.0312-0.125 0.0312-6.6562 2.0625h-0.03125l-6.5312-0.75-0.1875-0.0312-0.125 0.15625-4.0938 5.625-6.2812 2.5937-0.8125-1.4688 6.7812-2.125 0.125-0.0312 0.0625-0.0937 2.875-4.5 0.28125-0.4376-0.5-0.09375-8.25-1.3438-6.9375-7.1562 0.71875-0.65625 6.5625 6.7812 0.0625 0.0625 0.125 0.03125 8.1562 1.5 0.40625 0.0937v-0.4375l-0.1875-4.9062v-0.125l-0.09375-0.0937-6.2188-7.0625 1.125-1.125z" color="rgb(0, 0, 0)" fill="#312c29" style="text-indent:0pt;text-transform:none"/>
   <path id="path2911-4" transform="matrix(.9341 -.17121 .065473 1.3185 -149.38 43.485)" d="m304.5 48.853c0 1.1577-16.867 2.0963-37.673 2.0963-20.806 0-37.673-0.93853-37.673-2.0963 0-1.1577 16.867-2.0963 37.673-2.0963 20.806 0 37.673 0.93853 37.673 2.0963z" fill="#c17d11"/>
   <path id="path2911-4-2" d="m134.38 55.242c0.21815 2.0336-16.463 5.1941-32.221 8.3301-14.823 2.9499-27.871 4.8246-33.771 4.9775 3.9211 0.47258 17.832-0.62392 34.276-3.5341 19.435-3.4397 35.198-7.7871 35.122-9.261-0.0122-0.23675-2.632-0.42899-3.4062-0.51252z" fill="#a56b0f"/>
   <path id="path2911-4-7" d="m94.781 60.98c-15.698 3.1567-27.409 6.4324-27.344 7.75 0.0606 1.2204 10.261 0.38201 24.25-1.8125 2.2382-1.8445 3.411-3.825 3.125-5.7188-0.01126-0.07453-0.01565-0.1453-0.03125-0.21875z" fill="#a56b0f"/>
   <path id="path2911" d="m102.88 58.866c-9.7238 1.7823-18.504 3.7174-24.859 5.3878-3.1776 0.83523-5.7337 1.5867-7.5174 2.251-0.89184 0.33214-1.5811 0.63526-2.0751 0.92085-0.247 0.14279-0.46044 0.28278-0.62583 0.44732-0.0827 0.08227-0.14991 0.15612-0.22125 0.29002-0.0713 0.13389-0.13063 0.3352-0.11935 0.56238 0.0113 0.22718 0.0893 0.40331 0.17255 0.50888 0.0832 0.10556 0.15855 0.19487 0.24785 0.24561 0.1786 0.10149 0.40197 0.16142 0.65856 0.21191 0.51318 0.10098 1.2199 0.14824 2.1283 0.15041 1.8169 0.0043 4.4009-0.18633 7.6034-0.52048 6.4049-0.66828 15.217-1.9575 24.941-3.7397 9.7238-1.7823 18.533-3.7227 24.888-5.3932 3.1776-0.83523 5.7337-1.5867 7.5174-2.251 0.89185-0.33213 1.5812-0.63526 2.0751-0.92085 0.24699-0.14279 0.46043-0.28278 0.62582-0.44732 0.0827-0.08227 0.14787-0.19732 0.21921-0.33122 0.0713-0.13389 0.13063-0.3352 0.11935-0.56238-0.0113-0.22718-0.0893-0.40331-0.17255-0.50888-0.0832-0.10556-0.15651-0.15366-0.2458-0.20441-0.1786-0.10149-0.40197-0.16142-0.65857-0.21191-0.51318-0.10098-1.2199-0.14824-2.1283-0.15041-1.8169-0.0043-4.4009 0.18633-7.6034 0.52048-6.4049 0.66828-15.246 1.9628-24.97 3.7451zm0.0593 1.1949c9.7112-1.7799 18.528-3.1098 24.909-3.7756 3.1906-0.33291 5.7676-0.51401 7.545-0.50978 0.84904 2e-3 1.5077 0.06149 1.9511 0.14131-0.42755 0.23985-1.0664 0.53634-1.902 0.84755-1.7449 0.64983-4.2932 1.4081-7.459 2.2403-6.3316 1.6643-15.118 3.6025-24.83 5.3825-9.7112 1.7799-18.501 3.0632-24.882 3.729-3.1906 0.33291-5.7968 0.51936-7.5742 0.51513-0.85068-2e-3 -1.4785-0.06654-1.922-0.14666 0.42761-0.23938 1.0399-0.53199 1.8728-0.8422 1.7449-0.64983 4.3224-1.4135 7.4882-2.2456 6.3316-1.6643 15.091-3.556 24.802-5.3359z" color="rgb(0, 0, 0)" fill="#312c29" style="text-indent:0pt;text-transform:none"/>
   <path id="path2913-0" d="m118.57 57.002c-1.0098-4.9223-2.2251-9.7477-2.9839-14.776-0.28657-1.9457-0.6701-4.0037-2.4369-4.4078-1.6802-0.31326 0.82141-1.8342-1.5723-2.6236-1.8149-1.2459 1.3498-2.8333 0.15984-4.4142-1.4834-4.6712-3.9814-8.943-6.5828-13.068-5.1562 2.8112-10.268 5.7211-15.452 8.4706-4.2725 1.5287-8.5451 3.0574-12.818 4.5861 0.87346 3.8341 1.9109 7.9306 4.7106 10.849 0.97266 1.4098 3.2799 0.32885 2.4167 3.1658-0.4357 1.432 2.8562 0.68174 1.583 2.1664-1.3382 1.5604 0.70056 3.5203 0.72564 5.0937 0.17425 2.145-0.12955 4.095-0.78512 6.0927-0.80732 2.0375-1.4949 3.536-2.3022 5.5735 6.6673-0.7381 13.346-1.4169 20.006-2.192 5.1102-1.5053 10.22-3.0107 15.331-4.516z" fill="#c17d11"/>
   <path id="path2913-0-5" d="m87.802 27.985-11.036 2.9115c0.87346 3.8341 1.9191 7.9251 4.7188 10.844 0.97266 1.4098 3.2694 0.31934 2.4062 3.1562-0.4357 1.432 2.867 0.70288 1.5938 2.1875-1.3382 1.5604 0.69367 3.5204 0.71875 5.0938 0.17425 2.145-0.12568 4.096-0.78125 6.0938-0.80732 2.0375-1.5052 3.525-2.3125 5.5625 3.9695-0.43944 7.9349-0.88225 11.906-1.3125 0.72057-3.1699 1.1562-6.5895 1.1562-10.188 0-10.916-3.0319-19.559-8.3698-24.349z" fill="#af710f"/>
   <path id="path3705-9" d="m76.644 30.829s8.1656-5.0169 12.338-7.307c5.1936-2.8505 16.411-5.9294 16.411-5.9294s-10.445 6.3262-15.213 9.2835c-3.9851 2.4718-13.536 3.953-13.536 3.953z" fill="#8f5902"/>
   <path id="path3905-22" d="m83.823 45.287c1.8945-1.4522 5.3511-3.0713 9.5104-4.3376 3.7154-1.1312 7.2103-1.7388 9.765-1.7954-2.0987-0.44624-5.9111-0.01923-10.067 1.2621-4.3824 1.3511-7.9065 3.2785-9.2083 4.8709z" fill="#8f5902"/>
   <path id="path3905-22-1" d="m85.56 47.222c1.5199-1.179 4.293-2.4936 7.6298-3.5217 2.9807-0.91839 5.7846-1.4118 7.834-1.4577-1.6837-0.3623-4.7422-0.01561-8.0764 1.0247-3.5158 1.0969-6.3431 2.6618-7.3874 3.9547z" fill="#8f5902"/>
   <path id="path3905-22-1-8" d="m85.262 59.442c1.5199-1.179 4.293-2.4936 7.6298-3.5217 2.9807-0.91839 5.7846-1.4118 7.834-1.4577-1.6837-0.3623-4.7422-0.01561-8.0764 1.0247-3.5158 1.0969-6.3431 2.6618-7.3874 3.9547z" fill="#8f5902"/>
   <path id="path2913" d="m105.31 17.074c-5.6971 1.4808-11.187 3.6363-16.562 6.0312l-12.469 7.3438 0.125 0.4375c0.87049 3.821 1.8996 7.9927 4.7812 11.031 0.0162 0.01705 0.015 0.04552 0.0312 0.0625l0.0312-0.03125c0.6278 0.84658 1.5731 0.9853 2.0312 1.1875 0.2348 0.10363 0.31882 0.18067 0.375 0.34375 0.0562 0.16308 0.0753 0.49791-0.125 1.1562-0.0782 0.25706-0.091 0.54412 0 0.78125s0.26665 0.4154 0.4375 0.53125c0.34169 0.2317 0.70427 0.32034 1 0.40625 0.21884 0.06357 0.29088 0.10575 0.34375 0.125-0.0247 0.04523-0.0127 0.06166-0.0937 0.15625-0.40907 0.47699-0.59786 1.036-0.59375 1.5625 4e-3 0.5265 0.16082 1.0333 0.34375 1.5 0.36586 0.93349 0.8346 1.8009 0.84375 2.375v0.03125c0.16761 2.0632-0.11708 3.9049-0.75 5.8438-3e-3 0.01002 3e-3 0.02123 0 0.03125-0.7975 2.0105-1.4729 3.5225-2.2812 5.5625l-0.3125 0.78125 0.8125-0.09375c6.6643-0.73777 13.335-1.4431 20-2.2188h0.0625 0.0312l15.344-4.5312 0.4375-0.125-0.0937-0.4375c-1.0127-4.9366-2.2147-9.7528-2.9688-14.75-0.14427-0.97951-0.32891-2.0126-0.71875-2.9062s-1.0694-1.6648-2.125-1.9062v-0.03125c-0.144-0.02685-0.19822-0.05038-0.21875-0.0625 4e-3 -0.01994 0.0328-0.19656 0.0937-0.46875 0.065-0.28968 0.11357-0.70733-0.0937-1.125-0.18728-0.37722-0.62467-0.62833-1.1875-0.84375-7e-3 -0.0027 7e-3 -0.02859 0-0.03125-0.35698-0.24507-0.35639-0.3386-0.34375-0.53125 0.0126-0.19265 0.14049-0.53932 0.34375-0.90625s0.46721-0.76057 0.59375-1.25c0.11201-0.43323-7e-3 -0.96745-0.28125-1.4375l0.0625-0.03125c-1.5058-4.7417-4.0488-9.0527-6.6562-13.188l-0.25-0.375zm-0.3125 1.375c2.4884 3.9708 4.8437 8.0714 6.25 12.5l0.0312 0.0625 0.0625 0.09375c0.20928 0.27803 0.20044 0.45824 0.125 0.75-0.0754 0.29176-0.28769 0.64799-0.5 1.0312s-0.43563 0.77646-0.46875 1.2812c-0.0331 0.50479 0.2308 1.0596 0.78125 1.4375l0.0625 0.0625h0.0625c0.52847 0.17428 0.70069 0.36943 0.75 0.46875 0.0493 0.09932 0.0199 0.20911-0.0312 0.4375-0.0512 0.22839-0.17294 0.50405-0.0937 0.90625 0.0396 0.2011 0.18877 0.45349 0.375 0.59375 0.17848 0.13443 0.38193 0.20193 0.625 0.25 0.0106 0.0021 0.0206-2e-3 0.0312 0 0.69237 0.16852 1.0955 0.6313 1.4062 1.3438 0.31528 0.72277 0.4827 1.6901 0.625 2.6562 0.74084 4.9095 1.8864 9.5854 2.875 14.344l-14.875 4.375c-6.3539 0.73862-12.725 1.3931-19.094 2.0938 0.66738-1.6355 1.3007-3.0476 2-4.8125v-0.03125c0.6681-2.0359 0.98686-4.0465 0.8125-6.25-1.6e-4 -0.01034 2.8e-4 -0.02094 0-0.03125-0.027-0.98684-0.58437-1.8662-0.90625-2.6875-0.16262-0.41494-0.27868-0.796-0.28125-1.125-3e-3 -0.329 0.0837-0.60303 0.34375-0.90625 0.18703-0.21809 0.31158-0.41496 0.375-0.65625 0.0634-0.24129 0.0197-0.56046-0.125-0.75-0.2894-0.37909-0.6551-0.40889-0.96875-0.5s-0.60553-0.20448-0.71875-0.28125c-0.0566-0.03839-0.0618-0.02952-0.0625-0.03125-6.6e-4 -0.0017 5.9e-4 -0.02406 0.0312-0.125 0.23128-0.76011 0.25785-1.3363 0.0937-1.8125-0.16405-0.47618-0.55056-0.74927-0.90625-0.90625-0.71138-0.31396-1.34-0.37139-1.6875-0.875l-0.0312-0.03125v-0.03125c-2.5618-2.6707-3.5884-6.4569-4.4375-10.125 0.83151-0.13326 2.351-0.36916 4.5-0.875 2.9063-0.68408 6.2997-1.6621 8.4062-2.9688 4.4911-2.7856 13.492-8.2271 14.562-8.875h5e-5zm-3.25 0.78125c-2.9888 1.8129-8.1288 4.9145-11.844 7.2188-0.38576 0.23927-0.85083 0.46327-1.3438 0.6875l-4 1.4375c-0.92418 0.2678-1.8607 0.50942-2.75 0.71875-1.3147 0.30945-1.4812 0.32558-2.4062 0.5 2.242-1.3683 6.5088-3.9993 9.8125-5.8125 3.5294-1.9371 8.8991-3.6578 12.531-4.75z" color="rgb(0, 0, 0)" fill="#312c29" style="text-indent:0pt;text-transform:none"/>
  </g>
 </g>
</svg>
