<?xml version="1.0" encoding="UTF-8"?>
<!-- Created with Inkscape (http://www.inkscape.org/) -->
<svg id="svg23820" width="271.48" height="448.2" version="1.0" xmlns="http://www.w3.org/2000/svg" xmlns:cc="http://creativecommons.org/ns#" xmlns:dc="http://purl.org/dc/elements/1.1/" xmlns:rdf="http://www.w3.org/1999/02/22-rdf-syntax-ns#">
 <metadata id="metadata4">
  <rdf:RDF>
   <cc:Work rdf:about="">
    <dc:format>image/svg+xml</dc:format>
    <dc:type rdf:resource="http://purl.org/dc/dcmitype/StillImage"/>
   </cc:Work>
  </rdf:RDF>
 </metadata>
 <g id="layer1" transform="translate(-214.4 -307.76)">
  <g id="g2846">
   <path id="rect24175" d="m336.97 389.3-0.34375 0.5c-7.9026-0.39151-19.221 2.3952-27.219 6.9375-21.104 11.986-21.518 39.52-19 61.5 1.6412 14.324 31.946 25.821 11.656 34.406-14.899 6.3044-17.805 29.297-32.312 28.344-15.133-0.99441-35.334-12.675-46.531 2.9688-13.352 18.655 12.361 48.605 31.812 37.812 17.928-9.9472 21.731 8.2949 29.562 19.438 13.403 19.07-6.8841 28.167-14.906 41.094-10.765 17.346-12.082 37.402-13.75 56.938-1.7728 20.767-0.99399 47.1 18.75 59.5 24.64 15.476 54.588 13.5 82.281 12.438 24.524-0.94069 55.497-6.3385 66.531-30.062 6.1717-13.27 5.7733-36.807 4.4062-52.062-1.655-18.467-2.3101-33.183-15.344-46.688-10.851-11.243-28.936-19.935-22.156-36.312 5.2606-12.707 15.801-26.48 32.844-20.531 19.416 6.7775 36.48-20.087 33.406-35.5-3.457-17.336-30.168-8.5073-44.281-7.5-18.497 1.3202-18.922-23.569-35.5-29.125-14.999-5.0265-5.2418-13.882 0.9375-23 9.8083-14.473 10.083-36.12 2.8438-53.219-7.5745-17.891-24.691-28.026-43.688-27.875z" fill="#fff"/>
   <path id="path2160" d="m336.58 384.6c-20.41-1.0241-41.604 9.1731-49.195 28.234-6.6147 16.611-7.0922 38.088 1.0986 54.607 4.8023 9.6857 21.443 19.15 4.2113 25.383-14.02 5.0716-15.37 33.177-33.414 20.633-14.203-9.8734-38.733-3.8615-43.928 14.854-6.5128 23.464 21.656 50.187 43.702 36.587 14.689-9.0617 16.512 14.041 23.657 22.568 10.463 12.486-16.892 25.765-21.848 41.001-7.023 21.59-12.505 44.64-10.467 67.25 1.5228 16.893 4.6287 35.746 20.392 46.061 19.64 12.852 44.377 13.503 67.117 14.084 15.988 0.40791 32.075-0.32612 47.888-3.7436 19.244-4.1589 36.926-16.243 43.125-35.51 6.8987-21.439 5.976-44.54 1.9636-65.882-6.1631-32.781-30.444-39.888-36.863-56.795-4.2033-11.071 12.733-28.947 32.226-23.54 18.886 5.2383 33.127-16.807 35.502-33.923 2.8578-20.596-23.445-27.639-37.845-21.555-19.497 8.2372-23.647-11.761-35.03-20.26-8.0295-5.9949-20.085-8.808-8.7379-19.942 20.208-19.828 12.886-60.458-9.0671-79.371-9.2857-8-22.169-11.334-34.238-10.557m0.11744 4.5173c18.997-0.15141 36.121 9.9745 43.695 27.866 7.239 17.099 6.9692 38.749-2.8392 53.222-6.1793 9.1178-15.949 17.963-0.94957 22.99 16.578 5.5558 17.01 30.465 35.507 29.145 14.113-1.0073 40.83-9.8525 44.287 7.4836 3.0735 15.413-13.975 42.291-33.39 35.514-17.042-5.949-27.6 7.8134-32.861 20.521-6.7799 16.377 11.303 25.067 22.154 36.31 13.034 13.505 13.696 28.221 15.351 46.688 1.3671 15.255 1.7577 38.799-4.414 52.069-11.034 23.724-41.994 29.131-66.518 30.072-27.693 1.0622-57.654 3.0235-82.294-12.452-19.744-12.4-20.522-38.719-18.749-59.486 1.6678-19.536 2.9944-39.607 13.759-56.953 8.0222-12.927 28.31-22.019 14.908-41.089-7.8311-11.143-11.634-29.371-29.562-19.424-19.452 10.793-45.158-19.171-31.806-37.826 11.197-15.644 31.389-3.9652 46.522-2.9708 14.507 0.95332 17.424-22.044 32.323-28.348 20.29-8.5854-10.021-20.065-11.663-34.39-2.5184-21.98-2.1248-49.539 18.98-61.525 7.9977-4.5423 19.337-7.3046 27.24-6.9131"/>
   <g id="g5216" transform="translate(95.785 165.68)" stroke="#000" stroke-dashoffset="0pt" stroke-width="5">
    <path id="rect3190" d="m193.7 151.99c-6.6071-13.144 23.929-4.7797 47.857-4.7797s53.036-7.2265 47.857 4.7797c-10.733 24.884 0 93.319 0 93.319h-95.714s12.278-68.893 0-93.319z"/>
    <path id="path4162" d="m318.7 240.74c-35.955 5.857-34.56 12.857-77.143 12.857s-52.432-6.242-77.143-12.857c-10.374-2.7772-1.7343-5.9915 14.822-8.5115 16.556-2.52 41.029-0.34566 62.321-0.34566s44.873-1.4855 60.984 1.3788 24.751 6.0787 16.159 7.4783z"/>
   </g>
   <path id="path5428" d="m312.03 434.57c-1.1755 0.00991-2.372 0.23187-3.4101 0.8027-0.53965 0.79104-0.80568 1.7551-1.4733 2.4606-0.85292 2.1286-2.2416 2.631-1.1744 5.2342 0.70818 1.8365 1.2264 4.1836 3.1659 4.9263 1.9945 0.69316 4.1061 1.1844 6.2303 1.033 1.8743-0.84364 3.1802-2.7834 3.3093-4.8281 0.41455-1.7035 0.63874-3.4503 0.71609-5.2008-0.3429-0.90984-1.1624-1.6107-2.1011-1.8465m-8.3342 6.5812c0.70262-1.7708 1.2576-1.0041 2.2349-0.88865s2.037 1.8831 1.8466 2.8114c-0.74709 1.335-5.0167 0.43442-4.0815-1.9227z"/>
   <path id="path5690" d="m348.72 471.32c-0.79704-2.6323 2.6459-5.4334 4.6062-3.422 1.5648 1.6836 0.7813 5.368-1.6461 5.4267-1.0727 0.00528-3.3714-1.2064-2.8093-2.6092"/>
   <path id="path5692" d="m344.82 475.84c-0.48907 1.2677-3.4695 1.0426-4.1992-1.6562 0.01431-3.1443 0.90657-1.8801 1.6828-2.4474 0.85898-0.62771 2.0431-0.59016 3.0822-0.25077 0.79894 0.63671 1.0952 3.0866-0.56588 4.3543z"/>
   <path id="path5694" d="m333.11 477.32c-0.50709-0.16388-1.9032-0.84983-1.1285-2.654-0.53524-2.5521 3.2748-4.2962 4.5325-2.0218 1.6359 1.6505 1.0622 3.2198-0.81109 4.8331-1.5739-0.06708-2.0169 0.97881-2.5929-0.15732z"/>
   <path id="path5700" d="m323.99 476.3c-0.01215-1.4041-0.32432 0.34038-0.46767-2.7768-0.14336-3.1172 4.6248-3.7308 5.4932-0.92292 0.72984 2.0687-0.9856 5.004-3.1667 4.2636-1.246-0.37556-1.1572 0.84023-1.8588-0.56391z"/>
   <path id="path5702" d="m315.1 470.27c-0.19923-2.571 3.5505-3.8768 4.7708-1.6642 1.7596 1.559 0.38549 5.1858-1.8614 5.0133-2.4219 1.0125-2.8896-0.00801-3.4477-1.3707"/>
   <path id="path5732" d="m289.24 468.16c6.4014 9.4146 7.9384 10.333 14.841 14.373 4.9288 2.0827 10.072 4.19 16.959 5.662 12.319 2.5109 33.1 0.94885 44.639-3.6131 6.408-2.3033 8.4774-5.1289 13.314-7.6339 11.143 1.0208 12.805 15.74-1.517 21.047-5.0099 4.9948-14.416 10.315-29.62 13.415-9.7356 2.0344-21.142 1.7384-28.364 0.0224-17.676-2.8407-25.859-8.966-29.241-15.219-2.7446-4.9822-3.9417-10.142-5.697-15.229-0.42512-4.1722 1.3525-8.5091 4.6866-12.825z" fill="#fe0000"/>
   <path id="path6712" d="m296.8 506.87c-0.91525-0.24706-1.1106 3.7784-1.6562 5.9688-1.677 5.6378-3.227 14.878-3.5 23.062-0.4617 12.772 0.80441 21.132 2.4688 25.875 2.1109 7.9963 3.3215 21.762 6.5938 22.781 0.12934 0.27692 0.7554 0.4563 1.625 0.5625-0.49325-1.3013-1.0365-2.7342-1.5938-4.3438-1.6183-4.6744-3.2872-9.9608-3.3438-13.469-0.01685-0.40316 0.12988-0.79974 0.40625-1.0938s0.65907-0.46066 1.0625-0.46875c0.4032-0.00836 0.80566 0.15528 1.0938 0.4375 0.2881 0.28221 0.43755 0.65921 0.4375 1.0625 0.04014 2.4891 1.6004 7.947 3.1875 12.531 0.70077 2.0241 1.3773 3.8422 1.9375 5.3125 0.72376-0.08814 1.4475-0.23285 2.1562-0.4375-0.59507-1.5491-1.3743-3.6164-2.1562-5.875-1.6183-4.6744-3.2872-9.9608-3.3438-13.469-0.01689-0.39791 0.13661-0.80066 0.40625-1.0938 0.26965-0.29309 0.63332-0.45248 1.0312-0.46875 0.40853-0.01699 0.79878 0.12309 1.0938 0.40625 0.29496 0.28317 0.46906 0.68487 0.46875 1.0938 0.04014 2.4891 1.5692 7.947 3.1562 12.531 0.73912 2.1349 1.4806 4.06 2.0625 5.5625 0.91939-0.72485 1.5038-1.6753 1.4688-2.9375-2.8e-4 -0.00993 3.5e-4 -0.02129 0-0.03125-0.36174-0.97733-0.74314-2.022-1.125-3.125-1.6183-4.6744-3.2872-9.9608-3.3438-13.469-0.02204-0.77223 0.54598-1.4349 1.3125-1.5312 0.42916-0.05403 0.86421 0.08765 1.1875 0.375 0.32329 0.28737 0.50334 0.69247 0.5 1.125 0.04014 2.4891 1.6004 7.947 3.1875 12.531 0.20238 0.58455 0.39517 1.1019 0.59375 1.6562 3.0358-2.553 0.28483-8.5322-0.59375-12.906-0.54752-4.2672-1.5827-6.3268-1.8438-11.844-0.65957-9.9907 0.84763-25.412 3.5179-35.085 0.50694-0.93614 1.9048-4.0084 1.0759-4.0714-1.4789-0.73936-4.0373-1.1252-8.4688-2.625-3.8816-1.3137-8.6574-3.8298-11.062-4.5312z" fill="#fe0000"/>
   <path id="path6716" d="m332.43 449.06c-6.393 2.6908-10.248 4.7403-15.214 8.0643-4.9652 3.324-12.2 6.633 0.53077 5.2483 12.756-1.3874 5.3949-0.49405 15.033-2.3065 9.5834-1.8022 5.9478-13.657-0.34995-11.006z" fill="#f00" fill-rule="evenodd"/>
   <path id="path8668" d="m289.38 387.7c-8.9925 15.489 33.786 12.354 49.528 14.007 8.3413 0.64074 59.165 0.86939 46.258-13.471-1.6652-1.0011-35.147 4.897-47.629 5.65-31.045-0.53316-45.47-7.569-48.157-6.1853z" fill="#f00" fill-rule="evenodd"/>
   <path id="path15646" d="m334.29 555.55c1.7643 0.95687 4.8518 5.1973 1.879 7.3321-2.7356 1.5428-6.6204-1.9919-4.9416-4.8086 0.6383-1.2035 2.0893-3.0514 3.0626-2.5235z" stroke="#000" stroke-dashoffset="0pt" stroke-width="4.8263"/>
   <path id="path15648" d="m336.29 518.71c3.1892 0.31233 4.3798 5.2798 1.6116 6.947-2.1402 2.6502-7.2683-0.49717-5.36-3.5646 0.70973-1.5776 2.0587-2.9104 3.7484-3.3824z" stroke="#000" stroke-dashoffset="0pt" stroke-width="4.8263"/>
   <path id="path15650" d="m336.29 575.65c2.3973-1.0795 4.9031 5.171 2.1562 7.0965-1.7589 2.3188-6.6694 0.03799-5.409-2.7307 0.74916-1.6457 1.8686-3.7424 3.2528-4.3658z" stroke="#000" stroke-dashoffset="0pt" stroke-width="4.8263"/>
   <path id="path15652" d="m334.29 537.11c1.8607-0.1695 5.108 5.0666 2.4934 7.4348-2.3397 2.121-7.6038-1.1186-5.0899-3.9146 0.90603-1.134 1.5839-3.4279 2.5965-3.5201z" stroke="#000" stroke-dashoffset="0pt" stroke-width="4.8263"/>
   <path id="path16822" d="m357.49 435.49c-1.0792 0.53468-0.18065 0.00475-3.1586 0.67926s-5.2907 3.542-5.3202 6.5951c-0.51075 1.9386 1.0172 4.6917 3.0109 4.5506 1.1739 0.13823 1.7626 1.0162 3.0352 1.3278 0.75524 0.86861 2.2384 0.93684 3.0716 0.14341 1.1756-0.6436 2.262-1.4583 3.5153-1.9538 1.0691-0.94752 1.1289-2.3768 1.3735-3.5247 0.97584-1.1615 0.1248-3.324-1.3607-5.2028-1.5462-1.9554-3.0877-3.1496-4.167-2.615zm-4.4439 8.8005c-0.93738-2.0598 0.02512-2.5165 0.92623-2.949s2.9514 1.5439 2.694 2.5098c-1.6866 0.77596-2.6829 2.499-3.6202 0.43925z"/>
   <path id="path18634" d="m284.56 312.75c-4.9675 5.1084 16.554 5.8059 24.39 7.0568 4.159 0.57964 38.181 2.0947 45.359-2.4611-7.5899-0.78226-23.466 3.4639-45.812-0.36835-15.534-1.5012-22.55-4.6042-23.937-4.2274z" fill="#fff" fill-rule="evenodd"/>
   <path id="path19610" d="m415.15 565.57c-4.0936 16.008-4.1868 22.143-10.019 34.257-6.5931 13.021-22.753 35.297-16.182 36.646 9.7776-0.15999 7.4782-3.223 10.588-9.5808 6.3543-8.7687 13.213-25.898 17.413-43.925 4.8961-14.162 2.5819-3.8548 4.488-16.389-3.0062-1.7097 5.5047 1.1627-6.288-1.0082z" fill-rule="evenodd"/>
   <g id="g21876" transform="translate(373.01 26.517)">
    <path id="path20700" d="m58.594 335.06c-0.50399 0.02073-1.0021 0.11719-1.5 0.21875 0.083373 0.29353 0.15486 0.54961 0.3125 1 1.4011 4.003 4.0925 8.0195 3.4688 12.906-0.69441 5.44-1.8163 10.907-0.59375 15.625 2.8997 11.19 0.52496 31.79-1.4189 43.204h-0.5625-0.4375-0.5625c2.4514-12.073 3.2521-27.556 1.4502-42.954-0.60466-5.1671-0.12507-10.582 0.5625-15.969 0.56889-4.4566-1.9467-8.2676-3.4062-12.438-0.12931-0.36945-0.20127-0.69153-0.28125-0.96875-4.4866 1.6336-8.0991 6.2857-6.9062 11.156-0.082654 10.194-1.0382 20.43 0.1875 30.594 3.2866 10.531 1.3555 15.581 3.6562 25.312-0.5681 4.909-2.0996 10.063-0.34375 14.906 5.1193 3.6332 8.1878 7.9292 14.156 7.0625 6.792 1.0615 7.7007 2.7969 14.812 2.5625 5.6253-3.1155 8.5881-9.7815 8.2188-16.062 4.1285-19.394 18.376-32.619 23.469-51.719-0.0847-3.1738-1.2416-6.0722-3.0625-8.5312-1.7538 1.6724-3.2976 3.467-4.0625 5.8438-1.6634 5.169-2.9623 10.681-6.2812 14.688-7.152 8.633-13.971 31.356-18.719 41.906l-0.46875-0.21875c-0.032172 0.07208-0.061401 0.14687-0.09375 0.21875l-0.90625-0.4375c4.6844-10.409 11.469-33.192 18.844-42.094 3.1093-3.7532 4.445-9.1545 6.125-14.375 0.89601-2.7843 2.708-4.8064 4.6562-6.625-2.6647-3.0612-6.3851-5.3277-10.219-6.4062-1.0811-0.57602-2.1962-1.1358-3.3125-1.6875-0.57987 1.2869-1.0478 2.6766-1.375 4.25-1.5554 7.4805-2.7717 15.452-5.875 21.25-6.6874 12.494-9.3107 30.889-13.75 46.156l-0.46875-0.34375c-0.032564 0.113-0.060991 0.23108-0.09375 0.34375l-0.875-0.625c4.3801-15.064 7.0104-33.586 13.906-46.469 2.9073-5.4315 4.1479-13.258 5.7188-20.812 0.34208-1.6452 0.828-3.1094 1.4062-4.4375-4.0623-1.9303-8.3256-3.6107-12.688-4.6875 0.59619 4.5389 1.6849 9.2901 0.15625 14.375-1.9535 6.4981-4.3166 12.927-4.2188 18.906 0.23217 14.182-5.5969 29.219-8.4375 43.094l-0.53125-0.09375c-0.006526 0.03174-0.024755 0.06202-0.03125 0.09375l-1-0.1875c2.8791-14.062 8.6314-29.027 8.4062-42.781-0.10449-6.3825 2.347-12.91 4.2812-19.344 1.4627-4.8656 0.28508-9.5742-0.28125-14.438-2.9884-0.6258-5.9958-0.93412-9.0312-0.84375 0.9235 3.9642 1.9578 8.0972 1 12.656-1.3951 6.6404-3.1986 13.269-2.5938 19.219 1.4347 14.112-3.0969 29.56-4.75 43.625l-0.5625-0.0625c-0.002403 0.02035 0.002391 0.04216 0 0.0625l-1-0.125c1.6755-14.256 6.1414-29.627 4.75-43.312-0.64568-6.3506 1.2437-13.05 2.625-19.625 0.89797-4.2742-0.16035-8.2599-1.0938-12.344-1.9056 0.15156-3.8199 0.44725-5.7188 0.96875-1.4545-0.89219-3.0604-1.2531-4.6562-1.1875z"/>
    <path id="path21874" d="m43.497 445.33c-0.40988-0.05154 1.3491-0.84649 0.96683-0.92915 0.15079-0.10766 0.28131-0.20171 0.53718-0.36436 2.2742-1.4456 1.0628-1.0887 1.9138-3.0546 0.94741-2.1884 1.1927-2.6386 3.5194-4.3793 5.5186-4.1288 5.3878-12.394 6.9738-17.027l-0.46393-0.04847-0.82477-0.08622c-1.3517 4.9352-1.0893 11.062-6.8782 16.932-1.9426 1.9697-3.0603 4.13-3.9983 6.2968-0.77612 1.7928 0.36982 0.21007-1.9992 1.7159-0.20989 0.13343-0.35924 0.25324-0.50267 0.35483-3.244-1.026-5.9949-2.0862-3.65-3.8891 2.7804-3.9959 1.6385-6.298 5.4894-10.169 5.6535-3.8374 1.5432-5.9796 6.1602-9.5893 0.90322-1.9698 1.0802-4.1184 3.8818-5.8622 5.2375-0.98034 8.9688-2.3968 13.649-1.5432 5.8985 0.17011 7.1328-0.4306 12.933 0.27411 3.769 1.7039 4.3499 4.5676 2.2901 6.9934-2.0142 7.9443 6.0411 14.347 4.9042 22.26-0.95674 1.2346 0.49345 2.2689-1.6955 3.0742-0.97918-0.80557-1.751-1.6408-1.7177-2.6368 0.07247-2.1659 0.5415-4.4348-1.0764-6.2884-3.4864-3.9945-5.9751-13.474-6.9428-18.011l-0.44773 0.0452c-0.006396-0.031-0.009607-0.06279-0.016197-0.09369l-0.8697 0.09307c0.95482 4.4767 3.3985 13.976 6.9935 18.095 1.5157 1.7366 1.108 3.9652 1.0348 6.1527-0.039029 1.1667 0.89038 2.1141 1.9891 2.9936-3.0532 0.96811-6.755 1.5342-10.218 1.6258-1.0526 0.1322-2.1288 0.25514-3.2036 0.37477-0.11866-0.55353-0.11631-1.1376 0.05354-1.7815 0.80749-3.0611 2.032-6.2852 1.0925-8.8212-2.0245-5.465-2.2621-12.889-1.6571-19.245l-0.48266 0.09412c0.004715-0.04704 0.014266-0.09569 0.018728-0.1426l-0.89632 0.16913c-0.59684 6.2718-0.38886 13.746 1.6987 19.381 0.88012 2.3758-0.28359 5.545-1.0991 8.6366-0.1776 0.67322-0.18597 1.288-0.080169 1.8575-3.8899 0.40515-7.1613 0.69519-11.06 0.74053 1.7601-1.7246 3.9857-3.4898 4.1458-5.6112 0.20463-2.711 0.052005-5.4302 1.8036-7.7614 4.1546-5.5294-0.37975-11.916 1.1544-17.589l-0.46436-0.00914c0.003488-0.01297-0.003087-0.02639 4.2e-4 -0.03936l-0.87716-0.01283c-1.5549 5.7505 2.9362 12.102-1.0929 17.464-1.8697 2.4884-1.6717 5.2537-1.8743 7.938-0.15321 2.03-2.4402 3.7708-4.2663 5.625-2.6396-0.01272-4.4026-0.95487-6.8809-1.2519 1.8694-1.4715 3.0738-2.196 3.5578-4.0624 0.70497-2.7186 1.0698-5.4678 3.2312-7.7436 5.1266-5.398 1.7772-11.833 4.3442-17.479l-0.4814-0.02403c0.0037-0.00818 0.013751-0.01629 0.017466-0.02444l-0.8597-0.03729c-2.6017 5.7225 0.71481 12.122-4.2569 17.357-2.3071 2.4293-2.6209 5.2135-3.3189 7.9052-0.45376 1.7499-1.5475 2.236-3.4585 3.7535-1.5293-0.22357-2.222-1.2185-3.6424-1.5863-1.4489 0.22373-1.8029-0.84489-3.1007-1.0081z"/>
   </g>
   <path id="path21880" d="m431.43 475.91c-4.4228 32.947 2.5841 30.062-6.6387 55.023 0.5424 2.5925 2.4242 5.6339 6.6451 0.20468 6.5573-19.71 2.6776-31.335 6.2966-55.55 0.3359-1.7961-5.5756-0.23904-6.303 0.32221z" fill-rule="evenodd"/>
  </g>
 </g>
</svg>
