<?xml version="1.0" encoding="UTF-8"?>
<!DOCTYPE svg  PUBLIC '-//W3C//DTD SVG 20010904//EN'  'http://www.w3.org/TR/2001/REC-SVG-20010904/DTD/svg10.dtd'>
<!-- Created with Inkscape (http://www.inkscape.org/) -->
<svg id="svg548" width="400pt" height="400pt" xmlns="http://www.w3.org/2000/svg">
 <g id="g846" fill-rule="evenodd">
  <path id="path671" transform="matrix(1.0041 0 0 1.0147 -1.1119 -7.2235)" d="m271.34 362.64s12.719 37.308 27.133 68.681c14.415 31.374 39.853 46.636 43.245 46.636 3.391 0 6.783-17.806 5.935-27.981s-24.59-30.526 16.111 1.695c40.7 32.221 69.529 45.788 66.985 34.765 4.24-27.134-43.244-83.944-12.718-73.769 30.525 10.175 82.248 33.917 50.027-3.392-32.221-37.308-65.29-54.267-37.308-53.419 27.981 0.848 55.114 13.567 41.548-11.023-13.567-24.59-78.837-62.832-106.82-78.943-22.046 11.023-65.31 39.939-94.14 96.75z" fill="#ff4000" stroke-width="3.75"/>
  <path id="path672" d="m284.05 339.74s9.327 44.94 19.502 58.506c10.175 13.567 12.719 11.871 15.263-6.783s-15.263-37.309 15.262-16.958c30.526 20.35 56.811 45.787 41.549 14.414-15.263-31.373-19.503-39.004 1.695-27.981s41.549 19.502 16.11-11.023c-19.501-22.046 19.502-27.982 26.286-30.525 16.111 2.544-68.681-44.941-77.16-44.941-9.328 1.696-55.116 58.507-58.507 65.291z" fill="#ff3" fill-opacity=".6963" stroke-linejoin="round" stroke-width="12.5"/>
  <path id="path663" transform="translate(-25.438 -29.677)" d="m43.244 60.776c78.857 1.6957 278.12 33.917 354.43 229.79-26.286 5.088-90.727 67.834-100.9 102.6-194.17-99.206-249.29-256.07-253.53-332.38z" fill="#d9d9d9" stroke="#000" stroke-linejoin="round" stroke-width="10"/>
  <path id="path664" transform="translate(-25.438 -29.677)" d="m189.09 321.94s3.391 86.488 3.391 87.336 104.3 48.332 110.23 50.876l-5.087-67.834c-9.327 0.848-92.424-52.571-108.53-70.378z" fill="#bfbfbf" stroke="#000" stroke-linejoin="round" stroke-width="10"/>
  <path id="path665" transform="matrix(-.024575 .9997 .9997 .024575 -13.306 -47.284)" d="m190.76 322.82s1.717 85.599 1.717 86.447 104.3 48.332 110.23 50.876l-5.087-67.834c-32.812-9.908-87.421-49.056-106.86-69.489z" fill="#bfbfbf" stroke="#000" stroke-linejoin="round" stroke-width="10"/>
  <path id="path666" d="m235.32 210.17s14.26 34.123 16.667 39.686c2.9538 3.7483 77.589 64.656 83.068 68.074l-3.1788-21.681c-7.9942-7.6986-76.803-68.016-96.556-86.079z" fill="#bfbfbf" stroke="#000" stroke-linejoin="round" stroke-width="10"/>
  <path id="path667" d="m232.64 209.4-16.768 24.28 20.645 35.734 85.754 67.744 12.388-18.545-81.991-69.24-20.026-39.973z" fill="#bfbfbf" stroke="#000" stroke-linejoin="round" stroke-width="10"/>
  <path id="path668" d="m124.64 131.15c-28.83 39.004 30.524 87.336 58.506 52.571 33.917-42.396-24.589-83.096-58.506-52.571z" fill="#bfbfbf" stroke="#000" stroke-linejoin="round" stroke-width="12.5"/>
  <path id="path669" d="m132.28 135.39c21.198-20.35 70.377 4.24 48.332 40.701-24.59 31.372-74.617-8.479-48.332-40.701z" fill="#aeffff" stroke="#000" stroke-linejoin="round" stroke-width="10"/>
  <path id="path670" d="m148.39 134.5c-6.8609 4.7376-24.901 19.624-10.175 37.352 12.719 3.392 30.525-35.656 10.175-37.352z" fill="#fff" fill-opacity=".75" stroke-linejoin="round" stroke-width="12.5"/>
 </g>
 <rdf:RDF xmlns="http://web.resource.org/cc/" xmlns:dc="http://purl.org/dc/elements/1.1/" xmlns:rdf="http://www.w3.org/1999/02/22-rdf-syntax-ns#">
  <Work rdf:about="">
   <dc:title>Clipart by Nicu Buculei - piggybank</dc:title>
   <dc:rights>
    <Agent>
     <dc:title>Nicu Buculei</dc:title>
    </Agent>
   </dc:rights>
   <dc:type rdf:resource="http://purl.org/dc/dcmitype/StillImage"/>
   <license rdf:resource="http://web.resource.org/cc/PublicDomain"/>
  </Work>
  <License rdf:about="http://web.resource.org/cc/PublicDomain">
   <permits rdf:resource="http://web.resource.org/cc/Reproduction"/>
   <permits rdf:resource="http://web.resource.org/cc/Distribution"/>
   <permits rdf:resource="http://web.resource.org/cc/DerivativeWorks"/>
  </License>
 </rdf:RDF>
</svg>
