<?xml version="1.0" encoding="UTF-8"?>
<!-- Created with Inkscape (http://www.inkscape.org/) -->
<svg id="svg2003" width="159.22" height="300" version="1.0" xmlns="http://www.w3.org/2000/svg" xmlns:cc="http://creativecommons.org/ns#" xmlns:dc="http://purl.org/dc/elements/1.1/" xmlns:rdf="http://www.w3.org/1999/02/22-rdf-syntax-ns#">
 <metadata id="metadata2008">
  <rdf:RDF>
   <cc:Work rdf:about="">
    <dc:format>image/svg+xml</dc:format>
    <dc:type rdf:resource="http://purl.org/dc/dcmitype/StillImage"/>
   </cc:Work>
  </rdf:RDF>
 </metadata>
 <g id="g2382" transform="matrix(.75127 0 0 .75127 -2.6823 -3.9403)">
  <path id="path2018" d="m68.5 403.51c-23.96-3.7471-49.299-13.708-61.332-24.11l-3.5974-3.1097 2.6668-6.8948c10.623-27.466 27.983-90.909 31.848-116.39 3.4013-22.426 3.1471-60.63-0.59906-90-0.24553-1.925-1.9944-15.2-3.8863-29.5-5.2912-39.993-5.8721-48.958-5.4227-83.679 0.44905-34.692 0.44135-34.651 6.9617-37.26 6.2227-2.4898 18.873-5.3533 29.321-6.6371 9.2314-1.1343 39.501-0.78315 49.539 0.57464 11.312 1.53 39.961 4.4712 48.5 4.9792 18.828 1.12 20.108 1.3671 21.363 4.1219 1.8028 3.9567 2.569 40.717 1.2276 58.9-1.3116 17.779-2.7488 29.998-7.1747 61-6.5896 46.158-7.1392 52.767-7.5253 90.5-0.46167 45.12 1.6808 66.654 9.6092 96.579 7.7368 29.202 16.159 45.991 29.451 58.709l6.0491 5.7879-2.5 1.9438c-3.79 2.9468-15.841 7.729-25.693 10.196-7.4534 1.8664-11.65 2.2114-27.307 2.2448-16.638 0.03547-19.255-0.19538-26-2.2941-7.9064-2.46-15.051-6.4633-18.959-10.623l-2.3434-2.4944 3.0907-7.8213c1.6999-4.3017 4.1018-12.525 5.3376-18.275 3.11-14.469 3.1327-45.274 0.05295-71.953-1.1746-10.175-2.8362-25.7-3.6924-34.5-0.85627-8.8-2.2438-20.05-3.0835-25-1.5678-9.2426-8.6362-39.285-10.256-43.59-0.86126-2.2891-0.96001-2.2095-1.972 1.5902-8.9948 33.773-9.3249 36.191-9.8953 72.5-1.0597 67.453 4.7056 106.57 19.456 132 4.9876 8.5996 4.6609 10.519-2.0462 12.025-8.1298 1.8254-30.901 2.093-41.19 0.48399z"/>
  <path id="path2016" d="m103.97 399.93c3.5611-0.57775 6.6327-1.2084 6.8258-1.4015 0.19308-0.19308-1.4693-3.6679-3.6942-7.7218-7.9298-14.449-13.321-35.266-16.783-64.811-1.3298-11.347-1.712-23.632-1.7578-56.5l-0.058593-42 2.8167-12.5c6.43-28.536 17.662-69.783 25.868-95 3.8696-11.89 10.33-25 12.319-25 2.2028 0 1.8275 2.3823-1.3828 8.7785-3.3064 6.5879-13.135 36.045-19.093 57.221-2.2436 7.975-4.3248 15.288-4.6248 16.25-0.34782 1.1158-0.01722 1.75 0.91234 1.75 1.6505 0 3.97 7.8559 9.3007 31.5 3.5484 15.739 4.7775 24.343 8.857 62 6.2042 57.27 5.6584 79.341-2.5623 103.62-1.6051 4.7403-2.9184 9.1221-2.9184 9.7374 0 1.7127 7.752 6.2428 15 8.7657 18.662 6.4958 50.601 4.3682 69.885-4.6554l6.385-2.9878-4.9326-5.2394c-6.8531-7.2794-10.73-13.211-16.419-25.12-6.6172-13.853-12.191-31.259-15.759-49.213-5.1379-25.857-5.661-32.754-5.643-74.406 0.01731-39.907 0.44487-46.289 5.4928-82 5.3886-38.12 7.2142-53.122 8.5186-70 1.4546-18.822 1.71-43.45 0.59122-57l-0.6193-7.5-12.5-0.73401c-6.875-0.40371-22.85-1.9681-35.5-3.4763-19.046-2.2709-27.126-2.7436-47-2.7498-24.605-0.0076969-28.173 0.39194-43.594 4.8824-9.0842 2.6452-8.7288 1.8966-10.006 21.078-1.8782 28.2-0.30383 54.568 6.0901 102 9.5124 70.566 9.3055 99.555-1.0163 142.33-4.4527 18.453-17.241 62.837-22.522 78.17-6.3381 18.4-6.2137 17.181-2.0758 20.337 8.9445 6.8223 27.44 14.983 41.562 18.337 16.868 4.007 37.248 5.3348 50.038 3.2598z" fill="#cce5f8"/>
  <path id="path2012" d="m39.667 72.333c-1.4687-1.4687-0.4179-2.2628 5.0833-3.8418 8.5433-2.4521 17.661-7.9297 24.708-14.844 6.3753-6.2553 14.047-17.12 16.875-23.897 1.5439-3.6999 4.6668-5.1889 4.6668-2.225 0 2.5196-6.5483 14.725-10.742 20.021-9.251 11.684-19.814 19.769-30.577 23.404-6.3538 2.1457-8.8997 2.4973-10.014 1.3829z"/>
 </g>
</svg>
