<?xml version="1.0" encoding="UTF-8"?>
<!-- Created with Inkscape (http://www.inkscape.org/) -->
<svg id="svg2" width="312.45" height="600.03" version="1.0" xmlns="http://www.w3.org/2000/svg" xmlns:cc="http://creativecommons.org/ns#" xmlns:dc="http://purl.org/dc/elements/1.1/" xmlns:rdf="http://www.w3.org/1999/02/22-rdf-syntax-ns#" xmlns:xlink="http://www.w3.org/1999/xlink">
 <defs id="defs4">
  <filter id="filter3489" x="-.17427" y="-.36093" width="1.3485" height="1.7219">
   <feGaussianBlur id="feGaussianBlur3491" stdDeviation="1.784225"/>
  </filter>
  <filter id="filter3669" x="-.18755" y="-.88119" width="1.3751" height="2.7624">
   <feGaussianBlur id="feGaussianBlur3671" stdDeviation="1.4178087"/>
  </filter>
  <clipPath id="clipPath3818">
   <path id="path3820" d="m547.86 5.2193-0.71428 20.714c37.62 22.244 86.662 21.213 137.14 25l0.71429-12.857-137.14-32.857z" fill="none" stroke="#000" stroke-width="1px"/>
  </clipPath>
  <filter id="filter4019">
   <feGaussianBlur id="feGaussianBlur4021" stdDeviation="0.71796772"/>
  </filter>
  <filter id="filter4291" x="-.31981" y="-.050079" width="1.6396" height="1.1002">
   <feGaussianBlur id="feGaussianBlur4293" stdDeviation="1.436794"/>
  </filter>
  <radialGradient id="radialGradient2530" cx="590" cy="170.25" r="110.44" gradientTransform="matrix(2.0312 -.27882 .32284 2.7926 -862.64 -89.898)" gradientUnits="userSpaceOnUse">
   <stop id="stop3327" stop-color="#11117e" offset="0"/>
   <stop id="stop3329" stop-color="#000046" offset="1"/>
  </radialGradient>
  <linearGradient id="linearGradient2532" x1="-2.3326" x2="108.85" y1="593.9" y2="593.9" gradientTransform="matrix(.39141 .1082 -.0049043 .67687 338.49 95.65)" gradientUnits="userSpaceOnUse">
   <stop id="stop3161" stop-color="#0eff00" offset="0"/>
   <stop id="stop3163" stop-color="#faff00" offset="1"/>
  </linearGradient>
  <radialGradient id="radialGradient2535" cx="566.43" cy="235.94" r="9.0714" gradientTransform="matrix(1 0 0 .21284 0 185.72)" gradientUnits="userSpaceOnUse">
   <stop id="stop4241" stop-color="#0b0b6b" offset="0"/>
   <stop id="stop4243" stop-color="#0b0b6b" stop-opacity="0" offset="1"/>
  </radialGradient>
  <radialGradient id="radialGradient2538" cx="566.43" cy="235.94" r="9.0714" gradientTransform="matrix(1 -1.0686e-6 2.0798e-6 3.2279 -.00049071 -525.65)" gradientUnits="userSpaceOnUse">
   <stop id="stop4233" offset="0"/>
   <stop id="stop4235" stop-opacity="0" offset="1"/>
  </radialGradient>
  <radialGradient id="radialGradient2540" cx="673.21" cy="226.37" r="12.286" gradientTransform="matrix(1 0 0 .48285 0 117.06)" gradientUnits="userSpaceOnUse">
   <stop id="stop4225" stop-color="#0b0b6b" offset="0"/>
   <stop id="stop4227" stop-color="#0b0b6b" stop-opacity="0" offset="1"/>
  </radialGradient>
  <radialGradient id="radialGradient2543" cx="673.21" cy="226.37" r="12.286" gradientTransform="matrix(1 1.8311e-8 -4.6103e-8 2.5177 1.0436e-5 -343.56)" gradientUnits="userSpaceOnUse">
   <stop id="stop4217" offset="0"/>
   <stop id="stop4219" stop-opacity="0" offset="1"/>
  </radialGradient>
  <linearGradient id="linearGradient2545" x1="444.24" x2="507.7" y1="266.23" y2="266.23" gradientUnits="userSpaceOnUse">
   <stop id="stop6748" stop-color="#f2b5ff" offset="0"/>
   <stop id="stop6750" stop-color="#5f0074" offset="1"/>
  </linearGradient>
  <linearGradient id="linearGradient2547" x1="524.71" x2="597.12" y1="245.94" y2="245.94" gradientTransform="translate(-84.853 18.183)" gradientUnits="userSpaceOnUse">
   <stop id="stop6756" stop-color="#fff19e" offset="0"/>
   <stop id="stop6758" stop-color="#ffd800" offset="1"/>
  </linearGradient>
 </defs>
 <metadata id="metadata7">
  <rdf:RDF>
   <cc:Work rdf:about="">
    <dc:format>image/svg+xml</dc:format>
    <dc:type rdf:resource="http://purl.org/dc/dcmitype/StillImage"/>
   </cc:Work>
  </rdf:RDF>
 </metadata>
 <g id="layer1" transform="translate(-299.15 -36.617)">
  <g id="g2499">
   <path id="path3226" d="m321.84 626.17c0.2488-71.078-0.41298-151.02-0.43502-215.78-0.02204-64.759 4.5082-79.651 1.4684-112.15-3.0398-32.499-18.108-77.61-21.164-109.9-5.9466-62.835 1.4155-75.095 40.435-150.98 21.338 0.39166 40.566 13.305 63.858 17.95 18.811 3.7516 48.409-0.12211 69.036 7.591 13.992 44.738 21.962 82.481 31.274 125.48 13.418 61.954 7.8851 128.53 39.095 192.8 24.773 62.924 44.128 143.56 65.453 217.76-11.609 21.581-42.93 22.421-61.641 24.656-24.675-40.513-23.773-98.055-37.981-146.17-10.815-41.084-20.868-82.168-46.48-123.25l-67.652-172.03c-4.0958 2.6768-6.6346 86.131-12.164 206.51-2.9665 64.587 9.1096 109.63 10.337 143.16 1.9731 36.313 3.6069 50.78 5.8362 64.129 3.8933 23.311-57.623 56.715-79.277 30.235z" fill="url(#radialGradient2530)" stroke="#000" stroke-linecap="round" stroke-width="1.4764"/>
   <path id="path9909" d="m358.14 524.52 0.54311-5.3614 6.8439 2.4334s0.9653 9.8308 0.9653 9.8308-3.1482 5.2985-3.1482 5.2985l-4.2272-0.01222s-3.8057-3.9453-3.8057-3.9453-2.2597-5.7018-2.2597-5.7018l-0.79758-6.4928s0.57058-5.8706 0.57058-5.8706l1.6891-4.8858s2.4516-3.2816 2.4516-3.2816l2.9809-1.7131 3.3215-0.08935 3.1045 1.2908 2.9306 2.4153 2.6619 3.4303 2.2424 4.2632 1.6958 4.6371 1.2344 5.2653 0.62324 5.0575 0.11715 5.2475-0.34949 4.7778-0.81805 4.7135-1.1734 4.1317s-1.6384 3.8732-1.6384 3.8732l-1.91 3.165s-2.0346 2.5616-2.0346 2.5616l-2.3606 2.2133-2.41 1.5464-2.701 1.0328s-2.6525 0.35829-2.6525 0.35829l-2.8712-0.29154s-2.8795-0.97157-2.8795-0.97157l-2.6744-1.5349-2.7384-2.2412s-2.5945-2.8091-2.5945-2.8091-2.2748-3.1356-2.2748-3.1356-2.0878-3.5176-2.0878-3.5176-1.9911-4.1687-1.9911-4.1687l-1.6182-4.2969-1.3603-4.7358-0.9755-4.6793-0.67914-4.914s-0.35627-4.7052-0.35627-4.7052l-0.08968-4.7846 0.15036-4.5228s0.35471-4.4045 0.35471-4.4045l0.56601-4.4309 0.68936-4.0265 0.87185-4.0842 0.96034-3.7717s1.1403-3.788 1.1403-3.788l1.2571-3.6422 1.3233-3.3419 1.4966-3.3256 1.615-3.1608 1.6686-2.8284s1.5882-2.6193 1.5882-2.6193 1.609-2.665 1.609-2.665l1.5029-2.6002 1.5087-2.7202 1.4698-2.7725 1.4245-2.8317 1.3718-2.8982 1.2514-2.8699s1.2169-3.064 1.2169-3.064l1.0627-2.9959 0.9768-3.2159 0.80327-3.2734 0.58094-3.2216 0.35563-3.2569 0.09222-3.2736s-0.20077-3.2626-0.20077-3.2626l-0.50552-3.2192-0.86259-3.3503-1.0765-3.0132-1.2961-2.9062 0.975-0.63597s-1.8088 0.28145-1.8088 0.28145l-1.4047 0.80164-1.0747 1.411-0.68488 1.8533-0.49734 2.7471-0.23486 3.3842-0.00678 3.6947 0.15584 3.7887s0.27381 3.9044 0.27381 3.9044 0.36927 4.0818 0.36927 4.0818l0.43956 4.056 0.47571 4.0575 0.50718 4.1036 0.54065 4.1811 0.54976 4.1366 0.55817 4.1784 0.55817 4.1785 0.55427 4.2035 0.55385 4.235 0.52559 4.1832 0.52293 4.2662 0.49182 4.1874 0.47549 4.2972 0.44719 4.1914s0.42248 4.2897 0.42248 4.2897 0.38939 4.3463 0.38939 4.3463 0.34504 4.2802 0.34504 4.2802 0.30531 4.2857 0.30531 4.2857 0.26245 4.2898 0.26245 4.2898l0.21641 4.2922s0.16714 4.2927 0.16714 4.2927l0.11465 4.2911 0.05899 4.2869v4.2796l-0.06201 4.269-0.12726 4.2546-0.1955 4.2361-0.26658 4.213s-0.34039 4.1847-0.34039 4.1847l-0.41665 4.1513-0.49514 4.1121-0.57529 4.0669-0.66341 4.0595-0.74092 3.9584-0.82394 3.8945-0.90703 3.8245-0.98951 3.7486s-1.3518 4.1039-1.3518 4.1039l-1.8149 3.6607-2.3259 2.8691-3.1269 1.7337-3.5348-0.31716-3.4385-2.6147-2.7952-4.4591s-1.881-5.4388-1.881-5.4388l-0.95513-5.256s-0.35204-5.2076-0.35204-5.2076l0.10978-4.8358m21.983-51.705s0.27896-4.3304 0.27896-4.3304l5.4969 2.0368s0.78795 8.1679 0.78795 8.1679-2.6918 4.5349-2.6918 4.5349l-3.6868-0.02426-3.3355-3.4556s-2.0262-5.1108-2.0262-5.1108l-0.70981-5.8253s0.52079-5.3279 0.52079-5.3279l1.5344-4.4404s2.2532-3.0152 2.2532-3.0152l2.7452-1.5732 3.046-0.08197 2.8976 1.2007 2.7426 2.2577s2.4882 3.2047 2.4882 3.2047 2.097 3.986 2.097 3.986 1.6023 4.3822 1.6023 4.3822 1.1519 4.9168 1.1519 4.9168l0.59159 4.8061 0.10885 4.938s-0.33489 4.5662-0.33489 4.5662l-0.77471 4.4559-1.1239 3.9546s-1.5482 3.6573-1.5482 3.6573-1.8233 3.022-1.8233 3.022l-1.9682 2.4787-2.2488 2.1111-2.3286 1.4953s-2.5708 0.9845-2.5708 0.9845-2.5619 0.34611-2.5619 0.34611-2.732-0.27906-2.732-0.27906-2.7399-0.9222-2.7399-0.9222l-2.5829-1.4822-2.606-2.1342s-2.471-2.6719-2.471-2.6719-2.199-3.0298-2.199-3.0298l-2.0182-3.4022-1.8905-3.9606s-1.556-4.132-1.556-4.132-1.295-4.5091-1.295-4.5091l-0.94035-4.5116-0.64944-4.7022s-0.34493-4.5586-0.34493-4.5586l-0.08615-4.6079 0.14642-4.4042s0.34648-4.2969 0.34648-4.2969l0.54765-4.2877 0.67942-3.9688 0.84937-3.9782 0.948-3.7226 1.1134-3.6961 1.2273-3.557 1.3071-3.3012s1.4613-3.2469 1.4613-3.2469l1.5749-3.0846 1.6464-2.7909s1.5951-2.6305 1.5951-2.6305 1.6091-2.665 1.6091-2.665 1.5236-2.636 1.5236-2.636l1.5185-2.7379s1.4803-2.7926 1.4803-2.7926l1.436-2.8545 1.3841-2.924 1.2788-2.9323s1.2318-3.1018 1.2318-3.1018l1.0947-3.0877 0.9976-3.2864 0.828-3.3739 0.61066-3.387 0.37592-3.4614 0.09557-3.5144s-0.22087-3.527-0.22087-3.527l-0.55084-3.4857-0.91047-3.5373-1.1516-3.2318-1.3754-3.0836 0.17914-1.2903-1.9569 0.30578-1.6191 0.92597-1.2751 1.6667-0.83674 2.2519-0.54921 3.0478s-0.24786 3.5736-0.24786 3.5736l-0.00785 3.8236 0.15975 3.9011 0.27946 3.987s0.37215 4.114 0.37215 4.114l0.44349 4.0946 0.47988 4.0946 0.51012 4.1266 0.54065 4.1812 0.55132 4.1487 0.55817 4.1784 0.55819 4.1785 0.55336 4.1967 0.55182 4.2194 0.52559 4.1832 0.52014 4.243 0.49179 4.1873 0.4721 4.2666 0.44712 4.1914s0.4197 4.2622 0.4197 4.2622 0.38555 4.303 0.38555 4.303l0.3431 4.2559s0.30355 4.2595 0.30355 4.2595l0.2608 4.2618 0.21493 4.2624 0.16592 4.2611 0.11378 4.2578 0.05845 4.2516-2e-5 4.2426-0.06158 4.2303s-0.12619 4.2142-0.12619 4.2142l-0.19372 4.1941s-0.26408 4.1694-0.26408 4.1694-0.33699 4.1398-0.33699 4.1398l-0.41231 4.105-0.48975 4.0646-0.56893 4.0184-0.65375 3.9979-0.73177 3.9085-0.81359 3.8443-0.89536 3.7743-0.97656 3.6986-1.2827 3.9002s-1.7086 3.4543-1.7086 3.4543l-2.1786 2.6896-2.8508 1.5821-3.2019-0.28233-3.1086-2.3646s-2.533-4.0474-2.533-4.0474l-1.7182-4.9674-0.89658-4.9323s-0.33122-4.916-0.33122-4.916 0.10629-4.6309 0.10629-4.6309m21.987-51.834s0.01482-3.2994 0.01482-3.2994l4.15 1.6401s0.61053 6.5049 0.61053 6.5049-2.2354 3.7712-2.2354 3.7712-3.1464-0.0363-3.1464-0.0363-2.8654-2.966-2.8654-2.966l-1.7926-4.5198-0.62206-5.1578s0.47096-4.7851 0.47096-4.7851l1.3798-3.9952 2.0546-2.7488 2.5094-1.4331s2.7706-0.07476 2.7706-0.07476l2.6907 1.1108 2.5545 2.1002s2.3145 2.9791 2.3145 2.9791l1.9517 3.7089 1.5087 4.1274 1.0694 4.5682 0.55997 4.555 0.1005 4.6285-0.32028 4.3546-0.73142 4.1984s-1.0743 3.7775-1.0743 3.7775l-1.458 3.4415-1.7365 2.8791-1.9017 2.3957-2.1371 2.009-2.2472 1.4442s-2.4406 0.93619-2.4406 0.93619-2.4712 0.33394-2.4712 0.33394-2.593-0.26656-2.593-0.26656-2.6002-0.87286-2.6002-0.87286l-2.4913-1.4295-2.4736-2.0272s-2.3476-2.5348-2.3476-2.5348l-2.1233-2.924-1.9487-3.287-1.7898-3.7525-1.4938-3.9671-1.2297-4.2824-0.90527-4.344-0.6197-4.4904s-0.33365-4.4122-0.33365-4.4122l-0.08255-4.4312s0.14247-4.2855 0.14247-4.2855l0.33819-4.1893 0.52935-4.1443 0.66947-3.9112 0.82694-3.8721 0.93559-3.6735 1.0865-3.6042s1.1973-3.4718 1.1973-3.4718l1.291-3.2604 1.426-3.1681 1.5349-3.0084s1.6241-2.7534 1.6241-2.7534l1.602-2.6418s1.609-2.665 1.609-2.665l1.5444-2.6717s1.5282-2.7557 1.5282-2.7557l1.4909-2.8126 1.4474-2.8772 1.3964-2.9498 1.3061-2.9948 1.2468-3.1396s1.1266-3.1795 1.1266-3.1795l1.0184-3.3568 0.8528-3.4745 0.64033-3.5524 0.3962-3.6659 0.09889-3.7552s-0.24097-3.7915-0.24097-3.7915l-0.5962-3.752-0.95831-3.7242-1.2267-3.4504-1.4546-3.261-0.61675-1.9446s-2.105 0.33013-2.105 0.33013l-1.8333 1.0503-1.4755 1.9224-0.98858 2.6506-0.60112 3.3484-0.26084 3.763-0.00893 3.9526s0.16364 4.0136 0.16364 4.0136 0.2851 4.0694 0.2851 4.0694 0.37501 4.1463 0.37501 4.1463l0.44743 4.133 0.48418 4.1317 0.51292 4.1497 0.54067 4.1811 0.55291 4.1608 0.55817 4.1784 0.55819 4.1785 0.55247 4.1898 0.5498 4.2037 0.52559 4.1832 0.51733 4.2197 0.49177 4.1874 0.46866 4.2358 0.44715 4.1915 0.41685 4.2347 0.38171 4.2597s0.34121 4.2315 0.34121 4.2315l0.30174 4.2334s0.25912 4.2338 0.25912 4.2338 0.21348 4.2327 0.21348 4.2327l0.16473 4.2295 0.11287 4.2243 0.0579 4.2164-5e-5 4.2056-0.06114 4.1916s-0.12508 4.1737-0.12508 4.1737-0.19198 4.1521-0.19198 4.1521-0.26151 4.1258-0.26151 4.1258-0.33361 4.0948-0.33361 4.0948l-0.40798 4.0586-0.48438 4.0172-0.56247 3.97-0.64415 3.9363-0.72266 3.8586-0.80323 3.7941-0.88369 3.7241-0.96358 3.6487-1.2136 3.6967-1.6023 3.2479-2.0314 2.5102-2.5746 1.4306-2.869-0.24758-2.7787-2.1146-2.2708-3.6358s-1.5554-4.4961-1.5554-4.4961l-0.83802-4.6084s-0.31042-4.6245-0.31042-4.6245l0.10274-4.426m21.991-51.963-0.24934-2.2685 2.8031 1.2435 0.43311 4.8419s-1.7789 3.0077-1.7789 3.0077-2.6061-0.04832-2.6061-0.04832-2.3952-2.4764-2.3952-2.4764l-1.5591-3.9288-0.5343-4.4904s0.42111-4.2423 0.42111-4.2423l1.2251-3.5498s1.8562-2.4823 1.8562-2.4823l2.2736-1.2931s2.495-0.06736 2.495-0.06736l2.4838 1.0207 2.3664 1.9426 2.1408 2.7535s1.8064 3.4318 1.8064 3.4318l1.4152 3.8725 0.98686 4.2197 0.52842 4.3037 0.09209 4.319-0.30564 4.143-0.68814 3.9408-1.0247 3.6004s-1.3678 3.2257-1.3678 3.2257l-1.6498 2.7362-1.8352 2.3128-2.0253 1.9067-2.1658 1.3932s-2.3104 0.88793-2.3104 0.88793-2.3804 0.32174-2.3804 0.32174-2.4538-0.25405-2.4538-0.25405-2.4606-0.82355-2.4606-0.82355l-2.3997-1.3768-2.3412-1.9202s-2.2241-2.3976-2.2241-2.3976-2.0475-2.818-2.0475-2.818-1.8791-3.1717-1.8791-3.1717l-1.6892-3.5443-1.4316-3.8022-1.1644-4.0557-0.87017-4.1763-0.59003-4.2787s-0.32233-4.2657-0.32233-4.2657l-0.07894-4.2545 0.13849-4.1669s0.33-4.0816 0.33-4.0816l0.51096-4.0011 0.65954-3.8536 0.80447-3.766 0.92322-3.6245 1.0596-3.5123 1.1675-3.3866 1.2748-3.2196 1.3907-3.0895 1.4948-2.9322s1.6018-2.716 1.6018-2.716l1.609-2.6531 1.609-2.665 1.5651-2.7074 1.5379-2.7734s1.5015-2.8327 1.5015-2.8327 1.4588-2.8999 1.4588-2.8999l1.4088-2.9756 1.3334-3.0574 1.2617-3.1773 1.1585-3.2713 1.0393-3.4272 0.87752-3.5751 0.67008-3.7179 0.41648-3.8703 0.10224-3.9959s-0.2611-4.0559-0.2611-4.0559l-0.64156-4.0185-1.0062-3.9113-1.3018-3.669s-1.5339-3.4385-1.5339-3.4385l-1.4126-2.5989s-2.2532 0.35442-2.2532 0.35442l-2.0476 1.1747s-1.6759 2.1782-1.6759 2.1782l-1.1404 3.0492-0.65306 3.649-0.27377 3.9524-0.00998 4.0814 0.16747 4.126s0.29083 4.1521 0.29083 4.1521l0.37788 4.1784 0.45132 4.1716 0.48838 4.1687 0.51585 4.1727 0.54067 4.1812 0.55448 4.1729 0.55817 4.1784 0.55816 4.1785 0.55159 4.1829 0.5478 4.1881 0.52559 4.1832 0.51452 4.1964 0.49175 4.1873 0.46525 4.2052 0.44715 4.1914s0.41405 4.2073 0.41405 4.2073 0.37781 4.2164 0.37781 4.2164 0.33932 4.2071 0.33932 4.2071 0.29994 4.2072 0.29994 4.2072l0.25749 4.2058 0.212 4.2028 0.16351 4.198 0.11196 4.1909 0.05742 4.1812-1.5e-4 4.1686-0.06064 4.1528s-0.124 4.1334-0.124 4.1334-0.19022 4.1099-0.19022 4.1099l-0.25897 4.0822-0.33024 4.0497-0.40363 4.0123-0.47908 3.9697-0.55604 3.9215-0.63452 3.8747-0.71348 3.8087-0.79288 3.7439-0.87202 3.6739-0.95061 3.5987-1.1445 3.4931s-1.4959 3.0414-1.4959 3.0414-1.8841 2.3306-1.8841 2.3306l-2.2984 1.2791-2.5362-0.21279-2.4488-1.8644-2.0086-3.2243s-1.3926-4.0248-1.3926-4.0248l-0.77945-4.2846s-0.28962-4.333-0.28962-4.333l0.09922-4.221m21.995-52.092-0.51344-1.2377 1.4565 0.84689s0.2558 3.1794 0.2558 3.1794l-1.3226 2.2442s-2.0658-0.06039-2.0658-0.06039l-1.9252-1.9869s-1.3256-3.3379-1.3256-3.3379l-0.44656-3.823 0.37132-3.6996 1.0705-3.1047 1.6577-2.216 2.0379-1.1532s2.2196-0.0601 2.2196-0.0601 2.277 0.93066 2.277 0.93066l2.1784 1.7851s1.9671 2.5279 1.9671 2.5279l1.6612 3.1547 1.3216 3.6177 0.90438 3.8712 0.49677 4.0525 0.08372 4.0095s-0.29098 3.9315-0.29098 3.9315l-0.64481 3.6833-0.97523 3.4234s-1.2776 3.01-1.2776 3.01l-1.563 2.5932-1.7688 2.2298-1.9136 1.8046-2.0844 1.342-2.1802 0.83967-2.2898 0.30955-2.3146-0.24155s-2.321-0.7742-2.321-0.7742l-2.3082-1.3241-2.2088-1.8133-2.1007-2.2605-1.9718-2.7123-1.8095-3.0564-1.5886-3.3364s-1.3694-3.6373-1.3694-3.6373l-1.0992-3.829-0.83503-4.0088-0.56032-4.0669s-0.31102-4.1192-0.31102-4.1192l-0.07535-4.0778 0.13451-4.0482s0.32178-3.974 0.32178-3.974l0.49253-3.8579 0.6497-3.7959 0.78203-3.6598 0.91082-3.5754 1.0327-3.4206 1.1376-3.3014 1.2586-3.179 1.3554-3.0107 1.4548-2.8561 1.5795-2.6785s1.6159-2.6643 1.6159-2.6643 1.6091-2.665 1.6091-2.665l1.5859-2.7432s1.5476-2.7911 1.5476-2.7911l1.512-2.8528s1.4702-2.9226 1.4702-2.9226l1.4211-3.0014 1.3608-3.1198 1.2766-3.215s1.1905-3.363 1.1905-3.363l1.0601-3.4976 0.90227-3.6757 0.69975-3.8833 0.43678-4.0747 0.10557-4.2367s-0.28125-4.3203-0.28125-4.3203l-0.68686-4.2848-1.054-4.0982-1.3768-3.8875s-1.6131-3.6158-1.6131-3.6158-2.2082-3.2531-2.2082-3.2531-2.4012 0.37873-2.4012 0.37873l-2.2618 1.299-1.8763 2.4338-1.2922 3.4477-0.70494 3.9496s-0.2867 4.1418-0.2867 4.1418l-0.01107 4.2104 0.17134 4.2383 0.2965 4.2346s0.38073 4.2106 0.38073 4.2106l0.45523 4.2101 0.49264 4.2058 0.51872 4.1958 0.54067 4.1811 0.55609 4.1849 0.55816 4.1784 0.55819 4.1785 0.55063 4.1761 0.5458 4.1724 0.52561 4.1832 0.51166 4.1732 0.49179 4.1874 0.4618 4.1746 0.44714 4.1914 0.41125 4.1798s0.37394 4.1732 0.37394 4.1732l0.33746 4.1828s0.29813 4.181 0.29813 4.181 0.2558 4.1778 0.2558 4.1778l0.21056 4.173s0.16227 4.1663 0.16227 4.1663l0.11107 4.1574 0.05692 4.146-1.7e-4 4.1316-0.06023 4.114s-0.12293 4.093-0.12293 4.093-0.18842 4.068-0.18842 4.068-0.25645 4.0386-0.25645 4.0386l-0.32684 4.0048-0.39931 3.9661-0.47371 3.9222-0.54961 3.8731-0.62489 3.8131-0.7044 3.7588-0.78247 3.6938-0.86041 3.6237-0.93766 3.5488-1.0753 3.2895-1.3896 2.835-1.737 2.1512-2.0224 1.1276-2.2034-0.17796-2.119-1.6145s-1.7464-2.8128-1.7464-2.8128l-1.2298-3.5535-0.72087-3.961-0.26879-4.0414 0.09565-4.0162m21.999-52.221-0.77758-0.20665 0.10957 0.45024 0.07842 1.5164-0.86626 1.4806-1.5254-0.07241-1.4551-1.4972-1.092-2.7469-0.35887-3.1555 0.32153-3.1569 0.91579-2.6594s1.4592-1.9495 1.4592-1.9495l1.8021-1.0131s1.9441-0.05282 1.9441-0.05282l2.0701 0.84058 1.9904 1.6276s1.7935 2.3023 1.7935 2.3023l1.5158 2.8775 1.2281 3.3628 0.82185 3.5227 0.46512 3.8012 0.0754 3.7s-0.27633 3.7198-0.27633 3.7198l-0.60155 3.4259-0.92566 3.2463s-1.1874 2.7941-1.1874 2.7941l-1.4762 2.4503-1.7023 2.1469-1.8019 1.7024-2.003 1.2909-2.05 0.79138s-2.1991 0.29737-2.1991 0.29737-2.1755-0.22905-2.1755-0.22905-2.1813-0.72484-2.1813-0.72484l-2.2167-1.2714-2.0764-1.7063s-1.9773-2.1233-1.9773-2.1233-1.896-2.6065-1.896-2.6065l-1.74-2.941-1.4879-3.1283-1.3072-3.4725s-1.0339-3.6023-1.0339-3.6023l-0.79994-3.8412-0.53061-3.8552-0.29973-3.9728-0.07178-3.9012 0.13056-3.9295s0.31352-3.8663 0.31352-3.8663l0.47421-3.7147 0.63973-3.7382 0.75959-3.5538 0.89849-3.5262 1.0057-3.3287 1.1077-3.2162 1.2425-3.1382 1.3201-2.932 1.4147-2.7798 1.5572-2.641 1.6229-2.6756s1.609-2.665 1.609-2.665l1.6066-2.7788s1.5573-2.8089 1.5573-2.8089 1.5226-2.8729 1.5226-2.8729l1.4816-2.9454s1.4334-3.0272 1.4334-3.0272l1.388-3.1822s1.2916-3.2529 1.2916-3.2529l1.2224-3.4548 1.081-3.568 0.92703-3.7763 0.72948-4.0487 0.4571-4.2792 0.10889-4.4774s-0.30137-4.5847-0.30137-4.5847l-0.73218-4.5513-1.1019-4.2852-1.452-4.1061s-1.6923-3.7931-1.6923-3.7931l-3.0041-3.9076s-2.5494 0.40306-2.5494 0.40306l-2.4761 1.4234s-2.0767 2.6895-2.0767 2.6895-1.4441 3.8464-1.4441 3.8464l-0.75687 4.2502s-0.2997 4.3312-0.2997 4.3312l-0.01215 4.3394 0.17525 4.3506 0.30216 4.3172s0.38363 4.2428 0.38363 4.2428l0.45917 4.2486 0.49683 4.2428 0.52157 4.2188 0.54067 4.1811 0.55769 4.1971 0.5582 4.1784 0.55816 4.1785 0.54976 4.1693 0.54376 4.1568 0.52559 4.1832 0.50885 4.1499 0.49181 4.1874 0.45837 4.1439 0.44714 4.1914s0.40844 4.1522 0.40844 4.1522l0.37004 4.1299 0.33558 4.1584 0.29635 4.1549s0.25412 4.1498 0.25412 4.1498 0.20907 4.1432 0.20907 4.1432 0.1611 4.1347 0.1611 4.1347l0.11019 4.124 0.0564 4.1108-2.8e-4 4.0946-0.0597 4.0754-0.12187 4.0526s-0.18668 4.0258-0.18668 4.0258l-0.2539 3.995s-0.32344 3.9598-0.32344 3.9598l-0.39498 3.9197-0.46836 3.8747-0.5432 3.8247-0.61522 3.7515-0.69534 3.7089-0.77208 3.6436-0.84869 3.5734-0.92471 3.4989-1.0062 3.0859-1.2833 2.6285-1.5897 1.9718s-1.7462 0.97614-1.7462 0.97614l-1.8705-0.14322-1.7891-1.3644-1.4842-2.4012-1.067-3.0822-0.66234-3.6372-0.248-3.7499 0.0922-3.8112m22.003-52.351-1.0417 0.82443-1.2374 0.05363-0.09898-0.14659s-0.40981 0.71708-0.40981 0.71708l-0.98506-0.08451-0.98493-1.0076-0.8585-2.1559-0.27107-2.488 0.27168-2.6141 0.76115-2.2142 1.2607-1.6831 1.5664-0.87313s1.6687-0.04545 1.6687-0.04545l1.8632 0.75049 1.8023 1.47s1.6198 2.0767 1.6198 2.0767 1.3706 2.6004 1.3706 2.6004l1.1344 3.108 0.73937 3.1742 0.43352 3.55 0.06701 3.3905-0.26169 3.5083-0.55821 3.1683-0.87612 3.0692-1.0972 2.5783-1.3894 2.3073s-1.6358 2.064-1.6358 2.064l-1.6902 1.6001-1.9216 1.2398-1.9198 0.7431s-2.1084 0.28511-2.1084 0.28511l-2.0364-0.21645s-2.0417-0.67556-2.0417-0.67556l-2.1251-1.2186-1.944-1.5994-1.8539-1.9862-1.8203-2.5006s-1.6704-2.8257-1.6704-2.8257l-1.3873-2.9202-1.245-3.3076-0.96865-3.3756-0.7648-3.6735-0.50094-3.6434-0.2884-3.8263-0.06818-3.7245s0.12662-3.8108 0.12662-3.8108 0.30527-3.7586 0.30527-3.7586l0.45586-3.5714 0.62981-3.6806 0.73713-3.4478 0.88608-3.4772 0.97884-3.2368 1.0778-3.131 1.2263-3.0975 1.2849-2.8532 1.3747-2.7036s1.535-2.6035 1.535-2.6035l1.6298-2.6869s1.6091-2.665 1.6091-2.665l1.6274-2.8146 1.567-2.8265 1.5332-2.893 1.493-2.9682 1.4457-3.0529 1.4154-3.2447s1.3065-3.2906 1.3065-3.2906l1.2543-3.5466 1.1018-3.6384 0.95183-3.8769 0.75917-4.2142 0.47736-4.4836 0.11222-4.7183s-0.32146-4.8491-0.32146-4.8491l-0.77754-4.8177-1.1498-4.4722-1.5271-4.3247s-1.7716-3.9706-1.7716-3.9706-3.7999-4.5618-3.7999-4.5618l-2.6975 0.42739-2.6904 1.5477s-2.2771 2.9452-2.2771 2.9452l-1.5959 4.245-0.80872 4.5508s-0.3127 4.5206-0.3127 4.5206l-0.01319 4.4683 0.17909 4.4631 0.30785 4.3997 0.38644 4.275 0.46315 4.2872 0.50107 4.2799 0.52446 4.2418 0.54067 4.1811 0.55928 4.2091 0.55814 4.1784 0.55819 4.1785 0.54883 4.1624 0.54178 4.1412 0.52558 4.1832 0.50603 4.1266 0.49179 4.1874 0.45498 4.1132 0.44712 4.1914s0.40559 4.1248 0.40559 4.1248 0.36623 4.0865 0.36623 4.0865 0.33367 4.1341 0.33367 4.1341 0.29453 4.1287 0.29453 4.1287 0.25249 4.1219 0.25249 4.1219 0.20763 4.1134 0.20763 4.1134l0.15986 4.1031 0.10931 4.0906 0.05583 4.0755s-3e-4 4.0576-3e-4 4.0576l-0.05923 4.0366-0.1208 4.0121-0.18492 3.9838s-0.25138 3.9514-0.25138 3.9514l-0.32002 3.9148-0.39064 3.8734-0.46306 3.8273-0.53672 3.7763-0.60559 3.6899-0.68623 3.659-0.76171 3.5934-0.83707 3.5233-0.91175 3.4489-0.93705 2.8822-1.177 2.4221-1.4424 1.7923-1.4701 0.82459-1.5376-0.10843-1.4592-1.1143-1.222-1.9896-0.90414-2.6108-0.60375-3.3135s-0.22728-3.4584-0.22728-3.4584l0.0887-3.6062m22.008-52.48-1.3059 1.8554s-2.5843-0.34304-2.5843-0.34304l-0.27635-1.8094s0.04655-0.04661 0.04655-0.04661-0.44462-0.09656-0.44462-0.09656-0.51481-0.51789-0.51481-0.51789l-0.62496-1.5648-0.18333-1.8206 0.22187-2.0712 0.60648-1.7689 1.0622-1.4167 1.3306-0.73307 1.3932-0.03823 1.6563 0.66049 1.6143 1.3125 1.4461 1.851 1.2253 2.3232 1.0408 2.8531 0.65684 2.8257 0.40192 3.2987 0.05866 3.081-0.24708 3.2967-0.51494 2.9107-0.82653 2.8922-1.007 2.3625-1.3027 2.1643-1.5693 1.981-1.5784 1.498-1.8401 1.1887-1.7897 0.69481-2.0178 0.27294s-1.8972-0.20397-1.8972-0.20397l-1.902-0.62623-2.0335-1.1659-1.8116-1.4924s-1.7304-1.8491-1.7304-1.8491l-1.7445-2.3947s-1.6007-2.7104-1.6007-2.7104l-1.2866-2.7121-1.1828-3.1425-0.90338-3.1489-0.72975-3.5059-0.47116-3.4316s-0.27707-3.6799-0.27707-3.6799l-0.06464-3.5478 0.12265-3.6921s0.29702-3.651 0.29702-3.651l0.43752-3.4282 0.61988-3.6229 0.71463-3.3417 0.87374-3.4281 0.95191-3.145 1.0479-3.0458 1.2101-3.0568 1.2496-2.7746 1.3346-2.6274 1.5127-2.566 1.6367-2.6981s1.6091-2.665 1.6091-2.665l1.6481-2.8504s1.5767-2.8443 1.5767-2.8443l1.5436-2.9131 1.5045-2.9909s1.458-3.0787 1.458-3.0787 1.4427-3.3072 1.4427-3.3072 1.3214-3.3284 1.3214-3.3284l1.2862-3.6384 1.1226-3.7088 0.97657-3.9775 0.7889-4.3796 0.49759-4.6881 0.11561-4.959s-0.34156-5.1136-0.34156-5.1136l-0.8229-5.0841s-1.1976-4.6592-1.1976-4.6592l-1.6022-4.5433s-1.8508-4.148-1.8508-4.148-4.5958-5.2162-4.5958-5.2162l-2.8456 0.45169-2.9047 1.6721s-2.4775 3.201-2.4775 3.201l-1.7478 4.6436-0.86065 4.8514-0.32566 4.71-0.01423 4.5973s0.18296 4.5755 0.18296 4.5755 0.3135 4.4823 0.3135 4.4823 0.38936 4.3072 0.38936 4.3072l0.46703 4.3257 0.50531 4.3168 0.52731 4.2649 0.54071 4.1811 0.56085 4.2212 0.55816 4.1784 0.55819 4.1785 0.54791 4.1556 0.53976 4.1255 0.52559 4.1832 0.5032 4.1033 0.49182 4.1874 0.45149 4.0826 0.44719 4.1914 0.40277 4.0974s0.36234 4.0433 0.36234 4.0433 0.3318 4.1098 0.3318 4.1098 0.2927 4.1025 0.2927 4.1025 0.25086 4.0939 0.25086 4.0939l0.20611 4.0837 0.15869 4.0714s0.10839 4.0571 0.10839 4.0571l0.05536 4.0402-4.2e-4 4.0206-0.05877 3.9979s-0.11969 3.9716-0.11969 3.9716l-0.18316 3.9418s-0.24884 3.9078-0.24884 3.9078-0.31661 3.8698-0.31661 3.8698l-0.38635 3.8271-0.45765 3.7798-0.53033 3.7278-0.59598 3.6283-0.67708 3.6091-0.75135 3.5432-0.82537 3.4731-0.89878 3.3989-0.86797 2.6787-1.0706 2.2156s-1.2952 1.6129-1.2952 1.6129-1.1939 0.67308-1.1939 0.67308l-1.2047-0.07368-1.1293-0.86426-0.95976-1.578-0.74133-2.1395-0.54517-2.9897s-0.20648-3.1668-0.20648-3.1668l0.08516-3.4013" fill="#00f" fill-rule="evenodd" stroke="url(#linearGradient2532)" stroke-dasharray="2.64268, 2.64268" stroke-width=".33033"/>
   <g id="g3301" transform="matrix(4.9672 0 0 6.0366 -2176.1 55.537)">
    <path id="path11677" d="m550.75 69.167-0.57775 2.8103s1.9829 2.078 1.9829 2.078l-2.846 0.30866s-1.3521 2.5265-1.3521 2.5265l-1.1812-2.6195s-2.8186-0.51655-2.8186-0.51655l2.116-1.9276-0.38987-2.8458 2.4889 1.4282 2.5776-1.2422v0" fill="#f00" stroke="#ff8a00" stroke-linecap="round" stroke-width=".21231"/>
    <path id="path9468" d="m551.15 70.974s-1.4707-0.30863-1.4707-0.30863m1.3891 1.1587-1.0834 1.039m2.2498 0.18338-1.0834 1.039m0.08696 0.82684-0.16635-1.4969m-1.5078 1.6784-0.16635-1.4969m-0.13821 2.4618-1.3237-0.71528m-0.79737 1.5467 1.3679-0.6165m-2.0627-0.92438 1.3679-0.6165m-1.993 0.12641 0.26528-1.481m-1.9233 1.1772 0.26527-1.481m0.02564-0.78529 1.0118 1.1159m-0.15241-1.6458 1.4876-0.20006m-1.717-1.4739 1.4876-0.20006m0.07552-1.2214-0.74262 1.3061m2.2067-0.46604-0.74262 1.3061m1.5448-1.5913 0.65414 1.3574m1.9246-1.2551-1.4707-0.30863m1.3008 1.1352-1.4708-0.30863m1.1309 1.9617-1.4707-0.30863m2.1422 0.94334-1.0834 1.039m1.5072 1.3472-0.16635-1.4969m-1.5078 1.6785-0.16635-1.4969m-0.57758 1.8095s-1.3237-0.71528-1.3237-0.71528m0.52834 2.2015-1.3237-0.71528m-0.74709 0.033128 1.3679-0.6165m-1.5114-0.49211 0.26527-1.481m-1.9233 1.1772 0.26527-1.481m-1.4257-0.37027 1.0118 1.1159m0.23292-2.2498 1.0118 1.1159m-0.88943-1.9158 1.4876-0.20006m-1.717-1.4739 1.4876-0.20006m0.92221 0.035654-0.74261 1.3061m1.5187-0.80584 0.65414 1.3574m0.86211-2.0881 0.65414 1.3574m0.10398-1.7228 0.65414 1.3574m0.06845 1.1287s-1.4707-0.30863-1.4707-0.30863m1.3891 1.1587-1.0834 1.039m2.2498 0.18338-1.0834 1.039m0.08696 0.82684-0.16635-1.4969m-1.5078 1.6784-0.16635-1.4969m-0.13821 2.4618-1.3237-0.71528m-0.79737 1.5467 1.3679-0.6165m-2.0627-0.92438 1.3679-0.6165m-1.993 0.12641 0.26528-1.481m-1.9233 1.1772 0.26527-1.481m0.02564-0.78529 1.0118 1.1159m-0.15241-1.6458 1.4876-0.20006m-1.717-1.4739 1.4876-0.20006m0.07552-1.2214-0.74262 1.3061m2.2067-0.46604-0.74262 1.3061m1.5448-1.5913 0.65414 1.3574" fill="#008000" fill-rule="evenodd" stroke="#1fc600" stroke-dasharray="0.999119, 0.999119" stroke-width=".12489"/>
   </g>
   <g id="g3305" transform="matrix(5.05 0 0 5.8701 -2524.1 -214.51)">
    <path id="path11679" d="m569.42 84.847c-1.0759 0.061215-1.7803-3.1348-1.7803-3.1348s-3.1861 0.69199-3.58-0.31525c-0.39392-1.0072 2.4178-2.6565 2.4178-2.6565s-1.6509-2.8266-0.8185-3.5103c0.83245-0.68372 3.2746 1.493 3.2746 1.493s2.1658-2.4389 3.0741-1.8542c0.9084 0.58467-0.39399 3.5793-0.39399 3.5793s2.9894 1.3192 2.7184 2.3643-3.5181 0.71911-3.5181 0.71911-0.31818 3.2542-1.3941 3.3155v0" fill="#f0f" stroke="#ff8a00" stroke-linecap="round" stroke-width=".21231"/>
    <path id="path5437" d="m567.6 83.985 1.3646-0.62364m-1.9685-1.1261 1.4523-0.37752m-2.1103 0.80466-0.11443-1.5015m-1.8752 1.3692 0.45806-1.4319m-1.0613-1.0963 1.2039 0.90354m0.23479-2.213 0.8679 1.2315m-0.56928-1.4548 1.3407-0.6736m-2.0268-1.0722s1.4513-0.38131 1.4513-0.38131m-0.38142-1.9838 0.21021 1.4912m1.8716-0.80084-0.78059 1.2835m2.2541-0.17783-0.97883 1.1385m1.267-2.3444 0.92846 1.1862m1.0568-2.108-0.03082 1.5049m1.3757 0.72287s-1.487-0.21413-1.487-0.21413m1.0139 2.0259-1.412-0.51698m1.7352 0.70495-0.71503 1.3216m2.3002-0.18419-1.0879 1.0339m0.79046 1.5455-0.62584-1.3703m-1.3345 1.7274-0.06556-1.5043m-0.63895 1.1547-1.4875-0.21024m1.0966 2.0166-1.4298-0.46465m-0.26356 2.2798-0.02013-1.505m-1.2817 0.79002 1.1726-0.93627m-2.0414-0.83755s1.4219-0.47922 1.4219-0.47922m-1.4335-0.082216-0.22885-1.4888m-1.6117 1.6329 0.03537-1.505m-2.1684 0.081682 1.4987-0.08149m-0.31532-1.9208 0.97867 1.145m0.48927-2.2175 0.81144 1.2695m-1.6318-1.8331 1.3886-0.5684m-1.7996-1.4994 1.4839 0.23451m0.93015-1.2046-0.60885 1.3742m2.2143-0.38849-0.89719 1.2043m1.1992-1.2215 1.0348 1.0944m0.44205-2.2554 0.76871 1.2958m1.7447-0.60601-1.4458 0.4012m1.2844 1.6992-1.447-0.40707m0.69945 1.0599-0.65443 1.3529m2.2404-0.45413-0.83537 1.2482m2.2497 0.6063-1.4982 0.089026m-0.45047 1.5665-0.21475-1.4908m-1.6305 1.5564 0.04961-1.5046m0.0059 2.0635-1.4694-0.31472m0.81822 2.175-1.2763-0.79693m-0.00109 1.6587-0.02013-1.505m-1.8086-0.10975 1.3646-0.62364m-1.9685-1.1261 1.4523-0.37752m-2.1103 0.80466-0.11443-1.5015m-1.8752 1.3692 0.45806-1.4319m-1.0613-1.0963 1.2039 0.90354m0.23479-2.213 0.8679 1.2315m-0.56928-1.4548 1.3407-0.6736m-2.0268-1.0722s1.4513-0.38131 1.4513-0.38131m-0.38142-1.9838 0.21021 1.4912m1.8716-0.80084-0.78059 1.2835m2.2541-0.17783-0.97883 1.1385m1.267-2.3444 0.92846 1.1862m1.0568-2.108-0.03082 1.5049m1.3757 0.72287s-1.487-0.21413-1.487-0.21413m1.0139 2.0259-1.412-0.51698m1.7352 0.70495-0.71503 1.3216m2.3002-0.18419-1.0879 1.0339m0.79046 1.5455-0.62584-1.3703m-1.3345 1.7274-0.06556-1.5043m-0.63895 1.1547-1.4875-0.21024m1.0966 2.0166-1.4298-0.46465" fill="#008000" fill-rule="evenodd" stroke="#1fc600" stroke-dasharray="0.999119, 0.999119" stroke-width=".12489"/>
   </g>
   <path id="path3317" transform="matrix(1.76 0 0 1.4892 -649.05 16.662)" d="m557.86 234.51c5.7143 2.8035 11.429 4.7099 17.143 0" fill="url(#radialGradient2535)" fill-rule="evenodd" filter="url(#filter3669)" stroke="url(#radialGradient2538)" stroke-width="1px"/>
   <path id="path3323" d="m397.99 178.39-6.7252 0.9608 29.122-36.449-22.396 35.489z" fill="#080849" fill-rule="evenodd"/>
   <g id="g4341" transform="matrix(-1.1614 -.20666 -.24168 1.2326 1119.1 142.18)" fill="none" stroke-width="1px">
    <path id="path4247" d="m605 41.648c-0.77789 18.02 7.9208 40.194-1e-5 56.429l-6.4286 11.429" filter="url(#filter4291)" stroke="#000"/>
    <path id="path4249" d="m601 41.648c-0.77789 18.02 7.9208 40.194-1e-5 56.429l-6.4286 11.429" stroke="#161562"/>
   </g>
   <path id="path3321" transform="matrix(1.4144 0 0 1.5412 -450.25 4.3956)" d="m599.86 111.08v7.8572l-24.286-31.429 24.286 23.571z" fill="#080849" fill-rule="evenodd" filter="url(#filter4019)"/>
   <g id="g4353" transform="matrix(1.2601 .69994 -.64234 1.3731 -315.13 -376.93)" fill="none" opacity=".46316">
    <path id="path4347" transform="matrix(.7584 0 0 .67842 92.1 37.518)" d="m605 41.648c-0.77789 18.02 7.9208 40.194-1e-5 56.429l-6.4286 11.429" filter="url(#filter4291)" stroke="#000" stroke-width="1px"/>
    <path id="path4349" d="m555.33 65.773c-0.58995 12.225 6.0071 27.269-1e-5 38.282l-4.8754 7.7534" stroke="#161562" stroke-width=".7173px"/>
   </g>
   <g id="g4357" transform="matrix(-1.1095 .53133 .56557 1.0423 1037.6 -254.71)" fill="none">
    <path id="path4359" transform="matrix(.7584 0 0 .67842 92.1 37.518)" d="m605 41.648c-0.77789 18.02 7.9208 40.194-1e-5 56.429l-6.4286 11.429" filter="url(#filter4291)" stroke="#000" stroke-width="1px"/>
    <path id="path4361" d="m555.33 65.773c-0.58995 12.225 6.0071 27.269-1e-5 38.282l-4.8754 7.7534" stroke="#161562" stroke-width=".7173px"/>
   </g>
   <path id="path3814" transform="matrix(1.3849 0 0 1.5417 -431.11 4.376)" d="m551.54 392.32c0.17592-46.119-7.3624-86.866-7.378-128.89-0.01558-42.019 3.1875-51.682 1.0382-72.769s-12.803-50.358-14.964-71.311c-4.2045-40.77 1.0008-48.725 28.59-97.966 15.087 0.25413 28.682 8.6327 45.15 11.647 13.3 2.4343 34.227-0.079231 48.811 4.9255 9.8929 29.029 15.528 53.518 22.112 81.417 9.4871 40.199 5.5751 83.399 27.642 125.1 17.516 40.828 31.2 93.15 46.278 141.29-8.2084 14.003-23.283 10.84-36.512 12.29-17.446-26.287-23.879-59.915-33.925-91.136-7.6466-26.657-14.755-53.315-32.863-79.972l-47.833-111.62c-2.8959 1.7368-4.6909 55.886-8.6001 133.99-2.0974 41.908 6.4409 71.135 7.3088 92.891 1.3951 23.562-2.729 34.765 0.59121 43 3.7917 9.4049-29.953 23.275-45.447 7.1047z" clip-path="url(#clipPath3818)" fill="#111150" stroke="#000" stroke-linecap="round"/>
   <path id="path4375" transform="matrix(1.4441 0 0 1.0512 -142.52 -183.07)" d="m383.57 234.15a3.9286 5.3571 0 1 1-7.8571 0 3.9286 5.3571 0 1 1 7.8571 0z" fill="#483e37" stroke="#161562" stroke-linecap="round"/>
   <rect id="rect4377" transform="matrix(.98868 .15003 -.33165 .9434 0 0)" x="359.46" y="-12.154" width="8.1198" height="22.363" fill="#1f0881" stroke="#161562" stroke-linecap="round" stroke-width="1.1791"/>
   <path id="rect4379" d="m441.98 58.603 9.0966 0.25118 1.409 22.473-8.3822-0.25119-2.1234-22.473z" fill="#1f0881" stroke="#161562" stroke-linecap="round" stroke-width="1.1687"/>
   <g id="g6815" transform="translate(3.24e-6)">
    <path id="path3315" transform="matrix(1.4144 0 0 1.5412 -450.25 4.3956)" d="m661.43 231.65c8.26 0.58344 17.131-0.06248 23.571-10.714" fill="url(#radialGradient2540)" fill-rule="evenodd" filter="url(#filter3489)" stroke="url(#radialGradient2543)" stroke-width="1px"/>
    <path id="path5302" d="m461.45 231.67c-1e-5 -1e-5 0-5e-5 0-5e-5 6e-5 -2e-4 3e-4 -4e-5 3.7e-4 4e-5 9.4e-4 0.00103 1.5e-4 0.00357-3.7e-4 0.00452-0.00377 0.00691-0.01081 6.5e-4 -0.01373-0.00452-0.01452-0.02573 4e-5 -0.06588 0.01373-0.08293 0.05302-0.06606 0.12603 0.00773 0.15677 0.08294 0.0992 0.24272-0.02418 0.54863-0.15677 0.67379-0.37257 0.35172-0.81236-0.13335-0.9855-0.6738-0.4362-1.3616 0.22735-2.8908 0.9855-3.4669 1.7487-1.3288 3.638 0.88803 4.3174 3.4669 1.4568 5.5302-1.1936 11.324-4.3174 13.31-6.3011 4.0068-12.739-3.9002-14.844-13.31-4.03-18.017 4.5542-36.052 14.844-41.677 18.836-10.297 37.371 13.271 42.892 41.677 9.4444 48.594-15.951 98.356-43.804 113.26" fill="none" stroke="url(#linearGradient2545)" stroke-width="2.7"/>
    <path id="path1052" d="m456.25 232.27c14.501 3.0198 13.802-11.524 3.953 0.38035m0.11699-0.19896c13.716-5.6307 15.421 5.3813 0.01137 4.214m0.20942 0.0993c12.692 7.6684 6.5559 16.192-2.4845 3.6608m0.15216 0.16237c2.0187 14.688-11.793 10.545-1.7465-1.199m-0.47132-0.15819c-13.254 6.6524-16.88 0.95073-3.0992-6.0435m-0.249-0.0282c-14.828 0.17689-16.479-4.8336-1.2729-7.5986m-0.26567-0.42026c-14.479-3.2086-14.987-8.419 0.45336-7.7258m-0.16534-0.4689c-13.4-6.3547-12.873-11.434 2.0837-7.5364m-0.06393-0.49307c-11.781-9.0091-10.113-13.872 3.6667-6.8726m0.04278-0.49534c-9.5864-11.316-6.0257-16.06 5.0444-5.2749m-0.02078-0.27042c-5.0634-13.939 1.393-17.323 5.9371-2.5514m0.38586-0.3135c1.4734-14.757 9.4796-14.397 5.9934 0.66061m0.49111-0.07741c8.6829-12.023 14.354-9.1942 5.9478 3.7736m0.48808 0.09451c12.258-8.3451 16.407-4.7393 5.0018 5.6909m0.44851 0.21454c13.967-4.9853 17.04-1.5779 4.1741 6.9861m0.41044 0.2806c14.566-2.7912 17.104 0.78646 3.2362 7.6116m0.37064 0.33141c14.805-0.88067 16.822 2.5982 2.3965 8.1482m0.33933 0.36341c14.824 0.45471 16.401 4.1589 1.522 8.3418m0.30401 0.39341c14.717 1.8327 15.995 5.4993 0.83952 8.5299m0.27298 0.41555c14.533 2.9549 15.51 6.6874 0.17111 8.5831m0.24133 0.43469c14.274 4.027 14.946 7.8009-0.49035 8.584m0.21821 0.25943c13.758 5.5381 14.295 9.3707-1.1382 8.5296m0.16083 0.47046c13.339 6.4828 13.555 10.322-1.7844 8.4256m0.12823 0.48038c12.863 7.3816 12.753 11.205-2.4221 8.2695m0.09527 0.48798c12.332 8.2391 11.885 12.021-3.0545 8.0589m0.06178 0.49334c11.742 9.0604 10.811 13.092-3.633 7.593m0.00998 0.49709c10.732 10.236 9.6634 13.945-4.3441 7.4124m-0.0261 0.49651c9.9616 10.987 8.2553 14.876-4.8988 6.7614m-0.08357 0.49011c8.6184 12.069 6.4693 15.906-5.5216 6.1554m-0.14639 0.47513c6.981 13.084 4.5768 16.378-6.4096 5.508m0.02657 0.27565c4.9476 13.98 1.9104 16.925-7.113 4.3781m9.8863-106.98c-14.01-3.2468-4.3779-8.0078-12.893 4.8802m-0.28958-0.56265c13.139-6.8683 14.335 1.3219-1.0729 0.15478m0.151 0.47271c13.197 6.7625 8.8984 13.209-0.14151 0.67866m-0.264 0.42012c3.3373 14.446-6.172 11.679 3.2516-0.56874m-0.12505 0.21088c-13.254 6.6524-16.169 2.3923-2.389-4.6016m-0.37428-0.32587c-14.791 1.0624-16.215-3.356-1.0093-6.121m-0.26559-0.41927c-14.479-3.2086-15.075-7.296 0.37885-7.16m-0.22061-0.12119c-13.4-6.3548-13.179-10.421 1.9023-7.045m-0.18523-0.17675c-11.781-9.0091-10.589-13.13 3.1897-6.1303m0.04224-0.49451c-9.5864-11.316-6.9387-15.223 4.1308-4.4392m0.18756-0.45949c-5.7821-13.656-0.98561-16.31 4.2774-1.7796m-0.08301-0.21711c1.4734-14.757 7.114-14.761 4.288 0.43325m0.08946-0.21861c8.6829-12.023 13.188-10.008 4.7825 2.9588m0.4873 0.0939c12.258-8.3451 15.557-5.717 4.6236 5.2057m0.18559-0.12649c13.967-4.9853 16.762-2.1431 3.897 6.4204m0.40998 0.27973c14.566-2.7912 16.817 0.13881 3.1691 7.391m0.27289 0.0439c14.805-0.88067 16.746 2.2366 2.3218 7.7863m0.33906 0.36246c14.824 0.45471 16.357 3.779 1.4795 7.9617m0.30384 0.39244c14.717 1.8327 15.986 5.185 0.83107 8.2156m0.27289 0.41456c14.533 2.9549 15.524 6.3828 0.18595 8.2785m0.24131 0.4337c14.274 4.027 14.981 7.5067-0.45428 8.2899m0.20937 0.44999c13.946 5.0472 14.365 8.5558-1.0868 8.2504m0.20862 0.13534c13.339 6.4828 13.636 10.053-1.702 8.1568m0.12844 0.47942c12.863 7.3816 12.851 10.944-2.3223 8.0091m0.09555 0.48704c12.332 8.2391 12.001 11.767-2.9369 7.8052m0.06213 0.49241c11.742 9.0604 11.024 12.72-3.4198 7.221m0.01043 0.49621c10.732 10.236 9.8328 13.7-4.1738 7.1684m-0.02559 0.49565c9.9616 10.987 8.5634 14.511-4.5899 6.3972m-0.08297 0.48933c8.6184 12.069 6.9757 15.301-5.443 6.1028m0.16817 0.16571c6.981 13.084 4.8987 16.142-6.0871 5.2727m-0.1911 0.45802c5.6764 13.701 2.7312 16.413-6.2918 3.8672" fill="none" stroke="url(#linearGradient2547)" stroke-width=".50727"/>
   </g>
  </g>
 </g>
</svg>
