<?xml version="1.0" encoding="UTF-8"?>
<!-- Created with Inkscape (http://www.inkscape.org/) -->
<svg id="svg2" width="116.78" height="55.534" version="1.0" xmlns="http://www.w3.org/2000/svg" xmlns:cc="http://creativecommons.org/ns#" xmlns:dc="http://purl.org/dc/elements/1.1/" xmlns:rdf="http://www.w3.org/1999/02/22-rdf-syntax-ns#">
 <g id="layer1" transform="translate(-5.22 -38.419)">
  <g id="g14511" transform="matrix(2.4911 0 0 2.4911 -297.26 -1393.7)" fill-rule="evenodd">
   <path id="path14497" d="m124.77 575.28c-2.1286 0.09976-2.3833 2.5275-2.1569 4.3731-0.0747 1.9941 0.99008 3.7514 0.8149 5.7177-0.29207 2.102-1.6775 3.7312-1.1889 5.9221 0.72127 1.7893 2.6455 0.64304 4.1486 0.68299 4.0111-0.19916 7.5144-0.92425 11.474-1.5362 1.7389 0.89346 2.2971 3.7089 4.7026 3.4386 2.6514 0.8134 4.517-1.0447 6.3934-2.6724 4.7138 2.5873 10.232 4.2021 15.57 5.2789 1.8883-0.01349 1.7036-1.4783 1.7567-3.0086-0.01405-1.9776 0.03065-3.9711 0.49391-5.9292 0.40329-2.5957 1.5935-4.585 1.1553-7.2219-0.65918-2.4199-3.6921-3.255-5.8359-2.3747-4.1787 0.72444-8.2133 2.0906-12.156 3.625 0.08234-2.838-2.9577-4.5237-5.4929-4.4509-1.5384 0.04018-3.3525 0.38008-4.1162 1.8952-0.51579 1.6527-2.1564 1.8948-3.2365 0.66718-3.9093-1.7663-7.9658-4.125-12.326-4.4067z" fill="#54cb64"/>
   <path id="path14499" d="m137.76 586.97s1.0882 3.4822-0.10882 3.4822c-1.197 0-6.7468 1.3058-7.6173 1.4146s-6.9644 0.97937-7.6173-0.21764c-0.65291-1.197 1.9587-6.8556 5.2233-6.638 3.2646 0.21764 9.4672 1.5235 10.12 1.9587z" fill-opacity=".082353"/>
   <path id="path14501" d="m136.77 588.35s1.7411 2.1764 0.54409 2.1764c-1.197 0-6.7468 1.3058-7.6173 1.4146s-5.8762 0.76173-6.5291-0.43528c-0.65291-1.197 3.0469-5.5498 6.3115-5.3321 3.2646 0.21764 6.6379 1.7411 7.2909 2.1764z" fill-opacity=".082353"/>
   <path id="path14503" d="m141.9 577.39s-0.65291 1.0882-1.4146 2.0676-1.5235 0.97937-1.5235 2.1764-0.87055 2.0676-0.43527 2.8293c4.0263-0.21764 7.2909-4.1351 8.1614-6.7468-0.43528-1.197-3.9175-0.87055-4.788-0.32646z" fill-opacity=".082353"/>
   <path id="path14505" d="m141.91 577.15s-0.65291 1.0882-1.4146 2.0676-1.5235 0.97937-1.5235 2.1764-0.76173 1.197-0.32645 1.9587c4.0263-0.21764 5.6586-3.4822 6.5291-6.0939-0.43528-1.197-2.394-0.65291-3.2646-0.10882z" fill-opacity=".082353"/>
   <path id="path14507" d="m149.19 587.73s-0.87055 2.7205-0.43527 3.1558c0.43527 0.43527 9.1408 5.2233 11.317 4.8968 2.1764-0.32645-6.2027-9.2496-7.5085-9.7937-1.3058-0.54409-3.3734 0.76173-3.3734 1.7411z" fill-opacity=".082353"/>
   <path id="path14509" d="m149.18 587.68s-0.87055 2.7205-0.43527 3.1558c0.43527 0.43527 7.2909 3.9175 9.9025 4.4616 2.1764-0.32645-5.5498-7.8349-6.8556-8.379-1.3058-0.54409-2.6117-0.21764-2.6117 0.76173z" fill-opacity=".082353"/>
   <path id="path14453" d="m125.12 574.91c-2.1286 0.09976-3.0362 2.4186-2.8098 4.2643-0.0747 1.9941 0.99008 3.8602 0.8149 5.8265-0.29207 2.102-2.1128 3.9489-1.6242 6.1397 0.72127 1.7893 2.8631 1.1871 4.3663 1.2271 4.0111-0.19916 7.9497-1.0331 11.909-1.645 1.7389 0.89346 2.1883 3.9266 4.5938 3.6562 2.6514 0.8134 5.0611-1.1535 6.9375-2.7812 4.605 3.0225 10.014 4.5285 15.352 5.6053 1.8883-0.01349 1.8124-2.8929 1.8655-4.4233-0.01405-1.9776 0.35711-3.3182 0.82037-5.2763 0.40329-2.5957 1.267-5.238 0.82886-7.8748-0.65918-2.4199-3.6921-3.255-5.8359-2.3747-4.1787 0.72444-8.2133 2.0906-12.156 3.625 0.08234-2.838-2.9577-4.5237-5.4929-4.4509-1.5384 0.04018-3.3525 0.38008-4.1162 1.8952-0.51579 1.6527-2.1564 1.8948-3.2365 0.66718-3.9093-1.7663-7.857-3.7986-12.217-4.0802zm-0.07757 0.56472c4.5732 0.3799 8.7833 3.0485 12.89 4.904 1.733 0.64798-0.88829 2.9224 0.99989 4.7507-0.38547-1.0786-0.22935-3.9047 0.76561-4.5112 1.2193-0.92091 1.298-2.7059 3.3762-2.9468 2.2518-0.74847 5.2549 0.13055 6.1396 2.4886 0.449 1.5994 1.6218 2.6762 0.71984 5.3225 1.6548-1.2601-0.58477-4.097 1.85-4.1108 4.1699-1.5347 8.2246-3.0473 12.713-3.251 2.1033-0.04174 3.6027 2.121 3.3178 3.8456-0.28002 2.8975-1.9388 5.9073-1.6993 8.8572-0.22122 1.625 0.58477 3.9173-0.85853 5.0379-2.1401 0.80874-3.9475-0.61811-6.0443-0.85875-3.255-1.0788-7.2782-1.9041-10.028-4.0324-0.04767-1.3226 1.7088-2.1815-0.0723-3.6982 0.38332 1.5798-0.40887 2.722-1.4299 4.3567-1.9761 2.601-7.5786 2.6435-8.7622-0.6849-0.43056-0.68168-1.0356-2.6098 0.03931-3.8556-0.74809-0.63524-1.9604-0.81852-3.5529-1.3753-3.088-1.2511-6.5467-1.5568-9.818-0.95918 2.6792 0.37181 9.1612 1.276 11.717 2.8438 0.48836 0.91099 1.0482 2.6142-0.72528 2.352-2.8575 0.55809-4.4556 1.2867-7.3383 1.7041-1.7142-0.01124-5.514 0.29077-6.7383-0.76692-0.26988-2.3975 1.6336-3.8942 1.2075-6.3284 0.05757-2.4757-1.3401-5.538 0.09594-7.8838 0.25784-0.5261 0.66235-1.2153 1.2356-1.1998zm29.028 10.312c-0.94445 0.00625-1.7301-0.10775-2.6677 0.1006 2.9834 1.3457 6.6401 0.30745 9.4627-0.86535 1.5974-0.7782 2.5331-2.5578 3.8498-3.7497-3.048 2.2528-6.8173 4.4178-10.645 4.5144z"/>
  </g>
 </g>
 <metadata id="metadata31">
  <rdf:RDF>
   <cc:Work rdf:about="">
    <dc:title>tie - clothing</dc:title>
    <dc:description/>
    <dc:subject>
     <rdf:Bag>
      <rdf:li>tie</rdf:li>
     </rdf:Bag>
    </dc:subject>
    <dc:publisher>
     <cc:Agent>
      <dc:title/>
     </cc:Agent>
    </dc:publisher>
    <dc:creator>
     <cc:Agent>
      <dc:title>Nicu Buculei</dc:title>
     </cc:Agent>
    </dc:creator>
    <dc:rights>
     <cc:Agent>
      <dc:title>Nicu Buculei</dc:title>
     </cc:Agent>
    </dc:rights>
    <dc:date/>
    <dc:format>image/svg+xml</dc:format>
    <dc:type rdf:resource="http://purl.org/dc/dcmitype/StillImage"/>
    <cc:license rdf:resource="http://web.resource.org/cc/PublicDomain"/>
    <dc:language>en</dc:language>
   </cc:Work>
   <cc:License rdf:about="http://web.resource.org/cc/PublicDomain">
    <cc:permits rdf:resource="http://web.resource.org/cc/Reproduction"/>
    <cc:permits rdf:resource="http://web.resource.org/cc/Distribution"/>
    <cc:permits rdf:resource="http://web.resource.org/cc/DerivativeWorks"/>
   </cc:License>
  </rdf:RDF>
 </metadata>
</svg>
