<?xml version="1.0" encoding="UTF-8"?>
<!-- Created with Inkscape (http://www.inkscape.org/) -->
<svg id="svg6845" width="300" height="265.2" version="1.0" xmlns="http://www.w3.org/2000/svg" xmlns:cc="http://creativecommons.org/ns#" xmlns:dc="http://purl.org/dc/elements/1.1/" xmlns:rdf="http://www.w3.org/1999/02/22-rdf-syntax-ns#">
 <metadata id="metadata3">
  <rdf:RDF>
   <cc:Work rdf:about="">
    <dc:title>hiking boot</dc:title>
    <dc:description>Hiking boot</dc:description>
    <dc:subject>
     <rdf:Bag>
      <rdf:li>holiday</rdf:li>
      <rdf:li>clothing</rdf:li>
     </rdf:Bag>
    </dc:subject>
    <dc:publisher>
     <cc:Agent rdf:about="http://www.openclipart.org/">
      <dc:title>Open Clip Art Library</dc:title>
     </cc:Agent>
    </dc:publisher>
    <dc:creator>
     <cc:Agent>
      <dc:title>Jarno Vasamaa</dc:title>
     </cc:Agent>
    </dc:creator>
    <dc:rights>
     <cc:Agent>
      <dc:title>Jarno Vasamaa</dc:title>
     </cc:Agent>
    </dc:rights>
    <dc:date/>
    <dc:format>image/svg+xml</dc:format>
    <dc:type rdf:resource="http://purl.org/dc/dcmitype/StillImage"/>
    <cc:license rdf:resource="http://web.resource.org/cc/PublicDomain"/>
    <dc:language>en</dc:language>
   </cc:Work>
   <cc:License rdf:about="http://web.resource.org/cc/PublicDomain">
    <cc:permits rdf:resource="http://web.resource.org/cc/Reproduction"/>
    <cc:permits rdf:resource="http://web.resource.org/cc/Distribution"/>
    <cc:permits rdf:resource="http://web.resource.org/cc/DerivativeWorks"/>
   </cc:License>
  </rdf:RDF>
 </metadata>
 <g id="layer1" transform="matrix(.63311 0 0 .63311 -56.014 -145.66)">
  <g id="g19140">
   <path id="path9973" d="m138 284.36c-12 14 42-18 42-18s12-8 40-12 56 2 56 2l-10 68-84 66-44-106z" fill="#573400" fill-rule="evenodd" stroke="#000" stroke-width="1px"/>
   <path id="path9213" d="m380 510.36-98-48s-72-114-72-136-2-38 16-62 60-26 60-26 20 6 6-2 4-4 4-4-2-6 6 4 4 34 8 64 10 70 24 96 92 80 92 80l34 42-80-8z" fill="#753f00" fill-rule="evenodd" stroke="#000" stroke-width="1px"/>
   <path id="path6934" d="m93.852 511.61 2.989-49.16s8.9669-41.711 13.45-53.629c0.41273-11.336 2.6576-16.713 2.6576-16.713s1.9072-13.479 4.8149-17.55l0.50023-25.508c1.1631-4.8355-2.0009-9.8861 1.5758-16.825 0-7.4484-5.065-14.276-5.065-14.276s-7.4724-17.876-2.989-25.325c4.4835-7.4484 19.428-14.897 31.384-14.897 11.956 0 46.329 14.897 73.23 20.856 26.901 5.9588 29.89 13.407 35.868 25.325 5.978 11.917 17.934 65.546 28.395 75.974s11.956 17.876 44.835 50.649 59.78 37.242 59.78 37.242l19.428 8.9381 22.417-11.917s-59.78-16.387-68.747-34.263-43.34-81.933-43.34-81.933-4.4835-26.814-5.978-46.18c-1.4945-19.366 4.4835-29.794 4.4835-29.794s5.978 31.283 7.4725 46.18c0.91295 25.365 6.0531 40.54 25.406 68.526 5.978 2.9794 48.074 33.49 68.997 53.772 22.417 11.917 23.662 20.712 68.496 41.568 34.373 8.9381 51.644 15.152 51.644 15.152s26.15 8.3884 18.597 41.456c-10.461 20.856-26.901 23.835-19.428 23.835l-20.923 10.428-82.197 25.325-95.647-2.9794-80.702-37.242-68.747-19.366-88.175-13.407-4.4835-34.263z" fill="#803a00" fill-rule="evenodd" stroke="#000" stroke-width="1px"/>
   <path id="path7694" d="m99.443 580.16-10.468-55.827 5.2338-26.751s30.821 22.68 36.637 23.843c5.8154 1.1631 43.034 22.68 43.034 22.68s34.311 1.7446 42.452 3.4892c8.1415 1.7446 31.403 5.8154 41.289 11.049s45.941 30.821 52.338 34.311 45.941 17.446 61.061 16.865 76.181 0.58154 81.415-2.3261c5.2338-2.9077 4.6523-8.1415 22.098-15.701 17.446-7.56 40.707-13.375 52.92-20.354 12.212-6.9784 26.169-18.609 28.495-18.609s4.0708-2.3261 5.2338 1.7446 1.1631 25.588-3.4892 40.707c-4.6523 15.12-41.289 25.588-55.246 30.821s-90.72 19.772-92.464 20.935c-0.10904 0.07269-2.0371 0.32711-2.8475 0.38163s-0.24113-2.8332-1.3353-2.7878c-1.0942 0.04544-9.7489 0.44627-11.277 0.47353-1.5281 0.02726-1.3542 2.7322-3.0324 2.7504-1.6782 0.01818-19.945 0.01818-21.778 0-1.8326-0.01817 0.19183-2.2122-1.568-2.2395s-7.1761-0.6977-8.8185-0.73404c-1.6424-0.03635-0.40491 3.6268-1.8853 3.5814s-12.445-1.353-13.172-1.4256-4.1673-0.644-5.1452-0.85186c-0.97793-0.20785-0.22277-2.4906-1.3032-2.7584s-8.3054-3.2185-9.5449-3.5908c-1.2395-0.37226-1.7446 2.936-3.0406 2.5192-1.296-0.41685-14.864-5.3031-16.233-5.8472-1.3686-0.54406 1.2285-2.8871-0.12001-3.4502s-8.1753-3.3058-9.4883-3.8827c-1.313-0.577-1.0717 2.7999-2.3339 2.2141-1.2622-0.5858-9.3452-4.706-10.363-5.2875-3.4892-13.957-4.0707-16.283-4.0707-16.283s-38.963-28.495-43.034-27.332-17.446 5.2338-17.446 5.2338l-9.8861-0.58153v6.9784l-11.631 15.12s-0.22489-0.04316-0.64897-0.12466c-0.42409-0.08149-1.0474-0.20132-1.8441-0.35465-0.79677-0.15334-1.767-0.34018-2.8851-0.5557-1.1181-0.21552-2.3839-0.45972-3.7719-0.72777s-2.898-0.55995-4.5045-0.87088c-1.6065-0.31093-3.3093-0.64088-5.0829-0.98503s-3.6178-0.7025-5.5071-1.0702c-1.8893-0.36772-0.34557-3.6794-2.2992-4.061-1.9536-0.38164-9.4696-2.1808-11.436-2.5666-1.9665-0.38589 0.52954 3.6847-1.3985 3.3042s-6.2151-0.86457-8.0533-1.23-3.6186-0.72095-5.3154-1.0617c-1.6969-0.34074-3.3103-0.66672-4.8146-0.9731-1.5042-0.30639 0.36132-3.2017-0.89886-3.464-1.2602-0.26237-6.733-1.2611-7.6977-1.4698-0.96473-0.20871-0.68201 2.9811-1.2999 2.8358-2.4715-0.58154-5.8154-1.8536-9.4409-3.4347s-1.8636-0.73421-5.4618-2.5515c-0.89956-0.45432 0.22393-2.2603-0.26124-2.388-0.48518-0.12771-3.0404-1.2882-3.3745-1.35-0.33411-0.06183-1.1344 2.5317-1.7318 2.2092-2.3898-1.2903-13.459-8.1864-13.459-8.1864z" fill-rule="evenodd" stroke="#000" stroke-width="1px"/>
   <g id="g15332" fill="none" stroke="#000">
    <g id="g14566" transform="translate(-2)">
     <path id="path13804" d="m391.95 522.68c-1.4652-5.861 33.701-48.353 31.503-58.61-2.1979-10.257-83.519 20.513-90.845 12.455-7.3262-8.0588 2.1979-24.176 8.0588-32.968 5.861-8.7914 21.246-15.385 19.781-24.176-1.4652-8.7914-7.3262-9.5241-12.455-10.257s-70.332 21.246-70.332 21.246-35.166 14.652-38.096 0.73262c-2.9305-13.92 11.722-23.444 11.722-23.444s62.273-19.048 67.401-27.107c5.1283-8.0588 7.3262-16.118 7.3262-16.118" stroke-width="8.1"/>
     <path id="path13806" d="m394.15 521.95c56.412-33.701 57.877-35.166 57.877-35.166s4.3957-10.989-2.9305-10.989c-7.3262 0-80.588 27.107-85.717 26.374s-8.0588 0-5.1283-5.861 36.631-54.947 30.037-58.61c-6.5936-3.6631-28.572-7.3262-56.412 2.9305-27.84 10.257-45.422 30.77-37.364 13.92s38.829-57.877 38.829-57.877-94.508-0.73261-97.439-7.3262c-2.9305-6.5936 72.529-54.947 71.797-71.797" stroke-width="8.7"/>
    </g>
    <path id="path14570" d="m321.62 360.77c-1.4652-2.9305-88.647-8.0588-88.647-21.246s69.599-32.968 69.599-32.968" stroke-width="8.1"/>
   </g>
   <g id="g13789" fill="#b3b3b3" fill-rule="evenodd" stroke="#505050" stroke-opacity=".4973" stroke-width="1.7">
    <path id="path13009" d="m400.01 521.95c0 5.26-3.6081 9.5241-8.0588 9.5241-4.4508 0-8.0588-4.2641-8.0588-9.5241s3.6081-9.5241 8.0588-9.5241c4.4508 0 8.0588 4.2641 8.0588 9.5241z"/>
    <path id="path13011" d="m369.97 501.43c0 5.26-3.4441 9.5241-7.6925 9.5241-4.2485 0-7.6925-4.2641-7.6925-9.5241s3.4441-9.5241 7.6925-9.5241c4.2484 0 7.6925 4.2641 7.6925 9.5241z"/>
    <path id="path13013" d="m336.27 476.89c0 5.0577-3.7721 9.1578-8.4251 9.1578-4.6531 0-8.4251-4.1001-8.4251-9.1578s3.7721-9.1578 8.4251-9.1578c4.6531 0 8.4251 4.1001 8.4251 9.1578z"/>
    <path id="path13015" d="m301.84 453.81c0 4.8554-3.28 8.7914-7.3262 8.7914-4.0462 0-7.3262-3.9361-7.3262-8.7914s3.28-8.7914 7.3262-8.7914c4.0462 0 7.3262 3.9361 7.3262 8.7914z"/>
    <path id="path13017" d="m249.82 430.73c0 8.6992-3.7721 15.751-8.4251 15.751-4.6531 0-8.4251-7.0521-8.4251-15.751s3.7721-15.751 8.4251-15.751c4.6531 0 8.4251 7.0521 8.4251 15.751z"/>
    <path id="path13019" d="m246.16 387.51c0.00406 4.6562-3.4412 8.4332-7.6925 8.4332s-7.6966-3.777-7.6925-8.4332c-0.00406-4.6562 3.4412-8.4332 7.6925-8.4332s7.6966 3.777 7.6925 8.4332z"/>
    <path id="path13021" d="m241.76 335.49c0 4.2485-3.28 7.6925-7.3262 7.6925-4.0462 0-7.3262-3.4441-7.3262-7.6925s3.28-7.6925 7.3262-7.6925c4.0462 0 7.3262 3.4441 7.3262 7.6925z"/>
    <path id="path13023" d="m452.76 479.09c0.00263 2.6317-2.2942 4.7664-5.1283 4.7664s-5.131-2.1347-5.1283-4.7664c-0.00263-2.6317 2.2942-4.7664 5.1283-4.7664s5.131 2.1347 5.1283 4.7664z"/>
    <path id="path13025" d="m419.79 457.47c0 2.4277-1.804 4.3957-4.0294 4.3957-2.2254 0-4.0294-1.968-4.0294-4.3957s1.804-4.3957 4.0294-4.3957c2.2254 0 4.0294 1.968 4.0294 4.3957z"/>
    <path id="path13027" d="m389.75 436.59c0 2.2254-1.968 4.0294-4.3957 4.0294-2.4277 0-4.3957-1.804-4.3957-4.0294s1.968-4.0294 4.3957-4.0294c2.4277 0 4.3957 1.804 4.3957 4.0294z"/>
    <path id="path13029" d="m360.45 410.59c0.00195 2.0244-1.6386 3.6666-3.6631 3.6666s-3.665-1.6422-3.6631-3.6666c-0.00195-2.0244 1.6386-3.6666 3.6631-3.6666s3.665 1.6422 3.6631 3.6666z"/>
   </g>
   <path id="path15338" d="m308.43 305.82s-19.048-2.1979-26.374-0.73262c-7.3262 1.4652-19.781 13.187-19.781 19.048 0 5.861 1.4652 13.92 5.1284 16.118s16.85 1.4652 19.048-4.3957c2.1979-5.861 15.385-13.92 19.048-20.513 3.6631-6.5936 16.118-19.048 22.711-24.176 6.5936-5.1283 15.385-8.7914 19.781-2.9305s15.385 6.5936 13.92 16.85c-1.4652 10.257 5.1283 16.118-5.1283 15.385-10.257-0.73262-8.0588-5.1283-17.583-8.7914-9.5241-3.6631-19.781-3.6631-25.642-5.1283-5.861-1.4652-12.455 2.9305-5.1283-0.73262z" fill="none" stroke="#000" stroke-width="8.1"/>
   <path id="path15340" d="m318.69 302.89c-0.73262 2.9305-7.3262-5.861-7.3262-5.861l8.7914-13.92 13.92-5.861 5.1283-2.1979" fill="none" stroke="#000" stroke-width="8.1"/>
   <path id="path17622" d="m303.3 307.29 18.316 16.118 1.4652 18.316" fill="none" stroke="#000" stroke-width="8.1"/>
  </g>
 </g>
</svg>
