<?xml version="1.0" encoding="UTF-8"?>
<!-- Created with Inkscape (http://www.inkscape.org/) -->
<svg id="svg2" width="300" height="197.68" version="1.0" xmlns="http://www.w3.org/2000/svg" xmlns:cc="http://creativecommons.org/ns#" xmlns:dc="http://purl.org/dc/elements/1.1/" xmlns:rdf="http://www.w3.org/1999/02/22-rdf-syntax-ns#" xmlns:xlink="http://www.w3.org/1999/xlink">
 <defs id="defs4">
  <linearGradient id="linearGradient10105">
   <stop id="stop10107" stop-color="#d67c88" offset="0"/>
   <stop id="stop10109" stop-color="#a81c37" offset="1"/>
  </linearGradient>
  <radialGradient id="radialGradient2411" cx="516.14" cy="172.72" r="188.42" gradientTransform="matrix(-.41949 .23585 -.088921 -.15816 586.65 216.41)" gradientUnits="userSpaceOnUse">
   <stop id="stop11098" stop-color="#292d2c" offset="0"/>
   <stop id="stop11100" stop-color="#972a3f" offset="1"/>
  </radialGradient>
  <radialGradient id="radialGradient2413" cx="246.5" cy="432.24" r="280.91" gradientTransform="matrix(.007528 .20144 -.33984 .0127 391.53 316.19)" gradientUnits="userSpaceOnUse" xlink:href="#linearGradient10105"/>
  <radialGradient id="radialGradient2415" cx="562.42" cy="171.52" r="121.25" gradientTransform="matrix(-.96907 .64884 -.24205 -.3615 1149 -131.58)" gradientUnits="userSpaceOnUse" xlink:href="#linearGradient10105"/>
 </defs>
 <metadata id="metadata7">
  <rdf:RDF>
   <cc:Work rdf:about="">
    <dc:format>image/svg+xml</dc:format>
    <dc:type rdf:resource="http://purl.org/dc/dcmitype/StillImage"/>
   </cc:Work>
  </rdf:RDF>
 </metadata>
 <g id="layer2" transform="translate(-85.01 -252.28)" opacity="0" stroke="#000">
  <rect id="rect2237" x="38.217" y="21.656" width="665.61" height="449.04" fill="#d38d5f" opacity="1" stroke-linejoin="round"/>
  <path id="path2240" d="m639.49 223.57c-39.244 25.718-88.551 38.315-131.85 64.331-28.178 20.683-53.509 45.408-80.892 80.892-23.045 25.722-37.976 54.574-87.261 71.338-37.056 4.3455-84.332-1.5296-133.12-8.9172-37.37-9.7689-67.21-12.008-118.47-35.669-7.8064-21.913 4.7137-30.758 20.382-37.58 22.484-10.516 39.052-13.146 56.688-17.197 58.935-14.323 52.704-17.009 68.153-23.567-18.485 13.279 5.5822 18.042 18.471 20.382 47.695 7.2536 61.197-3.5953 81.529-10.828 31.73-12.866 61.625-47.756 91.72-80.255 19.396-23.267 43.252-47.65 69.427-72.611 32.802-31.874 69.322-62.818 108.92-92.994 13.722 16.977 25.526 36.352 32.484 61.783 7.1042 26.964 17.855 53.928 3.8217 80.892z" fill="none" stroke-width="1px"/>
 </g>
 <g id="layer3" transform="translate(-85.01 -252.28)">
  <g id="g2403" transform="matrix(.53397 0 0 .53397 39.617 209.7)" fill-rule="evenodd">
   <path id="path2244" d="m602.55 80.255-136.31 104.46c-21.58 21.724-56.821 50.279-98.726 82.166-39.115 40.188-86.46 48.826-135.67 50.318-19.329 18.036 19.803 19.629 52.866 22.93 51.698-6.1318 90.954-34.036 122.29-75.796 27.572-30.24 56.76-61.289 91.083-94.904 39.244-35.623 69.779-59.635 104.46-89.172z" fill="url(#radialGradient2411)" stroke="#000" stroke-width="1px"/>
   <path id="path3220" d="m639.49 222.93c-7.2835 15.222-15.224 29.787-24.204 43.312-12.121 14.486-18.817 30.328-24.204 46.497-8.1487 20.938-15.731 42.443-17.197 70.064l-2.5478 42.038h-17.197c-2.0742-28.393-2.4812-47.617-7.6433-92.994-3.1349-20.311-3.0282-44.42-36.943-43.949 24.516-14.358 46.183-24.918 65.605-32.484 23.446-10.327 47.457-20.514 64.331-32.484z" fill="#972a3f" stroke="#000" stroke-width="1px"/>
   <path id="path5161" d="m87.261 394.9c-2.2614 7.2648 7.198 10.623 14.65 14.65 38.971 17.362 75.274 21.381 112.74 31.21 48.818 9.0057 81.734 9.3381 112.1 8.2803 27.01-1.5918 58.95-24.119 70.701-37.58 25.022-26.449 37.589-46.049 53.503-64.331 25.64-31.18 44.878-44.787 61.146-54.14 11.568-3.9228 17.53 1.498 24.204 5.7325-5.3057-6.541-12.384-11.664-26.115-11.465-20.257 12.817-39.4 30.086-57.962 49.682-21.458 25.675-41.981 52.287-64.968 76.433-17.786 15.926-38.086 27.327-64.331 28.025-19.115 1.589-44.37 0.10809-77.07-5.0955-29.724-0.64089-59.448-9.512-89.172-16.561-23.142-5.1974-46.284-12.861-69.427-24.841z" fill="#292d2c" stroke="#000" stroke-width="1px"/>
   <path id="path5163" d="m554.14 424.2v14.013l18.471-1e-5 -0.63694-14.65-17.834 0.63694z" fill="#292d2c" stroke="#000" stroke-width="1px"/>
   <path id="path2242" d="m639.49 223.57c-39.244 25.718-88.551 38.315-131.85 64.331-28.178 20.683-53.509 45.408-80.892 80.892-23.045 25.722-37.976 54.574-87.261 71.338-37.056 4.3455-84.332-1.5296-133.12-8.9172-37.37-9.7689-67.21-12.008-118.47-35.669-7.8064-21.913 4.7137-30.758 20.382-37.58 22.484-10.516 39.052-13.146 56.688-17.197 58.935-14.323 52.704-17.009 68.153-23.567-18.485 13.279 5.5822 18.042 18.471 20.382 47.695 7.2536 61.197-3.5953 81.529-10.828 31.73-12.866 61.625-47.756 91.72-80.255 19.396-23.267 43.252-47.65 69.427-72.611 32.802-31.874 69.322-62.818 108.92-92.994 13.722 16.977 25.526 36.352 32.484 61.783 7.1042 26.964 17.855 53.928 3.8217 80.892z" fill="url(#radialGradient2413)" stroke="#000" stroke-width="1px"/>
   <path id="path10113" d="m606.37 84.076c-0.63457 21.02-0.342 42.271 5.7325 64.968-2.3182 19.96 3.5676 41.288-37.58 54.777-28.802 5.713-58.265 10.323-82.166 24.204-39.618 26.996-51.769 47.125-64.968 67.516-38.832 36.854-43.735 33.607-56.688 29.299-1.9779-8.0996-3.3259-16.567 14.65-36.306l81.529-87.898c32.83-33.691 67.419-66.503 107.01-96.815 10.888-6.9984 23.11-23.338 32.484-19.745z" fill="url(#radialGradient2415)" stroke-width="0pt"/>
  </g>
 </g>
</svg>
