<?xml version="1.0" encoding="UTF-8"?>
<!DOCTYPE svg  PUBLIC '-//W3C//DTD SVG 20010904//EN'  'http://www.w3.org/TR/2001/REC-SVG-20010904/DTD/svg10.dtd'>
<!-- Created with Inkscape (http://www.inkscape.org/) -->
<svg id="svg1" width="160pt" height="160pt" xmlns="http://www.w3.org/2000/svg" xmlns:cc="http://web.resource.org/cc/" xmlns:dc="http://purl.org/dc/elements/1.1/" xmlns:rdf="http://www.w3.org/1999/02/22-rdf-syntax-ns#" xmlns:xlink="http://www.w3.org/1999/xlink">
 <metadata>
  <rdf:RDF xmlns:cc="http://web.resource.org/cc/" xmlns:dc="http://purl.org/dc/elements/1.1/" xmlns:rdf="http://www.w3.org/1999/02/22-rdf-syntax-ns#">
   <cc:Work rdf:about="">
    <dc:title>Sunglasses</dc:title>
    <dc:description/>
    <dc:subject>
     <rdf:Bag>
      <rdf:li/>
      <rdf:li>people</rdf:li>
      <rdf:li>clothing</rdf:li>
     </rdf:Bag>
    </dc:subject>
    <dc:publisher>
     <cc:Agent rdf:about="http://www.openclipart.org">
      <dc:title>Nicu Buculei</dc:title>
     </cc:Agent>
    </dc:publisher>
    <dc:creator>
     <cc:Agent>
      <dc:title>Nicu Buculei</dc:title>
     </cc:Agent>
    </dc:creator>
    <dc:rights>
     <cc:Agent>
      <dc:title>Nicu Buculei</dc:title>
     </cc:Agent>
    </dc:rights>
    <dc:date/>
    <dc:format>image/svg+xml</dc:format>
    <dc:type rdf:resource="http://purl.org/dc/dcmitype/StillImage"/>
    <cc:license rdf:resource="http://web.resource.org/cc/PublicDomain"/>
    <dc:language>en</dc:language>
   </cc:Work>
   <cc:License rdf:about="http://web.resource.org/cc/PublicDomain">
    <cc:permits rdf:resource="http://web.resource.org/cc/Reproduction"/>
    <cc:permits rdf:resource="http://web.resource.org/cc/Distribution"/>
    <cc:permits rdf:resource="http://web.resource.org/cc/DerivativeWorks"/>
   </cc:License>
  </rdf:RDF>
 </metadata>
 <defs id="defs3">
  <linearGradient id="linearGradient861">
   <stop id="stop862" stop-color="#fff" stop-opacity="0" offset="0"/>
   <stop id="stop925" stop-color="#fff" stop-opacity=".15" offset=".5"/>
   <stop id="stop863" stop-color="#fff" stop-opacity="0" offset="1"/>
  </linearGradient>
  <linearGradient id="linearGradient1205" x1="-1.4219" x2=".73438" y1=".88281" y2="-.078125" xlink:href="#linearGradient861"/>
  <linearGradient id="linearGradient1207" x1="-1.0469" x2=".76562" y1=".90625" y2=".0625" xlink:href="#linearGradient861"/>
  <radialGradient id="radialGradient1238" cx=".46875" cy=".53906" r=".46331">
   <stop id="stop1240" stop-color="#fff" offset="0"/>
   <stop id="stop1242" stop-color="#fff" stop-opacity="0" offset="1"/>
  </radialGradient>
 </defs>
 <path id="path1237" d="m1170 146.18c0 73.183-60.668 132.58-135.42 132.58-74.752 0-135.42-59.395-135.42-132.58 0-73.183 60.668-132.58 135.42-132.58 74.752 0 135.42 59.395 135.42 132.58z" fill="url(#radialGradient1238)" fill-rule="evenodd"/>
 <g id="g890" fill-rule="evenodd">
  <path id="path888" d="m178.63 119.3s-29.032-47.904-34.716-49.325c-0.94733-1e-6 -2.7584-0.38503-3.2321 1.5096 0 5.2103 33.211 52.078 36.527 54.446 2.842-0.47367 1.8946-3.3156 1.421-6.6313z" fill="#0c0c0c" stroke="#000" stroke-width="1pt"/>
  <path id="path889" d="m146.19 71.528s-5.3183-10.523-12.869-13.941c-9.041-4.6292-17.332-2.7415-23.258 1.4143-2.4039 2.6896-8.5544 6.118-5.5709 10.62 1.2312 1.8293 3.2426 2.5585 5.5439 1.6596 2.7018-2.0897 8.1851-16.374 20.985-7.7289 5.8322 3.4609 6.3763 6.5178 9.3256 9.009-0.45301 1.3468 4.3547-4.0324 5.8444-1.0326z" stroke="#000" stroke-width="1pt"/>
  <path id="path869" d="m23.209 120.18s29.032-47.904 34.716-49.325c0.94732-1e-6 2.7584-0.38503 3.2321 1.5096 0 5.2103-33.211 52.078-36.527 54.446-2.842-0.47367-1.8946-3.3156-1.421-6.6313z" fill="#0c0c0c" stroke="#000" stroke-width="1pt"/>
  <path id="path870" d="m55.65 72.408s5.3183-10.523 12.869-13.941c9.041-4.6292 17.332-2.7415 23.259 1.4143 2.4039 2.6896 8.5544 6.118 5.5709 10.62-1.2312 1.8293-3.2427 2.5585-5.5439 1.6596-2.7018-2.0897-8.1851-16.374-20.985-7.7289-5.8322 3.4609-6.3763 6.5178-9.3256 9.009 0.45301 1.3468-4.3547-4.0324-5.8444-1.0326z" stroke="#000" stroke-width="1pt"/>
  <g id="g1208" transform="translate(165.61 -33.137)" style="">
   <g id="g1194" transform="translate(-285 13.75)">
    <path id="path1193" d="m220.16 134.09c-1.9696-0.01912-3.9591 0.19648-5.7812 0.84375s-3.6597 1.803-4.5 3.8438l2.9927 2.1783c0.11185-0.27165 2.1377-0.97014 3.1635-1.3346s2.5295-0.54613 4.0625-0.53125 3.1103 0.22251 4.3125 0.5625 1.9784 0.97307 1.875 0.84375l3.9062-3.125c-1.1916-1.4896-2.6925-2.0466-4.4062-2.5312s-3.6554-0.73088-5.625-0.75z" fill="#0c0c0c" stroke="#000" stroke-linejoin="round" stroke-width="1.25"/>
    <g id="g1184" transform="translate(195.6 16.323)">
     <path id="path1182" d="m-39.401 111.64c13.36-7.2394 29.48-6.7569 44.3-5.4919 11.354 0.79941 12.347 8.7797 11.352 19.142-0.05002 7.0804-2.7894 15.037-9.9693 17.759-10.29 3.376-21.478 3.1586-32.153 2.1299-9.37-1.1319-16.602-8.8248-18.395-17.268-0.6927-5.095-1.6363-12.426 4.8646-16.271z" fill-opacity=".8"/>
     <path id="path1181" d="m-45.443 122.33c0-4.9026-5.5179-0.33681-7.6943 1.2456-1.0882 0.96622-1.6408 5.1685-0.55264 6.3169 0.93219 1.6323 5.4378 0.27205 7.4222 0.27205 2.0157-2.0157 0.5885-4.7823 0.82469-7.8346z" fill="#0c0c0c" stroke="#000" stroke-width="1pt"/>
     <path id="path1183" d="m-7.0372 103.74c-11.627-0.34728-23.644 0.75284-34.25 6.5-0.020978 0.01012-0.041814 0.02054-0.0625 0.03125-3.8953 2.3038-5.7703 5.9542-6.3438 9.4062s-0.06625 6.819 0.28125 9.375c0.008754 0.0524 0.019176 0.10451 0.03125 0.15625 2.0125 9.4772 9.9743 17.975 20.531 19.25 0.020832 2.6e-4 0.041667 2.6e-4 0.0625 0 10.807 1.0414 22.326 1.3032 33.156-2.25 0.041928-0.00935 0.083609-0.01977 0.125-0.03125 4.2465-1.6095 7.1972-4.8208 9-8.4688 1.7691-3.5798 2.4783-7.5824 2.5312-11.375h0.03125c0.00729-0.07591-0.00713-0.14299 0-0.21875 0.4925-5.2343 0.61829-10.114-1.25-14.219-1.8953-4.1641-6.1528-6.9972-12.406-7.4375-3.7299-0.31837-7.5617-0.60299-11.438-0.71875zm-0.09375 5c3.7289 0.10398 7.4448 0.37337 11.125 0.6875 0.020832 2.6e-4 0.041668 2.6e-4 0.0625 0 5.1009 0.35913 6.9966 1.9148 8.1875 4.5312s1.3279 6.8333 0.84375 11.875c-0.013636 0.07242-0.024062 0.1454-0.03125 0.21875-0.02278 3.2244-0.65693 6.6566-2.0312 9.4375-1.3702 2.7726-3.3622 4.8855-6.2813 6-0.00871 0.00332-0.02253-0.00331-0.03125 0-9.7253 3.167-20.523 3.0126-31.031 2-8.1688-0.98681-14.569-7.8876-16.156-15.281-0.00279-0.01298-0.02849-0.01827-0.03125-0.03125-0.33625-2.4936-0.6471-5.2659-0.25-7.6562 0.40207-2.4203 1.3378-4.3428 3.875-5.875 9.4336-5.1119 20.563-6.2182 31.75-5.9062z" fill="#0c0c0c" stroke="#000" stroke-linejoin="round" stroke-width="1.25"/>
    </g>
    <g id="g1188" transform="matrix(-1 0 0 1 244.57 14.692)">
     <path id="path1189" d="m-39.401 111.64c13.36-7.2394 29.48-6.7569 44.3-5.4919 11.354 0.79941 12.347 8.7797 11.352 19.142-0.05002 7.0804-2.7894 15.037-9.9693 17.759-10.29 3.376-21.478 3.1586-32.153 2.1299-9.37-1.1319-16.602-8.8248-18.395-17.268-0.6927-5.095-1.6363-12.426 4.8646-16.271z" fill-opacity=".8"/>
     <path id="path1191" d="m-45.443 122.33c0-4.9026-5.5179-0.33681-7.6943 1.2456-1.0882 0.96622-1.6408 5.1685-0.55264 6.3169 0.93219 1.6323 5.4378 0.27205 7.4222 0.27205 2.0157-2.0157 0.5885-4.7823 0.82469-7.8346z" fill="#0c0c0c" stroke="#000" stroke-width="1pt"/>
     <path id="path1190" d="m-7.0372 103.74c-11.627-0.34728-23.644 0.75284-34.25 6.5-0.020978 0.01012-0.041814 0.02054-0.0625 0.03125-3.8953 2.3038-5.7703 5.9542-6.3438 9.4062s-0.06625 6.819 0.28125 9.375c0.008754 0.0524 0.019176 0.10451 0.03125 0.15625 2.0125 9.4772 9.9743 17.975 20.531 19.25 0.020832 2.6e-4 0.041667 2.6e-4 0.0625 0 10.807 1.0414 22.326 1.3032 33.156-2.25 0.041928-0.00935 0.083609-0.01977 0.125-0.03125 4.2465-1.6095 7.1972-4.8208 9-8.4688 1.7691-3.5798 2.4783-7.5824 2.5312-11.375h0.03125c0.00729-0.07591-0.00713-0.14299 0-0.21875 0.4925-5.2343 0.61829-10.114-1.25-14.219-1.8953-4.1641-6.1528-6.9972-12.406-7.4375-3.7299-0.31837-7.5617-0.60299-11.438-0.71875zm-0.09375 5c3.7289 0.10398 7.4448 0.37337 11.125 0.6875 0.020832 2.6e-4 0.041668 2.6e-4 0.0625 0 5.1009 0.35913 6.9966 1.9148 8.1875 4.5312s1.3279 6.8333 0.84375 11.875c-0.013636 0.07242-0.024062 0.1454-0.03125 0.21875-0.02278 3.2244-0.65693 6.6566-2.0312 9.4375-1.3702 2.7726-3.3622 4.8855-6.2813 6-0.00871 0.00332-0.02253-0.00331-0.03125 0-9.7253 3.167-20.523 3.0126-31.031 2-8.1688-0.98681-14.569-7.8876-16.156-15.281-0.00279-0.01298-0.02849-0.01827-0.03125-0.03125-0.33625-2.4936-0.6471-5.2659-0.25-7.6562 0.40207-2.4203 1.3378-4.3428 3.875-5.875 9.4336-5.1119 20.563-6.2182 31.75-5.9062z" fill="#0c0c0c" stroke="#000" stroke-linejoin="round" stroke-width="1.25"/>
    </g>
   </g>
   <path id="path1204" d="m-118.42 142.08c-1.6578 0.47366-7.3417 1.6578-11.131 4.7366-3.3156 3.5525-1.8946 14.21 2.3683 18.473 2.1315 3.5525 5.6839 6.8681 10.184 7.1049 2.1315-0.94732-6.3944-22.262-1.421-30.314z" fill="url(#linearGradient1205)"/>
   <path id="path1206" d="m-51.155 141.37c-2.1315 4.0261-3.0788 18.473 1.8946 24.157 4.7366 5.2103 7.8154 4.263 10.657 4.7366 3.7893-2.1315-4.7366-27.709 0.47366-31.025-4.0261-1.421-11.605 0-13.026 2.1315z" fill="url(#linearGradient1207)"/>
  </g>
 </g>
</svg>
