<?xml version="1.0" encoding="UTF-8"?>
<!-- Created with Inkscape (http://www.inkscape.org/) -->
<svg id="svg2414" width="154.26" height="292.91" version="1.0" xmlns="http://www.w3.org/2000/svg" xmlns:cc="http://creativecommons.org/ns#" xmlns:dc="http://purl.org/dc/elements/1.1/" xmlns:rdf="http://www.w3.org/1999/02/22-rdf-syntax-ns#" xmlns:xlink="http://www.w3.org/1999/xlink">
 <defs id="defs2416">
  <linearGradient id="linearGradient1847" x1="211.88" x2="199.07" y1="701.65" y2="688.99" gradientTransform="scale(1.2416 .80543)" gradientUnits="userSpaceOnUse" xlink:href="#linearGradient1855"/>
  <linearGradient id="linearGradient1855">
   <stop id="stop1856" stop-color="#d1d1d1" offset="0"/>
   <stop id="stop1857" stop-color="#bebebe" offset=".5"/>
   <stop id="stop1858" stop-color="#fff" offset="1"/>
  </linearGradient>
  <linearGradient id="linearGradient1842" x1="200.73" x2="208.78" y1="681.75" y2="684.58" gradientTransform="scale(1.2416 .80543)" gradientUnits="userSpaceOnUse" spreadMethod="reflect" xlink:href="#linearGradient1855"/>
 </defs>
 <metadata id="metadata2419">
  <rdf:RDF>
   <cc:Work rdf:about="">
    <dc:format>image/svg+xml</dc:format>
    <dc:type rdf:resource="http://purl.org/dc/dcmitype/StillImage"/>
    <dc:title>Top and Skirt</dc:title>
    <dc:date>207-03-23</dc:date>
    <dc:creator>
     <cc:Agent>
      <dc:title>Frederik Elwert</dc:title>
     </cc:Agent>
    </dc:creator>
    <dc:subject>
     <rdf:Bag>
      <rdf:li>skirt</rdf:li>
      <rdf:li>top</rdf:li>
      <rdf:li>clothes</rdf:li>
     </rdf:Bag>
    </dc:subject>
    <cc:license rdf:resource="http://web.resource.org/cc/PublicDomain"/>
   </cc:Work>
   <cc:License rdf:about="http://web.resource.org/cc/PublicDomain">
    <cc:permits rdf:resource="http://web.resource.org/cc/Reproduction"/>
    <cc:permits rdf:resource="http://web.resource.org/cc/Distribution"/>
    <cc:permits rdf:resource="http://web.resource.org/cc/DerivativeWorks"/>
   </cc:License>
  </rdf:RDF>
 </metadata>
 <g id="layer1" transform="translate(-272.87 -385.91)" fill-rule="evenodd">
  <g id="g1852" transform="translate(-12.844 87.567)">
   <path id="path3311" d="m322.5 317.34c-9.6265 6.876-21.295 13.208-28.906 21.906-3.8266 4.3734-6.711 9.3054-7.5938 15.312-0.04292 0.27501-0.05893 0.56437-0.09375 0.84375-0.10682 0.92093-0.17082 1.8432-0.1875 2.8125-0.01476 0.62828 0.03649 1.2874 0.0625 1.9375 0.03277 0.73561 0.03908 1.4549 0.125 2.2188 0.0059 0.05372-0.00618 0.10238 0 0.15625 0.1642 1.4062 0.39546 2.837 0.75 4.3438 2.7674 11.762 14.521 31.298 18.125 49.531 0.90052 4.5589 1.2929 9.0271 0.90625 13.281-0.12882 1.418-0.34467 2.8243-0.65625 4.1875 0.75738 0.03986 2.1297 0.05592 2.9688 0.09375 0.155-0.5297 0.34208-1.0044 0.5-1.5312 15.736-6.4804 50.223-9.1187 100.5-8.2188 0.18914 0.30945 0.27399 0.49453 0.46875 0.8125 1.3537-0.28858 2.6316-0.50653 4-0.8125-10.594-26.796 2.2571-34.184 7.4688-53.281 0.58155-2.131 0.96762-4.1017 1.2188-5.9688 0.03485-0.2586 0.03355-0.49611 0.0625-0.75 0.17127-1.5059 0.24259-2.9318 0.21875-4.2812-0.00751-0.42595-0.03701-0.8385-0.0625-1.25-0.07411-1.1933-0.22322-2.3259-0.4375-3.4062-0.05895-0.29903-0.0874-0.61524-0.15625-0.90625-0.29452-1.2377-0.66796-2.4254-1.125-3.5312-0.03699-0.08951-0.05579-0.19253-0.09375-0.28125-4.9596-11.591-18.095-16.508-23.281-27.312-12.775 12.463-64.811 17.463-74.781-5.9062z"/>
   <path id="path3314" d="m333.25 298.34c-0.26311 1.0525-1.3563 4.0111-3.25 7.2844-1.6937 2.9277-4.1403 6.5781-7.1875 10.5l-0.78125 0.5625c-8.6639 6.1885-19.943 11.275-26.938 19.5-1.5788 0.94377 0.37642 0.04243-1.7007 3.1382-0.23218 0.34603 1.4534-0.47293 2.8569-1.9819 6.9274-7.4477 17.335-12.767 25.969-18.844 2.7219 5.6089 7.7771 9.5797 14.062 12.125 6.6128 2.6779 14.529 3.8473 22.531 3.9062s16.09-0.99852 23-2.875c6.4731-1.7578 11.846-4.2129 15.281-7.2188 4.0226 7.527 12.298 11.645 17.188 18.25 5.0919 5.7317 5.9936 9.1 6.6686 7.6628 0.85036-1.8106-1.5472-4.0321-5.5123-8.7566-5.575-6.8663-13.789-11.16-17.406-18.625-1.7767-6.9336-2.625-15.417-2.625-18.597l-2.5 0.44065c0 3.5729 0.87543 11.565 2.7188 18.75-3.1635 2.5843-8.1802 4.8829-14.25 6.5312-6.7511 1.8333-14.682 2.8704-22.531 2.8125s-15.622-1.2109-21.969-3.7812c-5.7263-2.3189-10.163-5.8307-12.75-10.594 3.47-4.3636 6.1757-8.3948 8.0625-11.656 1.962-3.3915 3.0709-5.9086 3.4688-7.5l-2.4062-1.0344z" fill="#cd1d1d"/>
  </g>
  <g id="g1848" transform="translate(-12.844 87.567)">
   <path id="path1099" d="m428.12 463.16c-23.588 9.311-88.894 30.648-127.28 22.5-0.15045-0.03193-0.31913-0.02966-0.46875-0.0625-0.31158 1.7527-0.47718 4.0647-0.5 6.875-0.06755 8.431 1.0333 21.211 2.4062 35.875 1.8278 19.551 4.1585 42.466 4.9375 62.875 2.1351 0.11237 7.327-0.10563 11-0.15625-0.28138-0.90899-0.56227-1.9215-0.84375-2.8438 23.232-5.8035 72.769-13.436 106.59-9.8125-0.53668 1.5166-1.14 3.208-1.75 4.9062 5.9229-0.76115 11.425-1.5609 16.188-2.375-0.59952-1.8338-0.86671-4.2833-0.96875-7.125-0.0102-0.2841-0.05626-0.51926-0.0625-0.8125-0.06613-3.18 0.10281-6.9272 0.375-11.062 0.27605-4.2195 0.61988-9.8286 1-14.812 0.70843-9.219 1.3335-18.632 1.1875-29.344-0.00939-0.68879 0.04764-1.3395 0.03125-2.0312-7.5e-4 -0.03077 7.6e-4 -0.06298 0-0.09375-0.1347-5.5741-0.53653-11.224-1.25-16.875-0.01963-0.15549-0.01109-0.31328-0.03125-0.46875-0.01214-0.09328-0.01892-0.18798-0.03125-0.28125-0.36691-2.786-0.82522-5.5468-1.375-8.3125-0.00838-0.04216-0.02282-0.08284-0.03125-0.125-0.57951-2.899-1.2832-5.7762-2.0938-8.625-0.80869-2.8424-1.7437-5.6417-2.8125-8.4062-0.99578-2.5758-2.1282-5.1089-3.375-7.5938-0.29935-0.59663-0.52906-1.2219-0.84375-1.8125z"/>
   <path id="path2573" d="m430.09 466.94c-5.7648 1.9216-25.355 9.6382-50.719 16.094s-56.328 11.19-79.561 7.0312c-0.66728 4.9167-0.39248 9.8333 0.18659 14.75 27.244 4.877 56.702-0.54114 83.062-7.25s48.822-15.181 52.404-16.375c-1.2718-5.9963-2.8551-9.5-5.3732-14.25z" color="rgb(0, 0, 0)" fill="#cd1d1d"/>
   <path id="rect1103" transform="matrix(.97841 -.20668 .20668 .97841 0 0)" d="m243.41 549.73c-1.108 0-2 0.892-2 2v13.674c0 1.108 0.892 2 2 2 8.0411 0.45111 16.134 0.65799 24.161 0 1.108 0 2-0.892 2-2v-13.674c0-1.108-0.892-2-2-2-8.016 0.77869-16.122 0.48837-24.161 0z" fill="url(#linearGradient1842)" stroke="url(#linearGradient1847)" stroke-width=".5"/>
  </g>
 </g>
</svg>
