<?xml version="1.0" encoding="UTF-8"?>
<!-- Created with Inkscape (http://www.inkscape.org/) -->
<svg id="svg2" width="128" height="128" version="1.0" xmlns="http://www.w3.org/2000/svg" xmlns:cc="http://creativecommons.org/ns#" xmlns:dc="http://purl.org/dc/elements/1.1/" xmlns:rdf="http://www.w3.org/1999/02/22-rdf-syntax-ns#" xmlns:xlink="http://www.w3.org/1999/xlink">
 <defs id="defs4">
  <linearGradient id="linearGradient2338">
   <stop id="stop2340" stop-color="#b1b1b1" offset="0"/>
   <stop id="stop2342" stop-color="#e4e4e4" offset="1"/>
  </linearGradient>
  <linearGradient id="linearGradient2481" x1="14.184" x2="52.93" y1="116.58" y2="46.184" gradientUnits="userSpaceOnUse" xlink:href="#linearGradient2338"/>
  <linearGradient id="linearGradient3071" x1="13.943" x2="15.411" y1="95.067" y2="91.397" gradientUnits="userSpaceOnUse" xlink:href="#linearGradient2338"/>
  <linearGradient id="linearGradient3075" x1="62.623" x2="64.886" y1="103.42" y2="98.034" gradientUnits="userSpaceOnUse" xlink:href="#linearGradient2338"/>
  <filter id="filter3150">
   <feGaussianBlur id="feGaussianBlur3152" stdDeviation="0.34196532"/>
  </filter>
 </defs>
 <metadata id="metadata7">
  <rdf:RDF>
   <cc:Work rdf:about="">
    <dc:format>image/svg+xml</dc:format>
    <dc:type rdf:resource="http://purl.org/dc/dcmitype/StillImage"/>
   </cc:Work>
  </rdf:RDF>
 </metadata>
 <g id="layer2" fill-rule="evenodd">
  <path id="path2421" d="m12.108 65.211 3.4595-5.5351 3.9784-2.7676 11.07-3.9784 5.7081-4.6703 6.227-2.7676 3.6324-2.2486 7.6108-6.227 4.8432-1.5568 9.5135 3.6324 5.0162 2.4216 7.6108 0.86486 5.1892 2.0757 8.6486 2.0757 12.627 5.8811 3.4595 2.7676 2.5946 5.5351 4.4973 5.7081 1.9027 1.2108 2.4216 3.4595c3.5893 20.036-8.4828 26.232-24.562 28.886 0.002109 5.2246-3.6637 6.2572-6.7459 7.9568-6.7776 2.7098-20.207 12.315-37.708-0.6919-21.335 5.2329-40.014 4.7858-48.086-18.335-0.27684-8.5085-3.9201-17.794 7.0919-23.697z" fill="url(#linearGradient2481)"/>
  <path id="path2485" d="m70.75 46.531-4.3545 6.9294c-2.328 4.8667-2.0601 8.8681-2.583 13.133 5.7708-5.6628 11.542-4.4353 17.312-0.6875l-9.875-19.562-0.5 0.1875zm8.125-4.375c3.3084 5.5637 8.4423 7.8414 13.312 10.594-2.9494-2.6458-6.0894-5.2917-5.875-7.9375l-5.5312-2.4375-1.9062-0.21875zm-48.25 10.781-11.094 3.9688-3.9688 2.7812-3.4688 5.5312c-10.985 5.889-7.355 15.134-7.0625 23.625l0.34375 0.0625 4.3125-4.1562 5.7188-7.4375 3.0938-6.4062 7.9688-11.062 4.1562-6.9062zm71.094-2.7812c4.6163 5.0489 1.8382 11.154 2.4062 16.781 2.0324 4.1337-0.21664 9.8729-0.5 14.875l2.75-8.8125-0.34375-6.75 4.1562-11.406-2.9375-2.4375-5.5312-2.25zm-14.031 47.406 1.5625 6.75 1.8125 3.5c3.0021-1.6097 6.4436-2.7425 6.5-7.7188l-9.875-2.5312zm-39.781 1.0312-2.25 10.219c2.4384-0.43212 4.9114-0.94291 7.4375-1.5625l-5.1875-8.6562zm30.406 14.375-7.2188 0.9375c2.5816 0.02055 4.9942-0.36862 7.2188-0.9375z" fill-opacity=".15686"/>
  <path id="path3067" d="m24.34 93.386-1.4677-3.1801v-8.1948l3.7916-5.9932 4.5255-6.1155 2.8131-5.137 1.59-4.2809 7.2163-5.137 2.2016 0.61155-7.094 5.9932-7.8279 15.533-4.6478 5.6263 1.2231 10.519-2.3239-0.24462z" fill-opacity=".15686"/>
  <path id="path3077" d="m12 90.094c0 2e-6 -3.1902 0.34209-3.3125 1.6875-0.12231 1.3454 3.7796 4.8982 5.125 4.5312 1.3454-0.36693 0.87833-5.3626-1.8125-6.2188zm38.969 4.5c-0.51026 0.063066-0.90961 0.29134-1.0625 0.75-0.61155 1.8347-0.48117 5.7634 0.375 6.375s3.7877 2.3142 5.5 0.96875c1.7123-1.3454 0.35079-6.3599-0.75-7.0938 1e-6 1e-6 -2.5317-1.1892-4.0625-1z" fill-opacity=".50685" filter="url(#filter3150)"/>
  <path id="path3069" d="m19.325 91.796 3.7916 0.85617 1.1008 1.4677-0.61155 2.4462-2.3239 0.12231-6.8494-1.2231-2.4462-0.73386-0.97848-1.1008 0.48924-2.4462 1.7123-1.4677s1.2231-2.2016 2.8131-1.1008c1.59 1.1008 3.4247 3.4247 3.3024 3.1801z" fill="url(#linearGradient3071)"/>
  <path id="path3073" d="m54.183 91.429-2.3239 2.8131-0.85617 3.3024 1.2231 4.1586 3.6693 0.73386 2.6908 0.61156 3.547-0.48925 4.8924 1.4677 5.504 0.97848 2.5685-0.61155 2.6908-1.4677 0.97848-2.4462-1.8347-4.1586-3.547-2.6908-2.8131 0.73386-3.6693 1.2231-2.4462-0.24462-4.4032-2.6908-4.1586-1.59-1.7123 0.36693z" fill="url(#linearGradient3075)"/>
 </g>
 <g id="layer1">
  <path id="path2308" d="m59.375 34.531c-3.9769 0.15314-6.5777 2.9379-9.3438 5.3125s-5.7292 4.3454-9.1562 5.3125c-3.4845 1.1684-6.2172 3.488-8.75 6.0625-3.6317 1.5224-7.9358 3.9447-12.062 5.2188-2.0584 0.7253-3.6726 2.1403-5.2188 3.625-1.5013 1.6477-2.625 3.6603-2.625 5.7188l0.125 0.125c0-1.6887 1.8562-3.6266 3.25-5.1562 1.3761-1.5102 3.1319-3.354 4.6562-3.9375 3.4102-0.80783 6.5356-1.7994 9.625-3.4062-2.0135 2.4468-2.5653 4.8661-4.4375 7.4375-3.2004 4.2409-6.3991 8.4254-8.9062 13.125-0.85404 1.4641-3.1082 4.7739-5.4688 7.8125-1.7325 2.3028-3.3246 5.2598-5.6875 6.9062l0.09375 0.1875c2.6431-1.4983 4.5201-4.1115 6.375-6.4688 2.3863-3.0718 4.5282-6.5661 5.4375-8.125 1.9955-4.7709 5.5824-8.9054 8.5938-13.188 4.4122-6.0598 8.1031-12.239 15.219-14.812 3.6374-1.0564 6.4832-3.797 9.2812-6.2188 3.2243-2.8223 6.9768-4.9915 11.031-2.4688 2.1359 0.53862 3.9198 0.44532 4.9375 2.5312 1.565 1.7208 2.9316 3.5868 4.1562 5.5312 0.11504 0.18264-3.0826 3.8537-4.75 8.9062-1.7657 5.3504-2.0254 12.086-1.9062 12.281 0.070272 0.11509 0.36309-3.691 0.96875-6.8125 0.078212-0.4031 1.7511 2.6283 1.8438 2.2188 0.067673-0.29913-1.5447-2.9837-1.4688-3.2812 0.33207-1.3009 0.70642-2.6174 1.1875-3.8125 1.9032-4.7278 4.7389-8.6549 4.8438-8.4688 2.0587 3.6539 4.3737 8.768 6.0938 12.594h0.03125v0.03125c6.4665 10.946 9.5507 22.073 9.4688 34.75 0.28171 4.3951 2.0616 10.478 4.0938 14.344l0.59375-0.46875c-1.5168-1.8343-3.1656-6.3228-3.2188-9.4375-0.004847-0.28396 1.7225 0.2847 4.8125 1 0.33308 0.077108-0.45663 4.267-0.125 4.3438 0.83131 0.19235 0.78928-4.2581 1.5312-4.0938 1.8968 0.42011 3.3011 0.6899 3.2812 0.5-0.077208-0.73919-5.9841-1.3443-9.5312-3.125-1.0014-0.50269-0.41114-2.8785-0.4375-3.0625 0.34847-12.702-4.1362-23.996-10-34.969-2.8284-6.9489-5.8467-13.679-10.625-19.469 1.6232 0.57993 3.2003 1.2673 4.8125 1.875 4.6644 0.25091 9.0475 1.3972 13.375 3.0312 0.19965 0.021917 1.2982 3.234 4.125 6.0938 4.5002 4.5526 11.468 9.5749 11.781 9.625 0.27773 0.044429-7.3762-5.445-11.344-9.9688-2.2063-2.5155-3.1213-5.4682-2.9688-5.4375 7.5228 1.5137 15.473 5.6831 22 9.6562-0.23263 1.3961-0.876 3.6668-1.5312 6.0938-0.67692 2.5072-1.37 5.1537-1.5312 7.25 0.4769 4.7022-0.89797 9.2319-2.0938 13.719l0.21875 0.0625c1.1176-4.4705 3.42-8.839 2.875-13.688 0.14981-1.9476 0.82665-4.5685 1.5-7.0625 0.59116-2.1896 1.3602-3.4287 1.6562-4.9375 1.2934 1.2526 1.7754 2.1377 2.4375 3.7812 0.64106 1.6625 1.302 3.4102 2.75 4.9688 1.0282 0.72698 2.0349 1.508 3 2.3438 0.33139 0.28698-0.91113 4.7304-0.59375 5.0312 0.25523 0.24196 1.1933-4.8137 1.4375-4.5625 0.81063 0.83398 2.4462 2.8695 3.0938 3.8125l0.21875-0.15625c-1.7161-2.7857-3.7662-5.1266-6.4375-7.125-1.2458-1.3185-1.9114-2.9959-2.5625-4.6562-0.64159-1.6638-1.304-3.4068-2.75-4.9062-7.2701-5.7982-15.999-8.3818-24.906-10.375-4.5417-2.0467-9.4394-2.9772-14.312-3.8438-2.6769-0.98087-5.0882-2.3979-7.4375-4l-4.625-1.7188zm-5.3438 12.375c-1.4286 1.4047-2.1546 3.619-3.8438 4.3125-0.21236 0.49373-2.6658 3.37-3.2812 2.7812-0.92588-0.88568-0.13778-5.4841-0.75-5 0.40295 1.6194-0.6623 6.1567-1.2812 7.0938-0.72225-0.52667-1.2741-0.72997-2.4688-0.71875-1.2748 1.3535-2.8944 2.5147-4.7188 3.3125-2.1746 0.99502-3.0972 3.0061-3.875 5.1562-2.2312 6.4818-7.6159 11.147-10.812 17.406-0.061141 0.11972-1.0434 0.11838-2.2188 0.09375-0.23086-0.004839-0.53978-2.4001-0.78125-2.4062-0.32725-0.008374 0.19873 2.3828-0.125 2.375-1.3719-0.033259-3.3735-0.044916-3.4375 0.09375-0.01602 0.33095 6.2313 0.57235 6.2188 0.90625-0.072714 1.933-0.25784 4.7809-0.25 6.7188 0.056685 1.2304 0.22611 2.4173 0.625 3.4062-1.148-0.59419-2.4778-1.0413-3.3125-1.3125-0.85549-1.4323-2.1053-2.5312-3.5312-2.875-3.3467-0.21229-5.1424 2.2149-5.2188 5.0938 0.90036 2.3805 3.9963 2.5293 6.1875 3.3125 1.6833 0.66014 3.6437 0.43476 5.4688 0.375 1.197-0.21626 1.8073-1.0475 2.5312-1.9375 0.045438-0.18727-0.065307-0.81812-0.09375-1 2.2112-0.594 4.612 0.025986 6.875 0.46875 1.9925 0.61968 3.9544 1.7299 6.0312 2.7812l9.5938 1.4062 1.25 2.125-1.4375 2.875 1.75-2.5625 4.3438 6.3438c0.047858-0.10562-0.97307-2.0641-1.8125-3.7188-0.12625-0.24886 2.226 0.19673 2.0938-0.0625-0.10935-0.21438-2.3027-0.54638-2.4375-0.75-1.2145-1.8344-2.4949-4.4511-2.4375-4.9688 0.70924-6.3964 1.4651-12.062 1.125-18.062 0.89057-6.5084-0.6494-12.786-2.5-18.969-0.19991-1.3591-0.3218-1.0335-0.9375-2.2812-0.051939-0.90885 0.85288-3.3166 1.625-3.9062 0.42459-0.30753 0.43124-1.0675 0.84375-1.4375 5.4449 0.95157 11.218-0.6196 15.969-3.4688l-0.59375-0.1875c-4.0854 2.9977-9.9898 3.6215-14.156 3.25 0.2706-0.33616 0.52244-0.70034 0.71875-1.125h0.03125c0.020378-0.044539 0.043215-0.079251 0.0625-0.125 0.60414-0.82918 1.1254-1.7626 1.625-2.5l1.3438-2.3125zm-10.625 8.75 0.6875 0.6875c-2.1533 1.9025-4.2195 3.8486-6.6875 5.5938-1.0044 1.3214-1.4422 2.8318-1.9688 4.3125-3.8459 4.8749-7.138 11.134-10.688 16.75 0.43644 3.4372-0.18884 6.609 1.4375 10.344l-1.1875 0.25-1.9276-4.4077 0.30258-6.7798 11.188-18.031c1.0324-1.7348 1.3054-3.6866 3.375-5.125l5.4688-3.5938zm-28.312 33.469c1.8375 0.054739 2.8704 1.3165 3.9062 2.6875 1.9838 1.1225 7.281 2.2692 3.4688 4.2188-1.7039 0.013992-3.7984 0.24141-4.9062-0.3125h-0.03125-0.03125c-2.0148-0.62759-5.056-0.43668-6.1875-2.2188-0.050981-1.8687 1.9317-3.8663 3.7812-4.375zm39.938 1.5625c-0.29154-0.0035-0.59693 0.003961-0.90625 0.03125-4.0666 3.1456-3.7851 6.8361-1.8125 11.156 2.2291 1.286 5.0152 1.5187 7.5625 1.6875h0.03125 0.0625c2.6494-0.61862 4.2895-0.18751 6.0312 0.4375s2.8206 1.1694 5.5625 1.2188c5.2925-0.82099 8.5503-2.6659 6.5312-8.0312-1.5287-2.1232-2.6848-3.16-4.125-3.625s-5.2095 1.9245-7.6875 1.9375c-4.3885-1.4331-6.877-4.76-11.25-4.8125zm0.21875 0.96875c4.2328-0.11892 6.7306 3.0868 10.969 4.3125 1.1605 0.037213 4.4831-1.7445 5.6562-1.7188-2.4438 1.6989-1.8856 3.5065-10.125 5.8438l0.125 0.125c4.3401-0.48134 8.9915-4.101 11.781-5.7188 1.174 0.37905 2.1427 1.2225 3.625 3.2812 2.67 3.9926-0.49268 6.4603-4.375 6.875-2.1095 0.00536-4.6185-0.87429-6.5625-1.5938-1.7685-0.63458-3.6992-1.0842-6.4688-0.46875-2.3905-0.08768-4.784-0.83426-7.2188-0.96875-2.5241-3.5639-1.2113-7.0447 1.7188-9.9062 0.29856-0.038992 0.59282-0.054572 0.875-0.0625z" fill-rule="evenodd"/>
 </g>
</svg>
