<?xml version="1.0" encoding="UTF-8"?>
<!DOCTYPE svg  PUBLIC '-//W3C//DTD SVG 1.0//EN'  'http://www.w3.org/TR/2001/REC-SVG-20010904/DTD/svg10.dtd'>
<!-- Created with Sodipodi ("http://www.sodipodi.com/") -->
<svg id="svg32" width="437.5" height="437.5" version="1.0" xmlns="http://www.w3.org/2000/svg" xmlns:xlink="http://www.w3.org/1999/xlink">
 <defs id="defs34">
  <linearGradient id="linearGradient60">
   <stop id="stop61" stop-color="#ffffaf" stop-opacity=".5412" offset="0"/>
   <stop id="stop62" stop-color="#0000a2" stop-opacity=".4471" offset="1"/>
  </linearGradient>
  <linearGradient id="linearGradient57">
   <stop id="stop58" stop-color="#ffff9f" stop-opacity=".9608" offset="0"/>
   <stop id="stop59" stop-opacity=".4588" offset="1"/>
  </linearGradient>
  <linearGradient id="linearGradient129">
   <stop id="stop130" stop-color="#fff" offset="0"/>
   <stop id="stop131" stop-color="#955d97" offset="1"/>
  </linearGradient>
  <linearGradient id="linearGradient132" y2="1" xlink:href="#linearGradient60"/>
  <linearGradient id="linearGradient158" x1=".52097" x2=".57224" y1=".08" y2="1.1657" xlink:href="#linearGradient129"/>
  <linearGradient id="linearGradient161" y2="1" xlink:href="#linearGradient57"/>
 </defs>
 <path id="path19" d="m65.038 383.71c2.765 5.7614-38.461 12.135-40.627 14.537 15.308 4.0765-24.446 10.288-17.037 12.114 5.2604 1.7019 83.471 13.357 96.325 13.81 78.711 5.6136 242.05 1.6014 271.94-3.6342 35.815-7.4542 53.926-8.2625 59.627-11.872-3.375-2.9931-35.034-8.5778-28.175-10.903-5.715-2.6411-18.553-3.8214-13.106-9.4493-17.264-1.824 24.149-5.8265-2.621-4.8456-4.616-0.4267 28.255-9.9341 20.313-11.388-42.088-10.446-285.47-11.629-328.95-2.9069-6.202 4.5601-10.446 13.644-17.692 14.537z" fill="#a2aac4" fill-rule="evenodd"/>
 <path id="path20" d="m83.383 384.62c5.6025 4.4022-52.044 13.663-41.531 15.582 189.58 7.418 150.07 11.744 294.33 11.248 7.6265-2.0891 36.541-11.66 38.172-19.721-45.732-3.7115-194.51-9.8629-290.97-7.1096z" fill-opacity=".2266" fill-rule="evenodd"/>
 <path id="path132" d="m208.03 107.55c-6.553 5.242 4.666 252.84 5.897 273.15 15.176 0 140.86 2.9373 158.55 6.0383 29.659-84.939 31.421-260.5 19.679-283.12-11.46-2.874-170.37-2.646-184.13 3.931z" fill="url(#linearGradient158)" fill-rule="evenodd" stroke="#000" stroke-width="10"/>
 <path id="path133" d="m270.31 40.055c1.0207 0 123.98 54.798 120.54 60.941-20.984-1.122-161.62-1.311-175.61-0.655 19.42-22.762 46.844-51.839 55.07-60.286z" fill="#d00" fill-rule="evenodd" stroke-width="9.6633"/>
 <path id="path134" d="m339.74 73.159c3.226-9.7372 3.236-35.408 1.966-42.932 11.578 1.1819 11.139 0.08875 19.657 0.88517-2.353 5.5622-0.655 42.637-0.655 49.571-8.159-3.2982-10.964-5.3117-20.968-7.5244z" fill="#baffff" fill-rule="evenodd" stroke="#000" stroke-width="8.2185"/>
 <path id="path135" d="m74.003 177.16c-19.003 11.485-13.485 112.33 12.276 204.94 10.611 0 115.97-2.1708 128.34 0.1633 1.4949-16.09-8.4815-194.89-8.9668-202.56-8.0131-2.1632-114.64-7.4845-131.65-2.5484z" fill="url(#linearGradient158)" fill-rule="evenodd" stroke="#000" stroke-width="7.2546"/>
 <path id="path136" d="m163.33 126.3c-0.6812 0-76.625 41.246-80.453 45.869 14.006-0.8445 110.36 0.3237 119.7 0.8174-1.8218-11.235-33.759-40.329-39.249-46.687z" fill="#d00" fill-rule="evenodd" stroke-width="6.8492"/>
 <path id="path137" d="m118.9 150.35c-2.2557-6.4988-2.2627-22.155-1.3747-27.177-8.0955 0.7888-7.7886 0.0592-13.744 0.5908 1.6452 3.7123 0.9159 26.094 0.9159 30.722 5.705-2.2013 7.2083-2.6588 14.203-4.1357z" fill="#e9f57f" fill-rule="evenodd" stroke="#000" stroke-width="5.6144"/>
 <path id="path149" d="m160.85 318.54v61.596h32.763v-61.596h-32.763z" fill="#7f5400" fill-rule="evenodd" stroke-width="5"/>
 <path id="path150" d="m97.946 298.89v29.487h38.006v-29.487h-38.006z" fill="url(#linearGradient132)" fill-rule="evenodd" stroke="#000" stroke-width="5"/>
 <path id="path151" d="m155.61 242.53v36.04h39.316v-36.04h-39.316z" fill="url(#linearGradient132)" fill-rule="evenodd" stroke="#000" stroke-width="5"/>
 <path id="path152" d="m99.257 241.22v36.696h37.35v-36.696h-37.35z" fill="url(#linearGradient132)" fill-rule="evenodd" stroke="#000" stroke-width="5"/>
 <path id="path153" d="m246.69 156.04v56.354h43.903v-56.354h-43.903z" fill="url(#linearGradient132)" fill-rule="evenodd" stroke="#000" stroke-width="5"/>
 <path id="path154" d="m249.31 241.22v38.006h42.593v-38.006h-42.593z" fill="url(#linearGradient132)" fill-rule="evenodd" stroke="#000" stroke-width="5"/>
 <path id="path155" d="m338.43 240.57v38.661h30.798v-38.661h-30.798z" fill="url(#linearGradient132)" fill-rule="evenodd" stroke="#000" stroke-width="5"/>
 <path id="path156" d="m295.18 301.51v78.632h36.695v-78.632h-36.695z" fill="#856100" fill-rule="evenodd" stroke-width="5"/>
 <path id="path157" d="m331.22 161.94v53.732h39.972v-53.732h-39.972z" fill="url(#linearGradient132)" fill-rule="evenodd" stroke="#000" stroke-width="5"/>
 <path id="path160" d="m162.21 317.87v61.596h32.763v-61.596h-32.763z" fill="url(#linearGradient161)" fill-rule="evenodd" stroke="#000" stroke-width="5"/>
 <path id="path162" d="m293.83 302.18v78.632h36.695v-78.632h-36.695z" fill="url(#linearGradient161)" fill-rule="evenodd" stroke="#000" stroke-width="5"/>
 <path id="path164" d="m271.06 40.056c1.0168 0 120.27 55.322 119.44 62.252-20.906-1.1461-166.4 0.1703-180.35 0.8404 19.348-23.252 52.713-54.464 60.908-63.092z" fill="url(#linearGradient132)" fill-rule="evenodd" stroke="#000" stroke-linejoin="round" stroke-width="9.75"/>
 <path id="path167" d="m162.37 127.26c-0.6812 0-76.625 41.246-80.453 45.869 14.006-0.8445 117.57 6.8773 120.36-1.1478-1.1673-7.3034-34.414-38.364-39.904-44.722z" fill="url(#linearGradient132)" fill-rule="evenodd" stroke="#000" stroke-linejoin="round" stroke-width="6.85"/>
 <metadata>
  <rdf:RDF xmlns="http://web.resource.org/cc/" xmlns:dc="http://purl.org/dc/elements/1.1/" xmlns:rdf="http://www.w3.org/1999/02/22-rdf-syntax-ns#">
   <Work rdf:about="">
    <dc:title>Lemon SVG theme</dc:title>
    <dc:description/>
    <dc:subject>
     <rdf:Bag>
      <rdf:li>lemon_theme_icon</rdf:li>
      <rdf:li>icon</rdf:li>
     </rdf:Bag>
    </dc:subject>
    <dc:publisher>
     <Agent rdf:about="">
      <dc:title>Open Clip Art Library</dc:title>
     </Agent>
    </dc:publisher>
    <dc:creator>
     <Agent rdf:about="">
      <dc:title>Jose Hevia</dc:title>
     </Agent>
    </dc:creator>
    <dc:rights>
     <Agent rdf:about="">
      <dc:title/>
     </Agent>
    </dc:rights>
    <dc:date/>
    <dc:format>image/svg+xml</dc:format>
    <dc:type rdf:resource="http://purl.org/dc/dcmitype/StillImage"/>
    <license rdf:resource="Public Domain">
     <dc:date>1</dc:date>
    </license>
    <dc:language>en</dc:language>
   </Work>
   <License rdf:about="Public Domain">
    <permits rdf:resource="http://web.resource.org/cc/Reproduction"/>
    <permits rdf:resource="http://web.resource.org/cc/Distribution"/>
    <permits rdf:resource="http://web.resource.org/cc/DerivativeWorks"/>
   </License>
  </rdf:RDF>
 </metadata>
</svg>
