<?xml version="1.0" encoding="UTF-8"?>
<!-- Created with Inkscape (http://www.inkscape.org/) -->
<svg id="svg2" width="128" height="128" version="1.0" xmlns="http://www.w3.org/2000/svg" xmlns:cc="http://creativecommons.org/ns#" xmlns:dc="http://purl.org/dc/elements/1.1/" xmlns:rdf="http://www.w3.org/1999/02/22-rdf-syntax-ns#" xmlns:xlink="http://www.w3.org/1999/xlink">
 <defs id="defs4">
  <linearGradient id="linearGradient3494">
   <stop id="stop3496" stop-color="#cf8d00" offset="0"/>
   <stop id="stop3498" stop-color="#cea33e" offset="1"/>
  </linearGradient>
  <linearGradient id="linearGradient3332">
   <stop id="stop3334" stop-color="#bb8f56" offset="0"/>
   <stop id="stop3336" stop-color="#d1af63" offset="1"/>
  </linearGradient>
  <linearGradient id="linearGradient2320">
   <stop id="stop2322" stop-color="#6a3c1d" offset="0"/>
   <stop id="stop2324" stop-color="#8f5127" offset="1"/>
  </linearGradient>
  <linearGradient id="linearGradient3405">
   <stop id="stop3407" stop-color="#4f3e2a" offset="0"/>
   <stop id="stop3409" stop-color="#72593c" offset="1"/>
  </linearGradient>
  <linearGradient id="linearGradient2531" x1="26.465" x2="27.286" y1="97.341" y2="100.11" gradientUnits="userSpaceOnUse" xlink:href="#linearGradient2320"/>
  <linearGradient id="linearGradient2535" x1="25.73" x2="25.686" y1="95.654" y2="94.746" gradientUnits="userSpaceOnUse" xlink:href="#linearGradient2320"/>
  <linearGradient id="linearGradient2539" x1="26.076" x2="30.249" y1="93.016" y2="88.692" gradientUnits="userSpaceOnUse" xlink:href="#linearGradient2320"/>
  <linearGradient id="linearGradient2545" x1="26.119" x2="26.508" y1="83.589" y2="88.865" gradientUnits="userSpaceOnUse" xlink:href="#linearGradient2320"/>
  <linearGradient id="linearGradient2549" x1="23.568" x2="24.086" y1="85.578" y2="82.378" gradientUnits="userSpaceOnUse" xlink:href="#linearGradient2320"/>
  <linearGradient id="linearGradient3134" x1="24.735" x2="19.546" y1="87.741" y2="93.016" gradientUnits="userSpaceOnUse" xlink:href="#linearGradient2320"/>
  <linearGradient id="linearGradient3138" x1="39.995" x2="35.715" y1="89.228" y2="93.508" gradientUnits="userSpaceOnUse" xlink:href="#linearGradient2320"/>
  <linearGradient id="linearGradient3364">
   <stop id="stop3366" stop-color="#9e0000" offset="0"/>
   <stop id="stop3368" stop-color="#e00000" offset="1"/>
  </linearGradient>
  <linearGradient id="linearGradient3354" x1="59.849" x2="59.762" y1="96.303" y2="97.254" gradientUnits="userSpaceOnUse" xlink:href="#linearGradient3364"/>
  <linearGradient id="linearGradient3362" x1="47.697" x2="52.195" y1="57.773" y2="53.708" gradientUnits="userSpaceOnUse" xlink:href="#linearGradient2320"/>
  <linearGradient id="linearGradient3366" x1="42.984" x2="43.373" y1="62.27" y2="60.108" gradientUnits="userSpaceOnUse" xlink:href="#linearGradient2320"/>
  <linearGradient id="linearGradient3371" x1="40.259" x2="40.562" y1="60.497" y2="62.054" gradientUnits="userSpaceOnUse" xlink:href="#linearGradient2320"/>
  <linearGradient id="linearGradient3375" x1="45.232" x2="46.184" y1="48.735" y2="48.735" gradientUnits="userSpaceOnUse" xlink:href="#linearGradient2320"/>
  <linearGradient id="linearGradient3379" x1="46.832" x2="47.157" y1="50.854" y2="50.854" gradientUnits="userSpaceOnUse" xlink:href="#linearGradient2320"/>
  <linearGradient id="linearGradient3383" x1="64.216" x2="64.519" y1="74.941" y2="74.465" gradientUnits="userSpaceOnUse" xlink:href="#linearGradient2320"/>
  <linearGradient id="linearGradient3387" x1="57.946" x2="57.47" y1="71.87" y2="72.649" gradientUnits="userSpaceOnUse" xlink:href="#linearGradient2320"/>
  <linearGradient id="linearGradient3391" x1="78.876" x2="80.346" y1="74.897" y2="74.768" gradientUnits="userSpaceOnUse" xlink:href="#linearGradient2320"/>
  <linearGradient id="linearGradient3397" x1="80.778" x2="81.427" y1="75.892" y2="75.892" gradientUnits="userSpaceOnUse" xlink:href="#linearGradient2320"/>
  <linearGradient id="linearGradient3401" x1="74.984" x2="75.849" y1="83.243" y2="85.146" gradientUnits="userSpaceOnUse" xlink:href="#linearGradient2320"/>
  <linearGradient id="linearGradient3406" x1="81.427" x2="81.989" y1="88.043" y2="86.573" gradientUnits="userSpaceOnUse" xlink:href="#linearGradient2320"/>
  <linearGradient id="linearGradient3412" x1="104.13" x2="103.65" y1="63.611" y2="64.432" gradientUnits="userSpaceOnUse" xlink:href="#linearGradient2320"/>
  <linearGradient id="linearGradient3416" x1="113.21" x2="113.6" y1="68.973" y2="68.411" gradientUnits="userSpaceOnUse" xlink:href="#linearGradient2320"/>
  <linearGradient id="linearGradient3420" x1="117.41" x2="117.92" y1="72.865" y2="71.784" gradientUnits="userSpaceOnUse" xlink:href="#linearGradient2320"/>
  <linearGradient id="linearGradient3425" x1="111.31" x2="112.22" y1="71.87" y2="71.914" gradientUnits="userSpaceOnUse" xlink:href="#linearGradient2320"/>
  <linearGradient id="linearGradient3429" x1="113.12" x2="113.82" y1="83.805" y2="83.805" gradientUnits="userSpaceOnUse" xlink:href="#linearGradient2320"/>
  <linearGradient id="linearGradient3433" x1="93.708" x2="93.492" y1="75.632" y2="74.984" gradientUnits="userSpaceOnUse" xlink:href="#linearGradient2320"/>
  <linearGradient id="linearGradient3437" x1="95.351" x2="95.87" y1="75.546" y2="76.714" gradientUnits="userSpaceOnUse" xlink:href="#linearGradient2320"/>
  <linearGradient id="linearGradient3441" x1="60.108" x2="59.395" y1="55.222" y2="56.216" gradientUnits="userSpaceOnUse" xlink:href="#linearGradient2320"/>
  <linearGradient id="linearGradient3445" x1="76.411" x2="90.205" y1="64.173" y2="44.8" gradientUnits="userSpaceOnUse" xlink:href="#linearGradient2320"/>
  <linearGradient id="linearGradient3449" x1="93.103" x2="93.319" y1="60.108" y2="60.757" gradientUnits="userSpaceOnUse" xlink:href="#linearGradient2320"/>
  <linearGradient id="linearGradient3456" x1="57.124" x2="65.816" y1="29.708" y2="47.524" gradientUnits="userSpaceOnUse" xlink:href="#linearGradient2320"/>
  <linearGradient id="linearGradient3460" x1="59.373" x2="62.832" y1="34.508" y2="40.778" gradientUnits="userSpaceOnUse" xlink:href="#linearGradient3332"/>
  <linearGradient id="linearGradient3464" x1="60.454" x2="62.227" y1="36.151" y2="39.697" gradientUnits="userSpaceOnUse" xlink:href="#linearGradient3405"/>
  <linearGradient id="linearGradient3470" x1="72.692" x2="85.535" y1="51.027" y2="37.492" gradientUnits="userSpaceOnUse" xlink:href="#linearGradient2320"/>
  <linearGradient id="linearGradient3474" x1="83.243" x2="79.568" y1="40.605" y2="50.119" gradientUnits="userSpaceOnUse" xlink:href="#linearGradient3332"/>
  <linearGradient id="linearGradient3478" x1="92.281" x2="97.47" y1="34.941" y2="48.735" gradientUnits="userSpaceOnUse" xlink:href="#linearGradient2320"/>
  <linearGradient id="linearGradient3482" x1="100.37" x2="106.03" y1="50.032" y2="41.557" gradientUnits="userSpaceOnUse" xlink:href="#linearGradient2320"/>
  <linearGradient id="linearGradient3486" x1="102.83" x2="106.51" y1="41.686" y2="36.497" gradientUnits="userSpaceOnUse" xlink:href="#linearGradient3332"/>
  <linearGradient id="linearGradient3490" x1="103.52" x2="105.9" y1="41.514" y2="37.924" gradientUnits="userSpaceOnUse" xlink:href="#linearGradient3405"/>
  <linearGradient id="linearGradient3500" x1="65.73" x2="65.557" y1="26.465" y2="33.557" gradientUnits="userSpaceOnUse" xlink:href="#linearGradient3494"/>
  <linearGradient id="linearGradient3504" x1="80.212" x2="84.057" y1="49.732" y2="41.379" gradientUnits="userSpaceOnUse" xlink:href="#linearGradient3405"/>
  <linearGradient id="linearGradient3508" x1="70.401" x2="77.03" y1="19.945" y2="15.703" gradientUnits="userSpaceOnUse" xlink:href="#linearGradient3494"/>
  <linearGradient id="linearGradient3512" x1="75.351" x2="87.283" y1="35.236" y2="17.249" gradientUnits="userSpaceOnUse" xlink:href="#linearGradient3494"/>
  <linearGradient id="linearGradient3516" x1="93.78" x2="98.553" y1="23.437" y2="34.132" gradientUnits="userSpaceOnUse" xlink:href="#linearGradient3494"/>
  <linearGradient id="linearGradient3520" x1="103.86" x2="100.85" y1="29.58" y2="24.895" gradientUnits="userSpaceOnUse" xlink:href="#linearGradient3494"/>
  <linearGradient id="linearGradient3524" x1="101.07" x2="105.71" y1="35.015" y2="30.905" gradientUnits="userSpaceOnUse" xlink:href="#linearGradient3494"/>
  <linearGradient id="linearGradient3528" x1="92.406" x2="85.875" y1="60.5" y2="51.5" gradientUnits="userSpaceOnUse" xlink:href="#linearGradient3494"/>
  <linearGradient id="linearGradient3532" x1="61.688" x2="65.219" y1="61.5" y2="55.344" gradientUnits="userSpaceOnUse" xlink:href="#linearGradient3494"/>
  <linearGradient id="linearGradient3536" x1="59.849" x2="59.762" y1="96.303" y2="97.254" gradientTransform="translate(55.531 -1.4375)" gradientUnits="userSpaceOnUse" xlink:href="#linearGradient3364"/>
 </defs>
 <metadata id="metadata7">
  <rdf:RDF>
   <cc:Work rdf:about="">
    <dc:format>image/svg+xml</dc:format>
    <dc:type rdf:resource="http://purl.org/dc/dcmitype/StillImage"/>
   </cc:Work>
  </rdf:RDF>
 </metadata>
 <g id="layer2" fill-rule="evenodd">
  <path id="path2529" d="m8.5622 88.303 1.5568 5.4054 1.5568 2.4216 2.2919 1.6432 3.6324 1.2541 2.3784 0.38919 1.8595 0.38919 2.8108 0.3027 5.1892-0.25946 3.8054-0.12973 3.8919-0.12973 2.8973-0.25946 4.1514-1.1243 3.1135-1.0811 3.027-3.027 3.2865-5.3189-0.77838 0.34595-1.9459 1.427-1.9459 1.2108-3.2 1.1676-5.7946 1.5568-3.4162 0.51892s-5.7081 0.95135-5.8811 0.90811c-0.17297-0.043243-4.4108 0.086487-4.4108 0.086487l-5.5784-0.56216s-3.6324-1.0378-4.0649-1.1676c-0.43243-0.12973-4.0649-1.9459-4.0649-1.9459l-3.027-2.4216-1.3405-1.6z" fill="url(#linearGradient2531)"/>
  <path id="path2533" d="m8.7351 87.697 1.773 1.773 3.6757 2.8108 4.1081 1.427 6.3568 1.0811 5.7081-0.043243 5.6649-0.51892 4.4973-0.69189 4.8865-1.1243 4.627-2.0324 3.0703-1.3838-0.73514 0.64865-1.5135 1.1676-2.4649 1.2973-4.3676 1.4703-6.7459 1.5135-5.6649 0.73514-4.2811 0.25946-5.9676-0.56216-5.0595-1.3405-2.8973-1.6-1.8162-1.2108-1.9027-1.6865-0.90811-0.95135-0.043243-1.0378z" fill="url(#linearGradient2535)"/>
  <path id="path2537" d="m11.589 90.076 3.7189-0.95135 5.2757-0.99459 7.3081-0.17297 7.9135 0.47568 8.6054 1.3838 4.4973 1.0811-1.8595 0.77838-5.5351 1.6865-8.4324 1.2108-4.5838 0.3027-6.1838-0.43243-5.1027-1.0811-5.4054-2.6378-0.21622-0.64865z" fill="url(#linearGradient2539)"/>
  <path id="path2543" d="m11.589 90.162 2.9405-0.99459 6.0973-0.90811 4.7135-0.25946 10.508 0.56216 8.9514 1.427 4.1514 0.90811 4.5838-2.0757-3.0703-2.3784-6.573-2.2486-3.027-0.60541s-5.7081-0.47568-6.3135-0.47568c-0.6054 0-7.1351-0.43243-7.5676-0.3027-0.43243 0.12973-7.5676 0.43243-7.5676 0.43243l-2.8541 0.43243-2.9405 0.82162-1.9459 0.77838-2.0757 1.2541-0.69189 0.86486 0.51892 0.99459 1.6 1.6432 0.56216 0.12973z" fill="url(#linearGradient2545)"/>
  <path id="path2547" d="m8.5622 86.832 1.3838-1.1676 2.6811-1.6865 5.5351-1.7297 5.6649-0.60541 6.5297 0.12973 6.3568 0.38919 7.0486 0.86486 4.6703 1.4703 3.9351 2.0324 1.5568 1.8162-0.51892 0.12973-4.7568-2.8541-6.4432-1.773-7.4811-0.86486-8.0865-0.17297-4.8 0.17297-3.5892 0.38919-4.1514 0.95135-2.5081 0.95135-2.4649 1.773-0.56216-0.21622z" fill="url(#linearGradient2549)"/>
  <path id="path2551" d="m8.5622 88.303 1.5568 5.4054 1.5568 2.4216 2.2919 1.6432 3.6324 1.2541 2.3784 0.38919 1.8595 0.38919 2.8108 0.3027 5.1892-0.25946 3.8054-0.12973 3.8919-0.12973 2.8973-0.25946 4.1514-1.1243 3.1135-1.0811 3.027-3.027 3.2865-5.3189-0.77838 0.34595-1.9459 1.427-1.9459 1.2108-3.2 1.1676-5.7946 1.5568-3.4162 0.51892s-5.7081 0.95135-5.8811 0.90811c-0.17297-0.043243-4.4108 0.086487-4.4108 0.086487l-5.5784-0.56216s-3.6324-1.0378-4.0649-1.1676c-0.43243-0.12973-4.0649-1.9459-4.0649-1.9459l-3.027-2.4216-1.3405-1.6z" fill-opacity=".15686"/>
  <path id="path2553" d="m11.589 90.162 2.9405-0.99459 6.0973-0.90811 4.7135-0.25946 10.508 0.56216 8.9514 1.427 4.1514 0.90811 4.5838-2.0757-3.0703-2.3784-6.573-2.2486-3.027-0.60541s-5.7081-0.47568-6.3135-0.47568c-0.6054 0-7.1351-0.43243-7.5676-0.3027-0.43243 0.12973-7.5676 0.43243-7.5676 0.43243l-2.8541 0.43243-2.9405 0.82162-1.9459 0.77838-2.0757 1.2541-0.69189 0.86486 0.51892 0.99459 1.6 1.6432 0.56216 0.12973z" fill-opacity=".15686"/>
  <path id="path3132" d="m18.854 93.492 2.9838-7.4811 3.8054 0.086486-2.9405 8.2595-3.4595-0.51892-0.38919-0.34595z" fill="url(#linearGradient3134)"/>
  <path id="path3136" d="m33.47 94.357 3.5027-8.2595 4.8 0.56216-2.5946 7.0486-5.7081 0.64865z" fill="url(#linearGradient3138)"/>
  <path id="path3352" d="m59.33 96.951 0.56216-0.21622v-1.1459l0.32432-0.51892 0.23784 0.17297 0.021622 0.38919-0.25946 1.0162 0.47568 0.71351-0.56216 0.17297-0.54054-0.12973-0.25946-0.45405z" fill="url(#linearGradient3354)"/>
  <path id="path3360" d="m55.784 52.627-15.914 6.7027 1.8595 0.73514 15.741-6.4865-1.6865-0.95135z" fill="url(#linearGradient3362)"/>
  <path id="path3364" d="m41.6 63.005 0.043243-3.027 15.741-6.227 1.3838 0.47568v0.73514s1.2541 0.34595 0.82162 0.64865c-0.43243 0.3027-17.903 7.4811-17.989 7.3946z" fill="url(#linearGradient3366)"/>
  <path id="path3368" d="m39.524 59.416c0.56216 0.12973 2.1189 0.47568 2.1189 0.47568v3.2865l-0.38919 0.12973-1.773-1.2973 0.043243-2.5946z" fill="url(#linearGradient3371)"/>
  <path id="path3373" d="m44.714 44.973 0.086486 31.481 0.82162 0.95135 1.3405 0.43243 0.043243-11.2-0.64865-4.4973 0.086486-16.346-1.7297-0.82162z" fill="url(#linearGradient3375)"/>
  <path id="path3377" d="m47.092 77.449-0.086487-10.854-0.6054-4.627 0.12973-15.784 1.3838 0.86486-0.086487 16.13 0.086487 13.795-0.21622 0.56216-0.6054 0.3027v-0.38919z" fill="url(#linearGradient3379)"/>
  <path id="path3389" d="m78.357 66.638 0.086486 30.53 0.56216 0.77838 1.2973 0.56216 0.12973-0.21622-0.25946-10.032 0.56216-8.0865 0.043243-14.227-2.4216 0.69189z" fill="url(#linearGradient3391)"/>
  <path id="path3395" d="m80.822 65.989-0.086487 13.924-0.6054 8.6919 0.34595 10.032 0.82162-0.21622 0.47568-0.34595-0.043243-13.449v-5.7514l-0.043243-13.362-0.86486 0.47568z" fill="url(#linearGradient3397)"/>
  <path id="path3381" d="m45.146 61.578 23.438 15.005 7.6625 4.9799 2.9475 2.3507 3.0116 2.0964-1.3405 0.38919-28.324-18.854-8.3027-5.4486 0.90811-0.51892z" fill="url(#linearGradient3383)"/>
  <path id="path3385" d="m44.411 62.141-2.5081 0.9946 14.616 9.5135 24.216 15.957v-2.3351l-20.541-13.578-11.546-7.827-4.2378-2.7243z" fill="url(#linearGradient3387)"/>
  <path id="path3399" d="m74.378 82.768 1.9459 0.21622-0.17297 2.6378-1.6865-0.38919-0.086487-2.4649z" fill="url(#linearGradient3401)"/>
  <path id="path3404" d="m80.692 86.443 1.6-0.43243v2.0757l-1.5135 0.64865-0.086486-2.2919z" fill="url(#linearGradient3406)"/>
  <path id="path3409" d="m98.508 59.373 12.151 8.173 3.7622 2.5081 2.4649 1.1676v2.5946l-8.5189-5.4054-11.892-8.3459 2.0324-0.69189z" fill="url(#linearGradient3412)"/>
  <path id="path3414" d="m98.508 59.286 12.541 8.5189 3.0703 2.0324 2.8108 1.6 1.3838-0.47568-6.8774-4.1291-11.804-7.9358-1.1243 0.38919z" fill="url(#linearGradient3416)"/>
  <path id="path3418" d="m116.89 71.438-0.04325 2.5081 1.5135-1.0811 0.12973-1.8162-1.6 0.38919z" fill="url(#linearGradient3420)"/>
  <path id="path3423" d="m110.83 54.746 0.04325 31.481 0.86486 0.43243 0.95135 0.043244 0.08649-20.108-0.17297-12.584-1.773 0.73514z" fill="url(#linearGradient3425)"/>
  <path id="path3427" d="m112.74 54.054-0.04325 32.649 0.86487-0.17297 0.64865-0.64865-0.43244-19.762-0.12973-12.368-0.9081 0.3027z" fill="url(#linearGradient3429)"/>
  <path id="path3431" d="m74.811 82.595 1.3838 0.43243 21.146-8.7784 21.362-8.8649-1.5135-0.34595-15.092 6.3135-17.73 7.1784-9.5568 4.0649z" fill="url(#linearGradient3433)"/>
  <path id="path3435" d="m76.108 82.897 22.573-9.2108 19.978-8.3459 0.17297 0.34595 0.04325 1.773-18.249 7.827-24.519 10.335v-2.7243z" fill="url(#linearGradient3437)"/>
  <path id="path3439" d="m42.508 43.114 2.9838 0.95135 4.2378 2.9405 0.69189 1.6 4.0216 1.6865 4.3676 2.8541 0.21622 0.51892 3.9351 3.5027 0.77838-0.043243 4.3243 2.9405v1.3405l4.7135 1.9892-0.043243 0.99459 3.8486 1.9459-0.21622 1.1243-3.8486-1.7297-0.12973-1.0378-4.8-2.0324 0.12973-1.3838-4.1081-2.9405-0.90811 0.086487-3.8486-3.5027v-0.47568l-4.7135-2.9838-4.2378-1.9892 0.043243-0.82162-4.4973-3.2865-3.1568-1.5568-0.086487-0.64865 0.3027-0.043244z" fill="url(#linearGradient3441)"/>
  <path id="path3443" d="m53.492 37.665-11.157 4.0649 0.17297 1.2541 3.2 1.0811 4.4108 3.1568 0.17297 1.2973 4.0216 1.7297 4.7135 3.027 0.12973 0.51892 3.6757 3.3297 1.1243 0.12973 3.9784 2.8973-0.043243 1.2541 4.973 2.0757-0.086487 0.95135 3.7189 1.6865s43.2-15.438 42.768-15.697c-0.43243-0.25946-3.5459-2.3351-3.5459-2.3351l0.69189-0.56216-5.0595-2.6378 0.51892-0.6054-2.2486-0.77838-0.08648 4.0649-10.551 4.627-8.3459-5.7946-6.6162 2.2486-0.043244 0.38919-4.6703 1.9027-0.17297-0.43243-8.3459 2.8973-17.427-12.411 0.12973-3.3297z" fill="url(#linearGradient3445)"/>
  <path id="path3447" d="m76.627 66.249-0.21622 1.2973 42.638-15.784-0.21622-1.5135-15.092 5.7081-18.162 6.7892-8.9514 3.5027z" fill="url(#linearGradient3449)"/>
  <path id="path3453" d="m53.492 25.6-0.086487 15.265 17.254 12.497 0.73514-15.741-17.903-12.022z" fill="url(#linearGradient3456)"/>
  <path id="path3458" d="m57.73 32.303 0.086486 6.4 6.4865 4.7568 0.17297-6.7892-6.7459-4.3676z" fill="url(#linearGradient3460)"/>
  <path id="path3462" d="m59.2 34.681-0.043243 3.3297 3.9351 2.7676 0.043243-3.5459-3.9351-2.5514z" fill="url(#linearGradient3464)"/>
  <path id="path3468" d="m71.265 38.011 19.632-7.1784-0.086486 15.611-5.1459 1.8595-0.34595-10.768-7.5676 2.4216v10.897l-6.9622 2.5946 0.47568-15.438z" fill="url(#linearGradient3470)"/>
  <path id="path3472" d="m77.622 50.811-0.043244-10.768 7.827-2.6378 0.043244 10.811-1.3838 0.38919-0.043243 0.64865-4.7568 1.6865-0.12973-0.51892-1.5135 0.38919z" fill="url(#linearGradient3474)"/>
  <path id="path3476" d="m90.897 31.135-0.043243 15.265 8 5.7946 0.25946-15.827-8.2162-5.2324z" fill="url(#linearGradient3478)"/>
  <path id="path3480" d="m98.984 52.281-0.12973-15.654 10.811-4.8865-0.12972 15.914-10.551 4.627z" fill="url(#linearGradient3482)"/>
  <path id="path3484" d="m101.49 37.622v6.6595l6.5297-2.8108 0.17297-6.6162-6.7027 2.7676z" fill="url(#linearGradient3486)"/>
  <path id="path3488" d="m102.66 42.335 0.12973-3.8486s3.7622-1.7297 3.7622-1.5568 0.08649 3.8486 0.08649 3.8486l-3.9784 1.5568z" fill="url(#linearGradient3490)"/>
  <path id="path3492" d="m52.843 24.951 13.059-2.3784 5.6649 15.092-18.724-12.714z" fill="url(#linearGradient3500)"/>
  <path id="path3502" d="m79.108 50.483-0.044194-9.4134 4.9939-1.7236-0.044194 9.8995-4.7288 1.591-0.17678-0.35355z" fill="url(#linearGradient3504)"/>
  <path id="path3506" d="m52.812 24.674 13.126-2.2539 21.92-7.8224-4.2426-1.6794-30.803 11.756z" fill="url(#linearGradient3508)"/>
  <path id="path3510" d="m65.938 22.553 22.097-8.0433 12.905 10.739-8.2201-4.0217-1.8562 9.5017-19.313 7.1153-5.6127-15.291z" fill="url(#linearGradient3512)"/>
  <path id="path3514" d="m92.675 21.315-1.812 9.4134 8.1317 5.6127 4.5962-6.143-10.916-8.883z" fill="url(#linearGradient3516)"/>
  <path id="path3518" d="m92.985 21.448 8.2643 4.0659s8.9272 6.0546 8.7504 6.0546-6.364-1.3258-6.364-1.3258l-10.651-8.7946z" fill="url(#linearGradient3520)"/>
  <path id="path3522" d="m98.951 36.12 4.8172-5.922 6.3198 1.5026-10.872 4.9497-0.26516-0.53033z" fill="url(#linearGradient3524)"/>
  <path id="path3526" d="m78.798 61.797 1.0607-1.9003-0.35355-0.7955 0.7513 0.30936 0.61872-1.2816 2.3423-2.9168 2.1886-1.8059 2.0312-1.2188 3.3438-1.5625 3.4375-0.90625 1.9688-0.25 2.9688-0.21875 2.0312-0.0625-0.03125 0.34375-3.2188 0.03125-2.9062 0.375-3.0312 0.71875-2.5 1.0312-2.75 1.8125-2.1562 1.75-2.4688 2.5625-1.4375 1.7812 0.5625 0.03125-0.46875 0.65625 0.0625 2.0312-0.40625 0.0625h-0.375l0.15625-1.7812-0.375 0.75-0.46875 0.6875-0.57679-0.23412z" fill="url(#linearGradient3528)"/>
  <path id="path3530" d="m53.406 50.438h2.5625l2.3438 0.15625 4.1562 0.75 1.875 0.75 2.7812 1.25 3.6562 2.375 2.875 3.5 0.84375 1.5 0.75-0.1875-0.4375 0.6875 1 1.875-0.65625 0.03125-0.65625-1.375 0.21875 1.8125-0.75 0.03125 0.0625-1.7812-0.5-0.90625 0.21875-0.09375-2.625-3.375-3.6875-3.1562-3.25-1.8438-2.9375-0.96875-2.9062-0.53125-2.1875-0.09375-1.5-0.0625-0.625-0.03125-0.625-0.09375-0.1875-0.15625 0.1875-0.0625z" fill="url(#linearGradient3532)"/>
  <path id="path3534" d="m114.86 95.514 0.56216-0.21622v-1.1459l0.32433-0.51892 0.23783 0.17297 0.02163 0.38919-0.25946 1.0162 0.47567 0.71351-0.56216 0.17297-0.54054-0.12973-0.25946-0.45405z" fill="url(#linearGradient3536)"/>
  <path id="path3538" d="m39.524 59.416c0.56216 0.12973 2.1189 0.47568 2.1189 0.47568v3.2865l-0.38919 0.12973-1.773-1.2973 0.043243-2.5946z" fill-opacity=".15686"/>
  <path id="path3540" d="m44.714 44.973 0.086486 31.481 0.82162 0.95135 1.3405 0.43243 0.043243-11.2-0.64865-4.4973 0.086486-16.346-1.7297-0.82162z" fill-opacity=".15686"/>
  <path id="path3542" d="m78.357 66.638 0.086486 30.53 0.56216 0.77838 1.2973 0.56216 0.12973-0.21622-0.25946-10.032 0.56216-8.0865 0.043243-14.227-2.4216 0.69189z" fill-opacity=".15686"/>
  <path id="path3544" d="m44.411 62.141-2.5081 0.9946 14.616 9.5135 24.216 15.957v-2.3351l-20.541-13.578-11.546-7.827-4.2378-2.7243z" fill-opacity=".15686"/>
  <path id="path3546" d="m74.378 82.768 1.9459 0.21622-0.17297 2.6378-1.6865-0.38919-0.086487-2.4649z" fill-opacity=".15686"/>
  <path id="path3548" d="m98.508 59.373 12.151 8.173 3.7622 2.5081 2.4649 1.1676v2.5946l-8.5189-5.4054-11.892-8.3459 2.0324-0.69189z" fill-opacity=".15686"/>
  <path id="path3550" d="m110.83 54.746 0.04325 31.481 0.86486 0.43243 0.95135 0.043244 0.08649-20.108-0.17297-12.584-1.773 0.73514z" fill-opacity=".15686"/>
  <path id="path3552" d="m42.508 43.114 2.9838 0.95135 4.2378 2.9405 0.69189 1.6 4.0216 1.6865 4.3676 2.8541 0.21622 0.51892 3.9351 3.5027 0.77838-0.043243 4.3243 2.9405v1.3405l4.7135 1.9892-0.043243 0.99459 3.8486 1.9459-0.21622 1.1243-3.8486-1.7297-0.12973-1.0378-4.8-2.0324 0.12973-1.3838-4.1081-2.9405-0.90811 0.086487-3.8486-3.5027v-0.47568l-4.7135-2.9838-4.2378-1.9892 0.043243-0.82162-4.4973-3.2865-3.1568-1.5568-0.086487-0.64865 0.3027-0.043244z" fill-opacity=".15686"/>
  <path id="path3554" d="m53.492 25.6-0.086487 15.265 17.254 12.497 0.73514-15.741-17.903-12.022z" fill-opacity=".15686"/>
  <path id="path3556" d="m90.897 31.135-0.043243 15.265 8 5.7946 0.25946-15.827-8.2162-5.2324z" fill-opacity=".15686"/>
  <path id="path3558" d="m52.843 24.951 13.059-2.3784 5.6649 15.092-18.724-12.714z" fill-opacity=".15686"/>
  <path id="path3560" d="m92.675 21.315-1.812 9.4134 8.1317 5.6127 4.5962-6.143-10.916-8.883z" fill-opacity=".15686"/>
 </g>
 <g id="layer1">
  <path id="path2309" d="m83.469 12.719-31.312 12.031 1.0312 0.71875-0.03125 12.156-11.125 4.1875 0.03125 1.3438v0.78125l2.5312 1.0312-0.03125 12.156-5.1562 2.1562-0.09375 2.7812 2.0312 1.4062 0.46875-0.1875 2.8438 1.8438-0.09375 11.375c0.64601 1.0723 1.5141 1.3302 2.4062 1.5 0.54437-0.22465 1.3051-0.25458 1.0625-1.1875v-9.4688l8.0625 5.25 1.9062 15.094c-1.2253 0.32632-2.5198 0.55252-3.8438 0.75-0.25595-0.82421-0.99584-1.3302-1.7188-1.9062-5.295-3.6735-11.688-4.1548-17.875-4.6562-2.9572-0.22536-6.1352-0.45356-9.2812-0.4375-7.0658 0.21082-13.237 1.7702-16.5 5.0938-0.54961-0.16696-0.54653 0.80423-0.625 0.90625 0.49964 3.4473 1.447 6.3528 3.5862 9.0938 3.1559 1.4684 1.0371 2.2747 12.312 3.625 1.959 0.32595 8.447-0.51739 10.008-0.40625l-0.0625 0.0625c5.8079 3.6798 11.78 6.423 18 4.4062l-0.125-0.34375c-5.7488 1.864-11.863-0.53396-17.562-4.125 4.5971 0.27668 9.1595-0.81342 13.5-2.625 2.9121-2.3026 4.82-5.1523 6.375-8.4375 1.2836-0.19067 2.5693-0.43808 3.8438-0.75l1.1875 9.4062 0.03125-0.03125c0.52018 0.55508 1.0423 0.29206 1.5625 0.09375-0.18488-0.64583 0.10636-0.10417-0.53125-0.75l0.34375-1.0625c-0.037564-0.78662-0.52459-0.80628-0.8125-0.09375l0.0625 1.1562c-0.18625 0.05304-0.31498 0.0934-0.40625 0.125l-1.1562-8.9062c1.1945-0.30445 2.3688-0.67369 3.4688-1.1562 2.4193-1.0613 4.3535-2.5242 6.0312-6.1875 0.057692 1.3371 0.66267 2.3495-0.0625 4.1562l0.5625 0.0625c0.11154-1.5699 0.09293-2.7596-0.09375-4.0312 0.30926 0.90359 1.0412 1.0219 1.5312 0.78125l4.5625 2.9688v0.90625l1.7812 0.53125 0.15625-0.0625 1.9688 1.3125 0.09375 10.125c0.02434 0.57209 0.57584 1.094 2.3438 1.5 0.59935-0.14039 1.066-0.36038 1.25-0.75l-0.0625-9.5938 0.59375-0.28125v-2.2812l-0.59375-0.375v-2.0312l26-11.125 1.8438 6.1875c-3.3416 1.1816-4.8696 4.5723-4.5 9.5312l0.28125 0.21875c-0.65461-4.8597 1.1547-7.899 4.4062-9.125l0.78125 2.5625-0.03125 4.4688c0.37508 0.65861 0.95776 0.6278 1.5312 0.625l0.90625 3.0312c-2.3041 0.06993-3.9964-1.3246-4.8438-4.0625l-0.125 0.1875c0.66695 3.5586 2.4951 4.4118 5.0312 4.0625l0.71875 2.375c-0.3162 0.14648-0.56599 0.40283-0.71875 0.875l0.21875 0.03125c0.08905-0.29385 0.30149-0.47854 0.59375-0.59375l0.84375 2.8438c-0.01332 0.06821 0.00165 0.17345-0.03125 0.34375 0.06641 0.07539 0.12109 0.13771 0.1875 0.1875l0.03125 0.0625 0.03125-0.03125c0.44538 0.28832 0.89837 0.07604 1.3438-0.09375-0.18488-0.64583 0.10636-0.10417-0.53125-0.75l0.34375-1.0625c-0.03756-0.78662-0.52459-0.80628-0.8125-0.09375l0.0625 1.1562c-0.16932 0.04822-0.28547 0.06404-0.375 0.09375l-0.8125-2.7188c0.65677-0.15419 1.5092-0.09743 2.0625-0.09375l0.28125-0.125c-0.95431-0.10205-1.7942-0.27353-2.4375-0.125l-0.71875-2.3438c0.67521-0.11302 1.3936-0.28953 2.1562-0.53125l-0.0625-0.15625c-0.76103 0.2944-1.4558 0.4752-2.125 0.53125l-0.90625-2.9688c0.08309 0.00498 0.16979-0.01453 0.25 0 1.2756-0.07827 1.2825-0.57946 1.625-0.96875l-0.15625-7.3125c0.64734 0.02127 1.3014 0.074827 2 0.1875l0.21875-0.1875c-0.78156-0.20015-1.5177-0.32005-2.2188-0.40625l-0.125-5.8438 3 1.8438 1.4375-1.1562 0.1875-1.9688-3.1562-1.9688 3.5-1.5v-2.375l-1.75-0.3125-3.375 1.375-0.125-12.438 5.5-2.0312 0.15625-1.3438-3.375-2.3438 0.53125-0.53125-5.0312-2.625 0.53125-0.6875-2.2812-0.71875-0.03125-11.5 0.84375-0.375-8.5625-5.875-13.875-11.5-4.7188-1.5625zm0.15625 0.5625 3.4375 1.3438-21.219 7.625-9.5625 1.8125 27.344-10.781zm-2.0625 0.875-0.09375 0.09375 1.625 0.9375-2.8125 1.0312-1.3438-0.96875-0.15625 0.09375 1.2188 0.96875-5.125 1.9375-1.1562-0.65625c0.22883-0.094539 0.45917-0.18652 0.6875-0.28125l-0.09375-0.09375c-0.24152 0.096251-0.50618 0.18453-0.75 0.28125l-0.25-0.125-0.09375 0.125 0.15625 0.09375c-2.1078 0.83518-4.2696 1.6637-6.4375 2.5l-0.0625-0.03125-0.15625 0.125c-1.4823 0.57148-2.9732 1.139-4.4062 1.6875v0.0625h-0.3125l-0.0625 0.1875 3.2188-0.15625 0.125-0.1875-2.5938 0.125c1.3946-0.50384 2.7932-1.0552 4.1875-1.5938l1.25 0.40625 0.125-0.1875-1.0312-0.34375c2.1188-0.82213 4.219-1.6674 6.3125-2.5312l1.125 0.65625-0.8125 0.3125 0.0625 0.09375 0.875-0.34375 0.65625 0.375 0.21875-0.09375-0.65625-0.34375 5.0938-1.9062 0.5625 0.4375 0.1875-0.1875-0.46875-0.34375 2.8125-1.0625 0.71875 0.40625 0.125-0.1875-0.59375-0.3125 1-0.375-0.03125-0.09375-1.0938 0.40625-1.75-0.9375zm6.3125 0.8125 12.438 9.9062-7.75-3.75-1.7812 9.3438-18.938 7.0625-5.625-14.969 21.656-7.5938zm0.375 1-0.6875 0.28125-0.1875-0.21875-0.125 0.0625 0.1875 0.1875-5.7188 2.2812-0.03125-0.09375h-0.15625l0.0625 0.15625-2.9688 1.1875-0.28125-0.5-0.1875 0.15625 0.25 0.4375-8.5938 3.4062-0.1875-0.40625-0.21875 0.125 0.15625 0.375-1.3438 0.53125 0.125 0.1875 1.3125-0.53125 1.2812 2.9375-0.71875 0.28125 0.09375 0.15625 0.6875-0.28125 1.8125 4.0938 0.25-0.15625-1.8125-4.0312 2.5625-1.0312 3.4062 7.1875 0.15625-0.0625-3.375-7.1875 6.1875-2.4688 2.0312 3.625 0.15625-0.1875-1.9688-3.5 2.7812-1.125-0.1875-0.1875-2.7188 1.0938-1.5938-2.8125 2.9688-1.1875 1.2188 2.625 0.1875-0.09375-1.25-2.5625 3.25-1.3125 2.5938 3.7188-0.65625 0.28125 0.03125 0.15625 0.71875-0.28125 2.0938 2.9688 0.15625-0.125-2.125-2.9062 3.0938-1.2188 0.625 0.65625 0.125-0.09375-0.59375-0.625 0.59375-0.21875-0.15625-0.1875-0.59375 0.25-3.3125-3.4375 0.78125-0.3125-0.1875-0.0625zm-0.71875 0.4375 3.2812 3.4375-3.0312 1.25-2.6875-3.7188 2.4375-0.96875zm-9.0625 3.625 1.5938 2.8125-6.1562 2.4688-0.5625-1.1875-0.15625 0.09375 0.5625 1.1875-2.5625 1.0312-1.3125-2.9375 8.5938-3.4688zm14.312 1.6562 10.469 8.5938-4.3125 5.6562-7.9062-5.4062 1.75-8.8438zm0.59375 0.125 7.2812 3.6562 0.84375 0.6875 6.875 4.8438-4.4688-1.0312-10.531-8.1562zm-8.3438 0.34375-0.125 0.09375 1.9688 3.5-8.1875 3.625-1.375-2.6875-0.15625 0.03125 1.375 2.7188-1.3125 0.59375v0.09375l1.3438-0.59375 1.3125 2.5625c-2.2383 0.9401-4.4707 1.8889-6.7188 2.8438l-0.65625-1.5625-0.25 0.09375 0.65625 1.5625c-0.22025 0.093367-0.43522 0.18814-0.65625 0.28125l0.09375 0.0625c0.19846-0.082264 0.39529-0.16773 0.59375-0.25l0.34375 0.78125 0.21875-0.09375-0.3125-0.78125c2.2485-0.93197 4.4954-1.8643 6.75-2.7812l0.21875 0.4375 0.1875-0.125-0.21875-0.40625c1.0174-0.41333 2.0424-0.81256 3.0625-1.2188l-0.125-0.1875c-1.0177 0.40606-1.9986 0.86153-3 1.2812l-1.3125-2.5938 8.1562-3.5938 1.8438 3.25 0.1875-0.0625-1.875-3.2812 3-1.3125-0.03125-0.0625-3 1.3125-2-3.5312zm-19.25 0.71875 5.3438 14.375-17.438-12.156 0.8125-0.3125 11.281-1.9062zm-2.375 0.71875 0.21875 0.3125c0.20922 0.16273 0.53816 0.41788 0.96875 0.75l-2.2188 3.7188c-1.11-0.76083-2.2283-1.5269-3.3438-2.2812l0.28125-0.4375-0.125-0.125-0.3125 0.46875c-0.50895-0.34379-1.0195-0.69076-1.5312-1.0312l-0.3125 0.125c0.5651 0.39546 1.1491 0.7671 1.7188 1.1562l-0.71875 1.125 0.125 0.09375 0.71875-1.125c1.1209 0.76448 2.2426 1.5329 3.375 2.2812l-0.40625 0.65625 0.09375 0.1875 0.46875-0.75c0.67812 0.44773 1.3514 0.89866 2.0312 1.3438l-0.25 0.375 0.21875 0.09375 0.21875-0.34375c0.87589 0.57323 1.7498 1.1453 2.625 1.7188 0.013826 0.006224 0.036518 0.010345 0.125-0.125-0.88773-0.59181-1.7445-1.2126-2.625-1.8125l1.1562-1.9375-0.09375-0.15625-1.25 2c-0.6817-0.4649-1.3509-0.9399-2.0312-1.4062l2.2188-3.6875c0.74672 0.57573 1.6562 1.2812 1.6562 1.2812l0.0625-0.1875c1e-6 0-0.86922-0.65826-1.625-1.2188l0.5-0.84375-0.1875-0.0625-0.46875 0.78125c-0.58984-0.43792-1.0735-0.7759-1.2812-0.9375zm29.844 0c-0.048026 0.11659-0.054307 0.06614-0.15625 0.1875 0.16144 0.1775 0.32799 0.33672 0.5 0.5l-1.2188 4.25c-0.10074-0.096375-0.21608-0.18166-0.3125-0.28125 0.005287 0.033338 0.002604 0.072917-0.0625 0.125 0.10703 0.11038 0.23197 0.20634 0.34375 0.3125l-0.1875 0.65625 0.15625 0.0625 0.15625-0.5625c0.5501 0.50568 1.1573 0.93606 1.7812 1.375l-0.78125 1.0625 0.1875 0.0625 0.78125-1c0.54945 0.38032 1.0929 0.79012 1.6562 1.1562l-0.34375 0.53125 0.28125 0.0625 0.28125-0.46875c0.76195 0.49647 1.5173 0.98648 2.2188 1.5312l-0.34375 0.5 0.15625 0.1875 0.40625-0.53125c0.10273 0.082395 0.21245 0.16538 0.3125 0.25v-0.21875c-0.067838-0.056069-0.14954-0.10104-0.21875-0.15625l1.6875-2.2812 0.8125 0.65625v-0.28125l-0.6875-0.5625 0.65625-0.875-0.25-0.15625-0.625 0.875-2.3125-1.8438 0.3125-0.46875-0.1875-0.125-0.28125 0.46875-0.90625-0.71875-0.125 0.15625 0.90625 0.71875-1.6562 2.5625c-0.55791-0.36212-1.1125-0.71734-1.6562-1.0938l0.5625-0.71875-0.25-0.0625-0.5 0.65625c-0.63609-0.4475-1.2595-0.92609-1.8125-1.4375l1.25-4.1875c0.64932 0.58832 1.3589 1.1283 2.0625 1.6562l-0.71875 1.4062 0.15625 0.0625 0.75-1.3438c0.20944 0.15837 0.41878 0.3038 0.625 0.46875l0.09375-0.09375c-0.22776-0.16806-0.43451-0.35684-0.65625-0.53125l0.25-0.4375-0.1875-0.15625-0.25 0.46875c-0.70388-0.56273-1.378-1.1608-2.0312-1.7812l0.15625-0.53125-0.25-0.0625-0.125 0.40625c-0.13759-0.13277-0.27047-0.2712-0.40625-0.40625zm-31.656 0.46875-1.2188 1.9062 0.1875 0.03125 1.1562-1.7812-0.125-0.15625zm36.25 0.3125 0.5 0.40625-0.71875-0.21875 0.03125 0.125 0.84375 0.25 4.8125 3.9062c-0.1645 0.012968-0.37275 0.03125-0.4375 0.03125l0.09375 0.125c0.07085 0 0.30556-0.018636 0.5-0.03125l0.84375 0.6875 0.125 0.03125-0.875-0.71875c0.65129-0.044197 1.5625-0.125 1.5625-0.125l-0.1875-0.15625s-0.90686 0.072867-1.5312 0.125l-4.6562-3.8438 1.875 0.53125-0.15625-0.09375-1.9062-0.5625-0.5625-0.46875h-0.15625zm-43.906 1.625 17 11.875-0.03125 1.3438-16.969-12.094v-1.125zm-0.03125 1.2812 16.969 12.156-0.03125 1.5-6.0312-4.3125v-0.1875l-4.7812-3.1875-6.125-4.375v-1.5938zm30.75 0.125-0.125 0.0625 1.6875 3.0938 0.125-0.09375-1.6875-3.0625zm13.375 1.5 2.2812 1.8125-1.6562 2.3125c-0.70237-0.5439-1.4454-1.0593-2.2188-1.5625l1.5938-2.5625zm-44.125 0.125 3.6562 2.625v1.5312l-3.6875-2.625 0.03125-1.5312zm49.812 1.375 5.3438 1.2188-9.5938 4.4688 4.25-5.6875zm-49.844 0.3125 3.6875 2.625-0.03125 1.5938-3.6875-2.625 0.03125-1.5938zm10.688 0.28125-0.03125 0.1875c1.6028 0.92566 2.9294 2.3959 4.5 3.375l0.0625-0.1875c-1.6131-0.94341-2.9241-2.4218-4.5312-3.375zm26.094 0.1875v1.5l-19.188 6.4375 0.03125-1.0312 19.156-6.9062zm15.375 0-0.1875 0.03125 0.6875 1.375 0.28125-0.03125-0.78125-1.375zm-15 0.09375 7.625 5.2812v1.4062l-7.625-5.4062v-1.2812zm12.625 0.0625-0.28125 0.09375 0.875 1.6562-2.625 1.2812v0.25l2.75-1.3125 0.15625 0.28125 0.1875-0.21875-0.09375-0.15625 0.96875-0.46875-0.15625-0.25-0.9375 0.46875-0.84375-1.625zm5.6875 0.90625v1.8438l-10.188 4.0625v-1.25l10.188-4.6562zm-55.5 0.21875 3.6875 2.625v1.5625l-3.6875-2.5938v-1.5938zm37.188 0.21875h0.03125l7.5938 5.4688v1.5625l-7.625-5.4062v-1.625zm-32.844 0.125 6 4.125v5.6875l-6-4.125v-5.6875zm32.469 0v1.5938l-19.25 6.4375 0.0625-1.5625 19.188-6.4688zm-31.844 1.0312 0.0625 4.2188 4.5312 3.3125 0.03125-4.4688-4.625-3.0625zm-4.9688 0.34375 3.6875 2.625-0.03125 1.875-3.6875-2.625 0.03125-1.875zm55.5 0.03125-0.03125 1.5625-1.0312 0.4375 0.03125-1.5625 1.0312-0.4375zm-18.312 0.1875 7.625 5.5312v1.4688l-7.5938-5.4062-0.03125-1.5938zm-0.375 0.125-0.03125 1.5625-5.0938 1.6875-0.03125-0.59375-8.125 2.7188v0.625l-6 2 0.03125-1.5 19.25-6.5zm-31.219 0.40625 3.375 2.3125v3.0625l-3.375-2.3438v-3.0312zm48.375 0.46875v5.75l-6 2.625-0.03125-5.875 6.0312-2.5zm1.5 0.53125v1.5312l-1.0625 0.4375 0.03125-1.5625 1.0312-0.40625zm-18.25 0.15625 7.5938 5.5312v1.5625l-7.5938-5.375v-1.7188zm-37.25 0.09375 3.6875 2.6562v0.09375l4.4062 3.0625 8.6875 6.2188-0.03125 1.25-16.781-11.906 0.03125-1.375zm36.812 0.03125v1.5938l-5.0625 1.7188-0.03125-1.5625 5.0938-1.75zm16.25 0.25-4.3125 1.9688-0.0625 4.2812 4.375-1.6562v-4.5938zm-42.062 0.34375 6.0312 4.3125-0.0625 1.4375-6.0312-4.25 0.0625-1.5zm41.625 0.4375v3.25l-3.4062 1.4375 0.03125-3.2188 3.375-1.4688zm-5.2188 0.34375 0.03125 1.4688-2.0938 0.84375v-1.4688l2.0625-0.84375zm8.0938 0.03125v1.5625l-1.0938 0.40625 0.03125-1.5312 1.0625-0.4375zm-55.531 0.09375 16.75 11.969-0.03125 1.4062-16.719-11.906v-1.4688zm31.281 0.03125 0.125 10.281-0.9375 0.3125v-9.4062l-5.375 2 0.0625 9.2812-1 0.34375v-10.469l7.125-2.3438zm5.5625 0.1875v1.7188l-5 1.6875-0.0625-1.6875 5.0625-1.7188zm0.4375 0 7.5938 5.4688v1.5312l-7.5938-5.375v-1.625zm-37.906 0.34375v2.5l-7.625 2.875-2.75-0.8125-0.09375-0.875 10.469-3.6875zm11.594 0.21875 6.0312 4.2812-0.0625 1.5625-6-4.2812 0.03125-1.5625zm36.5 0.78125v1.4688l-2.0625 0.84375-0.03125-1.4375 2.0938-0.875zm-47.469 0.03125 16.719 12-0.0625 1.625-3.8438-2.8125-0.03125-0.0625h-0.03125l-12.781-9.3125 0.03125-1.4375zm55.531 0-0.03125 1.7188-1.0938 0.4375 0.03125-1.7188 1.0938-0.4375zm-25.5 0.21875v9.1875 0.3125l-4.4062 1.5625-0.03125-0.53125-0.0625-8.8125 4.5-1.7188zm7.25 0.15625 7.5938 5.4688v1.8125l-7.5938-5.375v-1.9062zm-0.4375 0.09375v1.5938l-4.9375 1.6562-0.0625-1.5625 5-1.6875zm-25.906 0.46875 6 4.2812-0.0625 1.5312-5.9688-4.2812 0.03125-1.5312zm12.656 0.4375v1.5625l-6.0625 2.0312 0.0625-1.5625 6-2.0312zm23.875 0.28125 0.03125 1.4688-2.0938 0.8125v-1.4062l2.0625-0.875zm8.0312 0.1875v1.625l-10.094 4.0312v-1.4375l2.125-0.875v0.0625l6.875-2.9375 1.0938-0.46875zm-56 0.125 3.9375 2.8125-7.2188 2.75-4.0312-2.875 7.3125-2.6875zm37.344 0.21875-0.03125 1.5625-4.875 1.6562-0.03125-1.5625 4.9375-1.6562zm0.4375 0.1875 7.5938 5.4688v1.3125l-7.5625-5.375-0.03125-1.4062zm-26.375 0.25 5.9688 4.2812-0.0625 1.8125-5.9688-4.2812 0.0625-1.8125zm12.688 0.46875 0.03125 1.6562-6.1562 2.0625 0.0625-1.6875 6.0625-2.0312zm23.906 0.25 0.03125 1.5938-2.125 0.84375v-1.5625l2.0938-0.875zm8 0.25v1.5625l-10.062 4.0625-0.03125-1.4688 10.094-4.1562zm-66.812 0.28125 2.8125 1.0938-0.03125 0.59375-2.8125-1.1875 0.03125-0.5zm48.625 0.03125 7.5625 5.4688v0.5625c-0.35574 0.013236-0.73922 0.040234-1.125 0.0625l-6.4375-4.5625v-1.5312zm-0.5 0.03125v1.4688l-4.8125 1.5938-0.0625-1.4375 4.875-1.625zm19.219 0.75 1.8125 0.5-1.8125 0.5625v-1.0625zm-32.406 0.21875v1.5938l-6.1875 2.0625 0.03125-1.5938 6.1562-2.0625zm-19.844 0.1875 3.9375 2.7812-7.2188 2.75-3.8125-1.4062-0.09375-1.25 7.1875-2.875zm51.719 0.1875-0.03125 1.5312-7.9375 3.1875-0.0625-0.1875c-0.54706 0.045182-1.2708 0.069571-2.0312 0.09375v-0.40625l10.062-4.2188zm-63.469 0.0625 4.1562 2.9375-0.03125 0.65625-4.1875-3.0312 0.0625-0.5625zm45.281 0.1875 6.1875 4.4688c-0.53288 0.034096-1.0812 0.09016-1.6562 0.15625l-4.5312-3.375v-1.25zm-0.5 0.03125v1.25l-4.7812 1.6875-0.03125-1.3438 4.8125-1.5938zm20.562 0.25 4.8438 2.5-13.812 4.9375-0.375-1.2812 8-3.4375v-2.25l1.3438-0.46875zm-66.188 0.125 1.3125 0.9375-0.09375 15.812-1.125-0.71875-0.09375-16.031zm32.438 0.75v1.5l-6.25 2.0938 0.0625-1.5312 6.1875-2.0625zm31.844 0.25v1l-7.6562 3.4062-0.3125-1.0938 7.9688-3.3125zm-62.656 0.15625 1.1562 0.8125-0.09375 15.625-1.1562-0.65625 0.09375-15.781zm44.219 0.40625 0.46875 0.34375-21.844 7.5312c-0.94219-0.64699-1.9892-1.2476-3.1875-1.8438-0.84761-0.47285-1.7009-0.82094-2.5625-1.125l2.7188-1.0312 4.2188 3.0312 8.4375-2.875 0.0625 0.28125 5.0312-1.8125v-0.25l6.6562-2.25zm-29.094 0.46875 4.1562 3.0312-2.9062 1.1562c-3.0504-0.93729-5.9367-1.0264-8.0625-1.0938l-0.1875-0.125 7-2.9688zm-13.719 0.125 1.6875 1.25 0.125 0.84375 3.5625 1.75 0.28125 2.1875-5.5938 2.25-0.03125 0.28125-0.03125-8.5625zm43.75 0.09375 2.875 2.0938c-2.0398 0.31128-4.2325 0.91598-6.3438 2.0938-1.7131 0.85231-3.1128 1.6744-4.3438 2.6875l-10.875 3.75c-0.97141-1.2606-2.0158-2.2786-3.2188-3.1562l21.906-7.4688zm-14.344 0.1875 0.03125 1.4688-6.3125 2.0938 0.03125-1.5 6.25-2.0625zm38.219 0.5625 2.8125 2-15.25 5.6875-0.875-2.9062 13.312-4.7812zm-65.406 0.5 3.5625 1.5938c-0.14916-0.00829-0.36518-0.020115-0.5-0.03125l-0.09375 0.3125c0.040005 0.009991 0.084768 0.021963 0.125 0.03125l0.03125 0.21875-3.3438-1.5312 0.21875-0.59375zm27.219 0.5625v1.4375l-6.375 2.1875 0.03125-1.5 6.3438-2.125zm20.531 0.03125c1.0276-0.050496 2.046-0.009861 3.0312 0.0625v0.03125c-4.3631 0.068349-8.415 0.17413-12.312 2.5625-3.2573 1.9961-5.6477 4.0299-7.9375 7.4688-0.12972-0.028062-0.25404-0.073593-0.375-0.125 1.9689-3.4048 4.8627-5.9552 8.1562-7.5938 3.0112-1.4981 6.2905-2.2516 9.4375-2.4062zm2.7188 0.21875-1.4688 0.59375v-0.4375c0.50972-0.028742 1.0026-0.081608 1.4688-0.15625zm0.40625 0.09375 0.3125 1.0938-2.1875 0.96875v-1.2812l1.875-0.78125zm-2.9062 0.09375c0.16106-0.007149 0.31285 0.007005 0.46875 0v0.34375l-0.46875-0.34375zm-0.375 0.03125c0.044134-0.002171 0.081267 0.002059 0.125 0l0.71875 0.53125v1.4062l-2.4375-1.8125c0.55354-0.056222 1.097-0.10057 1.5938-0.125zm-2.5625 0.25 0.40625 0.3125-8.375 2.9062c0.60236-0.41555 1.2151-0.81435 1.875-1.2188 2.4097-1.2054 4.3876-1.7443 6.0938-2zm-40.219 0.46875c3.6066-0.04811 7.4869 0.6897 11 2.4375 3.3446 1.664 6.2807 4.2411 8.25 7.7188-0.12959 0.051133-0.26353 0.077627-0.40625 0.09375-2.3093-3.4979-4.7123-5.5478-8-7.5625-3.3269-2.0387-6.7876-2.391-10.438-2.5l-1.375-0.03125c-0.19064-0.003286-0.37068-0.028261-0.5625-0.03125v-0.0625c0.50224-0.038184 1.016-0.055627 1.5312-0.0625zm41.062 0.15625 2.6875 1.9375 2.8125-1.2188 0.375 1.2812-20.906 7.4688 0.21875-0.28125 0.21875-0.46875c-0.15539 0.069017-0.30497 0.11695-0.4375 0.125 1.5573-2.3323 3.2094-3.9976 5.0938-5.4375l9.9375-3.4062zm-42.562 0.03125c0.17071 0.034229 0.3557 0.069451 0.53125 0.09375l-0.03125 0.40625-0.46875-0.21875-0.03125-0.28125zm65.031 0.0625 0.1875 0.84375-15.188 5.625-0.21875-0.78125 15.219-5.6875zm-63.969 0.09375 4.2812 2.5938-0.15625 0.71875-4.2188-2.625 0.09375-0.6875zm1.2188 0.09375c1.6922 0.077309 3.6812 0.0911 6.2188 0.875l-2.9375 1.1562-3.2812-2.0312zm-2.1875 0.4375 0.53125 0.25 1.2812 1.0938-1.5625 0.625-0.25-1.9688zm9.1562 0.6875c0.81709 0.28843 1.6585 0.65717 2.5938 1.125 1.0081 0.61776 1.964 1.2469 2.8438 1.9062l-5.2812 1.8125-3.75-3.4688 3.5938-1.375zm-7.0938 0.84375 1.2812 0.6875-2.9062 1.1875-0.15625-1.125 1.7812-0.75zm46.406 0.1875 0.875 2.9062-26.469 9.875-3.4688-1.5312 0.09375-0.875 0.6875-0.25-0.03125 0.375c0.21253 0.31749 0.70764 0.3143 1.0312 0.1875 8.03e-4 -0.33786-0.039552-0.62259-0.0625-0.90625h0.03125c0.10066 0.18241 0.21203 0.34166 0.3125 0.53125 0.3662 0.053756 0.77708 0.19291 0.875-0.46875-0.071832-0.14687-0.14741-0.26402-0.21875-0.40625l3-1.0938c-0.058773 0.11772-0.097135 0.22288-0.15625 0.34375 0.097917 0.66166 0.47755 0.5225 0.84375 0.46875 0.17567-0.3315 0.35235-0.63308 0.53125-0.9375-0.031387 0.37076-0.0323 0.74521-0.03125 1.1875 0.32361 0.1268 0.81872 0.12999 1.0312-0.1875l-0.15625-1.5938 21.281-7.625zm-48.375 0.65625 0.125 1.125-5.8125 2.4062v-1.125l5.6875-2.4062zm3.6562 0.03125 1.1875 0.6875 0.09375 0.53125 0.65625 0.53125-4.875 2.125-0.34375-2.5312 3.2812-1.3438zm56.031 0.15625v12.531l-0.5 0.21875-0.0625-12.531 0.5625-0.21875zm-54.344 0.09375 3.625 3.0938 0.03125 1.2188-3.625-3.5-0.03125-0.8125zm53.406 0.28125-0.0625 12.562-1.25 0.53125 0.03125-12.625 1.2812-0.46875zm-1.8438 0.6875 0.09375 11.188-5.5625-3.75-1.4688-4.8438 6.9375-2.5938zm-27.469 0.09375c-1.1479 1.0855-2.1502 2.3991-3.1562 4.0938-0.099756-0.037667-0.2052-0.076196-0.3125-0.09375-0.52106-0.1893-0.41006 0.047721-0.25 0.3125l0.21875 0.375c-0.19572 0.34353-0.39718 0.68381-0.59375 1.0625l-3.5312 1.2812c-0.18169-0.35278-0.35236-0.64909-0.53125-0.96875l0.3125-0.5c0.16007-0.26478 0.23981-0.47055-0.28125-0.28125-0.14965 0.024483-0.26912 0.067116-0.40625 0.125-0.43095-0.73373-0.87108-1.4308-1.3125-2.0312l9.8438-3.375zm-29.281 0.125 0.34375 2.5312-6.1875 2.6562v-2.7812l5.8438-2.4062zm14.75 0.1875c1.1685 0.91317 2.2321 1.9143 3.25 3.125l-3.7812 1.3125-4.0312-2.875 4.5625-1.5625zm-8.9688 0.375 2.9375 2.875 0.75-0.1875 4.2188 2.9062-0.15625 1.3438 4.9688 2.1875-0.0625 1 4 1.8125 1.9688-0.71875v13.906l-1.5312 0.625-6.3125-4.0312-0.03125-0.25c-0.11459 0.003678-0.22865-0.003516-0.34375 0l-14.281-9.125-1.3125-10.094 5.1875-2.25zm43.469 0.75 0.21875 0.75-26.719 9.9062 0.15625-0.78125 26.344-9.875zm-39.812 0.8125 0.53125 0.0625-0.03125 0.53125 0.1875 0.28125 0.15625-0.6875 3.5 2.5938v0.875l-3.875-2.7812-0.59375-0.09375 0.125-0.78125zm-18.75 0.21875v1l-3.0312 1.25-1.0312-0.4375 4.0625-1.8125zm58.906 0.125 1.375 4.5312-4.8438-3.25 3.4688-1.2812zm-49.219 0.4375 1.25 9.8125-7.4688-4.7812v-2.3438l6.2188-2.6875zm17.906 0.75c0.45955 0.5691 0.90285 1.2017 1.3438 1.875-0.078235-0.018024-0.16424-0.055661-0.25-0.09375l0.21875 0.46875 0.5 0.65625-0.09375 0.9375-1.1875 0.40625-4.4688-1.8438 0.09375-1.0938 3.8438-1.3125zm-27.594 0.21875 0.09375 2.5938-1.75 0.78125-0.9375 0.375 0.0625-2.7188 2.5312-1.0312zm54.938 0.0625 5.5312 3.7188 0.21875 0.71875-6.2812-4.25 0.53125-0.1875zm-19.719 0.21875c0.27614 0.073876 0.85886 0.73112 1.1875 0.4375l-0.34375 0.65625 0.0625 1.6562c-0.11061 0.071464-0.18861 0.2586-0.40625 0.0625 0.00543-0.47327 0.11956-1.1221 0.125-1.7812l-0.625-1.0312zm18.656 0.15625 7 4.7188 0.6875 2.375-9.25-6.5312 1.5625-0.5625zm-58.594 0.15625 1.5 0.34375 0.03125 3.0938-1.4375-1.125-0.09375-2.3125zm40.062 0.46875 0.125 0.21875c-0.001379 0.081208 0.003114 0.14244 0 0.21875-0.2372 0.39382-0.47828 0.78615-0.71875 1.2188l-0.15625-0.03125c0.22199-0.56079 0.48226-1.1014 0.75-1.625zm16.594 0.09375 9.8438 7 0.5625 1.875-25.062 10.312 0.03125-13.75 14.625-5.4375zm-21.531 0.40625-0.65625 1.0312c0.00544 0.65913 0.15082 1.308 0.15625 1.7812-0.21764 0.1961-0.29564 0.008964-0.40625-0.0625l0.03125-1.6562-0.3125-0.65625c0.32864 0.29362 0.91136-0.36362 1.1875-0.4375zm-0.21875 0.875c0.23061 0.45594 0.46386 0.92024 0.65625 1.4062l-0.15625 0.0625c-0.17855-0.3212-0.35353-0.61214-0.53125-0.90625-0.008886-0.14561-0.028481-0.2744-0.03125-0.4375l0.0625-0.125zm-6.75 0.0625 4.5 1.9688-0.03125 0.90625-4.6562-1.9688 0.1875-0.90625zm-22.875 0.28125 10.469 6.6875 0.09375 0.875-11-7.375 0.4375-0.1875zm-0.75 0.40625 11.375 7.5938 0.28125 2.25-13.812-8.9688 2.1562-0.875zm60.969 0.78125 5.375 3.625v0.625l-5.1562-3.5-0.21875-0.75zm0.40625 1.4062 4.7188 3.1875-1.7812 0.75-2.2188-1.5625-0.71875-2.375zm-32.969 0.1875 3.4688 1.5625-0.0625 0.9375-3.5625-1.6875 0.15625-0.8125zm44.25 0.6875 0.9375 0.15625-10.594 4.375-0.125-0.46875 9.7812-4.0625zm-71.969 0.0625 1.8125 1.1875v10.75c-0.91654 0.11588-1.4787-0.32521-1.8125-1.125v-10.812zm73.531 0.1875 0.1875 1.625-10.812 4.5938-0.5-1.625 11.125-4.5938zm-37.094 0.21875-0.03125 13.781-0.5 0.21875-0.0625-13.688 0.59375-0.3125zm-0.96875 0.34375-0.0625 13.844-1.6875 0.71875-0.1875-13.844 1.9375-0.71875zm-33.344 0.625 0.46875 0.3125 0.09375 9.5625c0.12218 0.47066-0.24862 0.79849-0.625 0.6875l0.0625-10.562zm59.469 0.6875 1.5625 1.125-1.0938 0.4375-0.46875-1.5625zm-50.812 1.25 13.438 8.5938c-0.554 0.040063-1.056 0.10789-1.4062 0.3125l-11.906-8-0.125-0.90625zm59.188 0.5625 2.5312 1.625-0.5 0.21875-2.9375-1.4688 0.90625-0.375zm-8.0312 0.21875 0.125 0.46875-31.156 12.812v0.03125l-0.5625-0.1875 31.594-13.125zm-65.062 0.09375c-4.8229 1.0588-6.6278 3.4266-4.5938 7.8438l0.375-0.09375c-2.1922-3.9632 0.52672-6.3583 4.3438-7.5l-0.125-0.25zm71.625 0.3125 0.40625 15.812c-0.14695 0.30766-0.53031 0.66098-1.0938 0.71875l0.03125-16.25 0.65625-0.28125zm0.4375 0.09375 2.625 1.4062v2.0625l-2.5938-1.8125-0.03125-1.6562zm-57.969 0.0625 11.594 7.75c-0.048353 0.049516-0.08912 0.096827-0.125 0.15625-0.28938 0.47926-0.061405 1.0659 0.125 1.6562l-11.312-7.3125-0.28125-2.25zm51.219 0.21875 0.46875 1.625-31.312 13.312 0.0625-2.2188 30.781-12.719zm5.2812 0.0625v16.188c-0.0609 0.00147-0.10205-0.02802-0.15625-0.03125l-1.25-4.125 0.03125-11.438 1.375-0.59375zm-1.8125 0.78125-0.03125 7.125c-0.25603 0.052391-0.51145 0.11321-0.75 0.1875l-1.8438-6.1875 2.625-1.125zm7.4688 0.125-0.1875 1.5-0.90625 0.84375 0.09375-2.0312 1-0.3125zm-69.719 1.3125-0.03125 0.125c3.9024 0.70949 5.995 4.1505 2.1875 6l-0.1875 0.15625c5.1726-2.0848 2.5489-5.364-1.9688-6.2812zm7.9062 0.21875 11.344 7.4062c-1.6257 3.6215-3.971 5.2952-6.2188 6.2812-1.015 0.44528-2.0929 0.81259-3.2188 1.125l-1.9062-14.812zm-12.719 0.875c-4.0853 1.5968-2.345 3.742 0.375 5.3438l0.25-0.28125c-2.726-1.2527-3.8442-3.6145-0.59375-4.8125l-0.03125-0.25zm26.281 4.0625 6.3125 4.0312-1.375 0.5625-6.5-4.3438c0.40807-0.12119 0.98247-0.20678 1.5625-0.25zm-1.9375 0.375c0.006938-0.004228 0.023866 0.004169 0.03125 0l6.5312 4.3438-0.21875 0.09375-0.03125 1.4375-6.4062-4.1562c-0.062702-0.51838-0.098594-1.0797-0.03125-1.5938 0.023576-0.039046 0.067512-0.089966 0.125-0.125zm42.656 0.8125v1.9062l-0.53125-1.75c0.17285-0.058895 0.35086-0.10722 0.53125-0.15625zm-98.062 1.2188c-3.39-0.028995-4.8481 1.4293-6.1562 4.4062 1.9816-3.4507 3.6578-4.238 7.9062-4.1562l-0.03125-0.125c-0.63106-0.074176-1.1891-0.12047-1.7188-0.125zm55.344 0.1875 1.4375 0.9375c-0.5155 0.24471-0.79848-0.34135-1.4688-0.875 0.010018-0.022406 0.021251-0.039931 0.03125-0.0625zm-43.031 1.5625c3.5971-0.038853 6.7438 0.33965 9.4375 0.46875 6.0769 0.66362 12.651 0.9635 17.906 4.4062 0.59701 0.38666 1.0824 1.0496 1.3438 1.6875-5.6567-4.8279-13.363-5.1908-20.5-5.7188-7.1983-0.166-18.468-0.51792-24 4.0625 2.1766-3.1387 10.417-4.848 15.812-4.9062zm90.531 0.09375c-0.16877 0.010549-0.34687 0.033981-0.53125 0.0625l0.03125 0.34375c2.5032-0.33459 3.122 1.9681 3 4.125h0.25c0.55696-2.8646-0.21848-4.6895-2.75-4.5312zm-40.531 0.875 1.0625 0.1875v2.3438l-1.1562-0.3125 0.09375-2.2188zm-48.938 0.21875c2.2984-0.015929 4.592 0.085013 6.75 0.21875 11.463 0.30579 17.049 2.516 20.531 5.4375-0.043582 0.04071-0.081274 0.08485-0.125 0.125-0.070914 0.03966-0.14684 0.08581-0.21875 0.125-6.4164-2.9745-15.61-4.8223-24.688-4.9375-6.5442-0.083052-13.014 0.75368-18.344 2.6875 3.4735-2.7778 9.7769-3.6125 16.094-3.6562zm85.156 0.28125 0.9375 3.125c-0.52385-0.14905-0.65458-0.55476-0.9375-0.71875v-2.4062zm-29.656 0.28125v1.5938l0.125 0.125-1.0857-0.61327-0.051618-0.66544 1.0123-0.44003zm-53.594 0.53125c9.0347 0.032596 18.314 1.808 24.719 4.9375-0.18708 0.09859-0.36931 0.21668-0.5625 0.3125-3.0552-1.0497-6.4811-1.9682-10.094-2.6875l0.09375-0.28125-2.9375-0.25h-0.03125c-4.6763-0.76718-9.5683-1.1792-14.281-1.0625-2.9162 0.072207-5.7482 0.3899-8.4375 0.90625 6.0789-1.075 13.599-0.85221 20.406 0.03125l-0.40625 1c-3.5033-0.47292-7.0278-0.71652-10.531-0.65625l0.1875-0.46875-4.3125-0.1875-0.34375 0.90625c-3.7429 0.37905-7.4278 1.1606-10.969 2.5-0.3086-0.31739-0.58824-0.6217-0.875-0.96875 0.915-0.47549 1.9356-0.90273 3.0312-1.25-1.0796 0.32339-2.1268 0.67467-3.125 1.0938-0.14048-0.17176-0.32129-0.35567-0.4375-0.5 0.1168-0.12546 0.24845-0.25599 0.375-0.375 5.1591-2.0687 11.774-3.0244 18.531-3zm51.531 0.34375 2.25 1.5-0.71875 0.1875v-0.0625l-2.0938-1.375 0.5625-0.25zm-1.1562 0.5 2.3125 1.5938 0.0625 1.5-3.8438-2.4688 1.4688-0.625zm-56.312 1.1562 3.375 0.15625-2.8438 7.875c-0.09879 0.18983-2.581-0.41268-3.375-0.59375l2.8438-7.4375zm60.062 0.09375 0.0625 1.625-1.125 0.59375v-1.875l0.03125 0.03125 1.0312-0.375zm-44.906 0.03125 4.3125 0.46875-2.4375 6.8438c-1.6315 0.30659-3.2807 0.51121-4.9062 0.6875l3.0312-8zm-11.344 0.3125c3.5202-0.03359 7.1137 0.20326 10.531 0.625l-0.4375 1.0625c-3.1988-0.3114-7.295-0.50622-10.531-0.5l0.4375-1.1875zm-4.5 0.25-0.46875 1.1875c-3.0651 0.27883-7.0321 1.0449-9.4688 1.9062-0.20436-0.09307-0.46048-0.3164-0.71875-0.5625 3.0018-1.4084 6.701-2.1846 10.656-2.5312zm20.625 0.03125c3.984 0.75158 7.4501 1.6992 9.8438 2.6875-0.34385 0.16533-0.70175 0.31039-1.0625 0.46875-2.9837-0.79484-6.0658-1.5292-9.1875-2.125l0.40625-1.0312zm36.781 0.5625 1.375 0.875 0.3125 9.9375c-0.95021-0.14216-1.5599-0.68087-1.5938-1.1562l-0.09375-9.6562zm-37.25 0.59375c3.4645 0.6287 6.5441 1.3902 8.875 2.1562-0.40543 0.17312-0.79545 0.36427-1.2188 0.53125-2.3035-0.51333-5.0932-1.2204-8.0312-1.6562l0.375-1.0312zm-16.25 0.1875c3.1555 0.00385 7.3338 0.2896 10.469 0.59375l-0.46875 1.125-10.406-0.625 0.40625-1.0938zm-4.5625 0.25-0.25 0.59375-2.7812-0.1875c1.045-0.18142 2.0746-0.31829 3.0312-0.40625zm-11.438 0.09375c4.2361 5.1755 11.964 6.6539 20.062 6.5 8.5879-1.0386 11.824 0.07367 23.062-5.4688-1.3626 1.1135-2.8269 1.9783-4.5 2.6562-3.5144 1.3761-8.6415 2.3956-13.531 3.0938s-10.026 0.73215-14.562-0.46875c-4.0106-0.95271-8.9841-3.6809-10.531-6.3125zm71.312 0.03125 0.28125 0.4375 0.71875-0.40625 0.09375 9.0938c0.005763 0.45523-0.41862 0.6237-0.90625 0.75l-0.1875-9.875zm-26.844 0.40625c-0.23921 0.47805-0.5621 1.0439-0.90625 1.625-7.5753 4.0031-16.4 6.1711-25.25 5.875-5.8617-0.42469-13.455-0.88063-17.75-5.4062-0.14101-0.54133-0.28327-1.0758-0.40625-1.625 2.649 3.2687 6.3289 4.8288 10.281 5.875 4.7226 1.2501 9.7383 1.0236 14.719 0.3125s9.8833-1.7211 13.469-3.125c1.7921-0.62568 4.3373-2.0662 5.8438-3.5312zm-37.188 0.09375 3.8125 0.21875-0.5 1.25-7.6562-0.375c1.2358-0.39605 2.7575-0.77929 4.3438-1.0938zm8.2188 0.46875 10.438 0.5625-0.46875 1.1562-10.406-0.53125 0.4375-1.1875zm16.188 0.0625c1.9474 0.28057 3.7019 0.61293 5.375 0.9375l-5.5938-0.34375 0.21875-0.59375zm-0.28125 0.75 6.6562 0.375c0.37522 0.07685 0.79726 0.14055 1.1562 0.21875-0.76456 0.28676-1.567 0.55123-2.375 0.8125l-5.8438-0.28125 0.40625-1.125zm-28.5 0.1875 7.5312 0.34375-0.4375 1.125-5.0938-0.28125c-0.70849-0.36106-1.3752-0.74606-2-1.1875zm40.531 0.3125c-0.29642 0.48873-0.63733 0.9805-1 1.5-7.37 3.7049-15.842 5.6907-24.344 5.4062-3.1168-0.10065-6.3604-0.42876-9.4375-0.875-2.8026-0.52187-5.0985-1.9808-7.375-3.6562-0.28245-0.67931-0.50262-1.364-0.6875-2.0625 4.5281 4.9659 11.539 4.9356 17.688 5.4375 9.0132 0.30153 17.502-1.722 25.156-5.75zm-28.5 0.21875 10.375 0.5-0.5 1.25-10.312-0.53125 0.4375-1.2188zm94.75 0.25-0.0625 0.21875c3.6505 1.6906 2.2191 6.0106-0.875 7.75l0.125 0.34375c3.3646-1.939 4.7386-6.2558 0.8125-8.3125zm-78.812 0.46875 5.1562 0.25c-1.4675 0.4502-2.9797 0.84766-4.5312 1.1875l-1.125-0.0625 0.5-1.375zm-25.219 0.3125 4.1875 0.25-0.4375 1.0938c-1.322-0.35624-2.5759-0.80867-3.75-1.3438zm8.7188 0.5 10.312 0.53125-0.5 1.1875c-1.4315 0.13795-2.8531 0.2553-4.2188 0.28125-2.1044 0.04-4.2026-0.05914-6.2188-0.3125l0.625-1.6875zm27.844 0.03125c-0.49535 0.68992-1.0237 1.3917-1.625 2.0625-5.6728 2.5251-11.906 4.0381-18.25 4.3438-6.2267 0.5948-12.411-0.007908-18.094-2.6875-0.6813-0.33289-1.3263-0.72406-1.9375-1.1562-0.40632-0.59375-0.73505-1.1974-1-1.8125 4.4726 4.3243 10.965 4.1369 16.75 4.5 8.624 0.28852 16.764-1.5624 24.156-5.25zm9.375 0.0625 0.0625 0.28125c2.8739-0.15126 4.5515 1.0054 4.0938 4l0.25 0.21875c0.83703-3.8509-1.0903-4.4517-4.4062-4.5zm17.312 0.15625c-2.4964 0.2935-3.2099 0.7777-3 3.125l0.34375 0.25c-0.28905-1.9647 0.77548-2.799 2.5938-3.1562l0.0625-0.21875zm37.688 0.90625c0.03385-0.03422 0.08334 0.07636 0.15625 0.40625l-0.28125 1.125 0.34375 0.53125c-0.46143 0.33562-0.62811 0.1492-0.8125 0l-0.03125-0.15625 0.40625-0.34375 0.09375-1.1875c0.07292-0.16175 0.09115-0.34078 0.125-0.375zm-66.188 1.1562c-0.52439 0.5692-1.0928 1.1242-1.6875 1.625-3.4137 1.3551-7.0082 2.3389-10.688 2.9375l-12.956 0.46561c-4.7857-0.26893-10.333-1.821-11.857-3.5906-0.30778-0.3363-0.56859-0.68625-0.8125-1.0312 0.49592 0.37685 1.6625 1.129 2.1942 1.429 5.4248 2.5878 12.207 2.8902 18.212 2.4406 6.1808-0.33009 12.082-1.8384 17.594-4.2759zm62.531 0.09375c-0.16006 2.4568 2.3997 2.506 4.3438 2.6562l0.15625-0.375c-1.5976 0.39734-3.5881-0.42354-4.3125-2.0312l-0.1875-0.25zm-51.844 0.15625c0.033854-0.03422 0.052083 0.04511 0.125 0.375l-0.28125 1.125 0.34375 0.53125c-0.54852 0.39897-0.66212 0.03997-0.90625-0.09375l0.46875-0.40625 0.09375-1.1875c0.072917-0.16175 0.1224-0.30953 0.15625-0.34375zm-51.75 0.0625c-0.3659 0.00816-0.74584 0.08801-1.1562 0.25l-0.0625 0.1875c1.3038-0.67124 3.2794 0.29982 4.471 0.94286l-0.095971-0.036612c-1.1171-0.76553-2.0586-1.3682-3.1562-1.3438zm48.812 0.25c-0.83027 1.7487-1.0706 2.624 0.5 3.4062l0.3125-0.21875c-1.3583-0.5682-1.0776-1.7891-0.59375-3.0938l-0.21875-0.09375zm29.5 0.6875-0.09375 0.40625c-1.3753 5.4308-10.18 7.3516-12.562 1.4688l-0.21875-0.0625c1.3453 6.425 13.786 3.8495 12.875-1.8125zm-40.031 0.96875c-2.5892 1.1101-5.183 1.9004-7.8125 2.2188 2.6712-0.52474 5.2812-1.27 7.8125-2.2188zm-33.156 7.6562-0.5 0.03125c3.283 2.4105 7.3659 3.7617 13.031 2.5625l-0.03125-0.25c-5.4261 1.1486-9.3873-0.05829-12.5-2.3438z" fill-rule="evenodd"/>
 </g>
</svg>
