<?xml version="1.0" encoding="UTF-8"?>
<!-- Created with Inkscape (http://www.inkscape.org/) -->
<svg id="svg2" width="128" height="128" version="1.0" xmlns="http://www.w3.org/2000/svg" xmlns:cc="http://creativecommons.org/ns#" xmlns:dc="http://purl.org/dc/elements/1.1/" xmlns:rdf="http://www.w3.org/1999/02/22-rdf-syntax-ns#" xmlns:xlink="http://www.w3.org/1999/xlink">
 <defs id="defs4">
  <linearGradient id="linearGradient2338">
   <stop id="stop2340" stop-color="#b1b1b1" offset="0"/>
   <stop id="stop2342" stop-color="#e4e4e4" offset="1"/>
  </linearGradient>
  <linearGradient id="linearGradient2499" x1="48.951" x2="58.941" y1="94.011" y2="111.87" gradientUnits="userSpaceOnUse" xlink:href="#linearGradient2338"/>
  <linearGradient id="linearGradient2567" x1="62.832" x2="72.649" y1="107.68" y2="86.746" gradientUnits="userSpaceOnUse" xlink:href="#linearGradient2338"/>
  <linearGradient id="linearGradient2621" x1="62.746" x2="67.373" y1="79.805" y2="86.465" gradientUnits="userSpaceOnUse" xlink:href="#linearGradient2338"/>
  <linearGradient id="linearGradient2623" x1="55.178" x2="58.984" y1="89.73" y2="81.081" gradientUnits="userSpaceOnUse" xlink:href="#linearGradient2338"/>
  <linearGradient id="linearGradient2625" x1="52.324" x2="53.362" y1="79.524" y2="78.184" gradientUnits="userSpaceOnUse" xlink:href="#linearGradient2338"/>
  <linearGradient id="linearGradient2627" x1="53.276" x2="54.27" y1="77.405" y2="78.573" gradientUnits="userSpaceOnUse" xlink:href="#linearGradient2338"/>
  <linearGradient id="linearGradient2629" x1="54.27" x2="55.308" y1="76.627" y2="75.286" gradientUnits="userSpaceOnUse" xlink:href="#linearGradient2338"/>
  <linearGradient id="linearGradient2631" x1="57.816" x2="58.292" y1="77.189" y2="75.805" gradientUnits="userSpaceOnUse" xlink:href="#linearGradient2338"/>
  <linearGradient id="linearGradient2633" x1="58.595" x2="59.805" y1="75.373" y2="77.059" gradientUnits="userSpaceOnUse" xlink:href="#linearGradient2338"/>
  <linearGradient id="linearGradient2635" x1="59.546" x2="60.584" y1="74.811" y2="72.865" gradientUnits="userSpaceOnUse" xlink:href="#linearGradient2338"/>
  <linearGradient id="linearGradient2637" x1="62.486" x2="63.092" y1="76.324" y2="75.416" gradientUnits="userSpaceOnUse" xlink:href="#linearGradient2338"/>
  <linearGradient id="linearGradient2639" x1="63.049" x2="63.697" y1="77.665" y2="76.93" gradientUnits="userSpaceOnUse" xlink:href="#linearGradient2338"/>
  <linearGradient id="linearGradient2641" x1="65.643" x2="65.968" y1="77.146" y2="75.546" gradientUnits="userSpaceOnUse" xlink:href="#linearGradient2338"/>
  <linearGradient id="linearGradient2643" x1="66.595" x2="67.546" y1="78.962" y2="77.838" gradientUnits="userSpaceOnUse" xlink:href="#linearGradient2338"/>
  <linearGradient id="linearGradient2645" x1="67.157" x2="68.886" y1="80.043" y2="78.486" gradientUnits="userSpaceOnUse" xlink:href="#linearGradient2338"/>
  <linearGradient id="linearGradient2647" x1="69.751" x2="70.443" y1="81.211" y2="78.097" gradientUnits="userSpaceOnUse" xlink:href="#linearGradient2338"/>
  <linearGradient id="linearGradient2649" x1="67.978" x2="69.319" y1="81.989" y2="83.546" gradientUnits="userSpaceOnUse" xlink:href="#linearGradient2338"/>
  <linearGradient id="linearGradient2651" x1="68.108" x2="68.238" y1="84.324" y2="83.07" gradientUnits="userSpaceOnUse" xlink:href="#linearGradient2338"/>
  <linearGradient id="linearGradient2653" x1="65.124" x2="65.903" y1="83.719" y2="82.335" gradientUnits="userSpaceOnUse" xlink:href="#linearGradient2338"/>
  <linearGradient id="linearGradient2655" x1="63.308" x2="64.389" y1="84.238" y2="85.492" gradientUnits="userSpaceOnUse" xlink:href="#linearGradient2338"/>
  <linearGradient id="linearGradient2657" x1="62.703" x2="63.135" y1="86.184" y2="85.405" gradientUnits="userSpaceOnUse" xlink:href="#linearGradient2338"/>
  <linearGradient id="linearGradient2659" x1="59.027" x2="59.222" y1="85.449" y2="84.411" gradientUnits="userSpaceOnUse" xlink:href="#linearGradient2338"/>
  <linearGradient id="linearGradient2661" x1="55.308" x2="56" y1="85.924" y2="85.405" gradientUnits="userSpaceOnUse" xlink:href="#linearGradient2338"/>
  <linearGradient id="linearGradient2663" x1="54.53" x2="55.092" y1="84.541" y2="83.632" gradientUnits="userSpaceOnUse" xlink:href="#linearGradient2338"/>
  <linearGradient id="linearGradient2665" x1="53.189" x2="54.097" y1="82.724" y2="81.686" gradientUnits="userSpaceOnUse" xlink:href="#linearGradient2338"/>
  <linearGradient id="linearGradient2667" x1="50.119" x2="51.459" y1="83.459" y2="82.811" gradientUnits="userSpaceOnUse" xlink:href="#linearGradient2338"/>
  <linearGradient id="linearGradient2669" x1="49.6" x2="50.119" y1="81.903" y2="80.822" gradientUnits="userSpaceOnUse" xlink:href="#linearGradient2338"/>
  <linearGradient id="linearGradient2671" x1="48.13" x2="49.73" y1="79.395" y2="78.011" gradientUnits="userSpaceOnUse" xlink:href="#linearGradient2338"/>
  <linearGradient id="linearGradient3756" x1="24.188" x2="43.875" y1="75.25" y2="102.62" gradientTransform="translate(2.0757 .34595)" gradientUnits="userSpaceOnUse" xlink:href="#linearGradient2338"/>
  <linearGradient id="linearGradient3784" x1="28.875" x2="31.25" y1="69.688" y2="66.5" gradientTransform="translate(2.0757 .34595)" gradientUnits="userSpaceOnUse" xlink:href="#linearGradient2338"/>
  <linearGradient id="linearGradient3786" x1="24.188" x2="26.625" y1="70" y2="66.812" gradientTransform="translate(2.0757 .34595)" gradientUnits="userSpaceOnUse" xlink:href="#linearGradient2338"/>
  <linearGradient id="linearGradient3788" x1="21.438" x2="26.5" y1="67.406" y2="64.156" gradientTransform="translate(2.0757 .34595)" gradientUnits="userSpaceOnUse" xlink:href="#linearGradient2338"/>
  <linearGradient id="linearGradient3790" x1="21.688" x2="23.812" y1="63.938" y2="61.688" gradientTransform="translate(2.0757 .34595)" gradientUnits="userSpaceOnUse" xlink:href="#linearGradient2338"/>
  <linearGradient id="linearGradient3792" x1="45" x2="46.75" y1="84.125" y2="82.812" gradientTransform="translate(2.0757 .34595)" gradientUnits="userSpaceOnUse" xlink:href="#linearGradient2338"/>
  <linearGradient id="linearGradient3794" x1="44" x2="46.312" y1="85" y2="83.562" gradientTransform="translate(2.0757 .34595)" gradientUnits="userSpaceOnUse" xlink:href="#linearGradient2338"/>
  <linearGradient id="linearGradient3796" x1="43.438" x2="44.812" y1="82.75" y2="80.25" gradientTransform="translate(2.0757 .34595)" gradientUnits="userSpaceOnUse" xlink:href="#linearGradient2338"/>
  <linearGradient id="linearGradient3798" x1="41.688" x2="43.625" y1="79.125" y2="77.438" gradientTransform="translate(2.0757 .34595)" gradientUnits="userSpaceOnUse" xlink:href="#linearGradient2338"/>
  <linearGradient id="linearGradient3800" x1="37.75" x2="39" y1="80.438" y2="78.75" gradientTransform="translate(2.0757 .34595)" gradientUnits="userSpaceOnUse" xlink:href="#linearGradient2338"/>
  <linearGradient id="linearGradient3802" x1="36.25" x2="39.5" y1="79.25" y2="74.75" gradientTransform="translate(2.0757 .34595)" gradientUnits="userSpaceOnUse" xlink:href="#linearGradient2338"/>
  <linearGradient id="linearGradient3804" x1="35" x2="36.375" y1="74.5" y2="72.562" gradientTransform="translate(2.0757 .34595)" gradientUnits="userSpaceOnUse" xlink:href="#linearGradient2338"/>
  <linearGradient id="linearGradient3806" x1="30.812" x2="32" y1="75.25" y2="73.5" gradientTransform="translate(2.0757 .34595)" gradientUnits="userSpaceOnUse" xlink:href="#linearGradient2338"/>
  <linearGradient id="linearGradient3808" x1="28.438" x2="33.125" y1="73.375" y2="69.875" gradientTransform="translate(2.0757 .34595)" gradientUnits="userSpaceOnUse" xlink:href="#linearGradient2338"/>
  <linearGradient id="linearGradient3842" x1="24.188" x2="43.875" y1="75.25" y2="102.62" gradientTransform="translate(56.954 -31.008)" gradientUnits="userSpaceOnUse" xlink:href="#linearGradient2338"/>
  <linearGradient id="linearGradient3844" x1="21.688" x2="23.812" y1="63.938" y2="61.688" gradientTransform="translate(56.954 -31.008)" gradientUnits="userSpaceOnUse" xlink:href="#linearGradient2338"/>
  <linearGradient id="linearGradient3846" x1="21.438" x2="26.5" y1="67.406" y2="64.156" gradientTransform="translate(56.954 -31.008)" gradientUnits="userSpaceOnUse" xlink:href="#linearGradient2338"/>
  <linearGradient id="linearGradient3848" x1="24.188" x2="26.625" y1="70" y2="66.812" gradientTransform="translate(56.954 -31.008)" gradientUnits="userSpaceOnUse" xlink:href="#linearGradient2338"/>
  <linearGradient id="linearGradient3850" x1="28.875" x2="31.25" y1="69.688" y2="66.5" gradientTransform="translate(56.954 -31.008)" gradientUnits="userSpaceOnUse" xlink:href="#linearGradient2338"/>
  <linearGradient id="linearGradient3852" x1="28.438" x2="33.125" y1="73.375" y2="69.875" gradientTransform="translate(56.954 -31.008)" gradientUnits="userSpaceOnUse" xlink:href="#linearGradient2338"/>
  <linearGradient id="linearGradient3854" x1="30.812" x2="32" y1="75.25" y2="73.5" gradientTransform="translate(56.954 -31.008)" gradientUnits="userSpaceOnUse" xlink:href="#linearGradient2338"/>
  <linearGradient id="linearGradient3856" x1="35" x2="36.375" y1="74.5" y2="72.562" gradientTransform="translate(56.954 -31.008)" gradientUnits="userSpaceOnUse" xlink:href="#linearGradient2338"/>
  <linearGradient id="linearGradient3858" x1="36.25" x2="39.5" y1="79.25" y2="74.75" gradientTransform="translate(56.954 -31.008)" gradientUnits="userSpaceOnUse" xlink:href="#linearGradient2338"/>
  <linearGradient id="linearGradient3860" x1="37.75" x2="39" y1="80.438" y2="78.75" gradientTransform="translate(56.954 -31.008)" gradientUnits="userSpaceOnUse" xlink:href="#linearGradient2338"/>
  <linearGradient id="linearGradient3862" x1="41.688" x2="43.625" y1="79.125" y2="77.438" gradientTransform="translate(56.954 -31.008)" gradientUnits="userSpaceOnUse" xlink:href="#linearGradient2338"/>
  <linearGradient id="linearGradient3864" x1="43.438" x2="44.812" y1="82.75" y2="80.25" gradientTransform="translate(56.954 -31.008)" gradientUnits="userSpaceOnUse" xlink:href="#linearGradient2338"/>
  <linearGradient id="linearGradient3866" x1="44" x2="46.312" y1="85" y2="83.562" gradientTransform="translate(56.954 -31.008)" gradientUnits="userSpaceOnUse" xlink:href="#linearGradient2338"/>
  <linearGradient id="linearGradient3868" x1="45.321" x2="46.75" y1="84.538" y2="82.812" gradientTransform="translate(56.954 -31.008)" gradientUnits="userSpaceOnUse" xlink:href="#linearGradient2338"/>
  <linearGradient id="linearGradient3872" x1="31.938" x2="53.312" y1="65.406" y2="34.906" gradientTransform="translate(2.0757 .34595)" gradientUnits="userSpaceOnUse" xlink:href="#linearGradient2338"/>
  <linearGradient id="linearGradient3900" x1="53.25" x2="54.625" y1="28.875" y2="27.105" gradientTransform="translate(2.0757 .34595)" gradientUnits="userSpaceOnUse" xlink:href="#linearGradient2338"/>
  <linearGradient id="linearGradient3902" x1="51.125" x2="53.563" y1="29.562" y2="33.312" gradientTransform="translate(2.0757 .34595)" gradientUnits="userSpaceOnUse" xlink:href="#linearGradient2338"/>
  <linearGradient id="linearGradient3904" x1="51.312" x2="51.972" y1="33.25" y2="31.303" gradientTransform="translate(2.0757 .34595)" gradientUnits="userSpaceOnUse" xlink:href="#linearGradient2338"/>
  <linearGradient id="linearGradient3906" x1="46.375" x2="47.562" y1="31.688" y2="29.312" gradientTransform="translate(2.0757 .34595)" gradientUnits="userSpaceOnUse" xlink:href="#linearGradient2338"/>
  <linearGradient id="linearGradient3908" x1="42.938" x2="45.75" y1="32.75" y2="35.811" gradientTransform="translate(2.0757 .34595)" gradientUnits="userSpaceOnUse" xlink:href="#linearGradient2338"/>
  <linearGradient id="linearGradient3910" x1="43.125" x2="43.5" y1="36.75" y2="35.125" gradientTransform="translate(2.0757 .34595)" gradientUnits="userSpaceOnUse" xlink:href="#linearGradient2338"/>
  <linearGradient id="linearGradient3912" x1="38.438" x2="39.75" y1="35.188" y2="33.469" gradientTransform="translate(2.0757 .34595)" gradientUnits="userSpaceOnUse" xlink:href="#linearGradient2338"/>
  <linearGradient id="linearGradient3914" x1="35.562" x2="37.938" y1="36.188" y2="38" gradientTransform="translate(2.0757 .34595)" gradientUnits="userSpaceOnUse" xlink:href="#linearGradient2338"/>
  <linearGradient id="linearGradient3916" x1="35" x2="35.562" y1="40" y2="38.312" gradientTransform="translate(2.0757 .34595)" gradientUnits="userSpaceOnUse" xlink:href="#linearGradient2338"/>
  <linearGradient id="linearGradient3918" x1="29.75" x2="30.688" y1="38.438" y2="36.562" gradientTransform="translate(2.0757 .34595)" gradientUnits="userSpaceOnUse" xlink:href="#linearGradient2338"/>
  <linearGradient id="linearGradient3920" x1="27.688" x2="28.562" y1="39.75" y2="41.5" gradientTransform="translate(2.0757 .34595)" gradientUnits="userSpaceOnUse" xlink:href="#linearGradient2338"/>
  <linearGradient id="linearGradient3922" x1="26.938" x2="27.887" y1="43.062" y2="40.805" gradientTransform="translate(2.0757 .34595)" gradientUnits="userSpaceOnUse" xlink:href="#linearGradient2338"/>
  <linearGradient id="linearGradient3924" x1="21.25" x2="23" y1="41.688" y2="39.562" gradientTransform="translate(2.0757 .34595)" gradientUnits="userSpaceOnUse" xlink:href="#linearGradient2338"/>
  <linearGradient id="linearGradient3936" x1="76" x2="83.25" y1="109.5" y2="95.938" gradientTransform="translate(2.0757 .34595)" gradientUnits="userSpaceOnUse" xlink:href="#linearGradient2338"/>
  <linearGradient id="linearGradient3942" x1="82.625" x2="87.312" y1="90.562" y2="107.12" gradientTransform="translate(2.0757 .34595)" gradientUnits="userSpaceOnUse" xlink:href="#linearGradient2338"/>
  <linearGradient id="linearGradient3946" x1="85.312" x2="102.06" y1="99.062" y2="86.75" gradientTransform="translate(2.0757 .34595)" gradientUnits="userSpaceOnUse" xlink:href="#linearGradient2338"/>
  <linearGradient id="linearGradient3950" x1="97.875" x2="112.38" y1="95.062" y2="83.812" gradientTransform="translate(2.0757 .34595)" gradientUnits="userSpaceOnUse" xlink:href="#linearGradient2338"/>
  <linearGradient id="linearGradient3954" x1="104" x2="105.28" y1="70.875" y2="69.094" gradientTransform="translate(2.0757 .34595)" gradientUnits="userSpaceOnUse" xlink:href="#linearGradient2338"/>
  <linearGradient id="linearGradient3958" x1="102.59" x2="104.41" y1="71.875" y2="74.75" gradientTransform="translate(2.0757 .34595)" gradientUnits="userSpaceOnUse" xlink:href="#linearGradient2338"/>
  <linearGradient id="linearGradient3962" x1="99.938" x2="100.59" y1="73.156" y2="72.688" gradientTransform="translate(2.0757 .34595)" gradientUnits="userSpaceOnUse" xlink:href="#linearGradient2338"/>
  <linearGradient id="linearGradient3966" x1="95" x2="96.312" y1="72.875" y2="69.844" gradientTransform="translate(2.0757 .34595)" gradientUnits="userSpaceOnUse" xlink:href="#linearGradient2338"/>
  <linearGradient id="linearGradient3970" x1="92.562" x2="94.031" y1="72.688" y2="74.969" gradientTransform="translate(2.0757 .34595)" gradientUnits="userSpaceOnUse" xlink:href="#linearGradient2338"/>
  <linearGradient id="linearGradient3974" x1="90.125" x2="93.188" y1="76.906" y2="74.688" gradientTransform="translate(2.0757 .34595)" gradientUnits="userSpaceOnUse" xlink:href="#linearGradient2338"/>
  <linearGradient id="linearGradient3978" x1="85.156" x2="87.469" y1="77.5" y2="73.562" gradientTransform="translate(2.0757 .34595)" gradientUnits="userSpaceOnUse" xlink:href="#linearGradient2338"/>
  <linearGradient id="linearGradient3982" x1="79.719" x2="81.062" y1="80.719" y2="78.938" gradientTransform="translate(2.0757 .34595)" gradientUnits="userSpaceOnUse" xlink:href="#linearGradient2338"/>
  <linearGradient id="linearGradient3986" x1="74" x2="75.172" y1="83.844" y2="82.531" gradientTransform="translate(2.0757 .34595)" gradientUnits="userSpaceOnUse" xlink:href="#linearGradient2338"/>
  <linearGradient id="linearGradient3990" x1="76.812" x2="77.938" y1="85.344" y2="82.875" gradientTransform="translate(2.0757 .34595)" gradientUnits="userSpaceOnUse" xlink:href="#linearGradient2338"/>
  <linearGradient id="linearGradient3994" x1="77.938" x2="79.875" y1="81.625" y2="84.125" gradientTransform="translate(2.0757 .34595)" gradientUnits="userSpaceOnUse" xlink:href="#linearGradient2338"/>
  <linearGradient id="linearGradient4006" x1="78.25" x2="92.594" y1="81.938" y2="67.156" gradientTransform="translate(2.0757 .34595)" gradientUnits="userSpaceOnUse" xlink:href="#linearGradient2338"/>
  <linearGradient id="linearGradient4010" x1="35.978" x2="47.395" y1="64.519" y2="98.422" gradientTransform="translate(2.0757 .34595)" gradientUnits="userSpaceOnUse" xlink:href="#linearGradient2338"/>
  <linearGradient id="linearGradient3098">
   <stop id="stop3100" stop-color="#9e2612" offset="0"/>
   <stop id="stop3102" stop-color="#bd5032" offset="1"/>
  </linearGradient>
  <linearGradient id="linearGradient4119" x1="70.573" x2="78.357" y1="72.778" y2="61.276" gradientTransform="translate(2.0757 .34595)" gradientUnits="userSpaceOnUse" xlink:href="#linearGradient3098"/>
  <linearGradient id="linearGradient4123" x1="68.281" x2="67.805" y1="58.768" y2="44.627" gradientTransform="translate(2.0757 .34595)" gradientUnits="userSpaceOnUse" xlink:href="#linearGradient3098"/>
  <linearGradient id="linearGradient4127" x1="48.519" x2="60.497" y1="48.605" y2="72.995" gradientTransform="translate(2.0757 .34595)" gradientUnits="userSpaceOnUse" xlink:href="#linearGradient3098"/>
  <linearGradient id="linearGradient4166" x1="91.469" x2="98.531" y1="103.91" y2="92.312" gradientTransform="translate(2.0757 .34595)" gradientUnits="userSpaceOnUse">
   <stop id="stop2322" stop-color="#6a3c1d" offset="0"/>
   <stop id="stop2324" stop-color="#8f5127" offset="1"/>
  </linearGradient>
  <filter id="filter4179">
   <feGaussianBlur id="feGaussianBlur4181" stdDeviation="1.462054"/>
  </filter>
 </defs>
 <metadata id="metadata7">
  <rdf:RDF>
   <cc:Work rdf:about="">
    <dc:format>image/svg+xml</dc:format>
    <dc:type rdf:resource="http://purl.org/dc/dcmitype/StillImage"/>
   </cc:Work>
  </rdf:RDF>
 </metadata>
 <g id="layer4" fill-rule="evenodd">
  <path id="path4169" d="m59.849 122.12-12.8-8.3027 4.6703-3.9784-33.557-20.065 0.34595-4.3243-2.9405 3.4595-13.665-6.7459 0.34595-16.432 60.541-25.081 52.584 48.086-39.957 15.568-15.568 17.816z" fill-opacity=".66667" filter="url(#filter4179)"/>
  <path id="path3812" d="m74.641 31.304-0.125 26.312 29.063 20.5 1.2337-21.476 0.82628-0.38068-3.7475-3.2681-0.0126 2.2747-2.9874-1.3997 0.3125-3.6875-3.6875-2.5625-0.0625 2.9375-2.75-1.9375-0.0625-3.4375-4.25-3.25 0.125 3.625-2.6875-1.9375-0.0625-3.75-3.6875-2.75v3.6875l-3.6875-2.875v-3.8125l-3.75-2.8125z" fill="url(#linearGradient3842)"/>
  <path id="path3840" d="m74.641 31.304-0.125 26.312 29.063 20.5-0.15593-19.855 2.2159-2.048-3.7475-3.2223-0.10433 2.3206-2.8957-1.4456 0.3125-3.6875-3.6875-2.5625-0.0625 2.9375-2.75-1.9375-0.0625-3.4375-4.25-3.25 0.125 3.625-2.6875-1.9375-0.0625-3.75-3.6875-2.75v3.6875l-3.6875-2.875v-3.8125l-3.75-2.8125z" fill-opacity=".15686"/>
  <g id="g3270" transform="translate(2.0757 .34595)">
   <path id="path2497" d="m46.27 78.919 0.21622 34.854 12.281 9.2108 0.17297-36.843-2.5514-1.2541v2.2486l-3.0703-1.2488 0.34595-2.1242-2.6811-1.5568v2.1189l-2.4649-1.5135 0.12973-2.1189-2.3784-1.773z" fill="url(#linearGradient2499)"/>
   <path id="path2565" d="m58.984 86.054c0 0.21622-0.21622 37.059-0.21622 37.059l15.135-6.8757-0.60541-35.892-3.027 1.6432-0.12973 1.9027-2.5946 1.3838-0.17297-2.0757-2.4216 1.0811 0.17297 1.5135-3.0703 1.2108-0.17297-1.773-2.8973 0.82162z" fill="url(#linearGradient2567)"/>
   <path id="path2569" d="m46.27 78.703 3.9784-1.4703 1.2108 1.0811-2.4216 0.77838 1.6865 1.1676-1.9892 0.51892-2.4649-2.0757z" fill="url(#linearGradient2671)"/>
   <path id="path2571" d="m48.692 80.778-0.17297 2.1189 2.5081-0.86486-0.12973-1.6865-2.2054 0.43243z" fill="url(#linearGradient2669)"/>
   <path id="path2573" d="m51.2 82.292-0.21622-0.25946-2.4216 0.82162 2.2919 1.4703 0.34595-2.0324z" fill="url(#linearGradient2667)"/>
   <path id="path2575" d="m50.941 82.162 2.8108 1.7297 1.9459-1.0378-2.7676-1.427-1.9892 0.73514z" fill="url(#linearGradient2665)"/>
   <path id="path2577" d="m53.622 83.762 2.0324-0.82162 0.043243 2.1189-2.3351 0.77838 0.25946-1.8162v-0.25946z" fill="url(#linearGradient2663)"/>
   <path id="path2579" d="m53.535 85.838 2.1189-0.82162 0.82162 0.38919-0.12973 1.7297-2.8108-1.2973z" fill="url(#linearGradient2661)"/>
   <path id="path2581" d="m56.346 84.757 1.773-0.95135 1.2541 0.86486 1.7297-0.69189 0.99459 0.9946-3.0703 1.1676-2.6811-1.3838z" fill="url(#linearGradient2659)"/>
   <path id="path2583" d="m62.011 84.843v2.2486l3.2432-1.3838-3.2432-0.86486z" fill="url(#linearGradient2657)"/>
   <path id="path2585" d="m62.27 83.33-0.12973 1.5135 2.9838 0.95135-0.17297-1.6432-2.6811-0.82162z" fill="url(#linearGradient2655)"/>
   <path id="path2587" d="m62.357 83.243 2.5081-0.90811 2.5514 0.77838-2.4649 1.1243-2.5946-0.9946z" fill="url(#linearGradient2653)"/>
   <path id="path2589" d="m67.286 83.07 2.9405 0.77838-0.086486 0.17297-2.5946 1.2541-0.25946-2.2054z" fill="url(#linearGradient2651)"/>
   <path id="path2591" d="m67.33 81.297 0.086486 1.8162 2.8108 0.73514-0.043243-1.9459-2.6811-0.51892-0.17297-0.086487z" fill="url(#linearGradient2649)"/>
   <path id="path2593" d="m67.416 81.427 2.0324-0.77838-1.5568-0.60541 2.1622-1.2541 3.4162 1.3405-0.21622 0.34595-3.1568 1.5568-2.6811-0.6054z" fill="url(#linearGradient2647)"/>
   <path id="path2595" d="m67.503 81.038-1.5135-1.0378 1.5568-0.77838 1.0378 0.51892-0.95135 0.43243-0.12973 0.86486z" fill="url(#linearGradient2645)"/>
   <path id="path2597" d="m65.816 80.043 0.043244-1.9892 1.6865-0.77838-0.12973 2.0324-1.6 0.73514z" fill="url(#linearGradient2643)"/>
   <path id="path2599" d="m65.816 77.968-2.2486-1.3838-0.086487-0.25946 1.2973-0.77838 2.7243 1.773-1.6865 0.64865z" fill="url(#linearGradient2641)"/>
   <path id="path2601" d="m63.481 78.616-1.7297-1.2108 1.3405-0.82162 0.51892 0.6054 0.086486 1.4703-0.21622-0.043243z" fill="url(#linearGradient2639)"/>
   <path id="path2603" d="m61.665 77.362-0.043243-1.6865 1.3838-0.82162 0.086487 1.8162-1.427 0.69189z" fill="url(#linearGradient2637)"/>
   <path id="path2605" d="m61.708 75.589-1.0378-1.0378-1.2108 0.73514-1.3405-0.69189c0.018081 0.036162 2.6509-1.3144 2.8108-1.3405 0.39346-0.064317 2.1189 1.5135 2.1189 1.5135l-1.3405 0.82162z" fill="url(#linearGradient2635)"/>
   <path id="path2607" d="m59.33 75.243 0.25946 1.8162-1.2541-0.90811-0.21622-1.5568 1.2108 0.64865z" fill="url(#linearGradient2633)"/>
   <path id="path2609" d="m58.378 76.195-1.3838 0.64865 0.086486 1.2973 2.5081-1.0811-1.2108-0.86486z" fill="url(#linearGradient2631)"/>
   <path id="path2611" d="m56.908 75.676v0.3027l-2.6378 1.2973-1.6-0.77838 2.8973-1.2108 1.3405 0.38919z" fill="url(#linearGradient2629)"/>
   <path id="path2613" d="m52.67 76.627 0.21622 1.6432 1.773 0.69189-0.34595-1.6432-1.6432-0.69189z" fill="url(#linearGradient2627)"/>
   <path id="path2615" d="m52.843 78.184-1.427 0.64865-0.043243 1.7297 3.2865-1.5568-1.8162-0.82162z" fill="url(#linearGradient2625)"/>
   <path id="path2617" d="m60.67 74.551v9.5568l-1.3838 0.51892-1.2541-0.73514-1.5135 0.86486v0.64865l-0.82162-0.43243-0.086486-2.1189-2.6378-1.427-2.0324 0.77838-0.043244-1.773-1.9027-1.2973 2.5081-0.86486-0.043243 2.1622 2.4216-0.99459 0.73514-0.34595-0.3027-1.8162 2.5946-1.3405 0.21622 2.2486 2.5514-1.2108-0.25946-1.6432 1.2541-0.77838z" fill="url(#linearGradient2623)"/>
   <path id="path2619" d="m60.714 74.638-0.086487 9.6 0.43243-0.25946 1.0811 0.9946 0.12973-0.21622v-1.3405l2.5514-1.0811 2.5514 0.73514-0.043243-1.6432 0.43243-0.12973 1.7297-0.73514-1.7297-0.43243-0.12973 0.043243v0.86486l-0.64865-0.3027-1.2541-0.77838 0.086486-1.9892-2.2486-1.2973 0.12973 2.1189-1.9892-1.3405-0.043243-1.9027-0.95135-0.90811z" fill="url(#linearGradient2621)"/>
   <path id="path2675" d="m50.292 95.827 0.34595-2.5081 0.69189-1.2108 1.0378-0.6054 1.3838 0.99459 0.43243 1.5568 0.17297 2.8108 0.12973 1.9459-4.1946-2.9838z" fill="#d59163"/>
   <path id="path2679" d="m64.173 100.24 5.3189-1.9459s-0.21622-2.6378-0.6054-2.9405c-0.38919-0.3027-0.95135-1.6-0.95135-1.6l-1.7297-1.0811-1.0811 1.4703-0.82162 2.0324-0.043243 1.9027-0.086487 2.1622z" fill="#d59163"/>
   <path id="path2681" d="m46.27 78.919 0.21622 34.854 12.281 9.2108 0.17297-36.843-2.5514-1.2541v2.2486l-3.0703-1.2488 0.34595-2.1242-2.6811-1.5568v2.1189l-2.4649-1.5135 0.12973-2.1189-2.3784-1.773z" fill-opacity=".15686"/>
   <path id="path2683" d="m62.27 83.33-0.12973 1.5135 2.9838 0.95135-0.17297-1.6432-2.6811-0.82162z" fill-opacity=".15686"/>
   <path id="path2685" d="m67.33 81.297 0.086486 1.8162 2.8108 0.73514-0.043243-1.9459-2.6811-0.51892-0.17297-0.086487z" fill-opacity=".15686"/>
   <path id="path2687" d="m59.33 75.243 0.25946 1.8162-1.2541-0.90811-0.21622-1.5568 1.2108 0.64865z" fill-opacity=".15686"/>
   <path id="path2689" d="m52.67 76.627 0.21622 1.6432 1.773 0.69189-0.34595-1.6432-1.6432-0.69189z" fill-opacity=".15686"/>
   <path id="path2691" d="m60.714 74.638-0.086487 9.6 0.43243-0.25946 1.0811 0.9946 0.12973-0.21622v-1.3405l2.5514-1.0811 2.5514 0.73514-0.043243-1.6432 0.43243-0.12973 1.7297-0.73514-1.7297-0.43243-0.12973 0.043243v0.86486l-0.64865-0.3027-1.2541-0.77838 0.086486-1.9892-2.2486-1.2973 0.12973 2.1189-1.9892-1.3405-0.043243-1.9027-0.95135-0.90811z" fill-opacity=".15686"/>
  </g>
  <g id="g3364" transform="translate(-41.924 -32.856)">
   <path id="path3366" d="m46.27 78.919 0.21622 34.854 12.281 9.2108 0.17297-36.843-2.5514-1.2541v2.2486l-3.0703-1.2488 0.34595-2.1242-2.6811-1.5568v2.1189l-2.4649-1.5135 0.12973-2.1189-2.3784-1.773z" fill="url(#linearGradient2499)"/>
   <path id="path3368" d="m58.984 86.054c0 0.21622-0.21622 37.059-0.21622 37.059l15.135-6.8757-0.60541-35.892-3.027 1.6432-0.12973 1.9027-2.5946 1.3838-0.17297-2.0757-2.4216 1.0811 0.17297 1.5135-3.0703 1.2108-0.17297-1.773-2.8973 0.82162z" fill="url(#linearGradient2567)"/>
   <path id="path3370" d="m46.27 78.703 3.9784-1.4703 1.2108 1.0811-2.4216 0.77838 1.6865 1.1676-1.9892 0.51892-2.4649-2.0757z" fill="url(#linearGradient2671)"/>
   <path id="path3372" d="m48.692 80.778-0.17297 2.1189 2.5081-0.86486-0.12973-1.6865-2.2054 0.43243z" fill="url(#linearGradient2669)"/>
   <path id="path3374" d="m51.2 82.292-0.21622-0.25946-2.4216 0.82162 2.2919 1.4703 0.34595-2.0324z" fill="url(#linearGradient2667)"/>
   <path id="path3376" d="m50.941 82.162 2.8108 1.7297 1.9459-1.0378-2.7676-1.427-1.9892 0.73514z" fill="url(#linearGradient2665)"/>
   <path id="path3378" d="m53.622 83.762 2.0324-0.82162 0.043243 2.1189-2.3351 0.77838 0.25946-1.8162v-0.25946z" fill="url(#linearGradient2663)"/>
   <path id="path3380" d="m53.535 85.838 2.1189-0.82162 0.82162 0.38919-0.12973 1.7297-2.8108-1.2973z" fill="url(#linearGradient2661)"/>
   <path id="path3382" d="m56.346 84.757 1.773-0.95135 1.2541 0.86486 1.7297-0.69189 0.99459 0.9946-3.0703 1.1676-2.6811-1.3838z" fill="url(#linearGradient2659)"/>
   <path id="path3384" d="m62.011 84.843v2.2486l3.2432-1.3838-3.2432-0.86486z" fill="url(#linearGradient2657)"/>
   <path id="path3386" d="m62.27 83.33-0.12973 1.5135 2.9838 0.95135-0.17297-1.6432-2.6811-0.82162z" fill="url(#linearGradient2655)"/>
   <path id="path3388" d="m62.357 83.243 2.5081-0.90811 2.5514 0.77838-2.4649 1.1243-2.5946-0.9946z" fill="url(#linearGradient2653)"/>
   <path id="path3390" d="m67.286 83.07 2.9405 0.77838-0.086486 0.17297-2.5946 1.2541-0.25946-2.2054z" fill="url(#linearGradient2651)"/>
   <path id="path3392" d="m67.33 81.297 0.086486 1.8162 2.8108 0.73514-0.043243-1.9459-2.6811-0.51892-0.17297-0.086487z" fill="url(#linearGradient2649)"/>
   <path id="path3394" d="m67.416 81.427 2.0324-0.77838-1.5568-0.60541 2.1622-1.2541 3.4162 1.3405-0.21622 0.34595-3.1568 1.5568-2.6811-0.6054z" fill="url(#linearGradient2647)"/>
   <path id="path3396" d="m67.503 81.038-1.5135-1.0378 1.5568-0.77838 1.0378 0.51892-0.95135 0.43243-0.12973 0.86486z" fill="url(#linearGradient2645)"/>
   <path id="path3398" d="m65.816 80.043 0.043244-1.9892 1.6865-0.77838-0.12973 2.0324-1.6 0.73514z" fill="url(#linearGradient2643)"/>
   <path id="path3400" d="m65.816 77.968-2.2486-1.3838-0.086487-0.25946 1.2973-0.77838 2.7243 1.773-1.6865 0.64865z" fill="url(#linearGradient2641)"/>
   <path id="path3402" d="m63.481 78.616-1.7297-1.2108 1.3405-0.82162 0.51892 0.6054 0.086486 1.4703-0.21622-0.043243z" fill="url(#linearGradient2639)"/>
   <path id="path3404" d="m61.665 77.362-0.043243-1.6865 1.3838-0.82162 0.086487 1.8162-1.427 0.69189z" fill="url(#linearGradient2637)"/>
   <path id="path3406" d="m61.708 75.589-1.0378-1.0378-1.2108 0.73514-1.3405-0.69189c0.013354 0.020031 2.7337-1.4824 2.8108-1.3405 0.22694 0.41741 2.1155 1.5204 2.1189 1.5135l-1.3405 0.82162z" fill="url(#linearGradient2635)"/>
   <path id="path3408" d="m59.33 75.243 0.25946 1.8162-1.2541-0.90811-0.21622-1.5568 1.2108 0.64865z" fill="url(#linearGradient2633)"/>
   <path id="path3410" d="m58.378 76.195-1.3838 0.64865 0.086486 1.2973 2.5081-1.0811-1.2108-0.86486z" fill="url(#linearGradient2631)"/>
   <path id="path3412" d="m56.908 75.676v0.3027l-2.6378 1.2973-1.6-0.77838 2.8973-1.2108 1.3405 0.38919z" fill="url(#linearGradient2629)"/>
   <path id="path3414" d="m52.67 76.627 0.21622 1.6432 1.773 0.69189-0.34595-1.6432-1.6432-0.69189z" fill="url(#linearGradient2627)"/>
   <path id="path3416" d="m52.843 78.184-1.427 0.64865-0.043243 1.7297 3.2865-1.5568-1.8162-0.82162z" fill="url(#linearGradient2625)"/>
   <path id="path3418" d="m60.67 74.551v9.5568l-1.3838 0.51892-1.2541-0.73514-1.5135 0.86486v0.64865l-0.82162-0.43243-0.086486-2.1189-2.6378-1.427-2.0324 0.77838-0.043244-1.773-1.9027-1.2973 2.5081-0.86486-0.043243 2.1622 2.4216-0.99459 0.73514-0.34595-0.3027-1.8162 2.5946-1.3405 0.21622 2.2486 2.5514-1.2108-0.25946-1.6432 1.2541-0.77838z" fill="url(#linearGradient2623)"/>
   <path id="path3420" d="m60.714 74.638-0.086487 9.6 0.43243-0.25946 1.0811 0.9946 0.12973-0.21622v-1.3405l2.5514-1.0811 2.5514 0.73514-0.043243-1.6432 0.43243-0.12973 1.7297-0.73514-1.7297-0.43243-0.12973 0.043243v0.86486l-0.64865-0.3027-1.2541-0.77838 0.086486-1.9892-2.2486-1.2973 0.12973 2.1189-1.9892-1.3405-0.043243-1.9027-0.95135-0.90811z" fill="url(#linearGradient2621)"/>
   <path id="path3422" d="m50.292 95.827 0.34595-2.5081 0.69189-1.2108 1.0378-0.6054 1.3838 0.99459 0.43243 1.5568 0.17297 2.8108 0.12973 1.9459-4.1946-2.9838z" fill="#d59163"/>
   <path id="path3426" d="m46.27 78.919 0.21622 34.854 12.281 9.2108 0.17297-36.843-2.5514-1.2541v2.2486l-3.0703-1.2488 0.34595-2.1242-2.6811-1.5568v2.1189l-2.4649-1.5135 0.12973-2.1189-2.3784-1.773z" fill-opacity=".15686"/>
   <path id="path3428" d="m62.27 83.33-0.12973 1.5135 2.9838 0.95135-0.17297-1.6432-2.6811-0.82162z" fill-opacity=".15686"/>
   <path id="path3430" d="m67.33 81.297 0.086486 1.8162 2.8108 0.73514-0.043243-1.9459-2.6811-0.51892-0.17297-0.086487z" fill-opacity=".15686"/>
   <path id="path3432" d="m59.33 75.243 0.25946 1.8162-1.2541-0.90811-0.21622-1.5568 1.2108 0.64865z" fill-opacity=".15686"/>
   <path id="path3434" d="m52.67 76.627 0.21622 1.6432 1.773 0.69189-0.34595-1.6432-1.6432-0.69189z" fill-opacity=".15686"/>
   <path id="path3436" d="m60.714 74.638-0.086487 9.6 0.43243-0.25946 1.0811 0.9946 0.12973-0.21622v-1.3405l2.5514-1.0811 2.5514 0.73514-0.043243-1.6432 0.43243-0.12973 1.7297-0.73514-1.7297-0.43243-0.12973 0.043243v0.86486l-0.64865-0.3027-1.2541-0.77838 0.086486-1.9892-2.2486-1.2973 0.12973 2.1189-1.9892-1.3405-0.043243-1.9027-0.95135-0.90811z" fill-opacity=".15686"/>
  </g>
  <g id="g3494" transform="translate(6.997 -61.328)">
   <path id="path3496" d="m46.27 78.919 0.21622 34.854 12.281 9.2108 0.17297-36.843-2.5514-1.2541v2.2486l-3.0703-1.2488 0.34595-2.1242-2.6811-1.5568v2.1189l-2.4649-1.5135 0.12973-2.1189-2.3784-1.773z" fill="url(#linearGradient2499)"/>
   <path id="path3498" d="m58.984 86.054c0 0.21622-0.21622 37.059-0.21622 37.059l15.135-6.8757-0.60541-35.892-3.027 1.6432-0.12973 1.9027-2.5946 1.3838-0.17297-2.0757-2.4216 1.0811 0.17297 1.5135-3.0703 1.2108-0.17297-1.773-2.8973 0.82162z" fill="url(#linearGradient2567)"/>
   <path id="path3500" d="m46.27 78.703 3.9784-1.4703 1.2108 1.0811-2.4216 0.77838 1.6865 1.1676-1.9892 0.51892-2.4649-2.0757z" fill="url(#linearGradient2671)"/>
   <path id="path3502" d="m48.692 80.778-0.17297 2.1189 2.5081-0.86486-0.12973-1.6865-2.2054 0.43243z" fill="url(#linearGradient2669)"/>
   <path id="path3504" d="m51.2 82.292-0.21622-0.25946-2.4216 0.82162 2.2919 1.4703 0.34595-2.0324z" fill="url(#linearGradient2667)"/>
   <path id="path3506" d="m50.941 82.162 2.8108 1.7297 1.9459-1.0378-2.7676-1.427-1.9892 0.73514z" fill="url(#linearGradient2665)"/>
   <path id="path3508" d="m53.622 83.762 2.0324-0.82162 0.043243 2.1189-2.3351 0.77838 0.25946-1.8162v-0.25946z" fill="url(#linearGradient2663)"/>
   <path id="path3510" d="m53.535 85.838 2.1189-0.82162 0.82162 0.38919-0.12973 1.7297-2.8108-1.2973z" fill="url(#linearGradient2661)"/>
   <path id="path3512" d="m56.346 84.757 1.773-0.95135 1.2541 0.86486 1.7297-0.69189 0.99459 0.9946-3.0703 1.1676-2.6811-1.3838z" fill="url(#linearGradient2659)"/>
   <path id="path3514" d="m62.179 84.81-0.16854 2.2824 3.2432-1.3838-3.0747-0.89857z" fill="url(#linearGradient2657)"/>
   <path id="path3516" d="m62.27 83.33-0.12973 1.5135 2.9838 0.95135-0.17297-1.6432-2.6811-0.82162z" fill="url(#linearGradient2655)"/>
   <path id="path3518" d="m62.357 83.243 2.5081-0.90811 2.5514 0.77838-2.4649 1.1243-2.5946-0.9946z" fill="url(#linearGradient2653)"/>
   <path id="path3520" d="m67.286 83.07 2.9405 0.77838-0.086486 0.17297-2.5946 1.2541-0.25946-2.2054z" fill="url(#linearGradient2651)"/>
   <path id="path3522" d="m67.33 81.297 0.086486 1.8162 2.8108 0.73514-0.043243-1.9459-2.6811-0.51892-0.17297-0.086487z" fill="url(#linearGradient2649)"/>
   <path id="path3524" d="m67.416 81.427 2.0324-0.77838-1.5568-0.60541 2.1622-1.2541 3.4162 1.3405-0.21622 0.34595-3.1568 1.5568-2.6811-0.6054z" fill="url(#linearGradient2647)"/>
   <path id="path3526" d="m67.503 81.038-1.5135-1.0378 1.5568-0.77838 1.0378 0.51892-0.95135 0.43243-0.12973 0.86486z" fill="url(#linearGradient2645)"/>
   <path id="path3528" d="m65.816 80.043 0.043244-1.9892 1.6865-0.77838-0.12973 2.0324-1.6 0.73514z" fill="url(#linearGradient2643)"/>
   <path id="path3530" d="m65.816 77.968-2.2486-1.3838-0.086487-0.25946 1.2973-0.77838 2.7243 1.773-1.6865 0.64865z" fill="url(#linearGradient2641)"/>
   <path id="path3532" d="m63.481 78.616-1.7297-1.2108 1.3405-0.82162 0.51892 0.6054 0.086486 1.4703-0.21622-0.043243z" fill="url(#linearGradient2639)"/>
   <path id="path3534" d="m61.665 77.362-0.043243-1.6865 1.3838-0.82162 0.086487 1.8162-1.427 0.69189z" fill="url(#linearGradient2637)"/>
   <path id="path3536" d="m61.708 75.589-1.0378-1.0378-1.2108 0.73514-1.3405-0.69189c0.004967 0.029799 2.5186-1.3878 2.8108-1.3405 0.10382 0.016773 2.0742 1.5731 2.1189 1.5135l-1.3405 0.82162z" fill="url(#linearGradient2635)"/>
   <path id="path3538" d="m59.33 75.243 0.25946 1.8162-1.2541-0.90811-0.21622-1.5568 1.2108 0.64865z" fill="url(#linearGradient2633)"/>
   <path id="path3540" d="m58.378 76.195-1.3838 0.64865 0.086486 1.2973 2.5081-1.0811-1.2108-0.86486z" fill="url(#linearGradient2631)"/>
   <path id="path3542" d="m56.908 75.676v0.3027l-2.6378 1.2973-1.6-0.77838 2.8973-1.2108 1.3405 0.38919z" fill="url(#linearGradient2629)"/>
   <path id="path3544" d="m52.67 76.627 0.21622 1.6432 1.773 0.69189-0.34595-1.6432-1.6432-0.69189z" fill="url(#linearGradient2627)"/>
   <path id="path3546" d="m52.843 78.184-1.427 0.64865-0.043243 1.7297 3.2865-1.5568-1.8162-0.82162z" fill="url(#linearGradient2625)"/>
   <path id="path3548" d="m60.67 74.551 0.16854 9.4893-1.5523 0.58634-1.2541-0.73514-1.5135 0.86486v0.64865l-0.82162-0.43243-0.086486-2.1189-2.6378-1.427-2.0324 0.77838-0.043244-1.773-1.9027-1.2973 2.5081-0.86486-0.043243 2.1622 2.4216-0.99459 0.73514-0.34595-0.3027-1.8162 2.5946-1.3405 0.21622 2.2486 2.5514-1.2108-0.25946-1.6432 1.2541-0.77838z" fill="url(#linearGradient2623)"/>
   <path id="path3550" d="m60.714 74.638 0.1437 9.3405 1.2833 0.9946 0.12973-0.21622v-1.3405l2.5514-1.0811 2.5514 0.73514-0.043243-1.6432 0.43243-0.12973 1.7297-0.73514-1.7297-0.43243-0.12973 0.043243v0.86486l-0.64865-0.3027-1.2541-0.77838 0.086486-1.9892-2.2486-1.2973 0.12973 2.1189-1.9892-1.3405-0.043243-1.9027-0.95135-0.90811z" fill="url(#linearGradient2621)"/>
   <path id="path3556" d="m46.27 78.919 0.21622 34.854 12.281 9.2108 0.17297-36.843-2.5514-1.2541v2.2486l-3.0703-1.2488 0.34595-2.1242-2.6811-1.5568v2.1189l-2.4649-1.5135 0.12973-2.1189-2.3784-1.773z" fill-opacity=".15686"/>
   <path id="path3558" d="m62.27 83.33-0.12973 1.5135 2.9838 0.95135-0.17297-1.6432-2.6811-0.82162z" fill-opacity=".15686"/>
   <path id="path3560" d="m67.33 81.297 0.086486 1.8162 2.8108 0.73514-0.043243-1.9459-2.6811-0.51892-0.17297-0.086487z" fill-opacity=".15686"/>
   <path id="path3562" d="m59.33 75.243 0.25946 1.8162-1.2541-0.90811-0.21622-1.5568 1.2108 0.64865z" fill-opacity=".15686"/>
   <path id="path3564" d="m52.67 76.627 0.21622 1.6432 1.773 0.69189-0.34595-1.6432-1.6432-0.69189z" fill-opacity=".15686"/>
   <path id="path3566" d="m60.714 74.638 0.17741 9.4417 1.2496 0.89347 0.12973-0.21622v-1.3405l2.5514-1.0811 2.5514 0.73514-0.043243-1.6432 0.43243-0.12973 1.7297-0.73514-1.7297-0.43243-0.12973 0.043243v0.86486l-0.64865-0.3027-1.2541-0.77838 0.086486-1.9892-2.2486-1.2973 0.12973 2.1189-1.9892-1.3405-0.043243-1.9027-0.95135-0.90811z" fill-opacity=".15686"/>
  </g>
  <g id="g3624" transform="translate(53.323 -22.227)">
   <path id="path3626" d="m46.27 78.919 0.21622 34.854 12.281 9.2108 0.17297-36.843-2.5514-1.2541v2.2486l-2.9691-1.3836 0.24482-1.9893-2.6811-1.5568v2.1189l-2.4649-1.5135 0.12973-2.1189-2.3784-1.773z" fill="url(#linearGradient2499)"/>
   <path id="path3628" d="m58.984 86.054c0 0.21622-0.21622 37.059-0.21622 37.059l15.135-6.8757-0.60541-35.892-3.027 1.6432-0.12973 1.9027-2.5946 1.3838-0.17297-2.0757-2.4216 1.0811 0.17297 1.5135-3.0703 1.2108-0.17297-1.773-2.8973 0.82162z" fill="url(#linearGradient2567)"/>
   <path id="path3630" d="m46.27 78.703 3.9784-1.4703 1.2108 1.0811-2.4216 0.77838 1.6865 1.1676-1.9892 0.51892-2.4649-2.0757z" fill="url(#linearGradient2671)"/>
   <path id="path3632" d="m48.692 80.778-0.17297 2.1189 2.5081-0.86486-0.12973-1.6865-2.2054 0.43243z" fill="url(#linearGradient2669)"/>
   <path id="path3634" d="m51.2 82.292-0.21622-0.25946-2.4216 0.82162 2.2919 1.4703 0.34595-2.0324z" fill="url(#linearGradient2667)"/>
   <path id="path3636" d="m50.941 82.162 2.8108 1.7297 1.9459-1.0378-2.7676-1.427-1.9892 0.73514z" fill="url(#linearGradient2665)"/>
   <path id="path3638" d="m53.622 83.762 2.0324-0.82162 0.043243 2.1189-2.3351 0.77838 0.25946-1.8162v-0.25946z" fill="url(#linearGradient2663)"/>
   <path id="path3640" d="m53.535 85.838 2.1189-0.82162 0.82162 0.38919-0.12973 1.7297-2.8108-1.2973z" fill="url(#linearGradient2661)"/>
   <path id="path3642" d="m56.346 84.757 1.773-0.95135 1.2541 0.86486 1.7297-0.69189 0.99459 0.9946-3.0703 1.1676-2.6811-1.3838z" fill="url(#linearGradient2659)"/>
   <path id="path3644" d="m62.011 84.843v2.2486l3.2432-1.3838-3.2432-0.86486z" fill="url(#linearGradient2657)"/>
   <path id="path3646" d="m62.27 83.33-0.12973 1.5135 2.9838 0.95135-0.17297-1.6432-2.6811-0.82162z" fill="url(#linearGradient2655)"/>
   <path id="path3648" d="m62.357 83.243 2.5081-0.90811 2.5514 0.77838-2.4649 1.1243-2.5946-0.9946z" fill="url(#linearGradient2653)"/>
   <path id="path3650" d="m67.286 83.07 2.9405 0.77838-0.086486 0.17297-2.5946 1.2541-0.25946-2.2054z" fill="url(#linearGradient2651)"/>
   <path id="path3652" d="m67.33 81.297 0.086486 1.8162 2.8108 0.73514-0.043243-1.9459-2.6811-0.51892-0.17297-0.086487z" fill="url(#linearGradient2649)"/>
   <path id="path3654" d="m67.416 81.427 2.0324-0.77838-1.5568-0.60541 2.1622-1.2541 3.4162 1.3405-0.21622 0.34595-3.1568 1.5568-2.6811-0.6054z" fill="url(#linearGradient2647)"/>
   <path id="path3656" d="m67.503 81.038-1.5135-1.0378 1.5568-0.77838 1.0378 0.51892-0.95135 0.43243-0.12973 0.86486z" fill="url(#linearGradient2645)"/>
   <path id="path3658" d="m65.816 80.043 0.043244-1.9892 1.6865-0.77838-0.12973 2.0324-1.6 0.73514z" fill="url(#linearGradient2643)"/>
   <path id="path3660" d="m65.816 77.968-2.2486-1.3838-0.086487-0.25946 1.2973-0.77838 2.7243 1.773-1.6865 0.64865z" fill="url(#linearGradient2641)"/>
   <path id="path3662" d="m63.481 78.616-1.7297-1.2108 1.3405-0.82162 0.51892 0.6054 0.086486 1.4703-0.21622-0.043243z" fill="url(#linearGradient2639)"/>
   <path id="path3664" d="m61.665 77.362-0.043243-1.6865 1.3838-0.82162 0.086487 1.8162-1.427 0.69189z" fill="url(#linearGradient2637)"/>
   <path id="path3666" d="m61.708 75.589-1.0378-1.0378-1.2108 0.73514-1.3405-0.69189s2.5081-1.6 2.8108-1.3405c0.3027 0.25946 2.1189 1.5135 2.1189 1.5135l-1.3405 0.82162z" fill="url(#linearGradient2635)"/>
   <path id="path3668" d="m59.33 75.243 0.25946 1.8162-1.2541-0.90811-0.21622-1.5568 1.2108 0.64865z" fill="url(#linearGradient2633)"/>
   <path id="path3670" d="m58.378 76.195-1.3838 0.64865 0.086486 1.2973 2.5081-1.0811-1.2108-0.86486z" fill="url(#linearGradient2631)"/>
   <path id="path3672" d="m56.908 75.676v0.3027l-2.6378 1.2973-1.6-0.77838 2.8973-1.2108 1.3405 0.38919z" fill="url(#linearGradient2629)"/>
   <path id="path3674" d="m52.67 76.627 0.21622 1.6432 1.773 0.69189-0.34595-1.6432-1.6432-0.69189z" fill="url(#linearGradient2627)"/>
   <path id="path3676" d="m52.843 78.184-1.427 0.64865-0.043243 1.7297 3.2865-1.5568-1.8162-0.82162z" fill="url(#linearGradient2625)"/>
   <path id="path3678" d="m60.67 74.551 0.13483 9.523-1.5186 0.55263-1.2541-0.73514-1.5135 0.86486v0.64865l-0.82162-0.43243-0.086486-2.1189-2.6378-1.427-2.0324 0.77838-0.043244-1.773-1.9027-1.2973 2.5081-0.86486-0.043243 2.1622 2.4216-0.99459 0.73514-0.34595-0.3027-1.8162 2.5946-1.3405 0.21622 2.2486 2.5514-1.2108-0.25946-1.6432 1.2541-0.77838z" fill="url(#linearGradient2623)"/>
   <path id="path3680" d="m60.714 74.638 0.11576 9.4652 0.23018-0.12463 1.0811 0.9946 0.12973-0.21622v-1.3405l2.5514-1.0811 2.5514 0.73514-0.043243-1.6432 0.43243-0.12973 1.7297-0.73514-1.696-0.60097-0.16344 0.21178v0.86486l-0.64865-0.3027-1.2541-0.77838 0.086486-1.9892-2.2486-1.2973 0.12973 2.1189-1.9892-1.3405-0.043243-1.9027-0.95135-0.90811z" fill="url(#linearGradient2621)"/>
   <path id="path3686" d="m46.27 78.919 0.21622 34.854 12.281 9.2108 0.17297-36.843-2.5514-1.2541v2.2486l-2.9691-1.3499 0.24482-2.023-2.6811-1.5568v2.1189l-2.4649-1.5135 0.12973-2.1189-2.3784-1.773z" fill-opacity=".15686"/>
   <path id="path3684" d="m64.173 100.24 5.3189-1.9459s-0.21622-2.6378-0.6054-2.9405c-0.38919-0.3027-0.95135-1.6-0.95135-1.6l-1.7297-1.0811-1.0811 1.4703-0.82162 2.0324-0.043243 1.9027-0.086487 2.1622z" fill="#d59163"/>
   <path id="path3688" d="m62.27 83.33-0.12973 1.5135 2.9838 0.95135-0.17297-1.6432-2.6811-0.82162z" fill-opacity=".15686"/>
   <path id="path3690" d="m67.33 81.297 0.086486 1.8162 2.8108 0.73514-0.043243-1.9459-2.6811-0.51892-0.17297-0.086487z" fill-opacity=".15686"/>
   <path id="path3692" d="m59.33 75.243 0.25946 1.8162-1.2541-0.90811-0.21622-1.5568 1.2108 0.64865z" fill-opacity=".15686"/>
   <path id="path3694" d="m52.67 76.627 0.21622 1.6432 1.773 0.69189-0.34595-1.6432-1.6432-0.69189z" fill-opacity=".15686"/>
   <path id="path3696" d="m60.714 74.638 0.014637 9.4315 0.23018-0.023504 1.1822 0.92718 0.12973-0.21622v-1.3405l2.5514-1.0811 2.5514 0.73514-0.043243-1.6432 0.43243-0.12973 1.7297-0.73514-1.6286-0.56726-0.23085 0.44774v0.5952l-0.64865-0.3027-1.2541-0.77838 0.086486-1.9892-2.2486-1.2973 0.12973 2.1189-1.9892-1.3405-0.043243-1.9027-0.95135-0.90811z" fill-opacity=".15686"/>
  </g>
  <path id="path3754" d="m19.763 62.658-0.125 26.312 29.062 20.5-0.1875-23.875-1.5-1.25 0.125 2.6875-3.125-1.8125 0.3125-3.6875-3.6875-2.5625-0.0625 2.9375-2.75-1.9375-0.0625-3.4375-4.25-3.25 0.125 3.625-2.6875-1.9375-0.0625-3.75-3.6875-2.75v3.6875l-3.6875-2.875v-3.8125l-3.75-2.8125z" fill="url(#linearGradient3756)"/>
  <path id="path3758" d="m19.638 62.596 5.125-1.125 3.625 2.375-4.6875 1.75-4.0625-3z" fill="url(#linearGradient3790)"/>
  <path id="path3760" d="m23.701 65.533 4.625-1.625 0.25 3.5-5.0625 1.8125 0.1875-3.6875z" fill="url(#linearGradient3788)"/>
  <path id="path3762" d="m23.513 69.096 5-1.9375 0.8125 0.4375-2.0625 0.75-0.125 3.9375-3.625-3.1875z" fill="url(#linearGradient3786)"/>
  <path id="path3764" d="m27.201 68.346 3.5625-1.5 4.5 2.6875-4.25 1.6875-3.8125-2.875z" fill="url(#linearGradient3784)"/>
  <path id="path3766" d="m30.951 71.221v3.75l2.6875-1.25v-0.375l1.875-1.125-0.1875-2.75-4.375 1.75z" fill="url(#linearGradient3808)"/>
  <path id="path3768" d="m33.576 73.846 0.0625 3.25-2.5-2.25 1.625-0.6875 0.8125-0.3125z" fill="url(#linearGradient3806)"/>
  <path id="path3770" d="m33.513 73.221 4-2.0625 4.125 3.125-3.6875 2.4375-4.4375-3.5z" fill="url(#linearGradient3804)"/>
  <path id="path3772" d="m37.763 76.596 0.0625 3.5h0.375l2.5-0.9375-0.125-0.5 1.4375-1.125-0.3125-3.1875-3.9375 2.25z" fill="url(#linearGradient3802)"/>
  <path id="path3774" d="m40.451 82.096-2.4375-2 2.6875-1-0.25 3z" fill="url(#linearGradient3800)"/>
  <path id="path3776" d="m40.826 78.971-0.3125-0.4375 3.625-2.4375 3.875 2.5-3.875 3-3.3125-2.625z" fill="url(#linearGradient3798)"/>
  <path id="path3778" d="m44.263 81.533-0.25 3.6875 3-0.625v-0.3125l1.0625-0.875-0.125-4.9375-3.6875 3.0625z" fill="url(#linearGradient3796)"/>
  <path id="path3780" d="m47.013 86.971-2.875-1.8125 2.875-0.6875 0.0625 2.75-0.3125-0.125 0.25-0.125z" fill="url(#linearGradient3794)"/>
  <path id="path3782" d="m48.388 85.783-1.3125-1.375 1.4375-1.25-0.125 2.625z" fill="url(#linearGradient3792)"/>
  <path id="path3810" d="m19.763 62.658-0.125 26.312 29.062 20.5-0.1875-23.875-1.5-1.25 0.125 2.6875-3.125-1.8125 0.3125-3.6875-3.6875-2.5625-0.0625 2.9375-2.75-1.9375-0.0625-3.4375-4.25-3.25 0.125 3.625-2.6875-1.9375-0.0625-3.75-3.6875-2.75v3.6875l-3.6875-2.875v-3.8125l-3.75-2.8125z" fill-opacity=".15686"/>
  <path id="path3814" d="m74.516 31.242 5.125-1.125 3.625 2.375-4.6875 1.75-4.0625-3z" fill="url(#linearGradient3844)"/>
  <path id="path3816" d="m78.579 34.179 4.625-1.625 0.25 3.5-5.0625 1.8125 0.1875-3.6875z" fill="url(#linearGradient3846)"/>
  <path id="path3818" d="m78.391 37.742 5-1.9375 0.8125 0.4375-2.0625 0.75-0.125 3.9375-3.625-3.1875z" fill="url(#linearGradient3848)"/>
  <path id="path3820" d="m82.079 36.992 3.5625-1.5 4.5 2.6875-4.25 1.6875-3.8125-2.875z" fill="url(#linearGradient3850)"/>
  <path id="path3822" d="m85.829 39.867v3.75l2.6875-1.25v-0.375l1.875-1.125-0.1875-2.75-4.375 1.75z" fill="url(#linearGradient3852)"/>
  <path id="path3824" d="m88.454 42.492 0.0625 3.25-2.5-2.25 1.625-0.6875 0.8125-0.3125z" fill="url(#linearGradient3854)"/>
  <path id="path3826" d="m88.391 41.867 4-2.0625 4.125 3.125-3.6875 2.4375-4.4375-3.5z" fill="url(#linearGradient3856)"/>
  <path id="path3828" d="m92.641 45.242 0.0625 3.5h0.375l2.5-0.9375-0.125-0.5 1.4375-1.125-0.3125-3.1875-3.9375 2.25z" fill="url(#linearGradient3858)"/>
  <path id="path3830" d="m95.329 50.742-2.4375-2 2.6875-1-0.25 3z" fill="url(#linearGradient3860)"/>
  <path id="path3832" d="m95.704 47.617-0.3125-0.4375 3.625-2.4375 3.875 2.5-3.875 3-3.3125-2.625z" fill="url(#linearGradient3862)"/>
  <path id="path3834" d="m99.141 50.179-0.25 3.6875 3-0.625v-0.3125l1.0625-0.875-0.125-4.9375-3.6875 3.0625z" fill="url(#linearGradient3864)"/>
  <path id="path3836" d="m101.89 55.617-2.875-1.8125 2.875-0.6875 0.0625 2.75-0.3125-0.125 0.25-0.125z" fill="url(#linearGradient3866)"/>
  <path id="path3838" d="m105.65 56.264-3.7434-3.3931 2.7676-2.0756 3.8658 2.3532-2.4674 1.1491c-0.1127 0.38869 0.11306 1.1902 0.11634 1.5789l-0.53892 0.38749z" fill="url(#linearGradient3868)"/>
  <path id="path3870" d="m32.826 68.096-1.1875-0.8125-0.1875-19.875-0.0625-0.1875-3.375-1.1875-1.4375 0.875-1.1875-0.625 0.125-1.875-1.9375-1.25 4.75-2-0.125 3.375 3.5-1.4375-0.0625-3.125 4.625-2 0.25 3.375 4.4375-2.0625-0.3125-2.9375 4.0625-1.75 0.0625 3.5625 3.8125-1.875-0.4375-3.375 4.4375-1.375s-0.25 3 0 3 3-1.1875 3-1.1875l-0.1875-3.25 4.25-1.8125 0.0625 16.125-7.375 1.625-19.688 10.562 0.1875 11.5z" fill="url(#linearGradient3872)"/>
  <path id="path3874" d="m23.775 43.184-0.92808-0.53033-1.4142 0.88388 0.13258 0.61872-0.48614-0.39775v-1.6352l3.7123-1.7678 3.3588 0.83969-4.3752 1.9887z" fill="url(#linearGradient3924)"/>
  <path id="path3876" d="m28.15 41.151 0.13258 3.3588 3.4913-1.5026-3.2262-1.7678-0.39775-0.088388z" fill="url(#linearGradient3922)"/>
  <path id="path3878" d="m28.415 41.195v-2.6075l3.0936 1.4584 0.22097 3.0936-3.3146-1.9445z" fill="url(#linearGradient3920)"/>
  <path id="path3880" d="m28.371 38.588 3.182 1.4142 4.6846-2.0771-3.3588-1.4142-4.5078 2.0771z" fill="url(#linearGradient3918)"/>
  <path id="path3882" d="m36.238 38.19 4.5962 1.149-4.2868 1.9445-0.30936-3.0936z" fill="url(#linearGradient3916)"/>
  <path id="path3884" d="m36.415 38.234v-2.8284l4.2426 1.0165 0.35355 2.9168-0.35355 0.044194-4.2426-1.149z" fill="url(#linearGradient3914)"/>
  <path id="path3886" d="m36.415 35.273 4.8614-1.4584 3.2262 0.83969-3.9333 1.6352-4.1543-1.0165z" fill="url(#linearGradient3912)"/>
  <path id="path3888" d="m44.59 34.654 0.22097 3.5355 3.8007-1.9887-4.0217-1.5468z" fill="url(#linearGradient3910)"/>
  <path id="path3890" d="m44.59 34.566-0.30936-2.4749 3.8891 0.88388 0.22097 3.182-3.8007-1.591z" fill="url(#linearGradient3908)"/>
  <path id="path3892" d="m44.237 32.003 5.0381-1.6794 2.8726 1.2816-4.0659 1.4142-3.8449-1.0165z" fill="url(#linearGradient3906)"/>
  <path id="path3894" d="m52.457 31.649 3.182 1.6352-3.0494 1.3258-0.044194-2.74-0.088389-0.22097z" fill="url(#linearGradient3904)"/>
  <path id="path3896" d="m52.501 31.693-0.088388-2.7842 2.961 1.149 0.26516 3.1378-3.1378-1.5026z" fill="url(#linearGradient3902)"/>
  <path id="path3898" d="m52.501 28.953 3.5355-1.5026 3.7123 0.7955-4.4636 1.812-2.7842-1.1049z" fill="url(#linearGradient3900)"/>
  <path id="path3926" d="m28.415 41.195v-2.6075l3.0936 1.4584 0.22097 3.0936-3.3146-1.9445z" fill-opacity=".15686"/>
  <path id="path3928" d="m36.415 38.234v-2.8284l4.2426 1.0165 0.35355 2.9168-0.35355 0.044194-4.2426-1.149z" fill-opacity=".15686"/>
  <path id="path3930" d="m44.59 34.566-0.30936-2.4749 3.8891 0.88388 0.22097 3.182-3.8007-1.591z" fill-opacity=".15686"/>
  <path id="path3932" d="m52.501 31.693-0.088388-2.7842 2.961 1.149 0.26516 3.1378-3.1378-1.5026z" fill-opacity=".15686"/>
  <path id="path3934" d="m75.451 84.658 0.4375 28.625 10.062-4-0.375-28.688-3.3125 1.375 0.1875 3.1875-3.375 1.5v-3.5l-3.625 1.5z" fill="url(#linearGradient3936)"/>
  <path id="path3940" d="m82.638 78.971-0.0625-2.75 4.8125 2.25 0.3125 31.375-1.875-0.5-0.1875-28.75-3-1.625z" fill="url(#linearGradient3942)"/>
  <path id="path3944" d="m87.701 109.53-0.3125-31.188 5.375-2.25 0.125 2.0625 4.375-2.125-0.125-2 5-2.125 0.0625 32.125-14.438 5.875-0.0625-0.375z" fill="url(#linearGradient3946)"/>
  <path id="path3948" d="m102.01 74.033 1.5-0.5-0.0625 3.1875 3-1.3125-0.25-3.25 4.3125-1.875 0.0625 29.312-8.4375 3.4375-0.125-29z" fill="url(#linearGradient3950)"/>
  <path id="path3952" d="m110.33 70.221-3.3125-0.78125-3.6875 1.5625 2.8438 1.0938 4.1562-1.875z" fill="url(#linearGradient3954)"/>
  <path id="path3956" d="m103.42 73.565-0.0625-2.5312 2.8438 1.0625 0.28125 3.1875-3.0625-1.7188z" fill="url(#linearGradient3958)"/>
  <path id="path3960" d="m102.08 73.971c0.375-0.125 1.25-0.375 1.25-0.375l-1.3125-0.5625 0.0625 0.9375z" fill="url(#linearGradient3962)"/>
  <path id="path3964" d="m98.732 69.815 3.2813 1.8125 0.03125 0.3125-4.8438 2.1562-3.5-2.1875 5.0312-2.0938z" fill="url(#linearGradient3966)"/>
  <path id="path3968" d="m93.763 71.846c0.16309 0.16014 3.5139 2.0695 3.4688 2.25l-0.0625 1.625-3.2188-1.4688-0.1875-2.4062z" fill="url(#linearGradient3970)"/>
  <path id="path3972" d="m93.919 74.252-2.2188 1.0312 1.0312 0.59375 0.03125 2.2188 4.4375-2.0938-0.03125-0.34375-3.25-1.4062z" fill="url(#linearGradient3974)"/>
  <path id="path3976" d="m82.638 76.19 6.4688-2.6875 3.5938 2.375 0.0625 0.375-5.375 2.2188-4.75-2.2812z" fill="url(#linearGradient3978)"/>
  <path id="path3980" d="m79.138 80.565 3.7188-1.5312 2.5938 1.625-3.25 1.3438-3.0625-1.4375z" fill="url(#linearGradient3982)"/>
  <path id="path3984" d="m75.357 82.408 3.7812 0.75-3.75 1.5938-0.03125-2.3438z" fill="url(#linearGradient3986)"/>
  <path id="path3988" d="m78.888 83.283 0.40625-0.0625 3.25 1.7812-3.3438 1.5938-0.3125-3.3125z" fill="url(#linearGradient3990)"/>
  <path id="path3992" d="m79.263 83.252c0-0.625-0.03125-2.625-0.03125-2.625l3.1562 1.4375 0.09375 3-3.2188-1.8125z" fill="url(#linearGradient3994)"/>
  <path id="path3996" d="m82.638 78.971-0.0625-2.75 4.8125 2.25 0.3125 31.375-1.875-0.5-0.1875-28.75-3-1.625z" fill-opacity=".15686"/>
  <path id="path3998" d="m103.42 73.565-0.0625-2.5312 2.8438 1.0625 0.28125 3.1875-3.0625-1.7188z" fill-opacity=".15686"/>
  <path id="path4000" d="m93.763 71.846c0.16309 0.16014 3.5139 2.0695 3.4688 2.25l-0.0625 1.625-3.2188-1.4688-0.1875-2.4062z" fill-opacity=".15686"/>
  <path id="path4002" d="m79.263 83.252c0-0.625-0.03125-2.625-0.03125-2.625l3.1562 1.4375 0.09375 3-3.2188-1.8125z" fill-opacity=".15686"/>
  <path id="path4004" d="m67.951 76.627 1.6562 1.0312-0.09375 2.0312 0.84375 0.46875 1.8125-0.96875 3.2812 1.3125 0.03125 1.875 3.8125 0.78125-0.0625-2.625 3.4062-1.5-0.03125-2.8125 6.4688-2.6562 2.6875 1.75 2.1875-0.96875-0.15625-2.375 2.4062-1.1562-0.125-6.7812-0.375-0.0625-27.75 12.656z" fill="url(#linearGradient4006)"/>
  <path id="path4008" d="m32.763 68.096 2.5625 1.5938 0.15625 2.625 2-1.125 4.2812 3.25 0.15625 3.2812 2.2812-1.6875 3.5625 2.4375 0.28125 4.9688h0.40625l-0.0625-4.3438 3.8125-1.4688 1.3438 1.125 0.03125 0.53125 1.4062-0.65625-0.1875-1.7188 2.8438-1.2812 1.3438 0.5 0.09375 1.0938 1.3125-0.625 0.03125-0.28125-17.719-12.562-10.062-7.125-0.1875 0.3125 0.3125 11.156z" fill="url(#linearGradient4010)"/>
  <path id="path4012" d="m32.763 68.096 2.5625 1.5938 0.15625 2.625 2-1.125 4.2812 3.25 0.15625 3.2812 2.2812-1.6875 3.5625 2.4375 0.28125 4.9688h0.40625l-0.0625-4.3438 3.8125-1.4688 1.3438 1.125 0.03125 0.53125 1.4062-0.65625-0.1875-1.7188 2.8438-1.2812 1.3438 0.5 0.09375 1.0938 1.3125-0.625 0.03125-0.28125-17.719-12.562-10.062-7.125-0.1875 0.3125 0.3125 11.156z" fill-opacity=".15686"/>
  <path id="path4117" d="m67.935 76.627-1.0811-0.73514-1.2973 0.77838 0.043243 0.64865-0.47568-0.38919-0.043244-0.34595 8.3892-13.535 21.838 0.6054 0.47568 0.25946-27.849 12.714z" fill="url(#linearGradient4119)"/>
  <path id="path4121" d="m51.935 46.054 11.632-2.7243 31.741 20.368-21.881-0.69189-21.492-16.951z" fill="url(#linearGradient4123)"/>
  <path id="path4125" d="m60.368 76.238-0.12973-1.2973 2.7676-1.2973 2.0757 1.5568 0.043244 1.3838 8.3892-13.578-21.535-16.951-19.373 10.551 27.762 19.632z" fill="url(#linearGradient4127)"/>
  <path id="path4129" d="m60.368 76.238-0.12973-1.2973 2.7676-1.2973 2.0757 1.5568 0.043244 1.3838 8.3892-13.578-21.535-16.951-19.373 10.551 27.762 19.632z" fill-opacity=".15686"/>
  <path id="path4131" d="m97.107 89.221-0.71875 0.03125-0.0625 1.25-1.5 0.21875v-1.25l-0.84375 0.625-0.09375 0.96875-0.21875 0.09375v0.75l0.5-0.03125-0.125 1.8438-0.8125 0.25-0.0625-1.4375-0.875 0.6875v1.125l-0.4375 0.28125v1.0625l0.40625-0.09375-0.15625 1.4688-0.3125 0.15625-0.03125 1.0312 0.625-0.09375-0.0625 1.625-0.46875 0.15625-0.03125 1.1563 0.53125-0.09375-0.0625 1.3438-0.40625 0.28125 0.0625 1.0625 0.46875-0.125v1.375l-0.46875 0.21875v1.1562l0.40625-0.125-0.03125 0.96875 1-0.28125v-1.0312l0.875-0.40625 0.09375 1.25 0.9375-0.34375-0.03125-1.25 1.0625-0.4375 0.0625 1.125 1.0312-0.375 0.03125-1.2812 0.59375-0.21875 0.03125 1.2812 0.9375-0.53125 0.0625-1.2812 0.25-0.09375-0.0625-0.9375h-0.25l0.03125-1.0312 0.25-0.15625-0.03125-0.96875-0.1875-0.03125 0.03125-1.5 0.28125-0.125-0.0625-1.0312-0.34375 0.03125 0.0625-1.75 0.28125-0.09375v-0.90625l-0.3125-0.03125v-1.4688l0.3125-0.21875v-1.1875l-0.4375 0.03125-0.03125-0.9375c0-0.068718-0.375-0.10362-0.78125-0.15625-0.055465-0.007185-0.092958-0.004982-0.125 0.03125l-0.25-0.71875h-0.40625l-0.125-0.90625zm0.75 1.6875c-0.16596 0.32291 0.09375 1.375 0.09375 1.375l-0.75 0.28125v-1.4688l0.65625-0.1875zm-1.625 0.5 0.09375 1.4375-1.25 0.5-0.03125-1.7188 1.1875-0.21875zm1.75 2.1875-0.03125 1.375-0.6875 0.1875-0.0625-1.3125 0.78125-0.25zm-1.6562 0.5625 0.0625 1.3438-1.2812 0.46875-0.09375-1.3438 1.3125-0.46875zm-2.25 0.8125v1.375l-0.84375 0.25-0.03125-1.4375c0.20312 0 0.875-0.1875 0.875-0.1875zm3.9375 1.25v1.5625l-0.75 0.25 0.0625-1.625 0.6875-0.1875zm-1.6875 0.59375-0.03125 1.5625-1.2188 0.46875v-1.625l1.25-0.40625zm-2.25 0.78125 0.0625 1.5625s-0.92188 0.375-0.90625 0.3125 0.03125-1.625 0.03125-1.625l0.8125-0.25zm3.9375 1.4062v1.4688s-0.75 0.28125-0.75 0.1875 0.03125-1.375 0.03125-1.375l0.71875-0.28125zm-1.6875 0.59375v1.4375l-1.2188 0.375 0.03125-1.375 1.1875-0.4375zm-2.25 0.84375 0.125 1.375-0.90625 0.28125-0.03125-1.4375 0.8125-0.21875zm3.875 1.2812 0.0625 1-0.6875 0.28125 0.03125-1.1562 0.59375-0.125zm-1.6562 0.5625 0.09375 1.125-1.1875 0.5-0.0625-1.25 1.1562-0.375zm-2.0938 0.6875v1.3125l-0.8125 0.28125-0.15625-1.2812 0.96875-0.3125z" fill="url(#linearGradient4166)"/>
 </g>
 <g id="layer1">
  <path id="path3156" d="m67.951 11.846-2.9375 1.2812 0.25 1.6562-1.1562 0.5625-0.09375-0.96875-1.4375-0.5-3.0312 1.2812 0.21875 1.6875-1.1562 0.46875v-0.375l-1.4062-1.125-4 1.4688 0.03125 11.25-0.90625 0.40625 0.0625 2.4375-0.3125 0.09375-2.8125-1.25-5.0938 1.75 0.25 2.5312-3.2188-0.75-4.9688 1.5 0.09375 2.4375-0.0625 0.03125-3.3438-1.3125-4.7812 2.0625 0.09375 2.4062-0.125 0.03125-3.5625-0.65625-0.28125 0.21875-3.125 1.4688v-0.09375l-2.1562-1.5312-2.9375 1.2812 0.25 1.6562-1.1562 0.5625-0.09375-0.96875-1.4375-0.5-3.0312 1.2812 0.21875 1.6875-1.1563 0.46875v-0.375l-1.4062-1.125-4 1.4688 0.125 35.438 12.469 9.2812 2.7188-1.2188 0.0625-0.125 28.75 20.438 0.03125 4.8438 12.469 9.2812 15.25-6.9062-0.0625-3.375 9.9375-3.9688 1.4688 0.5 0.5-0.09375 14.313-5.7812v-1.0625l8.0938-3.2188 1.75 1.2813 15.25-6.9063-0.5625-36.375-3.4062-1.2812-1.7188 0.84375-0.84375-0.40625 0.125-1.9062-2.875-1.8125-1.375 0.8125 0.03125 0.53125-0.28125-0.25-0.03125-1.875-2.1562-1.5312-2.9375 1.2812 0.25 1.6562-1.1562 0.5625-0.09375-0.96875-1.4375-0.5-0.375 0.15625-3.75-2.5-0.09375-0.09375-1.6562 1.2188-0.125-4.75-3.9063-2.5-2.125 1.4375-0.15625-3.0625-4.2812-3.3438-2 1-0.125-2.375-4.6875-2.875-1.625 0.6875-0.46875-0.25-0.15625-3.4688-2.6875-1.6562-0.1875-11.844-3.4062-1.2812-1.7188 0.84375-0.84375-0.40625 0.125-1.9062-2.875-1.8125-1.375 0.8125 0.03125 0.53125-0.28125-0.25-0.03125-1.875-2.1562-1.5312zm0 0.1875 1.9375 1.4375-1.125 0.6875-1.0625-1-1.25 0.6875-1.1562-0.59375 2.6562-1.2188zm-0.3125 1.3438 0.125 9.3125-1.4688 0.53125-1.1875-0.78125-1.8125 0.96875 0.0625 0.4375-0.5625-0.25-0.03125-2.1875-2.8125-1.3438-1.8125 0.625-0.125-1.7188-1.8125-1.125 2.0938-0.78125 0.0625 2.3125 3.4375-1.5312-0.3125-1.9062 2.3125-1.1562 0.21875 2.125 2.7188-1.125-0.28125-1.75 1.1875-0.65625zm-2.3438 0.03125 1 0.5625 0.21875 1.5625-1-0.75-0.21875-1.375zm2.5625 0.03125 0.65625 0.8125 0.0625 1.8438 2.1875 1.5-0.0625-2.125 2.0312 1.3125-0.0625 1.9062 1.9062 1.1562-0.34375 0.125 0.0625 1.6562-2.5625-0.6875-2.5938 1.0312-0.0625 1.4375-1.0938-0.78125-0.125-9.1875zm2.0938 0.15625 0.0625 1.5625-1.1875 0.6875-0.09375-1.5 1.2188-0.75zm-7.375 0.4375 1.2812 0.4375-2.7188 1.3438-1.1875-0.59375 2.625-1.1875zm9.25 0.3125 2.5 1.625-1.4375 0.625-2.375-1.5 1.3125-0.75zm-6.4688 0.625 1.0625 0.6875-2.2188 0.9375-0.09375-1.0625 1.25-0.5625zm4.6562 0.4375 0.46875 0.34375 0.0625 1.4688-1.5938-1.1875 1.0625-0.625zm-10.156 0.03125 1.375 0.6875 0.28125 1.3438-1.5-0.65625-0.15625-1.375zm-2.6562 0.59375 1.0625 0.84375-2.5 0.90625 1.6875 1.125-1.6562 0.375-2.375-1.7812 3.7812-1.4688zm17.25 0.0625-0.125 1.7812-1.4375 0.71875 0.0625-1.8125 1.5-0.6875zm-14.469 0.90625 1.5312 0.65625-2.8438 1.25-0.03125-1.2812 1.3438-0.625zm17.156 0.59375 3.1875 1.3125-3.125 1.5938-2.4688-0.46875 1.9375-0.75-1.5-0.59375 1.9688-1.0938zm-23.625 0.3125 1.9688 1.5938-0.09375 2.0312 2.625 1.625 0.15625-2 2.3438 1.375-0.25 2 3.25 1.5 0.0625-2.3125 2.2812 1.25-0.21875 19.625-2.125-1.3438-3.7812 0.90625v-16.031l0.03125-0.0625h-0.03125l-3.6562-0.78125-2.5938 1.1562 0.03125-10.531zm20.938 0.15625 0.65625 0.375-0.59375 0.28125 0.03125 0.875-1.4375-0.875 1.3438-0.65625zm0.34375 0.75 1.4062 0.46875-1.375 0.46875-0.03125-0.9375zm-16.969 0.34375 0.0625 1.4375-2.2188 0.75 0.15625-1.7812 2-0.40625zm22.188 0.3125 0.21875 10.812-0.625-0.375-5.1875 1.125v19.125l-8.3125-5.25 0.0625-20.094 2.625-0.8125 0.0625 1.9375 3.4375-1.5-0.21875-1.4688 2.25-0.90625 0.125 2.0625 2.8438-1.375 0.03125-1.9062 2.6875-1.375zm-5.5625 0.65625 2.625 0.59375v1.625l-2.5625-0.6875c-0.024689-0.45543-0.09108-1.0498-0.0625-1.5312zm-14.5 0.1875 2.625 1.1875-1.8438 0.8125-2.5312-1.4688 1.75-0.53125zm-2.0625 0.46875-0.0625 2-2.125-1.25 2.1875-0.75zm13.875 0.34375c0.040361 0.011775 1.7181 0.44557 2.4375 0.65625l-2.3125 1-2.1875-0.84375 2.0625-0.8125zm-9.25 0.65625 0.0625 1.8125-2.0625 0.71875 0.1875-1.75 0.03125 0.09375 1.7812-0.875zm12.062 0.0625 2.5 0.71875-2.4062 1.1875-0.09375-1.9062zm-5.25 0.25 2.5 0.875 0.0625 1.3125c-0.53725-0.15694-2.3368-0.77107-2.5625-0.84375v-1.3438zm-4.2188 0.5625 1.2188 0.78125 1.5938-0.65625 0.96875 0.8125-2.9688 1.1562-2.375-1.2812 1.5625-0.8125zm4.0312 0.9375c0.74189 0.16643 1.9133 0.64818 2.6875 0.875l-2.6562 1.0312-0.03125-1.9062zm-6.4688 0.25 0.65625 0.375-0.0625 1.4062-2.4688-1.125 1.875-0.65625zm-6.5625 3.7188 3.1875 0.6875-4 1.6562c-0.14101-0.055697-1.5948-0.64727-2.5-0.96875l3.3125-1.375zm3.375 0.9375-0.0625 15.719-7.4062 1.7812-19.656 10.625 0.28125 11.219-0.78125-0.46875-0.34375-20.188-3.4062-1.2812-1.7188 0.84375-0.84375-0.40625 0.125-1.9062-1.9062-1.2188 4.2188-1.8125 0.09375 3.3438 3.75-1.5625-0.1875-3.125 4.5-1.9375 0.25 3.3438 4.6562-2.0938-0.3125-3.0312 3.6875-1.5938 0.1875 3.5625 4.0625-1.9375-0.375-3.3438 3.875-1.25 0.1875 0.09375 0.125 2.875 3.3125-1.25-0.28125-3.375 3.9688-1.625zm-6.9375 0.59375c0.77599 0.26447 2.2996 0.90457 2.5938 1.0312l0.28125 2.875-2.6875-1.4062-0.1875-2.5zm26.969 1.125 3.5 2.0938-4.5 1.625-3.7812-2.7812 4.7812-0.9375zm-30.281 0.25 2.6562 1.0938-3.8125 1.25-3.375-0.84375 4.5312-1.5zm25.562 1.1562 3.5625 2.5938-0.15625 3.6875 4.0312 3.2188-0.15625-3.7812 3.5625 2.5 0.0625 3.6875 3 2.4062-0.1875-3.6875 4.0625 3.0312v3.3438l2.9688 2.1875 0.09375-3.0625 3.3438 2.5625-0.1875 3.5 3.0625 1.6562-2.3438 0.875 0.21875 13.906-1.0312-0.5625-2.375 0.90625-0.15625-6.625-21.406-13.594 0.03125-18.75zm-22.094 0.21875 2.6875 1.4062-2.5938 1.125-0.09375-2.5312zm-8.2188 0.5 3.4688 0.8125 0.3125 2.8438-3.5-1.5-0.28125-2.1562zm38.469 0.28125 0.25 2.9375-4.6875 1.8125 0.09375-3.0938 4.3438-1.6562zm-41.781 1.3125 2.8438 0.75-3.4375 1.5312-3.7812-0.96875 4.375-1.3125zm3.625 0.78125 3.5 1.4375-3.2812 1.6875-0.21875-3.125zm40.781 0.8125 4.0938 2.5312-3.875 1.5625-3.5625-2.5625 3.3438-1.5312zm-48.969 0.03125 3.9062 0.96875 0.25 2.5938-0.125 0.0625-4.0938-1 0.0625-2.625zm46.75 0.34375 0.28125 0.1875-1.7188 0.71875-0.0625 3.5312-3.2188-2.5312 4.7188-1.9062zm-50.438 0.78125 2.875 1.2188-4.375 1.875h-0.03125l-2.7188-1.2812 4.25-1.8125zm3.4062 1.0625 0.0625 0.03125-0.0625 0.03125v-0.0625zm53.719 0.46875 0.125 2.5312-1.8438 0.9375v0.375l-2.3125 1.1875v-3.4062l4.0312-1.625zm-53.656 0.15625 4.0625 1-3.8438 1.6562-0.21875-2.6562zm-7.875 0.34375 2.7188 1.375 0.03125-0.03125 0.1875 2.6875-2.8438-1.6875-0.09375-2.3438zm63.969 1.125 3.7188 3-3.4688 2.1875-0.03125 0.0625-4.125-3.2188 3.9062-2.0312zm-73.5 0.65625 1.9375 1.4375-1.125 0.6875-1.0625-1-1.25 0.6875-1.1562-0.59375 2.6562-1.2188zm5.6562 0.03125 2.9688 0.625-4.0938 1.9062-0.71875-0.4375-1.375 0.8125 0.03125 0.53125-0.28125-0.25-0.03125-1.4688 3.5-1.7188zm3.75 0.78125 3 1.6875-2.9062 1.2812-0.09375-2.9688zm-9.7188 0.53125 0.15625 9.2812-1.5 0.5625-1.1875-0.78125-1.8125 0.96875 0.0625 0.4375-0.5625-0.25-0.03125-2.1875-2.8125-1.3438-1.8125 0.625-0.125-1.7188-1.8125-1.125 2.0938-0.78125 0.0625 2.3125 3.4375-1.5312-0.3125-1.9062 2.3125-1.1562 0.21875 2.125 2.7188-1.125-0.28125-1.75 1.1875-0.65625zm-2.3438 0.03125 1 0.5625 0.21875 1.5625-1-0.75-0.21875-1.375zm2.625 0.03125 0.59375 0.8125 0.0625 1.8438 2.1875 1.5-0.0625-2.125 2.0312 1.3125-0.0625 1.9062 1.9062 1.1562-0.34375 0.125 0.0625 1.6562-2.5625-0.6875-2.5938 1.0312-0.0625 1.4375-0.78125-0.78125-0.3125 0.03125-0.0625-9.2188zm2.0312 0.15625 0.0625 1.5625-1.1875 0.6875-0.09375-1.5 1.2188-0.75zm-7.375 0.4375 1.2812 0.4375-2.7188 1.3438-1.1875-0.59375 2.625-1.1875zm74.719 0 0.0625 2.75-2.25-1.7812 2.1875-0.96875zm-65.469 0.3125 2.5 1.625-1.4375 0.625-2.375-1.5 1.3125-0.75zm73.531 0.25 0.1875 3-1.3125 1 0.15625 0.4375-2.5938 1-0.125-3.1562 3.6875-2.2812zm-80 0.375 1.0625 0.6875-2.2188 0.9375-0.09375-1.0625 1.25-0.5625zm47.062 0.125 31.25 19.875-21.188-0.625-21.219-16.688 11.156-2.5625zm-42.406 0.3125 0.46875 0.34375 0.0625 1.4688-1.5938-1.1875 1.0625-0.625zm-10.156 0.03125 1.375 0.6875 0.28125 1.3438-1.5-0.65625-0.15625-1.375zm-2.6563 0.59375 1.0625 0.84375-2.5 0.90625 1.6875 1.125-1.6562 0.375-2.375-1.7812 3.7812-1.4688zm55.406 0.03125-5.7812 1.5938c-0.11009-0.086774-0.35443-0.11684-0.46875-0.15625 0.089424 0.066036 0.26429 0.18265 0.3125 0.21875l-2.4688 0.75 0.09375 0.15625 2.5312-0.75c1.4684 1.1141 2.8662 2.3191 4.2812 3.5l-1.5625 0.71875 0.15625 0.0625 1.6562-0.5625c1.0403 0.87078 2.0199 1.6876 3.125 2.625 3.7119 3.1485 7.25 6.2188 7.25 6.2188l0.21875-0.25s-3.6623-2.8508-7.375-6c-1.0481-0.88901-1.8815-1.8468-2.875-2.6875l2.0938-0.71875 2.0938 1.3438 0.03125-0.15625-1.75-1.3125 2.9375-1.0312 6 4.1875-2.5 0.625-1.0938-0.5625 0.03125 0.09375 0.71875 0.5625-1.2812 0.34375 0.0625 0.28125 1.5312-0.5625 4.3438 3.4688-0.46875 0.34375 0.0625 0.03125 0.75-0.09375 0.65625 0.5 0.125-0.03125-0.375-0.53125 3.1562-0.40625 6.5312 4.2812-14.156-0.8125v0.09375l14.531 0.96875 1.8438 1.2188 0.03125-0.03125-1.2812-1.1562h2.25l-0.09375-0.15625-2.6875-0.1875-6.7812-4.2188 1.875-0.375-0.0625-0.15625-1.9375 0.25-0.96875-0.40625-0.0625 0.0625 0.84375 0.46875-3.3438 0.4375-4.625-3.5312 2.5938-0.78125 1.4375 1.125 0.0625-0.0625-1.125-1 1.0625-0.5-0.3125-0.03125-1.0938 0.3125-6.0625-4.0938 1.1562-0.375-0.40625-0.1875-1.0625 0.375-1.0938-0.5-0.125 0.03125 0.875 0.59375-2.7812 0.90625-2-1.4688-0.09375 0.09375 1.7188 1.5-2.1875 0.84375c-1.3886-1.2008-2.8777-2.4802-4.3125-3.625l5.625-1.6562v-0.0625zm-38.156 0.03125-0.125 1.7812-1.4375 0.71875 0.0625-1.8125 1.5-0.6875zm73.531 0.125 3.3438 2.3125-3.375 2.7812-3.5-2.5312 3.5312-2.5625zm-88 0.78125 1.5312 0.65625-2.8438 1.25-0.03125-1.2812 1.3438-0.625zm17.156 0.59375 3.1875 1.3125-3.125 1.5938-2.4688-0.46875 1.9375-0.75-1.5-0.59375 1.9688-1.0938zm23.812 0.15625 21.312 16.844-8.0938 13.219-0.03125-1.2188-2.1562-1.5312-2.9375 1.2812 0.1875 1.1875-27.344-19.312 19.062-10.469zm-47.438 0.15625 1.9688 1.5938-0.09375 2.0312 2.625 1.625 0.15625-2 2.3438 1.375-0.25 2 3.25 1.5 0.0625-2.3125 2.2812 1.25-0.40625 36.219-11.688-9.0625-0.25-34.219zm20.938 0.15625 0.65625 0.375-0.59375 0.28125 0.03125 0.875-1.4375-0.875 1.3438-0.65625zm0.34375 0.75 1.4062 0.46875-1.375 0.46875-0.03125-0.9375zm76.813 0.125 0.15625 4.4688-1.0938 0.9375-2.6563 0.78125 0.25-3.4062 3.3438-2.7812zm-93.781 0.21875 0.0625 1.4375-2.2188 0.75 0.15625-1.7812 2-0.40625zm86.531 0.15625-0.15625 2.3438-2.0625-1.4688c0.77051-0.20583 1.489-0.55014 2.2188-0.875zm-64.344 0.15625 0.5 19.25-0.78125-0.46875-1.625 0.6875-0.46875-0.25-0.15625-3.4688-3.75-2.3125-5.1875 1.125v26.219l-2.4688 1.125 0.09375-36.562 2.625-0.8125 0.0625 1.9375 3.4375-1.5-0.21875-1.4688 2.25-0.90625 0.125 2.0625 2.8438-1.375 0.03125-1.9062 2.6875-1.375zm-5.5625 0.65625 2.625 0.59375v1.625l-2.5625-0.6875c-0.024691-0.45543-0.091082-1.0498-0.0625-1.5312zm-14.5 0.1875 2.625 1.1875-1.8438 0.8125-2.5313-1.4688 1.75-0.53125zm38.438 0.125-1.5312 0.875c-0.30445-0.24479-0.80718-0.47333-0.90625-0.5625h-0.15625c0.29162 0.062454 0.51253 0.38248 0.78125 0.59375l-12.594 6.9688v0.09375l12.812-6.9375c0.56938 0.44212 1.2382 1.0018 1.8125 1.4375-3.0093 1.7836-6.1111 3.7937-9.25 5.3438 0.013991 0.001557 0.01875 0.003125 0.03125 0.03125 3.1668-1.5962 6.2149-3.4186 9.25-5.25 1.7765 1.35 3.7134 2.6321 5.5 3.9688l-2.3438 1.9688 0.15625 0.0625 2.25-1.7812c0.25989 0.19466 1.1875 0.875 1.1875 0.875l0.0625-0.03125s-0.76366-0.85141-1-1.0312l1.125-1.125-0.09375-0.0625-1.2812 1c-1.7571-1.348-3.6738-2.7855-5.4375-4.125 1.6352-0.99242 2.9688-1.8438 2.9688-1.8438l-0.03125-0.09375s-1.9363 1.1632-3.0625 1.8438c-0.56669-0.43209-1.1259-0.87382-1.6875-1.3125l1.4688-0.8125-0.03125-0.09375zm-40.5 0.34375-0.0625 2-2.125-1.25 2.1875-0.75zm13.875 0.34375c0.040362 0.011777 1.7181 0.44557 2.4375 0.65625l-2.3125 1-2.1875-0.84375 2.0625-0.8125zm-9.25 0.65625 0.0625 1.8125-2.0625 0.71875 0.1875-1.75 0.03125 0.09375 1.7812-0.875zm12.062 0.0625 2.5 0.71875-2.4062 1.1875-0.09375-1.9062zm-5.25 0.25 2.5 0.875 0.0625 1.3125c-0.53726-0.15694-2.3368-0.77107-2.5625-0.84375v-1.3438zm84.313 0.34375 3.5 2.3438-2.3125 0.96875 0.21875 1.6875-0.46875 0.1875-3.625-3.1562 2.6875-2.0312zm9.5938 0.1875 1.9375 1.4375-1.125 0.6875-1.0625-1-1.25 0.6875-1.1562-0.59375 2.6562-1.2188zm-98.125 0.03125 1.2188 0.78125 1.7812-0.71875 0.9375 0.875-3.125 1.1562-2.375-1.2812 1.5625-0.8125zm4.0312 0.9375c0.74188 0.16643 1.9133 0.64818 2.6875 0.875l-2.6562 1.0312-0.03125-1.9062zm-6.4688 0.25 0.65625 0.375-0.0625 1.4062-2.4688-1.125 1.875-0.65625zm100.25 0.125 0.125 9.375-1.4688 0.46875-1.1875-0.78125-1.8125 0.96875 0.0625 0.4375-0.5625-0.25-0.03125-2.1875-2.8125-1.3438-1.8125 0.625-0.125-1.7188-1.8125-1.125 2.0938-0.78125 0.0625 2.3125 3.4375-1.5312-0.3125-1.9062 2.3125-1.1562 0.21875 2.125 2.7188-1.125-0.28125-1.75 1.1875-0.65625zm-2.3438 0.03125 1 0.5625 0.21875 1.5625-1-0.75-0.21875-1.375zm2.5312 0.0625 0.6875 0.78125 0.0625 1.8438 2.1875 1.5-0.0625-2.125 2.0312 1.3125-0.0625 1.9062 1.9062 1.1562-0.34375 0.125 0.0625 1.6562-2.5625-0.6875-2.5938 1.0312-0.0625 1.4375-0.9375-0.78125-0.28125 0.03125-0.03125-9.1875zm2.125 0.125 0.0625 1.5625-1.1875 0.6875-0.09375-1.5 1.2188-0.75zm-7.3125 0.46875 1.125 0.4375-2.5312 1.2812-1.2812-0.59375 2.6875-1.125zm-7.2188 0.0625 0.0625 2.0625-2.4375-1.4375 2.375-0.625zm0.3125 0.0625 3.375 2.9375-0.5 0.1875v-0.375l-1.4062-1.125-1.5625 0.5625 0.09375-2.1875zm16.094 0.15625 2.5 1.625-1.4375 0.625-2.375-1.5 1.3125-0.75zm-6.4688 0.625 1.0625 0.6875-2.2188 0.9375-0.09375-1.0625 1.25-0.5625zm4.6562 0.4375 0.46875 0.34375 0.0625 1.4688-1.5938-1.1875 1.0625-0.625zm-10.156 0.03125 1.375 0.6875 0.28125 1.3438-1.5-0.65625-0.15625-1.375zm-2.6562 0.59375 1.0625 0.84375-2.5 0.90625 1.6875 1.125-1.6562 0.375-2.375-1.7812 3.7813-1.4688zm17.25 0.0625-0.125 1.7812-1.4375 0.71875 0.0625-1.8125 1.5-0.6875zm-14.469 0.90625 1.5312 0.65625-2.8438 1.25-0.03125-1.2812 1.3438-0.625zm17.156 0.59375 3.1875 1.3125-3.125 1.5938-2.4688-0.46875 1.9375-0.75-1.5-0.59375 1.9688-1.0938zm-74.25 0.0625s-0.86806 0.59028-1.5625 1.0625l-0.90625-0.71875-0.125 0.09375 0.875 0.71875c-1.1029 0.79665-2.3274 1.8124-3.5 2.5l0.03125 0.0625c1.2589-0.65553 2.5262-1.593 3.6875-2.4062l6.5312 5.3125-1.75 1.5625 0.0625 0.09375 1.7188-1.5 0.84375 0.6875 0.1875-0.21875-0.8125-0.65625 4.8438-4.4062-0.0625-0.0625-5 4.2812-6.375-5.125c0.64047-0.44208 1.4375-1.25 1.4375-1.25l-0.125-0.03125zm-16.531 0.125 27.656 19.562v0.0625l-1.1562 0.5625-0.09375-0.96875-1.4375-0.5-3.0312 1.2812 0.21875 1.6875-1.1562 0.46875v-0.375l-1.4062-1.125-4 1.4688v4.25l-0.09375-0.03125-0.125-4.75-3.9062-2.5-2.125 1.4375-0.15625-3.0625-4.2812-3.3438-2 1-0.125-2.375-1.9375-1.1875-0.375-0.25-0.15625-0.09375-0.3125-11.219zm67.156 0.125 1.9688 1.5938-0.09375 2.0312 2.625 1.625 0.15625-2 2.3438 1.375-0.25 2 3.25 1.5 0.0625-2.3125 2.2812 1.25-0.15625 36.344-1.3438-0.875-0.09375-29.344 0.03125-0.0625h-0.03125l-3.6562-0.78125-3.75 1.6562 0.0625 2.4375-1.0938-0.4375v-1.4062l-2.1875-1.1875-0.125-13.406zm20.938 0.15625 0.65625 0.375-0.59375 0.28125 0.03125 0.875-1.4375-0.875 1.3438-0.65625zm0.34375 0.75 1.4062 0.46875-1.375 0.46875-0.03125-0.9375zm-16.969 0.34375 0.0625 1.4375-2.2188 0.75 0.15625-1.7812 2-0.40625zm-93.781 0.21875c-1.0626 0.28368-1.4027 0.97726-1.8438 1.9062l-0.375 2.6562 4.5 3.1875c-0.17197-1.6099-0.12967-3.2299-0.21875-4.8438 0.001476-1.7726-1.1045-2.2531-2.0625-2.9062zm115.97 0.09375 0.71875 35.219-14.656 6.6875 0.09375-36.563 2.625-0.8125 0.0625 1.9375 3.4375-1.5-0.21875-1.4688 2.25-0.90625 0.125 2.0625 2.8438-1.375 0.03125-1.9062 2.6875-1.375zm-115.91 0.34375c0.84532 0.38857 1.6175 1.5323 1.625 2.5938 0.004807 0.68135 0.26286 2.8817 0.28125 3.875l-3.6875-2.5c0.092135-0.69156 0.28057-1.8391 0.40625-2.375-0.21073-0.64458 0.63525-1.3833 1.375-1.5938zm110.34 0.3125 2.625 0.59375v1.625l-2.5625-0.6875c-0.02469-0.45543-0.09108-1.0498-0.0625-1.5312zm-14.5 0.1875 2.625 1.1875-1.8438 0.8125-2.5312-1.4688 1.75-0.53125zm-2.0625 0.46875-0.0625 2-2.125-1.25 2.1875-0.75zm13.875 0.34375c0.04036 0.011778 1.7181 0.44557 2.4375 0.65625l-2.3125 1-2.1875-0.84375 2.0625-0.8125zm-9.25 0.65625 0.0625 1.8125-2.0625 0.71875 0.1875-1.75 0.03125 0.09375 1.7812-0.875zm12.062 0.0625 2.5 0.71875-2.4062 1.1875-0.09375-1.9062zm-5.25 0.25 2.5 0.875 0.0625 1.3125c-0.53725-0.15694-2.3368-0.77107-2.5625-0.84375v-1.3438zm-49.75 0.0625-4.7812 4.3438-2.7188-2.4062-0.09375 0.0625 2.6562 2.375-5.4062 4.8438 0.125 0.0625 5.5312-4.6875 1.8438 1.6562 0.09375-0.15625-1.9062-1.7188 4.75-4.3125-0.09375-0.0625zm-41.219 0.46875 3.5 2.0938-4.5 1.625-3.7812-2.7812 4.7812-0.9375zm86.75 0.03125 1.2188 0.78125 1.5938-0.65625 0.96875 0.8125-2.9688 1.1562-2.375-1.2812 1.5625-0.8125zm4.0312 0.9375c0.74189 0.16643 1.9133 0.64818 2.6875 0.875l-2.6562 1.0312-0.03125-1.9062zm-6.4688 0.25 0.65625 0.375-0.0625 1.4062-2.4688-1.125 1.875-0.65625zm-89.031 0.1875 3.5625 2.5938-0.15625 3.6875 4.0312 3.2188-0.15625-3.7812 3.5625 2.5 0.0625 3.6875 3 2.4062-0.1875-3.6875 4.0625 3.0312v3.3438l2.9688 2.1875 0.09375-3.0625 3.3438 2.5625-0.1875 3.5 3.375 2.0625-0.125-2.625 1.0938 1.0625 0.0625 23.281-28.469-20.25 0.0625-25.719zm53.562 0.0625 21.875 0.75-27.406 12.656-1.1562-0.71875-1.375 0.8125 0.03125 0.53125-0.28125-0.25v-0.21875l8.3125-13.562zm12.188 0.90625-0.0625 0.15625 0.65625 0.96875-4.25 1.9062-1.4062-1.625-0.09375 0.03125 1.2188 1.7188-4.4688 2.0312-3.1875-4.875-0.125 0.0625 3.0312 4.9062-3.8125 1.7188-1.0625-2.0938-0.125 0.0625 0.90625 2.1562-3.9062 1.7812 0.03125 0.09375 3.9062-1.7188 0.75 1.375h0.09375l-0.53125-1.5312 3.8438-1.6875 0.40625 0.40625 0.09375-0.15625-0.1875-0.375 4.4375-2.0312 0.78125 1.0625 0.15625 0.03125-0.75-1.1562 4.4375-2.0625 1.4062 1.7188 0.15625-0.03125-1.25-1.6562 1.4688-0.875-0.0625-0.0625-1.625 0.71875-0.875-0.96875zm-57.594 0.03125 0.25 2.9375-4.6875 1.8125 0.09375-3.0938 4.3438-1.6562zm67.688 0 0.1875 6.6562-1.5625 0.59375-0.4375 0.1875-0.40625 0.15625 0.21875 2.4688-2.0625 0.90625-2.6875-1.6562-6.5312 2.7188-0.125 2.9062-3.4062 1.4688 0.09375 2.4062-0.125 0.03125-3.375-0.625-0.03125-1.9062-3.4062-1.2812-1.7188 0.84375-0.84375-0.40625 0.125-1.9062-1.5312-0.96875 27.625-12.594zm-27.625 0.5-7.1562 7.875h0.09375l7.0938-7.875h-0.03125zm-37.438 2.4062 4.0938 2.5312-3.875 1.5625-3.5625-2.5625 3.3438-1.5312zm-2.2188 0.375 0.28125 0.1875-1.7188 0.71875-0.0625 3.5312-3.2188-2.5312 4.7188-1.9062zm78.438 2.2188 3.1875 0.6875-4 1.6562c-0.14101-0.055698-1.5948-0.64727-2.5-0.96875l3.3125-1.375zm-71.75 0.09375 0.125 2.5312-1.8438 0.9375v0.375l-2.3125 1.1875v-3.4062l4.0312-1.625zm63.438 0.3125 3.2813 1.8438-4.9063 2.0938 0.09375 1.625-3-1.4062-0.1875-2.125 4.7188-2.0312zm20.844 0.21875c-1.2683 1.0422-1.7349 2.3801-2.0938 3.9062l0.03125 4.125 5.5-2.1875c-0.13498-1.1102-0.32337-2.1978-0.59375-3.2812-0.67383-1.0734-1.3558-2.1404-2.8438-2.5625zm-9.1562 0.3125 0.09375 28.844-8.0938 3.2188-0.0625 0.125-0.125-28.75 0.03125 0.0625 1.0312-0.34375 0.125 3.0938 3.3125-1.25-0.28125-3.375 3.9688-1.625zm9.3438 0.03125c0.93614 0.40975 1.8411 1.4482 2.0938 2.1562 0.24076 0.67473 0.73525 2.2742 0.84375 3.0938l-4.7812 1.9062c-0.03641-0.88461-0.02126-2.9509 0.0625-3.75 0.09821-0.93696 0.89303-2.47 1.7812-3.4062zm-16.281 0.5625c0.77599 0.26447 2.2996 0.90457 2.5938 1.0312l0.28125 2.875-2.6875-1.4062-0.1875-2.5zm-65.75 0.1875 3.7188 3-3.4688 2.1875-0.03125 0.0625-4.125-3.2188 3.9062-2.0312zm64.313 0.75v1.0938l0.0625 30.656-2.125 0.875-0.09375-14.406c-1.3735-1.3488-2.8564-1.9265-4.75-2.0938-2.0226 1.1377-2.9988 3.4045-3.9062 5.5938l-0.125 14.5-3.1562 1.2812-0.375-31 5-2.2188 0.25 1.9375 4.5625-2.2812v-1.8438l4.6563-2.0938zm0.1875 1.1875 0.84375 0.34375-0.84375 0.1875v-0.53125zm-39.125 0.46875 1.9375 1.4375-1.125 0.6875-1.0625-1-1.25 0.6875-1.1562-0.59375 2.6562-1.2188zm26.094 0.03125 3.4375 2.2188-5.3125 2.3438-4.2812-2.125 6.1562-2.4375zm14.469 0.15625 2.6562 1.375-2.5938 1.125-0.0625-2.5zm-70.094 0.0625 0.0625 2.75-2.25-1.7812 2.1875-0.96875zm60.625 0.40625 3 1.4375-4.125 1.9375-0.0625-1.6562-0.03125-0.34375-0.8125-0.40625 2.0312-0.96875zm-52.562 0.15625 0.1875 3-1.3125 1 0.15625 0.4375-2.5938 1-0.125-3.1562 3.6875-2.2812zm21.156 0.53125-0.03125 0.0625v9.3125l-1.3125 0.46875-1.1875-0.78125-1.8125 0.96875 0.0625 0.4375-0.5625-0.25-0.03125-2.1875-2.8125-1.3438-1.8125 0.625-0.125-1.7188-1.8125-1.125 2.0938-0.78125 0.0625 2.3125 3.4375-1.5312-0.3125-1.9062 2.3125-1.1562 0.21875 2.125 2.7188-1.125-0.28125-1.75 1.1875-0.65625zm-2.3438 0.03125 1 0.5625 0.21875 1.5625-1-0.75-0.21875-1.375zm2.5 0.0625 0.71875 0.78125 0.0625 1.8438 2.1875 1.5-0.0625-2.125 2.0312 1.3125-0.0625 1.9062 1.9062 1.1562-0.34375 0.125 0.0625 1.6562-2.5625-0.6875-2.5938 1.0312-0.0625 1.4375-0.96875-0.8125-0.3125 0.09375v-9.2188zm2.1562 0.125 0.0625 1.5625-1.1875 0.6875-0.09375-1.5 1.2188-0.75zm-7.375 0.4375 1.2812 0.4375-2.7188 1.3438-1.1875-0.59375 2.625-1.1875zm9.25 0.3125 2.5 1.625-1.4375 0.625-2.375-1.5 1.3125-0.75zm-22.719 0.125 3.3438 2.3125-3.375 2.7812-3.5-2.5312 3.5312-2.5625zm38.469 0.3125 4.5312 2.1562 0.28125 31-1.1875-0.28125 0.15625-0.0625c-0.039376-0.00964-0.28125-0.0625-0.28125-0.0625s-0.058935-0.01573-0.09375-0.03125l-0.3125-28.469 0.0625-0.03125-0.0625-0.03125v-0.15625l-2.7812-1.5c-0.036216-0.051449-0.076361-0.089823-0.125-0.15625l-0.0625 0.03125-0.125-2.4062zm-22.219 0.1875 1.0625 0.6875-2.2188 0.9375-0.09375-1.0625 1.25-0.5625zm4.6562 0.4375 0.46875 0.34375 0.0625 1.4688-1.5938-1.1875 1.0625-0.625zm-10.156 0.03125 1.375 0.6875 0.28125 1.3438-1.5-0.65625-0.15625-1.375zm-2.6562 0.59375 1.0625 0.84375-2.5 0.90625 1.6875 1.125-1.6562 0.375-2.375-1.7812 3.7812-1.4688zm17.25 0.0625-0.125 1.7812-1.4375 0.71875 0.0625-1.8125 1.5-0.6875zm-14.469 0.90625 1.5312 0.65625-2.8438 1.25-0.03125-1.2812 1.3438-0.625zm-7.25 0.1875 0.15625 4.5-1.0938 0.90625-2.7188 0.59375 0.3125-3.2188 3.3438-2.7812zm34.812 0.34375 2.4688 1.4062-2.8125 1.1875h-0.03125l-2.7188-1.2812 3.0938-1.3125zm-42.062 0.03125-0.15625 2.3438-2.0625-1.4688c0.77052-0.20583 1.489-0.55014 2.2188-0.875zm31.656 0.03125 3.1875 1.3125-3.125 1.5938-2.4688-0.46875 1.9375-0.75-1.5-0.59375 1.9688-1.0938zm-23.625 0.3125 1.9688 1.5938-0.09375 2.0312 2.625 1.625 0.15625-2 2.3438 1.375-0.25 2 3.25 1.5 0.0625-2.3125 2.2812 1.25-0.40625 36.219-11.688-9.0625-0.25-34.219zm20.938 0.15625 0.65625 0.375-0.59375 0.28125 0.03125 0.875-1.4375-0.875 1.3438-0.65625zm0.34375 0.75 1.4062 0.46875-1.375 0.46875-0.03125-0.9375zm9.5 0.25 2.7188 1.375 0.03125-0.03125 0.1875 2.6875-2.8438-1.6875-0.09375-2.3438zm-26.469 0.09375 0.0625 1.4375-2.2188 0.75 0.15625-1.7812 2-0.40625zm32.562 0h0.03125l0.28125 28.281-9.7188 3.8438-0.4375-28.156 3.2188-1.375 0.09375 3.3438 3.75-1.5625-0.1875-3.125 2.9688-1.25zm-10.25 0.15625 0.59375 35.375-14.656 6.6875 0.09375-36.563 2.625-0.8125 0.0625 1.9375 3.4375-1.5-0.21875-1.4688 2.25-0.90625 0.125 2.0625 2.8438-1.375 0.03125-1.9062 2.8125-1.5312zm-5.6875 0.8125 2.625 0.59375v1.625l-2.5625-0.6875c-0.024691-0.45543-0.091082-1.0498-0.0625-1.5312zm-14.5 0.1875 2.625 1.1875-1.8438 0.8125-2.5312-1.4688 1.75-0.53125zm-2.0625 0.46875-0.0625 2-2.125-1.25 2.1875-0.75zm22.625 0.125 2.875 0.59375-2.8438 1.25-0.03125-1.8438zm-8.75 0.21875c0.040362 0.011776 1.7181 0.44557 2.4375 0.65625l-2.3125 1-2.1875-0.84375 2.0625-0.8125zm12.406 0.53125 3 1.6875-2.9062 1.2812-0.09375-2.9688zm-21.656 0.125 0.0625 1.8125-2.0625 0.71875 0.1875-1.75 0.03125 0.09375 1.7812-0.875zm-9.2812 0.03125v1.8438l-1.1562-0.9375 1.1562-0.90625zm21.344 0.03125 2.5 0.71875-2.4062 1.1875-0.09375-1.9062zm-5.25 0.25 2.5 0.875 0.0625 1.3125c-0.53726-0.15694-2.3368-0.77107-2.5625-0.84375v-1.3438zm-4.2188 0.5625 1.2188 0.78125 1.5625-0.65625 1 0.8125-2.9688 1.1562-2.375-1.2812 1.5625-0.8125zm-13.281 0.3125 0.0625 2.0625-2.4375-1.4375 2.375-0.625zm17.312 0.625c0.74188 0.16643 1.9133 0.64818 2.6875 0.875l-2.6562 1.0312-0.03125-1.9062zm-6.4688 0.25 0.65625 0.375-0.0625 1.4062-2.4688-1.125 1.875-0.65625zm37.469 3c1.5832 0.055646 3.3817 1.1 4.3125 1.9375v14.344l-7.8438 3.2188-0.3125-14.063c0.86579-2.0843 2.3172-4.4932 3.8438-5.4375zm1 0.5 0.125 1.25-1.375 0.375-0.03125-1.4062-1.0938 0.78125v0.6875l-0.3125 0.15625 0.03125 1.0938h0.46875l-0.0625 1.6875-0.53125 0.1875-0.0625-1.625-1.1562 0.96875-0.09375 1.125-0.375 0.21875-0.03125 1.2188 0.40625-0.0625v1.25l-0.46875 0.15625 0.0625 1.25h0.59375l-0.15625 1.4375-0.375 0.125v1.3125l0.40625-0.0625v1.2188l-0.375 0.125 0.0625 1.375 0.3125-0.09375v1.1875l-0.3125 0.09375v1.4688l0.3125-0.15625 0.03125 0.9375 1.25-0.4375v-1.0312l0.59375-0.25 0.09375 1.1875 1.2188-0.40625-0.03125-1.3125 0.84375-0.34375 0.03125 1.25 1.2188-0.5s0.062933-0.8682 0.0625-1.2812l0.34375-0.15625 0.0625 1.2812 1.1875-0.5625s0.031059-0.81621 0.03125-1.2188l0.21875-0.21875 0.03125-1.2812-0.25 0.09375c-2.1e-5 -0.24123-3.2e-5 -0.48679 0-0.78125l0.21875-0.125v-1.25h-0.21875c2.21e-4 -0.42899 5.59e-4 -0.74692 0-1.3125l0.3125-0.09375-0.0625-1.0938-0.28125-0.09375c-0.06216-0.42673 0.03118-1.0813 0.03125-1.5625l0.25-0.09375-0.03125-1.0938-0.25 0.03125c-0.060196-0.28732 0.03125-1.0001 0.03125-1.3438-5.24e-4 -0.048117-3.03e-4 -0.08686 0-0.125l0.21875-0.125 0.03125-1.25-0.28125 0.03125-0.15625-0.90625-1-0.1875-0.15625-0.78125-0.4375-0.09375-0.1875-0.75-0.9375-0.09375zm0.84375 0.28125 0.09375 1 0.375-0.03125 0.09375 0.5625-0.53125 0.21875c0.02353 0.604-0.007125 0.98954 0 1.5938l0.9375-0.25c0.053854-0.3932 0.014242-1.1052 0.03125-1.5l0.625 0.125c0.040715 0.35272 0.051768 0.70836 0.0625 1.0625l0.40625-0.0625c0.018421 0.31794 0.1351 0.72183 0.03125 0.90625-0.085842 0.15244-0.21979 0.16127-0.34375 0.25 0.004319 0.39678 0.031225 1.1606 0.03125 1.625h0.21875l0.0625 0.71875-0.28125 0.21875c-0.001732 0.67088-0.030974 1.1098-0.03125 1.8125l0.375-0.03125 0.03125 0.875-0.375 0.28125c0.001142 0.90992-1.4e-5 0.78509 0 1.5938l0.21875-0.09375 0.03125 0.9375-0.3125 0.15625c-2.19e-4 0.51726 0.031608 0.84483 0.03125 1.2188l0.375-0.0625v0.71875l-0.34375 0.15625c-2.94e-4 0.23539-7.4e-5 1.0591 0 1.3438l-0.75 0.34375c-5.4e-5 -0.26623-0.031437-1.0478-0.03125-1.1875l-0.8125 0.25c6.28e-4 0.23248-0.031097 1.0477-0.03125 1.3438l-0.78125 0.28125c-1.79e-4 -0.27748 0.03062-1.0847 0.03125-1.2188l-1.4062 0.5625v1.2188l-0.65625 0.28125-0.03125-1.2812-1.1875 0.53125 0.03125 0.96875-0.78125 0.28125v-0.96875l-0.40625 0.09375-0.03125-0.9375 0.5-0.15625-0.03125-1.6875-0.34375 0.125-0.09375-0.8125 0.46875-0.21875v-1.6562l-0.53125 0.15625-0.0625-0.875 0.5-0.1875 0.03125-1.8125-0.5625 0.09375 0.0625-0.90625 0.375-0.09375 0.03125-1.75-0.375 0.125v-0.84375l0.46875-0.21875v-1.3125l0.65625-0.40625-0.0625 1.2812 1.125-0.25 0.0625-2.1875-0.46875 0.15625 0.09375-0.53125 0.28125-0.09375v-1.125l0.53125-0.375v1.3125l1.875-0.40625c2.67e-4 -0.20834-0.09375-1.0104-0.09375-1.2188l0.59375-0.03125zm0.6875 1.7812c0.064796 0.38638 0.031433 0.79284 0.03125 1.1875l-0.375 0.125c-4.66e-4 -0.40639-0.019645-0.81257-0.03125-1.2188l0.375-0.09375zm-1.3438 0.1875-1.5312 0.28125-0.03125 1.875 1.5938-0.53125c0.042437-0.58435-0.015006-1.0402-0.03125-1.625zm-0.3125 0.21875c0.036026 0.45776 0.023528 0.91663 0.03125 1.375l-0.90625 0.3125-0.03125-1.4375 0.90625-0.25zm-41.688 0.15625c-1.0626 0.28368-1.4027 0.97726-1.8438 1.9062l-0.375 2.6562 4.5 3.1875c-0.17197-1.6099-0.12967-3.2299-0.21875-4.8438 0.001476-1.7726-1.1045-2.2531-2.0625-2.9062zm0.0625 0.4375c0.84532 0.38857 1.6175 1.5323 1.625 2.5938 0.004808 0.68134 0.26286 2.8817 0.28125 3.875l-3.6875-2.5c0.092135-0.69156 0.28057-1.8391 0.40625-2.375-0.21073-0.64458 0.63525-1.3833 1.375-1.5938zm13.781 0.75c-1.2683 1.0422-1.7349 2.3801-2.0938 3.9062l0.03125 4.125 5.5-2.1875c-0.13498-1.1102-0.32337-2.1978-0.59375-3.2812-0.67384-1.0734-1.3558-2.1404-2.8438-2.5625zm0.1875 0.34375c0.93614 0.40975 1.8411 1.4482 2.0938 2.1562 0.24076 0.67473 0.73524 2.2742 0.84375 3.0938l-4.7812 1.9063c-0.036413-0.88462-0.021258-2.9509 0.0625-3.75 0.09821-0.93696 0.89303-2.47 1.7812-3.4062zm29.719 0.25-1 0.34375c0.007933 0.55187-0.006778 0.92904 0 1.5312l0.9375-0.28125c-0.004567-0.55896 0.067803-1.1067 0.0625-1.5938zm-0.34375 0.25c2.44e-4 0.37501-0.001269 0.78145 0 1.1875l-0.375 0.125c-0.006894-0.40787-0.024793-0.8094-0.03125-1.1875l0.40625-0.125zm-1.3438 0.25-1.5 0.5625v1.5625l1.5312-0.46875c-0.006527-0.60429-0.023307-1.0909-0.03125-1.6562zm-0.3125 0.34375c1.62e-4 0.38328-0.001786 0.77466 0 1.1875l-0.90625 0.3125-0.03125-1.1875 0.9375-0.3125zm-1.9375 0.53125-1.0625 0.3125v1.5938l1-0.375 0.0625-1.5312zm-0.3125 0.28125 0.03125 1.1875-0.5 0.15625v-1.1875l0.46875-0.15625zm4.2188 0.96875-0.9375 0.3125c0.00164 0.60416 9.8e-5 1.1771 0 1.7812l0.9375-0.3125c0.001041-0.71875 3.94e-4 -1.0625 0-1.7812zm-0.28125 0.25c8.06e-4 0.46296-1.78e-4 0.9159 0 1.4062l-0.375 0.125c-0.001518-0.46887-0.018695-0.93758-0.03125-1.4062l0.40625-0.125zm-1.375 0.28125-1.5 0.5625v1.8125l1.4688-0.5625c4.71e-4 -0.65625 0.03125-1.1563 0.03125-1.8125zm-0.28125 0.3125c-8.41e-4 0.47917-2.95e-4 0.95833 0 1.4375l-0.90625 0.34375-0.03125-1.4688 0.9375-0.3125zm-1.9375 0.53125-1.0625 0.375-0.03125 1.7812 1.0938-0.375v-1.7812zm-0.3125 0.21875 0.03125 1.4688-0.5 0.15625v-1.4375l0.46875-0.1875zm4.1875 1.25-0.90625 0.3125c0.004221 0.90216-0.002871 0.85789 0 1.625l0.90625-0.3125c1.04e-4 -0.78116 9.25e-4 -0.72259 0-1.625zm-0.28125 0.21875c2.48e-4 0.46655 1.6e-4 0.8135 0 1.2813l-0.34375 0.125c-0.006843-0.40753-0.025817-0.75254-0.03125-1.2813l0.375-0.125zm-1.375 0.3125-1.4375 0.53125v1.5938l1.4375-0.4375c9.19e-4 -0.74412 0.001615-0.80245 0-1.6875zm-0.28125 0.28125c5.29e-4 0.4597 5.92e-4 0.83033 0 1.2813l-0.875 0.28125-0.03125-1.25 0.90625-0.3125zm-1.9062 0.5625-1.0625 0.375-0.0625 1.5625 1.1562-0.375-0.03125-1.5625zm-0.3125 0.25 0.03125 1.2188-0.53125 0.1875v-1.25l0.5-0.15625zm4.0938 1.0625-0.78125 0.25c0.001765 0.51797-0.001091 0.91119 0 1.2812l0.8125-0.25c3.73e-4 -0.34992-0.031526-0.76437-0.03125-1.2812zm-0.21875 0.21875c5.1e-5 0.30768 1.01e-4 0.60863 0 0.84375l-0.34375 0.15625c2.07e-4 -0.26877 4.31e-4 -0.5528 0-0.875l0.34375-0.125zm-1.375 0.3125-1.375 0.46875v1.4688l1.375-0.59375c0.001334-0.3413-0.001195-0.83021 0-1.3438zm-0.28125 0.28125c1.31e-4 0.34615 3.73e-4 0.68754 0 0.9375l-0.84375 0.34375-0.03125-1 0.875-0.28125zm-1.8438 0.4375-1.1875 0.375 0.0625 1.5 1.125-0.375v-1.5zm-0.34375 0.3125 0.03125 1.0625-0.5625 0.21875v-1.0938l0.53125-0.1875z" fill-rule="evenodd"/>
 </g>
</svg>
