<?xml version="1.0" encoding="UTF-8"?>
<!-- Created with Inkscape (http://www.inkscape.org/) -->
<svg id="svg2" width="128" height="128" version="1.0" xmlns="http://www.w3.org/2000/svg" xmlns:cc="http://creativecommons.org/ns#" xmlns:dc="http://purl.org/dc/elements/1.1/" xmlns:rdf="http://www.w3.org/1999/02/22-rdf-syntax-ns#" xmlns:xlink="http://www.w3.org/1999/xlink">
 <defs id="defs4">
  <linearGradient id="linearGradient3193">
   <stop id="stop3195" stop-color="#c2a05c" offset="0"/>
   <stop id="stop3197" stop-color="#d6be91" offset="1"/>
  </linearGradient>
  <linearGradient id="linearGradient2320">
   <stop id="stop2322" stop-color="#6a3c1d" offset="0"/>
   <stop id="stop2324" stop-color="#8f5127" offset="1"/>
  </linearGradient>
  <linearGradient id="linearGradient2338">
   <stop id="stop2340" stop-color="#b1b1b1" offset="0"/>
   <stop id="stop2342" stop-color="#e4e4e4" offset="1"/>
  </linearGradient>
  <linearGradient id="linearGradient2449" x1="18.882" x2="30.454" y1="91.881" y2="74.827" gradientTransform="translate(1.3782)" gradientUnits="userSpaceOnUse" xlink:href="#linearGradient2338"/>
  <linearGradient id="linearGradient2453" x1="58.472" x2="122.43" y1="118.92" y2="73.609" gradientTransform="translate(1.3782)" gradientUnits="userSpaceOnUse" xlink:href="#linearGradient2338"/>
  <linearGradient id="linearGradient2457" x1="85.15" x2="99.402" y1="107.47" y2="89.689" gradientTransform="translate(1.3782)" gradientUnits="userSpaceOnUse" xlink:href="#linearGradient2320"/>
  <linearGradient id="linearGradient3042" x1="10.341" x2="20.683" y1="107.1" y2="86.678" gradientTransform="translate(1.3782)" gradientUnits="userSpaceOnUse" xlink:href="#linearGradient2320"/>
  <linearGradient id="linearGradient3046" x1="28.903" x2="23.158" y1="98.832" y2="113.33" gradientTransform="translate(1.3782)" gradientUnits="userSpaceOnUse" xlink:href="#linearGradient2320"/>
  <linearGradient id="linearGradient3056" x1="25.907" x2="34.275" y1="101.7" y2="97.478" gradientTransform="translate(1.3782)" gradientUnits="userSpaceOnUse" xlink:href="#linearGradient2320"/>
  <linearGradient id="linearGradient3060" x1="48.239" x2="34.657" y1="95.566" y2="100.74" gradientTransform="translate(1.3782)" gradientUnits="userSpaceOnUse" xlink:href="#linearGradient2320"/>
  <linearGradient id="linearGradient3064" x1="37.779" x2="45.864" y1="79.457" y2="68.776" gradientTransform="translate(1.3782)" gradientUnits="userSpaceOnUse" xlink:href="#linearGradient2320"/>
  <linearGradient id="linearGradient3076" x1="39.125" x2="40.062" y1="80.281" y2="74.094" gradientTransform="translate(1.3782)" gradientUnits="userSpaceOnUse" xlink:href="#linearGradient2320"/>
  <linearGradient id="linearGradient3082" x1="17.312" x2="28.438" y1="63.812" y2="62.938" gradientTransform="translate(1.3782)" gradientUnits="userSpaceOnUse" xlink:href="#linearGradient2320"/>
  <linearGradient id="linearGradient3086" x1="26.625" x2="40.188" y1="67.469" y2="70.531" gradientTransform="translate(1.3782)" gradientUnits="userSpaceOnUse" xlink:href="#linearGradient2320"/>
  <linearGradient id="linearGradient3097" x1="27.062" x2="34.219" y1="68.312" y2="50.938" gradientTransform="translate(1.3782)" gradientUnits="userSpaceOnUse" xlink:href="#linearGradient2320"/>
  <linearGradient id="linearGradient3101" x1="7" x2="9.6562" y1="40.219" y2="40.219" gradientTransform="translate(1.3782)" gradientUnits="userSpaceOnUse" xlink:href="#linearGradient2320"/>
  <linearGradient id="linearGradient3126" x1="79.062" x2="82.312" y1="81.062" y2="67.25" gradientTransform="translate(1.3782)" gradientUnits="userSpaceOnUse" xlink:href="#linearGradient2320"/>
  <linearGradient id="linearGradient3130" x1="88.688" x2="90.25" y1="82.812" y2="57.812" gradientTransform="translate(1.3782)" gradientUnits="userSpaceOnUse" xlink:href="#linearGradient2320"/>
  <linearGradient id="linearGradient3134" x1="85.938" x2="88.75" y1="69.75" y2="44.812" gradientTransform="translate(1.3782)" gradientUnits="userSpaceOnUse" xlink:href="#linearGradient2320"/>
  <linearGradient id="linearGradient3138" x1="120.69" x2="124.38" y1="51.031" y2="49.656" gradientTransform="translate(1.3782)" gradientUnits="userSpaceOnUse" xlink:href="#linearGradient2320"/>
  <linearGradient id="linearGradient3148" x1="57.312" x2="57.312" y1="79.125" y2="65.812" gradientTransform="translate(1.3782)" gradientUnits="userSpaceOnUse" xlink:href="#linearGradient2320"/>
  <linearGradient id="linearGradient3179" x1="45.387" x2="44.15" y1="94.611" y2="91.208" gradientTransform="translate(1.3782)" gradientUnits="userSpaceOnUse" xlink:href="#linearGradient2320"/>
  <linearGradient id="linearGradient3189" x1="66.91" x2="68.28" y1="93.462" y2="91.739" gradientTransform="translate(1.3782)" gradientUnits="userSpaceOnUse" xlink:href="#linearGradient2320"/>
  <linearGradient id="linearGradient3199" x1="40.173" x2="50.823" y1="103.91" y2="94.147" gradientTransform="translate(1.3782)" gradientUnits="userSpaceOnUse" xlink:href="#linearGradient3193"/>
  <linearGradient id="linearGradient3203" x1="64.126" x2="76.809" y1="100" y2="100" gradientTransform="translate(1.3782)" gradientUnits="userSpaceOnUse" xlink:href="#linearGradient3193"/>
  <filter id="filter3233">
   <feGaussianBlur id="feGaussianBlur3235" stdDeviation="0.95224764"/>
  </filter>
  <linearGradient id="linearGradient3392">
   <stop id="stop3394" stop-color="#4a585b" offset="0"/>
   <stop id="stop3396" stop-color="#5e7074" offset="1"/>
  </linearGradient>
  <linearGradient id="linearGradient2628" x1="92.068" x2="80.153" y1="43.622" y2="12.833" gradientUnits="userSpaceOnUse" xlink:href="#linearGradient3392"/>
  <linearGradient id="linearGradient2630" x1="42.875" x2="59.957" y1="20.268" y2="55.727" gradientUnits="userSpaceOnUse" xlink:href="#linearGradient3392"/>
 </defs>
 <metadata id="metadata7">
  <rdf:RDF>
   <cc:Work rdf:about="">
    <dc:format>image/svg+xml</dc:format>
    <dc:type rdf:resource="http://purl.org/dc/dcmitype/StillImage"/>
   </cc:Work>
  </rdf:RDF>
 </metadata>
 <g id="layer2" fill-rule="evenodd">
  <path id="path3207" d="m34.627 116.46-4.6514-2.0673-10.164-1.2059-17.917-8.9583 10.853-13.265-11.37-5.1682 12.231-12.059 68.393 15.849-2.9287 20.328-20.501 10.164-7.2355-1.7228-4.3069-1.895h-12.404z" fill-opacity=".63014" filter="url(#filter3233)"/>
  <path id="path2447" d="m13.438 60.514-1.7054 0.97453-3.0454 24.12 49.945 34.23 1.5836-23.754 0.60908-2.3145-47.387-33.256z" fill="url(#linearGradient2449)"/>
  <path id="path2451" d="m58.51 119.96 1.34-23.632 0.60908-2.3145 60.543-22.292v-1.0963l3.0454 1.34 2.5581 24.363-21.805 7.5526 0.12181-0.97453-19.978 7.1872-0.60908 0.85272-25.825 9.0144z" fill="url(#linearGradient2453)"/>
  <path id="path2455" d="m84.335 110.09v-2.8018l0.48727-6.0908 2.8018-6.0908 5.4817-6.6999 3.8981-2.3145c2.0907 0.066319 3.0666 0.96883 4.2636 1.7054l2.1927 2.9236 1.34 5.2381-0.12182 6.9435-20.343 7.1872z" fill="url(#linearGradient2457)"/>
  <path id="path2459" d="m15.383 64.491-3.7384-2.561-2.957 23.678 49.945 34.23 1.5836-23.754-8.6717-5.7617-36.161-25.831z" fill-opacity=".15686"/>
  <path id="path3038" d="m97.81 85.839 3.8891 0.17678 3.3588 3.3588 1.591 5.4801 0.35356 7.955-2.2097 0.97227 0.17677-4.1542-0.44194-4.8614-1.591-5.3917-1.6794-1.6794-3.4471-1.8562z" fill-opacity=".15686"/>
  <path id="path3040" d="m17.376 83.452-2.9168-0.53033-3.5355 1.3258-3.4471 3.182-2.3865 4.1543-1.2374 4.1543-0.088388 3.0936 1.2374 3.8007 2.2097 1.9446 0.44194 1.5026 0.88388 0.61872 0.97227-0.26517 5.1265 3.9775 1.0607 1.149 1.3258 0.08839 5.3917 2.6516-1.149-1.591-1.0607-5.0381 1.5026-5.922 1.591-3.0936 2.3865-2.8284 3.2704-1.7678-1.5026-6.2756-2.2981-1.5026-4.0659-1.591-0.70711-0.088389-0.35355-0.61872-1.591-0.61872-0.53033 0.53033-0.53033-0.44194z" fill="url(#linearGradient3042)"/>
  <path id="path3044" d="m28.955 94.059-2.2981 1.149-1.6794 1.5026-2.6517 3.7123-1.5026 4.1542-0.35355 2.2981 0.088388 3.0936 1.591 4.0659 2.2981 1.4142 1.8562 0.17678 2.3865-0.70711 1.9445-1.0607 2.6517-2.74-4.331-17.059z" fill="url(#linearGradient3046)"/>
  <path id="path3048" d="m27.806 89.639-4.0659 2.5633-3.0936 4.0659-2.0329 3.2704-1.3258 3.9775-0.61872 6.2756 0.26516 1.7678h-1.591l-0.61872-1.5026-0.26517-5.1265 0.7955-4.8614 1.5026-3.3588 3.8891-4.331 4.8614-3.8007 1.7678-1.0607 0.53033 2.1213z" fill="#1a1a1a"/>
  <path id="path3050" d="m20.293 84.513-2.5633 1.6794-3.0052 2.3865-2.5633 3.3588-1.8562 3.6239-0.44194 3.3588-0.53033 2.8284 0.26516 4.5962-1.0607 0.26517-0.97227-0.61872-0.26516-0.79549-0.26516-4.5962 0.44194-3.4471 1.2374-3.8891 2.6517-3.9775 3.8007-3.6239 3.5355-2.3865 1.2374 0.7955 0.35355 0.44194z" fill="#1a1a1a"/>
  <path id="path3052" d="m17.376 83.452-2.9168-0.53033-3.5355 1.3258-3.4471 3.182-2.3865 4.1543-1.2374 4.1543-0.088388 3.0936 1.2374 3.8007 2.2097 1.9446 0.44194 1.5026 0.88388 0.61872 0.97227-0.26517 5.1265 3.9775 1.0607 1.149 1.3258 0.08839 5.3917 2.6516-1.149-1.591-1.0607-5.0381 1.5026-5.922 1.591-3.0936 2.3865-2.8284 3.2704-1.7678-1.5026-6.2756-2.2981-1.5026-4.0659-1.591-0.70711-0.088389-0.35355-0.61872-1.591-0.61872-0.53033 0.53033-0.53033-0.44194z" fill-opacity=".15686"/>
  <path id="path3054" d="m34.253 116.44 10.438 4.6875 0.4375-0.4375-4.3125-14.062-5.375-18.312-2.9375-9.5-2.25-7.9375-11.625-7.4375 8.875-3.5625-0.5-0.6875-9.6875 3.9375-0.625 9.75 8.625 6.25 8.9375 37.312z" fill="url(#linearGradient3056)"/>
  <path id="path3058" d="m44.989 120.75-14.74-49.823-4.6899-2.9845 2.1927-0.85272 0.18272 0.42636 8.4053 6.1517-0.12182 2.7409 5.9081 17.602 5.9081 18.272 6.2736 4.8118-9.319 3.6545z" fill="url(#linearGradient3060)"/>
  <path id="path3062" d="m8.3782 46.562 0.125 7.875 11.125 7.75 7.5-2.875 1.5964-0.66776-17.834-12.191-1.1365 0.94983-1.3759-0.8406zm28.219 19-0.1875 10.844 5.7188 17.719 5.7812 18.156 6.5938 5.1875-4.9375-13.844-9.2188-27.156v-0.375l17.75 11.875-0.125-7.5938-1.0293-1.1882 0.053184-1.4272-19.337-12.936-1.0622 0.73926z" fill="url(#linearGradient3064)"/>
  <path id="path3066" d="m34.497 116.44 9.3412 4.0175-3.875-13.525-5.4359-18.069-5.3702-17.803-12.024-7.5673-0.44228 9.3846 8.625 6.25 9.1811 37.312z" fill-opacity=".15686"/>
  <path id="path3071" d="m13.878 58.438-0.0625 2.875 3.1875 2.25 0.3125-0.3125 2.3125-1.0625-5.75-3.75zm26.688 17.688-0.1875 0.375 1.6875 4.875 18.5 12.375-0.125-6.6875-2.4375 0.875-17.438-11.812z" fill="url(#linearGradient3076)"/>
  <path id="path3078" d="m13.878 58.438-0.0625 2.875 3.1875 2.25 0.3125-0.3125 2.3125-1.0625-5.75-3.75zm26.688 17.688-0.1875 0.375 1.6875 4.875 18.5 12.375-0.125-6.6875-2.4375 0.875-17.438-11.812z" fill-opacity=".15686"/>
  <path id="path3080" d="m18.691 63.5c0.625-0.25 9-3.75 9-3.75l0.20012-0.49916 0.92507-0.43715 0.53575 7.6281-1.5359 0.74571-2.125 0.6875-7-4.375z" fill="url(#linearGradient3082)"/>
  <path id="path3084" d="m13.566 46.312-2.375 0.375 2.5 1.6875-0.125-2.0625zm15.438 14.875 0.375 5.375-0.5 0.1875-0.875 0.75 8.375 6.25 0.0625-6.625-7.4375-5.9375z" fill="url(#linearGradient3086)"/>
  <path id="path3093" d="m13.566 46.312-2.375 0.375 2.5 1.6875-0.125-2.0625zm15.438 14.875 0.375 5.375-0.5 0.1875-0.875 0.75 8.375 6.25 0.0625-6.625-7.4375-5.9375z" fill-opacity=".15686"/>
  <path id="path3095" d="m13.628 36.625 0.125 11.875 3.75 2.625 11.312 7.5 0.0625 2.4375 7.5 6.125 0.125-1.8125 1.1875-0.625 19.312 13.125 0.5625-12.25-43.938-29z" fill="url(#linearGradient3097)"/>
  <path id="path3099" d="m8.3782 46.375 0.1875-13.125 2.75 1.75-0.375 10.375 2.75-0.4375v1.375l-2.4375 0.3125-0.5625-0.25-0.8125 0.8125-1.5-0.8125z" fill="url(#linearGradient3101)"/>
  <path id="path3103" d="m8.3782 46.375 0.1875-13.125 1.5625 1.0625-0.25 12.875-1.5-0.8125z" fill-opacity=".15686"/>
  <path id="path3105" d="m41.503 67.062 0.125-9.6875 5.1875 3.25-0.125 10.125-5.1875-3.6875z" fill-opacity=".15686"/>
  <path id="path3107" d="m23.628 44.062 0.0625 7.375 7.1875 4.875-0.1875-7.5-7.0625-4.75z" fill-opacity=".15686"/>
  <path id="path3111" d="m24.659 45.969 0.03125 1.875 1.7812 1.25 0.09375-1.875-1.9062-1.25zm2.8438 1.8438 0.09375 2.125 2.0312 1.2188v-1.9062l-2.125-1.4375zm-2.7188 1.375-0.125 1.75 1.9688 1.4062-0.09375-2-1.75-1.1562zm2.8125 1.6562 0.03125 2.1562 2.0312 1.5625-0.03125-2.3438-2.0312-1.375z" fill="#d59163"/>
  <path id="path3120" d="m48.441 61 0.0625 7.375 7.1875 4.875-0.1875-7.5-7.0625-4.75z" fill-opacity=".15686"/>
  <path id="path3122" d="m49.472 62.906 0.03125 1.875 1.7812 1.25 0.09375-1.875-1.9062-1.25zm2.8438 1.8438 0.09375 2.125 2.0312 1.2188v-1.9062l-2.125-1.4375zm-2.7188 1.375-0.125 1.75 1.9688 1.4062-0.09375-2-1.75-1.1562zm2.8125 1.6562 0.03125 2.1562 2.0312 1.5625-0.03125-2.3438-2.0312-1.375z" fill="#d59163"/>
  <path id="path3124" d="m58.066 87.75 0.0625-7.5 2.375-0.875 0.0625-1.375 63.5-22.688 1.25 0.6875 0.0625 7.6875-67.313 24.062z" fill="url(#linearGradient3126)"/>
  <path id="path3128" d="m60.378 93.938 0.0625-6.75 60.5-22v6.375l-60.563 22.375z" fill="url(#linearGradient3130)"/>
  <path id="path3132" d="m60.441 77.938-0.125-13.375 30.312-19.562 30.188-1.8125v13.125l-21.938 8.125-38.438 13.5z" fill="url(#linearGradient3134)"/>
  <path id="path3136" d="m121 56.25 0.1875-1.8125-0.125-1.3125 1.625 0.5 0.1875-10.562 2.875 0.25-0.5625 12.438-1.4375-0.5-2.75 1z" fill="url(#linearGradient3138)"/>
  <path id="path3140" d="m121 56.25 0.1875-1.8125 2.625 0.6875v-12l1.9375 0.1875-0.5625 12.438-1.4375-0.5-2.75 1z" fill-opacity=".15686"/>
  <path id="path3142" d="m65.816 75.875 0.125-10.375 7.375-3.0625-0.1875 11.062-7.3125 2.375z" fill-opacity=".15686"/>
  <path id="path3144" d="m98.753 64.375 0.125-10.375 7.375-3.0625-0.1875 11.062-7.3125 2.375z" fill-opacity=".15686"/>
  <path id="path3146" d="m56.941 78.938c0-0.25 0.3125-12.688 0.3125-12.688l3.125-1.5625 0.0625 14.75-2.0625 0.875-1.4375-1.375z" fill="url(#linearGradient3148)"/>
  <path id="path3150" d="m56.941 78.938c0-0.25 0.3125-12.688 0.3125-12.688l1.625-0.5625-0.5 14.625-1.4375-1.375z" fill-opacity=".15686"/>
  <path id="path3152" d="m75.378 60.562v7.875l9.75-3.625v-7.875l-9.75 3.625z" fill-opacity=".15686"/>
  <path id="path3154" d="m83.566 58.75-2.9062 1.0938 0.0625 2.1875 2.875-1.2812-0.03125-2zm-4.1562 1.6875-2.5625 0.96875v2l2.5625-0.84375v-2.125zm4.2188 1.5-2.7812 1.0312v2.375l2.7188-1.0625 0.0625-2.3438zm-4.125 1.875-2.7188 0.9375v2.0625l2.7188-1.0312v-1.9688z" fill="#d59163"/>
  <path id="path3165" d="m108.35 48.895v7.875l9.75-3.625v-7.875l-9.75 3.625z" fill-opacity=".15686"/>
  <path id="path3167" d="m116.53 47.083-2.9062 1.0938 0.0625 2.1875 2.875-1.2812-0.03125-2zm-4.1562 1.6875-2.5625 0.96875v2l2.5625-0.84375v-2.125zm4.2188 1.5-2.7812 1.0312v2.375l2.7188-1.0625 0.0625-2.3438zm-4.125 1.875-2.7188 0.9375v2.0625l2.7188-1.0312v-1.9688z" fill="#d59163"/>
  <path id="path3171" d="m89.789 47.346 0.83969-0.7955 1.3258-0.57452 1.4805 0.15468 1.0607 1.0165 0.30936 1.149 0.066291 0.95018-0.99437 1.8341 0.13258-2.6958-1.5026-1.6794-2.7179 0.64082z" fill-opacity=".15686"/>
  <path id="path3169" d="m89.457 47.677 0.46404-0.41984 1.5689-0.53033 1.3479 0.022097 0.66291 0.41984 0.68501 1.0165-0.17678 1.8562-0.57452 1.9004-2.3865 1.0165-1.1932-0.17678s-1.3037-0.90598-1.3258-0.99437-0.33146-1.591-0.33146-1.591l0.30936-1.3258 0.95018-1.1932z" fill="#d59163"/>
  <path id="path3173" d="m8.626 33.248 49.674 32.792 32.792-21.213-47.111-32.969-35.355 21.39z" fill="url(#linearGradient2630)"/>
  <path id="path3177" d="m38.678 95.517 20.241-7.3804 0.61872 0.13258 0.44194 1.149-0.83969 1.37-12.816 4.6846-6.9385 2.5191-0.57452-0.70711-0.13258-1.7678z" fill="url(#linearGradient3179)"/>
  <path id="path3187" d="m62.234 87.253 17.368 11.181 0.13258 1.1049-0.44194 1.0165-17.501-11.181-0.53033-1.2816 0.35355-0.7513 0.61872-0.088388z" fill="url(#linearGradient3189)"/>
  <path id="path3191" d="m40.092 97.639 0.35355 8.7946 14.275-4.9939s-0.17678-8.7946-0.35355-8.7946c-0.17678 0-14.231 5.1707-14.275 4.9939z" fill="url(#linearGradient3199)"/>
  <path id="path3201" d="m65.902 91.982-0.39775 7.734 12.374 8.3085 0.30936-8.0875-12.286-7.955z" fill="url(#linearGradient3203)"/>
  <path id="path2626" d="m91.092 44.827 34.206-1.7678-48.525-33.853-32.792 2.6517 47.111 32.969z" fill="url(#linearGradient2628)"/>
  <path id="path3175" d="m8.626 33.248 49.674 32.792 32.792-21.213-47.111-32.969-35.355 21.39z" fill-opacity=".15686"/>
 </g>
 <g id="layer1">
  <path id="path2309" d="m77.045 9.0669-33.281 2.7188-35.813 21.344 0.3125 0.21875-0.125 21.406 5.375 3.625v2.1562l-2.125 0.875-3.125 24.156 0.46875 0.3125c-0.14367 0.12637-0.29867 0.24669-0.4375 0.375-3.8414 4.2314-5.9188 10.186-3.9062 15.719 0.56241 1.3285 1.6537 2.1599 2.7812 2.9688 0.032622 0.23901 0.056974 0.48097 0.09375 0.71875 0.63525 0.73211 0.13214 1.4045 2.0625 1.0938 1.6939 1.4359 3.4527 2.8476 5.5625 4.1875 0.27138 0.52152 0.22508 0.90846 1.3438 0.8125 1.7555 0.99745 3.7782 1.9491 6.25 2.7812 3.4864 2.4549 7.2167 0.38442 10-2.1875 0.20267-0.21045 0.39867-0.43312 0.59375-0.65625l1.25 4.9688 10.25 4.5625 9.7188-3.875 4.25 2.9375 26.594-9.3438v-0.59375l19.219-7.1875-0.09375 0.96875 22.531-7.8125-2.25-24.156 0.09375-0.21875-3.2188-1.5938-0.15625-4.9062 4.3438-1.5625v-8.6875l0.25-11.875 0.5625-0.03125-49.375-34.219zm-0.4375 0.4375 47.469 33.094-33.031 1.7188-45.844-31.906 31.406-2.9063zm-2.8125 1.2813-0.34375 0.09375c0.23232 0.16263 0.68541 0.54856 1.0625 0.84375l-16.438 1.8125c-0.56918-0.43226-1.1499-0.84815-1.7188-1.2812l-0.375 0.0625c0.56489 0.42162 1.1227 0.85808 1.6875 1.2812l-5.75 0.625-0.15625 0.28125 6.2188-0.6875c2.704 2.0274 5.3895 4.0759 8.0938 6.125-1.3802 0.26526-2.7483 0.52371-4.125 0.65625l0.125 0.3125c1.4871-0.14617 2.9531-0.39284 4.4062-0.6875 8.9409 6.7761 17.897 13.628 26.969 20.125l0.15625-0.3125c-8.9684-6.5912-17.89-13.202-26.781-19.875 2.6934-0.56149 5.3408-1.284 8.0312-1.9062l5.7188 4.25-6.9062 1.1562 0.0625 0.375 7.2188-1.25 8.2812 6.1562-3.625 0.46875-0.125 0.3125 4.0625-0.53125 6.1562 4.5938 0.03125-0.3125-5.7812-4.3438 10.906-1.4062-0.1875-0.21875-11.031 1.4062-8.2812-6.1875 7-1.25c1.3495 0.98828 2.7141 1.9664 4.125 2.9062l-1.875 0.53125-0.0625 0.15625 2.0938-0.59375c0.73959 0.49237 1.4929 0.98959 2.25 1.5l0.1875-0.09375c-0.71148-0.50785-1.4302-1.007-2.1562-1.5l2.1875-0.625v-0.125l-2.3125 0.65625c-1.3893-0.94219-2.794-1.8631-4.1562-2.8438l1.25-0.21875-0.1875-0.28125-1.4062 0.25c-1.2689-0.9262-2.5045-1.9008-3.6562-2.9688l-0.125 0.15625c1.1458 1.0393 2.3083 1.9583 3.5 2.8438l-7.0312 1.1875-5.7188-4.25c0.9129-0.20696 1.8258-0.39443 2.75-0.5625l0.0625-0.28125c-1.0275 0.18204-2.0592 0.3939-3.0938 0.625l-0.5-0.375-0.375 0.125 0.46875 0.34375c-2.682 0.60935-5.3934 1.3072-8.0938 1.8438-2.6989-2.0264-5.403-4.0512-8.0938-6.0938l16.469-1.8125c1.0129 0.80509 2.1266 1.7275 3.3125 2.7188l-4.6875 0.90625-0.09375 0.28125 5.0625-0.96875c1.4668 1.2294 2.875 2.4375 2.875 2.4375l0.3125-0.15625c1e-6 0-1.3745-1.1694-2.7812-2.3438l1.9688-0.375-0.09375-0.28125-2.1562 0.40625c-1.1667-0.97097-2.2807-1.8397-3.3125-2.6562l1.9375-0.21875-0.28125-0.28125-2 0.21875c-0.39913-0.31112-0.87056-0.6969-1.125-0.875zm-29.438 1.7188 45.688 32.312-31.875 20.75-46.781-30.969-2.25-1.5 34.875-20.562 0.34375-0.03125zm-1.625 3.0312-5.0625 2.9688-0.46875-0.375-0.1875 0.03125 0.5 0.40625-21.312 12.406c-0.10267-0.074951-0.20998-0.14358-0.3125-0.21875l-0.03125 0.125c0.07255 0.05261 0.14619 0.10367 0.21875 0.15625l-2.8125 1.6562 0.125 0.4375 3.0625-1.8125c1.9558 1.4154 3.9089 2.8267 5.875 4.2188l-1.875 1.25 0.21875 0.125 1.9375-1.1875c3.3831 2.3927 6.7824 4.7396 10.219 7.0625l-0.09375 0.0625 0.21875 0.3125 0.21875-0.15625c0.8735 0.58951 1.7469 1.1963 2.625 1.7812l0.09375-0.40625c-0.80112-0.54293-1.6019-1.0866-2.4062-1.625l8-5.9375c3.7778 2.7442 7.5906 5.441 11.406 8.125l-3.4688 2.2812-5.5625-3.9375-0.375 0.1875 5.625 3.9375-5.0938 3.375 0.40625 0.28125 5.0312-3.4062 7.1562 5c-1.66 1.1759-3.3147 2.3405-4.9688 3.4688v0.15625c1.6515-1.2325 3.3672-2.381 5.0938-3.5312l6.2812 4.375 0.25-0.1875-6.25-4.375c2.9785-1.9828 5.9599-3.9839 8.6562-6.3125 1.8367 1.4831 3.6483 2.9515 5.375 4.25l-5.6562 3.5312 0.09375 0.34375 5.8438-3.6875c0.17946 0.13359 0.35368 0.27701 0.53125 0.40625l0.0625-0.46875c-0.078713-0.054-0.17124-0.10138-0.25-0.15625l5.0312-3.1875c0.84504 0.65504 1.702 1.3065 2.5938 1.9062l0.0625-0.375c-0.80252-0.56009-1.5483-1.1589-2.3125-1.75l4-2.5312-0.15625-0.21875-4.0938 2.5625c-2.2738-1.7727-4.453-3.6376-6.7812-5.4062l-0.1875 0.28125c2.2736 1.72 4.3918 3.5964 6.625 5.3438l-5.0312 3.1562c-1.805-1.2781-3.6321-2.7493-5.4688-4.25 0.34392-0.30262 0.69809-0.5908 1.0312-0.90625l-0.21875-0.21875c-0.35677 0.30443-0.73112 0.60546-1.0938 0.90625-2.1012-1.7155-4.2069-3.4338-6.375-4.8438l2.6875-1.8125-0.15625-0.09375-2.7188 1.8125c-0.54714-0.35123-1.1038-0.69342-1.6562-1l-0.15625 0.21875c0.49736 0.29919 0.99593 0.6328 1.5 0.96875l-5.5938 3.6875c-3.9365-2.8096-7.785-5.3777-11.531-8.0312l2.6562-1.9688-0.34375-0.1875-2.625 1.9375c-2.0786-1.4777-4.1246-2.998-6.125-4.5938l4.125-2.75v-0.15625l-4.3125 2.75c-0.91106-0.73032-1.8261-1.4457-2.7188-2.2188l-0.34375 0.09375c0.94048 0.76437 1.8875 1.505 2.8438 2.25l-5.9688 3.8125 0.125 0.375 6.0312-4.0312c2.019 1.569 4.0875 3.0874 6.1562 4.5938l-8.0312 5.9375c-3.4518-2.3075-6.9118-4.6006-10.344-6.9375l5.125-3.1875-0.375-0.34375-5.0312 3.3438c-1.9952-1.3614-3.983-2.7369-5.9375-4.1562l21.188-12.469 4.4375 3.5312-8.5625 5.0938 0.3125 0.15625 8.5-5.0625 4.6562 3.75-3.5312 2.5625-2.4688-1.9062-0.25 0.28125 2.4062 1.8438-4.2188 3.0938-0.03125 0.28125 4.5-3.1875 6.875 5.25 0.3125-0.09375-6.875-5.3438 3.5625-2.5312 8.1875 6.5625-3.2188 2.3125-0.03125 0.15625 3.375-2.3438 3.3125 2.6562 0.3125-0.21875-3.3438-2.625 4.875-3.375c1.3135 1.021 2.617 2.0418 3.9062 3.0938l-7.6875 5.75 0.0625 0.1875 7.7812-5.7812c2.2488 1.8378 4.4918 3.6996 6.7188 5.5625l0.1875-0.34375c-2.2295-1.817-4.3947-3.6502-6.5938-5.4375l0.5625-0.4375-0.1875-0.125-0.5625 0.40625c-1.2815-1.0395-2.5822-2.053-3.9062-3.0625l2.3438-1.625-0.28125-0.21875-2.3125 1.6562c-0.37426-0.28383-0.74525-0.56309-1.125-0.84375l-0.21875 0.1875c0.36685 0.27897 0.72941 0.56155 1.0938 0.84375l-4.7812 3.4375-8.25-6.5312 2.2812-1.5938-0.34375-0.28125-2.25 1.625-4.6562-3.6875 6.7188-4-0.3125-0.15625-6.6562 3.9688-4.4688-3.5312 4.875-2.875-0.0625-0.28125zm-10.125 8.4375-7.9688 5 0.09375 0.0625 8.0312-4.7188-0.15625-0.34375zm23.375 0.15625-4.375 3.0938 0.15625 0.21875 4.3125-3.1562-0.09375-0.15625zm43.281 7.1562-0.21875 0.1875c2.1978 1.6379 4.3045 3.4073 6.4375 5.125-2.9526 0.21187-6.0474 0.64605-9.5938 0.84375l0.84375 0.15625c3.4516 0.12173 6.3403-0.28738 9.3125-0.5625 1.5939 1.275 3.1929 2.5278 4.875 3.6875l0.09375-0.28125c-1.5532-1.1022-3.0462-2.2632-4.5312-3.4375 1.9786-0.17262 3.9978-0.29534 6.2812-0.125l-0.09375-0.09375c-2.2503-0.37438-4.4418-0.36317-6.7188-0.21875-2.2181-1.7647-4.413-3.5598-6.6875-5.2812zm-90.375 2.4688 0.875 0.5625-0.1875 12.531-0.96875-0.65625 0.28125-12.438zm1.4062 0.9375 0.75 0.5-0.40625 10.719-0.65625 0.59375 0.3125-11.812zm1.0625 0.71875 2.0625 1.3438 0.125 8.125-2.4688 0.28125 0.28125-9.75zm2.625 1.75 43.125 28.656-0.375 11.75-9.75-6.6562v-10.375l-5.6562-3.5-0.0625 9.9688-3.6875-2.5-1.1875 0.625-0.125 1.6562-7.0625-5.5938-0.125-2.5625-6.8438-4.5938v-10.406l-5.6562-3.5-0.0625 10 0.5 0.28125 0.09375-9.2812 4.625 3v9.5625l-5.2188-3.5625-2.3125-1.5625-0.21875-11.406zm45 4c2.1179 1.4268 4.2763 3.1267 6.4062 4.8438-2.722 2.2426-5.5965 4.3741-8.5 6.4375l-7.125-5 3.4062-2.3125c0.2805 0.19742 0.56353 0.3961 0.84375 0.59375l0.46875-0.09375c-0.33506-0.243-0.66599-0.47959-1-0.71875l5.5-3.75zm66.25 2.1875-0.3125 12.094-0.71875-0.40625 0.125-11.625 0.90625-0.0625zm-1.5625 0.09375-0.09375 10.906-0.71875-0.625 0.375-10.25 0.4375-0.03125zm-1 0.0625-0.1875 9.9688-1.2812-0.4375-0.03125 0.03125-0.03125-9.4688 1.5312-0.09375zm-2.0938 0.125 0.0625 12.719-14.312 5.0625v-11.062l-7.7813 3.3438-0.09375 10.5-25 8.875v-11.094l-7.7812 3.3438-0.09375 10.531-4.8438 1.7188 0.09375-13.031 30.156-19.188 29.594-1.7188zm-97 0.1875-0.03125 7.6875 7.3438 5.0625-0.0625-7.75-7.25-5zm0.25 0.59375 6.75 4.5-0.0625 6.9375-6.6562-4.5312-0.03125-6.9062zm94.313 0.6875-9.9688 3.75-0.0625 8.3125 10.094-3.8125-0.0625-8.25zm-104.72 0.21875-0.03125 0.65625-2.2188 0.46875 0.125-0.78125 2.125-0.34375zm104.34 0.21875-0.0625 7.5-9.1562 3.5-0.0625-7.3438 9.2812-3.6562zm-93.156 0.25-0.03125 5.25 2 1.4062v0.03125l0.40625 0.3125 2.75 1.9062v-5.4375l-2.1875-1.5-0.09375-0.0625v0.03125l-2.8438-1.9375zm67.875 0.0625c-1.8587 1e-6 -3.7973 1.6376-4.3125 3.6562-0.51521 2.0187 0.57885 3.6562 2.4375 3.6562 1.8587-1e-6 3.7973-1.6376 4.3125-3.6562 0.51521-2.0187-0.57885-3.6562-2.4375-3.6562zm-67.688 0.3125 1.625 1.0938 0.0625 1.75-1.6562-1.2812-0.03125-1.5625zm67.562 0.0625c1.4815-1e-6 2.6056 1.6429 2.1875 3.2812-0.088592 0.34713-0.26386 0.67357-0.46875 1 0.84608-3.523-0.99515-4.7502-3.8438-3.4062 0.68479-0.5185 1.4534-0.875 2.125-0.875zm-81.625 0.40625 17.531 12-0.78125 0.34375-17.406-11.781 0.65625-0.5625zm2.7188 0 0.03125 1.4375-1.7812-1.1875 1.75-0.25zm78.594 0.15625c1.6141 0.010001 2.5013 1.3701 1.5312 4.4062-0.79667 0.87611-1.906 1.5312-2.8438 1.5312-1.4815 1e-6 -2.6681-1.5804-2.25-3.2188 0.20254-0.79356 0.76718-1.5825 1.4688-2.1875 0.75609-0.36159 1.4821-0.53504 2.0938-0.53125zm24.594 0.15625-3.0312 1.1562-0.125 0.03125v0.03125l-3.9062 1.5-0.0625 5.6875 2.75-1v0.03125l0.59375-0.21875 3.75-1.375 0.03125-5.8438zm-107.84 0.125 17.906 12.219-6.875 2.6875-11.031-7.5625v-7.3438zm107.47 0.21875 0.03125 1.75-2.5312 1.1562-0.0625-1.875 2.5625-1.0312zm-89.594 0.125 0.78125 0.5 0.09375 4.9062-0.78125-0.53125-0.09375-4.875zm0.9375 0.625 1.875 1.2188v1.6875l-1.8438-1.0938-0.03125-1.8125zm-2.7812 0.03125 1.6562 1.1875 0.03125 1-1.6875-1.2188v-0.96875zm88.656 0.3125 0.125 5.1562-1.0625 0.375-0.125-5.0938 1.0625-0.4375zm-1.4062 0.5625 0.0625 1.8438-2.2812 0.71875-0.03125-1.6562 2.25-0.90625zm-87.25 0.28125 1.6875 1.25 0.0625 1.6562-1.75-1.25v-1.6562zm91.469 0.09375v0.875l-2.5 1-0.03125-0.78125 2.5312-1.0938zm-88.656 0.71875 1.8438 1.1562v0.8125l-1.8125-1.1875-0.03125-0.78125zm88.656 0.53125 0.03125 2-2.4375 0.875-0.0625-2.0312 2.4688-0.84375zm-88.594 0.46875 1.7812 1.3125 0.03125 1.9062-1.7812-1.2812-0.03125-1.9375zm84.438 0 0.0625 1.0312-2.3438 0.84375v-1.0625l2.2812-0.8125zm-6.5 0.46875v10.156l-6.5 2.3125 0.125-9.8438 6.375-2.625zm6.5625 0.78125 0.0625 1.7188-2.375 0.84375-0.03125-1.75 2.3438-0.8125zm8.9688 1.0938 1.3125 0.34375 0.9375 1-2.25-0.625v-0.71875zm0.03125 1.1875 2.0938 0.65625v0.15625l-2.0938 0.75v-1.5625zm2.5625 1.0625 0.59375 0.03125-63.625 23.25v-0.78125l45.469-16.219h0.125v-0.0625l17.438-6.2188zm1.0938 0.65625 0.28125 6.9688-66.625 24-0.1875-6.5938 66.531-24.375zm-39.594 0.4375-9.9688 3.75-0.0625 8.3125 10.094-3.8125-0.0625-8.25zm-0.375 0.4375-0.0625 7.5-9.1562 3.5-0.0625-7.3438 9.2812-3.6562zm-43.031 0.875 4.625 3v9.5312l-4.7188-3.25 0.09375-9.2812zm41.906 0.53125-3.0312 1.1562-0.125 0.03125v0.03125l-3.9062 1.5-0.0625 5.6875 2.75-1v0.03125l0.59375-0.21875 3.75-1.375 0.03125-5.8438zm-69.5 0.3125 4.9688 3.3438-2.3125 0.90625-2.5938-1.8125-0.0625-2.4375zm69.125 0.03125 0.03125 1.75-2.5312 1.1562-0.0625-1.875 2.5625-1.0312zm-54.781 0.125 0.53125 7.4062-1.0625 0.28125-0.1875-7.4688 0.71875-0.21875zm-1.5625 0.5 0.375 0.28125-9.375 3.5625 12.031 7.6875 2.7812 9.5 0.0625 0.1875 7 23.687 0.0625 2.1875-10.688-35.656-11.875-7.5938 9.625-3.8438zm53.562 0.46875 0.125 5.1562-1.0625 0.375-0.125-5.0938 1.0625-0.4375zm-53.188 0.0625 0.28125 6.75-2.2188 0.875-6.4062-4.25 8.3438-3.375zm51.781 0.5 0.0625 1.8438-2.2812 0.71875-0.03125-1.6562 2.25-0.90625zm-30.875 0.15625-0.0625 7.6875 7.3438 5.0625-0.03125-7.75-7.25-5zm35.094 0.21875v0.875l-2.5 1-0.03125-0.78125 2.5312-1.0938zm-69.906 0.375v0.34375l3.25 2.25-0.03125 0.59375-0.625 0.3125-3.9688-2.7812 1.375-0.71875zm35.031 0 6.75 4.5-0.03125 6.9375-6.6562-4.5312-0.0625-6.9062zm-19.312 0.09375 7.0312 5.8125-0.03125 6.2812-8.1562-6.0312 1.4062-0.8125-0.25-5.25zm54.188 0.78125 0.03125 2-2.4375 0.875-0.0625-2.0312 2.4688-0.84375zm-71.406 0.25 3.875 2.75-0.75 3.5938-3.5625-2.5938 0.4375-3.75zm67.25 0.21875 0.0625 1.0312-2.3438 0.84375v-1.0625l2.2812-0.8125zm-29.906 0.03125-0.0625 5.25 2 1.4062v0.03125l0.4375 0.3125 2.7188 1.9062 0.03125-5.4375-2.2188-1.5-0.0625-0.03125-2.8438-1.9375zm0.15625 0.375 1.6562 1.0625 0.03125 1.7812-1.6562-1.2812-0.03125-1.5625zm23.25 0.0625v10.188l-6.5 2.2812 0.125-9.8438 6.375-2.625zm-55.375 0.75 11.688 7.25 14.531 49.062-8.875-3.9062-8.25-33.469-0.125-0.53125-0.84375-3.4375-8.3438-6.0312 0.21875-8.9375zm61.938 0.03125 0.0625 1.7188-2.375 0.84375-0.03125-1.75 2.3438-0.8125zm-27.906 0.40625 0.78125 0.5 0.0625 4.9062-0.75-0.53125-0.09375-4.875zm-34.688 0.46875-0.03125 0.53125-0.375-0.34375 0.40625-0.1875zm20.844 0.09375 19.156 13.219-0.03125 0.65625-19.812-13.312 0.6875-0.5625zm14.781 0.0625 1.8438 1.2188 0.03125 1.6562-1.8438-1.0625-0.03125-1.8125zm-2.8125 0.03125 1.6562 1.1875 0.0625 1-1.7188-1.2188v-0.96875zm10.438 0.125 0.09375 14.031-1.2812 0.5 0.28125-13.969 0.90625-0.5625zm-43.844 0.28125 0.5625 0.46875-0.09375 4-1.2188-0.875c0.27269-1.1309 0.35208-2.4766 0.75-3.5938zm104.53 0.28125 0.03125 5.5938-52.438 19.438-5.75-3.7812c-1.6844-0.4361-1.7799 1.7863-0.6875 2.625l3.4688 2.2812-4.5 1.6562-0.03125-6.2812 59.906-21.531zm-62.156 0.375-0.34375 13.719-0.78125-0.53125 0.46875-12.906 0.09375 0.0625 0.5625-0.34375zm-8.9688 0.09375 1.7188 1.25 0.03125 1.6562-1.7188-1.25-0.03125-1.6562zm-12.812 0.03125 21.156 14.469-0.1875 6.6562-17.438-11.719-0.09375 0.8125 5.5938 16.375-3.4688 1.2812-5.7188-17.531 0.15625-10.344zm-25.219 0.53125 5.0625 3.6562-0.0625 2.6875 2.5938 1.9062-0.3125 1.8125-7.8125-5.7188 0.53125-4.3438zm40.875 0.25 1.8438 1.1562v0.8125l-1.8125-1.1875-0.03125-0.78125zm-24.656 0.53125 0.125 0.125 8.3438 6.3438v2.3125l-3.8125 1.625-2.0938-6.9688-4.2812-2.8438 1.7188-0.59375zm24.719 0.46875 1.7812 1.3125 0.03125 1.9062-1.7812-1.2812-0.03125-1.9375zm68.969 2.8438 2.2812 1.375v0.03125l-20.125 7.4688-2.25-0.4375 20.125-7.4375-0.03125-1zm-110.47 0.71875 2.7813 2.0625-0.8125 4.3125-2.5313-1.8125 0.5625-4.5625zm112.81 1.4062 0.3125 3.1875-7.4375 2.875-0.09375-3.375 7.2188-2.6875zm-109.63 0.9375 9.9062 7.1875-0.875 4.2188-9.8125-7.0625 0.78125-4.3438zm5.2812 1.3125 5.625 4.1875 0.59375 2.4062-6.5938-4.8438 0.375-1.75zm96.656 0.59375 0.0625 3.4062-11.75 4.5312-0.09375-3.5938 11.781-4.3438zm8.0312 0.6875 0.46875 4.4375-12.625 4.9375 0.03125-4.6875 12.125-4.6875zm-113.75 0.09375 7.0625 5.125-0.25 1.7188c-0.68444-0.29594-1.3594-0.44786-2.0312-0.46875-0.70624-0.021963-1.4152 0.099557-2.0938 0.3125l-3.2188-2.2812 0.53125-4.4062zm25.844 0.03125v0.0625l0.34375 1-3.75 1.625-0.34375-1.125 3.75-1.5625zm4.4375 0.09375 17.219 11.562 2.3438-0.84375-0.15625 5.9062-2.25-1.5938 1.0625-0.375c1.7323-0.53184 1.3013-3.6375 0.09375-3.4062l-4.3125 1.5938-12.594-8.7812-1.4062-4.0625zm-4.0312 1.25 0.28125 0.875-3.75 1.6562-0.28125-0.96875 3.75-1.5625zm0.375 1.1562 0.375 1.0625-3.8125 1.6562-0.34375-1.1562 3.7812-1.5625zm63.906 0.3125 2.0938 0.53125-11.094 4.125-2.0312-0.59375 11.031-4.0625zm2.875 0.9375 0.1875 3.5625-3.9375 1.5312c-1.6619-0.096301-3.403 0.40464-5.0313 1.2188-0.77156 0.48074-1.4972 1.0143-2.1875 1.5625l-0.15625 0.0625-0.375-3.6875 11.5-4.25zm-66.344 0.0625 0.3125 0.96875-3.8125 1.6562-0.3125-1.0312 3.8125-1.5938zm87.188 0.90625 0.4375 4.375-7.4062 2.8438v-4.5l6.9688-2.7188zm-13.125 0.03125-0.03125 4.6875-6.4375 2.5625c-0.29134-0.47233-0.596-0.91321-0.9375-1.2812-1.0267-1.0616-2.1898-1.6141-3.4062-1.8125l10.812-4.1562zm-86.969 0.0625 1.2812 0.9375 1.25 5.0938c-1.1735-0.77154-2.3425-1.3925-3.5-1.9062l0.15625-0.03125 0.8125-4.0938zm-14.75 0.0625 2.4375 1.7188-0.0625 0.40625c-1.0169 0.45549-1.9543 1.1167-2.8438 1.8438l0.46875-3.9688zm28.063 0.15625 0.34375 1.0312-3.8438 1.6875-0.34375-1.125 3.8438-1.5938zm4.5938 0.21875 8.9062 6.2188-1.375 0.5-6.8438-4.8125-0.6875-1.9062zm-24.531 0.15625 3.9062 2.8438c-0.42151-0.15243-0.83764-0.30936-1.25-0.4375-0.073515-0.79127-1.3805-0.76023-2.0938-1.125-0.19463 0.19884-0.56037 0.28019-0.75 0.375-0.020526-0.011193-0.041961-0.020332-0.0625-0.03125l0.25-1.625zm20.344 0.9375 0.3125 0.9375-3.875 1.6875-0.3125-1.0312 3.875-1.5938zm-23.938 0.53125c0.17295-0.01176 0.3535-0.003086 0.53125 0 0.62915 0.29279 1.2659 0.5708 1.9062 0.84375-0.77742 0.50876-1.513 1.0308-2.1875 1.5625-1.0044-0.5151-2.0062-1.0201-2.9688-1.5625 0.84838-0.47877 1.7454-0.77756 2.7188-0.84375zm1.3438 0.0625c0.54279 0.074205 1.0971 0.20075 1.6875 0.40625-0.11091 0.069278-0.20359 0.14898-0.3125 0.21875-0.46502-0.20078-0.91558-0.41492-1.375-0.625zm73.75 0.125 1.875 0.625-13.812 5.1562-1.5-0.8125 13.438-4.9688zm-70.656 0.125c0.52182 0.024644 1.0433 0.42732 1.2812 0.65625-8.4122 4.8432-11.832 12.727-10.719 21.781-0.46291 0.22587-1.7429 0.23709-1.625-0.8125-0.51723-3.5493-0.30289-7.5506 1.0625-11 1.3817-3.4907 4.3207-7.4117 9.5-10.5 0.16882-0.092095 0.32606-0.13322 0.5-0.125zm19.906 0.34375 0.28125 0.90625-3.9062 1.6875-0.28125-0.9375 3.9062-1.6562zm78.563 0.0625v4.5312l-10 3.8438-0.21875-4.375 10.219-4zm-105.78 0.1875-0.03125 0.15625c0.96604 0.52762 1.9486 1.0341 2.9375 1.5312-0.72457 0.58317-1.3618 1.1764-1.9688 1.7812-1.0359-0.55708-2.0586-1.1295-3.0938-1.6875 0.69489-0.72397 1.4009-1.3326 2.1563-1.7812zm8.9688 0.28125c2.3644 0.89582 4.6381 1.9522 6.3438 3.0312-0.40034 0.23231-0.77075 0.47546-1.1562 0.71875-1.8587-1.3079-3.9455-2.2974-6.0938-3.2188 0.29662-0.17845 0.59376-0.3593 0.90625-0.53125zm23.031 0.03125 5.9375 4.1875-0.96875 2.9375-1 0.375-1.8438-1.3438-2.125-6.1562zm48.438 0.0625 0.21875 3.7188-14.125 5.4688-0.25-3.9688 14.156-5.2188zm-52.844 0.53125 0.375 1.125-3.9688 1.625-0.34375-1.125 3.9375-1.625zm-19.812 0.0625c2.1152 0.90088 4.209 1.872 6.125 3.2188-0.84665 0.5439-1.6723 1.1009-2.4375 1.6875-1.9409-1.1277-4.0208-2.1484-6.0938-3.1875 0.743-0.60202 1.5246-1.1737 2.4062-1.7188zm105.88 0.65625 0.5 4.875-12.438 4.625-0.0625-4.8125 12-4.6875zm-116 0.375c1.0334 0.55006 2.0632 1.1035 3.0938 1.6562-0.57801 0.58948-1.1217 1.1768-1.5938 1.7812-1.0202-0.55297-2.0461-1.0961-3.0625-1.6562 0.43436-0.56298 0.89346-1.085 1.375-1.5938 0.059346-0.066285 0.12787-0.12303 0.1875-0.1875zm90.156 0.03125c1.4121 0.003235 2.7667 0.52916 4.0938 1.5938 0.16143 0.17397 0.31458 0.38677 0.46875 0.59375l-1.375-0.0625c-0.82345-0.97219-1.8635-1.7138-3.1875-2.125zm-1.2188 0.15625c0.30853 0.06798 0.59403 0.15028 0.875 0.25l-0.125 17.812-2.7812 1v-18.344c0.69439-0.34712 1.362-0.58395 2.0312-0.71875zm-58.562 0.09375 0.34375 1-4 1.6562-0.3125-1.0938 3.9688-1.5625zm60.094 0.4375c1.1018 0.52654 1.9751 1.3212 2.6563 2.2812l-0.125 14.062-2.7188 0.96875 0.1875-17.312zm-82.938 0.125c2.0643 1.023 4.1335 2.0347 6.0938 3.1875-0.80452 0.62608-1.5506 1.2803-2.25 1.9375-1.9102-1.1304-3.8628-2.1887-5.8125-3.25 0.5902-0.64333 1.2547-1.2828 1.9688-1.875zm45.406 0.21875c0.1672-0.019285 0.32361 0.016152 0.4375 0.0625l16.656 10.969c0.57407 0.82338 0.22554 1.2777 0 1.7812l-17.062-11.125c-1.0345-1.1939-0.53286-1.6296-0.03125-1.6875zm33.375 0.15625 0.03125 18.25-3.0938 1.0938v-16.937c0.94538-0.85709 1.9636-1.6734 3.0625-2.4062zm-68.188 0.3125 0.09375 0.0625 0.21875 1.3438v0.03125c-8.4838 5.0913-11.734 13.563-10.844 22.031-0.34519-0.13998-1.0908-0.2263-1.3438-0.46875-0.55219-3.664-0.94403-8.0871 0.46875-11.656 1.4274-3.6061 5.8956-8.1919 11.406-11.344zm12.656 0 0.375 1.0938-4.0312 1.6562-0.34375-1.1562 4-1.5938zm11.688 0.3125 2.3125 1.5938-1.375 0.5-2.2812-1.5938 1.3438-0.5zm55.125 0.0625 0.15625 4.4375-0.21875 0.09375c-0.33613-1.5722-0.80526-2.8791-1.4062-3.9375l1.4688-0.59375zm-99.313 0.09375c1.0201 0.5575 2.0413 1.1047 3.0625 1.6562-0.59617 0.78497-1.1034 1.5752-1.5312 2.375l-3-1.75c0.43315-0.79391 0.92559-1.5577 1.4688-2.2812zm51.75 0.0625c0.74857 0.03858 0.91672 1.1642-0.25 2.25l-19.25 6.7812c-1.1029-0.63542-0.6881-1.6458-0.15625-1.9062l19.312-7.0625c0.12895-0.041683 0.23681-0.068011 0.34375-0.0625zm43.406 0.25 1.4375 0.125c0.66499 0.9626 1.229 2.2664 1.6562 3.9062l-1.1875-0.21875c-0.42513-1.439-1.0466-2.7479-1.9062-3.8125zm-27.031 0.09375 1.4062 0.84375-6.5625 2.4688-1.375-0.90625 6.5312-2.4062zm16.562 0.03125c-2.3125 1.9977-4.1328 4.3762-5.4688 7l-1.4062 0.5625c-0.014211-1.594-0.068749-3.238-0.28125-4.8125l7.1562-2.75zm-42.406 0.28125 2.0938 1.5-2.8438 1.0312 0.75-2.5312zm-9.3125 0.15625 0.28125 0.90625-4.0312 1.75-0.3125-1.0625 4.0625-1.5938zm-25.844 0.03125c1.9409 1.0603 3.8589 2.1511 5.75 3.2812-0.59372 0.56977-1.1508 1.1383-1.6562 1.7188-1.8394-1.08-3.6964-2.1067-5.5625-3.125 0.44013-0.64841 0.92712-1.2686 1.4688-1.875zm13.188 0.71875 0.03125 0.09375 0.03125 0.125c-0.051839-0.052066-0.10374-0.10504-0.15625-0.15625 0.030666-0.022103 0.062972-0.040426 0.09375-0.0625zm74.969 0.0625c2.0308 3.5165 2.0451 8.7971 1.875 12.5l-1.875 0.6875v-13.187zm-25.375 0.09375 0.3125 3.9375-2.6875 1.0312-3.9688-2.625 6.3438-2.3438zm-49.938 0.09375c0.18242 0.16828 0.35389 0.3525 0.53125 0.53125l0.78125 3.125c-0.13483 0.056407-0.27242 0.12396-0.40625 0.1875v-0.0625c-0.88021-0.80718-1.8673-1.5477-2.9062-2.25 0.63139-0.52368 1.3079-1.0253 2-1.5312zm13.344 0.15625 0.375 1.125-4.0625 1.6875-0.34375-1.125 4.0312-1.6875zm51 0.1875v16.594l-3.7188 1.3438 0.03125-13.344c1.0153-1.6567 2.2525-3.1959 3.6875-4.5938zm21.031 0.25 0.0625 4.7812-5.625 2.2188c-0.0472-1.7313-0.17784-3.2791-0.4375-4.625l6-2.375zm-106.94 0.0625 2.9688 1.75c-0.23691 0.46234-0.4413 0.94215-0.625 1.4062-0.15701 0.39666-0.28253 0.78865-0.40625 1.1875-1.0006-0.61396-1.9978-1.2505-3-1.875 0.27171-0.84626 0.64503-1.6732 1.0625-2.4688zm7.0938 0.46875c1.8472 1.0088 3.693 2.0438 5.5312 3.125-0.67437 0.79317-1.2599 1.5874-1.75 2.375l-5.1875-2.9688c0.38852-0.874 0.87211-1.718 1.4062-2.5312zm32.906 0.03125 1.25 0.90625-0.8125 0.3125-0.4375-1.2188zm79.875 0.0625 0.4375 4.375-6.875 2.4062-0.1875-4.3438 6.625-2.4375zm-41 0.21875 0.15625 4.8438-5 1.9688c-0.16126-0.24429-0.37618-0.44311-0.625-0.5625l-4-2.625c3.1739-1.2202 6.3531-2.4655 9.4688-3.625zm-43.5 0.09375 0.3125 1-4.0938 1.7812-0.34375-1.2188 0.03125 0.03125 4.0938-1.5938zm-16.031 0.1875c0.006102-0.005143 0.025142 0.005141 0.03125 0 0.90753 0.62434 1.7944 1.2792 2.625 2l0.15625 0.25c-0.78886 0.40796-1.5274 0.93693-2.25 1.5625l-0.0625-0.1875c-0.85125-0.57666-1.723-1.1145-2.5938-1.6562 0.65606-0.66494 1.3441-1.3369 2.0938-1.9688zm31.875 0.03125 3.4062 2.375 2.7812-1.0312 1.3125 0.90625-4.1875 1.5625-4.7188-3.3125 1.4062-0.5zm9.0938 0.375 11.719 7.7187-0.15625 7.3438-11.906-7.7187 0.34375-7.3438zm-0.625 0.125-0.03125 1.4062-0.5 0.1875-1.2188-0.9375 1.75-0.65625zm39.031 0.1875 1.2188 0.3125c0.33297 1.3711 0.54006 2.9871 0.625 4.8438l-1.0625-0.15625c-0.10855-1.6881-0.33241-3.4122-0.78125-5zm-49.656 0.0625 5.0625 3.5938-0.34375 4.6562-4.7188-3.4062-0.21875-4.75 0.21875-0.09375zm-13.281 0.28125 0.25 0.78125-4.125 1.75-0.25-0.90625 0.03125 0.03125 4.0938-1.6562zm12.344 0.0625 0.625 8.1562-13.844 4.75-0.3125-8.1562 13.531-4.75zm-49.281 0.53125c1.0007 0.6153 1.9969 1.2348 3 1.8438-0.28821 0.97754-0.47639 1.9851-0.59375 2.9688-0.96876-0.62288-1.9398-1.2453-2.9062-1.875 0.053063-0.99734 0.21249-1.9794 0.5-2.9375zm37.25 0.40625 0.0625 0.15625-3.2188 1.1875c-0.22135 0.36328-0.31341 0.77808-0.3125 1.1875l-0.375 0.15625-0.3125-1.0625 0.09375 0.0625 4.0625-1.6875zm76.719 0.03125 0.09375 4.375-10.531 3.7187-0.15625-4.2187 10.594-3.875zm-107.22 0.0625 5.1563 2.9688c-0.3957 0.65841-0.74839 1.3019-1 1.9375-0.088921 0.22464-0.14065 0.46211-0.21875 0.6875-1.6228-0.91329-3.2454-1.8656-4.875-2.8438 0.24566-0.94713 0.55576-1.8601 0.9375-2.75zm11.438 0c0.86167 0.54158 1.7218 1.0832 2.5625 1.6562l0.09375 0.1875c-0.2424 0.21886-0.48783 0.44771-0.71875 0.6875-0.28503 0.31396-0.54785 0.63669-0.8125 0.96875-0.87754-0.59497-1.7623-1.1623-2.6562-1.7188 0.48373-0.60778 0.97318-1.2038 1.5312-1.7812zm6 0.3125 0.03125 0.1875c-0.13764 0.059301-0.27367 0.12555-0.40625 0.1875l-0.0625-0.21875c0.1437-0.060886 0.2939-0.10385 0.4375-0.15625zm36.594 0.09375-0.0625 2.625-0.0625-2.5625 0.125-0.0625zm-37.25 0.125 0.125 0.21875c-0.86026 0.41943-1.64 0.97007-2.3438 1.5938l-0.125-0.3125c0.73665-0.62348 1.5386-1.1354 2.3438-1.5zm36.719 0.0625 0.0625 4.25-4.75 1.8437 0.25-4.4375 4.4375-1.6562zm-35.969 0.09375 3.5938 14.469c-1.5229 2.3215-4.249 4.311-9.1562 5.125-0.062598-0.04695-0.12639-0.10486-0.1875-0.15625-4.9143-7.7557 1.4121-18.522 5.75-19.437zm20.656 0.34375c-0.67529 0.096624-1.3793 0.64654-1.875 1.9375l4 0.4375c0.50923-0.84872-0.57854-2.3332-1.8438-2.375-0.09489-0.003135-0.18478-0.013803-0.28125 0zm-9.3125 0.46875-0.3125 0.0625c0.21043 0.64793 0.11707 0.99207 0 1.3125l0.375-0.0625c0.74788-0.56562 0.099214-0.89848-0.0625-1.3125zm-19.125 0.5c0.87656 0.54797 1.7531 1.102 2.625 1.6875 0.010558 0.009004 0.020522 0.021658 0.03125 0.03125-0.5612 0.72426-1.0807 1.4873-1.5312 2.2812l-2.75-1.5937c0.47447-0.83271 1.0237-1.6318 1.625-2.4062zm49.812 0.03125c-0.10283-0.001571-0.19905 0.015007-0.3125 0.03125-0.25932 0.037127-0.55655 0.13255-0.875 0.28125 0.44478 0.76538 1.413 1.8725 3.125 1.6875-0.008998-0.062986-0.39503-1.9764-1.9375-2zm15.5 0c-0.79801 1.6297-1.3776 3.3439-1.8125 5.125l-5.7812 2.2188-0.125-2.8125 0.46875 0.3125c1.026-0.58374 1.1052-1.6129 0.71875-2.3437l5.0312-1.9062 1.5-0.59375zm1 0.03125-0.03125 12.531-2.5938 0.9375c-0.51901-4.872 0.44607-9.4745 2.625-13.469zm-61.781 0.125 0.15625 0.25c-0.5187 0.47231-0.97466 1.0032-1.4062 1.5625l-0.1875-0.21875c0.26661-0.35619 0.55541-0.69633 0.84375-1.0312 0.19302-0.20043 0.38934-0.38184 0.59375-0.5625zm43.781 0.21875-0.625 3.9375c0.31349 1.0438 1.2077 1.3934 2.6875 1.4375l1.375-3.25c-1.6386 0.28236-2.9492-0.92839-3.4375-2.125zm-65.313 0.25c0.97207 0.61286 1.9377 1.2341 2.9062 1.8438-0.11374 1.0366-0.15648 2.0612-0.125 3.0937-0.80374-0.5264-1.6032-1.0591-2.4062-1.5938-0.31236-1.1157-0.41272-2.2424-0.375-3.3437zm34.313 0.03125c0.044935 0.42497 0.15868 0.84181 0.40625 1.1562l-0.375 0.15625-0.375-1.1875 0.34375-0.125zm-28.031 0.3125c1.5938 0.94486 3.1979 1.8708 4.8125 2.7812-0.33628 1.0106-0.57235 2.0124-0.71875 3.0312-1.5563-0.86511-3.0952-1.7748-4.625-2.7188 0.11149-1.0587 0.2843-2.0926 0.53125-3.0937zm37.156 0.40625-5.25 3.75 0.0625 2.25h1l-0.1875-1.5625 2.1875 0.0625 0.125 1.3125 1-0.0625-0.125-1.5 4.5625-2.4375 0.125 1.625 0.875-0.125-0.125-2.875-4.25-0.4375zm57.719 0.28125 1.0625 0.21875c0.05862 1.4508 0.06961 3.0224-0.0625 4.7812l-0.96875 0.34375c0.06616-1.5537 0.08551-3.421-0.03125-5.3437zm-65.469 0.25 0.03125 1.0938-0.96875 0.40625-0.375-1.25 0.5-0.1875c0.057718 0.057365 0.12244 0.10814 0.1875 0.15625l0.625-0.21875zm67.813 0 0.03125 4.25-0.59375 0.21875c0.11402-1.6042 0.12111-3.0476 0.09375-4.4062l0.46875-0.0625zm-52.563 0.03125 4.4688 3.1875-0.375 5.125-5.1562-3.7812 0.15625-0.75 0.875-0.3125-0.125-2.7812 0.15625-0.6875zm-31 0.03125c0.063067 0.066322 0.13581 0.13833 0.1875 0.1875-1.0572 1.4246-1.8038 3.0923-2.3125 4.8125l-0.375-0.15625c0.57872-1.7198 1.4301-3.3718 2.5-4.8437zm54.844 0.3125-0.375 0.0625c-0.74788 0.56562-0.099214 0.89848 0.0625 1.3125l0.3125-0.0625c-0.21043-0.64793-0.11707-0.99207 0-1.3125zm-59.562 0.34375 2.7812 1.5937c-0.42064 0.76822-0.82547 1.5601-1.125 2.375h-0.03125c-0.92346-0.46041-1.8542-0.94259-2.7812-1.4375 0.31879-0.87357 0.71167-1.7216 1.1562-2.5312zm53.719 0.0625-0.5625 0.9375c1.0088-0.59488 1.1517 0.39494 1.2812 0.46875-0.39566 0.80689-0.85218 0.53712-1.4688 0.65625l-0.5 0.875c1.398 0.53382 2.0322-0.0989 2.875-1.0938 0.37129-1.5216-0.30514-1.7414-1.625-1.8437zm-7.7812 0.25-0.03125 0.875 3.9375 2.6875-9.2812 3.6562 0.28125-5.25 5.0938-1.9687zm-25.438 0.28125 0.03125 1.0312-0.65625 0.28125-0.28125-0.96875 0.90625-0.34375zm-35.281 0.9375c0.7945 0.52247 1.587 1.0452 2.375 1.5625 0.025594 0.70141 0.050027 1.3985 0.125 2.0938-0.79915-0.51982-1.4387-1.0877-1.9062-2.0938-0.24406-0.51978-0.43751-1.0402-0.59375-1.5625zm5.2812 0.0625c1.5347 0.94532 3.077 1.8715 4.625 2.75-0.13908 1.0413-0.1701 2.0863-0.15625 3.125-1.5507-0.86959-3.1009-1.7876-4.625-2.75-0.010897-1.0724 0.054812-2.1009 0.15625-3.125zm30.031 0.28125 0.03125 1.3438-0.25 0.09375-0.375-1.2188 0.59375-0.21875zm-21.75 0.84375c0.92458 0.50206 1.8451 1.0151 2.7812 1.5-0.3208 0.91749-0.54345 1.8592-0.6875 2.8125-0.96806-0.42997-1.9256-0.89131-2.875-1.375 0.17863-1.0275 0.4489-1.9947 0.78125-2.9375zm60.312 0.21875 0.03125 1.9375-0.09375 0.03125 0.0625-1.9688zm6.0312 0.125c-0.32676 1.4784-0.5411 2.9933-0.625 4.5312l-5.625 2.0938 0.125-4.25 6.125-2.375zm-30.719 0.1875-0.0625 0.34375-0.3125-0.21875 0.375-0.125zm-13.844 0.15625v0.8125l-0.21875-0.71875 0.21875-0.09375zm13.281 0.0625 5.9688 4.3438-0.34375 4.375-8.375-6.0312-0.53125-1.5 3.2812-1.1875zm16.25 0.5625 4.0625 2.75-7.4062 2.8438 0.03125-4.2812h-0.125l3.4375-1.3125zm-47.969 0.375 0.40625 0.125c-0.25986 0.91753-0.45802 1.8256-0.5625 2.75l-0.46875-0.09375c0.11186-0.9473 0.33236-1.8673 0.625-2.7812zm28.031 0.40625 4.4688 13.062-5.7812-4.5312-2.3438-7.1875 3.6562-1.3438zm-39.813 0.0625c1.5305 0.97901 3.0742 1.9211 4.625 2.8125 0.017911 0.8116 0.070255 1.6338 0.15625 2.4375-1.5578-0.8557-3.0991-1.7523-4.625-2.6875-0.0735-0.86502-0.14379-1.724-0.15625-2.5625zm56.125 0.53125-0.03125 4.3438-6.125 2.375 0.21875-4.4062 5.9375-2.3125zm-48.5 0.46875c0.94492 0.4945 1.8849 0.9888 2.8438 1.4375h0.03125c-0.13372 1.0192-0.16043 2.0308-0.0625 3.0625-1.0287-0.44538-2.0556-0.90006-3.0625-1.4062 0.011382-1.0762 0.089883-2.1052 0.25-3.0938zm28.156 0.40625 0.125 0.34375-4.4062 1.875-0.15625-0.59375 4.4375-1.625zm5.2188 0.53125 2 1.4688-0.59375 2.625-1.4062-4.0938zm-5.0312 0.0625 0.34375 1-4.4062 1.875-0.34375-1.0938 4.4062-1.7812zm28.344 0.25 3.9375 2.6875-4.5312 1.6875-0.09375-4.0938 0.6875-0.28125zm-53.156 0.25 0.4375 0.0625c-0.10147 0.97899-0.10461 1.9504-0.03125 2.875l-0.375 0.0625c-0.12844-1.003-0.13541-2.0054-0.03125-3zm-11 0.1875c1.5306 0.9205 3.0671 1.8105 4.625 2.6875 0.034987 0.31591 0.081872 0.6234 0.125 0.9375-1.6629-1.1018-3.2055-2.2831-4.7188-3.5l-0.03125-0.125zm63.094 0-0.03125 4.125-13.5 5.0312 0.21875-3.9688 13.312-5.1875zm10.906 0.4375c-0.050521 1.2395-0.04202 2.4944 0.0625 3.75l-4.2812 1.5312-0.09375-3.7188 4.3125-1.5625zm-43.219 0.0625 4.0938 13.844-0.59375-0.25-4.0312-13.406 0.53125-0.1875zm5.4688 0.0625 0.25 0.78125-4.4688 1.875-0.25-0.90625 0.03125 0.03125 4.4375-1.7812zm6.9688 0.4375 5.7188 4.125-0.28125 3.9375-5.875-4.125-0.3125-0.9375 0.75-3zm-6.6562 0.59375h0.03125l0.25 0.875-4.4688 1.9062-0.28125-0.96875 4.4688-1.8125zm-29.344 0.0625c1.0201 0.52914 2.0462 1.0366 3.0938 1.5 0.10998 0.90606 0.31293 1.8246 0.625 2.7188-1.1972-0.6146-2.4012-1.2153-3.5938-1.8438-0.07764-0.81062-0.12453-1.6122-0.125-2.375zm62.094 0.5 0.09375 3.6875-12.562 4.5-0.03125-3.625 12.5-4.5625zm-32.375 0.59375 0.375 1.0938-4.5 1.9062-0.375-1.1875 4.5-1.8125zm-25.531 0.21875c0.11149 1.1751 0.41414 2.254 0.8125 3.2188l-0.21875 0.03125c-0.090078-0.17178-0.1672-0.34021-0.25-0.53125-0.33877-0.87402-0.55776-1.767-0.6875-2.6562l0.34375-0.0625zm11.375 0.5 0.25 0.9375c-3.6336 3.0292-6.0444 4.147-8.125 4.3125-0.15542-0.04041-0.31802-0.09672-0.46875-0.15625 4.4798-0.84329 6.8656-2.817 8.3438-5.0938zm14.625 0.65625 0.3125 1-4.5312 1.9062-0.34375-1.0938 4.5625-1.8125zm-30.062 0.0625c1.2592 0.6986 2.5232 1.3936 3.7812 2.0938 0.20012 0.39626 0.42224 0.76245 0.6875 1.0938-1.5481-0.62466-2.9802-1.3584-4.3438-2.125-0.051076-0.36436-0.08898-0.70771-0.125-1.0625zm15.594 0.53125c-0.2723 0.33936-0.55241 0.66623-0.84375 0.96875l-0.15625-0.09375c0.32165-0.27039 0.66682-0.56213 1-0.875zm14.875 0.65625 0.1875 0.59375-4.5625 1.9062-0.21875-0.71875 0.0625 0.03125 4.5312-1.8125zm5.1562 0.0625 3.9062 2.75-0.25-0.09375-0.46875 3.2188-1.5-1.0312-1.6875-4.8438zm-21.156 0.25 0.15625 0.125c-0.29261 0.29676-0.5877 0.57755-0.90625 0.84375l-0.25-0.1875c0.33003-0.23836 0.65808-0.49827 1-0.78125zm16.438 0.6875 5.7188 4.4375-8.625 3.3438-1.7812-5.9062 4.6875-1.875zm-25.969 0.03125c0.16499 0.37184 0.3574 0.70297 0.5625 1.0312-0.25643-0.28693-0.49859-0.61279-0.71875-1l0.15625-0.03125zm8.4062 0.15625 0.21875 0.1875c-0.39225 0.31831-0.80099 0.61732-1.2188 0.875l-0.34375-0.21875c0.43663-0.2461 0.88715-0.52041 1.3438-0.84375zm35.938 0.25-0.1875 3.6875-7.0938 2.5312 0.1875-3.625 7.0938-2.5938zm-37.406 0.65625 0.3125 0.25c-0.41166 0.24426-0.82737 0.48604-1.25 0.65625l-0.4375-0.25c0.44401-0.17919 0.91238-0.4016 1.375-0.65625zm-1.5 0.71875 0.3125 0.25c-0.41925 0.15268-0.8339 0.24867-1.25 0.3125l-0.3125-0.1875c0.40607-0.10665 0.83084-0.21144 1.25-0.375zm29.469 0.21875 1.4375 1.0312-0.25 3.4062-1.6875-1.1562 0.5-3.2812zm-30.875 0.1875h0.03125l0.21875 0.21875c-0.39269 0.04414-0.77838 0.04966-1.1562 0 0.30201-0.04879 0.59853-0.14264 0.90625-0.21875z" fill-rule="evenodd"/>
 </g>
</svg>
