<?xml version="1.0" encoding="UTF-8"?>
<!-- Created with Inkscape (http://www.inkscape.org/) -->
<svg id="svg2" width="128" height="128" version="1.0" xmlns="http://www.w3.org/2000/svg" xmlns:cc="http://creativecommons.org/ns#" xmlns:dc="http://purl.org/dc/elements/1.1/" xmlns:rdf="http://www.w3.org/1999/02/22-rdf-syntax-ns#" xmlns:xlink="http://www.w3.org/1999/xlink">
 <defs id="defs4">
  <linearGradient id="linearGradient2338">
   <stop id="stop2340" stop-color="#b1b1b1" offset="0"/>
   <stop id="stop2342" stop-color="#e4e4e4" offset="1"/>
  </linearGradient>
  <linearGradient id="linearGradient2320">
   <stop id="stop2322" stop-color="#6a3c1d" offset="0"/>
   <stop id="stop2324" stop-color="#8f5127" offset="1"/>
  </linearGradient>
  <linearGradient id="linearGradient3415">
   <stop id="stop3417" stop-color="#1a1a1a" offset="0"/>
   <stop id="stop3419" stop-color="#2b2b2b" offset="1"/>
  </linearGradient>
  <linearGradient id="linearGradient3819" x1="29.484" x2="50.25" y1="68.344" y2="95.381" gradientUnits="userSpaceOnUse" xlink:href="#linearGradient2338"/>
  <linearGradient id="linearGradient3823" x1="69.875" x2="99.125" y1="91.375" y2="55.125" gradientUnits="userSpaceOnUse" xlink:href="#linearGradient2338"/>
  <linearGradient id="linearGradient3827" x1="59.844" x2="65.662" y1="61.229" y2="24.562" gradientUnits="userSpaceOnUse" xlink:href="#linearGradient2338"/>
  <linearGradient id="linearGradient3049">
   <stop id="stop3051" stop-color="#cfc7a9" offset="0"/>
   <stop id="stop3053" stop-color="#eeebe0" offset="1"/>
  </linearGradient>
  <linearGradient id="linearGradient4169" x1="58.999" x2="67.197" y1="105.48" y2="96.003" gradientUnits="userSpaceOnUse" xlink:href="#linearGradient3049"/>
  <linearGradient id="linearGradient4173" x1="50.094" x2="58.049" y1="95.539" y2="105.33" gradientUnits="userSpaceOnUse" xlink:href="#linearGradient3049"/>
  <linearGradient id="linearGradient4177" x1="20.462" x2="28.616" y1="70.194" y2="83.298" gradientUnits="userSpaceOnUse" xlink:href="#linearGradient3049"/>
  <linearGradient id="linearGradient4183" x1="97.293" x2="101.49" y1="59.808" y2="57.267" gradientUnits="userSpaceOnUse" xlink:href="#linearGradient3049"/>
  <linearGradient id="linearGradient4187" x1="77.75" x2="87.312" y1="96" y2="76.875" gradientUnits="userSpaceOnUse" xlink:href="#linearGradient2320"/>
  <linearGradient id="linearGradient4191" x1="80.875" x2="81.25" y1="80.75" y2="82.562" gradientUnits="userSpaceOnUse" xlink:href="#linearGradient2320"/>
  <linearGradient id="linearGradient4195" x1="81.125" x2="81.5" y1="90.688" y2="92.25" gradientUnits="userSpaceOnUse" xlink:href="#linearGradient2320"/>
  <linearGradient id="linearGradient4199" x1="86.688" x2="88.062" y1="79.812" y2="79.75" gradientUnits="userSpaceOnUse" xlink:href="#linearGradient2338"/>
  <linearGradient id="linearGradient4203" x1="87.477" x2="87.656" y1="85.203" y2="82.703" gradientUnits="userSpaceOnUse" xlink:href="#linearGradient3415"/>
  <linearGradient id="linearGradient4207" x1="86.156" x2="86.203" y1="84.078" y2="84.344" gradientUnits="userSpaceOnUse" xlink:href="#linearGradient3415"/>
  <linearGradient id="linearGradient4211" x1="88.094" x2="88.281" y1="83.203" y2="83.516" gradientUnits="userSpaceOnUse" xlink:href="#linearGradient3415"/>
  <linearGradient id="linearGradient4215" x1="84.844" x2="85.156" y1="84.5" y2="82.891" gradientUnits="userSpaceOnUse" xlink:href="#linearGradient3415"/>
  <linearGradient id="linearGradient4219" x1="88.961" x2="89.859" y1="83.547" y2="81.828" gradientUnits="userSpaceOnUse" xlink:href="#linearGradient3415"/>
  <linearGradient id="linearGradient3098">
   <stop id="stop3100" stop-color="#9e2612" offset="0"/>
   <stop id="stop3102" stop-color="#bd5032" offset="1"/>
  </linearGradient>
  <linearGradient id="linearGradient2404">
   <stop id="stop2406" stop-color="#b49900" offset="0"/>
   <stop id="stop2412" stop-color="#ffda0a" offset=".5"/>
   <stop id="stop2408" stop-color="#c6a800" offset="1"/>
  </linearGradient>
  <linearGradient id="linearGradient4561" x1="87.852" x2="90.154" y1="85.411" y2="83.811" gradientUnits="userSpaceOnUse" xlink:href="#linearGradient2404"/>
  <linearGradient id="linearGradient4565" x1="92.404" x2="88.973" y1="85.164" y2="87.375" gradientUnits="userSpaceOnUse" xlink:href="#linearGradient2404"/>
  <linearGradient id="linearGradient4569" x1="31.577" x2="25.473" y1="60.59" y2="60.59" gradientUnits="userSpaceOnUse" xlink:href="#linearGradient2338"/>
  <linearGradient id="linearGradient4573" x1="36.015" x2="33.207" y1="69.083" y2="71.559" gradientUnits="userSpaceOnUse" xlink:href="#linearGradient2338"/>
  <linearGradient id="linearGradient4577" x1="33.276" x2="34.079" y1="62.271" y2="62.271" gradientUnits="userSpaceOnUse" xlink:href="#linearGradient3415"/>
  <linearGradient id="linearGradient4581" x1="33.276" x2="34.079" y1="62.271" y2="62.271" gradientTransform="translate(4.164 2.703)" gradientUnits="userSpaceOnUse" xlink:href="#linearGradient3415"/>
  <linearGradient id="linearGradient4838" x1="35.339" x2="41.269" y1="59.177" y2="72.589" gradientUnits="userSpaceOnUse">
   <stop id="stop4694" stop-color="#4f3e2a" offset="0"/>
   <stop id="stop4696" stop-color="#72593c" offset="1"/>
  </linearGradient>
  <linearGradient id="linearGradient4842" x1="56.656" x2="60.844" y1="107.41" y2="104.3" gradientUnits="userSpaceOnUse" xlink:href="#linearGradient3098"/>
  <linearGradient id="linearGradient4846" x1="56.656" x2="60.844" y1="107.41" y2="104.3" gradientTransform="translate(5.3696 -1.9003)" gradientUnits="userSpaceOnUse" xlink:href="#linearGradient3098"/>
  <linearGradient id="linearGradient4850" x1="56.656" x2="60.844" y1="107.41" y2="104.3" gradientTransform="translate(10.713 -3.8066)" gradientUnits="userSpaceOnUse" xlink:href="#linearGradient3098"/>
  <linearGradient id="linearGradient4854" x1="56.656" x2="60.844" y1="107.41" y2="104.3" gradientTransform="translate(15.87 -5.4628)" gradientUnits="userSpaceOnUse" xlink:href="#linearGradient3098"/>
  <linearGradient id="linearGradient4858" x1="57.594" x2="61.812" y1="106.75" y2="103.77" gradientTransform="translate(-3.0312 -1.8438)" gradientUnits="userSpaceOnUse" xlink:href="#linearGradient3098"/>
  <linearGradient id="linearGradient4862" x1="57.594" x2="61.812" y1="106.75" y2="103.77" gradientTransform="translate(-3.0938 -7.8125)" gradientUnits="userSpaceOnUse" xlink:href="#linearGradient3098"/>
  <linearGradient id="linearGradient4866" x1="57.594" x2="61.812" y1="106.75" y2="103.77" gradientTransform="translate(-3.0625 -13.812)" gradientUnits="userSpaceOnUse" xlink:href="#linearGradient3098"/>
  <linearGradient id="linearGradient4870" x1="56.656" x2="60.844" y1="107.41" y2="104.3" gradientTransform="translate(2.4375 -3.7812)" gradientUnits="userSpaceOnUse" xlink:href="#linearGradient3098"/>
  <linearGradient id="linearGradient4874" x1="56.656" x2="60.844" y1="107.41" y2="104.3" gradientTransform="translate(0,-5.9375)" gradientUnits="userSpaceOnUse" xlink:href="#linearGradient3098"/>
  <linearGradient id="linearGradient4878" x1="56.656" x2="60.844" y1="107.41" y2="104.3" gradientTransform="translate(7.75 -5.6562)" gradientUnits="userSpaceOnUse" xlink:href="#linearGradient3098"/>
  <linearGradient id="linearGradient4882" x1="56.656" x2="60.844" y1="107.41" y2="104.3" gradientTransform="translate(5.4375 -7.8438)" gradientUnits="userSpaceOnUse" xlink:href="#linearGradient3098"/>
  <linearGradient id="linearGradient4886" x1="56.656" x2="60.844" y1="107.41" y2="104.3" gradientTransform="translate(2.1875,-9.6875)" gradientUnits="userSpaceOnUse" xlink:href="#linearGradient3098"/>
  <linearGradient id="linearGradient4890" x1="56.656" x2="60.844" y1="107.41" y2="104.3" gradientTransform="translate(.03125 -11.812)" gradientUnits="userSpaceOnUse" xlink:href="#linearGradient3098"/>
  <linearGradient id="linearGradient4894" x1="56.656" x2="60.844" y1="107.41" y2="104.3" gradientTransform="translate(2.1875 -15.594)" gradientUnits="userSpaceOnUse" xlink:href="#linearGradient3098"/>
  <linearGradient id="linearGradient4898" x1="56.656" x2="60.844" y1="107.41" y2="104.3" gradientTransform="translate(5.375,-13.75)" gradientUnits="userSpaceOnUse" xlink:href="#linearGradient3098"/>
  <linearGradient id="linearGradient4904" x1="57.594" x2="61.812" y1="106.75" y2="103.77" gradientTransform="translate(37.571 -42.294)" gradientUnits="userSpaceOnUse" xlink:href="#linearGradient3098"/>
  <linearGradient id="linearGradient4906" x1="56.656" x2="60.844" y1="107.41" y2="104.3" gradientTransform="translate(37.321 -45.125)" gradientUnits="userSpaceOnUse" xlink:href="#linearGradient3098"/>
  <linearGradient id="linearGradient4916" x1="56.656" x2="60.844" y1="107.41" y2="104.3" gradientTransform="translate(37.321 -51.091)" gradientUnits="userSpaceOnUse" xlink:href="#linearGradient3098"/>
  <linearGradient id="linearGradient4920" x1="56.656" x2="60.844" y1="107.41" y2="104.3" gradientTransform="translate(35.219 -47.426)" gradientUnits="userSpaceOnUse" xlink:href="#linearGradient3098"/>
  <linearGradient id="linearGradient4924" x1="56.656" x2="60.844" y1="107.41" y2="104.3" gradientTransform="translate(31.98 -43.193)" gradientUnits="userSpaceOnUse" xlink:href="#linearGradient3098"/>
  <linearGradient id="linearGradient4928" x1="56.656" x2="60.844" y1="107.41" y2="104.3" gradientTransform="translate(34.878 -41.261)" gradientUnits="userSpaceOnUse" xlink:href="#linearGradient3098"/>
  <linearGradient id="linearGradient4932" x1="56.656" x2="60.844" y1="107.41" y2="104.3" gradientTransform="translate(37.35 -39.216)" gradientUnits="userSpaceOnUse" xlink:href="#linearGradient3098"/>
  <linearGradient id="linearGradient4936" x1="57.594" x2="61.812" y1="106.75" y2="103.77" gradientTransform="translate(37.855 -48.345)" gradientUnits="userSpaceOnUse" xlink:href="#linearGradient3098"/>
  <linearGradient id="linearGradient4940" x1="56.877" x2="62.079" y1="100.98" y2="105.32" gradientTransform="matrix(1 1.012 0 1 -5.3377 -61.573)" gradientUnits="userSpaceOnUse" xlink:href="#linearGradient3098"/>
  <linearGradient id="linearGradient4944" x1="59.547" x2="62.861" y1="103.48" y2="106.98" gradientTransform="translate(-5.468 -3.5843)" gradientUnits="userSpaceOnUse" xlink:href="#linearGradient3098"/>
  <linearGradient id="linearGradient4948" x1="59.547" x2="62.861" y1="103.48" y2="106.98" gradientTransform="translate(-5.5501 -9.4919)" gradientUnits="userSpaceOnUse" xlink:href="#linearGradient3098"/>
  <linearGradient id="linearGradient4952" x1="59.547" x2="62.861" y1="103.48" y2="106.98" gradientTransform="translate(-5.4954 -15.29)" gradientUnits="userSpaceOnUse" xlink:href="#linearGradient3098"/>
  <linearGradient id="linearGradient4956" x1="56.877" x2="62.079" y1="100.98" y2="105.32" gradientTransform="matrix(1 1.012 0 1 -10.589 -65.265)" gradientUnits="userSpaceOnUse" xlink:href="#linearGradient3098"/>
  <linearGradient id="linearGradient4960" x1="56.877" x2="62.079" y1="100.98" y2="105.32" gradientTransform="matrix(1 1.012 0 1 -15.895 -68.902)" gradientUnits="userSpaceOnUse" xlink:href="#linearGradient3098"/>
  <linearGradient id="linearGradient4964" x1="56.877" x2="62.079" y1="100.98" y2="105.32" gradientTransform="matrix(1 1.012 0 1 -13.242 -69.996)" gradientUnits="userSpaceOnUse" xlink:href="#linearGradient3098"/>
  <linearGradient id="linearGradient4968" x1="56.877" x2="62.079" y1="100.98" y2="105.32" gradientTransform="matrix(1 1.012 0 1 -7.9906 -66.413)" gradientUnits="userSpaceOnUse" xlink:href="#linearGradient3098"/>
  <linearGradient id="linearGradient4972" x1="56.877" x2="62.079" y1="100.98" y2="105.32" gradientTransform="matrix(1 1.012 0 1 -5.6112 -67.754)" gradientUnits="userSpaceOnUse" xlink:href="#linearGradient3098"/>
  <linearGradient id="linearGradient4976" x1="56.877" x2="62.079" y1="100.98" y2="105.32" gradientTransform="matrix(1 1.012 0 1 -10.835 -71.309)" gradientUnits="userSpaceOnUse" xlink:href="#linearGradient3098"/>
  <linearGradient id="linearGradient4980" x1="56.877" x2="62.079" y1="100.98" y2="105.32" gradientTransform="matrix(1 1.012 0 1 -7.7718 -72.157)" gradientUnits="userSpaceOnUse" xlink:href="#linearGradient3098"/>
  <linearGradient id="linearGradient4984" x1="56.877" x2="62.079" y1="100.98" y2="105.32" gradientTransform="matrix(1 1.012 0 1 -5.7753 -73.716)" gradientUnits="userSpaceOnUse" xlink:href="#linearGradient3098"/>
  <linearGradient id="linearGradient4988" x1="56.877" x2="62.079" y1="100.98" y2="105.32" gradientTransform="matrix(1 1.012 0 1 -7.6624 -77.955)" gradientUnits="userSpaceOnUse" xlink:href="#linearGradient3098"/>
  <linearGradient id="linearGradient4994" x1="56.877" x2="62.079" y1="100.98" y2="105.32" gradientTransform="matrix(1 1.012 0 1 -37.214 -83.678)" gradientUnits="userSpaceOnUse" xlink:href="#linearGradient3098"/>
  <linearGradient id="linearGradient4996" x1="59.547" x2="62.861" y1="103.48" y2="106.98" gradientTransform="translate(-40.439 -27.715)" gradientUnits="userSpaceOnUse" xlink:href="#linearGradient3098"/>
  <linearGradient id="linearGradient5000" x1="59.547" x2="62.861" y1="103.48" y2="106.98" gradientTransform="translate(-40.439 -33.666)" gradientUnits="userSpaceOnUse" xlink:href="#linearGradient3098"/>
  <linearGradient id="linearGradient5004" x1="56.877" x2="62.079" y1="100.98" y2="105.32" gradientTransform="matrix(1 1.012 0 1 -31.893 -80.12)" gradientUnits="userSpaceOnUse" xlink:href="#linearGradient3098"/>
  <linearGradient id="linearGradient5008" x1="56.877" x2="62.079" y1="100.98" y2="105.32" gradientTransform="matrix(1 1.012 0 1 -34.38 -84.685)" gradientUnits="userSpaceOnUse" xlink:href="#linearGradient3098"/>
  <linearGradient id="linearGradient5012" x1="56.877" x2="62.079" y1="100.98" y2="105.32" gradientTransform="matrix(1 1.012 0 1 -37.308 -89.629)" gradientUnits="userSpaceOnUse" xlink:href="#linearGradient3098"/>
  <linearGradient id="linearGradient5016" x1="56.877" x2="62.079" y1="100.98" y2="105.32" gradientTransform="matrix(1 1.012 0 1 -31.924 -85.976)" gradientUnits="userSpaceOnUse" xlink:href="#linearGradient3098"/>
  <linearGradient id="linearGradient5020" x1="56.877" x2="62.079" y1="100.98" y2="105.32" gradientTransform="matrix(1 1.012 0 1 -37.245 -95.58)" gradientUnits="userSpaceOnUse" xlink:href="#linearGradient3098"/>
  <linearGradient id="linearGradient5024" x1="56.877" x2="62.079" y1="100.98" y2="105.32" gradientTransform="matrix(1 1.012 0 1 -34.065 -90.447)" gradientUnits="userSpaceOnUse" xlink:href="#linearGradient3098"/>
  <filter id="filter3081">
   <feGaussianBlur id="feGaussianBlur3083" stdDeviation="1.8119611"/>
  </filter>
 </defs>
 <metadata id="metadata7">
  <rdf:RDF>
   <cc:Work rdf:about="">
    <dc:format>image/svg+xml</dc:format>
    <dc:type rdf:resource="http://purl.org/dc/dcmitype/StillImage"/>
   </cc:Work>
  </rdf:RDF>
 </metadata>
 <g id="layer2" fill-rule="evenodd">
  <path id="path5040" d="m50.912 102.9-32.88-20.506-10.96-22.981 39.244-16.617 45.608 31.82-41.012 28.284z" fill-opacity=".51584" filter="url(#filter3081)"/>
  <path id="path4171" d="m57.408 88.689v3.5576l-0.044194 3.182 0.044194 6.5186 0.044194 5.3033-15.799-10.585 1.3037-1.5247 2.3423-1.2595 5.0602 0.066291 2.2981-2.3865 4.3531-2.8063 0.39775-0.066292z" fill="url(#linearGradient4173)"/>
  <path id="path4938" d="m52.35 100.87 4.9992 3.445 0.05059 2.641-5.0654-3.3831 0.015625-2.7029z" fill="url(#linearGradient4940)"/>
  <path id="path4175" d="m20.263 67.078-0.066292 2.4307-0.17678 0.044194-0.066291 2.6958 0.28726 0.30936v3.0494h-0.26516v2.7179l0.26516 0.15468v3.1599l6.9385 4.8393-0.86179-4.3752 0.50823-2.5412-2.5191-3.2704-0.68501-6.0988-3.3588-3.1157z" fill="url(#linearGradient4177)"/>
  <path id="path4836" d="m32.146 55.345-0.060825 10.736 8.8196 5.9608 0.15206-10.766-8.9108-5.9304z" fill="url(#linearGradient4838)"/>
  <path id="path5028" d="m32.146 55.345-0.060825 10.736 8.8196 5.9608 0.15206-10.766-8.9108-5.9304z" fill-opacity=".15686"/>
  <path id="path3079" d="m19.406 39.75 0.1875 27.125 0.6875 0.09375 3.3125 3.4375 0.6875 5.6875 2.375 3.4062-0.40625 2.5625 0.96875 4.5 14.5 10.375 1.0938-1.6562 1.375-0.78125 1.1672-0.57346 5.1765 0.073458 1.6875-2.0625 5.0938-3.5v-23.625l-37.906-25.062zm10.656 14 11.094 8.0312v12.625l-11-6.9375-0.09375-13.719z" fill="url(#linearGradient3819)"/>
  <path id="path3821" d="m57.364 64.802-0.088389 24.042 5.3033 2.3865 1.9445 3.2704 3.8007 2.1213 1.149 3.0052 3.8007-0.26516 1.8562 0.44194v-21.92l12.993-5.3033-0.17678 23.953 12.551-4.5078 0.35355-26.87-2.3865-1.5026-4.773-0.7955-0.26516-0.70711-0.088389-2.2097 3.182-2.2981 1.149-3.9775 3.182-2.1213-0.44194-1.7678-43.045 15.026z" fill="url(#linearGradient3823)"/>
  <path id="path4217" d="m88.078 81.688c0.15625-0.046875 1.7812-0.53125 1.7812-0.53125l-0.0625 2.9688-1.7344 0.17188 0.015625-2.6094z" fill="url(#linearGradient4219)"/>
  <path id="path3825" d="m42.25 31.375-22.625 8.25 37.75 25.25 43.25-15.125-4.625-3.25-0.75 0.125-0.62022-0.76487-0.81728-0.48513-0.4375-0.75-29-19.375h-1.125l-1.125-0.6875-15.375 5.3125-0.1875 0.875-3.6875 1.375-0.625-0.75z" fill="url(#linearGradient3827)"/>
  <path id="path4167" d="m57.298 88.689 0.066291 0.7955 0.022097 5.922-0.088388 2.8063 0.13258 3.1157-0.044194 5.8557 17.7-6.0104s0.13258-1.2374-0.088389-1.3258c-0.22097-0.088388-1.591-0.53033-1.591-0.53033l-3.867 0.35355-1.2374-3.0494-3.8228-2.2097-1.9224-3.2704-5.2591-2.4528z" fill="url(#linearGradient4169)"/>
  <path id="path4990" d="m20.474 78.763 4.9102 3.445 0.028325 2.641-4.9541-3.3831 0.015625-2.7029z" fill="url(#linearGradient4994)"/>
  <path id="path4181" d="m100.36 51.853v2.0771l0.19887 0.19887 0.0221 2.5854-0.28726 0.44194 0.08839 2.7621 0.26516 0.24307-0.04419 2.497-0.28727 0.50823 0.08839 1.812-1.9003-1.2374-4.9718-0.92808-0.22097-3.0052 3.1599-2.2097 1.1711-4.1322 2.7179-1.6131z" fill="url(#linearGradient4183)"/>
  <path id="path4185" d="m75.312 99.375 1.9375-0.5 0.25-0.4375 2.375-0.875 0.375 0.1875 1.9375-0.875 0.25-0.3125 1.6875-0.625h0.4375l1.75-0.75 0.0625-5.9375-1.3125-3.125 1.3125-0.9375-0.3125-0.5625h-0.5625l-0.5-0.5 0.1875-0.375 0.5625 0.0625 0.25-0.75 0.25-0.6875 0.125-9.25-11.375 4.625 0.3125 21.625z" fill="url(#linearGradient4187)"/>
  <path id="path4213" d="m86.234 82.156-1.5938 0.60938-0.015625 2.875 1.5781-0.5625 0.03125-2.9219z" fill="url(#linearGradient4215)"/>
  <path id="path4189" d="m75.25 81.75 10.438-3.5625 0.0625 2.9375-10.688 4.375 0.1875-3.75z" fill="url(#linearGradient4191)"/>
  <path id="path4193" d="m75.25 91.75 10.25-3.625 0.125 3-10.312 4.0625-0.0625-3.4375z" fill="url(#linearGradient4195)"/>
  <path id="path4197" d="m86.125 73.375 0.125 21.875 1.625 1.375 0.1875-24.125-1.9375 0.875z" fill="url(#linearGradient4199)"/>
  <path id="path5038" d="m86.125 73.375 0.125 21.875 1.625 1.375 0.1875-24.125-1.9375 0.875z" fill-opacity=".15686"/>
  <path id="path4201" d="m86.562 85.578-0.85938-1.75 0.26562-0.90625 0.90625-0.6875s1.2969 0.4375 1.2969 0.5 1.0781 1.7812 1.0781 1.7812l-0.20312 0.40625h-0.375l-0.8125-1.7344-0.85938-0.17188-0.4375 0.28125-0.28125 0.54688 0.8125 1.5469-0.1875 0.3125-0.34375-0.125z" fill="url(#linearGradient4203)"/>
  <path id="path4205" d="m85.172 83.703s0.5 0.10938 0.65625 0.17188 0.96875-0.0625 0.96875-0.0625l0.1875 0.25-0.078125 0.35938-0.60938 0.17188-0.76562 0.0625s-0.42188-0.26562-0.45312-0.35938 0.015625-0.5625 0.09375-0.59375z" fill="url(#linearGradient4207)"/>
  <path id="path4209" d="m87.453 83.484 0.45312-0.25 0.59375-0.46875 0.26562-0.42188 0.34375 0.26562-0.078125 0.375-0.35938 0.67188-0.42188 0.32812-0.59375-0.046875-0.20312-0.45312z" fill="url(#linearGradient4211)"/>
  <path id="path4221" d="m85.234 86 1.125-0.71875 0.20312 0.42188 0.48438-0.0625 0.15625-0.23438-0.17188-0.29688 1.3281-0.64062 0.23438 0.35938 0.3125 0.125s0.42188-0.25 0.39062-0.3125-0.17188-0.45312-0.17188-0.45312l0.98438-0.078125 0.64062 0.39062-0.17188 0.29688-4.6298 1.6832-0.71395-0.48005z" fill="url(#linearGradient4561)"/>
  <path id="path4563" d="m85.133 86.219 1.0034 0.27631 4.6246-1.6724-0.15997 3.9847-2.5159 1.0325-0.58171 0.087256s-0.88711-0.36357-0.88711-0.42174-1.5124-3.2721-1.4834-3.2867z" fill="url(#linearGradient4565)"/>
  <path id="path4567" d="m30.098 54.071 0.073053 13.04 1.8628-0.98621 0.073053-10.994-2.009-1.0593z" fill="url(#linearGradient4569)"/>
  <path id="path4571" d="m30.353 66.891 1.7533-0.84011 0.76706 0.47484v0.98621l0.36526 0.73053 0.47484 0.18263 0.62095-0.036526 0.47484-0.36526 2.4107 1.4611-0.073053 0.84011 0.58442 0.73053 0.51137 0.073053 0.76706-0.36526 2.0455 1.4245-0.10958 1.6802-0.21916 0.073053-10.337-6.3556-0.036527-0.694z" fill="url(#linearGradient4573)"/>
  <path id="path4575" d="m32.91 56.043v11.579l0.36526 0.58442 0.58442 0.29221 0.76706-0.29221 0.21916-0.51137-0.036527-10.447-1.8994-1.2054z" fill="url(#linearGradient4577)"/>
  <path id="path4579" d="m37.074 58.746v11.579l0.36526 0.58442 0.58442 0.29221 0.76706-0.29221 0.21916-0.51137-0.036527-10.447-1.8994-1.2054z" fill="url(#linearGradient4581)"/>
  <path id="path4840" d="m57.688 104.06 4.9219-1.5938 0.03125 2.6094-4.9688 1.7031 0.015625-2.7188z" fill="url(#linearGradient4842)"/>
  <path id="path4844" d="m63.057 102.16 4.9219-1.5938 0.03125 2.6094-4.9688 1.7031 0.015625-2.7188z" fill="url(#linearGradient4846)"/>
  <path id="path4848" d="m68.401 100.26 2.3012-0.74514 2.652-0.16111v1.9219l-4.9688 1.7031 0.015625-2.7188z" fill="url(#linearGradient4850)"/>
  <path id="path4852" d="m73.588 99.443 1.4219 0.375-0.03125 0.98437-1.4375 0.51563 0.046875-1.875z" fill="url(#linearGradient4854)"/>
  <path id="path4856" d="m57.438 101.34 2.1406-0.71875 0.03125 2.6094-2.25 0.76563 0.078125-2.6562z" fill="url(#linearGradient4858)"/>
  <path id="path4860" d="m57.375 95.375 2.0156-0.65625 0.03125 2.5781-2.125 0.73438 0.078125-2.6562z" fill="url(#linearGradient4862)"/>
  <path id="path4864" d="m57.406 89.375 0.87122-0.29252 1.1757 0.60502v1.6719l-2.125 0.67188 0.078125-2.6562z" fill="url(#linearGradient4866)"/>
  <path id="path4868" d="m60.125 100.28 4.9219-1.5938 0.03125 2.6094-4.9688 1.7031 0.015625-2.7188z" fill="url(#linearGradient4870)"/>
  <path id="path4872" d="m57.688 98.125 4.9219-1.5938 0.03125 2.6094-4.9688 1.7031 0.015625-2.7188z" fill="url(#linearGradient4874)"/>
  <path id="path4876" d="m65.438 98.406 3.2031-1.0312 0.9375 2.3281-4.1562 1.4219 0.015625-2.7188z" fill="url(#linearGradient4878)"/>
  <path id="path4880" d="m63.125 96.219 2.8303-0.91648 2.0916 1.1977 0.03125 0.73437-4.9688 1.7031 0.015625-2.7188z" fill="url(#linearGradient4882)"/>
  <path id="path4884" d="m59.875 94.375 3.9676-1.2848 0.51676 1.2223 0.51123 0.30082-0.042479 0.7773-4.9688 1.7031 0.015625-2.7188z" fill="url(#linearGradient4886)"/>
  <path id="path4888" d="m57.719 92.25 4.2305-1.3699 0.69135 0.30738 0.03125 2.0781-4.9688 1.7031 0.015625-2.7188z" fill="url(#linearGradient4890)"/>
  <path id="path4892" d="m59.812 89.906 1.5781 0.73437-1.5312 0.54688-0.046875-1.2812z" fill="url(#linearGradient4894)"/>
  <path id="path4896" d="m63.094 91.844 0.60938 1.0156-0.65625 0.17188 0.046875-1.1875z" fill="url(#linearGradient4898)"/>
  <path id="path4900" d="m98.04 60.894 2.5318-0.75601-0.00601 2.6094-2.6039 0.80289 0.078125-2.6562z" fill="url(#linearGradient4904)"/>
  <path id="path4902" d="m95.009 58.937 4.9219-1.5938 0.03125 2.6094-4.9688 1.7031 0.015625-2.7188z" fill="url(#linearGradient4906)"/>
  <path id="path4914" d="m97.622 53.511 2.3081-1.5369 0.03125 2.0127-2.7811 1.0213 0.44178-1.4971z" fill="url(#linearGradient4916)"/>
  <path id="path4918" d="m97.054 55.386 0.77394-0.34369 0.03125 2.6094-2.5823 0.85081 1.2876-0.8931 0.48949-2.2234z" fill="url(#linearGradient4920)"/>
  <path id="path4922" d="m94.014 59.307 0.57506-0.03117 0.03125 2.6094-1.1617 0.25419-0.10988-2.2919 0.66531-0.54051z" fill="url(#linearGradient4924)"/>
  <path id="path4926" d="m93.418 62.517 4.0696-1.3096 0.002839 2.3537-3.8323-0.74018-0.24007-0.30385z" fill="url(#linearGradient4928)"/>
  <path id="path4930" d="m98.475 63.767 1.4842-0.51415 0.03125 1.5866-1.5154-1.0724z" fill="url(#linearGradient4932)"/>
  <path id="path4934" d="m98.324 54.842 2.2477-0.69918 0.02241 2.581-2.3482 0.77448 0.078125-2.6562z" fill="url(#linearGradient4936)"/>
  <path id="path4942" d="m54.981 99.681 2.4114 1.6987-0.007428 2.4933-2.4627-1.6131 0.058786-2.5789z" fill="url(#linearGradient4944)"/>
  <path id="path4946" d="m55.173 93.91 2.1926 1.5072-0.062128 2.548-2.0798-1.367-0.050614-2.6883z" fill="url(#linearGradient4948)"/>
  <path id="path4950" d="m56.458 88.987 0.90713 0.49526-0.007428 2.6848-1.9978-1.449 0.032703-0.94443 1.0654-0.78662z" fill="url(#linearGradient4952)"/>
  <path id="path4954" d="m47.099 97.176 4.9992 3.445 0.05059 2.641-5.0654-3.3831 0.015625-2.7029z" fill="url(#linearGradient4956)"/>
  <path id="path4958" d="m43.543 94.796 3.2488 2.187 0.05059 2.641-4.874-3.3011 0.978-1.2186 0.59657-0.30832z" fill="url(#linearGradient4960)"/>
  <path id="path4962" d="m45.321 93.894 1.2475 0.013236 2.8765 1.9823 0.05059 2.641-4.9287-3.4105-0.035553-0.78534 0.78963-0.4407z" fill="url(#linearGradient4964)"/>
  <path id="path4966" d="m49.806 96.109 4.8898 3.363 0.05059 2.641-4.9287-3.4378-0.011725-2.5662z" fill="url(#linearGradient4968)"/>
  <path id="path4970" d="m52.076 94.687 4.9992 3.445 0.05059 2.641-5.0654-3.3831 0.015625-2.7029z" fill="url(#linearGradient4972)"/>
  <path id="path4974" d="m50.299 93.948 0.29462-0.23926 1.2585 0.86726 0.05059 2.641-5.0654-3.3831 3.4617 0.1141z" fill="url(#linearGradient4976)"/>
  <path id="path4978" d="m52.268 91.87 2.6471 1.8588 0.05059 2.641-4.1355-2.8908 1.4378-1.6089z" fill="url(#linearGradient4980)"/>
  <path id="path4982" d="m54.346 90.475 2.5651 1.6947 0.05059 2.641-4.4637-3.0276 1.8481-1.3081z" fill="url(#linearGradient4984)"/>
  <path id="path4986" d="m55.024 89.982 0.05059 0.58975-0.52536-0.31991 0.47477-0.26984z" fill="url(#linearGradient4988)"/>
  <path id="path4992" d="m20.01 75.549 2.9235 2.0104 0.037101 2.6715-3.0193-2.1029 0.058786-2.5789z" fill="url(#linearGradient4996)"/>
  <path id="path4998" d="m20.01 69.598 3.2698 2.2937-0.025873 2.514-3.3027-2.2289 0.058786-2.5789z" fill="url(#linearGradient5000)"/>
  <path id="path5002" d="m25.795 82.321 0.62796 0.51677 0.65806 3.0503-1.3016-0.86416 0.015625-2.7029z" fill="url(#linearGradient5004)"/>
  <path id="path5006" d="m23.308 77.755 3.3358 2.406-0.27749 1.9995 0.053919 0.45254-3.1279-2.1551 0.015625-2.7029z" fill="url(#linearGradient5008)"/>
  <path id="path5010" d="m20.379 72.812 3.9822 2.794-0.016609 0.80853 0.96059 1.3326 0.012344 1.151-4.9541-3.3831 0.015625-2.7029z" fill="url(#linearGradient5012)"/>
  <path id="path5014" d="m25.795 78.259 0.97431 1.241 0.028325 0.31097-1.0497-0.64375 0.047112-0.90819z" fill="url(#linearGradient5016)"/>
  <path id="path5018" d="m20.474 67.302 3.0524 2.9727 0.24873 1.6019-3.3483-2.3126 0.047112-2.2621z" fill="url(#linearGradient5020)"/>
  <path id="path5022" d="m23.622 71.993 0.62796 3.0357-0.64358-0.33278 0.015625-2.7029z" fill="url(#linearGradient5024)"/>
  <path id="path5026" d="m19.406 39.75 0.1875 27.125 0.6875 0.09375 3.3125 3.4375 0.6875 5.6875 2.375 3.4062-0.40625 2.5625 0.96875 4.5 14.5 10.375 1.0938-1.6562 1.375-0.78125 1.1672-0.57346 5.1765 0.073458 1.6875-2.0625 5.0938-3.5v-23.625l-37.906-25.062zm10.656 14 11.094 8.0312v12.625l-11-6.9375-0.09375-13.719z" fill-opacity=".15686"/>
  <path id="path5030" d="m30.098 54.071 0.073053 13.04 1.8628-0.98621 0.073053-10.994-2.009-1.0593z" fill-opacity=".15686"/>
  <path id="path5032" d="m30.353 66.891 1.7533-0.84011 0.76706 0.47484v0.98621l0.36526 0.73053 0.47484 0.18263 0.62095-0.036526 0.47484-0.36526 2.4107 1.4611-0.073053 0.84011 0.58442 0.73053 0.51137 0.073053 0.76706-0.36526 2.0455 1.4245-0.10958 1.6802-0.21916 0.073053-10.337-6.3556-0.036527-0.694z" fill-opacity=".15686"/>
  <path id="path5034" d="m20.263 67.078-0.066292 2.4307-0.17678 0.044194-0.066291 2.6958 0.28726 0.30936v3.0494h-0.26516v2.7179l0.26516 0.15468v3.1599l6.9385 4.8393-0.86179-4.3752 0.50823-2.5412-2.5191-3.2704-0.68501-6.0988-3.3588-3.1157z" fill-opacity=".15686"/>
  <path id="path5036" d="m57.408 88.689v3.5576l-0.044194 3.182 0.044194 6.5186 0.044194 5.3033-15.799-10.585 1.3037-1.5247 2.3423-1.2595 5.0602 0.066291 2.2981-2.3865 4.3531-2.8063 0.39775-0.066292z" fill-opacity=".15686"/>
 </g>
 <g id="layer1">
  <path id="path2601" d="m62.094 24.344-15.656 5.5-0.21875 0.84375-3.0312 1.2188-0.8125-0.65625-23.281 8.1562 0.125 27.375 0.91762 0.57544-0.011108 2.0017-0.20143 0.062657-0.018326 2.8283 0.29302 0.43966-0.025657 2.7201-0.28884 0.15482-0.017751 2.7396 0.3075 0.33173-0.006333 2.518-0.32035 0.11169-0.003345 0.51628 37.188 26.188 18.719-6.6875-0.125-1.7188 1.875-0.71875 0.25915-0.32044 1.8812-0.68685 0.44376 0.041801 2.3534-0.97201 0.28127-0.34371 1.2786-0.50691 0.40811 0.098627 1.8758-0.71676 1.5 1.5625 13.188-4.9375 0.0625-26.781-0.5-0.65625v-1.5938l0.15625-0.3125v-2.8438l-0.1875-0.25-0.04958-2.4972 0.23708-0.4091v-2.7812l-0.19431-0.22432 0.00681-1.6507 0.5625-0.53125v-1.8125l-4.9688-3.375-0.6875 0.1875-1.5-1.2812-0.125-0.46875-29.5-20.062-1.125 0.375-1.0625-0.75zm-0.09375 0.53125h0.03125l1 0.59375 1.25-0.09375 28.969 19.625-0.125 0.875 1.4062 0.09375 0.03125 1.4688 1.3125-0.65625 4.2812 2.9062-42.938 14.812-36.812-24.844 21.969-7.7812 1.5312 2.3125 0.125-2.2188 1.375 0.1875 0.15625-0.90625 1.9062 0.34375-0.65625-1.3125 14.281-5.0625 1.9062 2.0625-0.71875 1.6562-1.2812 0.96875-2.9062-0.0625 0.0625 0.09375 2.5 0.40625-0.25 1.3125 0.1875 0.0625 0.375-1.3125 0.34375 0.0625 1-0.875 1.5625 1.5938-1.0625 1.6875 0.09375 0.03125 1-1.2812 1.3125 0.21875-0.3125 3.0625h0.125l0.4375-2.9375 1.625-0.1875 0.0625-0.03125-1.625-0.125v-0.03125l-1.25-0.46875-1.6875-1.7188 0.78125-1.8438 1.25 0.6875 0.125-0.03125-1.2188-1.0312 0.03125-0.0625-1.5625-2.25zm-42.156 15.312 37.125 25.156-0.0625 23.281-4.7812 3.0625-1.8125 2.1875-4.9375-0.0625-2.4375 1.125-1.1562 1.4375-14.5-10.031-0.84375-4.125 0.53125-2.6875-2.5-3.25-0.71875-6.1562-3.7188-3.4688-0.1875-26.469zm80.562 9.9688v1.3125l-3 1.9688-0.96875 4.0312-3.1562 2.3125 0.03125 2.8125-0.03125-0.03125-1.3125 1.5625-2.2812-0.0625 0.0625 0.1875 2.1562 0.21875 0.78125 1.0938v-0.15625l-0.4375-1.0312 1.4375-1.4688 4.5938 0.90625 2.0625 1.4375-0.125 26.562-11.906 4.125v-6.0312l2.4688-1.0625 0.21875-4.3438c-0.24819-0.44815-0.62081-0.55946-1.125-0.5625v-2.875l-1.5625 0.46875v-8.5625h0.03125l0.21875-1.0312h1.6562l-0.03125 0.03125 1.7188 1.3438-1.3125-1.6562 0.59375-0.65625-0.125 0.03125-0.8125 0.53125-1.5312-0.25v-0.03125l-1.5312-1.2812-0.0625 0.125 1.2188 1.25-0.875 1.0938-12.719 5.0938v22.062l-1.3438-0.375-3.8438 0.1875-1.1562-2.9062-3.7812-2.1562-1.8125-3.25-5.1562-2.5-0.0625-22.75 1.2188 1.0625-0.1875 1.375 0.625-1.25 1.7188 0.4375 2.7188-1.5 0.4375-0.0625 2.9062 0.59375 1.625 2.125 0.21875-0.03125-1.7812-2.2188h-0.03125l-0.03125-0.03125-1.9062-0.625 2.2812-0.40625 1.5-1.8125-0.09375-0.0625-1.5938 1.5-3.6562 0.59375-2.5 1.5-1.875-0.5-1-1.4062 42.219-15zm-0.1875 1.8438v2.125l-1.9688 0.625v2.8125l1.9688-0.65625 0.03125 3.1875-2.3438 0.78125v2.5625l-0.34375-0.0625v-2.2812l-3.9062 1.2812-0.03125-0.15625 1.0312-0.34375v-2.75l-0.21875 0.0625 0.8125-0.5625 2.6562-0.90625v-2.75l-0.53125 0.1875 0.0625-0.21875 2.625-0.90625v-1.9375l0.15625-0.09375zm-0.3125 0.21875 0.03125 1.7188-2.4688 0.84375 0.34375-1.125 2.0938-1.4375zm-70.156 1.0312 0.125 14.281 10.688 6.625 0.75 1.75-1.1875 1.4688 0.875 1.2188 0.15625 0.125-0.59375-1.3125 1-1.2812 1.4688 0.40625 0.6875 3.9688 1.6875 0.625-0.03125-0.21875-1.4688-0.375-0.4375-3.6875 2 0.78125 0.65625 1.375 0.125-0.03125-0.3125-1.4062 0.9375-0.6875-0.09375 0.03125-1.2812 0.34375-2.25-1.1875v0.0625l-1.3438-0.125-0.46875-1.625-0.0625-12.406 1.9688-1.4062 0.75 0.46875 1.1875 2.4688 0.1875 0.125-0.8125-2.4062 1.125-0.375v-0.09375l-1.25 0.15625-0.03125-0.125-1.1562-0.59375-2.4375 0.78125-11.156-7.7188zm70.688 1 0.03125 2.4375-2.0625 0.71875v-2.5312l2.0312-0.625zm-69.938 0.25 1.375 0.96875v10.469l-1.3125 0.625-0.0625-12.062zm67.25 0.65625 0.03125 2.4688-2.1562 0.75 1-0.6875 0.6875-2.375 0.4375-0.15625zm-65.438 0.625 0.4375 0.3125v10.031l-0.4375-0.28125v-10.062zm0.75 0.5625 1.5938 1.125 0.03125 10.25c-0.66773 1.2279-1.6521 0.34004-1.625-0.34375v-11.031zm67 0.90625-5.0938 1.6562 0.03125 2.8125 5.0625-1.7188v-2.75zm-0.1875 0.1875 0.03125 2.4688-4.7812 1.625v-2.5l4.75-1.5938zm-64.906 0.25 2.0312 1.4688v9.8438l-2.0312-1.3438v-9.9688zm59.5 1.625 0.03125 2.4688-0.875 0.28125-0.21875-2.1562 0.6875-0.46875 0.375-0.125zm-57.156 0.0625 1.5938 1.125 0.03125 9.875c-0.66773 1.228-1.6521 0.34004-1.625-0.34375v-10.656zm63.219 0.78125-0.03125 2.5-2.3438 0.8125h-0.09375l-0.03125-2.5 2.5-0.8125zm-61.312 0.5625 1.4688 1.0625v9.7188l-1.4688-1.0312v-9.75zm58.188 0.53125 0.03125 2.0938-3.75-0.65625-0.03125-0.1875 3.75-1.25zm2.8438 1.625v1.9688l-0.1875-0.15625v-1.5625l-1.4062 0.46875-0.0625-0.03125-0.03125-0.03125h-0.0625-0.09375l1.8438-0.65625zm-0.34375 0.4375 0.03125 1.2812-1.1875-0.90625 1.1562-0.375zm-67.781 3.0312 0.625 0.4375v0.65625c-0.087861 0.36292 1.0611 1.9415 2.0312 0.75l2.2188 1.5v0.40625c-0.084279 0.34812 0.96425 1.8081 1.9062 0.875l1.7812 1.25v1.4375l-10.062-6.6875 1.5-0.625zm-11.844 0.9375 0.125 0.125v2.2188l3.1562 2.1562 0.03125 0.125-0.03125-0.03125v2.8438l0.46875 0.3125 0.03125 0.28125-3.6875-2.5938v2.8125l5.0625 3.5v-0.96875l0.21875 0.3125v0.75l0.9375 0.625-0.03125 0.1875-3.3438-2.3438v2.8125l3.0938 2.1562 0.03125 0.15625-0.65625-0.46875v2.8125l1.2188 0.84375 0.03125 0.1875-6.5938-4.625v-3.0312l2.6875 1.875v-2.75l-2.7188-1.9062v-3.1875l3.0625 2.125v-2.75l-3.0938-2.1562v-2.4062zm0.28125 0.28125 2.8125 2.8438 0.1875 1.25-3-2.0625v-2.0312zm-0.52432 2.1487 3.1806 2.1638 0.03125 2.4688-3.2248-2.1326 0.012944-2.5zm3.6806 3.1326 0.28125 2.0312-0.28125-0.1875v-1.8438zm-3.1875 0.125 3.5625 2.5 0.125 0.9375 1.0938 1.5v0.875l-4.7812-3.2812v-2.5312zm67 0.09375v9.0312c-0.34042-0.25316-0.74582-0.082742-0.96875 0.0625l0.03125-8.7188 0.9375-0.375zm-1.4375 0.59375-0.03125 8.5-1.5 0.59375v2.9688l1.4688-0.46875v0.125c-0.41029 0.20232-0.8645 0.42228-1.2812 0.65625l1.2812 2.5312-0.03125 6.5609-1.5754 0.59375 0.012944-3.8109 1.4688-0.5625v-2.9688l-0.3125-0.34375-1.1875 0.40625-0.03125-6.4062 1.5312-0.59375v-2.9688l-0.3125-0.34375-1.25 0.4375-0.03125-4.1875 1.7812-0.71875zm-2.1562 0.875v4.1562l-1.625 0.5625-0.03125-4.0312 1.6562-0.6875zm-2.0312 0.84375v4.0312l-2 0.6875-0.03125-3.875 2.0312-0.84375zm-61.859 0.25157 2.7964 1.9359 0.03125 2.5-2.8406-1.9138 0.012944-2.5221zm59.453 0.74843 0.03125 3.8438-2.1875 0.75-0.03125-3.6875 2.1875-0.90625zm-2.5625 1.0625 0.03125 3.6562-1.3438 0.46875v-3.5938l1.3125-0.53125zm-53.562 0.40625 3.1562 2.25-0.28125 2 0.0625 0.34375-2.9375-2.0312v-2.5625zm62.094 0.5625v0.21875l-9.8438 3.4375v-0.1875l9.8438-3.4688zm-59.656 0.1875 0.78125 1.0625-0.78125-0.53125v-0.53125zm-5.4062 0.0625v2.8125l5.0625 3.4688v-2.75l-5.0625-3.5312zm0.15625 0.25 4.75 3.3125 0.03125 2.5-4.7812-3.2812v-2.5312zm64.812 0.15625 0.0625 1.9062-9.8125 3.8125v-2.0312l9.75-3.6875zm4.375 2.1875-0.012944 2.6875-0.70581 0.09375-0.21875-0.4375c0.14806-0.23562 0.26171-0.52355 0.4375-0.84375-0.06356-0.29201-0.20139-0.56487-0.6875-0.375-0.063595 0.156-0.14504 0.2744-0.21875 0.375l-0.03125-0.0625v-0.9375l1.4375-0.5zm-5.7812 0.9375v6.4062l-1.5938 0.53125-0.03125-6.3125 1.625-0.625zm2.0938 0.125v0.1875c-0.35031 0.31521-0.59331 0.74187-0.5625 1.1875-0.13144-0.037213-0.23859-0.064148-0.40625-0.09375-0.31169 0.37866-0.1127 0.62134 0.09375 1 0.32656 0.1721 0.57608 0.18712 0.8125 0.15625l0.03125 0.0625v0.25l-1.3438 0.46875v-2.6562l1.375-0.5625zm0.84375 0.15625c0.43987-0.049793 0.90301 0.21025 1.1562 0.4375l0.0625 0.0625c-0.04989 0.041155-0.10181 0.089771-0.15625 0.125l-0.0625-0.09375c-0.22232-0.11561-0.44242-0.17631-0.625-0.1875-0.53675-0.032888-0.87722 0.35751-1.125 1.0312-0.085004-0.00294-0.16858-0.014463-0.25-0.03125 0.18092-0.9442 0.57173-1.2953 1-1.3438zm-61.094 0.03125 0.5625 0.40625 0.5 2.8125-1.0312-0.6875-0.03125-2.5312zm62.875 0.0625c0.13976 0.0276 0.28976 0.005588 0.3125 0.3125-0.161 0.45856-0.37203 0.85814-0.90625 1.0312-0.18471-0.10708-0.58411 0.037579-0.4375-0.40625 0.48259-0.2236 0.79982-0.54939 1.0312-0.9375zm-6.75 0.40625v6.3125l-1.9375 0.6875-0.0625-6.2188 2-0.78125zm5.0312 0.1875c0.19393-0.009748 0.41313 0.11011 0.625 0.1875-0.10454 0.060377-0.19301 0.10242-0.3125 0.1875 0.025665 0.24388 0.11294 0.35702 0.25 0.4375l-0.03125 0.71875c-0.18787 0.087275-0.38674 0.1851-0.5625 0.28125l-0.21875-0.4375c0.09748-0.035294 0.16911-0.062087 0.28125-0.09375 0.16358-0.25011 0.25752-0.5054-0.21875-0.71875-0.13282 0.054623-0.2354 0.073386-0.34375 0.09375 0.12024-0.48966 0.3261-0.64594 0.53125-0.65625zm1.6875 0.625 0.5 0.71875c-0.17525 0.40838-0.26524 0.29706-0.375 0.3125l-0.40625-0.8125c0.11136-0.063843 0.20719-0.13972 0.28125-0.21875zm-3.3125 0.03125c0.49784 0.18718 0.96729 0.20098 1.4062 0.09375 0.078346 0.11899 0.23408 0.2373 0.03125 0.46875-0.43979 0.20684-0.90818 0.3219-1.4062 0.0625-0.053216-0.20676-0.45045-0.41824-0.03125-0.625zm-5.8125 0.09375 0.03125 6.1875-2.125 0.75-0.0625-6.0938 2.1562-0.84375zm10.25 0.34375c0.53032-0.055047 0.74587 0.1129 0.71875 0.40625l-4.7188 1.625-0.375-0.25 0.9375-0.5625 0.15625 0.3125c0.36524 0.044614 0.6564-0.039796 0.8125-0.34375l-0.15625-0.21875c0.30543-0.3257 0.78269-0.38476 1.2188-0.5625l0.21875 0.375c0.37945 0.13184 0.61043-0.08255 0.78125-0.4375l-0.15625-0.25 0.5625-0.09375zm-3.2188 0.34375 0.4375 0.75c-0.08844 0.17411-0.15563 0.3243-0.3125 0.15625l-0.40625-0.8125c0.08684-0.026554 0.18936-0.059585 0.28125-0.09375zm-9.5938 0.3125 0.03125 6.0938-1.375 0.46875v-6.0625l1.3438-0.5zm13.594 0.1875-0.15625 3.4688-2.3125 0.90625-1.6562-2.9688 4.125-1.4062zm-5.25 1.2812 0.59375 0.1875 1.875 3.1875c-0.31867 0.16515-0.81818-0.067109-1-0.3125l-1.4688-3.0625zm3.4688 0.03125c-0.19417-0.005304-0.39958 0.13553-0.59375 0.625 0.12453 0.28543 0.27542 0.59586 0.75 0.53125l0.125 0.90625 0.71875-0.28125-0.65625-0.84375c0.57791-0.071301 0.3662-0.38483 0.25-0.6875-0.19417-0.079172-0.39958-0.2447-0.59375-0.25zm-3.3125 1.9062v0.21875l-9.8438 3.4375v-0.1875l9.8438-3.4688zm-28.469 0.625 0.21875 0.125v0.28125l-0.40625-0.28125 0.1875-0.125zm28.375 0.03125 0.0625 1.9062-9.8125 3.8125v-2.0312l9.75-3.6875zm-27.938 0.03125 0.4375 0.1875-0.4375 0.125v-0.3125zm-0.75 0.125 0.61964 0.38794v2.5221l-1.8696-1.285v-0.78125l1.25-0.84375zm1.375 0.15625 1.3125 0.625 0.03125 1.4062-1.9688 0.6875v-2.5221l0.625-0.19665zm28.5 0.3125c0.29446 0.21023 0.57082 0.46062 0.9375 0.53125v6l-0.96875-1.0938 0.03125-5.4375zm-27.031 0.375 0.25 0.125v1.125l1.4062-0.46875 0.3125 0.15625-3.875 1.2812v2.8125l5.0625-1.7188v-1.7188l0.34375 0.625v0.9375l0.4375-0.15625 0.125 0.1875-3.75 1.2188v2.8125l5.0625-1.7188v-0.65625l0.25 0.15625v0.3125l0.34375-0.125 0.25 0.15625-2.7188 0.90625v2.8125l5.0625-1.7188v-0.53125l0.28125 0.625-3.0312 1v2.8125l4.0625-1.375 0.03125 0.03125h0.125l-1.2188 0.375v2.8125l5.0625-1.7188v-1.8125h0.09375v1.7812l1.25-0.4375v0.0625l-17.25 6.0938v-3l2.1875-0.75v-2.75l-2.2188 0.71875v-3.2188l2.0312-0.6875v-2.75l-2.0312 0.6875-0.03125-3.1562 2.0938-0.71875v-1.4375zm-4.25 0.125v0.6875l1.9375 1.3438v3.125l-2.0938-1.4688v2.8125l2.125 1.4688v3.125l-2.3438-1.6562 0.03125 2.8125 2.3125 1.5938v0.28125l-4.9688-3.5v2.8125l4.9688 3.4375v0.0625l-15.125-10.406 0.0625-0.09375 4.7188 3.2812v-2.75l-3.125-2.1875 0.6875-0.375v0.65625l5.0625 3.4688v-2.75l-2.6875-1.875h0.25l4.8438 3.3125v-2.75l-1.1875-0.84375 0.09375-0.09375 4.1562 2.875v-2.75l-2.5312-1.7812 0.03125-0.03125 0.0625-0.03125 4.5 3.125v-2.75l-2.4688-1.75 0.1875-0.125 0.34375 0.25v-0.46875l0.15625-0.09375zm4.6562 0.0625 1.0938 0.53125-1.0938 0.34375v-0.875zm-4.9375 0.125v0.15625l-0.125-0.09375 0.125-0.0625zm-0.5 0.3125 2.4062 1.7188 0.03125 2.5-4.3125-2.9688 1.875-1.25zm7.2188 0.40625 0.8125 0.375 0.03125 1.8125-4.7812 1.625v-2.5312l3.9375-1.2812zm-9.3125 1.0312 2.4375 1.7188 0.03125 2.5-3.9688-2.7188 1.5-1.5zm31.594 0.0625v3.625l-1.5625 0.59375-0.03125-3.625 1.5938-0.59375zm-20.812 0.375 0.21875 0.40625-0.21875 0.0625v-0.46875zm18.781 0.40625 0.022097 3.8902-1.9504 0.71875-0.009153-3.8589 1.9375-0.75zm-18.312 0.40625 0.65625 1.1562 0.46875 0.28125v0.65625l-4.7812 1.625v-2.5312l3.6562-1.1875zm-13 0.53125 1.125 0.78125 0.03125 2.5-4.5312-3.0938h3.1875l0.1875-0.1875zm28.906 0 0.03125 3.5938-2.0938 0.78125-0.03125-3.5938 2.0938-0.78125zm-34.188 0.1875h1.25l2.75 1.9062 0.03125 2.5-4.7812-3.2812v-0.71875l0.75-0.40625zm9.9062 0.03125 2.048 1.41-0.066291 2.4962-1.9817-1.3438v-2.5625zm-3.2188 0.59375 0.03125 2.8125 5.0625 3.5v-2.75l-5.0938-3.5625zm7.2812 0.15625 0.03125 2.4688-1.9946 0.67835 0.022097-2.4779 1.9413-0.66919zm17.656 0 0.11964 3.7926-1.4725 0.50915-0.022097-3.7705 1.375-0.53125zm-24.781 0.09375 4.7812 3.3125 0.03125 2.5-4.7812-3.2812-0.03125-2.5312zm-8.5625 0.0625 3.0625 2.1562 0.03125 2.4688-4.5312-3.0938 0.9375-1.25 0.5-0.28125zm22.25 0.5 2.0625 1.2812v0.5l-4.7812 1.6562v-2.5312l2.7188-0.90625zm-16.188 0.5v2.8125l5.0625 3.5v-2.75l-5.0625-3.5625zm0.15625 0.25 4.75 3.3125 0.03125 2.5-4.7812-3.2812v-2.5312zm12.812 0.25-5.0625 1.6562v2.8125l5.0625-1.7188v-2.75zm-0.15625 0.1875 0.03125 2.4688-4.7812 1.6562v-2.5312l4.75-1.5938zm-15.438 0.46875v2.8438l5.0625 3.4688v-2.75l-5.0625-3.5625zm0.15625 0.25 4.75 3.3438 0.03125 2.5-4.7812-3.2812v-2.5625zm21.156 0.15625 0.9375 2.1875-3.8438 1.3438-0.03125-2.5312 2.9375-1zm-3.3125 1.1562-5.0625 1.6562v2.8125l5.0625-1.7188v-2.75zm-0.15625 0.15625 0.03125 2.4688-4.7812 1.6562-0.03125-2.5312 4.7812-1.5938zm8.3125 0.6875 0.03125 1.75-4.7812 1.625v-2.5312l1.625-0.53125 3.125-0.3125zm0.40625 0.09375 1.0938 0.3125v0.84375l-1.0938 0.375v-1.5312zm-18.594 0.1875 2.2759 1.5975v2.4337l-2.2759-1.5v-2.5312zm13.031 0.71875-5.0625 1.6562v2.8125l5.0625-1.7188v-2.75zm-8.5625 0.1875 0.03125 2.4688-2.0625 0.74085-0.03125-2.5221 2.0625-0.6875zm8.4062 0 0.03125 2.4688-4.7812 1.625v-2.5312l4.75-1.5625zm-15.5 0.28125 4.8384 3.3567 0.053347 2.5-4.8917-3.3254v-2.5312zm10.25 1.4062-5.0625 1.6562v2.8125l5.0625-1.7188v-2.75zm-0.15625 0.1875 0.03125 2.4688-4.7812 1.625v-2.5312l4.75-1.5625z" fill-rule="evenodd"/>
 </g>
</svg>
