<?xml version="1.0" encoding="UTF-8"?>
<!-- Created with Inkscape (http://www.inkscape.org/) -->
<svg id="svg2" width="128" height="128" version="1.0" xmlns="http://www.w3.org/2000/svg" xmlns:cc="http://creativecommons.org/ns#" xmlns:dc="http://purl.org/dc/elements/1.1/" xmlns:rdf="http://www.w3.org/1999/02/22-rdf-syntax-ns#" xmlns:xlink="http://www.w3.org/1999/xlink">
 <defs id="defs4">
  <linearGradient id="linearGradient3405">
   <stop id="stop3407" stop-color="#4f3e2a" offset="0"/>
   <stop id="stop3409" stop-color="#72593c" offset="1"/>
  </linearGradient>
  <linearGradient id="linearGradient2338">
   <stop id="stop2340" stop-color="#b1b1b1" offset="0"/>
   <stop id="stop2342" stop-color="#e4e4e4" offset="1"/>
  </linearGradient>
  <linearGradient id="linearGradient2685" x1="33.676" x2="52.679" y1="47.301" y2="27.149" gradientTransform="translate(1.5568 -.51892)" gradientUnits="userSpaceOnUse" xlink:href="#linearGradient2338"/>
  <linearGradient id="linearGradient2689" x1="54.889" x2="55.508" y1="55.522" y2="58.438" gradientTransform="translate(1.5568 -.51892)" gradientUnits="userSpaceOnUse" xlink:href="#linearGradient2338"/>
  <linearGradient id="linearGradient2693" x1="38.184" x2="56.303" y1="58.792" y2="65.156" gradientTransform="translate(1.5568 -.51892)" gradientUnits="userSpaceOnUse" xlink:href="#linearGradient2338"/>
  <linearGradient id="linearGradient2697" x1="47.111" x2="46.757" y1="79.121" y2="80.801" gradientTransform="translate(1.5568 -.51892)" gradientUnits="userSpaceOnUse" xlink:href="#linearGradient2338"/>
  <linearGradient id="linearGradient2701" x1="31.625" x2="25.594" y1="64.562" y2="68.281" gradientTransform="translate(1.5568 -.51892)" gradientUnits="userSpaceOnUse" xlink:href="#linearGradient2338"/>
  <linearGradient id="linearGradient2705" x1="38.781" x2="31.5" y1="65.531" y2="69" gradientTransform="translate(1.5568 -.51892)" gradientUnits="userSpaceOnUse" xlink:href="#linearGradient2338"/>
  <linearGradient id="linearGradient2709" x1="45.594" x2="41.188" y1="66.688" y2="66.531" gradientTransform="translate(1.5568 -.51892)" gradientUnits="userSpaceOnUse" xlink:href="#linearGradient2338"/>
  <linearGradient id="linearGradient2713" x1="52.812" x2="48.5" y1="69.906" y2="69.844" gradientTransform="translate(1.5568 -.51892)" gradientUnits="userSpaceOnUse" xlink:href="#linearGradient2338"/>
  <linearGradient id="linearGradient2717" x1="63.625" x2="54.531" y1="69.562" y2="75.375" gradientTransform="translate(1.5568 -.51892)" gradientUnits="userSpaceOnUse" xlink:href="#linearGradient2338"/>
  <linearGradient id="linearGradient3300" x1="75.031" x2="69.594" y1="65.281" y2="65.406" gradientTransform="translate(1.5568 -.51892)" gradientUnits="userSpaceOnUse" xlink:href="#linearGradient2338"/>
  <linearGradient id="linearGradient3304" x1="60.156" x2="65.75" y1="78.031" y2="75.25" gradientTransform="translate(1.5568 -.51892)" gradientUnits="userSpaceOnUse" xlink:href="#linearGradient2338"/>
  <linearGradient id="linearGradient3308" x1="62.156" x2="62.312" y1="78.438" y2="79.219" gradientTransform="translate(1.5568 -.51892)" gradientUnits="userSpaceOnUse" xlink:href="#linearGradient2338"/>
  <linearGradient id="linearGradient3312" x1="50.594" x2="60.656" y1="84.25" y2="75.875" gradientTransform="translate(1.5568 -.51892)" gradientUnits="userSpaceOnUse" xlink:href="#linearGradient2338"/>
  <linearGradient id="linearGradient3316" x1="60.75" x2="60.844" y1="84.25" y2="84.781" gradientTransform="translate(1.5568 -.51892)" gradientUnits="userSpaceOnUse" xlink:href="#linearGradient2338"/>
  <linearGradient id="linearGradient3320" x1="63.406" x2="63.469" y1="81.938" y2="82.562" gradientTransform="translate(1.5568 -.51892)" gradientUnits="userSpaceOnUse" xlink:href="#linearGradient2338"/>
  <linearGradient id="linearGradient3324" x1="53.156" x2="68.938" y1="82.375" y2="70.656" gradientTransform="translate(1.5568 -.51892)" gradientUnits="userSpaceOnUse" xlink:href="#linearGradient2338"/>
  <linearGradient id="linearGradient3328" x1="65.438" x2="65.625" y1="79.5" y2="80.344" gradientTransform="translate(1.5568 -.51892)" gradientUnits="userSpaceOnUse" xlink:href="#linearGradient2338"/>
  <linearGradient id="linearGradient3332" x1="58.188" x2="68.719" y1="80.375" y2="73.75" gradientTransform="translate(1.5568 -.51892)" gradientUnits="userSpaceOnUse" xlink:href="#linearGradient2338"/>
  <linearGradient id="linearGradient3340" x1="106.69" x2="113.69" y1="54.375" y2="84.5" gradientTransform="translate(1.5568 -.51892)" gradientUnits="userSpaceOnUse" xlink:href="#linearGradient2338"/>
  <linearGradient id="linearGradient3344" x1="13" x2="26.5" y1="58.438" y2="67.75" gradientTransform="translate(1.5568 -.51892)" gradientUnits="userSpaceOnUse" xlink:href="#linearGradient2338"/>
  <linearGradient id="linearGradient3355" x1="35.978" x2="103.78" y1="105.86" y2="29.232" gradientTransform="translate(1.5568 -.51892)" gradientUnits="userSpaceOnUse" xlink:href="#linearGradient2338"/>
  <linearGradient id="linearGradient3371" x1="35.895" x2="121.58" y1="99.473" y2="109.51" gradientTransform="translate(1.5568 -.51892)" gradientUnits="userSpaceOnUse" xlink:href="#linearGradient2338"/>
  <linearGradient id="linearGradient3375" x1="78.876" x2="79.741" y1="93.578" y2="94.443" gradientTransform="translate(1.5568 -.51892)" gradientUnits="userSpaceOnUse" xlink:href="#linearGradient2338"/>
  <linearGradient id="linearGradient3379" x1="89.903" x2="90.249" y1="88.692" y2="87.957" gradientTransform="translate(1.5568 -.51892)" gradientUnits="userSpaceOnUse" xlink:href="#linearGradient2338"/>
  <linearGradient id="linearGradient3383" x1="98.119" x2="99.632" y1="106.85" y2="107.24" gradientTransform="translate(1.5568 -.51892)" gradientUnits="userSpaceOnUse" xlink:href="#linearGradient2338"/>
  <linearGradient id="linearGradient3391" x1="76.627" x2="93.405" y1="102.23" y2="93.059" gradientTransform="translate(1.5568 -.51892)" gradientUnits="userSpaceOnUse" xlink:href="#linearGradient2338"/>
  <linearGradient id="linearGradient3395" x1="44.355" x2="88.14" y1="103.75" y2="60.851" gradientTransform="translate(1.5568 -.51892)" gradientUnits="userSpaceOnUse" xlink:href="#linearGradient3405"/>
  <linearGradient id="linearGradient3399" x1="26.737" x2="17.413" y1="83.452" y2="91.098" gradientTransform="translate(1.5568 -.51892)" gradientUnits="userSpaceOnUse" xlink:href="#linearGradient3405"/>
  <linearGradient id="linearGradient3403" x1="31.334" x2="22.672" y1="89.772" y2="96.799" gradientTransform="translate(1.5568 -.51892)" gradientUnits="userSpaceOnUse" xlink:href="#linearGradient3405"/>
  <linearGradient id="linearGradient3407" x1="36.062" x2="27.312" y1="97.02" y2="104.4" gradientTransform="translate(1.5568 -.51892)" gradientUnits="userSpaceOnUse" xlink:href="#linearGradient3405"/>
  <linearGradient id="linearGradient3411" x1="16.926" x2="18.562" y1="94.501" y2="93.042" gradientTransform="translate(1.5568 -.51892)" gradientUnits="userSpaceOnUse" xlink:href="#linearGradient2338"/>
  <linearGradient id="linearGradient3417" x1="13.833" x2="15.601" y1="89.021" y2="86.855" gradientTransform="translate(1.5568 -.51892)" gradientUnits="userSpaceOnUse" xlink:href="#linearGradient2338"/>
  <linearGradient id="linearGradient3421" x1="99.923" x2="102.35" y1="64.802" y2="70.459" gradientTransform="translate(1.5568 -.51892)" gradientUnits="userSpaceOnUse" xlink:href="#linearGradient2338"/>
  <linearGradient id="linearGradient3425" x1="99.923" x2="102.35" y1="64.802" y2="70.459" gradientTransform="translate(7.5672 5.4031)" gradientUnits="userSpaceOnUse" xlink:href="#linearGradient2338"/>
  <linearGradient id="linearGradient3429" x1="99.923" x2="102.35" y1="64.802" y2="70.459" gradientTransform="translate(14.859 11.193)" gradientUnits="userSpaceOnUse" xlink:href="#linearGradient2338"/>
  <linearGradient id="linearGradient3439" x1="98.111" x2="90.642" y1="65.112" y2="74.79" gradientTransform="translate(1.5568 -.51892)" gradientUnits="userSpaceOnUse" xlink:href="#linearGradient3405"/>
  <linearGradient id="linearGradient3443" x1="98.111" x2="90.642" y1="65.112" y2="74.79" gradientTransform="translate(7.302 5.2263)" gradientUnits="userSpaceOnUse" xlink:href="#linearGradient3405"/>
  <linearGradient id="linearGradient3447" x1="98.111" x2="90.642" y1="65.112" y2="74.79" gradientTransform="translate(14.903 11.237)" gradientUnits="userSpaceOnUse" xlink:href="#linearGradient3405"/>
  <filter id="filter3487">
   <feGaussianBlur id="feGaussianBlur3489" stdDeviation="0.8216216"/>
  </filter>
  <filter id="filter3501">
   <feGaussianBlur id="feGaussianBlur3503" stdDeviation="0.61025853"/>
  </filter>
  <filter id="filter3519">
   <feGaussianBlur id="feGaussianBlur3521" stdDeviation="0.99171729"/>
  </filter>
  <filter id="filter3541">
   <feGaussianBlur id="feGaussianBlur3543" stdDeviation="0.67857276"/>
  </filter>
 </defs>
 <metadata id="metadata7">
  <rdf:RDF>
   <cc:Work rdf:about="">
    <dc:format>image/svg+xml</dc:format>
    <dc:type rdf:resource="http://purl.org/dc/dcmitype/StillImage"/>
   </cc:Work>
  </rdf:RDF>
 </metadata>
 <g id="layer2" fill-rule="evenodd">
  <path id="path3464" d="m37.449 119.35c-25.2-5.2067-32.418-18.455-34.768-28.368l-1.3838-21.103c4.2588-14.399 37.074-25.369 53.449-30.097l31.308 14.184-48.605 65.384z" fill-opacity=".66667" filter="url(#filter3487)"/>
  <path id="path3393" d="m79.163 50.487 2.3239 0.30578 9.051 2.752 9.5402 4.4643 5.504 3.3635 5.504 4.5255 5.1982 5.4428 2.6297 4.2809 1.7124 3.6693 1.4677 4.2809 0.12231 1.3454-1.8958 13.393-42.258 18.224-5.504-8.684-8.9287 0.18346-12.537 4.2809-41.463-18.591-0.73386-9.2956 2.6297-5.0147 3.1189-5.9321 4.8924-6.4213s3.6693-3.7305 3.9139-3.7305 4.4032-3.4247 4.4032-3.4247l51.309-9.4179z" fill="url(#linearGradient3395)"/>
  <path id="path3505" d="m78.312 51.986c27.979 8.7409 49.911 29.791 29.875 47.906l16.617-6.364-1.4142-26.693-36.416-18.385-9.8995 2.1213 1.2374 1.4142z" fill-opacity=".54902" filter="url(#filter3519)"/>
  <path id="path3389" d="m71.516 107.73-7.3804-23.423 2.3865-0.30936 6.2756-1.3258 1.2816-0.30936 8.4411 6.2756 5.9662 3.9333 9.1482 6.364 0.44194 0.30936 1.1049 3.3588 0.88388 4.1984 0.26517 5.1707-0.53033 5.4801-15.789 3.6111-12.496-13.334z" fill="url(#linearGradient3391)"/>
  <path id="path3449" d="m71.516 107.73-7.3804-23.423 2.3865-0.30936 6.2756-1.3258 1.2816-0.30936 8.4411 6.2756 5.9662 3.9333 9.1482 6.364 0.44194 0.30936 1.1049 3.3588 0.88388 4.1984 0.26517 5.1707-0.53033 5.4801-15.789 3.6111-12.496-13.334z" fill-opacity=".15686"/>
  <path id="path3523" d="m107.13 112.44c-10.078-7.6178-15.573-21.266-33.764-18.208-14.088 14.381 0.90772 17.177-0.35355 27.577l4.0659-0.53033c-0.85511-7.7065-7.4875-14.588-2.2981-23.158 15.845-2.5271 18.568 9.3174 25.279 16.794l7.0711-2.4749z" fill-opacity=".54902" filter="url(#filter3541)"/>
  <path id="path3350" d="m77.557 36.794 0.5 0.75 8.875 2.375 7.1875 2.1875 8.9375 3.75 8.0625 4.25 4.625 3.4375 4.4375 4.6875 3.75 5.6875 1.8125 7.0625-0.5 6.125-1.75 5.625-3.25 5.0625-3.75 4.25-3.5625 3.1875 0.375 2-0.125 0.125-0.8125-0.75-0.375 1.4375-1.1875-1.0625-1 0.6875-3.5 2.125-1.5 0.8125 0.5 1.375 1.875-1.0625 2.375-1.875 1.6875-0.875 1 0.875 0.1875-0.5 0.4375-1 1.125 1.625-0.0625-0.5-0.5-2.3125 2.1875-1.375 3.8125-4 5.5625-7.9375 2-7-0.0625-6.25-1.625-5.3125-1.625-3.25-3.5-4.875-3.875-3.75-4.6875-4-4.9375-3.0625-9.9375-4.4375-13.25-3.5-5.9375-0.8125zm-51.812 8.6875-2.4375 0.6875-6.8125 4.8125-6.5625 6.4375-3.3125 5.1875-2.0625 6.1875-0.25 6.5 1.0625 5 1.8125 4.0625 1.4375 2.25 1.1875 1.6875 1.9375 2.3125 3.8125 3.625 6.75 4.6875 13.625 6.0625 11.25 2.8125 1.3125 2.5625 1.1875-1.1875 1 2.125 1.5-2.375c8.4155 0.53855 16.989 0.55189 25.75-0.0625l0.125-0.625-1.2547-1-3.0578 0.5625-4.3125 0.3125-4.625-0.125-12.438-1.1875-1.75 1.875-0.875-1.125-1.125 0.75-1.5-2.3125-5.1875-0.9375-8.5-2.625-7.9375-3-5.5-3.1875-5.0625-3.875-5.25-6.375-3.1875-7.75-0.4375-5.625 1.4375-6.625 2.5-4.9375 3.625-4.9375 4.3125-4.4375 4.5-3.75 3.3125-2.4375z" fill="url(#linearGradient3355)"/>
  <path id="path3342" d="m25.744 45.481-1.875 1.375-5.5625 4.4375-5.3125 5.5625-4.125 6.3125-2.1875 5-0.75 4.4375 0.6875 5.9375 2 5.5 0.4375 0.5625 3.8125-8.4375 5.375-7.25 3.3125-3.8125 3.9375-3.375 2.5625-1.875-0.125-2.5625-0.0625-5.5-1.875-1.1875-0.8125-1.9375v-1.125l0.6875-0.4375-0.125-1.625z" fill="url(#linearGradient3344)"/>
  <path id="path3491" d="m25.633 70.901 0.88388-3.3588-1.7678-6.5407-2.1213-10.607v-2.4749l2.8284-3.0052 26.517-4.773s22.274 22.097 21.213 23.335-47.553 7.7782-47.553 7.4246z" fill-opacity=".66667" filter="url(#filter3501)"/>
  <path id="path2687" d="m25.51 46.694 4.5078 2.9168 7.4246 3.0936 9.0156 1.9445 4.8614 0.44194 5.922-0.17678 5.5685-0.70711 3.7123-0.88388 4.5962-1.591 7.3362-3.8007 2.1213-1.6794 0.97227 0.97227-0.088389 1.0607c0.13286 0.73657-0.46031 1.4731-1.149 2.2097l-12.64 6.1872-9.9879 1.8562-7.0711 0.088388-7.2478-0.97227-8.5737-2.4749-6.0104-3.0052-3.2704-2.0329-0.53033-1.6794 0.17678-1.149 0.35355-0.61872z" fill="url(#linearGradient2689)"/>
  <path id="path2691" d="m26.482 50.848 7.2478 3.8891 6.0104 1.8562 7.6898 1.6794 8.4853 0.44194 8.4853-1.0607 5.1265-1.7678 6.0104-2.3865 3.3588-1.6794-0.44194 6.0988 0.17678 11.667-4.5078 2.8284-6.5407 2.4749-7.0711 1.5026-7.6014 0.53033-7.513-0.44194-9.9879-1.8562-7.7782-3.9775 0.53033-6.0104-0.35355-11.932-1.3258-1.8562z" fill="url(#linearGradient2693)"/>
  <path id="path2695" d="m27.278 70.205 1.9445 1.591 3.3588 1.6794 5.3033 1.7678 7.6898 1.5026 5.2149 0.088389 5.8336-0.17678 5.8336-0.70711 7.3362-1.8562 6.9827-3.0936 3.7123-2.2981 1.149 0.88388v2.4749l-4.0659 3.0052s-25.456 7.0711-26.251 6.7175c-0.7955-0.35355-5.3917-0.53033-5.3917-0.53033l-6.0988-1.3258s-4.773-1.8562-6.5407-2.3865c-1.7678-0.53033-5.7452-3.5355-6.6291-3.8891-0.88388-0.35355-1.5026-1.7678-1.5026-1.7678l0.88388-2.2981 1.2374 0.61872z" fill="url(#linearGradient2697)"/>
  <path id="path2699" d="m30.151 71.794 0.21875-14.438 0.84375-0.9375 0.84375-0.3125 0.65625 0.21875 1.2188 1.5625 0.28125 1.0938-0.09375 14.844-3.9688-1.5625v-0.46875z" fill="url(#linearGradient2701)"/>
  <path id="path2703" d="m36.713 74.637s0.1875-14.438 0.40625-14.625 0.1875-0.5625 0.1875-0.5625l0.71875-0.875 1.1875-0.46875 1 0.75 0.5625 1.0312-0.03125 15.875-4.0312-1.125z" fill="url(#linearGradient2705)"/>
  <path id="path2707" d="m43.963 76.45c0-0.15625-0.0625-15.188-0.0625-15.188l0.28125-0.5625 1-0.9375 0.625-0.1875 0.625 0.15625 0.9375 0.90625 0.5625 1.25-0.0625 14.719-3.9062-0.15625z" fill="url(#linearGradient2709)"/>
  <path id="path2711" d="m50.869 76.794-0.03125-14.812 0.40625-1.2812 0.78125-0.6875 1.0312-0.125 1.2812 0.71875 0.5 1.4688-0.125 14.656-3.8438 0.0625z" fill="url(#linearGradient2713)"/>
  <path id="path2715" d="m59.244 76.231 0.125-10.812 1.125-2.5312 2.25-1.5312 1.375-0.4375s1.6875 0.28125 2 0.40625 2.25 1.6875 2.25 1.6875l0.21875 0.96875 0.125 10.375-7.5938 1.8438-1.8125 0.3125-0.0625-0.28125z" fill="url(#linearGradient2717)"/>
  <path id="path2719" d="m59.244 76.231 0.125-10.812 1.125-2.5312 2.25-1.5312 1.375-0.4375s1.6875 0.28125 2 0.40625 2.25 1.6875 2.25 1.6875l0.21875 0.96875 0.125 10.375-7.5938 1.8438-1.8125 0.3125-0.0625-0.28125z" fill-opacity=".15686"/>
  <path id="path3298" d="m75.088 55.606 0.84375 0.75 0.1875 15.156-3.75 1.5625 0.0625-15.844 0.5-1.2812 0.65625-0.59375 1.125-0.125 0.375 0.375z" fill="url(#linearGradient3300)"/>
  <path id="path3310" d="m51.869 79.325c-0.125 0-0.84375 4.4062-0.84375 4.4062h8.5312l6.375-0.71875 5.625-1.25 4-1.2812 4.5-1.7812-4.0312-4.2812-22.156 4.9062h-2z" fill="url(#linearGradient3312)"/>
  <path id="path3314" d="m50.932 83.794 0.125 1.3125 8.25-0.28125 5.6562-0.5625 5.1875-0.84375 4.2812-1.2188 5.8125-1.8438-0.25-1.625-1.8438 0.78125-5 1.9062-8.0312 1.75-5.875 0.59375-4.4375 0.03125h-3.875z" fill="url(#linearGradient3316)"/>
  <path id="path3318" d="m53.151 82.2v0.8125l3.4688 0.03125 4.625-0.21875 4.8125-0.71875 4.5-1.1875 4.7812-1.4062 2.3125-0.75-0.03125-1.2188-0.6875 0.1875-3.8438 1.5625-4.9375 1.3125-4.4375 0.9375-3.3438 0.4375-4.125 0.21875h-3.0938z" fill="url(#linearGradient3320)"/>
  <path id="path3322" d="m56.057 78.419-2.25-0.03125-0.625 3.8438 3.9688-0.03125 4.4688-0.375 6.0938-1.0625 7.6875-2.375 1.9688-0.875-3.5-3.3438-1 0.5625-16.812 3.6875z" fill="url(#linearGradient3324)"/>
  <path id="path3326" d="m55.651 80.169-0.03125 1.25h3.0625l4.0938-0.40625 3.9375-0.75 7.875-2.75-0.15625-1.25-1.1562 0.34375-4.0312 1.5-4.9062 1.5625-5.4062 0.65625-3.2812-0.15625z" fill="url(#linearGradient3328)"/>
  <path id="path3330" d="m56.213 77.325-0.5625 2.8125 4.0312 0.1875 6.6875-1.2188 8.125-2.875-2.4062-2.25-1.0312 0.375-6.75 2.4688-6.9375 0.46875-1.1562 0.03125z" fill="url(#linearGradient3332)"/>
  <path id="path3302" d="m57.463 77.012-0.125 1.0625 1.375-0.03125 3.7812-0.25 4.9375-1.0625 4.3438-1.5312-1.1562-1.4062-6.9688 1.875-6.0938 0.8125-0.09375 0.53125z" fill="url(#linearGradient3304)"/>
  <path id="path3306" d="m57.463 78.012 0.0625 1.375 1.9688-0.1875 3.25-0.125 4.3125-1.0625 4.7188-1.5312v-1.1875l-2.9375 1-4.4375 1.125-2.9688 0.40625-3.9688 0.1875z" fill="url(#linearGradient3308)"/>
  <path id="path3338" d="m122.24 84.856c-0.375-0.4375-0.875-3.875-0.875-3.875l-3.75-7.875-7.3125-8.1875-8.5-6.125-9.5625-4.5-6.875-2.375-4.6875-1.125 0.8125-2.0625-0.1875-1.5-0.875-2.375-2.4375-7.25 2.0625 0.5625 9.8125 2.5 9.9375 3.625 10.75 5.4375 7.875 6.4375 5.3125 7.25 1.9375 6.1875v5l-1.25 5.25-2.1875 5z" fill="url(#linearGradient3340)"/>
  <path id="path3357" d="m122.24 84.856c-0.375-0.4375-0.875-3.875-0.875-3.875l-3.75-7.875-7.3125-8.1875-8.5-6.125-9.5625-4.5-6.875-2.375-4.6875-1.125 0.8125-2.0625-0.1875-1.5-0.875-2.375-2.4375-7.25 2.0625 0.5625 9.8125 2.5 9.9375 3.625 10.75 5.4375 7.875 6.4375 5.3125 7.25 1.9375 6.1875v5l-1.25 5.25-2.1875 5z" fill-opacity=".15686"/>
  <path id="path3359" d="m48.494 108.36-0.0625 1.6875 0.1875 0.25 0.9375-0.9375v-1.625l-1.0625 0.625z" fill-opacity=".15686"/>
  <path id="path3361" d="m50.619 108.61v2.75l1.4375-2.375 0.0625-1.6875-1.5 1.3125z" fill-opacity=".15686"/>
  <path id="path3363" d="m112 98.004 0.04419 0.97227 0.39775-0.044194 0.26517-1.2816-0.26517-0.92808-0.44194 1.2816z" fill-opacity=".15686"/>
  <path id="path3365" d="m112.93 95.484 0.35355 1.9445 0.48614 1.5468 0.17677-0.17678-0.30935-2.3865-0.70711-0.92808z" fill-opacity=".15686"/>
  <path id="path3369" d="m4.12 75.376 0.83969 3.5355 0.7513 2.3423 1.0165 2.3423 1.149 1.8562 1.9445 2.9168 3.4913 3.8007 7.8666 6.1872 10.562 4.9056 8.7946 3.0494 6.6733 1.5026 1.2816 2.5633 1.1049-1.0607 1.149 2.1655 0.53033-1.1932 0.83969-1.5468 13.435 1.1932 12.419-1.0165 0.39775-6.2756 1.4142-5.5243 1.812-3.8891 2.0329-2.4749 3.8449-3.0936 4.0659 1.0607 6.4965 3.2704 3.9333 3.3588 3.403 6.5407 1.0607-0.39774 4.5962-3.3146h0.39775l0.83969 0.7955 0.13258 0.044194 0.39775-1.5026 1.0165 1.4584 0.17678-0.30936-0.39775-2.1655 4.2426-3.7123 4.9056-5.7452 2.7842-5.8778 1.7236-7.0269 0.22097 0.97227-0.08839 7.513-0.48613 8.2643-1.812 6.7175-3.3146 5.6569-4.9056 4.9939-4.0217 3.2704-10.209 6.5407-0.44195-1.0165-0.92808-13.7-1.0165-2.961-1.0607-1.7678-1.9445-2.0771-3.1378-2.3865-5.6127-2.3423-2.3865 3.0494-2.3865 6.8501-0.7955 4.5962 0.26516 11.446 0.61872 4.552-10.518 1.37-11.225 0.08839s-9.0156-0.35355-9.4576-0.61872c-0.44194-0.26516-8.2643-1.6352-8.2643-1.6352l-9.7227-2.5191-10.872-4.9056-8.7063-6.1872-6.8501-7.9108-2.3423-4.4636-1.4584-5.0823-0.26516-5.5685-0.30936-5.701-0.088388-2.4307 0.39775-1.37z" fill="url(#linearGradient3371)"/>
  <path id="path3373" d="m76.714 107.03c-0.086487-0.17298 0.21622-5.1027 0.21622-5.1027l0.64865-4.9297 1.9027-4.627 3.1135-3.5027 3.4162-3.3297 1.427 2.3351-2.2919 1.5568-1.8162 1.6865-1.8595 2.4216-1.5568 3.2-1.3405 4.973-0.64865 6.5297-1.2108-1.2108z" fill="url(#linearGradient3375)"/>
  <path id="path3377" d="m86.227 85.622 1.0378 2.1622 2.6378 0.3027 2.6378 1.0378 7.4811 4.1514s-2.1189-2.5946-2.5513-2.7676c-0.43243-0.17297-2.6811-1.773-2.6811-1.773l-2.8541-1.3405-2.8973-1.0378-2.8108-0.73514z" fill="url(#linearGradient3379)"/>
  <path id="path3381" d="m94.746 94.789 2.4216 2.8108 1.1676 2.4216 1.2973 4.627 0.69189 4.7568-0.25946 8.0865 2.1189 0.38919-0.82163-14.486s-1.3838-3.6757-1.6865-3.9784c-0.3027-0.3027-1.8162-2.3351-1.8162-2.3351l-3.1135-2.2919z" fill="url(#linearGradient3383)"/>
  <path id="path3385" d="m76.714 107.03c-0.086487-0.17298 0.21622-5.1027 0.21622-5.1027l0.64865-4.9297 1.9027-4.627 3.1135-3.5027 3.4162-3.3297 1.427 2.3351-2.2919 1.5568-1.8162 1.6865-1.8595 2.4216-1.5568 3.2-1.3405 4.973-0.64865 6.5297-1.2108-1.2108z" fill-opacity=".15686"/>
  <path id="path3387" d="m94.746 94.789 2.4216 2.8108 1.1676 2.4216 1.2973 4.627 0.69189 4.7568-0.25946 8.0865 2.1189 0.38919-0.82163-14.486s-1.3838-3.6757-1.6865-3.9784c-0.3027-0.3027-1.8162-2.3351-1.8162-2.3351l-3.1135-2.2919z" fill-opacity=".15686"/>
  <path id="path3397" d="m16.273 86.734 12.64-3.182 2.6958 3.9333-13.391 3.8007-1.9445-4.552z" fill="url(#linearGradient3399)"/>
  <path id="path3401" d="m20.339 93.098 12.374-3.182 2.74 3.9333-13.258 3.7123-1.8562-4.4636z" fill="url(#linearGradient3403)"/>
  <path id="path3405" d="m26.659 99.683 11.137-2.7842 2.8284 3.8449-6.364 1.812-3.8891-1.0165-3.7123-1.8562z" fill="url(#linearGradient3407)"/>
  <path id="path3409" d="m19.367 93.186-1.812-0.044194-0.70711 0.57452 1.37 1.1932 1.9003 1.149-0.7513-2.8726z" fill="url(#linearGradient3411)"/>
  <path id="path3415" d="m17.467 91.551-2.1655 0.088388-0.97227-1.0165-0.48614-3.403 0.13258-0.26516 1.6352-0.17678 1.8562 4.773z" fill="url(#linearGradient3417)"/>
  <path id="path3419" d="m98.872 65.256 4.6846 3.2704 1.0165-0.35355-0.26517-3.3146-0.53033-1.1932c-0.41652-0.49683-1.0788-0.74785-1.7236-1.0165l-0.61872-0.17678-0.88388 0.13258-1.2374 0.92808-0.26516 0.17678-0.17678 1.5468z" fill="url(#linearGradient3421)"/>
  <path id="path3423" d="m104.88 71.178 4.6846 3.2704 1.0165-0.35355-0.26517-3.3146-0.53033-1.1932c-0.57452-0.57368-1.149-0.78601-1.7236-1.0165l-0.61872-0.17678-0.88388 0.13258-1.2374 0.92808-0.26516 0.17678-0.17678 1.5468z" fill="url(#linearGradient3425)"/>
  <path id="path3427" d="m112.17 76.967 4.6846 3.2704 1.0165-0.35355-0.26517-3.3146-0.53033-1.1932c-0.39835-0.515-0.97167-0.85502-1.7236-1.0165l-0.61872-0.17678-0.88388 0.13258-1.2374 0.92808-0.26516 0.17678-0.17678 1.5468z" fill="url(#linearGradient3429)"/>
  <path id="path3431" d="m98.872 65.256 4.6846 3.2704 1.0165-0.35355-0.26517-3.3146-0.53033-1.1932c-0.81381-0.61584-1.0922-0.87815-1.7236-1.0165l-0.61872-0.17678-0.88388 0.13258-1.2374 0.92808-0.26516 0.17678-0.17678 1.5468z" fill-opacity=".15686"/>
  <path id="path3433" d="m104.88 71.178 4.6846 3.2704 1.0165-0.35355-0.26517-3.3146-0.53033-1.1932c-0.65007-0.39647-1.0262-0.91181-1.7236-1.0165l-0.61872-0.17678-0.88388 0.13258-1.2374 0.92808-0.26516 0.17678-0.17678 1.5468z" fill-opacity=".15686"/>
  <path id="path3435" d="m112.17 76.967 4.6846 3.2704 1.0165-0.35355-0.26517-3.3146-0.53033-1.1932c-0.48651-0.44235-1.1232-0.68548-1.7236-1.0165l-0.61872-0.17678-0.88388 0.13258-1.2374 0.92808-0.26516 0.17678-0.17678 1.5468z" fill-opacity=".15686"/>
  <path id="path3437" d="m87.072 70.205 11.093-4.4636 4.6404 3.3588-11.314 5.1707-4.4194-4.0659z" fill="url(#linearGradient3439)"/>
  <path id="path3441" d="m92.818 75.951 11.093-4.4636 4.6404 3.3588-11.314 5.1707-4.4194-4.0659z" fill="url(#linearGradient3443)"/>
  <path id="path3445" d="m100.42 81.961 11.093-4.4636 4.6404 3.3588-11.314 5.1707-4.4194-4.0659z" fill="url(#linearGradient3447)"/>
  <path id="path3451" d="m16.273 86.734 12.64-3.182 2.6958 3.9333-13.391 3.8007-1.9445-4.552z" fill-opacity=".15686"/>
  <path id="path3453" d="m20.339 93.098 12.374-3.182 2.74 3.9333-13.258 3.7123-1.8562-4.4636z" fill-opacity=".15686"/>
  <path id="path3455" d="m26.659 99.683 11.137-2.7842 2.8284 3.8449-6.364 1.812-3.8891-1.0165-3.7123-1.8562z" fill-opacity=".15686"/>
  <path id="path3457" d="m87.072 70.205 11.093-4.4636 4.6404 3.3588-11.314 5.1707-4.4194-4.0659z" fill-opacity=".15686"/>
  <path id="path3459" d="m92.818 75.951 11.093-4.4636 4.6404 3.3588-11.314 5.1707-4.4194-4.0659z" fill-opacity=".15686"/>
  <path id="path3461" d="m100.42 81.961 11.093-4.4636 4.6404 3.3588-11.314 5.1707-4.4194-4.0659z" fill-opacity=".15686"/>
  <path id="path2683" d="m25.598 46.694 0.61872-3.0936 2.74-7.6898 6.7175-7.513 7.8666-5.0381 8.4853-1.6794 5.1265 0.26516 6.0104 1.4142 6.4524 3.5355 6.5407 6.9827 2.9168 6.0988 1.591 5.3033 0.26516 0.97227-1.7678 1.0607-6.6291 3.8891-5.8336 2.2097s-7.0711 1.5026-7.4246 1.5026c-0.35355 0-9.0156 0.35355-9.0156 0.35355l-10.165-1.8562-8.1317-2.8284-6.364-3.8891z" fill="url(#linearGradient2685)"/>
 </g>
 <g id="layer1">
  <path id="path2308" d="m53.213 21.262c-13.526 0-24.837 10.025-27.5 23.312-1.2714 0.64549-2.5088 1.328-3.6875 2.0312-9.8907 6.175-18.466 15.177-18.156 27.562-0.71607 3.2494-0.03125 10.243-0.03125 12.938-1e-7 10.321 6.9922 19.602 18.188 26.281 11.195 6.6793 26.619 10.812 43.625 10.812 6.4294 0 12.64-0.59167 18.469-1.6875l-0.84375-14.75c-0.24096-4.238 3.1895-13.954 4.9375-15.219l9.5 6.5938c0.5625 1.2164 0.935 2.4536 1.2812 3.6875 1.4853 5.2928 0.9782 10.958 0.8125 14.625l2.7188 0.90625c1.8303-0.87107 5.9386-3.6375 7.5938-4.625 11.195-6.6793 17.344-16.304 17.344-26.625 0-2.2763 0.54137-11.054 0-14.031-0.81124-12.371-8.9257-19.539-18.219-26.469-8.4519-5.0425-19.312-8.5839-31.438-10.031-4.7537-9.0977-13.97-15.312-24.594-15.312zm0 1c10.429 0 19.806 6.2818 24.469 15.375 1.1635 2.1228 2.1771 5.4469 2.7188 8.125-0.37162 0.32035-0.76401 0.63316-1.1562 0.9375l-0.5-1.0938c-1.0634-0.025904-2.1254-0.074771-3.1875-0.125 0.4089-0.61632 0.45361-1.1021 0.4375-1.875l-0.78125-3.125c-1.5761-0.6354-2.2082-1.9752-2.9688-3.375l-0.0625 0.0625c0.66591 1.0669 0.81328 2.6945 2.6875 3.6875 0.3252 0.86782 0.63995 2.0928 0.65625 2.875 0.012579 0.60361-0.42333 1.1282-0.9375 1.6875-0.062424-0.002121-0.12506 0.001894-0.1875 0-1.381 0.029293-2.829 0.30101-4.375 1.2188-0.80985 0.16012-1.5933 0.35775-2.3438 0.625-0.71346-0.2516-1.4638-0.34693-2.1875-0.46875-0.41816-2.2388-0.67029-5.2918 0.59375-6.9375 0.66689-1.2927 1.6591-2.2354 2.1875-3.5938 0.62076-1.303 1.4832-2.4785 0.71875-4l-3.9375-3.5312c-0.6435-1.1153-1.2918-2.035-2.4375-2.6875-1.251-0.54843-2.7753-0.13612-4.1875-0.4375l-0.09375 0.25c1.4035 0.29952 3.0319 0.16332 4.1562 0.65625 1.1244 0.49293 1.7239 1.5692 2.25 2.5625l3.8125 3.4062c0.57125 1.1904-0.053977 2.5232-0.59375 3.6562-0.54111 1.1358-1.4484 2.3002-2.1875 3.5312-1.4498 2.1868-1.2308 4.5977-0.8125 7.0312-0.3283-0.067637-0.63284-0.16482-0.9375-0.28125-1.2053-0.46061-2.5667-1.1814-3.4375-2.3438-0.44242-1.3125-0.45542-2.9869-1-4.4375-0.55689-1.4833-1.2878-2.9402-3.4062-4.0938l0.03125 0.0625c1.9333 1.0527 2.5347 2.9274 3.0312 4.25 0.27508 0.73272 0.34172 1.5365 0.4375 2.375-0.86126-0.54838-1.7602-0.76119-2.6562-0.65625-1.0912 0.1278-2.1498 0.63707-3.2188 1.2812-2.138 1.2884-4.0384 3.851-6.4688 4.75l0.03125 0.21875c2.6585-0.98342 4.8125-3.401 6.8438-4.625 1.0156-0.61203 2.1144-1.0874 2.9688-1.1875 0.73916-0.086567 1.7785 0.35271 2.5938 0.9375 0.067386 0.44243 0.16185 0.88104 0.3125 1.3125 0.83932 1.3887 2.3009 2.0347 3.6875 2.75 1.0902 0.41661 2.0047 0.39612 2.9688 0.65625-1.7189 0.7142-3.3752 1.6439-5.0625 2.5938-1.5605 0.69747-3.2839 0.73904-4.3438 0.53125-1.0599-0.20779-2.1469-0.36707-3.125-0.9375l-0.15625 0.0625c0.98973 0.57721 2.0264 1.1602 3.2812 1.4062s2.7249 0.14047 4.4375-0.625c2.5163-1.904 5.5922-2.6512 8.5625-3.5312 2.5062-1.4489 5.2942-0.96821 8.0938-0.875l0.03125 1c-6.8722 4.9814-16.491 7.6348-25.656 7.5938-7.2138-0.032346-14.661-1.7699-20.625-4.6562-0.15987-3.7441-1.2064-8.5558-0.28125-11.5 3.1406-0.65008 5.7707-3.2827 8.125-5.625 1.2324-0.88297 2.4613-1.2537 3.6562-1.4375 1.623 0.42378 2.89 1.1625 3.3438 1.6562 0.48936 0.5325 0.4769 1.5526 1.375 2.1875 1.9704 1.3012 2.4844 3.8449 3.4375 6.2812-0.88038-2.3046-0.85399-5.1884-3.2188-6.75-0.69895-0.4941-0.57441-1.4266-1.1875-2.0938-0.48262-0.52516-1.2125-1.0411-2.4375-1.4375 0.43375-0.035422 0.8596-0.05725 1.2812-0.09375 1.9262-0.16674 4.0101-0.47266 6.0938-0.90625 2.2246 0.31315 4.0267 1.9387 5.5 3.4688l0.15625-0.09375c-1.4999-1.5259-2.9549-3.4753-5.6562-3.7812-2.0308 0.36156-4.1 0.41415-6.1562 0.53125-2.0678 0.179-4.2558 0.65977-6.5625 2.3125-2.0678 2.1005-4.525 3.6478-7.125 4.9688 0.63546-1.4817 0.55932-2.2022 0.5-3.6562 0.26477-1.2222 1.256-2.2165 2-3.1875 0.79436-0.58984 2.1501-0.62179 3-1.5 0.99382-0.99031 2.0609-1.7536 3.3438-1.5625v-0.15625c-1.6274-0.42708-2.2621 0.51685-3.5312 1.5312-0.70083 0.72422-2.1046 0.64763-3 1.3125s-1.7505 1.5878-2.25 3.25c0.14901 1.5507-0.34916 2.9504-0.875 4.375-0.054643 0.026469-0.1015 0.067462-0.15625 0.09375-0.69686 2.1286-0.80317 4.3239-0.75 6.5312-1.2608-0.80384-2.3855-1.688-2.5938-3.1562h-0.15625c0.26013 1.8337 1.4137 3.0551 2.75 4 0.054502 1.2847 0.14733 2.5672 0.21875 3.8438-1.8894-0.99571-3.6081-2.0946-5.0938-3.3125 2.0075-13.574 13.757-24.062 27.281-24.062zm24.938 15c11.828 1.5512 22.298 5.2881 30.563 10.219 11.002 6.5641 18.062 15.564 18.062 25.438 0 4.4577-1.4726 8.8947-4.0312 12.969-2.118 3.7572-5.538 7.2686-9.1562 10.156l-0.46875-0.8125c9.4404-7.4874 14.531-16.897 12.375-26.938-2.6938-12.545-16.468-24.019-47.25-30.844-0.030155-0.062653-0.06319-0.12509-0.09375-0.1875zm0.3125 0.6875c30.127 6.8157 44.01 18.802 46.563 30.688 1.139 5.3043-0.00409 10.625-2.7812 15.594-1.6703-9.1426-7.744-17.052-16.281-23.062-6.3806-4.4923-14.144-7.9093-22.5-10.031l3.3438-2.3438h0.15625c0.021771-0.028124 0.041206-0.064753 0.0625-0.09375l5.5625-1.1875 3.25 2.1562 0.96875 4.875-0.6875-5.0625 3.3125-0.96875-0.1875-0.125-3.5312 0.8125-2.9375-2.1562-5.6562 1.5c0.55421-0.81607 0.98658-1.892 1.5-2.8125 1.8362-0.58338 2.261-1.2045 3.3438-1.8125l3.875 1.0625 0.09375-0.1875-3.9062-1.1562c-1.2337 0.30059-2.3954 1.2459-3.4688 1.9688-0.14167 0.1799-0.27366 0.36851-0.40625 0.5625l-1.6562-2.9062-0.1875-0.0625 1.5625 3.375c-0.46119 0.72345-0.88242 1.5062-1.3438 2.2188l-3.7812 2.1562c-0.61332-0.1496-1.2246-0.30212-1.8438-0.4375 0.9551-1.7245 1.3697-3.4851-0.15625-5.375-0.45852-2.5295-1.2439-4.9309-2.2812-7.1875zm-52.969 7.875-0.125 0.875c-0.67397 0.92478-1.3134 1.9156 0.46875 4.375 0.46983 0.27924 0.9369 0.56332 1.4062 0.84375 0.015659 2.5469 0.49328 4.8356 0.5 7.6562-7.8115 5.5936-14.728 13.533-18.813 24.062-1.9601-3.9051-2.9722-8.2492-2.3125-12.75 1.0843-7.3971 6.9137-16.725 18.875-25.062zm-1.0312 0.34375c-11.932 8.3496-17.309 16.737-18.438 24.438-1.1555 7.8832 2.1663 14.955 7.2188 20.406 7.2833 7.8585 19.326 12.324 31.531 14.906 0.73689 0.15593 1.4779 0.29702 2.2188 0.4375 0.45905 0.08705 0.98227 1.3962 1.375 2.1562l-0.03125 1.25c-0.43373-0.76964-0.90279-2.4522-1.3125-2.5312-9.4646-1.825-17.971-4.9869-24.75-9.0312-8.9918-5.2867-17.54-12.781-17.344-23.156-0.049209-0.68721-0.096576-1.42-0.125-2.125 1e-7 -9.873 6.9041-19.217 17.906-25.781 0.56234-0.3355 1.1619-0.64775 1.75-0.96875zm55.688 0.5625c1.9759 0.94674 1.3253 2.4718-0.21875 3.4062-9.5558 6.4403-19.996 8.6324-29.531 8-9.4995-0.63003-18.084-4.0676-23.625-7.6562-1.7939-1.3744-1.83-3.6689-0.21875-2.8125 6.5725 4.9911 16.281 7.6746 26.125 7.7188 10.085 0.04522 20.312-2.6799 27.469-8.6562zm0.53125 4.125c8.8628 1.9419 17.016 6.2172 24.781 10.875 8.398 5.9127 14.962 14.055 16.562 22.906-2.2714 3.923-5.1232 7.2197-9.1875 10.469-0.17081 0.13654 0.45474 1.9588 0.28125 2.0938-0.09443 0.073468-0.34518-0.3865-0.53125-0.625-0.00487-0.006243 0.00478-0.025309 0-0.03125-0.0727-0.090298-0.14948-0.12272-0.1875-0.09375-0.19215 0.14639-0.30472 1.1681-0.5 1.3125-0.18474 0.13664-1-1.0411-1.1875-0.90625-1.6091 1.1574-3.7033 2.4547-5.5 3.4687-1.1531-2.8748-2.817-5.0898-4.7188-6.8125-3.2811-4.3008-8.7894-6.8033-14.313-7.9688l-0.125-0.1875c-1.235 0.98779-2.3812 2.0382-3.4688 3.1562l-8.5-6.0625c1.9089-0.55786 3.9863-1.2298 6.3438-2.0625l-0.1875-1.6875c0.029397-0.014161 0.064421-0.017051 0.09375-0.03125l-2.9688-3.0625c1.1291-0.64607 2.2399-1.3612 3.3438-2.125 2.5767-2.0135 0.80381-5.7876-0.625-5.375-0.2625 0.20547-0.54255 0.39598-0.8125 0.59375-0.74438-5.4046-0.72435-11.064 0.03125-16.969 0.45997-0.29029 0.91913-0.5644 1.375-0.875zm-2.375 1.5-0.03125 17.062c-0.66707 0.45095-1.3578 0.8739-2.0625 1.2812l-0.1875-14.25c-0.55977-1.282-1.3122-1.4123-2.5312-1.2188-0.82452 0.46973-1.3244 1.544-1.3125 2.9375v14.562c-1.0689 0.46004-2.1632 0.87294-3.2812 1.25v-10.219c-0.78397-2.5123-2.7547-2.8306-5.0938-2.9062-2.843 0.4861-4.2359 2.2163-4.6875 4.9375l-0.15625 10.406c-1.3602 0.16809-2.7275 0.27704-4.0938 0.34375v-14.594c0.04123-1.3038-0.9556-2.1806-2-2.25-1.5045 0.099924-1.8867 0.88443-2.25 2.2188l0.0625 14.688c-0.86947-0.022739-1.7346-0.06168-2.5938-0.125l-0.09375-14.25c0.016547-1.4127-0.63061-1.9576-1.6875-2.6875-1.5511-0.18252-1.9974 0.56106-2.5 1.8125l0.0625 14.656c-1.0099-0.15701-2.0232-0.34846-3-0.5625l0.0625-14.781c0.013194-1.4651-0.51219-1.9696-1.6875-2.5938-0.98826-0.14828-2.0474 0.56045-2.3125 1.8125l-0.28125 14.406c-0.83008-0.27031-1.6508-0.55993-2.4375-0.875l0.09375-14.5c-0.057309-1.5738-0.77121-2.1012-1.9688-2.9062-1.0031-0.11938-2.002 0.54086-2.2188 1.5625v13.875c-0.6424-0.36715-1.2531-0.75264-1.8438-1.1562 0.3861-5.895-0.018427-11.878-0.03125-17.781 5.6364 3.1639 13.422 5.7415 22.031 6.3125 8.9958 0.59662 18.869-1.0075 28.031-6.4688zm-4 3c0.15739 0.060857 1.3515 1.0094 1.5312 1.3125l0.0625 14.469c-0.67571 0.3629-2.7339 1.1436-3.4375 1.4688l0.1875-14.562c-0.10062-1.3414 0.38744-2.222 1.6562-2.6875zm-42.094 0.90625c0.88515 0.3618 1.672 1.8239 1.8438 2.7188l-0.15625 14.188c-0.72162-0.31463-2.918-0.99054-3.5938-1.3438l0.25-14.312c0.12302-0.45766 1.1941-1.305 1.6562-1.25zm7 2c0.4706 0.070611 1.4948 1.1792 1.4062 2.25l-0.0625 15c-0.75357-0.18278-2.9914-0.75199-3.7188-0.96875l0.4375-14.594c0.13226-0.88812 1.3793-1.4499 1.9375-1.6875zm6.4062 1.4062c1.3645 0.1619 2.0971 1.5181 2.0625 2.3438l-0.03125 14.312c-0.746-0.069125-2.7976-0.08808-3.5312-0.1875l-0.0625-14.719c-0.11757-0.79364 1.1336-1.6469 1.5625-1.75zm7.1875 0.4375c0.78179 0.003098 1.543 0.62887 1.75 1.875v14.688c-0.72889 0.028709-2.7707-0.034393-3.5-0.03125l-0.09375-14.719c0.25961-1.196 1.062-1.8156 1.8438-1.8125zm-25.125 0.25c-0.1081 3.0742 0.14502 6.028-0.40625 9.25-0.36522-0.27751-0.72228-0.58233-1.0625-0.875-1.0269-0.053545-2.2105 3.5306-0.1875 5.0938 5.8809 4.3139 14.996 7.7085 25.125 8.125l-0.375 1.9062c0.041665 0.00256 0.0834-0.002491 0.125 0l-0.03125 1.4375c5.1318-0.21259 8.8895-0.14635 13.219-0.6875 0.32496 1.1586 2.4299 7.5992 4.0312 12.531 1.5755 4.8525 3.2743 10.242 3.375 10.562-5.2944 0.28993-11.765-0.43633-19.156-1.1562-0.31128-0.03032-1.2793 1.8115-1.5938 1.7812-0.46591-0.04474-0.53651-1.0161-1-1.0938-0.41484-0.06948-0.58495 0.85539-1 0.78125-0.54243-0.09689-1.0832-2.2076-1.625-2.3125-0.6278-0.12153-1.2499-0.24272-1.875-0.375-3.5076-0.7422-7.0144-1.6397-10.406-2.7188l6.0625-1.75-2.9688-4.1875-11.25 2.8125c-1.3015-0.5936-2.5689-1.2027-3.7812-1.875l12.875-3.6875-2.9375-4.1875-12.969 3.2188 1.625 3.8438c-0.37959-0.22815-0.75682-0.45052-1.125-0.6875l-0.75-3.3125c-1.0102 0.063537-2.0835-0.032146-2.8438 0.65625-1.0038-0.83396-1.9521-1.6967-2.8125-2.625-1.6931-1.8268-3.2046-3.8916-4.4375-6.0938 3.9369-10.625 10.514-18.717 18.156-24.375zm36.969 0.9375c1.5863 0.082097 3.0167 1.1273 3.6875 2.5938l0.0625 10.281c-2.5649 0.80096-6.17 1.6458-8.875 2.0312l0.15625-10.469c0.11897-2.3912 2.1481-3.8551 4.2812-4.4062 0.23121-0.028865 0.46089-0.042978 0.6875-0.03125zm36.875 1.125c-1.4166 0.037643-1.9747 0.68873-2.4688 1.1562-0.063602 0.02844-0.12196 0.068411-0.1875 0.09375l-0.03125 1.6562 4.9688 3.6562v-0.3125l0.84375-0.34375-0.1875-2.6875c-0.146-0.67629-0.14908-1.5286-0.5-2-0.52178-0.40805-0.9142-0.8107-2.4375-1.2188zm0.0625 0.1875c0.71523 0.37615 1.4808 0.5046 2.0938 1.1875 0.30844 0.5393 0.53017 1.233 0.59375 1.875l0.03125 2.4375-0.46875 0.25 0.0625-2.9688c-0.02414-1.5845-1.0826-1.7093-2-2.2812-0.87685-0.30532-1.4618-0.14269-2 0.09375 0.4827-0.32002 1.0345-0.57759 1.6875-0.59375zm-0.625 0.5625c0.24309 0.005001 0.48366 0.073514 0.78125 0.1875 1.5115 0.60588 2.038 1.4237 1.9375 2.375l-0.28125 2.4062-4.25-2.8438v-1.4062c0.56047-0.32263 1.0832-0.73375 1.8125-0.71875zm-2.9063 2.4062-11.281 4.6562 4.625 4.3125 11.781-5.4375-5.125-3.5312zm0.0625 0.375 4.1875 3.0625-10.875 4.9688-3.9688-3.5625c3.5626-1.4644 7.1105-2.9642 10.656-4.4688zm9.4375 2.3125c-1.4166 0.037644-1.9747 0.68873-2.4688 1.1562-0.0636 0.028437-0.12196 0.068411-0.1875 0.09375l-0.03125 1.6562 4.9688 3.6562v-0.3125l0.84375-0.34375-0.1875-2.6875c-0.146-0.67629-0.14908-1.5286-0.5-2-0.52178-0.40805-0.9142-0.8107-2.4375-1.2188zm0.0625 0.1875c0.71523 0.37616 1.4808 0.5046 2.0938 1.1875 0.30844 0.5393 0.53017 1.233 0.59375 1.875l0.03125 2.4375-0.46875 0.25 0.0625-2.9688c-0.02414-1.5845-1.0826-1.7093-2-2.2812-0.87685-0.30532-1.4618-0.14269-2 0.09375 0.48271-0.32002 1.0345-0.57759 1.6875-0.59375zm-0.625 0.5625c0.2431 0.005002 0.48366 0.073514 0.78125 0.1875 1.5115 0.60588 2.038 1.4237 1.9375 2.375l-0.28125 2.4062-4.25-2.8438v-1.4062c0.56048-0.32263 1.0832-0.73375 1.8125-0.71875zm-26.563 0.1875c1.209-0.13084 1.7156 1.8801-0.5 3.5625-1.0625 0.76178-2.139 1.4714-3.2188 2.125l-0.6875-0.6875-1.3125 0.625-0.84375-0.75-0.9375 0.375-0.625-0.59375-0.0625 0.03125v-0.125l-1.0938 0.375-0.09375-0.09375c3.3213-1.1866 6.4159-2.7432 9.125-4.7812 0.086252-0.028425 0.1694-0.053777 0.25-0.0625zm-53.875 1.125c6.2027 4.7703 15.321 6.7197 25.094 6.75 1.8825 0.005828 3.7822-0.067441 5.6875-0.21875l-0.03125 0.25-1.2188 0.15625v0.09375l-0.0625-0.0625-0.1875 1.0312-2.1875-0.03125-0.125 0.9375-1.7812-0.125-0.46875 2.2812c-9.9506-0.38794-18.843-3.875-24.5-8.2812-1.1283-0.31704-1.7581-2.4594-0.21875-2.7812zm77.531 1.0938-11.281 4.6562 4.625 4.3125 11.781-5.4375-5.125-3.5312zm0.0625 0.375 4.1875 3.0625-10.875 4.9688-3.9688-3.5625c3.5626-1.4644 7.1105-2.9642 10.656-4.4688zm10.656 2.2812c-1.4166 0.037642-1.9747 0.68873-2.4688 1.1562-0.0636 0.028435-0.12196 0.068411-0.1875 0.09375l-0.03125 1.6562 4.9688 3.6562v-0.3125l0.84375-0.34375-0.1875-2.6875c-0.146-0.67629-0.14908-1.5286-0.5-2-0.52178-0.40805-0.9142-0.8107-2.4375-1.2188zm-42.969 0.0625 2.3125 1.9688c-4.9392 2.0192-11.72 4.3607-18.188 3.7812l0.40625-2.3125-0.125-0.09375 1-0.09375-0.15625 0.90625c0.031106-0.001084 0.062716 0.001041 0.09375 0l0.0625 1.2188c4.3763-0.12896 9.2991-0.39736 14.719-2.9062l0.125-1.2188c0.056638-0.020161 0.099125-0.042046 0.15625-0.0625l-0.90625-1 0.5-0.1875zm-1.3125 0.09375 0.6875 0.96875c-4.265 1.5479-9.1452 2.8069-13.594 2.625l0.1875-1c4.347-0.3768 8.6952-1.2165 12.719-2.5938zm44.344 0.03125c0.71523 0.37615 1.4808 0.5046 2.0938 1.1875 0.30844 0.5393 0.53017 1.233 0.59375 1.875l0.03125 2.4375-0.46875 0.25 0.0625-2.9688c-0.02414-1.5846-1.0826-1.7093-2-2.2812-0.87685-0.30532-1.4618-0.14269-2 0.09375 0.48271-0.32002 1.0345-0.57759 1.6875-0.59375zm-40.906 0.25 2.9062 2.9062c-7.7481 3.456-16.306 5.0709-23.531 4.5938l0.71875-3.375 1.7188-0.09375-0.34375 1.875c0.030772 0.003615 0.062978-0.003479 0.09375 0v1.0938c7.2216 0.029975 11.874-0.83796 19.156-3.9688v-1.25c0.041583-0.017855 0.083588-0.04468 0.125-0.0625l-1.6875-1.5938 0.84375-0.125zm1.9375 0.125 3.8438 3.9688c-8.9515 4.4985-20.36 5.4827-28.594 4.9375l1-4.0625 1.3438-0.03125-0.46875 2.9688c0.010305 2.17e-4 0.020941-2.11e-4 0.03125 0l0.03125 0.65625c8.2675 0.17643 11.792-0.09699 24.594-4.2188v-1.2188c0.021207-0.009199 0.041308-0.022024 0.0625-0.03125l-2.8438-2.5938 1-0.375zm38.344 0.1875c0.2431 5e-3 0.48366 0.073514 0.78125 0.1875 1.5115 0.60588 2.038 1.4237 1.9375 2.375l-0.28125 2.4062-4.25-2.8438v-1.4062c0.56048-0.32263 1.0832-0.73375 1.8125-0.71875zm13.031 0.6875c0.29483 2.8555-0.5625 9.539-0.5625 11.594 0 9.873-5.9353 19.561-16.938 26.125-1.0797 0.64417-5.8728 3.8425-7.0312 4.4375-0.63641-2.5154-0.32862-9.9212-1.125-14.656-2.0708-5.3143-5.7233-8.3548-9.2813-10.031-0.097382-0.054431-0.21207-0.10229-0.3125-0.15625-1.195-0.65797-2.5347-0.94404-3.8438-1.2812-1.9235 1.7066-5.3093 7.7742-5.625 15.531-0.27022 6.6406 0.32384 10.199 0.875 15-5.0917 0.82626-12.059 1.4375-17.594 1.4375-16.842 0-32.279-4.436-43.281-11-5.7122-3.408-10.349-7.4893-13.5-12l1-2.125c0.56544 0.044523 1.3227-0.41751 1.8438-0.4375 0.74973-0.66993 0.63578-1.6342 1-2.5938l0.8125-0.65625 0.1875-0.125-1.2812 0.4375c-0.35702 0.91098-0.68647 1.8339-1.0312 2.75-0.27194 0.027263-0.78074-0.022681-1.1875-0.0625l0.15625-0.34375 0.375-3.5 0.3125-1.6562-0.0625-0.0625-0.75 1.4375-0.125 3.4062-0.90625 1.0625-0.84375-3.375-0.1875-2.25-0.1875-0.25v2.5l0.71875 3.9688-0.625 0.71875c-2.4325-3.8547-3.7812-8.0017-3.7812-12.312 0-1.8965-0.328-6.672-0.25-9.7188 1.9809 8.1427 8.58 16.385 17.781 21.875 6.8686 4.0979 15.36 6.8693 24.781 8.7812 0.70716 0.14351 1.0908 1.3712 1.4688 2.2812l-1.3125 3-3.75 1.8438-0.875 2.4062 0.1875 0.0625 0.9375-2.4375 2.0625-0.75 1.25 4.625 0.125-0.0625-0.71875-4.8125 1.0938-0.40625 1.0938-3.25c0.020652 0.04637 0.041798 0.11301 0.0625 0.15625 0.15788-0.09363 0.92206-0.93973 1.0938-1.125 0.13104 0.11326 0.86868 1.8949 1.125 2.125 0.20294-0.2698 1.1087-2.58 1.7188-2.5 4.2808 0.56105 8.7225 0.875 13.281 0.875 3.8141 0 9.0332-0.35378 12.656-0.75-0.006715-0.19202 0.0034-0.37276 0-0.5625 0.16237-8.5528 1.6197-16.659 9.4375-20.656 0.61486 0.088013 1.4006 0.25837 2.2812 0.5l0.40625 1.875-1.5625 0.75-0.0625 0.0625 1.875-0.46875 0.125-0.78125 0.75 1.5312 4.0938 1.9375 2.0625 2.8125 0.25-0.0625-1.6562-2.75 2-0.15625-2.4062-0.28125-3.8125-1.6875-1.0312-2.4688c4.639 1.5139 11.307 5.2862 13.813 13.875 2.8481-1.2062 2.2512-1.8091 4.7188-3.2812 0.60303-0.35978 1.2054-0.7174 1.7812-1.0938 0.13134-0.085832 0.38179 0.2715 0.625 0.5625l0.03125 0.25-0.15625 1.4687 1.25 2.5938v0.21875l-0.0625 0.03125 0.09375 0.09375 0.1875 3.9688 0.1875-3.4375 2 2.5625 0.15625-0.0625-2.0938-3.2812v-0.15625l-1.4688-2.6562 0.15625-1.3125c0.0523 0.033335 0.12117 0.054998 0.15625 0.03125 0.21691-0.14682 0.16218-1.2258 0.375-1.375 0.13958-0.097819 0.62468 0.90463 0.96875 1.4375l0.28125 1.1562h0.15625l1.4062 3.375 0.125-0.09375-0.90625-3.25 2.4062 0.0625 1.875 2.1875 0.09375-0.0625-1.4375-1.9375 1.75 0.46875-0.0625-0.125-1.875-0.59375-0.125-0.15625-3.0938 0.03125-0.28125-0.75c0.19186-0.13883-0.46961-2.828-0.28125-2.9688 7.7591-5.7969 12.552-13.203 13.469-21.125zm-13.938 32.031-0.03125 0.3125 0.03125-0.03125v-0.28125zm-41.781-32 0.125 0.78125c-5.3036 1.827-9.4322 2.9677-13.938 2.7812l-0.0625-0.84375c3.2754-0.094459 6.4224-0.11796 13.875-2.7188zm2.6562 0.9375 0.0625 0.78125c-6.0141 2.8553-12.257 4.2033-18.469 3.8125l0.0625-0.625c6.5664 0.63636 13.09-1.7329 18.344-3.9688zm37.125 0.75-11.281 4.6562 4.625 4.3125 11.781-5.4375-5.125-3.5312zm0.0625 0.375 4.1875 3.0625-10.875 4.9688-3.9688-3.5625c3.5626-1.4644 7.1105-2.9642 10.656-4.4688zm-33.906 0.09375 0.0625 0.9375c-7.1105 2.4836-14.839 4.7559-24.219 4.2812l-0.03125-0.5c7.6853 0.12217 16.437-1.3922 24.188-4.7188zm2.375 1.1875 0.15625 1.125c-8.9623 3.9107-18.985 4.8207-28.781 4.9375l-0.21875-1.0938c12.153 0.70847 21.541-1.5261 28.844-4.9688zm-5.9375 3.625 8.4375 6.2188c-1.4653 1.5331-2.8027 3.1971-3.9688 5-1.2392 2.6696-1.8012 8.5397-1.9062 13.406-1.3936 0.25915-3.0445 0.45828-4.875 0.5625-0.088431-0.29662-1.7033-5.7336-3.2812-10.594-1.6102-4.9593-3.738-11.587-4-12.531 2.7741-0.35992 5.8184-0.96652 9.5938-2.0625zm-45.031 0.90625-12.969 3.2188 2.0938 4.9062 13.812-3.9375-2.9375-4.1875zm-0.15625 0.375 2.3438 3.625-12.75 3.5625-1.8438-4.0625c4.0843-1.0083 8.1606-2.0743 12.25-3.125zm57.375 2.0312 0.96875 1.6875c-3.1031 2.619-9.1419 6.6173-9.4062 20.156l-0.75-0.9375c-0.045924-5.6386 0.65662-9.5361 2.3438-12.5 1.9714-2.7827 3.0591-5.5102 6.8438-8.4062zm0.3125 0.125c3.6996 0.5033 8.7174 2.6815 11.969 5.875-2.4345-1.6599-5.0651-2.6986-7.4375-3.4062l0.5625-0.875-0.125-0.0625-0.96875 0.5-1.2812-1.0938-0.1875 0.125 0.75 1.0625c-0.8177-0.21576-1.6076-0.40612-2.3125-0.5625l-0.96875-1.5625zm-70.844 0.65625-1.7812 0.3125-0.125 0.34375 0.625 3.4375 0.875 1.1562 2.5938-0.1875-2.1875-5.0625zm-0.09375 0.375 1.7812 4.5-1.625-0.28125v-2.0938l-1.2188-2 1.0625-0.125zm-1.1562 0.125 0.96875 2.25-0.15625 1.6562-0.625-0.28125-0.5-3.5938 0.3125-0.03125zm18.344 3 2.3438 3.5938-12.688 3.5938c-0.032237-0.018446-0.061587-0.043994-0.09375-0.0625l-1.8125-4.0312c4.0843-1.0083 8.1606-2.0431 12.25-3.0938zm55.719 2.3125c1.5632 0.35141 3.52 0.97658 5.4062 1.9688 1.8207 1.3293 2.9198 2.7991 3.6875 4.3125l-9.0938-6.2812zm-69.906 0.90625c0.21087 0.010167 0.42392 0.070949 0.65625 0.15625l0.5625 2.1875c-0.86276-0.57933-1.6795-1.2116-2.4688-1.8438 0.36248-0.32778 0.7875-0.5223 1.25-0.5zm94.531 2.3125 0.34375 0.65625c-8.6e-4 0.014518-3.9e-4 0.014052 0 0.03125 0.0115 0.51165 0.57325 2.183 0.40625 2.3125-0.00629 0.004877-0.02316-3.29e-4 -0.03125 0l-0.3125-1.125c0.1341-0.103-0.29898-1.3143-0.40625-1.875zm-17.063 0.09375c2.581 1.866 4.6782 4.5496 4.9375 8.25l0.96875 13.656-1.5625-0.25c0.17759-3.6342 0.53976-9.3432-0.96875-14.719-0.67049-2.3893-1.3463-4.7655-3.375-6.9375zm16.438 1.2188 0.1875 0.375v0.03125c-0.20292 0.21377-0.092 1.3037-0.3125 1.4688-0.01582 0.011839-0.04247-4.97e-4 -0.0625 0l-0.15625-0.65625c0.02522 0.007182 0.04686 0.011398 0.0625 0 0.17901-0.13048 0.10473-1.0868 0.28125-1.2188zm0.28125 0.09375c0.19793 0.13883 0.42594 0.3579 0.59375 0.4375l0.25 0.96875c-0.22911-0.27505-0.54074-0.77529-0.75-1l-0.09375-0.40625zm-74.875 0.03125 2.3125 3.5937-6.0625 1.6875c-2.3369-0.76773-4.6121-1.6327-6.7812-2.5937 3.5118-0.87379 7.0134-1.7837 10.531-2.6875zm73.156 0.09375c0.25462 0.17314 0.69848 0.73255 0.96875 0.9375l0.0625 0.625c-0.29297-0.24465-0.70049-0.81137-0.9375-0.90625l-0.09375-0.65625zm-0.21875 0.03125 0.0625 0.71875c-0.54589 0.39961-1.0824 0.8024-1.625 1.1875-1.9674 1.1738-1.7755 1.348-3.4688 2.5312-0.12406-0.38321-0.29685-0.73148-0.4375-1.0938 1.936-1.1583 3.8489-2.2022 5.4688-3.3437zm-58.625 10.344c9.7662 1.3868 19.213 1.1349 24.75 0.03125l0.78125 0.5625c-8.92e-4 0.09668 3.07e-4 0.18361 0 0.28125-3.1363 0.29782-8.7233 0.5625-12 0.5625-4.6634 0-9.1685 0.07568-13.562-0.53125-0.32252-0.04455-1.049 2.1552-1.2812 2.5938-0.042222-0.00627-0.087312-0.03368-0.125-0.0625l0.0625-2c0.41824-0.22338 0.9993-1.4908 1.375-1.4375zm-2.4375 0.40625c0.37625 0.06191 0.4887 0.82773 0.8125 1.0312l0.0625 1.875c-0.33124-0.48732-0.49339-1.7445-0.90625-1.8125-0.010222 0.00541-0.020748 0.02462-0.03125 0.03125 0.004381-0.35651 0.049138-0.76111 0.0625-1.125zm-0.09375 0.03125c-0.051087 0.4119-0.14116 0.88155-0.15625 1.25-0.2761 0.27981-0.60442 0.75023-0.84375 0.875-0.047484-0.03372-0.10735-0.08837-0.15625-0.15625l0.0625-1.1875c0.008726 0.01517 0.022756 0.04831 0.03125 0.0625 0.23401-0.3427 0.69747-0.81719 1.0625-0.84375zm1.1562 3.5312 1.75 1.7812-0.75 6.6562h0.25l0.53125-3.5c1.173 0.92609 3.0141 1.4356 4.2188 2.2188l0.125 2.4375h0.0625l0.0625-2.625-4.4062-2.4375 0.46875-3.125-2.3125-1.4062z"/>
 </g>
</svg>
