<?xml version="1.0" encoding="UTF-8"?>
<!DOCTYPE svg  PUBLIC '-//W3C//DTD SVG 1.0//EN'  'http://www.w3.org/TR/2001/REC-SVG-20010904/DTD/svg10.dtd'>
<!-- Created with Sodipodi ("http://www.sodipodi.com/") -->
<svg id="svg32" width="437.5" height="437.5" version="1.0" xmlns="http://www.w3.org/2000/svg" xmlns:xlink="http://www.w3.org/1999/xlink">
 <defs id="defs34">
  <linearGradient id="linearGradient129">
   <stop id="stop130" stop-color="#7a877d" offset="0"/>
   <stop id="stop131" stop-color="#222f45" offset="1"/>
  </linearGradient>
  <linearGradient id="linearGradient132" y2="1" xlink:href="#linearGradient129"/>
 </defs>
 <path id="path874" d="m44.657 193.32c-58.037-18.117 130.77-138.82 142.64-157.47 9.3454-17.038 12.44 7.3432 30.438 6.9866 15.158-1.1647 37.779-31.084 42.274-2.875 3.2827 21.757 219.38 127.18 156.36 154.13-34.36-21.705-164.27-101.21-193.73-124.33-28.391 17.888-154.74 108.06-177.99 123.57z" fill="#fff" fill-rule="evenodd" stroke="#000" stroke-linejoin="round" stroke-width="4.7104"/>
 <path id="path19" d="m27.67 402.07c24.672 16.934 69.116 21.194 81.425 22.33 83.556 4.5691 235.07 13.514 307.86-17.027-1.6989-44.02-41.132-100.91-56.235-77.711-17.51-13.738-5.5724-10.324-10.041-10.324-40.304-26.184-230.42-19.576-272.06 2.2864-19.029-17.072-30.235 26.78-50.955 80.446z" fill="#fff" fill-rule="evenodd" stroke="#000" stroke-width="6.3119"/>
 <path id="path20" d="m80.48 369.94c5.8545 11.812-25.806 40.853-14.82 46.004 125.74-12.315 163.95-20.397 233.13 2.7322 7.9695-5.6052 77.089-47.432 60.712-51.468-25.324-3.6442-178.21-4.6553-279.02 2.7321z" fill-opacity=".2266" fill-rule="evenodd"/>
 <path id="path52" d="m161.42 306.74c1.4661 7.4541 0.9696 48.695-0.3922 61.445-7.7995 2.6293-33.648 2.6727-44.573 0.6407-0.0437-8.5549-0.1514-56.364 0.4724-62.086 6.0142 0.7771 41.253-0.5539 44.492 5e-4z" fill="#b80000" fill-rule="evenodd" stroke="#000" stroke-linejoin="round" stroke-width=".52058"/>
 <path id="path12" d="m78.774 349.79c0-17.59 2.509-46.56 2.509-57.693 0-6.0722-8.407-106.55-8.407-112.62 0-2.1956 140.4-107.75 145.96-107.75 70.49 45.345 161.23 101.89 168.33 111.6 1.8214 3.5255-31.036 151.8-31.036 162.82 0 3.8461-0.1341 12.146-0.6273 20.041-12.55-0.6079-187.96 0.6812-193.29-0.607-2.2207-13.809 3.27-56.558 1.5781-59.652-2.9654-4.8306-41.43-5.2236-49.408-2.0144-3.9852 1.6032 5.0187 63.489-0.8381 63.489h-33.516c-1.5983-0.7738-1.2545-12.574-1.2545-17.612z" fill="#fff" fill-rule="evenodd" stroke="#000" stroke-width="9.4208"/>
 <path id="path408" d="m72.41 174.33c11.795-9.2853 141.52-103.92 147.08-103.92 11.515 3.8113 160.57 103.99 167.68 110.28 1.8214 2.2832-18.72 87.102-19.214 92.215-12.551-0.3937-280.48-2.4897-289.89-2.4897-1.5983-0.5012-6.9638-81.674-5.6528-96.092z" fill="#7b3b00" fill-rule="evenodd" stroke="#000" stroke-width="7.5814"/>
 <path id="path410" d="m216.22 218.64c-0.655 20.751 7.208 27.958 1.311 48.49" fill="none" stroke="#6b0000" stroke-width="5"/>
 <path id="path411" d="m309.27 217.98c-0.655 20.751 7.208 27.958 1.311 48.49" fill="none" stroke="#6b0000" stroke-width="5"/>
 <path id="path412" d="m279.78 218.64c-0.655 20.751 7.208 27.958 1.311 48.49" fill="none" stroke="#6b0000" stroke-width="5"/>
 <path id="path413" d="m247.02 218.64c-0.655 20.751 7.208 27.958 1.311 48.49" fill="none" stroke="#6b0000" stroke-width="5"/>
 <path id="path414" d="m342.03 217.98c-0.655 20.751 7.208 27.958 1.311 48.49" fill="none" stroke="#6b0000" stroke-width="5"/>
 <path id="path415" d="m375.45 219.29c-58.789-1.966-133.67 3.931-165.13-5.898" fill="none" stroke="#720000" stroke-width="5"/>
 <path id="path416" d="m216.22 218.64c-0.655 20.751 7.208 27.958 1.311 48.49" fill="none" stroke="#6b0000" stroke-linecap="round" stroke-width="5"/>
 <path id="path417" d="m309.27 217.98c-0.655 20.751 7.208 27.958 1.311 48.49" fill="none" stroke="#6b0000" stroke-linecap="round" stroke-width="5"/>
 <path id="path418" d="m279.78 218.64c-0.655 20.751 7.208 27.958 1.311 48.49" fill="none" stroke="#6b0000" stroke-linecap="round" stroke-width="5"/>
 <path id="path422" d="m210.32 218.64c-0.655 20.751 7.208 27.958 1.311 48.49" fill="none" stroke="#000" stroke-width="5"/>
 <path id="path423" d="m303.37 217.98c-0.655 20.751 7.208 27.958 1.311 48.49" fill="none" stroke="#000" stroke-width="5"/>
 <path id="path424" d="m273.89 218.64c-0.655 20.751 7.208 27.958 1.311 48.49" fill="none" stroke="#000" stroke-width="5"/>
 <path id="path425" d="m241.12 218.64c-0.655 20.751 7.208 27.958 1.311 48.49" fill="none" stroke="#000" stroke-width="5"/>
 <path id="path426" d="m336.14 217.98c-0.655 20.751 7.208 27.958 1.311 48.49" fill="none" stroke="#000" stroke-width="5"/>
 <path id="path427" d="m369.55 219.29c-58.789-1.966-133.68 3.931-165.13-5.898" fill="none" stroke="#000" stroke-width="5"/>
 <path id="path428" d="m210.32 218.64c-0.655 20.751 7.208 27.958 1.311 48.49" fill="none" stroke="#000" stroke-linecap="round" stroke-width="5"/>
 <path id="path429" d="m303.37 217.98c-0.655 20.751 7.208 27.958 1.311 48.49" fill="none" stroke="#000" stroke-linecap="round" stroke-width="5"/>
 <path id="path70" d="m311.93 192.38v37.992h16.017v-37.992h-16.017z" fill="url(#linearGradient132)" fill-rule="evenodd" stroke="#fff" stroke-width="1.2839"/>
 <path id="path71" d="m330.86 189.18c0 2.9115 0.9785 39.54 0.6682 45.425 4.3414 1.0215 17.895 2.6104 21.038 4.0071-0.4989-13.36 1.085-44.979-0.3338-52.995-3.652 0.9045-18.792 3.1174-21.372 3.5632z" fill="#b40000" fill-rule="evenodd" stroke="#000" stroke-linejoin="round" stroke-width="2.9426"/>
 <path id="path72" d="m301.81 189.63c-0.6105 0-0.3338 1.5405-0.3338 2.1585 0 10.794 0.529 35.403 0.3338 42.742-3.6402 0-16.774 3.7866-20.036 4.3176-0.346-5.8363-1.6318-47.59-0.3343-52.672 5.0091 2.2514 15.512 4.317 17.365 4.317 0.8908 0 1.7811 0 3.0057-0.8632z" fill="#b50000" fill-rule="evenodd" stroke="#000" stroke-linejoin="round" stroke-width="2.8973"/>
 <path id="path430" d="m273.89 218.64c-0.655 20.751 7.208 27.958 1.311 48.49" fill="none" stroke="#000" stroke-linecap="round" stroke-width="5"/>
 <path id="path431" d="m241.12 218.64c-0.655 20.751 7.208 27.958 1.311 48.49" fill="none" stroke="#000" stroke-linecap="round" stroke-width="5"/>
 <path id="path432" d="m336.14 217.98c-0.655 20.751 7.208 27.958 1.311 48.49" fill="none" stroke="#000" stroke-linecap="round" stroke-width="5"/>
 <path id="path433" d="m369.55 219.29c-58.789-1.966-133.68 3.931-165.13-5.898" fill="none" stroke="#000" stroke-linecap="round" stroke-width="5"/>
 <path id="path419" d="m247.02 218.64c-0.655 20.751 7.208 27.958 1.311 48.49" fill="none" stroke="#6b0000" stroke-linecap="round" stroke-width="5"/>
 <path id="path420" d="m342.03 217.98c-0.655 20.751 7.208 27.958 1.311 48.49" fill="none" stroke="#6b0000" stroke-linecap="round" stroke-width="5"/>
 <path id="path421" d="m375.45 219.29c-58.789-1.966-133.67 3.931-165.13-5.898" fill="none" stroke="#720000" stroke-linecap="round" stroke-width="5"/>
 <path id="path435" d="m198.58 123.74v49.656h50.638v-49.656h-50.638z" fill="url(#linearGradient132)" fill-rule="evenodd" stroke="#fff" stroke-width="2.61"/>
 <path id="path436" d="m252.26 120.61c0 3.4248 1.92 46.51 1.311 53.433 8.519 1.2016 35.114 3.0706 41.282 4.7135-0.979-15.715 2.129-52.908-0.655-62.338-7.166 1.064-36.875 3.667-41.938 4.1914z" fill="#b40000" fill-rule="evenodd" stroke="#000" stroke-linejoin="round" stroke-width="4.4706"/>
 <path id="path437" d="m195.25 121.14c-1.198 0-0.655 1.812-0.655 2.539 0 12.696 1.038 41.644 0.655 50.277-7.143 0-32.914 4.4541-39.316 5.0788-0.679-6.8652-3.202-55.979-0.656-61.958 9.829 2.6483 30.438 5.078 34.074 5.078 1.748 0 3.495 0 5.898-1.0153z" fill="#b50000" fill-rule="evenodd" stroke="#000" stroke-linejoin="round" stroke-width="4.4018"/>
 <path id="path439" d="m241.78 216.02 1.311 19.002 84.53-0.655v-18.347h-85.841z" fill-rule="evenodd"/>
 <path id="path440" d="m243.09 212.09 1.311 19.002 84.53-0.655v-18.347h-85.841z" fill="#98621d" fill-rule="evenodd"/>
 <path id="path441" d="m262.75 211.43c-2.496 2.495-10.545 3.871-12.45 1.966-1.922-1.922-4.587-8.997-4.587-12.451 7.816-3.908 15.487 2.621 23.589 2.621 3.833 1.278 0.624 1.342 2.621-0.655 0.563-1.688 0.363-4.587 1.966-4.587 0.845-2.534 1.311-3.804 1.311-6.553 2.068 1.379 5.028 4.587 7.208 4.587 0 1.29 8.238 0.656 7.208 0.656-0.705 2.817-1.728 7.416 2.621 5.242 2.105-4.212 3.931-7.57 3.931-12.45 0 3.329 0.656 6.86 0.656 10.484 5.4 1.8 6.203-2.927 9.829-6.553 2.513-5.027 1.965-5.676 1.965-1.31 0 3.201-1.182 5.242 1.966 5.242 1.335-1.668 4.587-8.524 4.587-3.932 0 1.335-0.586 8.449 2.621 5.242 4.167-4.166 4.84-3.379 6.553-8.518l0.655-0.655c-0.859 3.436-1.724 7.379-3.276 10.484-1.833 0.917-3.34 3.868-5.242 1.966-3.527 0-0.656 7.601-0.656 10.485 0.655 7.498-10.996 0.654-8.518-2.622-4.15 4.587-8.3 0.655-12.45 0.655-9.244 5.605-8.722 1.311-12.45 1.311-2.067 0-6.553 0.89-6.553 2.621-3.985 0-7.015-1.311-11.14-1.311l-1.965-1.965z" fill="#117d00" fill-rule="evenodd"/>
 <path id="path63" d="m253.4 191.92c0 1.344-3.859 3.338-5.213 4.692-1.205 1.507-4.831 5.074-2.606 7.299 1.909 0.954 4.17 0.905 4.17 3.127 1.121 2.241-0.086 2.607 2.607 2.607 3.115 0 4.692-3.402 4.692-6.256 0.758-0.758 0.183-2.085 1.563-2.085 0.7-0.699 2.658-2.607 1.564-2.607-0.888-1.776-3.649-1.205-3.649-2.606-1.065-1.066-2.561-3.128-3.128-4.171z" fill="#890000" fill-rule="evenodd"/>
 <path id="path65" d="m291.46 191.92c0 1.411-1.378 3.8-2.085 5.213 0 1.884 2.085 0.704 2.085 3.128-0.726 0.364-5.019 3.65-2.085 3.65 2.541 1.27 3.209-0.081 4.692-1.564 1.146-1.147-0.372-6.256 1.564-6.256 3.126-3.126 0.937-1.149-0.522-2.607-0.673 0-3.649-1.353-3.649 0 2.976 0 0-1.353 0-1.564z" fill="#890000" fill-rule="evenodd"/>
 <path id="path59" d="m256.01 186.71c0 1.344-3.859 3.338-5.213 4.692-1.205 1.507-4.831 5.074-2.606 7.299 1.909 0.954 4.17 0.905 4.17 3.127 1.121 2.241-0.086 2.607 2.607 2.607 3.115 0 4.692-3.402 4.692-6.256 0.758-0.758 0.183-2.085 1.563-2.085 0.7-0.699 2.658-2.607 1.564-2.607-0.888-1.776-3.649-1.205-3.649-2.606-1.065-1.066-2.561-3.128-3.128-4.171z" fill="#f00" fill-rule="evenodd"/>
 <path id="path61" d="m294.06 186.71c0 1.411-1.378 3.8-2.085 5.213 0 1.884 2.085 0.704 2.085 3.128-0.726 0.364-5.019 3.65-2.085 3.65 2.541 1.27 3.209-0.081 4.692-1.564 1.146-1.147-0.372-6.256 1.564-6.256 3.126-3.126 0.937-1.149-0.522-2.607-0.673 0-3.649-1.353-3.649 0 2.976 0 0-1.353 0-1.564z" fill="#f00" fill-rule="evenodd"/>
 <path id="path66" d="m310.23 192.45c-1.858 0-4.114 0.985-5.214 2.085-3.634 0-2.192 4.278-4.691 6.777 0 2.208 0.82 2.607 3.127 2.607 1.895 0.473 7.299 1.455 7.299-2.086 1.446-2.891 0.091-5.213 3.649-5.213 2.244-1.122 1.826-1.433-0.521-2.606-1.623-1.082-1.815-1.564-3.649-1.564z" fill="#890000" fill-rule="evenodd"/>
 <path id="path62" d="m312.83 187.23c-1.858 0-4.114 0.985-5.214 2.085-3.634 0-2.192 4.278-4.691 6.777 0 2.208 0.82 2.607 3.127 2.607 1.895 0.473 7.299 1.455 7.299-2.086 1.446-2.891 0.091-5.213 3.649-5.213 2.244-1.122 1.826-1.433-0.521-2.606-1.623-1.082-1.815-1.564-3.649-1.564z" fill="#f00" fill-rule="evenodd"/>
 <path id="path64" d="m276.86 190.36c-2.29 0-4.245 2.086-6.777 2.086-0.832 0.832-1.073 5.734-2.085 5.734-0.654 1.308-1.344 4.171 0.521 4.171 1.931 0.643 1.491 0.594 0 2.085-1.398 0.699-5.992 3.649-2.606 3.649 3.257 0 3.077-5.213 6.256-5.213 1.918-1.918 5.136-2.085 7.819-2.085 2.907-2.907-1.384-3.991-3.128-5.735-0.535-0.535 1.105-1.104 2.086-2.085 1.043-1.043 0.061-1.564-2.086-2.607z" fill="#890000" fill-rule="evenodd"/>
 <path id="path60" d="m279.47 185.15c-2.29 0-4.245 2.086-6.777 2.086-0.832 0.832-1.073 5.734-2.085 5.734-0.654 1.308-1.344 4.171 0.521 4.171 1.931 0.643 1.491 0.594 0 2.085-1.398 0.699-5.992 3.649-2.606 3.649 3.257 0 3.077-5.213 6.256-5.213 1.918-1.918 5.136-2.085 7.819-2.085 2.907-2.907-1.384-3.991-3.128-5.735-0.535-0.535 1.105-1.104 2.086-2.085 1.043-1.043 0.061-1.564-2.086-2.607z" fill="#f00" fill-rule="evenodd"/>
 <path id="path67" d="m128.08 191.7v48.637h38.96v-48.637h-38.96z" fill="url(#linearGradient132)" fill-rule="evenodd" stroke="#fff" stroke-width="2.2657"/>
 <path id="path68" d="m172.14 189.34c0 3.3606 1.3624 45.639 0.9302 52.431 6.0447 1.1791 24.915 3.0131 29.292 4.6252-0.6947-15.421 1.5106-51.917-0.4648-61.169-5.0846 1.0441-26.165 3.5983-29.757 4.1129z" fill="#b40000" fill-rule="evenodd" stroke="#000" stroke-linejoin="round" stroke-width="3.7303"/>
 <path id="path69" d="m124.65 189.08c-0.8501 0-0.4648 1.778-0.4648 2.4914 0 12.458 0.7365 40.864 0.4648 49.335-5.0684 0-23.354 4.3706-27.897 4.9836-0.48179-6.7366-2.272-54.93-0.46547-60.797 6.9742 2.5986 21.597 4.9828 24.177 4.9828 1.2403 0 2.4799 0 4.185-0.9962z" fill="#b50000" fill-rule="evenodd" stroke="#000" stroke-linejoin="round" stroke-width="3.6729"/>
 <path id="path74" d="m363.14 111.12c-10.439-8.093-27.917-15.776-42.52-28.151 6.453-12.907 2.053-27.858 32.256-24.632 16.465 1.2167 12.023 14.791 13.196 22.285 1.173 9.356 8.487 21.114-2.932 30.498z" fill="#fff" fill-rule="evenodd" stroke="#000" stroke-width="5"/>
 <path id="path75" d="m223.56 122.4v50.438" fill="none" stroke="#fff" stroke-width="5"/>
 <path id="path76" d="m248.49 148.07h-50.152" fill="none" stroke="#fff" stroke-width="4.9858"/>
 <path id="path77" d="m146.92 190.91v50.438" fill="none" stroke="#fff" stroke-width="5"/>
 <path id="path78" d="m166.12 215.71h-38.317" fill="none" stroke="#fff" stroke-width="4.358"/>
 <metadata>
  <rdf:RDF xmlns="http://web.resource.org/cc/" xmlns:dc="http://purl.org/dc/elements/1.1/" xmlns:rdf="http://www.w3.org/1999/02/22-rdf-syntax-ns#">
   <Work rdf:about="">
    <dc:title>Lemon SVG theme</dc:title>
    <dc:description/>
    <dc:subject>
     <rdf:Bag>
      <rdf:li>lemon_theme_icon</rdf:li>
      <rdf:li>icon</rdf:li>
     </rdf:Bag>
    </dc:subject>
    <dc:publisher>
     <Agent rdf:about="">
      <dc:title>Open Clip Art Library</dc:title>
     </Agent>
    </dc:publisher>
    <dc:creator>
     <Agent rdf:about="">
      <dc:title>Jose Hevia</dc:title>
     </Agent>
    </dc:creator>
    <dc:rights>
     <Agent rdf:about="">
      <dc:title/>
     </Agent>
    </dc:rights>
    <dc:date/>
    <dc:format>image/svg+xml</dc:format>
    <dc:type rdf:resource="http://purl.org/dc/dcmitype/StillImage"/>
    <license rdf:resource="Public Domain">
     <dc:date>1</dc:date>
    </license>
    <dc:language>en</dc:language>
   </Work>
   <License rdf:about="Public Domain">
    <permits rdf:resource="http://web.resource.org/cc/Reproduction"/>
    <permits rdf:resource="http://web.resource.org/cc/Distribution"/>
    <permits rdf:resource="http://web.resource.org/cc/DerivativeWorks"/>
   </License>
  </rdf:RDF>
 </metadata>
</svg>
