<?xml version="1.0" encoding="UTF-8"?>
<!-- Created with Inkscape (http://www.inkscape.org/) -->
<svg id="svg2" width="128" height="128" version="1.0" xmlns="http://www.w3.org/2000/svg" xmlns:cc="http://creativecommons.org/ns#" xmlns:dc="http://purl.org/dc/elements/1.1/" xmlns:rdf="http://www.w3.org/1999/02/22-rdf-syntax-ns#" xmlns:xlink="http://www.w3.org/1999/xlink">
 <defs id="defs4">
  <linearGradient id="linearGradient2338">
   <stop id="stop2340" stop-color="#b1b1b1" offset="0"/>
   <stop id="stop2342" stop-color="#e4e4e4" offset="1"/>
  </linearGradient>
  <linearGradient id="linearGradient2507" x1="23.524" x2="44.108" y1="54.659" y2="99.114" gradientTransform="translate(5,1)" gradientUnits="userSpaceOnUse" xlink:href="#linearGradient2338"/>
  <linearGradient id="linearGradient2511" x1="36.204" x2="34.308" y1="85.986" y2="78.159" gradientTransform="translate(5,1)" gradientUnits="userSpaceOnUse" xlink:href="#linearGradient2338"/>
  <linearGradient id="linearGradient3100" x1="29.11" x2="35.47" y1="108.12" y2="104.33" gradientTransform="translate(5,1)" gradientUnits="userSpaceOnUse" xlink:href="#linearGradient2338"/>
  <linearGradient id="linearGradient3102" x1="23.973" x2="25.441" y1="99.379" y2="111.98" gradientTransform="translate(5,1)" gradientUnits="userSpaceOnUse" xlink:href="#linearGradient2338"/>
  <linearGradient id="linearGradient3104" x1="29.477" x2="33.146" y1="91.123" y2="92.591" gradientTransform="translate(5,1)" gradientUnits="userSpaceOnUse" xlink:href="#linearGradient2338"/>
  <linearGradient id="linearGradient3112" x1="59.687" x2="97.726" y1="118.28" y2="53.207" gradientTransform="translate(5,1)" gradientUnits="userSpaceOnUse" xlink:href="#linearGradient2338"/>
  <linearGradient id="linearGradient3116" x1="61.767" x2="62.134" y1="86.414" y2="92.652" gradientTransform="translate(5,1)" gradientUnits="userSpaceOnUse" xlink:href="#linearGradient2338"/>
  <linearGradient id="linearGradient3120" x1="98.46" x2="95.096" y1="69.78" y2="76.385" gradientTransform="translate(5,1)" gradientUnits="userSpaceOnUse" xlink:href="#linearGradient2338"/>
  <linearGradient id="linearGradient3124" x1="86.229" x2="78.401" y1="96.933" y2="110.26" gradientTransform="translate(5,1)" gradientUnits="userSpaceOnUse">
   <stop id="stop2322" stop-color="#6a3c1d" offset="0"/>
   <stop id="stop2324" stop-color="#8f5127" offset="1"/>
  </linearGradient>
  <linearGradient id="linearGradient3134" x1="108" x2="113.63" y1="84.029" y2="76.813" gradientTransform="translate(5,1)" gradientUnits="userSpaceOnUse" xlink:href="#linearGradient2338"/>
  <linearGradient id="linearGradient3200" x1="68.688" x2="66.328" y1="26.689" y2="42.084" gradientTransform="translate(5,1)" gradientUnits="userSpaceOnUse" xlink:href="#linearGradient2338"/>
  <linearGradient id="linearGradient3202" x1="67.51" x2="42.256" y1="14.563" y2="33.763" gradientTransform="translate(5,1)" gradientUnits="userSpaceOnUse" xlink:href="#linearGradient2338"/>
  <linearGradient id="linearGradient3204" x1="23.361" x2="30.945" y1="37.857" y2="32.03" gradientTransform="translate(5,1)" gradientUnits="userSpaceOnUse" xlink:href="#linearGradient2338"/>
  <linearGradient id="linearGradient3206" x1="22.872" x2="39.485" y1="39.508" y2="32.763" gradientTransform="translate(5,1)" gradientUnits="userSpaceOnUse" xlink:href="#linearGradient2338"/>
  <linearGradient id="linearGradient3208" x1="32.169" x2="40.792" y1="40.319" y2="33.4" gradientTransform="translate(5,1)" gradientUnits="userSpaceOnUse" xlink:href="#linearGradient2338"/>
  <linearGradient id="linearGradient3210" x1="36.171" x2="41.648" y1="47.411" y2="41.703" gradientTransform="translate(5,1)" gradientUnits="userSpaceOnUse" xlink:href="#linearGradient2338"/>
  <linearGradient id="linearGradient3212" x1="35.632" x2="45.665" y1="48.605" y2="45.212" gradientTransform="translate(5,1)" gradientUnits="userSpaceOnUse" xlink:href="#linearGradient2338"/>
  <linearGradient id="linearGradient3214" x1="49.277" x2="56.062" y1="51.112" y2="42.016" gradientTransform="translate(5,1)" gradientUnits="userSpaceOnUse" xlink:href="#linearGradient2338"/>
  <linearGradient id="linearGradient3216" x1="64.346" x2="64.692" y1="51.546" y2="43.239" gradientTransform="translate(5,1)" gradientUnits="userSpaceOnUse" xlink:href="#linearGradient2338"/>
  <linearGradient id="linearGradient3219" x1="66.048" x2="71.23" y1="41.866" y2="48.621" gradientTransform="translate(5,1)" gradientUnits="userSpaceOnUse" xlink:href="#linearGradient2338"/>
  <linearGradient id="linearGradient3221" x1="71.237" x2="78.96" y1="44.217" y2="33.86" gradientTransform="translate(5,1)" gradientUnits="userSpaceOnUse" xlink:href="#linearGradient2338"/>
  <linearGradient id="linearGradient3223" x1="83.669" x2="85.518" y1="42.592" y2="36.023" gradientTransform="translate(5,1)" gradientUnits="userSpaceOnUse" xlink:href="#linearGradient2338"/>
  <linearGradient id="linearGradient3225" x1="86.706" x2="91.053" y1="32.154" y2="40.303" gradientTransform="translate(5,1)" gradientUnits="userSpaceOnUse" xlink:href="#linearGradient2338"/>
  <linearGradient id="linearGradient3227" x1="56.067" x2="102.55" y1="64.137" y2="34.386" gradientTransform="translate(5,1)" gradientUnits="userSpaceOnUse" xlink:href="#linearGradient2338"/>
  <linearGradient id="linearGradient3229" x1="92.465" x2="100.03" y1="33.85" y2="21.396" gradientTransform="translate(5,1)" gradientUnits="userSpaceOnUse" xlink:href="#linearGradient2338"/>
  <linearGradient id="linearGradient3233" x1="83.538" x2="91.529" y1="25.382" y2="18.203" gradientTransform="translate(5,1)" gradientUnits="userSpaceOnUse" xlink:href="#linearGradient2338"/>
  <linearGradient id="linearGradient3235" x1="84.31" x2="89.219" y1="25.504" y2="16.331" gradientTransform="translate(5,1)" gradientUnits="userSpaceOnUse" xlink:href="#linearGradient2338"/>
  <linearGradient id="linearGradient3237" x1="78.49" x2="86.612" y1="18.904" y2="9.5637" gradientTransform="translate(5,1)" gradientUnits="userSpaceOnUse" xlink:href="#linearGradient2338"/>
  <linearGradient id="linearGradient3239" x1="73.142" x2="80.545" y1="19.572" y2="12.307" gradientTransform="translate(5,1)" gradientUnits="userSpaceOnUse" xlink:href="#linearGradient2338"/>
  <linearGradient id="linearGradient3241" x1="74.281" x2="81.336" y1="19.144" y2="9.7259" gradientTransform="translate(5,1)" gradientUnits="userSpaceOnUse" xlink:href="#linearGradient2338"/>
  <linearGradient id="linearGradient3243" x1="69.778" x2="73.785" y1="16.542" y2="4.3442" gradientTransform="translate(5,1)" gradientUnits="userSpaceOnUse" xlink:href="#linearGradient2338"/>
  <linearGradient id="linearGradient3245" x1="59.778" x2="63.583" y1="12.037" y2="19.475" gradientTransform="translate(5,1)" gradientUnits="userSpaceOnUse" xlink:href="#linearGradient2338"/>
  <linearGradient id="linearGradient3247" x1="59.443" x2="62.929" y1="17.431" y2="8.7828" gradientTransform="translate(5,1)" gradientUnits="userSpaceOnUse" xlink:href="#linearGradient2338"/>
  <linearGradient id="linearGradient3249" x1="37.305" x2="59.81" y1="15.841" y2="15.841" gradientTransform="translate(5,1)" gradientUnits="userSpaceOnUse" xlink:href="#linearGradient2338"/>
  <linearGradient id="linearGradient3251" x1="38.25" x2="42.496" y1="18.599" y2="24.48" gradientTransform="translate(5,1)" gradientUnits="userSpaceOnUse" xlink:href="#linearGradient2338"/>
  <linearGradient id="linearGradient3253" x1="33.391" x2="38.589" y1="25.932" y2="19.359" gradientTransform="translate(5,1)" gradientUnits="userSpaceOnUse" xlink:href="#linearGradient2338"/>
  <linearGradient id="linearGradient3255" x1="15.9" x2="33.758" y1="26.115" y2="26.115" gradientTransform="translate(5,1)" gradientUnits="userSpaceOnUse" xlink:href="#linearGradient2338"/>
  <linearGradient id="linearGradient3257" x1="19.735" x2="46.819" y1="34.292" y2="65.6" gradientTransform="translate(5,1)" gradientUnits="userSpaceOnUse" xlink:href="#linearGradient2338"/>
  <linearGradient id="linearGradient3261" x1="77.807" x2="87.859" y1="22.314" y2="38.538" gradientTransform="translate(5,1)" gradientUnits="userSpaceOnUse" xlink:href="#linearGradient2338"/>
  <filter id="filter3361">
   <feGaussianBlur id="feGaussianBlur3363" stdDeviation="1.7926963"/>
  </filter>
 </defs>
 <metadata id="metadata7">
  <rdf:RDF>
   <cc:Work rdf:about="">
    <dc:format>image/svg+xml</dc:format>
    <dc:type rdf:resource="http://purl.org/dc/dcmitype/StillImage"/>
   </cc:Work>
  </rdf:RDF>
 </metadata>
 <g id="layer2" fill-rule="evenodd">
  <path id="path3275" transform="matrix(1 0 0 .96386 1 3.4639)" d="m53.5 123.5-18-8-9 1-6.5-2 4-8.5-5.5405-3.6411-3.9279-44.362-4.5316-2.9966-4.5-9 10-4 7.5 3.5 37.5-5 41 49-48 34z" fill-opacity=".57919" filter="url(#filter3361)"/>
  <path id="path2505" d="m23.854 46.319-2.7676 54.832 36.151 23.697 0.51892-56.389-3.6324 1.9027-30.27-24.043z" fill="url(#linearGradient2507)"/>
  <path id="path2509" d="m32.275 76.162-0.48924 4.1586 15.044 8.1948-0.24462-5.137-5.9932-2.5685-8.3171-4.6478z" fill="url(#linearGradient2511)"/>
  <path id="path2513" d="m35.088 77.507 0.36693-7.094 3.4247-2.0793 0.97848 0.12231 3.0578 4.1586 1.4677 3.3024-0.36693 6.3601-8.9287-4.7701z" fill="#d59163"/>
  <path id="path2515" d="m23.854 46.319-2.7676 54.832 36.151 23.697 0.51892-56.389-3.6324 1.9027-30.27-24.043z" fill-opacity=".15686"/>
  <path id="path3094" d="m33.743 86.558-5.2593 6.9717 5.9932 4.1586 5.9932-7.094-6.7271-4.0362z" fill="url(#linearGradient3104)"/>
  <path id="path3096" d="m28.361 94.019-6.2378 20.059 7.5832 5.6263 4.6478-21.894-5.9932-3.7916z" fill="url(#linearGradient3102)"/>
  <path id="path3098" d="m40.47 91.084-6.2378 6.7271-4.7701 21.771 9.051-6.3601 1.957-22.138z" fill="url(#linearGradient3100)"/>
  <path id="path3106" d="m33.743 86.558-5.2593 6.9717 5.9932 4.1586 5.9932-7.094-6.7271-4.0362z" fill-opacity=".15686"/>
  <path id="path3108" d="m28.361 94.019-6.2378 20.059 7.5832 5.6263 4.6478-21.894-5.9932-3.7916z" fill-opacity=".15686"/>
  <path id="path3110" d="m57.349 68.701-0.36693 56.385 55.284-21.894-2.3239-58.709-52.593 24.217z" fill="url(#linearGradient3112)"/>
  <path id="path3114" d="m62.608 90.717 12.476-6.7271-0.12231 4.2809-12.353 6.4824v-4.0362z" fill="url(#linearGradient3116)"/>
  <path id="path3118" d="m93.797 75.673 12.598-6.7271v4.1586l-12.598 6.3601v-3.7916z" fill="url(#linearGradient3120)"/>
  <path id="path3122" d="m78.998 116.28-0.12231-21.649 8.5617-8.9287 9.051 3.3024 2.6908 19.325-20.181 7.9502z" fill="url(#linearGradient3124)"/>
  <path id="path3128" d="m64.198 89.249-0.24462-11.13 3.4247-5.0147 5.0147 1.4677 0.48924 10.641-8.5617 5.0147-0.12231-0.97848z" fill="#d59163"/>
  <path id="path3130" d="m95.51 73.838-0.24462-11.13 3.3024-4.5255 5.137 1.2231 0.73386 10.519-8.9287 5.0147v-1.1008z" fill="#d59163"/>
  <path id="path3132" d="m111.78 88.271 6.8494-2.4462-7.8279-18.469 0.97849 20.915z" fill="url(#linearGradient3134)"/>
  <path id="path3136" d="m20.411 25.525 0.12231 17.98 33.391 27.153 0.48924-15.778-7.9502-7.8279-0.61155 6.9717-6.4824-4.1586 0.12231-5.8709-7.2163-6.3601v5.9932l-4.1586-4.2809 0.36693-5.6263-8.0725-8.1948z" fill="url(#linearGradient3257)"/>
  <path id="path3138" d="m35.7 31.029-1.8347-2.9354 4.8924-2.0793-4.2809-5.2593-13.576 4.5255 7.5832 8.1948h1.1008l6.1155-2.4462z" fill="url(#linearGradient3255)"/>
  <path id="path3140" d="m38.391 24.914 3.9139-1.8347 6.4824 4.1586-9.6625 3.547 0.24462-4.5255-0.97848-1.3454z" fill="url(#linearGradient3253)"/>
  <path id="path3142" d="m41.693 23.568 0.36693-5.2593 7.3386 3.9139-0.48924 4.8924-7.2163-3.547z" fill="url(#linearGradient3251)"/>
  <path id="path3144" d="m42.305 18.554 17.246-7.2163 5.2593 5.137-15.533 5.8709-6.9717-3.7916z" fill="url(#linearGradient3249)"/>
  <path id="path3146" d="m65.544 21.856 5.8709-2.6908-0.24462-0.48924-6.7271-3.6693 1.1008 2.2016v4.6478z" fill="url(#linearGradient3247)"/>
  <path id="path3148" d="m71.17 18.921-0.24462-4.8924-6.8494-3.7916s-0.36693 4.1586 0 4.8924c1.59 1.1008 7.3386 4.1586 7.094 3.7916z" fill="url(#linearGradient3245)"/>
  <path id="path3150" d="m71.048 13.906 4.1586-1.59 3.1801 2.2016 6.9717-3.547-8.0725-5.6263-13.087 4.7701 6.8494 3.7916z" fill="url(#linearGradient3243)"/>
  <path id="path3152" d="m85.48 10.726 0.85617 3.3024-4.5255 2.5685-0.36693 2.0793-3.1801 1.4677-0.36693-5.504 7.5832-3.9139z" fill="url(#linearGradient3241)"/>
  <path id="path3154" d="m81.566 18.676-3.4247 1.3454 3.3024 2.4462 0.12231-3.7916z" fill="url(#linearGradient3239)"/>
  <path id="path3156" d="m81.933 16.597 6.7271-3.547 6.2378 4.5255-6.7271 3.3024-6.2378-4.2809z" fill="url(#linearGradient3237)"/>
  <path id="path3158" d="m94.898 17.331 1.2231 5.6263-7.9502 3.547-0.24462-5.6263 6.9717-3.547z" fill="url(#linearGradient3235)"/>
  <path id="path3160" d="m93.675 23.813-0.24462 5.137-4.8924-2.9354 5.137-2.2016z" fill="url(#linearGradient3233)"/>
  <path id="path3162" d="m74.969 12.438 0.59375 10.875 15.781 13.344-0.71875-5.75 0.59375-0.96875 2-1.0625-0.03125 0.3125 5.375-2.6875-5-2.5625-0.34375 4.8125-5.1562-2.625 0.09375-5-6.7188-4.5312v5.625l-3.4062-1.8438 0.21875-5.8438-3.2812-2.0938z" fill="url(#linearGradient3261)"/>
  <path id="path3164" d="m94.653 23.691 6.3601-3.0578 10.763 8.1948-14.8 7.094-6.6048-5.6263 7.9502-3.3024-3.6693-3.3024z" fill="url(#linearGradient3229)"/>
  <path id="path3166" d="m111.53 28.95 0.85617 14.677-58.587 26.908 0.85617-15.656 13.576-6.1155 0.85617 4.8924 9.9071-3.9139-0.85617-4.4032 10.886-5.2593 0.61155 4.6478 8.3171-3.3024-0.73386-5.8709 14.31-6.6048z" fill="url(#linearGradient3227)"/>
  <path id="path3168" d="m90.495 30.54 0.61155 5.9932 6.8494 4.7701-0.85617-5.6263-6.6048-5.137z" fill="url(#linearGradient3225)"/>
  <path id="path3170" d="m91.84 37.023-4.0362 1.1008 1.3454 1.8347 0.73386 5.0147 8.0725-3.7916-6.1155-4.1586z" fill="url(#linearGradient3223)"/>
  <path id="path3172" d="m89.15 39.836-11.13 5.3817-6.9717-6.2378 11.375-5.137 6.7271 5.9932z" fill="url(#linearGradient3221)"/>
  <path id="path3174" d="m71.048 39.224 0.36693 5.137 7.5832 5.2593-0.61155-4.5255-7.3386-5.8709z" fill="url(#linearGradient3219)"/>
  <path id="path3176" d="m71.292 44.239-5.0147 2.0793 2.2016 2.3239 0.85617 5.0147 9.4179-4.0362-7.4609-5.3817z" fill="url(#linearGradient3216)"/>
  <path id="path3178" d="m63.22 43.016 5.6263 5.9932-14.555 5.6263-8.3171-7.4609 6.6048-3.547 3.0578 3.547 7.5832-4.1586z" fill="url(#linearGradient3214)"/>
  <path id="path3180" d="m48.665 45.829-1.1008-1.2231-7.9502 4.2809 6.3601 5.504v-7.094l2.6908-1.4677z" fill="url(#linearGradient3212)"/>
  <path id="path3182" d="m47.686 44.728-0.24462-4.8924-7.8279 4.2809 0.12231 5.2593 7.9502-4.6478z" fill="url(#linearGradient3210)"/>
  <path id="path3184" d="m46.83 39.591-7.094-6.4824-7.5832 4.2809 7.5832 6.6048 7.094-4.4032z" fill="url(#linearGradient3208)"/>
  <path id="path3188" d="m31.908 43.505-4.0362-4.0362 4.1586-1.957-0.12231 5.9932z" fill="url(#linearGradient3206)"/>
  <path id="path3190" d="m28.361 38.857 0.36693-4.8924 7.2163-3.3024-0.12231 4.7701-4.0362 1.957-3.4247 1.4677z" fill="url(#linearGradient3204)"/>
  <path id="path3192" d="m44.751 37.39 30.7-14.31-0.12231-11.008-3.7916 1.59 0.12231 5.504-5.7486 2.8131-0.73386-5.504-16.023 5.7486-0.12231 5.0147-10.152 3.9139 0.48924-4.8924-0.73386-0.73386-4.5255 2.5685 1.957 2.8131-0.12231 4.5255 4.4032-2.2016 4.4032 4.1586z" fill="url(#linearGradient3202)"/>
  <path id="path3194" d="m44.629 37.023 27.764-12.353 3.0578-1.59 16.634 14.066-4.5255 1.2231-5.2593-4.5255-11.619 5.137 0.85617 5.137-5.2593 2.4462-3.0578-3.7916-7.3386 4.4032-2.8131-3.7916-4.1586 2.4462-1.3454-0.85617-0.36693-5.137-2.5685-2.8131z" fill="url(#linearGradient3200)"/>
  <path id="path3263" d="m20.411 25.525 0.12231 17.98 33.391 27.153 0.48924-15.778-7.9502-7.8279-0.61155 6.9717-6.4824-4.1586 0.12231-5.8709-7.2163-6.3601v5.9932l-4.1586-4.2809 0.36693-5.6263-8.0725-8.1948z" fill-opacity=".15686"/>
  <path id="path3265" d="m41.693 23.568 0.36693-5.2593 7.3386 3.9139-0.48924 4.8924-7.2163-3.547z" fill-opacity=".15686"/>
  <path id="path3267" d="m71.17 18.921-0.24462-4.8924-6.8494-3.7916s-0.36693 4.1586 0 4.8924c1.59 1.1008 7.3386 4.1586 7.094 3.7916z" fill-opacity=".15686"/>
  <path id="path3269" d="m74.969 12.438 0.59375 10.875 15.781 13.344-0.71875-5.75 0.59375-0.96875 2-1.0625-0.03125 0.3125 5.375-2.6875-5-2.5625-0.34375 4.8125-5.1562-2.625 0.09375-5-6.7188-4.5312v5.625l-3.4062-1.8438 0.21875-5.8438-3.2812-2.0938z" fill-opacity=".15686"/>
  <path id="path3271" d="m90.495 30.54 0.61155 5.9932 6.8494 4.7701-0.85617-5.6263-6.6048-5.137z" fill-opacity=".15686"/>
  <path id="path3273" d="m71.048 39.224 0.36693 5.137 7.5832 5.2593-0.61155-4.5255-7.3386-5.8709z" fill-opacity=".15686"/>
 </g>
 <g id="layer1">
  <path id="path2313" d="m77.375 5.1562-13.625 4.75 0.15625 5.0312-4.6875-3.9062-17.562 6.9688-0.15625 5.2188-3.8125 1.1875-3.1562-3.7812-14.156 4.7188 0.03125 18.281 3 2.4688-2.4688 55.062 3.9375 2.7188-2.9688 10.344 8.1562 5.9375 8.6875-6.6875 17.812 12.281 56.25-22.219-0.65625-14.844 6.75-2.7188-7.6562-18.031-1.0312-23.062 2.5312-1.1562-0.71875-15.375-11.156-7.8438-4.5938 2.125-1.0625-5.5938-6.4688-4.5-2.2812 1.2188-0.59375-2.8125-8.5-5.7812zm0.09375 0.5 7.0625 5.1875-6.3125 3.0625-3.0625-2.2188-4.4375 1.7812-5.7812-3.3125 12.531-4.5zm-12.938 4.7188 6.25 4-0.03125 4.0625-6.2188-3.5625v-4.5zm20.625 0.78125 0.59375 3.0938-4.5312 2.25 0.1875 1.5938-3.0938 1.4375 0.0625-4.5625 6.7812-3.8125zm-25.969 0.59375 5.1562 4.4688-14.969 5.5-6.4375-3.375 16.25-6.5938zm15.375 1.2188c0.14168 3.2257 0.64232 6.6461 0.65625 9.875-9.901 5.0354-20.605 9.3479-30.719 13.938l-4.2188-3.7812-0.28125-0.21875-0.28125 0.15625-3.5938 1.8125 0.15625-4-2.0625-2.6562 4.6562-2-0.25 5.3438 10.812-3.9688 0.25-4.7812 15.156-5.9688 0.40625 5.625 6.5-3.1562-0.0625-5.0625 2.875-1.1562zm1.0312 0.28125 1.75 1.2812 0.34375 5.8125 3.9688 2.4375 0.3125-5.5312 5.8438 3.8438-0.09375 5.3125 4.6875 2.75-2.2812 1.125 0.46875 5.2188-14.906-12.438c-0.016475-3.1253-0.017088-6.6881-0.09375-9.8125zm13 0 5.375 4.1562-5.9062 3.0938-5.5938-3.9375 6.125-3.3125zm-23.062 3.0312 5.6562 3.0625-5.0938 1.9688-0.5625-5.0312zm29.344 1.5938 0.8125 4.6562-7.3125 3.5625v-4.625l6.5-3.5938zm-52.5 0.9375 6.3438 3.6875 0.0625 4.3438-6.7188-4.125 0.3125-3.9062zm38.781 0.3125 0.0625 2.6875-2.375-1.4375 2.3125-1.25zm19.781 2c3.1812 2.3599 6.4331 5.1541 9.5 7.4375-4.4075 2.693-9.2439 4.6343-14 6.625l-4.9688-4.8125 7.7188-3.5-3.7812-2.75 5.5312-3zm-66.469 0.1875 3.25 4.625-4.8125 1.9062 2.2188 2.625-6.3125 2.6562-7.5312-7.5625 13.188-4.25zm40.719 2.1875 15.875 13.25-3.25 1.2188-5.4375-4.3125-11.75 5.1562 0.5 5.0938-4.9062 2-3-3.125-7.25 4-3.125-3.6562-4.1875 2.3438-0.71875-1-0.34375-4.75-2.2812-2.1875c9.8113-4.9359 20.295-8.6331 29.875-14.031zm18.688 0.40625 3.4062 2.8125-3.6875 1.625 0.28125-4.4375zm-51.594 0.125 5.8125 3.2812-8.8125 3.375 0.25-4.5312-0.6875-0.9375 3.4375-1.1875zm50.781 0.53125-0.03125 3.7812-3.5938-2.125 3.625-1.6562zm-71.75 1.6562 6.8125 7.625h-0.09375l-0.375 5.5938 5.0312 5.6562-0.21875-7.25 6.6562 6.4688-0.03125 5.4062 7.1875 5.1875 0.28125-6.9688 7.7188 7.25c-0.40064 4.7844-0.49173 9.6463-0.59375 14.469l-32.719-26.312 0.34375-17.125zm89.75 3.0938 0.84375 14.188-57.219 25.938c0.084094-4.7862-0.27329-9.8254 0.09375-14.594l13.094-5.8125 1 5.2188 10.125-4.375-0.34375-4.75 9.875-4.75 0.75 5.125 8.9688-3.9375-0.8125-5.6875c4.6113-2.0339 9.3552-3.8541 13.625-6.5625zm-20.031 1.9062 5.625 4.9062 0.6875 4.0938-5.5938-3.6875-0.71875-5.3125zm-55.219 0.0625-0.15625 3.75-4 2-0.1875 0.34375v0.15625l-2.75 1.2812 0.3125-4.6875 6.7812-2.8438zm4.0312 2.6875 6.1875 5.5312-6.375 3.9375-6.3125-6.125 6.5-3.3438zm42.406 0.15625 6.3125 5.375-10.562 5.4688-6.5625-5.8438 10.812-5zm9.6562 3.0938 5.4688 3.875-7.3125 2.9688-0.65625-4.375-0.71875-1.0312 3.2188-1.4375zm-60.312 0.84375 0.03125 4.3125-2.9375-2.5 2.9062-1.8125zm39.656 1.8125 6.4375 5.6875 0.9375 3.5938-6.875-5.0625-0.5-4.2188zm-24.562 0.4375 0.5625 4.1875-7.1562 3.8125 0.03125-3.9688 6.5625-4.0312zm16.5 3.1562 4.5312 4.8125-13 5.9375-7.6875-7.2188 5.6875-3.25 2.7812 3.625 7.6875-3.9062zm8 0.8125 6.5625 5.0312-8.125 3.5-0.84375-4.25v-0.03125l-0.03125-0.15625-0.09375 0.03125-0.34375-0.34375-1.3438-1.375 4.2188-2.4062zm-23.656 0.75 0.46875 0.5625-2.2812 1.375-0.28125 6.5312-5.1562-4.1562 7.25-4.3125zm62.312 0.03125 1.2812 42.938 0.65625 14.844-10.438 4.125-2.625-19.438-11.719-4.875-11.375 12-0.25 22.531-17.719 7 0.15625-55.125 52.031-24zm-85.469 1.8125 29.312 24.094 3.5625-1.7812-0.84375 55.094-17.344-11.844 2.1875-22.062 0.03125-0.03125-0.03125-0.03125h-0.03125l-7.875-3.9375-5.5625 7.25-0.03125 0.03125-0.03125 0.09375-2.5625 9.0938-3.6562-1.8438 2.875-54.125zm74.088 10.665-3.2812 5.2812-0.15625 11.812-1.375 0.84375v4.2188l12.75-6.625v-4.6562l-1.8438 1-0.78125-10.031-5.3125-1.8438zm0.40625 1.1875 4.5625 1.125 0.6875 9.875-8.0938 4.1875-0.5-10.969 3.3438-4.2188zm-59.463 9.3661c-1.796 0.11289-3.0974 1.435-4.6875 2.0625l0.1875 7.5312-2.7188-1.7188-0.34375 4.5 14.938 8.4062-0.0625-5.5938s-1.1419-0.52271-2.6562-1.2188l0.6875-6.75c-1.0013-2.6495-2.6573-5.0528-4.5312-7.1875-0.27853-0.038776-0.55593-0.047377-0.8125-0.03125zm66.556 1.3214 0.3125 3.3125-12.156 6.2812 0.1875-3.2812 11.656-6.3125zm-66.65-0.85263c0.17057-0.002965 0.32943 0.01975 0.5 0.09375 2.369 1.8074 2.6134 4.7273 3.9062 6.75l-0.09375 6.6562-8.25-4.3438 0.34375-6.875c1.194-0.56862 2.3997-2.2605 3.5938-2.2812zm71.875 0.28125 7.0938 16.812-6.1562 1.9375-0.9375-18.75zm-44 3.8125-3.2812 5.2812-0.28125 12.062-1.25 0.71875v4.2188l12.75-6.625v-4.6562l-1.8438 1-0.78125-10.156-5.3125-1.8438zm0.40625 1.1875 4.5625 1.125 0.15625 10.219-7.6562 4.2188-0.5-11.344 3.4375-4.2188zm-34.938 2.875c4.1381 2.3204 9.1196 5.294 13.656 6.6562l0.09375 4.6562-14.031-7.5938c-0.16856-0.67637 0.2622-3.61 0.28125-3.7188zm54.406 6.0938 11.312 5.1562 2.4375 19.25-1.6562 0.59375-2.5625-18.938-8.9688-3.4688-9.125 9.375 0.09375 21.125-2.2188 0.90625-0.3125-21.844 11-12.156zm-12.156 1.4062-0.09375 3.8438-11.969 6.375v-3.4688l12.062-6.75zm12.969 2.375 8.4688 2.5938 1.8438 19-2.75 1.0938 1.875-2.9062-0.15625-0.15625-2.8438 3.5-4.1875 1.6562-0.0625-0.71875c2.3005-3.8802 4.0345-8.2302 6.2188-12.156l-0.28125-0.15625c-2.0747 3.6337-3.9945 7.3622-6.0625 11l-0.5625-6.2188 6.3125-13.281-0.1875-0.125-6.25 12.062-0.59375-6.875 2.8125-6.1562-0.21875-0.0625-2.6875 5.2812-0.625-6.8438-0.25 0.0625 0.3125 5.375-4.7812-1.3125-0.0625 0.3125 4.875 1.75 0.25 4.3438-7.9062-2.9375-0.1875 0.125 8.1562 3.7812 0.34375 6.2812-8.5312-3.4375-0.3125 0.15625 8.9062 4.0312 0.34375 6.125-0.125 0.0625-9.3125-3.125-0.125 0.34375 8.4062 3.1562-8.6875 3.4375-0.28125-20.719 8.9062-8.3438zm-54.312 0.40625 6.0938 3.7188-5.4688 6.4062-5.5-3.375 4.875-6.75zm6.5 4.75-1.7188 21.156-8.0625 5.7812 4.6875-21 5.0938-5.9375zm-11.531 2.7812 5.3125 3.5312-4.3438 20.469-7.125-4.5 6.1562-19.5z" fill-rule="evenodd"/>
 </g>
</svg>
