<?xml version="1.0" encoding="UTF-8"?>
<!-- Created with Inkscape (http://www.inkscape.org/) -->
<svg id="svg2" width="128" height="128" version="1.0" xmlns="http://www.w3.org/2000/svg" xmlns:cc="http://creativecommons.org/ns#" xmlns:dc="http://purl.org/dc/elements/1.1/" xmlns:rdf="http://www.w3.org/1999/02/22-rdf-syntax-ns#" xmlns:xlink="http://www.w3.org/1999/xlink">
 <defs id="defs4">
  <linearGradient id="linearGradient2338">
   <stop id="stop2340" stop-color="#b1b1b1" offset="0"/>
   <stop id="stop2342" stop-color="#e4e4e4" offset="1"/>
  </linearGradient>
  <linearGradient id="linearGradient2320">
   <stop id="stop2322" stop-color="#6a3c1d" offset="0"/>
   <stop id="stop2324" stop-color="#8f5127" offset="1"/>
  </linearGradient>
  <linearGradient id="linearGradient2503" x1="19.546" x2="38.659" y1="93.924" y2="112.78" gradientTransform="translate(2.2486 .17297)" gradientUnits="userSpaceOnUse" xlink:href="#linearGradient2338"/>
  <linearGradient id="linearGradient2507" x1="58.984" x2="72.908" y1="116.15" y2="91.935" gradientTransform="translate(2.2486 .17297)" gradientUnits="userSpaceOnUse" xlink:href="#linearGradient2338"/>
  <linearGradient id="linearGradient2511" x1="18.595" x2="50.508" y1="59.849" y2="102.31" gradientTransform="translate(2.2486 .17297)" gradientUnits="userSpaceOnUse" xlink:href="#linearGradient2338"/>
  <linearGradient id="linearGradient2517" x1="32.951" x2="52.93" y1="31.395" y2="60.973" gradientTransform="translate(2.2486 .17297)" gradientUnits="userSpaceOnUse" xlink:href="#linearGradient2338"/>
  <linearGradient id="linearGradient2521" x1="59.935" x2="103.01" y1="103.44" y2="70.919" gradientTransform="translate(2.2486 .17297)" gradientUnits="userSpaceOnUse" xlink:href="#linearGradient2338"/>
  <linearGradient id="linearGradient2525" x1="64" x2="88.649" y1="122.38" y2="105.34" gradientTransform="translate(2.2486 .17297)" gradientUnits="userSpaceOnUse" xlink:href="#linearGradient2338"/>
  <linearGradient id="linearGradient2529" x1="103.78" x2="116.5" y1="110.7" y2="98.076" gradientTransform="translate(2.2486 .17297)" gradientUnits="userSpaceOnUse" xlink:href="#linearGradient2338"/>
  <linearGradient id="linearGradient2533" x1="61.607" x2="86.621" y1="61.974" y2="40.23" gradientTransform="translate(2.2486 .17297)" gradientUnits="userSpaceOnUse" xlink:href="#linearGradient2338"/>
  <linearGradient id="linearGradient2537" x1="98.844" x2="104.84" y1="102.75" y2="112.81" gradientTransform="translate(2.2486 .17297)" gradientUnits="userSpaceOnUse" xlink:href="#linearGradient2338"/>
  <linearGradient id="linearGradient2541" x1="82.531" x2="82.125" y1="106.25" y2="104.84" gradientTransform="translate(2.2486 .17297)" gradientUnits="userSpaceOnUse" xlink:href="#linearGradient2338"/>
  <linearGradient id="linearGradient2545" x1="82.531" x2="82.125" y1="106.25" y2="104.84" gradientTransform="translate(3.8424 2.923)" gradientUnits="userSpaceOnUse" xlink:href="#linearGradient2338"/>
  <linearGradient id="linearGradient2549" x1="82.531" x2="82.125" y1="106.25" y2="104.84" gradientTransform="translate(5.2799 5.048)" gradientUnits="userSpaceOnUse" xlink:href="#linearGradient2338"/>
  <linearGradient id="linearGradient2553" x1="82.531" x2="82.125" y1="106.25" y2="104.84" gradientTransform="translate(6.6861 7.298)" gradientUnits="userSpaceOnUse" xlink:href="#linearGradient2338"/>
  <linearGradient id="linearGradient2557" x1="82.531" x2="82.125" y1="106.25" y2="104.84" gradientTransform="translate(8.1861 9.3917)" gradientUnits="userSpaceOnUse" xlink:href="#linearGradient2338"/>
  <linearGradient id="linearGradient2561" x1="83.344" x2="83.031" y1="107.53" y2="106.59" gradientTransform="translate(2.2486 .17297)" gradientUnits="userSpaceOnUse" xlink:href="#linearGradient2338"/>
  <linearGradient id="linearGradient2565" x1="83.344" x2="83.031" y1="107.53" y2="106.59" gradientTransform="translate(3.4986 2.6105)" gradientUnits="userSpaceOnUse" xlink:href="#linearGradient2338"/>
  <linearGradient id="linearGradient2569" x1="83.344" x2="83.031" y1="107.53" y2="106.59" gradientTransform="translate(4.9361 5.1105)" gradientUnits="userSpaceOnUse" xlink:href="#linearGradient2338"/>
  <linearGradient id="linearGradient2573" x1="83.344" x2="83.031" y1="107.53" y2="106.59" gradientTransform="translate(6.3424 6.9542)" gradientUnits="userSpaceOnUse" xlink:href="#linearGradient2338"/>
  <linearGradient id="linearGradient3462">
   <stop id="stop3464" stop-color="#4f0000" offset="0"/>
   <stop id="stop3466" stop-color="#610000" offset="1"/>
  </linearGradient>
  <linearGradient id="linearGradient2404">
   <stop id="stop2406" stop-color="#b49900" offset="0"/>
   <stop id="stop2412" stop-color="#ffda0a" offset=".5"/>
   <stop id="stop2408" stop-color="#c6a800" offset="1"/>
  </linearGradient>
  <linearGradient id="linearGradient3098">
   <stop id="stop3100" stop-color="#9e2612" offset="0"/>
   <stop id="stop3102" stop-color="#bd5032" offset="1"/>
  </linearGradient>
  <linearGradient id="linearGradient3106" x1="84.058" x2="87.972" y1="103.39" y2="97.85" gradientTransform="translate(2.2486 .17297)" gradientUnits="userSpaceOnUse" xlink:href="#linearGradient3462"/>
  <linearGradient id="linearGradient3110" x1="86.443" x2="86.504" y1="105.16" y2="103.42" gradientTransform="translate(2.2486 .17297)" gradientUnits="userSpaceOnUse" xlink:href="#linearGradient3462"/>
  <linearGradient id="linearGradient3115" x1="86.443" x2="86.473" y1="105.16" y2="104.09" gradientTransform="translate(4.0221 2.8944)" gradientUnits="userSpaceOnUse" xlink:href="#linearGradient3462"/>
  <linearGradient id="linearGradient3119" x1="86.443" x2="86.473" y1="105.16" y2="103.84" gradientTransform="translate(5.3981 5.0654)" gradientUnits="userSpaceOnUse" xlink:href="#linearGradient3462"/>
  <linearGradient id="linearGradient3123" x1="86.443" x2="86.382" y1="105.16" y2="103.97" gradientTransform="translate(6.9576 7.1752)" gradientUnits="userSpaceOnUse" xlink:href="#linearGradient3462"/>
  <linearGradient id="linearGradient3127" x1="86.443" x2="86.473" y1="105.16" y2="103.86" gradientTransform="translate(8.5476 9.4074)" gradientUnits="userSpaceOnUse" xlink:href="#linearGradient3462"/>
  <linearGradient id="linearGradient3131" x1="86.81" x2="88.002" y1="106.05" y2="104.18" gradientTransform="translate(2.2486 .17297)" gradientUnits="userSpaceOnUse" xlink:href="#linearGradient3462"/>
  <linearGradient id="linearGradient3135" x1="86.81" x2="88.002" y1="106.05" y2="104.18" gradientTransform="translate(3.6552 2.7109)" gradientUnits="userSpaceOnUse" xlink:href="#linearGradient3462"/>
  <linearGradient id="linearGradient3139" x1="86.81" x2="88.002" y1="106.05" y2="104.18" gradientTransform="translate(5.1229 4.9125)" gradientUnits="userSpaceOnUse" xlink:href="#linearGradient3462"/>
  <linearGradient id="linearGradient3143" x1="86.81" x2="88.002" y1="106.05" y2="104.18" gradientTransform="translate(6.5295 7.1141)" gradientUnits="userSpaceOnUse" xlink:href="#linearGradient3462"/>
  <linearGradient id="linearGradient3147" x1="73.141" x2="93.824" y1="101.04" y2="81.287" gradientTransform="translate(2.2486 .17297)" gradientUnits="userSpaceOnUse" xlink:href="#linearGradient2404"/>
  <linearGradient id="linearGradient3730" x1="75.395" x2="82.952" y1="99.539" y2="93.396" gradientTransform="translate(2.2486 .17297)" gradientUnits="userSpaceOnUse" xlink:href="#linearGradient2404"/>
  <linearGradient id="linearGradient3734" x1="86.046" x2="92.366" y1="87.032" y2="93.705" gradientTransform="translate(2.2486 .17297)" gradientUnits="userSpaceOnUse" xlink:href="#linearGradient2404"/>
  <linearGradient id="linearGradient3738" x1="106.29" x2="105.93" y1="83.496" y2="84.049" gradientTransform="translate(2.2486 .17297)" gradientUnits="userSpaceOnUse" xlink:href="#linearGradient2320"/>
  <linearGradient id="linearGradient3742" x1="104.65" x2="111.1" y1="85.021" y2="93.727" gradientTransform="translate(2.2486 .17297)" gradientUnits="userSpaceOnUse">
   <stop id="stop3195" stop-color="#c2a05c" offset="0"/>
   <stop id="stop3197" stop-color="#d6be91" offset="1"/>
  </linearGradient>
  <linearGradient id="linearGradient3750" x1="18.031" x2="21.567" y1="67.631" y2="80.889" gradientTransform="translate(2.2486 .17297)" gradientUnits="userSpaceOnUse" xlink:href="#linearGradient2338"/>
  <linearGradient id="linearGradient3758" x1="18.031" x2="21.567" y1="67.631" y2="80.889" gradientTransform="translate(14.667 8.2163)" gradientUnits="userSpaceOnUse" xlink:href="#linearGradient2338"/>
  <linearGradient id="linearGradient3764" x1="18.031" x2="21.567" y1="67.631" y2="80.889" gradientTransform="translate(27.174 16.348)" gradientUnits="userSpaceOnUse" xlink:href="#linearGradient2338"/>
  <linearGradient id="linearGradient3770" x1="18.031" x2="21.567" y1="67.631" y2="80.889" gradientTransform="translate(20.28 -31.514)" gradientUnits="userSpaceOnUse" xlink:href="#linearGradient2338"/>
  <linearGradient id="linearGradient3776" x1="18.031" x2="21.567" y1="67.631" y2="80.889" gradientTransform="translate(32.08 -23.648)" gradientUnits="userSpaceOnUse" xlink:href="#linearGradient2338"/>
  <linearGradient id="linearGradient3782" x1="22.451" x2="16.352" y1="65.381" y2="76.514" gradientTransform="translate(50.111 -17.681)" gradientUnits="userSpaceOnUse" xlink:href="#linearGradient2338"/>
  <linearGradient id="linearGradient3788" x1="22.451" x2="16.352" y1="65.381" y2="75.764" gradientTransform="translate(65.711 -22.631)" gradientUnits="userSpaceOnUse" xlink:href="#linearGradient2338"/>
  <linearGradient id="linearGradient3792" x1="39.812" x2="51.375" y1="47.562" y2="79.25" gradientTransform="translate(2.2486 .17297)" gradientUnits="userSpaceOnUse" xlink:href="#linearGradient3098"/>
  <linearGradient id="linearGradient3796" x1="68.25" x2="96.25" y1="73.625" y2="61.5" gradientTransform="translate(2.2486 .17297)" gradientUnits="userSpaceOnUse" xlink:href="#linearGradient3098"/>
  <linearGradient id="linearGradient3806" x1="92.125" x2="94.438" y1="56.875" y2="39.938" gradientTransform="translate(2.2486 .17297)" gradientUnits="userSpaceOnUse" xlink:href="#linearGradient3098"/>
  <linearGradient id="linearGradient3810" x1="71.188" x2="86.75" y1="34.812" y2="23.188" gradientTransform="translate(2.2486 .17297)" gradientUnits="userSpaceOnUse" xlink:href="#linearGradient3098"/>
  <linearGradient id="linearGradient3814" x1="49" x2="66.562" y1="16.562" y2="42.625" gradientTransform="translate(2.2486 .17297)" gradientUnits="userSpaceOnUse" xlink:href="#linearGradient3098"/>
  <linearGradient id="linearGradient3818" x1="66.875" x2="67.438" y1="23.562" y2="12.812" gradientTransform="translate(2.2486 .17297)" gradientUnits="userSpaceOnUse" xlink:href="#linearGradient3098"/>
  <linearGradient id="linearGradient3822" x1="73.625" x2="75.375" y1="19.375" y2="17.312" gradientTransform="translate(2.2486 .17297)" gradientUnits="userSpaceOnUse">
   <stop id="stop3110" stop-color="#c223c2" offset="0"/>
   <stop id="stop3112" stop-color="#ff00dc" offset="1"/>
  </linearGradient>
  <linearGradient id="linearGradient3824" x1="17.589" x2="19.401" y1="68.304" y2="77.472" gradientTransform="translate(2.2486 .17297)" gradientUnits="userSpaceOnUse" xlink:href="#linearGradient2320"/>
  <linearGradient id="linearGradient3826" x1="30.008" x2="33.632" y1="77.385" y2="85.515" gradientTransform="translate(2.2486 .17297)" gradientUnits="userSpaceOnUse" xlink:href="#linearGradient2320"/>
  <linearGradient id="linearGradient3828" x1="42.515" x2="46.139" y1="86.209" y2="93.301" gradientTransform="translate(2.2486 .17297)" gradientUnits="userSpaceOnUse" xlink:href="#linearGradient2320"/>
  <linearGradient id="linearGradient3830" x1="80.964" x2="84.588" y1="49.034" y2="43.844" gradientTransform="translate(2.2486 .17297)" gradientUnits="userSpaceOnUse" xlink:href="#linearGradient2320"/>
  <linearGradient id="linearGradient3832" x1="65.363" x2="68.987" y1="52.945" y2="46.891" gradientTransform="translate(2.2486 .17297)" gradientUnits="userSpaceOnUse" xlink:href="#linearGradient2320"/>
  <linearGradient id="linearGradient3834" x1="47.42" x2="51.044" y1="44.49" y2="51.582" gradientTransform="translate(2.2486 .17297)" gradientUnits="userSpaceOnUse" xlink:href="#linearGradient2320"/>
  <linearGradient id="linearGradient3836" x1="35.621" x2="39.244" y1="36.623" y2="43.888" gradientTransform="translate(2.2486 .17297)" gradientUnits="userSpaceOnUse" xlink:href="#linearGradient2320"/>
  <linearGradient id="linearGradient3893">
   <stop id="stop3132" stop-color="#8dbbdc" offset="0"/>
   <stop id="stop3134" stop-color="#dadada" offset="1"/>
  </linearGradient>
  <linearGradient id="linearGradient3953" x1="63.595" x2="66.468" y1="91.385" y2="92.711" gradientTransform="translate(2.2486 .17297)" gradientUnits="userSpaceOnUse" xlink:href="#linearGradient3893"/>
  <linearGradient id="linearGradient3961" x1="65.452" x2="64.214" y1="91.021" y2="93.274" gradientTransform="translate(2.2486 .17297)" gradientUnits="userSpaceOnUse" xlink:href="#linearGradient3893"/>
  <linearGradient id="linearGradient3969" x1="86.074" x2="91" y1="109.43" y2="107.22" gradientTransform="translate(2.2486 .17297)" gradientUnits="userSpaceOnUse" xlink:href="#linearGradient2404"/>
  <linearGradient id="linearGradient3973" x1="86.074" x2="91" y1="109.43" y2="107.22" gradientTransform="translate(9.8279 -2.4787)" gradientUnits="userSpaceOnUse" xlink:href="#linearGradient2404"/>
  <filter id="filter3997">
   <feGaussianBlur id="feGaussianBlur3999" stdDeviation="1.7712433"/>
  </filter>
 </defs>
 <metadata id="metadata7">
  <rdf:RDF>
   <cc:Work rdf:about="">
    <dc:format>image/svg+xml</dc:format>
    <dc:type rdf:resource="http://purl.org/dc/dcmitype/StillImage"/>
   </cc:Work>
  </rdf:RDF>
 </metadata>
 <g id="layer2" fill-rule="evenodd">
  <path id="path3975" d="m55.178 119.7c-0.86486-0.69189-49.989-29.924-49.989-29.924l-0.34595-4.6703 6.4-0.69189-5.3622-16.259 5.7081-10.897-1.9027-8.6486 5.5351-8.3027 12.454-1.0378 6.4 4.6703 67.459 48.605-46.357 27.157z" fill-opacity=".66667" filter="url(#filter3997)"/>
  <path id="path2501" d="m7.0919 82.768-0.086486 5.8811 55.438 37.189-0.17297-6.1405-55.178-36.93z" fill="url(#linearGradient2503)"/>
  <path id="path2505" d="m7.0919 82.595 55.178 37.276 24.995-8.9946-5.7946-5.2757 17.297-6.227 5.9676 5.4486 21.795-7.7838-15.827-10.984-95.914-6.1405-7.6973 2.6811z" fill="url(#linearGradient2507)"/>
  <path id="path2509" d="m15.222 54.832-0.17297 26.984 41.081 27.157 0.086487-27.849-40.995-26.292z" fill="url(#linearGradient2511)"/>
  <path id="path2515" d="m32 24.649-0.51892 19.892 29.665 20.584 0.086487-21.449-29.232-19.027z" fill="url(#linearGradient2517)"/>
  <path id="path2519" d="m56.303 108.89-0.086486-27.935 54.832-18.941 0.08648 27.676-54.832 19.2z" fill="url(#linearGradient2521)"/>
  <path id="path2523" d="m62.357 119.7 24.908-8.9081v6.054l-24.908 9.0811v-6.227z" fill="url(#linearGradient2525)"/>
  <path id="path2527" d="m104.74 110.88v-6.054l21.968-8.0432 0.25946 0.69189-0.08648 5.6216-22.141 7.7838z" fill="url(#linearGradient2529)"/>
  <path id="path2531" d="m60.85 64.975 0.44194-21.302 31.024-10.253 0.97227 20.153-14.496 1.4142-17.943 9.9879z" fill="url(#linearGradient2533)"/>
  <path id="path2535" d="m98.717 99.298-0.03125 2.5312 1.625 1.0312-0.0625 1.75 1.4375 0.75-0.03125 1.4688 1.5625 1.1562 0.0625 0.875 1.4375 0.96875-0.0625-5.125-5.9375-5.4062z" fill="url(#linearGradient2537)"/>
  <path id="path2539" d="m81.592 105.64 17.156-6.2812v2.375l-15.469 5.5625-1.6875-1.6562z" fill="url(#linearGradient2541)"/>
  <path id="path2543" d="m84.749 108.36 15.563-5.625 0.03125 1.75-14.531 5.25-1.0625-1.375z" fill="url(#linearGradient2545)"/>
  <path id="path2547" d="m86.936 110.61 14.719-5.25v1.4062l-14.688 5.125-0.03125-1.2812z" fill="url(#linearGradient2549)"/>
  <path id="path2551" d="m87.28 113.27 15.875-5.5625 0.03125 1.1562-15.969 5.4688 0.0625-1.0625z" fill="url(#linearGradient2553)"/>
  <path id="path2555" d="m87.186 115.74 17.438-6.0625 0.0625 1.2812-17.25 6.2188-0.25-1.4375z" fill="url(#linearGradient2557)"/>
  <path id="path2559" d="m83.342 107.17 15.375-5.4375 1.5938 1.0938-15.844 5.625-1.125-1.2812z" fill="url(#linearGradient2561)"/>
  <path id="path2563" d="m85.999 109.7 14.188-5.0938 1.375 0.65625-14.625 5.375-0.9375-0.9375z" fill="url(#linearGradient2565)"/>
  <path id="path2567" d="m87.124 111.83 14.406-5.0625 1.4688 1-15.844 5.625-0.03125-1.5625z" fill="url(#linearGradient2569)"/>
  <path id="path2571" d="m87.374 114.3 15.844-5.5 1.1875 0.8125-17.125 6.0938 0.09375-1.4062z" fill="url(#linearGradient2573)"/>
  <path id="path3104" d="m80.466 100.56 4.4949 3.547-0.061156 0.21404 10.243-3.6693-4.7089-3.7916-9.9683 3.6999z" fill="url(#linearGradient3106)"/>
  <path id="path3108" d="m84.961 104.35 0.30578 2.1404 10.305-3.6387-0.2752-2.171-10.335 3.6693z" fill="url(#linearGradient3110)"/>
  <path id="path3112" d="m86.735 107.59 0.30578 1.6206 10.305-3.6387-0.21404-1.6512c-3.5058 1.2231-7.1154 2.4462-10.396 3.6693z" fill="url(#linearGradient3115)"/>
  <path id="path3117" d="m88.238 110.07 0.17833 1.3148 10.305-3.6387v-1.3148l-10.483 3.6387z" fill="url(#linearGradient3119)"/>
  <path id="path3121" d="m89.792 112.33 0.18346 1.162 10.305-3.6387-0.18346-1.0702-10.305 3.547z" fill="url(#linearGradient3123)"/>
  <path id="path3125" d="m91.505 114.26 0.061154 1.4677 10.305-3.6387c-0.06996-0.31209 0.07008-0.58955 0.07294-0.97446l-0.34814-0.3098-10.091 3.4553z" fill="url(#linearGradient3127)"/>
  <path id="path3129" d="m86.826 107.47-1.376-1.0702 10.091-3.5776 1.5595 1.1925-10.274 3.4553z" fill="url(#linearGradient3131)"/>
  <path id="path3133" d="m88.233 110.01-1.0396-0.73386 9.8766-3.5776 1.4371 0.85617-10.274 3.4553z" fill="url(#linearGradient3135)"/>
  <path id="path3137" d="m89.884 112.33-1.376-1.009 10.121-3.5164 1.3454 0.9479-10.091 3.5776z" fill="url(#linearGradient3139)"/>
  <path id="path3141" d="m91.413 114.38-1.4983-0.91732 10.243-3.4247 1.4066 0.82559-10.152 3.5164z" fill="url(#linearGradient3143)"/>
  <path id="path3145" d="m74.462 102.23 0.22097-14.186 22.406-7.5572 0.044194 14.098-22.672 7.6456z" fill="url(#linearGradient3147)"/>
  <path id="path3149" d="m74.462 102.23 0.22097-14.186 22.406-7.5572 0.044194 14.098-22.672 7.6456z" fill-opacity=".15686"/>
  <path id="path3728" d="m75.92 101.61-0.044194-12.684 9.325-3.403v13.214l-9.2808 2.8726z" fill="url(#linearGradient3730)"/>
  <path id="path3732" d="m86.527 97.767-0.17678-12.551 9.325-3.182 0.26516 12.772-9.4134 2.961z" fill="url(#linearGradient3734)"/>
  <path id="path3736" d="m101.55 77.703-1.1049 0.53033 0.22097 1.149 14.01 10.518 1.0165 0.83969 0.7955-0.13258v-1.149l-7.8666-6.364-7.0711-5.3917z" fill="url(#linearGradient3738)"/>
  <path id="path3740" d="m105.27 83.007c-0.13258 0.44194-0.17678 6.364-0.17678 6.364l9.4134 6.0546-0.04419-5.6127-9.1924-6.8059z" fill="url(#linearGradient3742)"/>
  <path id="path3744" d="m116.14 89.282-0.83969 0.35355-0.35356 0.39775 1.0165 0.7513 0.48614-0.26516 0.08838-0.83969-0.39774-0.39775z" fill-opacity=".15686"/>
  <path id="path3746" d="m98.717 99.298-0.03125 2.5312 1.625 1.0312-0.0625 1.75 1.4375 0.75-0.03125 1.4688 1.5625 1.1562 0.0625 0.875 1.4375 0.96875-0.0625-5.125-5.9375-5.4062z" fill-opacity=".15686"/>
  <path id="path3748" d="m18.689 61.617-0.088389 18.473 6.1872 4.1543v-18.65l-6.0988-3.9775z" fill="url(#linearGradient3750)"/>
  <path id="path3752" d="m19.838 64.091 0.088389 15.026 3.5355 2.74-0.17678-15.203-3.4471-2.5633z" fill="url(#linearGradient3824)"/>
  <path id="path3754" d="m31.107 69.66-0.088389 18.473 6.1872 4.1543v-18.65l-6.0988-3.9775z" fill="url(#linearGradient3758)"/>
  <path id="path3756" d="m32.256 72.135 0.088389 15.026 3.5355 2.74-0.17678-15.203-3.4471-2.5633z" fill="url(#linearGradient3826)"/>
  <path id="path3760" d="m43.614 77.792-0.088389 18.473 6.1872 4.1542v-18.65l-6.0988-3.9775z" fill="url(#linearGradient3764)"/>
  <path id="path3762" d="m44.763 80.266 0.088389 15.026 3.5355 2.74-0.17678-15.203-3.4471-2.5633z" fill="url(#linearGradient3828)"/>
  <path id="path3766" d="m36.72 29.929-0.088389 15.07 6.1872 4.1543v-15.247l-6.0988-3.9775z" fill="url(#linearGradient3770)"/>
  <path id="path3768" d="m37.869 32.404 0.044195 11.8 3.5797 2.5191-0.17678-11.756-3.4471-2.5633z" fill="url(#linearGradient3836)"/>
  <path id="path3772" d="m48.52 37.796-0.088389 15.07 6.1872 4.1543v-15.247l-6.0988-3.9775z" fill="url(#linearGradient3776)"/>
  <path id="path3774" d="m49.669 40.271 0.044195 11.8 3.5797 2.5191-0.17678-11.756-3.4471-2.5633z" fill="url(#linearGradient3834)"/>
  <path id="path3778" d="m66.551 43.762-0.088389 15.07 5.922-1.9445 0.17678-15.114-6.0104 1.9887z" fill="url(#linearGradient3782)"/>
  <path id="path3780" d="m67.7 45.309-0.088388 11.49 3.6239-1.2374-0.17678-11.314-3.3588 1.0607z" fill="url(#linearGradient3832)"/>
  <path id="path3784" d="m82.152 38.812-0.088389 15.07 5.922-1.9445 0.17678-15.114-6.0104 1.9887z" fill="url(#linearGradient3788)"/>
  <path id="path3786" d="m83.301 40.359-0.088388 11.49 3.6239-1.2374-0.17678-11.314-3.3588 1.0607z" fill="url(#linearGradient3830)"/>
  <path id="path3790" d="m15.186 54.673 16.375-10.25 29.312 20.562 17.688-9.75 5.375 3.6875-27.688 21.75-41.062-26z" fill="url(#linearGradient3792)"/>
  <path id="path3794" d="m56.436 80.61 27.562-21.688 27 3.1875-53.625 18.75-0.9375-0.25z" fill="url(#linearGradient3796)"/>
  <path id="path3798" d="m78.811 54.985 14.375-1.4375-0.1875-4.0625 1.375 0.9375 16.25 11.25-26.563-2.625-5.25-4.0625z" fill="url(#linearGradient3806)"/>
  <path id="path3808" d="m72.874 27.485-11.312 15.875 0.5625 0.5 30.125-10.438-0.625-0.6875-18.75-5.25z" fill="url(#linearGradient3810)"/>
  <path id="path3812" d="m31.936 24.36 18.812-10.875 22.25 14-11.625 16.062-29.438-19.188z" fill="url(#linearGradient3814)"/>
  <path id="path3816" d="m50.811 13.36 22.188 14.188 17.812 5.125s-8.25-5.75-8.6875-6.1875-19.375-13.188-19.375-13.188l-11.938 0.0625z" fill="url(#linearGradient3818)"/>
  <path id="path3820" d="m73.124 16.048 1.5 0.4375 2.375 0.4375h3.3125l4.5625-0.8125-0.375 0.5-1 0.5625-1.625 0.75-2 0.3125 0.625 0.5625 1.5 0.9375 1.3125 0.6875s-1.25 0.3125-2 0.25-3.8125-0.125-3.8125-0.125l-3.5-0.375-1.125-0.4375 0.25-3.6875z" fill="url(#linearGradient3822)"/>
  <path id="path3838" d="m7.0919 82.768-0.086486 5.8811 55.438 37.189-0.17297-6.1405-55.178-36.93z" fill-opacity=".15686"/>
  <path id="path3840" d="m15.222 54.832-0.17297 26.984 41.081 27.157 0.086487-27.849-40.995-26.292z" fill-opacity=".15686"/>
  <path id="path3842" d="m32 24.649-0.51892 19.892 29.665 20.584 0.086487-21.449-29.232-19.027z" fill-opacity=".15686"/>
  <path id="path3844" d="m15.186 54.673 16.375-10.25 29.312 20.562 17.688-9.75 5.375 3.6875-27.688 21.75-41.062-26z" fill-opacity=".15686"/>
  <path id="path3846" d="m31.936 24.36 18.812-10.875 22.25 14-11.625 16.062-29.438-19.188z" fill-opacity=".15686"/>
  <path id="path3951" d="m68.672 89.415-3.5355 7.3804 0.22097 2.1876 0.26516-0.24307 1.127-1.149 2.5191-7.9329 1.2595 0.64082v-0.066291l-0.37565-0.88388-0.92808-0.46404 0.61872-1.3921-0.88388-0.39775-0.088389 1.6131-0.68501-0.30936-0.57452 0.48614 1.0607 0.53033z" fill="url(#linearGradient3953)"/>
  <path id="path3959" d="m63.701 90.21-1.149-0.99437-0.66291 0.7955 1.591 0.59662-0.61872 0.57452 0.39775 0.61872 0.7955-0.90598 5.9883 5.3254 2.2097 0.61872-0.066292-0.28726-0.90598-1.5689-6.828-4.5299 0.99437-1.0828-1.0165 0.088389-0.7292 0.7513z" fill="url(#linearGradient3961)"/>
  <path id="path3963" d="m82.23 99.894-0.69129 0.14044 4.7598 3.8277 0.15403 2.1784 1.3971 1.2721 0.10826 1.6212 1.4047 0.82924 0.26451 1.2645 1.3049 1.0701 0.16919 0.91161 1.346 1.0297-0.066291 1.2484 0.73483-0.15468 0.012945-1.5275-1.1342-0.86206-0.125-0.99621-1.5092-0.96875-0.25536-1.4192-1.3643-0.71875-0.13036-1.6288-1.5167-1.25-0.15403-2.1746-4.7096-3.6929z" fill="url(#linearGradient3969)"/>
  <path id="path3971" d="m89.81 97.242-0.69129 0.14043 4.7598 3.8277 0.15403 2.1784 1.3971 1.2721 0.10826 1.6212 1.4047 0.82924 0.26451 1.2645 1.3049 1.0701 0.16919 0.91161 1.346 1.0297-0.066287 1.2484 0.73484-0.15468 0.01294-1.5275-1.1342-0.86206-0.125-0.99621-1.5092-0.96875-0.25536-1.4192-1.3643-0.71875-0.13036-1.6288-1.5167-1.25-0.15403-2.1746-4.7096-3.6929z" fill="url(#linearGradient3973)"/>
 </g>
 <g id="layer1">
  <path id="path2308" d="m50.686 13.298-19.031 11.094-0.46875 19.906-16.344 10.406 0.03125 25.156-8.1875 2.8125 0.0625 6.125 55.656 37.312 64.656-22.781 0.03125-6.25-10.312-7.2188c-0.0565-0.3513-0.23491-0.6916-0.46875-0.90625l-4.7812-3.6875v-5.375-0.03125l-0.03125-17.75-18.25-12.938-0.78125-15.906-19.156-12.969v-0.21875c3.5377 0.95234 7.0208 0.83725 10.562 0.46875-0.99606-0.67745-2.3049-0.84724-3.5938-2.0625 2.3387-0.11356 3.9857-1.8349 5.4375-2.6875-4.1339 0.59171-8.2131 1.7801-12.406 0v-1.125c-0.25-0.5-0.27083-0.375-0.6875 0.125l-0.03125 5.0312-9.6562-6.5312h-12.25zm1.0312 0.375 11 0.09375 3.5312 2.375-10.469 0.09375-4.0625-2.5625zm-1.0625 0.15625 4.0938 2.5938-17.625 11.125-4.625-3.0312 18.156-10.688zm5.2812 2.5h10.594l4.4375 2.9688-10.688-0.25-4.3438-2.7188zm17.375 0.03125c2.7909 0.89037 7.589 1.3518 10.938 0.0625-0.5475 0.97728-3.5432 1.6654-4.6875 1.6562 0.46327 0.72788 1.8399 1.7252 3.1562 2.1562-2.7925 0.67832-6.3943 0.068183-9.4062-0.53125v-3.3438zm-18.281 0.21875 4.125 2.5938-16.469 12-5.4062-3.5312 17.75-11.062zm5.4375 2.625 10.75 0.28125 1.375 0.9375v1.9688l-7.6562-0.375-4.4688-2.8125zm-1.0625 0.125 4.6562 2.9375-15.5 12.719-5.7188-3.7188 16.562-11.938zm13.906 1.5625 2.4375 1.6562-2.4375-0.125v-1.5312zm-8.2188 1.2188 7.5 0.4375-0.03125 3-2.6562-0.40625-4.8125-3.0312zm-0.78125 0.3125 4.6562 2.9375-13.531 14.125-6.7188-4.4062 15.594-12.656zm9 0.1875 2.75 0.15625 6.2812 4.2188-9.0312-1.3438v-3.0312zm-41.031 2.4688 7.5938 5.0312v1.625l-3.375-2.25v1.625l-4.2812-2.8438 0.0625-3.1875zm37.812 0.1875 2.4688 0.375v1.1875l-2.4688-1.5625zm-0.875 0.25 3.3438 2.0938-11.312 15.656-5.6875-3.7188 13.656-14.031zm4.0938 0.25 9.3438 1.4062 6.6562 4.5-15.938-4.3438-0.0625-0.03125v-1.5312zm-0.3125 2 0.125 0.03125 6.6562 9.5-8.3125 2.8438-3.5625-5.125 5.0938-7.25zm0.53125 0.15625 10 2.8438 3.3438 4.125-6.9375 2.375-6.4062-9.3438zm-41.312 0.625 3.5312 2.3125v3l-3.5938-2.375 0.0625-2.9375zm7.8438 1.6875 12.75 8.4688v1.5938l-4.5-3v1.5625l-5.3125-3.4688v-1.5938l-2.9688-1.9688 0.03125-1.5938zm-3.0312 0.09375 5.4688 3.6562 0.09375 14.625-5.75-3.9062 0.1875-14.375zm46.969 0.5625 7.9688 2.2812-4.9375 1.6875-3.0312-3.9688zm-48.062 0.09375 0.5625 0.375-0.03125 2.9688-0.5625-0.375 0.03125-2.9688zm-3.7812 0.71875 3.5938 2.375v0.03125l0.09375 0.03125 0.625 0.40625-0.03125 2.8438-4.3125-2.8125 0.03125-2.875zm5.5938 0.46875v12.062l3.875 2.7812-0.125-12.312-3.75-2.5312zm0.3125 0.5625 3.125 2.1875 0.125 11.562-3.25-2.4062v-11.344zm53.938 1.125c0.06432 1.135 0.10406 2.2984 0.125 3.375l-3.6875 1.2188v-2.0625l-0.9375 0.3125v-1.3125l4.5-1.5312zm-59.906 0.96875 3.4062 2.2188v2.4375l-3.4375-2.25 0.03125-2.4062zm35.625 0.40625 3.5938 4.9688-9.3125 3.1562 5.7188-8.125zm19.594 0.21875 0.03125 1.3125-5.4062 1.875-0.03125 1.9375-5.5625 1.8438 0.03125-3.2188 10.938-3.75zm-44.312 0.21875 2.2188 1.4688v2.9688l-2.2188-1.4688v-2.9688zm44.875 1.4375v14.625l-5.5938 1.6875 0.21875-14.281 5.375-2.0312zm-52.188 0.03125 0.75 0.5-0.03125 2.4375-0.75-0.5 0.03125-2.4375zm9.7188 0.125 2.9062 1.9062-0.03125 2.9375-2.9062-1.9062 0.03125-2.9375zm46.75 0.15625 0.15625 3.1875-3.875 1.25v-3.2188c1.2365-0.41266 2.481-0.81929 3.7188-1.2188zm-60.094 0.0625 4.3438 2.8438v2.3438l-4.375-2.8438 0.03125-2.3438zm16.781 0.65625 5.4688 3.6562 0.09375 14.625-5.75-3.9062 0.1875-14.375zm4.1562 0.6875 7.9062 5.25-0.03125 3.0938-6.0625-4v-1.5625l-1.8438-1.2188 0.03125-1.5625zm33.938 0-3.75 1.2812v11.875l3.875-1.1562-0.125-12zm-43.938 0.0625 2.2188 1.4688v0.03125l3.0625 2-0.03125 2.75-5.25-3.4375v-2.8125zm33.188 0.40625v3.1875l-3.4688 1.1562v-2.2188l-6.5 2.25-0.03125 2.125-0.65625 0.21875 0.03125-3.0938 10.625-3.625zm10.312 0.1875 0.28125 11.031-3.25 1-0.0625-11.219 3.0312-0.8125zm-36.938 0.5v12.062l3.875 2.7812-0.125-12.312-3.75-2.5312zm-17.531 0.0625 3.4688 2.2812v3.0938l-3.5312-2.3125 0.0625-3.0625zm17.844 0.5 3.125 2.1875 0.125 11.562-3.25-2.4062v-11.344zm32.031 0.25v3.1875l-9.1875 2.9688v-3.125l9.1875-3.0312zm10.406 0 0.125 2.5938-4 1.2812v-2.5938l3.875-1.2812zm-49.312 1.1562 2.3125 1.5312h-0.09375v2.3438l-2.2188-1.4375v-2.4375zm29.156 0.1875v14.625l-5.5938 1.6875 0.1875-14.281 5.4062-2.0312zm-36.469 0.3125 0.71875 0.46875-0.03125 2.0625 6.625 4.5938v-2.3125l2.2188 1.4375v3.125l-9.5625-6.2812 0.03125-3.0938zm29.688 0.53125v3.0312l0.09375 0.03125-4.0312 1.3125 0.03125-3.0312 3.9062-1.3438zm-33.406 0.375 7.5938 5.0312v1.4062l-7.625-5.3125 0.03125-1.125zm22.844 0.125 2.1875 1.4375v2.9688l-2.1875-1.4375v-2.9688zm-9.4062 0.0625 2.8438 1.875-0.03125 2.375-2.8438-1.8438 0.03125-2.4062zm47.031 0.03125 0.15625 2.75-4.1562 1.375v-2.8125l4-1.3125zm-21.219 0.28125-3.75 1.2812v11.875l3.875-1.1562-0.125-12zm10.688 0.3125-0.03125 2.625-5.5312 1.7812 0.03125-2.625 5.5312-1.7812zm-11.125 0.34375 0.25 11.031-3.25 1.0312-0.03125-11.219 3.0312-0.84375zm-27.781 0.15625 2.2188 1.4375v0.0625h0.09375l2.9062 1.9062v2.3125l-5.2188-3.375v-2.3438zm-11.5 0.28125 3.0625 2.125-14.344 10.281-4.0625-2.625 15.344-9.7812zm25.688 0.09375 3.6875 2.4375-0.03125 2.9375-3.6875-2.4375 0.03125-2.9375zm9 0.90625v3.0938l-4.7812 1.5625 0.03125-3.0625 4.75-1.5938zm10 0.0625v2.625l-3.4688 1.125v-2.625l3.4688-1.125zm16.406 0.53125 0.09375 2.2812-4.25 1.4062v-2.3438l4.1562-1.3438zm-37.781 0.1875 6 3.9688-0.03125 2.625-5.9688-3.9062v-2.6875zm27.062 0.28125-0.03125 2.8438-9.125 2.9688v-2.875l9.1562-2.9375zm-47.062 0.25 4.4688 3.125-14.188 10.094-4.7188-3.0312 14.438-10.188zm4.9375 1.25 13 8.5938v1.9062l-13.031-9.0938 0.03125-1.4062zm5.6562 0.3125 2.8125 1.8438-0.03125 2.125 6.625 4.5938v-2.375l2.25 1.4688v3.1875l-11.688-7.7188 0.03125-3.125zm47.312 0.1875 0.125 2.9375-6.625 2.1562-3.375 0.375 0.03125-0.6875 5.5625-1.7812v-1.5938l4.2812-1.4062zm-26.531 0.21875-0.03125 2.6562-0.59375 0.1875v-2.6562l0.625-0.1875zm-0.8125 0.25 0.03125 2.6562-4.0312 1.3125 0.03125-2.6562 3.9688-1.3125zm-10.562 0.21875 2.1875 1.4375v2.4062l-2.1875-1.4375v-2.4062zm27.031 0.34375-0.03125 2.3438-5.5938 1.8125 0.03125-2.3438 5.5938-1.8125zm11.438 0.40625 1.6875 1.1562-1.6562-0.1875-0.03125-0.96875zm-53.75 0.09375 4.1875 2.9062-14 10-4.4688-2.875 14.281-10.031zm17.656 0.71875 3.5938 2.375-0.03125 2.375-3.5938-2.375 0.03125-2.375zm36.156 0.4375 2 0.1875 7.1563 4.9375-21.969-0.8125-1.125-0.78125 14-1.5938-0.0625-1.9375zm-17.281 0.21875v2.3438l-3.3438 1.0938v-2.3438l3.3438-1.0938zm-9.9062 0.09375-0.0625 5.5625-4.8125 1.5625 0.125-5.5625 4.75-1.5625zm26.688 0.15625 0.0625 1.1875-5.75 0.65625 5.6875-1.8438zm-38.031 0.21875 5.9375 3.9062-0.03125 2.2812-5.9062-3.8438v-2.3438zm27 0.1875v1.5625l0.875-0.28125v0.65625l-4.3125 0.46875-6.8438 3.9062v-1.4688l1.1875-0.375v-1.5l9.0938-2.9688zm-37.875 1.0625 4.5312 3.1562-13.812 9.8438-4.7812-3.0625 14.062-9.9375zm-28.375 1.7188 5.0625 3.2812v2.875l-5.0312-3.2812h-0.03125v-2.875zm62.781 0.15625 1.2812 0.875-29.031 20.5-5.3125-3.4062 13.5-9.5 2.1562 1.5 17.406-9.9688zm2.5938 0.8125 21.781 0.65625 6.5625 4.5312-25-2.8438-3.3438-2.3438zm-1.0938 0.21875 3.5312 2.4062-27.375 21.438-5.2812-3.4062 29.125-20.438zm-22.594 0.0625 3.4688 2.2812-0.03125 3.1562-3.4688-2.2812 0.03125-3.1562zm-8.5312 0.34375 4.6562 3.25-13.594 9.75-4.9688-3.2188 13.906-9.7812zm4.2188 0.28125 7.75 5.125-0.03125 2.1562-1.5938-1.0938-4.9062-3.4375-0.03125-0.03125-0.1875-0.15625-0.03125 0.03125-1-0.71875 0.03125-1.875zm18.406 0.25 0.03125 1.4688-10.062 3.25 0.03125-2.9375 4.75-1.5625v1.4688l5.25-1.6875zm-55.781 0.96875 9.75 6.3438v3.3125l-0.3125-0.21875v-2.4688l-6.5-4.3125-0.03125 2.5625-2.9062-1.9062v-3.3125zm5.25 0.3125 9.6875 6.25v2.9062l-9.7188-6.3125 0.03125-2.8438zm63.25 0.3125 10.562 1.3125 4.2812 5.6875-8.0938 2.7812-6.75-9.7812zm-0.21875 0.15625 6.8125 9.6562-7.8438 2.7188-5.2188-7.375-0.1875 0.1875 5.25 7.2188-9.2812 3.1875-3.4062-4.5625 7.625-6.0312 6.25-5zm-13.094 0.09375-5.1875 2.9688v-1.2812l5.1875-1.6875zm-17.156 1.0312 4.9375 3.4375-13.406 9.5938-5.2188-3.375 13.688-9.6562zm41.438 0.0625 9.25 1.1562 1.6562 2.0625-6.875 2.375-4.0312-5.5938zm-29.656 0.65625 0.03125 1.3125-4.125 2.3438 0.03125-2.3438 4.0625-1.3125zm39.25 0.53125 5.3438 0.65625-3.8438 1.3125-1.5-1.9688zm-85.594 0.34375 5.4688 3.6562 0.09375 18.125-3.8125-2.5938 0.03125-1.0312 2.8125 2.0312-0.125-15.75-3.75-2.5312v15.5l0.875 0.625v1.0625l-1.7812-1.2188 0.1875-17.875zm-3.4688 0.0625 0.1875 0.125v2.9062l-0.1875-0.125v-2.9062zm0.375 0.25 2.5312 1.6562v2.9062l-2.5625-1.6875 0.03125-2.875zm94.813 0.125 0.03125 3.7812-11.5 3.9062 0.03125-3.6562 11.438-4.0312zm-90.688 2.0312 3.125 2.1875 0.125 15-3.25-2.4062v-14.781zm5.4375 0.5 10.812 7.0312v0.71875l-5.5625-3.6875-0.03125 2.6562-5.25-3.4375 0.03125-3.2812zm5.1875 0.21875 11.062 7.1562v2.9375l-11.094-7.2188 0.03125-2.875zm-15.125 0.03125 2.9062 1.9062-0.03125 3.4062-2.9062-1.875 0.03125-3.4375zm95.219 1.1875 0.03125 3.1562-5.7188 1.9375 0.03125-3.1875 5.6562-1.9062zm-11.656 0.125v3.625l-10.906 3.7188 0.03125-3.5312 2.7188-0.9375 0.03125-0.03125 8.125-2.8438zm-74.125 1.6875 5.5625 3.625h-0.0625v2.8438l-5.5312-3.5625 0.03125-2.9062zm79.938 0.15625v3.1875l-11.406 3.875 0.03125-3.1875 11.375-3.875zm-89.406 0.53125 0.21875 0.15625v3.0312l-0.09375-0.0625-0.125 0.03125v-3.1562zm0.40625 0.25 2.5 1.625-0.03125 3.0312-2.5-1.625 0.03125-3.0312zm94.875 0.625 0.03125 3.0938-11.625 3.9375 0.03125-3.125 11.563-3.9062zm-79.531 0.09375 5.4688 3.6562 0.09375 18.125-5.75-3.9062 0.1875-17.875zm56.781 0.53125v3.5312l-5.8438 1.9688h-0.15625v0.0625l-5.5312 1.875 0.03125-3.375 11.5-4.0625zm-18.312 0.0625 3.4375 4.4688-9.5625 3.3125-1.4062-1.7812 7.5312-6zm-44.781 0.90625 0.34375 0.21875v3.4062l-0.34375-0.21875v-3.4062zm0.53125 0.34375 5.2188 3.4062-0.03125 3.375-5.2188-3.4062 0.03125-3.375zm6.5 0.0625v15.5l3.875 2.7812-0.125-15.75-3.75-2.5312zm-1.3125 0.125 0.03125 0.03125v2.9062l-0.0625-0.03125 0.03125-2.9062zm5.8125 0.21875 10.125 6.625v0.59375l-3.125-2.0625v2.7188l-6.25-4.0938v-2.5625l-0.78125-0.5 0.03125-0.71875zm-20.969 0.0625 2.875 1.875v3.2812l-2.875-1.8438v-3.3125zm77.844 0.125v3.1875l-11.156 3.7812 0.03125-3.1875 11.125-3.7812zm-61.062 0.03125 3.125 2.1875 0.125 15-3.25-2.4062v-14.781zm9.625 0.125 10.125 6.5312v3l-10.156-6.5938 0.03125-2.9375zm68.906 0.59375 0.03125 3.4688-5.7812 1.9688 0.03125-3.5 5.7188-1.9375zm-11.781 0.6875v3.125l-10.844 3.6562 0.03125-3.125 10.812-3.6562zm-22.688 0.78125v3.375l-10.906 3.6875 0.03125-3.25 8.125-2.8438 2.75-0.96875zm-51.406 0.5 5.5312 3.625v3.0312l-5.5312-3.5938v-3.0625zm79.969 0.03125v3.4688l-1.5312 0.53125-1.9062-1.4688c-0.51318 0.2089-1.7197 0.35167-0.96875 1.9688l0.40625 0.3125-3.6563 1.25v-1l-3.6875 1.25 0.03125-2.4688 11.313-3.8438zm-89.406 0.6875 0.21875 0.125v3.0625l-0.21875-0.15625v-3.0312zm0.40625 0.25 2.4688 1.5938-0.03125 2.5625 2.25 1.5312v0.40625l-4.7188-3.0625 0.03125-3.0312zm66.125 0.15625v3.1562l-11.281 3.8438 0.03125-3.1875 11.25-3.8125zm-44.812 0.03125c1.4949 0.98504 2.9998 1.9591 4.5 2.9375v2.875l-4.5312-2.9062 0.03125-2.9062zm24.781 0.4375 1.375 1.6875-6.1875 2.125 4.8125-3.8125zm48.844 0.125 0.03125 3.1875-4.4375 1.5-2.9062-2.25 7.3125-2.4375zm-22.813 0.71875v3.125l-11.531 3.9062 0.03125-3.125 11.5-3.9062zm13.563 0.53125 14.5 11.469c0.28835 0.49396 0.53514 1.3213-0.4375 0.9375l-0.5625-0.40625 0.75-0.53125-0.46875-0.21875-0.59375 0.5-13.781-10.281c-0.7921-0.86084-0.03805-1.4466 0.59375-1.4688zm-57.594 0.125 5.4688 3.6562 0.09375 18.125-5.75-3.9062 0.1875-17.875zm-19.062 0.21875 0.34375 0.21875v3.3125l-0.375-0.25 0.03125-3.2812zm40.344 0.0625v3.25l-8.8125 2.9688-0.03125-3.0938 8.8438-3.125zm-39.812 0.28125 5.1562 3.375v3.25l-5.1875-3.3438 0.03125-3.2812zm21.312 0.15625 8.6875 5.6875 0.03125 3.2812-5.5312-3.625v-2.5938l-3.2188-2.125 0.03125-0.625zm46.625 0.125v2.4688l-11.219 3.8125 0.03125-2.5 11.188-3.7812zm-77.906 0.0625 9.875 6.4375h-0.09375v2.6562l-9.7812-6.5v-2.5938zm36.719 0.0625 3.2188 2.0938 0.03125 3.0312-3.2812-2.125 0.03125-3zm-10.312 0.15625c0.51031 0.3331 1.0237 0.66525 1.5312 1v2.8438l-1.5625-1 0.03125-2.8438zm-4.7188 0.125c2.0636 1.3313 4.1275 2.6642 6.1875 4l0.03125 3.4375-6.2188-4.0625v-3.375zm7.5312 0.65625v15.5l3.875 2.7812-0.125-15.75-3.75-2.5312zm25.875 0v3.1875l-10.031 3.4062 0.03125-3.2188 10-3.375zm30.531 0 2.9062 2.2188-4.8125 1.625 0.03125-3.2188 1.875-0.625zm9.75 0.125v3.0625l-1.4688 0.5-2.75-2.1562 4.2188-1.4062zm-96.031 0.21875v1.6875l41.031 27.375 24.562-8.7188 4.375 3.4688v0.0625l-3.7188 1.375 5.5312 5.125-24.375 8.8125-54.531-36.719 7.125-2.4688zm30.188 0.21875 3.125 2.1875 0.125 15-3.25-2.4062v-14.781zm54.031 0.125v3.2188l-1.8438 0.625 0.03125-3.2188 1.8125-0.625zm-2.4688 0.34375v13.094l-0.59375 0.25-0.1875-12.594-9.6562 3.25 0.0625 12.812-0.90625 0.3125v-12.781l-9.75 3.4688v12.719l-0.75 0.28125v-13.375l21.781-7.4375zm-20.25 0.375v3.125l-7.375 2.5-0.125-0.0625v0.09375l-3.4062 1.1562 0.03125-3.125 10.875-3.6875zm-55.594 0.375 4.1562 2.8125v-2.75l5.5625 3.625v3l-9.7188-6.3125v-0.375zm74.75 0.5v0.71875l-8.7812 14.031v-1.2812l8.375-13.344 0.40625-0.125zm8.7188 0.0625 0.6875 0.53125-0.0625 2.375-7.625 2.5625v-3.0938l7-2.375zm-9.3438 0.15625-8.1875 12.938v-1.4375l7-11.094 1.1875-0.40625zm-12.844 0.28125v2.4688l-7.7812 2.6562v1l-3.5 1.1875 0.03125-3.5 11.25-3.8125zm11.438 0.1875-6.7812 10.75v-1.4375l5.5938-8.9062 1.1875-0.40625zm-56.281 0.03125c1.4863 0.9747 3.0308 1.9871 4.5312 2.9688v3l-4.5312-2.9375v-3.0312zm68.219 0.25 8.6562 6.5938 0.0625 5.0312-8.9062-5.9062 0.1875-5.7188zm-9.9063 0.03125 0.03125 1.3438-8.0938 12.781-0.71875 0.25v-0.3125l8.7812-14.062zm-88.063 0.09375 54.563 36.812 0.09375 5-54.625-36.781-0.03125-5.0312zm103.44 0.03125 0.03125 1.4062-1.2812-0.96875 1.25-0.4375zm-50.469 0.03125v3.1875l-3.9375 1.3438v-3.1875l3.9375-1.3438zm31.625 0.03125-5.3438 8.5-0.03125-1.4062 4.25-6.7188 1.125-0.375zm-1.375 0.46875-4 6.3125v-1.5625l2.7188-4.3125 1.2812-0.4375zm-40.688 0.53125 2.0625 1.3438v2.9062l-2.0625-1.3438v-2.9062zm39.156 0-2.4688 3.9062-0.03125-1.5938 1.2188-1.875 1.2812-0.4375zm6.4062 0.4375v1.4375l-6.7188 10.562-1.0938 0.40625 7.8125-12.406zm-7.9688 0.09375-0.9375 1.4688v-1.1562l0.9375-0.3125zm-22.281 0.15625v3.125l-2.6562 0.90625-0.09375-0.09375-0.125 0.15625-5.9062 2-0.03125-3.0938 8.8125-3zm39.563 0.28125-0.0625 3.25-5.5938 1.875 0.03125-3.2188 5.625-1.9062zm-79.375 0.0625 10.812 7.0312v2.9062l-10.844-7.2188 0.03125-2.7188zm26.75 0.4375 3.2812 2.1562 0.03125 2.875-3.3438-2.1562 0.03125-2.875zm32.656 0v1.0312l-0.8125-0.75 0.8125-0.28125zm-42.938 0.15625c0.48333 0.31676 1.0239 0.67186 1.4688 0.96875l-0.03125 2.9688-1.5-0.96875 0.0625-2.9688zm-4.75 0.21875 6.1875 4v3.25l-6.2188-4 0.03125-3.25zm46.625 0 1.0625 0.96875 0.03125 1.5938-2.3125-2.125 1.2188-0.4375zm11.719 0.3125 0.03125 1.5-5.2812 8.25-1.2188 0.4375 6.4688-10.188zm-24.938 0.03125v3.5l-0.09375 0.03125-0.28125-0.90625-0.875-0.40625 0.65625-1.375-0.8125-0.375 1.4062-0.46875zm11.75 0.1875 2.5625 2.3438v1.5625l-3.7812-3.4688 1.2188-0.4375zm24.531 0.09375-0.09375 2.7188 4.0625 2.5 2.5312-1.8125-1.9062 0.28125 0.25-1.5625-1.4688 0.4375-0.09375-2.375-1.0625 1.6875-0.78125-1.5625-0.59375 1.25-0.84375-1.5625zm-38.063 0.3125-0.0625 1.375-0.65625-0.3125-0.59375 0.59375 1.0625 0.53125-0.8125 1.6875-1.4688 0.5-1.75-1.1562 1-1.125-1.1875 0.03125-0.65625 0.75-0.90625-0.8125 6.0312-2.0625zm0.3125 0.03125 0.59375 0.375-0.5 0.90625-0.21875-0.09375 0.125-1.1875zm11.75 0.09375 4.0312 3.6875 0.03125 1.5312-5.25-4.8125 1.1875-0.40625zm18.156 0.03125v3.2188l-1.8438 0.625 0.03125-3.2188 1.8125-0.625zm-49.062 0.25 5.5625 3.625 0.03125 3.4062-5.5938-3.6562v-3.375zm29.469 0.21875 5.5 5v1.5625l-6.6875-6.125 1.1875-0.4375zm-48.812 0.15625 6.5312 4.375v-2.5938l4.5625 2.9688v3l-11.094-7.2188v-0.53125zm47.406 0.375 6.9062 6.3125v1.4375l-8-7.375 1.0938-0.375zm17.531 0v1.5l-3.7812 5.9688-1.25 0.4375 5.0312-7.9062zm-27.469 0.15625 2.0312 0.875 0.3125 0.75-1.7188-0.875-1-0.5 0.375-0.25zm8.5625 0.3125 8.3125 7.5625v1.375l-8.9062-8.25v-0.46875l0.59375-0.21875zm28.125 0.03125v0.46875l0.15625 0.09375v1.7812l-7.75 2.7188v-2.5l7.5938-2.5625zm-30.531 0.1875v3.25l-4.5312 1.5312-1.4375-0.96875 0.59375-2 1.5938-0.53125 0.125 0.0625-0.03125-0.09375 3.6875-1.25zm-11.625 0.34375 0.75 0.71875-0.1875 0.1875-1.0625-0.4375 0.5-0.46875zm2.625 0-1.3125 1.4062-0.0625 0.0625-0.65625 0.75-0.15625-0.4375 1.375-1.6875 0.8125-0.09375zm-3.0938 0.09375-0.4375 0.53125 1.5625 0.5625-0.46875 0.5625 0.40625 0.71875 0.8125-0.875 1.0938 0.96875-4.5625 1.5625 0.03125-3.5 1.5625-0.53125zm6.5312 0.03125 0.21875 0.0625 0.1875 0.0625-0.96875 3.125-0.40625-0.28125 0.375-1.0625-0.0625-0.03125-0.375 1.0625-0.25-0.15625 1.2812-2.7812zm36.438 0.03125 1.5938 1.0312-1.625 0.5625 0.03125-1.5938zm-35.875 0.15625 1 0.53125-1.3125 0.4375 0.3125-0.96875zm6.8125 0.125 8.9062 8.2188v0.1875l-0.84375 0.28125-8.0312-7.4062-0.03125-1.2812zm-15.656 0.25v3.5l-3.875 1.3125-0.03125-3.5 3.9062-1.3125zm35.188 0.09375v1.5312l-2.2812 3.5625-1.2812 0.46875 3.5625-5.5625zm19.031 0.03125 1.0938 0.84375c0.45274-0.097223 0.71282-0.28514 0.875-0.5l8.9375 6.3125-20.75 7.75-6.0313-5.5312-3.6562 1.3437-4.3438-3.4375 16.688-5.9375 7.1875 4.6875v-5.5312zm-50.219 0.34375 6.8125 4.5312 0.8125 1.25 0.03125 0.09375-6.2188-4.4375-0.0625 0.0625 6.1562 4.5312-1.7188-0.4375-6.0625-5.2812 0.25-0.3125zm-14.438 0.75 2.0625 1.3438v2.9688l-2.0625-1.3438v-2.9688zm17.656 0.03125-0.40625 0.84375-0.71875-0.46875 1.125-0.375zm8.4688 0.09375 7.8438 7.1875-1.1562 0.40625-6.6875-6.0938v-1.5zm19.5 0.5625 0.03125 1.5312-0.8125 1.2188-1.25 0.4375 2.0312-3.1875zm-30.312 0.125v3.1875l-4.7812 1.6562h-0.09375v0.03125l-3.875 1.3125v-3.2188l8.75-2.9688zm0.1875 0.15625 1.2188 1.0625v0.03125l-0.90625 1.8125-0.34375 0.125 0.03125-3.0312zm8.7812 0.21875-0.03125 3.0938-2.0938 0.71875-0.71875-1.375-0.625-0.40625v-0.84375l3.4688-1.1875zm-37.781 0.125 10.188 6.6562v3l-10.219-6.7812 0.03125-2.875zm15.75 0.15625 3.375 2.1875 0.03125 3-3.4375-2.25 0.03125-2.9375zm-10.312 0.09375 1.4688 0.96875-0.03125 2.375 6.625 4.4062v-2.4687l2.0625 1.3438v2.9687l-10.156-6.5937 0.03125-3zm34.188 0.375 6.4062 5.875-1.125 0.40625-5.2812-4.8438v-1.4375zm-9.25 0.25 0.28125 0.28125-1.7812 4.7812-0.03125-1.7812 1.5312-3.2812zm3.75 0.25v0.65625l-0.65625-0.4375 0.65625-0.21875zm-3.3438 0.09375 0.375 0.375-1.0312 3.25-1.0938 1.25 1.75-4.875zm28.375 0v0.625l-0.53125 0.1875 0.53125-0.8125zm-27.812 0.53125 2.2812 2.0312 0.5 0.09375v0.3125l-4.5938 1.5312 0.8125-0.75 1-3.2188zm-17.844 0.21875 5.6562 3.6875 0.03125 3.25-5.6875-3.6875v-3.25zm26.125 0.4375 5 4.5625-1.0625 0.40625-3.9062-3.5625-0.03125-1.4062zm-10.406 0.375-0.65625 1.3438 0.1875 1.9062-4.6562 1.5625 0.03125-3.0937 5.0938-1.7188zm8.5312 0.375v3.25l-8.7812 2.9687 0.03125-3.125 0.21875-0.1875 5.8438-2 0.875 0.1875-0.21875-0.40625 2.0312-0.6875zm-3.4688 0.75 0.4375 0.09375-0.4375 0.15625v-0.25zm5.375 0.21875 3.625 3.3125-1.2188 0.4375-2.4062-2.1875v-1.5625zm14.406 0.3125 4.3438 3.4375-9.875 3.625v-0.09375l-4.3438-3.4688 9.875-3.5zm-30.125 0.125v3.0937l-3.8438 1.3125-0.03125-3.0937 3.875-1.3125zm66.094 0.0625 0.0625 5.625-21.656 7.6562v-5.5938l21.594-7.6875zm-50.375 1.4062 2.125 1.9375-1.25 0.46875-0.84375-0.78125-0.03125-1.625zm-10.906 0.21875 0.03125 0.21875 0.03125-0.03125v3l-8.7188 2.9375v-3.2188l8.6562-2.9062zm9 0.34375v2.8125l-3.4688 1.2188 0.03125-2.875 3.4375-1.1562zm-27.375 0.15625 8.8438 5.7812 0.03125 3.1562-8.9062-5.9062 0.03125-3.0312zm5.375 0.25 3.4375 2.2187 0.03125 3-3.5-2.2812 0.03125-2.9375zm46.219 0.03125 0.125 1.9062-2.9688 1.0625-0.1875-1.875 3.0312-1.0937zm0.40625 0 5.5625 5.2187 0.0625 4.4688-1-0.46875-0.09375-1.2188-1.5625-0.90625-0.03125-1.4688-1.375-0.75 0.03125-1.8438-1.5-0.9375-0.09375-2.0937zm-28.25 0.78125v2.875l-10.031 3.5625 0.03125-3.0625 10-3.375zm5.5625 0.15625 0.59375 0.53125-0.59375 0.21875v-0.75zm19.031 0.25 0.21875 1.8438-10.094 3.5938-0.0625-0.0625-0.1875-1.6875 10.125-3.6875zm3.4062 1.0938 1.2812 0.84375-2.9062 1.0312-1.2188-0.875 2.8438-1zm-3.0312 1.0625 1.1875 0.875-9.9688 3.5312v-0.09375l-1.125-0.8125 9.9062-3.5zm4.5313 0.0625v1.375l-2.6875 0.96875-0.21875-1.3125 2.9063-1.0312zm-39.688 0.8125v3.0625l-3.8125 1.3438-0.03125-3.0938 3.8438-1.3125zm36.594 0.28125 0.1875 1.3125-10.125 3.5938-0.21875-1.3438 10.156-3.5625zm-12.125 0.4375 0.1875 1.6875 0.0625 0.0625-1.8438 0.65625-1.4688-1.2812 3.0625-1.125zm15.5 0.09375 0.9375 0.5-3 1.0625-0.84375-0.53125 2.9063-1.0312zm1.0625 0.875 0.03125 1.0625-2.5938 0.90625-0.125-0.96875-0.0625-0.03125 2.75-0.96875zm-4.1875 0.25 0.84375 0.53125-9.8438 3.5312-0.84375-0.59375 9.8438-3.4688zm-11.781 0.75 1.1562 0.875v0.03125l-2.0312 0.71875-1.0625-0.9375 1.9375-0.6875zm13.031 0.03125 0.0625 0.03125 0.09375 1-10.094 3.5938-0.15625-1.0938 10.094-3.5312zm3.1875 0.34375 1.0312 0.65625-2.7813 1-0.96875-0.6875 2.7188-0.96875zm-15.031 0.84375 0.1875 1.3438v0.03125l-0.84375 0.28125-1.1562-1.0312 1.8125-0.625zm16.313 0.15625-0.03125 0.875-2.6562 0.90625-0.0625-0.8125 2.75-0.96875zm-4.2188 0.03125 1 0.6875-9.9062 3.5312v-0.03125l-1-0.6875 9.9062-3.5zm1.3438 0.96875 0.0625 0.8125-10.219 3.5-0.0625-0.75 10.219-3.5625zm3.0938 0.125 1.0312 0.53125-2.9688 1.0312-0.9375-0.53125v-0.0625l2.875-0.96875zm-16 0.3125 0.875 0.5625-1.0625 0.375-0.71875-0.625 0.90625-0.3125zm17.313 0.5v1l-2.5625 0.875 0.03125-0.71875-0.3125-0.15625 2.8438-1zm-4.3125 0.21875v0.0625l0.9375 0.53125-9.9688 3.4688-1.0938-0.65625 10.125-3.4062zm-11.969 0.09375 0.09375 1.0938v0.03125l-0.9375 0.3125 0.25-0.75-0.375-0.34375 0.96875-0.34375zm13.313 0.71875 0.21875 0.125-0.03125 0.78125-10.156 3.5 0.03125-0.90625-0.03125-0.03125 9.9688-3.4688zm-14.75 0.28125v5.5312l-24.125 8.7188-0.125-5.4375 24.25-8.8125zm1.875 0.34375 1.0625 0.71875-2.3125 0.8125v-1.0938l1.25-0.4375zm1.0625 1.0312 0.0625 0.75-2.3438 0.78125-0.03125-0.71875 2.3125-0.8125zm0.15625 1.0312 1.125 0.59375-3.5625 1.25v-1.0312l2.4375-0.8125zm1.5 0.84375-0.03125 0.9375-3.8125 1.3125-0.0625-0.875 3.9062-1.375z" fill-rule="evenodd"/>
 </g>
</svg>
