<?xml version="1.0" encoding="UTF-8"?>
<!-- Created with Inkscape (http://www.inkscape.org/) -->
<svg id="svg2" width="128" height="128" version="1.0" xmlns="http://www.w3.org/2000/svg" xmlns:cc="http://creativecommons.org/ns#" xmlns:dc="http://purl.org/dc/elements/1.1/" xmlns:rdf="http://www.w3.org/1999/02/22-rdf-syntax-ns#" xmlns:xlink="http://www.w3.org/1999/xlink">
 <defs id="defs4">
  <linearGradient id="linearGradient2338">
   <stop id="stop2340" stop-color="#b1b1b1" offset="0"/>
   <stop id="stop2342" stop-color="#e4e4e4" offset="1"/>
  </linearGradient>
  <linearGradient id="linearGradient2369" x1="19.475" x2="92.886" y1="104.53" y2="62.667" gradientTransform="translate(1.3838 .17297)" gradientUnits="userSpaceOnUse" xlink:href="#linearGradient2338"/>
  <linearGradient id="linearGradient2373" x1="18.812" x2="21.25" y1="104.88" y2="101.56" gradientTransform="translate(1.3838 .17297)" gradientUnits="userSpaceOnUse" xlink:href="#linearGradient2338"/>
  <linearGradient id="linearGradient2956" x1="21.312" x2="23" y1="100.25" y2="98.438" gradientTransform="translate(1.3838 .17297)" gradientUnits="userSpaceOnUse" xlink:href="#linearGradient2338"/>
  <linearGradient id="linearGradient2962" x1="49.062" x2="48.438" y1="114.06" y2="112.5" gradientTransform="translate(1.3838 .17297)" gradientUnits="userSpaceOnUse" xlink:href="#linearGradient2338"/>
  <linearGradient id="linearGradient2966" x1="48.812" x2="48.375" y1="109.12" y2="107.31" gradientTransform="translate(1.3838 .17297)" gradientUnits="userSpaceOnUse" xlink:href="#linearGradient2338"/>
  <linearGradient id="linearGradient2970" x1="69.188" x2="70.562" y1="104.62" y2="102.06" gradientTransform="translate(1.3838 .17297)" gradientUnits="userSpaceOnUse" xlink:href="#linearGradient2338"/>
  <linearGradient id="linearGradient2976" x1="70.562" x2="71.812" y1="111.47" y2="109.47" gradientTransform="translate(1.3838 .17297)" gradientUnits="userSpaceOnUse" xlink:href="#linearGradient2338"/>
  <linearGradient id="linearGradient2982" x1="90.062" x2="89.5" y1="109.69" y2="108.44" gradientTransform="translate(1.3838 .17297)" gradientUnits="userSpaceOnUse" xlink:href="#linearGradient2338"/>
  <linearGradient id="linearGradient2986" x1="89.75" x2="89" y1="103.47" y2="101.84" gradientTransform="translate(1.3838 .17297)" gradientUnits="userSpaceOnUse" xlink:href="#linearGradient2338"/>
  <linearGradient id="linearGradient2990" x1="107.19" x2="106.66" y1="81.5" y2="80.375" gradientTransform="translate(1.3838 .17297)" gradientUnits="userSpaceOnUse" xlink:href="#linearGradient2338"/>
  <linearGradient id="linearGradient2994" x1="111.91" x2="111" y1="84.375" y2="82.312" gradientTransform="translate(1.3838 .17297)" gradientUnits="userSpaceOnUse" xlink:href="#linearGradient2338"/>
  <linearGradient id="linearGradient3000" x1="21.69" x2="97.678" y1="121.21" y2="62.151" gradientTransform="translate(1.3838 .17297)" gradientUnits="userSpaceOnUse" xlink:href="#linearGradient2338"/>
  <linearGradient id="linearGradient3036" x1="39.188" x2="40.875" y1="96.625" y2="96.625" gradientUnits="userSpaceOnUse" xlink:href="#linearGradient2338"/>
  <linearGradient id="linearGradient3038" x1="40.893" x2="41.16" y1="107" y2="103.91" gradientUnits="userSpaceOnUse" xlink:href="#linearGradient2338"/>
  <linearGradient id="linearGradient3040" x1="40.968" x2="44.15" y1="107.8" y2="106.5" gradientUnits="userSpaceOnUse" xlink:href="#linearGradient2338"/>
  <linearGradient id="linearGradient3042" x1="42.471" x2="42.471" y1="81.11" y2="80.049" gradientUnits="userSpaceOnUse" xlink:href="#linearGradient2338"/>
  <linearGradient id="linearGradient3308" x1="65.188" x2="76.188" y1="70.594" y2="70.594" gradientTransform="translate(1.3838 .17297)" gradientUnits="userSpaceOnUse" xlink:href="#linearGradient2338"/>
  <linearGradient id="linearGradient3311" x1="40.812" x2="64.125" y1="80.719" y2="64.656" gradientTransform="translate(1.3838 .17297)" gradientUnits="userSpaceOnUse" xlink:href="#linearGradient2338"/>
  <linearGradient id="linearGradient3314" x1="38.625" x2="37.062" y1="76.5" y2="39.875" gradientTransform="translate(1.3838 .17297)" gradientUnits="userSpaceOnUse" xlink:href="#linearGradient2338"/>
  <linearGradient id="linearGradient3318" x1="13" x2="35.25" y1="61.625" y2="72.75" gradientTransform="translate(1.3838 .17297)" gradientUnits="userSpaceOnUse" xlink:href="#linearGradient2338"/>
  <linearGradient id="linearGradient3334" x1="78.009" x2="102.2" y1="76.807" y2="60.294" gradientTransform="translate(1.3838 .17297)" gradientUnits="userSpaceOnUse" xlink:href="#linearGradient2338"/>
  <linearGradient id="linearGradient3340" x1="81.44" x2="91.494" y1="67.903" y2="56.445" gradientTransform="translate(1.3838 .17297)" gradientUnits="userSpaceOnUse" xlink:href="#linearGradient2338"/>
  <linearGradient id="linearGradient3346" x1="98.402" x2="115.93" y1="54.03" y2="40.663" gradientTransform="translate(1.3838 .17297)" gradientUnits="userSpaceOnUse" xlink:href="#linearGradient2338"/>
  <linearGradient id="linearGradient3354" x1="37.65" x2="81.178" y1="37.092" y2="51.866" gradientTransform="translate(1.3838 .17297)" gradientUnits="userSpaceOnUse" xlink:href="#linearGradient2338"/>
  <linearGradient id="linearGradient3360" x1="88.009" x2="61.797" y1="50.834" y2="24.781" gradientTransform="translate(1.3838 .17297)" gradientUnits="userSpaceOnUse" xlink:href="#linearGradient2338"/>
  <linearGradient id="linearGradient3364" x1="91.424" x2="84.116" y1="53.455" y2="16.043" gradientTransform="translate(1.3838 .17297)" gradientUnits="userSpaceOnUse" xlink:href="#linearGradient2338"/>
  <linearGradient id="linearGradient3366" x1="39.188" x2="40.875" y1="96.625" y2="96.625" gradientTransform="translate(61.598 -38.484)" gradientUnits="userSpaceOnUse" xlink:href="#linearGradient2338"/>
  <linearGradient id="linearGradient3368" x1="40.893" x2="41.16" y1="107" y2="103.91" gradientTransform="translate(61.598 -38.484)" gradientUnits="userSpaceOnUse" xlink:href="#linearGradient2338"/>
  <linearGradient id="linearGradient3370" x1="40.968" x2="44.15" y1="107.8" y2="106.5" gradientTransform="translate(61.598 -38.484)" gradientUnits="userSpaceOnUse" xlink:href="#linearGradient2338"/>
  <filter id="filter3434">
   <feGaussianBlur id="feGaussianBlur3436" stdDeviation="0.77232432"/>
  </filter>
 </defs>
 <metadata id="metadata7">
  <rdf:RDF>
   <cc:Work rdf:about="">
    <dc:format>image/svg+xml</dc:format>
    <dc:type rdf:resource="http://purl.org/dc/dcmitype/StillImage"/>
   </cc:Work>
  </rdf:RDF>
 </metadata>
 <g id="layer2" fill-rule="evenodd">
  <path id="path3380" d="m37.881 118.66-37.535-27.33 55.697-25.6 45.838 34.941-24.389 14.184-17.47-9.8595-22.141 13.665z" fill-opacity=".6758" filter="url(#filter3434)"/>
  <path id="path2367" d="m3.3882 89.193 24.165-11.186 64.286-24.284 35.296 21.001-28.225 13.573 12.657 9.0861-33.119 16.229-12.027-9.483-26.638 12.8-36.396-27.737z" fill="url(#linearGradient2369)"/>
  <path id="path2371" d="m3.1963 89.298 0.1875 2.4375 36.375 27.437 0.375-0.0625-0.5-2.25-36.438-27.562z" fill="url(#linearGradient2373)"/>
  <path id="path2375" d="m3.1963 89.298 0.1875 2.4375 36.375 27.437 0.375-0.0625-0.5-2.25-36.438-27.562z" fill-opacity=".15686"/>
  <path id="path2954" d="m9.0713 86.735-0.1875 2.4375 31.813 24.937 0.125-2.6875-15.188-11.937-16.563-12.75z" fill="url(#linearGradient2956)"/>
  <path id="path2958" d="m9.0713 86.735-0.1875 2.4375 31.813 24.937 0.125-2.6875-15.188-11.937-16.563-12.75z" fill-opacity=".15686"/>
  <path id="path2960" d="m39.634 116.99 27.062-12.875-0.0625 2.625-26.688 12.375-0.3125-2.125z" fill="url(#linearGradient2962)"/>
  <path id="path2964" d="m40.946 111.17 26.062-12.562-0.1875 2.9375-26.188 12.562" fill="url(#linearGradient2966)"/>
  <path id="path2968" d="m66.821 98.798v2.625l11 8.625-0.3125-3.125-10.688-8.125z" fill="url(#linearGradient2970)"/>
  <path id="path2972" d="m66.821 98.798v2.625l11 8.625-0.3125-3.125-10.688-8.125z" fill-opacity=".15686"/>
  <path id="path2974" d="m66.509 104.24 0.125 2.5 11.938 9.0625-0.0625-2.0625-12-9.5z" fill="url(#linearGradient2976)"/>
  <path id="path2978" d="m66.509 104.24 0.125 2.5 11.938 9.0625-0.0625-2.0625-12-9.5z" fill-opacity=".15686"/>
  <path id="path2980" d="m78.634 113.61 32.625-16.187 0.4375 0.25 0.1875 2.1875-33.187 15.937-0.0625-2.1875z" fill="url(#linearGradient2982)"/>
  <path id="path2984" d="m77.571 110.17 29.75-13.875-0.0625-1.6875-0.625-0.75-29.187 13.687 0.125 2.625z" fill="url(#linearGradient2986)"/>
  <path id="path2988" d="m94.759 85.235 26.125-12.188 0.375 0.3125 0.0625 1.9375-24.625 11.625-1.9375-1.6875z" fill="url(#linearGradient2990)"/>
  <path id="path2992" d="m101.2 90.235 26.438-12.625-0.25-2.5625s0-0.3125-0.25-0.3125-28.187 13.5-28.187 13.5l2.25 2z" fill="url(#linearGradient2994)"/>
  <path id="path2996" d="m3.3882 89.193 24.165-11.186 64.286-24.284 35.296 21.001-28.225 13.573 12.657 9.0861-33.119 16.229-12.027-9.483-26.638 12.8-36.396-27.737z" fill="#fff" fill-opacity=".12549"/>
  <path id="path2998" d="m9.0736 86.63 31.643 24.749 26.075-12.64 10.783 8.4853 29.08-13.435-11.756-8.5737 26.163-12.198-18.296-10.695-76.544 16.44-17.147 7.8666z" fill="url(#linearGradient3000)"/>
  <path id="path3002" d="m9.0736 86.63 31.643 24.749 26.075-12.64 10.783 8.4853 29.08-13.435-11.756-8.5737 26.163-12.198-18.296-10.695-76.544 16.44-17.147 7.8666z" fill-opacity=".15686"/>
  <g id="g3080" transform="translate(-24.51 -19.287)">
   <path id="path3082" d="m38.375 102.38-0.1875-5.4375-0.3125-8.25 0.1875-4.25 0.4375-2.1875 1.8125 0.3125 3.3125-0.3125 0.0625 3.4375 0.1875 4-0.0625 6.625-0.0625 3.9375-0.25 2.1875-0.9375 0.5-1.9375 0.5625-1.125-0.1875-1.125-0.9375z" fill="url(#linearGradient3036)"/>
   <path id="path3084" d="m38.375 102.44-2.875 2.375 2.8125 1.3125 2.0625 0.3125 1.625-0.0625 1.625-0.375 1.75-0.75 0.91161-0.77589-2.6616-1.9116-0.9375 0.5-0.9375 0.3125-1.75 0.125-0.875-0.4375-0.75-0.625z" fill="url(#linearGradient3038)"/>
   <path id="path3086" d="m35.488 104.84v1.9887l1.4584 0.7955 2.2981 0.7071 2.2539 0.13259 2.2981-0.39775 1.2374-0.26517 1.4142-0.7513-0.044194-2.5191-1.0607 0.61872-1.5026 0.66291-1.3258 0.44195-1.6794 0.13258-1.591-0.17678-2.0771-0.53033-1.6794-0.83969z" fill="url(#linearGradient3040)"/>
   <path id="path3088" d="m35.532 79.563v1.6794l1.8562 0.70711 1.7236 0.53033 1.5026 0.088388 1.7678-0.13258 1.9445-0.48614 1.9004-1.0165 0.13258-1.8562-10.828 0.48614z" fill="url(#linearGradient3042)"/>
  </g>
  <g id="g3062" transform="translate(-18.077 -14.244)">
   <path id="path3064" d="m38.375 102.38-0.1875-5.4375-0.3125-8.25 0.1875-4.25 0.4375-2.1875 1.8125 0.3125 3.3125-0.3125 0.0625 3.4375 0.1875 4-0.0625 6.625-0.0625 3.9375-0.25 2.1875-0.9375 0.5-1.9375 0.5625-1.125-0.1875-1.125-0.9375z" fill="url(#linearGradient3036)"/>
   <path id="path3066" d="m38.375 102.44-2.875 2.375 2.8125 1.3125 2.0625 0.3125 1.625-0.0625 1.625-0.375 1.75-0.75 0.91161-0.77589-2.6616-1.9116-0.9375 0.5-0.9375 0.3125-1.75 0.125-0.875-0.4375-0.75-0.625z" fill="url(#linearGradient3038)"/>
   <path id="path3068" d="m35.488 104.84v1.9887l1.4584 0.7955 2.2981 0.7071 2.2539 0.13259 2.2981-0.39775 1.2374-0.26517 1.4142-0.7513-0.044194-2.5191-1.0607 0.61872-1.5026 0.66291-1.3258 0.44195-1.6794 0.13258-1.591-0.17678-2.0771-0.53033-1.6794-0.83969z" fill="url(#linearGradient3040)"/>
   <path id="path3070" d="m35.532 79.563v1.6794l1.8562 0.70711 1.7236 0.53033 1.5026 0.088388 1.7678-0.13258 1.9445-0.48614 1.9004-1.0165 0.13258-1.8562-10.828 0.48614z" fill="url(#linearGradient3042)"/>
  </g>
  <g id="g3044" transform="translate(-11.762 -9.7558)">
   <path id="path3046" d="m38.375 102.38-0.1875-5.4375-0.3125-8.25 0.1875-4.25 0.4375-2.1875 1.8125 0.3125 3.3125-0.3125 0.0625 3.4375 0.1875 4-0.0625 6.625-0.0625 3.9375-0.25 2.1875-0.9375 0.5-1.9375 0.5625-1.125-0.1875-1.125-0.9375z" fill="url(#linearGradient3036)"/>
   <path id="path3048" d="m38.375 102.44-2.875 2.375 2.8125 1.3125 2.0625 0.3125 1.625-0.0625 1.625-0.375 1.75-0.75 0.91161-0.77589-2.6616-1.9116-0.9375 0.5-0.9375 0.3125-1.75 0.125-0.875-0.4375-0.75-0.625z" fill="url(#linearGradient3038)"/>
   <path id="path3050" d="m35.488 104.84v1.9887l1.4584 0.7955 2.2981 0.7071 2.2539 0.13259 2.2981-0.39775 1.2374-0.26517 1.4142-0.7513-0.044194-2.5191-1.0607 0.61872-1.5026 0.66291-1.3258 0.44195-1.6794 0.13258-1.591-0.17678-2.0771-0.53033-1.6794-0.83969z" fill="url(#linearGradient3040)"/>
   <path id="path3052" d="m35.532 79.563v1.6794l1.8562 0.70711 1.7236 0.53033 1.5026 0.088388 1.7678-0.13258 1.9445-0.48614 1.9004-1.0165 0.13258-1.8562-10.828 0.48614z" fill="url(#linearGradient3042)"/>
  </g>
  <g id="g3026" transform="translate(-5.3678 -4.9503)">
   <path id="path3028" d="m38.375 102.38-0.1875-5.4375-0.3125-8.25 0.1875-4.25 0.4375-2.1875 1.8125 0.3125 3.3125-0.3125 0.0625 3.4375 0.1875 4-0.0625 6.625-0.0625 3.9375-0.25 2.1875-0.9375 0.5-1.9375 0.5625-1.125-0.1875-1.125-0.9375z" fill="url(#linearGradient3036)"/>
   <path id="path3030" d="m38.375 102.44-2.875 2.375 2.8125 1.3125 2.0625 0.3125 1.625-0.0625 1.625-0.375 1.75-0.75 0.91161-0.77589-2.6616-1.9116-0.9375 0.5-0.9375 0.3125-1.75 0.125-0.875-0.4375-0.75-0.625z" fill="url(#linearGradient3038)"/>
   <path id="path3032" d="m35.488 104.84v1.9887l1.4584 0.7955 2.2981 0.7071 2.2539 0.13259 2.2981-0.39775 1.2374-0.26517 1.4142-0.7513-0.044194-2.5191-1.0607 0.61872-1.5026 0.66291-1.3258 0.44195-1.6794 0.13258-1.591-0.17678-2.0771-0.53033-1.6794-0.83969z" fill="url(#linearGradient3040)"/>
   <path id="path3034" d="m35.532 79.563v1.6794l1.8562 0.70711 1.7236 0.53033 1.5026 0.088388 1.7678-0.13258 1.9445-0.48614 1.9004-1.0165 0.13258-1.8562-10.828 0.48614z" fill="url(#linearGradient3042)"/>
  </g>
  <g id="g3020" transform="translate(1.3838 .17297)">
   <path id="path3004" d="m38.375 102.38-0.1875-5.4375-0.3125-8.25 0.1875-4.25 0.4375-2.1875 1.8125 0.3125 3.3125-0.3125 0.0625 3.4375 0.1875 4-0.0625 6.625-0.0625 3.9375-0.25 2.1875-0.9375 0.5-1.9375 0.5625-1.125-0.1875-1.125-0.9375z" fill="url(#linearGradient3036)"/>
   <path id="path3008" d="m38.375 102.44-2.875 2.375 2.8125 1.3125 2.0625 0.3125 1.625-0.0625 1.625-0.375 1.75-0.75 0.91161-0.77589-2.6616-1.9116-0.9375 0.5-0.9375 0.3125-1.75 0.125-0.875-0.4375-0.75-0.625z" fill="url(#linearGradient3038)"/>
   <path id="path3012" d="m35.488 104.84v1.9887l1.4584 0.7955 2.2981 0.7071 2.2539 0.13259 2.2981-0.39775 1.2374-0.26517 1.4142-0.7513-0.044194-2.5191-1.0607 0.61872-1.5026 0.66291-1.3258 0.44195-1.6794 0.13258-1.591-0.17678-2.0771-0.53033-1.6794-0.83969z" fill="url(#linearGradient3040)"/>
   <path id="path3016" d="m35.532 79.563v1.6794l1.8562 0.70711 1.7236 0.53033 1.5026 0.088388 1.7678-0.13258 1.9445-0.48614 1.9004-1.0165 0.13258-1.8562-10.828 0.48614z" fill="url(#linearGradient3042)"/>
  </g>
  <g id="g3098" transform="translate(10.28 -4.1957)">
   <path id="path3100" d="m38.375 102.38-0.1875-5.4375-0.3125-8.25 0.1875-4.25 0.4375-2.1875 1.8125 0.3125 3.3125-0.3125 0.0625 3.4375 0.1875 4-0.0625 6.625-0.0625 3.9375-0.25 2.1875-0.9375 0.5-1.9375 0.5625-1.125-0.1875-1.125-0.9375z" fill="url(#linearGradient3036)"/>
   <path id="path3102" d="m38.375 102.44-2.875 2.375 2.8125 1.3125 2.0625 0.3125 1.625-0.0625 1.625-0.375 1.75-0.75 0.91161-0.77589-2.6616-1.9116-0.9375 0.5-0.9375 0.3125-1.75 0.125-0.875-0.4375-0.75-0.625z" fill="url(#linearGradient3038)"/>
   <path id="path3104" d="m35.488 104.84v1.9887l1.4584 0.7955 2.2981 0.7071 2.2539 0.13259 2.2981-0.39775 1.2374-0.26517 1.4142-0.7513-0.044194-2.5191-1.0607 0.61872-1.5026 0.66291-1.3258 0.44195-1.6794 0.13258-1.591-0.17678-2.0771-0.53033-1.6794-0.83969z" fill="url(#linearGradient3040)"/>
   <path id="path3106" d="m35.532 79.563v1.6794l1.8562 0.70711 1.7236 0.53033 1.5026 0.088388 1.7678-0.13258 1.9445-0.48614 1.9004-1.0165 0.13258-1.8562-10.828 0.48614z" fill="url(#linearGradient3042)"/>
  </g>
  <g id="g3116" transform="translate(19.136 -8.326)">
   <path id="path3118" d="m38.375 102.38-0.1875-5.4375-0.3125-8.25 0.1875-4.25 0.4375-2.1875 1.8125 0.3125 3.3125-0.3125 0.0625 3.4375 0.1875 4-0.0625 6.625-0.0625 3.9375-0.25 2.1875-0.9375 0.5-1.9375 0.5625-1.125-0.1875-1.125-0.9375z" fill="url(#linearGradient3036)"/>
   <path id="path3120" d="m38.375 102.44-2.875 2.375 2.8125 1.3125 2.0625 0.3125 1.625-0.0625 1.625-0.375 1.75-0.75 0.91161-0.77589-2.6616-1.9116-0.9375 0.5-0.9375 0.3125-1.75 0.125-0.875-0.4375-0.75-0.625z" fill="url(#linearGradient3038)"/>
   <path id="path3122" d="m35.488 104.84v1.9887l1.4584 0.7955 2.2981 0.7071 2.2539 0.13259 2.2981-0.39775 1.2374-0.26517 1.4142-0.7513-0.044194-2.5191-1.0607 0.61872-1.5026 0.66291-1.3258 0.44195-1.6794 0.13258-1.591-0.17678-2.0771-0.53033-1.6794-0.83969z" fill="url(#linearGradient3040)"/>
   <path id="path3124" d="m35.532 79.563v1.6794l1.8562 0.70711 1.7236 0.53033 1.5026 0.088388 1.7678-0.13258 1.9445-0.48614 1.9004-1.0165 0.13258-1.8562-10.828 0.48614z" fill="url(#linearGradient3042)"/>
  </g>
  <g id="g3134" transform="translate(32.004 -8.326)">
   <path id="path3136" d="m38.375 102.38-0.1875-5.4375-0.3125-8.25 0.1875-4.25 0.4375-2.1875 1.8125 0.3125 3.3125-0.3125 0.0625 3.4375 0.1875 4-0.0625 6.625-0.0625 3.9375-0.25 2.1875-0.9375 0.5-1.9375 0.5625-1.125-0.1875-1.125-0.9375z" fill="url(#linearGradient3036)"/>
   <path id="path3138" d="m38.375 102.44-2.875 2.375 2.8125 1.3125 2.0625 0.3125 1.625-0.0625 1.625-0.375 1.75-0.75 0.91161-0.77589-2.6616-1.9116-0.9375 0.5-0.9375 0.3125-1.75 0.125-0.875-0.4375-0.75-0.625z" fill="url(#linearGradient3038)"/>
   <path id="path3140" d="m35.488 104.84v1.9887l1.4584 0.7955 2.2981 0.7071 2.2539 0.13259 2.2981-0.39775 1.2374-0.26517 1.4142-0.7513-0.044194-2.5191-1.0607 0.61872-1.5026 0.66291-1.3258 0.44195-1.6794 0.13258-1.591-0.17678-2.0771-0.53033-1.6794-0.83969z" fill="url(#linearGradient3040)"/>
   <path id="path3142" d="m35.532 79.563v1.6794l1.8562 0.70711 1.7236 0.53033 1.5026 0.088388 1.7678-0.13258 1.9445-0.48614 1.9004-1.0165 0.13258-1.8562-10.828 0.48614z" fill="url(#linearGradient3042)"/>
  </g>
  <g id="g3152" transform="translate(38.358 -3.6)">
   <path id="path3154" d="m38.375 102.38-0.1875-5.4375-0.3125-8.25 0.1875-4.25 0.4375-2.1875 1.8125 0.3125 3.3125-0.3125 0.0625 3.4375 0.1875 4-0.0625 6.625-0.0625 3.9375-0.25 2.1875-0.9375 0.5-1.9375 0.5625-1.125-0.1875-1.125-0.9375z" fill="url(#linearGradient3036)"/>
   <path id="path3156" d="m38.375 102.44-2.875 2.375 2.8125 1.3125 2.0625 0.3125 1.625-0.0625 1.625-0.375 1.75-0.75 0.91161-0.77589-2.6616-1.9116-0.9375 0.5-0.9375 0.3125-1.75 0.125-0.875-0.4375-0.75-0.625z" fill="url(#linearGradient3038)"/>
   <path id="path3158" d="m35.488 104.84v1.9887l1.4584 0.7955 2.2981 0.7071 2.2539 0.13259 2.2981-0.39775 1.2374-0.26517 1.4142-0.7513-0.044194-2.5191-1.0607 0.61872-1.5026 0.66291-1.3258 0.44195-1.6794 0.13258-1.591-0.17678-2.0771-0.53033-1.6794-0.83969z" fill="url(#linearGradient3040)"/>
   <path id="path3160" d="m35.532 79.563v1.6794l1.8562 0.70711 1.7236 0.53033 1.5026 0.088388 1.7678-0.13258 1.9445-0.48614 1.9004-1.0165 0.13258-1.8562-10.828 0.48614z" fill="url(#linearGradient3042)"/>
  </g>
  <g id="g3170" transform="translate(53.331 -25.086)">
   <path id="path3174" d="m38.375 102.44-2.875 2.375 2.8125 1.3125 2.0625 0.3125 1.625-0.0625 1.625-0.375 1.75-0.75 0.91161-0.77589-2.6616-1.9116-0.9375 0.5-0.9375 0.3125-1.75 0.125-0.875-0.4375-0.75-0.625z" fill="url(#linearGradient3038)"/>
   <path id="path3176" d="m35.488 104.84v1.9887l1.4584 0.7955 2.2981 0.7071 2.2539 0.13259 2.2981-0.39775 1.2374-0.26517 1.4142-0.7513-0.044194-2.5191-1.0607 0.61872-1.5026 0.66291-1.3258 0.44195-1.6794 0.13258-1.591-0.17678-2.0771-0.53033-1.6794-0.83969z" fill="url(#linearGradient3040)"/>
  </g>
  <g id="g3188" transform="translate(51.107 -17.143)">
   <path id="path3190" d="m38.375 102.38-0.1875-5.4375-0.3125-8.25 0.1875-4.25 0.4375-2.1875 1.8125 0.3125 3.3125-0.3125 0.0625 3.4375 0.1875 4-0.0625 6.625-0.0625 3.9375-0.25 2.1875-0.9375 0.5-1.9375 0.5625-1.125-0.1875-1.125-0.9375z" fill="url(#linearGradient3036)"/>
   <path id="path3192" d="m38.375 102.44-2.875 2.375 2.8125 1.3125 2.0625 0.3125 1.625-0.0625 1.625-0.375 1.75-0.75 0.91161-0.77589-2.6616-1.9116-0.9375 0.5-0.9375 0.3125-1.75 0.125-0.875-0.4375-0.75-0.625z" fill="url(#linearGradient3038)"/>
   <path id="path3194" d="m35.488 104.84v1.9887l1.4584 0.7955 2.2981 0.7071 2.2539 0.13259 2.2981-0.39775 1.2374-0.26517 1.4142-0.7513-0.044194-2.5191-1.0607 0.61872-1.5026 0.66291-1.3258 0.44195-1.6794 0.13258-1.591-0.17678-2.0771-0.53033-1.6794-0.83969z" fill="url(#linearGradient3040)"/>
  </g>
  <g id="g3329" transform="translate(1.3838 .17297)">
   <path id="path3262" d="m99.973 63.891-0.1875-5.4375-0.3125-8.25 0.1875-4.25 0.4375-2.1875 1.8125 0.3125 3.3125-0.3125 0.0625 3.4375 0.1875 4-0.0625 6.625-0.0625 3.9375-0.25 2.1875-0.9375 0.5-1.9375 0.5625-1.125-0.1875-1.125-0.9375z" fill="url(#linearGradient3366)"/>
   <path id="path3264" d="m99.973 63.954-2.875 2.375 2.8125 1.3125 2.0625 0.3125 1.625-0.0625 1.625-0.375 1.75-0.75 0.91161-0.77589-2.6616-1.9116-0.9375 0.5-0.9375 0.3125-1.75 0.125-0.875-0.4375-0.75-0.625z" fill="url(#linearGradient3368)"/>
   <path id="path3266" d="m97.086 66.358v1.9887l1.4584 0.7955 2.2981 0.7071 2.2539 0.13259 2.2981-0.39775 1.2374-0.26517 1.4142-0.7513-0.0442-2.5191-1.0607 0.61872-1.5026 0.66291-1.3258 0.44195-1.6794 0.13258-1.591-0.17678-2.0771-0.53033-1.6794-0.83969z" fill="url(#linearGradient3370)"/>
  </g>
  <g id="g3242" transform="translate(62.426 -29.415)">
   <path id="path3244" d="m38.375 102.38-0.1875-5.4375-0.3125-8.25 0.1875-4.25 0.4375-2.1875 1.8125 0.3125 3.3125-0.3125 0.0625 3.4375 0.1875 4-0.0625 6.625-0.0625 3.9375-0.25 2.1875-0.9375 0.5-1.9375 0.5625-1.125-0.1875-1.125-0.9375z" fill="url(#linearGradient3036)"/>
   <path id="path3246" d="m38.375 102.44-2.875 2.375 2.8125 1.3125 2.0625 0.3125 1.625-0.0625 1.625-0.375 1.75-0.75 0.91161-0.77589-2.6616-1.9116-0.9375 0.5-0.9375 0.3125-1.75 0.125-0.875-0.4375-0.75-0.625z" fill="url(#linearGradient3038)"/>
   <path id="path3248" d="m35.488 104.84v1.9887l1.4584 0.7955 2.2981 0.7071 2.2539 0.13259 2.2981-0.39775 1.2374-0.26517 1.4142-0.7513-0.044194-2.5191-1.0607 0.61872-1.5026 0.66291-1.3258 0.44195-1.6794 0.13258-1.591-0.17678-2.0771-0.53033-1.6794-0.83969z" fill="url(#linearGradient3040)"/>
   <path id="path3250" d="m35.532 79.563v1.6794l1.8562 0.70711 1.7236 0.53033 1.5026 0.088388 1.7678-0.13258 1.9445-0.48614 1.9004-1.0165 0.13258-1.8562-10.828 0.48614z" fill="url(#linearGradient3042)"/>
  </g>
  <g id="g3206" transform="translate(57.461 -12.536)">
   <path id="path3208" d="m38.375 102.38-0.1875-5.4375-0.3125-8.25 0.1875-4.25 0.4375-2.1875 1.8125 0.3125 3.3125-0.3125 0.0625 3.4375 0.1875 4-0.0625 6.625-0.0625 3.9375-0.25 2.1875-0.9375 0.5-1.9375 0.5625-1.125-0.1875-1.125-0.9375z" fill="url(#linearGradient3036)"/>
   <path id="path3210" d="m38.375 102.44-2.875 2.375 2.8125 1.3125 2.0625 0.3125 1.625-0.0625 1.625-0.375 1.75-0.75 0.91161-0.77589-2.6616-1.9116-0.9375 0.5-0.9375 0.3125-1.75 0.125-0.875-0.4375-0.75-0.625z" fill="url(#linearGradient3038)"/>
   <path id="path3212" d="m35.488 104.84v1.9887l1.4584 0.7955 2.2981 0.7071 2.2539 0.13259 2.2981-0.39775 1.2374-0.26517 1.4142-0.7513-0.044194-2.5191-1.0607 0.61872-1.5026 0.66291-1.3258 0.44195-1.6794 0.13258-1.591-0.17678-2.0771-0.53033-1.6794-0.83969z" fill="url(#linearGradient3040)"/>
   <path id="path3214" d="m35.532 79.563v1.6794l1.8562 0.70711 1.7236 0.53033 1.5026 0.088388 1.7678-0.13258 1.9445-0.48614 1.9004-1.0165 0.13258-1.8562-10.828 0.48614z" fill="url(#linearGradient3042)"/>
  </g>
  <path id="path3278" d="m8.1338 50.735 7.375 5.25 25.438 19.438-0.25 7-32.5-24.688-0.0625-7z" fill="url(#linearGradient3318)"/>
  <path id="path3282" d="m8.1338 50.735 7.375 5.25 25.438 19.438-0.25 7-32.5-24.688-0.0625-7z" fill-opacity=".15686"/>
  <path id="path3284" d="m8.3838 50.61 28.25-13.188 30.688 25.375-26.312 12.5-32.625-24.688z" fill="url(#linearGradient3314)"/>
  <path id="path3288" d="m40.634 82.735 0.25-7.25 25.938-12.438-0.1875 7.1875-26 12.5z" fill="url(#linearGradient3311)"/>
  <path id="path3292" d="m66.884 62.798-0.25 1.6875-0.0625 5.8125 11 8.4375-0.125-7.375-10.562-8.5625z" fill="url(#linearGradient3308)"/>
  <path id="path3296" d="m66.884 62.798-0.25 1.6875-0.0625 5.8125 11 8.4375-0.125-7.375-10.562-8.5625z" fill-opacity=".15686"/>
  <path id="path3298" d="m42.446 79.36-0.0625-3.25 22.562-10.75 0.0625 3.6875-21.812 10.812-0.75-0.5z" fill-opacity=".15686"/>
  <path id="path3300" d="m77.259 71.298 27.375-12.312 0.6875 6.9375-27.687 12.875-0.375-7.5z" fill="url(#linearGradient3334)"/>
  <g id="g3224" transform="translate(71.6 -33.625)">
   <path id="path3226" d="m38.375 102.38-0.1875-5.4375-0.3125-8.25 0.1875-4.25 0.4375-2.1875 1.8125 0.3125 3.3125-0.3125 0.0625 3.4375 0.1875 4-0.0625 6.625-0.0625 3.9375-0.25 2.1875-0.9375 0.5-1.9375 0.5625-1.125-0.1875-1.125-0.9375z" fill="url(#linearGradient3036)"/>
   <path id="path3228" d="m38.375 102.44-2.875 2.375 2.8125 1.3125 2.0625 0.3125 1.625-0.0625 1.625-0.375 1.75-0.75 0.91161-0.77589-2.6616-1.9116-0.9375 0.5-0.9375 0.3125-1.75 0.125-0.875-0.4375-0.75-0.625z" fill="url(#linearGradient3038)"/>
   <path id="path3230" d="m35.488 104.84v1.9887l1.4584 0.7955 2.2981 0.7071 2.2539 0.13259 2.2981-0.39775 1.2374-0.26517 1.4142-0.7513-0.044194-2.5191-1.0607 0.61872-1.5026 0.66291-1.3258 0.44195-1.6794 0.13258-1.591-0.17678-2.0771-0.53033-1.6794-0.83969z" fill="url(#linearGradient3040)"/>
   <path id="path3232" d="m35.532 79.563v1.6794l1.8562 0.70711 1.7236 0.53033 1.5026 0.088388 1.7678-0.13258 1.9445-0.48614 1.9004-1.0165 0.13258-1.8562-10.828 0.48614z" fill="url(#linearGradient3042)"/>
  </g>
  <path id="path3336" d="m78.892 72.176s0 3.7069 0.22466 3.7069c0.22466 0 23.533-10.447 23.533-10.447l-0.05617-3.8754-23.702 10.615z" fill-opacity=".15686"/>
  <path id="path3338" d="m77.432 71.221 27.184-12.244-14.435-6.5152-12.75 18.759z" fill="url(#linearGradient3340)"/>
  <path id="path3342" d="m80.97 68.076 9.6043-13.311 10.896 4.2686-20.5 9.0427z" fill-opacity=".15686"/>
  <path id="path3344" d="m99.449 54.821-5.9535-4.9426 25.218-11.57 0.44932 0.22466v6.796l-19.714 9.492z" fill="url(#linearGradient3346)"/>
  <path id="path3348" d="m95.012 51.17 22.242-10.11 0.22466 3.4261-19.209 9.3235-3.2576-2.6398z" fill-opacity=".15686"/>
  <path id="path3352" d="m36.333 37.305 17.236-15.489 36.458 30.66-12.629 18.825-26.371-21.843-14.695-12.153z" fill="url(#linearGradient3354)"/>
  <path id="path3356" d="m36.333 37.305 17.236-15.489 36.458 30.66-12.629 18.825-26.371-21.843-14.695-12.153z" fill-opacity=".15686"/>
  <path id="path3358" d="m53.728 22.054 8.9756 2.8595 41.542 33.758-14.377-6.1955-36.141-30.422z" fill="url(#linearGradient3360)"/>
  <path id="path3362" d="m62.783 24.914 23.114-10.008 32.884 23.194-25.338 11.994-30.66-25.179z" fill="url(#linearGradient3364)"/>
 </g>
 <g id="layer1">
  <path id="path2308" d="m85.915 14.735-23.062 10.125-9.4062-3.1875-17.031 15.656-0.03125 0.03125-28.375 13.312 0.15625 7.1562 2.7813 2.1562v1.9062c0.74879 0.24344 1.703 0.66027 2.8125 0.96875-1.0463 6.5549-0.15695 13.016 0.03125 19.906l-2.875 2.5312v0.125l-7.75 3.625 0.03125 2.7812 36.531 27.594 26.781-12.531 11.969 9.125 33.469-16.031-0.03125-2.375-7.75-5.75-2.7188-1.6875 26.281-12.594-0.09375-2.625-12.344-7.375c0.30314-7.5412 0.31971-12.939-0.03125-18.938 0.87959-0.27841 1.8284-0.68814 2.8125-1.3125v-1.25l1.2812-0.59375-0.03125-7.125-33.406-23.625zm0.1875 0.375 32.062 22.812-5.1875-0.375-3.9062-4.5312-4.1562 1.125-3.8438-3.875-0.0625 0.1875 3.25 3.5c-1.2532 0.1089-2.3386 0.46557-3.625 0.59375l-4.25-1.9688v0.0625l3.875 2-2.5937 2.1875 0.125 0.125 2.8437-2.1875c1.353-0.064667 2.7321-0.22892 4.0938-0.34375v0.03125l4.0938-1 3.7188 4.1562-6.0625-0.1875 0.03125-0.03125-1.5-1.1875 1.2188 1.4062-1.7188 2.7188h-0.0625l-7.5312 0.46875 0.125 0.125 7.0312-0.34375-1.9688 2.1562-3.875 0.46875 0.1875 0.1875 3.875-0.5 2.4062-2.4688 1.875-2.625 6.4688 0.25 4.9375 0.46875-24.469 11.281-30.469-24.719 22.531-9.9375-2.375 3.1875h-3.0312l-3.9062 3.6562-2.2188-0.8125h-0.0625l2.4375 1.125 3.7812-3.5312 0.65625-0.03125 0.34375 3.0938-2.9375 1.0312 0.125 0.1875 2.9375-0.90625 1.6562 2.8125h0.125l-1.625-3.125-0.25-3.125 2.3125-0.09375 0.78125-1.0938 1.7188 2.8125 5.3438 0.875 0.15625 0.84375-1.3125 4.6875 2.9375 1.375 0.0625-0.0625-2.5625-1.4688 1.0312-3.8438 0.5625 2.8438 6.3438 1.0625 0.0625-0.0625-6.2812-1.25-0.875-4.3125-5.1562-0.75-1.6875-3.1875 1.4375-1.9688zm-32.375 7.1875 17.906 15-0.84375 2.625-2.3557 0.47855-2.113 1.9277-3.9375-1.8438-2.5938 2.4375h0.1875l2.4688-2.0625 3.3438 1.9688-1.1875 1.5625v0.09375l-3.4062 0.46875 0.125 0.0625 3.2812-0.1875-0.0625 3.1562 0.0625-0.0625 0.4375-3.0938 1.3125-1.875 2.262-2.2617 0.39426 3.5429 0.077027-0.10574-0.019257-3.4662 2.1297-0.27179 1.5312-2.0938 16.812 14-2.4688-0.59375-2.0938-2.1562v0.0625l1.8125 2.2812-0.75 1.2188h0.0625l0.90625-1 2.4062 0.90625-11.5 17.188 0.21875-3.5938 2.3438-5.1875-0.84375-3.0312 2.4375-0.34375 3.4062-3.2812h-0.0625l-3.3125 2.875-2.4688 0.3125 4.5938-6.5-5.0312 6.3438 0.0625-0.1875-0.875-2.5 1.5625-3.625-2.8397-0.93436 2.4334 1.1219-1.5312 3.375 1 3-0.03125 0.03125 1.1562 3.25-2.375 4.9688-1.6875-1.2812 1.4375-4.375h-0.0625l-1.6875 3.9062-3.3438-4.1875 1.1411-2.6143 0.95266-1.5107-0.125-0.1875-0.8125 1.3125-1.5-3.375-0.0625-0.0625 1.2188 3.75-1.25 2.4688-3.75-1.9062-0.71875-3.9062-0.125 0.0625 0.61993 3.8245-3.4324 1.3318 3.274-1.1177 4.1828 2.077 3.6446 4.3952 2.0237 1.958-0.4375 4.1875-40-33.281 2.125 0.4375 1.7812-1.5938 7.9375 3.6562 0.8125 4.4375 0.0625 0.125-0.59375-4.5312 2.6875 0.125 0.0625-0.125-3.1875-0.46875-7.4062-3.5625 0.59375-0.53125 3.6562-2.5312 4.375 2.9375 2.4375-0.78125-0.0625-0.0625-2.1875 0.5-4.7812-2.8125-3.6875 2.5-2.6875 2.2812-2.4062-0.375 16.188-14.688-0.53125 1.8125 4 2.0625-1.0625 6.8125h0.125l0.875-4.6562 1.6875 0.59375 0.125-0.25-1.75-0.75 0.375-2-3.75-1.9375 0.65625-2.0938zm1.4375 0.28125 7.5 2.5312 40.594 33.188-13.031-5.7812 0.75-1.0625 2.1875 1.0312h0.125l-2.0938-1.375 0.0625-0.0625-1.5625-1.3438 0.4375-2.0625h-0.125l-0.59375 1.6875-2.25-1.1562-0.75-1.9062-0.0625 0.125 0.375 2.0625 2.5312 1.3438 1.3438 1.375-0.84375 1-16.375-13.75 2.75 0.53125 2.25 3.3125 0.125-0.0625-1.7812-3.0625 1.3438-0.21875v-0.0625l-1.5938-0.15625-4.5625-1.5312-16.656-14 4 2.8125 1.375-0.1875 4.625 3.2812 0.0625-0.0625-4.25-3.2812 1.3438-0.15625 1.4688 0.84375 0.0625-0.0625-1.4375-1.125-2.9375 0.3125-4.4062-2.9688zm-5.4688 10.438-3.8125 0.0625 0.4375 0.3125 3.4375-0.25-0.0625-0.125zm-13.406 4.7188-0.66697 2.8696-1.8643 1.6304 0.25 0.0625 1.9375-1.5312 3.1562 1.625 0.65625 3.4062 0.125-0.1875-0.46875-3.0938 1.7188 1.4688 0.0625-0.0625-1.8125-1.6875-0.03125-0.21875-3.4062-1.5938 0.78125-2.625 30.062 25-25.438 12.188 0.90625-4.5 3.4375 0.03125-0.15625-3.7188 5.5312-1.4062-0.0625-0.0625-5.25 1.0938 0.5-4.8438h-0.0625l-0.40625 2.375-3.0312-1.0938 2.9375 1.6875-0.34375 1.9688 0.09375 3.5625-3.625-0.15625 0.03125 0.0625-4.75-1.1562-2.2188-3.0938-0.21875-2.5-0.15625 2.3438-5.0625-1.7812-0.1875 0.0625 5.4375 2.25 2.125 2.9375 5 1.4375-0.90625 4.6562-31.75-24.062 6.25-0.40625 9.0938-4.8125 3.1326 4.2942 2.9612 1.9246 0.3125 3.5938h0.125l-0.1875-3.75-3.0625-1.7812 7.25 0.71875 3.7188 3.125 0.0625-0.0625-3.8125-3.3125-7.1875-0.65625-2.8438-4.2188 7.375 1.25v-0.0625l-7.5625-1.5938-9.4062 5.0312-6.5313 0.375 27.438-13zm82.656 0.75 0.09375 6.6562-19.687 9.4688-0.96875-0.71875 19.187-9.3125-0.1875-3.6875-22.375 10.156-1.1562-1.1562 25.094-11.406zm-2.25 2.9688-0.90625 2.0938-1.7812-0.625-1.9062 1.5-3.25 0.96875-0.03125 0.09375 2.9062-0.53125-0.78125 0.9375 0.125 0.03125 1.1875-1.0625 1.7812-1.4375 1.9688 0.34375 1.125-2.0625 0.125 2.625-7 3.4375h-0.03125l-2.2812-0.28125-2.5-0.40625-0.21875 0.03125 2.0312 0.75-2.9375 1.875-2.7188-0.9375-0.0625 0.03125 2.4688 1.0312-3.0625 0.9375 0.09375 0.03125 3.2812-0.84375 0.125 0.0625 3.5938-2.1562 1.2188 0.34375-11.062 5.4062-2.875-2.4375 21.375-9.75zm1 4.8125v0.84375c-1.5787 1.2373-3.3944 1.6632-5.3125 1.6875l5.3125-2.5312zm-2.6875 2.4688c0.63493 9.765 0.08834 15.191-0.0625 20.031-1.0796 1.0901-3.9711 1.5101-4.875 0.03125-0.35161-6.6347-1.0017-12.825-0.125-18.844l1.9062-0.90625c0.51463 0.029904 1.0496 0.0327 1.625-0.03125 0.49344-0.054844 0.99788-0.12838 1.5312-0.28125zm-5.4375 1.4062c-0.55259 4.6467-0.22807 9.2546 0.03125 14.031l-2.9688-1.7812c0.1445-3.7006 0.23649-6.9659 0.21875-9.9688 0.65481-0.25736 1.328-0.55383 2.0312-1v-0.96875l0.6875-0.3125zm-1.0625 0.5v0.5625c-1.3843 1.0849-2.9651 1.5104-4.625 1.625l4.625-2.1875zm-99.812 0.53125 32 24.281-0.21875 5.9375-1.2812-5.3438-5.9688-1.4688-1.6562-4.625 1.125 4.0938-5.25-3.5312 0.53125-2.875-0.15625 0.03125 0.15625-0.0625-1.0938-1.75 0.5625 1.875-1.8125 0.3125 1.9688-0.09375-0.46875 2.7188 5.7188 3.875 0.0625 0.28125 5.9062 1.5312 1.4375 5.625-31.875-24.469 0.03125-6 1.5312 3.4062 2.2188 1.125 5.6875 8.1875h0.125l-2.2812-3.5 3.8125 0.9375h0.125l-4.1875-1.2812-3.0312-4.6562-2.1562-0.9375-1.5625-3.625zm97.937 1.3438c0.01484 3.9126-0.15507 6.8717-0.28125 9.5938 0.00173-3.2172-0.09589-6.207-0.28125-9.375 0.18007-0.056994 0.37692-0.15003 0.5625-0.21875zm-16.656 0.28125 14.281 6.1562-26.406 11.938 12.125-18.094zm15.844 0.03125c0.63494 9.765 0.08834 15.191-0.0625 20.031-0.9171 0.92596-3.1399 1.3567-4.3438 0.5625-0.04332-1.2009-0.08411-2.392-0.15625-3.625 0.87959-0.27841 1.8284-0.68814 2.8125-1.3125v-1.875l1.4062-0.65625-0.59375-7-4.3438-3.375c0.04562-0.40712 0.0987-0.81372 0.15625-1.2188l2.5625-1.2188c0.33334 0.00486 0.6711 0.008779 1.0312-0.03125 0.49345-0.054842 0.99788-0.12838 1.5312-0.28125zm-15.375 1.6875-9.3438 13.188-0.625 0.84375 0.90625-0.40625 20.437-9.125-11-4.3438-0.375-0.15625zm9.875 0c-0.03045 0.28087-0.0384 0.56311-0.0625 0.84375l-0.25-0.21875v-0.46875l0.3125-0.15625zm-9.5312 0.40625 9.875 4.125-17.719 8 1.2188-0.84375 2.5625-1.2812-0.0625-0.0625-2.3879 0.99686 0.38794-1.7469-0.15625-0.0625-0.59375 1.7812-1.6875 1.125 8-11.625-0.15625 1.6875 1.6875 0.71875-1.1562 2.0938-3.2812 1.5312 0.15625 0.0625 2.5938-1.0625-0.5 1.0625 0.09375 0.25-1.6875 1 0.1875 0.09375 1.625-0.78125 0.3125 0.875h1.3125l-0.09375-0.15625-0.96875-0.28125-0.40625-0.96875 0.59375-1.2812 0.1875-0.09375 1.333-2.0852 0.41697 1.3352-0.21875 1.0938 0.1875 0.03125 0.46875-1 1.4375-0.03125 0.40625 1.0312 0.1875-0.03125-0.39553-1.0571 2.1143 0.057138-0.0625-0.03125-1.9688-0.3125-1.75 0.21875-0.59375-1.5-2.0022-0.84911 0.50222-2.0259zm13.781 4.3125 0.65625 6.5625-27.406 12.625-0.1875-7.0625 26.937-12.125zm-93.344 0.96875c0.016052 0.011144 0.045624 0.020169 0.0625 0.03125l3.2812 2.5312c-1.0879-0.21223-2.2152-0.59522-3.3438-1.2188v-1.3438zm91.437 1.2812-23.781 10.625 0.15625 3.875 23.906-10.469-0.28125-4.0312zm-0.15625 0.59375 0.1875 3.0625-23.062 10.344 1.4688-1.8438 1.5625 0.21875 2.7812-2.0625 2.8438-0.46875 0.03125-0.0625-2.375 0.21875 0.6875-1.5312h-0.09375l-1.0625 1.5938-2.7812 1.9688-1.375-0.28125-0.875-1.1875-0.125 0.09375 0.4375 1.0938-1.5 2.125-0.1875-3.0938 22.594-10.094-1.2812 0.96875-0.09375 0.40625-3.375 1.4062-0.09375 0.34375 3.3125-1.125-0.46875 1.8438-1.5-0.21875-2.8125 1.9062-1.5938-1.0938-1.625 0.15625 0.0625 0.21875 1.375-0.03125 1.3125 0.96875-1.25 0.53125-2.3438-0.21875 0.03125 0.0625 2.3125 0.59375 1.9688-0.875 2.7188-1.8438 1.625 0.09375 0.3125-1.0625 1.7188-0.03125-0.03125-0.28125-1.5625-0.1875 0.375-1.2188 1.75-1.4062zm4.125 0.625 2.9688 1.8438c0.02858 0.53534 0.0374 1.0853 0.0625 1.625l-2.8438-1.7188-0.25-0.1875c0.02458-0.56757 0.04089-1.0198 0.0625-1.5625zm-39.719 0.15625 9.8125 8.1875-1.7188 1.4062-2.3125-3.5625-0.1875 0.03125c-0.41983-0.74682-2.3359-1.7158-3.3125-2.375 0.5817 0.87778 1.6209 1.6149 3 2.4375l-3.6562 0.6875 0.1875 0.3125 3.875-0.8125 1.9062 3.0938-1.4688-0.09375 1.75 0.625v-0.09375l2.3125-1.3438 0.0625 0.0625 0.1875 6.7188-10.594-8.125 0.15625-7.1562zm-52.812 0.09375c0.29721 0.073451 0.6162 0.14218 0.9375 0.1875l2.2812 1.75 0.03125 2.125c0.51911 0.16876 1.1751 0.41469 1.875 0.65625 0.21526 6.8377-0.15744 11.277-0.28125 15.25-1.0796 1.0901-3.9711 1.5101-4.875 0.03125-0.37403-7.0578-1.12-13.621 0.03125-20zm52.344 0.34375 0.03125 6.75-25.562 12.219 0.0625-6.6562 25.469-12.312zm39.906 1.25h0.03125l1.125 0.6875 1.625 1.0625c-0.97769 0.67804-1.9516 1.1158-2.9062 1.4062 0.02983-1.0799 0.07987-2.0869 0.09375-3.0938 0.01753-0.013334 0.01628-0.045672 0.03125-0.0625zm-41.375 0.59375-22.562 10.906-0.125 3.4688 0.3125-0.0625 0.34375 0.28125 0.09375 0.25 22.156-10.844-0.21875-4zm-47.344 0.1875c0.19356 0.13435 0.42773 0.25381 0.71875 0.375 0.019061 0.007936 0.043082 0.023388 0.0625 0.03125l2.9375 2.25c-1.2047-0.19764-2.4559-0.61478-3.7188-1.3125v-1.3438zm47.125 0.25 0.125 2.9375-1.25-0.3125-0.65625-1.5625-0.09375-0.03125 0.4375 1.5-2.125-0.53125-1.6875 2.5625 0.03125 0.0625 1.8438-2.0938 2.5 0.75-1 0.6875 1.25-0.5 0.28125 0.09375-9.2812 4.5938-0.0625-0.46875 1.5938-1.3125-1.5625 1.0625-0.34375-1.5312v0.6875l-1.375 0.21875 1.4375 0.09375-0.09375 1.4062-11.656 5.75 0.53125-2.4062 1.7188 0.125 0.5625-1.0625 1.5625 0.46875 1.5938-2.25 2.4062 0.59375 0.03125-0.03125-2.2188-0.71875 1.375-1.0312h-0.125l-1.4688 0.9375-0.15625-0.03125-1.4375 2.2812-1.4062-0.5 0.78125-1.4375-0.09375-0.0625-1.5312 2.5312-1.9688-0.1875-0.65625 2.1875-0.03125-2.7812 22.219-10.688zm44.562 0.71875 0.375 0.21875c0.03096 0.69693 0.07448 1.3883 0.09375 2.0938l-0.375 0.3125-2.5 2.2188v2.0938c2.1554 1.5643 6.3367 2.7761 11.156 0.25l-0.03125-1.9688 2.6562 1.5312-19.188 8.7812c0.01559-0.99564 0.03235-2.0247 0.03125-2.9688 2.0764 0.35574 4.6041 0.15472 7.3438-1.2812l-0.0625-2.6562-2.75-2.0312c0.04339-1.0018 0.06058-1.8519 0.09375-2.7812 1.0394-0.22278 2.125-0.59784 3.25-1.1875l-0.09375-2.625zm-0.1875 0.21875 0.09375 2.25c-0.90358 0.54558-1.959 0.94312-3.0625 1.1562 0.02299-0.65465 0.0447-1.3447 0.0625-1.9688 1.1697-0.31929 2.1971-0.81241 2.9062-1.4375zm-5.4375 0.53125v1.2188c-1.7809 1.3958-3.8747 1.7706-6.0625 1.6875-0.1964-0.018354-0.39471-0.060214-0.59375-0.09375l4-1.8438c0.92315-0.20142 1.8245-0.49298 2.6562-0.96875zm-84.219 0.71875c0.23232 0.076781 0.43905 0.14967 0.6875 0.21875-0.70124 4.3933-0.52647 8.7504-0.28125 13.219l-0.5625 0.25c0.20964-5.294 0.26887-9.5551 0.15625-13.688zm95.812 0.25 11.438 6.6875-25.344 12.156c0.02206-0.62068 0.04498-1.2816 0.0625-1.875l20.031-9.5312-0.1875-2.2812-3.2812-1.9688v-0.375l-2.75-2.0312c0.01219-0.28145 0.01986-0.50587 0.03125-0.78125zm-94.781 0.0625c0.37049 0.091556 0.77844 0.14369 1.1875 0.1875l2.0312 1.5625v1.6875c0.5122 0.16652 1.1554 0.41764 1.8438 0.65625 0.26345 7.2178-0.091017 11.776-0.21875 15.875-1.0796 1.0901-3.9711 1.5101-4.875 0.03125-0.37403-7.0578-1.12-13.621 0.03125-20zm89.406 0.90625c1.4275 1.782 3.8928 1.102 5.1875 0.0625l2.7188 1.7812c-3.7047 2.5693-7.2889 2.1544-10.469 0.375l2.5625-2.2188zm-8.9062 0.90625c0.63493 9.765 0.08834 15.191-0.0625 20.031-1.0796 1.0901-3.9711 1.5101-4.875 0.03125-0.36671-6.9197-1.0882-13.363-0.03125-19.625l0.59375-0.28125c0.86188 0.16551 1.7954 0.24152 2.8438 0.125 0.49344-0.054844 0.99788-0.12838 1.5312-0.28125zm-77 0.15625 2.9688 2.2812c-0.97014-0.2291-1.9713-0.60516-2.9688-1.1562v-1.125zm42.656 0.40625 0.78125 0.59375 0.03125 1.875c0.74879 0.24344 1.703 0.66027 2.8125 0.96875-1.0463 6.5549-0.15695 13.016 0.03125 19.906l-2.875 2.5312v2.0938c1.6266 1.1805 4.4084 2.1168 7.75 1.4375l-1.4062 1.25v2.0938c2.1554 1.5643 6.3367 2.7449 11.156 0.21875l-0.0625-2.6562-2.75-2c0.35686-8.239 0.37071-13.82 0-20.156 0.87959-0.27841 1.8284-0.68814 2.8125-1.3125v-1.8125l4-1.8438c0.04145 1.8923 0.14227 3.7925 0.25 5.7188l-0.34375 0.28125v2.0938c0.13807 0.1002 0.3143 0.1849 0.46875 0.28125 0.049034 0.98729 0.097579 1.9649 0.125 2.9688l-2.875 2.5312v2.0938c1.6266 1.1805 4.4084 2.1168 7.75 1.4375l-1.4062 1.25v2.0938c2.1554 1.5643 6.3367 2.7449 11.156 0.21875l0.09375-2.4688 2.1562 1.7188-28.5 13.219-10.875-8.6562-26.281 12.625-31.031-24.312 1.2813-0.59375v1.25c1.7235 1.2508 4.7663 2.2463 8.375 1.3125l-1.9688 1.7188v2.0938c1.5594 1.1317 4.185 2.0522 7.3438 1.5312l-0.96875 0.875v2.0938c1.6304 1.1833 4.4292 2.1564 7.7812 1.4688l-1.4688 1.2812v2.0937c1.8009 1.307 5.0506 2.3485 8.875 1.1875l-2.125 1.875v2.0938c2.1554 1.5643 6.3367 2.7761 11.156 0.25l-0.0625-2.6562-2.75-2.0312c0.35686-8.2389 0.37071-13.82 0-20.156 0.8796-0.27841 1.8284-0.68814 2.8125-1.3125v-1.75l0.5-0.25c-0.8072 6.2042-0.022112 12.345 0.15625 18.875l-2.875 2.5312v2.0938c2.1554 1.5643 6.368 2.7449 11.188 0.21875l-0.09375-2.6562-2.75-2c0.35686-8.2389 0.37071-13.82 0-20.156 0.8796-0.27841 1.8284-0.68814 2.8125-1.3125l0.03125-1.5938 0.46875-0.25c-0.84172 6.2574-0.054861 12.446 0.125 19.031l-2.875 2.5312v2.0938c2.1554 1.5643 6.3367 2.7761 11.156 0.25l-0.0625-2.6562-2.75-2.0312c0.35686-8.2389 0.37071-13.82 0-20.156 0.87959-0.27842 1.8284-0.68814 2.8125-1.3125v-1.7188l0.90625-0.4375zm29 0.0625c-0.35241 2.5247-0.41874 5.0283-0.375 7.5625-0.053821 0.013654-0.10292 0.051386-0.15625 0.0625 0.048621-2.6165 0.021969-5.0219-0.03125-7.375l0.5625-0.25zm-0.78125 0.34375c0.14904 6.2613-0.16375 10.511-0.28125 14.281-1.0796 1.0901-3.9711 1.5101-4.875 0.03125-0.21307-4.0205-0.55839-7.8685-0.59375-11.625l5.75-2.6875zm-29.531 0.125 0.03125 1.4062c-1.7809 1.3958-3.8747 1.7706-6.0625 1.6875-0.072194-0.006749-0.14603-0.0221-0.21875-0.03125 2.0329-1.1002 4.1614-2.102 6.25-3.0625zm52.469 0.0625 0.09375 2.2812c-3.2466 1.9603-8.4994 1.7089-10.719-0.15625l0.03125-1.7812c3.3944 2.4414 8.4339 1.5601 10.594-0.34375zm-50.062 0.25 3.3125 2.5312c-1.079-0.22019-2.194-0.63202-3.3125-1.25v-1.2812zm-41.938 0.96875c0.24117 0.080131 0.46007 0.14683 0.71875 0.21875-0.31016 1.9432-0.46176 3.8699-0.5 5.8125l-0.125 0.0625c0.005358-2.1005-0.031265-4.1158-0.09375-6.0938zm1.0625 0.3125c0.16738 0.041363 0.3531 0.064964 0.53125 0.09375l2.625 2v1.6875c0.54208 0.17623 1.2304 0.43642 1.9688 0.6875 0.23487 6.9984-0.15576 11.473-0.28125 15.5-1.0796 1.0901-3.9711 1.5101-4.875 0.03125-0.37403-7.0578-1.12-13.621 0.03125-20zm79.031 0.5625 2.7188 1.7812c-2.4519 1.7004-4.8597 2.0707-7.125 1.625-0.01472-0.93705-0.03095-1.8855-0.0625-2.8125 1.434 0.8999 3.3758 0.28377 4.4688-0.59375zm15.062 0.03125 0.09375 2.1875-19.594 9.3125c0.01745-0.64246 0.01959-1.9158 0.03125-2.5312l19.469-8.9688zm-50.344 0.8125c0.26632 0.065813 0.55525 0.11588 0.84375 0.15625l2.3438 1.7812v1.7812c0.53418 0.17367 1.2124 0.40839 1.9375 0.65625 0.24194 7.0555-0.15518 11.548-0.28125 15.594-1.0796 1.0901-3.9711 1.5101-4.875 0.03125-0.37403-7.0578-1.12-13.621 0.03125-20zm-7.9375 0.03125c0.63493 9.765 0.08834 15.191-0.0625 20.031-1.0796 1.0901-3.9711 1.5101-4.875 0.03125-0.36189-6.8287-1.0595-13.191-0.0625-19.375l1-0.46875c0.76015 0.11622 1.5681 0.1626 2.4688 0.0625 0.49344-0.054849 0.99788-0.12838 1.5312-0.28125zm-32.375 0.875 2.9688 2.2812c-0.96851-0.23447-1.9728-0.60601-2.9688-1.1562v-1.125zm96.844 0 0.28125 2.5625-26.25 12.562c0.02859-0.67586 0.28835-2.1386 0.3125-2.7812l25.656-12.344zm-18.531 0.25 0.0625 2.2812c-2.0224 1.2211-4.798 1.5666-7.1562 1.2188-0.00149-0.59607-0.02337-1.1661-0.03125-1.75 2.7489 0.41776 5.6335-0.43524 7.125-1.75zm-52.156 0.15625v1.1875c-1.7809 1.3958-3.8747 1.7706-6.0625 1.6875l6.0625-2.875zm28.094 0.5625v1.2188c-1.7809 1.3958-3.8747 1.7706-6.0625 1.6875-0.1545-0.01444-0.312-0.040343-0.46875-0.0625l4.0625-1.9062c0.85225-0.20325 1.6995-0.49751 2.4688-0.9375zm-10.469 0.25 3.2188 2.4688c-1.0466-0.22497-2.136-0.62055-3.2188-1.2188v-1.25zm-41.844 1.0312c0.20246 0.065676 0.37933 0.12788 0.59375 0.1875-0.83282 5.2177-0.44641 10.388-0.15625 15.75l-0.65625-0.5c0.26704-6.1653 0.35315-10.819 0.21875-15.438zm0.9375 0.28125c0.158 0.039045 0.33223 0.063575 0.5 0.09375l3.0938 2.375v1.625c0.4364 0.14188 0.96523 0.35861 1.5312 0.5625 0.22061 6.882-0.15698 11.325-0.28125 15.312-1.0796 1.0901-3.9711 1.5101-4.875 0.03125-0.37403-7.0578-1.12-13.621 0.03125-20zm20.594 0.6875c0.63494 9.765 0.088346 15.191-0.0625 20.031-1.0796 1.0901-3.9711 1.5101-4.875 0.03125-0.35883-6.7709-1.054-13.084-0.09375-19.219l1.25-0.59375c0.69972 0.088951 1.4347 0.12187 2.25 0.03125 0.49345-0.054844 0.99788-0.12838 1.5312-0.28125zm41.5 0.3125c0.018737 0.8706 0.053628 1.7485 0.09375 2.625-0.1049 0.017137-0.20719 0.045914-0.3125 0.0625 0.028723-0.92783 0.045098-1.7861 0.0625-2.6562 0.051127-0.014127 0.10546-0.016028 0.15625-0.03125zm-19.312 0.03125c0.22212 0.072952 0.41951 0.15293 0.65625 0.21875-0.83731 5.2458-0.44682 10.419-0.15625 15.812l-0.6875-0.5c0.26824-6.1929 0.32476-10.892 0.1875-15.531zm5.9062 0.25c0.63493 9.765 0.08834 15.191-0.0625 20.031-1.0796 1.0901-3.9711 1.5101-4.875 0.03125-0.37403-7.0578-1.12-13.621 0.03125-20 0.99555 0.24603 2.1148 0.35881 3.375 0.21875 0.49344-0.054844 0.99788-0.12838 1.5312-0.28125zm-55.844 0.46875c-0.015383 3.119 0.20528 6.2595 0.375 9.4688l-0.75-0.5625c0.14372-3.3181 0.23086-6.1938 0.25-8.875l0.125-0.03125zm21.531 0.28125-0.03125 1.4375c-1.7809 1.3958-3.8747 1.7706-6.0625 1.6875-0.091074-0.008513-0.18712-0.016271-0.28125-0.03125 2.0473-1.1191 4.2585-2.1487 6.375-3.0938zm41.594 0.4375c0.023314 0.016766 0.039033 0.046045 0.0625 0.0625 0.0344 0.61768 0.062256 1.2518 0.09375 1.875-0.065262-0.048665-0.12668-0.10514-0.1875-0.15625l0.03125-1.7812zm-52.094 0.21875 2.8438 2.1875c-0.44166-0.10736-0.89162-0.23023-1.3438-0.40625-0.499-0.19426-0.99756-0.44114-1.5-0.71875v-1.0625zm58.344 1.1562c0.028964 0.61433 0.059909 1.2254 0.09375 1.8438-0.17663 0.016207-0.35462 0.01851-0.53125 0.03125 0.022702-0.60446 0.044176-1.2347 0.0625-1.8125 0.12499-0.018688 0.24923-0.043162 0.375-0.0625zm-75.5 0.75c0.027386 0.489 0.066832 0.97672 0.09375 1.4688l-0.75-0.53125c0.010508-0.24263 0.021327-0.44938 0.03125-0.6875l0.625-0.25zm18.656 0.125c0.33707 0.11793 0.65691 0.23967 1.0312 0.34375-0.83121 5.2076-0.44624 10.367-0.15625 15.719l-1.0938-0.78125c0.26404-6.0958 0.3466-10.714 0.21875-15.281zm6.2812 0.375c0.63494 9.765 0.088346 15.191-0.0625 20.031-1.0796 1.0901-3.9711 1.5101-4.875 0.03125-0.37403-7.0578-1.12-13.621 0.03125-20 0.13976 0.034537 0.29282 0.064794 0.4375 0.09375l0.21875 0.15625 0.1875-0.09375c0.77733 0.12112 1.61 0.16489 2.5312 0.0625 0.49345-0.054845 0.99788-0.12838 1.5312-0.28125zm-30.938 0.625c1.4275 1.782 3.8928 1.102 5.1875 0.0625l0.90625 0.59375c0.037912 0.70286 0.062555 1.4145 0.09375 2.125-3.0914 1.4186-6.065 0.94002-8.75-0.5625l2.5625-2.2188zm81.594 0.21875c0.02343 0.42429 0.048063 0.85341 0.0625 1.2812l-0.65625 0.28125c0.019985-0.51298 0.043144-0.99598 0.0625-1.5 0.17612-0.012035 0.35115-0.044114 0.53125-0.0625zm0.09375 1.9375c0.005349 0.12518-0.006745 0.24981 0 0.375l-0.3125-0.21875 0.3125-0.15625zm-6.0312 0.0625c1.4275 1.782 3.8928 1.102 5.1875 0.0625l0.875 0.5625c0.03811 0.72024 0.063736 1.4591 0.09375 2.1875-3.0888 1.4149-6.0355 0.90784-8.7188-0.59375l2.5625-2.2188zm-78.344 0.1875c2.6807 1.9281 6.4015 1.7709 8.9062 0.6875 0.02314 0.55457 0.047205 1.0963 0.0625 1.6562l-0.5625 0.5c-3.0498 0.83312-6.6875 0.40822-8.4375-1.0625l0.03125-1.7812zm-1.9688 1.3125 31.5 24.687-0.09375 2.3125-31.469-24.625 0.0625-2.375zm-0.6875 0.1875 0.09375 2.2188 31.938 25.031 26.062-12.625 11.031 8.6562 29.781-14.094-0.125-1.75 3.6875 2.7812-32.562 16.156-11.875-9.5-26.938 12.844-35.906-27.5 4.8125-2.2188zm78.313 0.71875c2.6714 1.9214 6.3402 1.7607 8.8438 0.6875 0.017111 0.43784 0.050448 0.87128 0.0625 1.3125l-1.1875 1.0625c-2.8927 0.59669-6.1274 0.082397-7.75-1.2812l0.03125-1.7812zm-66.562 0.5c1.4275 1.782 3.8928 1.102 5.1875 0.0625l0.90625 0.625c0.03594 0.69474 0.066083 1.3912 0.09375 2.0938-3.1012 1.4351-6.0567 0.9447-8.75-0.5625l2.5625-2.2188zm-16.656 1.4375 35.875 27.469 0.25 1.75-35.969-26.969-0.15625-2.25zm92.25 0.4375c1.4275 1.782 3.8928 1.102 5.1875 0.0625l2.7188 1.7812c-3.7047 2.5693-7.2889 2.1544-10.469 0.375l2.5625-2.2188zm-78.281 0.53125c2.69 1.9347 6.4019 1.7811 8.9062 0.6875 0.012766 0.34641 0.02173 0.68271 0.03125 1.0312l-1.5625 1.375c-2.8051 0.49677-5.8452-5.97e-4 -7.4062-1.3125l0.03125-1.7812zm86.187 1.5312 0.09375 2.25c-3.2466 1.9603-8.4994 1.7402-10.719-0.125l0.03125-1.7812c3.3944 2.4414 8.4339 1.5601 10.594-0.34375zm-77.125 0.5625c1.4275 1.782 3.8928 1.102 5.1875 0.0625l0.84375 0.53125c0.040247 0.75523 0.062208 1.517 0.09375 2.2812-3.0651 1.3756-6.0239 0.83432-8.6875-0.65625l2.5625-2.2188zm79.875 1.2188 0.46875 0.625 0.15625 1.5312-29.312 13.656-0.15625-2.2188 28.844-13.594zm-36.125 0.1875c1.4275 1.782 3.8928 1.102 5.1875 0.0625l0.875 0.5625c0.03811 0.72024 0.063736 1.4591 0.09375 2.1875-3.0888 1.4149-6.0355 0.90784-8.7188-0.59375l2.5625-2.2188zm-12.844 0.09375c1.4275 1.782 3.8928 1.102 5.1875 0.0625l2.7188 1.7812c-3.7047 2.5693-7.2889 2.1545-10.469 0.375l2.5625-2.2188zm-33.594 0.90625c2.6619 1.9146 6.3096 1.7813 8.8125 0.71875 0.017757 0.45089 0.050086 0.88928 0.0625 1.3438l-1.0625 0.9375c-2.9183 0.63216-6.2022 0.1608-7.8438-1.2188l0.03125-1.7812zm41.5 1.1562 0.0625 2.2812c-3.2465 1.9603-8.4681 1.7089-10.688-0.15625l0.03125-1.7812c3.3944 2.4414 8.4339 1.5601 10.594-0.34375zm2.25 0.25c2.6714 1.9214 6.3402 1.7607 8.8438 0.6875 0.017111 0.43784 0.050448 0.87128 0.0625 1.3125l-1.1875 1.0625c-2.8927 0.59669-6.1274 0.0824-7.75-1.2812l0.03125-1.7812zm43.594 1 0.375 2.125-32.875 15.875v-1.9688l32.5-16.031zm-78.344 0.03125c1.4275 1.782 3.8928 1.102 5.1875 0.0625l1.2812 0.84375c0.031419 0.58955 0.035892 1.1863 0.0625 1.7812-3.2112 1.6156-6.3121 1.0879-9.0938-0.46875l2.5625-2.2188zm15.688 0.75c1.4275 1.782 3.8928 1.102 5.1875 0.0625l2.7188 1.7812c-3.7047 2.5693-7.2889 2.1544-10.469 0.375l2.5625-2.2187zm28.094 0.59375c1.4275 1.782 3.8928 1.102 5.1875 0.0625l2.7188 1.7812c-3.7047 2.5693-7.2889 2.1544-10.469 0.375l2.5625-2.2187zm-10.281 0.0625 0.09375 2.2812-25.812 12.375 0.15625-2.25 25.562-12.406zm0.5625 0.125 10.219 8 0.09375 2.25-10.469-7.9375 0.15625-2.3125zm-36.75 0.875c2.7979 2.0124 6.7191 1.7765 9.2188 0.5625 0.025995 0.60673 0.077002 1.1994 0.09375 1.8125l-0.375 0.3125c-3.1495 1.0502-7.1126 0.65368-8.9688-0.90625l0.03125-1.7812zm26.281 0.40625 0.09375 2.25c-3.2466 1.9603-8.4994 1.7402-10.719-0.125l0.03125-1.7812c3.3944 2.4414 8.4339 1.5601 10.594-0.34375zm28.094 0.59375 0.09375 2.25c-3.2466 1.9603-8.4994 1.7402-10.719-0.125l0.03125-1.7812c3.3944 2.4414 8.4339 1.5601 10.594-0.34375zm-44.938 1.75c1.4275 1.782 3.8928 1.102 5.1875 0.0625l2.7188 1.7812c-3.7047 2.5693-7.2889 2.1544-10.469 0.375l2.5625-2.2188zm26.625 1.5312 0.09375 2.125-26.5 12.438v-1.75l26.406-12.812zm0.34375 0.4375 11.5 9.1562 0.15625 1.625-11.5-8.5938-0.15625-2.1875zm-19.062 0.09375 0.09375 2.2812c-3.2466 1.9603-8.4994 1.7089-10.719-0.15625l0.03125-1.7812c3.3944 2.4414 8.4339 1.5601 10.594-0.34375z" fill-rule="evenodd"/>
 </g>
</svg>
