<?xml version="1.0" encoding="UTF-8"?>
<!-- Created with Inkscape (http://www.inkscape.org/) -->
<svg id="svg2441" width="143.85" height="236.94" version="1.0" xmlns="http://www.w3.org/2000/svg" xmlns:cc="http://creativecommons.org/ns#" xmlns:dc="http://purl.org/dc/elements/1.1/" xmlns:rdf="http://www.w3.org/1999/02/22-rdf-syntax-ns#" xmlns:xlink="http://www.w3.org/1999/xlink">
 <defs id="defs2443">
  <pattern id="pattern3625" patternTransform="matrix(.15145 .076804 -.076804 .15145 165.91 798.64)" xlink:href="#pattern4779"/>
  <pattern id="pattern2995" patternTransform="matrix(.15145 .076804 -.076804 .15145 165.91 798.64)" xlink:href="#pattern4779"/>
  <pattern id="pattern4752" width="82.323624" height="68.868538" patternTransform="translate(-121.27 501.47)" patternUnits="userSpaceOnUse">
   <g id="g4728" transform="translate(121.27 -501.47)">
    <g id="g4084">
     <path id="path3454" transform="matrix(.97775 .20975 -.20975 .97775 114.34 22.04)" d="m-77.896 522.51a2.9601 7.0107 0 1 0-5.9201 0 2.9601 7.0107 0 1 0 5.9201 0z" fill="#f00" fill-opacity=".75" fill-rule="evenodd"/>
     <path id="path3455" transform="matrix(.19595 .98062 -.98062 .19595 460.46 498.79)" d="m-77.896 522.51a2.9601 7.0107 0 1 0-5.9201 0 2.9601 7.0107 0 1 0 5.9201 0z" fill="#f00" fill-opacity=".75" fill-rule="evenodd"/>
     <path id="path3456" transform="matrix(-.511 .85958 -.85958 -.511 339.12 865.25)" d="m-77.896 522.51a2.9601 7.0107 0 1 0-5.9201 0 2.9601 7.0107 0 1 0 5.9201 0z" fill="#f00" fill-opacity=".75" fill-rule="evenodd"/>
     <path id="path3457" transform="matrix(-.99991 -.013244 .013244 -.99991 -163.95 1054.2)" d="m-77.896 522.51a2.9601 7.0107 0 1 0-5.9201 0 2.9601 7.0107 0 1 0 5.9201 0z" fill="#f00" fill-opacity=".75" fill-rule="evenodd"/>
     <path id="path3458" transform="matrix(-.49178 -.87072 .87072 -.49178 -578.39 714.68)" d="m-77.896 522.51a2.9601 7.0107 0 1 0-5.9201 0 2.9601 7.0107 0 1 0 5.9201 0z" fill="#f00" fill-opacity=".75" fill-rule="evenodd"/>
     <path id="path3459" transform="matrix(.56298 -.82648 .82648 .56298 -469.36 157.79)" d="m-77.896 522.51a2.9601 7.0107 0 1 0-5.9201 0 2.9601 7.0107 0 1 0 5.9201 0z" fill="#f00" fill-opacity=".75" fill-rule="evenodd"/>
     <path id="path2832" d="m-73.846 524.07a2.3369 2.3369 0 1 0-4.6738 0 2.3369 2.3369 0 1 0 4.6738 0z" fill="#fff100" fill-opacity=".75" fill-rule="evenodd"/>
     <path id="path3460" d="m-74.527 526.27c5.1437 12.708 10.398 18.352 28.158 21.157" fill="none" stroke="#008507" stroke-opacity=".74902" stroke-width="1pt"/>
     <path id="path3461" d="m-61.966 542.75c-5.8097-3.8594 2.3746-12.66 2.8107-19.196 3.3293 17.779 0.6305 21.482-2.8107 19.196z" fill="#00a90b" fill-opacity=".74888" fill-rule="evenodd"/>
     <path id="path4083" d="m-56.228 545.74c-4.7799-5.0793-12.082 4.4663-18.452 5.9935 18.086 0.29727 21.283-2.9849 18.452-5.9935z" fill="#00a90b" fill-opacity=".74888" fill-rule="evenodd"/>
    </g>
    <g id="g4095" transform="matrix(-.55449 0 0 .55449 -135.18 256.09)">
     <path id="path4096" transform="matrix(.97775 .20975 -.20975 .97775 114.34 22.04)" d="m-77.896 522.51a2.9601 7.0107 0 1 0-5.9201 0 2.9601 7.0107 0 1 0 5.9201 0z" fill="#f00" fill-opacity=".75" fill-rule="evenodd"/>
     <path id="path4097" transform="matrix(.19595 .98062 -.98062 .19595 460.46 498.79)" d="m-77.896 522.51a2.9601 7.0107 0 1 0-5.9201 0 2.9601 7.0107 0 1 0 5.9201 0z" fill="#f00" fill-opacity=".75" fill-rule="evenodd"/>
     <path id="path4098" transform="matrix(-.511 .85958 -.85958 -.511 339.12 865.25)" d="m-77.896 522.51a2.9601 7.0107 0 1 0-5.9201 0 2.9601 7.0107 0 1 0 5.9201 0z" fill="#f00" fill-opacity=".75" fill-rule="evenodd"/>
     <path id="path4099" transform="matrix(-.99991 -.013244 .013244 -.99991 -163.95 1054.2)" d="m-77.896 522.51a2.9601 7.0107 0 1 0-5.9201 0 2.9601 7.0107 0 1 0 5.9201 0z" fill="#f00" fill-opacity=".75" fill-rule="evenodd"/>
     <path id="path4100" transform="matrix(-.49178 -.87072 .87072 -.49178 -578.39 714.68)" d="m-77.896 522.51a2.9601 7.0107 0 1 0-5.9201 0 2.9601 7.0107 0 1 0 5.9201 0z" fill="#f00" fill-opacity=".75" fill-rule="evenodd"/>
     <path id="path4101" transform="matrix(.56298 -.82648 .82648 .56298 -469.36 157.79)" d="m-77.896 522.51a2.9601 7.0107 0 1 0-5.9201 0 2.9601 7.0107 0 1 0 5.9201 0z" fill="#f00" fill-opacity=".75" fill-rule="evenodd"/>
     <path id="path4102" d="m-73.846 524.07a2.3369 2.3369 0 1 0-4.6738 0 2.3369 2.3369 0 1 0 4.6738 0z" fill="#fff100" fill-opacity=".75" fill-rule="evenodd"/>
     <path id="path4103" d="m-74.527 526.27c5.1437 12.708 10.398 18.352 28.158 21.157" fill="none" stroke="#008507" stroke-opacity=".74902" stroke-width="1.8034pt"/>
     <path id="path4104" d="m-61.966 542.75c-5.8097-3.8594 2.3746-12.66 2.8107-19.196 3.3293 17.779 0.6305 21.482-2.8107 19.196z" fill="#00a90b" fill-opacity=".74888" fill-rule="evenodd"/>
     <path id="path4105" d="m-56.228 545.74c-4.7799-5.0793-12.082 4.4663-18.452 5.9935 18.086 0.29727 21.283-2.9849 18.452-5.9935z" fill="#00a90b" fill-opacity=".74888" fill-rule="evenodd"/>
    </g>
   </g>
  </pattern>
  <pattern id="pattern4778" patternTransform="matrix(.34576 .17534 -.17534 .34576 -121.27 501.47)" xlink:href="#pattern4752"/>
  <pattern id="pattern4779" patternTransform="matrix(.15145 .076804 -.076804 .15145 -121.27 501.47)" xlink:href="#pattern4778"/>
  <pattern id="pattern1108" patternTransform="matrix(.15145 .076804 -.076804 .15145 165.91 798.64)" xlink:href="#pattern4779"/>
 </defs>
 <metadata id="metadata2446">
  <rdf:RDF>
   <cc:Work rdf:about="">
    <dc:format>image/svg+xml</dc:format>
    <dc:type rdf:resource="http://purl.org/dc/dcmitype/StillImage"/>
    <cc:license rdf:resource="http://web.resource.org/cc/PublicDomain"/>
    <dc:title>Bikini</dc:title>
    <dc:date>2007-03-23</dc:date>
    <dc:creator>
     <cc:Agent>
      <dc:title>Frederik Elwert</dc:title>
     </cc:Agent>
    </dc:creator>
    <dc:subject>
     <rdf:Bag>
      <rdf:li>bikini</rdf:li>
      <rdf:li>clothes</rdf:li>
     </rdf:Bag>
    </dc:subject>
   </cc:Work>
   <cc:License rdf:about="http://web.resource.org/cc/PublicDomain">
    <cc:permits rdf:resource="http://web.resource.org/cc/Reproduction"/>
    <cc:permits rdf:resource="http://web.resource.org/cc/Distribution"/>
    <cc:permits rdf:resource="http://web.resource.org/cc/DerivativeWorks"/>
   </cc:License>
  </rdf:RDF>
 </metadata>
 <g id="layer1" transform="translate(-278.07 -413.89)">
  <g id="g4268" transform="translate(-9.1058 116.73)">
   <path id="path4269" transform="translate(-9.5947e-5)" d="m338.64 372.88c8.152-2.2032 23.795-1.1016 27.761 1.5423-3.9658-4.6268-4.8471-8.813-5.2878-9.9146-3.9658 1.322-11.897-0.22032-14.541-1.9829-1.3219 3.9658-5.2878 8.152-7.9316 10.355z" fill="#00ffda" fill-opacity=".75" fill-rule="evenodd"/>
   <path id="path4270" d="m306.91 324.19c-5.4628 4.3156-9.1129 8.4051-12.224 13.144-1.2826 1.954-6.1464 9.0692-7.1513 16.387-1.7099 12.451 2.9065 22.211 12.156 26.844 16.557 8.2924 42.46-5.4116 46.781-18.375-12.463-19.63-32.708-26.471-39.562-38z" fill="#00ffda" fill-opacity=".75" fill-rule="evenodd"/>
   <path id="path4271" d="m304.72 328.28c-2.3687 0.14805-7.1023 5.6839-11.344 11.688-0.00339 0.00845 0.00339 0.02282 0 0.03125-1.2408 3.0861-2.7768 5.3474-4.0312 7.9062-0.19566 0.41362-0.41818 0.80507-0.59375 1.25-0.53271 1.3066-0.96696 2.7504-1.2188 4.5625-0.00161 0.01159 0.0016 0.01963 0 0.03125-0.21375 1.5564-0.32866 3.052-0.34375 4.5s0.06965 2.8485 0.25 4.1875c0.7214 5.3561 2.9587 9.8526 6.3438 13.438 1.6925 1.7925 3.6701 3.3458 5.9062 4.6875 1.2834 0.64276 2.65 1.111 4.0312 1.5 0.00122-0.04416-0.00132-0.08072 0-0.125 2.5882 0.47592 5.2187 0.8413 7.7188 0.96875 0.86209 0.04395 1.6759 0.02115 2.5 0 1.9984-0.16537 4.0077-0.48437 6-0.96875 0.99906-0.28399 2.003-0.58624 3-0.9375 0.13522-0.04329 0.2714-0.08044 0.40625-0.125 0.08303-0.03004 0.16704-0.06324 0.25-0.09375 9.4708-3.4826 18.426-10.015 22.25-19.438-1.4161-2.1447-2.8968-4.1735-4.4688-6.0312-0.63043 7.6967-5.305 16.808-23.469 21-24.474 5.6477-27.781-16.005-27.781-22.594 0-6.589 17.33-25.609 14.594-25.438z" fill="#00cdaf" fill-opacity=".75" fill-rule="evenodd"/>
   <path id="path4272" d="m306.91 324.19c-5.4628 4.3156-9.1129 8.4051-12.224 13.144-1.2826 1.954-6.1464 9.0692-7.1513 16.387-1.7099 12.451 2.9065 22.211 12.156 26.844 16.557 8.2924 42.46-5.4116 46.781-18.375-12.463-19.63-32.708-26.471-39.562-38z" fill="url(#pattern1108) #000000"/>
   <path id="path4273" d="m408.5 332.28c-4.3622 9.6591-40.519 16.826-47.062 32.094 4.5352 16.358 28.942 28.588 43.156 22.062 18.528-8.5058 16.941-24.579 15.688-35.25-0.77071-6.5625-5.3998-12.962-11.781-18.906z" fill="#00ffda" fill-opacity=".75" fill-rule="evenodd"/>
   <path id="path4274" d="m408.06 332.94c-0.69771 1.15-1.8721 2.2717-3.3438 3.375 0.24523 0.26111 0.41741 0.51867 0.6875 0.78125 7.2907 7.0882 9.5696 12.765 9.9688 17.156 0.39918 4.3911 1.5978 17.56-8.7812 22.75-10.379 5.1895-19.573 6.7964-30.75-1.1875-5.2916-3.7797-10.153-10.276-13-13.938-0.36601 0.54426-0.64965 1.1212-0.9375 1.6875 0.58425 1.5092 0.69216 2.0653 1.9688 5.0625 1.2996 3.0513 3.0836 5.6116 5.1562 7.8438 2.4809 2.462 5.3559 4.5912 8.4688 6.375 5.5726 2.8398 11.95 4.2068 18.062 4.4062-0.11939 0.27553-0.22342 0.50494-0.34375 0.78125 3.34 0.05449 6.5581-0.32068 9.3438-1.5938 0.3251-0.14279 0.54058-0.31894 0.84375-0.46875 1.6108-0.7898 3.0396-1.6626 4.3438-2.5625 0.60304-0.41858 1.1811-0.84057 1.7188-1.2812 0.41915-0.33798 0.74071-0.71322 1.125-1.0625 9.5212-8.7757 7.8674-21.173 7.6562-30-0.27952-2.2364-1.129-4.4385-2.2188-6.625-0.02128 0.01947-0.04116 0.04311-0.0625 0.0625-2.0891-3.7325-4.2233-5.1458-9.375-11-0.20226-0.22984-0.33674-0.35014-0.53125-0.5625z" fill="#00cdaf" fill-opacity=".75" fill-rule="evenodd"/>
   <path id="path4275" d="m408.5 332.28c-4.3622 9.6591-40.519 16.826-47.062 32.094 4.5352 16.358 28.942 28.588 43.156 22.062 18.528-8.5058 16.941-24.579 15.688-35.25-0.77071-6.5625-5.3998-12.962-11.781-18.906z" fill="url(#pattern2995) #000000"/>
   <path id="path4276" transform="translate(-9.5947e-5)" d="m345.86 362.2c6.5433 3.1158 10.905 3.4274 15.891 2.1811" fill="none" stroke="#e71414" stroke-width="1.75"/>
   <path id="path4277" transform="translate(-9.5947e-5)" d="m307.35 324.85c11.016-8.813 23.795-22.914 25.998-26.439" fill="none" stroke="#e71414" stroke-width="2.5"/>
   <path id="path4278" transform="translate(-9.5947e-5)" d="m407.82 333.01c-7.9316-9.0333-10.135-26.439-11.237-28.862" fill="none" stroke="#e71414" stroke-width="2.5"/>
   <path id="path4279" d="m408.34 331.44-0.3125 0.625c-0.99345 2.1998-3.9562 4.4668-8.0312 6.7188s-9.2295 4.543-14.438 7c-10.416 4.914-21.202 10.492-24.594 18.406l-0.0625 0.15625 0.0625 0.15625c2.3207 8.3706 9.6449 15.602 18.188 19.938s18.199 4.7875 25.512 2.3393c-8.2187 1.4419-16.695 0.9917-25.043-3.2455-8.2831-4.2042-15.383-11.183-17.656-19.094 3.2175-7.2918 13.702-12.877 24.031-17.75 5.1944-2.4506 10.333-4.7457 14.469-7.0312 3.8173-2.1096 6.7534-4.1858 8.125-6.5625 6.0948 5.779 11.035 11.799 11.764 18.012 0.43256-6.7768-5.0901-13.215-11.514-19.2l-0.5-0.46875z" fill="#e71414"/>
   <path id="path4280" d="m307.03 323.44c-0.14583 0.11458-0.29167 0.22917-0.4375 0.34375-3.8333 4.6042-10.546 8.4506-12.106 13.661 3.1528-4.8754 7.1709-8.3456 12.356-12.505 3.5992 5.6655 10.193 10.193 17.438 15.625 7.4047 5.5519 15.433 12.082 21.594 21.688-2.1826 6.1826-9.5203 12.703-18.406 16.625-8.992 3.9686-19.628 5.7547-27.714 1.7046 5.9158 4.5348 18.941 3.2841 28.12-0.76712s16.824-10.753 19.062-17.469c0.03125-0.07292 0.0625-0.14583 0.09375-0.21875-0.04167-0.07292-0.08333-0.14583-0.125-0.21875-6.2833-9.8962-14.544-16.543-22.031-22.156s-14.192-10.197-17.531-15.812c-0.10417-0.16667-0.20833-0.33333-0.3125-0.5z" fill="#e71414"/>
  </g>
  <g id="g4281" transform="translate(-9.1058 116.73)">
   <path id="path4282" d="m430 467.22c-20.991 8.3091-46.674 13.926-70.344 16.062s-45.985 0.73785-58.781-4.5938l0.1875 2.5312c5.7534 2.3972 13.092 3.8519 21.188 4.75-0.86725-0.73895-1.672-1.5428-2.5625-2.25 17.449 4.0506 64.797-0.61205 80.688-6.8438-1.236 0.73489-2.4676 1.9021-3.7188 3.3125 12.049-2.7231 23.785-6.2145 34.375-10.406l-1.0312-2.5625z" fill="#df1c1c" fill-rule="evenodd"/>
   <path id="path4283" transform="translate(-9.5947e-5)" d="m319.69 483.72c21.188 16.826 35.832 43.31 42.064 47.984 6.2317 4.6738 8.1012 1.8695 11.217-3.1158s15.891-44.868 27.419-51.723c-15.891 6.2317-63.252 10.905-80.7 6.8549z" fill="#00ffda" fill-opacity=".75" fill-rule="evenodd"/>
   <path id="path4284" d="m383.12 504.41c-0.90069 0.92034-1.9828 2.1741-3.6875 4.3438-4.3911 5.5887-9.5646 8.7641-16.75 9.5625-4.3853 0.48725-10.199-1.9171-14.594-3.6562 6.0765 8.1123 10.841 14.951 13.656 17.062 6.2317 4.6738 8.1029 1.8604 11.219-3.125 1.5105-2.4168 5.3483-13.107 10.156-24.188z" fill="#00cdaf" fill-opacity=".75" fill-rule="evenodd"/>
   <path id="path4285" d="m319.69 483.72c21.188 16.826 35.832 43.31 42.064 47.984 6.2317 4.6738 8.1012 1.8695 11.217-3.1158s15.891-44.868 27.419-51.723c-15.891 6.2317-63.252 10.905-80.7 6.8549z" fill="url(#pattern3625) #000000"/>
   <path id="path4286" d="m400.22 476.41c-0.0255 0.01-0.06808 0.02126-0.09375 0.03125-7.8541 3.0576-23.634 5.7848-39.562 7.2188-15.981 1.4387-32.164 1.5557-40.75-0.4375l-0.4375 0.90625c10.538 8.3682 19.484 19.142 26.562 28.438 3.5394 4.6479 6.601 8.9325 9.1875 12.344s4.9515 5.6364 6.6156 6.8844c0 0-3.2289-4.0832-5.8031-7.4782s-5.6696-7.683-9.2188-12.344c-6.8013-8.9314-15.368-19.211-25.438-27.5 9.1139 1.7187 24.212 1.5525 39.375 0.1875 14.575-1.3121 28.665-3.7068 37.219-6.5-2.2481 2.0634-4.4606 5.1102-6.625 8.7188-2.8859 4.8114-5.6707 10.608-8.1875 16.344s-4.7781 11.422-6.5938 15.969l-3.5171 9.6562c0.85638-1.3702 2.6383-4.7332 4.4546-9.2812s4.055-10.223 6.5625-15.938 5.2758-11.468 8.125-16.219c2.8218-4.7046 5.757-8.4126 8.4688-10.062 0.0264-0.01606 0.06739-0.04683 0.09375-0.0625l-0.4375-0.875z" fill="#e71414"/>
  </g>
 </g>
</svg>
