<?xml version="1.0" encoding="UTF-8"?>
<!-- Generator: Adobe Illustrator 12.0.1, SVG Export Plug-In . SVG Version: 6.00 Build 51448)  -->
<svg id="Layer_1" width="291.2" height="149.4" enable-background="new 0 0 291.204 149.405" overflow="visible" version="1.0" viewBox="0 0 291.2 149.4" xml:space="preserve" xmlns="http://www.w3.org/2000/svg" xmlns:cc="http://creativecommons.org/ns#" xmlns:dc="http://purl.org/dc/elements/1.1/" xmlns:rdf="http://www.w3.org/1999/02/22-rdf-syntax-ns#"><metadata id="metadata126"><rdf:RDF><cc:Work rdf:about=""><dc:format>image/svg+xml</dc:format><dc:type rdf:resource="http://purl.org/dc/dcmitype/StillImage"/></cc:Work></rdf:RDF></metadata>
<polygon id="polygon3" transform="translate(.00012919 .00043952)" points="271.54 140.31 262.12 135.81 28.545 134.53 23.832 137.96 113.19 139.88 260.4 139.67" fill="#be854c"/>
<g id="g5" transform="translate(.00012919 .00043952)" clip-rule="evenodd" fill-rule="evenodd">
	<path id="path7" d="m134.99 8.716c1.933 0.189-0.359 3.558-0.48 4.8 2.648 10.295 12.05 15.912 11.04 28.32-2.364-2.109-0.951-3.673-1.44-6.24-1.835-9.634-12.978-14.273-9.12-26.88z" fill="#a39161"/>
	<path id="path9" d="m153.23 54.315c0.134 0.986 1.282 0.958 1.92 1.44-1.293 0.948-3.472-1.31-4.8-1.92 0.437-1.304 1.683 0.489 2.4 0.479 0.142-1.262-1.862-0.377-1.44-1.92 2.715 0.806 4.387 2.654 6.721 3.84-1.425 1.082-3.08-1.7-4.801-1.919z"/>
	<path id="path11" d="m131.63 64.875c0.505 1.786-1.619 0.941-1.92 1.92-1.381-0.802 0.892-1.942 1.92-1.92z"/>
	<path id="path13" d="m123.95 65.355c-0.434 1.326-1.83 1.69-3.36 1.92 0.599-1.16 1.968-1.552 3.36-1.92z"/>
	<path id="path15" d="m128.75 66.796c-2.13 1.87-5.079 2.921-7.68 4.32 1.371-2.628 4.629-3.371 7.68-4.32z"/>
	<path id="path17" d="m130.19 68.236c-0.821 0.779-1.747 1.453-3.36 1.44 0.282-1.326 2.656-2.004 3.36-1.44z"/>
	<path id="path19" d="m134.99 70.636c-0.629 1.771-2.519 2.281-4.32 2.88 1.374-1.026 2.047-2.753 4.32-2.88z"/>
	<path id="path21" d="m111.95 80.235c2.21 0.922-1.222 2.39-2.88 2.4 0.31-1.449 2.181-1.339 2.88-2.4z"/>
	<path id="path23" d="m181.55 82.636c1.886 0.194 2.05 2.11 3.84 2.4-1.27 1.083-3.45-1.009-3.84-2.4z"/>
	<path id="path25" d="m185.87 85.516c3.715 3.005 9.345 4.096 13.439 6.72-3.788-1.015-10.838-2.92-13.439-6.72z"/>
	<path id="path27" d="m102.83 86.956c-8.35 3.97-16.148 8.492-24.48 12.479 6.304-6.017 16.538-8.102 23.52-13.439 0.817-0.177 0.906 0.374 0.96 0.96z"/>
	<path id="path29" d="m58.669 107.6c-6.941 3.299-12.748 7.732-20.16 10.56 2.582-2.31 6.519-4.188 10.08-6.239 3.318-1.913 7.277-4.828 10.08-4.321z"/>
	<path id="path31" d="m61.069 108.08c-1.973 2.093-6.146 4.323-8.64 4.319 2.743-1.577 5.248-3.391 8.64-4.319z"/>
	<path id="path33" d="m228.11 110.48c5.619 2.222 13.076 6.763 18.239 11.04-6.105-3.655-12.522-6.997-18.239-11.04z"/>
	<path id="path35" d="m47.149 111.44c-6.332 2.629-11.068 6.853-17.28 9.601 4.275-4.686 11.388-6.533 16.32-10.561 0.817-0.177 0.906 0.374 0.96 0.96z"/>
	<path id="path37" d="m33.709 116.72c-5.471 1.729-8.178 6.222-13.92 7.68 3.734-2.593 10.604-8.461 13.92-7.68z"/>
	<path id="path39" d="m241.07 115.76c4.623 2.736 9.297 5.422 13.439 8.64-5.053-2.306-9.812-4.908-13.439-8.64z"/>
	<path id="path41" d="m33.229 123.44c-3.904 3.615-9.974 5.066-13.92 8.641 1.511-4.094 9.151-6.209 13.92-8.641z"/>
	<path id="path43" d="m268.91 127.28c0.293-1.719 3.069-0.638 2.88 0.96-1.661 0.381-2.027-0.533-2.88-0.96z"/>
	<path id="path45" d="m17.869 134c-2.015 2.625-5.826 3.454-8.64 5.279 1.652-2.988 5.267-4.012 8.64-5.279z"/>
	<path id="path47" d="m269.39 134c2.005 1.194 4.099 2.302 6.24 3.359-1.096 1.387-5.374-1.415-6.24-3.359z"/>
	<path id="path49" d="m273.71 134.48c2.676 1.324 5.082 2.919 7.68 4.32-2.631 0.543-6.118-2.195-7.68-4.32z"/>
	<path id="path51" d="m10.669 134.96c-0.165 1.274-1.26 1.62-2.4 1.92-0.465-1.905 1.39-1.49 2.4-1.92z"/>
	<path id="path53" d="m38.029 138.8c-3.066-0.558-10.226 0.747-12-0.48 2.245 0.254 9.451-1.849 12 0.48z" fill="#be854c"/>
	<path id="path55" d="m38.509 137.84c6.375 0.32 9.205 0.214 14.4 0.479-3.551 0.506-11.639 1.405-14.4-0.479z" fill="#be854c"/>
	<path id="path57" d="m135.95 7.756c1.612-3.231 5.29-5.248 7.2-5.76 0.999-0.268 3.669-0.226 3.84 0 0.474 0.627-2.445 0.285-2.88 0.48-1.741 0.781-6.624 2.967-8.16 5.28z" fill="#a39161"/>
	<path id="path59" d="m147.47 2.476c5.227-1.062 8.811 3.667 10.561 7.68-2.716-3.365-4.988-7.174-10.561-7.68z" fill="#a39161"/>
	<path id="path61" d="m89.869 91.275c12.038-6.679 24.897-16.954 33.12-31.2 2.192-3.797 5.39-11.661 9.12-12 5.457-0.496 7.983 6.001 13.44 6.72-0.564-1.996-3.072-2.048-4.32-3.36 2.81-0.242 5.951 3.324 9.12 4.32-2.544-3.375-7.05-4.791-11.04-6.72-0.331 1.291 0.993 0.928 1.44 1.44-1.606 0.789-3.594-2.153-5.76-2.4 7.997-2.403 18.981-1.861 25.44 1.44 3.952 8.255 7.647 15.705 12.96 22.08 21.919 26.303 66.814 29.413 94.08 50.4h2.4c5.661 5.378 12.727 9.353 15.84 17.279-2.068-0.331-2.948-1.852-4.8-2.399 2.177 3.309 8.433 4.401 6.72 10.08-39.234-22.047-78.055-44.506-117.12-66.721h-3.36c-6.656-4.863-14.635-8.405-22.08-12.479-8.049 3.951-15.432 8.568-23.04 12.96-11.753 2.784-22.968 10.981-33.12 16.8-28.618 16.4-57.863 31.763-86.4 47.521 4.518-21.014 27.887-30.026 46.56-37.921 15.207-6.428 30.712-12.027 43.68-18.72 1.084 1.117-2.858 1.279-2.88 2.88zm68.161-35.039c-2.334-1.187-4.006-3.035-6.721-3.84-0.422 1.542 1.582 0.658 1.44 1.92-0.718 9e-3 -1.964-1.783-2.4-0.479 1.328 0.61 3.507 2.868 4.8 1.92-0.638-0.482-1.786-0.454-1.92-1.44 1.721 0.217 3.376 2.999 4.801 1.919zm4.319 1.44c-1.84-1.36-3.624-2.776-5.76-3.84 1.008 1.881 4.23 4.077 5.76 3.84zm-29.76 1.92c5e-3 -0.634 0.841-0.438 0.96-0.96-0.954-6e-3 -0.61-1.31-1.92-0.96-0.158 1.364-0.93 0.785-2.4 0-6e-3 0.954-1.31 0.61-0.96 1.92 3.082 0.649 5.182 4.125 8.64 2.88-0.229 1.525 5.04 3.076 4.8 1.44 1.439 0.828 4.229 3.699 5.28 1.92 3.022 1.462 6.289 5.225 9.6 4.8-7.094-2.987-13.185-9.534-20.16-11.04 2.734 2.07 8.319 3.836 9.12 6.24-3.297-1.987-7.596-5.52-11.04-5.76 0.521 0.115 1.152 0.791 0.48 0.96-0.156-1.124-2.093-0.467-2.4-1.44zm37.92 9.6c-4.109-1.491-7.264-3.937-11.04-5.76 2.102 3.181 7.771 5.344 11.04 5.76zm-40.8-2.4c0.301-0.979 2.425-0.135 1.92-1.92-1.028-0.023-3.301 1.117-1.92 1.92zm39.36 0c-1.203-0.265-3.161-2.242-3.84-1.44 1.052 0.415 2.841 2.562 3.84 1.44zm-48.48 0.48c1.53-0.23 2.926-0.594 3.36-1.92-1.392 0.367-2.761 0.759-3.36 1.92zm0.48 3.84c2.601-1.399 5.55-2.45 7.68-4.32-3.05 0.949-6.308 1.692-7.68 4.32zm48.48 0.96c-2.59-1.571-4.887-3.434-7.68-4.8 1.847 1.999 5.29 4.942 7.68 4.8zm-42.72-2.4c1.613 0.013 2.539-0.661 3.36-1.44-0.704-0.564-3.078 0.114-3.36 1.44zm3.84 3.84c1.801-0.599 3.69-1.109 4.32-2.88-2.273 0.127-2.946 1.854-4.32 2.88zm-5.76 0.48c1.797-0.283 2.794-1.365 3.84-2.4-1.713 0.367-2.922 1.237-3.84 2.4zm48.001 5.279c-2.534-3.386-7.327-4.513-10.561-7.2 2.566 3.356 6.771 5.071 10.561 7.2zm-63.841 3.361c1.658-0.011 5.09-1.479 2.88-2.4-0.699 1.06-2.57 0.95-2.88 2.4zm76.32 2.4c-1.79-0.29-1.954-2.206-3.84-2.4 0.39 1.391 2.57 3.483 3.84 2.4zm13.92 7.199c-4.095-2.624-9.725-3.715-13.439-6.72 2.601 3.801 9.651 5.706 13.439 6.72zm-97.44-6.239c-6.982 5.338-17.216 7.423-23.52 13.439 8.332-3.987 16.13-8.51 24.48-12.479-0.054-0.586-0.143-1.137-0.96-0.96zm-39.36 24.48c7.369-3.831 14.958-7.441 21.6-12-7.523 3.676-15.44 6.96-21.6 12zm165.12-0.48c-2.046-2.279-6.883-4.311-9.12-4.801 2.664 1.977 5.836 3.446 9.12 4.801zm-179.04 1.92c-3.561 2.052-7.498 3.93-10.08 6.239 7.413-2.827 13.219-7.261 20.16-10.56-2.803-0.506-6.762 2.409-10.08 4.321zm3.84 0.48c2.494 4e-3 6.667-2.227 8.64-4.319-3.392 0.927-5.897 2.741-8.64 4.319zm193.92 9.12c-5.163-4.277-12.62-8.818-18.239-11.04 5.717 4.043 12.134 7.385 18.239 11.04zm-200.16-11.04c-4.932 4.027-12.045 5.875-16.32 10.561 6.212-2.748 10.948-6.972 17.28-9.601-0.054-0.586-0.143-1.137-0.96-0.96zm-26.4 13.92c5.742-1.458 8.449-5.951 13.92-7.68-3.316-0.781-10.186 5.087-13.92 7.68zm234.72 0c-4.143-3.218-8.816-5.903-13.439-8.64 3.627 3.732 8.386 6.334 13.439 8.64zm-6.24-5.76c1.313 2.454 4.953 3.146 7.681 4.8 2.42 1.469 4.696 4.987 6.72 3.84-1.736-0.823-3.038-2.082-4.32-3.359 3.143 1.701 9.029 5.633 11.521 4.8-1.131-0.885-2.553-1.477-2.4-2.4-6.496-1.614-12.882-4.652-19.202-7.681zm23.521 9.599c0.189-1.598-2.587-2.679-2.88-0.96 0.853 0.427 1.219 1.341 2.88 0.96zm-252.48 3.841c3.946-3.574 10.016-5.025 13.92-8.641-4.769 2.433-12.409 4.548-13.92 8.641zm-10.08 7.199c2.814-1.825 6.625-2.654 8.64-5.279-3.373 1.267-6.988 2.291-8.64 5.279zm266.4-1.92c-2.142-1.058-4.235-2.165-6.24-3.359 0.866 1.944 5.144 4.746 6.24 3.359zm5.76 1.441c-2.598-1.401-5.004-2.996-7.68-4.32 1.562 2.125 5.049 4.863 7.68 4.32zm-273.12-1.92c1.14-0.3 2.235-0.646 2.4-1.92-1.01 0.43-2.865 0.015-2.4 1.92z" fill="#be854c"/>
	<path id="path63" d="m156.59 53.836c2.136 1.063 3.92 2.479 5.76 3.84-1.53 0.237-4.752-1.959-5.76-3.84z"/>
	<path id="path65" d="m121.07 56.716c1.535 2.02-1.299 4.158-2.4 6.24 2.171-0.388 2.452-2.668 3.36-4.32-8.854 21.285-30.218 29.704-53.28 39.36-10.591 4.435-21.449 9.193-32.64 14.399-12.863 5.984-27.417 12.047-32.64 24.96-0.248-6.945 5.33-12.569 10.08-15.84 33.032-22.741 87.688-27.966 107.52-64.799z" fill="#be854c"/>
	<path id="path67" d="m134.99 61.036c0.672-0.169 0.042-0.845-0.48-0.96 3.444 0.24 7.743 3.773 11.04 5.76-0.801-2.404-6.386-4.17-9.12-6.24 6.976 1.506 13.066 8.053 20.16 11.04-3.312 0.425-6.578-3.337-9.6-4.8-1.05 1.778-3.841-1.093-5.28-1.92 0.239 1.636-5.029 0.085-4.8-1.44-3.458 1.246-5.558-2.231-8.64-2.88-0.35-1.31 0.954-0.966 0.96-1.92 1.47 0.785 2.242 1.364 2.4 0 1.31-0.35 0.966 0.954 1.92 0.96-0.119 0.521-0.955 0.326-0.96 0.96 0.307 0.973 2.244 0.316 2.4 1.44z"/>
	<path id="path69" d="m159.47 63.436c3.776 1.824 6.931 4.27 11.04 5.76-3.269-0.416-8.938-2.579-11.04-5.76z"/>
	<path id="path71" d="m165.23 65.355c0.679-0.802 2.637 1.176 3.84 1.44-0.999 1.123-2.788-1.024-3.84-1.44z"/>
	<path id="path73" d="m161.87 67.276c2.793 1.366 5.09 3.229 7.68 4.8-2.391 0.142-5.834-2.801-7.68-4.8z"/>
	<path id="path75" d="m128.75 71.596c-1.046 1.035-2.043 2.117-3.84 2.4 0.917-1.163 2.126-2.033 3.84-2.4z"/>
	<path id="path77" d="m162.35 72.076c3.233 2.687 8.026 3.814 10.561 7.2-3.79-2.13-7.995-3.845-10.561-7.2z"/>
	<path id="path79" d="m118.67 82.155c-3.723 2.838-8.124 4.997-12.48 7.2 3.71-2.849 8.04-5.08 12.48-7.2z" fill="#be854c"/>
	<path id="path81" d="m105.23 89.836c-1.625 1.295-8.855 5.195-12.96 7.2 3.974-2.746 8.187-5.254 12.96-7.2z" fill="#be854c"/>
	<path id="path83" d="m91.789 97.036c-26.59 15.649-53.717 30.763-81.12 45.6-0.271 0.854-1.334 0.069-0.48 0 27.276-15.124 53.878-30.923 81.6-45.6z" fill="#be854c"/>
	<path id="path85" d="m84.109 98.476c-6.642 4.559-14.231 8.169-21.6 12 6.16-5.04 14.077-8.324 21.6-12z"/>
	<path id="path87" d="m218.51 105.2c2.237 0.49 7.074 2.521 9.12 4.801-3.284-1.355-6.456-2.824-9.12-4.801z"/>
	<path id="path89" d="m267.47 126.32c-0.152 0.924 1.27 1.516 2.4 2.4-2.491 0.833-8.378-3.099-11.521-4.8 1.282 1.277 2.584 2.536 4.32 3.359-2.023 1.147-4.3-2.371-6.72-3.84-2.728-1.654-6.367-2.346-7.681-4.8 6.322 3.031 12.708 6.069 19.202 7.681z"/>
	<path id="path91" d="m161.87 45.196c5.816 11.314 10.702 21.061 19.68 29.28 14.172 12.975 38.632 21.132 58.561 29.76 9.188 3.979 15.739 7.521 24.96 11.04 8.164 6.235 18.416 10.384 21.6 21.601-20.856-30.668-76.957-34.223-105.12-58.561-9.203-7.953-14.728-17.543-20.64-29.76-7.989-2.747-20.732-4.597-29.28-1.44-5.264 1.944-5.27 7.047-8.64 10.56-1.944-0.723 1.413-3.869 1.92-5.28-1.491-13.129 25.565-9.437 36.959-7.2z" fill="#be854c"/>
</g>
<g id="g93" transform="translate(.00012919 .00043952)">
	<path id="path95" d="m122.99 57.676c3.37-3.513 3.376-8.616 8.64-10.56 8.548-3.157 21.291-1.307 29.28 1.44 5.912 12.217 11.437 21.807 20.64 29.76 28.163 24.338 84.264 27.893 105.12 58.561-3.184-11.217-13.436-15.365-21.6-21.601-9.221-3.52-15.771-7.062-24.96-11.04-19.929-8.628-44.389-16.785-58.561-29.76-8.978-8.219-13.863-17.966-19.68-29.28-11.394-2.236-38.449-5.929-36.96 7.2-0.506 1.411-3.863 4.557-1.919 5.28z" fill="none"/>
	<path id="path97" d="m160.36 134.89 15.496 0.125c26.673-0.128 58.601-0.914 83.937-0.062-29.029-18.144-60.857-35.118-90.721-51.841-4.125-2.31-9.093-4.681-12-8.64-4.095 1.965-7.394-5.049-12.959-4.8-37.453 21.908-76.5 42.22-113.76 64.32 49.13 0.284 93.444-0.061 130.01 0.898z" fill="none"/>
	<path id="path99" d="m36.109 112.4c11.191-5.206 22.048-9.965 32.64-14.399 23.062-9.656 44.426-18.075 53.28-39.36-0.908 1.651-1.188 3.932-3.36 4.32 1.101-2.082 3.935-4.22 2.4-6.24-19.833 36.833-74.489 42.059-107.52 64.8-4.75 3.271-10.328 8.895-10.08 15.84 5.223-12.915 19.778-18.977 32.64-24.961z" fill="none"/>
	<path id="path101" d="m10.189 142.64c-0.854 0.069 0.208 0.854 0.48 0 27.403-14.837 54.53-29.95 81.12-45.6-27.722 14.677-54.324 30.476-81.6 45.6z" fill="none"/>
	<path id="path103" d="m145.55 41.835c1.01-12.408-8.392-18.024-11.04-28.32 0.121-1.242 2.413-4.61 0.48-4.8-3.858 12.607 7.285 17.247 9.12 26.88 0.489 2.567-0.923 4.132 1.44 6.24z" fill="none"/>
	<path id="path105" d="m144.11 2.476c0.435-0.195 3.354 0.147 2.88-0.48-0.17-0.226-2.841-0.268-3.84 0-1.91 0.513-5.588 2.529-7.2 5.76 1.536-2.313 6.419-4.499 8.16-5.28z" fill="none"/>
	<path id="path107" d="m158.03 10.156c-1.75-4.014-5.334-8.743-10.561-7.68 5.573 0.506 7.845 4.315 10.561 7.68z" fill="none"/>
	<path id="path109" d="m168.59 137.84c31.618-0.622 59.677 0.518 95.521-0.48-7.501-2.506-16.275-1.525-24.48-1.439-14.109 0.147-30.175 0.185-46.56-0.07l0.083 0.146-57.892-0.479-0.287-0.134c-31.627 0.326-64.442 0.175-87.344-0.423-7.9-0.206-18.043-0.572-21.6 1.92 53.803 1.143 105.11 0.717 142.08 0.96-36.924 1.134-75.382 0.163-111.36 0.479h-2.88c68.343 1.359 133.6 1.222 212.64 0.48-26.224-1.069-63.11 0.299-97.921-0.96z" fill="none"/>
	<path id="path111" d="m105.23 89.836c-4.773 1.946-8.986 4.454-12.96 7.2 4.105-2.005 11.335-5.905 12.96-7.2z" fill="none"/>
	<path id="path113" d="m52.909 138.32c-5.195-0.266-8.024-0.159-14.4-0.479 2.761 1.884 10.849 0.985 14.4 0.479z" fill="none"/>
	<path id="path115" d="m280.91 136.88c1.852 0.548 2.731 2.068 4.8 2.399-3.113-7.927-10.179-11.901-15.84-17.279h-2.4c-27.266-20.987-72.161-24.098-94.08-50.4-5.312-6.375-9.008-13.825-12.96-22.08-6.459-3.301-17.443-3.843-25.44-1.44 2.166 0.247 4.154 3.188 5.76 2.4-0.448-0.512-1.771-0.149-1.44-1.44 3.99 1.93 8.496 3.345 11.04 6.72-3.169-0.996-6.31-4.562-9.12-4.32 1.248 1.312 3.756 1.364 4.32 3.36-5.457-0.719-7.983-7.216-13.44-6.72-3.73 0.339-6.928 8.203-9.12 12-8.223 14.246-21.083 24.521-33.12 31.2 0.021-1.602 3.964-1.764 2.88-2.88-12.968 6.692-28.473 12.292-43.68 18.72-18.673 7.895-42.042 16.907-46.56 37.921 28.537-15.758 57.782-31.12 86.4-47.521 10.152-5.818 21.367-14.016 33.12-16.8 7.608-4.392 14.991-9.009 23.04-12.96 7.445 4.075 15.423 7.616 22.08 12.479h3.36c39.065 22.215 77.886 44.674 117.12 66.721 1.712-5.679-4.544-6.771-6.72-10.08z" fill="none"/>
	<path id="path117" d="m118.67 82.155c-4.441 2.12-8.771 4.351-12.48 7.2 4.356-2.203 8.757-4.362 12.48-7.2z" fill="none"/>
	<path id="path119" d="m26.029 138.32c1.774 1.228 8.934-0.077 12 0.48-2.549-2.328-9.755-0.225-12-0.48z" fill="none"/>
	<path id="path121" d="m287.15 131.12c-4.861-7.24-15.249-12.166-21.119-17.279-6.858-1.543-12.781-4.968-18.721-7.681-6.274-2.865-12.472-5.204-18.72-7.68-18.983-7.521-37.074-16.033-49.92-29.28-4.445-4.584-8.314-10.222-11.04-15.36-1.653-3.117-2.926-8.684-5.28-10.08-4.006-2.376-11.384-0.24-15.36-1.92 3.722-13.277-10.838-18.05-10.08-28.8 0.733-10.388 12.792-10.155 17.76-4.32 1.615 1.897 2.589 7.028 7.2 5.28 1.591-2.719-1.706-5.719-3.36-7.68-2.063-2.446-4.563-4.905-7.68-5.76-7.994-2.192-17.389 2.197-18.24 11.52-1.253 13.726 12.318 14.449 10.56 29.76-6.038 1.572-13.402-0.338-16.8 1.92-2.088 1.388-5.177 10.054-7.2 13.44-2.694 4.51-6.311 9.468-9.12 12.48-14.868 15.938-37.887 22.239-59.52 31.68-7.749 3.382-15.616 7.414-23.52 11.521-10.661 5.538-22.443 10.922-25.92 21.6-0.934 2.866-2.397 9.982 1.44 13.44 5.527 1.504 10.717-6.322 16.8-7.681 3.007-0.671 8.517 0 13.44 0h16.8c52.987 0 126.45 0.48 190.56 0.48 10.973 0 23.427-1.301 31.68 0.479 6.022 1.3 10.045 8.894 17.28 8.16 4.388-5.985 1.13-13.696-1.921-18.239zm-129.12-120.96c-2.716-3.365-4.987-7.173-10.561-7.68 5.227-1.063 8.811 3.666 10.561 7.68zm-14.881-8.16c0.999-0.268 3.669-0.226 3.84 0 0.474 0.627-2.445 0.285-2.88 0.48-1.742 0.782-6.625 2.968-8.16 5.28 1.613-3.231 5.29-5.248 7.2-5.76zm-8.16 6.72c1.933 0.189-0.359 3.558-0.48 4.8 2.648 10.295 12.05 15.912 11.04 28.32-2.364-2.109-0.951-3.673-1.44-6.24-1.835-9.634-12.978-14.273-9.12-26.88zm26.881 36.48c5.816 11.314 10.702 21.061 19.68 29.28 14.172 12.975 38.632 21.132 58.561 29.76 9.188 3.979 15.739 7.521 24.96 11.04 8.164 6.235 18.416 10.384 21.6 21.601-20.856-30.668-76.957-34.223-105.12-58.561-9.203-7.953-14.728-17.543-20.64-29.76-7.989-2.747-20.732-4.597-29.28-1.44-5.264 1.944-5.27 7.047-8.64 10.56-1.944-0.723 1.413-3.869 1.92-5.28-1.491-13.129 25.565-9.437 36.959-7.2zm-148.32 76.32c33.031-22.741 87.688-27.967 107.52-64.8 1.535 2.02-1.299 4.158-2.4 6.24 2.171-0.388 2.452-2.668 3.36-4.32-8.854 21.285-30.218 29.704-53.28 39.36-10.591 4.435-21.449 9.193-32.64 14.399-12.863 5.984-27.417 12.047-32.64 24.96-0.248-6.945 5.33-12.569 10.08-15.839zm-2.88 21.12c-0.271 0.854-1.334 0.069-0.48 0 27.276-15.124 53.878-30.923 81.6-45.6-26.59 15.65-53.717 30.763-81.12 45.6zm133.44-72.96c4.486 1.095 6.211 1.69 12.341 5.736 4.701 3.095 8.493 5.394 12.618 7.703 29.863 16.723 61.691 33.697 90.721 51.841-25.336-0.852-57.264-0.065-83.937 0.062l-15.496-0.125c-36.562-0.959-80.877-0.613-130.01-0.897 37.262-22.1 76.309-42.412 113.76-64.32zm-51.84 27.36c3.974-2.746 8.187-5.254 12.96-7.2-1.625 1.295-8.855 5.195-12.96 7.2zm13.92-7.681c3.709-2.85 8.039-5.08 12.48-7.2-3.723 2.838-8.124 4.997-12.48 7.2zm-80.16 48.96c2.245 0.255 9.451-1.849 12 0.48-3.066-0.557-10.226 0.748-12-0.48zm12.48-0.479c6.375 0.32 9.205 0.214 14.4 0.479-3.551 0.506-11.639 1.405-14.4-0.479zm15.36 0.479h2.88c35.978-0.316 74.436 0.654 111.36-0.479-36.973-0.243-88.276 0.183-142.08-0.96 3.557-2.492 13.7-2.126 21.6-1.92 22.902 0.598 55.717 0.749 87.344 0.423l0.287 0.134 57.892 0.479-0.083-0.146c16.385 0.255 32.45 0.218 46.56 0.07 8.205-0.086 16.979-1.066 24.48 1.439-35.844 0.998-63.902-0.142-95.521 0.48 34.811 1.259 71.696-0.109 97.92 0.96-79.035 0.742-144.3 0.88-212.64-0.48zm233.76 8.641c-39.234-22.047-78.055-44.506-117.12-66.721h-3.36c-6.656-4.863-14.635-8.405-22.08-12.479-8.049 3.951-15.432 8.568-23.04 12.96-11.753 2.784-22.968 10.981-33.12 16.8-28.618 16.4-57.863 31.763-86.4 47.521 4.518-21.014 27.887-30.026 46.56-37.921 15.207-6.428 30.712-12.027 43.68-18.72 1.084 1.116-2.858 1.278-2.88 2.88 12.038-6.679 24.897-16.954 33.12-31.2 2.192-3.797 5.39-11.661 9.12-12 5.457-0.496 7.983 6.001 13.44 6.72-0.564-1.996-3.072-2.048-4.32-3.36 2.81-0.242 5.951 3.324 9.12 4.32-2.544-3.375-7.05-4.791-11.04-6.72-0.331 1.291 0.993 0.928 1.44 1.44-1.606 0.789-3.594-2.153-5.76-2.4 7.997-2.403 18.981-1.861 25.44 1.44 3.952 8.255 7.647 15.705 12.96 22.08 21.919 26.303 66.814 29.413 94.08 50.4h2.4c5.661 5.378 12.727 9.353 15.84 17.279-2.068-0.331-2.948-1.852-4.8-2.399 2.177 3.309 8.433 4.401 6.72 10.08z"/>
</g>
</svg>
