<?xml version="1.0" encoding="UTF-8"?>
<!-- Created with Inkscape (http://www.inkscape.org/) -->
<svg id="svg2" width="396.97" height="108.51" version="1.0" xmlns="http://www.w3.org/2000/svg" xmlns:cc="http://creativecommons.org/ns#" xmlns:dc="http://purl.org/dc/elements/1.1/" xmlns:rdf="http://www.w3.org/1999/02/22-rdf-syntax-ns#" xmlns:xlink="http://www.w3.org/1999/xlink">
 <defs id="defs4">
  <filter id="filter3393">
   <feGaussianBlur id="feGaussianBlur3395" stdDeviation="1.8779569"/>
  </filter>
  <linearGradient id="linearGradient3548" x1="397.19" x2="972.31" y1="436.15" y2="85.838" gradientTransform="translate(-129.51 418.05)" gradientUnits="userSpaceOnUse">
   <stop id="stop3544" stop-color="#5a8128" offset="0"/>
   <stop id="stop3546" stop-color="#3d4c1e" offset="1"/>
  </linearGradient>
  <filter id="filter3562">
   <feGaussianBlur id="feGaussianBlur3564" stdDeviation="13.76578"/>
  </filter>
  <filter id="filter3647">
   <feGaussianBlur id="feGaussianBlur3649" stdDeviation="1.4956156"/>
  </filter>
  <filter id="filter3659">
   <feGaussianBlur id="feGaussianBlur3661" stdDeviation="1.966882"/>
  </filter>
  <filter id="filter3671">
   <feGaussianBlur id="feGaussianBlur3673" stdDeviation="0.7250032"/>
  </filter>
  <filter id="filter3697" x="-.021934" y="-.10036" width="1.0439" height="1.2007">
   <feGaussianBlur id="feGaussianBlur3699" stdDeviation="7.8688405"/>
  </filter>
  <filter id="filter3892" x="-.092964" y="-.18744" width="1.1859" height="1.3749">
   <feGaussianBlur id="feGaussianBlur3894" stdDeviation="6.9833868"/>
  </filter>
  <filter id="filter3928" x="-.094692" y="-.20527" width="1.1894" height="1.4105">
   <feGaussianBlur id="feGaussianBlur3930" stdDeviation="8.1267299"/>
  </filter>
 </defs>
 <metadata id="metadata7">
  <rdf:RDF>
   <cc:Work rdf:about="">
    <dc:format>image/svg+xml</dc:format>
    <dc:type rdf:resource="http://purl.org/dc/dcmitype/StillImage"/>
   </cc:Work>
  </rdf:RDF>
 </metadata>
 <g id="layer1" transform="translate(128.66 -580.53)" display="none" fill-rule="evenodd">
  <path id="path3550" d="m-341.75 451.31 845.85-40.081c54.848-5.2202 119.26 0.71716 144.42 13.313l429.44 214.96c25.163 12.595 1.2641 26.938-53.584 32.158l-818.53 77.905c-54.848 5.2202-119.26-0.71714-144.42-13.313l-456.75-252.78c-25.163-12.595-1.2641-26.938 53.584-32.158z" filter="url(#filter3562)"/>
  <path id="rect2832" d="m-341.75 449.31 845.85-40.081c54.848-5.2202 119.26 0.71716 144.42 13.313l429.44 214.96c25.163 12.595 1.2641 26.938-53.584 32.158l-818.53 77.905c-54.848 5.2202-119.26-0.71714-144.42-13.313l-456.75-252.78c-25.163-12.595-1.2641-26.938 53.584-32.158z" fill="url(#linearGradient3548)"/>
 </g>
 <g id="layer10" transform="translate(128.66 -580.53)" display="none">
  <path id="path3476" d="m-124 492.36c4-6 42.719-13.513 58-4 68 42.333 162 86.667 230 129 0 0 45.512-30.294 102-32 75.5-2.25 113 16 113 16 44.676-39.283 68.667-26.667 108-7 0 0 38.5-30 92-34s99 7 133.5 29c-10.763-18.45-162.65-113.11-171.5-121-3.9017-3.4799-48.833-2.6667-50-12.5 5.8333-4.1667 46.989 0.28658 52 4 26.555 19.678 176.55 104.86 194 131-9.5514 22.137-71.667 28.167-109 23.5-46.667 0-74.333 3-121 3-25.333-6-57.878-28.497-80-27-22.167 1.5-55 28-69 38s-132 12-132 12c-26 0.66667-44 1.3333-70 2-74.333-48.333-156.67-96.667-231-145-12.824-8.3387-46 4-49-5z" fill-opacity=".072202" fill-rule="evenodd" filter="url(#filter3697)"/>
 </g>
 <g id="layer6" transform="translate(128.66 -580.53)" display="none">
  <path id="path3386" d="m601.75 468.17c-1.8196-0.00552-3.644 0.00522-5.4623 0.0313-32.069 0.83431-64.115 3.7126-95.895 7.81-22.551 3.3346-45.419 6.6668-66.643 15.119-23.047 6.5652-47.498 6.9382-71.197 4.3197-18.111-4.9671-37.126-5.3557-55.828-6.0101-34.005-0.48381-68.039 1.0132-101.89 4.2415-25.093 2.774-50.156 7.8819-73.279 18.328-8.6735 4.0008-18.138 5.548-27.624 5.6814-1.5309 0.31463-4.9405-0.54622-4.1163 2.2068 0.17584 4.8895-0.31295 10.006 0.17217 14.79 0.30925 0.09568 0.62456 0.18066 0.93907 0.26607-0.37082-4.5727 0.05737-9.4131-0.10956-14.055-0.82423-2.753 2.5854-1.8922 4.1163-2.2068 9.4863-0.13339 18.951-1.6806 27.624-5.6814 23.123-10.446 48.186-15.554 73.279-18.328 33.85-3.2283 67.885-4.7253 101.89-4.2415 18.702 0.65433 37.717 1.043 55.828 6.0101 23.7 2.6185 48.151 2.2455 71.197-4.3197 21.223-8.4523 44.092-11.784 66.643-15.119 31.78-4.0973 63.826-6.9756 95.895-7.81 14.547-0.20866 29.148 0.56936 43.526 2.6294 12.292 1.3946 23.873 6.1938 35.998 8.2951 6.8712 1.3 14.017-0.17434 20.879-0.10955-0.01331-0.32733-0.016-0.66084-0.0313-0.98603-7.1565-0.23073-14.654 1.4552-21.849 0.09391-12.125-2.1014-23.705-6.9006-35.998-8.2952-12.581-1.8025-25.326-2.6221-38.064-2.6607zm62.746 18.249c3.7993 4.1431 5.7102 10.117 6.73 15.51 2.9469 19.048-0.07207 38.528-4.6328 57.064-2.05 6.7466-3.418 13.951-7.1213 20.002-4.3898 5.8321-11.607 8.2413-18.578 9.1716-27.144 4.1256-54.734 4.73-82.153 5.6814-28.715 0.59167-57.482 1.2193-86.176-0.35998-4.675 0.09316-9.0797-1.8284-12.427-4.9614 3.4398 3.7231 8.2726 6.0658 13.429 5.9631 28.693 1.5793 57.46 0.95165 86.176 0.35998 27.42-0.95141 55.009-1.5558 82.153-5.6814 6.9715-0.93035 14.188-3.3395 18.578-9.1716 3.7033-6.0512 5.0713-13.256 7.1213-20.002 4.5607-18.536 7.5797-38.017 4.6328-57.064-1.106-5.8488-3.2557-12.374-7.7317-16.512zm-304.13 24.4c1.2607 1.3971 2.2535 3.0466 2.8485 5.0084 3.451 11.539 0.0014 23.775-3.318 34.934-5.2695 15.501-11.996 30.664-21.098 44.309-3.5479 5.1423-9.6097 7.7393-15.667 8.4986-35.517 6.1848-71.36 10.085-107.24 13.476-21.078 1.6402-42.263 3.8324-63.419 2.5511-4.5314-0.18112-9.2876-1.856-12.693-4.8988 3.433 3.6675 8.6943 5.7006 13.695 5.9005 21.155 1.2812 42.341-0.9109 63.419-2.5512 35.882-3.3911 71.725-7.2909 107.24-13.476 6.0572-0.75926 12.119-3.3563 15.667-8.4986 9.102-13.645 15.828-28.808 21.098-44.309 3.3195-11.158 6.7691-23.395 3.3181-34.934-0.74508-2.4565-2.1089-4.4165-3.8502-6.0101zm57.456 4.6484c1.4251 1.5475 2.5106 3.4029 3.0989 5.5875 5.0158 18.583 9.675 37.617 20.237 53.997 4.6118 7.0321 9.1937 14.216 15.229 20.096-5.5484-5.6848-9.8732-12.456-14.227-19.094-10.562-16.38-15.221-35.413-20.237-53.997-0.72024-2.6745-2.181-4.8615-4.1006-6.5892zm-299.38 24.823c0.9149 1.9929-0.36266 4.6178 0.01566 6.777-0.28438 21.946 4.2252 43.828 11.472 64.389 1.2523 3.6475 3.3815 7.2012 6.2448 9.8916-2.3612-2.5426-4.1416-5.6812-5.2432-8.8899-7.2471-20.561-11.757-42.443-11.472-64.389-0.42009-2.3976 1.218-5.3772-0.39128-7.4187-0.20686-0.12823-0.41488-0.24185-0.62605-0.35998z" display="inline" fill="#fff" fill-rule="evenodd" filter="url(#filter3393)"/>
 </g>
 <g id="layer2" transform="translate(128.66 -580.53)">
  <g id="g2509" fill-rule="evenodd">
   <path id="path3369" d="m-12.611 637.71-84.506-40.284c-8.3165-3.9644-18.436 2.3361-22.983 6.0803-2.3724 1.9536-7.7221 4.8175-8.4491 8.557-0.31996 1.6459-0.09953 3.7423 2.5331 4.0121 2.6419 0.27069 4.2308-2.6575 5.8046-6.1484 2.8205-6.2559 16.218-12.25 22.205-9.1016l86.381 45.429-0.986-8.5453z" fill-opacity=".98039"/>
   <g id="g2496">
    <path id="path3374" transform="matrix(.46972 0 0 .46972 -68.676 384.17)" d="m118.92 536.65-182.04-85.697c-5.827-2.7432-20.945 0.24738-23.749 2.9686l31.17 5.9372s111.32 55.414 114.29 58.383c2.9686 2.9686 62.2 38.663 62.2 38.663l-0.89584-19.106c-0.02825-0.6024-0.43418-0.89185-0.9798-1.1487z" fill="#fff" fill-opacity=".97834" filter="url(#filter3659)" opacity=".43214"/>
    <path id="path3448" transform="matrix(.46972 0 0 .46972 -68.676 384.17)" d="m714.85 498.02-167.75-78.971c-5.3697-2.5279-19.301 0.22796-21.885 2.7356l28.724 5.4712s102.59 51.065 105.32 53.8c2.7356 2.7356 57.318 35.628 57.318 35.628l-0.82553-17.606c-0.02603-0.55512-0.4001-0.82186-0.9029-1.0586z" fill="#fff" fill-opacity=".97834" filter="url(#filter3671)" opacity=".41429"/>
    <path id="path3450" d="m267.3 619.45-77.873-37.122c-7.6638-3.6533-16.989 2.1528-21.179 5.6031-2.1862 1.8002-7.116 4.4394-7.7859 7.8854-0.29484 1.5167-0.09172 3.4486 2.3343 3.6972 2.4345 0.24944 3.8987-2.4489 5.349-5.6658 2.5991-5.7649 14.945-11.289 20.462-8.3872l79.602 41.864-0.90861-7.8746z" fill-opacity=".98039"/>
    <path id="path3257" d="m45.906 625.12c-9.5388 0.67773-19.66 1.777-31.163 4.9484-7.2688 2.0041-12.424 4.839-15.985 5.8474-4.8079 1.3614-5.7738 0.85743-10.627 1.3716-0.46507 0.04927-0.70458 0.45613-0.70458 0.88285v7.0605c0 0.44709 0.19574 0.78504 0.58715 0.87161 2.7546 0.60933 8.3663 1.3938 8.2788 2.4813-0.93748 11.657 2.4503 25.06 4.8293 31.933 1.7794 5.1403 4.3234 8.1224 9.5852 8.3553 22.099 0.97805 48.218-2.3919 71.295-5.802 7.1481-1.0563 16.376-1.2463 20.389-6.6497 10.113-13.619 11.941-22.279 14.62-32.136 0.73312-2.6977 1.2882-5.1297 2.9357-6.9886 1.6476-1.8589 5.1949-3.0016 7.721-3.1334v0.01468c3.0426-0.36638 5.8294 0.39367 8.1173 2.0809 1.9083 1.4073 2.2026 4.0022 2.9358 6.6039 2.6786 9.5055 4.5071 17.926 14.62 30.22 4.0122 4.8776 13.241 3.8582 20.389 3.9777 23.077 0.38576 49.196 0.33273 71.295-3.5415 5.2618-0.92246 7.8058-4.238 9.5852-9.6115 2.379-7.1843 5.7668-21.031 4.8293-32.566-0.08746-1.0761 5.5242-2.596 8.2788-3.5663 0.39142-0.13786 0.58715-0.50146 0.58715-0.94855v-7.0605c-1e-5 -0.42672-0.23951-0.8022-0.70457-0.79052-4.8536 0.12191-5.8195 0.75243-10.627 0.02117-3.5615-0.54168-8.7164-2.701-15.985-3.7525-13.146-1.9016-24.481-1.3284-35.214-0.59886-34.759 2.3622-53.711 6.6274-60.99 9.868-10.038 3.212-23.639 3.4757-33.834 2.2171-7.2795-2.2866-26.232-4.0681-60.99-1.8749-1.3416 0.08463-2.6886 0.16866-4.0513 0.26547zm-0.24954 4.6842c26.162-1.8388 54.736-0.16019 60.917 2.8926 1.9466 0.9614 3.2164 1.7313 4.022 3.7584 3.5587 8.9544-5.5889 28.247-10.334 35.847-1.2168 1.9491-2.8104 3.6182-4.9614 4.3471-6.8141 2.309-78.559 11.188-85.959 7.5116-1.9441-0.96596-3.2247-1.7369-4.022-3.7584-5.0116-12.706-6.9518-31.151-2.8183-38.743 1.0892-2.0007 1.9585-3.3034 4.022-4.2855 8.6018-4.0939 23.436-6.4665 39.133-7.5698zm164.42-10.774c15.697-0.95392 30.532-0.52544 39.133 2.4411 2.0635 0.71164 2.9327 1.9004 4.022 3.7584 4.1335 7.0507 2.1933 25.749-2.8183 39.113-0.79731 2.126-2.0779 3.0648-4.022 4.2855-7.3992 4.6461-79.145 5.1698-85.959 3.7538-2.151-0.44697-3.7446-1.9072-4.9614-3.6969-4.7449-6.9788-13.892-25.072-10.334-34.493 0.80563-2.1327 2.0754-3.069 4.022-4.2855 6.1811-3.8628 34.755-9.2862 60.917-10.876z" fill-opacity=".98039"/>
    <path id="path3398" transform="matrix(.46972 0 0 .46972 -68.676 384.17)" d="m617.56 490.22c-43.364 1.2246-86.746 4.99-129.38 13.031-13.881 2.1839-27.066 7.3418-40.469 11.344-22.005 4.913-45.173 5.691-67.438 2.25-31.523-7.019-64.273-5.6622-96.406-5-45.744 1.917-92.939 3.83-135 23.406-8.6821 3.8002-18.32 3.822-27.438 4.6875 1.3047 4.4883-2.5832 13.174 1.8125 15.156 0.08045 0.0291 0.16828 0.066 0.25 0.09375-1.3016-3.385 0.98151-9.6586-0.0625-13.25 9.117-0.86551 18.755-0.88734 27.438-4.6875 42.061-19.576 89.256-21.489 135-23.406 32.133-0.66224 64.883-2.019 96.406 5 22.264 3.441 45.433 2.663 67.438-2.25 13.403-4.002 26.588-9.1598 40.469-11.344 42.629-8.0412 86.011-11.807 129.38-13.031 19.143 0.0223 38.534 1.0704 57.031 5.9375 12.433 4.0192 25.427 6.9352 38.531 4.8438 0.12825 0.00681 0.25824 0.04371 0.375 0.0625-0.31485-1.1868-0.99262-1.9891-2.375-2.0625-13.104 2.0915-26.098-0.82455-38.531-4.8438-18.497-4.8671-37.888-5.9152-57.031-5.9375zm66.406 16.688c8.031 9.0463 8.1703 22.883 8.0625 34.5-0.99573 19.837-4.4765 39.982-12.562 58.188-8.3075 11.509-24.116 10.359-36.656 12.375-49.425 4.0305-99.133 4.9728-148.69 3.2812-5.7102 0.3978-11.057-1.6795-15.156-5.3125 4.2663 4.8486 10.464 7.7787 17.156 7.3125 49.554 1.6916 99.262 0.74926 148.69-3.2812 12.54-2.0156 28.349-0.86574 36.656-12.375 8.086-18.206 11.567-38.351 12.562-58.188 0.11613-12.513-0.05185-27.598-10.062-36.5zm-303.19 24.25c2.7646 3.2096 4.4503 7.3242 4.4375 11.781 0.71949 21.747-9.0813 42.21-18.531 61.188-4.5034 8.9381-10.38 19.43-21.469 20.594-48.562 8.3066-97.633 13.679-146.84 16.469-11.471-0.2603-23.938 2.2412-34.75-2.5312-1.2578-0.59271-2.3621-1.3048-3.3438-2.125 1.4113 1.6822 3.1427 3.0878 5.3438 4.125 10.812 4.7725 23.279 2.271 34.75 2.5312 49.211-2.7899 98.282-8.1622 146.84-16.469 11.089-1.1642 16.965-11.656 21.469-20.594 9.4499-18.978 19.251-39.44 18.531-61.188 0.01564-5.4444-2.4995-10.397-6.4375-13.781zm57.688 5c0.96567 1.1613 1.7711 2.4832 2.4062 3.9688 5.9641 21.545 11.404 43.721 25.125 61.938 2.7593 3.9537 5.6292 8.2809 9.1875 11.625-2.6759-2.9672-4.9567-6.4285-7.1875-9.625-13.721-18.216-19.161-40.392-25.125-61.938-1.0357-2.4222-2.5513-4.391-4.4062-5.9688zm-298.5 24.781c0.08912 0.12794 0.19838 0.2389 0.28125 0.375-1.2718 24.987 3.3138 50.218 12.5 73.375 1.055 2.7789 2.719 5.0073 4.7812 6.7188-1.1472-1.3495-2.0941-2.9087-2.7812-4.7188-9.1862-23.157-13.772-48.388-12.5-73.375-0.6082-0.99885-1.3797-1.763-2.2812-2.375z" fill="#fff" filter="url(#filter3647)"/>
    <path id="path2197" d="m149.15 630.05c9.8898-6.2132 77.107-16.532 100.04-8.6497 2.0635 0.70909 2.9369 1.9026 4.0262 3.7624 4.1334 7.0576 2.1933 25.794-2.8183 39.196-0.79732 2.1321-2.082 3.0799-4.0262 4.3071-7.3992 4.6706-79.139 5.3363-85.953 3.9308-2.151-0.44369-3.7488-1.9078-4.9656-3.6989-4.7449-6.9843-13.892-25.092-10.334-34.54 0.80562-2.1389 2.0796-3.0841 4.0262-4.3071z" fill="#f3efe6" fill-opacity=".068592" stroke="#e5fff4" stroke-linecap="round" stroke-linejoin="round" stroke-width=".23511"/>
    <path id="path2793" d="m251.18 622.53c0.57694 0.59882 1.0491 1.3305 1.5706 2.2147 4.1334 7.0078 2.1933 25.712-2.8183 39.127-0.79733 2.1343-2.0779 3.101-4.022 4.342-7.3992 4.7229-79.145 5.9914-85.959 4.6462-1.2222-0.24128-2.2593-0.8207-3.1559-1.5953 0.99471 0.9904 2.1882 1.7309 3.6256 2.0147 6.8141 1.3452 78.559 0.07665 85.959-4.6462 1.9441-1.2409 3.2247-2.193 4.022-4.3273 5.0116-13.415 6.9518-32.134 2.8183-39.142-0.65565-1.1116-1.2345-1.966-2.0404-2.6341z" fill="#fff" fill-opacity=".48014"/>
    <path id="path3428" d="m106.67 632.82c-9.8898-4.8994-77.107-6.2891-100.04 4.6405-2.0635 0.9832-2.9369 2.2928-4.0262 4.2973-4.1334 7.6066-2.1933 26.085 2.8183 38.821 0.79732 2.0262 2.082 2.8033 4.0262 3.7722 7.3992 3.6876 79.139-5.1767 85.953-7.4875 2.151-0.72943 3.7488-2.4058 4.9656-4.3585 4.7449-7.6146 13.892-26.938 10.334-35.913-0.80562-2.0318-2.0796-2.8079-4.0262-3.7722z" fill="#f3efe6" fill-opacity=".068592" stroke="#fff" stroke-linecap="round" stroke-linejoin="round" stroke-width=".23511"/>
    <path id="path3439" d="m109.85 635.08c0.13819 0.24757 0.26404 0.51072 0.38164 0.80733 3.5587 8.9752-5.589 28.304-10.334 35.919-1.2168 1.9527-2.8104 3.6155-4.9614 4.3449-6.8141 2.3107-78.559 11.188-85.959 7.5008-1.3746-0.68507-2.4092-1.2873-3.1853-2.2899 0.80595 1.4654 1.9834 2.1614 3.655 2.9944 7.3992 3.6876 79.145-5.1901 85.959-7.5008 2.151-0.72944 3.7446-2.3922 4.9614-4.3449 4.7449-7.6146 13.892-26.944 10.334-35.919-0.24018-0.60576-0.52251-1.0911-0.85136-1.5119z" fill="#fff" fill-opacity=".47843"/>
    <path id="path3737" transform="matrix(.46972 0 0 .46972 -68.676 384.17)" d="m378.84 541.94c-12.612 0.68942-11.689 15.08-14.719 25.625-5.8096 13.401-20.6 27.366-32.906 34.625-24.506 12.49-57.689 13.958-84.459 15.259-26.325 2.6132-50.953 4.7202-73.385 18.897 24.23 2.0477 48.509-1.5748 72.656-3.3125 34.283-3.4864 68.708-6.6908 102.41-13.906 10.16-5.2463 12.945-17.538 18.269-26.809 6.8613-15.805 14.726-33.044 12.137-50.378z" fill="#ababae" fill-opacity=".22383" filter="url(#filter3928)"/>
    <path id="path3779" transform="matrix(.46972 0 0 .46972 -68.676 384.17)" d="m684.28 521.59c-5.9063 5.2508-3.6392 14.528-7.375 21.062-4.34 9.0579-6.8925 18.802-10.344 28.125-8.9108 16.769-29.595 22.281-47.361 22.798-21.965 1.9779-44.052 3.5129-65.982 4.9519-16.339 1.904-32.06 6.6235-47.438 12.188 51.443 0.82836 103.26 0.21445 154.28-6.1562 7.6195-1.0159 15.479-5.3782 16.844-13.625 7.1985-20.95 10.886-43.782 8.375-65.906-0.24494-1.1575-0.50106-2.46-1-3.4375z" fill="#ababae" fill-opacity=".22383" filter="url(#filter3892)"/>
   </g>
  </g>
 </g>
 <g id="layer4" transform="translate(128.66 -580.53)" display="none">
  <path id="rect2176" d="m184.46 211.99c21.055-11.778 164.16-24.042 212.99-4 4.393 1.8029 6.2525 4.464 8.5714 8.5714 8.7998 15.587 4.6693 55.112-6 82.862-1.6974 4.415-4.4326 6.2438-8.5714 8.5714-15.752 8.859-168.48-0.03496-182.99-4-4.5794-1.2516-7.981-4.5917-10.571-8.5714-10.102-15.519-29.576-55.302-22-74.862 1.7151-4.428 4.4272-6.2531 8.5714-8.5714z" display="inline" fill="#4a0" fill-rule="evenodd"/>
  <path id="path3088" d="m564.28 190.96c-73.998 0.17989-114.35 6.6164-129.84 12.5-14.272 5.4182-21.146 2.5938-36.438 2.4688v15.719c5.3911-0.31655 13.682 1.7371 17.281 5.5625 3.5996 3.8254 4.6982 8.8144 6.2589 14.455 5.7026 20.61 9.5818 38.818 31.112 66.402 8.5418 10.944 28.193 10.048 43.411 11.299 49.129 4.0406 104.74 7.558 151.79 2.3929 11.202-1.2298 16.622-7.9156 20.411-19.107 5.0648-14.963 12.264-45.974 10.268-70.661-0.1862-2.3031 11.774-4.7426 17.638-6.4241 0.83328-0.23892 1.25-1.0069 1.25-1.9587l1e-5 -13.03c0-0.90847-0.52776-1.7345-1.5179-1.7746-10.333-0.41756-12.389 0.80342-22.625-1.4241-7.5821-1.6501-18.561-6.9796-34.036-10.232-27.986-5.8824-52.11-6.2433-74.96-6.1875zm9.1562 9.9375c33.418 0.15901 65 3.1407 83.312 10.656 4.393 1.8029 6.2436 4.455 8.5625 8.5625 8.7998 15.587 4.6693 55.125-6 82.875-1.6974 4.415-4.4236 6.2348-8.5625 8.5625-15.752 8.859-168.49-0.03496-183-4-4.5794-1.2516-7.9721-4.5827-10.562-8.5625-10.102-15.519-29.576-55.315-22-74.875 1.7151-4.428 4.4183-6.2442 8.5625-8.5625 13.159-7.3614 73.991-14.921 129.69-14.656z" display="inline" fill-rule="evenodd"/>
  <path id="path2201" d="m223.94 319.53c-20.308 0.11212-41.856 1.0404-66.344 6.1875-15.475 3.2526-26.449 8.5687-34.031 10.219-10.236 2.2275-12.292 1.0199-22.625 1.4375-0.9901 0.04001-1.5 0.87279-1.5 1.7812v13.031c0 0.95183 0.41672 1.6986 1.25 1.9375 5.8644 1.6815 17.811 4.1344 17.625 6.4375-1.9958 24.687 5.2165 55.693 10.281 70.656 3.7882 11.192 9.2043 17.895 20.406 19.125 47.047 5.1651 102.65 1.6343 151.78-2.4062 15.218-1.2516 34.864-0.36875 43.406-11.312 21.53-27.584 25.422-45.765 31.125-66.375 1.5608-5.641 2.7425-10.741 6.25-14.469s11.06-5.6655 16.438-5.5938v0.03125c6.4775-0.35555 12.41 1.6513 17.281 5.5625 4.0627 3.2623 4.6892 8.8277 6.25 14.469 5.7025 20.61 9.5952 38.791 31.125 66.375 8.5418 10.944 28.188 10.061 43.406 11.312 49.129 4.0406 104.73 7.5714 151.78 2.4062 11.202-1.2298 16.618-7.9335 20.406-19.125 5.0648-14.963 12.277-45.97 10.281-70.656-0.1862-2.3031 11.761-4.756 17.625-6.4375 0.8333-0.2389 1.25-0.98567 1.25-1.9375v-13.031c-3e-5 -0.90846-0.5099-1.7412-1.5-1.7812-10.333-0.41756-12.389 0.79002-22.625-1.4375-7.5821-1.6501-18.557-6.9662-34.031-10.219-27.986-5.8824-52.119-6.2433-74.969-6.1875-73.998 0.17989-114.35 6.6164-129.84 12.5-21.37 5.4377-50.326 4.1017-72.031 0-15.498-5.8836-55.845-12.32-129.84-12.5-2.8562-0.00698-5.7239-0.01602-8.625 0zm-0.53125 9.9375c55.697-0.26501 116.53 7.2948 129.69 14.656 4.1442 2.3183 6.8474 4.1345 8.5625 8.5625 7.5762 19.56-11.898 59.356-22 74.875-2.5904 3.9798-5.9831 7.3109-10.562 8.5625-14.507 3.965-167.25 12.859-183 4-4.1389-2.3277-6.8651-4.1476-8.5625-8.5625-10.669-27.75-14.8-67.288-6-82.875 2.3189-4.1075 4.1695-6.7596 8.5625-8.5625 18.313-7.5156 49.894-10.497 83.312-10.656zm350.03 0c33.418 0.15901 65 3.1407 83.312 10.656 4.393 1.8029 6.2436 4.455 8.5625 8.5625 8.7998 15.587 4.6693 55.125-6 82.875-1.6974 4.415-4.4236 6.2348-8.5625 8.5625-15.752 8.859-168.49-0.03496-183-4-4.5794-1.2516-7.9721-4.5827-10.562-8.5625-10.102-15.519-29.576-55.315-22-74.875 1.7151-4.428 4.4183-6.2442 8.5625-8.5625 13.159-7.3614 73.991-14.921 129.69-14.656z" display="inline" fill-rule="evenodd"/>
  <path id="path3165" d="m131.94 621.35v-149.95l563.58 15.19v110.35l-563.58 24.409z" display="inline" fill="none" stroke="#000" stroke-width=".24316pt"/>
 </g>
</svg>
