<?xml version="1.0" encoding="UTF-8"?>
<!-- Created with Inkscape (http://www.inkscape.org/) -->
<svg id="svg2" width="231.9" height="348.66" version="1.2" xmlns="http://www.w3.org/2000/svg">
 <g id="layer1" transform="translate(-97.647 -679.64)">
  <path id="path4878" d="m158.75 680.58 104.39 1.9159c-2.2111 109.2 42.515 218.41 65.465 327.61l-76.081 15.327c-9.1574-96.814-21.1-194.16-39.493-252.97-21.809 64.706-24.839 170.06-34.818 254.89l-79.619-17.243c20.228-109.75 57.443-210.3 60.157-329.53z" fill="#fff" stroke="#7f7f7f" stroke-width="1.8902px"/>
  <path id="path4910" d="m169.04 692.08v15.256" fill="none" stroke="#615f5f" stroke-width="1.0577px"/>
  <path id="path4906" d="m238.92 692.35c5.5876 9.6584 14.315 15.131 24.432 18.75" fill="none" stroke="#000" stroke-width="1px"/>
  <path id="path4908" d="m186.31 691.75c-5.9119 8.8608-14.993 17.123-28.441 18.447" fill="none" stroke="#000" stroke-width="1px"/>
  <path id="path4893" d="m159.21 691.47 103.31 0.68874" fill="none" stroke="#000" stroke-width="1px"/>
  <path id="path4880" d="m201.94 681.55v50.719h12.497l-0.69427-50.473-11.803-0.24621z" fill="#fff" fill-rule="evenodd" stroke="#7b7b7e"/>
  <path id="path4882" transform="matrix(1.3264 0 0 1.4363 48.953 312.88)" d="m122.42 259.85a1.9188 1.7269 0 1 1-3.8376 0 1.9188 1.7269 0 1 1 3.8376 0z" fill="none" stroke="#000" stroke-dashoffset="0pt" stroke-opacity=".51948" stroke-width=".52904"/>
  <path id="path4898" d="m227.28 682.02v9.8412h3.335l-0.18527-9.6944-3.1497-0.14682z" fill="#fff" fill-rule="evenodd" stroke="#7b7b7e" stroke-width=".42979px"/>
  <path id="path4900" d="m243.64 682.02v9.9522h3.335l-0.18527-9.8054-3.1497-0.14682z" fill="#fff" fill-rule="evenodd" stroke="#7b7b7e" stroke-width=".42979px"/>
  <path id="path4902" d="m183.37 681.35v10.063h3.335l-0.18527-9.9164-3.1497-0.14683z" fill="#fff" fill-rule="evenodd" stroke="#7b7b7e" stroke-width=".42979px"/>
  <path id="path4904" d="m167.64 681.02-0.11099 10.396h3.335l-0.0743-10.249-3.1497-0.14683z" fill="#fff" fill-rule="evenodd" stroke="#7b7b7e" stroke-width=".42979px"/>
  <path id="path4889" d="m102.31 997.85 77.139 17.218" fill="none" stroke="#000" stroke-dasharray="1, 6" stroke-dashoffset="0pt"/>
  <path id="path4891" d="m252.8 1014.4 75.073-15.152" fill="none" stroke="#000" stroke-dasharray="1, 6" stroke-dashoffset="0pt"/>
 </g>
</svg>
