<?xml version="1.0" encoding="UTF-8"?>
<!-- Created with Inkscape (http://www.inkscape.org/) -->
<svg id="svg2" width="471.88" height="344.91" version="1.0" xmlns="http://www.w3.org/2000/svg" xmlns:cc="http://creativecommons.org/ns#" xmlns:dc="http://purl.org/dc/elements/1.1/" xmlns:rdf="http://www.w3.org/1999/02/22-rdf-syntax-ns#" xmlns:xlink="http://www.w3.org/1999/xlink">
 <metadata id="metadata164">
  <rdf:RDF>
   <cc:Work rdf:about="">
    <dc:format>image/svg+xml</dc:format>
    <dc:type rdf:resource="http://purl.org/dc/dcmitype/StillImage"/>
   </cc:Work>
  </rdf:RDF>
 </metadata>
 <defs id="defs4">
  <linearGradient id="linearGradient3653">
   <stop id="stop3655" stop-color="#5d3715" stop-opacity=".011765" offset="0"/>
   <stop id="stop3681" stop-color="#5a3715" stop-opacity=".40392" offset=".076059"/>
   <stop id="stop3657" stop-color="#573715" stop-opacity=".8" offset=".15212"/>
   <stop id="stop3659" stop-color="#ffc554" offset=".38886"/>
   <stop id="stop3661" stop-color="#592400" stop-opacity=".84902" offset=".49516"/>
   <stop id="stop3663" stop-color="#c78240" stop-opacity=".83529" offset=".56634"/>
   <stop id="stop3667" stop-color="#624117" stop-opacity=".68824" offset=".88123"/>
   <stop id="stop3669" stop-color="#6a481c" stop-opacity=".098039" offset="1"/>
  </linearGradient>
  <linearGradient id="linearGradient3435">
   <stop id="stop3437" stop-color="#692908" offset="0"/>
   <stop id="stop3439" stop-color="#8d370b" stop-opacity="0" offset="1"/>
  </linearGradient>
  <filter id="filter3307" color-interpolation-filters="sRGB">
   <feGaussianBlur id="feGaussianBlur3309" stdDeviation="0.68095704"/>
  </filter>
  <filter id="filter3315" color-interpolation-filters="sRGB">
   <feGaussianBlur id="feGaussianBlur3317" stdDeviation="1.3634141"/>
  </filter>
  <filter id="filter3423" color-interpolation-filters="sRGB">
   <feGaussianBlur id="feGaussianBlur3425" stdDeviation="1.5296002"/>
  </filter>
  <filter id="filter3453" color-interpolation-filters="sRGB">
   <feGaussianBlur id="feGaussianBlur3455" stdDeviation="0.22172434"/>
  </filter>
  <filter id="filter3539" color-interpolation-filters="sRGB">
   <feGaussianBlur id="feGaussianBlur3541" stdDeviation="0.09937956"/>
  </filter>
  <filter id="filter3880" color-interpolation-filters="sRGB">
   <feGaussianBlur id="feGaussianBlur3882" stdDeviation="5.6399396"/>
  </filter>
  <linearGradient id="linearGradient3037" x1="534.93" x2="549.87" y1="212.37" y2="232.93" gradientUnits="userSpaceOnUse">
   <stop id="stop3523" stop-color="#d65858" offset="0"/>
   <stop id="stop3529" stop-color="#f28989" offset=".5"/>
   <stop id="stop3525" stop-color="#d65858" offset="1"/>
  </linearGradient>
  <linearGradient id="linearGradient3039" x1="377.44" x2="350.23" y1="365.95" y2="325.49" gradientUnits="userSpaceOnUse">
   <stop id="stop3245" stop-color="#e0a136" offset="0"/>
   <stop id="stop3247" stop-color="#c58a26" offset="1"/>
  </linearGradient>
  <linearGradient id="linearGradient3041" x1="216.79" x2="193.77" y1="509.35" y2="475.14" gradientTransform="translate(-17.949 -32.52)" gradientUnits="userSpaceOnUse">
   <stop id="stop3331" stop-color="#da9677" offset="0"/>
   <stop id="stop3333" stop-color="#af6746" offset="1"/>
  </linearGradient>
  <linearGradient id="linearGradient3043" x1="181.41" x2="177.15" y1="461.46" y2="456.87" gradientTransform="translate(.42258 -.3935)" gradientUnits="userSpaceOnUse" xlink:href="#linearGradient3435"/>
  <linearGradient id="linearGradient3045" x1="182.03" x2="179.79" y1="460.84" y2="458.62" gradientTransform="translate(12.371 12.766)" gradientUnits="userSpaceOnUse" xlink:href="#linearGradient3435"/>
  <linearGradient id="linearGradient3047" x1="128.73" x2="134.92" y1="498.61" y2="506.55" gradientUnits="userSpaceOnUse">
   <stop id="stop3478" stop-color="#282828" offset="0"/>
   <stop id="stop3486" stop-color="#252525" offset=".29185"/>
   <stop id="stop3484" stop-color="#595959" offset=".43837"/>
   <stop id="stop3488" stop-color="#272727" offset=".57965"/>
   <stop id="stop3480" stop-color="#282828" offset="1"/>
  </linearGradient>
  <linearGradient id="linearGradient3049" x1="183.45" x2="176.66" y1="490.7" y2="478.04" gradientUnits="userSpaceOnUse">
   <stop id="stop3494" stop-color="#282828" stop-opacity=".66234" offset="0"/>
   <stop id="stop3496" stop-color="#282828" stop-opacity="0" offset="1"/>
  </linearGradient>
  <linearGradient id="linearGradient3051" x1="524.95" x2="545.97" y1="263.84" y2="294.26" gradientTransform="translate(-17.734 -38.854)" gradientUnits="userSpaceOnUse">
   <stop id="stop3580" stop-color="#5d3715" offset="0"/>
   <stop id="stop3582" stop-color="#573715" offset=".21831"/>
   <stop id="stop3584" stop-color="#fff630" offset=".42339"/>
   <stop id="stop3586" stop-color="#fff72c" offset=".55036"/>
   <stop id="stop3588" stop-color="#5a3b13" offset=".67403"/>
   <stop id="stop3590" stop-color="#6a481c" offset="1"/>
  </linearGradient>
  <linearGradient id="linearGradient3053" x1="524.95" x2="545.97" y1="263.84" y2="294.26" gradientTransform="translate(-17.734 -38.854)" gradientUnits="userSpaceOnUse">
   <stop id="stop3594" stop-color="#efa75a" offset="0"/>
   <stop id="stop3596" stop-color="#f5a753" stop-opacity=".76863" offset=".13174"/>
   <stop id="stop3598" stop-color="#fff630" stop-opacity="0" offset=".52001"/>
   <stop id="stop3600" stop-color="#fff72c" stop-opacity="0" offset=".65802"/>
   <stop id="stop3602" stop-color="#e9a54d" stop-opacity=".67647" offset=".82287"/>
   <stop id="stop3604" stop-color="#f7ac4b" offset="1"/>
  </linearGradient>
  <linearGradient id="linearGradient3055" x1="488.67" x2="506.13" y1="242.12" y2="267.37" gradientTransform="translate(-.40202 -1.206)" gradientUnits="userSpaceOnUse" xlink:href="#linearGradient3653"/>
  <linearGradient id="linearGradient3057" x1="488.67" x2="506.13" y1="242.12" y2="267.37" gradientTransform="translate(-3.719 1.449)" gradientUnits="userSpaceOnUse" xlink:href="#linearGradient3653"/>
  <linearGradient id="linearGradient3059" x1="488.67" x2="506.13" y1="242.12" y2="267.37" gradientTransform="translate(6.221 -6.0696)" gradientUnits="userSpaceOnUse" xlink:href="#linearGradient3653"/>
  <linearGradient id="linearGradient3061" x1="488.67" x2="506.13" y1="242.12" y2="267.37" gradientTransform="translate(2.9041 -3.4145)" gradientUnits="userSpaceOnUse" xlink:href="#linearGradient3653"/>
  <linearGradient id="linearGradient3063" x1="488.67" x2="506.13" y1="242.12" y2="267.37" gradientTransform="translate(21.965 -15.537)" gradientUnits="userSpaceOnUse" xlink:href="#linearGradient3653"/>
  <linearGradient id="linearGradient3065" x1="488.67" x2="506.13" y1="242.12" y2="267.37" gradientTransform="translate(9.4821 -8.2994)" gradientUnits="userSpaceOnUse" xlink:href="#linearGradient3653"/>
  <linearGradient id="linearGradient3067" x1="488.67" x2="506.13" y1="242.12" y2="267.37" gradientTransform="translate(28.588 -20.401)" gradientUnits="userSpaceOnUse" xlink:href="#linearGradient3653"/>
  <linearGradient id="linearGradient3069" x1="488.67" x2="506.13" y1="242.12" y2="267.37" gradientTransform="translate(25.271 -17.746)" gradientUnits="userSpaceOnUse" xlink:href="#linearGradient3653"/>
  <linearGradient id="linearGradient3071" x1="488.67" x2="506.13" y1="242.12" y2="267.37" gradientTransform="translate(31.658 -22.833)" gradientUnits="userSpaceOnUse" xlink:href="#linearGradient3653"/>
 </defs>
 <g id="layer1" transform="translate(-102.91 -200.28)" display="none">
  <image id="image2466" x="82.483" y="174.37" width="505.18" height="372.62" xlink:href="pencil1.png"/>
 </g>
 <g id="g3002" transform="translate(.88757 1.9785)">
  <g id="layer7" transform="translate(-103.8 -202.26)" fill-rule="evenodd" stroke="#000" stroke-width="5.6">
   <path id="path3870" d="m541.71 216.62c-0.28801 7e-3 -0.56778 0.0525-0.84375 0.0937l-10.594 5.6562c-0.48718 0.0327-0.9724 0.0726-1.4688 0.15625l-46.924 29.442c-0.75935 0.34574-1.3008 1.4984-1.8571 2.0583l-282.44 191.06-1.5 1-75.369 76.772c-1.1819 1.5347-3.0426 5.7605 1 6l93.994-49.428 1.1562-0.8125 5.1875-3.7188c0.0136-0.0312 0.0179-0.0627 0.0312-0.0937l0.75-0.53125c7e-3 -0.0216 0.0247-0.0409 0.0312-0.0625l114.85-76.929 162.44-111.8 1.161-0.6071 46.738-34.457 0.43757-1.3039 6.7188-5.5312c9.6887-11.316-4.5717-27.19-13.5-26.969z" filter="url(#filter3880)" opacity=".27931"/>
   <path id="path3762" d="m537.43 209c-0.28801 7e-3 -0.56778 0.0525-0.84375 0.0937l-10.594 5.6562c-0.48718 0.0327-0.9724 0.0726-1.4688 0.15625l-46.924 29.442c-0.75935 0.34574-1.3008 1.4984-1.8571 2.0583l-282.44 191.06-1.5 1-51.812 51.219c-0.11889-0.0251-0.21991-0.0746-0.34375-0.0937l-20.5 18.188c-1.1819 1.5347-1.6864 6.4386 1 6l24.188-11.938 40.688-18.406 26.406-11.625 1.1562-0.8125 5.1875-3.7188c0.0136-0.0312 0.0179-0.0627 0.0312-0.0937l0.75-0.53125c7e-3 -0.0216 0.0247-0.0409 0.0312-0.0625l114.85-76.929 162.44-111.8 1.161-0.6071 46.738-34.457 0.43757-1.3039 6.7188-5.5312c9.6887-11.316-4.5717-27.19-13.5-26.969z" opacity=".96"/>
   <path id="path3868" d="m536.32 208.27c-0.28801 7e-3 -0.56778 0.0525-0.84375 0.0937l-10.594 5.6562c-0.48718 0.0327-0.9724 0.0726-1.4688 0.15625l-46.924 29.442c-0.75935 0.34574-1.3008 1.4984-1.8571 2.0583l-282.44 191.06-1.5 1-51.812 51.219c-0.11889-0.0251-0.21991-0.0746-0.34375-0.0937l-20.5 18.188c-1.1819 1.5347-1.6864 6.4386 1 6l24.188-11.938 40.688-18.406 26.406-11.625 1.1562-0.8125 5.1875-3.7188c0.0136-0.0312 0.0179-0.0627 0.0312-0.0937l0.75-0.53125c7e-3 -0.0216 0.0247-0.0409 0.0312-0.0625l114.85-76.929 162.44-111.8 1.161-0.6071 46.738-34.457 0.43757-1.3039 6.7188-5.5312c9.6887-11.316-4.5717-27.19-13.5-26.969z" opacity=".96"/>
  </g>
  <g id="layer4" transform="translate(-103.8 -202.26)">
   <path id="path3519" d="m524.38 215.65 12.136-6.4894c8.831-1.3211 24.328 15.203 14.327 26.885l-9.1863 7.585-8.0064-20.48-9.2706-7.5007z" fill="url(#linearGradient3037)" fill-rule="evenodd" filter="url(#filter3539)" stroke="#8e5252" stroke-width="1px"/>
  </g>
  <g id="g2974">
   <g id="layer2" transform="translate(-103.8 -202.26)" opacity=".96">
    <path id="path2471" d="m484.4 240.59-291.17 196.95-15.969 33.536 40.988-4.2585 290.64-198.02 4.2585-30.342-28.745 2.1292z" fill="url(#linearGradient3039)" fill-rule="evenodd"/>
    <path id="path3251" d="m189.5 460.97 320.45-217.71" fill="none" filter="url(#filter3315)" stroke="#fcca7d" stroke-width="3.6"/>
    <path id="path3277" d="m215.48 468.15 280.44-191.63" fill="none" filter="url(#filter3307)" opacity=".96" stroke="#b99359" stroke-width="2.8"/>
   </g>
   <g id="layer3" transform="translate(-103.8 -202.26)">
    <g id="g3509" fill-rule="evenodd">
     <g id="g3427" transform="translate(-.028161 .038455)">
      <path id="path3327" d="m196.44 435.39-4.6832 3.1205-58.296 57.644 4.6456 8.0243 73.275-32.308 7.1234-5.1712c1.635-5.2156-2.0233-10.935-6.2787-10.877 5.9185-9.8042-1.5838-12.204-11.825-13.092 1.1346-2.8972-1.2398-4.9928-3.9605-7.3392z" fill="url(#linearGradient3041)"/>
      <path id="path3337" d="m213.07 446.95-51.947 39.488 55.959-25.973-6.7573-5.068 2.7452-8.4466z" fill="#fff" filter="url(#filter3423)" opacity=".1461"/>
     </g>
     <path id="path3433" d="m203.35 441.49c-40.338 31.427-52.012 46.843-47.88 48.397l-0.12016-2.2354c7.7809-18.751 23.072-37.564 43.988-49.54 0.6656 2.0219 1.4899 3.8323 4.0122 3.3787z" fill="url(#linearGradient3043)" filter="url(#filter3453)" opacity=".34416"/>
     <path id="path3457" d="m215.3 454.65c-12.896 11.307-26.573 23.127-26.685 26.045l-17.714 7.3896 40.387-36.813c0.6656 2.0219 1.4899 3.8323 4.0122 3.3787z" fill="url(#linearGradient3045)" filter="url(#filter3453)" opacity=".47403"/>
     <path id="path3474" d="m139.57 489.69-20.495 18.186c-1.1819 1.5347-1.6761 6.4284 1.0103 5.9898l25.33-12.485c0.23879-3.8608-0.2813-10.831-5.8454-11.691z" fill="url(#linearGradient3047)"/>
     <path id="path3490" d="m119.33 513.21 93.179-42.128 5.1881-3.7355c2.8736-6.6004-0.21424-10.816-5.6032-14.112l-92.764 59.975z" fill="url(#linearGradient3049)"/>
    </g>
   </g>
   <g id="layer5" transform="translate(-103.8 -202.26)" fill-rule="evenodd">
    <path id="path3546" d="m475.55 246.63c3.6146-3.8405 12.188-3.5125 20.92 8.3065 8.8056 11.918 1.968 20.797-1.0768 22.458l47.993-34.303c6.4206-10.595-4.8146-30.276-19.347-27.827l-48.489 31.365z" fill="url(#linearGradient3051)"/>
    <path id="path3574" d="m475.55 246.63c3.6146-3.8405 12.188-3.5125 20.92 8.3065 8.8056 11.918 1.968 20.797-1.0768 22.458l47.993-34.303c6.4206-10.595-4.4125-30.544-18.945-28.095l-48.892 31.633z" fill="url(#linearGradient3053)" stroke="#824a14" stroke-width="1px"/>
   </g>
   <g id="layer6" transform="translate(-103.8 -202.26)" fill-rule="evenodd">
    <path id="path3621" d="m485.47 240.61c3.1812-2.055 8.8695-0.0457 11.096 1.0452 2.2261 1.091 4.8611 3.7044 6.191 5.2262s5.1376 7.5305 5.9498 9.2464c1.4164 4.6846 0.97415 9.0264-2.2513 12.864 0 0-0.0551-3.6664 0.40201-5.1458 0.57504-1.8612 0.87832-4.1496 0.80404-6.4322-0.0781-2.4012-3.8625-8.3551-5.2262-9.97s-5.145-4.2683-7.7991-5.0654-5.7086-0.64323-5.7086-0.64323l-3.4573-1.1256z" fill="url(#linearGradient3055)"/>
    <path id="path3683" d="m482.16 243.27c3.1812-2.055 8.8695-0.0457 11.096 1.0452 2.2261 1.091 4.8611 3.7044 6.191 5.2262s5.1376 7.5305 5.9498 9.2464c1.4164 4.6846 0.97415 9.0264-2.2513 12.864 0 0-0.0551-3.6664 0.40201-5.1458 0.57504-1.8612 0.87832-4.1496 0.80404-6.4322-0.0781-2.4012-3.8625-8.3551-5.2262-9.97s-5.145-4.2683-7.7991-5.0654-5.7086-0.64323-5.7086-0.64323l-3.4573-1.1256z" fill="url(#linearGradient3057)"/>
    <path id="path3687" d="m492.1 235.75c3.1812-2.055 8.8695-0.0457 11.096 1.0452 2.2261 1.091 4.8611 3.7044 6.191 5.2262s5.1376 7.5305 5.9498 9.2464c1.4164 4.6846 0.97415 9.0264-2.2513 12.864 0 0-0.0551-3.6664 0.40201-5.1458 0.57504-1.8612 0.87832-4.1496 0.80404-6.4322-0.0781-2.4012-3.8625-8.3551-5.2262-9.97s-5.145-4.2683-7.7991-5.0654-5.7086-0.64323-5.7086-0.64323l-3.4573-1.1256z" fill="url(#linearGradient3059)"/>
    <path id="path3689" d="m488.78 238.4c3.1812-2.055 8.8695-0.0457 11.096 1.0452 2.2261 1.091 4.8611 3.7044 6.191 5.2262s5.1376 7.5305 5.9498 9.2464c1.4164 4.6846 0.97415 9.0264-2.2513 12.864 0 0-0.0551-3.6664 0.40201-5.1458 0.57504-1.8612 0.87832-4.1496 0.80404-6.4322-0.0781-2.4012-3.8625-8.3551-5.2262-9.97s-5.145-4.2683-7.7991-5.0654-5.7086-0.64323-5.7086-0.64323l-3.4573-1.1256z" fill="url(#linearGradient3061)"/>
    <path id="path3695" d="m507.84 226.28c3.1812-2.055 8.8695-0.0457 11.096 1.0452 2.2261 1.091 4.8611 3.7044 6.191 5.2262s5.1376 7.5305 5.9498 9.2464c1.4164 4.6846 0.97415 9.0264-2.2513 12.864 0 0-0.0551-3.6664 0.40201-5.1458 0.57504-1.8612 0.87832-4.1496 0.80404-6.4322-0.0781-2.4012-3.8625-8.3551-5.2262-9.97s-5.145-4.2683-7.7991-5.0654-5.7086-0.64323-5.7086-0.64323l-3.4573-1.1256z" fill="url(#linearGradient3063)"/>
    <path id="path3697" d="m495.36 233.52c3.1812-2.055 8.8695-0.0457 11.096 1.0452 2.2261 1.091 4.8611 3.7044 6.191 5.2262s5.1376 7.5305 5.9498 9.2464c1.4164 4.6846 0.97415 9.0264-2.2513 12.864 0 0-0.0551-3.6664 0.40201-5.1458 0.57504-1.8612 0.87832-4.1496 0.80404-6.4322-0.0781-2.4012-3.8625-8.3551-5.2262-9.97s-5.145-4.2683-7.7991-5.0654-5.7086-0.64323-5.7086-0.64323l-3.4573-1.1256z" fill="url(#linearGradient3065)"/>
    <path id="path3699" d="m514.46 221.42c3.1812-2.055 8.8695-0.0457 11.096 1.0452 2.2261 1.091 4.8611 3.7044 6.191 5.2262s5.1376 7.5305 5.9498 9.2464c1.4164 4.6846 0.97415 9.0264-2.2513 12.864 0 0-0.0551-3.6664 0.40201-5.1458 0.57504-1.8612 0.87832-4.1496 0.80404-6.4322-0.0781-2.4012-3.8625-8.3551-5.2262-9.97s-5.145-4.2683-7.7991-5.0654-5.7086-0.64323-5.7086-0.64323l-3.4573-1.1256z" fill="url(#linearGradient3067)"/>
    <path id="path3701" d="m511.15 224.07c3.1812-2.055 8.8695-0.0457 11.096 1.0452 2.2261 1.091 4.8611 3.7044 6.191 5.2262s5.1376 7.5305 5.9498 9.2464c1.4164 4.6846 0.97415 9.0264-2.2513 12.864 0 0-0.0551-3.6664 0.40201-5.1458 0.57504-1.8612 0.87832-4.1496 0.80404-6.4322-0.0781-2.4012-3.8625-8.3551-5.2262-9.97s-5.145-4.2683-7.7991-5.0654-5.7086-0.64323-5.7086-0.64323l-3.4573-1.1256z" fill="url(#linearGradient3069)"/>
    <path id="path3711" d="m517.53 218.99c3.1812-2.055 8.8695-0.0457 11.096 1.0452 2.2261 1.091 4.8611 3.7044 6.191 5.2262s5.1376 7.5305 5.9498 9.2464c1.4164 4.6846 0.97415 9.0264-2.2513 12.864 0 0-0.0551-3.6664 0.40201-5.1458 0.57504-1.8612 0.87832-4.1496 0.80404-6.4322-0.0781-2.4012-3.8625-8.3551-5.2262-9.97s-5.145-4.2683-7.7991-5.0654-5.7086-0.64323-5.7086-0.64323l-3.4573-1.1256z" fill="url(#linearGradient3071)"/>
   </g>
  </g>
 </g>
</svg>
