<?xml version="1.0" encoding="UTF-8"?>
<!-- Created with Inkscape (http://www.inkscape.org/) -->
<svg id="svg2" width="357.38" height="487.04" version="1.0" xmlns="http://www.w3.org/2000/svg" xmlns:cc="http://creativecommons.org/ns#" xmlns:dc="http://purl.org/dc/elements/1.1/" xmlns:rdf="http://www.w3.org/1999/02/22-rdf-syntax-ns#" xmlns:xlink="http://www.w3.org/1999/xlink">
 <defs id="defs4">
  <linearGradient id="linearGradient4850">
   <stop id="stop4852" stop-color="#fff" offset="0"/>
   <stop id="stop4854" stop-color="#fff" stop-opacity="0" offset="1"/>
  </linearGradient>
  <linearGradient id="linearGradient4800">
   <stop id="stop4802" stop-color="#383838" offset="0"/>
   <stop id="stop4804" stop-color="#3b3b3b" offset=".057547"/>
   <stop id="stop4806" stop-color="#626463" offset=".079782"/>
   <stop id="stop4808" stop-color="#bfbfbf" offset=".1236"/>
   <stop id="stop4810" stop-color="#808080" offset=".18899"/>
   <stop id="stop4812" stop-color="#e0e0e0" offset=".25765"/>
   <stop id="stop4814" stop-color="#ececec" offset=".37406"/>
   <stop id="stop4816" stop-color="#828282" offset=".52577"/>
   <stop id="stop4818" stop-color="#818181" offset=".57286"/>
   <stop id="stop4820" stop-color="#acacac" offset=".67356"/>
   <stop id="stop4822" stop-color="#bcbcbc" offset=".73765"/>
   <stop id="stop4824" stop-color="#505050" offset=".86452"/>
   <stop id="stop4826" stop-color="#333" offset=".90768"/>
   <stop id="stop4828" stop-color="#7a7a7c" offset=".96261"/>
   <stop id="stop4830" stop-color="#c9c6c1" offset="1"/>
  </linearGradient>
  <filter id="filter4844">
   <feGaussianBlur id="feGaussianBlur4846" stdDeviation="0.35133472"/>
  </filter>
  <clipPath id="clipPath24952">
   <path id="path24954" d="m75.2 372.5 70.569 27.5c6.8612 0 12.438-12.32 12.438-27.5s-5.5764-27.5-12.438-27.5l-70.569 27.5z" fill="url(#linearGradient24956)"/>
  </clipPath>
  <linearGradient id="linearGradient24956" x1="726.91" x2="726.91" y1="388.45" y2="445.17" gradientTransform="matrix(.24004 0 0 1.0092 -78.39 -49.25)" gradientUnits="userSpaceOnUse" xlink:href="#linearGradient4800"/>
  <linearGradient id="linearGradient2942" x1="726.91" x2="726.91" y1="388.45" y2="445.17" gradientTransform="matrix(.16801 0 0 1.0092 508.68 50.75)" gradientUnits="userSpaceOnUse" xlink:href="#linearGradient4800"/>
  <linearGradient id="linearGradient2944" x1="726.91" x2="726.91" y1="388.45" y2="445.17" gradientTransform="matrix(.30127 0 0 1.0092 209.78 50.75)" gradientUnits="userSpaceOnUse" xlink:href="#linearGradient4800"/>
  <linearGradient id="linearGradient2946" x1="480.07" x2="480.07" y1="443.01" y2="502.35" gradientUnits="userSpaceOnUse" xlink:href="#linearGradient4800"/>
  <radialGradient id="radialGradient2948" cx="508.3" cy="471.4" r="7.1331" fx="506.25" fy="469.36" gradientTransform="matrix(1 0 0 3.9254 0 -1382.3)" gradientUnits="userSpaceOnUse" xlink:href="#linearGradient4850"/>
  <linearGradient id="linearGradient2974" x1="480.07" x2="480.07" y1="443.01" y2="502.35" gradientTransform="translate(22.461 .5)" gradientUnits="userSpaceOnUse" xlink:href="#linearGradient4800"/>
  <radialGradient id="radialGradient2976" cx="508.3" cy="471.4" r="7.1331" fx="506.25" fy="469.36" gradientTransform="matrix(1 0 0 3.9254 22.461 -1381.8)" gradientUnits="userSpaceOnUse" xlink:href="#linearGradient4850"/>
  <linearGradient id="linearGradient2978" x1="726.91" x2="726.91" y1="388.45" y2="445.17" gradientTransform="matrix(1.2809 0 0 1.0092 -753.12 -9.2499)" gradientUnits="userSpaceOnUse" xlink:href="#linearGradient4800"/>
  <linearGradient id="linearGradient2980" x1="726.91" x2="726.91" y1="388.45" y2="445.17" gradientTransform="matrix(.24004 0 0 1.0092 -59.607 50.75)" gradientUnits="userSpaceOnUse" xlink:href="#linearGradient4800"/>
 </defs>
 <metadata id="metadata7">
  <rdf:RDF>
   <cc:Work rdf:about="">
    <dc:format>image/svg+xml</dc:format>
    <dc:type rdf:resource="http://purl.org/dc/dcmitype/StillImage"/>
    <cc:license rdf:resource="http://creativecommons.org/licenses/publicdomain/"/>
   </cc:Work>
   <cc:License rdf:about="http://creativecommons.org/licenses/publicdomain/">
    <cc:permits rdf:resource="http://creativecommons.org/ns#Reproduction"/>
    <cc:permits rdf:resource="http://creativecommons.org/ns#Distribution"/>
    <cc:permits rdf:resource="http://creativecommons.org/ns#DerivativeWorks"/>
   </cc:License>
  </rdf:RDF>
 </metadata>
 <g id="layer1" transform="translate(-5.5019 -9.2388)">
  <g id="g2788">
   <g id="g25115" transform="matrix(.71104 -1.0021 1.0021 .71104 -519.89 233.57)">
    <g id="g3265" transform="translate(-131.2)">
     <path id="rect3222" d="m629.12 445v55h36.438c6.8612 0 16.734-12.32 16.734-27.5 0-15.18-9.8733-27.5-16.734-27.5h-36.438z" fill="url(#linearGradient2942)"/>
     <path id="path3263" d="m629.12 445v55h36.438c6.8612 0 16.734-12.32 16.734-27.5 0-15.18-9.8733-27.5-16.734-27.5h-36.438z" fill="#ef2929" opacity=".7"/>
    </g>
    <path id="rect3218" d="m425.75 445v55h91.308c6.8612 0 12.438-12.32 12.438-27.5 0-15.18-5.5763-27.5-12.438-27.5h-91.308z" fill="url(#linearGradient2944)"/>
    <g id="g4858" transform="translate(-51.562)">
     <path id="path4842" d="m495.3 444.5c-0.2488 0.02689-1.2698 0.24979-1.2661 0.5 6.8471 0.03651 12.406 12.343 12.406 27.5-1e-5 15.157-5.5591 27.463-12.406 27.5-0.00102 0.11457 0.87966 0.23852 0.98489 0.34375 0.1052 0.10521 0.22917 0.15727 0.34375 0.15625 1.8581 0 3.6056-0.86135 5.1562-2.3125 1.5524-1.4528 2.9181-3.5016 4.0625-6.0312 2.2896-5.0612 3.7187-12.007 3.7188-19.656 0-7.6489-1.4292-14.595-3.7188-19.656-1.1444-2.5297-2.5101-4.5784-4.0625-6.0312-1.5506-1.4512-3.2981-2.3125-5.1562-2.3125-0.01041 5e-4 -0.02084 5e-4 -0.03125 0-0.01857-0.00108-0.01268-0.00108-0.03125 0z" filter="url(#filter4844)"/>
     <path id="path4832" d="m495.4 444.5c-0.2488 0.02689-1.2698 0.24979-1.2661 0.5 6.8471 0.03651 12.406 12.343 12.406 27.5-1e-5 15.157-5.5591 27.463-12.406 27.5-0.00102 0.11457 0.87966 0.23852 0.98489 0.34375 0.1052 0.10521 0.22917 0.15727 0.34375 0.15625 1.8581 0 3.6056-0.86135 5.1562-2.3125 1.5524-1.4528 2.9181-3.5016 4.0625-6.0312 2.2896-5.0612 3.7187-12.007 3.7188-19.656 0-7.6489-1.4292-14.595-3.7188-19.656-1.1444-2.5297-2.5101-4.5784-4.0625-6.0312-1.5506-1.4512-3.2981-2.3125-5.1562-2.3125-0.01041 5e-4 -0.02084 5e-4 -0.03125 0-0.01857-0.00108-0.01268-0.00108-0.03125 0z" fill="url(#linearGradient2946)"/>
     <path id="path4848" d="m495.3 444.5c-0.2488 0.02689-1.2698 0.24979-1.2661 0.5 6.8471 0.03651 12.406 12.343 12.406 27.5-1e-5 15.157-5.5591 27.463-12.406 27.5-0.00102 0.11457 0.87966 0.23852 0.98489 0.34375 0.1052 0.10521 0.22917 0.15727 0.34375 0.15625 1.8581 0 3.6056-0.86135 5.1562-2.3125 1.5524-1.4528 2.9181-3.5016 4.0625-6.0312 2.2896-5.0612 3.7187-12.007 3.7188-19.656 0-7.6489-1.4292-14.595-3.7188-19.656-1.1444-2.5297-2.5101-4.5784-4.0625-6.0312-1.5506-1.4512-3.2981-2.3125-5.1562-2.3125-0.01041 5e-4 -0.02084 5e-4 -0.03125 0-0.01857-0.00108-0.01268-0.00108-0.03125 0z" fill="url(#radialGradient2948)"/>
    </g>
    <g id="g4955" transform="translate(-4.9718)">
     <g id="g4883" transform="translate(-31.641)">
      <path id="path4885" d="m495.3 444.5c-0.2488 0.02689-1.2698 0.24979-1.2661 0.5 6.8471 0.03651 12.406 12.343 12.406 27.5-1e-5 15.157-5.5591 27.463-12.406 27.5-0.00102 0.11457 0.87966 0.23852 0.98489 0.34375 0.1052 0.10521 0.22917 0.15727 0.34375 0.15625 1.8581 0 3.6056-0.86135 5.1562-2.3125 1.5524-1.4528 2.9181-3.5016 4.0625-6.0312 2.2896-5.0612 3.7187-12.007 3.7188-19.656 0-7.6489-1.4292-14.595-3.7188-19.656-1.1444-2.5297-2.5101-4.5784-4.0625-6.0312-1.5506-1.4512-3.2981-2.3125-5.1562-2.3125-0.01041 5e-4 -0.02084 5e-4 -0.03125 0-0.01857-0.00108-0.01268-0.00108-0.03125 0z" filter="url(#filter4844)"/>
      <path id="path4887" d="m495.4 444.5c-0.2488 0.02689-1.2698 0.24979-1.2661 0.5 6.8471 0.03651 12.406 12.343 12.406 27.5-1e-5 15.157-5.5591 27.463-12.406 27.5-0.00102 0.11457 0.87966 0.23852 0.98489 0.34375 0.1052 0.10521 0.22917 0.15727 0.34375 0.15625 1.8581 0 3.6056-0.86135 5.1562-2.3125 1.5524-1.4528 2.9181-3.5016 4.0625-6.0312 2.2896-5.0612 3.7187-12.007 3.7188-19.656 0-7.6489-1.4292-14.595-3.7188-19.656-1.1444-2.5297-2.5101-4.5784-4.0625-6.0312-1.5506-1.4512-3.2981-2.3125-5.1562-2.3125-0.01041 5e-4 -0.02084 5e-4 -0.03125 0-0.01857-0.00108-0.01268-0.00108-0.03125 0z" fill="url(#linearGradient2946)"/>
      <path id="path4889" d="m495.3 444.5c-0.2488 0.02689-1.2698 0.24979-1.2661 0.5 6.8471 0.03651 12.406 12.343 12.406 27.5-1e-5 15.157-5.5591 27.463-12.406 27.5-0.00102 0.11457 0.87966 0.23852 0.98489 0.34375 0.1052 0.10521 0.22917 0.15727 0.34375 0.15625 1.8581 0 3.6056-0.86135 5.1562-2.3125 1.5524-1.4528 2.9181-3.5016 4.0625-6.0312 2.2896-5.0612 3.7187-12.007 3.7188-19.656 0-7.6489-1.4292-14.595-3.7188-19.656-1.1444-2.5297-2.5101-4.5784-4.0625-6.0312-1.5506-1.4512-3.2981-2.3125-5.1562-2.3125-0.01041 5e-4 -0.02084 5e-4 -0.03125 0-0.01857-0.00108-0.01268-0.00108-0.03125 0z" fill="url(#radialGradient2948)"/>
     </g>
     <g id="g4895" transform="translate(-25.879)">
      <path id="path4897" d="m495.3 444.5c-0.2488 0.02689-1.2698 0.24979-1.2661 0.5 6.8471 0.03651 12.406 12.343 12.406 27.5-1e-5 15.157-5.5591 27.463-12.406 27.5-0.00102 0.11457 0.87966 0.23852 0.98489 0.34375 0.1052 0.10521 0.22917 0.15727 0.34375 0.15625 1.8581 0 3.6056-0.86135 5.1562-2.3125 1.5524-1.4528 2.9181-3.5016 4.0625-6.0312 2.2896-5.0612 3.7187-12.007 3.7188-19.656 0-7.6489-1.4292-14.595-3.7188-19.656-1.1444-2.5297-2.5101-4.5784-4.0625-6.0312-1.5506-1.4512-3.2981-2.3125-5.1562-2.3125-0.01041 5e-4 -0.02084 5e-4 -0.03125 0-0.01857-0.00108-0.01268-0.00108-0.03125 0z" filter="url(#filter4844)"/>
      <path id="path4899" d="m495.4 444.5c-0.2488 0.02689-1.2698 0.24979-1.2661 0.5 6.8471 0.03651 12.406 12.343 12.406 27.5-1e-5 15.157-5.5591 27.463-12.406 27.5-0.00102 0.11457 0.87966 0.23852 0.98489 0.34375 0.1052 0.10521 0.22917 0.15727 0.34375 0.15625 1.8581 0 3.6056-0.86135 5.1562-2.3125 1.5524-1.4528 2.9181-3.5016 4.0625-6.0312 2.2896-5.0612 3.7187-12.007 3.7188-19.656 0-7.6489-1.4292-14.595-3.7188-19.656-1.1444-2.5297-2.5101-4.5784-4.0625-6.0312-1.5506-1.4512-3.2981-2.3125-5.1562-2.3125-0.01041 5e-4 -0.02084 5e-4 -0.03125 0-0.01857-0.00108-0.01268-0.00108-0.03125 0z" fill="url(#linearGradient2946)"/>
      <path id="path4901" d="m495.3 444.5c-0.2488 0.02689-1.2698 0.24979-1.2661 0.5 6.8471 0.03651 12.406 12.343 12.406 27.5-1e-5 15.157-5.5591 27.463-12.406 27.5-0.00102 0.11457 0.87966 0.23852 0.98489 0.34375 0.1052 0.10521 0.22917 0.15727 0.34375 0.15625 1.8581 0 3.6056-0.86135 5.1562-2.3125 1.5524-1.4528 2.9181-3.5016 4.0625-6.0312 2.2896-5.0612 3.7187-12.007 3.7188-19.656 0-7.6489-1.4292-14.595-3.7188-19.656-1.1444-2.5297-2.5101-4.5784-4.0625-6.0312-1.5506-1.4512-3.2981-2.3125-5.1562-2.3125-0.01041 5e-4 -0.02084 5e-4 -0.03125 0-0.01857-0.00108-0.01268-0.00108-0.03125 0z" fill="url(#radialGradient2948)"/>
     </g>
     <g id="g4907" transform="translate(-20.117)">
      <path id="path4909" d="m495.3 444.5c-0.2488 0.02689-1.2698 0.24979-1.2661 0.5 6.8471 0.03651 12.406 12.343 12.406 27.5-1e-5 15.157-5.5591 27.463-12.406 27.5-0.00102 0.11457 0.87966 0.23852 0.98489 0.34375 0.1052 0.10521 0.22917 0.15727 0.34375 0.15625 1.8581 0 3.6056-0.86135 5.1562-2.3125 1.5524-1.4528 2.9181-3.5016 4.0625-6.0312 2.2896-5.0612 3.7187-12.007 3.7188-19.656 0-7.6489-1.4292-14.595-3.7188-19.656-1.1444-2.5297-2.5101-4.5784-4.0625-6.0312-1.5506-1.4512-3.2981-2.3125-5.1562-2.3125-0.01041 5e-4 -0.02084 5e-4 -0.03125 0-0.01857-0.00108-0.01268-0.00108-0.03125 0z" filter="url(#filter4844)"/>
      <path id="path4911" d="m495.4 444.5c-0.2488 0.02689-1.2698 0.24979-1.2661 0.5 6.8471 0.03651 12.406 12.343 12.406 27.5-1e-5 15.157-5.5591 27.463-12.406 27.5-0.00102 0.11457 0.87966 0.23852 0.98489 0.34375 0.1052 0.10521 0.22917 0.15727 0.34375 0.15625 1.8581 0 3.6056-0.86135 5.1562-2.3125 1.5524-1.4528 2.9181-3.5016 4.0625-6.0312 2.2896-5.0612 3.7187-12.007 3.7188-19.656 0-7.6489-1.4292-14.595-3.7188-19.656-1.1444-2.5297-2.5101-4.5784-4.0625-6.0312-1.5506-1.4512-3.2981-2.3125-5.1562-2.3125-0.01041 5e-4 -0.02084 5e-4 -0.03125 0-0.01857-0.00108-0.01268-0.00108-0.03125 0z" fill="url(#linearGradient2946)"/>
      <path id="path4913" d="m495.3 444.5c-0.2488 0.02689-1.2698 0.24979-1.2661 0.5 6.8471 0.03651 12.406 12.343 12.406 27.5-1e-5 15.157-5.5591 27.463-12.406 27.5-0.00102 0.11457 0.87966 0.23852 0.98489 0.34375 0.1052 0.10521 0.22917 0.15727 0.34375 0.15625 1.8581 0 3.6056-0.86135 5.1562-2.3125 1.5524-1.4528 2.9181-3.5016 4.0625-6.0312 2.2896-5.0612 3.7187-12.007 3.7188-19.656 0-7.6489-1.4292-14.595-3.7188-19.656-1.1444-2.5297-2.5101-4.5784-4.0625-6.0312-1.5506-1.4512-3.2981-2.3125-5.1562-2.3125-0.01041 5e-4 -0.02084 5e-4 -0.03125 0-0.01857-0.00108-0.01268-0.00108-0.03125 0z" fill="url(#radialGradient2948)"/>
     </g>
    </g>
    <g id="g4981" transform="translate(-.82864)">
     <g id="g4919" transform="translate(-3.1906)">
      <path id="path4921" d="m495.3 444.5c-0.2488 0.02689-1.2698 0.24979-1.2661 0.5 6.8471 0.03651 12.406 12.343 12.406 27.5-1e-5 15.157-5.5591 27.463-12.406 27.5-0.00102 0.11457 0.87966 0.23852 0.98489 0.34375 0.1052 0.10521 0.22917 0.15727 0.34375 0.15625 1.8581 0 3.6056-0.86135 5.1562-2.3125 1.5524-1.4528 2.9181-3.5016 4.0625-6.0312 2.2896-5.0612 3.7187-12.007 3.7188-19.656 0-7.6489-1.4292-14.595-3.7188-19.656-1.1444-2.5297-2.5101-4.5784-4.0625-6.0312-1.5506-1.4512-3.2981-2.3125-5.1562-2.3125-0.01041 5e-4 -0.02084 5e-4 -0.03125 0-0.01857-0.00108-0.01268-0.00108-0.03125 0z" filter="url(#filter4844)"/>
      <path id="path4923" d="m495.4 444.5c-0.2488 0.02689-1.2698 0.24979-1.2661 0.5 6.8471 0.03651 12.406 12.343 12.406 27.5-1e-5 15.157-5.5591 27.463-12.406 27.5-0.00102 0.11457 0.87966 0.23852 0.98489 0.34375 0.1052 0.10521 0.22917 0.15727 0.34375 0.15625 1.8581 0 3.6056-0.86135 5.1562-2.3125 1.5524-1.4528 2.9181-3.5016 4.0625-6.0312 2.2896-5.0612 3.7187-12.007 3.7188-19.656 0-7.6489-1.4292-14.595-3.7188-19.656-1.1444-2.5297-2.5101-4.5784-4.0625-6.0312-1.5506-1.4512-3.2981-2.3125-5.1562-2.3125-0.01041 5e-4 -0.02084 5e-4 -0.03125 0-0.01857-0.00108-0.01268-0.00108-0.03125 0z" fill="url(#linearGradient2946)"/>
      <path id="path4925" d="m495.3 444.5c-0.2488 0.02689-1.2698 0.24979-1.2661 0.5 6.8471 0.03651 12.406 12.343 12.406 27.5-1e-5 15.157-5.5591 27.463-12.406 27.5-0.00102 0.11457 0.87966 0.23852 0.98489 0.34375 0.1052 0.10521 0.22917 0.15727 0.34375 0.15625 1.8581 0 3.6056-0.86135 5.1562-2.3125 1.5524-1.4528 2.9181-3.5016 4.0625-6.0312 2.2896-5.0612 3.7187-12.007 3.7188-19.656 0-7.6489-1.4292-14.595-3.7188-19.656-1.1444-2.5297-2.5101-4.5784-4.0625-6.0312-1.5506-1.4512-3.2981-2.3125-5.1562-2.3125-0.01041 5e-4 -0.02084 5e-4 -0.03125 0-0.01857-0.00108-0.01268-0.00108-0.03125 0z" fill="url(#radialGradient2948)"/>
     </g>
     <g id="g4927" transform="translate(2.5711)">
      <path id="path4929" d="m495.3 444.5c-0.2488 0.02689-1.2698 0.24979-1.2661 0.5 6.8471 0.03651 12.406 12.343 12.406 27.5-1e-5 15.157-5.5591 27.463-12.406 27.5-0.00102 0.11457 0.87966 0.23852 0.98489 0.34375 0.1052 0.10521 0.22917 0.15727 0.34375 0.15625 1.8581 0 3.6056-0.86135 5.1562-2.3125 1.5524-1.4528 2.9181-3.5016 4.0625-6.0312 2.2896-5.0612 3.7187-12.007 3.7188-19.656 0-7.6489-1.4292-14.595-3.7188-19.656-1.1444-2.5297-2.5101-4.5784-4.0625-6.0312-1.5506-1.4512-3.2981-2.3125-5.1562-2.3125-0.01041 5e-4 -0.02084 5e-4 -0.03125 0-0.01857-0.00108-0.01268-0.00108-0.03125 0z" filter="url(#filter4844)"/>
      <path id="path4931" d="m495.4 444.5c-0.2488 0.02689-1.2698 0.24979-1.2661 0.5 6.8471 0.03651 12.406 12.343 12.406 27.5-1e-5 15.157-5.5591 27.463-12.406 27.5-0.00102 0.11457 0.87966 0.23852 0.98489 0.34375 0.1052 0.10521 0.22917 0.15727 0.34375 0.15625 1.8581 0 3.6056-0.86135 5.1562-2.3125 1.5524-1.4528 2.9181-3.5016 4.0625-6.0312 2.2896-5.0612 3.7187-12.007 3.7188-19.656 0-7.6489-1.4292-14.595-3.7188-19.656-1.1444-2.5297-2.5101-4.5784-4.0625-6.0312-1.5506-1.4512-3.2981-2.3125-5.1562-2.3125-0.01041 5e-4 -0.02084 5e-4 -0.03125 0-0.01857-0.00108-0.01268-0.00108-0.03125 0z" fill="url(#linearGradient2946)"/>
      <path id="path4933" d="m495.3 444.5c-0.2488 0.02689-1.2698 0.24979-1.2661 0.5 6.8471 0.03651 12.406 12.343 12.406 27.5-1e-5 15.157-5.5591 27.463-12.406 27.5-0.00102 0.11457 0.87966 0.23852 0.98489 0.34375 0.1052 0.10521 0.22917 0.15727 0.34375 0.15625 1.8581 0 3.6056-0.86135 5.1562-2.3125 1.5524-1.4528 2.9181-3.5016 4.0625-6.0312 2.2896-5.0612 3.7187-12.007 3.7188-19.656 0-7.6489-1.4292-14.595-3.7188-19.656-1.1444-2.5297-2.5101-4.5784-4.0625-6.0312-1.5506-1.4512-3.2981-2.3125-5.1562-2.3125-0.01041 5e-4 -0.02084 5e-4 -0.03125 0-0.01857-0.00108-0.01268-0.00108-0.03125 0z" fill="url(#radialGradient2948)"/>
     </g>
     <g id="g4935" transform="translate(8.3328)">
      <path id="path4937" d="m495.3 444.5c-0.2488 0.02689-1.2698 0.24979-1.2661 0.5 6.8471 0.03651 12.406 12.343 12.406 27.5-1e-5 15.157-5.5591 27.463-12.406 27.5-0.00102 0.11457 0.87966 0.23852 0.98489 0.34375 0.1052 0.10521 0.22917 0.15727 0.34375 0.15625 1.8581 0 3.6056-0.86135 5.1562-2.3125 1.5524-1.4528 2.9181-3.5016 4.0625-6.0312 2.2896-5.0612 3.7187-12.007 3.7188-19.656 0-7.6489-1.4292-14.595-3.7188-19.656-1.1444-2.5297-2.5101-4.5784-4.0625-6.0312-1.5506-1.4512-3.2981-2.3125-5.1562-2.3125-0.01041 5e-4 -0.02084 5e-4 -0.03125 0-0.01857-0.00108-0.01268-0.00108-0.03125 0z" filter="url(#filter4844)"/>
      <path id="path4939" d="m495.4 444.5c-0.2488 0.02689-1.2698 0.24979-1.2661 0.5 6.8471 0.03651 12.406 12.343 12.406 27.5-1e-5 15.157-5.5591 27.463-12.406 27.5-0.00102 0.11457 0.87966 0.23852 0.98489 0.34375 0.1052 0.10521 0.22917 0.15727 0.34375 0.15625 1.8581 0 3.6056-0.86135 5.1562-2.3125 1.5524-1.4528 2.9181-3.5016 4.0625-6.0312 2.2896-5.0612 3.7187-12.007 3.7188-19.656 0-7.6489-1.4292-14.595-3.7188-19.656-1.1444-2.5297-2.5101-4.5784-4.0625-6.0312-1.5506-1.4512-3.2981-2.3125-5.1562-2.3125-0.01041 5e-4 -0.02084 5e-4 -0.03125 0-0.01857-0.00108-0.01268-0.00108-0.03125 0z" fill="url(#linearGradient2946)"/>
      <path id="path4941" d="m495.3 444.5c-0.2488 0.02689-1.2698 0.24979-1.2661 0.5 6.8471 0.03651 12.406 12.343 12.406 27.5-1e-5 15.157-5.5591 27.463-12.406 27.5-0.00102 0.11457 0.87966 0.23852 0.98489 0.34375 0.1052 0.10521 0.22917 0.15727 0.34375 0.15625 1.8581 0 3.6056-0.86135 5.1562-2.3125 1.5524-1.4528 2.9181-3.5016 4.0625-6.0312 2.2896-5.0612 3.7187-12.007 3.7188-19.656 0-7.6489-1.4292-14.595-3.7188-19.656-1.1444-2.5297-2.5101-4.5784-4.0625-6.0312-1.5506-1.4512-3.2981-2.3125-5.1562-2.3125-0.01041 5e-4 -0.02084 5e-4 -0.03125 0-0.01857-0.00108-0.01268-0.00108-0.03125 0z" fill="url(#radialGradient2948)"/>
     </g>
    </g>
    <g id="g5016">
     <path id="path4873" d="m517.76 445c-0.2488 0.02689-1.2698 0.24979-1.2661 0.5 6.8471 0.03651 12.406 12.343 12.406 27.5-1e-5 15.157-5.5591 27.463-12.406 27.5-0.00102 0.11457 0.87966 0.23852 0.98489 0.34375 0.1052 0.10521 0.22917 0.15727 0.34375 0.15625 1.8581 0 3.6056-0.86135 5.1562-2.3125 1.5524-1.4528 2.9181-3.5016 4.0625-6.0312 2.2896-5.0612 3.7187-12.007 3.7188-19.656 0-7.6489-1.4292-14.595-3.7188-19.656-1.1444-2.5297-2.5101-4.5784-4.0625-6.0312-1.5506-1.4512-3.2981-2.3125-5.1562-2.3125-0.01041 5e-4 -0.02084 5e-4 -0.03125 0-0.01857-0.00108-0.01268-0.00108-0.03125 0z" filter="url(#filter4844)"/>
     <path id="path5014" d="m518.15 445c-0.2488 0.02689-1.2698 0.24979-1.2661 0.5 6.8471 0.03651 12.406 12.343 12.406 27.5-1e-5 15.157-5.5591 27.463-12.406 27.5-0.00102 0.11457 0.87966 0.23852 0.98489 0.34375 0.1052 0.10521 0.22917 0.15727 0.34375 0.15625 1.8581 0 3.6056-0.86135 5.1562-2.3125 1.5524-1.4528 2.9181-3.5016 4.0625-6.0312 2.2896-5.0612 3.7187-12.007 3.7188-19.656 0-7.6489-1.4292-14.595-3.7188-19.656-1.1444-2.5297-2.5101-4.5784-4.0625-6.0312-1.5506-1.4512-3.2981-2.3125-5.1562-2.3125-0.01041 5e-4 -0.02084 5e-4 -0.03125 0-0.01857-0.00108-0.01268-0.00108-0.03125 0z" filter="url(#filter4844)"/>
     <path id="path4875" d="m517.86 445c-0.2488 0.02689-1.2698 0.24979-1.2661 0.5 6.8471 0.03651 12.406 12.343 12.406 27.5-1e-5 15.157-5.5591 27.463-12.406 27.5-0.00102 0.11457 0.87966 0.23852 0.98489 0.34375 0.1052 0.10521 0.22917 0.15727 0.34375 0.15625 1.8581 0 3.6056-0.86135 5.1562-2.3125 1.5524-1.4528 2.9181-3.5016 4.0625-6.0312 2.2896-5.0612 3.7187-12.007 3.7188-19.656 0-7.6489-1.4292-14.595-3.7188-19.656-1.1444-2.5297-2.5101-4.5784-4.0625-6.0312-1.5506-1.4512-3.2981-2.3125-5.1562-2.3125-0.01041 5e-4 -0.02084 5e-4 -0.03125 0-0.01857-0.00108-0.01268-0.00108-0.03125 0z" fill="url(#linearGradient2974)"/>
     <path id="path4877" d="m517.76 445c-0.2488 0.02689-1.2698 0.24979-1.2661 0.5 6.8471 0.03651 12.406 12.343 12.406 27.5-1e-5 15.157-5.5591 27.463-12.406 27.5-0.00102 0.11457 0.87966 0.23852 0.98489 0.34375 0.1052 0.10521 0.22917 0.15727 0.34375 0.15625 1.8581 0 3.6056-0.86135 5.1562-2.3125 1.5524-1.4528 2.9181-3.5016 4.0625-6.0312 2.2896-5.0612 3.7187-12.007 3.7188-19.656 0-7.6489-1.4292-14.595-3.7188-19.656-1.1444-2.5297-2.5101-4.5784-4.0625-6.0312-1.5506-1.4512-3.2981-2.3125-5.1562-2.3125-0.01041 5e-4 -0.02084 5e-4 -0.03125 0-0.01857-0.00108-0.01268-0.00108-0.03125 0z" fill="url(#radialGradient2976)"/>
    </g>
   </g>
   <g id="g24999" transform="matrix(.71104 -1.0021 1.0021 .71104 -459.76 276.24)">
    <path id="rect2392" d="m165.19 385v55h277.84c6.8612 0 12.438-12.32 12.438-27.5s-5.5764-27.5-12.438-27.5h-277.84z" fill="url(#linearGradient2978)"/>
    <path id="path3258" d="m165.19 385v55h277.84c6.8612 0 12.438-12.32 12.438-27.5s-5.5764-27.5-12.438-27.5h-277.84z" fill="#8ae234" opacity=".7"/>
   </g>
   <g id="g25005" transform="matrix(.90508 -1.2756 1.0021 .71104 -552.57 279.63)">
    <path id="rect3226" d="m93.983 472.5 70.569 27.5c6.8612 0 12.438-12.32 12.438-27.5s-5.5764-27.5-12.438-27.5l-70.569 27.5z" fill="url(#linearGradient2980)"/>
    <g id="g24846" transform="translate(18.783 100)" clip-path="url(#clipPath24952)" fill="none" stroke-linecap="round" stroke-linejoin="round" stroke-width=".72133">
     <g id="g24398" transform="translate(0,-100)">
      <path id="path24400" d="m75.406 472.97 86.328 33.138" stroke="#8f5902"/>
      <path id="path24402" d="m75.406 472.96 86.547 32.36" stroke="#915a02"/>
      <path id="path24404" d="m75.405 472.95 86.767 31.581" stroke="#935c03"/>
      <path id="path24406" d="m75.404 472.95 86.986 30.802" stroke="#965e04"/>
      <path id="path24408" d="m75.403 472.94 87.206 30.023" stroke="#985f04"/>
      <path id="path24410" d="m75.402 472.94 87.425 29.244" stroke="#9a6105"/>
      <path id="path24412" d="m75.401 472.93 87.644 28.465" stroke="#9d6306"/>
      <path id="path24414" d="m75.4 472.92 87.864 27.686" stroke="#9f6507"/>
      <path id="path24416" d="m75.4 472.92 88.083 26.908" stroke="#a26607"/>
      <path id="path24418" d="m75.399 472.91 88.302 26.129" stroke="#a46808"/>
      <path id="path24420" d="m75.398 472.91 88.522 25.35" stroke="#a66a09"/>
      <path id="path24422" d="m75.397 472.9 88.741 24.571" stroke="#a96b09"/>
      <path id="path24424" d="m75.396 472.89 88.96 23.792" stroke="#ab6d0a"/>
      <path id="path24426" d="m75.395 472.89 89.18 23.013" stroke="#ad6f0b"/>
      <path id="path24428" d="m75.394 472.88 89.399 22.234" stroke="#b0710c"/>
      <path id="path24430" d="m75.393 472.87 89.618 21.456" stroke="#b2720c"/>
      <path id="path24432" d="m75.393 472.87 89.838 20.677" stroke="#b5740d"/>
      <path id="path24434" d="m75.392 472.86 90.057 19.898" stroke="#b7760e"/>
      <path id="path24436" d="m75.391 472.86 90.276 19.119" stroke="#b9770e"/>
      <path id="path24438" d="m75.39 472.85 90.496 18.34" stroke="#bc790f"/>
      <path id="path24440" d="m75.389 472.84 90.715 17.561" stroke="#be7b10"/>
      <path id="path24442" d="m75.388 472.84 90.934 16.782" stroke="#c17d11"/>
     </g>
     <g id="g24444" transform="translate(0,-100)">
      <path id="path24446" d="m75.388 472.84 90.934 16.782" stroke="#c17d11"/>
      <path id="path24448" d="m75.388 472.84 90.934 16.782" stroke="#c17d11"/>
      <path id="path24450" d="m75.386 472.83 91.007 15.994" stroke="#c27f15"/>
      <path id="path24452" d="m75.385 472.83 91.081 15.206" stroke="#c48219"/>
      <path id="path24454" d="m75.383 472.82 91.154 14.418" stroke="#c6851e"/>
      <path id="path24456" d="m75.381 472.81 91.227 13.63" stroke="#c88822"/>
      <path id="path24458" d="m75.379 472.81 91.3 12.842" stroke="#ca8b27"/>
      <path id="path24460" d="m75.377 472.8 91.373 12.054" stroke="#cc8e2b"/>
      <path id="path24462" d="m75.375 472.8 91.446 11.266" stroke="#ce9130"/>
      <path id="path24464" d="m75.373 472.79 91.519 10.478" stroke="#d09334"/>
      <path id="path24466" d="m75.371 472.79s91.592 9.6897 91.592 9.6897" stroke="#d29638"/>
      <path id="path24468" d="m75.369 472.78 91.666 8.9017" stroke="#d4993d"/>
      <path id="path24470" d="m75.367 472.77 91.739 8.1136" stroke="#d59c41"/>
      <path id="path24472" d="m75.365 472.77 91.812 7.3255" stroke="#d79f46"/>
      <path id="path24474" d="m75.363 472.76 91.885 6.5374" stroke="#d9a24a"/>
      <path id="path24476" d="m75.362 472.76 91.958 5.7494" stroke="#dba54f"/>
      <path id="path24478" d="m75.36 472.75 92.031 4.9613" stroke="#dda753"/>
      <path id="path24480" d="m75.358 472.75 92.104 4.1732" stroke="#dfaa57"/>
      <path id="path24482" d="m75.356 472.74 92.177 3.3852" stroke="#e1ad5c"/>
      <path id="path24484" d="m75.354 472.73 92.25 2.5971" stroke="#e3b060"/>
      <path id="path24486" d="m75.352 472.73 92.324 1.809" stroke="#e5b365"/>
      <path id="path24488" d="m75.35 472.72 92.397 1.021" stroke="#e7b669"/>
      <path id="path24490" d="m75.348 472.72 92.47 0.2329" stroke="#e9b96e"/>
      <path id="path24492" d="m75.348 472.72 92.47 0.2329" stroke="#e9b96e"/>
     </g>
     <g id="g24494" transform="translate(0,-100)">
      <path id="path24496" d="m75.348 472.72 92.47 0.2329" stroke="#e9b96e"/>
      <path id="path24498" d="m75.348 472.72 92.47 0.2329" stroke="#e9b96e"/>
      <path id="path24500" d="m75.348 472.72 92.47 0.2329" stroke="#e9b96e"/>
      <path id="path24502" d="m75.345 472.71 92.381-0.65583" stroke="#e9bb74"/>
      <path id="path24504" d="m75.341 472.71 92.293-1.5446" stroke="#e9be7a"/>
      <path id="path24506" d="m75.338 472.7 92.205-2.4333" stroke="#e9c080"/>
      <path id="path24508" d="m75.335 472.69 92.116-3.322" stroke="#e9c386"/>
      <path id="path24510" d="m75.331 472.69 92.028-4.2108" stroke="#eac58c"/>
      <path id="path24512" d="m75.328 472.68 91.94-5.0995" stroke="#eac892"/>
      <path id="path24514" d="m75.325 472.68 91.851-5.9882" stroke="#eaca98"/>
      <path id="path24516" d="m75.321 472.67 91.763-6.877" stroke="#eacd9e"/>
      <path id="path24518" d="m75.318 472.66 91.675-7.7657" stroke="#ebcfa4"/>
      <path id="path24520" d="m75.315 472.66 91.586-8.6544" stroke="#ebd2aa"/>
      <path id="path24522" d="m75.311 472.65s91.498-9.5432 91.498-9.5432" stroke="#ebd4b0"/>
      <path id="path24524" d="m75.308 472.65 91.41-10.432" stroke="#ebd7b6"/>
      <path id="path24526" d="m75.305 472.64 91.321-11.321" stroke="#ecd9bc"/>
      <path id="path24528" d="m75.301 472.63 91.233-12.209" stroke="#ecdcc2"/>
      <path id="path24530" d="m75.298 472.63 91.145-13.098" stroke="#ecdec8"/>
      <path id="path24532" d="m75.295 472.62 91.056-13.987" stroke="#ece1ce"/>
      <path id="path24534" d="m75.291 472.62 90.968-14.876" stroke="#ede3d4"/>
      <path id="path24536" d="m75.288 472.61 90.88-15.764" stroke="#ede6da"/>
      <path id="path24538" d="m75.285 472.6 90.791-16.653" stroke="#ede8e0"/>
      <path id="path24540" d="m75.281 472.6 90.703-17.542" stroke="#edebe6"/>
      <path id="path24542" d="m75.278 472.59 90.615-18.431" stroke="#eeeeec"/>
      <path id="path24544" d="m75.278 472.59 90.615-18.431" stroke="#eeeeec"/>
      <path id="path24546" d="m75.278 472.59 90.615-18.431" stroke="#eeeeec"/>
     </g>
     <g id="g24548" transform="translate(0,-100)">
      <path id="path24550" d="m75.278 472.59 90.615-18.431" stroke="#eeeeec"/>
      <path id="path24552" d="m75.278 472.59 90.615-18.431" stroke="#eeeeec"/>
      <path id="path24554" d="m75.278 472.59 90.615-18.431" stroke="#eeeeec"/>
      <path id="path24556" d="m75.278 472.59 90.615-18.431" stroke="#eeeeec"/>
      <path id="path24558" d="m75.274 472.59 90.403-19.152" stroke="#edebe6"/>
      <path id="path24560" d="m75.27 472.58 90.19-19.873" stroke="#ede8e0"/>
      <path id="path24562" d="m75.267 472.58 89.978-20.594" stroke="#ede6da"/>
      <path id="path24564" d="m75.263 472.57 89.766-21.315" stroke="#ede3d4"/>
      <path id="path24566" d="m75.259 472.57 89.554-22.036" stroke="#ece1ce"/>
      <path id="path24568" d="m75.256 472.57 89.342-22.758" stroke="#ecdec8"/>
      <path id="path24570" d="m75.252 472.56 89.13-23.479" stroke="#ecdcc2"/>
      <path id="path24572" d="m75.248 472.56 88.917-24.2" stroke="#ecd9bc"/>
      <path id="path24574" d="m75.244 472.55 88.705-24.921" stroke="#ebd7b6"/>
      <path id="path24576" d="m75.241 472.55 88.493-25.642" stroke="#ebd4b0"/>
      <path id="path24578" d="m75.237 472.54 88.281-26.364" stroke="#ebd2aa"/>
      <path id="path24580" d="m75.233 472.54 88.069-27.085" stroke="#ebcfa4"/>
      <path id="path24582" d="m75.23 472.54 87.857-27.806" stroke="#eacd9e"/>
      <path id="path24584" d="m75.226 472.53 87.644-28.527" stroke="#eaca98"/>
      <path id="path24586" d="m75.222 472.53 87.432-29.248" stroke="#eac892"/>
      <path id="path24588" d="m75.219 472.52 87.22-29.969" stroke="#eac58b"/>
      <path id="path24590" d="m75.215 472.52 87.008-30.691" stroke="#e9c385"/>
      <path id="path24592" d="m75.211 472.51 86.796-31.412" stroke="#e9c07f"/>
      <path id="path24594" d="m75.207 472.51 86.583-32.133" stroke="#e9be79"/>
      <path id="path24596" d="m75.204 472.5 86.371-32.854" stroke="#e9bb73"/>
      <path id="path24598" d="m75.2 472.5 86.159-33.575" stroke="#e9b96e"/>
      <path id="path24600" d="m75.2 472.5 86.159-33.575" stroke="#e9b96e"/>
      <path id="path24602" d="m75.2 472.5 86.159-33.575" stroke="#e9b96e"/>
      <path id="path24604" d="m75.2 472.5 86.159-33.575" stroke="#e9b96e"/>
     </g>
    </g>
    <path id="path24960" d="m119.44 462.56-25.469 9.9375 25.5 9.9375c2.4425-6.2875 2.5022-13.398-0.03125-19.875z"/>
    <path id="path24976" transform="matrix(1.0064 0 0 1.0064 -.60393 -3.0054)" d="m120.44 465.59-26.188 6.875 26.942-2.4058c-0.101-1.5138-0.40734-2.9966-0.75408-4.4692z" fill="#eeeeec" opacity=".5754"/>
   </g>
  </g>
 </g>
</svg>
