<?xml version="1.0" encoding="UTF-8"?>
<!-- Created with Inkscape (http://www.inkscape.org/) -->
<svg id="svg3134" width="47.8" height="247" version="1.1" xmlns="http://www.w3.org/2000/svg" xmlns:cc="http://creativecommons.org/ns#" xmlns:dc="http://purl.org/dc/elements/1.1/" xmlns:rdf="http://www.w3.org/1999/02/22-rdf-syntax-ns#" xmlns:xlink="http://www.w3.org/1999/xlink">
 <defs id="defs3136">
  <linearGradient id="linearGradient2898" x1="142.93" x2="181.83" y1="434.28" y2="599.19" gradientTransform="translate(-78.543 -308.43)" gradientUnits="userSpaceOnUse">
   <stop id="stop3815" stop-color="#7b7b7b" offset="0"/>
   <stop id="stop3817" stop-color="#919191" offset=".61307"/>
   <stop id="stop3819" stop-color="#7d7d7d" offset="1"/>
  </linearGradient>
  <linearGradient id="linearGradient2874" x1="174.23" x2="178.93" y1="446.17" y2="459.81" gradientTransform="translate(-78.418 -307.68)" gradientUnits="userSpaceOnUse">
   <stop id="stop3825" stop-color="#848484" offset="0"/>
   <stop id="stop3829" stop-color="#cacaca" offset="1"/>
  </linearGradient>
  <linearGradient id="linearGradient3132" x1="85.342" x2="107.32" y1="584.99" y2="623.48" gradientTransform="matrix(.98577 0 0 .98577 -1.3699 -301.59)" gradientUnits="userSpaceOnUse">
   <stop id="stop3725" stop-color="#868686" offset="0"/>
   <stop id="stop3727" stop-color="#333" offset="1"/>
  </linearGradient>
 </defs>
 <metadata id="metadata3139">
  <rdf:RDF>
   <cc:Work rdf:about="">
    <dc:format>image/svg+xml</dc:format>
    <dc:type rdf:resource="http://purl.org/dc/dcmitype/StillImage"/>
    <dc:title/>
   </cc:Work>
  </rdf:RDF>
 </metadata>
 <g id="layer1" transform="translate(-307.53 -377.43)">
  <g id="g3096" transform="translate(239.39 313.67)">
   <path id="path3642" d="m85.769 167.16c0 79.146-15.288 101.8-6.6277 134.12 3.6184 13.504 22.516 11.744 25.663 0 7.9922-29.827-6.3152-57.279-6.3152-134.83 0-10.617 10.2-10.891 15.72-24.589 4.9287-12.231-2.0292-78.098-4.2711-78.098-2.5582 0-1.306 57.04-6.1556 57.04-4.8926 0-2.4183-56.266-5.5126-57.04-3.0943-0.77358-0.82481 57.04-6.5496 57.04-5.7826 0-2.0242-57.04-5.1185-57.04-3.0943 0-2.2237 57.04-6.9437 57.04-5.1961 0-2.4037-57.04-4.7245-57.04-3.9445 0-8.5644 61.947-6.1111 75.031 2.4533 13.084 16.947 15.564 16.947 28.362z" color="#000000" fill="url(#linearGradient2898)"/>
   <path id="path3800" d="m111.28 141.22c-1.0614 3.8196-4.4348 6.1218-6.7214 9.0526-2.9285 2.5274-5.8839 5.7164-10.03 5.4994-3.8318 0.0201-7.4102-1.7051-11.025-2.8653-3.7142-2.0964-6.3407-5.8875-7.9588-9.8787 0.21146-2.988 3.066 2.6908 5.3364 1.6459 2.4085-0.59532 5.3309 0.92379 7.34-1.2193 1.5627-2.7427 5.314 1.8206 6.3915-2.1284 1.7776-2.239 5.1366-1.5209 6.9369-3.6892 2.6953-2.3545 4.722-5.864 8.4026-6.8231 1.715-0.90748 3.909-5.328 3.5867-1.0838 0.81338 3.5765-1.0673 8.0839-2.2582 11.49z" color="#000000" fill="url(#linearGradient2874)" opacity=".3"/>
   <path id="path3811" d="m73.973 65.5a0.47949 0.93399 13.552 0 1-0.93227-0.22472 0.47949 0.93399 13.552 1 1 0.93227 0.22472z" color="#000000" fill="#fff" fill-opacity=".77691" opacity=".3"/>
   <path id="path3882" d="m80.897 298.37c1.5469 7.006 8.111 11.929 14.885 8.7416 7.5116-3.5345 8.587-15.236 8.6391-21.577 0.0924-11.243-1.0813-19.551-2.4292-30.563-0.41872-3.4209-1.0987-9.7877-1.7856-12.922-0.0206 8.8713 1.3585 17.47-0.29165 26.291-2.4483 8.2896 0.27533 23.441-7.6217 28.994-3.9169 2.7542-10.959-2.6978-11.396 1.0354z" color="#000000" fill="url(#linearGradient3132)" opacity=".3"/>
  </g>
 </g>
</svg>
