<?xml version="1.0" encoding="UTF-8"?>
<!-- Created with Inkscape (http://www.inkscape.org/) -->
<svg id="svg8060" width="200.21" height="125.96" version="1.0" xmlns="http://www.w3.org/2000/svg" xmlns:cc="http://creativecommons.org/ns#" xmlns:dc="http://purl.org/dc/elements/1.1/" xmlns:rdf="http://www.w3.org/1999/02/22-rdf-syntax-ns#">
 <metadata id="metadata8065">
  <rdf:RDF>
   <cc:Work rdf:about="">
    <dc:format>image/svg+xml</dc:format>
    <dc:type rdf:resource="http://purl.org/dc/dcmitype/StillImage"/>
    <dc:title>mikrovlnna trouba</dc:title>
    <dc:subject>
     <rdf:Bag>
      <rdf:li>mikrovlnna trouba</rdf:li>
     </rdf:Bag>
    </dc:subject>
    <dc:creator>
     <cc:Agent>
      <dc:title/>
     </cc:Agent>
    </dc:creator>
    <dc:publisher>
     <cc:Agent>
      <dc:title>ZS a MS Machovo nam.</dc:title>
     </cc:Agent>
    </dc:publisher>
    <dc:language>cz</dc:language>
    <cc:license rdf:resource="http://creativecommons.org/licenses/publicdomain/"/>
   </cc:Work>
   <cc:License rdf:about="http://creativecommons.org/licenses/publicdomain/">
    <cc:permits rdf:resource="http://creativecommons.org/ns#Reproduction"/>
    <cc:permits rdf:resource="http://creativecommons.org/ns#Distribution"/>
    <cc:permits rdf:resource="http://creativecommons.org/ns#DerivativeWorks"/>
   </cc:License>
  </rdf:RDF>
 </metadata>
 <g id="g3222" transform="matrix(.21408 0 0 .21408 -10.555 -24.729)">
  <path id="path8069" d="m57.129 157.7-7.3243 5.127 0.73243 452.64 1.4649 6.5918 5.127 1.4649 658.76 62.256 0.42904-115.72-594.73-47.608-6.5918-5.8594 2.9297-247.56 3.6621-8.7891 594 24.903 1.4648-106.93-659.92-20.508z" fill="#d7d2ce" fill-rule="evenodd" stroke="#000" stroke-width="1px"/>
  <path id="path8085" d="m714.71 285.88-592.48-25.895-3.1074 7.2507-3.1074 250.67 4.1432 4.1432 595.59 47.647-1.0358-283.81z" fill-rule="evenodd" stroke="#000" stroke-width="1px"/>
  <path id="path8087" d="m145.01 280.7 456.79 19.68v243.42l-458.86-38.325 2.0716-224.77z" fill="#262932" fill-rule="evenodd" stroke="#000" stroke-width="1px"/>
  <path id="path8089" d="m717.78 570.79 145.75 10.986 5.8594-4.3946-2.1973-277.59-7.3243-8.0567-144.29-5.8594 2.9297-107.67 163.33 2.1973 5.8594 10.986-0.73243 507.57-9.5216 4.3946-161.87-16.846 2.1973-115.72z" fill="#b4b4b6" fill-rule="evenodd" stroke="#000" stroke-width="1px"/>
  <path id="path8091" d="m734.62 622.06-0.73242 39.551 5.127 7.3243 127.44 11.719 5.8594-4.3946 0.73243-43.213-5.8594-2.9297-128.17-10.986-4.3946 2.9297z" fill="none" stroke="#000" stroke-width="1px"/>
  <path id="path9037" d="m715.74 286.4 145.01 5.179 7.2507 10.358 1.0358 275.01-6.2149 5.179-147.6-11.912 0.5179-283.81z" fill="#181514" fill-rule="evenodd" stroke="#000" stroke-width="1px"/>
  <g id="g9039" transform="translate(-9.3223 -3.1074)">
   <path id="path9003" transform="translate(0 -3.2959)" d="m772.34 325.43a13.55 13.184 0 1 1-27.1 0 13.55 13.184 0 1 1 27.1 0z" fill="#999" stroke-width="0"/>
   <path id="path9005" transform="translate(81.666 -1.0986)" d="m772.34 325.43a13.55 13.184 0 1 1-27.1 0 13.55 13.184 0 1 1 27.1 0z" fill="#999" stroke-width="0"/>
   <path id="path9007" transform="translate(41.016 -2.1973)" d="m772.34 325.43a13.55 13.184 0 1 1-27.1 0 13.55 13.184 0 1 1 27.1 0z" fill="#999" stroke-width="0"/>
   <path id="path9009" transform="translate(82.032 84.962)" d="m772.34 325.43a13.55 13.184 0 1 1-27.1 0 13.55 13.184 0 1 1 27.1 0z" fill="#999" stroke-width="0"/>
   <path id="path9011" transform="translate(41.016 84.229)" d="m772.34 325.43a13.55 13.184 0 1 1-27.1 0 13.55 13.184 0 1 1 27.1 0z" fill="#999" stroke-width="0"/>
   <path id="path9013" transform="translate(.36621 81.666)" d="m772.34 325.43a13.55 13.184 0 1 1-27.1 0 13.55 13.184 0 1 1 27.1 0z" fill="#999" stroke-width="0"/>
   <path id="path9015" transform="translate(-.73243 -4.3946)" d="m832.04 357.47a30.945 9.7047 0 1 1-61.89 0 30.945 9.7047 0 1 1 61.89 0z" fill="#999" stroke-width="0"/>
   <path id="path9017" transform="translate(1.8311 200.69)" d="m772.34 325.43a13.55 13.184 0 1 1-27.1 0 13.55 13.184 0 1 1 27.1 0z" fill="#999" stroke-width="0"/>
   <path id="path9019" transform="translate(41.382 202.88)" d="m772.34 325.43a13.55 13.184 0 1 1-27.1 0 13.55 13.184 0 1 1 27.1 0z" fill="#999" stroke-width="0"/>
   <path id="path9021" transform="translate(80.933 205.08)" d="m772.34 325.43a13.55 13.184 0 1 1-27.1 0 13.55 13.184 0 1 1 27.1 0z" fill="#999" stroke-width="0"/>
   <path id="path9023" transform="matrix(.83784 0 0 .76389 163.7 200.07)" d="m772.34 325.43a13.55 13.184 0 1 1-27.1 0 13.55 13.184 0 1 1 27.1 0z" fill="#999" stroke-width="0"/>
   <path id="path9025" transform="matrix(.83784 0 0 .76389 205.45 202.63)" d="m772.34 325.43a13.55 13.184 0 1 1-27.1 0 13.55 13.184 0 1 1 27.1 0z" fill="#999" stroke-width="0"/>
   <path id="path9027" transform="matrix(.83784 0 0 .76389 122.32 197.14)" d="m772.34 325.43a13.55 13.184 0 1 1-27.1 0 13.55 13.184 0 1 1 27.1 0z" fill="#999" stroke-width="0"/>
   <path id="path9029" transform="matrix(1.3919 0 0 .76389 -297.18 236.32)" d="m772.34 325.43a13.55 13.184 0 1 1-27.1 0 13.55 13.184 0 1 1 27.1 0z" fill="#999" stroke-width="0"/>
   <path id="path9031" transform="matrix(1.3919 0 0 .76389 -214.42 241.45)" d="m772.34 325.43a13.55 13.184 0 1 1-27.1 0 13.55 13.184 0 1 1 27.1 0z" fill="#999" stroke-width="0"/>
   <path id="path9033" transform="matrix(1.3919 0 0 .76389 -258 238.16)" d="m772.34 325.43a13.55 13.184 0 1 1-27.1 0 13.55 13.184 0 1 1 27.1 0z" fill="#999" stroke-width="0"/>
   <path id="path9035" transform="matrix(.39325 0 0 .37774 505.29 355.96)" d="m812.63 549.19c1.0833 1.1751-1.0496 2.0401-1.9531 1.8006-2.4486-0.64907-2.7172-3.8301-1.648-5.7068 1.9125-3.357 6.5334-3.5715 9.4605-1.4954 4.2957 3.0468 4.453 9.2739 1.3428 13.214-4.1454 5.2518-12.028 5.346-16.968 1.1902-6.2167-5.2297-6.2451-14.788-1.0376-20.722 6.307-7.1864 17.552-7.1477 24.475-0.885 8.1591 7.3804 8.0525 20.318 0.73241 28.229-8.4514 9.1337-23.085 8.9588-31.983 0.57981-10.11-9.5207-9.8661-25.854-0.42723-35.736 10.589-11.086 28.623-10.774 39.49-0.27463 12.064 11.656 11.683 31.393 0.12205 43.244" fill="#b3b3b3" fill-rule="evenodd" stroke="#000" stroke-width="2.5946px"/>
  </g>
  <path id="path9058" d="m56.969 157.44 822.43 22.788h5.179l5.179 12.43-3.1074 506.51 97.366-164.69v-401.89l-7.2507-4.1432-685.71-12.43-234.09 41.432z" fill="#434750" fill-rule="evenodd" stroke="#000" stroke-width="1px"/>
  <path id="path9060" d="m881.47 184.37 96.33-53.862" fill="none" stroke="#000" stroke-width="1px"/>
 </g>
</svg>
