<?xml version="1.0" encoding="UTF-8"?>
<!-- Created with Inkscape (http://www.inkscape.org/) -->
<svg id="svg1931" width="175.5" height="141.75" version="1.0" xmlns="http://www.w3.org/2000/svg" xmlns:xlink="http://www.w3.org/1999/xlink">
 <metadata>
  <rdf:RDF xmlns:cc="http://web.resource.org/cc/" xmlns:dc="http://purl.org/dc/elements/1.1/" xmlns:rdf="http://www.w3.org/1999/02/22-rdf-syntax-ns#">
   <cc:Work rdf:about="">
    <dc:title>Lock - Open</dc:title>
    <dc:description/>
    <dc:subject>
     <rdf:Bag>
      <rdf:li>tools</rdf:li>
      <rdf:li>security</rdf:li>
      <rdf:li>padlock</rdf:li>
     </rdf:Bag>
    </dc:subject>
    <dc:publisher>
     <cc:Agent rdf:about="http://www.openclipart.org/">
      <dc:title>Open Clip Art Library</dc:title>
     </cc:Agent>
    </dc:publisher>
    <dc:creator>
     <cc:Agent>
      <dc:title>Afief Halumi</dc:title>
     </cc:Agent>
    </dc:creator>
    <dc:rights>
     <cc:Agent>
      <dc:title>Afief Halumi</dc:title>
     </cc:Agent>
    </dc:rights>
    <dc:date/>
    <dc:format>image/svg+xml</dc:format>
    <dc:type rdf:resource="http://purl.org/dc/dcmitype/StillImage"/>
    <cc:license rdf:resource="http://web.resource.org/cc/PublicDomain"/>
    <dc:language>en</dc:language>
   </cc:Work>
   <cc:License rdf:about="http://web.resource.org/cc/PublicDomain">
    <cc:permits rdf:resource="http://web.resource.org/cc/Reproduction"/>
    <cc:permits rdf:resource="http://web.resource.org/cc/Distribution"/>
    <cc:permits rdf:resource="http://web.resource.org/cc/DerivativeWorks"/>
   </cc:License>
  </rdf:RDF>
 </metadata>
 <defs id="defs3">
  <linearGradient id="linearGradient3057">
   <stop id="stop3059" stop-color="#282828" offset="0"/>
   <stop id="stop3061" stop-color="#282828" stop-opacity="0" offset="1"/>
  </linearGradient>
  <linearGradient id="linearGradient2834">
   <stop id="stop2836" stop-color="#ffe19c" offset="0"/>
   <stop id="stop2838" stop-color="#b79e4f" stop-opacity="0" offset="1"/>
  </linearGradient>
  <linearGradient id="linearGradient2780">
   <stop id="stop2782" stop-color="#fff" offset="0"/>
   <stop id="stop2784" stop-color="#fff" stop-opacity="0" offset="1"/>
  </linearGradient>
  <linearGradient id="linearGradient2713">
   <stop id="stop2715" offset="0"/>
   <stop id="stop2717" stop-color="#fff" offset="1"/>
  </linearGradient>
  <linearGradient id="linearGradient2707" x1="29.614" x2="44.724" y1="52.609" y2="52.609" gradientTransform="matrix(2.1518 0 0 1.7708 -.051304 4.3518)" gradientUnits="userSpaceOnUse" spreadMethod="reflect">
   <stop id="stop2703" stop-color="#a47c44" offset="0"/>
   <stop id="stop2770" stop-color="#baa363" offset=".75"/>
   <stop id="stop2705" stop-color="#d6c795" offset="1"/>
  </linearGradient>
  <linearGradient id="linearGradient2732" x1="29.094" x2="29.094" y1="46.357" y2="47.296" gradientTransform="matrix(2.2188 0 0 1.826 -.051304 -1.0128)" gradientUnits="userSpaceOnUse" spreadMethod="reflect" xlink:href="#linearGradient2713"/>
  <linearGradient id="linearGradient2736" x1="24.261" x2="24.606" y1="44.011" y2="45.888" gradientTransform="matrix(2.2188 0 0 1.826 -.051304 -1.0128)" gradientUnits="userSpaceOnUse" spreadMethod="reflect" xlink:href="#linearGradient2713"/>
  <radialGradient id="radialGradient2811" cx="20.361" cy="22.546" r="15.157" gradientTransform="matrix(.43334 0 0 1.435 6.4099 -.11314)" gradientUnits="userSpaceOnUse" xlink:href="#linearGradient2780"/>
  <radialGradient id="radialGradient2813" cx="20.361" cy="22.546" r="15.157" gradientTransform="matrix(.50007 0 0 1.6752 5.003 -5.1081)" gradientUnits="userSpaceOnUse" xlink:href="#linearGradient2780"/>
  <radialGradient id="radialGradient2815" cx="20.361" cy="22.546" r="15.157" gradientTransform="matrix(.6214 0 0 1.8821 2.3888 -9.4094)" gradientUnits="userSpaceOnUse" xlink:href="#linearGradient2780"/>
  <radialGradient id="radialGradient2869" cx="21.595" cy="8.9814" r="6.0679" gradientTransform="matrix(2.3666 0 0 1.7265 -.40436 8.5703)" gradientUnits="userSpaceOnUse" xlink:href="#linearGradient2834"/>
  <radialGradient id="radialGradient2873" cx="21.595" cy="8.9814" r="6.0679" gradientTransform="matrix(-2.3666 0 0 1.7265 129.12 8.4702)" gradientUnits="userSpaceOnUse" xlink:href="#linearGradient2834"/>
  <linearGradient id="linearGradient2895" x1="33.184" x2="33.184" y1="24.385" y2="-13.17" gradientTransform="matrix(2.1611 0 0 1.8045 -.051304 10.85)" gradientUnits="userSpaceOnUse" xlink:href="#linearGradient2780"/>
  <linearGradient id="linearGradient2935" x1="33.184" x2="33.184" y1="24.385" y2="-13.17" gradientTransform="matrix(2.2102 0 0 1.9643 -1.5159 6.4118)" gradientUnits="userSpaceOnUse" xlink:href="#linearGradient2780"/>
  <linearGradient id="linearGradient2943" x1="38.782" x2="38.782" y1="9.5746" y2="7.5863" gradientTransform="matrix(1.632 0 0 2.4825 -.051304 8.5703)" gradientUnits="userSpaceOnUse" xlink:href="#linearGradient2780"/>
  <linearGradient id="linearGradient2951" x1="38.363" x2="39.724" y1="11.17" y2="6.0918" gradientTransform="matrix(1.6375 0 0 2.4742 -.051304 8.5703)" gradientUnits="userSpaceOnUse" xlink:href="#linearGradient2780"/>
  <radialGradient id="radialGradient2955" cx="21.595" cy="8.9814" r="6.0679" gradientTransform="matrix(3.085 0 0 2.0529 -15.985 5.4338)" gradientUnits="userSpaceOnUse" xlink:href="#linearGradient2834"/>
  <radialGradient id="radialGradient2959" cx="21.595" cy="8.9814" r="6.0679" gradientTransform="matrix(-2.8463 0 0 2.0879 139.53 4.9969)" gradientUnits="userSpaceOnUse" xlink:href="#linearGradient2834"/>
  <radialGradient id="radialGradient3063" cx="8.0178" cy="231.98" r="7.4833" gradientTransform="matrix(7.5313 0 0 .53795 -61.705 14.541)" gradientUnits="userSpaceOnUse" xlink:href="#linearGradient3057"/>
  <radialGradient id="radialGradient3069" cx="8.0178" cy="231.98" r="7.4833" gradientTransform="matrix(7.5313 0 0 .53795 -48.644 17.38)" gradientUnits="userSpaceOnUse" xlink:href="#linearGradient3057"/>
  <radialGradient id="radialGradient3071" cx="8.0178" cy="231.98" r="7.4833" gradientTransform="matrix(7.5313 0 0 .67244 -57.6 -15.945)" gradientUnits="userSpaceOnUse" xlink:href="#linearGradient3057"/>
  <linearGradient id="linearGradient3080" x1="26.974" x2="26.974" y1="68.68" y2="44.981" gradientTransform="matrix(2.1361 0 0 1.826 2.3487 -1.0128)" gradientUnits="userSpaceOnUse" xlink:href="#linearGradient2780"/>
  <linearGradient id="linearGradient3084" x1="35.996" x2="35.996" y1="1.6246" y2="11.711" gradientTransform="matrix(1.632 0 0 2.4361 -.051304 10.593)" gradientUnits="userSpaceOnUse" xlink:href="#linearGradient2780"/>
  <linearGradient id="linearGradient3086" x1="17.682" x2="17.425" y1="60.434" y2="62.78" gradientTransform="matrix(2.2188 0 0 1.826 -.051304 -1.0128)" gradientUnits="userSpaceOnUse" spreadMethod="reflect" xlink:href="#linearGradient2713"/>
 </defs>
 <g id="layer2" transform="translate(61.201 -7.4636)" fill-rule="evenodd">
  <path id="rect2723" d="m64.359 10.583c-20.072 0-36.231 16.159-36.231 36.231v40.257h10.064v-40.257c0-14.496 11.67-26.167 26.167-26.167s26.167 11.67 26.167 26.167v40.257h10.064v-40.257c0-20.072-16.159-36.231-36.231-36.231z" fill="#282828"/>
  <path id="path3082" d="m64.359 13.212c-18.957 0-34.218 16.307-34.218 34.909v37.528c0 14.089 8.7764 26.05 21.26 31.047-8.9449-4.0729-15.222-12.8-15.222-23.147v-47.404c0-14.225 11.67-26.621 26.167-26.621h4.0257c14.496 0 26.167 12.396 26.167 26.621v47.404c0 10.347-6.2771 19.074-15.222 23.147 12.484-4.9976 21.26-16.958 21.26-31.047v-37.528c0-18.602-15.261-34.909-34.218-34.909z" fill="url(#linearGradient3084)" opacity=".65"/>
  <path id="path2931" d="m64.359 11.437c-19.51 0-35.217 15.601-35.217 34.98v39.095c0 14.677 9.0325 27.137 21.881 32.344-9.206-4.2429-15.666-13.334-15.666-24.113v-49.383c0-14.819 12.011-29.082 26.93-29.082h4.1431c14.919 0 26.93 14.263 26.93 29.082v49.383c0 10.779-6.4603 19.87-15.666 24.113 12.848-5.2063 21.881-17.666 21.881-32.344v-39.095c0-19.379-15.707-34.98-35.217-34.98z" fill="url(#linearGradient2951)" opacity=".5"/>
  <path id="path2861" d="m49.471 20.586c-5.4384 3.4052-8.4987 9.2101-7.8995 11.145 0.64564 2.085 4.4667-7.2336 15.283-10.119 8.3406-2.2253-4.93e-4 -5.6487-7.3837-1.0257z" fill="url(#radialGradient2869)" opacity=".8"/>
  <path id="path2871" d="m79.248 20.486c5.4384 3.4052 8.4987 9.2101 7.8995 11.145-0.64564 2.085-4.4667-7.2336-15.283-10.119-8.3406-2.2253 4.93e-4 -5.6487 7.3837-1.0257z" fill="url(#radialGradient2873)" opacity=".8"/>
  <path id="rect2875" d="m64.359 14.862c-18.957 0-34.218 12.995-34.218 31.951v38.244c0 14.358 8.7764 26.546 21.26 31.639-8.9449-4.1505-15.222-13.044-15.222-23.588v-48.308c0-14.496 11.67-26.182 26.167-26.182h4.0257c14.496 0 26.167 11.686 26.167 26.182v48.308c0 10.544-6.2771 19.437-15.222 23.588 12.484-5.0929 21.26-17.281 21.26-31.639v-38.244c0-18.957-15.261-31.951-34.218-31.951z" fill="url(#linearGradient2943)" opacity=".5"/>
  <path id="path2933" d="m64.359 12.622c-26.762 0-32.937 23.315-32.937 33.86 0 31.634 2.0586 31.634 2.0586 0 0-23.199 16.463-32.355 30.879-32.355s30.879 10.103 30.879 32.355c0 31.634 2.0586 31.634 2.0586 0 0-10.545-6.1758-33.86-32.937-33.86z" fill="url(#linearGradient2935)" opacity=".8"/>
  <path id="path2885" d="m64.359 15.674c-26.167 0-32.205 22.3-32.205 31.987 0 29.062 2.0128 29.062 2.0128 0 0-21.312 16.097-30.605 30.192-30.605 14.096 0 30.192 10.162 30.192 30.605 0 29.062 2.0128 29.062 2.0128 0 0-9.6873-6.0385-31.987-32.205-31.987z" fill="url(#linearGradient2895)" opacity=".6"/>
  <path id="path2897" d="m36.98 25.071c-2.8752 5.2482 3.0271 1.9311 4.398 0.27381 3.8539-4.659 10.368-8.0363 16.085-9.1385 4.7947-0.92436 5.5258-2.7757 1.5775-3.0822-7.8721-0.61105-19.304 6.9156-22.061 11.947z" fill="#fff" opacity=".8"/>
  <path id="path2901" d="m32.623 33.739c0.30478 2.5648 5.2635-5.7978 9.1677-9.7237 4.7683-4.7948 11.996-8.1508 15.473-8.5942 6.1984-0.79048 3.2564-3.828-0.62868-3.0606-14.12 2.7892-24.79 14.838-24.013 21.379z" fill="#fff" opacity=".6"/>
  <path id="path2909" d="m91.58 25.035c2.8946 5.2376-3.0199 1.9423-4.3969 0.29-3.871-4.6448-10.397-7.9981-16.119-9.0792-4.7981-0.9067-6.1484-2.7521-2.2013-3.0731 7.8698-0.64003 19.942 6.8412 22.717 11.862z" fill="#fff" opacity=".8"/>
  <path id="path2911" d="m95.798 33.508c-0.29533 2.5659-5.2848-5.7784-9.2035-9.6899-4.786-4.7773-12.026-8.1066-15.505-8.5372-6.2013-0.76765-3.2925-3.6952 0.61676-3.0622 14.142 2.3014 24.845 14.746 24.092 21.289z" fill="#fff" opacity=".6"/>
  <path id="path2953" d="m49.032 19.721c-7.0895 4.049-11.079 10.951-10.298 13.252 0.84166 2.4791 5.8227-8.601 19.923-12.032 10.873-2.6459-6.42e-4 -6.7165-9.6253-1.2196z" fill="url(#radialGradient2955)" opacity=".4"/>
  <path id="path2957" d="m79.54 19.528c6.5408 4.1181 10.221 11.138 9.5008 13.478-0.77652 2.5214-5.3721-8.7479-18.381-12.238-10.031-2.6911 5.92e-4 -6.8312 8.8804-1.2405z" fill="url(#radialGradient2959)" opacity=".4"/>
  <path id="path3055" d="m55.039 139.34c0 2.2233-25.233 4.0256-56.359 4.0256-31.126 0-56.359-1.8024-56.359-4.0256 0-2.2233 25.233-4.0256 56.359-4.0256 31.126 0 56.359 1.8023 56.359 4.0256z" fill="url(#radialGradient3063)" opacity=".4"/>
  <path id="path3065" d="m59.144 140.05c0 2.7791-25.233 5.0321-56.359 5.0321-31.126 0-56.359-2.2529-56.359-5.0321 0-2.7791 25.233-5.0321 56.359-5.0321 31.126 0 56.359 2.2529 56.359 5.0321z" fill="url(#radialGradient3071)" opacity=".4"/>
  <path id="path3067" d="m68.1 142.17c0 2.2233-25.233 4.0257-56.359 4.0257-31.126 0-56.359-1.8024-56.359-4.0257 0-2.2233 25.233-4.0256 56.359-4.0256 31.126 0 56.359 1.8024 56.359 4.0256z" fill="url(#radialGradient3069)" opacity=".4"/>
 </g>
 <g id="layer1" transform="translate(0 8.5831)" fill-rule="evenodd">
  <rect id="rect1941" x="24.103" y="57.359" width="80.513" height="66.259" rx=".5" ry=".5" fill="url(#linearGradient2707)"/>
  <rect id="rect2709" x="24.103" y="57.359" width="80.513" height="66.259" rx=".5" ry=".5" fill="url(#linearGradient2732)" opacity=".03"/>
  <rect id="rect2734" x="24.103" y="57.359" width="80.513" height="66.259" rx=".5" ry=".5" fill="url(#linearGradient2736)" opacity=".03"/>
  <rect id="rect2738" x="24.103" y="57.359" width="80.513" height="66.259" rx=".5" ry=".5" fill="url(#linearGradient3086)" opacity=".03"/>
  <path id="path2727" d="m26.619 57.359c1.8101 2.1216 18.145 3.7862 38.655 3.7862 20.229 0 36.293-1.6472 38.484-3.7271-0.03083-0.003219-0.02551-0.059159-0.05719-0.059159h-77.082z" fill="#fff" opacity=".5"/>
  <g id="g2798" transform="matrix(1.7195 0 0 1.9816 4.4209 1.4876)">
   <path id="path2778" d="m13.971 30.767c-0.43954 2.6295-0.93088 19.309 0.69644 22.88 1.5919 3.4933 1.3929-16.667 5.2731-19.84 3.9212-3.2069-5.5549-5.52-5.9695-3.04z" fill="url(#radialGradient2811)" opacity=".40278"/>
   <path id="path2790" d="m13.729 30.942c-0.50723 3.0697-1.0742 22.541 0.80369 26.71 1.837 4.0782 1.6074-19.457 6.0851-23.161 4.525-3.7437-6.4104-6.4441-6.8888-3.5489z" fill="url(#radialGradient2813)" opacity=".3"/>
   <path id="path2794" d="m13.232 31.092c-0.6303 3.4488-1.3349 25.325 0.99868 30.009 2.2827 4.5818 1.9974-21.86 7.5615-26.022 5.6229-4.206-7.9657-7.2399-8.5601-3.9872z" fill="url(#radialGradient2815)" opacity=".2"/>
  </g>
  <g id="g2803" transform="matrix(-1.7195 0 0 1.9816 124.3 1.4876)">
   <path id="path2805" d="m13.971 30.767c-0.43954 2.6295-0.93088 19.309 0.69644 22.88 1.5919 3.4933 1.3929-16.667 5.2731-19.84 3.9212-3.2069-5.5549-5.52-5.9695-3.04z" fill="url(#radialGradient2811)" opacity=".40278"/>
   <path id="path2807" d="m13.729 30.942c-0.50723 3.0697-1.0742 22.541 0.80369 26.71 1.837 4.0782 1.6074-19.457 6.0851-23.161 4.525-3.7437-6.4104-6.4441-6.8888-3.5489z" fill="url(#radialGradient2813)" opacity=".3"/>
   <path id="path2809" d="m13.232 31.092c-0.6303 3.4488-1.3349 25.325 0.99868 30.009 2.2827 4.5818 1.9974-21.86 7.5615-26.022 5.6229-4.206-7.9657-7.2399-8.5601-3.9872z" fill="url(#radialGradient2815)" opacity=".2"/>
  </g>
  <path id="rect3077" d="m103.12 114.72v7.8872c0 0.55755-0.43214 1.0064-0.96891 1.0064h-75.575c-0.53678 0-0.96891-0.44886-0.96891-1.0064v-28.015c0 29.517 77.513-20.879 77.513 20.128z" fill="url(#linearGradient3080)" opacity=".25"/>
  <path id="path2768" d="m25.647 123.62c1.8101-2.1216 18.145-3.7862 38.655-3.7862 20.229 0 36.293 1.6472 38.484 3.7271-0.03083 0.00322-0.0255 0.05916-0.05718 0.05916h-77.082z" opacity=".5"/>
 </g>
</svg>
