<?xml version="1.0" encoding="UTF-8"?>
<!-- Created with Inkscape (http://www.inkscape.org/) -->
<svg id="svg2" width="300.04" height="379.68" version="1.0" xmlns="http://www.w3.org/2000/svg" xmlns:cc="http://creativecommons.org/ns#" xmlns:dc="http://purl.org/dc/elements/1.1/" xmlns:rdf="http://www.w3.org/1999/02/22-rdf-syntax-ns#" xmlns:xlink="http://www.w3.org/1999/xlink">
 <defs id="defs3">
  <linearGradient id="linearGradient7345" x1="628.57" x2="1075.7" y1="488.79" y2="488.79" gradientUnits="userSpaceOnUse">
   <stop id="stop7321" offset="0"/>
   <stop id="stop7337" stop-opacity=".49804" offset=".18966"/>
   <stop id="stop7323" stop-opacity="0" offset="1"/>
  </linearGradient>
 </defs>
 <metadata id="metadata6">
  <rdf:RDF>
   <cc:Work rdf:about="">
    <dc:format>image/svg+xml</dc:format>
    <dc:type rdf:resource="http://purl.org/dc/dcmitype/StillImage"/>
    <dc:title>pracka</dc:title>
    <dc:creator>
     <cc:Agent>
      <dc:title/>
     </cc:Agent>
    </dc:creator>
    <dc:publisher>
     <cc:Agent>
      <dc:title>ZS a MS Machovo nam.</dc:title>
     </cc:Agent>
    </dc:publisher>
    <dc:language>cz</dc:language>
    <dc:subject>
     <rdf:Bag>
      <rdf:li>pracka</rdf:li>
      <rdf:li>washer</rdf:li>
     </rdf:Bag>
    </dc:subject>
    <cc:license rdf:resource="http://creativecommons.org/licenses/publicdomain/"/>
   </cc:Work>
   <cc:License rdf:about="http://creativecommons.org/licenses/publicdomain/">
    <cc:permits rdf:resource="http://creativecommons.org/ns#Reproduction"/>
    <cc:permits rdf:resource="http://creativecommons.org/ns#Distribution"/>
    <cc:permits rdf:resource="http://creativecommons.org/ns#DerivativeWorks"/>
   </cc:License>
  </rdf:RDF>
 </metadata>
 <g id="layer1" transform="translate(-59.172 -545.71)">
  <g id="g7361" transform="matrix(.46372 0 0 .46372 -350.5 520.63)">
   <path id="path1965" d="m985.71 153.79 542.86-18.571 1.4286 690-544.29 47.143v-718.57z" fill="#81848b" fill-rule="evenodd" stroke="#000" stroke-width="1px"/>
   <path id="path1967" d="m985.71 153.08 138.57-3.5714 77.857-2.1428 148.57-7.1429h15l163.21-5-0.3572 107.86-115 10.714-90 5.7143-154.29 5.7143-183.57 5v-117.14z" fill="#81848b" fill-rule="evenodd" stroke="#000" stroke-width="1px"/>
   <path id="path1969" d="m1045 196.65-13.571-0.71428 5.7143 17.143 17.857 15.714 23.571 12.143 298.57 1.4286-3.5715-4.2857-194.29-3.5714-43.571-4.2857-32.857-11.429-44.286-15-13.571-7.1429z" fill="#040005" fill-rule="evenodd" stroke="#000" stroke-width="1px"/>
   <path id="path1971" d="m1031.1 196.29-7.1428 4.6429-0.7143 16.071 6.4286 10.714 18.571 20.714 7.8571 2.5 152.5-4.2857 54.643-4.6429-47.143-0.35714-70.357-1.4286-67.143 1.0714-23.571-12.143-18.214-17.143-5.7143-15.714z" fill="#f9f4fb" fill-rule="evenodd" stroke="#000" stroke-width="1px"/>
   <path id="path1973" transform="translate(831.43 -45.714)" d="m245.36 229.33a9.4643 7.6786 0 1 1-18.929 0 9.4643 7.6786 0 1 1 18.929 0z" fill="#292929"/>
   <path id="path1975" d="m1198.9 207.01v-9.6428l18.571-7.8572 28.571-6.7857 25-0.71429 46.429 0.35715 18.929 3.2143 12.857 5-7.1428 10.714-15 11.429-23.572 2.1429-30.714 1.0714-39.286-0.35715-21.428 0.35715-13.214-8.9286z" fill="#f8f7fd" fill-rule="evenodd" stroke="#000" stroke-width="1px"/>
   <path id="path1977" d="m1209.5 204.51 17.679-1e-5 -1.0715-4.6428-17.857 0.35714 1.4286 5-0.1786-0.71428z" fill="#030000" fill-rule="evenodd" stroke="#000" stroke-width="1px"/>
   <path id="path1979" transform="translate(831.43 -45.714)" d="m445.71 247.01a10.089 7.6786 0 1 1-20.179 0 10.089 7.6786 0 1 1 20.179 0z" fill="#030000"/>
   <path id="path1981" transform="translate(878.57 -47.143)" d="m445.71 247.01a10.089 7.6786 0 1 1-20.179 0 10.089 7.6786 0 1 1 20.179 0z" fill="#030000"/>
   <path id="path1983" transform="translate(855.18 -46.429)" d="m445.71 247.01a10.089 7.6786 0 1 1-20.179 0 10.089 7.6786 0 1 1 20.179 0z" fill="#030000"/>
   <path id="path1985" transform="translate(829.29 -45.357)" d="m583.93 238.97a18.929 19.107 0 1 1-37.857 0 18.929 19.107 0 1 1 37.857 0z" fill="#55595a" stroke="#7f6f6f" stroke-width="2.3"/>
   <path id="path1987" transform="translate(831.43 -48.929)" d="m660.71 242.01a22.321 25.357 0 1 1-44.643 0 22.321 25.357 0 1 1 44.643 0z" fill="#55595a" stroke="#888282" stroke-width="2.3"/>
   <path id="path3759" d="m1446.1 177.36 7.5-7.8572 6.7857-3.9286-3.9285-7.5-7.5 1.0714-8.2143 8.5714-3.5714 6.4286 8.9285 3.2143z" fill="#bbc387" fill-rule="evenodd" stroke="#000" stroke-width="1px"/>
   <path id="path3761" d="m1393 160.93 0.3572 8.0357 9.2857 0.35714 6.6071 2.5 5.8929 5.8929 2.6785 4.2857 0.8929 7.6786 0.8929 5.5357-0.3572 4.6429-3.3928 5.5357-6.25 7.6786-6.6072 2.1429-8.3928 0.35714-0.1786 7.6786h10.357l5.7143-2.6786 7.3214-5.3571 5.5358-8.3929 3.2142-8.5714 0.1786-12.5-1.4286-6.7857-5.3571-6.0714-7.3214-7.8571-9.8215-3.75-9.8214-0.35714z" fill="#fefeff" fill-rule="evenodd" stroke="#000" stroke-width="1px"/>
   <path id="path3763" d="m1468.2 161.83-0.7143-11.071 12.857 0.17857 8.75 2.1429 8.5715 5.3571 6.25 5.3572 4.8214 6.25 3.0357 6.9643 1.6072 8.2143 1.0714 6.0714-0.3572 5.8928-0.7142 5.5357-1.25 9.4643-5 8.75-7.5 8.2143-10.893 5.5357-10.179 2.5-6.4285 0.35715-0.5358-11.071 14.643-3.5714 11.964-12.5 2.1428-19.286-7.1428-17.857-10.536-8.9286-7.1429-2.5h-7.3214z" fill="#fefeff" fill-rule="evenodd" stroke="#000" stroke-width="1px"/>
   <g id="g7339" transform="matrix(.85942 0 0 .85836 884.01 12.873)">
    <g id="g5539" transform="matrix(1 -.089457 0 1 -417.14 101.94)">
     <path id="path4652" transform="matrix(1.061 0 0 1.0725 290.56 -85.242)" d="m740 535.22a210.71 187.14 0 1 1-421.43 0 210.71 187.14 0 1 1 421.43 0z" fill="#030207"/>
     <path id="path3765" transform="translate(322.86 -48.571)" d="m740 535.22a210.71 187.14 0 1 1-421.43 0 210.71 187.14 0 1 1 421.43 0z" fill="#7a7883" stroke="#f9f6f6" stroke-width="5.6"/>
    </g>
    <path id="path5547" transform="matrix(.74922 -.065345 0 .73047 39.163 154.56)" d="m740 535.22a210.71 187.14 0 1 1-421.43 0 210.71 187.14 0 1 1 421.43 0z" fill="url(#linearGradient7345)" stroke="#f9f6f6" stroke-width="5.6"/>
   </g>
   <path id="path7347" d="m985.48 870.78-96.47-121.72-3.5355-647 99.5 51.013 0.50507 717.71z" fill="#6f6f6d" fill-rule="evenodd" stroke="#000" stroke-width="1px"/>
   <path id="path7349" d="m985.36 153.08 1.0714-33.214-88.571-45-12.857-6.4286 0.71429 32.857 99.643 51.786z" fill="#b7b9b8" fill-rule="evenodd" stroke="#000" stroke-width="1px"/>
   <path id="path7351" d="m986.49 120.24 517.2-17.173h18.183l7.0711 6.0609 1.0102 11.617v13.637l-177.79 5.5558-132.33 6.0609-136.37 3.0305-97.985 3.5355 1.0102-32.325z" fill="#f8f9fb" fill-rule="evenodd" stroke="#000" stroke-width="1px"/>
   <path id="path7353" d="m987.5 120.24-103.54-52.528 481.34-13.132 156.57 48.487-103.54 3.5355-202.54 6.566-228.29 7.0711z" fill="#b7b9b8" fill-rule="evenodd" stroke="#000" stroke-width="1px"/>
   <path id="path7355" d="m933.96 167.98 1.8535 601.62-6.4874-21.435-3.7071-593.04 8.3409 12.861z" fill="#fafcfd" fill-rule="evenodd" stroke="#000" stroke-width=".80557px"/>
   <path id="path7357" d="m908.25 143.55 1.8543 594.63-6.4902-21.186-3.7087-586.16 8.3446 12.712z" fill="#fafcfd" fill-rule="evenodd" stroke="#000" stroke-width=".80105px"/>
   <path id="path7359" d="m958.84 134.7 0.63783-21.312-52.728-28.874-7.654-4.1248 0.42523 21.083 59.319 33.228z" fill="#040005" fill-rule="evenodd" stroke="#000" stroke-width=".61805px"/>
  </g>
 </g>
</svg>
