<?xml version="1.0" encoding="UTF-8"?>
<!-- Created with Inkscape (http://www.inkscape.org/) -->
<svg id="svg2" width="128" height="128" version="1.0" xmlns="http://www.w3.org/2000/svg" xmlns:cc="http://creativecommons.org/ns#" xmlns:dc="http://purl.org/dc/elements/1.1/" xmlns:rdf="http://www.w3.org/1999/02/22-rdf-syntax-ns#" xmlns:xlink="http://www.w3.org/1999/xlink">
 <defs id="defs4">
  <linearGradient id="linearGradient2338">
   <stop id="stop2340" stop-color="#b1b1b1" offset="0"/>
   <stop id="stop2342" stop-color="#e4e4e4" offset="1"/>
  </linearGradient>
  <linearGradient id="linearGradient2320">
   <stop id="stop2322" stop-color="#6a3c1d" offset="0"/>
   <stop id="stop2324" stop-color="#8f5127" offset="1"/>
  </linearGradient>
  <linearGradient id="linearGradient2954">
   <stop id="stop2956" stop-color="#00a100" offset="0"/>
   <stop id="stop2958" stop-color="#00f500" offset="1"/>
  </linearGradient>
  <linearGradient id="linearGradient2408" x1="33.88" x2="51.493" y1="77.364" y2="18.288" gradientTransform="translate(3.1135 -.34595)" gradientUnits="userSpaceOnUse" xlink:href="#linearGradient2954"/>
  <linearGradient id="linearGradient2412" x1="92.956" x2="91.488" y1="55.776" y2="27.4" gradientTransform="translate(3.1135 -.34595)" gradientUnits="userSpaceOnUse" xlink:href="#linearGradient2954"/>
  <linearGradient id="linearGradient3415">
   <stop id="stop3417" stop-color="#1a1a1a" offset="0"/>
   <stop id="stop3419" stop-color="#2b2b2b" offset="1"/>
  </linearGradient>
  <linearGradient id="linearGradient2842" x1="59.589" x2="59.286" y1="66.378" y2="60.93" gradientTransform="translate(3.1135 -.34595)" gradientUnits="userSpaceOnUse" xlink:href="#linearGradient2338"/>
  <linearGradient id="linearGradient2846" x1="65.168" x2="49.989" y1="58.551" y2="62.486" gradientTransform="translate(3.1135 -.34595)" gradientUnits="userSpaceOnUse" xlink:href="#linearGradient2338"/>
  <linearGradient id="linearGradient2850" x1="72.216" x2="68.195" y1="70.4" y2="71.697" gradientTransform="translate(3.1135 -.34595)" gradientUnits="userSpaceOnUse" xlink:href="#linearGradient2338"/>
  <linearGradient id="linearGradient2854" x1="67.762" x2="65.168" y1="75.892" y2="75.632" gradientTransform="translate(3.1135 -.34595)" gradientUnits="userSpaceOnUse" xlink:href="#linearGradient2338"/>
  <linearGradient id="linearGradient2860" x1="49.557" x2="44.843" y1="80.995" y2="81.081" gradientTransform="translate(3.1135 -.34595)" gradientUnits="userSpaceOnUse" xlink:href="#linearGradient2338"/>
  <linearGradient id="linearGradient2864" x1="44.022" x2="43.157" y1="79.438" y2="79.351" gradientTransform="translate(3.1135 -.34595)" gradientUnits="userSpaceOnUse" xlink:href="#linearGradient2338"/>
  <linearGradient id="linearGradient3392">
   <stop id="stop3394" stop-color="#4a585b" offset="0"/>
   <stop id="stop3396" stop-color="#5e7074" offset="1"/>
  </linearGradient>
  <linearGradient id="linearGradient3098" x1="59.762" x2="65.038" y1="68.714" y2="82.595" gradientTransform="translate(3.1135 -.34595)" gradientUnits="userSpaceOnUse" xlink:href="#linearGradient3392"/>
  <linearGradient id="linearGradient3103" x1="51.762" x2="51.827" y1="70.097" y2="75.503" gradientTransform="translate(3.1135 -.34595)" gradientUnits="userSpaceOnUse" xlink:href="#linearGradient3392"/>
  <linearGradient id="linearGradient3107" x1="51.978" x2="50.162" y1="116.28" y2="116.89" gradientTransform="translate(3.1135 -.34595)" gradientUnits="userSpaceOnUse" xlink:href="#linearGradient2320"/>
  <linearGradient id="linearGradient3112" x1="51.978" x2="50.162" y1="116.28" y2="116.89" gradientTransform="translate(9.0378 -1.427)" gradientUnits="userSpaceOnUse" xlink:href="#linearGradient2320"/>
  <linearGradient id="linearGradient3116" x1="51.978" x2="50.162" y1="116.28" y2="116.89" gradientTransform="translate(14.832 -2.5081)" gradientUnits="userSpaceOnUse" xlink:href="#linearGradient2320"/>
  <linearGradient id="linearGradient3120" x1="51.978" x2="50.162" y1="116.28" y2="116.89" gradientTransform="translate(23.827 -4.4108)" gradientUnits="userSpaceOnUse" xlink:href="#linearGradient2320"/>
  <linearGradient id="linearGradient3124" x1="51.978" x2="50.162" y1="116.28" y2="116.89" gradientTransform="translate(19.935 -3.0703)" gradientUnits="userSpaceOnUse" xlink:href="#linearGradient2320"/>
  <linearGradient id="linearGradient3128" x1="51.978" x2="50.162" y1="116.28" y2="116.89" gradientTransform="translate(29.362 -5.4486)" gradientUnits="userSpaceOnUse" xlink:href="#linearGradient2320"/>
  <linearGradient id="linearGradient3132" x1="51.978" x2="50.162" y1="116.28" y2="116.89" gradientTransform="translate(35.114 -6.573)" gradientUnits="userSpaceOnUse" xlink:href="#linearGradient2320"/>
  <linearGradient id="linearGradient3136" x1="51.978" x2="50.162" y1="116.28" y2="116.89" gradientTransform="translate(41.859 -7.9568)" gradientUnits="userSpaceOnUse" xlink:href="#linearGradient2320"/>
  <linearGradient id="linearGradient3140" x1="51.978" x2="50.162" y1="116.28" y2="116.89" gradientTransform="translate(47.957 -8.9081)" gradientUnits="userSpaceOnUse" xlink:href="#linearGradient2320"/>
  <linearGradient id="linearGradient3144" x1="51.978" x2="50.162" y1="116.28" y2="116.89" gradientTransform="translate(53.881 -9.9459)" gradientUnits="userSpaceOnUse" xlink:href="#linearGradient2320"/>
  <linearGradient id="linearGradient3148" x1="51.978" x2="50.162" y1="116.28" y2="116.89" gradientTransform="translate(59.762 -10.897)" gradientUnits="userSpaceOnUse" xlink:href="#linearGradient2320"/>
  <linearGradient id="linearGradient3152" x1="51.978" x2="50.162" y1="116.28" y2="116.89" gradientTransform="translate(65.686 -11.849)" gradientUnits="userSpaceOnUse" xlink:href="#linearGradient2320"/>
  <linearGradient id="linearGradient3156" x1="69.924" x2="70.097" y1="97.73" y2="98.378" gradientTransform="translate(3.1135 -.34595)" gradientUnits="userSpaceOnUse" xlink:href="#linearGradient2320"/>
  <linearGradient id="linearGradient3160" x1="69.924" x2="70.097" y1="97.73" y2="98.378" gradientTransform="translate(7.6108 3.0703)" gradientUnits="userSpaceOnUse" xlink:href="#linearGradient2320"/>
  <linearGradient id="linearGradient3168" x1="69.924" x2="70.097" y1="97.73" y2="98.378" gradientTransform="translate(2.2486 -3.7622)" gradientUnits="userSpaceOnUse" xlink:href="#linearGradient2320"/>
  <linearGradient id="linearGradient3172" x1="69.924" x2="70.097" y1="97.73" y2="98.378" gradientTransform="translate(.60541 -6.6595)" gradientUnits="userSpaceOnUse" xlink:href="#linearGradient2320"/>
  <linearGradient id="linearGradient3176" x1="69.881" x2="70.054" y1="97.946" y2="98.638" gradientTransform="translate(-2.1189 -10.335)" gradientUnits="userSpaceOnUse" xlink:href="#linearGradient2320"/>
  <linearGradient id="linearGradient3181" x1="69.881" x2="70.054" y1="97.946" y2="98.638" gradientTransform="translate(-3.8486 -12.562)" gradientUnits="userSpaceOnUse" xlink:href="#linearGradient2320"/>
  <linearGradient id="linearGradient3185" x1="69.859" x2="70.054" y1="97.989" y2="98.638" gradientTransform="translate(-5.5784 -15.2)" gradientUnits="userSpaceOnUse" xlink:href="#linearGradient2320"/>
  <linearGradient id="linearGradient3189" x1="69.859" x2="70.054" y1="97.989" y2="98.638" gradientTransform="translate(-6.8757 -17.297)" gradientUnits="userSpaceOnUse" xlink:href="#linearGradient2320"/>
  <linearGradient id="linearGradient3195" x1="64.973" x2="65.232" y1="99.005" y2="99.849" gradientTransform="translate(-7.6973 -19.849)" gradientUnits="userSpaceOnUse" xlink:href="#linearGradient2320"/>
  <linearGradient id="linearGradient3199" x1="52.238" x2="52.411" y1="77.47" y2="78.076" gradientTransform="translate(3.1135 -.34595)" gradientUnits="userSpaceOnUse" xlink:href="#linearGradient2320"/>
  <linearGradient id="linearGradient3203" x1="52.238" x2="52.411" y1="77.47" y2="78.076" gradientTransform="translate(2.4 -1.8811)" gradientUnits="userSpaceOnUse" xlink:href="#linearGradient2320"/>
  <linearGradient id="linearGradient3207" x1="65.805" x2="65.982" y1="108.2" y2="108.97" gradientTransform="translate(3.1135 -.34595)" gradientUnits="userSpaceOnUse" xlink:href="#linearGradient3415"/>
  <linearGradient id="linearGradient3211" x1="65.805" x2="66.026" y1="108.6" y2="109.81" gradientTransform="translate(5.5884 8.0068)" gradientUnits="userSpaceOnUse" xlink:href="#linearGradient3415"/>
  <linearGradient id="linearGradient3215" x1="59.971" x2="57.364" y1="89.109" y2="90.081" gradientTransform="translate(3.1135 -.34595)" gradientUnits="userSpaceOnUse" xlink:href="#linearGradient3415"/>
  <linearGradient id="linearGradient3219" x1="75.97" x2="74.777" y1="111.69" y2="111.07" gradientTransform="translate(3.1135 -.34595)" gradientUnits="userSpaceOnUse" xlink:href="#linearGradient3415"/>
  <linearGradient id="linearGradient3223" x1="66.424" x2="65.584" y1="88.137" y2="88.844" gradientTransform="translate(3.1135 -.34595)" gradientUnits="userSpaceOnUse" xlink:href="#linearGradient3415"/>
  <linearGradient id="linearGradient3227" x1="58.248" x2="54.182" y1="79.21" y2="89.198" gradientTransform="translate(3.1135 -.34595)" gradientUnits="userSpaceOnUse">
   <stop id="stop3407" stop-color="#4f3e2a" offset="0"/>
   <stop id="stop3409" stop-color="#72593c" offset="1"/>
  </linearGradient>
  <linearGradient id="linearGradient3231" x1="87.725" x2="90.731" y1="93.396" y2="107.36" gradientTransform="translate(3.1135 -.34595)" gradientUnits="userSpaceOnUse" xlink:href="#linearGradient3392"/>
  <linearGradient id="linearGradient3235" x1="102.97" x2="112.39" y1="102.06" y2="92.954" gradientTransform="translate(3.1135 -.34595)" gradientUnits="userSpaceOnUse" xlink:href="#linearGradient3392"/>
  <linearGradient id="linearGradient3239" x1="94.001" x2="101.78" y1="95.208" y2="84.204" gradientTransform="translate(3.1135 -.34595)" gradientUnits="userSpaceOnUse" xlink:href="#linearGradient3392"/>
  <linearGradient id="linearGradient3243" x1="94.797" x2="99.349" y1="112.44" y2="105.24" gradientTransform="translate(3.1135 -.34595)" gradientUnits="userSpaceOnUse" xlink:href="#linearGradient3415"/>
  <linearGradient id="linearGradient3247" x1="95.327" x2="100.28" y1="110.54" y2="101.66" gradientTransform="translate(3.1135 -.34595)" gradientUnits="userSpaceOnUse" xlink:href="#linearGradient3392"/>
  <linearGradient id="linearGradient3251" x1="95.813" x2="98.111" y1="108.95" y2="106.43" gradientTransform="translate(3.1135 -.34595)" gradientUnits="userSpaceOnUse" xlink:href="#linearGradient3415"/>
  <linearGradient id="linearGradient3259" x1="94.797" x2="99.349" y1="112.44" y2="105.24" gradientTransform="translate(19.289 -3.5279)" gradientUnits="userSpaceOnUse" xlink:href="#linearGradient3415"/>
  <linearGradient id="linearGradient3261" x1="95.327" x2="100.28" y1="110.54" y2="101.66" gradientTransform="translate(19.289 -3.5279)" gradientUnits="userSpaceOnUse" xlink:href="#linearGradient3392"/>
  <linearGradient id="linearGradient3263" x1="95.813" x2="98.111" y1="108.95" y2="106.43" gradientTransform="translate(19.289 -3.5279)" gradientUnits="userSpaceOnUse" xlink:href="#linearGradient3415"/>
  <linearGradient id="linearGradient3267" x1="85.03" x2="87.328" y1="101.93" y2="100.62" gradientTransform="translate(3.1135 -.34595)" gradientUnits="userSpaceOnUse" xlink:href="#linearGradient3392"/>
  <linearGradient id="linearGradient3271" x1="98.42" x2="100.85" y1="91.142" y2="81.287" gradientTransform="translate(3.1135 -.34595)" gradientUnits="userSpaceOnUse" xlink:href="#linearGradient3415"/>
  <filter id="filter3963">
   <feGaussianBlur id="feGaussianBlur3965" stdDeviation="0.45217738"/>
  </filter>
 </defs>
 <metadata id="metadata7">
  <rdf:RDF>
   <cc:Work rdf:about="">
    <dc:format>image/svg+xml</dc:format>
    <dc:type rdf:resource="http://purl.org/dc/dcmitype/StillImage"/>
   </cc:Work>
  </rdf:RDF>
 </metadata>
 <g id="layer2" fill-rule="evenodd">
  <path id="path2406" d="m5.5597 53.534 8.1948-7.2163 6.6048-4.4032s7.9502-4.5255 10.763-5.9932c2.8131-1.4677 6.8494-5.2593 6.8494-5.2593l4.2809-2.8131 8.4394-3.7916 8.5617 3.6693 17.98 9.9071 3.7916 4.6478 9.1733 9.051 2.8131 3.547 8.1948 7.3386 4.4032 5.7486c-5.1517 12.829-17.881 12.895-28.865 15.9-8.4542 9.4984-22.831 14.096-40.729 15.778-7.0597 3.3175-12.8-0.62344-18.591-4.2809-4.324-4.5273-10.853-7.911-6.8494-16.757-3.4695-7.5519-10.336-13.581-5.0147-25.074z" fill="url(#linearGradient2408)"/>
  <path id="path3225" d="m53.937 89.559-0.13258-17.192 1.9887 2.6075 14.142 7.734 1.37 2.5633-2.0329 0.66291-9.4576 2.0771-5.8778 1.5468z" fill="url(#linearGradient3227)"/>
  <path id="path2410" d="m80.291 41.058 3.9139-2.3239 6.4824-5.7486 8.8063 4.1586 11.008 4.1586 3.4247 7.4609 3.547 5.3817c-2.1324 5.1009-2.3356 11.468-14.433 10.029l-7.8279-7.3386-2.9354-2.9354-2.4462-3.3024c-3.8816-2.9796-7.8756-5.9272-9.5402-9.5402z" fill="url(#linearGradient2412)"/>
  <path id="path2840" d="m47.135 63.957 28.757-6.573 0.17297 6.0108-28.541 6.4865s-0.3027-0.12973-0.34595-0.3027-0.086487-5.7081-0.043243-5.6216z" fill="url(#linearGradient2842)"/>
  <path id="path2844" d="m47.265 64.043c-0.12973-0.21622-1.0378-0.99459-1.0378-0.99459l26.854-6.2703 2.4649 0.64865-28.497 6.573 0.21622 0.043243z" fill="url(#linearGradient2846)"/>
  <path id="path2848" d="m71.308 64.476 0.12973 20.843 4.9297-1.6432-0.21622-20.411-4.8432 1.2108z" fill="url(#linearGradient2850)"/>
  <path id="path2852" d="m69.838 64.822 1.427-0.3027 0.25946 20.714-1.6432-2.5081-0.043244-17.903z" fill="url(#linearGradient2854)"/>
  <path id="path2858" d="m47.524 69.751 6.4432-1.3838 0.086487 21.276-6.4 1.3405-0.12973-21.232z" fill="url(#linearGradient2860)"/>
  <path id="path2862" d="m46.184 63.005 1.0811 0.86486v5.7514l0.25946 0.12973 0.3027 21.103-0.64865-0.12973-1.0811-0.64865-0.086487-26.249 0.17297-0.82162z" fill="url(#linearGradient2864)"/>
  <path id="path3096" d="m55.741 68.022 0.086487 7.0054 14.184 7.7838 0.043244-18.076-14.314 3.2865z" fill="url(#linearGradient3098)"/>
  <path id="path3101" d="m53.838 72.346 0.043244-3.9784 2.1622-0.38919-0.38919 6.7892-1.8162-2.4216z" fill="url(#linearGradient3103)"/>
  <path id="path3105" d="m49.47 109.1 2.9405-0.17297 6.6162 13.492-3.8054 0.86486-5.7514-14.184z" fill="url(#linearGradient3107)"/>
  <path id="path3110" d="m55.395 108.02 2.9405-0.17297 6.3135 12.8-3.7622 0.95134-5.4919-13.578z" fill="url(#linearGradient3112)"/>
  <path id="path3114" d="m61.189 106.94 2.9405-0.17297 6.6162 13.492-3.8054 0.86486-5.7514-14.184z" fill="url(#linearGradient3116)"/>
  <path id="path3118" d="m70.184 105.04 2.9405-0.17297 6.6162 13.492-3.8054 0.86486-5.7514-14.184z" fill="url(#linearGradient3120)"/>
  <path id="path3122" d="m68.022 110.92 2.2486-0.56216 2.0324 5.0162-2.1622 0.6054-2.1189-5.0595z" fill="url(#linearGradient3124)"/>
  <path id="path3126" d="m79.957 112.48 2.2486-0.47568 0.90811 1.7297-2.1622 0.47567-0.99459-1.7297z" fill="url(#linearGradient3128)"/>
  <path id="path3130" d="m81.427 103.05 2.9838-0.34594 6.6162 13.492-4.1514 0.69189-5.4486-13.838z" fill="url(#linearGradient3132)"/>
  <path id="path3134" d="m89.211 104.65 2.1162-0.24385 1.6027 0.8925 4.8432 9.5135-3.8054 0.86486-4.7568-11.027z" fill="url(#linearGradient3136)"/>
  <path id="path3138" d="m99.546 113.6 3.7189-0.77838 0.60541 1.0378-3.8054 0.86486-0.51891-1.1243z" fill="url(#linearGradient3140)"/>
  <path id="path3142" d="m104.39 110.57c0.85594-1.5972 1.7292-3.1858 1.6865-5.2324l3.7189 7.4811-3.8054 0.86486-1.6-3.1135z" fill="url(#linearGradient3144)"/>
  <path id="path3146" d="m108.93 105.34 2.0324-0.43243c2.3156 2.0416 3.219 4.6127 4.7135 6.9622l-3.8054 0.86486-2.9405-7.3946z" fill="url(#linearGradient3148)"/>
  <path id="path3150" d="m117.28 110.49 2.8108-2.2486 1.1243 2.6811-3.4162 0.86486-0.51892-1.2973z" fill="url(#linearGradient3152)"/>
  <path id="path3154" d="m66.465 98.119 12.714-2.5514 1.3405 1.9027-13.968 3.027-0.086487-2.3784z" fill="url(#linearGradient3156)"/>
  <path id="path3158" d="m70.962 101.54 5.8811-1.427 0.95135 2.3784-6.9622 1.0378 0.12973-1.9892z" fill="url(#linearGradient3160)"/>
  <path id="path3166" d="m64.432 95.438 12.324-3.2432 1.0378 1.8162-12.108 3.0703-1.2541-1.6432z" fill="url(#linearGradient3168)"/>
  <path id="path3170" d="m62.789 92.541 10.508-2.9838 1.6432 1.9027-10.897 2.7243-1.2541-1.6432z" fill="url(#linearGradient3172)"/>
  <path id="path3174" d="m60.065 88.865 10.162-2.2486 1.7297 2.0757-10.292 2.1622-1.6-1.9892z" fill="url(#linearGradient3176)"/>
  <path id="path3179" d="m58.335 86.638 9.1676-2.2919 1.7081 1.773-9.3189 1.773-1.5568-1.2541z" fill="url(#linearGradient3181)"/>
  <path id="path3183" d="m56.605 84 7.8703-1.7081 1.8162 1.4703-8.2811 1.7297-1.4054-1.4919z" fill="url(#linearGradient3185)"/>
  <path id="path3187" d="m55.308 81.903 6.7027-2.0108 1.7297 1.7514-7.2432 1.6432-1.1892-1.3838z" fill="url(#linearGradient3189)"/>
  <path id="path3191" d="m54.486 79.351 4.9514-1.1243 1.6432 1.3405-5.8378 1.7081-0.75676-1.9243z" fill="url(#linearGradient3195)"/>
  <path id="path3197" d="m54.443 77.232 2.5081-0.90811 0.92973 1.1243-2.9405 0.75676-0.4973-0.97297z" fill="url(#linearGradient3199)"/>
  <path id="path3201" d="m53.73 75.697 1.4919-0.4973 0.64865 0.4973-1.7297 0.73513-0.41081-0.73514z" fill="url(#linearGradient3203)"/>
  <path id="path3205" d="m46.676 112.15 39.562-9.0625 3.5 1.6875-42.562 9.375-0.5-2z" fill="url(#linearGradient3207)"/>
  <path id="path3209" d="m49.151 120.51 71.824-12.598 0.67157 1.7759-72.482 12.734-0.013864-1.9116z" fill="url(#linearGradient3211)"/>
  <path id="path3213" d="m65.074 107.94 2.6958-3.4472 0.92808-2.8726-0.7955-3.8449-2.5191-4.5962-5.4359-6.8943-3.0936-3.8891-2.8726-4.552 0.088389-1.1932 0.83969 1.4142 1.9003 3.0494 3.0936 3.7565 3.2262 3.7123 3.8891 5.2591 2.0329 3.182 1.2816 4.552-2.4307 5.0381-2.6075 3.5355-0.22097-2.2097z" fill="url(#linearGradient3215)"/>
  <path id="path3217" d="m70.686 118.55 3.5355-3.2704 2.4307-2.8726 1.9445-4.3752 0.30936-0.97228 1.9445-0.30935-0.30936 1.9445-0.61872 2.4749-1.7236 2.1655-2.1655 2.4749-5.3475 2.74z" fill="url(#linearGradient3219)"/>
  <path id="path3221" d="m78.862 104.58-0.17678-2.8284-2.1655-4.6846s-1.591-2.5191-1.9887-2.6958c-0.39775-0.17678-2.8284-3.0052-2.8284-3.0052l-7.4246-6.9385-6.4965-5.3033-3.9333-3.8449v-0.7955l1.0165 0.7955 1.7236 1.8562 3.403 2.7842 4.1984 3.5355 4.552 3.7565 3.9775 3.6239 2.961 2.961 2.74 3.5797 1.6794 3.182 0.7513 3.7123-1.9887 0.30936z" fill="url(#linearGradient3223)"/>
  <path id="path3884" d="m100.16 90.5c-4.1712 0.39073-6.9977 1.9853-9.6106 3.476-2.4594 0.81876-6.1302 0.85118-7.7869 2.009l-0.06024 0.35481c0.5128 1.6928 1.8816 4.7594 2.2118 5.2362-0.81952 0.38464-0.77931 1.8107 0.8355 2.5346 1.2386 1.2625 2.8645 0.69119 2.6011 0.35852-0.85409-0.64267 4.0547 1.9444 4.3184 2.4399 3.5589 0.77312 1.2105 5.3044 6.0409 5.7256 4.2529 0.30286 7.337-4.3334 6.3479-6.5719-0.65125-0.7526 1.5895 1.3511 2.5986 0.56681 4.0038-1.5357 3.1956 3.137 7.3913 3.1451 3.5363 0.33815 5.1912-2.6137 5.5836-4.3208 1.1376-1.7978-2.6674-3.0242-2.5181-4.7383-0.66371-1.269 1.013-4.3084-2.6145-3.9193-1.8573 0.3639 4.769 0.19251-0.57544-1.1673-3.7649-0.78032-6.4801-2.4108-9.2772-3.9487-1.7208-0.60763-3.6411-0.83163-5.486-1.1801z" fill-opacity=".66667" filter="url(#filter3963)"/>
  <path id="path3229" d="m85.403 87.658 11.446 8.5737v6.7617l-1.5468 3.3146-3.403-1.591-3.0052-2.9168-1.6352-1.9445-1.6794-9.5017-0.17678-2.6958z" fill="url(#linearGradient3231)"/>
  <path id="path3233" d="m96.849 96.011 24.086-7.3362-0.7513 9.6785-1.812-0.83969-1.812-0.044194s-1.149 0.53033-1.591 0.70711c-0.44194 0.17678-1.9445 1.7236-1.9445 1.7236l-2.2097 5.1265-4.8172 0.83969-0.44194-2.8284-2.8726-2.3865-2.6075-0.26517-1.5468 1.2374-1.7236 1.37 0.044194-6.9827z" fill="url(#linearGradient3235)"/>
  <path id="path3237" d="m85.624 87.614 10.032-3.6681 17.368-0.088388 7.8224 4.8172-24.042 7.4246-11.181-8.4853z" fill="url(#linearGradient3239)"/>
  <path id="path3241" d="m99.413 100.96-2.0329 1.6794-1.7678 2.1655-0.7513 2.3423 0.13258 1.9887 0.61872 1.9445 1.3258 1.591s1.3258 0.7513 1.9004 0.7513c0.57452 0 2.2981-0.17678 2.2981-0.17678l1.6352-1.1932 2.1655-2.3423 0.97227-3.0494-0.22097-3.3146-2.0329-2.3865-2.3865-0.66291-1.8562 0.66291z" fill="url(#linearGradient3243)"/>
  <path id="path3245" d="m97.512 104.05 1.9887-1.7678 2.1213-0.53033 1.7678 0.7955 1.0607 1.6352 0.17678 2.1655s-0.88389 2.9168-0.97227 3.0936c-0.08839 0.17678-0.97227 1.3258-0.97227 1.3258l-1.9004 1.2374-2.1655-0.22097-1.4142-0.79549-0.88388-2.3865 0.22097-2.0771 0.97227-2.4749z" fill="url(#linearGradient3247)"/>
  <path id="path3249" d="m99.413 105.65-0.48614 1.6352 0.35355 1.5026 0.97227 0.22097 1.5026-1.0607 0.22097-1.8562-0.39775-1.1048-0.97227-0.13258-0.53033 0.17677-0.57452 0.39775-0.088388 0.22097z" fill="url(#linearGradient3251)"/>
  <path id="path3253" d="m115.59 97.779-2.0329 1.6794-1.7678 2.1655-0.7513 2.3423 0.13259 1.9887 0.61871 1.9445 1.3258 1.591s1.3258 0.7513 1.9004 0.7513c0.57452 0 2.2981-0.17678 2.2981-0.17678l1.6352-1.1932 2.1655-2.3423 0.97227-3.0494-0.22097-3.3146-2.0329-2.3865-2.3865-0.39774-1.8562 0.39774z" fill="url(#linearGradient3259)"/>
  <path id="path3255" d="m113.69 100.87 1.9887-1.7678 2.1213-0.53033 1.7678 0.7955 1.0607 1.6352 0.17678 2.1655s-0.88389 2.9168-0.97227 3.0936c-0.08839 0.17678-0.97228 1.3258-0.97228 1.3258l-1.9004 1.2374-2.1655-0.22097-1.4142-0.79549-0.88388-2.3865 0.22097-2.0771 0.97227-2.4749z" fill="url(#linearGradient3261)"/>
  <path id="path3257" d="m115.59 102.46-0.48613 1.6352 0.35355 1.5026 0.97227 0.22097 1.5026-1.0607 0.22097-1.8562-0.44193-0.83968-0.83969-0.17678-0.61872-0.0442-0.57453 0.39775-0.08839 0.22097z" fill="url(#linearGradient3263)"/>
  <path id="path3265" d="m86.199 95.79-0.70711 1.3258-0.48614 2.2981 0.7513 2.74 1.1049 1.7236 1.4584 0.57453 1.591 0.30936 1.5468-0.44194-2.2981-1.9887s-1.4584-2.3865-1.7236-2.6958c-0.26516-0.30936-1.0607-3.7565-1.2374-3.8449z" fill="url(#linearGradient3267)"/>
  <path id="path3269" d="m89.115 87.968 3.2704-1.2374 3.0494-1.9887 1.8562-2.9168 2.8726-1.9004 4.773-1.6352 2.3865 0.61872 3.5355 1.5468 1.7236 2.5633 0.61872 1.6352 1.4142 1.5026s3.3588 1.8562 2.9168 1.9887c-0.44195 0.13258-20.329 6.1872-20.329 6.1872l-8.0875-6.364z" fill="url(#linearGradient3271)"/>
  <path id="path3275" d="m5.5597 53.534 8.1948-7.2163 6.6048-4.4032s7.9502-4.5255 10.763-5.9932c2.8131-1.4677 6.8494-5.2593 6.8494-5.2593l4.2809-2.8131 8.4394-3.7916-1.5633 2.6693-6.5869 8.9376-7.7711 8.6253-3.8495 9.6293-2.523 10.663c-0.26539 5.2733-2.2332 10.206-4.1167 15.156l-6.858 15.626c-4.324-4.5273-10.853-7.911-6.8494-16.757-3.4695-7.5519-10.336-13.581-5.0147-25.074z" fill-opacity=".15686"/>
  <path id="path3854" d="m69.838 64.822 1.427-0.3027 0.25946 20.714-1.6432-2.5081-0.043244-17.903z" fill-opacity=".15686"/>
  <path id="path3856" d="m46.184 63.005 1.0811 0.86486v5.7514l0.25946 0.12973 0.3027 21.103-0.64865-0.12973-1.0811-0.64865-0.086487-26.249 0.17297-0.82162z" fill-opacity=".15686"/>
  <path id="path3858" d="m55.741 68.022 0.086487 7.0054 14.184 7.7838 0.043244-18.076-14.314 3.2865z" fill-opacity=".15686"/>
  <path id="path3860" d="m53.838 72.346 0.043244-3.9784 2.1622-0.38919-0.38919 6.7892-1.8162-2.4216z" fill-opacity=".15686"/>
  <path id="path3862" d="m66.426 58.217 6.6875-1.5 1.9375 0.6875-2.875-5.875-2.625-5.3125-2.75-2.1875-2.5-1.25c4.9472 5.7036 3.3128 10.541 2.125 15.438z" fill-opacity=".15686"/>
  <path id="path3864" d="m39.114 57.529 0.1875 1.5625 1.4375 2.5 2.125 1.375 3 0.375 0.3125 6.3125s-9.375-4.4375-7.0625-12.125z" fill-opacity=".15686"/>
  <path id="path3868" d="m80.551 41.154 3.8125-2.5625 5.9375-5.5 0.875 2.8125 2.75 3.75 2.375 2.4375 3 4.625 0.9375 2.75c-3.4509 0.18952-7.5171-1.0823-9.75 2l-1.6875-1.5625s-6.4375-5.375-6.4375-5.625-2-3.25-1.8125-3.125z" fill-opacity=".15686"/>
  <path id="path3870" d="m109.93 41.717 7.375 12.375c-0.68929 1.9583-1.1403 3.9167-2.125 5.875 0.59286-7.2195-3.3315-12.048-5.25-17.938v-0.3125z" fill-opacity=".15686"/>
  <path id="path3872" d="m85.403 87.658 11.446 8.5737v6.7617l-1.5468 3.3146-3.403-1.591-3.0052-2.9168-1.6352-1.9445-1.6794-9.5017-0.17678-2.6958z" fill-opacity=".15686"/>
  <path id="path3874" d="m86.199 95.79-0.70711 1.3258-0.48614 2.2981 0.7513 2.74 1.1049 1.7236 1.4584 0.57453 1.591 0.30936 1.5468-0.44194-2.2981-1.9887s-1.4584-2.3865-1.7236-2.6958c-0.26516-0.30936-1.0607-3.7565-1.2374-3.8449z" fill-opacity=".15686"/>
  <path id="path3876" d="m89.115 88.1 6.0546-3.0052 1.4142-2.4307 3.403-2.6516 5.1707-1.7678 0.44194 1.1932 0.66291 1.5026-0.17677 1.1049 0.66291 2.4749c-4.628 1.3413-6.7979 5.7553-9.6785 9.2808l-0.17678 0.22097-7.6014-5.8336-0.17678-0.088389z" fill-opacity=".15686"/>
 </g>
 <g id="layer1">
  <path id="path2496" d="m51.145 23.123c-5.363 1.8181-9.9832 5.2866-14.844 8.1875-4.8979 2.6322-8.5702 6.5644-12.969 8.5-7.2697 2.4325-12.586 8.6226-18.063 13.656l0.59375 0.125c5.3357-5.3143 10.788-9.8841 17.781-12.844 5.0525-1.9797 9.2673-5.4823 13.531-8.75 3.843-2.9165 7.5457-5.7084 11.719-6.8438-3.2227 3.3638-5.0075 7.4166-8.2188 11-5.7835 4.1988-8.111 10.263-10.281 16.875-0.9373 3.3659-1.503 6.8461-2.0938 10.344-2.8277 1.6839-4.6538 4.1054-7.3125 6.0312-4.9102 1.4144-7.9636 5.2739-10.688 9.375l0.21875 0.15625c2.5364-4.2273 5.8986-6.6132 10.781-8.0938 2.1891-1.7034 4.3698-3.4475 6.5938-5.125-0.35617 2.0151-0.74817 4.023-1.25 6.0312-1.7307 3.8355-3.0419 7.8463-4.4375 11.812-1.6633 4.6977-3.4264 9.3844-4.8125 11.562l0.21875 0.40625c1.5251-2.3966 3.9898-6.6995 5.6562-11.406s3.1557-9.6865 4.2812-11.938c1.3682-6.2707 2.2912-11.629 3.6875-17.906 1.6579-5.9536 4.5559-12.429 10.781-17.094l0.0625-0.0625c4.0124-4.4436 5.2219-8.5465 9.5938-12 5.6716 1.9861 8.5855 4.3915 14.312 7.25 4.2858 2.7238 9.0287 4.0086 12.531 7.875 2.7022 4.5014 7.5066 7.228 11.25 10.812 2.3903 3.7218 5.4213 6.9175 8.7812 9.7188 3.1399 2.6081 5.9863 5.098 7.4375 8.25-1.5293-3.4132-3.6541-6.4337-6.7812-9.0312-3.2248-2.6787-6.6326-5.423-8.9688-9.125l-0.0625-0.0625c-3.4-2.9566-6.6617-5.8374-9.125-9.5312 2.8248-1.6864 3.9683-2.6324 5.0312-3.625 0.93895-0.87684 2.012-1.8857 4.0625-3.4375 0.18128 3.3044 2.7992 5.2653 5.0625 7.25 2.032 2.4801 3.9768 4.9797 5.0312 8.0312l0.125-0.1875c-0.58133-2.9067-2.6081-6.1546-4.3437-8.4688-2.2592-1.6502-3.5297-3.7354-4.25-6.2812 2.0868 1.4054 4.8868 2.3449 7.8438 3.25 3.6369 1.1132 7.4176 2.2324 10.125 4.125 1.4232 3.8764 5.1339 9.2606 7.6562 12.375l0.375-0.15625c-2.5134-3.1034-5.453-9.3928-6.7188-13-3.0555-2.3659-7.4756-3.1806-11.156-4.3125l-9.5-4.8438c-2.8271 2.0512-3.9091 3.9167-4.9688 4.9062-1.0013 0.93504-2.1392 2.2431-4.7188 3.8438-0.29157-0.46138-0.57843-0.91703-0.84375-1.4062v-0.03125l-0.03125-0.0625c-3.4194-4.0545-8.8936-5.0176-13.25-7.7188h-0.03125l-0.03125-0.03125c-4.5656-2.7917-9.483-5.5833-15.375-8.375zm13 19.688 0.0625 0.0625c3.5508 1.189 4.9459 4.1796 6.3438 6.7188 1.2292 2.2328 2.125 4.7869 3.625 7.2188l-1.0312-0.125-27.25 6.0938c-4.0165 0.3674-6.2489-1.6687-6.6875-5.3125l-0.1875-0.09375c0.11587 4.4266 2.5804 6.3642 6.7188 6.4062l0.09375 5.0938 0.1875 21.469c-1.1347 2.1697-3.6554 3.2201-5.6875 4.5312-1.8742 1.3691-3.8392 2.6648-4.4688 4.875l0.28125-0.03125c0.50439-1.7709 2.6435-3.0273 4.5312-4.4062 1.8321-1.3383 4.987-2.2079 5.9062-4.625l0.8125 0.46875 6.875-1.4375 5.5-1.5 0.53125-0.125 0.78125-0.15625c0.10361 0.12893 0.17858 0.27733 0.28125 0.40625l-1.8125 0.375 2.1562 2.5 1.5938-0.375c0.26607 0.36118 0.52896 0.73518 0.78125 1.0938l-1.6562 0.46875 1.7812 2.25 1.4375-0.40625c0.12817 0.2089 0.254 0.41794 0.375 0.625l-1.8438 0.46875 1.4688 2.125 1.5312-0.40625c0.023091 0.05012 0.039983 0.1063 0.0625 0.15625 0.070688 0.15683 0.12095 0.33725 0.1875 0.5l-1.3125 0.28125 0.40625 2.7812 1.7188-0.34375c0.098425 0.59297 0.14604 1.1665 0.09375 1.6562-0.13927 1.3043-1.9154 4.3363-3.25 5.6562l-0.59375-1.1875-3.7812 0.125 0.78125 1.875c-0.71534 0.1656-1.4353 0.33529-2.1562 0.5l-0.71875-1.4375-3.4375 0.15625 0.8125 2.0312c-0.88146 0.19609-1.7901 0.39917-2.6875 0.59375l-0.8125-1.5625-3.4375 0.125 0.90625 2.1562c-1.3374 0.27945-2.017 0.38049-3.4062 0.65625v0.8125c7.4603-1.5205 13.498-3.0069 20.094-4.5938-0.55727 0.86686-1.065 1.5817-1.4688 2-6.1496 1.4831-11.758 2.8531-18.094 3.9375l-0.03125 0.5c1.4623-0.2919 2.4797-0.511 3.9375-0.8125l2.4375 5.9062-4.3438 0.78125-0.0625 0.59375 23.375-4.1562c-0.5738 0.51169-1.2094 1.0103-1.875 1.5312l-21.438 3.8438-0.09375 0.5625 5.3438-0.9375 0.71875 1.7188 4.4688-0.9375-0.8125-1.5625 1.5-0.25 0.5 1.25 4.4688-0.9375-0.53125-1.0938 1.4688-0.25 0.59375 1.4688 4.5-0.90625-0.65625-1.3438 4.5938-0.8125 0.5 1.25 4.5-0.9375-0.53125-1.0938 6.7188-1.1875 0.375 1.0312 4.5625-0.65625-0.53125-1.125 2.4062-0.4375 0.5 1.1562 4.5-0.9375-0.5-1 1.6875-0.3125 0.5625 1.375 4.5-0.9375-0.59375-1.2188 1.4375-0.25 0.40625 1.0312 3.875-0.8125 0.625-0.125-0.4375-0.875 1.5-0.25 0.5625 1.3125 4.5-0.9375-0.59375-1.1875 1.4375-0.25 0.53125 1.25 4.0312-0.96875-0.4375-1 0.8125-0.28125-0.40625-0.5625-3.125 0.5625c0.57105-0.36891 1.0862-0.81875 1.5312-1.3125l1.25-0.21875-0.1875-0.5625-0.53125 0.09375c1.0634-1.4764 1.682-3.3088 1.8125-5.2188-0.02633-1.9709-0.70766-3.3605-1.8438-4.2187 0.59985-3.0577 0.3328-6.3581 0.75-9.4688l-8.4062-5.3125c-0.64574-1.4765-1.268-2.6597-2.2812-3.4688-1.6554-1.2595-3.7885-1.8562-5.6875-2.0625-3.6183 1.2713-7.5287 2.4489-9.4375 5.75l-10.781 3.7812 0.34375 0.125c0.30545 1.7295 0.78949 5.5124 0.96875 7.875-0.6667 1.2546-1.0869 2.6558-1.1875 4.125 0.018414 1.3777 0.35321 2.4775 0.9375 3.3125-0.31503 0.07051-0.59904 0.14931-0.90625 0.21875l-0.3125-0.6875-3.3438 0.3125 0.40625 1.0938c-0.16597 0.03826-0.333 0.08649-0.5 0.125-0.20789-2.0441-0.90319-4.0166-2-5.9375l1.7812-0.375-1.6875-2.3438-1.6875 0.34375c-0.25988-0.3481-0.55078-0.70966-0.84375-1.0625l1.5938-0.4375-1.3438-2.2188-2.125 0.5625c-0.20452-0.21144-0.41219-0.41261-0.625-0.625l1.3438-0.375-2.125-2.3125-1.5625 0.46875c-0.24202-0.2198-0.50241-0.43613-0.75-0.65625l1.3125-0.3125-1.9688-2.375-1.9375 0.4375c-0.10652-0.089745-0.20555-0.19156-0.3125-0.28125l1.4062-0.28125-0.125-0.125 7.1875-2.2812-0.15625-20.312-0.53125-6.5c-1.7438-2.5146-3.1068-5.2876-4.5312-7.875-1.4595-2.651-3.4811-5.04-7.2812-6.3125zm8.6875 14.25 1.5938 0.125c0.032677 0.050479 0.060498 0.10591 0.09375 0.15625l-27.188 6.3125-0.40625-0.4375 25.906-6.1562zm2.8438 0.65625 0.09375 5.25-28.156 6.5938-0.15625-5.1875 28.219-6.6562zm-29.312 5.875 0.46875 0.40625 0.03125 4.9375-0.4375-0.4375-0.0625-4.9062zm29.438 0.21875 0.28125 19.75-2.9062 0.9375-1.5312 0.46875-0.21875-20.188 4.375-0.96875zm-4.8125 1.0625 0.21875 19.812-1.0312-1.8125 0.0625-17.844 0.75-0.15625zm-1.25 0.28125v17.281l-13.656-7.625 0.03125-6.6875 13.625-2.9688zm-1.75 1.1562-0.125 4.4375-3.125-0.4375 0.09375-2.3125-0.25-0.125-0.125 2.375-3.0938-0.4375v-1.9688l-0.28125-0.09375v2.0312l-0.6875-0.09375v0.125l0.71875 0.125v2.5625l-1.6562-0.6875-0.09375 0.34375 1.75 0.6875 0.03125 2.2812c-1.0349-0.34244-2.0548-0.71697-3.0625-1.125l0.125-5.2188-0.15625-0.125-0.21875 5.25c-0.37645-0.15694-0.72613-0.3215-1.0938-0.5l-0.25 0.1875c0.43774 0.22446 0.88643 0.40479 1.3438 0.59375l-0.03125 0.59375 0.25 0.1875 0.03125-0.6875c0.99752 0.39846 2.0265 0.76628 3.0625 1.0938v0.53125h0.25v-0.4375c0.91128 0.28747 1.8298 0.54936 2.7188 0.875l-0.0625 1.0938 0.375 0.09375 0.03125-1.0625c0.41054 0.1564 0.82136 0.32043 1.2188 0.5v-0.1875c-0.39248-0.17973-0.78637-0.34175-1.1875-0.5l0.09375-2.0625 1.6875 0.65625v4.3438l0.34375 0.125c1e-6 -1e-6 -0.07322-3.0107-0.09375-4.3438l2.3438 0.90625 0.03125-0.25-2.375-0.96875c-0.001831-0.13079 0-0.52522 0-0.5625h-0.25v0.46875l-1.6875-0.6875 0.15625-3.375 3.125 0.53125-0.03125 0.625 0.25 0.25 0.03125-0.8125 0.8125 0.125 0.03125-0.34375-0.84375-0.125 0.15625-4.4062-0.28125-0.0625zm-12.438 1.9375-0.0625 6.0312-1.3438-2-0.03125-3.7188 1.4375-0.3125zm-1.9375 0.4375 0.19508 20.846-5.6638 1.154-0.40625-20.719 5.875-1.2812zm-7.0625 0.5625 0.8125 0.8125 0.03125 20.438-0.96875-0.4375 0.125-20.812zm14.812 0.71875 3.0625 0.53125-0.15625 3.2812-2.875-1.1875-0.03125-2.625zm0.03125 2.9688 2.8438 1.125-0.125 2.0625c-0.89179-0.33841-1.8117-0.63768-2.7188-0.9375v-2.25zm-7.25 0.0625 1.3438 2.0938 14.25 7.7812v0.0625l1.3125 2.25-1.875 0.625-1.625-1.5938-1.625 0.40625c-0.16988-0.13922-0.33003-0.26737-0.5-0.40625l1.3438-0.28125-2.2812-1.8125-1.2812 0.28125c-0.1618-0.13174-0.30781-0.27502-0.46875-0.40625l1.3125-0.28125-2.0625-1.9688-1.4688 0.4375c-0.099934-0.08285-0.2133-0.16745-0.3125-0.25l1.0938-0.34375-1.9062-1.5-1.0938 0.21875c-0.26141-0.22536-0.5286-0.43388-0.78125-0.65625l0.53125-0.15625-1.125-1.3125-0.75 0.25c-0.19103-0.17655-0.37909-0.35707-0.5625-0.53125l0.0625-0.03125 0.34375-0.125-0.78125-0.65625-0.40625 0.0625c-0.22961-0.22852-0.47411-0.4638-0.6875-0.6875v-1.4688zm0.03125 1.875c6.0301 6.3078 18.004 14.245 23.031 21.031 1.927 2.6013 3.0958 5.4166 3.3438 8.2187-0.46707 0.10804-0.94401 0.2361-1.4062 0.34375-0.095586-3.082-1.1846-5.9823-3.2812-8.8125-5.2043-7.0253-15.733-14.04-21.625-20.219-0.009969-0.010455-0.021308-0.0208-0.03125-0.03125l-0.03125-0.03125v-0.5zm1 0.53125 0.40625 0.1875-0.21875 0.09375c-0.087024-0.08371-0.1649-0.16688-0.25-0.25l0.0625-0.03125zm-1 0.4375c0.099202 0.10326 0.21108 0.20884 0.3125 0.3125l-0.3125 0.1875v-0.5zm0.4375 0.4375c0.17389 0.1765 0.35136 0.35363 0.53125 0.53125l-0.65625 0.21875c-0.095748-0.19688-0.20436-0.4043-0.28125-0.59375l0.40625-0.15625zm2.2188 0.15625 0.875 0.90625-0.40625 0.09375c-0.31077-0.27546-0.64246-0.54213-0.9375-0.8125l0.46875-0.1875zm-1.4688 0.59375c0.235 0.22961 0.47484 0.45615 0.71875 0.6875l-1.0625 0.25c-0.12578-0.21362-0.26652-0.41802-0.375-0.625l0.71875-0.3125zm-1.1875 0.28125c1.4102 3.1214 4.648 6.4537 7.3438 9.75 2.8322 3.4632 5.7927 7.1487 7.2188 10.312 0.71303 1.5819 1.1457 3.073 1 4.4375-0.089706 0.84014-1.3484 3.372-2.625 5.4688-0.37025 0.08753-0.7548 0.16274-1.125 0.25 1.3289-1.5199 2.6634-4.0414 2.8125-5.4375 0.17158-1.6069-0.24108-3.285-1-4.9687-1.5178-3.3674-4.4202-6.8523-7.25-10.312-2.5348-3.0995-5.0342-6.1643-6.375-8.9375v-0.5625zm2.1562 0.625c0.23276 0.21882 0.47908 0.43599 0.71875 0.65625l-1.4688 0.3125c-0.1492-0.22435-0.27204-0.43746-0.40625-0.65625l1.1562-0.3125zm2.9688 0.4375 1.5 1.125-0.84375 0.21875c-0.48635-0.40611-0.94182-0.7895-1.4062-1.1875l0.75-0.15625zm-5.0312 0.125c0.10137 0.21124 0.233 0.41535 0.34375 0.625l-0.34375 0.0625 0.875 2.3125 0.75-0.25c0.064247 0.095928 0.090431 0.2165 0.15625 0.3125l-0.84375 0.25 1.1562 1.6562 0.96875-0.21875c0.10667 0.14012 0.20328 0.29657 0.3125 0.4375l-1.3125 0.28125 1.6562 1.7812 1.125-0.21875c0.15751 0.19389 0.30811 0.39712 0.46875 0.59375l-1.6875 0.40625 1.5938 1.4375-5.2188 1.4656-0.09375-10.903 0.09375-0.03125zm51 0.21875c1.9605 0.55591 3.9235 1.1341 4.9688 1.9688 1.1573 0.92412 2.1353 2.0699 3 4.1562 0.32356 0.47564 0.70323 0.85042 1.125 1.2188l2.6875 2.0312-19.812 5.8438-0.125-0.09375h0.15625c0.78989-0.90798 1.2366-2.2914 1.6562-3.7188s0.53748-3.214 0.90625-4.0938c-0.22073-1.7727 0.95822-2.829 1.7812-4.3125 0.62707-0.97935 1.6125-1.8182 3.25-2.7812 1.106 1.2757 1.1516 1.7793 0.90625 3.25 0.05529 0.87689 0.48858 1.6875 0.84375 2.4688h0.3125c-0.30456-0.74346-0.49259-1.5838-0.71875-2.3438 0.3837-1.5017-0.08001-2.6281-0.9375-3.5938zm-48 0.09375c0.47066 0.42982 0.94563 0.87777 1.4375 1.3125l-1.875 0.5c-0.38121-0.50088-0.73259-0.98539-1.0625-1.4688l1.5-0.34375zm46.906 0.125c-0.95543 0.58555-2.6657 1.3839-3.4062 2.2188-0.80622 1.2591-1.181 2.7622-1.625 4.8125-0.47334 1.263-0.79713 2.5762-1.1562 3.875-0.38398 1.3059-0.54815 3.1168-1.0312 3.875l-7.25-5.4375c2.1828-0.70247 3.9196-2.121 5.875-3.25 1.6519-3.6097 5.0288-5.2899 8.5937-6.0938zm-49.406 0.46875c0.2816 0.51274 0.57462 1.022 0.90625 1.5312l-0.375 0.125-0.71875-1.625 0.1875-0.03125zm7.0938 0.625 1.5938 1.5312-1 0.21875c-0.56302-0.45959-1.1408-0.92303-1.6875-1.375l1.0938-0.375zm-2.9375 0.28125c0.10094 0.088866 0.1796 0.1922 0.28125 0.28125l-1.9688 0.59375c-0.073391-0.093813-0.14663-0.18781-0.21875-0.28125l1.9062-0.59375zm0.5625 0.53125c0.48494 0.42307 1.003 0.85444 1.5 1.2812l-2.5625 0.53125c-0.32192-0.39133-0.66103-0.76793-0.96875-1.1562l2.0312-0.65625zm-3.1875 1.0312c0.25576 0.36402 0.53663 0.72646 0.8125 1.0938l-0.59375 0.125-0.8125-1.0312 0.59375-0.1875zm4.9688 0.46875c0.15679 0.1344 0.31118 0.27153 0.46875 0.40625l-2.7188 0.59375c-0.11514-0.13803-0.2294-0.26815-0.34375-0.40625l2.5938-0.59375zm3.1875 0.125 1.5625 1.25-0.96875 0.1875c-0.50973-0.41578-0.9941-0.80702-1.5-1.2188l0.90625-0.21875zm-2.4062 0.5625c0.46886 0.40038 0.93411 0.78466 1.4062 1.1875l-3.1875 0.65625c-0.34588-0.41046-0.68341-0.80346-1.0312-1.2188l2.8125-0.625zm-4.1875 0.90625c0.31174 0.39837 0.60839 0.81125 0.9375 1.2188l-0.71875 0.15625-1.0312-1.1875 0.8125-0.1875zm55.437 0.5 6.9688 4.0938-23.344 7.25-10.688-8.0312 8.8125-3.2188c-0.026394 0.055267-0.068162 0.10046-0.09375 0.15625-1.4701 0.90528-2.8935 1.6661-4.3438 2.4688l-2.3438 0.875 8.875 6.5 21.062-6.2812-0.78125-0.4375c-1.2175-1.0749-2.8324-1.6458-3.9062-2.875-0.07352-0.17739-0.14763-0.32917-0.21875-0.5zm-45.875 0.03125 1.3438 1.5938-0.9375 0.1875c-0.56632-0.47286-1.1146-0.9673-1.6875-1.4375l1.2812-0.34375zm-3.5938 0.0625c0.1818 0.15527 0.34954 0.31318 0.53125 0.46875l-3.3125 0.78125c-0.15535-0.18573-0.3108-0.37475-0.46875-0.5625l3.25-0.6875zm0.75 0.65625c0.53707 0.46042 1.0622 0.91247 1.5938 1.375l-3.875 0.71875c-0.1227-0.14912-0.25256-0.28779-0.375-0.4375-0.21966-0.26859-0.45853-0.56906-0.6875-0.84375l3.3438-0.8125zm-4.8125 1.1562c0.20877 0.25525 0.41186 0.48938 0.625 0.75 0.12826 0.15684 0.24784 0.3118 0.375 0.46875l-0.875 0.1875-1.375-1.0938 1.25-0.3125zm6.7188 0.5c0.1055 0.092187 0.20741 0.189 0.3125 0.28125l-3.9375 0.84375c-0.089413-0.10812-0.19176-0.2041-0.28125-0.3125l3.9062-0.8125zm3.5625 0.0625 1.625 1.75-0.84375 0.15625c-0.62652-0.5534-1.254-1.1028-1.9062-1.6562l1.125-0.25zm-2.8125 0.59375c0.60894 0.53824 1.1938 1.0855 1.7812 1.625l-4.5312 0.84375c-0.43637-0.53642-0.86408-1.083-1.3125-1.625l4.0625-0.84375zm18.219 0.4375 11.031 8.3125v0.03125l0.0625 6.6562c-0.69182 0.8945-1.1995 1.9496-1.5312 3.0625-3.0138-1.2595-5.5092-3.435-7.2188-6.0625-1.4228-4.3107-1.7771-8.0631-2.3438-12zm-23.812 0.75c0.42888 0.54329 0.84362 1.0842 1.25 1.625l-1.0625 0.375-1.5938-1.7188 1.4062-0.28125zm59 0.34375c-0.50506 2.9331-0.2148 5.9855-0.65625 8.875-0.93955-0.5051-2.095-0.73149-3.4375-0.65625-3.3751 1.0239-5.2975 4.0462-5.75 7.375-1.5272 0.29438-2.8805 0.48246-4.375 0.65625l-0.1875-0.34375c-0.27404-3.331-2.54-4.8709-5.8125-4.6875-1.3451 0.40804-2.4599 1.1598-3.3437 2.0938l0.09375-6.0625 23.469-7.25zm-51.281 0.40625c0.25993 0.24096 0.52731 0.47771 0.78125 0.71875l-4.4688 1.3125c-0.25681-0.33046-0.51457-0.66821-0.78125-1l4.4688-1.0312zm3.7812 0.34375 1.5312 1.5625-0.84375 0.21875c-0.49866-0.48913-1.0278-0.97625-1.5625-1.4688l0.875-0.3125zm-2.625 0.75c0.52136 0.50138 1.0431 0.99911 1.5312 1.5l-4.9688 1.3125c-0.35614-0.50939-0.73398-1.0204-1.125-1.5312l4.5625-1.2812zm-6.1875 1.75c0.35966 0.51963 0.70756 1.0199 1.0312 1.5312l-1.0938 0.28125-1.125-1.4688 1.1875-0.34375zm8.0625 0.125c0.19351 0.20228 0.40681 0.39167 0.59375 0.59375l-5.1875 1.375c-0.12776-0.19957-0.27151-0.39421-0.40625-0.59375l5-1.375zm4.3125 0.125 0.84375 1.3125-1.2188 0.34375c-0.36838-0.42778-0.74691-0.84815-1.1562-1.2812l1.5312-0.375zm-3.3438 0.875c0.38425 0.42553 0.74351 0.82591 1.0938 1.25l-5.6562 1.5c-0.23994-0.46357-0.49604-0.94401-0.78125-1.4062l5.3438-1.3438zm1.4375 1.6875c0.2128 0.26696 0.42783 0.54634 0.625 0.8125 0.040252 0.054337 0.0855 0.10173 0.125 0.15625l-6.1875 1.2812c-0.054248-0.12475-0.10068-0.25171-0.15625-0.375-0.056919-0.12628-0.12668-0.24891-0.1875-0.375l5.7812-1.5zm-8.5938 0.125c0.27345 0.48184 0.52121 0.96793 0.75 1.4375l-0.96875 0.25-1.0938-1.3438 1.3125-0.34375zm12.938 0.625 0.84375 1.4688-1.1875 0.25c-0.29984-0.49224-0.61958-0.9814-0.96875-1.4688l1.3125-0.25zm7.0625 0.4375c0.28584 1.2648 0.61598 2.5609 1.0625 3.9062 0.97082 1.664 2.191 2.9438 3.5938 4-0.061954 0.03177-0.12278 0.06555-0.1875 0.09375-3.2061 0.47665-4.9521-1.9995-5.3438-4.7812 0.056257-1.1412 0.38925-2.2222 0.875-3.2188zm-10.375 0.21875c0.33742 0.49424 0.66088 0.99332 0.9375 1.5l-6.625 1.4375c-0.15869-0.55338-0.36824-1.109-0.59375-1.6562l6.2812-1.2812zm41.156 1.2188c2.8558-0.091019 4.5986 2.4444 4.9688 5.0625-0.1593 3.303-2.4362 5.9558-5.4062 7.25-3.2061 0.47665-4.9521-1.9995-5.3438-4.7812 0.1616-3.2782 2.2704-6.1805 5.2188-7.4687 0.20044-0.030093 0.37211-0.056432 0.5625-0.0625zm-49.375 0.4375c0.20798 0.55814 0.40237 1.1239 0.53125 1.6875l-1.3438 0.28125-0.21875-1.75 1.0312-0.21875zm9.4062 0.375c0.98564 1.9679 1.5433 4.0049 1.625 6.0312-1.6185 0.37774-3.1617 0.75261-4.75 1.125l-0.46875-0.96875-3.7812 0.125 0.71875 1.6562c-0.82405 0.19421-1.6846 0.40067-2.5 0.59375 1.2798-1.8901 2.4922-4.049 2.5938-5 0.072534-0.6793-0.017608-1.393-0.1875-2.125l6.75-1.4375zm40.156 0c-1.3502 0.078136-2.4846 1.0976-3.7188 2.4687-1.2901 2.9033-1.776 4.7865-0.0625 7.25 2.7242 2.0172 4.4016 0.79626 6.375-1.375 1.2873-2.7896 1.8397-4.8079 0.125-7.3125-1.0267-0.76129-1.9086-1.0781-2.7188-1.0312zm-0.09375 0.5625c0.72151-0.036226 1.4852 0.17022 2.2812 0.65625 1.8458 2.1308 1.2112 4.6413 0 6.9062-1.4944 1.9448-3.3811 2.6517-5.5 1.3438-1.8392-2.1361-1.2174-4.6407 0-6.9062 0.9311-1.2213 2.0162-1.9396 3.2188-2zm-40.031 0.78125-6.0938 1.4062-0.28125 2.5312 7.4375-1.125-1.0625-2.8125zm-0.15625 0.5 0.59375 1.875-6.3125 0.96875 0.15625-1.5938 5.5625-1.25zm23.969 0.34375c2.8558-0.09102 4.5986 2.4444 4.9688 5.0625-0.15478 3.2092-2.3099 5.7931-5.1562 7.125l-1 0.1875c-1.7067 0.00957-2.9193-0.89014-3.6875-2.1875-0.15365-0.25947-0.28915-0.52492-0.40625-0.8125-0.2342-0.57516-0.41001-1.2045-0.5-1.8438 0.1616-3.2782 2.2704-6.1805 5.2187-7.4688 0.20044-0.03009 0.37212-0.05643 0.5625-0.0625zm0.1875 0.8125c-1.3502 0.07814-2.4846 1.0976-3.7187 2.4688-1.2901 2.9033-1.776 4.7865-0.0625 7.25 2.7242 2.0172 4.4016 0.79626 6.375-1.375 1.2873-2.7896 1.8397-4.8079 0.125-7.3125-1.0267-0.76129-1.9086-1.0781-2.7188-1.0312zm15.75 0.1875c-0.59724 0.06348-1.0854 0.49689-1.6562 1.0625-0.74357 1.1246-0.52712 1.9191 0 3 1.219 0.72897 1.9607 0.18319 2.875-0.71875 0.74357-1.1246 0.52712-1.9191 0-3-0.45786-0.27189-0.86041-0.38184-1.2188-0.34375zm-0.15625 0.25c0.42153 0.0113 0.82852 0.2431 1.0312 0.3125 0.50273 0.68964 0.09473 1.846-0.125 2.5625-0.3619 0.72737-1.4388 0.68733-1.875 0.75-0.50136-0.6912-0.34604-2.0023-0.125-2.7188 0.24168-0.72905 0.67222-0.91755 1.0938-0.90625zm-15.688 0.125c0.72151-0.03623 1.4852 0.17022 2.2812 0.65625 1.8458 2.1308 1.2112 4.6413 0 6.9062-1.4944 1.9448-3.3811 2.6517-5.5 1.3438-1.8392-2.1361-1.2174-4.6407 0-6.9062 0.93109-1.2213 2.0162-1.9396 3.2187-2zm-17.094 0.875 0.1875 0.375c-0.72562 0.16522-1.4685 0.30311-2.1875 0.46875l-0.21875-0.53125 2.2188-0.3125zm2.1875 0.3125c0.55873 0.64296 1.2786 1.0884 2.1562 1.3438-2.3788 0.48053-4.747 0.99463-7.0938 1.5312 0.040035-0.56875 0.066947-1.1313 0.03125-1.6875 1.6309-0.39353 3.197-0.78261 4.9062-1.1875zm-5.4688 1.3125c0.029324 0.57203 0.019696 1.1525-0.03125 1.7188-0.50065 0.11529-1.0004 0.22677-1.5 0.34375 0.068763-0.57968 0.12375-1.1524 0.125-1.7188 0.46043-0.11166 0.94072-0.23124 1.4062-0.34375zm10.844 0c0.34688 0.2384 0.69744 0.4713 1.0625 0.6875l2.2812 4.5938c0.20137 0.88049 0.55667 1.6176 1.0625 2.1875l-2.8438 0.5-3.4062-7.6875c0.35038 0.02329 0.71502 0.02247 1.0938 0 0.2656-0.07926 0.50494-0.18381 0.75-0.28125zm9.25 0.125c-0.59724 0.06348-1.0854 0.49689-1.6562 1.0625-0.74358 1.1246-0.52712 1.9191 0 3 1.219 0.72897 1.9607 0.18319 2.875-0.71875 0.74358-1.1246 0.52713-1.9191 0-3-0.45785-0.27189-0.8604-0.38184-1.2188-0.34375zm-0.15625 0.25c0.42154 0.0113 0.82852 0.2431 1.0312 0.3125 0.50274 0.68964 0.09473 1.846-0.125 2.5625-0.3619 0.72737-1.4388 0.68733-1.875 0.75-0.50137-0.6912-0.34605-2.0023-0.125-2.7188 0.24168-0.72905 0.67222-0.91755 1.0937-0.90625zm-11.469 0.03125 3.1875 7.6875-2.5625 0.46875-3.5938-7.4688c0.9882-0.23451 1.9786-0.45301 2.9688-0.6875zm-10.375 0.0625c0.001441 0.55021-0.025908 1.1124-0.09375 1.6562-0.002478 0.01987 0.002593 0.04262 0 0.0625-4.3051 1.0126-8.5919 2.0578-12.875 3.0938 0.46904-0.47558 1.0465-1.2099 1.6562-2.0625 3.6897-0.88997 7.4454-1.8112 11.312-2.75zm-5.5 0.15625 0.25 0.5625c-0.78278 0.18364-1.5685 0.38-2.3438 0.5625l-0.375-0.90625 2.4688-0.21875zm37.531 0.15625c0.02246 1.6809 0.5293 2.9386 1.375 3.8125l-1.0625 0.1875-1.5625-3.7812c0.41135-0.07202 0.80718-0.13617 1.25-0.21875zm-1.9688 0.34375 1.5625 3.7812-1.6875 0.3125-1.8438-3.8125c0.67044-0.07799 1.3308-0.1771 1.9688-0.28125zm-15.375 0.03125c0.50232 0.26624 1.0028 0.51787 1.5312 0.75-0.13585 0.55404-0.2288 1.1147-0.28125 1.6875l-1.25-2.4375zm-8.0938 0.125 3.625 7.4062-2.8438 0.5-3.0938-7.3438c0.77131-0.18277 1.541-0.37941 2.3125-0.5625zm20.906 0.34375 1.7812 3.7188-3.125 0.53125-0.09375-0.21875c0.74902-1.1945 1.2431-2.5746 1.4375-4.0312zm-23.531 0.28125 2.8125 7.4062c-2.4913 0.47699-4.9775 0.8422-6.9062 1.1875l-0.53125-1.0312c2.5885-2.5407 2.6657-3.9977 3.0625-7.1875 0.52097-0.12311 1.0417-0.25164 1.5625-0.375zm-2.1562 0.5c-0.3136 2.6201-0.43502 4.1736-2.6562 6.6562l-0.78125-1.5625c0.98529-1.5761 1.5944-3.1406 1.875-4.7188 0.52091-0.12276 1.0415-0.25195 1.5625-0.375zm-16.156 0.21875 0.3125 0.625c-0.80332 0.18852-1.6307 0.37502-2.4375 0.5625l-0.4375-1.0312 2.5625-0.15625zm14.125 0.28125c-0.265 1.3355-0.80465 2.6891-1.6562 4.0938l-1.625-3.3438c1.0926-0.25527 2.1885-0.49265 3.2812-0.75zm-22.625 0.5625 2.25 0.03125 0.5625 1.125c-0.71322 0.16215-1.4037 0.33879-2.125 0.5l-0.6875-1.6562zm18.812 0.3125 1.7812 3.7812c-0.55566 0.83908-1.2054 1.6973-2 2.5625l-2.2812-5.75c0.83416-0.19313 1.6659-0.39916 2.5-0.59375zm-3.2188 0.75 2.5312 6.0938c-0.27014 0.27904-0.54724 0.56192-0.84375 0.84375l-3.6562 0.65625-3.125-6.4062c1.7007-0.38514 3.3945-0.795 5.0938-1.1875zm-19.281 0.125 0.625 1.2812c-0.69716 0.15033-1.3848 0.31939-2.0938 0.46875l-0.6875-1.625 2.1562-0.125zm60.5 0.4375c0.50319 0.35864 1.0871 0.6278 1.75 0.78125l-11.719 2.0938c0.53563-0.38085 0.99025-0.84839 1.4062-1.3438l8.5625-1.5312zm-42.156 0.34375-2.7812 0.71875 2.2812 5.4062 2.7188-0.5625-2.2188-5.5625zm50.031 0.09375 0.28125 0.65625-2.7188 0.5625-0.28125-0.71875 2.7188-0.5zm-54.687 0.28125 3.0312 6.4062-3 0.53125-2.5938-6.3438c0.85614-0.19114 1.707-0.40043 2.5625-0.59375zm4.2188 0.375 1.9062 4.4375-1.5312 0.5-2.0312-4.5938 1.6562-0.34375zm45.062 0.3125 0.3125 0.53125-3.125 0.75-0.3125-0.75 3.125-0.53125zm-52.531 0.0625 2.5938 6.3125-1.5938 0.28125-3.0312-6.1562c0.6761-0.14881 1.3556-0.28719 2.0312-0.4375zm19.844 0.4375-2.7812 0.71875 1.1562 2.1562 2.7188-0.5625-1.0938-2.3125zm-22.531 0.15625 3.0312 6.125-2.8438 0.5-2.5312-6.125c0.78079-0.16888 1.5638-0.32895 2.3438-0.5zm49.187 0.40625 0.125 0.28125-3.2812 0.6875-0.15625-0.40625 3.3125-0.5625zm-27.094 0.1875 0.78125 1.1875-1.5312 0.5-0.90625-1.3438 1.6562-0.34375zm-25.031 0.03125 2.375 6.125-1.75 0.3125-3.0312-5.9375c0.80191-0.17013 1.6053-0.3274 2.4062-0.5zm19.719 0.3125 0.71875 1.4688c-0.42052 0.43781-0.90939 0.89873-1.4688 1.4062l-1.0625 0.1875-0.25-0.5625c0.79853-0.84413 1.4951-1.6738 2.0625-2.5zm19.125 0.03125 1.7188 0.875-25.938 4.4375 1.9375-1.5625 22.281-3.75zm-41.781 0.28125 2.9375 5.9062-2.75 0.5-2.5-5.9375c0.76954-0.16001 1.544-0.3063 2.3125-0.46875zm49.219 0.15625 0.3125 0.65625-3.375 0.78125-0.34375-0.8125 3.4062-0.625zm-6.2812 1.125 0.25 0.5-2.9375 0.6875-0.3125-0.6875 3-0.5zm-19.406 0.25 0.34375 0.6875-1.4062 0.25c0.39902-0.33753 0.73645-0.63574 1.0625-0.9375zm12.406 0.96875 0.28125 0.5625-3.0312 0.5-0.21875-0.53125 2.9688-0.53125zm-15.812 0.1875 0.0625 0.1875-0.3125 0.0625c0.087059-0.08513 0.16542-0.16513 0.25-0.25zm4.7812 1.75 0.28125 0.59375-3.125 0.78125-0.3125-0.8125 3.1562-0.5625zm-9 1.5938 0.34375 0.71875-3.125 0.6875-0.34375-0.875 3.125-0.53125zm-5.9062 1.0312 0.25 0.5-2.9688 0.78125-0.3125-0.75 3.0312-0.53125zm-5.9688 1.0312 0.46875 0.96875-2.875 0.78125-0.53125-1.2188 2.9375-0.53125z" fill-rule="evenodd"/>
 </g>
</svg>
