<?xml version="1.0" encoding="UTF-8"?>
<!-- Created with Inkscape (http://www.inkscape.org/) -->
<svg id="svg2" width="128" height="128" version="1.0" xmlns="http://www.w3.org/2000/svg" xmlns:cc="http://creativecommons.org/ns#" xmlns:dc="http://purl.org/dc/elements/1.1/" xmlns:rdf="http://www.w3.org/1999/02/22-rdf-syntax-ns#" xmlns:xlink="http://www.w3.org/1999/xlink">
 <defs id="defs4">
  <linearGradient id="linearGradient3415">
   <stop id="stop3417" stop-color="#1a1a1a" offset="0"/>
   <stop id="stop3419" stop-color="#2b2b2b" offset="1"/>
  </linearGradient>
  <linearGradient id="linearGradient2320">
   <stop id="stop2322" stop-color="#6a3c1d" offset="0"/>
   <stop id="stop2324" stop-color="#8f5127" offset="1"/>
  </linearGradient>
  <linearGradient id="linearGradient2338">
   <stop id="stop2340" stop-color="#b1b1b1" offset="0"/>
   <stop id="stop2342" stop-color="#e4e4e4" offset="1"/>
  </linearGradient>
  <linearGradient id="linearGradient2369" x1="50.27" x2="81.459" y1="86.414" y2="114.79" gradientUnits="userSpaceOnUse" xlink:href="#linearGradient2338"/>
  <linearGradient id="linearGradient2374" x1="52.96" x2="71.062" y1="78.954" y2="89.717" gradientUnits="userSpaceOnUse" xlink:href="#linearGradient2338"/>
  <linearGradient id="linearGradient2378" x1="48.557" x2="58.22" y1="84.824" y2="68.19" gradientUnits="userSpaceOnUse" xlink:href="#linearGradient2338"/>
  <linearGradient id="linearGradient2382" x1="60.788" x2="60.911" y1="70.698" y2="80.482" gradientUnits="userSpaceOnUse" xlink:href="#linearGradient2338"/>
  <linearGradient id="linearGradient2969" x1="74.976" x2="81.948" y1="68.924" y2="77.975" gradientUnits="userSpaceOnUse" xlink:href="#linearGradient2320"/>
  <linearGradient id="linearGradient3179" x1="76.454" x2="76.454" y1="63.395" y2="70.919" gradientUnits="userSpaceOnUse" xlink:href="#linearGradient2320"/>
  <linearGradient id="linearGradient3183" x1="76.281" x2="81.038" y1="63.784" y2="67.027" gradientUnits="userSpaceOnUse">
   <stop id="stop2890" stop-color="#007dff" offset="0"/>
   <stop id="stop2892" stop-color="#58abff" offset="1"/>
  </linearGradient>
  <linearGradient id="linearGradient3382" x1="41.059" x2="45.287" y1="53.226" y2="53.226" gradientUnits="userSpaceOnUse" xlink:href="#linearGradient2320"/>
  <linearGradient id="linearGradient3386" x1="84.233" x2="88.683" y1="55.395" y2="55.395" gradientUnits="userSpaceOnUse" xlink:href="#linearGradient2320"/>
  <linearGradient id="linearGradient3398" x1="57.416" x2="86.903" y1="51" y2="19.844" gradientUnits="userSpaceOnUse">
   <stop id="stop3394" stop-color="#4a585b" offset="0"/>
   <stop id="stop3396" stop-color="#5e7074" offset="1"/>
  </linearGradient>
  <linearGradient id="linearGradient3402" x1="35.162" x2="49.293" y1="37.481" y2="47.94" gradientUnits="userSpaceOnUse" xlink:href="#linearGradient2320"/>
  <linearGradient id="linearGradient3408" x1="37.721" x2="38.834" y1="41.82" y2="46.494" gradientUnits="userSpaceOnUse" xlink:href="#linearGradient2320"/>
  <linearGradient id="linearGradient3421" x1="54.625" x2="55.625" y1="56.375" y2="61.25" gradientUnits="userSpaceOnUse" xlink:href="#linearGradient3415"/>
  <linearGradient id="linearGradient3425" x1="38.802" x2="45.255" y1="54.129" y2="66.371" gradientUnits="userSpaceOnUse" xlink:href="#linearGradient3415"/>
  <linearGradient id="linearGradient3429" x1="47.509" x2="49.144" y1="66.482" y2="60.781" gradientUnits="userSpaceOnUse" xlink:href="#linearGradient3415"/>
  <linearGradient id="linearGradient3433" x1="34.781" x2="35.355" y1="62.018" y2="63.653" gradientUnits="userSpaceOnUse" xlink:href="#linearGradient3415"/>
  <linearGradient id="linearGradient3437" x1="39.819" x2="42.338" y1="59.168" y2="63.322" gradientUnits="userSpaceOnUse" xlink:href="#linearGradient2320"/>
  <linearGradient id="linearGradient3441" x1="30.361" x2="31.245" y1="64.515" y2="66.194" gradientUnits="userSpaceOnUse">
   <stop id="stop3195" stop-color="#c2a05c" offset="0"/>
   <stop id="stop3197" stop-color="#d6be91" offset="1"/>
  </linearGradient>
  <linearGradient id="linearGradient3449" x1="39.112" x2="40.924" y1="59.278" y2="61.112" gradientUnits="userSpaceOnUse" xlink:href="#linearGradient3415"/>
  <filter id="filter3570">
   <feGaussianBlur id="feGaussianBlur3572" stdDeviation="1.6277848"/>
  </filter>
 </defs>
 <metadata id="metadata7">
  <rdf:RDF>
   <cc:Work rdf:about="">
    <dc:format>image/svg+xml</dc:format>
    <dc:type rdf:resource="http://purl.org/dc/dcmitype/StillImage"/>
   </cc:Work>
  </rdf:RDF>
 </metadata>
 <g id="layer2" fill-rule="evenodd">
  <path id="path3451" d="m59.828 66.261c-14.06 3.6321-28.119 7.2642-42.179 10.896 6.8681 3.934 13.736 7.868 20.604 11.802 10.093-2.9444 20.139-5.9243 30.262-8.8466-10.06 2.9899-20.218 5.9082-30.239 8.9273-6.811-3.869-13.622-7.738-20.433-11.607-4.599 2.7495-3.6774 6.7432-7.223 9.7644-1.641 1.4172 0.70144 2.7369 3.4182 1.4572 4.193-0.45811 9.9753-2.1957 7.172-4.6832 0.93188 0.61154 2.3031 3.8949 1.3694 5.5563-1.3811 1.9879 0.7499 4.5104-2.4994 6.0651-2.6536 1.0966 0.64621 2.2711 1.9982 0.7104 6.7075-0.56983 4.0266 3.7303 6.8947 5.3742 2.4217 2.2611 6.7918 3.2681 8.3342 5.7975 2.7371 2.7983 4.1785 3.7749 6.8431 6.5711 2.1181 1.8061 8.7761 2.8947 13.551 4.4734 11.647 0.70638 18.049-4.0324 26.262-7.7335 2.9466-1.0376 7.1867-2.51 5.3261-4.6446-2.786-3.9334 0.35343-4.8124-2.3682-8.7583 3.6112-3.2225-0.60517-7.6788-7.3391-9.5188-4.5611-2.2149-4.2883-5.4602-7.1245-8.0673-3.6131-1.3017 4.853-1.3158 5.7448-2.4224 4.6608-2.0418-3.5588-4.1056-6.3611-5.6223-4.0151-1.8251-7.9773-3.6774-12.014-5.4914zm-31.415 18.627c1.8827 0.51111 6.833 4.0972 2.1328 2.728-1.2051-0.82011-1.4689-1.8145-2.1328-2.728zm41.713-3.9308c0.94605 0.11581-0.51753 0.52759 0 0zm0.53556 1.3348c0.48787 0.53392-1.2299 0.6859 0 0zm-0.72279 1.5652c0.037129 3.1607-7.9243 2.5905-12.173 3.4365-6.3614 1.4372-11.869 3.5703-18.384 4.8769 10.162-2.7892 20.37-5.5427 30.556-8.3134zm-38.622 5.0508c1.3662 0.1717-0.35202 0.45244 0 0zm3.6033-0.16716 0.62073 0.33365-0.62073-0.33365zm-2.8317 0.68553c0.7742 0.4046 1.859 1.5022 0.51259 0.43958l-0.51259-0.43958zm3.5998 1.1708c1.5974 0.68902-0.2903 0.40654 0 0zm0.053041 2.2335 0.22905 0.38101-0.22905-0.38101zm49.093 0.009166c-0.72948 0.75104-1.3696 0.83814 0 0zm-4.6278 2.7914c-0.96465 0.60696-1.7293 0.48086 0 0zm-43.023 5.6225c2.3141-0.06894 8.6185 0.39571 2.7446 0.30399-0.92755-0.0378-1.863-0.12589-2.7446-0.30399zm10.988 0.27798c2.0525-0.27928 3.0143 0.1288 0 0zm35.133-2.3237c-5.8398 2.6964-13.782 4.0421-21.683 4.9415 7.6482-1.2169 15.477-2.4524 21.683-4.9415zm-42.376 5.7725c1.7207 0.02786 2.5055 0.25621 0 0zm8.1951 0.15588c1.4322-0.18654 2.3987 0.14559 0 0z" fill-opacity=".68493" filter="url(#filter3570)"/>
  <path id="path2367" d="m42.197 110.26-0.85617-25.441 5.7486 2.5685 6.7271 1.59 15.533 1.1008 10.029-1.4677 5.504-1.3454 7.2163-4.0362 1e-6 1.59-0.61155 26.174-6.6048 3.1801c-4.4291 2.7389-9.1984 3.4367-13.943 4.2809l-10.519-0.12231-9.7848-2.6908-5.8709-3.4247-2.5685-1.957z" fill="url(#linearGradient2369)"/>
  <path id="path2372" d="m35.715 71.37 2.3239 3.1801 7.094 4.8924 10.029 2.5685 11.986 0.61155 9.1733-0.85617 8.4394-2.2016 5.9932-3.1801 2.3239-2.0793 2.3239-4.5255 0.36693 7.4609-2.8131 5.504-4.5255 2.6908-6.2378 2.4462-13.821 1.8347-11.375-0.36693-7.5832-1.2231-4.7701-1.8347-4.4032-1.957-3.4247-3.4247-1.3454-2.6908 0.24462-6.8494z" fill="url(#linearGradient2374)"/>
  <path id="path2376" d="m35.837 67.456v2.6908l1.59 4.2809 4.8924 3.547 10.763 3.547 8.8063 1.1008 5.137 0.12231 8.8063-0.85617 5.8709-1.2231 7.5832-3.3024 4.5255-3.6693 1.4677-3.1801-2.8131-6.3601-1.59-1.2231c-4.1319-0.75126-5.1926-3.998-8.8686-4.9619-3.5779-0.93817-8.7913-1.8402-15.349 0.55876l-16.634 3.9139-14.188 5.0147z" fill="url(#linearGradient2378)"/>
  <path id="path2380" d="m46.478 70.025 2.0793-4.2809 3.6693-2.2016 6.3601-1.1008 7.8279-0.61155-0.12231 2.6908 2.4462 11.864h-5.7486l-7.5832-0.97848-5.504-1.7123-3.1801-1.8347-0.24462-1.8347z" fill="url(#linearGradient2382)"/>
  <path id="path2384" d="m42.197 110.26-0.85617-25.441 5.7486 2.5685 6.7271 1.59 15.533 1.1008 10.029-1.4677 5.504-1.3454 7.2163-4.0362 1e-6 1.59-0.61155 26.174-6.6048 3.1801c-4.6478 2.6565-9.2956 3.9045-13.943 4.2809l-10.519-0.12231-9.7848-2.6908-5.8709-3.4247-2.5685-1.957z" fill-opacity=".15686"/>
  <path id="path2386" d="m35.715 71.37 2.3239 3.1801 7.094 4.8924 10.029 2.5685 11.986 0.61155 9.1733-0.85617 8.4394-2.2016 5.9932-3.1801 2.3239-2.0793 2.3239-4.5255 0.36693 7.4609-2.8131 5.504-4.5255 2.6908-6.2378 2.4462-13.821 1.8347-11.375-0.36693-7.5832-1.2231-4.7701-1.8347-4.4032-1.957-3.4247-3.4247-1.3454-2.6908 0.24462-6.8494z" fill-opacity=".15686"/>
  <path id="path2388" d="m46.478 70.025 2.0793-4.2809 3.6693-2.2016 6.3601-1.1008 7.8279-0.61155-0.12231 2.6908 2.4462 11.864h-5.7486l-7.5832-0.97848-5.504-1.7123-3.1801-1.8347-0.24462-1.8347z" fill-opacity=".15686"/>
  <path id="path2967" d="m68.861 78.464-2.8131-13.943 2.0793 1.2231 3.7916 1.1008 3.0578 0.12231 5.8709-0.24462 1.957-0.61155 3.4247-1.4677-1.7123 13.21-2.0793 0.85617-6.6048 1.7123-4.1586-0.85617-2.8131-1.1008z" fill="url(#linearGradient2969)"/>
  <path id="path3177" d="m66.681 62.789 4.5838-2.1622 3.9784-0.95135 3.4595 0.17297 5.3622 1.2973 2.4216 1.9027 0.070875 0.85675-2.9249 1.9973-2.8541 0.69189-5.0162 0.51892-6.6595-0.95135-2.5946-1.3838-0.086486-1.1243 0.25946-0.86486z" fill="url(#linearGradient3179)"/>
  <path id="path3181" d="m68.497 65.643 1.3838-0.95135 3.027-1.4703 3.027-0.77838 2.7676 0.25946 1.6432 0.25946 1.9027 0.43243 3.2 1.4703c-1.737 1.0977-3.4692 2.2067-5.8811 1.7297l-4.8432 0.43243-3.6246-0.32253-2.6024-1.0613z" fill="url(#linearGradient3183)"/>
  <path id="path3376" d="m66.092 68.045 4.6422 1.1015 7.396 0.23604 4.7208-0.78681 3.5406-0.94417 0.23604 0.86549-0.31472 1.1802-3.5406 0.94417-5.9011 0.86549-7.396-0.47208-3.0686-0.78681-0.62945-0.3934-0.31472-0.94417 0.62945-0.86549z" fill="#1a1a1a"/>
  <path id="path3378" d="m67.429 74.812 3.0686 0.94417 3.2259 0.31472 3.3833-0.078681 2.9899-0.3934 4.0914-0.86549h1.1802l-0.078681 1.4949-1.4949 0.47208-3.6193 0.78681-2.2817 0.31472h-4.4061l-3.3833-0.55077-2.2817-0.55076-0.3934-1.8883z" fill="#1a1a1a"/>
  <path id="path3380" d="m39.39 74.256 0.89017-43.507 5.8974 13.909 0.22254 29.821-1.7803 0.44509-2.0029 0.44509-2.2254-0.44509-1.0014-0.66763z" fill="url(#linearGradient3382)"/>
  <path id="path3384" d="m83.009 60.347 0.33382-5.6748 1.6691-0.55636 1.7803-2.448 0.66763-2.7818-1.1127-2.448 3.8945-0.89017v18.582l-1.7633 0.98444-2.7537 0.12827 0.70074-1.3021-0.74578-1.8135-2.2254-1.224-0.44509-0.55636z" fill="url(#linearGradient3386)"/>
  <path id="path3388" d="m52.631 55.674-11.35-27.039 46.066-10.126 13.686 23.923-48.403 13.241z" fill="url(#linearGradient3398)"/>
  <path id="path3400" d="m25.37 50.221 14.688-21.03h1.224l11.35 26.705-2.1142 0.72326-10.014-25.314-12.907 18.582-2.2254 0.33382z" fill="url(#linearGradient3402)"/>
  <path id="path3406" d="m27.818 49.554 12.574-18.36-0.66763 16.468-11.906 1.8916z" fill="url(#linearGradient3408)"/>
  <path id="path3410" d="m27.818 49.554 12.574-18.36-0.66763 16.468-11.906 1.8916z" fill-opacity=".15686"/>
  <path id="path3404" d="m25.37 50.221 14.688-21.03h1.224l11.35 26.705-2.0029 0.55636-10.126-25.147-12.907 18.582-2.2254 0.33382z" fill-opacity=".15686"/>
  <path id="path3413" d="m86.84 46.358 0.36693 1.2231 0.18347 2.6908-2.0793 3.547-35.837 8.6229-0.061156-3.4247-1.1619-4.8313 1.3454 0.061156 0.91733 2.4462 2.5685-1.0396 32.045-8.8063 1.7123-0.48924z" fill="url(#linearGradient3421)"/>
  <path id="path3423" d="m40.261 50.174 1.4584-0.044194 2.6958 1.5026 2.1655 3.3146 0.57452 2.1213 0.7513 4.0217-0.35355 3.6239-1.8562 4.331-3.0052 2.1655-1.4142 0.53033s-1.5468-0.22097-1.9445-0.39775c-0.39775-0.17678-3.9333-5.5685-3.9333-5.5685l-0.53033-5.0823s0.39775-3.8891 0.53033-4.3752c0.13258-0.48614 1.9887-3.8449 1.9887-3.8449l2.8726-2.2981z" fill="url(#linearGradient3425)"/>
  <path id="path3427" d="m40.747 49.953 1.5468-0.044194 2.0771 0.53033 1.9003 1.2816 1.9004 2.5633 0.88388 2.6075 0.44194 4.2426-0.66291 4.4636-1.9003 3.2704s-1.0165 1.4142-1.1932 1.5468c-0.17678 0.13258-1.2816 0.61872-1.2816 0.61872l-1.149 0.44194-1.812 0.17678s0.7513-0.39775 1.3258-0.57452c0.57452-0.17678 2.2097-1.6794 2.2097-1.6794l1.8562-3.0936 0.88388-2.6516v-2.3423l-0.35355-3.7123-1.149-3.6681-1.591-2.1213-1.7236-1.1049-1.7236-0.53033-0.48614-0.22097z" fill="url(#linearGradient3429)"/>
  <path id="path3431" d="m32.483 63.079 4.331-1.9445 1.7678-1.0607 0.7513 2.2539s-1.5026 0.17678-1.9445 0.44194-3.1378 1.812-3.1378 1.812l-1.0165 0.7513 0.044194-1.2816-0.7955-0.97227z" fill="url(#linearGradient3433)"/>
  <path id="path3435" d="m38.272 62.814 0.7513 1.812 1.37 0.97227 1.0165 0.22097 0.7513-0.30936 0.66291-0.83969 0.70711-2.3865-0.088388-3.1378-0.83969-1.8562-1.6352-1.0607h-1.0165l-1.37 0.7955-0.66291 1.2816-0.22097 2.2539 1.2816-0.57452 0.13258 2.3423-0.83969 0.48614z" fill="url(#linearGradient3437)"/>
  <path id="path3439" d="m28.505 64.67 3.8891-1.37 1.0165 0.61872-0.35355 1.5468-3.2262 2.1213-1.0607-1.37-0.26516-1.5468z" fill="url(#linearGradient3441)"/>
  <path id="path3443" d="m28.505 64.714 1.4142 0.44194 0.22097 0.44194 0.22097 1.149-0.39775 0.7513-1.149-1.4142-0.35355-0.88388 0.044194-0.48614z" fill-opacity=".15686"/>
  <path id="path3445" d="m40.703 56.361 1.1932 1.6352 0.83969 1.4584 0.22097 0.7955-0.13258 2.3865-1.6352 2.4307-0.53033 0.61872 1.0165 0.044194 0.88388-0.70711 0.7513-1.812 0.13258-1.9887 0.088388-1.37-0.70711-2.0771-0.7513-0.97227-1.37-0.44194z" fill-opacity=".15686"/>
  <path id="path3447" d="m39.112 59.632 0.22097 2.6958 1.2816-0.30936 1.0165-0.7513 0.22097-0.88388-0.70711-1.1049-1.149 0.044194-0.88388 0.30936z" fill="url(#linearGradient3449)"/>
 </g>
 <g id="layer1">
  <path id="path2308" d="m87.25 18.125-47.5 10.688-14.875 21.688 14.719-2.4375-0.03125 2.0625c-3.8818 2.1752-4.8329 6.6637-5.0312 10.812 0 0.3727 0.032813 0.73245 0.0625 1.0938-0.81572 0.36627-1.6363 0.695-2.4688 1.0312l-3.875 1.5625c-0.40375 1.3698 1.0459 2.2893 1.5625 3.25l3.5312-2.2188c0.03399-0.12243 0.06644-0.22942 0.09375-0.34375 0.48022-0.30255 0.95558-0.60574 1.4375-0.875 0.20174 0.99267 0.48602 1.9283 0.84375 2.7812-0.6837 1.3324-0.61522 2.6798-0.40625 4.0938-0.014585 1.8786 0.19972 3.7745 0 5.9062 0.13507 3.7258 2.9788 6.0072 5.8438 7.875l1.0312 25.5c9.1192 7.0427 17.392 8.8003 28.594 8.125 9.2489-1.1557 16.014-4.659 21.062-7.4688l0.5625-27.875c1.9786-1.5523 3.1722-3.6513 3.4062-6.1562-0.017403-2.4828-0.13645-4.966-0.1875-7.4375-0.11437-3.4668-2.6737-5.7087-5.3125-7.5312l-0.125-16.562 11.406-3.1875-14.344-24.375zm-0.3125 0.9375 13.656 23.031-47.938 13.406-10.438-26.219 44.719-10.219zm-11.062 3.5-0.28125 0.0625 1.2812 2.1562-2.9375 0.625-0.03125 0.28125 3.0938-0.71875 2.125 3.5938 0.21875 0.03125-2.125-3.6875 8.0938-1.875h-0.15625l-8.0312 1.6875-1.25-2.1562zm-11.969 3.7188-0.46875 0.09375c0.10295 0.22305 0.7694 1.5925 1.1562 2.4062l-18.594 4.375-1.2188-3.0312-0.4375-0.125 1.3125 3.2188-0.78125 0.1875 0.21875 0.25 0.65625-0.15625 7.7812 19.219h0.375l-7.7812-19.312 18.594-4.3438c0.95874 2.0154 1.5422 3.2289 2.6875 5.625l-5.4688 1.2812 0.21875 0.25 5.375-1.2812c0.84521 1.7681 2.0312 4.2812 2.0312 4.2812l0.34375 0.0625c1e-6 -1e-6 -1.1776-2.5582-2.0312-4.4062l19.344-4.5625 4.9062 9.2188-6.2188 1.8125 0.3125 0.1875 6.0625-1.7188 0.96875 1.8125 0.25 0.03125-1-1.9062 3.3438-0.96875-0.1875-0.25-3.2812 0.9375-4.8438-9.2188 4.3438-1.0312-0.25-0.1875-4.2188 1-1.8125-3.4688-0.375 0.03125 1.875 3.5-19.344 4.5312c-1.126-2.4377-1.6704-3.657-2.5938-5.6562l3.4688-0.8125-0.25-0.25-3.3438 0.78125c-0.37084-0.80292-1.03-2.2005-1.125-2.4062zm-23.719 3.1875 1.0312 0.03125 10.875 26.406-1.2812 0.5-10.094-26.156c-0.3777-0.15578-0.13371 0.1623-0.46875-0.09375l-12.969 19.406-1.375 0.40625 14.281-20.5zm0.25 2.2188 5.2812 12.625-0.1875 6.625c-1.366-0.91789-3.08-1.3539-5.1562-1.0625l0.0625 0.0625c-0.081377-1.88e-4 -0.1703-0.035242-0.25-0.03125l0.25-18.219zm-0.53125 0.65625-0.28125 14.656-11.25 2.25 11.531-16.906zm45.812 2.25-10.281 2.4688-0.84375-1.9062-0.375-0.03125 0.90625 2.0312-1.5938 0.375 0.3125 0.1875 1.375-0.34375 2.6562 5.875-16.469 4.0312-4.8438-11.969-0.375-0.09375 5 12.125-3.375 0.8125 0.375 0.0625 3.0625-0.75 1.3125 3.2188 0.28125 0.09375-1.375-3.375 16.469-4 1.4062 3.125 0.25 0.03125-1.4062-3.2188 3.1562-0.78125-0.15625-0.125-3.0625 0.75-2.5938-5.875 10.25-2.5312-0.0625-0.1875zm-47.438 3.875-4.3438 7.0625-2-0.03125-0.4375 0.40625 2.25-0.03125-0.40625 0.625 0.34375 0.21875 0.5-0.875 3.9375-0.0625-0.15625 0.375 0.03125 0.09375 0.21875-0.46875h0.75l0.25-0.21875h-0.875l0.78125-1.5938-0.25-0.125-0.65625 1.7188-3.8438-0.03125 3.9688-7.0312-0.0625-0.03125zm51.156 7.3125 0.40625 18.062c-1.1378 0.9572-2.5199 1.3053-3.25 1.25 0.53033-1.5952-0.20949-2.514-1.2188-3.5938-0.25137-0.88945-0.8512-1.7419-1.6562-2.5l0.03125-4.1562 1.75-0.4375c1.9786-2.4219 2.6825-4.9495 1.6562-7.875l2.2812-0.75zm-43.125 0.625 2.9375 7.5312-1 0.21875c-0.49296-0.97885-1.1189-1.8328-1.875-2.5312l-0.0625-5.2188zm40.188 0.40625c1.3286 2.4287 0.083871 4.8552-1.4688 6.6875l-2.5312 0.625-0.84375-6.0625 4.8438-1.25zm-5.4688 1.5625 0.9375 5.7812-3.25 0.84375-1.4062-5.7812 3.7188-0.84375zm-4.25 1.0625 1.4688 5.6875-2.6562 0.875-1.2812-5.875 2.4688-0.6875zm-35.062 0.65625c10.32-0.00338 8.9698 21.193 0.65625 21.438 2.3695-0.72159 4.3481-2.7559 5.3125-6.4062 0.7983-3.0098 0.27908-6.3511-0.5625-9.6562-0.77265-2.9885-3.1679-4.8372-5.4062-5.375zm-0.4375 0.1875c1.5333-5e-6 3.0307 1.4735 4.125 3.3125 1.0943 1.839 2.25 4.7239 2.25 7.5938-0.14669 4.309-1.7144 9.0965-6.2812 10.344-3.55-0.69945-5.0419-4.1044-5.7188-7.5 0.74997-0.38938 1.4993-0.74742 2.2812-1.0625 0.66822 2.0899 1.3933 2.6741 2.7812 2.875 1.8655 0.40762 2.4808-1.3223 3-4.7188 0.11775-3.2461-1.69-5.4591-3.9062-5.0938v0.03125c-0.021228-6.96e-4 -0.041035 1.03e-4 -0.0625 0-0.91985 0.46055-1.4861 0.94961-2.0312 1.7812-0.30792 0.64811-0.31673 1.7758-0.1875 2.6562-0.72668 0.4461-1.4846 0.85501-2.25 1.2188-0.032864-0.32855-0.069071-0.6613-0.09375-0.96875 0.059213-4.3851 1.5361-9.2393 6.0938-10.469zm32.531 0 0.96875 5.6875-1.9062 0.46875-1.3125-5.5312 2.25-0.625zm-2.875 0.875 1.375 5.5938-2.625 0.5625-1.1562-5.5625 2.4062-0.59375zm-2.9062 0.875 1.0312 5.4375-2.6875 0.53125-0.90625-5.4062 2.5625-0.5625zm-3.1875 0.84375 1.125 5.3438-1.8125 0.3125-1.7188-5.0938 2.4062-0.5625zm-2.8125 0.5 1.4688 5.5-2.4375 0.40625-0.40625-5.3438 1.375-0.5625zm-1.875 0.71875 0.28125 5.4375-2.1562 0.40625-0.75-5.125 2.625-0.71875zm-10.531 0.78125 0.75 1.9375 2.7188-0.75 0.25 5.0938-1.7188 0.40625-2.625-6.5312 0.625-0.15625zm33.125 0.1875-0.03125 3.125c-0.57573-0.38684-1.1997-0.71407-1.875-0.9375-1.2055-0.39884-2.5647-0.65776-3.9375-0.78125l5.8438-1.4062zm-25.844 0.0625 0.75 4.875-3.6562 1.0938-0.375-5.125 3.2812-0.84375zm-17 1.2812c1.3517 0.023119 2.4148 2.4065 2.875 4.0625 0.2737 1.9411-0.75264 3.71-2.2188 4.875-1.3235-0.20689-1.5805-1.4646-2.0312-2.5938 0.21842-0.081833 0.4336-0.17343 0.65625-0.25l1.9062-0.40625c1.173-0.99188 0.85027-1.4997 0.75-2.1562-0.44792-0.96462-0.89583-0.66974-1.3438-1l-1.4375 0.5c-0.31696 0.2426-0.63948 0.46951-0.96875 0.6875-0.11594-0.66159-0.074997-1.3258 0.15625-1.8125 0.2288-0.48158 0.50628-1.5308 1.6562-1.9062zm1.1875 0.125c1.5527 0.48695 2.2485 2.2611 2.3438 4.2812-0.20613 2.2549-0.46954 4.7078-2.3438 4.75 1.6349-1.2297 1.9572-2.9041 2-5.125-0.22844-1.175-0.83917-3.0416-2-3.9062zm34.906 0.5c0.83933-0.036185 2.1982 0.16618 4.875 0.65625 0.61926 0.11337 1.8584 0.65231 1.9375 1.5312-1.7432-0.48173-5.977-1.5544-7.9375-1.875 0.30833-0.18363 0.6214-0.29079 1.125-0.3125zm-26.625 0.4375 1.6875 4.25-1.4375 0.34375c0.11519-1.5358 0.045822-3.111-0.25-4.5938zm21.562 0.375c0.14834-0.013563 0.27735-0.00743 0.40625 0 4.2083 0.36302 8.0456 1.1221 11.375 2.1562v0.4375c-1.7898-0.49988-4.0168-0.8125-6.4688-0.8125-3.0729-0.001765-6.9541 0.96665-9.7188 2.3438 0.036379-0.70064 0.53744-2.1163 0.96875-2.625 0.93902-0.80603 2.3991-1.4051 3.4375-1.5zm-3.5312 0.9375c-0.93758 0.67924-1.3388 2.3515-1.625 2.8438-4.1413 1e-6 -7.9786 0.4496-11.219 1.2188l-0.625-1.0312 13.469-3.0312zm-26.938 0.53125c1.3894 0.46947 1.809 1.5613 0.0625 2.375l-0.9375 0.1875-0.21875-2.0625 1.0938-0.5zm43.25 0.125c0.26632 0.27843 1.0902 1.6223 1.25 1.9062-0.20017-0.087327-1.0284-0.51394-1.25-0.59375v-1.3125zm-7.5 0.625c3.1005 0.26188 8.4858 0.6963 10.281 3.5312-0.26275 0.41468-0.62601 0.75215-1.0312 1.0625-2.9682-1.3294-6.1001-2.4106-8.875-2.2812-2.7874 0.12989-5.6528 1.432-8.1875 3.1562-0.040021-0.015437-0.085059-0.015516-0.125-0.03125-1.1122-0.24712-1.8112-1.5524-1.3438-2.5625 2.6048-1.6652 6.2711-2.7966 9.2812-2.875zm-37.781 0.40625 0.1875 1.6562c-2.0855 0.72927-3.5016 1.8097-5.125 2.8438 0.10227-0.62487 0.007693-1.141-0.59375-1.6875 2.0876-0.83937 4.0461-1.2131 5.5312-2.8125zm15.375 1.375 0.59375 1.0312c-1.1032 0.267-2.1507 0.56626-3.0938 0.90625-0.76569 0.27604-1.435 0.58156-2.0625 0.90625 0.14863-0.62209 0.23658-1.2548 0.3125-1.9062l4.25-0.9375zm12.25 0.34375-0.5625 1.6562 0.75 3.75c-0.97674 0.45432-1.0097 1.2981-0.71875 1.9688l-0.0625-0.09375c-2.2244-0.17261-3.6953-0.11782-5.4375 0.03125-1.9473 0.16661-3.6017 0.52967-4.9688 1l-0.28125-7.25c3.6844-0.8261 7.546-0.96175 11.281-1.0625zm10.562 0.5c2.8137-0.087111 5.7225 0.68609 8.5 2.25-2.4122 1.5493-6.5065 1.7395-9 1.9688-2.5836-0.021856-5.1103-0.39529-7.5-1.2812 2.4241-1.8824 5.1546-2.8494 8-2.9375zm-22.125 0.65625 0.3125 7.25c-2.0987 0.76686-3.499 1.8154-4.25 2.9688-1.2353-0.52544-2.2389-1.097-2.9688-1.7188-0.34286-0.29207-0.59457-0.60506-0.8125-0.90625-0.12462-0.34911-0.18575-0.69391-0.21875-1.0312 1.0648-1.0729 1.8509-2.5524 2.375-4.2188 0.72283-0.56492 1.5768-1.1221 2.625-1.5 0.95747-0.34669 1.9463-0.6112 2.9375-0.84375zm35.812 0.09375c2.4029 1.5145 3.7945 3.5874 4.3125 6.3438 3e-6 1.2679-0.49002 2.504-1.4062 3.6875l-6.9688-3.75c0.95108-0.49137 0.31533-2.7868-0.03125-2.2188l0.28125-1.8438c2.8218-0.079399 3.6855-0.89818 3.8125-2.2188zm-57.875 0.09375c0.83598 0.43854 0.40473 1.01 0.53125 1.625-2.1583 1.5682-2.2241 1.6025-2.5938 1.8438-0.09348 0.061021-0.12978 0.094601-0.3125 0.21875-0.82486-0.61153-1.3385-1.5398-1.4375-2.4062l3.8125-1.2812zm-2.0625 3.4688c0.60796-0.66617 0.22986-2.2859-1-1.9688h-0.0625c0.49078 0.16872 1.1317 1.1892 0.84375 1.9062l0.21875 0.0625zm36.438-1.75c0.56612 0.4302 1.2892 0.79056 2.1875 1.0938 1.8881 0.63724 4.4402 1.0312 7.25 1.0312 3.2204 0.012348 6.4498-0.43732 9.2812-2l-0.375 2.3438c-0.46725 0.09091-1.7509 0.51167-2.2188 0.59375l0.125-0.875-0.28125-0.03125-0.0625 0.90625c-1.1533 0.18472-2.5421 0.41628-3.6875 0.53125l-0.0625-0.625h-0.1875l-0.03125 0.625c-1.1217 0.090024-2.7126 0.24731-3.8125 0.25-0.021162-0.27908 0.09987-0.8881 0.0625-1.0625h-0.25c0.013135 0.061298-0.082115 0.90183-0.0625 1.0938-1.1622-0.028668-3.0667-0.25536-4.1875-0.40625l-0.125-1.0625-0.3125-0.03125 0.15625 1.0938c-0.71821-0.12538-2.1806-0.59539-2.875-0.78125l-0.53125-2.6875zm19.562 2.6875c0.033816 0.38384 0.25146 0.85454-0.28125 1.375-6.6811 2.8175-13.052 2.0512-19.594 0.8125-1.2746-0.55464-0.74736-1.5845-0.3125-1.9375 5.3405 2.6068 16.392 1.2657 20.188-0.25zm-50.062 0.53125c0.73372 1.4692 1.5703 2.1177 2.9062 2.9688l-0.125 3.0938c0.50901 0.21008 0.87574 0.44975 1.25 0.65625h-1.0938c-1.8999-1.6685-3.1662-3.8366-2.9375-6.7188zm26.312 1.1875c0.55309-0.003741 1.1286 0.006568 1.7188 0.03125l0.03125 6.4062c-4.9343-0.12604-9.3773-0.89164-12.625-2.0625-0.38065-0.13723-0.74642-0.29169-1.0938-0.4375h0.0625c1.0984-1.7751 5.0947-3.8914 11.906-3.9375zm1.9688 0.0625c0.34909 0.016902 0.7007 0.035004 1.0625 0.0625 0.3408 0.58997 0.8973 0.97687 1.1875 0.6875l0.84375 4.3438c-0.25179 0.18737-0.55672 0.099217-0.15625 1.1875-0.33187 0.00846-1.4115 0.125-1.75 0.125-0.41248 0-0.81252-0.022257-1.2188-0.03125l0.03125-6.375zm21.188 0.125 7.2812 3.8125c-0.19619 0.23925-0.39233 0.48381-0.625 0.71875-4.4581 3.965-10.208 5.9958-16.125 7.0625l-0.875-0.9375c3.5097 0.11139 6.7718-0.78131 9-2.4688l0.15625-0.125 0.03125-0.21875 0.1875-1.2812c0.80733 0.37817 1.1093-2.2473 0.25-1.9375l0.71875-4.625zm-39.688 0.5v3.9688c-1.8383 0.47496-4.0738 1.8454-6.3438-0.15625l-0.03125-2.3438c0.69724 0.045999 1.3714 0.010945 2.0312-0.125 1.7151 0.16 3.169-0.36031 4.3438-1.3438zm38.594 0.46875-0.59375 3.75c-0.32883 0.06557-1.086 0.22124-1.4062 0.28125l0.28125-3.625c0.41448-0.09475 1.3028-0.30308 1.7188-0.40625zm-2.0938 0.5-0.25 3.5625c-0.98372 0.16888-2.2971 0.39703-3.2188 0.5l-0.09375-3.4375c1.046-0.14941 2.5019-0.40173 3.5625-0.625zm12.562 0.03125c-0.10531 1.4174-0.050687 4.4201 0.1875 5.6875-0.23915 1.0165-0.59772 1.93-1.0625 2.7812l-0.4375-5.75c0.51598-0.96155 1.037-2.2267 1.3125-2.7188zm-27.094 0.0625c0.61774 0.18415 1.7433 0.31424 2.375 0.4375l0.4375 3.625c-0.5542-0.12101-1.6508-0.46096-2.2188-0.625l-0.59375-3.4375zm2.6562 0.46875c1.0168 0.14722 2.7664 0.32781 3.8125 0.34375 0.015587 1.0839 0.018196 2.542 0.0625 3.625-0.91806-0.053656-2.5438-0.088413-3.4688-0.25l-0.40625-3.7188zm8.0312 0.0625 0.09375 3.4688c-1.0524 0.088755-2.9234 0.52086-3.9375 0.5-0.02199-1.0833-0.10089-2.573-0.125-3.6562 1.0506-0.021782 2.8959-0.18657 3.9688-0.3125zm-32.125 0.34375c0.074223 0.072159 0.13988 0.15156 0.21875 0.21875 1.0899 0.92846 2.5991 1.7322 4.4688 2.4062 2.2279 0.80318 4.9503 1.4181 7.9688 1.7812l-3.9688 4.8438 0.03125 0.03125c-4.1053-0.78462-7.7923-1.9594-10.812-3.25-1.7306-0.73504-3.4488-1.6332-4.875-2.7812l1.6875 0.0625c0.96517 0.27937 2.3025 0.20066 5.3125-0.875l-0.03125-2.4375zm-10.438 1.0625c0.58327 0.895 1.2815 1.6569 2.0625 2.3438l-0.34375 5.4062c-0.74798-1.1244-1.3157-2.3957-1.5938-3.875 0.13084-1.2629-0.001142-2.5889-0.125-3.875zm57.375 1.2188 0.5 5.6562c-3.1353 5.2098-10.324 7.3115-17.281 8.2812l-0.25-6.4062c6.1073-0.93358 12.051-2.8465 16.625-7 0.12213-0.12332 0.26779-0.30673 0.40625-0.53125zm-8.5625 0.1875c0.60482 0.096292 0.30788 0.92634 0 1.4375-6.5172 1.8222-12.267 2.2044-17.25 0.0625l-0.21875-1.0625c5.9285 2.1915 11.444 1.0375 17.469-0.4375zm-46.438 1.2188c1.6554 1.369 3.6407 2.3815 5.5938 3.2812 3.0917 1.3212 6.844 2.3266 11 2.9688l-0.1875 6.375c-6.5621-0.79804-13.434-2.5458-16.781-7.0938l0.375-5.5312zm20.969 0.75c1.9745 0.22716 4.0701 0.34375 6.25 0.34375 0.44218 0 1.5356-0.051725 1.9688-0.0625 0.22261 0.35669 0.13146 0.14894 0.53125 0.28125l0.21875 1.4375 0.0625 0.28125 0.25 0.09375c1.9936 0.7988 4.0415 1.2487 6.0312 1.375l1.2812 1c-3.6422 0.64337-7.3435 0.94115-10.844 1.0625-3.389 0-6.6141-0.34914-9.625-0.90625l3.875-4.9062zm24.156 0.34375 0.09375 0.40625c-3.1922 2.3211-9.1028 3.0354-14.406 1l-0.09375-1.0625c1.6893 0.41615 3.825 0.81627 5.4375 0.84375 0.005106 0.087955-0.03125 0.625-0.03125 0.625l0.3125 0.09375s-0.030392-0.75326-0.03125-0.78125c2.7118-0.065495 5.6933-0.29956 8.7188-1.125zm-7.375 5.0625 0.03125 6.4688c-3.9547 0.52468-7.8106 0.68801-10.781 0.84375-2.7828-0.22902-6.4806-0.36065-10.312-0.8125l0.3125-6.3438c3.0807 0.45441 6.3702 0.71875 9.8125 0.71875 3.5336-0.12914 7.2598-0.32709 10.938-0.875zm15.781 1.2812-0.25 8.9375c-2.3421 1.1077-4.6872 2.0385-7.0312 2.8125l-0.90625-7.5c2.875-1.0366 5.6375-2.4134 8.1875-4.25zm-50.375 2.0625c2.0831 1.0847 4.2565 1.9 6.4688 2.5625l-0.28125 6.75c-2.0009-0.66578-3.9981-1.3948-5.9688-2.25l-0.21875-7.0625zm41.875 2.3125 0.90625 7.4688c-5.7496 1.8634-11.494 2.733-17.188 2.75v-7.625c5.5557-0.12984 11.116-0.78346 16.281-2.5938zm-35.094 0.34375c5.5106 1.604 11.32 2.1167 17.062 2.3125 0.47977-0.001497 0.95722-0.021843 1.4375-0.03125l-0.0625 7.625c-6.326-0.023237-12.588-1.1485-18.719-3.1562l0.28125-6.75zm43.344 4.4688-0.3125 11.344c-4.8245 2.0354-9.6651 3.6552-14.5 4.6562l-0.53125-11.031c5.0677-0.89854 10.186-2.5348 15.344-4.9688zm-49.906 0.28125c4.3181 1.8775 8.6758 3.3152 13.062 4.25l-0.0625 11.062c-4.2618-1.178-8.4912-3.0579-12.688-5.8125l-0.3125-9.5zm13.438 4.3125c6.8575 1.4165 13.784 1.6424 20.812 0.4375l0.53125 11.031c-7.1811 1.4474-14.369 1.5275-21.469-0.375l0.125-11.094zm-13.125 5.375c1.8052 1.1867 3.6057 2.2099 5.4062 3.0938l-0.03125 7.875c-1.6849-0.94615-3.3928-2.025-5.125-3.3125l-0.25-7.6562zm49.281 1.5938-0.1875 6.5c-1.5926 0.88125-3.3767 1.8264-5.3125 2.75l-0.5-6.9688c1.99-0.69124 3.9978-1.4358 6-2.2812zm-43.5 1.6875c6.0489 2.9009 12.082 4.1568 18.125 4.1875l0.0625 8.2812c-5.8897 0.10394-11.929-1.0968-18.281-4.5938l0.09375-7.875zm37.25 0.6875 0.5 7c-4.0942 1.9318-8.9748 3.7237-14.938 4.4688-1.4103 0.17622-2.8249 0.27405-4.25 0.3125l-0.0625-8.2812c6.2228-0.02085 12.456-1.3359 18.75-3.5z"/>
 </g>
</svg>
