<?xml version="1.0" encoding="UTF-8"?>
<!-- Generator: Adobe Illustrator 12.0.1, SVG Export Plug-In . SVG Version: 6.00 Build 51448)  -->
<!DOCTYPE svg  PUBLIC '-//W3C//DTD SVG 1.1//EN'  'http://www.w3.org/Graphics/SVG/1.1/DTD/svg11.dtd' [
	<!ENTITY ns_svg "http://www.w3.org/2000/svg">
	<!ENTITY ns_xlink "http://www.w3.org/1999/xlink">
]>
<svg id="Layer_1" width="671.08" height="537.89" enable-background="new 0 0 671.079 537.893" overflow="visible" version="1.1" viewBox="0 0 671.08 537.89" xml:space="preserve" xmlns="http://www.w3.org/2000/svg">
<g clip-rule="evenodd" fill-rule="evenodd">
	<path d="m380.42 30.754c-7.327-6.761-13.667-14.508-20.699-21.562-2.501-0.949-5.833-1.067-6.038-4.312 19.424-6.873 21.849 13.065 26.737 25.874z" fill="#fff"/>
	<path d="m378.7 4.879h1.725c12.297 6.964 26.56 11.965 37.087 20.7-0.372 1.928-4.251 0.349-6.038 0.862-4.918-4.281-10.286-8.113-18.111-9.487-3.61-5.304-11.48-6.347-14.663-12.075z" fill="#fff"/>
	<path d="m373.52 8.329c6.474 1.009 14.676 7.744 20.7 12.075 10.894 1.469 15.289 9.436 22.425 14.663 0.684 7.078 6.406 9.118 6.037 17.25-13.921-4.191-21.896-14.328-37.087-17.25-3.535-9.403-6.091-19.784-12.075-26.738z" fill="#fff"/>
	<path d="m379.56 39.378c-3.68-2.358-7.402-4.672-9.487-8.625-7.184-2.879-14.377-5.749-21.562-8.625-1.475-0.038-2.233 0.641-2.587 1.725-2.459-4.212-0.042-10.946 0.863-14.663 4.998-1.538 6.531 0.031 10.35 2.588 7.777 5.21 19.657 18.244 22.423 27.6z" fill="#fff"/>
	<path d="m419.23 81.64c-1.215 3.385-3.476 5.725-6.037 7.762-12.931-6.482-22.216-19.896-33.637-29.324-1.693-1.398-3.514-2.045-5.175-3.45-1.377-1.163-2.215-3.351-3.45-4.312-4.064-3.161-9.656-3.8-12.938-8.625-6.626-1.136-11.38-4.145-17.25-6.038-1.044-6.794 1.931-9.569 4.312-12.937 20.085 1.476 27.396 15.728 41.399 23.287 1.429 2.546 3.079 5.787 5.175 7.762 0.809 0.762 2.554 0.104 3.45 0.862 0.551 0.466 0.227 2.165 0.862 2.588 1.234 0.82 4.223 0.931 5.175 1.725 1.673 1.394 2.641 4.367 4.312 6.038 4.295 4.291 9.61 8.976 13.802 14.662z" fill="#fff"/>
	<path d="m386.46 38.516c8.365 1.036 15.567 7.041 23.287 11.212 2.327 1.257 4.696 1.479 6.9 2.587 0.402 0.202 1.088 2.294 1.725 2.587 2.042 0.938 5.012 0.69 6.899 1.725 0.987 0.542 1.747 2.928 2.588 3.45 3.775 2.344 7.813 2.744 11.212 5.175 2.144 13.956 8.152 24.047 9.487 38.812-5.579-7.188-11.541-12.615-18.975-18.975-0.467-0.4-1.374-2.376-1.725-2.587-1.217-0.735-3.134 0.07-4.312-0.862-7.167-5.673-12.056-14.184-18.112-20.7-8.622-5.176-17.642-9.955-18.974-22.424z" fill="#fff"/>
	<path d="m240.7 129.94c-7.5-5.712-14.604-13.064-22.424-21.562-9.127-9.916-15.762-24.97-34.5-21.562-3.987-8.438-9.975-15.337-8.625-25.012 1.939-13.902 18.406-19.743 33.637-18.112 6.925 7.795 19.494 25.969 24.149 38.812 0.906 2.499 0.764 6.296 1.725 9.487 2.874 9.545 7.76 21.816 6.038 37.949z" fill="#fff"/>
	<path d="m213.1 43.691c9.663-0.812 17.293 3.15 24.15 6.9 3.546 1.939 3.55 1.825 6.037 4.312 7.688 7.688 11.079 23.143 17.25 36.224 4.973 10.542 12.496 19.291 14.663 27.6-3.237-3.734-2.438 2.418-2.588 2.587-0.676 0.766-2.914-0.147-3.45 0.862-0.201 0.379 1.603 1.84 0 1.725 1.878 4.135 8.507 8.877 12.075 6.037 1.302 4.161 4.313 6.612 4.312 12.075-12.312-12.699-29.382-20.642-43.987-31.049-2.865-29.047-15.639-48.184-28.462-67.273z" fill="#fff"/>
	<path d="m249.32 54.903c9.43 0.057 19.618-0.644 26.737 1.725 10.926 16.386 15.782 38.842 25.875 56.062-8.966 0.167-10.62 0.443-18.975 0 0.969 5.931 7.589 6.211 10.35 10.35 5.058-0.98 7.517-4.558 12.075-6.037 0.866 1.146 0.816 3.209 2.587 3.45-0.974 1.039-2.462 1.563-1.725 4.312-1.393 0.243-1.485-0.815-2.587-0.862-2.058 1.592-2.041 5.366-6.9 6.037-1.171 0.267-0.716 2.16-0.863 3.45h-4.312c-0.109 1.547 1.056 1.819 0.863 3.45-2.636-0.623-3.143 0.882-5.175 0.863 0.409-4.02-5.811-8.096-1.725-10.35-0.681-1.907-3.017-2.158-4.312-3.45-11.312-22.328-23.873-43.403-31.913-69z" fill="#fff"/>
	<path d="m282.1 59.216c9.521 0.254 15.926 3.624 23.287 6.037 9.742 15.558 9.652 40.947 12.938 62.961-18.357-16.717-26.009-44.141-36.225-68.998z" fill="#fff"/>
	<path d="m308.84 66.115c7.348 2.708 13.951 3.445 19.837 7.763 0.172 0.126 2.925 3.077 2.587 2.587 5.379 7.801 1.531 20.675 5.175 31.912-8.37-2.028-13.164-11.094-18.975-12.937-1.836-10.813-4.631-20.668-8.624-29.325z" fill="#fff"/>
	<path d="m337.3 69.565h1.725c8.289 2.316 15.003 6.727 21.562 11.212 9.101 6.223 16.925 13.614 25.012 21.562 5.362 5.27 9.965 11.003 15.524 16.387 5.27 5.103 12.396 8.592 15.525 15.524-12.457-5.943-27.033-9.767-42.262-12.937-0.409-6.492-7.148-6.651-8.625-12.075-6.736-4.584-13.939-15.602-20.7-23.287-4.027-4.578-8.595-6.919-7.761-16.386z" fill="#fff"/>
	<path d="m443.38 70.428c16.068 8.582 27.44 29.364 20.699 55.199-5.236-3.963-7.803-10.597-12.074-15.525 1.244-14.011-7.073-25.615-8.625-39.674z" fill="#fff"/>
	<path d="m458.91 125.63c-5.381 0.344-8.427-1.721-12.937 0-7.58-13.12-20.746-20.653-30.188-31.912 1.483-7.917 6.271-10.835 13.8-6.037 4.096 2.609 5.124 4.636 8.625 8.625 6.21 7.073 15.878 20.409 20.7 29.324z" fill="#fff"/>
	<path d="m272.61 162.71c-0.767-0.67-1.947-0.927-3.45-0.862-0.752 2.765 1.328 2.697 2.587 3.45-0.13 1.595-2.92 0.529-3.45 1.725 0.475 2.975 3.081 3.819 2.587 7.762 4.635-0.61 7.066 0.984 10.35 1.725 3.193 6.611 3.012 12.541 0 18.112-6.649-4.563-14.886-7.538-18.975-14.662-11.125-3.589-19.147-15.597-28.462-22.424-4.658-3.415-9.598-6.705-14.662-11.212-8.82-7.851-15.457-15.353-22.424-26.737-5.595-9.141-9.102-16.394-10.35-29.324 0.699-0.164 0.86-0.866 1.725-0.863 13.207-1.592 20.862 12.266 30.187 22.425 3.076 3.351 6.934 6.072 10.35 9.487 5.711 5.711 10.202 11.225 17.25 16.387 1.124 0.823 2.036 2.48 3.45 3.45 1.421 0.976 4.029 0.846 5.175 1.725 1.106 0.849 1.729 2.901 3.45 4.312 5.494 4.505 12.898 7.978 14.662 15.524z" fill="#fff"/>
	<path d="m468.4 103.2c0.694 0.457 1.4 0.9 2.588 0.862 7.336 12.416 12.097 28.655 18.975 43.125 4.758 10.009 10.065 20.483 12.074 34.499 0.516 3.594 1.985 7.854-1.725 10.35-1.929-0.371-0.35-4.25-0.862-6.037-2.056-1.395-4.641-2.259-6.037-4.312-3.479-22.971-14.878-38.021-26.737-52.611 1.676-7.524 2.042-16.357 1.724-25.876z" fill="#fff"/>
	<path d="m396.81 108.38h1.726c4.953 1.659 8.635 4.59 15.524 4.312 4.044 3.761 9.736 6.378 15.524 8.625 1.729 2.009 2.581 4.894 6.9 4.312 14.331 14.13 26.541 30.382 38.812 46.574-4.506 0.562-6.526-4.875-9.487-6.9-1.253-0.857-3.14-0.76-4.312-1.725-3.014-2.477-4.812-6.244-7.763-8.625-3.55-2.864-8.212-5.264-12.074-7.762-4.036-2.61-9.061-4.11-12.938-6.9-1.45-1.044-2.601-3.76-4.312-5.175-6.013-4.971-12.572-10.514-18.975-16.387-0.734-0.674-0.848-1.994-1.725-2.587-2.188-1.482-5.865-3.97-6.9-7.762z" fill="#fff"/>
	<path d="m361.45 113.55c3.943-3.325 3.114 5.478 8.625 3.45 2.168 5.594 3.178 12.346 6.899 16.387-3.421-0.045-7.25-7.112-12.074-8.625 1.536-3.892-2.683-7.018-3.45-11.212z" fill="#fff"/>
	<path d="m243.29 116.14c9.258 5.691 19.417 10.481 27.6 17.25-3.543 2.074-6.085-4.241-11.212-3.45-1.888 3.308-7.279 5.681-5.175 10.35-3.519-2.231-6.875-4.625-10.35-6.9 0.208-5.857-2.331-12.943-0.863-17.25z" fill="#fff"/>
	<path d="m489.1 180.83c-5.593 1.12-8.364-6.256-12.075-11.212-9.058-12.099-22.063-26.988-28.462-39.674 3.51-2.75 9.268-0.132 14.662 0 11.262 13.751 25.91 28.711 25.875 50.886z" fill="#fff"/>
	<path d="m315.74 132.53c4.932 3.117 7.978 8.122 10.35 13.8-1.112 1.188-3.747 0.854-6.038 0.863 1.039 3.842 0.264 3.101-2.587 4.312-0.917 3.217 3.235 1.366 2.587 4.312-3.658-2.353-6.894 1.985-6.037 6.9-3.179-3.721-7.103-6.697-9.487-11.212-5.92-0.13-8.43-8.226-12.938-6.899-2.54-0.335-1.686-4.064-3.45-5.175 5.862-1.25 11.986 4.679 18.112 6.038 3.233-4.091 4.025-7.909 8.625-8.625-0.957-2.709-0.403-2.28 0.863-4.314z" fill="#fff"/>
	<path d="m342.47 153.23c4.751 7.036 9.483 14.092 12.938 22.425-0.943 0.593-1.71 4.709-6.038 4.312 0.072 1.366-0.414 3.29 0.863 3.45-0.843 0.882-1.706 1.745-2.588 2.587-4.344-3.965-5.229-13.049-7.762-20.7-0.861-2.601-3.053-4.867-2.587-7.762 1.525 0.775 2.518 2.082 4.312 2.587 1.306-2.427-0.289-3.538 0.862-6.899z" fill="#fff"/>
	<path d="m222.59 164.44h2.587c-0.707 3.605-0.328 5.588 1.725 7.762-2.908 6.491-1.807 13.66-1.725 22.424-2.713-0.988-2.096 1.354-3.45 1.725 0.087 2.212 3.214 1.386 4.312 2.587-0.971 2.479-3.763 3.137-2.587 7.763 3.348 0.677 2.025 6.025 6.9 5.175-1.668 2.884-13.685 3.328-12.075-2.587 1.803 0.365 2.284-0.591 3.45-0.863v-4.312c-4.961-3.594-2.482-10.933-1.725-14.662-0.541-1.758-4.358-0.242-3.45-3.45 2 0.275 3.312-0.139 4.312-0.863-1.984-3.585-1.041-3.044 0-6.899-0.267-1.171-2.16-0.716-3.45-0.863 1.463-0.836 2.216-2.383 1.725-5.175 1.802 0.365 2.284-0.591 3.45-0.862-0.712-3.516-0.131-2.97 1e-3 -6.9z" fill="#fff"/>
	<path d="m258.81 185.14c5.395 2.08 11.295 3.655 11.212 11.212h-3.45c0.059 2.529 1.972 3.203 3.45 4.312-0.221 1.791-3.789 0.236-4.312 1.725 1.106 1.133 1.106 3.179 0 4.312 0.842 0.882 1.705 1.745 2.587 2.587-0.376 1.061-1.104 1.771-2.587 1.725 0.313 4.909 0.294 7.114 5.175 8.625-0.449 1.276-1.276 2.174-1.725 3.45-2.485-0.389-2.698-3.052-6.038-2.587 2.71-3.62-2.567-6.276 0-9.487-3.044-1.207-5.634-8.86-0.862-10.35-2.211-4.113-2.359-10.29-3.45-15.524z" fill="#fff"/>
	<path d="m363.17 194.62h5.175c6.345 16.368 14.787 30.638 17.25 50.887-6.866-7.796-16.626-12.698-19.837-24.149-4.896-7.466-10.39-14.335-12.938-24.149 3.568 1.319 4.769 5.006 8.625 6.037 2.53-0.733-1.122-2.17 0-4.312 0.877 0.56 0.892 1.983 2.587 1.725 2.686-1.647-1.347-3.747-0.862-6.039z" fill="#fff"/>
	<path d="m283.82 203.25c12.141 8.559 24.767 16.632 36.224 25.875-8.513 4.543-20.408-1.845-28.462-3.45 0.213-0.937 1.715-0.585 1.725-1.725-5.753-4.309-8.006-12.118-9.487-20.7z" fill="#fff"/>
	<path d="m226.9 226.54c-10.99 0.24-30.376-1.432-43.986-3.45-3.367-0.499-7.901 1.047-9.487-2.587 4.869 0.891 9.379-0.833 13.8-0.862 9.081-0.06 17.09 2.187 25.012 3.45 4.94 0.787 11.226-1.308 14.661 3.449z" fill="#fff"/>
	<path d="m427.86 227.4c0.139-1.011 1.572-0.727 2.587-0.862 0.457 0.693 0.9 1.4 0.863 2.587-1.32 2.418-2.503 4.972-6.9 4.312 2.147-0.488 5.557-4.15 3.45-6.037z" fill="#fff"/>
	<path d="m494.27 232.57c0.993-2.79 0.976 2.316 0.862 3.45-0.993 2.791-0.976-2.316-0.862-3.45z" fill="#fff"/>
	<path d="m318.32 234.3c-5.631-0.478-16.596 5.195-21.562 0 5.525-1.194 18.506-1.813 21.562 0z" fill="#fff"/>
	<path d="m366.62 236.02c-2.646 6.34-15.129 0.467-19.837-1.725-0.184-2.948 7.152-0.114 8.625 0.863 3.47 0.554 9.171-1.121 11.212 0.862z"/>
	<path d="m489.1 232.57c2.021 3.73 2.182 9.318 2.587 14.663-1.941-3.434-3.911-10.765-2.587-14.663z" fill="#fff"/>
	<path d="m415.78 237.75c4.283-0.546 4.484 2.99 7.763 3.45-2.116 2.338-6.743-0.107-8.625-0.862 0.456-0.695 0.899-1.401 0.862-2.588z" fill="#fff"/>
	<path d="m339.02 248.1c-8.41-2.514-21.637-0.212-29.324-3.45 4.564-1.898 12.535-0.506 15.525-1.725 4.505 1.82 11.92 0.73 13.799 5.175z" fill="#fff"/>
	<path d="m518.42 263.62c5.561-3.746 3.515 4.381 0 0z" fill="#fff"/>
	<path d="m372.66 267.94c5.942 2.682 10.642 6.608 12.938 12.938-5.369-0.857-7.514 0.179-13.8 0-0.573-5.173 0.782-8.418 0.862-12.938z" fill="#fff"/>
	<path d="m391.63 285.19h3.45c0.365 1.803-0.592 2.284-0.862 3.45-2.272 0.26-2.831-1.195-2.588-3.45z" fill="#fff"/>
	<path d="m594.32 298.98c3.732 3.454 0.785 13.59 1.725 19.837-5.168-3.711-4.437-14.824-1.725-19.837z" fill="#fff"/>
	<path d="m385.6 330.04c1.536 0.632 0.124 1.568 0 2.587-1.536-0.632-0.124-1.568 0-2.587z" fill="#fff"/>
	<path d="m618.47 349.01c-5.503 2.321-13.661-0.126-16.387-3.45-10.364-0.561-16.205-5.645-25.875-6.899 0.141-1.004-0.19-1.535-0.862-1.726 3.492-2.034 12.106 0.601 17.249 2.588 2.31 0.892 4.489 2.75 6.038 3.449 6.715 0.348 14.591 1.96 19.837 6.038z" fill="#fff"/>
	<path d="m502.03 340.38c12.807 0.418 17.331 9.119 18.975 20.699-5.989-3.785-8.516-11.033-16.387-12.937 0.147-3.597-2.645-4.255-2.588-7.762z" fill="#fff"/>
	<path d="m443.38 346.42c2.104 3.939 2.523 18.277 2.588 26.737 0.061 8.028-0.768 16.399-1.726 23.287-1.667 11.987 3.679 23.82 0 34.499-2.994-2.165-0.553-7.117-0.862-10.35-0.322-3.367-2.194-6.808-2.587-10.35-1.004-9.03 1.964-20.742 2.587-32.774 0.598-11.538-2.605-22.842 0-31.049z" fill="#fff"/>
	<path d="m555.51 349.01c0.768 0.382 1.543 0.757 1.725 1.725-3.285 16.284-0.812 37.627-0.862 50.887-3.562-1.613-3.021-6.887-3.45-10.35-1.635-13.215 0.556-29.582 2.587-42.262z" fill="#fff"/>
	<path d="m630.54 354.18c7.815 3.127 16.062 7.149 23.287 11.212 2.307 1.297 3.877 2.613 6.9 4.312 3.305 1.858 6.677 4.354 6.037 8.625-5.099-3.813-11.643-6.183-15.524-11.212-2.972-0.767-6.362-1.112-6.9-4.312-5.73-1.746-10.349-4.601-13.8-8.625z" fill="#fff"/>
	<path d="m557.23 411.97c5.07 7.946 7.712 17.465 12.075 25.874 4.341 8.368 10.528 16.21 10.35 25.875-9.534-15.191-19.16-30.289-22.425-51.749z" fill="#fff"/>
	<path d="m415.78 30.754c2.571-0.896 6.322 0.184 9.487 2.587 1.154 0.876 2.059 3.371 3.45 4.312 1.694 1.147 4.059 0.753 5.175 1.725 9.749 8.493 14.023 24.239 20.699 34.5-7.741-4.336-17.858-13.763-27.599-18.975-2.234-9.553-5.944-17.631-11.212-24.149z" fill="#fff"/>
	<path d="m340.75 41.104c3.923 0.677 6.439 2.761 11.212 2.587 20.79 12.272 37.221 28.903 53.474 45.711 1.716 1.159 4.106 1.644 6.037 2.587 8.479 14.52 24.607 21.392 32.774 36.225-0.154 1.458-4.099-0.401-3.449-2.587-3.98-1.036-7.132-4.014-10.351-6.038-3.271-2.057-7.427-3.45-9.487-6.9-10.723-2.501-19.691-6.758-30.187-9.487-14.466-16.008-31.913-29.036-53.474-37.949-4.105-9.196-2.285-17.397 3.451-24.149z" fill="#fff"/>
	<path d="m366.62 161.85c-1.616 1.642-0.095 2.167 0 4.312-2.655 0.643-1.657-2.368-4.312-1.725-0.988 3.576 1.814 3.36 1.725 6.037-5.122-0.622-4.855 4.67-2.587 6.9-6.381-7.131-11.417-15.608-14.662-25.875h3.45c-0.604-2.655-0.604-1.657 0-4.312-6.078-2.835-8.94-8.885-11.213-15.525-2.419 1.379 1.211 3.882 0 6.9-6.362-3.114-4.976 6.094-8.625 6.038-1.606-0.025-6.134-6.091-6.9-7.763-3.889-8.489-5.132-28.2-5.175-37.086 5.857 5.068 13.467 8.382 18.112 14.662-3.502 1.33-8.728 4.114-12.075 0-1.25 3.823 0.782 11.093 4.312 12.937 1.815-2.607 3.573-0.27 6.038-2.587 2.002 0.584 1.257 3.917 3.45 4.312 3.359-0.975 0.745-3.33 0.862-5.175 0.817-12.765-1.337-29.728-3.45-43.124 11.427 8.41 19.71 19.963 24.15 35.362-4.387 1.491-7.77-5.442-13.8-5.175-2.218 1.52-3.055 4.42-2.587 8.625 1.181 2.484 3.631 0.271 4.312 4.312 2.203-0.097 3.019-1.581 4.312-2.587 0.802 5.234 10.755-1.604 10.35 6.037-3.774 0.593-4.528 2.573-10.35 2.587-1.171 0.267-0.716 2.16-0.862 3.45-1.917-0.67-3.363-1.812-6.038-1.725-0.114 4.426 2.134 6.491 6.038 6.9 2.108 7.501 7.115 1.033 9.487 4.312 2.527-0.731-0.516-2.777 0-4.312 3.884 0.263 7.3 0.061 5.175-3.45 2.291 2.304 4.1-0.277 6.037-0.863 5.872 7.353 10.678 15.771 14.662 25.012 15.279 7.91 21.803 28.535 20.699 50.024-3.277-3.743-3.827 1.68-2.587 5.175-3.489-1.931-5.381-0.039-3.45 3.45-8.356-6.412-6.013-22.846-7.762-35.362-0.906-6.481-3.523-11.395-4.312-16.387-3.217-1.467-1.365 0.509-4.312 0.862-2.964-3.649-5.665-7.56-10.35-9.487-1.259 1.041-0.83 3.771-4.312 2.587-0.501 3.663 2.324 4 4.312 5.175-1.974 1.638-5.717-2.294-7.762-3.448z" fill="#fff"/>
	<path d="m427.86 186c-9.296-10.542-23.3-16.375-30.187-29.324-7.92-10.192-17.404-18.821-21.562-32.774 7.627 2.723 16.103 4.597 25.012 6.037 2.346 2.542 5.302 4.474 10.35 4.312 4.359 4.841 13.745 4.655 17.25 10.35-2.494-0.147-3.932-3.519-4.312 0.862-0.805-0.921-3.181-0.269-2.587-2.587-4.189 3.444-9.65 2.134-14.663 2.587-1.671 0.151-1.867 1.58-2.587 1.725-2.895 0.583-2.76-0.407-6.037 1.725 2.159 4.453 6.036 7.188 8.624 11.212 1.67-1.205 4.704-1.046 4.312-4.312 3.111-0.14 4.599 4.092 4.312-1.725 2.004 0.584 2.309 2.867 4.312 3.45 2.583-0.567-0.824-1.844 0-3.45 1.697 1.178 4.927 0.824 6.9 1.725 1.28-0.376-0.341-1.104 0-2.587 5.411 3.792 6.962-2.512 12.937-1.725 0.059 2.529 1.972 3.203 3.45 4.312 2.583-0.567-0.824-1.844 0-3.45 10.867 6.67 19.449 15.625 29.324 23.287-0.011 1.714-2.354 1.096-1.725 3.45-3.023-4.833-4.282 1.843-6.037 3.45-1.808-0.78-0.307-4.868-2.588-5.175-2.784-0.772-1.212 2.813-2.587 3.45-1.171-0.267-0.716-2.16-0.863-3.45h-2.587c-1.364 1.511-1.155 4.595-1.726 6.9-2.897 0.886-1.342-2.682-1.725-4.312-3.641-0.191-2.418 4.481-4.312 6.038-2.614 0.027-0.835-4.34-3.45-4.312-1.157 0.567-1.605 1.844-1.725 3.45-2.382 0.37-0.81-3.215-2.587-3.45-2.425-0.125-2.487 2.112-2.588 4.312-2.911 0.444-2.237-2.274-4.312-1.725-1.705 0.452-1.287 3.288-1.725 3.45-0.401 0.148-5.16-4.196-5.175 2.587-3.369-3.286-3.679 0.488-8.625 0v6.9c-2.304 3e-3 -1.874-2.726-4.312-2.588-1.871-0.145-0.391 3.06-0.862 4.312h-3.45c0.353-25.076-14.264-35.185-25.874-48.299 1.667-3.043-0.404-3.857-0.863-6.9 6.531 7.844 13.2 15.55 18.112 25.012 11.571 3.093 13.981 15.345 26.738 17.25z" fill="#fff"/>
	<path d="m257.95 142.88c-2.183-1.512 5.092 0.012 5.175 1.725-0.9-1.757 6.903-0.792 5.175 0 2.069-0.949 0.227-1.363 0.862-2.588 1.207-2.327 4.59-4.241 2.587-7.762 3.016 2.734 6.616 4.884 8.625 8.625-4.01-1.369-2.994 4.457 0 3.45-0.372 1.929-4.25 0.35-6.038 0.863 1.582 3.392-3.732 7.002 2.587 7.762-7.602 0.696-13.562-7.706-18.973-12.075z" fill="#fff"/>
	<path d="m307.97 168.75c-1.276-0.999-2.174-0.999-3.45 0-0.146 2.159 1.325 2.7 2.587 3.45-0.358 1.941-4.729-0.129-4.312 2.587-0.752 3.34 3.766 1.409 2.587 5.175h-4.312c-1.27 5.007 4.119 3.356 6.038 5.175-0.642 1.945-4.837 0.337-6.9 0.863-0.55 3.137 1.786 3.389 4.312 3.45-0.13 1.595-2.921 0.529-3.45 1.725 0.388 3.021 2.761 2.715 2.588 4.312-0.168 2.707-3.412 2.338-2.588 6.037 0.793 1.506 2.697 1.904 5.175 1.725 0.109 1.547-1.056 1.819-0.863 3.45 2.674 1.638 8.289 0.336 10.35 2.587 2.269-1.529-1.924-4.596 3.45-3.45 0.274-3.463-1.394-8.869 3.45-7.762 0.705-3.292-1.835-3.339-3.45-4.312 2.464-1.587 6.546-6.068 4.312-9.487 5.167-0.84 9.883 6.207 13.8 9.487 0.156 5.618-3.354 7.571-5.175 11.212 0.993 1.882 0.171 5.579 2.588 6.037-3.846 0.467-2.102 6.523-4.312 8.625 2.663 8.836 11.654 11.345 21.562 12.937 1.084-2.148 3.046-7.438 0-8.625 0.87-1.762 3.556-5.072-0.862-5.175-0.146-1.871 3.059-0.391 4.312-0.863 0.604-3.192-3.024-2.151-4.312-3.45 0.482-1.242 1.345-2.105 2.587-2.587 8.424 8.967 12.644 20.372 21.562 28.462 7.712 6.995 15.858 16.408 20.699 27.599-1.542 3.633-4.313 6.036-7.763 7.763-3.146-7.204-11.835-8.864-14.662-16.387-8.281-2.069-12.852-7.848-18.111-12.938-3.108-0.342-5.496-1.405-6.038-4.312-7.361-2.988-13.164-7.535-18.112-12.937-17.829-7.471-31.136-19.463-45.711-30.187 1.06-8.401 1.159-16.801-0.862-24.149 1.571 1.318 7.053 1.318 8.625 0 0.917-3.216-3.235-1.365-2.587-4.312 1.912 0.475 1.228-1.646 2.587-1.725-5.185-6.021 5.873-12.112 4.312-17.25 5.833 3.079 9.247 8.578 13.8 12.938-0.883 0.494-5.006-0.745-3.451 4.312zm47.437 66.411c-1.473-0.977-8.809-3.811-8.625-0.863 4.708 2.192 17.19 8.065 19.837 1.725-2.041-1.983-7.742-0.308-11.212-0.862z" fill="#fff"/>
	<path d="m330.4 167.89c3.499 0.649 2.256-2.034 4.312-4.312 6.513 8.724 6.428 24.046 12.937 32.774-3.702 1.664-5.031-6.45-10.35-6.037-5.745-7.767-14.358-12.667-18.975-21.562 4.286 1.773 7.655 6.021 13.799 3.45 0.129-2.139 0.163-4.186-1.723-4.313z" fill="#fff"/>
	<path d="m535.67 217.05c0.742 1.646 0.513-0.932 1.726-0.862 1.84-0.403 1.643 1.232 1.725 2.587 0.629 2.137 2.596-2.848 4.312 0-0.818 1.769-1.069 4.105-3.45 4.312 3.951 1.674 3.718 8.595 7.763 7.763-0.825 1.762-1.762 3.413-2.587 5.175 1.547 0.109 1.818-1.056 3.449-0.862-0.304 5.54 5.862 8.667 1.726 12.937 0.096 1.653 2.888-1.013 5.175 0 0.641 3.804-4.702 1.624-5.175 4.312 1.305 2.608 3.785-0.715 6.037 0 1.841 3.227-0.103 4.901-1.726 6.9 2.639 0.625 2.537-1.488 5.176-0.863 0.403 2.704-2.169 2.432-3.45 3.45 2.362 1.95 5.975 2.65 6.037 6.9-3.974-1.474-6.713-0.753-10.35 0.862 0.741 2.133 6.004-0.253 6.899 1.725-2.33 1.945 0.503 3.357 0 5.175-0.097 0.351-4.667 1.024-1.725 3.45-2.031-0.019-2.539 1.486-5.175 0.863v3.45c11.684 1.186 29.029-11.417 40.536-2.587 2.305 2.406-0.808 4.26-0.862 6.899 0.55 3.133 4.032-2.001 4.312 0.862 4.897 3.96 13.836 14.472 15.524 25.875 1.239 8.362 0.364 21.189-5.175 24.149 22.434 10.629 46.311 19.812 64.687 34.499-0.724 2.439-1.002 5.323-1.725 7.763-7.433-1.481-12.247-5.579-16.388-10.351-11.608-4.778-20.44-12.333-31.911-17.249-7.161-0.314-12.942-2.008-18.112-4.312-1.042 5.301-0.028 10.574-2.588 17.25-10.013 9.558-20.507 23.164-39.674 20.699-0.246 6.648-2.393 13.525-1.726 18.975 0.563 4.604 4.281 8.185 6.038 12.074 1.396 3.091 1.798 7.733 3.449 11.213 3.002 6.325 7.138 11.796 10.351 18.975 2.834 6.333 6.286 10.402 2.587 17.249h-2.587c-4.729-2.401-5.424-7.798-7.763-12.074-9.969-18.225-19.013-36.722-21.562-62.961-1.306-2.72-5.176-2.873-7.762-4.312 2.95-10.821 6.554-24.254 3.45-36.225-2.13-8.213-8.211-12.572-11.213-18.112-3.211-0.526-5.84-1.634-6.899-4.312-5.378-0.371-9.706-1.793-12.938-4.312-8.907-0.281-17.702-0.452-22.425 3.45 7.396-3.04 21.513-0.445 31.912 0.862 11.672 7.742 22.146 20.521 20.699 37.087-0.935 10.708-7.098 23.539-17.249 27.6-1.002 0.4-6.942 3.935-9.487 4.312-16.189 2.403-26.158-10.37-36.225-18.975-1.746-5.541-5.578-11.418-6.037-18.975-0.52-8.558 1.987-17.245 5.175-23.287-5.155-0.267-2.815 6.959-9.487 5.175-1.314-3.151-2.29-4.719-2.588-10.35-1.904 2.408-2.255 6.369-6.899 6.037v-5.175c-3.396 0.055-4.176 2.724-5.175 5.175 7.536 12.743 5.175 31.614 5.175 52.611 0 15.488 3.133 29.671-1.725 40.537-2.678 1.635-6.67 1.955-7.763 5.175 3.433 19.87 19.671 31.482 20.699 50.887 2.467 4.72 6.789 7.586 11.213 10.35 0.113 2.126 0.13 4.155-0.863 5.175 1.992 3.928 10.406 5.461 7.763 11.212 3.318 3.153 10.294 6.757 8.625 12.075 2.916 2.178 7.444 11.33 0.862 12.937-4.71-8.228-13.37-12.504-14.662-24.149-2.657-0.645-1.051 2.975-4.312 1.726-4.044-3.431-2.196-12.754-9.487-12.938 0.849-7.173-2.6-10.05-4.312-14.662-1.39 1.772-4.324 2-7.762 1.725-3.331-3.241-3.417-13.44-8.625-22.424-3.994-6.89-16.037-19.769-11.213-30.188-3.271-4.924-7.695-8.747-8.624-14.662-1.325-8.438 2.819-22.625 2.587-32.774-0.286-12.509 1.639-21.807 0-36.224-2.493-1.946-5.855-0.476-6.899-5.175-1.043 2.727-4.651 1.646-5.175-0.863-1.243 0.195-0.301 2.574-1.726 2.588-2.075-0.567-4.546-5.173-5.175 0-3.468-0.951-0.912-6.009-0.862-8.625-2.363 1.949-5.416 3.209-6.9 6.037-4.271-0.439 0.486-3.938 0-6.037-2.11 0.765-0.934 4.816-4.312 4.312-0.024-0.839-1.057-0.67-1.726-0.862-2.207-2.838 1.236-5.787 1.726-8.625-0.998-1.769-3.437 2.245-3.45 4.312-4.105-1.427-3.184 0.396-6.9 0.862-0.625-2.638 1.488-2.537 0.863-5.175-2.18-2.401-2.179 4.672-5.176 4.312-0.803-0.621-3.466-0.025-2.587-4.312-3.628 0.602 0.824 3.927-2.588 4.312-4.8-0.539-0.719-4.599-2.587-7.763-2.717-0.417-0.646 3.954-2.588 4.312-4.917-0.219-1.363-4.719 0-6.037-2.951-0.364-2.592 2.583-4.312 3.45-2.566-2.296-4.617-4.769-9.487-2.588-0.508-4.13 3.197-4.042 0.863-7.763-8.9 4.324-7.646 18.803-15.525 24.15-4.445 0.995-5.104-1.797-7.762-2.588-4.783 2.592-3.227 7.534-5.175 11.212-4.615 8.714-17.633 16.35-25.012 23.287-6.386 6.005-15.871 13.832-25.875 17.25-0.882 0.842-1.745 1.705-2.587 2.587-5.905 0.708-9.032 4.193-13.8 6.038-10.468-1.707-17.974-0.771-30.187 0-4.009-6.629-17.908-3.367-18.975-12.938 2.713 0.988 2.096-1.354 3.45-1.725 8.237 5.348 17.925 6.297 28.462 7.762 3.025-3.082 6.819-2.468 12.075-1.725 1.704-0.597 2.299-2.301 2.587-4.312 15.014-5.825 23.402-19.633 33.637-31.912 2.936-3.521 5.364-5.336 8.625-8.625 1.947-1.963 2.756-5.515 4.312-6.899 4.931-4.389 12.239-4.744 17.25-9.487-1.953-7.963 4.977-18.008-0.863-21.562 0.48-2.106 2.024-3.151 3.45-4.312-1.055-2.629-3.292 1.261-4.312-0.863 0.688-1.898 1.731-3.442 4.312-3.449-3.895-2.306-1.968-4.881 0.862-6.9-2.714-3.212-3.876 2.392-6.9 1.726-0.114-3.276 2.256-4.069 5.175-4.312-0.221-1.792-3.789-0.236-4.312-1.726 0.977-2.185 3.822-2.502 6.9-2.587 0.948-4.45-5.138-1.248-5.175-2.588 0.47-2.979 1.251-5.648 5.175-5.175-0.383-2.491-6.517 0.767-6.9-1.725 1.084-3.803 9.896 0.122 10.35-4.312h10.35c2.491-2.685 4.096-6.255 6.037-9.487-26.07-0.667-52.175-1.298-59.511-20.7-5.753-1.381-13.161-2.138-20.7-4.312-1.293-0.373-2.308-1.56-3.45-1.725-12.197-1.758-26.033 0.162-38.812 1.725-11.407 1.395-23.986 2.272-34.499 0-8.128-1.757-21.216-2.001-31.049-6.037-2.129-3.908-5.643-6.433-8.625-9.487-27.778 9.72-47.736-12.202-71.586-17.25-1.815-2.785-3.827-5.372-5.175-8.625-2.886 1.227-8.327 1.227-11.212 0 0.114-2.126 0.131-4.156-0.862-5.175-5.627 0.614-11.084 1.127-16.387 0-0.988-2.713 1.354-2.096 1.725-3.45-4.771-0.658-8.851-0.543-15.525-0.862-0.131-4.941-9.139-4.32-15.524-6.9-5.65-2.282-13.575-4.498-19.837 1.725-0.381-3.256 1.701-4.049 2.587-6.038-1.959-0.628-6.729 1.554-6.037-1.725 4.861-0.601 9.904-1.021 12.075-4.312 12.533-1.033 18.035 4.964 25.875 8.625 3.213 0.914 2.784-1.816 4.312-2.587 4.769-0.169 6.289 2.911 9.487 4.312 7.692-1.67 10.326 2.374 16.387 4.312 0.818-1.77 2.785-2.391 4.312-3.45 5.003 1.609 8.251 4.974 12.075 7.762 2.389-2.484 12.635-1.049 18.112 0 18.757 3.593 39.977 11.223 51.749 19.837 3.697-0.902 5.731-3.468 8.625-5.175 11.441 0.063 17.066 2.032 26.737 2.587 1.133-0.305 1.356-1.519 2.587-1.725-1.967-6.911 5.942-12.4 3.45-19.837 3.365-2.385 5.53-5.97 6.038-11.212 4.557-3.78 7.692-8.982 10.35-14.662 4.415-2.197 8.409-4.816 13.8-6.038-18.337-18.174-38.555-34.468-43.124-66.411-2.748-3.195-4.267-7.116-6.038-11.212-1.628-3.768-4.755-8.555-5.175-12.075-4.184-35.076 57.89-32.759 74.173-15.525 9.853-3.071 28.169-2.449 34.5 3.45 7.133-0.214 11.348 0.815 18.112 2.588 3.499 0.917 5.864 2.166 7.763 4.312 10.628 0.297 19.108 4.623 25.012 9.487 1.22 1.005 3.787 1.355 2.587 3.45 1.331-2.246 0.068-5.934 1.725-9.487-5.373-8.08-3.506-21.778 2.587-27.6-0.432-7.044 0.222-13.003 4.312-15.524-1.705-6.81 1.544-13.993 4.312-18.975 4.313-0.286 6.542-2.658 9.487-4.312 15.542-2.238 25.006 2.584 34.499 6.9 7.846 3.566 15.373 4.784 19.837 10.35 2.905 0.061 4.155 1.044 6.9 2.587 4.688 2.636 9.396 8.274 13.8 12.938 9.151 9.694 14.893 17.707 21.562 30.187 6.196 11.595 10.724 24.073 17.25 35.362 5.639 9.755 10.622 18.269 15.524 30.187 5.999 14.584 10.882 26.022 16.387 41.399 1.325 3.702 2.876 10.228 4.312 15.525 0.611 3.198-1.473 3.701-0.862 6.9 1.825 2.865 2.505-2.589 5.175-1.725 0.771 3.304-0.508 3.82 3.45 2.587 1.616 1.643 0.095 2.167 0 4.312 2.068 2.29 2.305-4.546 6.037-3.45 0.362 3.525-2.839 3.486-1.725 7.763 0.253 2.051 2.334-0.958 2.587-1.725 2.033 4.292 7.757 4.893 9.487 9.487 2.226-0.075 0.907-3.692 4.312-2.587 0.447 4.473-2.702 5.347-3.449 8.625 3.718 1.195 2.51-4.404 5.175-1.725 0.247 1.392-0.812 1.484-0.86 2.587zm-181.98-212.17c0.205 3.245 3.537 3.363 6.038 4.312 7.032 7.054 13.372 14.802 20.699 21.562-4.888-12.808-7.313-32.746-26.737-25.874zm39.675 12.075c7.825 1.375 13.193 5.206 18.111 9.487 1.787-0.513 5.666 1.066 6.038-0.862-10.527-8.735-24.79-13.735-37.087-20.7h-1.725c3.184 5.728 11.054 6.771 14.663 12.075zm-7.763 18.112c15.19 2.921 23.166 13.058 37.087 17.25 0.369-8.131-5.354-10.172-6.037-17.25-7.136-5.227-11.531-13.193-22.425-14.663-6.024-4.331-14.227-11.065-20.7-12.075 5.984 6.955 8.54 17.336 12.075 26.738zm-28.462-23.287c-3.818-2.557-5.352-4.125-10.35-2.588-0.905 3.716-3.322 10.45-0.863 14.663 0.354-1.084 1.112-1.763 2.587-1.725 7.186 2.876 14.379 5.746 21.562 8.625 2.085 3.952 5.808 6.267 9.487 8.625-2.764-9.357-14.644-22.391-22.423-27.6zm48.299 55.199c-1.672-1.671-2.64-4.644-4.312-6.038-0.952-0.794-3.94-0.905-5.175-1.725-0.636-0.423-0.312-2.122-0.862-2.588-0.896-0.758-2.642-0.1-3.45-0.862-2.096-1.976-3.746-5.216-5.175-7.762-14.003-7.559-21.313-21.811-41.399-23.287-2.382 3.368-5.357 6.143-4.312 12.937 5.87 1.893 10.624 4.902 17.25 6.038 3.281 4.825 8.873 5.464 12.938 8.625 1.235 0.961 2.073 3.149 3.45 4.312 1.661 1.405 3.481 2.052 5.175 3.45 11.421 9.428 20.706 22.842 33.637 29.324 2.562-2.038 4.822-4.377 6.037-7.762-4.194-5.686-9.509-10.371-13.802-14.662zm21.563-12.075c9.74 5.211 19.857 14.638 27.599 18.975-6.676-10.261-10.95-26.007-20.699-34.5-1.116-0.972-3.48-0.578-5.175-1.725-1.392-0.941-2.296-3.436-3.45-4.312-3.165-2.403-6.916-3.484-9.487-2.587 5.267 6.518 8.977 14.596 11.212 24.149zm-21.563 6.037c6.057 6.516 10.945 15.026 18.112 20.7 1.179 0.933 3.096 0.127 4.312 0.862 0.351 0.211 1.258 2.188 1.725 2.587 7.434 6.36 13.396 11.787 18.975 18.975-1.335-14.764-7.344-24.855-9.487-38.812-3.398-2.431-7.437-2.831-11.212-5.175-0.841-0.522-1.601-2.909-2.588-3.45-1.888-1.035-4.857-0.787-6.899-1.725-0.637-0.293-1.322-2.385-1.725-2.587-2.204-1.108-4.573-1.33-6.9-2.587-7.72-4.171-14.922-10.177-23.287-11.212 1.331 12.469 10.351 17.248 18.974 22.424zm-68.136 4.313c21.561 8.914 39.008 21.941 53.474 37.949 10.495 2.729 19.464 6.986 30.187 9.487 2.061 3.45 6.216 4.843 9.487 6.9 3.219 2.023 6.37 5.001 10.351 6.038-0.649 2.186 3.295 4.045 3.449 2.587-8.167-14.833-24.295-21.705-32.774-36.225-1.931-0.943-4.321-1.428-6.037-2.587-16.253-16.809-32.684-33.439-53.474-45.711-4.773 0.174-7.29-1.911-11.212-2.587-5.737 6.752-7.557 14.953-3.451 24.149zm-102.64 26.737c-0.961-3.191-0.819-6.988-1.725-9.487-4.655-12.842-17.225-31.016-24.149-38.812-15.231-1.63-31.698 4.21-33.637 18.112-1.35 9.675 4.638 16.573 8.625 25.012 18.738-3.408 25.373 11.646 34.5 21.562 7.821 8.498 14.925 15.85 22.424 21.562 1.721-16.133-3.165-28.404-6.038-37.949zm6.899 18.974c14.605 10.407 31.674 18.35 43.987 31.049 1e-3 -5.463-3.01-7.914-4.312-12.075-3.568 2.84-10.196-1.902-12.075-6.037 1.603 0.115-0.201-1.346 0-1.725 0.536-1.01 2.773-0.096 3.45-0.862 0.149-0.169-0.649-6.322 2.588-2.587-2.167-8.309-9.689-17.058-14.663-27.6-6.171-13.082-9.561-28.536-17.25-36.224-2.487-2.487-2.491-2.373-6.037-4.312-6.856-3.75-14.487-7.712-24.15-6.9 12.824 19.089 25.598 38.226 28.462 67.273zm39.675 12.938c1.296 1.292 3.632 1.543 4.312 3.45-4.086 2.254 2.134 6.33 1.725 10.35 2.032 0.019 2.539-1.486 5.175-0.863 0.193-1.63-0.972-1.903-0.863-3.45h4.312c0.147-1.291-0.308-3.183 0.863-3.45 4.859-0.671 4.842-4.445 6.9-6.037 1.103 0.047 1.194 1.105 2.587 0.862-0.737-2.749 0.751-3.274 1.725-4.312-1.771-0.24-1.721-2.303-2.587-3.45-4.558 1.479-7.017 5.057-12.075 6.037-2.761-4.139-9.38-4.419-10.35-10.35 8.355 0.443 10.009 0.167 18.975 0-10.092-17.22-14.949-39.675-25.875-56.062-7.119-2.368-17.307-1.668-26.737-1.725 8.041 25.598 20.602 46.673 31.913 69zm37.087 4.312c-3.286-22.014-3.196-47.403-12.938-62.961-7.361-2.414-13.766-5.783-23.287-6.037 10.216 24.857 17.868 52.281 36.225 68.998zm-0.863-32.774c5.811 1.843 10.604 10.909 18.975 12.937-3.644-11.236 0.204-24.11-5.175-31.912 0.338 0.49-2.415-2.461-2.587-2.587-5.886-4.317-12.489-5.055-19.837-7.763 3.992 8.657 6.787 18.512 8.624 29.325zm27.6-9.487c6.76 7.685 13.963 18.703 20.7 23.287 1.477 5.423 8.216 5.583 8.625 12.075 15.229 3.17 29.805 6.994 42.262 12.937-3.13-6.933-10.256-10.422-15.525-15.524-5.56-5.384-10.162-11.117-15.524-16.387-8.089-7.949-15.913-15.341-25.014-21.563-6.56-4.485-13.273-8.896-21.562-11.212h-1.725c-0.834 9.466 3.734 11.807 7.763 16.387zm106.95 24.149c4.271 4.928 6.838 11.562 12.074 15.525 6.741-25.835-4.631-46.617-20.699-55.199 1.552 14.059 9.869 25.663 8.625 39.674zm-77.623 55.199c-1.988-1.174-4.813-1.512-4.312-5.175 3.482 1.183 3.054-1.546 4.312-2.587 4.685 1.928 7.386 5.838 10.35 9.487 2.947-0.353 1.096-2.33 4.312-0.862 0.789 4.992 3.406 9.906 4.312 16.387 1.749 12.516-0.595 28.95 7.762 35.362-1.931-3.489-0.039-5.381 3.45-3.45-1.24-3.495-0.69-8.917 2.587-5.175 1.104-21.489-5.42-42.114-20.699-50.024-3.984-9.241-8.79-17.66-14.662-25.012-1.938 0.585-3.746 3.167-6.037 0.863 2.125 3.511-1.291 3.712-5.175 3.45-0.516 1.536 2.527 3.582 0 4.312-2.372-3.28-7.379 3.188-9.487-4.312-3.903-0.409-6.151-2.474-6.038-6.9 2.674-0.087 4.121 1.055 6.038 1.725 0.146-1.291-0.309-3.183 0.862-3.45 5.821-0.014 6.575-1.994 10.35-2.587 0.405-7.642-9.548-0.803-10.35-6.037-1.294 1.006-2.109 2.491-4.312 2.587-0.682-4.042-3.131-1.828-4.312-4.312-0.467-4.205 0.37-7.105 2.587-8.625 6.031-0.267 9.414 6.667 13.8 5.175-4.439-15.398-12.723-26.952-24.15-35.362 2.113 13.396 4.267 30.359 3.45 43.124-0.118 1.845 2.497 4.2-0.862 5.175-2.192-0.395-1.447-3.728-3.45-4.312-2.464 2.318-4.223-0.02-6.038 2.587-3.53-1.844-5.562-9.114-4.312-12.937 3.347 4.114 8.572 1.33 12.075 0-4.645-6.28-12.255-9.594-18.112-14.662 0.043 8.887 1.286 28.598 5.175 37.086 0.766 1.671 5.294 7.738 6.9 7.763 3.648 0.056 2.263-9.152 8.625-6.038 1.211-3.018-2.419-5.521 0-6.9 2.272 6.64 5.135 12.69 11.213 15.525-0.604 2.655-0.604 1.657 0 4.312h-3.45c3.245 10.267 8.281 18.743 14.662 25.875-2.269-2.23-2.535-7.521 2.587-6.9 0.09-2.677-2.713-2.461-1.725-6.037 2.655-0.643 1.657 2.368 4.312 1.725-0.095-2.146-1.616-2.67 0-4.312 2.045 1.152 5.788 5.084 7.762 3.448zm63.823-68.999c-3.501-3.988-4.529-6.015-8.625-8.625-7.529-4.798-12.316-1.88-13.8 6.037 9.441 11.259 22.607 18.792 30.188 31.912 4.51-1.721 7.556 0.344 12.937 0-4.822-8.914-14.49-22.25-20.7-29.324zm-180.26 50.887c-1.721-1.412-2.343-3.463-3.45-4.312-1.146-0.879-3.753-0.75-5.175-1.725-1.415-0.97-2.327-2.627-3.45-3.45-7.047-5.163-11.538-10.676-17.25-16.387-3.416-3.416-7.273-6.136-10.35-9.487-9.325-10.159-16.98-24.017-30.187-22.425-0.865-3e-3 -1.026 0.699-1.725 0.863 1.249 12.93 4.755 20.183 10.35 29.324 6.967 11.384 13.604 18.886 22.424 26.737 5.064 4.508 10.004 7.798 14.662 11.212 9.314 6.828 17.336 18.835 28.462 22.424 4.088 7.124 12.326 10.099 18.975 14.662 3.012-5.571 3.193-11.501 0-18.112-3.284-0.741-5.715-2.335-10.35-1.725 0.493-3.943-2.112-4.787-2.587-7.762 0.529-1.196 3.32-0.13 3.45-1.725-1.26-0.752-3.34-0.685-2.587-3.45 1.502-0.065 2.683 0.192 3.45 0.862-1.764-7.546-9.168-11.019-14.662-15.524zm208.72-18.112c11.859 14.59 23.259 29.641 26.737 52.611 1.396 2.054 3.981 2.917 6.037 4.312 0.513 1.787-1.066 5.666 0.862 6.037 3.71-2.496 2.24-6.755 1.725-10.35-2.009-14.016-7.316-24.49-12.074-34.499-6.878-14.469-11.639-30.708-18.975-43.125-1.188 0.038-1.894-0.406-2.588-0.862 0.319 9.52-0.047 18.353-1.724 25.876zm-62.961-12.937c0.877 0.594 0.99 1.914 1.725 2.587 6.402 5.874 12.962 11.417 18.975 16.387 1.712 1.415 2.862 4.131 4.312 5.175 3.877 2.79 8.901 4.29 12.938 6.9 3.862 2.498 8.524 4.898 12.074 7.762 2.951 2.38 4.749 6.147 7.763 8.625 1.173 0.965 3.06 0.868 4.312 1.725 2.961 2.025 4.981 7.462 9.487 6.9-12.271-16.192-24.48-32.443-38.812-46.574-4.319 0.582-5.172-2.303-6.9-4.312-5.788-2.247-11.48-4.864-15.524-8.625-6.89 0.278-10.571-2.653-15.524-4.312h-1.726c1.035 3.791 4.712 6.279 6.9 7.762zm-38.811 8.624c4.824 1.513 8.653 8.58 12.074 8.625-3.722-4.041-4.731-10.793-6.899-16.387-5.511 2.028-4.682-6.775-8.625-3.45 0.767 4.194 4.986 7.32 3.45 11.212zm-120.75 8.625c3.476 2.274 6.832 4.668 10.35 6.9-2.104-4.669 3.287-7.042 5.175-10.35 5.127-0.791 7.669 5.524 11.212 3.45-8.182-6.768-18.341-11.558-27.6-17.25-1.467 4.308 1.072 11.394 0.863 17.25zm156.97 35.362c-4.912-9.462-11.581-17.168-18.112-25.012 0.459 3.043 2.53 3.857 0.863 6.9 11.61 13.114 26.227 23.223 25.874 48.299h3.45c0.472-1.253-1.009-4.458 0.862-4.312 2.438-0.138 2.009 2.591 4.312 2.588v-6.9c4.946 0.488 5.256-3.286 8.625 0 0.015-6.784 4.773-2.439 5.175-2.587 0.438-0.163 0.02-2.999 1.725-3.45 2.075-0.549 1.401 2.169 4.312 1.725 0.101-2.2 0.163-4.438 2.588-4.312 1.777 0.235 0.205 3.819 2.587 3.45 0.119-1.606 0.567-2.882 1.725-3.45 2.615-0.027 0.836 4.34 3.45 4.312 1.895-1.556 0.672-6.229 4.312-6.038 0.383 1.63-1.173 5.198 1.725 4.312 0.57-2.305 0.361-5.389 1.726-6.9h2.587c0.147 1.291-0.308 3.183 0.863 3.45 1.375-0.637-0.197-4.222 2.587-3.45 2.281 0.307 0.78 4.395 2.588 5.175 1.755-1.607 3.014-8.283 6.037-3.45-0.629-2.354 1.714-1.736 1.725-3.45-9.875-7.662-18.457-16.617-29.324-23.287-0.824 1.606 2.583 2.882 0 3.45-1.479-1.109-3.392-1.783-3.45-4.312-5.975-0.787-7.525 5.517-12.937 1.725-0.341 1.484 1.28 2.211 0 2.587-1.974-0.901-5.203-0.547-6.9-1.725-0.824 1.606 2.583 2.883 0 3.45-2.004-0.583-2.309-2.866-4.312-3.45 0.286 5.817-1.201 1.585-4.312 1.725 0.392 3.267-2.643 3.107-4.312 4.312-2.588-4.024-6.465-6.76-8.624-11.212 3.277-2.132 3.143-1.142 6.037-1.725 0.72-0.145 0.916-1.574 2.587-1.725 5.013-0.453 10.474 0.857 14.663-2.587-0.594 2.319 1.782 1.667 2.587 2.587 0.381-4.381 1.818-1.01 4.312-0.862-3.505-5.695-12.891-5.509-17.25-10.35-5.048 0.162-8.004-1.771-10.35-4.312-8.909-1.44-17.385-3.314-25.012-6.037 4.158 13.954 13.643 22.582 21.562 32.774 6.887 12.949 20.891 18.783 30.187 29.324-12.758-1.906-15.168-14.158-26.738-17.25zm62.098-38.812c-5.395-0.132-11.152-2.75-14.662 0 6.398 12.687 19.404 27.576 28.462 39.674 3.711 4.957 6.482 12.332 12.075 11.212 0.035-22.174-14.613-37.134-25.875-50.886zm-148.35 6.9c-4.6 0.716-5.392 4.534-8.625 8.625-6.126-1.358-12.25-7.287-18.112-6.038 1.764 1.111 0.91 4.84 3.45 5.175 4.508-1.327 7.017 6.769 12.938 6.899 2.384 4.516 6.308 7.492 9.487 11.212-0.857-4.915 2.379-9.253 6.037-6.9 0.647-2.947-3.504-1.096-2.587-4.312 2.851-1.211 3.626-0.47 2.587-4.312 2.291-9e-3 4.926 0.326 6.038-0.863-2.372-5.678-5.417-10.683-10.35-13.8-1.267 2.035-1.821 1.606-0.863 4.314zm-37.95 18.112c-6.319-0.76-1.005-4.37-2.587-7.762 1.787-0.513 5.666 1.066 6.038-0.863-2.994 1.007-4.01-4.818 0-3.45-2.009-3.741-5.609-5.891-8.625-8.625 2.002 3.521-1.381 5.436-2.587 7.762-0.635 1.225 1.207 1.639-0.862 2.588 1.728-0.792-6.076-1.757-5.175 0-0.083-1.713-7.357-3.237-5.175-1.725 5.41 4.369 11.37 12.771 18.973 12.075zm34.5 9.487c-4.553-4.36-7.966-9.858-13.8-12.938 1.561 5.138-9.497 11.229-4.312 17.25-1.359 0.078-0.675 2.199-2.587 1.725-0.647 2.947 3.504 1.096 2.587 4.312-1.571 1.318-7.054 1.318-8.625 0 2.021 7.349 1.922 15.748 0.862 24.149 14.576 10.724 27.883 22.716 45.711 30.187 4.948 5.402 10.75 9.949 18.112 12.937 0.542 2.908 2.93 3.971 6.038 4.312 5.26 5.09 9.83 10.869 18.111 12.938 2.827 7.523 11.517 9.183 14.662 16.387 3.449-1.727 6.221-4.13 7.763-7.763-4.841-11.191-12.987-20.604-20.699-27.599-8.919-8.09-13.139-19.495-21.562-28.462-1.242 0.482-2.104 1.345-2.587 2.587 1.288 1.299 4.917 0.258 4.312 3.45-1.254 0.472-4.458-1.008-4.312 0.863 4.418 0.103 1.732 3.413 0.862 5.175 3.046 1.186 1.084 6.477 0 8.625-9.908-1.592-18.899-4.101-21.562-12.937 2.21-2.102 0.466-8.158 4.312-8.625-2.417-0.458-1.595-4.155-2.588-6.037 1.821-3.642 5.331-5.594 5.175-11.212-3.917-3.281-8.633-10.328-13.8-9.487 2.234 3.419-1.848 7.9-4.312 9.487 1.614 0.973 4.155 1.02 3.45 4.312-4.844-1.106-3.175 4.299-3.45 7.762-5.374-1.146-1.181 1.921-3.45 3.45-2.061-2.251-7.676-0.949-10.35-2.587-0.193-1.631 0.972-1.903 0.863-3.45-2.479 0.179-4.382-0.219-5.175-1.725-0.824-3.699 2.419-3.33 2.588-6.037 0.173-1.597-2.2-1.292-2.588-4.312 0.529-1.196 3.32-0.13 3.45-1.725-2.526-0.061-4.862-0.312-4.312-3.45 2.062-0.525 6.258 1.083 6.9-0.863-1.918-1.819-7.307-0.168-6.038-5.175h4.312c1.178-3.766-3.339-1.835-2.587-5.175-0.417-2.717 3.954-0.646 4.312-2.587-1.263-0.75-2.733-1.291-2.587-3.45 1.276-0.999 2.174-0.999 3.45 0-1.554-5.056 2.569-3.817 3.451-4.312zm30.186-4.312c-1.794-0.505-2.787-1.812-4.312-2.587-0.466 2.896 1.726 5.162 2.587 7.762 2.533 7.65 3.418 16.735 7.762 20.7 0.882-0.843 1.745-1.705 2.588-2.587-1.277-0.161-0.791-2.084-0.863-3.45 4.328 0.397 5.095-3.719 6.038-4.312-3.454-8.333-8.187-15.389-12.938-22.425-1.15 3.36 0.445 4.471-0.862 6.899zm-9.487 12.075c-6.144 2.572-9.513-1.677-13.799-3.45 4.616 8.896 13.229 13.795 18.975 21.562 5.319-0.413 6.647 7.701 10.35 6.037-6.509-8.728-6.424-24.05-12.937-32.774-2.056 2.278-0.814 4.961-4.312 4.312 1.884 0.127 1.85 2.174 1.723 4.313zm-109.54-0.863c-1.166 0.271-1.647 1.228-3.45 0.862 0.491 2.792-0.262 4.338-1.725 5.175 1.291 0.147 3.183-0.308 3.45 0.863-1.041 3.855-1.984 3.314 0 6.899-1.001 0.724-2.312 1.138-4.312 0.863-0.908 3.208 2.909 1.691 3.45 3.45-0.757 3.729-3.236 11.068 1.725 14.662v4.312c-1.166 0.271-1.647 1.228-3.45 0.863-1.61 5.915 10.406 5.471 12.075 2.587-4.875 0.85-3.552-4.498-6.9-5.175-1.175-4.625 1.616-5.284 2.587-7.763-1.098-1.201-4.225-0.375-4.312-2.587 1.354-0.371 0.737-2.713 3.45-1.725-0.082-8.765-1.183-15.934 1.725-22.424-2.053-2.174-2.432-4.157-1.725-7.762h-2.587c-0.133 3.93-0.714 3.384-1e-3 6.9zm147.48 9.488c1.746 1.417 3.44 2.884 3.449 6.037-1.276-0.449-2.174-1.276-3.449-1.725 2.167 2.435-0.946 8.146-0.862 8.625 0.169 0.974 3.017 4.516 4.312 6.9 8.147 14.999 13.081 33.861 16.388 52.611 4.35 3.413 5.723 9.802 9.487 13.8 1.253-0.472 4.458 1.008 4.312-0.862-5.675 0.599-3.032-5.051 0-5.175-1.643-2.382-5.641-2.409-6.9-5.175-0.625-2.638 1.488-2.537 0.863-5.175-1.237-1.351-4.496-0.679-4.312-3.45 0.274-3.409 2.669 0.638 3.449-1.725-1.955-0.92-3.134-2.616-3.449-5.175h3.449c-3.247-2.789-4.75-8.283-1.725-11.212 1.23 0.207 1.454 1.42 2.588 1.725 0.466-3.054-3.055-2.121-2.588-5.175 0.781-1.52 3.176-1.425 3.45-3.45-8.374-11.176-5.48-33.619-9.487-49.162-2.31-0.565-3.279-2.47-5.175-3.45-0.02 2.032 1.485 2.54 0.862 5.175-3.502-0.243-1.946 0.315-1.726 2.587-2.751 0.512-2.667-1.619-4.312 0 0.094 2.146 1.616 2.67 0 4.312-1.759-0.254-1.691-2.333-3.45-2.587-0.936 2.209 2.62 4.111 0 5.175-1.71-0.647-3.843-5.278-5.174-3.449zm-124.2-5.175c-0.293 2.294-2.152 3.022-2.587 5.175 1.463 0.836 2.216 2.383 1.725 5.175 4.917-0.219 1.364-4.719 0-6.038 1.756-0.256 2.297-1.728 3.45-2.587 0.64-3.089-6.458-6.16-5.175-4.312 1.242 0.482 2.104 1.345 2.587 2.587zm16.387 25.012c-4.771 1.489-2.182 9.143 0.862 10.35-2.567 3.211 2.71 5.868 0 9.487 3.34-0.464 3.552 2.199 6.038 2.587 0.449-1.276 1.276-2.174 1.725-3.45-4.881-1.511-4.861-3.716-5.175-8.625 1.483 0.046 2.211-0.664 2.587-1.725-0.882-0.843-1.745-1.706-2.587-2.587 1.106-1.133 1.106-3.179 0-4.312 0.523-1.489 4.091 0.066 4.312-1.725-1.478-1.109-3.391-1.784-3.45-4.312h3.45c0.083-7.558-5.817-9.132-11.212-11.212 1.091 5.233 1.239 11.41 3.45 15.524zm193.2-1.725c1.021 2.179 5.291 5.583 3.449 7.763-3.96-2.365-5.263-7.387-10.35-8.625-0.778 2.859 4.792 3.741 2.588 5.175-5.047 0.735-5.306-3.319-8.625-4.312-1.132 4.869 3.42 4.055 3.45 7.763-0.805 0.92-3.182 0.268-2.588 2.587 2.956 1.644 6.334 2.866 9.487 4.312-0.374-1.917-1.981-4.676 0.862-5.175 1.288 1.012 1.016 3.584 3.45 3.45-1.482-6.035 3.828-3.949 5.175-5.175-1.915-0.358-0.828-4.729 0.862-4.312 2.477 4.384 3.688-0.488 6.9 2.587-0.167-5.312-3.017-12.487-7.763-10.35 1.479 1.109 3.392 1.784 3.45 4.312-3.231 0.873-5.547-3.576-6.9-1.725 3.48 2.97-4.233 0.583-3.447 1.725zm-91.423 1.725c-1.695 0.258-1.71-1.165-2.587-1.725-1.122 2.142 2.53 3.58 0 4.312-3.856-1.031-5.057-4.718-8.625-6.037 2.548 9.814 8.041 16.684 12.938 24.149 3.211 11.451 12.971 16.353 19.837 24.149-2.463-20.249-10.905-34.519-17.25-50.887h-5.175c-0.486 2.293 3.547 4.393 0.862 6.039zm118.16 4.312c-0.55-4.464 1.786-1.285 4.312-1.725 1.01-1.29 1.072-3.528 2.588-4.312 1.703 1.46 1.347 4.979 5.175 4.312 1.627-7.377-6.284-5.215-10.35-6.9-3.373 5.472-10.827 0.667-13.8-1.725 0.54 5.209 2.844 8.655 6.899 10.35 0.568-3.155-1.866-3.309-1.725-6.038h2.587c0.37 3.081 2.168 4.734 4.314 6.038zm-371.73-1.725c9.995 1.788 18.94 7.301 25.875 7.762-1.012-1.288-3.584-1.016-3.45-3.45-5.256-0.494-10.323-1.177-12.938-4.312-6.13-1.633-14.436-1.288-20.699-2.587-4.017-0.833-7.877-4.906-10.35-1.725 5.092 5.269 14.195 2.994 21.562 4.312zm182.85 20.7c-0.01 1.14-1.512 0.788-1.725 1.725 8.054 1.604 19.949 7.993 28.462 3.45-11.457-9.242-24.083-17.316-36.224-25.875 1.48 8.582 3.733 16.391 9.487 20.7zm155.25-8.625c-3.059-0.678-3.023-4.451-6.899-4.312-0.737 3.935 5.714 5.159 6.899 4.312zm-11.212 8.625c-0.145-4.457 2.975-5.65 4.312-8.625-2.443-0.144-3.594-1.581-6.037-1.725-0.644 2.655 2.367 1.658 1.725 4.312-1.986 2.112-7.745 2.142-6.9 2.587 1.729 1.722 3.404 3.497 6.9 3.451zm-225.11-0.863c-7.922-1.263-15.931-3.509-25.012-3.45-4.42 0.029-8.931 1.753-13.8 0.862 1.586 3.635 6.12 2.088 9.487 2.587 13.61 2.018 32.996 3.69 43.986 3.45-3.434-4.756-9.72-2.661-14.661-3.449zm28.462 4.312c6.966 0.621 14.468 3.188 19.837 1.725 3.902 2.148 11.814 4.843 16.387 3.45-3.5-0.524-5.96-2.089-8.625-3.45-14.255-0.695-23.465-6.434-40.537-4.312 1.803 4.831 8.611 2.202 12.938 2.587zm183.71 6.038c4.397 0.66 5.58-1.895 6.9-4.312 0.037-1.187-0.406-1.894-0.863-2.587-1.015 0.135-2.448-0.148-2.587 0.862 2.107 1.886-1.303 5.548-3.45 6.037zm70.723 2.587c0.113-1.134 0.131-6.24-0.862-3.45-0.114 1.134-0.131 6.241 0.862 3.45zm-198.37-1.725c4.966 5.195 15.931-0.478 21.562 0-3.056-1.813-16.037-1.194-21.562 0zm194.92 12.938c-0.405-5.345-0.566-10.933-2.587-14.663-1.324 3.898 0.646 11.229 2.587 14.663zm-76.761-6.9c1.882 0.755 6.509 3.201 8.625 0.862-3.278-0.459-3.479-3.996-7.763-3.45 0.038 1.188-0.405 1.894-0.862 2.588zm-89.697 2.587c-2.99 1.219-10.96-0.173-15.525 1.725 7.687 3.237 20.914 0.936 29.324 3.45-1.879-4.445-9.294-3.355-13.799-5.175zm154.38 27.599c3.449 0.863 5.954 2.671 6.899 6.038 2.723 0.422 3.046-1.554 6.038-0.862-0.602-6.26 8.872-4.982 10.35-4.312-1.409 0.388-1.409-4.701 0-4.312 1.756 0.256 2.297 1.728 3.449 2.587-0.086-2.673 0.392-4.784 1.726-6.037 2.635 0.814 2.702 4.197 6.037 4.312 0.719-4.143 3.523-9.149-0.862-11.212 0.146-2.771 4.971-5.321 2.587-7.763-3.505 1.669-2.486 7.864-6.899 8.625-1.005-0.145-0.937-1.364-0.862-2.587-3.891-0.152-4.126 3.349-6.038 5.175-1.124-3.177 1.023-9.663 1.726-13.8-4.01 2.67-5.341 12.409-10.35 6.9-0.135-1.015 0.147-2.448-0.862-2.587-1.998 3.871 0.908 6.558 0 8.625-3.839-1.912-6.426-5.074-9.488-7.763-0.949 3.144 0.886 4.262 1.726 7.763-4.426 0.4-5.729-2.321-7.763-4.312 2.702 6.014 4.742 8.498 2.586 15.522zm38.811-6.899c3.515 4.381 5.561-3.746 0 0zm-146.62 17.25c6.286 0.179 8.431-0.857 13.8 0-2.296-6.329-6.995-10.255-12.938-12.938-0.079 4.52-1.434 7.765-0.862 12.938zm-12.074-1.726c1.477-2.836 4.982-3.643 4.312-8.625-3.996-0.229-4.887 7.149-4.312 8.625zm34.499-2.587c-0.142-1.415 5.316-1.415 5.175 0 0.193 1.63-0.972 1.903-0.862 3.45h4.312c-0.612 4.234 3.953 3.285 1.725 6.9 2.012 0.288 3.716 0.884 4.312 2.587-1.242 0.482-2.104 1.346-2.588 2.588 4.844 3.089 11.021-0.468 14.662 3.449 2.294-3.669-2.592-1.667-1.725-6.037-1.253-0.472-4.457 1.009-4.312-0.862-0.829-3.13 3.875-0.725 3.45-3.45h-6.037c-1.013-3.587-4.806-4.395-6.9-6.899 6.332-10.013-12.907-8.441-11.212-1.726zm0 12.075c0.271-1.166 1.228-1.647 0.862-3.45h-3.45c-0.243 2.255 0.316 3.71 2.588 3.45zm31.911 18.112c1.715-1.736 4.08-2.82 5.176-5.175-1.518-0.208-1.966-1.484-1.726-3.45-1.516-0.496-5.066 1.043-5.175-0.862 0.87-0.01 1.085-1.512 0-1.726-1.188 1.112-0.854 3.747-0.862 6.038 5.989-1.062 1.546 4.902 2.587 5.175zm-76.76-5.175c0.945-3.82 3.048-5.792 0.863-3.45-3.453 3.7-2.804 8.832-6.9 13.8 0.826 4.309-2.658 8.798 0 12.074 2.369-6.627 4.331-15.518 6.037-22.424zm246.67 17.249c-0.939-6.247 2.008-16.383-1.725-19.837-2.711 5.013-3.442 16.126 1.725 19.837zm-123.33 14.662c0.21-2.664 4.293-1.457 3.45-5.175-1.48 0.879-4.947 4.177-3.45 5.175zm-87.111-0.862c0.124-1.019 1.536-1.955 0-2.587-0.124 1.019-1.536 1.955 0 2.587zm213.03 10.35c-1.549-0.699-3.729-2.558-6.038-3.449-5.143-1.987-13.757-4.622-17.249-2.588 0.672 0.19 1.003 0.722 0.862 1.726 9.67 1.255 15.511 6.339 25.875 6.899 2.726 3.324 10.884 5.771 16.387 3.45-5.246-4.078-13.122-5.69-19.837-6.038zm-94.01 5.175c7.871 1.903 10.397 9.151 16.387 12.937-1.644-11.58-6.168-20.281-18.975-20.699-0.057 3.507 2.735 4.165 2.588 7.762zm-61.237 29.325c-0.623 12.032-3.591 23.744-2.587 32.774 0.393 3.542 2.265 6.982 2.587 10.35 0.31 3.232-2.132 8.185 0.862 10.35 3.679-10.679-1.667-22.512 0-34.499 0.958-6.888 1.786-15.259 1.726-23.287-0.064-8.46-0.483-22.798-2.588-26.737-2.605 8.206 0.598 19.51 0 31.049zm109.54 13.799c0.429 3.463-0.112 8.736 3.45 10.35 0.05-13.26-2.423-34.603 0.862-50.887-0.182-0.968-0.957-1.343-1.725-1.725-2.03 12.681-4.221 29.048-2.587 42.262zm-242.36-29.325c3.868-3.903 13.093-7.02 12.938-12.074-4.131 2.77-7.52 6.28-12.075 8.625 0.955 2.286-3.049 5.233-0.863 3.449zm333.78 0.864c0.538 3.2 3.929 3.546 6.9 4.312 3.882 5.029 10.426 7.398 15.524 11.212 0.64-4.271-2.732-6.767-6.037-8.625-3.023-1.699-4.594-3.016-6.9-4.312-7.226-4.062-15.472-8.085-23.287-11.212 3.452 4.024 8.071 6.879 13.8 8.625zm-355.34 21.561c2.383-0.492 4.836-0.913 4.312-4.312 3.819-1.931 7.523-3.977 8.625-8.625 3.026-1.31 7.613-5.58 6.037-8.624-5.681 7.831-13.077 13.946-18.974 21.561zm290.66 79.349c0.179-9.665-6.009-17.507-10.35-25.875-4.363-8.409-7.005-17.928-12.075-25.874 3.265 21.46 12.891 36.558 22.425 51.749z"/>
	<path d="m375.25 184.28c2.62-1.063-0.936-2.966 0-5.175 1.759 0.254 1.691 2.333 3.45 2.587 1.616-1.643 0.094-2.167 0-4.312 1.645-1.619 1.561 0.512 4.312 0-0.221-2.272-1.776-2.831 1.726-2.587 0.623-2.635-0.882-3.143-0.862-5.175 1.896 0.979 2.865 2.884 5.175 3.45 4.007 15.543 1.113 37.986 9.487 49.162-0.274 2.025-2.669 1.931-3.45 3.45-0.467 3.054 3.054 2.121 2.588 5.175-1.134-0.305-1.357-1.519-2.588-1.725-3.025 2.93-1.522 8.424 1.725 11.212h-3.449c0.315 2.559 1.494 4.255 3.449 5.175-0.78 2.363-3.175-1.684-3.449 1.725-0.184 2.771 3.075 2.099 4.312 3.45 0.625 2.638-1.488 2.537-0.863 5.175 1.26 2.766 5.258 2.793 6.9 5.175-3.032 0.124-5.675 5.774 0 5.175 0.146 1.871-3.06 0.391-4.312 0.862-3.765-3.998-5.138-10.387-9.487-13.8-3.307-18.75-8.24-37.612-16.388-52.611-1.295-2.384-4.143-5.926-4.312-6.9-0.084-0.479 3.029-6.19 0.862-8.625 1.275 0.449 2.173 1.276 3.449 1.725-9e-3 -3.153-1.703-4.621-3.449-6.037 1.33-1.829 3.463 2.802 5.174 3.449z" fill="#fff"/>
	<path d="m243.29 173.06c-1.283-1.848 5.814 1.223 5.175 4.312-1.152 0.86-1.694 2.332-3.45 2.587 1.364 1.318 4.917 5.818 0 6.038 0.491-2.792-0.262-4.338-1.725-5.175 0.435-2.152 2.294-2.881 2.587-5.175-0.483-1.241-1.345-2.104-2.587-2.587z" fill="#fff"/>
	<path d="m458.91 197.21c1.354-1.852 3.669 2.598 6.9 1.725-0.059-2.529-1.972-3.203-3.45-4.312 4.746-2.137 7.596 5.039 7.763 10.35-3.213-3.076-4.424 1.796-6.9-2.587-1.69-0.417-2.777 3.954-0.862 4.312-1.347 1.226-6.657-0.86-5.175 5.175-2.435 0.134-2.162-2.438-3.45-3.45-2.844 0.499-1.236 3.257-0.862 5.175-3.153-1.446-6.531-2.668-9.487-4.312-0.594-2.319 1.783-1.667 2.588-2.587-0.03-3.708-4.582-2.894-3.45-7.763 3.319 0.993 3.578 5.047 8.625 4.312 2.204-1.434-3.366-2.316-2.588-5.175 5.087 1.238 6.39 6.26 10.35 8.625 1.842-2.179-2.429-5.583-3.449-7.763-0.789-1.142 6.924 1.245 3.447-1.725z" fill="#fff"/>
	<path d="m477.88 198.94h-2.587c-0.142 2.729 2.293 2.883 1.725 6.038-4.056-1.695-6.359-5.141-6.899-10.35 2.973 2.392 10.427 7.197 13.8 1.725 4.065 1.685 11.977-0.477 10.35 6.9-3.828 0.666-3.472-2.853-5.175-4.312-1.516 0.785-1.578 3.022-2.588 4.312-2.526 0.44-4.862-2.739-4.312 1.725-2.147-1.305-3.945-2.958-4.314-6.038z" fill="#fff"/>
	<path d="m88.903 198.94c2.473-3.181 6.333 0.892 10.35 1.725 6.264 1.299 14.569 0.954 20.699 2.587 2.615 3.135 7.681 3.819 12.938 4.312-0.134 2.434 2.438 2.162 3.45 3.45-6.934-0.461-15.88-5.975-25.875-7.762-7.367-1.318-16.47 0.957-21.562-4.312z" fill="#fff"/>
	<path d="m441.66 211.01c3.876-0.138 3.841 3.635 6.899 4.312-1.185 0.848-7.636-0.376-6.899-4.312z" fill="#fff"/>
	<path d="m430.45 220.5c-0.845-0.446 4.914-0.475 6.9-2.587 0.643-2.655-2.368-1.657-1.725-4.312 2.443 0.144 3.594 1.581 6.037 1.725-1.338 2.975-4.457 4.168-4.312 8.625-3.496 0.045-5.171-1.73-6.9-3.451z" fill="#fff"/>
	<path d="m227.76 224.81c17.071-2.122 26.282 3.617 40.537 4.312 2.665 1.36 5.124 2.926 8.625 3.45-4.573 1.393-12.485-1.301-16.387-3.45-5.369 1.462-12.871-1.104-19.837-1.725-4.328-0.385-11.136 2.244-12.938-2.587z" fill="#fff"/>
	<path d="m477.02 255c2.033 1.992 3.337 4.712 7.763 4.312-0.84-3.5-2.675-4.619-1.726-7.763 3.062 2.688 5.649 5.851 9.488 7.763 0.908-2.067-1.998-4.754 0-8.625 1.01 0.139 0.728 1.573 0.862 2.587 5.009 5.509 6.34-4.23 10.35-6.9-0.702 4.137-2.85 10.623-1.726 13.8 1.912-1.826 2.147-5.327 6.038-5.175-0.074 1.224-0.143 2.442 0.862 2.587 4.413-0.761 3.395-6.956 6.899-8.625 2.384 2.442-2.44 4.992-2.587 7.763 4.386 2.062 1.581 7.069 0.862 11.212-3.335-0.115-3.402-3.498-6.037-4.312-1.334 1.253-1.812 3.364-1.726 6.037-1.152-0.86-1.693-2.332-3.449-2.587-1.409-0.388-1.409 4.701 0 4.312-1.478-0.67-10.951-1.947-10.35 4.312-2.992-0.692-3.315 1.284-6.038 0.862-0.945-3.367-3.45-5.175-6.899-6.038 2.158-7.022 0.118-9.506-2.586-15.522z" fill="#fff"/>
	<path d="m364.04 270.52c0.671 4.982-2.835 5.789-4.312 8.625-0.575-1.476 0.316-8.854 4.312-8.625z" fill="#fff"/>
	<path d="m405.43 278.29c2.095 2.505 5.888 3.312 6.9 6.899h6.037c0.425 2.726-4.279 0.32-3.45 3.45-0.145 1.871 3.06 0.391 4.312 0.862-0.867 4.37 4.019 2.368 1.725 6.037-3.642-3.917-9.818-0.36-14.662-3.449 0.483-1.242 1.346-2.105 2.588-2.588-0.597-1.703-2.301-2.299-4.312-2.587 2.229-3.615-2.337-2.666-1.725-6.9h-4.312c-0.109-1.547 1.056-1.819 0.862-3.45 0.142-1.415-5.316-1.415-5.175 0-1.695-6.714 17.544-8.286 11.212 1.726z" fill="#fff"/>
	<path d="m423.55 301.57c9e-3 -2.291-0.326-4.926 0.862-6.038 1.085 0.214 0.87 1.716 0 1.726 0.108 1.905 3.659 0.366 5.175 0.862-0.24 1.966 0.208 3.242 1.726 3.45-1.096 2.354-3.461 3.438-5.176 5.175-1.041-0.273 3.402-6.237-2.587-5.175z" fill="#fff"/>
	<path d="m343.34 324c-2.658-3.276 0.826-7.766 0-12.074 4.097-4.968 3.448-10.1 6.9-13.8 2.185-2.342 0.082-0.37-0.863 3.45-1.705 6.906-3.667 15.797-6.037 22.424z" fill="#fff"/>
	<path d="m476.16 328.31c0.843 3.718-3.24 2.511-3.45 5.175-1.497-0.999 1.97-4.297 3.45-5.175z" fill="#fff"/>
	<path d="m311.42 358.5c4.555-2.345 7.944-5.855 12.075-8.625 0.155 5.055-9.07 8.171-12.938 12.074-2.186 1.784 1.818-1.163 0.863-3.449z" fill="#fff"/>
	<path d="m307.97 362.81c1.576 3.044-3.011 7.314-6.037 8.624-1.102 4.648-4.806 6.694-8.625 8.625 0.524 3.399-1.93 3.82-4.312 4.312 5.896-7.615 13.292-13.73 18.974-21.561z" fill="#fff"/>
</g>
</svg>
