<?xml version="1.0" encoding="UTF-8"?>
<!-- Created with Inkscape (http://www.inkscape.org/) -->
<svg id="svg2172" width="342.32" height="155.24" version="1.0" xmlns="http://www.w3.org/2000/svg" xmlns:cc="http://creativecommons.org/ns#" xmlns:dc="http://purl.org/dc/elements/1.1/" xmlns:rdf="http://www.w3.org/1999/02/22-rdf-syntax-ns#">
 <metadata id="metadata21">
  <rdf:RDF>
   <cc:Work rdf:about="">
    <dc:format>image/svg+xml</dc:format>
    <dc:type rdf:resource="http://purl.org/dc/dcmitype/StillImage"/>
   </cc:Work>
  </rdf:RDF>
 </metadata>
 <path id="path3335" d="m341.56 50.928-161.07-46.68c-14.986-4.496-57.262-6.3154-81.565 5.1207-28.16 13.251-51.938 33.65-66.569 54.864-14.63 21.214-30.358 50.475-31.456 59.254-1.0973 8.7783 4.9609 23.339 17.922 27.432 13.899 4.3891 45.33 5.6901 96.196-1.8288 32.308-4.7758 226.41-76.81 226.41-76.81l0.13717-21.351z" fill="#fff" fill-rule="evenodd" stroke="#000" stroke-width="1.5362"/>
 <path id="path4309" d="m180.77 41.517c-20.087 0.2534-50.544 19.281-73.85 40.597-1.0625 0.97179-0.74615 1.8768 0.94412 1.5362 8.8927-1.7917 33.51-5.5786 44.278-6.2568 16.004-1.0081 50.067-3.4358 84.939-5.9848v-24.435c-26.013-2.8083-48.348-5.1218-54.407-5.4247-0.62579-0.031431-1.2563-0.040177-1.9042-0.032004zm63.352 3.3284c-1.8237 0-3.2804 5.0932-3.2804 11.426v5.6807c0 6.3323 1.4567 11.426 3.2804 11.426s3.2964-5.0932 3.2964-11.426v-5.6807c0-6.3323-1.4727-11.426-3.2964-11.426zm6.1288 3.5685v22.019c27.001-1.9822 50.092-3.6865 67.385-4.9767v-9.5533c-17.888-2.0135-41.531-4.6657-67.385-7.489zm69.241 7.697v9.2012c3.5928-0.2682 4.2359-0.30914 7.1529-0.52807v-7.857c-2.9324-0.33052-3.6964-0.42669-7.1529-0.81611zm10.641 1.2002v7.2009c4.9973-0.37565 11.105-0.83211 11.105-0.83211v-5.1207s-6.0952-0.68516-11.105-1.2482z" fill-rule="evenodd"/>
 <path id="path2283" d="m340.7 66.003c-1.3919 0.028369-2.4889 0.15507-2.8859 0.17346-1.4289 0.066174-2.7427 0.74179-3.0565 1.0556-0.6348 0.6348-0.14493 0.87021 2.5767 0.77628 1.0411-0.035929 2.6573-0.42961 3.3699-0.46917-0.01704-0.79906-0.00749-0.7358-0.00411-1.5362zm-7.8787 1.021c-4.4937 0.16484-8.9195 0.6269-13.33 1.1682v2.5923c3.7435-0.67526 7.8372-1.4078 11.265-1.8882 2.0675-0.46454 3.1839-1.9258 2.0643-1.8722zm-15.186 1.4082c-3.7122 0.47041-7.4245 0.97474-11.153 1.3762-1.9715 0.25772-8.2924 1.0622-14.05 1.7922-10.276 1.3031-11.608 1.6961-11.025 3.2804 0.13786 0.37508 0.24003 1.0495 0.24003 1.4882 0 1.0021 1.0915 0.87529 15.874-1.8882 6.0552-1.132 8.6298-1.5339 12.498-2.0643 1.6504-0.22631 4.483-0.74468 7.617-1.3122v-2.6724zm-40.725 5.4727c-2.8586 0.003318-14.869 1.2381-34.693 3.5845-2.3939 0.28335-14.261 1.6757-26.371 3.0884-12.11 1.4127-25.591 3.0301-29.956 3.6005-4.3654 0.57039-13.583 1.7365-20.483 2.5923-23.367 2.8984-72.263 9.4166-74.522 9.9373-0.89672 0.20675-8.3682 8.6952-8.8492 10.049-0.093883 0.26434 0.59302 0.48006 1.5362 0.48006 1.785 0 41.923-4.6911 59.304-6.9289 5.4919-0.70709 12.405-1.5173 15.362-1.8082 8.0373-0.79072 11.813-1.327 19.715-2.7684 3.9429-0.7193 11.201-1.9916 16.13-2.8324 27.724-4.7298 80.806-14.147 82.523-14.642 0.84809-0.24442 1.541-3.3488 0.96013-4.2886-0.03117-0.050423-0.24772-0.064485-0.65609-0.064008z" fill="#f00"/>
 <path id="path5308" d="m139.52 20.89c-4.1886 3.4093-43.343 38.954-51.207 42.611s-30.724 9.1441-42.428 8.4125c-11.704-0.73152-15.179-1.9046-16.276-3.5505 18.688-28.544 45.838-47.212 67.849-58.286 15.545-2.9261 35.876-0.57197 39.319 1.851 4.9378 3.4747 5.6002 6.6358 2.7432 8.9612z" fill-rule="evenodd"/>
 <path id="path7248" d="m62.256 107.15 16.423-21.208c-9.7329 0.42401-20.131 1.9897-23.148 4.914-3.0845 2.9896-10.087 13.19-10.087 13.19l16.811 3.1036z" fill="#acf" fill-rule="evenodd" stroke="#000" stroke-width=".51207px"/>
 <path id="path7252" d="m10.917 100.04 1.0345 0.25863s4.4122-7.7273 5.0433-9.4401c0.39438-1.0703 0.12932-1.9397 0.12932-1.9397l-6.2072 11.121z" fill="#acf" fill-rule="evenodd" stroke="#000" stroke-width=".51207px"/>
 <path id="path7255" d="m32.254 96.416c0.35562 1.0669-3.7502 9.2461-4.6554 9.8281-0.81584 0.52447-9.1723-0.80951-9.8281-1.8104-0.61426-0.93754 4.0212-9.2492 4.7847-9.6987 0.70087-0.41271 9.3539 0.64648 9.6987 1.6811z" fill="none" stroke="#f00" stroke-width="1.0241"/>
 <path id="path7250" d="m8.0722 105.21s35.298 4.9512 44.744 6.3365c9.6987 1.4225 14.208 5.5296 15.647 10.216 1.4753 4.8047 2.457 24.441-3.3622 32.2" fill="none" stroke="#000" stroke-width=".51207px"/>
 <path id="path11134" d="m311.9 42.298c2.5025 1.3903 6.4844 5.8491 6.5305 12.414l0.12932 18.428c0.02324 3.3133-0.26685 5.8896-1.2474 7.9641" fill="none" stroke="#000" stroke-width=".51207px"/>
 <path id="path11142" d="m328.46 56.849c-0.5328 0-0.9584 1.488-0.9584 3.338v1.6597c0 1.85 0.4256 3.338 0.9584 3.338 0.53281 0 0.96307-1.488 0.96307-3.338v-1.6597c0-1.85-0.43026-3.338-0.96307-3.338z" fill-rule="evenodd"/>
 <path id="path12118" d="m327.01 74.929-6.6729 2.0643 0.19202 2.8324 6.4488-2.2883 0.032-2.6083zm-11.602 3.5205-7.777 2.2403 0.17602 3.8885 7.777-2.8324-0.17602-3.2964zm-84.363 24.915c-22.403 6.5021-45.359 11.912-68.489 17.202-2.557 0.86915-14.594 15.497-17.282 20.291 30.907-9.6013 85.323-28.708 85.323-28.708l0.44806-8.7852z" fill-rule="evenodd"/>
 <path id="path12116" d="m69.239 136.76c41.123-3.3622 124.14-22.242 167.08-34.915 42.933-12.673 105.26-31.295 105.26-31.295" fill="none" stroke="#000" stroke-width=".51207px"/>
</svg>
