<?xml version="1.0" encoding="UTF-8"?>
<!-- Created with Inkscape (http://www.inkscape.org/) -->
<svg id="svg2" width="395.5" height="200" version="1.0" xmlns="http://www.w3.org/2000/svg" xmlns:cc="http://creativecommons.org/ns#" xmlns:dc="http://purl.org/dc/elements/1.1/" xmlns:rdf="http://www.w3.org/1999/02/22-rdf-syntax-ns#" xmlns:xlink="http://www.w3.org/1999/xlink">
 <metadata id="metadata3">
  <rdf:RDF>
   <cc:Work rdf:about="">
    <dc:title>digital-camera</dc:title>
    <dc:description/>
    <dc:subject>
     <rdf:Bag>
      <rdf:li>digital</rdf:li>
      <rdf:li/>
      <rdf:li>11</rdf:li>
      <rdf:li>hardware</rdf:li>
      <rdf:li>photo</rdf:li>
      <rdf:li>digicam</rdf:li>
      <rdf:li>computer</rdf:li>
      <rdf:li>camera</rdf:li>
     </rdf:Bag>
    </dc:subject>
    <dc:publisher>
     <cc:Agent rdf:about="http://www.openclipart.org">
      <dc:title>AJ Ashton</dc:title>
     </cc:Agent>
    </dc:publisher>
    <dc:creator>
     <cc:Agent>
      <dc:title>AJ Ashton</dc:title>
     </cc:Agent>
    </dc:creator>
    <dc:rights>
     <cc:Agent>
      <dc:title>AJ Ashton</dc:title>
     </cc:Agent>
    </dc:rights>
    <dc:date/>
    <dc:format>image/svg+xml</dc:format>
    <dc:type rdf:resource="http://purl.org/dc/dcmitype/StillImage"/>
    <cc:license rdf:resource="http://web.resource.org/cc/PublicDomain"/>
    <dc:language>en</dc:language>
   </cc:Work>
   <cc:License rdf:about="http://web.resource.org/cc/PublicDomain">
    <cc:permits rdf:resource="http://web.resource.org/cc/Reproduction"/>
    <cc:permits rdf:resource="http://web.resource.org/cc/Distribution"/>
    <cc:permits rdf:resource="http://web.resource.org/cc/DerivativeWorks"/>
   </cc:License>
  </rdf:RDF>
 </metadata>
 <defs id="defs3">
  <linearGradient id="linearGradient2195">
   <stop id="stop2197" stop-color="#323232" offset="0"/>
   <stop id="stop2199" stop-color="#969696" offset="1"/>
  </linearGradient>
  <linearGradient id="linearGradient2189">
   <stop id="stop2191" stop-color="#bebebe" offset="0"/>
   <stop id="stop2193" stop-color="#d2d2d2" offset="1"/>
  </linearGradient>
  <linearGradient id="linearGradient2160">
   <stop id="stop2162" offset="0"/>
   <stop id="stop2164" stop-opacity="0" offset="1"/>
  </linearGradient>
  <linearGradient id="linearGradient2127">
   <stop id="stop2129" stop-color="#646464" offset="0"/>
   <stop id="stop2131" stop-color="#fff" offset="1"/>
  </linearGradient>
  <linearGradient id="linearGradient2143">
   <stop id="stop2145" offset="0"/>
   <stop id="stop2147" stop-color="#fff" offset="1"/>
  </linearGradient>
  <linearGradient id="linearGradient2061">
   <stop id="stop2063" stop-color="#fff" offset="0"/>
   <stop id="stop2187" stop-color="#fff" offset=".29381"/>
   <stop id="stop2065" stop-color="#fff" stop-opacity="0" offset="1"/>
  </linearGradient>
  <linearGradient id="linearGradient2853" x1="-338.13" x2="-337.99" y1="192.44" y2="214.7" gradientTransform="matrix(0 -1.3053 .76613 0 -129.5 -352.36)" gradientUnits="userSpaceOnUse" xlink:href="#linearGradient2143"/>
  <linearGradient id="linearGradient2857" x1="-327.88" x2="-327.78" y1="220.74" y2="233.92" gradientTransform="matrix(0 -1.0118 1.134 0 -234.29 -217.28)" gradientUnits="userSpaceOnUse" xlink:href="#linearGradient2143"/>
  <radialGradient id="radialGradient2860" cx="387.73" cy="177.34" r="15.509" gradientTransform="matrix(.56479 .11444 .10965 2.8513 -210.91 -431.9)" gradientUnits="userSpaceOnUse" xlink:href="#linearGradient2061"/>
  <radialGradient id="radialGradient2863" cx="387.73" cy="177.34" r="15.509" gradientTransform="matrix(.27881 .064539 -.23189 2.7936 -36.925 -445.05)" gradientUnits="userSpaceOnUse" xlink:href="#linearGradient2160"/>
  <linearGradient id="linearGradient2866" x1="550.13" x2="559.42" y1="159.7" y2="159.7" gradientTransform="matrix(.33968 0 0 2.9439 -129.5 -352.36)" gradientUnits="userSpaceOnUse" spreadMethod="reflect" xlink:href="#linearGradient2061"/>
  <linearGradient id="linearGradient2869" x1="547.19" x2="556.78" y1="132.62" y2="170.49" gradientTransform="matrix(.25443 0 0 1.216 -82.44 -111.2)" gradientUnits="userSpaceOnUse" xlink:href="#linearGradient2061"/>
  <linearGradient id="linearGradient2872" x1="547.19" x2="556.78" y1="132.62" y2="170.49" gradientTransform="matrix(.33968 0 0 2.9439 -129.5 -352.36)" gradientUnits="userSpaceOnUse" xlink:href="#linearGradient2143"/>
  <linearGradient id="linearGradient2875" x1="500.99" x2="520.82" y1="162.27" y2="162.19" gradientTransform="matrix(.35887 0 0 2.7865 -129.5 -352.36)" gradientUnits="userSpaceOnUse" spreadMethod="reflect" xlink:href="#linearGradient2127"/>
  <linearGradient id="linearGradient2878" x1="525.78" x2="525.78" y1="185.74" y2="138.62" gradientTransform="matrix(.35887 0 0 2.7865 -129.5 -352.36)" gradientUnits="userSpaceOnUse" xlink:href="#linearGradient2143"/>
  <linearGradient id="linearGradient2880" x1="517.74" x2="517.74" y1="185.11" y2="137.74" gradientTransform="matrix(.35887 0 0 2.7865 -129.5 -352.36)" gradientUnits="userSpaceOnUse" xlink:href="#linearGradient2160"/>
  <linearGradient id="linearGradient2883" x1="338.45" x2="332.51" y1="369.62" y2="391.98" gradientTransform="matrix(.20916 -.79862 .59792 .09964 -95.323 250.14)" gradientUnits="userSpaceOnUse" xlink:href="#linearGradient2061"/>
  <linearGradient id="linearGradient2886" x1="338.45" x2="332.51" y1="369.62" y2="391.98" gradientTransform="matrix(.20853 -.82126 .598 .10214 -52.427 254.09)" gradientUnits="userSpaceOnUse" xlink:href="#linearGradient2061"/>
  <radialGradient id="radialGradient2889" cx="336.94" cy="375.66" r="1.4142" gradientTransform="matrix(2.975 0 0 2.975 -744.16 -1090.3)" gradientUnits="userSpaceOnUse" xlink:href="#linearGradient2061"/>
  <radialGradient id="radialGradient2892" cx="336.94" cy="375.66" r="1.4142" gradientTransform="matrix(1.4 0 0 1.4 -216.44 -506.36)" gradientUnits="userSpaceOnUse" xlink:href="#linearGradient2061"/>
  <linearGradient id="linearGradient2895" x1="338.45" x2="332.51" y1="369.62" y2="391.98" gradientTransform="matrix(1.0228 0 0 .61083 -82.969 -213.45)" gradientUnits="userSpaceOnUse" xlink:href="#linearGradient2061"/>
  <linearGradient id="linearGradient2898" x1="333.63" x2="327.73" y1="404.93" y2="386.89" gradientTransform="matrix(1.2736 0 0 1.2199 -166.09 -455.73)" gradientUnits="userSpaceOnUse" xlink:href="#linearGradient2061"/>
  <radialGradient id="radialGradient2901" cx="331.81" cy="391.51" r="10.186" gradientTransform="matrix(.98224 0 0 .98228 -69.908 -362.13)" gradientUnits="userSpaceOnUse" xlink:href="#linearGradient2061"/>
  <linearGradient id="linearGradient2904" x1="340.57" x2="363.78" y1="396.86" y2="421.52" gradientTransform="matrix(1.0913 0 0 .91634 -129.5 -352.36)" gradientUnits="userSpaceOnUse" xlink:href="#linearGradient2143"/>
  <radialGradient id="radialGradient2907" cx="331.9" cy="204.99" r="17.615" fx="331.78" fy="205.33" gradientTransform="matrix(.43133 0 0 2.3184 -129.5 -352.36)" gradientUnits="userSpaceOnUse" xlink:href="#linearGradient2061"/>
  <radialGradient id="radialGradient2918" cx="336.94" cy="375.66" r="1.4142" gradientTransform="matrix(2.975 0 0 2.975 -785.54 -1088.9)" gradientUnits="userSpaceOnUse" xlink:href="#linearGradient2061"/>
  <radialGradient id="radialGradient2921" cx="336.94" cy="375.66" r="1.4142" gradientTransform="matrix(1.4633 0 0 1.4 -281.75 -503.57)" gradientUnits="userSpaceOnUse" xlink:href="#linearGradient2061"/>
  <linearGradient id="linearGradient2924" x1="338.45" x2="332.51" y1="369.62" y2="391.98" gradientTransform="matrix(1.0228 0 0 .61083 -126.14 -211.55)" gradientUnits="userSpaceOnUse" xlink:href="#linearGradient2061"/>
  <linearGradient id="linearGradient2927" x1="333.63" x2="327.73" y1="404.93" y2="386.89" gradientTransform="matrix(1.2736 0 0 1.2199 -209.26 -453.83)" gradientUnits="userSpaceOnUse" xlink:href="#linearGradient2061"/>
  <radialGradient id="radialGradient2930" cx="331.81" cy="391.51" r="10.186" gradientTransform="matrix(.98224 0 0 .98228 -113.07 -360.23)" gradientUnits="userSpaceOnUse" xlink:href="#linearGradient2061"/>
  <linearGradient id="linearGradient2933" x1="288.19" x2="293.4" y1="437.92" y2="443.32" gradientTransform="matrix(1.1812 0 0 .84661 -129.5 -352.36)" gradientUnits="userSpaceOnUse" xlink:href="#linearGradient2143"/>
  <linearGradient id="linearGradient2936" x1="169.78" x2="169.78" y1="1014.1" y2="1046.8" gradientTransform="matrix(2.741 0 0 .37192 -124.26 -364.81)" gradientUnits="userSpaceOnUse" xlink:href="#linearGradient2061"/>
  <linearGradient id="linearGradient2939" x1="202.39" x2="202.49" y1="850.5" y2="853.86" gradientTransform="matrix(2.3299 0 0 .51472 -129 -428.05)" gradientUnits="userSpaceOnUse" spreadMethod="reflect" xlink:href="#linearGradient2061"/>
  <linearGradient id="linearGradient2942" x1="204.79" x2="221.94" y1="839.65" y2="839.65" gradientTransform="matrix(2.2338 0 0 .53685 -129 -428.05)" gradientUnits="userSpaceOnUse" spreadMethod="reflect" xlink:href="#linearGradient2127"/>
  <linearGradient id="linearGradient2944" x1="203.41" x2="217.54" y1="826.88" y2="841.11" gradientTransform="matrix(2.2338 0 0 .53685 -129 -428.05)" gradientUnits="userSpaceOnUse" xlink:href="#linearGradient2143"/>
  <linearGradient id="linearGradient2951" x1="-227.78" x2="-185.93" y1="576.82" y2="565.61" gradientTransform="matrix(0 -2.3702 .42191 0 -129.5 -352.36)" gradientUnits="userSpaceOnUse" xlink:href="#linearGradient2143"/>
  <linearGradient id="linearGradient2958" x1="638.2" x2="639.63" y1="300.2" y2="315.39" gradientTransform="matrix(.72008 0 0 1.3887 -129.5 -352.36)" gradientUnits="userSpaceOnUse" spreadMethod="reflect" xlink:href="#linearGradient2143"/>
  <radialGradient id="radialGradient2962" cx="365.26" cy="421.08" r="65.002" gradientTransform="matrix(.41497 0 0 .41512 84.27 -78.489)" gradientUnits="userSpaceOnUse" xlink:href="#linearGradient2061"/>
  <radialGradient id="radialGradient2965" cx="389.47" cy="447.88" r="8.6886" gradientTransform="matrix(.41497 0 0 .41512 84.27 -78.489)" gradientUnits="userSpaceOnUse" xlink:href="#linearGradient2061"/>
  <radialGradient id="radialGradient2968" cx="406.76" cy="459.98" r="55.331" gradientTransform="matrix(.41497 0 0 .41512 84.27 -78.489)" gradientUnits="userSpaceOnUse">
   <stop id="stop2305" stop-color="#531971" offset="0"/>
   <stop id="stop2323" stop-color="#2c1254" offset=".60601"/>
   <stop id="stop2321" offset=".80525"/>
   <stop id="stop2307" stop-opacity="0" offset="1"/>
  </radialGradient>
  <linearGradient id="linearGradient2973" x1="398.84" x2="398.84" y1="404.5" y2="514.75" gradientTransform="matrix(.70873 0 0 .709 -35.222 -213.67)" gradientUnits="userSpaceOnUse" xlink:href="#linearGradient2143"/>
  <linearGradient id="linearGradient2976" x1="401.51" x2="372.63" y1="455.61" y2="426.73" gradientTransform="matrix(.91669 0 0 .91703 -119.81 -309.36)" gradientUnits="userSpaceOnUse" spreadMethod="reflect" xlink:href="#linearGradient2061"/>
  <linearGradient id="linearGradient2978" x1="378.75" x2="378.75" y1="513.12" y2="403.92" gradientTransform="matrix(.91669 0 0 .91703 -119.81 -309.36)" gradientUnits="userSpaceOnUse" xlink:href="#linearGradient2143"/>
  <linearGradient id="linearGradient2981" x1="406.76" x2="405.89" y1="387.34" y2="465.23" gradientTransform="matrix(.91669 0 0 .91703 -119.81 -309.36)" gradientUnits="userSpaceOnUse" spreadMethod="reflect" xlink:href="#linearGradient2143"/>
  <linearGradient id="linearGradient2986" x1="393.84" x2="393.84" y1="404.7" y2="515.28" gradientTransform="matrix(.93005 0 0 .9304 -125.25 -315.51)" gradientUnits="userSpaceOnUse" xlink:href="#linearGradient2143"/>
  <radialGradient id="radialGradient2989" cx="387.54" cy="514.14" r="108.4" gradientTransform="matrix(1.0839 0 0 1.0843 -187.82 -386.29)" gradientUnits="userSpaceOnUse" xlink:href="#linearGradient2189"/>
  <linearGradient id="linearGradient2991" x1="404.61" x2="404.61" y1="510.84" y2="406.23" gradientTransform="matrix(1.0839 0 0 1.0843 -187.82 -386.29)" gradientUnits="userSpaceOnUse" xlink:href="#linearGradient2143"/>
  <linearGradient id="linearGradient2994" x1="406.76" x2="406.76" y1="402.42" y2="519.05" gradientTransform="matrix(1.1171 0 0 1.1176 -201.34 -401.59)" gradientUnits="userSpaceOnUse" xlink:href="#linearGradient2160"/>
  <linearGradient id="linearGradient2998" x1="337.99" x2="336.71" y1="361.39" y2="369.08" gradientTransform="matrix(.83405 0 0 1.199 -129.5 -352.36)" gradientUnits="userSpaceOnUse" spreadMethod="reflect" xlink:href="#linearGradient2143"/>
  <linearGradient id="linearGradient3001" x1="234.9" x2="243.75" y1="340.22" y2="372" gradientTransform="matrix(.83405 0 0 1.199 -129.5 -352.36)" gradientUnits="userSpaceOnUse" spreadMethod="reflect" xlink:href="#linearGradient2143"/>
  <linearGradient id="linearGradient3004" x1="271.05" x2="271.05" y1="350.81" y2="354.6" gradientTransform="matrix(.83405 0 0 1.199 -129.5 -352.36)" gradientUnits="userSpaceOnUse" spreadMethod="reflect" xlink:href="#linearGradient2143"/>
  <linearGradient id="linearGradient3007" x1="302.41" x2="302.41" y1="349.93" y2="351.37" gradientTransform="matrix(.83405 0 0 1.199 -129.5 -352.36)" gradientUnits="userSpaceOnUse" spreadMethod="reflect" xlink:href="#linearGradient2143"/>
  <linearGradient id="linearGradient3010" x1="91.791" x2="91.791" y1="1207.4" y2="1233.5" gradientTransform="matrix(2.904 0 0 .42713 -169.4 -352.36)" gradientUnits="userSpaceOnUse" xlink:href="#linearGradient2160"/>
  <radialGradient id="radialGradient3013" cx="81.898" cy="1244.3" r="87.749" gradientTransform="matrix(2.904 0 0 .42713 -169.4 -352.36)" gradientUnits="userSpaceOnUse">
   <stop id="stop2120" stop-color="#7d7d7d" offset="0"/>
   <stop id="stop2122" stop-color="#dcdcdc" offset="1"/>
  </radialGradient>
  <linearGradient id="linearGradient3016" x1="260.92" x2="241.63" y1="415.67" y2="393.49" gradientTransform="matrix(1.1323 0 0 1.096 -167.84 -355.11)" gradientUnits="userSpaceOnUse" xlink:href="#linearGradient2127"/>
  <linearGradient id="linearGradient3020" x1="286.24" x2="286.24" y1="529.03" y2="291.35" gradientTransform="matrix(.82571 0 0 1.2111 -129.5 -352.36)" gradientUnits="userSpaceOnUse" xlink:href="#linearGradient2127"/>
  <linearGradient id="linearGradient3024" x1="265.97" x2="265.97" y1="439.41" y2="293.78" gradientTransform="matrix(1.0065 0 0 1.2323 -169.4 -351.86)" gradientUnits="userSpaceOnUse">
   <stop id="stop2101" offset="0"/>
   <stop id="stop2103" stop-opacity=".58824" offset="1"/>
  </linearGradient>
  <linearGradient id="linearGradient3027" x1="263.21" x2="286.64" y1="258.25" y2="258.25" gradientTransform="matrix(.5547 0 0 1.8028 -129.5 -352.36)" gradientUnits="userSpaceOnUse" xlink:href="#linearGradient2160"/>
  <radialGradient id="radialGradient3030" cx="272.22" cy="277.4" r="36.908" fx="270.42" fy="276.28" gradientTransform="matrix(.5547 0 0 1.8028 -129.5 -352.36)" gradientUnits="userSpaceOnUse" spreadMethod="reflect" xlink:href="#linearGradient2143"/>
  <linearGradient id="linearGradient3033" x1="241.94" x2="241.94" y1="802.59" y2="653.53" gradientTransform="matrix(1.5542 0 0 .64341 -129.5 -352.36)" gradientUnits="userSpaceOnUse" xlink:href="#linearGradient2195"/>
  <linearGradient id="linearGradient3036" x1="238.77" x2="238.77" y1="787.98" y2="661.19" gradientTransform="matrix(1.5288 0 0 .65411 -129.5 -352.36)" gradientUnits="userSpaceOnUse" xlink:href="#linearGradient2143"/>
  <linearGradient id="linearGradient3039" x1="224.53" x2="224.52" y1="781.66" y2="660.4" gradientTransform="matrix(1.6878 0 0 .59248 -129.5 -352.36)" gradientUnits="userSpaceOnUse" xlink:href="#linearGradient2127"/>
  <linearGradient id="linearGradient3041" x1="409.32" x2="389.56" y1="405.39" y2="350.86" gradientTransform="matrix(.91078 0 0 1.098 -129.5 -352.36)" gradientUnits="userSpaceOnUse" xlink:href="#linearGradient2143"/>
  <linearGradient id="linearGradient3044" x1="410.82" x2="410.82" y1="486.58" y2="328.52" gradientTransform="matrix(.91078 0 0 1.098 -129.5 -352.36)" gradientUnits="userSpaceOnUse" xlink:href="#linearGradient2143"/>
  <linearGradient id="linearGradient3047" x1="390.37" x2="390.37" y1="334.77" y2="489.12" gradientTransform="matrix(.91917 0 0 1.1022 -132.31 -354.9)" gradientUnits="userSpaceOnUse" xlink:href="#linearGradient2143"/>
  <linearGradient id="linearGradient3050" x1="665.37" x2="665.37" y1="310.83" y2="311.97" gradientTransform="matrix(.72008 0 0 1.3887 -129.5 -352.36)" gradientUnits="userSpaceOnUse" spreadMethod="reflect" xlink:href="#linearGradient2143"/>
  <linearGradient id="linearGradient3053" x1="665.36" x2="665.36" y1="310.83" y2="313.88" gradientTransform="matrix(.72008 0 0 1.3887 -129.5 -352.36)" gradientUnits="userSpaceOnUse" spreadMethod="reflect" xlink:href="#linearGradient2143"/>
  <linearGradient id="linearGradient3056" x1="641.06" x2="639.63" y1="319.18" y2="327.54" gradientTransform="matrix(.72008 0 0 1.3887 -129.5 -352.36)" gradientUnits="userSpaceOnUse" spreadMethod="reflect" xlink:href="#linearGradient2143"/>
  <linearGradient id="linearGradient3059" x1="656.79" x2="656.79" y1="373.11" y2="278.93" gradientTransform="matrix(.72008 0 0 1.3887 -129.5 -352.36)" gradientUnits="userSpaceOnUse" xlink:href="#linearGradient2127"/>
  <linearGradient id="linearGradient3061" x1="653.25" x2="653.25" y1="373.11" y2="279.67" gradientTransform="matrix(.72314 0 0 1.3828 -129.5 -352.36)" gradientUnits="userSpaceOnUse" xlink:href="#linearGradient2143"/>
  <linearGradient id="linearGradient3064" x1="272.22" x2="308.27" y1="285.29" y2="262.76" gradientTransform="matrix(.5547 0 0 1.8028 -129.5 -352.36)" gradientUnits="userSpaceOnUse" spreadMethod="reflect" xlink:href="#linearGradient2143"/>
  <linearGradient id="linearGradient3067" x1="224.2" x2="224.2" y1="503.96" y2="749.76" gradientTransform="matrix(1.3854 0 0 .72182 -129.5 -352.36)" gradientUnits="userSpaceOnUse" xlink:href="#linearGradient2189"/>
  <linearGradient id="linearGradient3070" x1="82.159" x2="82.159" y1="1523.1" y2="1441.2" gradientTransform="matrix(4.0927 0 0 .24434 -129.5 -352.36)" gradientUnits="userSpaceOnUse" xlink:href="#linearGradient2061"/>
  <linearGradient id="linearGradient3073" x1="-159.93" x2="-159.93" y1="-1428.4" y2="-1484.4" gradientTransform="matrix(2.8284 0 0 .35355 352.36 129.5)" gradientUnits="userSpaceOnUse" xlink:href="#linearGradient2061"/>
  <linearGradient id="linearGradient3076" x1="-159.93" x2="-159.93" y1="480.34" y2="424.26" gradientTransform="matrix(2.8284 0 0 .35355 352.36 -129.5)" gradientUnits="userSpaceOnUse" xlink:href="#linearGradient2061"/>
  <linearGradient id="linearGradient3079" x1="-82.464" x2="-82.464" y1="-2178.8" y2="-2258.8" gradientTransform="matrix(4.0927 0 0 .24434 129.5 352.36)" gradientUnits="userSpaceOnUse" xlink:href="#linearGradient2061"/>
  <radialGradient id="radialGradient3082" cx="164.88" cy="367.25" r="14.883" gradientTransform="matrix(0 1.3333 -1.3333 0 865.32 -200)" gradientUnits="userSpaceOnUse" xlink:href="#linearGradient2061"/>
  <radialGradient id="radialGradient3085" cx="164.88" cy="367.25" r="14.883" gradientTransform="matrix(0 -1.3333 -1.3333 0 865.32 400)" gradientUnits="userSpaceOnUse" xlink:href="#linearGradient2061"/>
  <radialGradient id="radialGradient3088" cx="164.88" cy="367.25" r="14.883" gradientTransform="matrix(0 -1.3333 1.3333 0 -449.32 400)" gradientUnits="userSpaceOnUse" xlink:href="#linearGradient2061"/>
  <radialGradient id="radialGradient3091" cx="164.88" cy="367.25" r="14.649" gradientTransform="matrix(1.3333 0 0 1.3333 -179.5 -469.82)" gradientUnits="userSpaceOnUse" xlink:href="#linearGradient2061"/>
  <linearGradient id="linearGradient3094" x1="219.61" x2="169.11" y1="385.29" y2="327.65" gradientTransform="matrix(.79349 0 0 1.2602 -129.5 -352.36)" gradientUnits="userSpaceOnUse" xlink:href="#linearGradient2143"/>
  <linearGradient id="linearGradient3097" x1="234.54" x2="234.54" y1="745.66" y2="484.63" gradientTransform="matrix(1.3693 0 0 .7303 -129.5 -352.36)" gradientUnits="userSpaceOnUse" xlink:href="#linearGradient2195"/>
  <radialGradient id="radialGradient3100" cx="195.34" cy="367.99" r="10.19" gradientTransform="matrix(.79349 0 0 1.2602 -129.5 -352.36)" gradientUnits="userSpaceOnUse" spreadMethod="reflect" xlink:href="#linearGradient2195"/>
 </defs>
 <g id="g3089">
  <path id="path2384" d="m25.5 60.013c-13.8 0-25 17.92-25 40 0 22.08 11.2 40 25 40 13.8 0 25-17.92 25-40 0-22.08-11.2-40-25-40zm-10 30c5.52 0 10 4.48 10 10 0 5.52-4.4801 10-10 10s-10-4.48-10-10c1e-5 -5.52 4.4801-10 10-10z" fill="url(#radialGradient3100)" fill-rule="evenodd" stroke="#000" stroke-linecap="round" stroke-linejoin="round" stroke-opacity=".19608"/>
  <rect id="rect2052" x="20.5" y="4.5244e-5" width="375" height="200" rx="20" ry="20" fill="url(#linearGradient3097)" fill-rule="evenodd"/>
  <path id="path2424" d="m21.094 62.732c-15.49 7.2223-19.485 26.812-18.284 42.397 1.1267 12.795 6.4204 28.96 20.261 32.474 13.66 1.8046 21.565-13.225 23.942-24.646 3.5126-16.592 0.95957-36.815-12.887-48.1-3.9227-2.5328-8.4951-3.3852-13.031-2.125zm-5.1875 25.312c11.12-0.11543 15.868 16.28 6.1298 21.816-9.1959 7.0835-22.729-4.6378-17.411-14.878 2.1822-4.2678 6.462-6.9704 11.281-6.9375z" fill="none" opacity=".56345" stroke="url(#linearGradient3094)" stroke-linecap="round" stroke-linejoin="round" stroke-width="2"/>
  <path id="path2058" d="m40.5 20h-20c0-11.04 8.96-20 20-20l5e-5 20z" fill="url(#radialGradient3091)" fill-rule="evenodd"/>
  <path id="path2077" d="m40.5 180v20c-11.04 0-20-8.96-20-20l20-5e-5z" fill="url(#radialGradient3088)" fill-rule="evenodd"/>
  <path id="path2081" d="m375.5 180v20c11.04 0 20-8.96 20-20l-20-5e-5z" fill="url(#radialGradient3085)" fill-rule="evenodd"/>
  <path id="path2085" d="m375.5 20v-20c11.04 0 20 8.96 20 20l-20 5e-5z" fill="url(#radialGradient3082)" fill-rule="evenodd"/>
  <rect id="rect2103" transform="scale(-1)" x="-375.5" y="-200" width="335" height="20" fill="url(#linearGradient3079)" fill-rule="evenodd"/>
  <rect id="rect2107" transform="rotate(-90)" x="-180" y="20.5" width="160" height="20" fill="url(#linearGradient3076)" fill-rule="evenodd"/>
  <rect id="rect2111" transform="matrix(0,-1,-1,0,0,0)" x="-180" y="-395.5" width="160" height="20" fill="url(#linearGradient3073)" fill-rule="evenodd"/>
  <rect id="rect2089" x="40.5" y="4.5244e-5" width="335" height="20" fill="url(#linearGradient3070)" fill-rule="evenodd"/>
  <rect id="rect2054" x="35.5" y="10" width="345.79" height="180.17" rx="10" ry="10" fill="url(#linearGradient3067)" fill-rule="evenodd"/>
  <rect id="rect2603" x="15.5" y="35" width="40" height="130" rx="2.5" ry="65" fill="url(#linearGradient3064)" fill-rule="evenodd"/>
  <rect id="rect2348" x="310.5" y="35" width="70" height="135" fill="url(#linearGradient3059)" fill-rule="evenodd" opacity=".8" stroke="url(#linearGradient3061)" stroke-linecap="round" stroke-linejoin="round" stroke-width="1.25"/>
  <rect id="rect2371" x="310.5" y="35" width="70" height="135" fill="url(#linearGradient3056)" fill-rule="evenodd" opacity=".03"/>
  <rect id="rect2367" x="310.5" y="35" width="70" height="135" fill="url(#linearGradient3053)" fill-rule="evenodd" opacity=".03"/>
  <rect id="rect2363" x="310.5" y="35" width="70" height="135" fill="url(#linearGradient3050)" fill-rule="evenodd" opacity=".03"/>
  <path id="path2206" d="m180.73 9.7987h124.41c3.2874 0 6.069 4.9306 6.069 5.9167 15.172 33.528 15.172 132.14 0 165.67 0 0.98614-2.023 6.1633-6.069 5.9167h-124.41c-3.3622 0-6.0689-2.6388-6.0689-5.9167v-165.67c0-3.2779 2.7067-5.9167 6.0689-5.9167z" fill="none" stroke="url(#linearGradient3047)" stroke-linecap="round" stroke-linejoin="round" stroke-opacity=".78431" stroke-width="1.25"/>
  <path id="rect2201" d="m182 11h122.07c3.2256 0 5.9549 4.8639 5.9549 5.8367 14.887 33.074 14.887 130.35 0 163.43 0 0.9728-1.985 6.0799-5.9549 5.8367h-122.07c-3.299 0-5.9549-2.6032-5.9549-5.8367v-163.43c0-3.2335 2.6559-5.8367 5.9549-5.8367z" fill="#9f9f9f" fill-rule="evenodd" stroke="url(#linearGradient3044)" stroke-linecap="round" stroke-linejoin="round" stroke-opacity=".78431" stroke-width="1.25"/>
  <path id="path2333" d="m176.06 35.013v50h144.75c-0.59339-18.396-2.2694-36.035-5.2812-50h-139.47z" fill="url(#linearGradient3039)" fill-rule="evenodd" stroke="url(#linearGradient3041)" stroke-linecap="round" stroke-linejoin="round" stroke-opacity=".78431" stroke-width="1.25"/>
  <path id="path2569" d="m176.06 104v62.013h138.88c3.8001-16.625 5.7232-39.098 6.0625-62.013h-144.94z" fill="url(#linearGradient3036)" fill-rule="evenodd"/>
  <path id="path2585" d="m176.06 105.01v60h138.88c3.8001-16.085 5.7232-37.828 6.0625-60h-144.94z" fill="url(#linearGradient3033)" fill-rule="evenodd"/>
  <rect id="rect2613" x="15.5" y="35" width="40" height="130" rx="2.5" ry="65" fill="url(#radialGradient3030)" fill-rule="evenodd" opacity=".55838"/>
  <rect id="rect2619" x="15.5" y="35" width="40" height="130" rx="2.5" ry="65" fill="url(#linearGradient3027)" fill-rule="evenodd" opacity=".61421"/>
  <path id="rect2141" d="m47.664 10.5h117.84c24.808 0 24.808 180 0 180h-117.84c-12.404 1e-5 -12.404-180 0-180z" fill="none" opacity=".5" stroke="url(#linearGradient3024)" stroke-linecap="round" stroke-linejoin="round" stroke-width="3"/>
  <path id="path2157" d="m47.664 9.996c-2.5547 0-4.5445 7.6089-6.0469 19.327h135.98c-3.0047-11.717-6.9844-19.327-12.094-19.327h-117.84z" fill="#fafafa" fill-rule="evenodd" stroke="#000" stroke-linecap="round" stroke-linejoin="round" stroke-opacity=".39216"/>
  <path id="path2152" d="m42.355 30.013c-4.245 34.63-4.2468 105.38 0 140h134.53c8.4935-34.615 8.4901-105.37 0-140h-134.53z" fill="url(#linearGradient3020)" fill-rule="evenodd"/>
  <rect id="rect2373" x="51.766" y="37" width="15" height="130" rx="7.5" ry="65" fill-rule="evenodd" opacity=".5"/>
  <path id="path2226" d="m42.9 30.737c-4.2114 34.272-4.2131 104.3 0 138.55h133.47c8.4262-34.258 8.4229-104.28 0-138.55h-133.47z" fill="none" stroke="url(#linearGradient3016)" stroke-linecap="round" stroke-linejoin="round" stroke-width="2"/>
  <path id="path2168" d="m41.617 169.51c1.5021 12.114 3.4936 20 6.0469 20h117.84c5.1065 0 9.0895-7.8861 12.094-20h-135.98z" fill="url(#radialGradient3013)" fill-rule="evenodd" stroke="#000" stroke-linecap="round" stroke-linejoin="round" stroke-opacity=".39216"/>
  <path id="path2156" d="m41.617 169.51c1.5021 12.114 3.4936 20 6.0469 20h117.84c5.1065 0 9.0895-7.8861 12.094-20h-135.98z" fill="url(#linearGradient3010)" fill-rule="evenodd" opacity=".5"/>
  <path id="path2169" d="m43.215 32.263c-4.192 33.517-4.1937 102 0 135.5h132.85c8.3874-33.503 8.3841-101.98 0-135.5h-132.85z" fill="url(#linearGradient3007)" fill-rule="evenodd" opacity=".03"/>
  <path id="path2175" d="m43.215 32.263c-4.192 33.517-4.1937 102 0 135.5h132.85c8.3874-33.503 8.3841-101.98 0-135.5h-132.85z" fill="url(#linearGradient3004)" fill-rule="evenodd" opacity=".03"/>
  <path id="path2183" d="m43.215 32.263c-4.192 33.517-4.1937 102 0 135.5h132.85c8.3874-33.503 8.3841-101.98 0-135.5h-132.85z" fill="url(#linearGradient3001)" fill-rule="evenodd" opacity=".05"/>
  <path id="path2224" d="m43.215 32.263c-4.192 33.517-4.1937 102 0 135.5h132.85c8.3874-33.503 8.3841-101.98 0-135.5h-132.85z" fill="url(#linearGradient2998)" fill-rule="evenodd" opacity=".03"/>
  <path id="path2230" d="m314.88 112.46c0 34.151-27.674 61.835-61.812 61.835-34.138 0-61.812-27.685-61.812-61.835 0-34.151 27.674-61.835 61.812-61.835 34.138 0 61.812 27.685 61.812 61.835v0z" fill="none" opacity=".6" stroke="#000" stroke-linecap="round" stroke-linejoin="round" stroke-opacity=".78431" stroke-width="1.25"/>
  <path id="path2232" d="m314.88 112.46c0 34.151-27.674 61.835-61.812 61.835-34.138 0-61.812-27.685-61.812-61.835 0-34.151 27.674-61.835 61.812-61.835 34.138 0 61.812 27.685 61.812 61.835v0z" fill="none" opacity=".8" stroke="url(#linearGradient2994)" stroke-linecap="round" stroke-linejoin="round" stroke-opacity=".78431" stroke-width="2.5"/>
  <path id="path2242" d="m313.03 112.46c0 33.134-26.85 59.994-59.972 59.994-33.121 0-59.972-26.86-59.972-59.994 0-33.134 26.85-59.994 59.972-59.994 33.121 0 59.972 26.86 59.972 59.994v0z" fill="url(#radialGradient2989)" fill-rule="evenodd" stroke="url(#linearGradient2991)" stroke-linecap="round" stroke-linejoin="round" stroke-opacity=".78431" stroke-width="1.25"/>
  <path id="path2254" d="m304.52 112.46c0 28.432-23.04 51.48-51.461 51.48-28.421 0-51.461-23.048-51.461-51.48 0-28.432 23.04-51.48 51.461-51.48s51.461 23.048 51.461 51.48v0z" fill-rule="evenodd" stroke="url(#linearGradient2986)" stroke-linecap="round" stroke-linejoin="round" stroke-opacity=".78431" stroke-width="1.25"/>
  <path id="path2260" d="m303.78 112.46c0 28.023-22.709 50.741-50.721 50.74-28.013 0-50.721-22.717-50.721-50.74 0-28.023 22.709-50.741 50.721-50.741 28.013 0 50.721 22.717 50.721 50.741v0z" fill="url(#linearGradient2981)" fill-rule="evenodd" stroke="url(#linearGradient2978)" stroke-linecap="round" stroke-linejoin="round" stroke-opacity=".78431" stroke-width="1.25"/>
  <path id="path2243" d="m303.78 112.46c0 28.023-22.709 50.741-50.721 50.74-28.013 0-50.721-22.717-50.721-50.74 0-28.023 22.709-50.741 50.721-50.741 28.013 0 50.721 22.717 50.721 50.741v0z" fill="url(#linearGradient2976)" fill-rule="evenodd" opacity=".85" stroke="url(#linearGradient2978)" stroke-linecap="round" stroke-linejoin="round" stroke-opacity=".78431" stroke-width="1.25"/>
  <path id="path2274" d="m292.28 112.46c0 21.666-17.557 39.23-39.215 39.23-21.658 0-39.215-17.564-39.215-39.23 0-21.666 17.557-39.23 39.215-39.23 21.658 0 39.215 17.564 39.215 39.23v0z" fill="#505050" fill-rule="evenodd" stroke="url(#linearGradient2973)" stroke-linecap="round" stroke-linejoin="round" stroke-opacity=".78431" stroke-width="1.25"/>
  <path id="path2286" d="m229.81 85.22c-7.8102 6.6315-12.875 16.394-12.875 27.438 0 11.111 5.1378 20.931 13.031 27.562h46.188c7.8934-6.6319 13.031-16.452 13.031-27.562 0-11.043-5.0648-20.806-12.875-27.438h-46.5z" fill-rule="evenodd"/>
  <path id="path2319" d="m231.77 86.846c-7.1528 6.2393-11.791 15.425-11.791 25.815 0 10.454 4.7054 19.693 11.934 25.932h42.3c7.2291-6.2397 11.934-15.479 11.934-25.932 0-10.39-4.6385-19.576-11.791-25.815h-42.586z" fill="#191919" fill-rule="evenodd"/>
  <path id="path2299" d="m276.02 112.46c0 12.686-10.28 22.969-22.961 22.969-12.681 0-22.961-10.284-22.961-22.969 0-12.686 10.28-22.969 22.961-22.969s22.961 10.284 22.961 22.969z" fill="url(#radialGradient2968)" fill-rule="evenodd"/>
  <path id="path2325" d="m276.02 112.46c0 12.686-10.28 22.969-22.961 22.969-12.681 0-22.961-10.284-22.961-22.969 0-12.686 10.28-22.969 22.961-22.969s22.961 10.284 22.961 22.969z" fill="url(#radialGradient2965)" fill-rule="evenodd" opacity=".44503"/>
  <path id="path2329" d="m276.02 112.46c0 12.686-10.28 22.969-22.961 22.969-12.681 0-22.961-10.284-22.961-22.969 0-12.686 10.28-22.969 22.961-22.969s22.961 10.284 22.961 22.969z" fill="url(#radialGradient2962)" fill-rule="evenodd" opacity=".19895"/>
  <path id="path2358" d="m379.79 43.857c-2.9005 8.6378-5 31.529-5 58.656s2.0995 49.987 5 58.625v-117.28z" fill-opacity=".78431" fill-rule="evenodd" opacity=".7"/>
  <rect id="rect2375" x="310.5" y="35" width="70" height="135" fill="url(#linearGradient2958)" fill-rule="evenodd" opacity=".03"/>
  <path id="text2445" d="m117.64 139.65c0.90235 0.23048 1.5723 0.64454 2.0098 1.2422 0.4375 0.59766 0.65625 1.4004 0.65625 2.4082 0 1.4766-0.40723 2.6436-1.2217 3.501-0.81446 0.85742-1.919 1.2861-3.3135 1.2861-1.3984 0-2.5049-0.42871-3.3193-1.2861-0.81444-0.85742-1.2217-2.0244-1.2217-3.501 1e-5 -0.51952 0.0625-1.0605 0.1875-1.623 0.12501-0.56249 0.31446-1.1582 0.56836-1.7871h2.1504v0.74415c-0.73436 0.15235-1.2842 0.42969-1.6494 0.83203-0.36523 0.40235-0.54784 0.9336-0.54785 1.5938 1e-5 0.85156 0.31348 1.4844 0.94043 1.8984 0.62696 0.41407 1.5908 0.6211 2.8916 0.6211s2.2637-0.20703 2.8887-0.6211c0.625-0.41405 0.9375-1.0508 0.9375-1.9102 0-0.58203-0.16211-1.0576-0.48633-1.4268-0.32421-0.36913-0.81445-0.63769-1.4707-0.80566v-1.166zm-1.3301-7.2305h3.1172v-0.89062h0.70898v2.9648h-0.79101c0.32812 0.27344 0.57031 0.57813 0.72656 0.91406 0.15625 0.33594 0.23438 0.71876 0.23438 1.1484 0 0.63672-0.1709 1.126-0.5127 1.4678-0.3418 0.3418-0.83105 0.5127-1.4678 0.5127-0.69922 0-1.2227-0.24512-1.5703-0.73535-0.34765-0.49024-0.52148-1.2295-0.52148-2.2178v-1.0898h-0.36914c-0.5039 0-0.87597 0.11915-1.1162 0.35742-0.24023 0.23829-0.36035 0.60743-0.36035 1.1074 0 0.41407 0.085 0.7334 0.25488 0.95801 0.16993 0.22461 0.44825 0.38379 0.83496 0.47754v0.66211h-1.3418c-0.1328-0.37109-0.23241-0.75586-0.29882-1.1543-0.0664-0.39843-0.0996-0.81835-0.0996-1.2598 0-1.1133 0.20703-1.9287 0.62109-2.4463 0.41407-0.51757 1.0645-0.77636 1.9512-0.77637zm1.8691 2.0742h-1.248v0.7793c0 0.38672 0.10547 0.68359 0.3164 0.89062 0.21094 0.20704 0.51368 0.31055 0.9082 0.31055 0.39454 0 0.68946-0.0752 0.88477-0.22559 0.19531-0.15038 0.29297-0.37988 0.29297-0.68847 0-0.32031-0.10547-0.57812-0.31641-0.77344-0.21093-0.19531-0.49023-0.29297-0.83789-0.29297zm-3.252-10.529c-0.41406-0.28905-0.71582-0.60155-0.90527-0.9375-0.18945-0.33593-0.28418-0.7285-0.28418-1.1777 0-0.71483 0.20215-1.249 0.60644-1.6025 0.4043-0.3535 1.0146-0.53026 1.8311-0.53027h3.252v-0.89063h0.70898v3.709h-0.70898v-0.74414h-2.9414c-0.77734 0-1.2676 0.0596-1.4707 0.17871-0.20312 0.11915-0.30468 0.34083-0.30469 0.66504 1e-5 0.36719 0.14161 0.65235 0.42481 0.85546 0.2832 0.20314 0.68652 0.3047 1.21 0.30469h3.082v-0.74414h0.70898v3.5625h-0.70898v-0.74414h-2.9414c-0.77734 1e-5 -1.2676 0.0605-1.4707 0.18164-0.20312 0.1211-0.30468 0.3418-0.30469 0.66211 1e-5 0.3711 0.14161 0.65821 0.42481 0.86133 0.2832 0.20313 0.68652 0.30469 1.21 0.30469h3.082v-0.74414h0.70898v3.7031h-0.70898v-0.88477h-4.8106v0.88477h-0.70898v-2.959h0.8789c-0.36327-0.24219-0.6289-0.51953-0.79687-0.83204-0.16796-0.31249-0.25195-0.68358-0.25195-1.1133 0-0.5078 0.0967-0.91991 0.29003-1.2363 0.19337-0.3164 0.49317-0.56054 0.89942-0.73243zm1.6934-10.23c-0.82031 1e-5 -1.3955 0.0762-1.7256 0.22852-0.33007 0.15235-0.49511 0.41211-0.49511 0.7793 0 0.35547 0.16211 0.61035 0.48632 0.76465 0.32423 0.1543 0.8672 0.23144 1.6289 0.23144h0.10547v-2.0039zm0.69726-2.2793v4.2832h0.0469c0.80469 0 1.3857-0.12109 1.7432-0.36328 0.35743-0.24218 0.53614-0.63281 0.53614-1.1719 0-0.44921-0.11914-0.81249-0.35743-1.0898-0.23828-0.27734-0.58398-0.45507-1.0371-0.5332v-0.97266c0.70704 0.16798 1.2266 0.50196 1.5586 1.002 0.33203 0.50001 0.49805 1.1992 0.49805 2.0977 0 1.0781-0.28418 1.9053-0.85254 2.4814s-1.3799 0.86425-2.4346 0.86425c-1.0312 0-1.8359-0.29492-2.4141-0.88476-0.57812-0.58984-0.86718-1.4102-0.86718-2.4609 0-1.0312 0.30371-1.8223 0.91113-2.373 0.60743-0.55077 1.4971-0.84374 2.6689-0.8789zm-3.4805-6.9961h1.8574v0.66211c-0.33203 0.0234-0.5791 0.11329-0.74121 0.26953-0.16211 0.15626-0.24316 0.38282-0.24317 0.67969 1e-5 0.45313 0.19923 0.81055 0.59766 1.0723 0.39844 0.26172 0.95117 0.39258 1.6582 0.39258h2.4609v-1.1309h0.70898v4.0898h-0.70898v-0.88477h-4.8106v0.94922h-0.70898v-3.0234h1.1074c-0.43359-0.20313-0.75488-0.47168-0.96387-0.80567-0.20898-0.33398-0.31347-0.74316-0.31347-1.2275 0-0.12109 9e-3 -0.26855 0.0264-0.44238 0.0176-0.17382 0.042-0.37402 0.0733-0.60059zm2.4726-6.4922h3.1172v-0.89063h0.70898v2.9648h-0.79101c0.32812 0.27344 0.57031 0.57812 0.72656 0.91406s0.23438 0.71875 0.23438 1.1484c0 0.63672-0.1709 1.126-0.5127 1.4678s-0.83105 0.51269-1.4678 0.51269c-0.69922 0-1.2227-0.24511-1.5703-0.73535-0.34765-0.49023-0.52148-1.2295-0.52148-2.2178v-1.0898h-0.36914c-0.5039 0-0.87597 0.11914-1.1162 0.35742-0.24023 0.23828-0.36035 0.60742-0.36035 1.1074 0 0.41406 0.085 0.7334 0.25488 0.95801 0.16993 0.22461 0.44825 0.38379 0.83496 0.47754v0.66211h-1.3418c-0.1328-0.3711-0.23241-0.75586-0.29882-1.1543-0.0664-0.39844-0.0996-0.81836-0.0996-1.2598 0-1.1133 0.20703-1.9287 0.62109-2.4463 0.41407-0.51757 1.0645-0.77636 1.9512-0.77636zm1.8691 2.0742h-1.248v0.77929c0 0.38672 0.10547 0.6836 0.3164 0.89063 0.21094 0.20703 0.51368 0.31055 0.9082 0.31054 0.39454 1e-5 0.68946-0.0752 0.88477-0.22558 0.19531-0.15039 0.29297-0.37988 0.29297-0.68848 0-0.32031-0.10547-0.57812-0.31641-0.77344-0.21093-0.1953-0.49023-0.29296-0.83789-0.29296z" fill="none" stroke="#fff" stroke-opacity=".19608" stroke-width=".625"/>
  <path id="text2391" d="m116.23 138.23c0.90235 0.23048 1.5723 0.64454 2.0098 1.2422 0.4375 0.59766 0.65625 1.4004 0.65625 2.4082 0 1.4766-0.40723 2.6436-1.2217 3.501s-1.9189 1.2861-3.3135 1.2861c-1.3984 0-2.5049-0.42871-3.3193-1.2861-0.81445-0.85742-1.2217-2.0244-1.2217-3.501 1e-5 -0.51953 0.0625-1.0605 0.1875-1.623 0.12501-0.56249 0.31446-1.1582 0.56836-1.7871h2.1504v0.74414c-0.73437 0.15236-1.2842 0.4297-1.6494 0.83203-0.36522 0.40236-0.54784 0.9336-0.54785 1.5938 1e-5 0.85157 0.31349 1.4844 0.94043 1.8984 0.62696 0.41407 1.5908 0.6211 2.8916 0.6211 1.3008 0 2.2637-0.20703 2.8887-0.6211 0.62501-0.41406 0.93751-1.0508 0.9375-1.9102 1e-5 -0.58203-0.1621-1.0576-0.48632-1.4268-0.32422-0.36913-0.81445-0.63769-1.4707-0.80567v-1.166zm-1.3301-7.2305h3.1172v-0.89063h0.70899v2.9648h-0.79102c0.32813 0.27344 0.57031 0.57813 0.72656 0.91406 0.15625 0.33594 0.23438 0.71875 0.23438 1.1484 0 0.63672-0.1709 1.126-0.5127 1.4678-0.34179 0.3418-0.83105 0.5127-1.4678 0.5127-0.69922 0-1.2226-0.24512-1.5703-0.73535-0.34765-0.49024-0.52148-1.2295-0.52149-2.2178v-1.0898h-0.36914c-0.5039 0-0.87597 0.11914-1.1162 0.35742-0.24023 0.23829-0.36034 0.60743-0.36035 1.1074 1e-5 0.41407 0.085 0.7334 0.25488 0.95801 0.16993 0.22461 0.44825 0.38379 0.83496 0.47754v0.66211h-1.3418c-0.13281-0.37109-0.23242-0.75586-0.29883-1.1543-0.0664-0.39843-0.0996-0.81835-0.0996-1.2598 1e-5 -1.1133 0.20704-1.9287 0.62109-2.4463 0.41407-0.51757 1.0645-0.77636 1.9512-0.77637zm1.8691 2.0742h-1.248v0.7793c0 0.38672 0.10547 0.68359 0.31641 0.89062s0.51367 0.31055 0.9082 0.31055 0.68945-0.0752 0.88476-0.22559c0.19532-0.15039 0.29297-0.37988 0.29297-0.68848 0-0.3203-0.10547-0.57812-0.3164-0.77343-0.21094-0.19531-0.49024-0.29297-0.83789-0.29297zm-3.252-10.529c-0.41405-0.28905-0.71581-0.60155-0.90527-0.9375-0.18945-0.33593-0.28417-0.7285-0.28418-1.1777 1e-5 -0.71484 0.20215-1.249 0.60645-1.6025 0.4043-0.35351 1.0146-0.53026 1.831-0.53028h3.252v-0.89062h0.70899v3.709h-0.70899v-0.74414h-2.9414c-0.77734 1e-5 -1.2676 0.0596-1.4707 0.17871-0.20312 0.11915-0.30468 0.34083-0.30468 0.66504 0 0.3672 0.1416 0.65236 0.4248 0.85547 0.28321 0.20313 0.68653 0.3047 1.21 0.30469h3.082v-0.74414h0.70899v3.5625h-0.70899v-0.74414h-2.9414c-0.77734 0-1.2676 0.0606-1.4707 0.18164-0.20312 0.1211-0.30468 0.3418-0.30468 0.66211 0 0.3711 0.1416 0.65821 0.4248 0.86133 0.28321 0.20313 0.68653 0.30469 1.21 0.30468h3.082v-0.74414h0.70899v3.7031h-0.70899v-0.88477h-4.8105v0.88477h-0.70899v-2.959h0.87891c-0.36328-0.24218-0.6289-0.51952-0.79688-0.83203-0.16796-0.31249-0.25194-0.68359-0.25195-1.1133 1e-5 -0.5078 0.0967-0.91991 0.29004-1.2363 0.19336-0.3164 0.49317-0.56054 0.89941-0.73242zm1.6934-10.23c-0.82031 1e-5 -1.3955 0.0762-1.7256 0.22852-0.33008 0.15235-0.49512 0.41211-0.49512 0.7793 0 0.35547 0.16211 0.61035 0.48633 0.76464 0.32422 0.1543 0.86719 0.23145 1.6289 0.23145h0.10547v-2.0039zm0.69727-2.2793v4.2832h0.0469c0.80469 0 1.3858-0.12109 1.7432-0.36328s0.53613-0.63281 0.53613-1.1719c0-0.44921-0.11914-0.81249-0.35742-1.0898-0.23828-0.27734-0.58399-0.45507-1.0371-0.5332v-0.97266c0.70703 0.16798 1.2266 0.50196 1.5586 1.002 0.33203 0.50001 0.49805 1.1992 0.49805 2.0977 0 1.0781-0.28418 1.9053-0.85254 2.4814-0.56836 0.57618-1.3799 0.86426-2.4346 0.86426-1.0312 0-1.8359-0.29492-2.4141-0.88476-0.57812-0.58985-0.86718-1.4102-0.86719-2.4609 1e-5 -1.0312 0.30372-1.8223 0.91113-2.373 0.60743-0.55077 1.4971-0.84374 2.669-0.8789zm-3.4805-6.9961h1.8574v0.66211c-0.33203 0.0234-0.5791 0.11329-0.74121 0.26953-0.1621 0.15626-0.24316 0.38282-0.24316 0.67969 0 0.45313 0.19922 0.81055 0.59765 1.0723 0.39844 0.26172 0.95118 0.39258 1.6582 0.39257h2.4609v-1.1309h0.70899v4.0898h-0.70899v-0.88477h-4.8105v0.94922h-0.70899v-3.0234h1.1074c-0.43358-0.20312-0.75487-0.47167-0.96386-0.80566-0.20898-0.33398-0.31347-0.74316-0.31348-1.2275 1e-5 -0.12109 9e-3 -0.26855 0.0264-0.44238 0.0176-0.17382 0.042-0.37402 0.0732-0.60059zm2.4727-6.4922h3.1172v-0.89062h0.70899v2.9648h-0.79102c0.32813 0.27345 0.57031 0.57813 0.72656 0.91407s0.23438 0.71875 0.23438 1.1484c0 0.63672-0.1709 1.126-0.5127 1.4678-0.34179 0.34179-0.83105 0.51269-1.4678 0.51269-0.69922 0-1.2226-0.24511-1.5703-0.73535-0.34765-0.49023-0.52148-1.2295-0.52149-2.2178v-1.0898h-0.36914c-0.5039 1e-5 -0.87597 0.11915-1.1162 0.35743-0.24023 0.23828-0.36034 0.60742-0.36035 1.1074 1e-5 0.41406 0.085 0.7334 0.25488 0.95801 0.16993 0.22461 0.44825 0.38379 0.83496 0.47753v0.66211h-1.3418c-0.13281-0.37109-0.23242-0.75585-0.29883-1.1543-0.0664-0.39844-0.0996-0.81836-0.0996-1.2598 1e-5 -1.1133 0.20704-1.9287 0.62109-2.4463 0.41407-0.51757 1.0645-0.77636 1.9512-0.77636zm1.8691 2.0742h-1.248v0.7793c0 0.38672 0.10547 0.6836 0.31641 0.89063s0.51367 0.31054 0.9082 0.31054 0.68945-0.0752 0.88476-0.22558c0.19532-0.15039 0.29297-0.37988 0.29297-0.68848 0-0.32031-0.10547-0.57812-0.3164-0.77344-0.21094-0.19531-0.49024-0.29296-0.83789-0.29297z" fill="none" stroke="#000" stroke-opacity=".19608" stroke-width=".625"/>
  <path id="text2379" d="m116.73 138.73c0.90235 0.23048 1.5723 0.64454 2.0098 1.2422 0.4375 0.59766 0.65625 1.4004 0.65625 2.4082 0 1.4766-0.40723 2.6436-1.2217 3.501s-1.9189 1.2861-3.3135 1.2861c-1.3984 0-2.5049-0.42871-3.3193-1.2861-0.81445-0.85742-1.2217-2.0244-1.2217-3.501 1e-5 -0.51953 0.0625-1.0605 0.1875-1.623 0.12501-0.56249 0.31446-1.1582 0.56836-1.7871h2.1504v0.74414c-0.73437 0.15236-1.2842 0.4297-1.6494 0.83203-0.36522 0.40236-0.54784 0.9336-0.54785 1.5938 1e-5 0.85157 0.31349 1.4844 0.94043 1.8984 0.62696 0.41407 1.5908 0.6211 2.8916 0.6211 1.3008 0 2.2637-0.20703 2.8887-0.6211 0.62501-0.41406 0.93751-1.0508 0.9375-1.9102 1e-5 -0.58203-0.1621-1.0576-0.48632-1.4268-0.32422-0.36913-0.81445-0.63769-1.4707-0.80567v-1.166zm-1.3301-7.2305h3.1172v-0.89063h0.70899v2.9648h-0.79102c0.32813 0.27344 0.57031 0.57813 0.72656 0.91406 0.15625 0.33594 0.23438 0.71875 0.23438 1.1484 0 0.63672-0.1709 1.126-0.5127 1.4678-0.34179 0.3418-0.83105 0.5127-1.4678 0.5127-0.69922 0-1.2226-0.24512-1.5703-0.73535-0.34765-0.49024-0.52148-1.2295-0.52149-2.2178v-1.0898h-0.36914c-0.5039 0-0.87597 0.11914-1.1162 0.35742-0.24023 0.23829-0.36034 0.60743-0.36035 1.1074 1e-5 0.41407 0.085 0.7334 0.25488 0.95801 0.16993 0.22461 0.44825 0.38379 0.83496 0.47754v0.66211h-1.3418c-0.13281-0.37109-0.23242-0.75586-0.29883-1.1543-0.0664-0.39843-0.0996-0.81835-0.0996-1.2598 1e-5 -1.1133 0.20704-1.9287 0.62109-2.4463 0.41407-0.51757 1.0645-0.77636 1.9512-0.77637zm1.8691 2.0742h-1.248v0.7793c0 0.38672 0.10547 0.68359 0.31641 0.89062s0.51367 0.31055 0.9082 0.31055 0.68945-0.0752 0.88476-0.22559c0.19532-0.15039 0.29297-0.37988 0.29297-0.68848 0-0.3203-0.10547-0.57812-0.3164-0.77343-0.21094-0.19531-0.49024-0.29297-0.83789-0.29297zm-3.252-10.529c-0.41405-0.28905-0.71581-0.60155-0.90527-0.9375-0.18945-0.33593-0.28417-0.7285-0.28418-1.1777 1e-5 -0.71484 0.20215-1.249 0.60645-1.6025 0.4043-0.35351 1.0146-0.53026 1.831-0.53028h3.252v-0.89062h0.70899v3.709h-0.70899v-0.74414h-2.9414c-0.77734 1e-5 -1.2676 0.0596-1.4707 0.17871-0.20312 0.11915-0.30468 0.34083-0.30468 0.66504 0 0.3672 0.1416 0.65236 0.4248 0.85547 0.28321 0.20313 0.68653 0.3047 1.21 0.30469h3.082v-0.74414h0.70899v3.5625h-0.70899v-0.74414h-2.9414c-0.77734 0-1.2676 0.0606-1.4707 0.18164-0.20312 0.1211-0.30468 0.3418-0.30468 0.66211 0 0.3711 0.1416 0.65821 0.4248 0.86133 0.28321 0.20313 0.68653 0.30469 1.21 0.30468h3.082v-0.74414h0.70899v3.7031h-0.70899v-0.88477h-4.8105v0.88477h-0.70899v-2.959h0.87891c-0.36328-0.24218-0.6289-0.51952-0.79688-0.83203-0.16796-0.31249-0.25194-0.68359-0.25195-1.1133 1e-5 -0.5078 0.0967-0.91991 0.29004-1.2363 0.19336-0.3164 0.49317-0.56054 0.89941-0.73242zm1.6934-10.23c-0.82031 1e-5 -1.3955 0.0762-1.7256 0.22852-0.33008 0.15235-0.49512 0.41211-0.49512 0.7793 0 0.35547 0.16211 0.61035 0.48633 0.76464 0.32422 0.1543 0.86719 0.23145 1.6289 0.23145h0.10547v-2.0039zm0.69727-2.2793v4.2832h0.0469c0.80469 0 1.3858-0.12109 1.7432-0.36328s0.53613-0.63281 0.53613-1.1719c0-0.44921-0.11914-0.81249-0.35742-1.0898-0.23828-0.27734-0.58399-0.45507-1.0371-0.5332v-0.97266c0.70703 0.16798 1.2266 0.50196 1.5586 1.002 0.33203 0.50001 0.49805 1.1992 0.49805 2.0977 0 1.0781-0.28418 1.9053-0.85254 2.4814-0.56836 0.57618-1.3799 0.86426-2.4346 0.86426-1.0312 0-1.8359-0.29492-2.4141-0.88476-0.57812-0.58985-0.86718-1.4102-0.86719-2.4609 1e-5 -1.0312 0.30372-1.8223 0.91113-2.373 0.60743-0.55077 1.4971-0.84374 2.669-0.8789zm-3.4805-6.9961h1.8574v0.66211c-0.33203 0.0234-0.5791 0.11329-0.74121 0.26953-0.1621 0.15626-0.24316 0.38282-0.24316 0.67969 0 0.45313 0.19922 0.81055 0.59765 1.0723 0.39844 0.26172 0.95118 0.39258 1.6582 0.39257h2.4609v-1.1309h0.70899v4.0898h-0.70899v-0.88477h-4.8105v0.94922h-0.70899v-3.0234h1.1074c-0.43358-0.20312-0.75487-0.47167-0.96386-0.80566-0.20898-0.33398-0.31347-0.74316-0.31348-1.2275 1e-5 -0.12109 9e-3 -0.26855 0.0264-0.44238 0.0176-0.17382 0.042-0.37402 0.0732-0.60059zm2.4727-6.4922h3.1172v-0.89062h0.70899v2.9648h-0.79102c0.32813 0.27345 0.57031 0.57813 0.72656 0.91407s0.23438 0.71875 0.23438 1.1484c0 0.63672-0.1709 1.126-0.5127 1.4678-0.34179 0.34179-0.83105 0.51269-1.4678 0.51269-0.69922 0-1.2226-0.24511-1.5703-0.73535-0.34765-0.49023-0.52148-1.2295-0.52149-2.2178v-1.0898h-0.36914c-0.5039 1e-5 -0.87597 0.11915-1.1162 0.35743-0.24023 0.23828-0.36034 0.60742-0.36035 1.1074 1e-5 0.41406 0.085 0.7334 0.25488 0.95801 0.16993 0.22461 0.44825 0.38379 0.83496 0.47753v0.66211h-1.3418c-0.13281-0.37109-0.23242-0.75585-0.29883-1.1543-0.0664-0.39844-0.0996-0.81836-0.0996-1.2598 1e-5 -1.1133 0.20704-1.9287 0.62109-2.4463 0.41407-0.51757 1.0645-0.77636 1.9512-0.77637zm1.8691 2.0742h-1.248v0.7793c0 0.38672 0.10547 0.6836 0.31641 0.89063s0.51367 0.31054 0.9082 0.31054 0.68945-0.0752 0.88476-0.22558c0.19532-0.15039 0.29297-0.37988 0.29297-0.68848 0-0.32031-0.10547-0.57812-0.3164-0.77344-0.21094-0.19531-0.49024-0.29296-0.83789-0.29297z" fill="url(#linearGradient2951)" stroke="#000" stroke-opacity=".78431" stroke-width=".625"/>
  <path id="text2397" d="m341.84 125.54h-8.5898v-2.959c0-0.66796 0.041-1.1777 0.12304-1.5293 0.11329-0.49219 0.31837-0.91211 0.61524-1.2598 0.38282-0.45312 0.87207-0.79199 1.4678-1.0166 0.59571-0.2246 1.2764-0.33691 2.042-0.33692 0.65235 1e-5 1.2305 0.0762 1.7344 0.22852 0.50391 0.15235 0.9209 0.34766 1.251 0.58594 0.33008 0.23829 0.58985 0.49903 0.7793 0.78222 0.18945 0.28321 0.33301 0.62501 0.43066 1.0254 0.0977 0.4004 0.14649 0.86036 0.14649 1.3799v3.0996zm-1.0137-1.1367v-1.834c0-0.5664-0.0527-1.0107-0.15821-1.333-0.10546-0.32226-0.2539-0.5791-0.44531-0.77051-0.26953-0.26953-0.63183-0.47949-1.0869-0.62989-0.45508-0.15038-1.0068-0.22557-1.6553-0.22558-0.89843 1e-5 -1.5889 0.14747-2.0713 0.44238-0.48242 0.29493-0.80566 0.65333-0.96973 1.0752-0.11718 0.30469-0.17578 0.79492-0.17578 1.4707v1.8047h6.5625zm-6.3633-7.4062h-1.2129v-1.0547h1.2129v1.0547zm7.377 0h-6.2227v-1.0547h6.2227v1.0547zm0.51562-2.4727 0.15235-1.0254c0.3164-0.043 0.54687-0.16211 0.6914-0.35742 0.19532-0.26172 0.29297-0.61914 0.29297-1.0723 0-0.48827-0.0976-0.86523-0.29297-1.1309-0.19531-0.26562-0.46875-0.4453-0.82031-0.53906-0.21484-0.0547-0.66601-0.0801-1.3535-0.0762 0.54297 0.46094 0.81445 1.0352 0.81445 1.7227 0 0.85547-0.30859 1.5176-0.92578 1.9863-0.61719 0.46875-1.3574 0.70313-2.2207 0.70313-0.59374 0-1.1416-0.10742-1.6436-0.32227-0.50195-0.21484-0.88964-0.52636-1.1631-0.93457-0.27343-0.4082-0.41015-0.88769-0.41015-1.4385 0-0.73437 0.29688-1.3398 0.89062-1.8164h-0.75v-0.97266h5.3789c0.96875 1e-5 1.6553 0.0986 2.0596 0.2959 0.40429 0.19727 0.72363 0.50977 0.95801 0.9375 0.23437 0.42774 0.35156 0.95411 0.35156 1.5791 0 0.74219-0.16699 1.3418-0.50098 1.7988-0.33398 0.45703-0.83691 0.67774-1.5088 0.66211zm-3.7383-0.87305c0.81641 1e-5 1.4121-0.1621 1.7871-0.48632s0.5625-0.73047 0.5625-1.2188c0-0.48437-0.18652-0.89062-0.55957-1.2188-0.37304-0.32812-0.958-0.49219-1.7549-0.49219-0.76172 0-1.3359 0.16895-1.7227 0.50683-0.38671 0.3379-0.58007 0.74513-0.58008 1.2217 1e-5 0.46876 0.19044 0.86719 0.57129 1.1953 0.38087 0.32812 0.9463 0.49219 1.6963 0.49218zm-4.1543-6.0058h-1.2129v-1.0547h1.2129v1.0547zm7.377 0h-6.2227v-1.0547h6.2227v1.0547zm-2.7598-2.4141-0.0937-1.0723c0.42969-0.0508 0.78223-0.16895 1.0576-0.3545 0.27539-0.18554 0.49805-0.47363 0.66797-0.86425s0.25488-0.83008 0.25488-1.3184c0-0.43359-0.0644-0.8164-0.19336-1.1484-0.1289-0.33203-0.30566-0.5791-0.53027-0.74121-0.22461-0.1621-0.46972-0.24316-0.73535-0.24316-0.26953 0-0.50488 0.0781-0.70606 0.23437-0.20117 0.15626-0.37011 0.41407-0.50683 0.77344-0.0898 0.23047-0.22949 0.74024-0.41895 1.5293-0.18945 0.78907-0.36816 1.3418-0.53613 1.6582-0.21484 0.41016-0.48144 0.71582-0.79981 0.91699-0.31835 0.20117-0.67479 0.30176-1.0693 0.30176-0.43359 0-0.83886-0.12305-1.2158-0.36914-0.37695-0.2461-0.66308-0.60547-0.8584-1.0781-0.1953-0.47265-0.29296-0.99804-0.29297-1.5762 1e-5 -0.63671 0.10255-1.1982 0.30762-1.6846 0.20508-0.48632 0.50684-0.86035 0.90527-1.1221 0.39845-0.26171 0.84962-0.40234 1.3535-0.42188l0.082 1.0898c-0.54296 0.0586-0.95312 0.25684-1.2305 0.59472-0.27734 0.3379-0.41601 0.83692-0.41602 1.4971 1e-5 0.6875 0.12599 1.1885 0.37793 1.5029 0.25196 0.31446 0.55567 0.47169 0.91114 0.47168 0.3086 1e-5 0.5625-0.11132 0.76172-0.33398 0.19922-0.21875 0.40332-0.79004 0.6123-1.7139 0.20899-0.92382 0.39161-1.5576 0.54785-1.9014 0.23047-0.5 0.52247-0.86914 0.87598-1.1074 0.35352-0.23827 0.76074-0.35741 1.2217-0.35742 0.45703 1e-5 0.88769 0.13087 1.292 0.39258 0.4043 0.26173 0.71875 0.6377 0.94336 1.1279 0.22461 0.49024 0.33691 1.042 0.33691 1.6553 0 0.77735-0.11328 1.4287-0.33984 1.9541-0.22656 0.5254-0.56738 0.93751-1.0225 1.2363-0.45508 0.29883-0.96973 0.45606-1.544 0.47168zm2.7598-8.2676h-8.5898v-1.0547h3.082c-0.57031-0.49218-0.85547-1.1133-0.85547-1.8633 0-0.46093 0.0908-0.86132 0.27246-1.2012 0.18165-0.33984 0.43262-0.583 0.75293-0.72949 0.32032-0.14648 0.78516-0.21972 1.3945-0.21973h3.9434v1.0547h-3.9434c-0.52734 4e-6 -0.91113 0.11426-1.1514 0.34277-0.24023 0.22852-0.36034 0.55176-0.36035 0.96973 1e-5 0.3125 0.0811 0.60645 0.24317 0.88184 0.16211 0.27539 0.38184 0.47168 0.65917 0.58887 0.27735 0.11719 0.66017 0.17578 1.1484 0.17578h3.4043v1.0547zm-3.1113-6.2871c-1.1523 0-2.0058-0.32031-2.5606-0.96094-0.46093-0.53516-0.6914-1.1875-0.6914-1.957 0-0.85546 0.28028-1.5547 0.84082-2.0977 0.56055-0.54296 1.335-0.81445 2.3232-0.81445 0.80078 6e-6 1.4307 0.12012 1.8896 0.36035 0.45898 0.24024 0.81543 0.58985 1.0693 1.0488 0.25391 0.45899 0.38086 0.95996 0.38086 1.5029 0 0.8711-0.27929 1.5752-0.83789 2.1123-0.55859 0.53711-1.3633 0.80566-2.4141 0.80566zm0-1.084c0.79688 1e-6 1.3936-0.17383 1.79-0.52148 0.39649-0.34765 0.59473-0.78515 0.59473-1.3125 0-0.52343-0.19922-0.95898-0.59766-1.3066-0.39844-0.34765-1.0059-0.52148-1.8223-0.52148-0.76952 5e-6 -1.3525 0.17481-1.749 0.52441-0.39648 0.34961-0.59472 0.78418-0.59473 1.3037 1e-5 0.52735 0.19728 0.96485 0.5918 1.3125 0.39454 0.34766 0.99024 0.52149 1.7871 0.52148zm2.168-8.291 0.93164-0.15234c0.0625 0.29688 0.0937 0.5625 0.0937 0.79688 0 0.38282-0.0605 0.67969-0.18164 0.89062-0.12109 0.21094-0.28027 0.35938-0.47754 0.44531-0.19726 0.08594-0.6123 0.12891-1.2451 0.12891h-3.5801v0.77344h-0.82032v-0.77344h-1.541l-0.63282-1.0488h2.1738v-1.0605h0.82032v1.0605h3.6387c0.30078 2e-6 0.49414-0.01855 0.58008-0.05566 0.0859-0.03711 0.15429-0.09765 0.20507-0.18164 0.0508-0.08398 0.0762-0.2041 0.0762-0.36035 0-0.11718-0.0137-0.27148-0.041-0.46289zm9.9316 26.426 0.28711-1.1367c0.9336 0.23829 1.6455 0.667 2.1357 1.2861 0.49024 0.61915 0.73535 1.376 0.73535 2.2705 0 0.92578-0.18847 1.6787-0.56543 2.2588-0.37695 0.58008-0.92285 1.0215-1.6377 1.3242-0.71484 0.30273-1.4824 0.4541-2.3027 0.4541-0.89452 0-1.6748-0.1709-2.3408-0.5127-0.666-0.34179-1.1719-0.82812-1.5176-1.459-0.3457-0.63086-0.51855-1.3252-0.51856-2.083 1e-5 -0.85937 0.21876-1.582 0.65625-2.168 0.43751-0.58593 1.0527-0.99413 1.8457-1.2246l0.26368 1.1191c-0.625 0.19923-1.0801 0.48829-1.3652 0.86719-0.28515 0.37891-0.42772 0.85547-0.42773 1.4297 1e-5 0.66016 0.15821 1.2119 0.47461 1.6553 0.31641 0.44336 0.74121 0.75489 1.2744 0.93457 0.53321 0.17969 1.083 0.26953 1.6494 0.26953 0.73048 0 1.3682-0.10644 1.9131-0.31933s0.95215-0.54395 1.2217-0.99317c0.26953-0.44921 0.4043-0.93554 0.4043-1.459 0-0.63672-0.1836-1.1758-0.55078-1.6172-0.36719-0.4414-0.91211-0.74023-1.6348-0.89648zm-3.4746-7.5879 0.082 1.0488c-0.41405 0.0938-0.71483 0.22657-0.90234 0.39844-0.30078 0.28516-0.45117 0.63672-0.45117 1.0547 0 0.33594 0.0937 0.63086 0.28125 0.88476 0.24219 0.33204 0.59571 0.59376 1.0605 0.78516 0.46485 0.19141 1.127 0.29102 1.9863 0.29883-0.38671-0.25391-0.67382-0.56445-0.86133-0.93164-0.18749-0.36719-0.28124-0.75195-0.28125-1.1543 1e-5 -0.70312 0.2588-1.3018 0.77637-1.7959 0.51758-0.49413 1.1865-0.7412 2.0068-0.74121 0.53906 1e-5 1.04 0.11622 1.5029 0.34863 0.46289 0.23243 0.81738 0.55177 1.0635 0.95801 0.2461 0.40626 0.36914 0.86719 0.36914 1.3828 0 0.8789-0.32324 1.5957-0.96972 2.1504-0.64649 0.55468-1.7119 0.83203-3.1963 0.83203-1.6602 0-2.8672-0.30664-3.6211-0.91992-0.65624-0.53516-0.98436-1.2559-0.98437-2.1621 1e-5 -0.67578 0.18946-1.2295 0.56836-1.6611 0.37891-0.43163 0.90235-0.69042 1.5703-0.77636zm3.7031 4.3066c0.36328 0 0.71094-0.0772 1.043-0.23145 0.33204-0.15429 0.58497-0.37011 0.75879-0.64746 0.17383-0.27734 0.26075-0.56836 0.26075-0.87305 0-0.44531-0.17969-0.82812-0.53907-1.1484-0.35937-0.32031-0.84765-0.48047-1.4648-0.48047-0.59375 0-1.0615 0.1582-1.4033 0.47461-0.34179 0.31641-0.51269 0.71484-0.5127 1.1953 1e-5 0.47656 0.17091 0.88086 0.5127 1.2129 0.3418 0.33203 0.79004 0.49805 1.3447 0.49805zm-1.4531-5.5137c-1.0156 0-1.833-0.10449-2.4522-0.31347-0.61913-0.20899-1.0967-0.51953-1.4326-0.93164-0.33593-0.41211-0.5039-0.93066-0.50391-1.5557 1e-5 -0.46093 0.0928-0.86523 0.27832-1.2129 0.18555-0.34765 0.45313-0.63476 0.80273-0.86133 0.34962-0.22656 0.7754-0.40429 1.2774-0.5332 0.50196-0.1289 1.1787-0.19335 2.0303-0.19336 1.0078 6e-6 1.8213 0.10352 2.4404 0.31055 0.61914 0.20704 1.0977 0.51661 1.4356 0.92871 0.33789 0.41211 0.50683 0.93262 0.50683 1.5615 0 0.82813-0.29687 1.4785-0.89062 1.9512-0.71484 0.5664-1.8789 0.8496-3.4922 0.8496zm0-1.084c1.4102 0 2.3486-0.16504 2.8154-0.49512 0.4668-0.33007 0.7002-0.7373 0.7002-1.2217 0-0.48437-0.23438-0.8916-0.70313-1.2217-0.46875-0.33007-1.4062-0.49511-2.8125-0.49512-1.4141 5e-6 -2.3535 0.16504-2.8184 0.49512-0.46483 0.33008-0.69726 0.74121-0.69726 1.2334 0 0.48438 0.20508 0.8711 0.61523 1.1602 0.52344 0.36328 1.4902 0.54492 2.9004 0.54492z"/>
  <rect id="rect2403" x="306.61" y="13.246" width="73.766" height="16.529" rx="2.1213" ry="2.1213" fill="url(#linearGradient2942)" fill-rule="evenodd" stroke="url(#linearGradient2944)" stroke-linecap="round" stroke-linejoin="round" stroke-width="1.25"/>
  <rect id="rect2435" x="308.59" y="14.321" width="69.812" height="14.38" fill="url(#linearGradient2939)" fill-rule="evenodd" opacity=".4"/>
  <rect id="rect2441" x="308.94" y="15.041" width="69.112" height="8.7437" fill="url(#linearGradient2936)" fill-rule="evenodd" opacity=".6"/>
  <rect id="rect2469" x="195.5" y="12.002" width="34.684" height="24.683" rx="2" ry="2" fill="#191919" fill-rule="evenodd" opacity=".9" stroke="url(#linearGradient2933)" stroke-linecap="round" stroke-linejoin="round" stroke-width=".625"/>
  <path id="path2473" d="m222.55 24.344c0 5.347-4.3447 9.6815-9.7042 9.6815s-9.7042-4.3346-9.7042-9.6815c0-5.347 4.3447-9.6815 9.7042-9.6815s9.7042 4.3346 9.7042 9.6815z" fill="url(#radialGradient2930)" fill-rule="evenodd" opacity=".28934"/>
  <path id="path2483" d="m225.41 24.345c0 6.6484-5.6268 12.038-12.568 12.038-6.9411 0-12.568-5.3896-12.568-12.038s5.6268-12.038 12.568-12.038c6.9411 0 12.568 5.3896 12.568 12.038z" fill="url(#linearGradient2927)" fill-rule="evenodd" opacity=".2335"/>
  <path id="path2489" d="m222.94 27.879c0 3.3289-4.5188 6.0276-10.093 6.0276-5.5742 0-10.093-2.6986-10.093-6.0276 0-3.3289 4.5188-6.0276 10.093-6.0276 5.5742 0 10.093 2.6986 10.093 6.0276z" fill="url(#linearGradient2924)" fill-rule="evenodd"/>
  <path id="path2515" d="m213.36 22.36c2e-3 0.7084-0.39242 1.3637-1.0334 1.7183-0.64096 0.35465-1.4311 0.35465-2.0721 0-0.64097-0.35466-1.035-1.0099-1.0334-1.7183-2e-3 -0.7084 0.39242-1.3637 1.0334-1.7183 0.64097-0.35465 1.4311-0.35465 2.0721 0 0.64098 0.35466 1.035 1.0099 1.0334 1.7183z" fill="url(#radialGradient2921)" fill-rule="evenodd"/>
  <path id="path2525" d="m221.06 28.713c3e-3 1.5054-0.79781 2.8978-2.101 3.6514-1.3031 0.75363-2.9096 0.75363-4.2127 0-1.3031-0.75366-2.1043-2.1461-2.1009-3.6514-3e-3 -1.5054 0.7978-2.8978 2.1009-3.6514 1.3031-0.75363 2.9096-0.75363 4.2127 0 1.3031 0.75366 2.1043 2.1461 2.101 3.6514z" fill="url(#radialGradient2918)" fill-rule="evenodd" opacity=".75127"/>
  <path id="path2545" d="m240.85 152.07c-22.016-6.7856-34.398-30.019-27.655-51.894 6.7421-21.875 30.055-34.107 52.071-27.321 22.016 6.7856 34.398 30.019 27.655 51.894-6.7421 21.875-30.055 34.106-52.071 27.321z" fill-opacity="0"/>
  <path id="path2564" d="m276.02 77.896c19.213 12.763 24.508 38.584 11.827 57.673-12.681 19.089-38.536 24.218-57.748 11.456-19.213-12.763-24.508-38.584-11.827-57.673 12.681-19.089 38.536-24.218 57.748-11.456z" fill-opacity="0"/>
  <path id="path1466" d="m15.781 82.95c-0.07122 6.0519-0.28125 10.388-0.28125 17.062 0 25.085 0.54724 46.093 1.3438 56.938 1.3363 2.8287 2.7091 4.7814 3.9688 4.6562 4.1735-0.41471 5.729-18.943 3.5-41.375-1.7058-17.166-5.1383-31.608-8.5312-37.281z" fill="url(#radialGradient2907)" fill-rule="evenodd"/>
  <path id="path2247" d="m248.91 11.45c-3.855 2.4783-6.4375 6.7985-6.4375 11.719 0 4.9202 2.5825 9.2092 6.4375 11.688h15c3.8566-2.478 6.4375-6.7661 6.4375-11.688 0-4.9214-2.5809-9.2407-6.4375-11.719h-15z" fill-rule="evenodd" opacity=".85" stroke="url(#linearGradient2904)" stroke-linecap="round" stroke-linejoin="round" stroke-width=".85"/>
  <path id="path2261" d="m265.71 22.445c0 5.347-4.3447 9.6815-9.7042 9.6815s-9.7042-4.3346-9.7042-9.6815c0-5.347 4.3447-9.6815 9.7042-9.6815s9.7042 4.3346 9.7042 9.6815z" fill="url(#radialGradient2901)" fill-rule="evenodd" opacity=".28934"/>
  <path id="path2263" d="m268.58 22.446c0 6.6484-5.6268 12.038-12.568 12.038-6.9411 0-12.568-5.3896-12.568-12.038s5.6268-12.038 12.568-12.038c6.9411 0 12.568 5.3896 12.568 12.038z" fill="url(#linearGradient2898)" fill-rule="evenodd" opacity=".2335"/>
  <path id="path2265" d="m266.1 25.98c0 3.3289-4.5188 6.0276-10.093 6.0276-5.5742 0-10.093-2.6986-10.093-6.0276 0-3.3289 4.5188-6.0276 10.093-6.0276 5.5742 0 10.093 2.6986 10.093 6.0276z" fill="url(#linearGradient2895)" fill-rule="evenodd"/>
  <path id="path2267" d="m257.25 19.565c2e-3 0.7084-0.37544 1.3637-0.98868 1.7183-0.61323 0.35465-1.3692 0.35465-1.9824 0-0.61324-0.35466-0.99026-1.0099-0.98868-1.7183-2e-3 -0.7084 0.37544-1.3637 0.98868-1.7183 0.61323-0.35465 1.3692-0.35465 1.9824 0 0.61324 0.35466 0.99026 1.0099 0.98868 1.7183z" fill="url(#radialGradient2892)" fill-rule="evenodd"/>
  <path id="path2269" d="m262.43 27.261c3e-3 1.5054-0.79781 2.8978-2.101 3.6514-1.3031 0.75363-2.9096 0.75363-4.2127 0-1.3031-0.75366-2.1043-2.1461-2.1009-3.6514-3e-3 -1.5054 0.7978-2.8978 2.1009-3.6514 1.3031-0.75363 2.9096-0.75363 4.2127 0 1.3031 0.75366 2.1043 2.1461 2.101 3.6514z" fill="url(#radialGradient2889)" fill-rule="evenodd" opacity=".75127"/>
  <path id="path2281" d="m253.14 13.846c3.259 0.55665 4.9797 4.6362 3.8432 9.112-1.1365 4.4758-4.6997 7.6528-7.9588 7.0962-3.259-0.55665-4.9797-4.6362-3.8432-9.112 1.1365-4.4758 4.6997-7.6528 7.9588-7.0962z" fill="url(#linearGradient2886)" fill-rule="evenodd"/>
  <path id="path2287" d="m210.43 16.641c3.2586 0.54302 4.9761 4.5116 3.8362 8.864s-4.7056 7.4405-7.9642 6.8975c-3.2586-0.54302-4.9761-4.5116-3.8362-8.864 1.1399-4.3524 4.7056-7.4405 7.9642-6.8975z" fill="url(#linearGradient2883)" fill-rule="evenodd"/>
  <rect id="rect2291" x="50.5" y="35" width="15" height="130" rx="7.5" ry="65" fill="url(#linearGradient2878)" fill-rule="evenodd" stroke="url(#linearGradient2880)" stroke-linecap="round" stroke-linejoin="round" stroke-opacity=".19608" stroke-width="2"/>
  <rect id="rect2310" x="50.5" y="35" width="15" height="130" rx="7.5" ry="65" fill="url(#linearGradient2875)" fill-rule="evenodd" opacity=".65"/>
  <rect id="rect2318" x="52.231" y="50" width="11.538" height="100" rx="3.9183" ry="65" fill="url(#linearGradient2872)" fill-rule="evenodd" opacity=".53807" stroke="#000" stroke-linecap="round" stroke-linejoin="round" stroke-opacity=".39216"/>
  <rect id="rect2336" x="53.679" y="55" width="8.6425" height="41.306" rx="4.8585" ry="65" fill="url(#linearGradient2869)" fill-rule="evenodd"/>
  <rect id="rect2355" x="52.947" y="56.208" width="10.106" height="87.584" rx="3.9183" ry="65" fill="url(#linearGradient2866)" fill-rule="evenodd" opacity=".24365"/>
  <path id="path2359" d="m34.38 76.406c-1.9862 23.929-5.5323 42.878-7.9205 42.326-2.3882-0.5528-2.714-20.399-0.72784-44.328 1.9862-23.929 5.5323-42.878 7.9205-42.326s2.714 20.399 0.72784 44.328z" fill="url(#radialGradient2863)" fill-rule="evenodd" opacity=".62437"/>
  <path id="path2369" d="m36.282 119.9c0.93923 24.423-2.2211 43.427-7.0589 42.446-4.8377-0.98027-9.5209-21.573-10.46-45.996-0.93923-24.423 2.2211-43.427 7.0589-42.446 4.8377 0.98027 9.5209 21.573 10.46 45.996z" fill="url(#radialGradient2860)" fill-rule="evenodd" opacity=".49239"/>
  <path id="text2319" d="m28.575 119.81c0.23577-0.38114 0.64532-0.67078 1.2287-0.86894 0.58336-0.19814 1.3254-0.29721 2.2261-0.29721 1.342 0 2.3621 0.21455 3.0603 0.64365 0.69821 0.42911 1.0473 1.0551 1.0473 1.878 0 0.29028-0.05591 0.58119-0.16775 0.87273-0.11184 0.29153-0.27959 0.57992-0.50326 0.86514h-2.6931c0.32644-0.2726 0.57278-0.54331 0.73902-0.81214 0.16624-0.26882 0.24936-0.53322 0.24936-0.79321 1e-6 -0.38619-0.16019-0.68215-0.48059-0.88787-0.32039-0.20572-0.77982-0.30858-1.3783-0.30858-0.6166 0-1.0836 0.10539-1.401 0.31615-0.31736 0.21077-0.47605 0.52187-0.47605 0.9333v0.58309h-2.2488v-0.61337c9e-6 -0.366-0.13752-0.63861-0.41258-0.81783-0.27504-0.17921-0.69367-0.26882-1.2559-0.26882-0.51987 0-0.92187 0.0871-1.206 0.26125-0.28411 0.17417-0.42617 0.42027-0.42618 0.73831 1.1e-5 0.23475 0.06348 0.47202 0.19042 0.71181 0.12696 0.2398 0.31436 0.47833 0.5622 0.7156h-2.5571c-0.19343-0.28776-0.33851-0.57298-0.43525-0.85569-0.09671-0.2827-0.14507-0.56036-0.14508-0.83296 1.4e-5 -0.73453 0.28867-1.2842 0.86596-1.6489 0.57732-0.36473 1.4463-0.5471 2.607-0.54711 0.79192 1e-5 1.4403 0.0871 1.945 0.26126 0.50478 0.17416 0.85992 0.43163 1.0655 0.77238zm3.7903-2.5708v-1.363h3.5092v1.363h-3.5092zm0.94304-4.3958v-2.4875h2.5662v4.108h-2.5662l-4.3616-2.0635c-0.39897-0.18426-0.78888-0.32057-1.1697-0.40891-0.38083-0.0883-0.77679-0.13252-1.1879-0.13252-0.63473 0-1.1455 0.089-1.5324 0.26692-0.38688 0.17796-0.58032 0.4146-0.58033 0.70992 1.1e-5 0.22718 0.11638 0.47581 0.34911 0.74589 0.23275 0.27008 0.57883 0.5591 1.0382 0.86704h-2.9742c-0.25993-0.32813-0.4579-0.65249-0.59393-0.97306-0.136-0.32056-0.20401-0.63482-0.20402-0.94276 1.4e-5 -0.67647 0.35668-1.2021 1.07-1.577 0.71334-0.37483 1.7078-0.56225 2.9833-0.56225 0.73751 0 1.4251 0.0795 2.0629 0.23853 0.63777 0.15902 1.4916 0.49348 2.5616 1.0034l2.5389 1.2078z" opacity=".51777" stroke="url(#linearGradient2857)" stroke-width="1px"/>
  <path id="text2331" d="m15.953 105.68v-2.5645l5.2413-1.7794-5.2413-1.7899v-2.5593h9.7939v1.905h-7.1634l5.2807 1.8004v1.277l-5.2807 1.8004h7.1634v1.9103h-9.7939zm0-10.677v-5.4378h1.9089v3.4228h1.8236v-3.2187h1.9089v3.2187h2.2435v-3.538h1.9089v5.5529h-9.7939zm9.0657-14.351c0.30613 0.50244 0.53572 1.0241 0.68879 1.5649 0.15306 0.54082 0.2296 1.0991 0.2296 1.6748 0 1.3014-0.45591 2.3325-1.3677 3.0931-0.91182 0.76063-2.1484 1.1409-3.7096 1.1409-1.5787 0-2.8207-0.38729-3.726-1.1619-0.90525-0.77458-1.3579-1.8353-1.3579-3.1821 1e-5 -0.51987 0.06124-1.0179 0.18368-1.4942 0.12246-0.47626 0.30395-0.92548 0.54447-1.3477h2.027c-0.31049 0.43615-0.54227 0.86967-0.69535 1.3006-0.15306 0.43091-0.22959 0.86269-0.2296 1.2953 9e-6 0.8025 0.28099 1.4209 0.84294 1.8553 0.56197 0.4344 1.3656 0.6516 2.4107 0.65159 1.0365 3e-6 1.8368-0.20934 2.4009-0.62804 0.56415-0.41869 0.84622-1.0136 0.84622-1.7847 2e-6 -0.20934-0.0164-0.40386-0.0492-0.58355-0.0328-0.17968-0.08418-0.34106-0.15416-0.48412h-1.9024v1.2299h-1.6924v-3.1402h4.71zm-1.0561-6.5107v3.1507l1.7843 0.4972v2.0254l-9.7939-2.8942v-2.4023l9.7939-2.8942v2.0254l-1.7843 0.49196zm-1.8171 2.6482v-2.1406l-3.8966 1.0677 3.8966 1.0729zm2.9234 32.344v-3.3443c9e-6 -0.99439 0.27662-1.7576 0.82982-2.2897 0.55322-0.53209 1.3415-0.79814 2.3648-0.79814 1.0277 0 1.8182 0.26605 2.3714 0.79814 0.55322 0.53208 0.82983 1.2953 0.82982 2.2897v1.3294h3.398v2.015h-9.7939zm1.8302-2.015h2.7355v-1.1148c5e-6 -0.39077-0.11917-0.69258-0.35751-0.90542-0.23834-0.21283-0.57617-0.31925-1.0135-0.31926-0.43732 1e-5 -0.77406 0.10643-1.0102 0.31926-0.23615 0.21284-0.35422 0.51465-0.35423 0.90542v1.1148zm-1.8302-5.8356v-2.015h9.7939v2.015h-9.7939zm4.7953-8.3529 4.9986-2.711v2.0987l-3.3455 1.8266 3.3455 1.8108v2.1092l-4.9986-2.711-4.7953 2.6064v-2.1039l3.1553-1.7114-3.1553-1.7062v-2.1144l4.7953 2.6064zm-4.7953-3.9148v-5.4378h1.9089v3.4228h1.8236v-3.2187h1.9089v3.2187h2.2435v-3.538h1.9089v5.5529h-9.7939zm0-7.3271v-2.015h7.885v-3.538h1.9089v5.5529h-9.7939zm0.30831-12.262h2.0729c-0.24052 0.42917-0.42201 0.84786-0.54447 1.2561-0.12244 0.40823-0.18367 0.79378-0.18368 1.1566 8e-6 0.4815 0.0831 0.83739 0.24928 1.0677 0.16619 0.23028 0.42421 0.34542 0.77406 0.34542 0.2624 3e-6 0.46685-0.07763 0.61335-0.2329 0.14651-0.15526 0.27224-0.43701 0.37719-0.84524l0.21648-0.85832c0.21867-0.86878 0.55103-1.4864 0.9971-1.8527 0.44608-0.36635 1.0802-0.54953 1.9024-0.54954 1.0802 7e-6 1.8838 0.25558 2.4108 0.76673 0.52698 0.51116 0.79046 1.2918 0.79046 2.3421-1e-6 0.49546-0.05903 0.99266-0.17712 1.4916-0.11808 0.49895-0.29301 0.99789-0.52479 1.4968h-2.132c0.33237-0.49894 0.58274-0.98131 0.7511-1.4471 0.16837-0.46579 0.25256-0.91502 0.25256-1.3477 1e-6 -0.43962-0.09184-0.77632-0.27552-1.0101-0.18367-0.23377-0.44607-0.35065-0.78718-0.35066-0.30612 4e-6 -0.54228 0.07938-0.70846 0.23813-0.16618 0.15876-0.31487 0.4754-0.44607 0.94991l-0.21648 0.77982c-0.20991 0.78156-0.54446 1.3529-1.0037 1.714-0.45918 0.36112-1.078 0.54168-1.8564 0.54168-0.97522 0-1.7252-0.25122-2.25-0.75365-0.52478-0.50243-0.78717-1.2247-0.78718-2.1667 1e-5 -0.42916 0.04046-0.87053 0.12136-1.3241 0.08091-0.45358 0.20227-0.92286 0.36407-1.4079z" opacity=".68528" stroke="url(#linearGradient2853)" stroke-width="1px"/>
 </g>
</svg>
