<?xml version="1.0" encoding="UTF-8"?>
<!-- Created with Inkscape (http://www.inkscape.org/) -->
<svg id="svg1" width="132.16" height="127.89" version="1.1" xmlns="http://www.w3.org/2000/svg" xmlns:cc="http://creativecommons.org/ns#" xmlns:dc="http://purl.org/dc/elements/1.1/" xmlns:rdf="http://www.w3.org/1999/02/22-rdf-syntax-ns#" xmlns:xlink="http://www.w3.org/1999/xlink">
 <defs id="defs3">
  <linearGradient id="linearGradient1731">
   <stop id="stop1732" stop-color="#606060" offset="0"/>
   <stop id="stop1733" stop-color="#f0f0f0" offset="1"/>
  </linearGradient>
  <linearGradient id="linearGradient1696">
   <stop id="stop1697" stop-color="#d7d4d5" offset="0"/>
   <stop id="stop1698" stop-color="#f2f2f2" offset="1"/>
  </linearGradient>
  <linearGradient id="linearGradient1699" x1="52.039" x2="38.779" y1="93.433" y2="73.71" gradientTransform="scale(.83102 1.2033)" gradientUnits="userSpaceOnUse" xlink:href="#linearGradient1696"/>
  <linearGradient id="linearGradient1703" x1="101.59" x2="68.684" y1="123.74" y2="94.95" gradientTransform="scale(1.1418 .87578)" gradientUnits="userSpaceOnUse" xlink:href="#linearGradient1696"/>
  <linearGradient id="linearGradient1707" x1="61.319" x2="43.187" y1="69.988" y2="113.94" gradientTransform="scale(1.4442 .69242)" gradientUnits="userSpaceOnUse" xlink:href="#linearGradient1696"/>
  <linearGradient id="linearGradient1711" x1="91.207" x2="76.282" y1="122.64" y2="169.13" gradientTransform="scale(1.3834 .72287)" gradientUnits="userSpaceOnUse" xlink:href="#linearGradient1696"/>
  <linearGradient id="linearGradient1722" x1="107.47" x2="80.994" y1="172.94" y2="152.92" gradientTransform="scale(1.3062 .76557)" gradientUnits="userSpaceOnUse" xlink:href="#linearGradient1696"/>
  <linearGradient id="linearGradient1726" x1="56.598" x2="75.084" y1="146.75" y2="133.36" gradientTransform="scale(1.1065 .90379)" gradientUnits="userSpaceOnUse" xlink:href="#linearGradient1696"/>
  <linearGradient id="linearGradient1730" x1="106.07" x2="103.56" y1="68.347" y2="66.289" gradientTransform="scale(1.0339 .96723)" gradientUnits="userSpaceOnUse">
   <stop id="stop1728" stop-color="#00c042" offset="0"/>
   <stop id="stop1729" stop-color="#6cff49" offset="1"/>
  </linearGradient>
  <linearGradient id="linearGradient1734" x1="69.759" x2="49.088" y1="149.86" y2="125.84" gradientTransform="scale(1.3606 .735)" gradientUnits="userSpaceOnUse" xlink:href="#linearGradient1731"/>
  <linearGradient id="linearGradient1738" x1="38.475" x2="50.981" y1="76.878" y2="97.394" gradientTransform="scale(1.4916 .67041)" gradientUnits="userSpaceOnUse" xlink:href="#linearGradient1731"/>
  <linearGradient id="linearGradient1742" x1="68.967" x2="48.944" y1="61.385" y2="32.755" gradientTransform="scale(1.0223 .97818)" gradientUnits="userSpaceOnUse">
   <stop id="stop1740" stop-color="#d0f0f0" offset="0"/>
   <stop id="stop1741" stop-color="#faffff" offset="1"/>
  </linearGradient>
 </defs>
 <metadata id="metadata4">
  <rdf:RDF>
   <cc:Work rdf:about="">
    <dc:format>image/svg+xml</dc:format>
    <dc:type rdf:resource="http://purl.org/dc/dcmitype/StillImage"/>
   </cc:Work>
  </rdf:RDF>
 </metadata>
 <g id="layer1" transform="translate(-14.525 -8.3374)">
  <path id="path1063" d="m19.081 63.143s3.9751 1.9876 5.5652 3.7764c1.5901 1.7888 16.099 14.112 17.491 15.901s3.5776 6.559 4.3726 8.9441c0.79503 2.3851 2.3851 7.9503 2.5838 10.534 0.19876 2.5838 1.5901 6.7577 1.9876 8.944 0.39751 2.1863 2.9814 6.559 2.1863 6.3602-0.79503-0.19876-18.286-4.1739-19.876-4.9689-1.5901-0.79503-16.298-7.5528-16.894-8.944-0.59627-1.3913-1.3913-12.124-1.1925-13.913 0.19876-1.7888 0.39751-17.689 0.79503-19.279 0.39751-1.5901 0.39751-5.7639 1.1925-6.559s0.99378-2.5838 1.7888-0.79503z" fill="url(#linearGradient1699)" fill-rule="evenodd"/>
  <path id="path1686" d="m43.329 83.368s16.696-9.2933 18.882-10.088c2.1863-0.79503 22.857-9.7391 24.248-9.9378s23.056-6.7577 24.447-5.7639c1.3913 0.99378 6.1615 13.317 6.9565 16.894 0.79502 3.5776 4.1739 12.522 2.9814 14.112-1.1925 1.5901-57.242 25.838-59.031 26.435-0.52393 0.17464-6.4866 1.7606-8.8276 2.2204-0.79503-1.7888-2.5015-7.9844-2.899-9.3757-0.39751-1.3913-2.3851-10.733-2.9814-12.323-0.59627-1.5901-4.7702-11.179-3.7764-12.172z" fill="url(#linearGradient1703)" fill-rule="evenodd"/>
  <path id="path1687" d="m18.27 63.004c4.3568-3.9352 9.9785-8.292 15.038-9.838 2.3892-0.70271 51.86-13.352 53.265-13.352 6.746 0.42163 23.189 14.757 24.033 17.146-4.6379 1.827-17.849 3.6541-20.66 4.7784-1.2649 1.1243-17.849 6.3244-19.816 7.5893s-17.006 8.292-17.708 8.9947c-1.827 0.9838-6.746 3.5136-9.2758 5.7622-2.6703-2.9514-22.908-20.66-24.876-21.081z" fill="url(#linearGradient1707)" fill-rule="evenodd"/>
  <path id="path1688" d="m59.028 112.19c-1.1243-0.28108-3.6541 2.1081-3.9352 0.84326-0.28108-1.2649-2.6703-8.292-1.9676-9.4163 0.70271-1.1243 4.0757-2.9514 6.6055-3.6541 2.5298-0.70271 25.298-9.2758 25.719-9.9785 0.42163-0.70271 20.519-9.6974 22.065-9.838 1.546-0.14054 8.4325-2.3892 8.8542-1.1243 0.42163 1.2649 0.56217 7.4487 0.9838 8.4325 0.42162 0.9838-57.06 24.595-58.325 24.735z" fill="url(#linearGradient1734)" fill-rule="evenodd"/>
  <path id="path1689" d="m92.196 45.296s3.7946 3.6541 2.8108 4.3568c0 1.1243-10.541 3.373-11.806 3.7946-1.2649 0.42163-18.13 6.6055-19.816 7.3082-1.6865 0.70271-12.508 6.6055-13.914 7.0271-1.4054 0.42163-11.806 5.9028-12.508 5.9028s-5.3406-4.2163-5.0595-5.3406c0.28108-1.1243 1.827-2.5298 3.0919-2.9514 1.2649-0.42163 52.703-19.676 53.406-19.535s2.8108-0.84325 3.7946-0.56217z" fill="url(#linearGradient1738)" fill-rule="evenodd"/>
  <path id="path1690" d="m105.27 64.129s0.98379 2.8108 2.1081 2.3892c1.1243-0.42163 3.2325-1.546 2.5298-3.0919-0.70271-1.546-3.6541-2.2487-4.6379 0.70271z" fill="url(#linearGradient1730)" fill-rule="evenodd"/>
  <path id="path1691" d="m73.785 9.0362s-21.081 4.3568-22.908 4.3568-17.708 3.2325-19.535 4.2163c-1.827 0.9838-10.4 3.6541-10.26 4.3568s6.746 16.303 7.1677 17.849c0.42163 1.546 6.0433 14.054 6.0433 16.162 0 2.1081 2.2487 16.443 2.2487 17.006s8.1514-2.6703 9.2758-3.373c1.1243-0.70271 15.881-8.292 17.427-8.8542s12.649-4.919 13.914-5.2001c1.2649-0.28108 9.2758-3.6541 10.822-3.6541-0.14054-0.9838-0.84325-2.3892-0.84325-5.6217-0.84325 0.84325-9.9785-28.108-10.541-29.233-0.56217-1.1243-2.8108-8.0109-2.8108-8.0109z" fill="url(#linearGradient1742)" fill-rule="evenodd"/>
  <path id="path1692" d="m58.325 106.85s12.789 7.3082 13.633 8.5731 20.238 13.492 20.519 14.757c0.28108 1.2649 1.1243 4.919 0.14054 5.3406-0.9838 0.42163-13.633-5.2001-14.757-6.8866-1.1243-1.6865-10.962-10.681-12.227-11.524-1.2649-0.84325-6.8866-4.6379-7.3082-5.6217-0.42163-0.98379-0.56217-4.3568 0-4.6379z" fill="url(#linearGradient1726)" fill-rule="evenodd"/>
  <path id="path1694" d="m58.184 106.43s28.249-11.665 29.373-11.806c1.1243-0.14054 23.611-10.26 24.595-10.26 0.98379 0 7.7298 4.6379 8.5731 5.2001 0.84325 0.56217 24.876 12.368 25.017 13.352 0.14055 0.98379-1.6865 1.6865-3.373 2.6703-1.872 1.3547-8.7136 5.6217-15.038 8.9947-2.5298 0.42163-27.125 11.806-28.671 12.649-1.546 0.84325-4.7784 3.373-5.9028 2.8108-1.1243-0.56217-16.303-11.384-17.568-12.227-1.2649-0.84325-15.741-12.087-17.006-11.384z" fill="url(#linearGradient1711)" fill-rule="evenodd"/>
  <path id="path1695" d="m145.85 103.73s-3.7089 2.1326-5.0071 2.9672c-1.2981 0.83451-8.9942 5.6561-10.107 6.1197-1.1127 0.46362-14.372 6.4906-15.485 7.1397-1.1127 0.64906-21.419 9.2723-22.346 10.2-0.92723 0.92723 0.27817 5.0071-0.09272 5.1925-0.37089 0.18545 4.9143-2.3181 5.6561-2.8744 0.74179-0.55634 23.366-10.385 25.313-11.034s10.849-3.8944 11.127-3.9871c0.27817-0.0927 7.1397-2.9672 7.7888-3.5235s5.5634-3.8944 3.1526-10.2z" fill="url(#linearGradient1722)" fill-rule="evenodd"/>
  <path id="path1062" d="m74.15 8.3374c-2.9792 1.8424 1.8411 6.451 1.6359 9.2741 4.3485 10.93 8.3649 23.12 11.895 34.334 2.5032-0.65352-3.4707-5.9421 3.8193-6.2588-0.26372-0.62757-4.7852 0.82537-4.397-2.4104-3.335-6.3061 5.5746-0.23328 8.0115 1.0477 6.4134 4.1266 13.055 8.787 16.82 15.612 1.19 4.5684 4.0738 9.8555 5.4128 14.849 0.94252 3.7794 3.9452 11.485 2.2838 13.224-3.3687-0.90813-0.94122-4.0458-2.418-7.3903 0.94519-5.8711-5.3182 0.26765-8.927-1.1572-7.553 1.3219-14.013 5.6723-20.705 9.0798-8.8567 3.7823-17.701 7.5786-26.816 10.714-3.4168 1.9763-11.724 2.1892-8.1884 7.9557 0.32143 2.1383 2.5305 9.7802 2.946 4.457-1.1283-4.0963-4.2784-9.8408 2.5351-10.276 9.0816-3.3185 17.825-6.8647 26.638-10.853 5.7226-2.1374 8.6197-4.2609 13.456-6.319 5.2439-3.1743 10.784-3.4659 16.446-5.0271 2.183-0.25399 0.80701 5.0888 2.0678 7.0383-0.98458-2.1761-6.6245-2.6862-3.05-0.31214 10.483 6.223 21.253 11.962 31.97 17.773 3.4352-1.7415-4.5337-2.8366-5.563-4.3803-6.1092-3.2112-12.061-6.7079-18.126-10.001-0.97317-10.416-4.9003-20.285-8.8265-29.894-0.98461-3.417-4.8016-6.6046-7.6181-9.2035-4.4988-4.2254-11.096-7.6413-15.629-10.554-1.2463-0.98458-4.5116 0.09747-4.4606-1.0414-2.5689-6.9846-5.188-13.951-7.8688-20.893-0.35203-2.8624-2.7219-7.3749-3.3433-9.3869zm-0.06076 0.24682c-5.6405 1.4077-13.983 2.5064-19.722 3.8303-10.659 1.6428-21.67 3.4097-31.413 8.2503-4.7633 0.95716-1.3037 4.6265-0.12042 7.6926 4.6746 11.936 10.884 23.644 11.753 36.666-2.3435 1.6931-5.0561 5.8694-1.2034 2.1173 1.7898-4.5726 2.4229 6.424 0.12351 1.4247-5.1523-2.6449 1.887 5.2734 3.3064 5.3822 2.2376-1.6875 6.5755-2.5803 9.3695-4.2988 9.7885-5.5985 19.706-9.8179 30.311-13.559 5.9393-2.4495 11.983-4.1722 18.291-5.3574 3.18-1.5168-1.8687-7.131-3.7694-5.2745 2.3688 1.3008 6.2423 5.4064 0.2954 5.3539-9.7167 2.226-18.832 6.4246-28.203 9.7414-8.9151 3.4732-16.968 8.7774-25.806 12.398-0.74087-1.8047-1.0117-7.3679-1.3764-8.7287-1.0746-13.647-8.2166-25.554-12.977-38.142-4.7056-5.957 6.5171-6.2312 10.141-8.5567 9.8201-2.9102 20.042-4.2033 30.134-5.7933 2.8394-0.12772 10.96-1.7085 10.865-3.1466zm-41.307 44.382c-5.7916 1.4438-11.221 5.7316-15.326 9.8952-3.086 3.7834-1.9438 10.545-2.7851 15.434-0.31291 8.3606-0.171 16.769 0.88592 25.077 1.967 2.4783 8.3508 5.778 12.22 7.8787 8.142 3.7518 27.722 6.4437 25.023 7.1155 4.7951-1.8183 9.8267-5.2395 13.48 0.36322 5.1961 3.2435 8.3873 8.6888 13.464 12.031 3.5716 1.4282 9.1058 6.9881 12.931 5.0678-6.4611-2.4223-14.471-6.9551-18.856-12.656-4.9136-4.5636-11.104-9.1003-16.212-13.445 1.1845 2.5172-3.2987 2.3334-2.5658 3.0994-0.42547 1.7413 4.2029-0.92681 5.1185 1.0951 2.8856 1.9628-5.5941 2.2305-7.3053 3.5087-1.541-1.0988-5.7189-2.0174-9.0463-2.6365-9.5139-2.9513-19.006-5.6941-26.865-11.88-1.7457-12.119-1.732-24.571 0.24057-36.657 0.07272-6.6827 5.8558 1.2923 8.6852 2.518 6.1091 4.7987 11.987 9.9909 16.858 16.069 2.3827-2.4247 7.4167-5.069 11.326-7.0072 16.532-8.7818 36.393-17.062 54.938-19.897 2.5879 0.19514 4.1229-1.8936 1.1949-0.88597-4.5636 0.52221-8.8372 1.8065-13.45 2.7679-18.536 4.4931-37.02 13.631-53.268 23.536 0.59492 0.12903-4.9257-5.0161-6.7131-6.9213-5.3947-5.1533-11.286-9.7565-17.281-14.184 3.3233-3.7428 9.1194-6.3193 13.41-8.5021 1.0212-0.51234-0.36758-0.57278-0.09948-0.78386zm75.369 7.8719c-1.7314 0.56926-6.0054 5.1398-2.3942 3.7083 0.99616-5.2655 6.3162 0.26586 1.6759 1.5267-1.1038-3.5956-4.6717-0.79719-1.3275 0.88755 3.6688 1.0365 6.6617-5.034 2.0458-6.1225zm-64.535 22.413c-2.8368 2.435 3.2326 8.3126 2.8562 11.986 1.5083 5.8568 3.7209 11.877 3.7495 17.943 1.2554-0.73026 2.1902 7.6007 3.47 3.8956-0.94448-3.5742-3.611-8.1624-3.9629-12.732-1.1022-6.8968-2.9391-14.835-6.1127-21.093zm68.557 0.41389c-16.393 7.1942-33.453 14.144-50.282 20.267-1.7963 1.1069-5.4656 1.6415-5.0512 4.1869 0.02907 5.4839 2.1306 0.56686 1.9943-0.22994 9.6071 5.6747 18.724 12.11 27.648 18.797 3.5558 0.64699 5.9153 6.2563 5.9071 9.2368 2.712-1.5313-0.75656-6.7476 3.7043-6.6997 10.298-4.6441 20.556-9.8118 30.863-14.42 6.3737-3.3088 12.782-6.719 18.465-11.069-4.9648 2.423-9.0739 6.4127-14.286 8.54-9.4836 4.8986-19.55 8.5751-29.192 13.158-3.4321 0.60124-7.4644 5.0995-10.047 3.0242-3.2061-3.0088-6.4645-3.6773-9.7908-6.5846-7.4249-5.645-15.327-10.595-23.164-15.633 12.227-4.07 24.025-9.3719 35.97-14.199 5.2921-2.4814 12.825-4.3757 17.968-7.0769 1.5218 0.17021-0.8727-1.1659-0.70654-1.2969zm34.251 18.955c-3.3914 1.2082 0.32212 7.3914-2.0072 9.3999-6.91 5.5403-16.044 7.0878-24.143 10.276-9.5964 3.5879-19.27 7.6781-27.82 13.341 4.1817-2.0986 8.5396-4.0729 12.845-6.0078 9.5548-4.9472 19.826-8.2034 29.813-12.063 4.2346-2.6866 11.58-3.4355 11.507-9.1097 0.21437-1.7874-0.1696-4.032-0.19411-5.8355z"/>
 </g>
</svg>
