<?xml version="1.0" encoding="UTF-8"?>
<!-- Created with Inkscape (http://www.inkscape.org/) -->
<svg id="svg548" width="446.92" height="314.73" version="1.1" xmlns="http://www.w3.org/2000/svg" xmlns:cc="http://creativecommons.org/ns#" xmlns:dc="http://purl.org/dc/elements/1.1/" xmlns:rdf="http://www.w3.org/1999/02/22-rdf-syntax-ns#" xmlns:xlink="http://www.w3.org/1999/xlink">
 <defs id="defs550">
  <linearGradient id="linearGradient1167" x1="190.06" x2="33.313" y1="287.5" y2="99.813" gradientTransform="scale(1.2626 .792)" gradientUnits="userSpaceOnUse" spreadMethod="reflect">
   <stop id="stop1165" stop-color="#263d42" offset="0"/>
   <stop id="stop1166" stop-color="#9acde7" offset="1"/>
  </linearGradient>
 </defs>
 <g id="g1020" transform="translate(-40.981 -90.717)">
  <g id="g1178" fill-rule="evenodd" stroke="#000" stroke-linejoin="bevel" stroke-width="3.75">
   <g id="g1171" fill="#383838">
    <path id="path1156" transform="translate(-6.818 55.518)" d="m79.869 270.13h352.59l60.389 60.389-443.17 2.922 30.194-63.311z"/>
    <path id="path1157" d="m42.856 387.99v15.584l442.2-2.922v-14.61l-442.2 1.948z"/>
    <path id="path1161" d="m73.05 325.65c-4.5804-2.238-1.079-5.305-0.974-5.844 1.948 0 353.56-0.974 353.56-0.974 0.395 0.27 3.606 2.363 0 5.844-6.818 0.974-352.59 2.922-352.59 0.974z"/>
   </g>
   <g id="g1168">
    <path id="path1162" d="m71.102 318.84-1.948-207.46s7.7921-17.532 18.506-18.506c10.714-0.974 331.16 0.974 331.16 0.974s5.844 1.948 6.818 8.7659c0.974 6.818-0.974 215.26-0.974 215.26l-353.56 0.974z" fill="#383838"/>
    <path id="path1163" d="m87.661 114.29s3.8961-7.792 10.714-7.792h301.94s8.766 5.844 8.766 11.688v181.17s0.974 6.818-9.74 7.792-302.92-1.948-302.92-1.948-8.7661-0.974-9.7401-5.844c2.922-8.766 0-178.24 0.974-185.06z" fill="url(#linearGradient1167)"/>
   </g>
  </g>
  <g id="g1175" fill-rule="evenodd" stroke="#000" stroke-linejoin="bevel" stroke-width="3.75">
   <path id="path1158" d="m75.972 330.52 346.75 0.974 42.856 42.856-408.11-1.948 18.506-41.882z" fill="#595959"/>
   <path id="path1159" d="m56.492 372.4v7.792h408.11v-5.844l-408.11-1.948z" fill="#4c4c4d"/>
  </g>
  <g id="g1206" fill="none" stroke="#000" stroke-width="1pt">
   <path id="path1203" d="m76.25 338.12c1.25 0 350 2.5 350 2.5"/>
   <path id="path1204" d="m72.5 350h363.75"/>
   <path id="path1205" d="m66.875 360 381.25 1.875-1.25 0.625"/>
  </g>
  <g id="g1210" fill="none" stroke="#000" stroke-width="1pt">
   <path id="path1198" d="m111.25 333.75-13.125 36.875"/>
   <path id="path1199" d="m170 334.38s-8.75 35-8.75 35.625"/>
   <path id="path1200" d="m377.5 333.75 22.5 37.5"/>
   <path id="path1201" d="m316.25 332.5 5.625 36.875"/>
   <path id="path1202" d="m246.88 334.38 1.875 36.25"/>
  </g>
  <path id="path579" d="m93.354 261.08c0-1.582-3.1645-132.91 6.3291-143.99 14.24-4.747 221.52-1.583 221.52-1.583s-226.27 3.165-227.85 145.57z" fill="#fff" fill-opacity=".5" fill-rule="evenodd"/>
  <path id="path580" d="m170.89 367.09s264.24 11.076 264.24-1.583c0-12.658-15.823-31.645-15.823-31.645s18.987 31.645-248.42 33.228z" fill="#fff" fill-opacity=".31111" fill-rule="evenodd"/>
 </g>
 <metadata id="metadata35">
  <rdf:RDF>
   <cc:Work rdf:about="">
    <dc:title>Clipart by Nicu Buculei - antenna</dc:title>
    <dc:rights>
     <cc:Agent>
      <dc:title>Nicu Buculei</dc:title>
     </cc:Agent>
    </dc:rights>
    <dc:type rdf:resource="http://purl.org/dc/dcmitype/StillImage"/>
    <cc:license rdf:resource="http://web.resource.org/cc/PublicDomain"/>
    <dc:format>image/svg+xml</dc:format>
   </cc:Work>
   <cc:License rdf:about="http://web.resource.org/cc/PublicDomain">
    <cc:permits rdf:resource="http://web.resource.org/cc/Reproduction"/>
    <cc:permits rdf:resource="http://web.resource.org/cc/Distribution"/>
    <cc:permits rdf:resource="http://web.resource.org/cc/DerivativeWorks"/>
   </cc:License>
  </rdf:RDF>
 </metadata>
</svg>
