<?xml version="1.0" encoding="UTF-8"?>
<!-- Created with Inkscape (http://www.inkscape.org/) -->
<svg id="svg548" width="385" height="403.75" version="1.1" xmlns="http://www.w3.org/2000/svg" xmlns:cc="http://creativecommons.org/ns#" xmlns:dc="http://purl.org/dc/elements/1.1/" xmlns:rdf="http://www.w3.org/1999/02/22-rdf-syntax-ns#">
 <g id="g1066" transform="translate(-55.625,-40.625)">
  <path id="path762" transform="translate(8.75,21.25)" d="m53.75 166.25 208.75 52.5c55.833-55.833 107.92-81.667 167.5-111.25l-216.25-52.5c-57.083 24.583-110.42 64.167-160 111.25z" fill="#e6e6e6" fill-rule="evenodd" stroke="#000" stroke-linejoin="bevel" stroke-width="3.75"/>
  <path id="path763" transform="translate(8.75,21.25)" d="m51.25 166.25-2.5 191.25 208.75 61.25s5-201.25 3.75-201.25-212.5-50-210-51.25z" fill="#e6e6e6" fill-rule="evenodd" stroke="#000" stroke-width="3.75"/>
  <path id="path764" transform="translate(8.75,21.25)" d="m260 220c17.5-26.25 156.25-113.75 168.75-111.25l-6.25 192.5-165 120 2.5-201.25z" fill="#ccc" fill-rule="evenodd" stroke="#000" stroke-linejoin="bevel" stroke-width="3.75"/>
  <path id="path766" transform="translate(8.75,21.25)" d="m101.25 153.75c39.167-13.333 97.083-37.917 113.75-55l123.75 35c-33.75 18.75-67.5 35-87.5 63.75-13.75-5-141.25-38.75-150-43.75z" fill="none" stroke="#000" stroke-width="3.75"/>
  <path id="path767" transform="translate(8.75,21.25)" d="m213.75 98.75 60-77.5 100 25-35 87.5-125-35z" fill="#fff" fill-rule="evenodd" stroke="#000" stroke-width="3.75"/>
  <path id="path768" transform="translate(8.75,21.25)" d="m56.25 316.25 196.25 61.25-1.25 35-195-58.75c-2.5-1.25 0-32.5 0-37.5z" fill="none" stroke="#000" stroke-width="3.75"/>
  <path id="path769" transform="translate(8.75,21.25)" d="m56.25 308.75c3.75 1.25 195 62.5 195 60s1.25-36.25 1.25-37.5l-195-58.75-1.25 36.25z" fill="none" stroke="#000" stroke-width="3.75"/>
  <path id="path789" d="m66.944 371.5 5.3863-10.003 1.5389 11.542v0.77" fill="none" stroke="#000" stroke-width="1pt"/>
  <path id="path790" d="m69.666 366.35c1.5391 0.769 2.9001 0.946 2.9001 0.946" fill="none" stroke="#000" stroke-width="1pt"/>
  <path id="path791" d="m79.729 361.97-3.6695 6.451 3.6695 0.475-0.0589 5.681" fill="none" stroke="#000" stroke-width="1pt"/>
  <path id="path792" d="m70.139 318.11-0.8874 8.759 3.0779 1.065" fill="none" stroke="#000" stroke-width="1pt"/>
  <path id="path793" d="m74.638 319.94s-0.7694 7.695-0.7694 8.464c0 0.77 4.6168 1.599 4.6168 1.599" fill="none" stroke="#000" stroke-width="1pt"/>
  <path id="path794" d="m74.638 320.72 5.2867 1.737" fill="none" stroke="#000" stroke-width="1pt"/>
  <path id="path795" d="m73.869 324.86 4.9517 1.539" fill="none" stroke="#000" stroke-width="1pt"/>
  <path id="path796" d="m81.228 323.02 4.655 1.086" fill="none" stroke="#000" stroke-width="1pt"/>
  <path id="path797" d="m83.261 323.81-0.199 7.556" fill="none" stroke="#000" stroke-width="1pt"/>
  <path id="path567" d="m275.32 425.63c6.33-1.582 143.99-93.355 147.15-107.6 3.165-14.241 7.912-177.22 6.329-177.22-1.582 0 20.57 196.2-153.48 284.81z" fill-opacity=".25" fill-rule="evenodd"/>
  <path id="path568" d="m68.038 278.48c3.1645-7.911-1.5823-68.038 1.5823-71.203 3.1645-3.164 158.23 33.228 158.23 33.228s-147.15-41.139-159.81 37.975z" fill="#fff" fill-opacity=".8" fill-rule="evenodd"/>
  <path id="path569" d="m223.1 126.58c1.583 0 117.09 26.899 104.43 31.646-12.659 4.747-63.291 39.557-63.291 39.557s98.101-47.469-41.14-71.203z" fill-opacity=".24706" fill-rule="evenodd"/>
 </g>
 <metadata id="metadata27">
  <rdf:RDF>
   <cc:Work rdf:about="">
    <dc:title>Clipart by Nicu Buculei - antenna</dc:title>
    <dc:rights>
     <cc:Agent>
      <dc:title>Nicu Buculei</dc:title>
     </cc:Agent>
    </dc:rights>
    <dc:type rdf:resource="http://purl.org/dc/dcmitype/StillImage"/>
    <cc:license rdf:resource="http://web.resource.org/cc/PublicDomain"/>
    <dc:format>image/svg+xml</dc:format>
   </cc:Work>
   <cc:License rdf:about="http://web.resource.org/cc/PublicDomain">
    <cc:permits rdf:resource="http://web.resource.org/cc/Reproduction"/>
    <cc:permits rdf:resource="http://web.resource.org/cc/Distribution"/>
    <cc:permits rdf:resource="http://web.resource.org/cc/DerivativeWorks"/>
   </cc:License>
  </rdf:RDF>
 </metadata>
</svg>
