<?xml version="1.0" encoding="UTF-8"?>
<!-- Created with Inkscape (http://www.inkscape.org/) -->
<svg id="svg2" width="128" height="128" version="1.0" xmlns="http://www.w3.org/2000/svg" xmlns:cc="http://creativecommons.org/ns#" xmlns:dc="http://purl.org/dc/elements/1.1/" xmlns:rdf="http://www.w3.org/1999/02/22-rdf-syntax-ns#" xmlns:xlink="http://www.w3.org/1999/xlink">
 <defs id="defs4">
  <linearGradient id="linearGradient2320">
   <stop id="stop2322" stop-color="#6a3c1d" offset="0"/>
   <stop id="stop2324" stop-color="#8f5127" offset="1"/>
  </linearGradient>
  <linearGradient id="linearGradient2368" x1="42.31" x2="65.73" y1="72.567" y2="58.989" gradientUnits="userSpaceOnUse" xlink:href="#linearGradient2320"/>
  <linearGradient id="linearGradient2375" x1="27.344" x2="34.337" y1="70.031" y2="70.031" gradientUnits="userSpaceOnUse" xlink:href="#linearGradient2320"/>
  <linearGradient id="linearGradient2383" x1="47.438" x2="55.5" y1="84.375" y2="84.375" gradientUnits="userSpaceOnUse" xlink:href="#linearGradient2320"/>
  <linearGradient id="linearGradient2391" x1="75.438" x2="83.625" y1="107.19" y2="107.19" gradientUnits="userSpaceOnUse" xlink:href="#linearGradient2320"/>
  <linearGradient id="linearGradient2393" x1="107.19" x2="115.44" y1="95.281" y2="95.281" gradientUnits="userSpaceOnUse" xlink:href="#linearGradient2320"/>
  <linearGradient id="linearGradient2399" x1="77.188" x2="84.5" y1="63.812" y2="63.812" gradientUnits="userSpaceOnUse" xlink:href="#linearGradient2320"/>
  <linearGradient id="linearGradient2401" x1="56.188" x2="63.5" y1="50.188" y2="50.188" gradientUnits="userSpaceOnUse" xlink:href="#linearGradient2320"/>
  <linearGradient id="linearGradient3185" x1="56.562" x2="61.875" y1="25.438" y2="22.125" gradientUnits="userSpaceOnUse" xlink:href="#linearGradient2320"/>
  <linearGradient id="linearGradient3189" x1="57.75" x2="76.952" y1="17.656" y2="13.344" gradientUnits="userSpaceOnUse" xlink:href="#linearGradient2320"/>
  <linearGradient id="linearGradient3193" x1="66.75" x2="83.125" y1="29.844" y2="17.531" gradientUnits="userSpaceOnUse" xlink:href="#linearGradient2320"/>
  <linearGradient id="linearGradient3205" x1="46.562" x2="73.688" y1="30.375" y2="26.875" gradientUnits="userSpaceOnUse" xlink:href="#linearGradient2320"/>
  <linearGradient id="linearGradient3209" x1="46.438" x2="54.125" y1="36.562" y2="35.312" gradientUnits="userSpaceOnUse" xlink:href="#linearGradient2320"/>
  <linearGradient id="linearGradient3215" x1="56.938" x2="73.875" y1="41.094" y2="29.094" gradientUnits="userSpaceOnUse" xlink:href="#linearGradient2320"/>
  <linearGradient id="linearGradient3219" x1="75.938" x2="93.5" y1="35.062" y2="21.438" gradientUnits="userSpaceOnUse" xlink:href="#linearGradient2320"/>
  <linearGradient id="linearGradient3225" x1="76.125" x2="86.25" y1="24.156" y2="14.125" gradientUnits="userSpaceOnUse" xlink:href="#linearGradient2320"/>
  <filter id="filter3277">
   <feGaussianBlur id="feGaussianBlur3279" stdDeviation="2.380578"/>
  </filter>
  <filter id="filter3319" x="-.07925" y="-.12454" width="1.1585" height="1.2491">
   <feGaussianBlur id="feGaussianBlur3321" stdDeviation="0.93295931"/>
  </filter>
 </defs>
 <metadata id="metadata7">
  <rdf:RDF>
   <cc:Work rdf:about="">
    <dc:format>image/svg+xml</dc:format>
    <dc:type rdf:resource="http://purl.org/dc/dcmitype/StillImage"/>
   </cc:Work>
  </rdf:RDF>
 </metadata>
 <g id="layer3" fill-rule="evenodd">
  <path id="path3281" d="m54.428 43.239-11.253-6.2378 5.3817-2.9354-4.7701-4.0362 13.087-4.7701 14.555 9.6625-17.001 8.3171z" fill-opacity=".57727" filter="url(#filter3319)"/>
  <path id="path3013" d="m7.24 52.712 10.968 8.9967 3.7123 4.2426 6.0104 16.617 19.799 16.263 27.754 22.627 35.532-16.263-29.209-24.609-42.083-40.646-32.483 12.772z" fill-opacity=".41818" filter="url(#filter3277)"/>
  <path id="path2366" d="m43.298 39.447-32.901 13.332 0.24462 2.2016 5.6263 3.3024 3.7916 4.8924h1.2231l4.8924 3.4247 0.12231 0.73386 5.2593 3.547-0.24462 1.4677 6.9156 4.0188 0.95135 0.086486 5.1892 5.1027 0.6054-0.17297 7.0054 4.4973 0.17297 0.86486 5.7081 4.7568 0.86486-0.17297 7.0054 6.4 0.69189 0.086486 6.8324 5.1027 0.6054 1.1243 7.0919 5.6216 39.005-16.519-0.25946-2.5946-12.627-8.7351-2.3351-2.4216-1.5568 0.086486-7.9568-5.1027 0.34595-0.51892-7.5243-4.7568 0.43243-0.34595-0.25946-0.60541-3.8919-1.8162-9.0811-7.6108-0.95135 0.17297-6.8324-4.9297-1.9892 0.95135-2.1622-1.5568-7.9568-7.0054-1.3838-0.086487-5.7081-3.373 0.43243-0.77838-5.394-2.6716z" fill="url(#linearGradient2368)"/>
  <path id="path2370" d="m32.938 55.531-2.9375 0.15625-2.3125 1.0625-0.34375 8.4688 3.7188 1.625 2.25-0.78125 1.8125-1.1875 0.25-7.625-2.4375-1.7188zm-5.3438 12.875 0.09375 14.188 1.8125 1.2188c1.0835 0.61485 1.9196 0.8997 2.3125 0.59375 0.68021-0.13307 1.5962-0.089287 1.6562-0.6875l1.8125-1.0312-0.24493-8.298-3.547-2.2538-0.083027-1.292-3.8125-2.4375z" fill="url(#linearGradient2375)"/>
  <path id="path2378" d="m51.5 69.188-2.0625 0.75-1.6875 1.3125 0.0625 8.5 1.5625 0.875 2.125 0.4375 2.6875-0.6875 1.3125-1.3125-0.0625-7.6875-2.5625-1.9375-1.375-0.25zm-4.0625 13.625v14.812l0.75 0.625c0.91912 0.44117 1.4484 1.4022 2.8125 1.25l1.0625 0.0625 1.1875-0.5 2.0625-1.375-0.125-8.375-2.8125-2.1875-0.125-0.9375-0.4375-0.4375-4.375-2.9375z" fill="url(#linearGradient2383)"/>
  <path id="path2385" d="m79.188 90.688-2.0625 0.75-1.6875 1.3125 0.0625 8.5 1.5625 0.875 2.125 0.4375 2.6875-0.6875 1.75-1.25v-7.75l-3.0625-1.9375-1.375-0.25zm-3.25 14.938-0.3125 16.125 0.75 0.625c0.91912 0.44117 1.4484 1.4022 2.8125 1.25l1.0625 0.0625 1.1875-0.5 2.0625-1.375-0.1875-13.062-2.375 0.875-5-4z" fill="url(#linearGradient2391)"/>
  <path id="path2389" d="m110.88 79.938c-1.4912 0.29058-2.6943 0.93989-3.6875 1.5625v8l1.6875 1.25 2.125 0.4375 2.6875-0.6875 1.75-1.25v-7.75l-2.5625-1.3125-2-0.25zm-3.6875 18.625 0.125 10.125 0.75 0.625c0.91912 0.44117 1.4484 1.4022 2.8125 1.25l1.0625 0.0625 1.1875-0.5 2.0625-1.375-0.1875-13.375-7.8125 3.1875z" fill="url(#linearGradient2393)"/>
  <path id="path2395" d="m56.312 54.188-0.125-7.9375 1.25-0.6875 1.625-0.6875 2 0.0625 2.4375 1.4375-0.0625 7.3125-1.375 1.25-2 0.5625-2.3125-0.4375-1.4375-0.875z" fill="url(#linearGradient2401)"/>
  <path id="path2397" d="m77.312 67.625-0.125-7.9375 1.25-0.6875 1.625-0.6875 2 0.0625 2.4375 1.4375-0.0625 7.3125-1.1875 1.5-2.3125 0.6875-2.1875-0.8125-1.4375-0.875z" fill="url(#linearGradient2399)"/>
  <path id="path2998" d="m10.165 52.782 6.6291 3.182 3.6239 4.9497 6.1872 3.182-0.35355 1.2374 5.922 4.2426-0.53033 0.88388 6.4523 4.5078 1.149-0.26516 5.8336 4.331 0.70711-0.17678 6.8943 4.6846v0.97227l5.2149 4.4194h1.0607l7.1595 6.2756 0.53033-0.17678 6.8059 5.6569 7.6898 5.3033-0.088388 3.6239-7.2478-5.5685-0.17678-0.97227-7.0711-5.2149-0.61872 0.088389-7.2478-6.5407-0.88388 0.17678-5.4801-4.4194-0.26516-1.2374-6.8943-4.5078-0.7955 0.088388-5.3033-5.1265-0.97227-0.17678-6.7175-4.0659-0.088388-1.3258-5.0381-3.7123-0.35355-0.7955-4.773-3.0936-1.3258-0.26516-3.2704-4.6846-6.0104-3.0936-0.35355-2.3865z" fill-opacity=".15686"/>
  <path id="path3000" d="m60.25 45.031c-1.5804-0.10805-2.9252 0.62431-4.125 1.375 4.4884 4.6175 7.5015 0.39023 7.25-0.0625-1.1468-0.86306-2.1768-1.2477-3.125-1.3125zm-28.781 10.656c-1.2229 0.038113-2.4495 0.45659-3.7188 0.96875 3.9483 5.4276 7.689 0.92148 7.4375 0.46875-1.2639-1.1066-2.4959-1.4756-3.7188-1.4375zm49.219 2.8125c-1.2229 0.038113-2.4183 0.48784-3.6875 1 3.2766 6.0993 7.6578 0.89023 7.4062 0.4375-1.2639-1.1066-2.4959-1.4756-3.7188-1.4375zm-29.406 10.781c-1.241-0.005017-2.3766 0.65156-3.375 1.7188 4.8795 5.8837 6.3541 0.12744 7.4375 0.4375-1.4621-1.4891-2.8215-2.1512-4.0625-2.1562zm59.844 10.938c-1.4218 0.06021-2.8192 0.59768-4 1.375 3.919 5.3885 7.7778-0.25187 8.125 0.09375-1.2639-1.1066-2.7032-1.529-4.125-1.4688zm-31.791 10.62c-1.474 0.094495-2.548 0.96701-3.9277 1.8804 5.4448 5.3593 6.5645-0.26715 7.7812-0.15625-1.1701-1.4171-2.7071-1.7976-3.8536-1.7241z" fill="#fff" fill-opacity=".12549"/>
  <path id="path3183" d="m55.875 17.625 8.8125 5.625-0.25 8.75-8.8125-6.375 0.25-8z" fill="url(#linearGradient3185)"/>
  <path id="path3187" d="m55.75 17.5 9 5.75s20.125-7.25 19.5-7.4375-9.625-5.625-9.625-5.625l-18.875 7.3125z" fill="url(#linearGradient3189)"/>
  <path id="path3191" d="m64.438 31.812 0.1875-8.8125 19.688-7.25v8.25l-5.6875 2.1875-6.6875 2.5625-7.5 3.0625z" fill="url(#linearGradient3193)"/>
  <path id="path3201" d="m55.875 17.625 8.8125 5.625-0.25 8.75-8.8125-6.375 0.25-8z" fill-opacity=".15686"/>
  <path id="path3203" d="m56 25.75-9.4375 3.6875 8.6875 5.5625 8.9375-3.375-8.1875-5.875z" fill="url(#linearGradient3205)"/>
  <path id="path3207" d="m46.438 29.438 0.0625 8.1875 8.6875 6.0625 0.25-8.8125-9-5.4375z" fill="url(#linearGradient3209)"/>
  <path id="path3211" d="m46.688 29.562 8.8125 5.625-0.25 8.75-8.8125-6.375 0.25-8z" fill-opacity=".15686"/>
  <path id="path3213" d="m55.312 34.938 8.75-3.3125 0.3125 0.25 10.688-4.3125-0.0625 8.3125-19.688 8v-8.9375z" fill="url(#linearGradient3215)"/>
  <path id="path3217" d="m75 35.125 0.125-7.625 8.875-3.375s-0.125-0.4375 0.125-0.4375 11.625-4.1875 11.625-4.1875l0.0625 8.1875-19.688 7.9375-1.125-0.5z" fill="url(#linearGradient3219)"/>
  <path id="path3221" d="m76.062 27.25-1.125 0.375 0.125 7.5 0.75 0.4375 0.25-8.3125z" fill-opacity=".15686"/>
  <path id="path3223" d="m84.25 23.688 11.438-4.3125-9.5625-5.25-3 0.9375 1.1875 0.875-0.0625 7.75z" fill="url(#linearGradient3225)"/>
  <path id="path3227" d="m56.312 35.312 0.0625 3.75-0.375 0.375-0.0625 0.75 1.3125 1.9375-0.375 0.4375 2.25-0.8125v-0.9375l12.125-7.8125 0.1875 3.4375 1.4236-0.55936 0.70136-0.31564v-3.9375l0.75-0.5-1.5518-1.8674-1.8232 0.61742 0.0625 0.4375-12 7.25 0.11742-3.2942-2.8049 1.0442z" fill="#fff" fill-opacity=".12549"/>
  <path id="path3229" d="m65.567 23.349 0.0625 3.75-0.375 0.375-0.0625 0.75 1.3125 1.9375-0.375 0.4375 2.25-0.8125v-0.9375l12.125-7.8125 0.1875 3.4375 1.4236-0.55936 0.70136-0.31564v-3.9375l0.75-0.5-1.5518-1.8674-1.8232 0.61742 0.0625 0.4375-12 7.25 0.11742-3.2942-2.8049 1.0442z" fill="#fff" fill-opacity=".12549"/>
  <path id="path3231" d="m77.099 27.193 0.0625 3.75-0.375 0.375-0.0625 0.75 1.3125 1.9375-0.375 0.4375 2.25-0.8125v-0.9375l12.125-7.8125 0.1875 3.4375 1.4236-0.55936 0.70136-0.31564v-3.9375l0.75-0.5-1.5518-1.8674-1.8232 0.61742 0.0625 0.4375-12 7.25 0.11742-3.2942-2.8049 1.0442z" fill="#fff" fill-opacity=".12549"/>
 </g>
 <g id="layer1">
  <path id="path2308" d="m74.656 10.156-19.125 7.3438 0.125 8.1875 0.15625 0.09375-9.5312 3.6562 0.125 8.1875 8.75 6.4062 20.031-8.125v-0.53125l0.71875 0.53125 20.031-8.125 0.0625-8.25-9.8438-5.5625-2.8438 1.0938-8.6562-4.9062zm-0.09375 0.3125 1.2188 0.71875-17.875 7.4062-1.5312-0.96875 18.188-7.1562zm1.2812 0.75 1.6562 0.96875-17.844 7.5625-1.5625-1.0312 17.75-7.5zm1.75 1 1.8438 1.0938-17.844 7.6562-1.75-1.125 17.75-7.625zm1.9688 1.1562 2 1.1562-18.469 7.4062-1.375-0.875 17.844-7.6875zm6.5 0.90625 1.2188 0.71875-2.7812 1.1562v-0.4375-0.03125h-0.0625l-0.78125-0.4375 2.4062-0.96875zm-4.3438 0.34375 1.8438 1.0938-19 7.1562-1.375-0.875 18.531-7.375zm5.625 0.40625 1.6562 0.96875-4.5312 1.9375 0.03125-1.6875 2.8438-1.2188zm-3.3438 0.96875v1.9688l-0.90625 0.34375-0.6875-0.96875-0.0625-0.09375-0.09375-0.03125-0.1875-0.125-0.0625 0.0625-0.09375 0.03125-1.9062 0.65625 0.125 0.4375-4.9375 3-6.7188 2.5938 0.03125-1.7188-2.9688 1.1562v1.6875l-0.6875 0.25 0.03125-2 19.125-7.25zm5.0938 0.03125 1.8438 1.0938-6.4688 2.7812v-1.875l4.625-2zm1.9688 1.1562 2 1.1562-8.5938 3.4375v-1.75l6.5938-2.8438zm-9.4688 0.34375h0.46875l-16.25 10.094-0.25 0.09375 0.03125-0.25 16-9.9375zm-0.28125 0.03125-1.125 0.65625 0.125-0.28125 1-0.375zm1 0.09375 0.84375 1.5-16.688 10.719-1.0312-1.5625 0.0625-0.0625 16.812-10.594zm-26.281 0.1875 1.6875 1.0938 0.03125 0.59375-1.3125-0.96875 0.03125 1.5938-0.46875-0.21875 0.03125-2.0938zm27.969 0.21875v2.4688l-1.0312 0.40625v-1.2812l0.75-0.5-0.5625-0.78125 0.84375-0.3125zm9.2188 0.375 1.8438 1.0938-10.625 4v-1.625l8.7812-3.4688zm-35.281 0.625 1.4062 0.9375v0.6875l-1.4375-1.0625 0.03125-0.5625zm-1.1562 0.21875 1.9688 1.375-1.9062 1-0.0625-2.375zm38.75 0.34375-0.03125 2.1562-0.90625 0.34375-0.6875-0.96875-0.0625-0.09375-0.09375-0.03125-0.1875-0.125-0.0625 0.0625-0.09375 0.03125-1.9062 0.65625 0.125 0.4375-4.9375 3-6.7188 2.5938 0.03125-1.7188-2.9688 1.1562v1.6875l-0.6875 0.25 0.03125-1.8125 7.7812-3.125 0.1875-0.28125 11.188-4.2188zm-12.938 0.25 0.1875 3.5312-1.7812 0.9375-0.03125-3.375v-0.03125l1.625-1.0625zm-26.594 0.21875 0.5 0.1875 0.03125 1.625-0.5625-0.28125 0.03125-1.5312zm3.5 0 1.875 1.2188 0.09375 0.90625-2.0625-1.5 0.09375-0.625zm24.5 0.53125v1.2188l-1.0312 0.375v-1.2188l1.0312-0.375zm-25.156 0.09375 2.1562 1.5312-4.0938 2.1875-0.0625-2.7188 2-1zm21.875 0.40625 0.1875 3.25-0.21875 0.125-0.0625-3.3125 0.09375-0.0625zm-0.3125 0.1875 0.03125 0.53125-2.0312 0.78125 2-1.3125zm12.688 0.03125h0.46875l-16.25 10.094-0.25 0.09375 0.03125-0.25 16-9.9375zm-0.28125 0.03125-1.125 0.65625 0.125-0.28125 1-0.375zm-31.281 0.03125 1.375 0.90625-0.03125 0.96875-1.3438-1v-0.875zm32.281 0.0625 0.84375 1.5-16.688 10.719-1.0312-1.5625 0.0625-0.0625 16.812-10.594zm-19.094 0.09375-6.3125 3.8125 0.03125-1.3438 6.2812-2.4688zm-18.75 0.15625 0.5625 0.3125 0.0625 2.2812 0.03125 0.90625 0.8125 0.5625-0.0625 0.78125-1.4688-1 0.03125-1.5625 0.65625 0.3125-0.65625-0.375 0.03125-2.2188zm39.531 0.15625v2.4688l-1.0312 0.40625v-1.2812l0.75-0.5-0.5625-0.78125 0.84375-0.3125zm-15.062 0.0625 0.0625 1.25-7.4062 2.875 4.9688-3.25 2.375-0.875zm3.5625 0.03125 0.03125 1.9062-19.312 7.6875 0.03125-2.125 0.8125-0.3125 0.34375 0.5625-0.03125 1.125 2.625-1 0.0625-0.8125 4.0312-2.625 7.9062-3.0625 0.0625 1.375 2.4062-1.0312v-1.3125l1.0312-0.375zm-22.906 0.34375 0.40625 0.28125 1.7188 1.2188-4.375 2.6875-1.9062-1.4062v-0.4375l4.1562-2.3438zm1.9375 0.0625 1.1875 0.78125v2l-0.59375-0.4375v-0.90625l-0.625-0.46875 0.03125-0.96875zm5.1875 0.03125v0.28125l-2.25 0.9375-0.21875-0.1875 0.125 0.46875-0.03125 3.0625-0.0625 0.03125-0.0625-3.5625h0.03125v-0.03125l2.4688-1zm0 0.34375-0.15625 2.8438-2.0625 1.25 0.03125-3.0625 2.1875-1.0312zm25.875 0.9375 0.1875 3.5312-1.7812 0.9375-0.03125-3.375v-0.03125l1.625-1.0625zm-30.875 0.25 0.09375 3.1562h-0.03125l-1.9688 1.1875-0.46875-0.3125-1.875-1.4062 4.25-2.625zm32.281 0.5v1.2188l-1.0312 0.375v-1.2188l1.0312-0.375zm-31.875 0.4375 0.59375 0.46875 0.03125 2.4062-0.59375-0.59375-0.03125-2.2812zm28.594 0.0625 0.1875 3.25-0.21875 0.125-0.0625-3.3125 0.09375-0.0625zm-0.3125 0.1875 0.03125 0.53125-2.0312 0.78125 2-1.3125zm-26.375 0.03125-0.03125 2-0.3125 0.1875v0.15625l-0.40625 0.15625 0.0625-2.2188 0.6875-0.28125zm20.688 0.21875-6.3125 3.8125 0.03125-1.3438 6.2812-2.4688zm5.7188 0.375 0.0625 1.25-7.4062 2.875 4.9688-3.25 2.375-0.875zm3.5625 0.03125v1.7188l-19.281 7.7812 0.03125-2.0312 0.8125-0.3125 0.34375 0.5625-0.03125 1.125 2.625-1 0.0625-0.8125 4.0312-2.625 7.9062-3.0625 0.0625 1.375 2.4062-1.0312v-1.3125l1.0312-0.375zm-37.969 0.09375 1.1875 0.84375-0.0625 0.75-1.1562-0.8125 0.03125-0.78125zm-1.4062 0.15625 1.2188 0.90625-8.6875 3.5938-1.5312-0.96875 9-3.5312zm23.594 0.1875v0.28125l-2.25 0.9375-0.21875-0.1875 0.125 0.46875-0.03125 3.0625-0.0625 0.03125-0.0625-3.5625h0.03125v-0.03125l2.4688-1zm0 0.34375-0.15625 2.8438-2.0625 1.25 0.03125-3.0625 2.1875-1.0312zm-20.875 0.25 1.8125 1.3125 0.0625 0.78125-1.9375-1.3438 0.0625-0.75zm-1.375 0.21875 1.4375 1.0312-8.5 3.625-1.5625-1.0312 8.625-3.625zm5.8438 0.15625 0.09375 2.625-1.9688-1.4375 1.875-1.1875zm0.34375 0.21875 0.59375 0.5625v1.4062l-0.5625-0.25 0.5625 0.40625 0.09375 2-1.7188-1.3125v-0.6875l1.0625 0.78125v-1.1875l-0.03125-1.7188zm12.062 0.09375v1.4688l-0.46875-0.34375v-0.9375l0.46875-0.1875zm-10.562 0.125-0.03125 0.40625-0.15625 0.0625 0.53125 0.90625-0.75 0.3125 0.03125-1.5625 0.375-0.125zm9.5938 0.09375v2.1875l-0.90625 0.34375-0.6875-0.96875-0.0625-0.09375-0.09375-0.03125-0.1875-0.125-0.0625 0.0625-0.09375 0.03125-1.9062 0.65625 0.125 0.4375-4.9375 3-6.7188 2.5938 0.03125-1.7188-2.9688 1.1562v1.6875l-0.6875 0.25-0.03125-2.1875 8.5312-3.2188 0.1875 0.28125 10.469-4.3438zm-15.719 0.4375 1.625 1.1875-8.3125 3.5625-1.75-1.125 8.4375-3.625zm1.8125 0.125 1.4062 1 0.15625 0.78125-1.5312-1.0625-0.03125-0.71875zm14.406 0.5 0.46875 0.375 0.03125 2.4062-0.53125-0.53125 0.03125-2.25zm1.7812 0.1875-0.03125 2-0.3125 0.1875v0.15625l-0.40625 0.15625 0.0625-2.2188 0.6875-0.28125zm-8.75 0.21875-0.03125 0.40625-1.9062 0.84375 1.9375-1.25zm-7.5312 0.21875 1.4688 1.0938-8.375 3.375-1.375-0.875 8.2812-3.5938zm11.594 0.0625h0.46875l-16.25 10.094-0.25 0.09375 0.03125-0.25 16-9.9375zm-0.28125 0.03125-1.125 0.65625 0.125-0.28125 1-0.375zm1 0.09375 0.84375 1.5-16.688 10.719-1.0312-1.5625 0.0625-0.0625 16.812-10.594zm-26.281 0.1875 1.6875 1.0938 0.03125 0.59375-1.3125-0.96875 0.03125 1.5938-0.46875-0.21875 0.03125-2.0938zm27.969 0.21875v2.4688l-1.0312 0.40625v-1.2812l0.75-0.5-0.5625-0.78125 0.84375-0.3125zm-12.406 0.59375 1.4375 1.0312-8.4688 3.1875-1.375-0.875 8.4062-3.3438zm-13.656 0.40625 1.4062 0.9375v0.6875l-1.4375-1.0625 0.03125-0.5625zm-1.1562 0.21875 1.9688 1.375-1.9062 1-0.0625-2.375zm27.688 0.0625 0.53125 0.5v1.4062l-0.53125-0.21875 0.53125 0.375v1.8125l-0.5625-0.375 0.03125-1.8125v-0.03125-1.6562zm1.4375 0.15625-0.03125 0.40625-0.15625 0.0625 0.53125 0.90625-0.75 0.3125 0.03125-1.5625 0.375-0.125zm-3.3125 0.375 0.1875 3.5312-1.7812 0.9375-0.03125-3.375v-0.03125l1.625-1.0625zm-26.594 0.21875 0.5 0.1875 0.03125 1.625-0.5625-0.28125 0.03125-1.5312zm3.5 0 1.875 1.2188 0.09375 0.90625-2.0625-1.5 0.09375-0.625zm24.5 0.53125v1.2188l-1.0312 0.375v-1.2188l1.0312-0.375zm-25.156 0.09375 2.1562 1.5312-4.0938 2.1875-0.0625-2.7188 2-1zm30.188 0.34375-0.03125 0.40625-1.9062 0.84375 1.9375-1.25zm-8.3125 0.0625 0.1875 3.25-0.21875 0.125-0.0625-3.3125 0.09375-0.0625zm-0.3125 0.1875 0.03125 0.53125-2.0312 0.78125 2-1.3125zm-18.875 0.09375 1.375 0.90625-0.03125 0.96875-1.3438-1v-0.875zm13.188 0.15625-6.3125 3.8125 0.03125-1.3438 6.2812-2.4688zm-18.75 0.15625 0.5625 0.3125 0.0625 2.2812 0.03125 0.90625 0.8125 0.5625-0.0625 0.78125-1.4688-1 0.03125-1.5625 0.65625 0.3125-0.65625-0.375 0.03125-2.2188zm24.469 0.21875 0.0625 1.25-7.4062 2.875 4.9688-3.25 2.375-0.875zm3.5625 0.03125v1.7188l-19.281 7.7812 0.03125-2.0312 0.8125-0.3125 0.34375 0.5625-0.03125 1.125 2.625-1 0.0625-0.8125 4.0312-2.625 7.9062-3.0625 0.0625 1.375 2.4062-1.0312v-1.3125l1.0312-0.375zm-22.906 0.34375 0.40625 0.28125 1.7188 1.2188-4.375 2.6875-1.9062-1.4062v-0.4375l4.1562-2.3438zm39.75 0c1e-6 1e-6 -3.706 0.60547-7.8438 1.4688-4.1377 0.86328-8.787 1.1582-11.344 2.5625-3.6785 2.0857-4.1388 6.0449-11.594 6.5625-0.52721-0.088314-1.0261-0.083776-1.5938 0-1.4225 0.20993-2.0295 0.5962-3.125 1.375v0.46875l-0.65625-0.46875-1.5312 0.0625-5.2812-3.4375 0.28125-0.53125-5.5938-3-33.156 13.5 0.125 2.2812 5.9688 3.3125 0.53125 0.59375 2.6875 3.9062c-5.5892 3.555-8.0099 6.1574-9.5312 8.0625-1.527 1.9121-2.8452 2.7717-4.9062 3.6562h0.3125c2.2873-0.98163 3.4554-1.3628 4.9375-3.2188 1.4572-1.8248 3.9764-4.8266 9.3438-8.2812l0.125 0.1875 1.25 0.125 4.7812 3 0.375 0.875 1.3438 0.96875-0.09375 14.406c1.0955 0.7788 2.265 1.6026 3.6875 1.8125s2.6157-0.19557 4.4688-1.7812l-0.25-7.9062 2.5938 1.6562 0.90625 0.03125c1.8778 1.6716 3.5219 3.6161 5.5 5.1875l0.84375-0.0625 2.2188 1.4688-0.1875 14.5c0.72001 1.239 2.546 1.7262 3.9062 2.2188 1.4225 0.20993 2.4594-0.38307 4.3125-1.9688l-0.125-8.0625 2.4688 2.0625 0.9375-0.25 6.9375 6.5 0.90625 0.03125 6.875 5.0312 0.25 0.9375 1.9375 1.5312-0.1875 16.375c1.1471 0.99399 2.462 1.5194 3.875 1.9688 1.4225 0.20993 2.8032-0.35182 4.6562-1.9375l-0.46875-13.219 23.469-9.9688 0.03125 9.8125c2.622 2.9105 5.8125 2.6516 8.7812 0.40625l-0.375-13.781 4.6875-2-0.09375-2.75-4.3438-3.1875 0.15625-5.8438c-4.833-3.1444-6.4937-1.0976-8.9062-0.28125l-2.2812-2.0625-1.375 0.09375-7.625-5.1562 0.21875-0.46875-7.2812-4.2812-0.0625-1.0625-3.8125-2.0938v-6.4375c-1.4915-1.4649-2.4048-1.483-4.375-1.5938-1.4225 0.20993-2.2795 0.7212-3.375 1.5v0.03125l-1.4375-1.1875-1.2812 0.15625-6.8438-4.9688-1.9062 0.78125-1.8438-1.2812-0.03125-6.875c-0.6949-0.59463-1.2783-0.9812-1.8125-1.2188 5.9343 0.02658 5.4399-3.1575 10.906-6.2812 2.2971-1.2616 7.2686-2.112 11.375-2.9688s7.625-1.4062 7.625-1.4062l-0.0625-0.1875zm-37.812 0.0625 1.1875 0.78125v2l-0.59375-0.4375v-0.90625l-0.625-0.46875 0.03125-0.96875zm5.1875 0.03125v0.28125l-2.25 0.9375-0.21875-0.1875 0.125 0.46875-0.03125 3.0625-0.0625 0.03125-0.0625-3.5625h0.03125v-0.03125l2.4688-1zm0 0.34375-0.15625 2.8438-2.0625 1.25 0.03125-3.0625 2.1875-1.0312zm-5 1.1875 0.09375 3.1562h-0.03125l-1.9688 1.1875-0.46875-0.3125-1.875-1.4062 4.25-2.625zm0.40625 0.9375 0.59375 0.46875 0.03125 2.4062-0.59375-0.59375-0.03125-2.2812zm1.9062 0.28125-0.03125 2-0.3125 0.1875v0.15625l-0.40625 0.15625 0.0625-2.2188 0.6875-0.28125zm-8 0.71875 1.1875 0.84375-0.0625 0.75-1.1562-0.8125 0.03125-0.78125zm1.3125 0.9375 1.8125 1.3125 0.0625 0.78125-1.9375-1.3438 0.0625-0.75zm4.4688 0.375 0.09375 2.625-1.9688-1.4375 1.875-1.1875zm0.34375 0.21875 0.59375 0.5625v1.4062l-0.5625-0.25 0.5625 0.40625v1.8125l-1.625-1.125v-0.6875l1.0625 0.78125v-1.1875l-0.03125-1.7188zm1.5 0.21875-0.03125 0.40625-0.15625 0.0625 0.53125 0.90625-0.75 0.3125 0.03125-1.5625 0.375-0.125zm-12.719 0.34375 4.875 2.5-31.438 13.188-5.5-2.5938 32.062-13.094zm8.4062 0.3125 1.4062 1 0.15625 0.78125-1.5312-1.0625-0.03125-0.71875zm7.4375 0.90625-0.03125 0.40625-1.9062 0.84375 1.9375-1.25zm-11.125 1.9688 5.2812 3.3125-20.969 9c-0.36114-0.019636-0.73398 0.004791-1.125 0.0625-1.4225 0.20993-2.592 0.3462-3.6875 1.125v0.90625l-6.875 2.9375-3.375-4.5312 30.75-12.812zm11.875 1.875c0.97403-0.021887 2.094 0.382 3.5 1.5312l-0.0625 7.0312c-0.016592 0.023453-0.045138 0.039436-0.0625 0.0625v0.03125c-1.2463 1.6292-4.4051 2.2576-6.6875 0.46875l-0.125-7.5938c1.0071-0.70875 1.9928-1.3467 3.0312-1.5 0.13373-0.019737 0.2671-0.028123 0.40625-0.03125zm-5 1.75 1.3438 0.84375 0.0625 3.9688-20.781 8.75 0.03125-3.2812c-0.80466-0.68855-1.4606-1.1074-2.0625-1.3438l21.406-8.9375zm7.7812 0.21875c-1.8687 1.4752-3.2318 1.4005-5.1875 0.125l-0.25 0.25c2.1851 2.1684 3.8165 2.173 5.625-0.125l-0.1875-0.25zm-6.375 5.2812 0.03125 2.0312c2.7322 2.3403 5.6773 1.8418 7.3438-0.375l1.5 1.0312-33.062 14.438-5.5312-4.5938 0.875-0.375v0.96875c2.9084 2.2313 5.3828 1.9939 8-0.4375l0.03125-3.9375 20.812-8.75zm-45.531 0.96875 5.875 2.8438-0.1875 1.9062-5.4688-3.1562-0.21875-1.5938zm56.594 1.3125 6.4375 4.4375-35.75 15.688-6.0312-4.4062 35.344-15.719zm-35.594 1.2188c0.97403-0.021887 2.094 0.382 3.5 1.5312l-0.0625 7.0312c-1.1449 2.0143-5.0054 3.2875-7.4375 0.8125l0.125-8.1562c1.0071-0.70875 2.4303-1.0342 3.4688-1.1875 0.13373-0.019737 0.2671-0.028123 0.40625-0.03125zm-14.719 0.84375 2.9062 4.375-0.0625 1.7812-2.9375-4.375 0.09375-1.7812zm11.75 1.375-0.25 0.25c2.2128 1.9058 4.1181 2.1919 6.125 0.1875l-0.3125-0.25c-1.916 1.0952-3.6838 1.0601-5.5625-0.1875zm-1.2812 0.21875-0.0625 5.5-0.6875 0.3125-6-3 6.75-2.8125zm53.375 0.3125c0.97403-0.021887 2.094 0.382 3.5 1.5312l-0.0625 7.0312c-0.77433 1.9058-3.5522 2.8206-6.75 0.5625l-0.125-7.5938c1.0071-0.70875 1.9928-1.3467 3.0312-1.5 0.13373-0.019737 0.2671-0.028123 0.40625-0.03125zm-5.7188 0.40625 1.875 1.4688 0.15625 4.5625-21.5 9.0938v-2.6875c-1.3731-1.3486-2.2688-2.0601-3.9375-2.25l23.406-10.188zm8.4375 2c-1.9091 1.0194-3.3691 1.1658-5.3125 0.25l-0.125 0.25c2.0724 1.8234 3.8365 1.5363 5.625-0.25l-0.1875-0.25zm-63.25 0.53125 6 2.8125-0.09375 1.9062-5.0938-3.1562-0.90625-0.125 0.09375-1.4375zm6.3125 4.1875 5.3438 4-0.21875 0.375-0.28125 0.59375-4.9375-3.5 0.09375-1.4688zm50.562 0.09375 0.09375 2.1875c2.7471 2.3531 5.7761 1.904 7.4375-0.34375v-0.75l3.6875 1.8125-35.469 14.719-6.8125-4.4375 1.5625-0.65625 0.03125 1.5312c2.7471 2.3531 6.2761 1.7165 7.9375-0.53125v-4.4062l21.531-9.125zm-49.25 2.875 3.4062 2.4688-0.09375 1.0938 3.8125 2.4688 0.15625 7.8125c-1.6074 1.3143-2.8361 2.0954-3.9062 1.9375-1.0395-0.15342-2.3355-1.0403-3.3438-1.75l-0.03125-14.031zm60.031 0.8125 7.2812 4.5938-37.031 14.656-5.3125-4.4688 35.062-14.781zm-36.719 0.0625c1.0698-0.15789 2.4869 0.74907 4.0938 2.0625l-0.0625 7.0312c-1.1189 2.1699-4.6522 3.4067-7.0625 1.0625l-0.0625-8.3438c1.0071-0.70875 2.0553-1.6592 3.0938-1.8125zm-2.6562 1c-0.3565 0.27248-0.73228 0.5465-1.0625 0.78125l0.125 6.1875-2.6562 1.125-5.625-4.0938 9.2188-4zm-16.75 0.4375 6.125 4.25v0.9375l-2.5938-1.6875h-0.03125l-3.6562-2.375 0.15625-1.125zm17.031 0.9375-0.125 0.125c1.7701 2.6547 3.7233 2.8476 5.875 0.0625l-0.5-0.125c-1.5226 1.7073-3.4335 1.1222-5.25-0.0625zm46.344 2.7188 7.5 5.2812-36.75 14.906-6.4688-5.8438 35.719-14.344zm-55.938 0.5625 5.5 4.2188-0.15625 1.9688-5.4062-5.1875-0.78125-0.03125 0.15625-0.90625 0.6875-0.0625zm6.4062 4.125 6.6875 4.4688-0.5 1.875-6.375-4.3438c-0.078721-0.11262-0.41681-0.10613-0.40625-0.21875l0.15625-1.4688 0.4375-0.3125zm-19.344 0.28125c-1.4488 1.1103-1.9903 2.4919-1.3125 4.375 0.81951 1.4968 2.6718 2.5889 4.625 2.9688 2.0134 0.39159 3.9996-0.22747 5.625-1.1562 2.2991-1.3137 3.8372-3.4926 1.2188-5.6875h-0.15625c1.9677 2.0633 0.72086 4.5169-1.1562 5.5312-1.3117 0.70881-3.5823 1.5301-5.3438 1.1875-1.704-0.33141-3.9284-1.8677-4.5312-2.9688-0.6896-1.6349 0.049984-3.3141 1.0312-4.25zm77.969 0.25 2.5938 2.4062 0.0625 4.4688-23 9.0625 0.125-3.0625c-1.4915-1.4649-3.0923-1.858-5.0625-1.9688-1.3315 0.56809-2.7877 0.76191-3.9062 1.9688l0.125 6.5-2.1875 0.875-6.0938-5.125 37.344-15.125zm6.9688 0.53125c1.3892 0.058093 2.7726 0.56804 4 1.4688l-0.0625 7.2812c-1.0016 1.9396-4.8966 2.9914-7.9062 0.3125l-0.03125-7.7812c1.2138-0.9563 2.6108-1.3393 4-1.2812zm2.3438 1.8438c-1.5226 1.7073-3.1835 2.0597-5 0.875v0.125c2.2254 2.8949 3.5698 1.7323 5.2812-0.59375l-0.28125-0.40625zm-65.938 1.125 4.3125 2.875 0.09375 0.9375 3.0625 2.5625 0.0625 7.7188c-1.6068 1.3134-2.9614 2.2516-4.0312 2.0938-1.0511-0.15512-2.4172-1.0304-3.4375-1.75l-0.0625-14.438zm5 1.5938 5.2188 4.1875-0.03125 2.125-5.25-4.4375 0.0625-1.875zm54.312 2.375 0.03125 2.4062c2.7305 2.5336 5.694 1.9754 8.5938-0.125l0.03125-1.5312 3.5 2.6562-37.781 15.25-7.875-5.375 1.75-0.6875 0.03125 1.1875c2.7218 2.5246 5.6453 1.9912 8.5-0.125l0.15625-4.4375 23.062-9.2188zm-48.469 2.0625h0.53125l6.625 5.9062 0.09375 2.375-6.875-6.4688-0.4375-0.0625 0.0625-1.75zm20.75 1.8125c1.0698-0.1579 2.5494 0.71782 4.1562 2.0312l-0.15625 7.375c-1.1983 1.6938-5.3019 2.3832-7.625 0.5625l-0.03125-8.125c1.0071-0.70874 2.6178-1.6905 3.6562-1.8438zm40.438 0-0.0625 1.7188-38.312 16.469 0.25-2.9062 38.125-15.281zm-37.844 2.4062c-1.6051 1.8384-3.4049 1.4635-5.3438 0.15625l-0.09375 0.0625c1.6694 2.5998 3.5179 2.8169 5.625 0.09375l-0.1875-0.3125zm-35.75 0.03125c-1.65 1.1821-2.177 2.7892-2.0625 4.75 1.1223 3.2282 4.6316 3.536 7.625 3.625v-0.21875c-2.7484 0.03208-6.0894-0.90288-7.4375-3.375-0.19029-1.5714 0.7439-3.5159 1.8438-4.5312l0.03125-0.25zm20.438 1.8125 6.375 5.0625 0.28125 2.25-6.75-5 0.09375-2.3125zm48.312 0.15625 0.28125 12.906c-2.4985 2.6764-5.2812 2.6727-7.5625 0l-0.125-9.75 7.4062-3.1562zm-55.875 1.9375-0.09375 0.15625c1.2387 2.2567 0.80402 4.86-0.0625 6-0.86652 1.14-3.0518 1.9448-4.8125 2.125-2.9915 0.15699-7.2504-0.77086-9.375-2.9688l-0.09375-0.0625c1.9425 2.9494 6.3075 3.4079 9.5625 3.25 1.9615-0.20077 3.8646-0.98488 4.9688-2.4375s1.2703-3.5775-0.09375-6.0625zm14.562 3.8125 7.4062 4.875-0.15625 3.2812-6.8125-5.5312-0.4375-2.625zm42.375 0.8125 0.15625 0.09375c1.3031 0.59653 1.6036 1.6986 1.5 3.0625l0.3125 0.21875c-0.01731-2.1244-0.17501-2.7828-1.9688-3.375zm-10.969 2.75c-1.1943 2.8711-0.84243 5.1371 0.40625 6.625s3.2623 2.1948 5.3125 2.2812 4.1646-0.42399 5.625-1.5312 2.2011-2.9191 1.4062-5.0312h-0.03125c0.66407 1.7646-0.35858 4.0872-1.5625 5s-3.3383 1.4218-5.1875 1.3438-4.2523-1.0611-5.25-2.25-1.6318-3.7291-0.53125-6.375l-0.1875-0.0625zm-28.938 1.0938 5 3.9688 2.125-0.90625 0.25 12.531c-1.6068 1.3134-3.0239 2.2516-4.0938 2.0938-1.0389-0.15332-2.3674-1.1971-3.375-1.9062l0.09375-15.781zm-2.2188 10.5c-1.5991 1.3461-2.7945 3.2763-2.3438 5.2812s2.5184 3.8063 6.875 4.9375h0.15625c-4.1825-1.086-6.4463-3.3227-6.7812-4.8125-0.33494-1.4898 0.70427-3.9916 2.125-5.1875l-0.03125-0.21875zm10.719 0.78125-0.03125 0.25c1.8534 0.20884 2.8176 1.2948 3.125 2.5s-0.07241 2.5134-1.125 3.2188l0.03125 0.0625c1.4317-0.95945 1.8401-1.7651 1.4375-3.3438-0.4026-1.5787-1.2271-2.4384-3.4375-2.6875z" fill-rule="evenodd"/>
 </g>
</svg>
