<?xml version="1.0" encoding="UTF-8"?>
<!-- Created with Inkscape (http://www.inkscape.org/) -->
<svg id="svg2" width="128" height="128" version="1.0" xmlns="http://www.w3.org/2000/svg" xmlns:cc="http://creativecommons.org/ns#" xmlns:dc="http://purl.org/dc/elements/1.1/" xmlns:rdf="http://www.w3.org/1999/02/22-rdf-syntax-ns#" xmlns:xlink="http://www.w3.org/1999/xlink">
 <defs id="defs4">
  <linearGradient id="linearGradient2338">
   <stop id="stop2340" stop-color="#b1b1b1" offset="0"/>
   <stop id="stop2342" stop-color="#e4e4e4" offset="1"/>
  </linearGradient>
  <linearGradient id="linearGradient2320">
   <stop id="stop2322" stop-color="#6a3c1d" offset="0"/>
   <stop id="stop2324" stop-color="#8f5127" offset="1"/>
  </linearGradient>
  <linearGradient id="linearGradient2508" x1="17.062" x2="31.678" y1="81.461" y2="98.951" gradientTransform="translate(2.7676)" gradientUnits="userSpaceOnUse" xlink:href="#linearGradient2338"/>
  <linearGradient id="linearGradient2546" x1="18.062" x2="28.25" y1="55.812" y2="60.5" gradientTransform="translate(2.7676)" gradientUnits="userSpaceOnUse" xlink:href="#linearGradient2338"/>
  <linearGradient id="linearGradient2548" x1="21.625" x2="27.5" y1="64.75" y2="58.938" gradientTransform="translate(2.7676)" gradientUnits="userSpaceOnUse" xlink:href="#linearGradient2338"/>
  <linearGradient id="linearGradient2550" x1="15.438" x2="16.25" y1="62.938" y2="60.188" gradientTransform="translate(2.7676)" gradientUnits="userSpaceOnUse" xlink:href="#linearGradient2338"/>
  <linearGradient id="linearGradient2552" x1="17.875" x2="20.062" y1="65.344" y2="63.656" gradientTransform="translate(2.7676)" gradientUnits="userSpaceOnUse" xlink:href="#linearGradient2338"/>
  <linearGradient id="linearGradient2554" x1="21.625" x2="20.875" y1="66.98" y2="64.75" gradientTransform="translate(2.7676)" gradientUnits="userSpaceOnUse" xlink:href="#linearGradient2338"/>
  <linearGradient id="linearGradient2556" x1="23.375" x2="24.438" y1="64.031" y2="66.031" gradientTransform="translate(2.7676)" gradientUnits="userSpaceOnUse" xlink:href="#linearGradient2338"/>
  <linearGradient id="linearGradient2558" x1="27.438" x2="26" y1="63.781" y2="60.781" gradientTransform="translate(2.7676)" gradientUnits="userSpaceOnUse" xlink:href="#linearGradient2338"/>
  <linearGradient id="linearGradient2560" x1="31.625" x2="30.875" y1="65.562" y2="61.812" gradientTransform="translate(2.7676)" gradientUnits="userSpaceOnUse" xlink:href="#linearGradient2338"/>
  <linearGradient id="linearGradient2562" x1="32.062" x2="34.375" y1="59.844" y2="60.406" gradientTransform="translate(2.7676)" gradientUnits="userSpaceOnUse" xlink:href="#linearGradient2338"/>
  <linearGradient id="linearGradient2564" x1="33.75" x2="30.875" y1="58.781" y2="55.406" gradientTransform="translate(2.7676)" gradientUnits="userSpaceOnUse" xlink:href="#linearGradient2338"/>
  <linearGradient id="linearGradient2566" x1="28.625" x2="28.219" y1="57.562" y2="55.438" gradientTransform="translate(2.7676)" gradientUnits="userSpaceOnUse" xlink:href="#linearGradient2338"/>
  <linearGradient id="linearGradient2568" x1="23.969" x2="23.969" y1="54.688" y2="52.219" gradientTransform="translate(2.7676)" gradientUnits="userSpaceOnUse" xlink:href="#linearGradient2338"/>
  <linearGradient id="linearGradient2570" x1="20.562" x2="22.125" y1="53.812" y2="55.312" gradientTransform="translate(2.7676)" gradientUnits="userSpaceOnUse" xlink:href="#linearGradient2338"/>
  <linearGradient id="linearGradient2572" x1="19.562" x2="20.438" y1="57.312" y2="55" gradientTransform="translate(2.7676)" gradientUnits="userSpaceOnUse" xlink:href="#linearGradient2338"/>
  <linearGradient id="linearGradient2574" x1="15" x2="17.188" y1="57.125" y2="53.562" gradientTransform="translate(2.7676)" gradientUnits="userSpaceOnUse" xlink:href="#linearGradient2338"/>
  <linearGradient id="linearGradient2576" x1="12.75" x2="14.625" y1="57.094" y2="58.656" gradientTransform="translate(2.7676)" gradientUnits="userSpaceOnUse" xlink:href="#linearGradient2338"/>
  <linearGradient id="linearGradient2578" x1="12.562" x2="14.625" y1="61.031" y2="59" gradientTransform="translate(2.7676)" gradientUnits="userSpaceOnUse" xlink:href="#linearGradient2338"/>
  <linearGradient id="linearGradient2580" x1="20.875" x2="28" y1="65.562" y2="72.625" gradientTransform="translate(2.7676)" gradientUnits="userSpaceOnUse" xlink:href="#linearGradient2338"/>
  <linearGradient id="linearGradient3227" x1="17.062" x2="31.678" y1="81.461" y2="98.951" gradientTransform="translate(88.224 -28.447)" gradientUnits="userSpaceOnUse" xlink:href="#linearGradient2338"/>
  <linearGradient id="linearGradient3229" x1="20.875" x2="28" y1="65.562" y2="72.625" gradientTransform="translate(88.224 -28.447)" gradientUnits="userSpaceOnUse" xlink:href="#linearGradient2338"/>
  <linearGradient id="linearGradient3231" x1="12.562" x2="14.625" y1="61.031" y2="59" gradientTransform="translate(88.224 -28.447)" gradientUnits="userSpaceOnUse" xlink:href="#linearGradient2338"/>
  <linearGradient id="linearGradient3233" x1="12.75" x2="14.625" y1="57.094" y2="58.656" gradientTransform="translate(88.224 -28.447)" gradientUnits="userSpaceOnUse" xlink:href="#linearGradient2338"/>
  <linearGradient id="linearGradient3235" x1="15" x2="17.188" y1="57.125" y2="53.562" gradientTransform="translate(88.224 -28.447)" gradientUnits="userSpaceOnUse" xlink:href="#linearGradient2338"/>
  <linearGradient id="linearGradient3237" x1="19.562" x2="20.438" y1="57.312" y2="55" gradientTransform="translate(88.224 -28.447)" gradientUnits="userSpaceOnUse" xlink:href="#linearGradient2338"/>
  <linearGradient id="linearGradient3239" x1="20.562" x2="22.125" y1="53.812" y2="55.312" gradientTransform="translate(88.224 -28.447)" gradientUnits="userSpaceOnUse" xlink:href="#linearGradient2338"/>
  <linearGradient id="linearGradient3241" x1="23.969" x2="23.969" y1="54.688" y2="52.219" gradientTransform="translate(88.224 -28.447)" gradientUnits="userSpaceOnUse" xlink:href="#linearGradient2338"/>
  <linearGradient id="linearGradient3243" x1="28.625" x2="28.219" y1="57.562" y2="55.438" gradientTransform="translate(88.224 -28.447)" gradientUnits="userSpaceOnUse" xlink:href="#linearGradient2338"/>
  <linearGradient id="linearGradient3245" x1="33.75" x2="30.875" y1="58.781" y2="55.406" gradientTransform="translate(88.224 -28.447)" gradientUnits="userSpaceOnUse" xlink:href="#linearGradient2338"/>
  <linearGradient id="linearGradient3247" x1="32.062" x2="34.375" y1="59.844" y2="60.406" gradientTransform="translate(88.224 -28.447)" gradientUnits="userSpaceOnUse" xlink:href="#linearGradient2338"/>
  <linearGradient id="linearGradient3249" x1="31.625" x2="30.875" y1="65.562" y2="61.812" gradientTransform="translate(88.224 -28.447)" gradientUnits="userSpaceOnUse" xlink:href="#linearGradient2338"/>
  <linearGradient id="linearGradient3251" x1="27.438" x2="26" y1="63.781" y2="60.781" gradientTransform="translate(88.224 -28.447)" gradientUnits="userSpaceOnUse" xlink:href="#linearGradient2338"/>
  <linearGradient id="linearGradient3253" x1="23.375" x2="24.438" y1="64.031" y2="66.031" gradientTransform="translate(88.224 -28.447)" gradientUnits="userSpaceOnUse" xlink:href="#linearGradient2338"/>
  <linearGradient id="linearGradient3255" x1="21.625" x2="20.875" y1="66.98" y2="64.75" gradientTransform="translate(88.224 -28.447)" gradientUnits="userSpaceOnUse" xlink:href="#linearGradient2338"/>
  <linearGradient id="linearGradient3257" x1="17.875" x2="20.062" y1="65.344" y2="63.656" gradientTransform="translate(88.224 -28.447)" gradientUnits="userSpaceOnUse" xlink:href="#linearGradient2338"/>
  <linearGradient id="linearGradient3259" x1="15.438" x2="16.25" y1="62.938" y2="60.188" gradientTransform="translate(88.224 -28.447)" gradientUnits="userSpaceOnUse" xlink:href="#linearGradient2338"/>
  <linearGradient id="linearGradient3261" x1="21.625" x2="27.5" y1="64.75" y2="58.938" gradientTransform="translate(88.224 -28.447)" gradientUnits="userSpaceOnUse" xlink:href="#linearGradient2338"/>
  <linearGradient id="linearGradient3263" x1="18.062" x2="28.25" y1="55.812" y2="60.5" gradientTransform="translate(88.224 -28.447)" gradientUnits="userSpaceOnUse" xlink:href="#linearGradient2338"/>
  <linearGradient id="linearGradient3269" x1="44.527" x2="97.831" y1="104.48" y2="61.624" gradientTransform="translate(2.7676)" gradientUnits="userSpaceOnUse" xlink:href="#linearGradient2338"/>
  <linearGradient id="linearGradient3273" x1="80.043" x2="83.907" y1="74.192" y2="89.032" gradientTransform="translate(2.7676)" gradientUnits="userSpaceOnUse" xlink:href="#linearGradient2338"/>
  <linearGradient id="linearGradient3281" x1="68.495" x2="68.81" y1="77.265" y2="78.319" gradientTransform="translate(2.7676)" gradientUnits="userSpaceOnUse" xlink:href="#linearGradient2320"/>
  <linearGradient id="linearGradient3285" x1="68.583" x2="68.81" y1="77.616" y2="78.319" gradientTransform="translate(2.8115 3.4248)" gradientUnits="userSpaceOnUse" xlink:href="#linearGradient2320"/>
  <linearGradient id="linearGradient3289" x1="68.539" x2="68.81" y1="77.441" y2="78.319" gradientTransform="translate(2.8554 7.6838)" gradientUnits="userSpaceOnUse" xlink:href="#linearGradient2320"/>
  <linearGradient id="linearGradient3293" x1="68.495" x2="68.81" y1="77.66" y2="78.626" gradientTransform="translate(2.9432 11.679)" gradientUnits="userSpaceOnUse" xlink:href="#linearGradient2320"/>
  <linearGradient id="linearGradient3297" x1="68.539" x2="68.81" y1="77.573" y2="78.319" gradientTransform="translate(3.0749 15.675)" gradientUnits="userSpaceOnUse" xlink:href="#linearGradient2320"/>
  <linearGradient id="linearGradient3301" x1="59.055" x2="59.516" y1="89.449" y2="89.449" gradientTransform="translate(2.7676)" gradientUnits="userSpaceOnUse" xlink:href="#linearGradient2320"/>
  <linearGradient id="linearGradient3305" x1="59.055" x2="59.516" y1="89.449" y2="89.449" gradientTransform="translate(8.739 -2.2393)" gradientUnits="userSpaceOnUse" xlink:href="#linearGradient2320"/>
  <linearGradient id="linearGradient3309" x1="59.055" x2="59.516" y1="89.449" y2="89.449" gradientTransform="translate(14.491 -4.4785)" gradientUnits="userSpaceOnUse" xlink:href="#linearGradient2320"/>
  <linearGradient id="linearGradient3313" x1="59.055" x2="59.516" y1="89.449" y2="89.449" gradientTransform="translate(18.969 -5.664)" gradientUnits="userSpaceOnUse" xlink:href="#linearGradient2320"/>
  <linearGradient id="linearGradient3317" x1="59.055" x2="59.516" y1="89.449" y2="89.449" gradientTransform="translate(24.326 -7.4642)" gradientUnits="userSpaceOnUse" xlink:href="#linearGradient2320"/>
  <linearGradient id="linearGradient3321" x1="66.91" x2="68.015" y1="63.766" y2="66.86" gradientTransform="translate(2.7676)" gradientUnits="userSpaceOnUse" xlink:href="#linearGradient2338"/>
  <linearGradient id="linearGradient3367" x1="97.758" x2="100.41" y1="53.489" y2="50.395" gradientTransform="translate(2.7676)" gradientUnits="userSpaceOnUse" xlink:href="#linearGradient2338"/>
  <linearGradient id="linearGradient3369" x1="97.581" x2="98.818" y1="54.24" y2="56.229" gradientTransform="translate(2.7676)" gradientUnits="userSpaceOnUse" xlink:href="#linearGradient2338"/>
  <linearGradient id="linearGradient3371" x1="94.045" x2="95.901" y1="56.229" y2="54.019" gradientTransform="translate(2.7676)" gradientUnits="userSpaceOnUse" xlink:href="#linearGradient2338"/>
  <linearGradient id="linearGradient3373" x1="88.742" x2="92.277" y1="56.847" y2="53.135" gradientTransform="translate(2.7676)" gradientUnits="userSpaceOnUse" xlink:href="#linearGradient2338"/>
  <linearGradient id="linearGradient3375" x1="87.858" x2="89.184" y1="57.024" y2="58.704" gradientTransform="translate(2.7676)" gradientUnits="userSpaceOnUse" xlink:href="#linearGradient2338"/>
  <linearGradient id="linearGradient3377" x1="85.118" x2="85.825" y1="58.615" y2="56.582" gradientTransform="translate(2.7676)" gradientUnits="userSpaceOnUse" xlink:href="#linearGradient2338"/>
  <linearGradient id="linearGradient3379" x1="80.61" x2="82.466" y1="59.234" y2="56.317" gradientTransform="translate(2.7676)" gradientUnits="userSpaceOnUse" xlink:href="#linearGradient2338"/>
  <linearGradient id="linearGradient3381" x1="79.063" x2="80.433" y1="59.853" y2="61.886" gradientTransform="translate(2.7676)" gradientUnits="userSpaceOnUse" xlink:href="#linearGradient2338"/>
  <linearGradient id="linearGradient3383" x1="76.191" x2="77.34" y1="63.035" y2="60.56" gradientTransform="translate(2.7676)" gradientUnits="userSpaceOnUse" xlink:href="#linearGradient2338"/>
  <linearGradient id="linearGradient3385" x1="70.711" x2="72.523" y1="61.974" y2="59.322" gradientTransform="translate(2.7676)" gradientUnits="userSpaceOnUse" xlink:href="#linearGradient2338"/>
  <linearGradient id="linearGradient3387" x1="70.578" x2="72.037" y1="62.548" y2="64.36" gradientTransform="translate(2.7676)" gradientUnits="userSpaceOnUse" xlink:href="#linearGradient2338"/>
  <linearGradient id="linearGradient3389" x1="67.087" x2="67.971" y1="64.051" y2="63.035" gradientTransform="translate(2.7676)" gradientUnits="userSpaceOnUse" xlink:href="#linearGradient2338"/>
  <linearGradient id="linearGradient3391" x1="63.374" x2="63.993" y1="64.36" y2="61.797" gradientTransform="translate(2.7676)" gradientUnits="userSpaceOnUse" xlink:href="#linearGradient2338"/>
  <linearGradient id="linearGradient3393" x1="61.916" x2="63.374" y1="64.891" y2="66.57" gradientTransform="translate(2.7676)" gradientUnits="userSpaceOnUse" xlink:href="#linearGradient2338"/>
  <linearGradient id="linearGradient3395" x1="57.894" x2="60.634" y1="66.791" y2="65.421" gradientTransform="translate(2.7676)" gradientUnits="userSpaceOnUse" xlink:href="#linearGradient2338"/>
  <linearGradient id="linearGradient3397" x1="54.005" x2="54.624" y1="67.056" y2="64.802" gradientTransform="translate(2.7676)" gradientUnits="userSpaceOnUse" xlink:href="#linearGradient2338"/>
  <linearGradient id="linearGradient3399" x1="52.635" x2="54.094" y1="67.94" y2="69.575" gradientTransform="translate(2.7676)" gradientUnits="userSpaceOnUse" xlink:href="#linearGradient2338"/>
  <linearGradient id="linearGradient3401" x1="47.906" x2="50.912" y1="69.708" y2="68.338" gradientTransform="translate(2.7676)" gradientUnits="userSpaceOnUse" xlink:href="#linearGradient2338"/>
  <linearGradient id="linearGradient3403" x1="43.134" x2="46.757" y1="69.929" y2="67.366" gradientTransform="translate(2.7676)" gradientUnits="userSpaceOnUse" xlink:href="#linearGradient2338"/>
  <linearGradient id="linearGradient3405" x1="42.515" x2="43.487" y1="70.68" y2="72.006" gradientTransform="translate(2.7676)" gradientUnits="userSpaceOnUse" xlink:href="#linearGradient2338"/>
  <linearGradient id="linearGradient3407" x1="38.891" x2="40.393" y1="73.288" y2="70.901" gradientTransform="translate(2.7676)" gradientUnits="userSpaceOnUse" xlink:href="#linearGradient2338"/>
  <linearGradient id="linearGradient3409" x1="33.322" x2="35.223" y1="71.962" y2="70.194" gradientTransform="translate(2.7676)" gradientUnits="userSpaceOnUse" xlink:href="#linearGradient2338"/>
  <filter id="filter3624">
   <feGaussianBlur id="feGaussianBlur3626" stdDeviation="1.6110465"/>
  </filter>
 </defs>
 <metadata id="metadata7">
  <rdf:RDF>
   <cc:Work rdf:about="">
    <dc:format>image/svg+xml</dc:format>
    <dc:type rdf:resource="http://purl.org/dc/dcmitype/StillImage"/>
   </cc:Work>
  </rdf:RDF>
 </metadata>
 <g id="layer2" fill-rule="evenodd">
  <path id="path3411" d="m98.996 48.055c1.7938 0.817 2.494 2.7386 0.69721 0.56625-3.0077-0.76628 3.135 2.9418-0.66886 1.1164-2.0732 1.0611-0.50198 1.3028-2.128 0.23871-0.45493-2.6831-9.3011 2.4352-2.9998 1.0438-0.74791 1.1616 0.29236 2.5588-0.69311 0.73481-4.538-1.545-0.003553 3.5093-1.7248 2.9373-1.2999 2.7294 3.3912 3.9329 3.8889 6.2088 0.39254 2.0926 2.0105 4.4153-1.8085 5.301 3.0574 0.20805-1.7657 0.02941 0.36738 1.5686 1.6844 1.2752-5.1077-1.3494-6.7978 0.19288-2.8581 0.53662-3.2554 1.9354-4.0212 2.8623-2.6971-1.3774-9.5095 0.98576-6.8923 1.1257-2.5894-0.53172-0.21422 1.6062-2.5071 2.0379 1.3279 1.4248-2.4513-1.199-3.3692 0.70388-2.8088 0.52609 5.7984-1.3482 0.52747-1.5111-2.7765 0.29693-4.8819 1.2334-4.9697 2.7738-2.3301-0.27461-7.7451-0.20739-7.6614 0.91996 2.2696 1.0989 8.7515-1.3758 3.1898 0.24032-1.7818 0.15202-5.7832-0.40921-2.6467 1.1356 4.114 0.28711-2.9979 0.041842-4.2328 0.39157-4.9796-0.94623-5.8839 2.0308-5.2235 1.2221-3.609 0.82482 5.1672 2.1409-0.51532 1.2387-3.8728 0.40746-7.8754 2.3558-11.408 1.7207 0.34416 1.5167 3.6409 1.1128-0.081165 1.0758-2.178 0.45258-7.3264 2.4617-7.1808 1.791 2.3768 0.14611 6.6527-1.9761 1.5458-1.681-4.5966 1.5196 0.82881-2.1547-1.4336-3.457-0.39188-2.0323-1.669-6.9983-6.5746-5.1357 1.5527 2.0005-4.3633 0.95381-0.041316 1.1767 0.033073-1.5628-5.468-0.55756-3.2711-1.8407-1.7327-0.79765-8.5399-0.52732-4.7875 1.3417 1.2105 1.3026-3.09-2.9684-1.3824 0.00341 2.227 1.751 1.5783 0.32035-1.0615 0.46659-1.2813 1.5161 0.55311 0.68255-1.3524-0.023591 0.52082 0.36383-2.1952-1.6377-3.795-0.002861-3.2305 0.83696-0.68764 1.7631 0.78273 1.4958-0.62047 1.7665 0.48967 1.3056-1.0963 0.10688-4.1294-0.38223 0.53927 3.2012-1.2912 3.3778-1.1645 3.1135 4.7288 4.1522 4.1416 7.0975 1.6074 7.4247 3.2148 14.849 4.8223 22.274 5.607 2.1178 13.273 2.4125 18.969 0.10984 4.2148-1.6138 4.9325-4.4795 10.347-5.2231 4.9121-1.5997 7.374-4.2698 12.375-5.7726-1.9507-2.1726 4.5352-2.3936 5.8051-0.62691-0.76694-1.7982 4.4622-3.9222 5.7741-1.9646-0.49656-1.8327 4.2843-3.3184 5.9927-2.0072-0.58473-2.0798 3.3484-2.1237 4.3359-1.4115 0.033175-1.804 4.1735-2.9099 5.4201-1.4553-0.4225-2.6303 3.8141-1.9054 5.8376-3.8467 6.3108-1.4407 9.5257-6.0106 16.528-5.1748 5.2796 0.044885 11.085-1.4173 13.842-4.0902-2.8348-8.1662-3.0977-13.858-6.0528-22.016 2.9147-2.2069-0.18606-4.9957-0.54942-7.41-0.58588-2.1635-7.03-2.4542-5.0357 0.20814-4.4728-0.6609 1.6974 0.41872-0.70768-1.0398-2.0343-0.43148-4.3285-0.097378-2.5873-0.99388-1.7495-1.1961-4.456-0.009632-6.6389-0.12119zm-53.82 33.602c-2.115-1.6613-10.629 1.2843-4.2302 1.0736 1.4101-0.35788 2.8201-0.71575 4.2302-1.0736zm56.65-32.912c1.4061-0.039873-3.2179 0.59688 0 0zm-2.0662 2.0604-1.0342 0.19201 1.0342-0.19201zm11.373-0.82294c0.74662 0.43026 0.21386 1.0196 0 0zm-9.2626 1.1154c2.4511-0.32848-4.1908 1.0264 0 0zm2.9369-0.26453 1.1112-0.051269-1.1112 0.051269zm4.3274 0.3578c1.197 0.18251 1.5834 0.61575 0 0zm-11.454 1.2635c-0.65014 0.55203-2.781 1.3201-0.8231 0.36274l0.8231-0.36274zm13.906-1.2028c0.60941 0.89458-0.3131 1.1445 0 0zm-17.643 2.1198c-1.7088 0.58568-2.0245 0.50125 0 0zm16.231-1.6005c1.1617 0.96197 0.45215 0.74386 0 0zm-14.974 1.8634 0.90506 0.18826-0.90506-0.18826zm16.017-0.91039c0.29901 0.99309-1.6596 0.90889 0.11183 0.21512l-0.11183-0.21512zm-17.843 1.8852c2.4002 1.396 8.1998-1.5813 4.0728 0.65814-1.2054-0.57107-2.9192 0.01012-4.0728-0.65814zm4.443 0.2869-0.35208 0.063084 0.35208-0.063084zm5.8262-1.3099c1.0046 0.9024 1.6772 1.308 0.14687 0.23595-0.10805 1.6277 0.04086 1.0061-0.14687-0.23595zm-3.3952 1.9032c4.7758-0.37916-5.4744 0.93679 0.02621 1.2699-3.9625 0.40774-2.0641-0.40216-0.02621-1.2699zm3.5224-0.22687c0.30567 0.30783-0.71693-0.006166 0 0zm0.36908 0.35473c0.92475 0.68942 0.26547 1.5436 0 0zm-2.4205 4.317c3.4902-0.16714 4.0291 0.12943 0 0zm-5.3989 6.7468c-0.057805 0.26026-0.58278-0.10825 0 0zm-79.564 8.7415c1.4061-0.039874-3.2179 0.59688 0 0zm74.705-7.237-0.60992 0.21468 0.60992-0.21468zm0.009541 0.15618c0.35879 1.2233 0.30303 2.1759 0 0zm4.9744 0.25158c-1.7077 0.53791-2.4673 0.63996 0 0zm-9.7675 1.2462c2.8272 1.8546-6.4801 2.8356-0.29534 1.4519 1.0913-0.22762-0.16136-0.99679 0.29534-1.4519zm-71.987 7.6435-1.0342 0.19201 1.0342-0.19201zm11.373-0.82294c0.74662 0.43025 0.21385 1.0196 0 0zm-9.2627 1.1154c2.4511-0.32848-4.1908 1.0264 0 0zm65.7-6.7769c0.53017 0.3382 1.247 1.2376 0.34015 0.35923l-0.34015-0.35923zm-62.763 6.5124 1.1112-0.051268-1.1112 0.051268zm57.835-5.2561 0.048981 0.027512-0.048981-0.027512zm-53.508 5.6139c1.197 0.18252 1.5835 0.61575 0 0zm-11.454 1.2635c-0.65014 0.55202-2.781 1.3201-0.82309 0.36274l0.82309-0.36274zm13.906-1.2028c0.60941 0.89458-0.31312 1.1445 0 0zm-17.643 2.1198c-1.7089 0.58569-2.0245 0.50125 0 0zm16.231-1.6005c1.1618 0.96197 0.45215 0.74386 0 0zm-14.974 1.8634 0.90507 0.18826-0.90507-0.18826zm66.137-6.665c4.7644 0.26533-4.5705 1.6253 0.91959 0.56462 1.5931-0.26129-0.5039-0.61948-0.91959-0.56462zm-50.12 5.7546c0.29901 0.99309-1.6596 0.90889 0.11183 0.21513l-0.11183-0.21513zm-17.843 1.8852c2.4002 1.396 8.1998-1.5813 4.0728 0.65814-1.2054-0.57107-2.9192 0.010122-4.0728-0.65814zm4.443 0.2869-0.35208 0.063083 0.35208-0.063083zm5.8262-1.3099c1.0045 0.9024 1.6772 1.308 0.14688 0.23595-0.10808 1.6277 0.040855 1.0061-0.14688-0.23595zm49.481-4.1562c4.5838 0.29376-6.0886 1.5612-0.93101 0.76453 1.173-0.24051 3.9554-0.58694 0.93101-0.76453zm-52.877 6.0594c4.7758-0.37916-5.4744 0.93679 0.026219 1.2699-3.9625 0.40774-2.0641-0.40216-0.026219-1.2699zm3.5224-0.22687c0.30568 0.30783-0.71692-0.006164 0 0zm0.36909 0.35473c1.0096 0.85582 0.030604 1.3951 0 0zm36.198-3.391c-1.8513 0.65382-6.2037 2.5676-2.4415 0.63782 0.95623 0.02812 1.614-0.44826 2.4415-0.63782zm-7.3249 3.5867c-1.4172 0.43398-2.667 0.66511 0 0zm-7.1127 1.3055c1.016 1.672-9.338 2.5244-2.5467 1.2069 0.88962-0.27108 3.3123-0.31173 2.5467-1.2069zm-24.049 2.8022c3.0848-0.19524 5.1122 0.17633 0 0zm34.715-3.493c-6.6503 2.037-13.301 4.0739-19.951 6.1109 1.0847 3.0288 2.9642 8.2128 3.5552 9.9031-1.5644-4.1393-3.1288-8.2786-4.6932-12.418-0.10747 2.3495 2.1966 2.6979 5.0999 1.2575 5.3297-1.6179 10.659-3.2357 15.989-4.8536zm25.356-2.6034c5.5883-0.72977-1.0906 3.5609-1.3647 0.36734-1.9542 0.30356-0.29428 3.2562-3.9727 2.4268 0.21684-2.1831-3.0644-1.5546-1.4756 0.26719-1.2574 2.0774-7.4842 1.4093-3.5455-0.65917 3.1044-1.2501 6.6897-1.9838 10.359-2.4021zm2.7396 1.5829c2.1415 2.3294-6.2578 2.5244-1.788 0.43895 0.5489-0.21994 1.2255-0.24013 1.788-0.43895zm-15.428 1.8121c2.4807 2.5341-8.7627 3.9127-2.831 1.2588 0.87433-0.4703 1.8519-0.86797 2.831-1.2588zm10.801-0.44936c2.1556 2.3244-6.2666 2.5298-1.8209 0.44469 0.56121-0.22042 1.2479-0.24288 1.8209-0.44469zm-4.6329 1.3437c2.4307 2.3366-7.8471 3.1749-3.0229 0.88212 1.0076-0.29404 2.0153-0.58808 3.0229-0.88212zm9.8545-0.56759c2.7302 2.2991-5.2588 3.7722-2.6303 0.71415 0.93845-0.14993 1.7385-0.49754 2.6303-0.71415zm-21.8 2.8641c-1.6324 1.2996-2.3763 1.7342 0.49534 1.4785-1.1325 3.9359-5.1163-0.11596-0.49534-1.4785zm6.2525-0.62717c2.4022 2.0954-7.6893 3.5856-3.6691 1.077 1.223-0.35901 2.446-0.71803 3.6691-1.077zm10.919-0.87421c2.7906 2.3609-5.0923 3.8962-2.6181 0.75885 0.87269-0.25295 1.7454-0.5059 2.6181-0.75885zm-4.5672 1.3369c3.411 2.836-7.5637 4.3573-3.3774 0.93821 1.0861-0.3643 2.3791-0.47865 3.3774-0.93821zm9.9266-0.064263c2.6725 2.1891-5.196 3.6582-2.6073 0.73083 0.95028-0.12798 1.7189-0.51467 2.6073-0.73083zm-15.647 1.7562c3.3558 2.5163-6.8718 4.921-4.2798 1.2787 1.3454-0.50722 2.9016-0.79299 4.2798-1.2787zm11.063-0.35859c2.6779 2.2036-5.1573 3.6759-2.6034 0.72955 0.94931-0.12681 1.716-0.51432 2.6034-0.72955zm-19.752 2.3184c0.63619 1.0865 3.8544-1.1538 3.3171 1.0696-0.001322 2.065-4.2486 1.7667-3.1446-0.41982l-0.1725-0.64981zm15.201-0.92425c3.1453 2.5984-7.4482 4.0705-3.4081 1.034 1.1063-0.37836 2.3042-0.65304 3.4081-1.034zm9.8301-0.29002c3.0283 2.2897-5.6292 3.3487-2.308 0.73483 0.76935-0.24494 1.5387-0.48989 2.308-0.73483zm-15.534 2.0392c3.1188 2.4168-7.2316 4.4228-3.843 1.167 1.1841-0.49608 2.6663-0.66259 3.843-1.167zm10.966-0.58435c2.6299 2.4354-5.993 2.9131-1.9028 0.44214 0.74368 0.046424 1.272-0.28871 1.9028-0.44214zm-16.89 2.3955c2.5223 1.7191-5.2045 3.9384 0.61512 2.9441 2.036 1.8173-4.1093 2.4796-2.707-0.028606-0.24438-2.0845-2.0264-2.1585 2.0918-2.9155zm12.382-0.96658c2.6572 2.053-6.8457 3.9026-3.5501 1.1371 1.1834-0.37903 2.3667-0.75804 3.5501-1.1371zm-5.6883 1.8065c2.6102 2.1346-7.3852 3.6936-3.5021 1.1153 1.1674-0.37176 2.3347-0.74353 3.5021-1.1153z" fill-opacity=".73059" filter="url(#filter3624)"/>
  <path id="path2506" d="m15.61 110.39 1.4066-40.485 2.5685 1.2843 6.0544 1.3454 4.0362-0.30578 3.4247-0.91733 2.3851-1.3454 2.3239 40.729-3.4858 2.6297-5.6263 1.7123-4.8313-0.24462-4.2809-1.5289-3.9751-2.8743z" fill="url(#linearGradient2508)"/>
  <path id="path2510" d="m14.768 61.562-0.0625 1.0625 0.125 5.25 2.8125 2.5625 3.0625 1.1875 7.0625 1 4.6875-0.8125 3.0625-1.75 1.6875-1.9375-0.0625-5.6875-0.75 1.0625-2 1.9375-0.4375-2.5-6.8125 1.3125-0.1875 2.8125-6.5625-0.5625 0.0625-3-3.125-0.75-1.625-1.5625-0.25 1.1875-0.6875-0.8125z" fill="url(#linearGradient2580)"/>
  <path id="path2512" d="m15.33 62.062-0.3125-0.9375 0.375-2.125 2.125 0.625 0.25 0.5625-1.9375 0.5-0.5 1.375z" fill="url(#linearGradient2578)"/>
  <path id="path2514" d="m17.393 59.625-2.125-0.5-0.0625-2.5625 2.1875 0.75v2.3125z" fill="url(#linearGradient2576)"/>
  <path id="path2516" d="m17.518 57.125-2-0.75 0.5625-1.0625 3.625-1.75 1.75 1.5625-1.75 0.5-1.375 0.875-0.8125 0.625z" fill="url(#linearGradient2574)"/>
  <path id="path2518" d="m21.768 55.812 1.75-0.5 1.125 1.375-0.5 0.375-2.25 0.25-0.125-1.5z" fill="url(#linearGradient2572)"/>
  <path id="path2520" d="m23.455 55.25-0.125-2.5625 1.25 1.75 0.3125 2.25-1.4375-1.4375z" fill="url(#linearGradient2570)"/>
  <path id="path2522" d="m23.58 52.625 1.1875 1.875 1.25-0.3125 3.875 0.5-1.0625-1.9375-4.5-0.0625-0.4375-0.0625h-0.3125z" fill="url(#linearGradient2568)"/>
  <path id="path2524" d="m29.955 55.625 1-0.1875 1.1875 0.5-0.0625 1.625-2.25-1.0625 0.125-0.875z" fill="url(#linearGradient2566)"/>
  <path id="path2526" d="m32.393 55.125 1.75-0.6875 1.5 1.25 1 1.5625 0.5 2h-2.875l0.3125-0.9375-0.5625-1.1875-1.625-2z" fill="url(#linearGradient2564)"/>
  <path id="path2528" d="m34.393 59.062v2.25l2.75 0.4375-0.1875-2.5625-2.5625-0.125z" fill="url(#linearGradient2562)"/>
  <path id="path2530" d="m34.455 61.312-0.8125 0.6875 0.3125 0.875 0.375 2.6875 1.375-1.25 1.125-1.3125 0.375-1.3125-2.75-0.375z" fill="url(#linearGradient2560)"/>
  <path id="path2532" d="m32.83 60.312 1.0625 2.5-4.3125 1.1875-2.375 0.125-0.6875-2 2.1875-0.25 2.625-0.8125 1.5-0.75z" fill="url(#linearGradient2558)"/>
  <path id="path2534" d="m26.518 62.312 0.6875 1.875-0.25 2.8125-0.8125-2.125 0.375-2.5625z" fill="url(#linearGradient2556)"/>
  <path id="path2536" d="m26.268 65 0.4375 1.9375c-2.2294 0.1776-4.2278-0.22226-6.125-0.875l2.1875-1.3125 1.625 0.3125 1.875-0.0625z" fill="url(#linearGradient2554)"/>
  <path id="path2538" d="m20.268 66 2.5625-1.3125-0.25-2.375-2.0625 1.125-0.25 2.5625z" fill="url(#linearGradient2552)"/>
  <path id="path2540" d="m20.768 63.312-1.8125-0.25-1.4375-0.4375-1.375-0.8125-0.4375-1 2.25-0.625 0.875 0.875 2.25 0.9375 1.25 0.3125-1.9375 1.0625 0.375-0.0625z" fill="url(#linearGradient2550)"/>
  <path id="path2542" d="m19.205 60.75 2.875-1.875 3.1875-0.8125 2.0625-0.1875 2.25 0.3125 1.9375 0.625 2.3125 1.75 0.5625 1-0.8125 0.5625-0.625-1.75-3.0625 1.3125-3.4375 0.5-0.3125 2.75-0.6875 0.1875-2.0625-0.3125-0.625-0.1875-0.3125-2.25-2-0.5625-1.625-0.8125 0.375-0.25z" fill="url(#linearGradient2548)"/>
  <path id="path2544" d="m18.893 61-1.4375-0.8125 0.125-2.75 1.5-1.6875 2.5625-0.625 0.0625 2.125h1.4375l1.75-0.5-0.1875-2.25 2.25-0.3125 3 0.6875 0.0625 1.8125 2.1875 1-0.0625-2.5 1.1875 0.875 0.9375 1.4375 0.1875 1.625-0.1875 1.9375-1.75-1.625-3.5-1.4375-3.5625-0.0625-2.75 0.8125-2.625 1.1875-1.1875 1.0625z" fill="url(#linearGradient2546)"/>
  <path id="path2584" d="m15.33 62.062-0.3125-0.9375 0.375-2.125 2.125 0.625 0.25 0.5625-1.9375 0.5-0.5 1.375z" fill-opacity=".15686"/>
  <path id="path2586" d="m17.393 59.625-2.125-0.5-0.0625-2.5625 2.1875 0.75v2.3125z" fill-opacity=".15686"/>
  <path id="path2588" d="m23.455 55.25-0.125-2.5625 1.25 1.75 0.3125 2.25-1.4375-1.4375z" fill-opacity=".15686"/>
  <path id="path2590" d="m34.393 59.062v2.25l2.75 0.4375-0.1875-2.5625-2.5625-0.125z" fill-opacity=".15686"/>
  <path id="path2592" d="m18.893 61-1.4375-0.8125 0.125-2.75 1.5-1.6875 2.5625-0.625 0.0625 2.125h1.4375l1.75-0.5-0.1875-2.25 2.25-0.3125 3 0.6875 0.0625 1.8125 2.1875 1-0.0625-2.5 1.1875 0.875 0.9375 1.4375 0.1875 1.625-0.1875 1.9375-1.75-1.625-3.5-1.4375-3.5625-0.0625-2.75 0.8125-2.625 1.1875-1.1875 1.0625z" fill-opacity=".15686"/>
  <path id="path2582" d="m14.768 61.562-0.0625 1.0625 0.125 5.25 2.8125 2.5625 3.0625 1.1875 7.0625 1 4.6875-0.8125 3.0625-1.75 1.6875-1.9375-0.0625-5.6875-0.75 1.0625-2 1.9375-0.4375-2.5-6.6875 1.3125-0.3125 2.8125-6.5625-0.5625 0.0625-3-3.125-0.75-1.625-1.5625-0.25 1.1875-0.6875-0.8125z" fill-opacity=".15686"/>
  <path id="path3172" d="m29.705 89.812 4.8125-1.25-0.4375-2.25-0.9375-2.4375-1.5625-2.375-1.1875 2.125-0.75 2.375v1.625l0.0625 2.1875z" fill="#d59163"/>
  <path id="path3174" d="m101.07 81.94 1.4066-40.485 2.5685 1.2843 6.0544 1.3454 4.0362-0.30578 3.4247-0.91733 2.3851-1.3454 2.3239 40.729-3.4858 2.6297-5.6263 1.7123-4.8313-0.24462-4.2809-1.5289-3.9751-2.8743z" fill="url(#linearGradient3227)"/>
  <path id="path3176" d="m100.22 33.115-0.0625 1.0625 0.125 5.25 2.8125 2.5625 3.0625 1.1875 7.0625 1 4.6875-0.8125 3.0625-1.75 1.6875-1.9375-0.0625-5.6875-0.75 1.0625-2 1.9375-0.4375-2.5-6.8125 1.3125-0.1875 2.8125-6.5625-0.5625 0.0625-3-3.125-0.75-1.625-1.5625-0.25 1.1875-0.6875-0.8125z" fill="url(#linearGradient3229)"/>
  <path id="path3178" d="m100.79 33.615-0.3125-0.9375 0.375-2.125 2.125 0.625 0.25 0.5625-1.9375 0.5-0.5 1.375z" fill="url(#linearGradient3231)"/>
  <path id="path3180" d="m102.85 31.178-2.125-0.5-0.0625-2.5625 2.1875 0.75v2.3125z" fill="url(#linearGradient3233)"/>
  <path id="path3182" d="m102.97 28.678-2-0.75 0.5625-1.0625 3.625-1.75 1.75 1.5625-1.75 0.5-1.375 0.875-0.8125 0.625z" fill="url(#linearGradient3235)"/>
  <path id="path3184" d="m107.22 27.365 1.75-0.5 1.125 1.375-0.5 0.375-2.25 0.25-0.125-1.5z" fill="url(#linearGradient3237)"/>
  <path id="path3186" d="m108.91 26.803-0.125-2.5625 1.25 1.75 0.3125 2.25-1.4375-1.4375z" fill="url(#linearGradient3239)"/>
  <path id="path3188" d="m109.04 24.178 1.1875 1.875 1.25-0.3125 3.875 0.5-1.0625-1.9375-4.5-0.0625-0.4375-0.0625h-0.3125z" fill="url(#linearGradient3241)"/>
  <path id="path3190" d="m115.41 27.178 1-0.1875 1.1875 0.5-0.0625 1.625-2.25-1.0625 0.125-0.875z" fill="url(#linearGradient3243)"/>
  <path id="path3192" d="m117.85 26.678 1.75-0.6875 1.5 1.25 1 1.5625 0.5 2h-2.875l0.3125-0.9375-0.5625-1.1875-1.625-2z" fill="url(#linearGradient3245)"/>
  <path id="path3194" d="m119.85 30.615v2.25l2.75 0.4375-0.1875-2.5625-2.5625-0.125z" fill="url(#linearGradient3247)"/>
  <path id="path3196" d="m119.91 32.865-0.8125 0.6875 0.3125 0.875 0.375 2.6875 1.375-1.25 1.125-1.3125 0.375-1.3125-2.75-0.375z" fill="url(#linearGradient3249)"/>
  <path id="path3198" d="m118.29 31.865 1.0625 2.5-4.3125 1.1875-2.375 0.125-0.6875-2 2.1875-0.25 2.625-0.8125 1.5-0.75z" fill="url(#linearGradient3251)"/>
  <path id="path3200" d="m111.97 33.865 0.6875 1.875-0.25 2.8125-0.8125-2.125 0.375-2.5625z" fill="url(#linearGradient3253)"/>
  <path id="path3202" d="m111.72 36.553 0.4375 1.9375c-2.2294 0.1776-4.2278-0.22226-6.125-0.875l2.1875-1.3125 1.625 0.3125 1.875-0.0625z" fill="url(#linearGradient3255)"/>
  <path id="path3204" d="m105.72 37.553 2.5625-1.3125-0.25-2.375-2.0625 1.125-0.25 2.5625z" fill="url(#linearGradient3257)"/>
  <path id="path3206" d="m106.22 34.865-1.8125-0.25-1.4375-0.4375-1.375-0.8125-0.4375-1 2.25-0.625 0.875 0.875 2.25 0.9375 1.25 0.3125-1.9375 1.0625 0.375-0.0625z" fill="url(#linearGradient3259)"/>
  <path id="path3208" d="m104.66 32.303 2.875-1.875 3.1875-0.8125 2.0625-0.1875 2.25 0.3125 1.9375 0.625 2.3125 1.75 0.5625 1-0.8125 0.5625-0.625-1.75-3.0625 1.3125-3.4375 0.5-0.3125 2.75-0.6875 0.1875-2.0625-0.3125-0.625-0.1875-0.3125-2.25-2-0.5625-1.625-0.8125 0.375-0.25z" fill="url(#linearGradient3261)"/>
  <path id="path3210" d="m104.35 32.553-1.4375-0.8125 0.125-2.75 1.5-1.6875 2.5625-0.625 0.0625 2.125h1.4375l1.75-0.5-0.1875-2.25 2.25-0.3125 3 0.6875 0.0625 1.8125 2.1875 1-0.0625-2.5 1.1875 0.875 0.9375 1.4375 0.1875 1.625-0.1875 1.9375-1.75-1.625-3.5-1.4375-3.5625-0.0625-2.75 0.8125-2.625 1.1875-1.1875 1.0625z" fill="url(#linearGradient3263)"/>
  <path id="path3212" d="m100.79 33.615-0.3125-0.9375 0.375-2.125 2.125 0.625 0.25 0.5625-1.9375 0.5-0.5 1.375z" fill-opacity=".15686"/>
  <path id="path3214" d="m102.85 31.178-2.125-0.5-0.0625-2.5625 2.1875 0.75v2.3125z" fill-opacity=".15686"/>
  <path id="path3216" d="m108.91 26.803-0.125-2.5625 1.25 1.75 0.3125 2.25-1.4375-1.4375z" fill-opacity=".15686"/>
  <path id="path3218" d="m119.85 30.615v2.25l2.75 0.4375-0.1875-2.5625-2.5625-0.125z" fill-opacity=".15686"/>
  <path id="path3221" d="m104.35 32.553-1.4375-0.8125 0.125-2.75 1.5-1.6875 2.5625-0.625 0.0625 2.125h1.4375l1.75-0.5-0.1875-2.25 2.25-0.3125 3 0.6875 0.0625 1.8125 2.1875 1-0.0625-2.5 1.1875 0.875 0.9375 1.4375 0.1875 1.625-0.1875 1.9375-1.75-1.625-3.5-1.4375-3.5625-0.0625-2.75 0.8125-2.625 1.1875-1.1875 1.0625z" fill-opacity=".15686"/>
  <path id="path3223" d="m100.22 33.115-0.0625 1.0625 0.125 5.25 2.8125 2.5625 3.0625 1.1875 7.0625 1 4.6875-0.8125 3.0625-1.75 1.6875-1.9375-0.0625-5.6875-0.75 1.0625-2 1.9375-0.4375-2.5-6.6875 1.3125-0.3125 2.8125-6.5625-0.5625 0.0625-3-3.125-0.75-1.625-1.5625-0.25 1.1875-0.6875-0.8125z" fill-opacity=".15686"/>
  <path id="path3225" d="m114.6 61.388 4.8125-1.25-0.4375-2.25-0.9375-2.4375-1.5625-2.375-1.1875 2.125-0.75 2.375v1.625l0.0625 2.1875z" fill="#d59163"/>
  <path id="path3266" d="m58.83 101.88-21.25 7.4375-1.4375-30.75 25.312-8.125 44.438-14 0.0625 28.625-18.313 6.625-0.0625-18.625-8.125-1-6.6875 0.9375-7.875 3.8125-5.9375 4.875-0.125 20.188z" fill="url(#linearGradient3269)"/>
  <path id="path3271" d="m82.371 72.194c0.57079 0.087815 5.4006 0.79033 5.4006 0.79033l-0.17563 18.573-5.225-2.1954v-17.168z" fill="url(#linearGradient3273)"/>
  <path id="path3275" d="m82.371 72.194c0.57079 0.087815 5.4006 0.79033 5.4006 0.79033l-0.17563 18.573-5.225-2.1954v-17.168z" fill-opacity=".15686"/>
  <path id="path3277" d="m56.293 102.73v-21.671l3.291-3.4152 4.595-3.4773 4.4708-2.1112 4.2224-1.3661 5.6506-0.93141 3.4152-0.12419 5.4022 0.43466 2.7942 0.74513-0.12419 19.746-2.4217 1.0556v-18.628l-6.4578-0.86932-5.278 0.18628-3.974 1.2419-6.4578 2.7321-6.0852 5.0296-0.49675 0.68304 0.062094 19.994-2.608 0.74513z" fill="#fff" fill-opacity=".12549"/>
  <path id="path3279" d="m59.408 82.029 26.257-7.8594 0.39516-0.30735s0.043908-0.26344-0.087814-0.43907-0.26344-0.48298-0.26344-0.48298l-24.325 6.9812-2.1075 1.8002 0.13172 0.30735z" fill="url(#linearGradient3281)"/>
  <path id="path3283" d="m58.969 85.761 26.74-8.1667 0.39516-0.30735s0.043908-0.26344-0.087814-0.43907-0.35126-0.52689-0.35126-0.52689l-26.74 8.0789 0.043906 1.3611z" fill="url(#linearGradient3285)"/>
  <path id="path3287" d="m58.969 90.459 26.783-8.6058 0.39516-0.30735s0.21954-0.35126 0.087815-0.52689-0.43907-0.52689-0.43907-0.52689l-26.959 8.9132 0.13172 1.0538z" fill="url(#linearGradient3289)"/>
  <path id="path3291" d="m59.101 94.938 26.74-9.0888 0.43907-0.21954s0.21954-0.30735 0.043908-0.65861c-0.09818-0.19636-0.30735-0.39516-0.30735-0.39516l-27.003 8.9571 0.087813 1.405z" fill="url(#linearGradient3293)"/>
  <path id="path3295" d="m58.881 98.582 27.091-8.7375 0.39516-0.30735s0.21954-0.35126 0.087815-0.52689-0.57079-0.39517-0.57079-0.39517l-27.091 8.5619 0.087814 1.405z" fill="url(#linearGradient3297)"/>
  <path id="path3299" d="m61.515 79.307 0.087815 20.505 0.39516 0.26344 0.43907-0.13172 0.6147-0.79033-0.43907-20.329-1.0977 0.48298z" fill="url(#linearGradient3301)"/>
  <path id="path3303" d="m67.399 75.619 0.17563 21.954 0.39516 0.26344 0.43907-0.13172 0.48298-0.57079-0.17563-22.305-1.3172 0.79033z" fill="url(#linearGradient3305)"/>
  <path id="path3307" d="m73.107 73.379 0.21954 21.954 0.39516 0.39516 0.70252-0.087815 0.35126-0.92205-0.26344-21.822-1.405 0.48298z" fill="url(#linearGradient3309)"/>
  <path id="path3311" d="m77.717 72.457 0.087815 21.69 0.39516 0.26344 0.43907-0.13172 0.6147-0.79033-0.043908-21.119-1.4928 0.087815z" fill="url(#linearGradient3313)"/>
  <path id="path3315" d="m83.03 72.106 0.13172 20.241 0.39516 0.26344 0.6147-0.043908 0.43907-0.87814-0.087815-19.407-1.4928-0.17563z" fill="url(#linearGradient3317)"/>
  <path id="path3319" d="m35.648 73.376 4.5962-1.591 0.44194 2.2097 5.6569-1.3258-0.44194-2.4749 5.1265-1.149 0.26516 2.0329 5.4801-1.591-0.088389-1.9445 4.331-1.3258 0.35355 1.9445 4.5962-1.5026v-2.2097l3.9775-0.88388 0.26516 1.5026 4.5078-0.53033-0.35355-2.2981 4.331-1.3258 0.35355 1.8562 4.1543-0.61872-0.17678-2.9168 4.773-1.2374 1.0607 2.0329 3.4471-0.97227-0.26516-2.3865 4.8614-1.6794-0.17678 2.6516 4.6846-1.149 0.08839-3.0052s4.331-2.1213 4.331-1.7678c0 0.35355 0.08839 4.773 0.08839 4.773l-49.763 15.645-20.064 6.364-0.44194-5.1265z" fill="url(#linearGradient3321)"/>
  <path id="path3323" d="m35.736 73.111-0.26516-2.0329 2.3865-0.88388 2.6517 1.3258-4.773 1.591z" fill="url(#linearGradient3409)"/>
  <path id="path3325" d="m40.156 71.785 3.0936-0.88388 2.9168 1.4142-5.4801 1.5026-0.53033-2.0329z" fill="url(#linearGradient3407)"/>
  <path id="path3327" d="m43.249 70.636v-1.8562l2.74 1.4142 0.26516 2.3865-3.0052-1.9445z" fill="url(#linearGradient3405)"/>
  <path id="path3329" d="m43.603 68.603 4.8614-1.2374 2.2097 1.4142-4.773 1.149-2.2981-1.3258z" fill="url(#linearGradient3403)"/>
  <path id="path3331" d="m50.674 68.78 3.182-0.44194 2.8284 1.3258-5.6569 1.4142-0.35355-2.2981z" fill="url(#linearGradient3401)"/>
  <path id="path3333" d="m53.944 66.305 0.17678 2.0329 2.74 1.2374-0.35355-2.1213-2.5633-1.149z" fill="url(#linearGradient3399)"/>
  <path id="path3335" d="m53.944 65.863 4.5962-1.0607 2.2981 1.2374-4.2426 1.5026-2.6517-1.6794z" fill="url(#linearGradient3397)"/>
  <path id="path3337" d="m60.662 65.863 2.9168-0.44194 2.5633 1.3258-4.773 1.4142-0.70711-2.2981z" fill="url(#linearGradient3395)"/>
  <path id="path3339" d="m63.225 63.211 0.35355 2.1213 2.5633 1.2374-0.17678-2.2097-2.74-1.149z" fill="url(#linearGradient3393)"/>
  <path id="path3341" d="m63.402 63.035 4.331-1.2374 2.3865 1.5026-3.8891 1.0607-2.8284-1.3258z" fill="url(#linearGradient3391)"/>
  <path id="path3343" d="m69.854 63.211 2.1213-0.17678 2.6517 1.4142-4.4194 0.61872-0.35355-1.8562z" fill="url(#linearGradient3389)"/>
  <path id="path3345" d="m71.887 63.123 0.17678-2.3865 2.3865 1.0607 0.35355 2.5633-2.9168-1.2374z" fill="url(#linearGradient3387)"/>
  <path id="path3347" d="m71.976 60.736 4.5078-1.4142 2.1213 1.3258-3.8891 1.3258-2.74-1.2374z" fill="url(#linearGradient3385)"/>
  <path id="path3349" d="m78.958 60.56 1.7678 0.17678 2.2097 1.2374-3.6239 0.7955-0.35355-2.2097z" fill="url(#linearGradient3383)"/>
  <path id="path3351" d="m80.461 57.82v2.9168l2.74 1.149-0.17678-2.74-2.5633-1.3258z" fill="url(#linearGradient3381)"/>
  <path id="path3353" d="m80.549 57.82 2.5633 1.4142 5.0381-1.3258-2.74-1.591-4.8614 1.5026z" fill="url(#linearGradient3379)"/>
  <path id="path3355" d="m87.886 57.908 1.7678-0.44194 2.4749 1.4142-3.4471 0.88388-0.7955-1.8562z" fill="url(#linearGradient3377)"/>
  <path id="path3357" d="m89.565 57.554-0.26516-2.2097 2.6516 1.2374-0.088388 2.1213-2.2981-1.149z" fill="url(#linearGradient3375)"/>
  <path id="path3359" d="m89.3 55.522 5.6569-2.3865 2.3865 1.6794-5.3917 2.0329-2.6516-1.3258z" fill="url(#linearGradient3373)"/>
  <path id="path3361" d="m96.901 54.726 2.2097 0.26516 2.74 1.3258-5.0381 1.4142 0.088388-3.0052z" fill="url(#linearGradient3371)"/>
  <path id="path3363" d="m99.111 54.814 0.17678-2.5633 2.2981 1.2374-0.17678 2.74-2.2981-1.4142z" fill="url(#linearGradient3369)"/>
  <path id="path3365" d="m98.934 51.809 4.6846-1.4142 2.2981 1.4142-4.5078 1.6794-2.4749-1.6794z" fill="url(#linearGradient3367)"/>
 </g>
 <g id="layer1">
  <path id="path2312" d="m111.55 24.031c-0.95231 0.006442-1.8935 0.054855-2.8438 0.09375l0.125 2.625c-0.47436 0.28324-1.0985 0.24648-1.625 0.40625l-0.03125-0.53125-1.9062-1.7812c-1.4555 0.75464-3.0105 1.0515-4.9062 3.1562l0.1875 2.4688c-0.80482 2.8712-0.5589 6.0809-0.375 9.0312 0.43126 0.91544 1.2302 1.5367 2.0312 2.125l-0.28125 9.1562-3.3125 0.9375 0.125 2.875-1.3438-0.25-2.5938-1.4688-5.9688 2.375 0.28125 2.0625-1.125 0.28125-2.4688-1.375-5.5938 1.4688 0.4375 2.7812h-1.3125l-0.28125-0.03125-2.375-1.4688-4.9062 1.5938 0.3125 2.125-1.7188 0.28125-2.5-1.375-4.5312 1.1875 0.3125 2.4375-2.3438 0.65625-2.5625-1.3125-4.7188 1.375 0.0625 2.0938-2.75 0.625v-0.03125l-0.1875 0.0625-2.4375-1.4375-5.375 1.2812 0.09375 2.1562-2.3438 0.75-0.375-0.34375-2.375-1.2812-2.1562 0.59375-0.03125-0.5c0.68184-0.54852 1.2488-1.1905 1.5938-1.9375 0.07214-3.285-0.10464-5.8362-0.15625-8.75-0.026615-1.0325-0.37601-2.0868-1-3.0312-0.7968-1.0787-1.546-1.3462-2.2812-1.9062l-2.0312 0.71875v0.71875c-0.641-0.34389-1.164-0.2987-1.75-0.3125l-0.125-0.5625-1.1562-2.1562c-0.94495-0.14802-1.8914-0.19394-2.8438-0.1875-0.95231 0.006442-1.8935 0.054855-2.8438 0.09375l0.125 2.625c-0.47436 0.28324-1.0985 0.24648-1.625 0.40625l-0.03125-0.53125-1.9062-1.7812c-1.4555 0.75464-3.0105 1.0515-4.9062 3.1562l0.1875 2.4688c-0.80482 2.8712-0.5589 6.0809-0.375 9.0312 0.43126 0.91544 1.2302 1.5367 2.0312 2.125l-1.375 40.5c6.1445 6.8036 17.688 5.6122 22.562 0.34375l-0.0625-1.4062 21.344-7.625-0.03125-3.1875 2.3125-0.75v1.9375c0.49148 0.53636 1.2033 0.36006 1.5938-0.625l-0.03125-1.7812 4.4375-1.4688 0.03125 1.75c0.6889 0.59154 0.90171 0.58704 1.5625-0.75v-1.5l3.9688-1.2812v1.4375c0.54448 0.55497 1.7407 0.39685 1.8125-0.875v-1.125l2.6875-0.875c-0.002163 0.26955 0.002163 1.3474 0 1.5312 0.41352 0.39451 0.98789 0.53097 1.75-0.8125v-1.3125l3.6562-1.1562v1.5625c1.728 0.56686 1.6097-0.43421 1.6875-0.65625v-1.3438l2.8438 1.2812 17.906-6.5c6.2098 2.7902 14.141 1.2001 17.969-2.9375l-2.0938-41.031c0.68184-0.54852 1.2488-1.1905 1.5938-1.9375 0.07214-3.285-0.10464-5.8362-0.15625-8.75-0.02661-1.0325-0.37601-2.0868-1-3.0312-0.7968-1.0787-1.546-1.3462-2.2812-1.9062l-2.0312 0.71875v0.71875c-0.641-0.34389-1.164-0.2987-1.75-0.3125l-0.125-0.5625-1.1562-2.1562c-0.94495-0.14802-1.8914-0.19394-2.8438-0.1875zm-0.8125 0.4375c0.35909-0.010672 0.70865 0.002941 1.125 0 0.83269-0.005882 1.5819 0.036478 2.375 0.21875l0.6875 1.25c-1.4774-0.29036-2.7448-0.71304-4.6562-0.21875l-0.65625-1.125c0.39731-0.079369 0.76591-0.11433 1.125-0.125zm-1.7188 0.1875 0.84375 1.25 0.28125 1.875-0.96875-1.2188-0.15625-1.9062zm-3.875 0.6875 1.1875 1.125c-1.4283 0.39652-2.4203 0.77562-3.4062 2.1875l-1.6562-0.90625c1.0327-1.29 2.2138-1.7462 3.875-2.4062zm7 0.6875c1.069 0.020278 2.0159 0.27838 3.0312 0.46875l0.125 1.75c0.8766 0.29564 2.0161 1.2598 2.5 1.2188l-0.1875-2.625c0.80704 0.5635 1.4837 1.3286 1.8125 1.9375 0.354 0.6557 0.45444 1.3176 0.21875 2.0625l-0.0625 1.3438c-2.1993-2.6-5.4301-3.2891-8.6875-2.9062-2.3691 0.39254-4.8861 1.1536-6.5938 2.9375l-1.0938-0.6875-0.0625-0.25-0.09375-2c0.8773-1.4431 2.2381-1.9631 3.7812-2.4062l0.21875 2.0312c0.71643 0.023189 1.5169 0.043474 3.4062-0.5625l-0.21875-2.0938c0.62088-0.20308 1.266-0.18889 1.9062-0.21875zm7.25 0.46875c0.74088 0.54109 1.4189 0.7201 1.9688 1.375 0.53981 0.64297 0.89432 1.5584 0.90625 2.6562l-2.125-0.0625c0.16495-0.73397-0.08509-1.1597-0.4375-1.8125-0.3514-0.65089-0.71801-1.3441-1.5-1.9062l1.1875-0.25zm-10.438 0.5625 0.8125 1.1562c-0.73408 0.29277-1.3557 0.56483-2.2812 0.46875l-0.03125-1.2188c0.6346 0.022575 0.95934-0.077309 1.5-0.40625zm7 0.25c0.49451-0.011284 0.97424 0.12511 1.4688 0.4375l0.03125 1.2188c-0.51181-0.34465-1.1953-0.81046-1.8125-0.96875l0.03125-0.65625c0.09245-0.008844 0.1888-0.02914 0.28125-0.03125zm-15.156 0.875 1.875 0.90625 0.0625 1.9375c-0.56638-0.11587-1.0965-0.16622-1.8125-0.65625l-0.125-2.1875zm11.375 1.5c2.8529-0.048045 5.404 0.5679 7.25 2.9375 0.01822 0.29836-0.10413 0.40144-0.28125 0.59375l-0.78125-1.5312c-2.0323 0.98389-4.1184 1.8657-6.5938 1.875l-0.28125 2.875c-1.1074-0.006739-1.8512 0.092876-3.0625-0.375l-0.25-2.3438c-1.536-0.28004-2.7601-0.68295-3.5-1.1562 1.666-1.681 4.0077-2.4265 6.2812-2.8125 0.41895-0.030478 0.81119-0.055636 1.2188-0.0625zm10.188 1.1562-0.03125 2.25-2.4375-0.40625 0.09375-1.75 2.375-0.09375zm-21.406 0.1875 1.7812 0.40625 0.125 0.25-1.8438 0.46875-0.28125 1.2812c-0.09966-0.67146-0.00722-1.7325 0.21875-2.4062zm2.3438 1.0312c0.70723 0.85916 1.8874 1.3994 4 1.8438l-1.5 0.75c-1.5227-0.50402-3.0441 0.019614-4.2188-2l1.7188-0.59375zm14.906 0.09375 0.6875 1.9062c-2.1911 0.62214-3.8373 1.3829-6.1562 1.3125l-0.4375-1.4375c1.8942-0.17501 3.7871-0.66653 5.9062-1.7812zm1.75 1.0312 2.4375 0.25c-0.21681 1.4656-1.3776 2.4121-2.5 3.2188l-0.28125-2.375-0.25-0.5625c0.33799-0.14666 0.47163-0.21578 0.59375-0.53125zm-18.781 0.1875c1.0654 1.4403 2.8997 1.3525 4.5 1.9375l-0.0625 2.6562c1.3694 0.43696 2.5061 0.73035 7 0.84375l0.09375-2.7188c2.4604 0.05808 4.3336-0.89354 6.5312-1.5l0.40625 2.8438c1.2543-0.81356 2.1669-1.3858 2.8125-2.75 0.14014 1.708 0.01405 2.6704-0.125 4.4375-2.2715 3.6743-6.8109 4.6047-10.75 4.6562-3.8501-0.19847-8.3291-0.91191-10.719-4.3438-0.17062-2.1406-0.8098-4.3303-0.375-5.9062l0.4375 1.0625 0.25-1.2188zm10.719 0.75 0.46875 1.5938-0.1875 2.3438-0.34375-1.6875 0.0625-2.25zm-3.9688 0.0625 0.0625 1.8438-1.875 1.125 0.09375-1.8125 1.7188-1.1562zm0.40625 2.2188c1.28 0.48679 2.1 0.42697 3.2188 0.4375l0.25 1.4062c-1.9195 0.0833-3.6533-0.040307-5.4062-0.75l1.9375-1.0938zm-5.5 5.5c2.7066 1.5593 5.5561 2.1742 8.625 2.3125 3.2591 0.020057 6.4213-0.35389 9.1875-2.1875 0.85776 6.9023 1.8621 33.222 2.2812 40.188-6.8461 5.1555-12.692 4.6493-16.75 2.8438l-0.0625-28.438v-5l-2.5625-1.3125-1.1562 0.3125c0.12545-3.2663 0.28096-7.1616 0.4375-8.7188zm0.375 8.8125 2.3125 0.96875-4.1875 1.375-1.9375-0.96875 3.8125-1.375zm2.4688 1.2812v4.3438l-69.375 21.781-0.25-4.7812 4.0312-1.4375 0.28125 2.25 6.1562-1.5-0.28125-2.2812 4.5938-1.0625 0.125 2.0625 6.0938-1.6875-0.25-2.0938 3.9688-1.25 0.1875 2.125 5.375-1.5312-0.0625-2.2188 3.6562-1.1562 0.21875 1.8438 4.8125-0.75-0.21875-2.5 3.9062-1.0625 0.375 1.9375 4.3125-0.78125-0.0625-2.6875 4.4688-1.25 0.59375 1.9062 4.0625-1 0.03125-2.4062 3.9688-1.6562 0.40625 2.9062 5.0625-1.4375 0.0625-3.125 3.75-1.5zm-6.375 0.5625 1.9688 0.9375 0.09375 2.1875-2.125-1.0938 0.0625-2.0312zm17.031 0.25c-1.366 2.5197-2.3157 3.8137-2.0625 8.8438l5.4062-1.3125c-0.47427-1.557-0.70093-2.679-1.125-4.25-0.51374-1.5813-1.1435-2.0368-2.2188-3.2812zm-91.031 0.125c0.35909-0.010672 0.70865 0.002941 1.125 0 0.83269-0.005882 1.5819 0.036478 2.375 0.21875l0.6875 1.25c-1.4774-0.29036-2.7448-0.71304-4.6562-0.21875l-0.65625-1.125c0.39731-0.079369 0.76591-0.11433 1.125-0.125zm-1.7188 0.1875 0.84375 1.25 0.28125 1.875-0.96875-1.2188-0.15625-1.9062zm92.813 0.375c0.78316 0.75137 1.3329 1.6715 1.6875 2.7812 0.36808 1.152 0.62212 2.4341 0.96875 3.6875l-4.2812 1.125c0.10979-2.8284 0.25169-5.5422 1.625-7.5938zm-22.313 0.03125 2.6562 1.2188-4.8438 1.7188-2.0312-1.0625 4.2188-1.875zm-74.375 0.28125 1.1875 1.125c-1.4283 0.39652-2.4203 0.77562-3.4062 2.1875l-1.6562-0.90625c1.0327-1.29 2.2138-1.7462 3.875-2.4062zm7 0.6875c1.069 0.020278 2.0159 0.27838 3.0312 0.46875l0.125 1.75c0.8766 0.29564 2.0161 1.2598 2.5 1.2188l-0.1875-2.625c0.80704 0.5635 1.4837 1.3286 1.8125 1.9375 0.354 0.6557 0.45444 1.3176 0.21875 2.0625l-0.0625 1.3438c-2.1993-2.6-5.4301-3.2891-8.6875-2.9062-2.3691 0.39254-4.8861 1.1536-6.5938 2.9375l-1.0938-0.6875-0.0625-0.25-0.09375-2c0.8773-1.4431 2.2381-1.9631 3.7812-2.4062l0.21875 2.0312c0.71643 0.023189 1.5169 0.043474 3.4062-0.5625l-0.21875-2.0938c0.62088-0.20308 1.266-0.18889 1.9062-0.21875zm70.562 0.375 1.9688 0.375 2.0313 0.9375-4.125 1.1875 0.125-2.5zm-63.312 0.09375c0.74088 0.54109 1.4189 0.7201 1.9688 1.375 0.53981 0.64297 0.89432 1.5584 0.90625 2.6562l-2.125-0.0625c0.16494-0.73397-0.085087-1.1597-0.4375-1.8125-0.3514-0.65089-0.71801-1.3441-1.5-1.9062l1.1875-0.25zm-10.438 0.5625 0.8125 1.1562c-0.73408 0.29277-1.3557 0.56483-2.2812 0.46875l-0.03125-1.2188c0.6346 0.022575 0.95934-0.077309 1.5-0.40625zm7 0.25c0.49451-0.011284 0.97424 0.12511 1.4688 0.4375l0.03125 1.2188c-0.51181-0.34465-1.1953-0.81046-1.8125-0.96875l0.03125-0.65625c0.092448-0.008844 0.1888-0.02914 0.28125-0.03125zm59.281 0.125 1.6562 0.78125 0.25 1.7188-1.9375-1.0312 0.03125-1.4688zm-74.438 0.75 1.875 0.90625 0.0625 1.9375c-0.56638-0.11587-1.0965-0.16622-1.8125-0.65625l-0.125-2.1875zm90.313 0.0625-0.03125 28.125-15.531 5.5625 0.03125-19.781c-2.6124-0.63315-6.0049-1.1009-8.9375-1.0938-8.7979 0.021491-18.383 3.2447-25 11.438l0.09375 21.5-18.438 6.5938-1.5625-30.531 69.375-21.812zm-20.563 0.21875 2 0.9375-4.0938 1.0625-1.7812-0.90625 3.875-1.0938zm4.5312 0.90625 2.0938 1.0312-2.8125 0.59375-0.625-1.4688 1.3438-0.15625zm-62.906 0.3125c2.8529-0.048045 5.404 0.5679 7.25 2.9375 0.018219 0.29836-0.10413 0.40144-0.28125 0.59375l-0.78125-1.5312c-2.0323 0.98389-4.1184 1.8657-6.5938 1.875l-0.28125 2.875c-1.1074-0.006739-1.8512 0.092876-3.0625-0.375l-0.25-2.3438c-1.536-0.28004-2.7601-0.68295-3.5-1.1562 1.666-1.681 4.0077-2.4265 6.2812-2.8125 0.41895-0.030478 0.81119-0.055636 1.2188-0.0625zm53.906 0.09375 1.9375 0.90625 0.375 2.5625-2.25-1.1562-0.0625-2.3125zm-43.719 1.0625-0.03125 2.25-2.4375-0.40625 0.09375-1.75 2.375-0.09375zm-21.406 0.1875 1.7812 0.40625 0.125 0.25-1.8438 0.46875-0.28125 1.2812c-0.099662-0.67146-0.007221-1.7325 0.21875-2.4062zm60.5 0.21875 1.9062 0.96875-3.3125 1.0938-2.125-1.0938 3.5312-0.96875zm-58.156 0.8125c0.70723 0.85916 1.8874 1.3994 4 1.8438l-1.5 0.75c-1.5227-0.50402-3.0441 0.019614-4.2188-2l1.7188-0.59375zm14.906 0.09375 0.6875 1.9062c-2.1911 0.62214-3.8373 1.3829-6.1562 1.3125l-0.4375-1.4375c1.8941-0.17501 3.7871-0.66653 5.9062-1.7812zm47.531 0.28125 2.1875 1.0312-2.8438 0.59375-0.4375-1.5312 1.0938-0.09375zm-8.1562 0.125 1.9688 0.9375 0.3125 2.0938-2.125-1-0.15625-2.0312zm-37.625 0.625 2.4375 0.25c-0.21681 1.4656-1.3776 2.4121-2.5 3.2188l-0.28125-2.375-0.25-0.5625c0.33799-0.14666 0.47163-0.21578 0.59375-0.53125zm-18.781 0.1875c1.0654 1.4403 2.8997 1.3525 4.5 1.9375l-0.0625 2.6562c1.3694 0.43696 2.5061 0.73035 7 0.84375l0.09375-2.7188c2.4605 0.05808 4.3336-0.89354 6.5312-1.5l0.40625 2.8438c1.2543-0.81356 2.1669-1.3858 2.8125-2.75 0.14014 1.708 0.014045 2.6704-0.125 4.4375-2.2715 3.6743-6.8109 4.6047-10.75 4.6562-3.8501-0.19847-8.3291-0.91191-10.719-4.3438-0.17062-2.1406-0.8098-4.3303-0.375-5.9062l0.4375 1.0625 0.25-1.2188zm51.562 0.34375 2.1562 0.96875-3.7188 0.96875-1.75-0.875 3.3125-1.0625zm-40.844 0.40625 0.46875 1.5938-0.1875 2.3438-0.34375-1.6875 0.0625-2.25zm-3.9688 0.0625 0.0625 1.8438-1.875 1.125 0.09375-1.8125 1.7188-1.1562zm47.812 0.5625 1.3438 0.0625 2.1562 1.0312-3.0312 0.53125-0.46875-1.625zm-6.6562 0.375 2.0938 1 0.21875 1.75-2.25-1.1875-0.0625-1.5625zm-40.75 1.2812c1.28 0.48679 2.1 0.42697 3.2188 0.4375l0.25 1.4062c-1.9195 0.0833-3.6533-0.040307-5.4062-0.75l1.9375-1.0938zm35.25 0.09375 2.2188 1.1875-3.8438 1.125-2.1562-1.125 3.7812-1.1875zm5.3438 0.65625 2.2188 1.0312-4.3125 1.1562-0.28125-1.7188 2.375-0.46875zm-9.25 1 2.125 1.0312 0.0625 1.625-2-1.0625-0.1875-1.5938zm-6.0312 1.3125 2.0938 0.875-4.4375 1.0312-1.8438-0.9375 4.1875-0.96875zm5.5 0.5 2.25 1.0625-4.5312 1.125-0.3125-1.75 2.5938-0.4375zm-10.062 0.8125 2.0312 0.96875 0.09375 1.6875-1.9375-1.0312-0.1875-1.625zm38 0.53125c2.9478 0.003833 5.7484 0.39281 8.25 1.0938l-0.125 19.656-1.75 0.625 0.03125-18.719c-2.5818-0.48893-5.4401-0.80989-7.9688-0.75-7.5859 0.17966-14.899 3.0398-21.656 9.9688l-0.03125 20.062-1.8438 0.65625-0.125-21.188c6.3204-8.0649 16.375-11.418 25.219-11.406zm-64.25 0.59375c2.7066 1.5593 5.5561 2.1742 8.625 2.3125 3.2591 0.020057 6.4213-0.35389 9.1875-2.1875 0.85776 6.9023 1.8621 33.222 2.2812 40.188-10.268 7.7325-18.357 2.8335-21.406-0.28125 0.28684-6.892 0.64517-33.393 1.3125-40.031zm20.062 0.15625 2.375 0.90625-3.8438 1.1875-0.0625-1.4062 1.5312-0.6875zm5.9688 0.53125 2.4062 1.2188-4.875 1.1562-0.25-1.8125 2.7188-0.5625zm36.375 1.4375c0.92112-0.013432 1.5364 0.016646 2.4688 0.09375v1.1562l-2.9062 0.84375v-2.0625c0.14734-0.004517 0.28993-0.029098 0.4375-0.03125zm-0.78125 0.03125-0.0625 20.906c-0.49321 0.92876-0.7664 0.86929-1.0312 0.65625l0.03125-21.5c0.35514-0.029568 0.70594-0.047043 1.0625-0.0625zm-1.3438 0.09375c-0.003487 0.8417 0.003487 1.5357 0 2.4688l-3.0312 0.90625-0.03125-2.9062c1.0114-0.21795 2.0383-0.37246 3.0625-0.46875zm4.9375 0c0.094766 0.009217 0.21405 0.021034 0.3125 0.03125v0.90625l-0.3125 0.09375v-1.0312zm0.59375 0.0625c0.33646 0.036865 0.67237 0.10898 1.0312 0.15625l0.09375 19.188c-0.30101 0.83406-0.86158 0.28748-1.1562 0.25l0.03125-19.594zm1.4062 0.1875c0.1521 0.021361 0.28518 0.039429 0.4375 0.0625l-0.4375 0.125v-0.1875zm0.96875 0.21875c0.24229 0.29274 0.52852 0.56144-0.03125 0.96875l-0.9375 0.28125v-0.96875l0.96875-0.28125zm-11.219 0.03125 0.3125 21.688c-0.17715 1.212-0.82869 0.50486-1.2188 0.53125l-0.25-21.906c0.38908-0.1071 0.76512-0.22424 1.1562-0.3125zm11.656 0c0.37622 0.067953 0.78519 0.10972 1.125 0.1875l0.28125 17.875-2.125-0.875 0.78125-0.25c0.80734-0.31948 0.74718-1.5296-0.15625-1.6562l-1.25 0.40625v-2.375l1.4375-0.5c0.37502-0.017518 0.7071-1.5469-0.15625-1.625l-1.3125 0.4375v-2.3125l1.1875-0.375c1.035-0.78846 0.44674-1.8016-0.09375-1.8125l-1.0938 0.34375v-2.375l1.3125-0.40625c0.48917-0.78108 0.3208-1.5024-0.25-1.6562l-1.0938 0.3125v-1.8125l1.2188-0.34375c0.3172-0.42567 0.33545-0.814 0.1875-1.1875zm-13.094 0.40625 0.03125 2.9375-3.9688 1.1875v-2.6562c1.2964-0.60694 2.6154-1.0887 3.9375-1.4688zm10 0.34375v0.96875l-3.5625 1.0625v-1.0312l3.5625-1zm0 1.2812 0.03125 1.8438-0.3125 0.09375-0.03125-1.8438 0.3125-0.09375zm-14.312 0.03125 0.125 21.656c-0.23855 0.59856-0.58249 0.70252-0.9375 0.71875l-0.21875-21.875c0.33688-0.18096 0.69247-0.3352 1.0312-0.5zm13.656 0.15625-0.03125 1.875-2.875 0.84375v-1.8438l2.9062-0.875zm-4.5938 0.03125c-0.001413 0.3812-0.029837 0.60907-0.03125 1l-2.9688 0.90625-0.03125-1.0312 3.0312-0.875zm-10.375 0.46875 0.03125 2.2812-4.5 1.3125v-0.59375c1.4702-1.1732 2.9573-2.1664 4.4688-3zm18.312 0.59375c0.47838 0.46932 0.69176 0.88971 0 1.125l-0.96875 0.28125-0.03125-1.125 1-0.28125zm-12.656 0.28125v1.0625l-3.9375 1.1875v-1.0938l3.9375-1.1562zm4.6875 0c-0.002648 0.73802 0.002648 1.1192 0 1.875l-2.9375 0.90625-0.03125-1.9062 2.9688-0.875zm5.3125 0.53125v1.125l-3.5938 1.0938v-1.125l3.5938-1.0938zm-10 0.84375v1.9375l-3.9375 1.1875v-1.9375l3.9375-1.1875zm-5.625 0.28125v1.0625l-4.4688 1.3438-0.03125-1.125 4.5-1.2812zm15.625 0.375v2.4375l-0.28125 0.09375-0.03125-2.4688 0.3125-0.0625zm-5.3125 0.09375c-0.001633 0.46676 0.001633 0.68889 0 1.1562l-2.9375 0.875v-1.125l2.9375-0.90625zm4.5938 0.09375-0.03125 2.5-2.8438 0.96875v-2.5938l2.875-0.875zm-19.812 0.25 0.34375 19.969c-0.24969 0.28281-0.44853 0.86929-0.875 0.65625l-0.25-20c0.25474-0.22139 0.52516-0.41438 0.78125-0.625zm4.9062 0.5625 0.03125 1.9375-4.4688 1.3438-0.03125-1.9688 4.4688-1.3125zm-5.9688 0.34375v1.125l-1.75 0.53125c0.56487-0.56513 1.1155-1.1155 1.6875-1.625l0.0625-0.03125zm11.625 0.1875v1.125l-3.9688 1.1875v-1.125l3.9688-1.1875zm4.6562 0.0625c-0.003752 1.0723 0.003752 1.6223 0 2.6562l-2.875 0.96875-0.0625-2.75 2.9375-0.875zm8.1875 0.21875c0.1227 0.44578 0.47494 0.91424-0.0625 1.25l-1.125 0.375v-1.25l1.1875-0.375zm-54.344 0.53125c-1.366 2.5197-2.3469 3.8137-2.0938 8.8438l5.4062-1.3125c-0.47427-1.557-0.66968-2.679-1.0938-4.25-0.51374-1.5813-1.1435-2.0368-2.2188-3.2812zm29.875 0.40625 0.03125 2-2.2812 0.6875v-1.9375c0.031152-0.032208 0.062575-0.061716 0.09375-0.09375l2.1562-0.65625zm21.594 0.03125v1.1562l-3.625 1.1562 0.03125-1.125 3.5938-1.1875zm-9.9688 0.21875v2.8125l-3.9375 1.3125-0.03125-2.9375 3.9688-1.1875zm-41.438 0.03125c0.78316 0.75137 1.3329 1.6715 1.6875 2.7812 0.36808 1.152 0.62212 2.4341 0.96875 3.6875l-4.2812 1.125c0.10978-2.8284 0.25169-5.5422 1.625-7.5938zm35.812 0.15625 0.03125 1.1562-4.5 1.375v-1.1562l4.4688-1.375zm15.594 1.0312 0.03125 2.3438-0.3125 0.125v-2.4062l0.28125-0.0625zm-0.75 0.21875v2.4062l-2.875 0.9375v-2.4062l2.875-0.9375zm-4.5625 0.125c-0.001501 0.41054-0.029749 0.6645-0.03125 1.0625l-2.8438 0.90625v-1l2.875-0.96875zm-10.25 0.125 0.03125 3-4.4688 1.5-0.03125-3.125 4.4688-1.375zm-6 0.3125v1.1562l-2.25 0.6875-0.03125-1.1562 2.2812-0.6875zm16.219 0.875c-0.003531 0.92833 0.003531 1.6743 0 2.5l-2.8125 0.9375-0.03125-2.5 2.8438-0.9375zm8.3125 0c0.22984 0.19646 0.45866 0.92949 0.09375 1.0938l-1.3438 0.46875-0.03125-1.125 1.2812-0.4375zm-12.906 0.25v0.96875l-3.9688 1.25v-0.90625l3.9688-1.3125zm-11.625 0.375 0.03125 3.1875-2.2812 0.78125v-3.25l2.25-0.71875zm21.594 0.34375v1.125l-3.6562 1.25v-1.125l3.6562-1.25zm-9.9688 0.5v2.5312l-3.9375 1.3438-0.03125-2.625 3.9688-1.25zm-5.5938 0.625v0.875l-4.4688 1.4375v-0.78125l4.4688-1.5312zm15.562 0.28125v2.3438l-0.28125-0.09375v-2.1562l0.28125-0.09375zm-0.8125 0.28125v2.2188l0.15625 0.0625-3 0.9375v-2.25l2.8438-0.96875zm-4.5625 0.15625c-0.001545 0.35438 0.001545 0.76561 0 1.0938l-2.7812 0.9375-0.03125-1.0938 2.8125-0.9375zm-10.188 0.40625 0.03125 2.6562-4.4375 1.5-0.03125-2.7188 4.4375-1.4375zm18.25 0.84375c1.209 0.30695 0.49774 0.90506 0.1875 1.1875l-0.9375 0.28125-0.25-0.09375v-1.0625l1-0.3125zm-24.25 0.0625v0.75l-2.25 0.71875-0.03125-0.71875 2.2812-0.75zm16.188 0.0625c-0.003178 0.66006-0.028072 1.7268-0.03125 2.25l-2.7188 0.875-0.03125-2.1562 2.7812-0.96875zm-4.5938 0.15625 0.03125 1.0938-3.9688 1.3438v-1.125l3.9375-1.3125zm9.9688 0.59375v1.2188l-3.6562 1.1562v-1.2188l3.6562-1.1562zm-21.562 0.1875 0.03125 2.7812-2.2812 0.75v-2.8125l2.25-0.71875zm11.625 0.59375v2.1562l-3.9688 1.2812v-2.0625l3.9688-1.375zm-5.5938 0.5 0.03125 1.0938-4.4688 1.5v-1.0938l4.4375-1.5zm10.125 0.4375c-0.001721 0.27529 0.001721 0.9912 0 1.2188l-2.7188 0.875v-1.1875l2.7188-0.90625zm-10.094 0.96875 0.03125 2.0312-4.4688 1.4375v-1.9688l4.4375-1.5zm5.5625 0.5 0.03125 1.1875-3.9688 1.2812-0.03125-1.1875 3.9688-1.2812zm-11.594 0.125v1.0625l-2.25 0.78125-0.03125-1.0938 2.2812-0.75zm0.03125 1.4062v1.9062l-2.2812 0.75v-1.875l2.2812-0.78125zm6.0312 0.25v1.1875l-4.4375 1.4375v-1.1875l4.4375-1.4375zm-6.0312 1.9688v1.125l-2.2812 0.75v-1.1562l2.2812-0.71875z" fill-rule="evenodd"/>
 </g>
</svg>
