<?xml version="1.0" encoding="UTF-8"?>
<!-- Created with Inkscape (http://www.inkscape.org/) -->
<svg id="svg2" width="128" height="128" version="1.0" xmlns="http://www.w3.org/2000/svg" xmlns:cc="http://creativecommons.org/ns#" xmlns:dc="http://purl.org/dc/elements/1.1/" xmlns:rdf="http://www.w3.org/1999/02/22-rdf-syntax-ns#" xmlns:xlink="http://www.w3.org/1999/xlink">
 <defs id="defs4">
  <linearGradient id="linearGradient2338">
   <stop id="stop2340" stop-color="#b1b1b1" offset="0"/>
   <stop id="stop2342" stop-color="#e4e4e4" offset="1"/>
  </linearGradient>
  <linearGradient id="linearGradient2705" x1="89.531" x2="95.219" y1="114.97" y2="122.31" gradientUnits="userSpaceOnUse" xlink:href="#linearGradient2338"/>
  <linearGradient id="linearGradient2709" x1="96.564" x2="98.399" y1="113.87" y2="103.48" gradientUnits="userSpaceOnUse" xlink:href="#linearGradient2338"/>
  <linearGradient id="linearGradient2713" x1="99.01" x2="104.21" y1="118.89" y2="108.98" gradientUnits="userSpaceOnUse" xlink:href="#linearGradient2338"/>
  <linearGradient id="linearGradient2717" x1="62.011" x2="106.47" y1="98.707" y2="71.309" gradientUnits="userSpaceOnUse" xlink:href="#linearGradient2338"/>
  <linearGradient id="linearGradient2721" x1="51.37" x2="54.734" y1="84.641" y2="96.016" gradientUnits="userSpaceOnUse" xlink:href="#linearGradient2338"/>
  <linearGradient id="linearGradient2725" x1="63.173" x2="62.99" y1="81.522" y2="80.727" gradientUnits="userSpaceOnUse" xlink:href="#linearGradient2338"/>
  <linearGradient id="linearGradient2729" x1="76.016" x2="76.138" y1="80.788" y2="80.391" gradientUnits="userSpaceOnUse" xlink:href="#linearGradient2338"/>
  <linearGradient id="linearGradient2733" x1="84.761" x2="85.709" y1="77.364" y2="78.587" gradientUnits="userSpaceOnUse" xlink:href="#linearGradient2338"/>
  <linearGradient id="linearGradient2737" x1="97.726" x2="97.909" y1="75.59" y2="74.856" gradientUnits="userSpaceOnUse" xlink:href="#linearGradient2338"/>
  <linearGradient id="linearGradient2741" x1="113.01" x2="113.08" y1="79.504" y2="78.587" gradientUnits="userSpaceOnUse" xlink:href="#linearGradient2338"/>
  <linearGradient id="linearGradient2745" x1="34.614" x2="36.815" y1="95.771" y2="105.07" gradientUnits="userSpaceOnUse" xlink:href="#linearGradient2338"/>
  <linearGradient id="linearGradient2749" x1="33.391" x2="34.186" y1="102.13" y2="102.31" gradientUnits="userSpaceOnUse" xlink:href="#linearGradient2338"/>
  <linearGradient id="linearGradient2753" x1="38.161" x2="38.589" y1="96.78" y2="102.71" gradientUnits="userSpaceOnUse" xlink:href="#linearGradient2338"/>
  <linearGradient id="linearGradient2757" x1="19.998" x2="33.452" y1="83.601" y2="109.65" gradientUnits="userSpaceOnUse" xlink:href="#linearGradient2338"/>
  <linearGradient id="linearGradient2761" x1="12.904" x2="11.925" y1="77.241" y2="78.587" gradientUnits="userSpaceOnUse" xlink:href="#linearGradient2338"/>
  <linearGradient id="linearGradient2765" x1="26.48" x2="26.052" y1="80.544" y2="81.4" gradientUnits="userSpaceOnUse" xlink:href="#linearGradient2338"/>
  <linearGradient id="linearGradient2769" x1="40.546" x2="41.647" y1="100.11" y2="100.05" gradientUnits="userSpaceOnUse" xlink:href="#linearGradient2338"/>
  <linearGradient id="linearGradient2773" x1="43.909" x2="43.237" y1="104.33" y2="104.82" gradientUnits="userSpaceOnUse" xlink:href="#linearGradient2338"/>
  <linearGradient id="linearGradient2777" x1="39.017" x2="53.633" y1="84.947" y2="98.829" gradientUnits="userSpaceOnUse" xlink:href="#linearGradient2338"/>
  <linearGradient id="linearGradient2781" x1="37.182" x2="41.952" y1="64.337" y2="69.413" gradientUnits="userSpaceOnUse" xlink:href="#linearGradient2338"/>
  <linearGradient id="linearGradient2785" x1="17.49" x2="21.16" y1="42.199" y2="47.581" gradientUnits="userSpaceOnUse" xlink:href="#linearGradient2338"/>
  <linearGradient id="linearGradient2789" x1="28.193" x2="32.535" y1="47.459" y2="42.75" gradientUnits="userSpaceOnUse" xlink:href="#linearGradient2338"/>
  <linearGradient id="linearGradient2793" x1="23.667" x2="22.658" y1="43.055" y2="36.084" gradientUnits="userSpaceOnUse" xlink:href="#linearGradient2338"/>
  <linearGradient id="linearGradient2797" x1="49.413" x2="50.086" y1="60.699" y2="56.877" gradientUnits="userSpaceOnUse" xlink:href="#linearGradient2338"/>
  <linearGradient id="linearGradient2801" x1="43.359" x2="45.928" y1="58.895" y2="56.999" gradientUnits="userSpaceOnUse" xlink:href="#linearGradient2338"/>
  <linearGradient id="linearGradient2805" x1="41.433" x2="41.952" y1="59.781" y2="61.616" gradientUnits="userSpaceOnUse" xlink:href="#linearGradient2338"/>
  <linearGradient id="linearGradient2809" x1="38.834" x2="39.506" y1="61.83" y2="59.934" gradientUnits="userSpaceOnUse" xlink:href="#linearGradient2338"/>
  <linearGradient id="linearGradient2813" x1="35.653" x2="37.244" y1="60.913" y2="58.65" gradientUnits="userSpaceOnUse" xlink:href="#linearGradient2338"/>
  <linearGradient id="linearGradient2817" x1="33.635" x2="34.247" y1="58.161" y2="57.182" gradientUnits="userSpaceOnUse" xlink:href="#linearGradient2338"/>
  <linearGradient id="linearGradient2821" x1="29.538" x2="32.412" y1="56.571" y2="56.082" gradientUnits="userSpaceOnUse" xlink:href="#linearGradient2338"/>
  <linearGradient id="linearGradient2825" x1="30.945" x2="31.74" y1="53.513" y2="55.103" gradientUnits="userSpaceOnUse" xlink:href="#linearGradient2338"/>
  <linearGradient id="linearGradient2829" x1="31.984" x2="34.247" y1="52.351" y2="49.293" gradientUnits="userSpaceOnUse" xlink:href="#linearGradient2338"/>
  <linearGradient id="linearGradient2833" x1="37.61" x2="38.344" y1="52.351" y2="51.434" gradientUnits="userSpaceOnUse" xlink:href="#linearGradient2338"/>
  <linearGradient id="linearGradient2837" x1="38.772" x2="38.895" y1="49.844" y2="51.617" gradientUnits="userSpaceOnUse" xlink:href="#linearGradient2338"/>
  <linearGradient id="linearGradient2841" x1="41.891" x2="41.83" y1="49.783" y2="49.11" gradientUnits="userSpaceOnUse" xlink:href="#linearGradient2338"/>
  <linearGradient id="linearGradient2845" x1="45.622" x2="48.068" y1="54.308" y2="53.146" gradientUnits="userSpaceOnUse" xlink:href="#linearGradient2338"/>
  <linearGradient id="linearGradient2849" x1="39.384" x2="43.359" y1="59.445" y2="54.553" gradientUnits="userSpaceOnUse" xlink:href="#linearGradient2338"/>
  <linearGradient id="linearGradient2853" x1="34.736" x2="42.319" y1="54.553" y2="50.516" gradientUnits="userSpaceOnUse" xlink:href="#linearGradient2338"/>
  <linearGradient id="linearGradient2857" x1="67.76" x2="67.638" y1="31.253" y2="26.482" gradientUnits="userSpaceOnUse" xlink:href="#linearGradient2338"/>
  <linearGradient id="linearGradient2861" x1="69.717" x2="73.08" y1="33.271" y2="26.544" gradientUnits="userSpaceOnUse" xlink:href="#linearGradient2338"/>
  <linearGradient id="linearGradient2865" x1="62.745" x2="67.821" y1="31.803" y2="36.023" gradientUnits="userSpaceOnUse" xlink:href="#linearGradient2338"/>
  <linearGradient id="linearGradient2871" x1="35.898" x2="35.776" y1="25.137" y2="25.932" gradientUnits="userSpaceOnUse" xlink:href="#linearGradient2338"/>
  <linearGradient id="linearGradient2875" x1="45.194" x2="43.971" y1="28.134" y2="29.54" gradientUnits="userSpaceOnUse" xlink:href="#linearGradient2338"/>
  <linearGradient id="linearGradient2879" x1="52.899" x2="53.511" y1="34.249" y2="32.659" gradientUnits="userSpaceOnUse" xlink:href="#linearGradient2338"/>
  <linearGradient id="linearGradient2883" x1="58.954" x2="60.116" y1="37.918" y2="36.818" gradientUnits="userSpaceOnUse" xlink:href="#linearGradient2338"/>
  <linearGradient id="linearGradient2887" x1="64.702" x2="64.029" y1="39.875" y2="40.915" gradientUnits="userSpaceOnUse" xlink:href="#linearGradient2338"/>
  <linearGradient id="linearGradient2893" x1="51.493" x2="67.393" y1="35.411" y2="66.6" gradientUnits="userSpaceOnUse" xlink:href="#linearGradient2338"/>
  <linearGradient id="linearGradient2897" x1="67.148" x2="79.502" y1="39.264" y2="62.747" gradientUnits="userSpaceOnUse" xlink:href="#linearGradient2338"/>
  <linearGradient id="linearGradient2901" x1="74.976" x2="74.12" y1="44.156" y2="45.441" gradientUnits="userSpaceOnUse" xlink:href="#linearGradient2338"/>
  <linearGradient id="linearGradient2905" x1="80.174" x2="81.764" y1="54.002" y2="53.635" gradientUnits="userSpaceOnUse" xlink:href="#linearGradient2338"/>
  <linearGradient id="linearGradient2909" x1="83.477" x2="82.498" y1="61.769" y2="62.136" gradientUnits="userSpaceOnUse" xlink:href="#linearGradient2338"/>
  <linearGradient id="linearGradient2913" x1="61.155" x2="61.706" y1="52.901" y2="53.207" gradientUnits="userSpaceOnUse" xlink:href="#linearGradient2338"/>
  <linearGradient id="linearGradient2917" x1="63.54" x2="65.13" y1="45.563" y2="46.236" gradientUnits="userSpaceOnUse" xlink:href="#linearGradient2338"/>
  <linearGradient id="linearGradient2921" x1="79.685" x2="80.174" y1="33.271" y2="34.188" gradientUnits="userSpaceOnUse" xlink:href="#linearGradient2338"/>
  <linearGradient id="linearGradient2925" x1="75.404" x2="92.834" y1="39.264" y2="46.664" gradientUnits="userSpaceOnUse" xlink:href="#linearGradient2338"/>
  <linearGradient id="linearGradient2929" x1="106.29" x2="105.74" y1="25.443" y2="26.238" gradientUnits="userSpaceOnUse" xlink:href="#linearGradient2338"/>
  <linearGradient id="linearGradient2935" x1="114.12" x2="112.89" y1="31.253" y2="31.65" gradientUnits="userSpaceOnUse" xlink:href="#linearGradient2338"/>
  <linearGradient id="linearGradient2939" x1="114.67" x2="115.16" y1="36.695" y2="36.695" gradientUnits="userSpaceOnUse" xlink:href="#linearGradient2338"/>
  <linearGradient id="linearGradient2943" x1="107.63" x2="106.35" y1="30.029" y2="39.57" gradientUnits="userSpaceOnUse" xlink:href="#linearGradient2338"/>
  <linearGradient id="linearGradient2947" x1="100.78" x2="112.22" y1="33.638" y2="46.725" gradientUnits="userSpaceOnUse" xlink:href="#linearGradient2338"/>
  <linearGradient id="linearGradient2955" x1="99.438" x2="98.674" y1="24.159" y2="24.709" gradientUnits="userSpaceOnUse" xlink:href="#linearGradient2338"/>
  <linearGradient id="linearGradient2959" x1="101.58" x2="100.78" y1="27.522" y2="27.706" gradientUnits="userSpaceOnUse" xlink:href="#linearGradient2338"/>
  <linearGradient id="linearGradient2963" x1="105.98" x2="105.68" y1="31.314" y2="32.537" gradientUnits="userSpaceOnUse" xlink:href="#linearGradient2338"/>
  <linearGradient id="linearGradient2967" x1="111.91" x2="110.94" y1="36.084" y2="36.756" gradientUnits="userSpaceOnUse" xlink:href="#linearGradient2338"/>
  <linearGradient id="linearGradient2971" x1="109.35" x2="116.01" y1="46.236" y2="59.873" gradientUnits="userSpaceOnUse" xlink:href="#linearGradient2338"/>
  <linearGradient id="linearGradient2975" x1="110.94" x2="110.17" y1="40.365" y2="40.548" gradientUnits="userSpaceOnUse" xlink:href="#linearGradient2338"/>
  <linearGradient id="linearGradient2979" x1="115.83" x2="114.85" y1="48.009" y2="48.682" gradientUnits="userSpaceOnUse" xlink:href="#linearGradient2338"/>
  <linearGradient id="linearGradient2983" x1="120.23" x2="121.58" y1="58.895" y2="58.711" gradientUnits="userSpaceOnUse" xlink:href="#linearGradient2338"/>
  <filter id="filter3633">
   <feGaussianBlur id="feGaussianBlur3635" stdDeviation="2.1484375"/>
  </filter>
 </defs>
 <metadata id="metadata7">
  <rdf:RDF>
   <cc:Work rdf:about="">
    <dc:format>image/svg+xml</dc:format>
    <dc:type rdf:resource="http://purl.org/dc/dcmitype/StillImage"/>
   </cc:Work>
  </rdf:RDF>
 </metadata>
 <g id="layer2" fill-rule="evenodd">
  <path id="path3608" d="m30.094 24.219-3.8125 1.5625 37.188 23.531-6.0312 6.375 1.5312 0.6875 8.3125-2.25 14.188 11.25-10.375-18.312 18-6.0625 14.875 5.875 11.938 11.594 2.5938-2.0938-21.125-25.406-31.469 7.25-2.4375 3.6562-33.375-17.656zm36.844 2.75-6.2188 5.9062 2.0625 1.0312 7.4375-4.8438-3.2812-2.0938zm-50.125 9.4688-6.5 5.7188 6.5 2.0938-8.8438 1.9375 1.9062 5.875 6.375 6.75 5.375 25.438-16.438-10.219-3.9688 1.0312s24.895 22.852 26.625 24.062l0.1875-6.75 11.406-2.5938 15.062 9.8438 59.156-19.719s-11.947-4.4912-15.406-5.875-26.281 10.031-26.281 10.031l-7.4375-3.625-20.25 1.7188-15.906-26.125 0.84375-8.125-2.9375-6.5625-9.4688-4.9062zm78.656 70.406c-2.2016-0.1319-12.281 12.844-12.281 12.844l8.3125 2.0938 12.125-11.25s-6.239-2.5872-7.9688-3.625c-0.054054-0.03243-0.11648-0.05825-0.1875-0.0625z" fill-opacity=".66667" filter="url(#filter3633)"/>
  <path id="path2703" d="m85.189 112.28 12.353 4.1586 0.48924 8.1336-2.9354-1.1008-0.73386-1.8347-0.97848 0.61155-0.48924-1.2843-1.2231 0.91733-6.4213-2.9354-0.061155-6.6659z" fill="url(#linearGradient2705)"/>
  <path id="path2707" d="m85.373 112.28 10.458-10.519 1.3454-0.06116 1.59-1.0396 0.5504-1.4677 1.3454 1.162 0.91733-0.73386 7.0328 2.752-11.13 14.066-12.109-4.1586z" fill="url(#linearGradient2709)"/>
  <path id="path2711" d="m97.359 116.5 11.191-14.127 0.55039 6.6659-11.008 15.411-0.73386-7.9502z" fill="url(#linearGradient2713)"/>
  <path id="path2715" d="m52.288 105.07-0.79502-18.775 2.3239-2.0181 18.347-4.2809 7.2163 2.3851 14.371-8.1336 12.965 5.0147 5.8709 0.5504 0.67271 0.61155 0.79501-0.42809 1.0396 1.0396 0.18347-1.1008 4.2809 0.48924-12.843 4.8924-54.428 19.753z" fill="url(#linearGradient2717)"/>
  <path id="path2719" d="m51.432 86.109-0.061155-2.4462 0.42809-0.48924 1.8958 1.1619-2.2627 1.7735z" fill="url(#linearGradient2721)"/>
  <path id="path2723" d="m51.982 83.173 1.957 1.2843 18.347-4.4643-1.1619-1.4677-19.386 4.342 0.24462 0.30578z" fill="url(#linearGradient2725)"/>
  <path id="path2727" d="m71.246 78.587 6.5436 2.0793 1.59 1.5289-6.8494-2.0793-1.2843-1.5289z" fill="url(#linearGradient2729)"/>
  <path id="path2731" d="m77.789 80.666 14.31-7.8279 1.5289 1.4677-14.188 8.1336-1.6512-1.7735z" fill="url(#linearGradient2733)"/>
  <path id="path2735" d="m91.977 72.899 14.005 4.8924 0.67271 1.2843-13.026-4.8924-1.6512-1.2843z" fill="url(#linearGradient2737)"/>
  <path id="path2739" d="m105.92 77.792 11.742 1.3454 1.8958 1.2231-4.0974-0.42809-0.36693 1.1008-1.0396-1.1008-0.6727 0.5504-0.91733-0.73386-5.6263-0.42809-0.91733-1.5289z" fill="url(#linearGradient2741)"/>
  <path id="path2743" d="m31.067 92.591 3.7305 2.3851 2.6908 3.4247-2.4462 0.97848-4.4032-6.1767 0.42809-0.61155z" fill="url(#linearGradient2745)"/>
  <path id="path2747" d="m32.657 101.4 2.1404-1.957 2.752-0.85617-2.5685 2.3851-0.5504 2.3239-2.8743 0.73386 1.1008-2.6297z" fill="url(#linearGradient2749)"/>
  <path id="path2751" d="m36.265 99.93 1.4066-1.59-3.1189-3.3635 4.5866 0.61155 0.5504 2.9966-3.4247 1.3454z" fill="url(#linearGradient2753)"/>
  <path id="path2755" d="m31.067 84.396c-0.61155-0.18346-12.72-6.4213-12.72-6.4213l-2.5685 1.1619-1.1008 1.2843-7.1552-4.7701-4.0362-0.97848 28.07 29.416 0.5504-1.0396 0.73386-1.8347 2.2016-1.8347-4.2809-6.1155c0.25122-2.926 0.81012-5.7904 0.30578-8.8675z" fill="url(#linearGradient2757)"/>
  <path id="path2759" d="m7.5832 75.407-4.1586-0.85617 2.5685-0.91733 3.8528 0.73386 6.3601 4.7701-1.4677 1.2843-7.1552-5.0147z" fill="url(#linearGradient2761)"/>
  <path id="path2763" d="m20.976 76.997-2.3239 0.85617 12.476 6.4213 0.12231-2.2627-10.274-5.0147z" fill="url(#linearGradient2765)"/>
  <path id="path2767" d="m39.2 95.649 1.0396 6.1155 2.4462 0.6727-2.3851-6.9105-1.1008 0.12231z" fill="url(#linearGradient2769)"/>
  <path id="path2771" d="m40.301 101.76c0.61155 0.55039 2.4462 0.73386 2.4462 0.73386l5.0759 4.342-0.79502 3.1189-1.957-1.3454-4.7701-6.8494z" fill="url(#linearGradient2773)"/>
  <path id="path2775" d="m31.862 65.927-1.0396 26.603 3.7305 2.3239 5.6263 0.85617 2.3239 6.5436 5.1982 4.709-0.5504 2.8131 5.504-3.1189-1.2843-22.505-1.2843-18.591-2.4462 1.6512-3.4247 0.91733-4.0362 0.12231-3.7305-0.48924-3.547-1.4677-1.0396-0.36693z" fill="url(#linearGradient2777)"/>
  <path id="path2779" d="m29.66 57.06-0.18347 1.2843 0.30578 5.3205 1.4677 1.6512 2.5074 1.59 1.957 0.73386s5.8709 0.5504 6.6659 0.79502c0.79502 0.24462 7.2775-2.1404 7.2775-2.1404l2.3239-2.6908-0.61155-4.1586-2.2627 2.0793-0.36693-2.8131-2.9354 0.79502-3.9139 0.48924-0.24462 2.6908h-2.6297l-3.7305-0.5504v-2.8131l-2.8131-0.67271-1.957-1.7735-0.30578 1.2231-0.5504-1.0396z" fill="url(#linearGradient2781)"/>
  <path id="path2783" d="m12.231 38.713 14.677 6.6659 0.24462 3.4247-15.289-6.7271 0.061155-3.2412 0.30578-0.12231z" fill="url(#linearGradient2785)"/>
  <path id="path2787" d="m26.908 45.318 6.3601-3.547 0.48924 3.6082-6.5436 3.4247-0.30578-3.4858z" fill="url(#linearGradient2789)"/>
  <path id="path2791" d="m16.634 36.084-4.4032 2.5685 14.616 6.6659 6.2378-3.547-16.451-5.6874z" fill="url(#linearGradient2793)"/>
  <path id="path2795" d="m49.23 56.877-0.91733 1.0396 0.36693 0.79502 0.42809 2.6297 2.1404-1.8958-2.0181-2.5685z" fill="url(#linearGradient2797)"/>
  <path id="path2799" d="m47.64 56.143c0.18347 0.61155 0.97848 2.5685 0.97848 2.5685l-4.342 1.1008h-2.3851l-0.67271-1.957 0.97848 0.12231 3.1801-0.85617 2.2627-0.97848z" fill="url(#linearGradient2801)"/>
  <path id="path2803" d="m41.341 62.564-0.42809-1.957 0.12231-2.5074 0.91733 1.8958-0.61155 2.5685z" fill="url(#linearGradient2805)"/>
  <path id="path2807" d="m40.974 60.913 0.30578 1.7735h-2.5074l-2.9966-0.48924-0.30578-0.30578 2.0181-1.4066 1.4677 0.42809h2.0181z" fill="url(#linearGradient2809)"/>
  <path id="path2811" d="m35.225 59.323v2.6908l2.4462-1.6512-0.36693-2.1404-2.0793 1.1008z" fill="url(#linearGradient2813)"/>
  <path id="path2815" d="m30.455 56.877 2.2016-0.79502 1.2231 0.97848 3.3024 1.1008-1.957 1.0396-2.6297-0.5504-1.3454-0.73386-0.79502-1.0396z" fill="url(#linearGradient2817)"/>
  <path id="path2819" d="m30.088 58.161-0.5504-1.2843 0.48924-1.8958 2.2016 0.5504 0.18347 0.73386-1.8347 0.67271-0.48924 1.2231z" fill="url(#linearGradient2821)"/>
  <path id="path2823" d="m30.027 52.29 2.2627 0.97848v2.2627l-2.3239-0.5504 0.061155-2.6908z" fill="url(#linearGradient2825)"/>
  <path id="path2827" d="m30.088 52.229 2.0181 0.97848 1.6512-1.4677 2.3239-0.79502-1.59-1.6512-2.5685 1.2231-1.8347 1.7123z" fill="url(#linearGradient2829)"/>
  <path id="path2831" d="m36.326 51.617 1.1008-0.12231 1.0396-0.36693 0.97848 1.4066-1.1008 0.36693-1.2231 0.12231-0.5504-0.061155-0.24462-1.3454z" fill="url(#linearGradient2833)"/>
  <path id="path2835" d="m38.222 48.559 1.2231 1.7735 0.12231 2.1404-1.2843-1.4066-0.061155-2.5074z" fill="url(#linearGradient2837)"/>
  <path id="path2839" d="m38.405 48.621 2.5685-0.12231 2.5685 1.4066 0.67271 1.8958-2.3851-1.7123h-2.3239l-1.1008-1.4677z" fill="url(#linearGradient2841)"/>
  <path id="path2843" d="m44.766 53.146 2.1404 0.24462 0.73386 2.2016-3.1801-0.85617 0.67271-0.5504-0.36693-1.0396z" fill="url(#linearGradient2845)"/>
  <path id="path2847" d="m44.949 54.125c-0.24462 0-2.9354-0.36693-2.9354-0.36693l-2.5074 0.24462-2.752 0.79502-1.6512 0.79502-1.5289 1.3454 0.91733 0.42809 2.752 0.85617 0.30578 2.3239 1.7123 0.42809 1.6512-0.12231 0.30578-2.752 2.0181-0.24462 2.4462-0.85617 2.0181-0.79502 0.5504 1.7735 0.67271-0.18347 0.36693-0.73386-1.5289-1.59-3.3635-0.67271 0.5504-0.67271z" fill="url(#linearGradient2849)"/>
  <path id="path2851" d="m32.168 56.02 0.061155-2.6908 1.8347-1.6512 2.2016-0.67271 0.36693 2.0793 0.91733-0.061155 2.0181-0.48924-0.061155-2.2016 2.0181-0.24462 2.8743 1.7735 0.61155 2.3239-2.3851-0.48924-3.3635 0.30578-3.2412 0.79502-1.3454 1.2231-0.97848 0.79502-1.5289-0.79502z" fill="url(#linearGradient2853)"/>
  <path id="path2855" d="m61.95 30.335 5.8097 2.0793 5.5651-6.9717-4.9536-1.7123-6.4213 6.6048z" fill="url(#linearGradient2857)"/>
  <path id="path2859" d="m67.821 32.414 5.7486-7.0328v3.3635l-4.5866 6.8494-0.42809-0.61155-0.42809-0.5504-0.30578-2.0181z" fill="url(#linearGradient2861)"/>
  <path id="path2863" d="m67.882 32.353-5.9932-1.957-0.18346 2.9966 5.137 2.6297 0.5504-0.73386 0.61155 0.30578 0.24462-0.36693-0.36693-2.8743z" fill="url(#linearGradient2865)"/>
  <path id="path2869" d="m40.424 24.77c-0.61155-0.18346-9.1733 0.24462-9.1733 0.24462l-2.2016 0.79502 8.7452 0.12231 2.6297-1.1619z" fill="url(#linearGradient2871)"/>
  <path id="path2873" d="m40.485 24.892 8.9287 6.2378-2.6297 1.2231-8.9898-6.3601 2.6908-1.1008z" fill="url(#linearGradient2875)"/>
  <path id="path2877" d="m49.23 31.069 8.684 2.8743-2.752 1.2231-8.2559-2.9354 2.3239-1.1619z" fill="url(#linearGradient2879)"/>
  <path id="path2881" d="m57.853 33.882c0 0.36693 5.6263 5.6874 5.6263 5.6874l-2.752 1.2231-5.6263-5.6874 2.752-1.2231z" fill="url(#linearGradient2883)"/>
  <path id="path2885" d="m61.094 40.915 3.6693 0.30578 0.30578-0.61155 1.8958-1.0396h-3.4858l-2.3851 1.3454z" fill="url(#linearGradient2887)"/>
  <path id="path2891" d="m30.272 26.177 7.5832-0.12231 8.9287 6.3601 8.3783 2.8743 5.8097 5.5651 3.9751 0.12231-3.3024 9.1121-31.495-23.606 0.12231-0.30578z" fill="url(#linearGradient2893)"/>
  <path id="path2895" d="m69.167 54.675-0.061155-12.109 8.5006 5.9932 3.3024 10.396 1.7735 8.4394-13.515-12.72z" fill="url(#linearGradient2897)"/>
  <path id="path2899" d="m69.289 42.26 2.5074-0.91733 8.3171 6.1767-2.8743 0.85617-8.3783-5.9321 0.42809-0.18347z" fill="url(#linearGradient2901)"/>
  <path id="path2903" d="m77.484 48.376 2.8131-0.85617 3.3024 10.274-2.752 0.91733-3.3635-10.335z" fill="url(#linearGradient2905)"/>
  <path id="path2907" d="m80.969 58.833 2.6297-1.1008 1.4677 9.051-2.3851 0.79502-1.7123-8.7452z" fill="url(#linearGradient2909)"/>
  <path id="path2911" d="m63.907 51.801-2.4462-1.4066-3.1189 5.9932 1.7123 1.1619 3.8528-5.7486z" fill="url(#linearGradient2913)"/>
  <path id="path2915" d="m64.824 40.793-3.3024 9.7848 2.2627 1.1008 1.7735-2.8743 1.6512-6.9105-2.3851-1.1008z" fill="url(#linearGradient2917)"/>
  <path id="path2919" d="m64.886 40.67 30.088-15.289 1.7735 1.0396-29.538 15.533-2.3239-1.2843z" fill="url(#linearGradient2921)"/>
  <path id="path2923" d="m60.36 57.243 5.0147-8.2559 1.8958-7.094 29.477-15.533-0.67271 19.447-14.861 4.7701-1.1619-3.2412-8.0725-6.1155-3.1801 1.1619 0.42809 12.231-8.8675 2.6297z" fill="url(#linearGradient2925)"/>
  <path id="path2927" d="m98.888 21.773 3.3024 2.8131 3.6693 1.8347 5.1982 3.547 2.385-0.85617-5.8097-3.7305-4.1586-1.3454-3.1801-2.6908-1.4066 0.42809z" fill="url(#linearGradient2929)"/>
  <path id="path2933" d="m113.38 29.234 2.6297 3.9751-2.5074 0.85617-2.3239-4.1586 2.2016-0.67271z" fill="url(#linearGradient2935)"/>
  <path id="path2937" d="m113.75 34.188 0.79501 4.0362 1.162 0.85617 0.24462-5.9932-2.2016 1.1008z" fill="url(#linearGradient2939)"/>
  <path id="path2941" d="m98.888 21.712 3.2412 3.1189 3.6082 1.4677 5.4428 3.6693 2.5685 4.1586 0.79501 4.2197-1.4677-0.91733-1.7735-4.2197-8.5617-4.0362-0.61155-3.8528-3.4858-2.2016-0.48924-0.36693 0.79502-0.24462-0.061155-0.79502z" fill="url(#linearGradient2943)"/>
  <path id="path2945" d="m94.974 22.324c0.61155 0.42809 5.1982 3.7305 5.1982 3.7305l0.36693 4.1586 8.684 3.9751 0.30578 0.85617 1.4066 3.6693 0.12231-0.36693 4.6478 1.0396 0.36693 5.504-1.0396 0.5504-7.5221 2.9966-3.6082 0.36693-4.2809-1.1008-3.6082-1.8958 0.5504-19.57-1.7735-1.0396 0.18346-2.8743z" fill="url(#linearGradient2947)"/>
  <path id="path2953" d="m95.219 22.507 1.6512-0.42809 5.2593 2.9966-2.2016 0.61155-4.7089-3.1801z" fill="url(#linearGradient2955)"/>
  <path id="path2957" d="m100.11 25.871 0.42809 4.4032 2.1404-1.4066-0.48924-3.7305-2.0793 0.73386z" fill="url(#linearGradient2959)"/>
  <path id="path2961" d="m100.84 30.091 1.8347-0.85617 8.8064 4.0974-2.4462 0.73386-8.1948-3.9751z" fill="url(#linearGradient2963)"/>
  <path id="path2965" d="m108.98 34.066 2.3239-0.73386 1.7123 3.8528 2.5685 1.8347-4.9536-0.91733-0.91733-3.3024-0.73386-0.73386z" fill="url(#linearGradient2967)"/>
  <path id="path3602" d="m94.974 22.324c0.61155 0.42809 5.1982 3.7305 5.1982 3.7305l0.36693 4.1586 8.684 3.9751 0.30578 0.85617 1.4066 3.6693 0.12231-0.36693 4.6478 1.0396 0.36693 5.504-1.0396 0.5504-7.5221 2.9966-3.6082 0.36693-4.2809-1.1008-3.6082-1.8958 0.5504-19.57-1.7735-1.0396 0.18346-2.8743z" fill-opacity=".15686"/>
  <path id="path2969" d="m107.45 35.961v12.292l12.476 15.472-0.79502-8.9287-9.2956-10.886-2.0181-7.2775-0.36693-0.67271z" fill="url(#linearGradient2971)"/>
  <path id="path2973" d="m107.39 35.717 2.1404-0.79502 3.4247 8.5617-2.8131 0.85617-2.385-7.2775-0.36693-1.3454z" fill="url(#linearGradient2975)"/>
  <path id="path2977" d="m110.32 44.34 2.5074-1.1008 9.1733 10.702-2.8743 1.1008-8.8063-10.702z" fill="url(#linearGradient2979)"/>
  <path id="path2981" d="m119.31 54.858 0.5504 9.051 0.55039 0.36693 2.2016-1.3454-0.67271-9.051-2.6297 0.97848z" fill="url(#linearGradient2983)"/>
  <path id="path2985" d="m85.189 112.28 12.353 4.1586 0.48924 8.1336-2.9354-1.1008-0.73386-1.8347-0.97848 0.61155-0.48924-1.2843-1.2231 0.91733-6.4213-2.9354-0.061155-6.6659z" fill-opacity=".15686"/>
  <path id="path2987" d="m51.432 86.109-0.061155-2.4462 0.42809-0.48924 1.8958 1.1619-2.2627 1.7735z" fill-opacity=".15686"/>
  <path id="path2989" d="m77.789 80.666 14.31-7.8279 1.5289 1.4677-14.188 8.1336-1.6512-1.7735z" fill-opacity=".15686"/>
  <path id="path2991" d="m32.657 101.4 2.1404-1.957 2.752-0.85617-2.5685 2.3851-0.5504 2.3239-2.8743 0.73386 1.1008-2.6297z" fill-opacity=".15686"/>
  <path id="path2993" d="m36.265 99.93 1.4066-1.59-3.1189-3.3635 4.5866 0.61155 0.5504 2.9966-3.4247 1.3454z" fill-opacity=".15686"/>
  <path id="path2995" d="m31.067 84.396c-0.61155-0.18346-12.72-6.4213-12.72-6.4213l-2.5685 1.1619-1.1008 1.2843-7.1552-4.7701-4.0362-0.97848 28.07 29.416 0.5504-1.0396 0.73386-1.8347 2.2016-1.8347-4.2809-6.1155c0.25122-2.926 0.81012-5.7904 0.30578-8.8675z" fill-opacity=".15686"/>
  <path id="path2997" d="m39.2 95.649 1.0396 6.1155 2.4462 0.6727-2.3851-6.9105-1.1008 0.12231z" fill-opacity=".15686"/>
  <path id="path2999" d="m40.301 101.76c0.61155 0.55039 2.4462 0.73386 2.4462 0.73386l5.0759 4.342-0.79502 3.1189-1.957-1.3454-4.7701-6.8494z" fill-opacity=".15686"/>
  <path id="path3578" d="m41.341 62.564-0.42809-1.957 0.12231-2.5074 0.91733 1.8958-0.61155 2.5685z" fill-opacity=".15686"/>
  <path id="path3580" d="m30.027 52.29 2.2627 0.97848v2.2627l-2.3239-0.5504 0.061155-2.6908z" fill-opacity=".15686"/>
  <path id="path3582" d="m38.222 48.559 1.2231 1.7735 0.12231 2.1404-1.2843-1.4066-0.061155-2.5074z" fill-opacity=".15686"/>
  <path id="path3584" d="m32.168 56.02 0.061155-2.6908 1.8347-1.6512 2.2016-0.67271 0.36693 2.0793 0.91733-0.061155 2.0181-0.48924-0.061155-2.2016 2.0181-0.24462 2.8743 1.7735 0.61155 2.3239-2.3851-0.48924-3.3635 0.30578-3.2412 0.79502-1.3454 1.2231-0.97848 0.79502-1.5289-0.79502z" fill-opacity=".15686"/>
  <path id="path3586" d="m12.231 38.713 14.677 6.6659 0.24462 3.4247-15.289-6.7271 0.061155-3.2412 0.30578-0.12231z" fill-opacity=".15686"/>
  <path id="path3588" d="m67.882 32.353-5.9932-1.957-0.18346 2.9966 5.137 2.6297 0.5504-0.73386 0.61155 0.30578 0.24462-0.36693-0.36693-2.8743z" fill-opacity=".15686"/>
  <path id="path3590" d="m61.094 40.915 3.6693 0.30578 0.30578-0.61155 1.8958-1.0396h-3.4858l-2.3851 1.3454z" fill-opacity=".15686"/>
  <path id="path3592" d="m30.272 26.177 7.5832-0.12231 8.9287 6.3601 8.3783 2.8743 5.8097 5.5651 3.9751 0.12231-3.3024 9.1121-31.495-23.606 0.12231-0.30578z" fill-opacity=".15686"/>
  <path id="path3594" d="m69.167 54.675-0.061155-12.109 8.5006 5.9932 3.3024 10.396 1.7735 8.4394-13.515-12.72z" fill-opacity=".15686"/>
  <path id="path3596" d="m63.907 51.801-2.4462-1.4066-3.1189 5.9932 1.7123 1.1619 3.8528-5.7486z" fill-opacity=".15686"/>
  <path id="path3598" d="m64.824 40.793-3.3024 9.7848 2.2627 1.1008 1.7735-2.8743 1.6512-6.9105-2.3851-1.1008z" fill-opacity=".15686"/>
  <path id="path3600" d="m98.888 21.712 3.2412 3.1189 3.6082 1.4677 5.4428 3.6693 2.5685 4.1586 0.79501 4.2197-1.4677-0.91733-1.7735-4.2197-8.5617-4.0362-0.61155-3.8528-3.4858-2.2016-0.48924-0.36693 0.79502-0.24462-0.061155-0.79502z" fill-opacity=".15686"/>
  <path id="path3604" d="m107.45 35.961v12.292l12.476 15.472-0.79502-8.9287-9.2956-10.886-2.0181-7.2775-0.36693-0.67271z" fill-opacity=".15686"/>
 </g>
 <g id="layer1">
  <path id="path2312" d="m100.5 21.094-1.75 0.375-0.03125 0.96875-0.625 0.03125-1.25-0.59375-2 0.4375-0.1875 3.0312-27.656 14.062h-3.4062l-5.6875-5.7188-8.7188-2.8125-8.5625-6.2188-9.1875 0.125-2.6562 0.9375 32.531 24.5-3.25 6.3438 1.7812 1.2188 9.0625-2.875 13.844 12.875 2.375-0.90625-1.4688-9.4062-2.25-6.75 14.25-4.6875c3.4357 2.566 7.8609 3.2985 11.906 2.7188l12.625 15.656 2.5-1.4062-0.4375-9.0625-7.0938-8.3125c0.40333-0.32477 0.78354-0.66217 1.125-1.0312l-0.3125-5.5625c0.00268-1.3945 0.15332-4.1554 0.3125-5.875l-2.9062-4.2188c-1.9853-0.76922-3.2214-2.1482-5-3.25-0.19266-0.13289-0.41764-0.23764-0.65625-0.34375-1.2458-0.4858-2.6812-0.84623-4-1.25l-3.2188-3zm-0.1875 0.5c0.15742 0.11793 1.3909 1.3304 2.7812 2.4062l-0.96875 0.4375-2.9375-2.5625 1.125-0.28125zm-1.2812 0.59375 2.4375 2.2188-2.7812-1.4062 0.375-0.46875-0.03125-0.34375zm-2.1875 0.125 4.625 2.8125-1.2812 0.46875-4.7812-3.0312 1.4375-0.25zm-1.8125 0.28125 4.9375 3.625 0.3125 3.9688-2.875 2.3438-0.5 4.75 1.2812 3.0625-1.4062 2.25 0.21875 0.0625 1.375-1.6875 2.4688 1.375-0.03125 3.1562 0.125-0.125 0.40625-2.625h1.5938l0.0625-0.0625-1.5625-0.5-2.7188-1.7812-1.25-3.0938 0.375-3.7188 1.8125 3.2812 3.7188 0.8125 0.0625-0.125-3.5-0.78125-1.75-4-0.28125 0.125 2.875-2.3125 8.5312 4.0625-2.0312 0.875-0.15625 12.688c-3.6781 0.76692-7.3891-0.42265-10.688-2.4375l0.40625-19.531-1.9062-1.0625c0.024852-0.87825 0.069768-1.7143 0.09375-2.5938zm-26.719 0.90625-6.6515 6.7213-0.06723 3.31c1.5198 0.95326 3.6867 2.0029 5.2771 2.5355 0.16074 0.053836 0.35123-0.53753 0.6238-0.48597 0.31947 0.060437 0.50314 0.41572 0.61618 0.4457 0.044171-0.18619 0.037722-1.186 0.3388-1.1592 0.18298 0.016294 0.41448 0.90955 0.46547 0.83663 1.4206-2.0313 3.2639-4.7697 4.8037-6.8914l-0.09375-3.3725-5.3125-1.94zm0.15625 0.375 4.5 1.625-5.25 6.625-1.3438-0.5 0.0625-0.03125-0.625-2.6875 3.0938-2.0938 1.6875-0.0625v-0.0625l-1.6203-0.20422-0.84848-2.0145-0.014527 0.06723 0.57703 2.0578-3.2188 1.9688 0.34375 2.8438-3.6562-1.375 5.6515-5.5818 0.66098-0.57449zm35.031 0.25c0.92968 0.72778 2.3586 1.1309 3.5625 1.4688l-1.25 0.6875-3.3438-1.625c0.29299-0.34122 0.80649-0.47733 1.0312-0.53125zm-63.594 0.875-2.1562 0.75h-8.25l1.9688-0.59375 8.4375-0.15625zm62.562 0.0625 2.8438 1.3438 5.4062 3.5312 2.6875 4.3125 0.9375 3.6875-0.84375-0.59375-2.0625-4.25-8.5625-4.125-0.4375-3.625 0.1875-0.0625-0.15625-0.21875zm-61.938 0.0625 8.4688 6-2.1562 0.96875-8.75-6.0312 2.4375-0.9375zm61.312 0.4375 0.40625 3.4375-1.625 0.75-0.21875-3.6875 1.4375-0.5zm-6.75 0.0625 1.25 0.75-29.188 15.375-1.9375-1.0625 29.875-15.062zm-21.781 0.1875v3c-1.5583 2.1287-3.0411 4.3745-4.5312 6.5625 0.11363-0.90013-0.025271-1.9486 0.125-2.75l1.7812-0.625 0.625-3.1562-0.125-0.0625-0.71875 2.8438-1.8438 0.8125c-0.25314 0.41838-0.35069 0.93851-0.375 1.4688l-0.125-1.5938 5.1875-6.5zm34.469 0c0.16653 0.067755 0.3169 0.16342 0.46875 0.25 1.068 1.1532 3.1864 2.0677 4.5938 3.0625l-1.8125 0.53125-4.875-3.1562 1.625-0.6875zm-70.375 0.5 9 6-0.375 2.9688-0.78125 0.96875 1.1562-0.5625 3.3438 2.4375 0.125-0.125-3.3438-2.625 0.625-2.75 7.7812 2.7812 5.9062 5.6562 3.7188 0.21875-3.0938 8.5-30.688-23.406 6.625-0.0625zm59.094 0.40625-0.71875 18.969-14.469 4.6875-1.0312-3.0625-8.4062-6.1875-3.0625 1.0938 0.09375 12.25-8.1875 2.6875 3.0625-5.0625 1.9062-0.15625 1.875 1.625-0.53125 0.90625h0.0625l0.9375-0.9375-1.9688-1.8125 1.9062-2.6562-0.75-1.3125h-0.1875l0.46875 1.1562-1.9375 2.5-1.4062 0.0625 1.5-2.4688 1.7188-6.8438 29.125-15.438zm16.75 2.6562 2.1875 3.6875-1.75 0.625-2.25-3.5938 1.8125-0.71875zm-10.75 0.125 8.1875 3.8125-1.5938 0.5625-8.1562-3.6875 1.5625-0.6875zm-40.438 1.125 3.3438 1.1562-0.8125 0.625v0.03125l-1.375 0.375-0.125 0.0625 1.6562-0.0625 0.625 1.625 1.5938 1.0312-5.0312-2.1875 0.125-2.6562zm-12.719 0.71875 7.6875 2.6562-2.2188 0.875-7.5-2.5625 2.0312-0.96875zm16.531 0.59375 1.9375 0.65625 0.25 2.9062-2.3125-1.375-0.65625-1.625v-0.125l0.78125-0.4375zm45.188 1.5312 1.6562 4-1.9062 0.6875-0.90625-3.125 0.15625-0.0625-0.28125-0.25-0.5-0.5625 1.7812-0.6875zm4.5625 0.1875-0.25 5-0.84375-0.59375-0.625-3.6875 1.7188-0.71875zm-57.906 0.65625 5.4062 5.125-2.1875 1.0625-5.4375-5.1875 2.2188-1zm51.562 0.9375 3.1875 8.0625-2.25 0.75-2.625-8.2188 1.6875-0.59375zm-92.562 0.8125-4.8412 2.6105-0.1348 3.5723 15.459 6.827 6.5-3.6395-0.35828-3.714-16.625-5.6562zm0.15625 0.34375 15.844 5.3438-4.2812 2.4375-1.4688-0.84375 0.5625-2.75-2.9062-0.65625-0.48074 0.25473c-0.39797-0.34622-2.264-1.0069-3.1443-1.3172l-0.25-0.0625c1.2512 0.85672 1.634 0.76632 2.9375 1.4062l-2.9062 0.84375-0.0625 0.0625 3.7188-0.875 2.6079 0.625-0.76419 2.7812 1.5312 0.875-0.96875 0.5625-12.375-5.5312 1.1875-0.21875v-0.09375l1.9062-0.1875-0.0625-0.1875-1.7812-0.1875 0.125-1.1875-0.25-0.125-0.09375 1.375-2.0312 0.375-0.875-0.40625 4.2812-2.3125zm91.031 0.78125 1.8125 7.125 6.3125 7.6562 3.1562 3.4688 0.40625 7.5625-11.812-14.938 0.125-10.875zm5.0938 0.5625 1.5 0.9375-3.0625-0.46875 1.5625-0.46875zm-1.8438 0.78125 4.4062 1.0312c0.08482 1.7549 0.18925 3.7719 0.25 4.7812-0.37348 0.28125-0.73067 0.53367-1.0938 0.78125l-1.8438-2.1562-1.7188-4.4375zm-99.031 0.46875 1.0938 0.46875 0.625 1.6562v-0.0625l0.0625-1.2812 12.75 5.6875 0.15625 3.0625-14.716-6.464 0.028716-3.0672zm54.125 0.78125-1.4062 0.71875-0.125 0.34375-3.0938-0.09375 2.0312-0.90625 2.5938-0.0625zm-1.1562 1.1562 1.7188 1.0312-1.5 6.75-1.625 2.75-1.9375-1.0938 3.3438-9.4375zm6.7188 0.59375 7.7812 5.8125-2.2188 0.78125-8.0312-5.75 2.4688-0.84375zm-38.625 0.40625 0.375 3.2188-6.2188 3.4688-0.1875-3.375 0.90625-0.5 0.59375 1.125-0.65625 1-0.0625 0.125 1.1562-0.8125 0.75 0.125-0.0625-0.125-0.65625-0.4375-0.46875-1.3125 4.5312-2.5zm36 0.96875 8.0938 5.5625 3.3125 9.9688c-0.69837 0.031265-1.5266 0.053886-2.1875 0l-0.40625-2.6562-0.09375-0.03125-0.375-3-0.125-0.03125 0.125 2.875-2.5625-1-0.15625 0.0625 2.6562 1.4375c0.14447 0.67782 0.24049 1.4826 0.40625 2.1875l-1 1.375 0.0625 0.21875 1.25-1.0312c0.70152 0.44594 1.7364 0.28357 2.5938 0.28125l1.4375 7.5938-12.688-12.094-0.34375-11.719zm43.594 0.53125 8.6875 10.5-2.1562 0.78125-2.9375-3.125-5.7812-7.0938 2.1875-1.0625zm-32.875 4.4062 3.4688 9.7812-2.375 0.8125-3.25-9.9375 2.1562-0.65625zm-39.062 0.46875c-0.95231 0.006442-1.8935 0.054855-2.8438 0.09375l0.125 2.625c-0.47436 0.28324-1.0985 0.24648-1.625 0.40625l-0.03125-0.53125-1.9062-1.7812c-1.4555 0.75464-3.0105 1.0515-4.9062 3.1562l0.1875 2.4688c-0.80482 2.8712-0.5589 6.0809-0.375 9.0312 0.43126 0.91544 1.2302 1.5367 2.0312 2.125l-0.5 15.812-10.031-4.9062-2.75 0.9375c-0.68653 0.48672-1.4415 0.71317-2.0625 1.125l-6.3125-4.6875-4.0938-0.65625-2.5 1.0625 28.281 29.719 2.9062-1 0.8125-2.4688 0.78125-0.6875c0.4643-0.41792 2.3904-1.0754 3.5-1.25l0.5625 2.7188 4.875 7 1.6875 1.1562c0.12463 0.13598 0.24339 0.27506 0.375 0.40625 2.2465-0.74627 4.2399-1.9066 5.6562-3.4375l-0.0625-1.4062 67.312-24.844-2.2812-1.4375-11.75-1.3438-13.938-4.9375-14.219 7.6562-6.75-2-19.031 4.1562-0.46875 0.53125-0.90625-17.406c0.68184-0.54852 1.0613-1.0968 1.4062-1.8438l0.03125-1.0312-0.5-3.5-2.3125-2.8125-0.21875-0.21875-1.1875-1.1562-0.9375-1.9062-2-0.28125-0.40625-1.125h0.03125l-1.0312-2.2188c-0.5477-0.35116-1.847-0.99928-2.625-1.3125zm0.1875 0.40625 1.9688 1.0312 0.59375 1.4688-1.8125-1.2812-0.75-1.2188zm-1 0.03125c0.22942-0.006819 0.47721-0.002357 0.71875 0l0.53125 1.0312c-0.52648-1.62e-4 -1.0841 0.054645-1.7188 0.21875l-0.65625-1.125c0.3973-0.079369 0.76591-0.11433 1.125-0.125zm-1.7188 0.1875 0.84375 1.25 0.28125 1.875-0.96875-1.2188-0.15625-1.9062zm-3.875 0.6875 1.1875 1.125c-1.4283 0.39652-2.4203 0.77562-3.4062 2.1875l-1.6562-0.90625c1.0327-1.29 2.2138-1.7462 3.875-2.4062zm7 0.6875c0.12832 0.002433 0.24987 0.022491 0.375 0.03125l2.0625 1.4688 0.03125 0.03125-1.3438 0.625-1.3438-1.1875 0.0625 0.125 1.0625 1.625 1.875-0.65625 0.46875 1.4688c-1.422-0.38743-2.9613-0.4621-4.5-0.28125-2.3691 0.39254-4.8861 1.1536-6.5938 2.9375l-1.0938-0.6875-0.0625-0.25-0.09375-2c0.8773-1.4431 2.2381-1.9631 3.7812-2.4062l0.21875 2.0312c0.71643 0.023189 1.5169 0.043474 3.4062-0.5625l-0.21875-2.0938c0.62088-0.20308 1.266-0.18889 1.9062-0.21875zm20.219 0.3125 1.7812 1.0938-3.4375 5.6562-1.5312-1.0312 3.1875-5.7188zm-23.406 0.71875 0.8125 1.1562c-0.73408 0.29277-1.3557 0.56483-2.2812 0.46875l-0.03125-1.2188c0.6346 0.022575 0.95934-0.077309 1.5-0.40625zm-8.1562 1.125 1.875 0.90625 0.0625 1.9375c-0.56638-0.11587-1.0965-0.16622-1.8125-0.65625l-0.125-2.1875zm14.938 0.96875 1.5938 0.125 0.6875 1.5312-2.5312-0.34375 0.53125-0.5-0.28125-0.8125zm-3.5625 0.53125c1.1381-0.019167 2.2344 0.081871 3.25 0.34375l-0.5 0.6875 3.1562 0.5625c0.48245 0.36814 0.9275 0.80944 1.3438 1.3438 0.018218 0.29836-0.10413 0.40144-0.28125 0.59375l-0.78125-1.5312c-2.0323 0.98389-4.1184 1.8657-6.5938 1.875l-0.28125 2.875c-1.1074-0.006739-1.8512 0.092876-3.0625-0.375l-0.25-2.3438c-1.536-0.28004-2.7601-0.68295-3.5-1.1562 1.666-1.681 4.0077-2.4265 6.2812-2.8125 0.41894-0.030478 0.81119-0.055636 1.2188-0.0625zm80.281 0.0625 0.59375 8.7188-2.1562 1.1875-0.78125-8.9062 2.3438-1zm-91.5 1.2812 1.7812 0.40625 0.125 0.25-1.8438 0.46875-0.28125 1.2812c-0.099663-0.67146-0.007221-1.7325 0.21875-2.4062zm2.3438 1.0312c0.70723 0.85916 1.8874 1.3994 4 1.8438l-1.5 0.75c-1.5227-0.50402-3.0441 0.019614-4.2188-2l1.7188-0.59375zm14.906 0.09375 0.6875 1.9062c-2.1911 0.62214-3.8373 1.3829-6.1562 1.3125l-0.4375-1.4375c1.8941-0.17501 3.7871-0.66653 5.9062-1.7812zm1.75 1.0312 1.7188 1.875c-0.48554 0.62142-1.1417 1.1341-1.7812 1.5938l-0.28125-2.375-0.25-0.5625c0.33799-0.14666 0.47163-0.21578 0.59375-0.53125zm-18.781 0.1875c1.0654 1.4403 2.8997 1.3525 4.5 1.9375l-0.0625 2.1562-0.9375 1.25-1.375 0.21875 0.125 0.21875 1.375 0.125 1 2 0.1875-0.09375-0.84375-2.25 0.90625-0.84375c1.1373 0.33966 2.4662 0.57523 5.9062 0.6875l1.0625 1.7188 1.6562-0.375 3.7812 1.5-0.03125-0.125-3.0625-1.6875 2-1.4375 1.5312 1.0312 0.03125-0.09375-1.1875-1.2188-0.625-1.25-0.25-0.03125 0.5625 1.25c-0.80383 0.43492-1.7286 0.97106-2.5312 1.5l-0.125-0.0625-1.4062 0.4375-0.75-1.5v-0.03125l0.09375-2.3125c2.4605 0.05808 4.3336-0.89354 6.5312-1.5l0.40625 2.8438c0.92613-0.60071 1.6664-1.059 2.25-1.8125l0.46875 3.2188c-0.003595 0.088469-0.022541 0.17057-0.03125 0.28125-2.2715 3.6743-6.8109 4.6047-10.75 4.6562-3.8501-0.19847-8.3291-0.91191-10.719-4.3438-0.17062-2.1406-0.8098-4.3303-0.375-5.9062l0.4375 1.0625 0.25-1.2188zm52.719 0.34375 1.5938 8.6875-1.9375 0.6875-1.6875-8.4688 2.0312-0.90625zm-42 0.40625 0.46875 1.5938-0.1875 2.3438-0.34375-1.6875 0.0625-2.25zm-3.9688 0.0625 0.0625 1.8438-1.875 1.125 0.09375-1.8125 1.7188-1.1562zm0.40625 2.2188c1.28 0.48679 2.1 0.42697 3.2188 0.4375l0.25 1.4062c-1.9195 0.0833-3.6533-0.040307-5.4062-0.75l1.9375-1.0938zm-5.5 5.5c2.7066 1.5593 5.5561 2.1742 8.625 2.3125 3.2591 0.020061 6.4213-0.35389 9.1875-2.1875 0.85776 6.9023 1.8621 33.222 2.2812 40.188-1.7038 1.2831-3.336 2.1938-4.9062 2.8438l0.53125-2.7188-0.125-0.09375 0.5625-3.0938 2.5312-3.0938-0.1875-0.125-2.1875 2.3125-1.4688-4.7812-0.03125 0.125 1.0625 5.0312 0.09375-0.03125-0.25 0.28125-0.5625 2.9688-4.5312-3.9375-2.2188-6.375 0.09375 0.0625 6-4.5938c0.24255-0.99506-0.56993-2.7532-0.5-4 1.3669-1.7818 2.4132-3.7392 3.4688-5.7188l-1.7188-5.5625-0.09375-0.0625 1.5625 5.6875c-0.8927 1.6546-2.2947 3.0328-3.25 4.6562l0.03125-2.75-2.5625-1.2812 0.625-3.5625-0.03125-0.03125-0.96875 3.375-2.7188-0.46875 0.09375 0.15625 2.5 0.78125-0.0625 0.15625 2.9062 1.0312c-0.081969 1.0186-0.22815 2.2702-0.21875 3.375-0.48115 1.2645 0.19568 2.6056 0.5625 3.8438l-6.1875 4.4375-4.5625-0.3125 0.34375-3.875 2.125-2.2812 3.1562-1.125-0.125-0.21875-3.25 1.1562-1.5938 1.5625 0.25-2.875 1.6875-0.3125v-0.03125l-1.9375 0.0625-0.65625 3.9062-0.90625 3.625-3.125-2 2.125-2.3125-1.1875-2.2188-0.1875 0.03125 1.0312 2.0625-2.2188 1.9062c0.24664-10.145 0.6613-21.604 1.0938-25.906zm59.781 6.9062 1.4688 1.1875-13.875 7.875-1.5-1.3125 13.906-7.75zm0.40625 0.03125 13.531 4.9062 0.6875 0.96875-12.75-4.9062-1.4688-0.96875zm-86.281 0.75 3.375 0.46875-2.0625 1-3.4375-0.75 2.125-0.71875zm87.781 0.5 12.625 4.9375-2.9375 1.7812-0.3125 0.5625-3.9688-0.65625 0.03125 0.09375 3.5312 1.2188-1.5625 2.7812-4.2812 2.5625 0.15625 0.125 4.3438-2.3438 2.4062-3.9688 3.0625-1.9688 0.34375 0.125 5.1562 0.375c0.28205-0.087037 0.65546 0.57355 0.9375 0.59375l0.59375-0.34375 1.25 0.96875 0.25-1 3.5938 0.25-66.438 24.406-0.9375-18.594 0.0625 0.03125 2.1875-1.8438 18.438-4.25 6.9062 2.4375 0.5 2.7188-1.8438 3.125 0.09375 0.03125 2.3438-2.9062 2.25 0.59375 0.0625-0.03125-2.375-0.875-0.5-2.8125 14.031-8.125zm-83.969 0.1875 6 4.5625c-0.44396 0.32697-0.84156 0.6888-1.1562 1.1875l-6.9375-4.75 2.0938-1zm-5.8438 0.25 3.125 0.875 7.3438 5.0625 0.4375 3.6875 2.3438 1.0312 0.0625-0.09375-1.9062-1.1562-0.46875-3.7188c0.81194-1.0836 2.306-1.777 3.375-2.4688 4.1824 2.4188 8.249 4.3832 12.594 6.4688l-0.28125 8.875 4.0625 5.9688-1.9062 1.6562-2.1875-2.1875h-0.4375l0.1875-0.15625-1.0625-2.8438 0.03125 0.1875 0.53125 2.7812-2.0938-0.03125-0.15625 0.03125 2.7188 0.46875 2.0625 2.3438-0.5625 1.8438-27.812-28.625zm16.812 2.375 10.188 5.1875-0.0625 1.5938c-4.2751-1.7724-7.7766-4.0669-11.906-6.0312l1.7812-0.75zm85.312 0.8125 11.406 1.3125 1.5312 0.75-3.9375-0.28125-0.09375 1-1.0938-1.0938-0.5 0.65625-0.875-0.75-5.5-0.375-0.9375-1.2188zm-35.188 0.75 1.0312 1.125-18.25 4.2188-1.75-1.0312 18.969-4.3125zm0.53125 0.09375 6.1562 1.9375 1.125 1.0312-6.1875-1.8438-1.0938-1.125zm-19.656 4.4375 1.5625 0.9375-1.75 1.5312-0.09375-1.9688 0.28125-0.5zm-20.75 9.4375 3.3125 2.3438 2.8125 3.2812-2.1875 0.8125c-1.2786-1.9303-3.1926-4.5079-4.25-6.125l0.3125-0.3125zm3.8125 2.4688 3.9688 0.5 0.5625 2.6562c-0.89086-0.043817-1.4397 0.39062-2.2188 0.84375l0.84375-0.75-3.1562-3.25zm4.6875 0.5625 0.34375 0.03125 2.2188 6.375-1.5625-0.625-1-5.7812zm59.812 3.1875c-0.41621 0.25351-0.3608 1.4841-0.84375 1.7188-0.47644 0.23151-0.93314 0.17555-1.3438 0.625-0.32899 0.36012-1.2023-0.01022-1.5312 0.3125l-10.663 10.749 0.28797 7.2201 6.3438 2.7188 1.0312-0.96875 0.65625 1 1.0312-0.34375 0.625 1.75 3.2513 1.1005c3.3676-5.3344 7.4382-10.494 10.967-15.913l-0.34375-6.5938-7.3125-2.7812-0.71875 0.5625-1.4375-1.1562zm-62.531 0.09375-1.8438 1.6562-2.0312 0.6875 2.25-1.875 1.625-0.46875zm62.75 0.5 0.9375 0.78125-0.4375 1.3125 0.0625 0.03125-1.25 1.0625 0.15625 0.03125 1.6562-0.75 1.8438 1.1875 0.0625-0.0625-2.0625-1.5938 0.71875-1.4688-0.125 0.03125c0.06528-0.13699 0.13436-0.2335 0.25-0.1875l6.7812 2.4062-10.969 13.875-3.875-1.3438 2.5312-0.9375 0.84375-3.2812 3.5938-1.1875 1.875-2-0.125-0.1875-1.9062 1.7812-3 0.8125 1.0938-1.4375-1.9688 1.6875 0.09375 0.03125-0.84375 3.3125-2.9688 0.875-1.8125-2.8125 0.96875-2.5-0.1875-0.125-0.90625 1.8125-1.6875-0.40625-1 1.2188 0.1875 0.21875 0.75-0.8125 1.4375 0.4375-0.125 0.21875 1.625 2.75-6.0312-2.125 9.9688-9.9688 1.125-0.3125-0.5 1.8125 0.1875-0.0625 0.90625-1.9375 1.4062-1 0.71875-1.1875zm-64.75 1.625-0.625 1.875-2.1562 0.75 0.78125-1.875 2-0.75zm6 0.875 1.6562 0.71875 4.8438 4.25-0.40625 2.75-1.5938-1.125-4.5-6.5938zm67.625 0.78125 0.46875 6.125c-3.2285 5.3274-7.2551 9.8116-10.75 14.938l-0.46875-7.1562-0.0625-0.03125 10.812-13.875zm-23 9.75 6.7188 2.3438 0.03125 0.0625-0.625 1.6562-1.4062 0.0625-1.75-2.4062-0.125 0.21875 1.1875 2.25-1.2812 1.5 0.0625 0.0625 1.5625-1.125 1.7812-0.0625 2.0625 1.4688-1.1875 2.3125-0.65625 0.78125-5.8438-2.5-0.53125-6.625zm7.1875 2.5312 4.5938 1.5938 0.46875 7.5938c-0.81224-0.34657-2.1538-0.93468-2.8125-1.2812l-0.375-1.8125-1.0938 0.65625-0.21875-0.5 0.0625 0.03125 1-2.5312 1.6875-0.75-0.03125-0.125-1.9688 0.25-2.0938-1.2812 0.78125-1.8438z" fill-rule="evenodd"/>
 </g>
</svg>
