<?xml version="1.0" encoding="UTF-8"?>
<!-- Created with Inkscape (http://www.inkscape.org/) -->
<svg id="svg2" width="128" height="128" version="1.0" xmlns="http://www.w3.org/2000/svg" xmlns:cc="http://creativecommons.org/ns#" xmlns:dc="http://purl.org/dc/elements/1.1/" xmlns:rdf="http://www.w3.org/1999/02/22-rdf-syntax-ns#" xmlns:xlink="http://www.w3.org/1999/xlink">
 <defs id="defs4">
  <linearGradient id="linearGradient3049">
   <stop id="stop3051" stop-color="#cfc7a9" offset="0"/>
   <stop id="stop3053" stop-color="#eeebe0" offset="1"/>
  </linearGradient>
  <linearGradient id="linearGradient2320">
   <stop id="stop2322" stop-color="#6a3c1d" offset="0"/>
   <stop id="stop2324" stop-color="#8f5127" offset="1"/>
  </linearGradient>
  <linearGradient id="linearGradient3332">
   <stop id="stop3334" stop-color="#bb8f56" offset="0"/>
   <stop id="stop3336" stop-color="#d1af63" offset="1"/>
  </linearGradient>
  <linearGradient id="linearGradient2433" x1="15.481" x2="17.297" y1="108.41" y2="111.78" gradientUnits="userSpaceOnUse" xlink:href="#linearGradient2320"/>
  <linearGradient id="linearGradient2437" x1="49.658" x2="57.853" y1="98.554" y2="103.75" gradientUnits="userSpaceOnUse" xlink:href="#linearGradient2320"/>
  <linearGradient id="linearGradient2441" x1="87.085" x2="89.653" y1="84.916" y2="86.995" gradientUnits="userSpaceOnUse" xlink:href="#linearGradient2320"/>
  <linearGradient id="linearGradient2445" x1="71.735" x2="71.857" y1="93.294" y2="96.841" gradientUnits="userSpaceOnUse" xlink:href="#linearGradient2320"/>
  <linearGradient id="linearGradient2449" x1="108.49" x2="110.69" y1="60.515" y2="61.616" gradientUnits="userSpaceOnUse" xlink:href="#linearGradient2320"/>
  <linearGradient id="linearGradient2453" x1="56.303" x2="90.625" y1="89.947" y2="55.525" gradientUnits="userSpaceOnUse" xlink:href="#linearGradient2320"/>
  <linearGradient id="linearGradient2457" x1="102" x2="110.4" y1="89.441" y2="98.987" gradientUnits="userSpaceOnUse" xlink:href="#linearGradient2320"/>
  <linearGradient id="linearGradient2461" x1="112.52" x2="113.4" y1="94.023" y2="94.023" gradientUnits="userSpaceOnUse" xlink:href="#linearGradient2320"/>
  <linearGradient id="linearGradient2465" x1="103.77" x2="104.61" y1="89.175" y2="88.071" gradientUnits="userSpaceOnUse" xlink:href="#linearGradient2320"/>
  <linearGradient id="linearGradient2469" x1="95.238" x2="91.747" y1="61.399" y2="70.857" gradientUnits="userSpaceOnUse" xlink:href="#linearGradient2320"/>
  <linearGradient id="linearGradient3052" x1="87.504" x2="87.416" y1="58.394" y2="58.925" gradientUnits="userSpaceOnUse" xlink:href="#linearGradient2320"/>
  <linearGradient id="linearGradient3056" x1="91.791" x2="92.587" y1="56.096" y2="56.45" gradientUnits="userSpaceOnUse" xlink:href="#linearGradient2320"/>
  <linearGradient id="linearGradient3060" x1="99.437" x2="99.348" y1="58.527" y2="59.366" gradientUnits="userSpaceOnUse" xlink:href="#linearGradient2320"/>
  <linearGradient id="linearGradient3064" x1="101.43" x2="100.81" y1="65.112" y2="65.244" gradientUnits="userSpaceOnUse" xlink:href="#linearGradient2320"/>
  <linearGradient id="linearGradient3068" x1="101.07" x2="101.07" y1="70.835" y2="71.719" gradientUnits="userSpaceOnUse" xlink:href="#linearGradient2320"/>
  <linearGradient id="linearGradient3072" x1="85.251" x2="85.958" y1="66.769" y2="67.564" gradientUnits="userSpaceOnUse" xlink:href="#linearGradient2320"/>
  <linearGradient id="linearGradient3088" x1="92.675" x2="93.206" y1="64.427" y2="63.366" gradientUnits="userSpaceOnUse" xlink:href="#linearGradient2320"/>
  <linearGradient id="linearGradient3092" x1="96.741" x2="98.332" y1="62.615" y2="62.615" gradientUnits="userSpaceOnUse" xlink:href="#linearGradient2320"/>
  <linearGradient id="linearGradient3096" x1="86.93" x2="93.559" y1="70.017" y2="70.017" gradientUnits="userSpaceOnUse" xlink:href="#linearGradient2320"/>
  <linearGradient id="linearGradient3100" x1="83.875" x2="88" y1="53.125" y2="47.25" gradientUnits="userSpaceOnUse" xlink:href="#linearGradient2320"/>
  <linearGradient id="linearGradient3104" x1="24.75" x2="26.591" y1="61.312" y2="61.312" gradientUnits="userSpaceOnUse" xlink:href="#linearGradient2320"/>
  <linearGradient id="linearGradient3108" x1="31.781" x2="30.75" y1="69.156" y2="71.938" gradientUnits="userSpaceOnUse" xlink:href="#linearGradient2320"/>
  <linearGradient id="linearGradient3112" x1="38.219" x2="40.531" y1="39.516" y2="39.703" gradientUnits="userSpaceOnUse" xlink:href="#linearGradient2320"/>
  <linearGradient id="linearGradient3116" x1="49.763" x2="48.658" y1="53.135" y2="55.389" gradientUnits="userSpaceOnUse" xlink:href="#linearGradient2320"/>
  <linearGradient id="linearGradient3120" x1="57.452" x2="58.16" y1="41.954" y2="45.313" gradientUnits="userSpaceOnUse" xlink:href="#linearGradient2320"/>
  <linearGradient id="linearGradient3124" x1="79.726" x2="79.152" y1="34.706" y2="36.695" gradientUnits="userSpaceOnUse" xlink:href="#linearGradient2320"/>
  <linearGradient id="linearGradient2428" x1="33.986" x2="35.935" y1="79.901" y2="81.804" gradientUnits="userSpaceOnUse" xlink:href="#linearGradient3332"/>
  <linearGradient id="linearGradient3029" x1="54.659" x2="52.67" y1="26.314" y2="27.135" gradientUnits="userSpaceOnUse" xlink:href="#linearGradient2320"/>
  <linearGradient id="linearGradient3033" x1="89.859" x2="91.589" y1="34.724" y2="35.978" gradientUnits="userSpaceOnUse" xlink:href="#linearGradient3332"/>
  <linearGradient id="linearGradient3037" x1="97.968" x2="99.546" y1="28.086" y2="29.211" gradientUnits="userSpaceOnUse" xlink:href="#linearGradient3332"/>
  <linearGradient id="linearGradient3055" x1="38.834" x2="46.325" y1="24.22" y2="30.091" gradientUnits="userSpaceOnUse" xlink:href="#linearGradient3049"/>
  <linearGradient id="linearGradient3059" x1="37.578" x2="45.405" y1="42.811" y2="46.054" gradientUnits="userSpaceOnUse" xlink:href="#linearGradient3049"/>
  <linearGradient id="linearGradient3063" x1="24" x2="31.438" y1="53.924" y2="55.957" gradientUnits="userSpaceOnUse" xlink:href="#linearGradient3049"/>
  <linearGradient id="linearGradient3067" x1="24" x2="30.962" y1="62.032" y2="64.886" gradientUnits="userSpaceOnUse" xlink:href="#linearGradient3049"/>
  <filter id="filter3149" x="-.11841" y="-.28906" width="1.2368" height="1.5781">
   <feGaussianBlur id="feGaussianBlur3151" stdDeviation="0.7083243"/>
  </filter>
  <filter id="filter3189">
   <feGaussianBlur id="feGaussianBlur3191" stdDeviation="1.1213434"/>
  </filter>
 </defs>
 <metadata id="metadata7">
  <rdf:RDF>
   <cc:Work rdf:about="">
    <dc:format>image/svg+xml</dc:format>
    <dc:type rdf:resource="http://purl.org/dc/dcmitype/StillImage"/>
   </cc:Work>
  </rdf:RDF>
 </metadata>
 <g id="layer2" fill-rule="evenodd">
  <path id="path3091" d="m101.71 95.654-6.0541-3.9784 4.8432-1.9027 9.5135 5.7081-8.3027 0.17297z" fill-opacity=".66667" filter="url(#filter3149)"/>
  <path id="path3069" d="m37.189 101.54s-21.449-5.1892-22.832-6.9189c-0.86445-1.0806 11.823-9.8811 21.496-16.291l-8.136-5.5709-1.1047 1.0612-2.0696-2.3721 0.229-2.2431 2.5497 0.61271 5.4037-6.5033 1.5476 1.2998-4.6294 6.6155 9.713 4.7787c4.0722-2.6985 7.0006-4.5656 7.0006-4.5656l9.1676 2.9405 10.269-6.8677-23.284-12.159-2.2693 3.3257-0.20082-3.8086 0.15529-3.7791 2.2223 0.55606 5.0369-6.9612 2.1408 1.0757-4.4355 6.9711 24.024 12.513 13.499-9.0279s-1.9027-2.5946-2.0757-3.2865c-0.043788-0.17515 5.4628-7.1294 6.9948-7.9887l-18.019-10.219 3.3088-1.1009 16.412 7.244c3.435-1.5339 4.843-3.7547 6.6115-4.4546l-6.4865 39.697-52.238 25.427z" fill-opacity=".70588" filter="url(#filter3189)"/>
  <path id="path2431" d="m9.1064 111.64 6.1152-3.6176 6.8324-3.9784 3.373-1.8162-2.274 4.1408 3.4848-1.7192-0.69189 1.9892 1.8162 0.17297-1.7297 1.8162 0.25946 1.0378-3.4595 0.43244-2.4216 0.77838-3.2 1.5568-4.3243 2.1622 0.34595-1.5568-1.5568 0.08648h-1.0378l0.86486-1.4703-2.3963-0.01484z" fill="url(#linearGradient2433)"/>
  <path id="path2435" d="m27.703 96.444 9.3567 0.48924 8.6229 0.5504 10.274 0.36693 9.7237-0.12231 5.9321-0.061155-4.9536 1.1008s-8.8675 2.5685-9.6625 2.752c-0.79502 0.18346-9.7848 1.3454-9.7848 1.3454s-3.0578-0.06115-4.0974-0.24462-5.504-1.3454-5.8709-1.5289-5.8097-2.3239-5.8097-2.3239l-3.7305-2.3239z" fill="url(#linearGradient2437)"/>
  <path id="path2439" d="m80.113 96.138 5.137-3.4247s6.6659-5.8097 6.6659-6.0544c0-0.24462 7.889-7.7667 7.889-7.7667l-0.36693-2.9354 1.1619-1.2231-0.79501-0.91733-0.36693-2.2016-8.5006 9.2956-10.947 11.069 0.12231 4.1586z" fill="url(#linearGradient2441)"/>
  <path id="path2443" d="m27.031 89.228c-0.67271 0.36693-8.3783 3.7305-8.3783 3.7305l3.8528-0.30578-1.1619 1.6512 2.1404-0.061155-3.3635 2.4462 5.6263-0.12231 12.17 0.18346 12.659 0.97848h14.188l7.889-0.36693 7.8279-1.1619-1e-6 -4.7089-14.066 2.2627-8.3783 0.18346-9.1121-0.48924s-11.742-1.59-12.353-1.7735c-0.61155-0.18346-9.6014-2.2627-9.5402-2.4462z" fill="url(#linearGradient2445)"/>
  <path id="path2447" d="m102.31 68.374 4.4643-5.6263 6.1767-8.684 2.8131-5.3205 0.36693 1.2843 0.06115 1.4066-2.4462 5.3817-3.4858 7.1552-1.5289 2.9966-2.4462 0.061155-0.97848 1.4677-2.9966-0.12231z" fill="url(#linearGradient2449)"/>
  <path id="path2451" d="m27.589 89.341 7.0054 1.9027 10.551 1.9027 9.0811 0.77838 7.1119 0.018353 5.5399-0.23362 9.6618-1.1685 3.7189-0.60541 10.252-10.689 4.1915-4.2737 3.696-4.0126 1.4542-1.5835-0.4447-0.36918-2.2594 0.8903-2.4195-2.0565-3.4858 6.2378-2.1404-5.4428-6.7271-0.30578 4.7701-5.6874-3.8322-7.3962 7.1958 1.8311 2.8743-7.5832 1.8958 6.299 11.314 1.8347-5.3817 2.0793 0.67271 7.1552 2.9354-3.6082 5.2594-6.6048 5.6263-9.4179-1.2231-6.5436-2.8131-6.1767-4.709-4.6478-4.4643-2.6297-3.1801 1.2231-2.6908 1.6512-3.8528 2.8743-4.7701 6.4213-0.24462 0.79502 4.8313 5.3817-5.6263 3.7916-7.7056 6.0544-14.8 13.21-4.0362 3.3635-7.0328-3.1801-5.9321 2.0181-6.1767 3.6082-3.0578 2.0181s-4.2197 3.7916-4.5866 4.2197-5.9321 6.7882-6.0462 6.6565z" fill="url(#linearGradient2453)"/>
  <path id="path2455" d="m101.38 86.811 0.44195 8.5737 1.7236 1.1049 8.5737 4.0659 0.13258-12.551-3.0936 2.0771-2.9168-2.1213-1.9887 2.3865-2.8726-3.5355z" fill="url(#linearGradient2457)"/>
  <path id="path2459" d="m112.03 100.29 0.39775-12.684s1.4584-0.70711 1.4584-0.53033-0.53033 13.921-0.53033 13.921l-1.3258-0.70711z" fill="url(#linearGradient2461)"/>
  <path id="path2463" d="m101.29 86.281 1.0165-0.44194 2.5191 3.3146 1.3258-1.5026 1.5026-0.61872 2.1655 2.3865-0.7513 0.66291-2.6958-2.1655-1.9446 2.3865-3.0052-3.3146-0.13258-0.70711z" fill="url(#linearGradient2465)"/>
  <path id="path2467" d="m83.836 58.35 7.4246 2.3423 2.5633-7.292 1.5026 5.4359 9.1924 1.6352-3.5797 1.5468-0.57452 1.5026 1.1932 5.4801 1.37 2.0329-3.1378-0.44194-2.6517 1.37-2.5633-2.1655-3.2262 6.3198-2.1213-5.5685-7.0711-0.22097 5.0381-5.701-3.3588-6.2756z" fill="url(#linearGradient2469)"/>
  <path id="path2471" d="m83.836 58.35 7.4246 2.3423 2.5633-7.292 1.5026 5.4359 9.1924 1.6352-3.5797 1.5468-0.57452 1.5026 1.1932 5.4801 1.37 2.0329-3.1378-0.44194-2.6517 1.37-2.5633-2.1655-3.2262 6.3198-2.1213-5.5685-7.0711-0.22097 5.0381-5.701-3.3588-6.2756z" fill-opacity=".15686"/>
  <path id="path3050" d="m83.881 58.306 7.2036 2.3423-0.30936-1.6352-7.5572-1.812 0.66291 1.1049z" fill="url(#linearGradient3052)"/>
  <path id="path3054" d="m90.642 59.234 2.74-7.734 0.53033 1.7678-2.6517 7.4246-0.53033-0.35355-0.088388-1.1049z" fill="url(#linearGradient3056)"/>
  <path id="path3058" d="m95.371 57.731 10.96 2.0771-2.1213 0.7513-9.0156-1.6352-0.22097-1.0607 0.39775-0.13258z" fill="url(#linearGradient3060)"/>
  <path id="path3062" d="m101.12 62.018-0.83969 1.4584 1.2374 5.6127 0.44194-0.35355-0.83969-6.7175z" fill="url(#linearGradient3064)"/>
  <path id="path3066" d="m99.349 70.99 0.70711-0.39775 2.74 0.53033-0.13258 1.2816-3.3146-1.4142z" fill="url(#linearGradient3068)"/>
  <path id="path3070" d="m82.466 70.194 4.5962-5.3917 0.39775 1.8562-4.6404 3.6681-0.35355-0.13258z" fill="url(#linearGradient3072)"/>
  <path id="path3074" d="m83.881 58.306 7.2036 2.3423-0.30936-1.6352-7.5572-1.812 0.66291 1.1049z" fill-opacity=".15686"/>
  <path id="path3076" d="m90.642 59.234 2.74-7.734 0.53033 1.7678-2.6517 7.4246-0.53033-0.35355-0.088388-1.1049z" fill-opacity=".15686"/>
  <path id="path3078" d="m95.371 57.731 10.96 2.0771-2.1213 0.7513-9.0156-1.6352-0.22097-1.0607 0.39775-0.13258z" fill-opacity=".15686"/>
  <path id="path3080" d="m101.12 62.018-0.83969 1.4584 1.2374 5.6127 0.44194-0.35355-0.83969-6.7175z" fill-opacity=".15686"/>
  <path id="path3082" d="m99.349 70.99 0.70711-0.39775 2.74 0.53033-0.13258 1.2816-3.3146-1.4142z" fill-opacity=".15686"/>
  <path id="path3084" d="m82.466 70.194 4.5962-5.3917 0.39775 1.8562-4.6404 3.6681-0.35355-0.13258z" fill-opacity=".15686"/>
  <path id="path3086" d="m84.102 58.35 5.8778 1.8562 2.0329 2.1655 2.5633 1.591 0.88388 0.44194 0.48614 1.0165 0.48614 0.61872 1.0165 0.044194 0.88388-0.66291 2.4307 0.26516 0.48613 2.0771-1.37 0.17678-1.5468-0.044195-4.0659-1.1049-3.6239-2.2539-4.9056-2.7842-1.6352-3.403z" fill="url(#linearGradient3088)"/>
  <path id="path3090" d="m96.034 59.101-0.39775 5.701 0.30936 0.70711 0.57452 0.61872 1.2374-0.22097 0.48614-0.57452 0.13258-2.0771 0.44194-3.8007-2.7842-0.35355z" fill="url(#linearGradient3092)"/>
  <path id="path3094" d="m86.93 70.327 5.5243-3.3146-0.39775 1.2816 1.0165 0.35355-0.70711 0.48614 1.1932 0.44194-3.4913 3.4471-0.92808-2.3865-2.2097-0.30936z" fill="url(#linearGradient3096)"/>
  <path id="path3098" d="m87.5 42.438-4.875 12.188 4-2.75 6.0625-4.1875-4.75-5.4375-0.4375 0.1875z" fill="url(#linearGradient3100)"/>
  <path id="path3102" d="m24.062 72.625 0.375-14.031 0.03125-3.6875v-0.65625l0.15625-4.25 0.15625-0.375 0.53125 0.3125 0.3125 0.03125 0.1875-1.8438 0.25 0.1875 0.5 1.0938s0.8125-0.625 0.625-0.40625-0.0625 7.1562-0.0625 7.1562l-1.0312 0.3125 0.34375 0.5625-1.5938 0.3125 2.3438 0.96875-0.03125 8.2188-0.3125 7.9688-0.5-1.0625h-0.8125l-0.5-0.78125-0.8125 0.21875-0.15625-0.25z" fill="url(#linearGradient3104)"/>
  <path id="path3106" d="m39.969 72.469-18.031-8.3125-1.0938 0.40625 0.5625 1.4062-4.3125-0.15625-0.71875 0.31976 18.906 9.4615 4.0312 2.1875 4.2812-2.9688-3.625-2.3438z" fill="url(#linearGradient3108)"/>
  <path id="path3110" d="m37.219 56.969 0.875-10.281 0.0625-8.5938 0.09375-18.438-0.0625-2 0.5625 1.5938 0.59375-0.59375 0.3125 0.90625 0.625-1.25 1.1562 3.8438-0.21875 6.5312-0.125 6.1875-1.0625 0.375 0.6875 0.6875-0.21875 0.6875 0.5625 0.6875-0.21875 9.3125-0.15625 8.8125-0.15625 6.3125-0.59375-2.9375-1.7812-0.4375-0.0625-1.4062-0.84375 0.15625-0.03125-0.15625z" fill="url(#linearGradient3112)"/>
  <path id="path3114" d="m73.407 62.593-18.208-8.0875-0.7955 0.92808-0.35355 1.1049-0.48614-1.9004-0.70711 0.57452-0.39775-1.812-24.881-10.96 0.044194 1.591-1.1049 0.30936 0.48614 1.4142-2.4307-0.70711 1.0165 1.0607 43.575 20.374 4.2426-3.8891z" fill="url(#linearGradient3116)"/>
  <path id="path3118" d="m48.967 42.882 22.627-2.7842-3.2262 2.2539 2.2097 0.44194-3.6681 0.7513 1.3258 0.92808-18.208 2.8726 2.6516-1.812-1.9445-0.35355 1.591-1.0165-3.3588-1.2816z" fill="url(#linearGradient3120)"/>
  <path id="path3122" d="m89.582 38.816-11.535-5.4359-1.1049 3.2262-0.088389-2.6958-0.61872 0.44194 0.088388-1.7678-3.8007-1.6794-1.9003 0.044194 0.92808 1.149-1.7678-0.39775 0.22097 1.0165-1.37-0.17678-1.4142 0.48614 20.241 9.4576 2.1213-3.6681z" fill="url(#linearGradient3124)"/>
  <path id="path2426" d="m22.444 91.368-0.42809-1.8347-1.2231-0.48924 5.9932-5.3817 8.1336-7.4609 5.9932-4.4032 5.6874-3.3635 0.57813 1.23-2.9405 2.8541 1.4703 1.1676-2.2486 1.2973-2.4216-1.2108-3.5459 2.7243 1.9892 0.9946-1.9892 1.6432-1.9027-1.1243-2.7243 2.5081 1.8162 1.1243-2.1622 1.9892-1.7297-0.90811-2.7676 2.2919 1.9459 1.3405-1.3405 1.6432-2.1189-1.2108-3.1568 2.2486 1.4703 1.3838-2.3777 0.94642z" fill="url(#linearGradient2428)"/>
  <path id="path2430" d="m22.444 91.368-0.42809-1.8347-1.2231-0.48924 5.9932-5.3817 8.1336-7.4609 5.9932-4.4032 5.6874-3.3635 0.57813 1.23-2.9405 2.8541 1.4703 1.1676-2.2486 1.2973-2.4216-1.2108-3.5459 2.7243 1.9892 0.9946-1.9892 1.6432-1.9027-1.1243-2.7243 2.5081 1.8162 1.1243-2.1622 1.9892-1.7297-0.90811-2.7676 2.2919 1.9459 1.3405-1.3405 1.6432-2.1189-1.2108-3.1568 2.2486 1.4703 1.3838-2.3777 0.94642z" fill-opacity=".15686"/>
  <path id="path3015" d="m84.102 58.35 5.8778 1.8562 2.0329 2.1655 2.5633 1.591 0.88388 0.44194 0.48614 1.0165 0.48614 0.61872 1.0165 0.044194 0.88388-0.66291 2.4307 0.26516 0.48613 2.0771-1.37 0.17678-1.5468-0.044195-4.0659-1.1049-3.6239-2.2539-4.9056-2.7842-1.6352-3.403z" fill-opacity=".15686"/>
  <path id="path3017" d="m96.034 59.101-0.39775 5.701 0.30936 0.70711 0.57452 0.61872 1.2374-0.22097 0.48614-0.57452 0.13258-2.0771 0.44194-3.8007-2.7842-0.35355z" fill-opacity=".15686"/>
  <path id="path3019" d="m86.93 70.327 5.5243-3.3146-0.39775 1.2816 1.0165 0.35355-0.70711 0.48614 1.1932 0.44194-3.4913 3.4471-0.92808-2.3865-2.2097-0.30936z" fill-opacity=".15686"/>
  <path id="path3021" d="m84.102 58.35 5.8778 1.8562 2.0329 2.1655 2.5633 1.591 0.88388 0.44194 0.48614 1.0165 0.48614 0.61872 1.0165 0.044194 0.88388-0.66291 2.4307 0.26516 0.48613 2.0771-1.37 0.17678-1.5468-0.044195-4.0659-1.1049-3.6239-2.2539-4.9056-2.7842-1.6352-3.403z" fill-opacity=".15686"/>
  <path id="path3023" d="m96.034 59.101-0.39775 5.701 0.30936 0.70711 0.57452 0.61872 1.2374-0.22097 0.48614-0.57452 0.13258-2.0771 0.44194-3.8007-2.7842-0.35355z" fill-opacity=".15686"/>
  <path id="path3025" d="m86.93 70.327 5.5243-3.3146-0.39775 1.2816 1.0165 0.35355-0.70711 0.48614 1.1932 0.44194-3.4913 3.4471-0.92808-2.3865-2.2097-0.30936z" fill-opacity=".15686"/>
  <path id="path3027" d="m50.205 23.135 4.8432 13.103 0.69189-3.373 1.0811 1.9027 0.64865-3.5459-2.8541-6.4432-1.9459 3.8054-0.12973-0.17297h0.17297l0.38919-5.0595-1.5135-0.6054-0.56216-1.9027-0.51892-0.99459-0.3027 3.2865z" fill="url(#linearGradient3029)"/>
  <path id="path3031" d="m90.119 38.141c-0.43243-0.17297-2.3351-1.2973-2.3351-1.2973l-2.1622 2.8108-0.47568-0.86486-1.0811 0.21622 0.43243-1.3405 1.6432-2.3351 2.3351-2.3351 4.1081-3.2 0.56216 0.69189 0.086487 0.51892-0.51892 0.60541 1.773 1.8162-1.1243 0.9946-2.1622-1.4703-1.427 1.8162 1.7297 1.8162-1.3838 1.5568z" fill="url(#linearGradient3033)"/>
  <path id="path3035" d="m99.849 29.924-1.427-0.86486 1.9459-2.3351s-1.0811-0.17297-1.0811-0.34595-0.21622-1.0811-0.21622-1.0811l-3.5027 4.627 1.0378-0.086486 0.2363 0.90024 0.80154-0.64078 0.77838 0.69189 1.6432-0.86486h-0.21621z" fill="url(#linearGradient3037)"/>
  <path id="path3039" d="m90.119 38.141c-0.43243-0.17297-2.3351-1.2973-2.3351-1.2973l-2.1622 2.8108-0.47568-0.86486-1.0811 0.21622 0.43243-1.3405 1.6432-2.3351 2.3351-2.3351 4.1081-3.2 0.56216 0.69189 0.086487 0.51892-0.51892 0.60541 1.773 1.8162-1.1243 0.9946-2.1622-1.4703-1.427 1.8162 1.7297 1.8162-1.3838 1.5568z" fill-opacity=".15686"/>
  <path id="path3041" d="m99.849 29.924-1.427-0.86486 1.9459-2.3351s-1.0811-0.17297-1.0811-0.34595-0.21622-1.0811-0.21622-1.0811l-3.5027 4.627 1.0378-0.086486 0.2363 0.90024 0.80154-0.64078 0.77838 0.69189 1.6432-0.86486h-0.21621z" fill-opacity=".15686"/>
  <path id="path3043" d="m27.703 96.444 9.3567 0.48924 8.6229 0.5504 10.274 0.36693 9.7237-0.12231 5.9321-0.061155-4.9536 1.1008s-8.8675 2.5685-9.6625 2.752c-0.79502 0.18346-9.7848 1.3454-9.7848 1.3454s-3.0578-0.06115-4.0974-0.24462-5.504-1.3454-5.8709-1.5289-5.8097-2.3239-5.8097-2.3239l-3.7305-2.3239z" fill-opacity=".15686"/>
  <path id="path3045" d="m101.38 86.811 0.44195 8.5737 1.7236 1.1049 8.5737 4.0659 0.13258-12.551-3.0936 2.0771-2.9168-2.1213-1.9887 2.3865-2.8726-3.5355z" fill-opacity=".15686"/>
  <path id="path3047" d="m38.283 19.664 2.171 3.6387 1.5595 2.1404 2.0181 2.2627 0.88675 0.67271 2.3545 1.6818-0.79502-0.030577s-0.67271-0.061155-1.0702-0.15289-2.966-1.59-3.2718-1.6818c-0.30578-0.091732-2.2627-1.6206-2.0793-1.2231 0.18346 0.39751 1.4066 2.9354 1.4066 2.9354l1.4066 2.5991 2.0181 2.5074-0.88675 0.030578-2.171-0.94791-0.97848-0.58097-2.7214-1.957-0.76444-3.6387-0.030578-2.1099 0.12231-2.6908 0.39751-2.3239 0.42809-1.1314z" fill="url(#linearGradient3055)"/>
  <path id="path3057" d="m38.011 38.876 2.3351 2.0757 2.8108 2.8541 3.8919 2.5081-0.56216 0.38919-2.4649 0.043243-2.9838-1.1676-2.8973-1.2108-0.60541-1.2108-0.17297-1.6865 0.34595-1.7297 0.3027-0.86486z" fill="url(#linearGradient3059)"/>
  <path id="path3061" d="m32.476 56.605-3.373-1.773-4.627-3.5892-0.25946 0.95135-0.21622 0.69189 0.34595 1.2108 0.77838 0.21622 2.5514 1.2541 2.0324 0.82162 1.1243 0.21622h1.6432z" fill="url(#linearGradient3063)"/>
  <path id="path3065" d="m24.303 58.681-0.3027 1.5135 0.043243 1.427 0.38919 1.5568 5.0595 1.9459 2.1622 0.25946-1.5568-0.9946-1.4703-1.2973-1.6865-1.6865-2.1189-2.2486-0.51892-0.47568z" fill="url(#linearGradient3067)"/>
 </g>
 <g id="layer1">
  <path id="path2308" d="m38.094 16.938v2.3438c-1.0059 4.0386-1.262 9.2439-0.09375 12.438l-0.03125 6.625c-0.72749 1.9636-1.0947 4.3038-0.0625 6.0938v2.4375l-10.375-4.5-0.125 1.6875-1.3438-0.71875 0.71875 2.2188-2.7188-0.84375 1.3125 1.5312 11.844 5.5625-0.125 5.4375 0.9375-0.0625v1.3125l1.8125 0.46875 0.75 3.375 0.28125-8.8125 27.688 13.031c-2.7258 2.4465-5.503 4.8673-8.4375 7.1875l-6.7188-3.125c-2.2602 0.25858-4.92 1.2132-7.7812 2.75l-1.1562-0.875 2.2812-2.1875 0.46875-0.78125-0.5-1.4062c-2.4152 1.2408-4.7031 2.6413-6.9062 4.1562l-12.531-5.75v-2.0625c1.5442 0.60006 3.1167 1.1043 4.7188 0.96875-2.1263-1.0289-3.4865-2.3571-4.7188-3.75v-3.4375l-2.2188-0.875 1.5625-0.28125-0.40625-0.625 1.0312-0.125v-0.8125c1.6254 0.83074 3.2733 1.5826 5.4375 1.1562-1.8028-1.0479-3.7007-2.1644-5.4375-3.4062v-4.4688c-0.1667 0.067178-0.41702 0.50627-0.59375 0.34375-0.32578-0.29959-0.59894-1.3249-0.90625-1.1562-0.22025 0.12089 0.059511 1.2851-0.15625 1.8125-0.12231 0.29895-0.71296-0.32845-0.84375-0.25l-0.3125 0.53125c-0.003569 0.35069 0.002657 0.54336 0 0.875-0.25428 1.1099-0.7601 2.2513-0.125 3.25 0.1855 1.2466 0.094717 2.8533 0.09375 4.2188-0.39008 0.04348-0.86467 3.6647-0.0625 4.875-0.011519 0.61814-0.014085 1.1573-0.03125 1.8438l-2.5-1.1562-1.0312 0.53125 0.40625 1.25-4.1562-0.0625-0.90625 0.46875 7.9062 3.9688 0.03125 2.875 1-0.3125 0.3125 0.84375h0.78125l0.75 1.2188 0.1875-3.125 8.0938 4.0625c-5.1852 4.1317-9.9567 8.8142-14.75 13.438 0.21982 0.53344 1.1883 0.31734 1.4688 0.65625-0.004671 0.45596 0.2196 1.0134 0.28125 1.4062l-3.5312 1.75 0.03125 0.125 3.25 0.09375-1.0312 1.3438 2.125-0.25-3.8125 2.7812c2.7816-0.13844 5.5696-0.15606 8.375-0.125 10.659 6.0598 17.405 6.656 23.938 5.7812 0.90854-0.12165 1.8339-0.27734 2.7812-0.46875 5.4908-1.1094 11.714-3.2559 19.594-4.8125 2.226-0.23649 4.4674-0.54013 6.7188-0.9375 7.1706-5.1142 13.397-11.171 19.438-17.562-0.086509-0.99089-0.25319-1.7934-0.5-2.8125 0.5997-0.73536 0.95932-0.73308 1.2188-1.375 0.01164-0.28974-0.88997-0.57814-0.9375-0.90625-0.19163-1.1213-0.1804-1.7826-0.125-2.1875l0.1875-0.25 2.7812 1.1562 0.1875-1.4062h0.125l-0.875-1.9375c0.26366-0.16112 0.55949-0.40858 0.78125-0.6875 0.68025-0.1102 1.6059 0.41631 2.2812 0.28125 0.51658-0.13308 0.70677-1.1616 1.0938-1.4688 1.0315 0.060544 1.799 0.42033 2.5625-0.125l7.6562-15.844-0.40625-2.3125-0.125-0.75h-0.03125c-1.6704-8.5632-3.0074-13.718-13.438-19.406-0.83202 0.30261-1.6271 0.63951-2.4062 1l-1.3438-1.0625 1.625-2.125-0.96875-0.34375-0.34375-1.2812-3.8438 5 1.3125 0.03125 0.3125 0.78125 0.71875-0.625 0.5625 0.625c-1.2309 0.68908-2.385 1.4623-3.4688 2.3125l-1.8438-1.5312 0.5625-0.59375-0.0625-0.78125-0.875-0.78125-0.09375 0.21875c-3.1345 2.431-5.4554 3.9468-7.25 6.7812l-7.0625-3.1875c-0.19526-0.069257-0.95058 2.913-1.0625 2.8438l0.03125-2.4375-0.59375 0.40625-0.0625-1.5938-3.8125-1.7188-2 0.09375 0.84375 1-1.5938-0.34375 0.1875 1-1.3438-0.15625-1.7812 0.59375 20.281 9.6875-5 12.219c-3.1047 2.3388-5.9904 4.8345-8.8438 7.375l-18.188-7.9375-1.0938 1.5625-0.3125-2.1562-0.78125 1.2188-0.3125-1.7188-11.625-5.0625 0.03125-2.5625c2.1378 1.0126 4.275 1.9974 6.6875 0.8125-2.6089-1.2798-4.6479-2.9627-6.5938-4.875l0.0625-4.4062-0.5-0.625 0.1875-0.75-0.625-0.46875 1-0.53125 0.03125-0.9375c1.2104 0.80118 2.4548 1.4375 3.8125 1.2812-2.0024-2.2246-2.8613-4.0841-3.75-5.9375l0.03125-1.2812c1.9712 1.1767 3.8567 2.527 6.4375 2.2812-3.2715-1.9078-5.0199-3.8199-6.375-5.7812l0.03125-2.5625-1.0625-4.125-0.6875 1.5312-0.25-1.4688-0.5625 1.25-0.78125-2.125zm0.1875 0.90625 0.34375 1.75 0.53125-0.625 0.53125 1.0625 0.5625-1.6875 1 3.9375c-0.013827 0.63607-0.01864 1.2599-0.03125 1.875-1.0188-1.5199-1.8398-3.062-2.9375-4.6875v-1.625zm12.094 1.5938-0.375 3.625 5 13.531 0.78125-3.0625 1.125 1.6875 0.71875-4.1562-3.0312-6.5312-1.875 3.875 0.59375-5.1562-1.3125-0.4375-1.625-3.375zm-12.094 0.59375c2.3112 3.494 4.0955 7.2783 8.5 9.6875-1.7379 0.88442-4.9116-2.2012-7.0625-2.9688 1.1996 2.279 2.7783 6.4544 4.8438 8.1562-2.7384-0.27327-4.695-2.2664-6.2812-3.3438-0.59888-2.1382-1.4871-8.2495 0-11.531zm12.406 0.21875 0.78125 2.7812 1.4062 0.40625-0.21875 4.7812-2.2188-5.0625 0.25-2.9062zm3.7188 4.9062 2.9688 6.25-0.65625 2.8438-1.125-2.3438-0.59375 3.5938-2.1875-7 1.5938-3.3438zm44.594 0.40625 0.15625 0.90625 1 0.375-1.9375 2.2812 1.3438 1.0312c-0.37168 0.18107-0.73442 0.36792-1.0938 0.5625l-0.9375-0.78125-0.5625 0.5625-0.25-0.75-0.8125 0.125 3.0938-4.3125zm-58.594 1.8438c0.24172 0.12944 0.48132 0.26681 0.71875 0.40625-0.006202 0.31909-0.025921 0.64244-0.03125 0.96875-0.22185-0.45711-0.43244-0.90682-0.6875-1.375zm62.031 2c0.41446 0.21974 0.79925 0.42934 1.1875 0.65625-7.6996 4.5344-11.695 9.1291-14.188 13.469l-1.3438-1.5312c1.8216-3.0532 3.3985-5.3371 5.3438-7.2188h0.03125c0.005206-0.005025-0.005212-0.026231 0-0.03125 2.2098-2.1283 4.8977-3.7393 8.9688-5.3438zm-9.9375 0.625 0.4375 0.40625 0.03125 0.65625-0.5625 0.59375 1.875 1.8125c-0.30911 0.25156-0.60941 0.51626-0.90625 0.78125l-2.2812-1.5-1.6875 2.0938 1.7188 1.6875c-0.39126 0.44514-0.7916 0.90071-1.1562 1.375-0.1237-0.1127-0.54589-0.36853-2.1875-1.2188l-2.375 2.6875-0.21875-0.90625-0.8125 0.25c1.8167-3.9693 4.3287-5.7692 8.125-8.7188zm11.375 0.1875c0.70671 0.42184 1.3778 0.86796 2 1.3125-4.6759 3.6333-8.72 5.9026-15.375 13.219l-0.96875-1.0938c2.4682-4.2952 6.637-8.9292 14.344-13.438zm-31.312 0.8125 3.7188 1.75-0.125 1.75 0.625-0.4375 0.15625 2.8125 1.1562-3.2812 6.8125 3.2188c-0.38071 0.63568-0.75649 1.3316-1.0938 2.125l0.34375 0.21875c0.025069-0.058976 0.068395-0.098219 0.09375-0.15625l0.75-0.0625 0.46875 0.9375 1.5938-2.0312 2.2188 1.0312c-0.70801 1.007-1.3706 2.0602-1.9688 3.1875l-19.562-9.125 1.0625-0.28125 1.3438 0.0625-0.21875-0.9375 1.875 0.53125-0.96875-1.2188 1.7188-0.09375zm33.438 0.59375c0.79595 0.57582 1.5211 1.1716 2.1875 1.7812-6.083 4.1449-11.22 8.6308-16.031 13.219l-1.5938-1.8125c6.5176-7.142 10.733-9.5397 15.438-13.188zm-67.625 0.3125c0.88888 0.51393 1.749 1.1521 2.625 1.75-0.008545 0.34013-0.023872 0.63138-0.03125 1-0.004133 0.20637-1.0271 0.41466-1.0312 0.625-0.003564 0.18157 0.62857 0.31528 0.625 0.5-0.0052 0.26954-0.21355 0.50453-0.21875 0.78125l0.5625 0.5625-0.09375 4.1562c-0.79731-0.79534-1.593-1.6399-2.4062-2.5l-0.03125-6.875zm52.719 1.25 2 1.3438c-0.58075 0.53363-1.1547 1.1014-1.6875 1.6875l-1.5625-1.5312 1.25-1.5zm17.156 0.28125c0.62302 0.57437 1.1998 1.1494 1.7188 1.75-9.005 7.2567-17.497 14.669-25.906 22.031l-1.125-0.28125 0.46875 0.875c-13.452 11.779-26.715 23.445-41.469 34.312-0.89277-0.15937-1.7773-0.32842-2.6562-0.5l20.969-17.469 0.21875 0.09375c8.0471-6.2689 13.552-12.62 22.031-18.875h0.03125c0.005013-0.003696-0.005015-0.027554 0-0.03125 3.2347-2.3836 6.187-5.2792 10.594-7.625l-0.90625-1.0312c4.7962-4.5729 10.002-9.1434 16.031-13.25zm1.7812 1.8125c0.53089 0.61971 1.006 1.2627 1.4375 1.9062-6.0694 4.9492-11.962 9.8988-17.75 14.844l-0.3125-1.1562-0.78125 2.125c-1.9473 1.6662-3.8804 3.3059-5.8125 4.9688l-2.625-0.6875c8.385-7.3728 16.859-14.76 25.844-22zm-22.281 1.7188 1.9375 1.3125c-0.053796 0.072478-0.10305 0.14562-0.15625 0.21875l-2.2188-1 0.4375-0.53125zm23.781 0.3125c0.30091 0.45552 0.58747 0.90933 0.84375 1.375-5.902 5.3458-11.858 10.675-17.875 15.969l-0.71875-2.4688c5.8008-4.9606 11.675-9.9193 17.75-14.875zm0.9375 1.5c0.35834 0.66313 0.65922 1.3512 0.9375 2.0312-6.005 5.5014-12.071 10.945-18.188 16.344l-0.6875-2.375c6.0197-5.3027 12.004-10.627 17.938-16zm-74.281 0.3125c2.5966 2.3984 5.1365 5.6255 8.5625 7.0312-2.2592 1.4682-6.2663-1.0555-8.5625-1.875-0.90589-1.7742-0.91629-3.5312 0-5.1562zm33.812 0.84375-23.812 2.7812 3.4375 1.7188-1.1562 0.65625 1.6875 0.53125-2.9688 1.9688 19.375-3.0312-1.25-1.0625 4-0.6875-2.5-0.53125 3.1875-2.3438zm-1 0.46875-2.9062 2 1.5625 0.34375-2.9375 0.78125 1.2188 0.84375-16.875 2.5625 2.0625-1.5312-1.9688-0.28125 1.6875-0.9375-3.1562-1.1562 21.312-2.625zm42.469 0.53125c0.2206 0.54901 0.4183 1.0987 0.59375 1.6562-5.4013 5.161-10.869 10.275-16.406 15.344l-2.3438-0.4375-0.0625-0.21875c6.1251-5.4028 12.208-10.838 18.219-16.344zm-25.625 1.8125 4.25 4.9688c-3.5621 1.8114-6.0736 4.314-9.0938 6.5312l4.8438-11.5zm26.281 0.0625c0.20708 0.68011 0.38056 1.3734 0.53125 2.0625-4.6112 4.6239-9.2671 9.1766-13.969 13.625l-2.8438-0.53125c5.4757-4.9948 10.919-10.036 16.281-15.156zm-86.438 0.0625 24.781 10.781 0.3125 1.6875 0.6875-0.375 0.5625 1.9062 0.75-1.9062 0.96875 0.125 17.188 7.5c-1.314 1.1731-2.6256 2.3517-3.9375 3.5312l-43.156-20.219-0.84375-0.78125 2.7812 1.0312-1.1562-1.6875 1.1875-0.125-0.125-1.4688zm10.781 1.6875c0.76835 0.25342 1.5259 0.61106 2.2812 0.96875l-0.0625 2.5312-2.2188-0.96875v-2.5312zm76.25 0.46875c0.11754 0.55258 0.19338 1.1002 0.28125 1.6562-4.1147 4.1453-8.2395 8.1719-12.375 12.156l-1.7812-0.3125c4.7158-4.4044 9.3596-8.8974 13.875-13.5zm0.3125 1.8125c0.08453 0.55098 0.12637 1.1039 0.1875 1.6562-3.2837 3.629-6.6037 7.2423-10 10.812l-2.375-0.4375c4.0647-3.9351 8.1254-7.9382 12.188-12.031zm-89.188 1.5c0.17815-0.14496 0.57185 1.1607 0.75 1.0938l0.34375-0.25 0.03125 3.8438c-0.80226-0.58642-1.5623-1.2066-2.25-1.8438 0.014185-0.21835 0.01519-0.40019 0.03125-0.625l0.21875-0.6875 0.78125 0.15625 0.09375-1.6875zm89.406 0.40625c0.01431 0.13617 0.04937 0.27008 0.0625 0.40625-0.59895 1.233-1.2368 2.4361-1.9062 3.625-1.1809 1.499-5.4419 6.8441-11.531 13.781l-0.34375-3.2188c0.77671-0.79528 1.5696-1.5782 2.3438-2.375l3-1.3438-1.4688-0.28125c3.3398-3.5031 6.6165-7.0295 9.8438-10.594zm0.59375 0.71875 0.25 1.9688c-2.5261 5.4293-4.6265 10.409-7.6562 15.219-0.45864 0.34616-1.6426 0.2577-2.2188 0.3125-0.47425 0.20587-0.78107 1.1033-1.1875 1.4062-0.75488-0.43258-1.3327-0.32868-2.1562-0.1875 4.461-5.2062 8.7012-10.996 12.969-18.719zm-91.344 2.0312c2.1797 1.7643 4.6081 3.7104 7.375 4.9688-1.8376 0.17417-5.5097-1.6675-7.4062-2.5312-0.61774-0.94458-0.024551-1.648 0.03125-2.4375zm13.312 0.5625 2.8125 1.3125-0.125 7.8125-0.5625-2.7812-1.625-0.40625-0.09375-1.1875-0.78125 0.125 0.375-4.875zm55.594 0 0.34375 1.3125-2.625 6.875c-0.072405-0.057085-0.14307-0.66668-0.21875-1.0312l2.5-7.1562zm-0.90625 1.2188-1.7188 4.625c-0.31794 0.27633-0.65105 0.5359-0.96875 0.8125l-2.8125-0.71875c1.8276-1.5748 3.6597-3.1416 5.5-4.7188zm1.3125 0.40625 0.625 2.4375-2.0312 1.9375 1.4062-4.375zm18.875 0.28125c-2.9689 5.0413-6.5275 9.759-10.594 14.438l-0.1875-1.5625c5.447-6.2 9.0744-10.725 10.781-12.875zm-88.125 0.3125c0.83495 0.28222 1.6231 0.65941 2.4062 1.0625v0.71875l-1.0312 0.3125 0.3125 0.59375-1.625 0.34375 2.375 0.96875v3.0312c-0.80863-0.93443-1.5974-1.8748-2.5-2.7812-0.010293-1.3893 0.016933-2.822 0.0625-4.25zm69.906 2.0312 0.40625 1.5938 0.21875 0.9375-3.4375 3c-0.47724-0.4044-0.93667-0.83929-1.4062-1.2812l1.2188 0.40625 0.84375-2.6562 2.1562-2zm-10.688 1.2812 6.875 1.75c-0.052761 0.38253-0.056557 0.88313-0.1875 0.84375l-6.4062-2.0625-0.28125-0.53125zm-0.34375 0.3125 1.0938 2c-12.871 11.088-25.573 22.092-39.219 32.781-1.0307-0.15572-2.0554-0.35371-3.0625-0.53125 14.703-10.846 27.852-22.519 41.188-34.25zm11.938 0.09375 10.406 1.8438-1.2812 0.46875-8.9062-1.625-0.21875-0.6875zm-4.6875 0.15625-0.28125 0.71875-0.40625-0.09375c0.23073-0.20679 0.458-0.41695 0.6875-0.625zm-6.3438 0.4375 5.0938 1.6875c1.2944 1.3065 2.8009 2.4026 4.375 3.2812h0.03125c0.51675 0.28754 1.0376 0.57523 1.5625 0.8125 0.16904 1.8122 0.9929 2.171 2.6562 1.4375l0.1875-0.375c0.82646 0.2061 1.6111 0.31254 2.375 0.34375l0.46875 1.875c-4.3575 1.013-10.724-3.6079-15.125-6.0625l-1.625-3zm10.75 0.3125 0.78125 0.15625-0.25 2.7188-1.8125 1.625c-0.73115-0.44864-1.4052-0.94828-2.0625-1.5l3.3438-2.9688v-0.03125zm-70.656 0.0625c2.1494 2.1702 4.1689 4.8183 6.75 6.125-2.5172-0.32093-4.7481-1.2744-6.7812-2.1875-0.55295-1.3551 0.043266-2.7394 0.03125-3.9375zm71.812 0.1875 2.3438 0.46875-0.46875 5.5c-0.15493 0.24913-0.29906 0.46956-0.46875 0.625-1.1327 0.45158-1.3483 0.030695-1.8125-1l0.40625-5.5938zm2.6562 0.53125 1.6562 0.34375-1.9375 2 0.28125-2.3438zm-14.312 0.34375 1.1875 2.2188c-12.025 10.447-24.223 20.761-36.469 30.938-1.284-0.14321-2.5413-0.28386-3.7812-0.46875 13.597-10.657 26.254-21.642 39.062-32.688zm16.094 0.03125 1.8438 0.375-0.9375 0.9375-0.8125 0.3125 0.03125 0.1875-0.1875 0.5-2.3125 2.375 0.3125-2.5 2.0625-2.1875zm2 0.40625 0.9375 0.1875-1.7188 0.625 0.78125-0.8125zm0.75 0.6875c-0.64469 0.66734-1.2913 1.3336-1.9375 2l-0.125-1.0938 2.0625-0.90625zm-7.8125 0.8125-0.21875 2.2812c-0.51738-0.2257-1.0035-0.50218-1.4688-0.78125l1.6875-1.5zm-9.375 0.125c0.95738 0.44541 2.0095 1.0717 3.0938 1.75l-1.8438 1.6562-0.09375-0.8125 0.15625-0.1875-1.3125-2.4062zm-0.40625 0.3125 1.0625 2c-11.146 9.7205-22.433 19.371-33.812 29.125-1.2023-0.08371-2.373-0.18641-3.5312-0.3125 12.232-10.163 24.337-20.42 36.281-30.812zm15.031 0.03125 0.71875 6.4688-1.0625-5.2812 0.34375-1.1875zm-0.375 0.28125-0.3125 0.875 0.40625 1.8438c-0.82868-0.054525-1.5996-0.17084-2.3125-0.3125v-0.125l0.03125-0.03125 2.1875-2.25zm-75.906 0.65625c0.79648 0.28741 1.6178 0.61274 2.4375 0.9375v2.0625l-2.4062-1.125c-0.01161-0.73118-0.018532-1.2105-0.03125-1.875zm64.844 0.53125c0.7368 0.4619 1.4774 0.93399 2.25 1.4062l-5.5625 4.9375-2.9375-0.125 4.4062-3.5938-0.09375-0.875 1.9375-1.75zm-67.438 0.40625 17.5 8.125c-1.3961 0.97036-2.7311 2.0088-4.0625 3.0625l-18.875-9.4375 0.53125-0.25 4.5 0.1875-0.6875-1.3125 1.0938-0.375zm64.625 0.5-4.625 5.5 1.8125 0.125c-8.7859 7.827-17.673 15.588-26.625 23.312-1.3301-0.02939-2.6341-0.1329-3.9062-0.21875 11.212-9.6106 22.344-19.135 33.344-28.719zm0.40625 0.3125 0.1875 1.25-4.5 3.7188h-0.09375l4.4062-4.9688zm4.7812 0.25c0.77594 0.47197 1.5504 0.94111 2.3438 1.3438l-1.625 1.6875-0.40625-0.0625 0.75-1.8438-6.0938 3.7812h-0.3125l5.3438-4.9062zm2.5 1.4062c0.4617 0.23018 0.94377 0.4402 1.4062 0.625l-2.0312 2.0625-1.0312-0.25 0.65625-0.6875-0.5625-0.09375 1.5625-1.6562zm-2.1875 0.5-0.21875 1.125 0.8125 0.3125-0.75 0.4375 1.2812 0.46875-3.0938 2.9062-0.875-2.1562-2.0625-0.09375 4.9062-3zm3.75 0.1875c0.86677 0.33502 1.7119 0.56216 2.5625 0.65625l-2.4375 2.6875-1.4375-1.2188-3.2812 5.7188-0.90625-2.2188 5.5-5.625zm5.2188 0.4375 0.21875 0.75-1.5938 1.8438h-0.03125l-2.6562 1.1875-0.84375-0.71875 2.625-2.8125c0.77579 0.046763 1.5403-0.00303 2.2812-0.25zm-54.719 0.84375 0.5625 0.8125-0.3125 0.46875-2.7188 2.4375 1.2188 1.1562c-0.59386 0.3302-1.2044 0.68452-1.8125 1.0625l-2.3438-1.125-3.7812 2.9062 2 1.0938c-0.57456 0.43723-1.1729 0.87178-1.75 1.3438l-1.8438-1.0625-3.0625 2.7188 1.8438 1.0312c-0.6257 0.57705-1.2554 1.1682-1.875 1.7812l-1.8125-0.9375-2.8438 2.625 1.8438 1.25c-0.3613 0.3975-0.70628 0.81002-1.0625 1.2188l-2.1562-1.0938-3.5625 2.625 1.4062 1.2188-1.4062 0.59375c-0.43643-0.32647-0.4852-0.79919-0.65625-1.2812-0.28867-0.39368-0.76494-0.3121-0.90625-0.625 7.824-6.7798 14.576-14.627 25.031-20.219zm54.969 0.0625 0.09375 0.34375 1.2812 1.75-2.75-0.375 1.375-1.7188zm-6.625 1.3438 2.25 1.875c-0.039302 0.043495-0.084618 0.081345-0.125 0.125-6.1372 6.687-13.412 13.334-19.719 19.75-1.9264 0.37521-3.7918 0.68636-5.5938 0.9375 6.384-6.0528 12.723-12.128 18.938-18.281l0.8125 1.9688 3.4375-6.375zm-70.219 0.1875 2.3438 1.1562-0.0625 2.75-0.46875-1h-0.71875l-0.46875-0.8125-0.71875 0.21875 0.09375-2.3125zm59.469 0.09375 3.4688 0.25c-8.6297 7.6692-17.43 15.27-26.25 23.031-1.3065 0.03221-2.5957 0.05651-3.8438 0.03125 9.0024-7.7678 17.819-15.503 26.625-23.312zm3.5625 0.25 1.375 0.09375 0.34375 0.8125c-7.804 7.3121-15.652 14.514-23.469 21.875-1.4207 0.10962-2.8059 0.20992-4.1562 0.25 8.7805-7.7711 17.356-15.246 25.906-23.031zm12.188 0.15625 2.7188 0.21875 0.0625 1.1875-2.9688-1.3125 0.1875-0.09375zm-46.375 0.25 0.53125 0.21875c-9.4405 5.2123-16.653 11.699-23.219 18.531-0.87738-0.18482-1.7435-0.38402-2.625-0.5625 5.9564-6.936 13.252-14.945 25.312-18.188zm45.875 0 0.40625 0.15625c-0.094858 0.10734-0.1866 0.20596-0.28125 0.3125-0.35873 0.4038-0.70649 0.79442-1.0625 1.1875l-0.84375-0.71875 1.7812-0.9375zm-7.3125 0.21875-1.5938 1.625-0.03125-0.09375 1.625-1.5312zm-37.906 0.0625 3.3125 1.4688c-7.9176 5.6562-15.865 11.518-22.281 17.906-1.3027-0.27455-2.608-0.53795-3.9062-0.8125 6.4549-6.7037 13.609-13.449 22.875-18.562zm35.312 0.40625 1.0938 2.5938c-6.2614 6.2235-12.644 12.385-19.094 18.5-1.755 0.24053-3.4448 0.42727-5.0938 0.5625 7.7252-7.274 15.417-14.422 23.094-21.656zm10.094 0.21875c0.051793 0.61722 0.026052 1.3764 0.09375 1.8438 0.042665 0.29453 0.82001 0.59431 0.8125 0.78125-0.17319 0.45857-1.0267 0.9362-1.1875 1.4062 0.34359 0.80721 0.22832 1.4228 0.1875 2.2188-4.8436 5.5162-10.94 11.17-19.031 17.438-21.685 4.7403-43.195-0.78292-59.406 0.71875l2.9062-2.2812-1.8125-0.0625 1.1875-1.7188-3.7188 0.46875c2.5091-1.0294 5.0957-1.865 7.5-3.1562 14.753 4.3511 29.116 5.2517 43.938 3.8125 3.2039-0.31111 6.4326-0.73143 9.6875-1.25 6.7408-8.0679 12.186-12.743 18.844-20.219zm-2.2812 0.15625 0.96875 0.8125c-5.9162 6.5102-11.515 11.657-17.875 18.312-0.97201 0.21713-1.9036 0.40847-2.8438 0.59375 6.6564-6.4053 13.325-12.733 19.594-19.531 0.055768-0.060288 0.10129-0.12764 0.15625-0.1875zm-39.656 0.75 2.5938 1.1562-21.125 17.5c-1.1972-0.23584-2.3809-0.50178-3.5625-0.75 6.3609-6.3018 14.139-12.186 22.062-17.844l0.03125-0.0625zm-16.531 1.0312 2 0.96875c-1.1445 0.72619-2.2946 1.555-3.4688 2.4375l-1.7812-0.9375 3.25-2.4688zm-5.375 4.2812 1.5938 0.9375c-0.8467 0.70067-1.6873 1.4167-2.5312 2.1875l-1.625-0.84375 2.5625-2.2812zm-4.7812 4.5938 1.4688 0.8125c-0.77413 0.77317-1.5548 1.5807-2.3125 2.4062l-1.7188-1.125 2.5625-2.0938zm71.531 2.9375-1.1562 0.40625 0.1875 8.5312c-0.73115 0.27431-1.3444-0.27687-2-0.53125-1.5312-0.60487-3.0625-0.68109-4.5938-0.625 2.5273 0.26192 4.9513 0.65184 6.5938 1.7812 3.795 2.6096 6.1235 3.2165 10.312 5.125 1.6971 0.7156 3.6132 1.2395 4.6875 2.5-0.39801-0.93623-1.5304-1.6062-2.875-2.1875l0.5-13.875-1.4375 0.5625-2.7188 1.75-2.1562-2.2812-1.5625 0.65625-1.2812 1.375-2.5-3.1875zm-0.0625 0.1875 2.4375 3.1562-0.46875 0.53125-2.9062-3.3125 0.9375-0.375zm-75.906 1 1.9688 0.9375c-0.3274 0.38023-0.64648 0.7669-0.96875 1.1562l-2.625 1.0938-1-1.1562 2.625-2.0312zm81.031 0.21875 2.125 2.2188-0.5 0.34375-2.6562-1.9688 1.0312-0.59375zm6.3438 0.03125-0.5 13.469c-0.30654-0.12844-0.6195-0.25086-0.9375-0.375l0.25-12.438 1.1875-0.65625zm-12 0.40625 2.125 2.7188-0.03125 6-1.75-0.84375-0.34375-7.875zm4.4062 0.59375 1.4375 1.0938-0.15625 8.7812-3.4062-1.6562 0.09375-5.7812 0.25 0.3125 1.7812-2.75zm5.7188 0.3125-0.09375 11.656-1.6875-0.8125 0.15625-9.7812 1.625-1.0625zm-4.125 0.90625 1.25 0.96875 1.0625-0.6875-0.28125 9.5-2.1562-1.0312 0.125-8.75zm-78.781 7.5c0.66354 0.01208 1.335 0.04428 2 0.0625l0.34375 1.1562c-0.7583-0.38286-1.5396-0.77504-2.3438-1.2188zm2.1875 0.0625c1.2056 0.03397 2.4144 0.07561 3.625 0.125l0.875 3c-1.2986-0.51919-2.6787-1.1206-4.125-1.8438l-0.375-1.2812zm3.875 0.15625c1.0959 0.04547 2.181 0.07171 3.2812 0.125l0.90625 4.0938c-1.0318-0.30216-2.0944-0.65503-3.2188-1.0938l-0.96875-3.125zm3.4688 0.15625c1.0545 0.05137 2.1288 0.10175 3.1875 0.15625l1.0625 4.75c-1.0322-0.17549-2.0994-0.43362-3.2188-0.75l-1.0312-4.1562zm3.4375 0.15625c1.1921 0.06145 2.396 0.1275 3.5938 0.1875l0.9375 4.9375c-1.1221-0.03527-2.2936-0.14825-3.5-0.34375l-1.0312-4.7812zm3.9375 0.1875c1.0729 0.05335 2.1411 0.10852 3.2188 0.15625l0.78125 4.6562c-1.0259 0.09028-2.0574 0.14748-3.125 0.125l-0.875-4.9375zm23.438 0.15625c-0.95849 0.22446-1.8899 0.45533-2.7812 0.6875l-0.28125-0.53125c1.0174-0.04106 2.0401-0.09028 3.0625-0.15625zm-20 0.03125c1.2937 0.05665 2.5741 0.0829 3.875 0.125 0.042878 1.3093 0.64571 2.572 1.0312 3.8438-0.93338 0.19867-1.8607 0.37674-2.7812 0.5-0.43595 0.05837-0.87355 0.08291-1.3125 0.125l-0.8125-4.5938zm4.0312 0.125c1.3708 0.04359 2.7459 0.07417 4.125 0.09375l0.5625 2.8125c-1.2123 0.33212-2.3805 0.62272-3.5312 0.875-0.35525-1.1491-0.91432-2.7498-1.1562-3.7812zm12.719 0 0.3125 0.5625c-1.2736 0.33343-2.4342 0.67033-3.5938 1-0.17145-0.48495-0.33156-0.97386-0.46875-1.4688 1.2452-0.01635 2.4975-0.04495 3.75-0.09375zm-8.375 0.09375c1.4232 0.01867 2.8487 0.01569 4.2812 0 0.14838 0.55061 0.40095 1.0208 0.625 1.5312-1.5187 0.43275-2.9966 0.83887-4.375 1.2188l-0.53125-2.75zm-31.906 3.5312-17.312 10.156 2.7188 0.1875-0.96875 1.5312 2.6562-0.21875-0.03125 1.4688c6.1764-2.7067 6.8972-3.963 13.969-5.0312l-0.4375-1.0938 1.5-1.875-1.6562-0.53125 0.71875-1.75-3.25 1.4375 2.0938-4.2812zm-0.90625 1-2.1875 4.125 3.5625-1.7188-0.9375 1.75 2 0.1875-1.375 1.6875-0.1875 0.625c-5.275 1.0924-7.8317 2.7916-12.5 4.8125l0.5-1.3438-3.0312 0.46875 1.5625-1.6562-2.4688 0.03125 15.062-8.9688z" fill-rule="evenodd"/>
 </g>
</svg>
