<?xml version="1.0" encoding="UTF-8"?>
<!-- Created with Inkscape (http://www.inkscape.org/) -->
<svg id="svg2" width="128" height="128" version="1.0" xmlns="http://www.w3.org/2000/svg" xmlns:cc="http://creativecommons.org/ns#" xmlns:dc="http://purl.org/dc/elements/1.1/" xmlns:rdf="http://www.w3.org/1999/02/22-rdf-syntax-ns#" xmlns:xlink="http://www.w3.org/1999/xlink">
 <defs id="defs4">
  <linearGradient id="linearGradient2320">
   <stop id="stop2322" stop-color="#6a3c1d" offset="0"/>
   <stop id="stop2324" stop-color="#8f5127" offset="1"/>
  </linearGradient>
  <linearGradient id="linearGradient3332">
   <stop id="stop3334" stop-color="#bb8f56" offset="0"/>
   <stop id="stop3336" stop-color="#d1af63" offset="1"/>
  </linearGradient>
  <linearGradient id="linearGradient2433" x1="57.946" x2="68.411" y1="51.755" y2="23.128" gradientUnits="userSpaceOnUse" xlink:href="#linearGradient2320"/>
  <linearGradient id="linearGradient2439" x1="47.762" x2="47.212" y1="45.135" y2="45.991" gradientUnits="userSpaceOnUse" xlink:href="#linearGradient2320"/>
  <linearGradient id="linearGradient3022" x1="72.958" x2="72.527" y1="49.691" y2="48.59" gradientUnits="userSpaceOnUse" xlink:href="#linearGradient2320"/>
  <linearGradient id="linearGradient3026" x1="37.396" x2="38.467" y1="68.221" y2="68.221" gradientUnits="userSpaceOnUse" xlink:href="#linearGradient2320"/>
  <linearGradient id="linearGradient3030" x1="37.396" x2="38.467" y1="68.221" y2="68.221" gradientTransform="matrix(.9998 -.020011 .020011 .9998 18.824 18.136)" gradientUnits="userSpaceOnUse" xlink:href="#linearGradient2320"/>
  <linearGradient id="linearGradient3034" x1="37.396" x2="38.467" y1="68.221" y2="68.221" gradientTransform="matrix(.99472 -.10265 .10265 .99472 45.336 11.563)" gradientUnits="userSpaceOnUse" xlink:href="#linearGradient2320"/>
  <linearGradient id="linearGradient3040" x1="48.125" x2="48.625" y1="50.719" y2="52.094" gradientUnits="userSpaceOnUse" xlink:href="#linearGradient2320"/>
  <linearGradient id="linearGradient3111" x1="66.231" x2="68.8" y1="68.832" y2="68.465" gradientUnits="userSpaceOnUse" xlink:href="#linearGradient2320"/>
  <linearGradient id="linearGradient3115" x1="45.928" x2="45.071" y1="85.681" y2="86.537" gradientUnits="userSpaceOnUse" xlink:href="#linearGradient2320"/>
  <linearGradient id="linearGradient3121" x1="68.127" x2="69.044" y1="92.285" y2="94.487" gradientUnits="userSpaceOnUse" xlink:href="#linearGradient2320"/>
  <linearGradient id="linearGradient3164" x1="58.281" x2="58.831" y1="68.527" y2="69.994" gradientUnits="userSpaceOnUse" xlink:href="#linearGradient2320"/>
  <linearGradient id="linearGradient3170" x1="76.627" x2="76.077" y1="71.065" y2="71.86" gradientUnits="userSpaceOnUse" xlink:href="#linearGradient2320"/>
  <linearGradient id="linearGradient3175" x1="81.813" x2="81.003" y1="55.202" y2="56.986" gradientUnits="userSpaceOnUse" xlink:href="#linearGradient2320"/>
  <linearGradient id="linearGradient3180" x1="82.193" x2="82.682" y1="64.766" y2="65.927" gradientUnits="userSpaceOnUse" xlink:href="#linearGradient2320"/>
  <linearGradient id="linearGradient3184" x1="46.845" x2="45.744" y1="62.87" y2="64.154" gradientUnits="userSpaceOnUse" xlink:href="#linearGradient2320"/>
  <linearGradient id="linearGradient3188" x1="42.25" x2="43.222" y1="49.003" y2="49.975" gradientUnits="userSpaceOnUse" xlink:href="#linearGradient2320"/>
  <linearGradient id="linearGradient3192" x1="51.84" x2="51.707" y1="59.344" y2="60.272" gradientUnits="userSpaceOnUse" xlink:href="#linearGradient2320"/>
  <linearGradient id="linearGradient3196" x1="47.73" x2="47.862" y1="54.129" y2="55.19" gradientUnits="userSpaceOnUse" xlink:href="#linearGradient2320"/>
  <linearGradient id="linearGradient3200" x1="49.439" x2="48.768" y1="56.45" y2="57.245" gradientUnits="userSpaceOnUse" xlink:href="#linearGradient2320"/>
  <linearGradient id="linearGradient3205" x1="46.757" x2="48.039" y1="65.355" y2="66.46" gradientUnits="userSpaceOnUse" xlink:href="#linearGradient2320"/>
  <linearGradient id="linearGradient3209" x1="46.669" x2="46.183" y1="73.067" y2="74.525" gradientUnits="userSpaceOnUse" xlink:href="#linearGradient2320"/>
  <linearGradient id="linearGradient3213" x1="48.879" x2="49.011" y1="76.204" y2="77.265" gradientUnits="userSpaceOnUse" xlink:href="#linearGradient2320"/>
  <linearGradient id="linearGradient3217" x1="73.186" x2="72.788" y1="58.284" y2="58.991" gradientUnits="userSpaceOnUse" xlink:href="#linearGradient2320"/>
  <linearGradient id="linearGradient3221" x1="72.567" x2="71.992" y1="59.61" y2="60.096" gradientUnits="userSpaceOnUse" xlink:href="#linearGradient2320"/>
  <linearGradient id="linearGradient3225" x1="72.036" x2="73.208" y1="59.085" y2="60.013" gradientUnits="userSpaceOnUse" xlink:href="#linearGradient2320"/>
  <linearGradient id="linearGradient3229" x1="84.035" x2="83.527" y1="71.895" y2="73.045" gradientUnits="userSpaceOnUse" xlink:href="#linearGradient2320"/>
  <linearGradient id="linearGradient3233" x1="71.992" x2="73.627" y1="80.27" y2="81.154" gradientUnits="userSpaceOnUse" xlink:href="#linearGradient2320"/>
  <linearGradient id="linearGradient3237" x1="74.467" x2="74.467" y1="78.944" y2="80.049" gradientUnits="userSpaceOnUse" xlink:href="#linearGradient2320"/>
  <linearGradient id="linearGradient3243" x1="69.827" x2="70.622" y1="79.475" y2="79.386" gradientUnits="userSpaceOnUse" xlink:href="#linearGradient3332"/>
  <linearGradient id="linearGradient3247" x1="79.284" x2="80.478" y1="77.442" y2="77" gradientUnits="userSpaceOnUse" xlink:href="#linearGradient3332"/>
  <linearGradient id="linearGradient3251" x1="71.918" x2="72.133" y1="49.416" y2="49.997" gradientUnits="userSpaceOnUse" xlink:href="#linearGradient3332"/>
  <linearGradient id="linearGradient3255" x1="71.918" x2="72.133" y1="49.416" y2="49.997" gradientTransform="translate(.33635 3.2106)" gradientUnits="userSpaceOnUse" xlink:href="#linearGradient3332"/>
  <linearGradient id="linearGradient3259" x1="71.918" x2="72.133" y1="49.416" y2="49.997" gradientTransform="translate(.42809 6.6048)" gradientUnits="userSpaceOnUse" xlink:href="#linearGradient3332"/>
  <linearGradient id="linearGradient3263" x1="71.918" x2="72.133" y1="49.416" y2="49.997" gradientTransform="translate(.88675 10.029)" gradientUnits="userSpaceOnUse" xlink:href="#linearGradient3332"/>
  <linearGradient id="linearGradient3267" x1="71.918" x2="72.133" y1="49.416" y2="49.997" gradientTransform="translate(1.2231 13.852)" gradientUnits="userSpaceOnUse" xlink:href="#linearGradient3332"/>
  <linearGradient id="linearGradient3271" x1="71.918" x2="72.133" y1="49.416" y2="49.997" gradientTransform="translate(1.4677 17.001)" gradientUnits="userSpaceOnUse" xlink:href="#linearGradient3332"/>
  <linearGradient id="linearGradient3275" x1="71.918" x2="72.133" y1="49.416" y2="49.997" gradientTransform="translate(1.7735 20.395)" gradientUnits="userSpaceOnUse" xlink:href="#linearGradient3332"/>
  <linearGradient id="linearGradient3279" x1="71.918" x2="72.133" y1="49.416" y2="49.997" gradientTransform="translate(2.3545 23.973)" gradientUnits="userSpaceOnUse" xlink:href="#linearGradient3332"/>
  <linearGradient id="linearGradient3283" x1="71.918" x2="72.133" y1="49.416" y2="49.997" gradientTransform="translate(2.8437 27.367)" gradientUnits="userSpaceOnUse" xlink:href="#linearGradient3332"/>
  <linearGradient id="linearGradient3287" x1="71.918" x2="72.133" y1="49.416" y2="49.997" gradientTransform="translate(3.4247 35.164)" gradientUnits="userSpaceOnUse" xlink:href="#linearGradient3332"/>
  <linearGradient id="linearGradient3293" x1="71.918" x2="72.133" y1="49.416" y2="49.997" gradientTransform="translate(3.8528 38.497)" gradientUnits="userSpaceOnUse" xlink:href="#linearGradient3332"/>
  <linearGradient id="linearGradient3297" x1="71.918" x2="72.133" y1="49.416" y2="49.997" gradientTransform="translate(4.1891 42.228)" gradientUnits="userSpaceOnUse" xlink:href="#linearGradient3332"/>
  <linearGradient id="linearGradient3301" x1="71.918" x2="72.133" y1="49.416" y2="49.997" gradientTransform="translate(4.8313 46.233)" gradientUnits="userSpaceOnUse" xlink:href="#linearGradient3332"/>
  <linearGradient id="linearGradient3305" x1="71.918" x2="72.133" y1="49.416" y2="49.997" gradientTransform="translate(5.1676 50.3)" gradientUnits="userSpaceOnUse" xlink:href="#linearGradient3332"/>
  <linearGradient id="linearGradient3309" x1="71.918" x2="72.133" y1="49.416" y2="49.997" gradientTransform="translate(5.6263 53.908)" gradientUnits="userSpaceOnUse" xlink:href="#linearGradient3332"/>
  <linearGradient id="linearGradient3313" x1="71.918" x2="72.133" y1="49.416" y2="49.997" gradientTransform="translate(5.9015 57.486)" gradientUnits="userSpaceOnUse" xlink:href="#linearGradient3332"/>
  <filter id="filter3439">
   <feGaussianBlur id="feGaussianBlur3441" stdDeviation="1.1828996"/>
  </filter>
  <linearGradient id="linearGradient2414" x1="71.918" x2="72.133" y1="49.416" y2="49.997" gradientTransform="translate(3.0816 31.518)" gradientUnits="userSpaceOnUse" xlink:href="#linearGradient3332"/>
 </defs>
 <metadata id="metadata7">
  <rdf:RDF>
   <cc:Work rdf:about="">
    <dc:format>image/svg+xml</dc:format>
    <dc:type rdf:resource="http://purl.org/dc/dcmitype/StillImage"/>
   </cc:Work>
  </rdf:RDF>
 </metadata>
 <g id="layer2" fill-rule="evenodd">
  <path id="path3318" d="m57.35 58.088c-9.5313 1.8691-18.894 4.4752-28.321 6.7896 0.83478 0.53407 2.6321 2.3904 0.74935 0.81339-1.94-1.85-2.3382 1.2359 0.043143 1.3257 3.1925 0.0623 1.4467 4.3971 2.2081 6.4683 0.62154 7.7803 1.2431 15.561 1.8646 23.341 3.7948 1.69 1.6502-3.7927 1.7643-5.7299-0.49237-1.9713-0.24948-2.9102 1.6249-1.5581 6.0408 2.811 8.9681 5.6221 15.009 8.4331 0.92318 2.5221 2.4732 13.482 4.8464 14.771 2.7789-0.47403-2.7496-11.267-2.3747-13.244-0.074417-1.0794-0.81184-3.8882 0.14533-1.4837 3.5788-0.70483 8.5277-0.63014 12.173-1.4086 1.6355 2.8428 2.4241 10.998 4.7956 12.565 0.92238-2.2831 6.0995-3.0263 8.8192-3.9327 0.97269-0.78427 1.6276 3.6363 2.1343 1.5446-1.2957-3.1299-3.2833-9.8922-4.5791-13.022 2.2636-0.12433 6.4338-2.5578 8.0093-1.4997 1.2873 2.7384 2.1222 6.9102 4.2284 8.6514 3.1832-0.02039-0.3874-4.2686-0.32285-6.0842-2.6892-8.3653-5.3785-16.731-8.0677-25.096-4.2871 0.55444 5.0903-0.014809 2.0217-1.6335-2.2393-1.0877-4.4051-2.4434-6.936-2.7494-1.5406-0.54407-2.2162-1.5045-4.3375-1.4709-2.4147-2.0674-5.6129-1.9962-8.3813-3.2103-2.1198-0.53061-4.2351-1.1848-5.3119-2.4242-0.59828-0.020367-1.2452 0.13834-1.8038-0.15556zm-21.412 10.531c1.3591 0.29753 1.6597 1.1881 1.984 1.5213 2.9379 0.37654-1.1583 1.6488-1.7974-0.34461-0.70652-0.55954-2.1668-1.2491-0.18658-1.1767zm-2.5171 0.22578c1.1938 1.4014 5.3701 2.8423 2.1233 4.1851-2.5109 2.9175-1.5564-2.1863-2.0887-3.8484l-0.03453-0.33666zm46.432 1.3708c-2.7299 0.68473-5.2037 4.4038-7.8638 3.3896-1.6112-3.1029 4.2818-1.8614 6.1484-3.0177 0.57177-0.12412 1.1436-0.2481 1.7154-0.37195zm-39.975 0.43544c1.4934-0.063579 6.1935 2.3491 2.4049 2.4248-1.4174 1.1217-5.4568-1.3264-2.4049-2.4248zm40.723 0.1774c0.52185 2.72 2.5929 6.3579 2.1437 8.5001-2.7342 0.12433-5.826 2.3831-8.1857 0.56273-1.7393-2.5111 2.8277-0.89706 4.3461-0.94034 1.0739 0.42258 5.9592 0.21936 2.6259-0.38158-2.6176-0.45511-5.7792-0.29333-8.0455-1.2231-0.98503-1.2628-0.83552-2.6139 0.88042-1.3389 2.6577 1.1899 5.2827 2.687 8.2781 2.6653-0.45609-0.6595-3.9279-1.7841-5.6348-2.6555-2.0452-0.65181-3.2568-2.0385-0.6053-2.7603 1.399-0.80951 2.798-1.619 4.197-2.4285zm-10.867 0.66122c-1.8349 0.38578-5.8721 1.3393-6.3211 1.3456 2.107-0.44854 4.214-0.89708 6.3211-1.3456zm-23.369 0.80637c1.2693 0.36093 3.8752 2.1652 3.0355 2.3274 0.10332-1.3645-2.1823-1.5473-3.0355-2.3274zm23.756 0.032257c1.1432 1.6872-2.3106-0.45181 0 0zm-32.372 0.016128c1.4768 0.80702 2.0586 1.8341-0.19291 1.785-1.157 0.10501-5.1501 1.4876-2.0326 0.061392 0.72388-0.63267 1.4702-1.245 2.2255-1.8464zm29.829 0.54833c0.31907 0.5935 2.3886 1.0034 0.087926 1.1081-1.2208 0.020206-5.5004 1.9066-3.7466-0.4544 1.2133 0.13468 2.4497-0.48165 3.6586-0.65372zm-21.164 0.27416c1.2747 0.49654 3.1871 2.091 0.60043 1.7418-1.296-0.21793-5.0001 0.81696-4.7026-0.5925 1.3187-0.41572 3.0227-0.46348 4.1022-1.1493zm15.26 0.048385c-3.9725 0.86772-7.9101 2.0746-11.983 2.3207 4.052-0.42601 7.9921-1.5289 11.983-2.3207zm0.27545 0.90313c-2.4446-0.1856 0.016295 3.186-2.667 1.8448-1.2784-0.1861-5.4226-0.3509-2.1369-0.7925 1.6014-0.35038 3.203-0.69991 4.8039-1.0523zm8.2382 0.096764c2.4641 1.4288-2.4766 1.3829-3.515 1.8323-1.1393 0.81798-4.169 0.089046-1.8464-0.80304 1.7977-0.28034 3.5731-0.69457 5.3614-1.0293zm-29.493 0.49995c-0.52251 1.2101-5.6293-0.33667-6.4788 1.0974-0.2388-0.8745 3.6079-0.47133 5.0066-0.75402 0.49902-0.073515 0.99346-0.18346 1.4722-0.34338zm7.8193 0.49995c0.66878 2.5948-3.7845 3.0542-4.8628 0.75086 0.82003-0.8273 4.3039 0.51913 4.8628-0.75086zm6.8806 0.33868c-1.9542 0.26422-3.4446 0.84005-2.6188 2.9923-1.306-0.16462-5.9631-0.12954-2.8901-1.5438 1.5476-1.2537 3.6743-0.66062 5.509-1.4485zm-13.392 0.22578c0.99866 0.71374 2.3841 1.804 0.19488 1.1298-1.761-0.33694-5.5701-0.83166-6.0421-1.0693 1.9491-0.020158 3.8981-0.040317 5.8472-0.060475zm-7.4525 0.080635 0.35611 0.14802-0.35611-0.14802zm19.866 0.11289c2.2368 0.86072 6.4148-0.52297 7.1142 2.1208 0.65701 1.573 0.75726 2.6435-1.2247 1.8345-2.4903-0.65429-6.4324 0.11932-5.8324-3.5742l-0.057124-0.38101zm17.197 0.048378c1.2551 1.7058-3.6936 1.3276-0.47402 0.30264l0.47402-0.30264zm-1.9988 0.16128c-1.0866 1.4387-4.8603 0.61352-1.5396 0.31423 0.50708-0.13282 1.0281-0.20176 1.5396-0.31423zm-34.03 0.16127c3.1067 0.90933 7.2856 0.38189 9.7237 2.2712-1.666 2.6256-4.1165 0.12191-6.1452-0.58488-1.1928-0.56209-2.3856-1.1242-3.5785-1.6863zm-1.3313 0.83862c2.4012 1.2982 6.3826 2.5536 7.8036 3.8783-2.0301 2.8377-3.9138-1.3712-5.7004-2.4214-0.64849-0.5627-1.2859-1.1506-2.1031-1.4569zm30.281 0c0.20205 0.071874-0.3516 0.083531 0 0zm0.25648 0.032257c1.4702-0.12515 3.3995 0.8705 0.92796 0.2715l-0.31881-0.11819-0.60915-0.15331zm-0.12345 0.62897c1.6007-0.29249 0.72693 1.0166 0.003548 0.010605l-0.003548-0.010605zm5.6477 0.11289c1.3741-0.25028 3.4524 1.3062 1.1233 0.57259-0.49509-0.16865-2.9408-0.35993-1.1233-0.57259zm-35.958 0.20966c1.489 1.6505 4.3923 3.3525 4.9959 4.9708-1.35 0.62849-3.5501 3.2659-4.2457 2.6412-0.24493-2.5377-0.50125-5.0745-0.75021-7.612zm13.573 0.20966c2.5949 0.44824 6.0203 0.097678 5.364 3.673-1.6861 1.9233-4.259-2.3156-6.0791-3.1892l0.71516-0.48383zm19.982 0.064515c1.1525 0.30895 4.951 0.61003 1.9452 0.93135-1.2933 0.18989-6.2183 1.6008-3.1294-0.26288 0.44144-0.13704 0.74044-0.57165 1.1842-0.66847zm-2.9826 0.2419 0.085909 0.2114-0.085909-0.2114zm-18.426 0.67735c1.1159 1.1951 4.4108 2.8233 4.0861 3.732-1.6457-0.41812-5.5082-1.7662-5.4641-2.7764 0.45936-0.31852 0.91871-0.63703 1.3781-0.95555zm8.4419 0.1774c1.8938 0.39097 5.9808 0.85989 6.6621 1.1357-2.5081-0.095922-7.3222 3.4502-6.6621-1.1357zm18.062 0c0.38226 1.9883-3.8209 1.1944-5.2392 1.9527-1.5572 0.23492-2.2008-1.1062-0.19655-0.89603 1.8119-0.35223 3.6239-0.70446 5.4358-1.0567zm10.49 0.72573c0.027097 0.13265-0.24981-0.054444 0 0zm-1.0171 0.22578c-1.2523 0.92262-5.1185 3.4182-4.8204 0.97994 1.6246-0.189 3.2124-0.67371 4.8204-0.97994zm-20.259 0.11289c-2.0922 0.98879-5.115 3.541-6.6391 3.6819-0.24869-2.5619 4.3046-1.0833 5.6035-3.0917 0.34517-0.19674 0.69034-0.39348 1.0355-0.59022zm21.448 0.20966c0.81217 2.8226 1.3844 7.1824 1.8101 9.1605-1.1193-0.55982-2.9791-0.29939-0.6308-0.30381-2.873-1.4611-5.0602-2.8525-7.998-4.2282 1.6741-3.1854 4.3439 1.149 6.1562 2.1418 0.59622 0.81876 3.3737 3.156 1.7857 0.84965-1.6023-1.696-4.9353-3.6941-4.8411-5.3058 1.2393-0.77143 2.4787-1.5429 3.718-2.3143zm-17.912 0.12902 0.075431 0.43712-0.075431-0.43712zm7.8579 0.22578c-1.012 0.45164-4.9846 1.2953-4.1164 0.78491 1.3721-0.26164 2.7443-0.52327 4.1164-0.78491zm-30.101 0.27416c1.1132 0.84421 6.6362 2.1728 3.0221 2.4977-1.7289 0.59159-5.0424 1.2926-4.9851-1.1427 0.65436-0.45168 1.3087-0.90336 1.9631-1.355zm18.96 0.11289c1.8103 2.9039-2.2675 2.3335-4.0056 3.0119-3.6562 1.0524 1.4614-1.3433 2.5743-2.1652 0.47707-0.28223 0.95414-0.56446 1.4312-0.84669zm13.509 0.3548c1.3108 0.45578 2.2015 2.2381 0.23273 1.9948-0.055064-0.52926-1.4397-2.0982-0.23273-1.9948zm-9.9115 0.12902 0.064848 0.19096-0.064848-0.19096zm0.95612 0.40318c1.092 0.58182-2.007 0.23085 0 0zm7.2784 0.45157c2.0338 2.6075-4.2362 0.30267-1.0156 0.20188l1.0156-0.20188zm-33.92 0.7096c3.3397 2.0824-2.1099 1.7823-3.5413 2.4352 1.1804-0.81174 2.3609-1.6235 3.5413-2.4352zm13.135 0.048385c0.44958 0.852-0.74642-0.15595 0 0zm16.544 0.064507c1.2884 0.44974 2.6706 1.1948 0.34242 1.2333-1.1396 0.29198-4.3223 1.1365-3.2151-0.77576 0.97476-0.037778 1.9149-0.28728 2.8727-0.45753zm-17.77 0.20966c1.5904 0.97302 1.0884 0.91528-0.31891 0.072215l0.31891-0.072215zm-2.2367 0.5322c1.1082 0.65273 5.1747 1.8836 1.8456 1.6692-2.3296-0.30222-5.9982 1.1063-7.5004-0.34207 1.8567-0.50753 3.7767-0.86818 5.6548-1.3271zm13.292 0.20966c0.77908 1.5133 0.71484 2.8828-1.3567 2.0935-1.5306-0.31037-5.4371-0.4568-5.4643-0.61178 2.2737-0.4939 4.5474-0.9878 6.821-1.4817zm-7.3811 0.43544-0.18161 0.042033 0.18161-0.042033zm17.225 0.032257c1.7781 1.153-2.7337 1.731-3.6759 1.8723-1.5344 1.2431-2.8341-1.2311-0.7837-1.0429 1.4865-0.27646 2.9731-0.55292 4.4596-0.82938zm-19.459 0.048378c0.49816 3.8222-2.1172 7.6444-1.619 11.467-1.6033-0.28776 0.9053-0.41707-0.82917-1.4031-2.9735-2.7417-2.8334-5.4833-5.8069-8.225 2.6406-0.36531 6.4513 0.21355 8.3624-0.74045-0.061064-0.36281-0.10732-0.72947-0.10728-1.0981zm-10.637 0.87088c1.0129 1.0161-4.0274 0.42355-1.1839 0.27112 0.39713-0.079802 0.79229-0.16779 1.1839-0.27112zm-7.8531 0.41931-0.008421 0.59187 0.008421-0.59187zm40.516 0.080635c2.4568 2.8389-3.1808 1.4572-2.8639 1.0469 0.83695-0.60247 1.831-0.98504 2.8639-1.0469zm-19.761 0.25804c2.6421 0.77824 6.7852-0.20548 8.4417 1.7297 0.73419 1.8221 1.2502 3.2048-1.0968 3.8271-1.9056 0.78261-7.9588 3.7819-9.1842 3.1066-0.42475-2.8878 2.264-5.7756 1.8393-8.6634zm-11.82 0.27416c3.1771 2.9513 3.2407 5.9026 6.4178 8.8539-6.1436-2.9016-9.1887-5.7712-15.323-8.6927 2.1848 0.62657 4.6566-0.2357 6.9668-0.074503 0.6461-0.028925 1.2922-0.057851 1.9383-0.086775zm33.347 0.016129c1.0106 0.55884 4.3844 1.7902 3.8986 1.9232-1.6217-0.41011-3.6595 0.29562-3.8986-1.9232zm-6.5256 0.33868c-1.1901 0.6303-1.1015-0.084247 0 0zm-2.8788 0.75799c2.7228-0.51298 0.12069 2.0741 0 0zm3.1749 0.40318c1.6756 0.57491 4.8345-0.044492 5.5454 1.2513-2.5086 0.54452-5.1117 0.94039-7.663 1.4258-0.9484-1.252 1.536-1.9696 2.1176-2.6771zm7.2097 0.88701c2.2019 0.31736 5.6284 0.71082 6.5978 1.0838-2.4161-0.055049-5.7049 2.9842-6.3535-0.49107l-0.24424-0.59268zm-1.1608 1.0644c0.81906 2.2426-5.7067 2.3038-7.1371 3.116-1.1726 0.83968-2.1091-1.1362 0.17684-1.9216 2.3298-0.33218 4.6391-0.80487 6.9602-1.1944zm-10.005 0.59671c1.0789 1.5223 1.7938 3.9806-0.96496 3.6545-2.5671 0.57733-8.2477 1.1547-10.815 1.732 2.889-1.7952 8.8899-3.5929 11.78-5.3865zm8.1419 1.9176c-2.1976 0.38354-5.6257 1.7778-7.1681 1.7495 2.2604-0.61571 4.857-1.2454 7.1681-1.7495zm1.2734 1.0483c-0.97691 0.52132-4.1663 0.81608-1.4285 0.32676 0.4766-0.10696 0.95176-0.22018 1.4285-0.32676zm0.31524 0.79024c1.3353 2.8745-3.5387 2.6307-5.1576 3.5803-1.3528 1.0884-4.3272-1.1992-2.2282-2.0018 2.4166-0.26113 4.9808-1.1914 7.3858-1.5786zm1.174 3.1344c1.3595 2.8555-3.8763 2.0996-5.4718 3.0411-1.3459 1.0772-4.1444-0.69872-2.0387-1.4739 2.4575-0.25849 5.064-1.1838 7.5105-1.5671zm0.99779 2.5994c1.1 2.5394-3.9065 1.2623-5.3865 2.1448-1.1839 0.72543-4.1574 0.48239-2.2523-0.90246 2.5508-0.15131 5.0953-0.87023 7.6387-1.2424zm1.4465 2.0599c1.0264 2.3847-4.2223 3.2732-5.6276 4.088-1.6093-0.03346-4.0372-0.52175-3.3466-3.0148 3.2864-0.44747 6.2144-0.63355 8.9743-1.0732z" fill-opacity=".66667" filter="url(#filter3439)"/>
  <path id="path2431" d="m58.003 54.4-3.3285 0.72772 0.76354-3.0628-2.9405-3.2865-1.6432 0.17297-1.4703-2.5946-4.2378-2.2486 0.086486-0.69189-1.9892-3.2865-1.2973 0.43243-3.6324-2.9405-1.6432-3.2s28.969-13.69 29.833-13.171 2.3395 0.54425 2.3395 0.54425l-0.25946 1.6432 4.2378 2.7676 1.0378 0.25946 1.9027 2.2486 1.6432-0.17297 2.5946 2.5946-0.25946 0.86486 3.9784 1.5568-0.6054 0.95135 4.5838 2.3351 3.6324 4.2378-33.327 13.319z" fill="url(#linearGradient2433)"/>
  <path id="path2437" d="m36.326 34.31-1.1619 1.957 1.7123 2.2016 1.3454 0.5504 3.2412 2.8131 1.3454-0.18347 1.7123 1.7735-0.61155 0.85617 4.8313 2.6297 1.4677 2.752 1.7123 0.18347 2.2627 3.0578-0.24462 2.752 3.9139 0.91733 0.36693-0.30578-0.42809-1.6512-2.8131 0.48924-0.18347-0.30578 0.48924-2.752-2.8131-3.3024-1.59 0.18347-1.4066-2.6908-4.0974-2.1404 0.12231-0.5504-2.2016-3.547-1.5289 0.42809-3.3024-2.8743h-0.36693l-1.7735-3.2412z" fill="url(#linearGradient2439)"/>
  <path id="path2441" d="m36.326 34.31-1.1619 1.957 1.7123 2.2016 1.3454 0.5504 3.2412 2.8131 1.3454-0.18347 1.7123 1.7735-0.61155 0.85617 4.8313 2.6297 1.4677 2.752 1.7123 0.18347 2.2627 3.0578-0.24462 2.752 3.9139 0.91733 0.36693-0.30578-0.42809-1.6512-2.8131 0.48924-0.18347-0.30578 0.48924-2.752-2.8131-3.3024-1.59 0.18347-1.4066-2.6908-4.0974-2.1404 0.12231-0.5504-2.2016-3.547-1.5289 0.42809-3.3024-2.8743h-0.36693l-1.7735-3.2412z" fill-opacity=".15686"/>
  <path id="path3020" d="m57.914 54.614 33.635-13.699s0.61155 1.7123 0.36693 1.6512c-0.24462-0.061155-33.88 13.699-33.88 13.699l-0.18347-1.2843 0.061156-0.36693z" fill="url(#linearGradient3022)"/>
  <path id="path3024" d="m38.65 39.325-3.547 56.997 0.73386 0.79502 1.59-0.61155 2.8743-55.957-1.6512-1.2231z" fill="url(#linearGradient3026)"/>
  <path id="path3162" d="m38.528 76.079 28.376-11.436-3.6082 3.6082-24.034 10.274-0.85617-0.85617 0.12231-1.59z" fill="url(#linearGradient3164)"/>
  <path id="path3190" d="m41.189 55.654 25.633 8.5737-0.044194 0.48614-0.7955 0.17678-25.367-8.3527-0.53033-0.88388h1.1049z" fill="url(#linearGradient3192)"/>
  <path id="path3028" d="m57.886 56.558-2.0388 57.179 0.74962 0.78018 1.5775-0.64325 1.6317-58.083-1.92 0.76715z" fill="url(#linearGradient3030)"/>
  <path id="path3032" d="m86.954 44.664 3.2486 59.414 1.0562 0.22625 1.2131-0.58807-3.7292-59.914-1.7888 0.86219z" fill="url(#linearGradient3034)"/>
  <path id="path3038" d="m39.812 53.75 10.25-4.125 2 0.1875 0.4375 0.9375-8.0625 3.5625-4.9375 0.25 0.3125-0.8125z" fill="url(#linearGradient3040)"/>
  <path id="path3109" d="m66.231 53.024 1.2843 31.862 0.97848 0.42809h1.4066l-1.8958-32.963-1.7735 0.67271z" fill="url(#linearGradient3111)"/>
  <path id="path3113" d="m38.344 77.73 18.285 18.408-0.24462 2.3851-18.163-18.041 0.12231-2.752z" fill="url(#linearGradient3115)"/>
  <path id="path3119" d="m58.892 96.199 30.272-12.598 0.061155 2.3851-30.516 12.781 0.18346-2.5685z" fill="url(#linearGradient3121)"/>
  <path id="path3168" d="m70.145 65.499 8.5006 7.1552 10.029 9.6014-3.8528-0.79502-10.886-10.519-3.7577-3.36-0.033922-2.0829z" fill="url(#linearGradient3170)"/>
  <path id="path3173" d="m87.88 61.219c-4.285-4.0279-8.1758-8.45-12.906-12.032l-1.6902 0.90791 5.389 4.8945 5.8541 5.5168 3.3535 0.71305z" fill="url(#linearGradient3175)"/>
  <path id="path3227" d="m79.152 63.079 9.7669 17.192v1.9445l-1.4584-1.2374-8.1759-15.291-0.13258-2.6075z" fill="url(#linearGradient3229)"/>
  <path id="path3177" d="m59.137 73.755 28.865-11.558 0.061155 2.0181-28.865 11.681-0.061155-2.1404z" fill="url(#linearGradient3180)"/>
  <path id="path3203" d="m38.582 75.63 15.954-19.887 1.9887 0.48614-16.661 19.578-1.4142 0.48614 0.13258-0.66291z" fill="url(#linearGradient3205)"/>
  <path id="path3182" d="m39.629 55.348 17.674 17.796-0.18347 2.5074-17.796-17.49 0.30578-2.8131z" fill="url(#linearGradient3184)"/>
  <path id="path3186" d="m39.686 52.561 5.7452-7.3804 0.92808 0.39775-5.7894 7.7782-1.0607 0.44194 0.17678-1.2374z" fill="url(#linearGradient3188)"/>
  <path id="path3198" d="m41.498 41.645 15.91 29.964-0.044194 1.3258-0.7513-0.66291-8.1317-14.849-8.3527-15.556 0.17678-1.1049 1.1932 0.88388z" fill="url(#linearGradient3200)"/>
  <path id="path3194" d="m39.731 54.638 14.451-0.88388-0.22097 1.1049-0.088388 0.53033-13.965 0.30936-0.30936-0.39775 0.13258-0.66291z" fill="url(#linearGradient3196)"/>
  <path id="path3211" d="m38.537 77 18.65-1.591-0.044194 1.1932-18.252 1.5468-0.48614-0.39775 0.13258-0.7513z" fill="url(#linearGradient3213)"/>
  <path id="path3207" d="m40.393 59.322 15.998 35.002 0.044194 1.37-1.2374-0.92808-8.9272-19.711-7.0711-15.159 0.17678-1.6794 1.0165 1.1049z" fill="url(#linearGradient3209)"/>
  <path id="path3215" d="m60.988 55.035 11.888 2.961 3.2326 0.41142 4.3688 1.1796 7.292 1.6794-0.044194 0.83969-0.83969 0.22097-9.8553-2.0771-5.0381-1.4584-5.7894-1.3258-6.7175-1.6352 1.5026-0.7955z" fill="url(#linearGradient3217)"/>
  <path id="path3219" d="m69.783 58.217 1.9055 1.1363 2.3528 0.58568 3.4756 1.4159-1.3258 0.61872-6.5849-2.4749-0.044194-1.0607 0.22097-0.22097z" fill="url(#linearGradient3221)"/>
  <path id="path3223" d="m59.441 72.36 15.512-16.042 11.004-11.358s1.1049-0.61872 1.1049-0.44194c0 0.17678 0.088388 1.2816 0.088388 1.2816l-10.474 10.518-6.7175 7.3362-1.7236 1.5468-7.9991 8.1759-0.97227 0.30936 0.17678-1.3258z" fill="url(#linearGradient3225)"/>
  <path id="path3231" d="m58.69 94.854 13.656-14.54 1.591-1.9887 4.5078-4.9056 8.6621-8.883s0.97227-0.39775 0.97227-0.22097v0.97227l-9.104 9.7669-3.3146 3.8007-2.2539 2.2981-1.5026 2.1213-2.2539 2.0771-9.8995 10.607-1.0607 0.30936v-1.4142z" fill="url(#linearGradient3233)"/>
  <path id="path3235" d="m60.104 75.674 16.529 3.5355 12.242 3.182 0.26516 0.97227-0.30936 0.35355-11.093-2.3865-6.3198-1.6794-12.286-2.7842 0.088388-1.0165 0.88388-0.17678z" fill="url(#linearGradient3237)"/>
  <path id="path3241" d="m68.855 47.92 1.37 19.18 1.7678 25.898 1.2374 18.296-0.39775 0.48614h-1.1049l-0.22097-0.57453-1.2816-20.771-1.9887-29.964-0.7513-11.844 0.48614-0.7513 0.88388 0.044194z" fill="url(#linearGradient3243)"/>
  <path id="path3245" d="m77.119 45.71 3.182 28.328 3.7123 33.764-0.35355 0.48614-0.48614 0.39775-0.88388-0.26517-1.591-15.424-1.9887-19.799-2.3865-23.865-0.44194-3.403 0.44194-0.57452 0.48614-0.044194 0.30936 0.39775z" fill="url(#linearGradient3247)"/>
  <path id="path3249" d="m69.105 50.516 7.5832-2.966 0.24462 0.5504-0.091733 0.45866-7.7361 3.2718v-1.3148z" fill="url(#linearGradient3251)"/>
  <path id="path3253" d="m69.289 53.635 7.7361-2.8743 0.24462 0.5504-0.2752 0.79502-7.675 2.8437-0.030578-1.3148z" fill="url(#linearGradient3255)"/>
  <path id="path3257" d="m69.381 57.029 7.7361-2.8743 0.24462 0.5504-0.2752 0.79502-7.675 2.8437-0.030578-1.3148z" fill="url(#linearGradient3259)"/>
  <path id="path3261" d="m69.686 60.454 7.889-2.8743 0.24462 0.5504-0.2752 0.79502-7.675 2.8437-0.18347-1.3148z" fill="url(#linearGradient3263)"/>
  <path id="path3265" d="m69.992 64.154 7.889-2.8743 0.2752 0.67271-0.2752 0.79502-7.8279 2.8131-0.061156-1.4066z" fill="url(#linearGradient3267)"/>
  <path id="path3269" d="m70.237 67.303 7.889-2.8743 0.2752 0.67271-0.25358 0.64367-7.8495 2.9645-0.061156-1.4066z" fill="url(#linearGradient3271)"/>
  <path id="path3273" d="m70.39 70.759 8.0419-2.9354 0.2752 0.67271-0.2752 0.79502-7.8279 2.8131-0.21404-1.3454z" fill="url(#linearGradient3275)"/>
  <path id="path3277" d="m70.604 74.459 8.4394-2.9049 0.24462 0.51982-0.2752 0.79502-8.3171 2.8743-0.091734-1.2843z" fill="url(#linearGradient3279)"/>
  <path id="path3281" d="m70.971 77.883 8.5617-2.9354 0.24462 0.51982-0.2752 0.79502-8.3171 2.8743-0.21404-1.2537z" fill="url(#linearGradient3283)"/>
  <path id="path3285" d="m71.49 85.558 8.5311-2.8743 0.33635 0.58097-0.2752 0.79502-8.5923 2.8437-2e-6 -1.3454z" fill="url(#linearGradient3287)"/>
  <path id="path3289" d="m70.971 77.883 8.3239-2.8273 0.48246 0.41171-0.36168 0.64367-8.2306 3.0256-0.21404-1.2537z" fill="url(#linearGradient3283)"/>
  <path id="path3291" d="m71.674 89.014 8.8675-2.9354 0.24462 0.51982-0.33635 0.67271-8.6229 3.0578-0.15289-1.3148z" fill="url(#linearGradient3293)"/>
  <path id="path3295" d="m71.98 92.836 8.8981-3.0272 0.24462 0.51982-0.2752 0.79502-8.8063 2.9966-0.061157-1.2843z" fill="url(#linearGradient3297)"/>
  <path id="path3299" d="m72.255 96.933 9.265-3.1189 0.24462 0.51982-0.2752 0.79502-9.1427 3.0272-0.091735-1.2231z" fill="url(#linearGradient3301)"/>
  <path id="path3303" d="m72.438 100.97 9.4179-3.0883 0.24462 0.51982-0.2752 0.79502-9.265 3.1189-0.12231-1.3454z" fill="url(#linearGradient3305)"/>
  <path id="path3307" d="m72.805 104.76 9.5096-3.2718 0.24462 0.51982-0.2752 0.79502-9.5096 3.2718 0.030576-1.3148z" fill="url(#linearGradient3309)"/>
  <path id="path3311" d="m73.05 108.28 9.5402-3.2106 0.24462 0.51982-0.2752 0.79502-9.4791 3.2106-0.030579-1.3148z" fill="url(#linearGradient3313)"/>
  <path id="path2412" d="m71.208 82.035 8.5617-2.9354 0.24462 0.51982-0.2752 0.79502-8.3171 2.8743-0.21404-1.2537z" fill="url(#linearGradient2414)"/>
 </g>
 <g id="layer1">
  <path id="path2308" d="m66.188 20.938-30.062 13.25-1.1875 2.0625 1.9375 2.2812 1.5625 0.78125 0.09375 0.09375-3.6875 57.281c0.18027 0.59901 1.2505 1.0695 2.8125 0.15625l0.03125-0.5 0.78125-15.5 17.688 17.906-0.59375 15.625c0.89231 0.152 1.5498 0.71486 3.0625-0.21875l0.34375-15.281 11.312-4.7812 1.1562 17.719c0.7463 0.46021 1.4025 0.22266 2.0312-0.375l-0.125-1.75 8.5625-3 0.21875 1.9062c0.60851 0.20109 1.351 0.6661 2.0312-0.625l-2.0625-18.875 6.9375-2.9375 0.96875 17.969c1.0035 0.82327 1.8469 0.20577 2.6875-0.4375l-3.875-59.719 3.2188-1.3438-0.15625-1.4688-3.9688-4.4375-4.5312-2.2812 0.5-1-3.8125-1.5312 0.1875-0.90625-2.9062-2.5312-1.3125 0.0625-1.8438-2.4375-1.1562-0.03125-4.2188-2.8438 0.28125-1.3438-2.9062-0.9375zm-0.0625 0.34375 2.6562 0.6875-0.375 1.0938-30.219 14.312-1.1562-2.6875 29.094-13.406zm2.2812 2.3125 4.1562 2.625-30.719 14.062-2.4062-2.125-0.625-0.59375 29.594-13.969zm5.0938 2.875 1.9688 2.0938-29.844 14.812-1.9688-3.1875 29.844-13.719zm3.3125 2.3125 3.0938 2.3125-0.40625 0.75-30.156 14.094-3.6562-1.9062 30-15.094 1.125-0.15625zm2.7188 3.6875 3.9688 1.0625-0.71875 1.0312-31.625 14.312-1.2812-2.4375 29.656-13.969zm-43.25 2.2188 1.5 3.0312 0.09375 0.0625v0.90625c-0.26343-0.054119-0.52992-0.10451-0.78125-0.3125l-1.625-2.2188 0.8125-1.4688zm47.062 0.34375 3.8125 1.7188-32.062 14.812-2.1562-2.7812 30.406-13.75zm4.375 2.2812 3.0625 3.4375-13.312 5.5-0.09375-0.8125c-0.38736-0.18989-0.72046-0.31918-1.0312-0.1875-0.17158 0.026891-0.35615 0.18374-0.5625 0.6875l0.09375 0.96875-6.7188 2.75-0.15625-1.9375c-0.82842-0.15249-1.1232-0.13678-1.7188 0.875l0.125 1.7812-9.1562 3.7812-3.3438 0.59375 0.90625-2.8438c2.2589-1.0362 31.391-14.362 31.906-14.594zm-49.562 0.59375 0.71875 0.375 2.5938 2.25-0.125 0.78125c-1.0083-0.85821-1.7716-1.4833-2.8125-2.3438-0.095914-0.079289-0.1824-0.1155-0.28125-0.15625l-0.09375-0.90625zm0.71875 1.7812 1.1875 1.0938-2.9688 55.438c-0.90367 0.97144-1.3361 0.52909-1.75 0.03125l3.5312-56.562zm4.3125 0.75 1.75 2.625 0.03125 0.6875-0.375 0.65625c-0.097425-0.073014-0.19912-0.14108-0.28125-0.21875-0.15971-0.15105 0.59775-0.72567 0.4375-0.875-0.63998-0.59638-1.0067-1.2373-1.625-1.8125l-0.03125-1.0312 0.09375-0.03125zm-0.5 0.09375-0.0625 0.78125c-0.33115 0.039467-0.75767 0.18967-1 0.15625l0.15625-0.78125 0.90625-0.15625zm-2.25 0.59375 0.96875 0.875 6.375 11.969-0.90625 0.03125-6.4688-12.062 0.03125-0.8125zm51 0.1875 0.09375 1.0938-13.875 5.5938-0.125-1.0938 13.906-5.5938zm-48.594 0.4375 1.4375 1.5625-0.5625 0.96875 1.5938 0.90625-1.0625 1.375-2.4688-4.625 1.0625-0.1875zm-2.4688 0.8125 2.875 5.3125-3.375 4.2812 0.5-9.5938zm48.094 1.5312 3.7188 59.25c-0.58333 0.93983-1.1667 0.61982-1.75 0.625l-1.0938-20.125 0.15625-0.0625-0.1875-0.5625-1.1562-21.375v-0.5l-0.90625-16.75 1.2188-0.5zm-43.406 0.0625 3.7188 2.1562-0.09375 0.3125c-0.75854-0.61771-1.9904-1.0763-3.0312-1.5938l-0.125-0.125-0.03125 0.03125c-0.23807-0.12274-0.4842-0.2419-0.6875-0.375l0.25-0.40625zm41.75 0.625 0.0625 0.875-8.5312 8.7812-0.125-1.2188 7.9688-8.1875 0.625-0.25zm-41.344 0.5 0.6875 0.40625-1.4062 1.8438-0.40625-0.78125 1.125-1.4688zm39.938 0.09375-6.5625 6.7812-0.8125-0.78125-0.3125-2.8125 7.6875-3.1875zm-9.0625 0.09375c0.32164-0.1148 0.63781 0.2096 0.65625 0.40625l6.8438 62c-0.38585 0.82324-1.0204 0.57135-1.4062 0.5l-0.1875-1.7812 0.28125-0.09375c0.55391-0.70525 0.35942-1.4829-0.09375-1.4375l-0.3125 0.09375-0.25-2.0625 0.375-0.125c0.55392-0.70525 0.35942-1.4829-0.09375-1.4375l-0.40625 0.125-0.25-2.3125 0.3125-0.09375c0.55391-0.70525 0.32817-1.4829-0.125-1.4375l-0.3125 0.09375-0.25-2.5 0.34375-0.125c0.55392-0.70526 0.35942-1.4829-0.09375-1.4375l-0.40625 0.125-0.28125-2.7188 0.15625-0.0625c0.55392-0.70525 0.32817-1.4829-0.125-1.4375l-0.15625 0.0625-0.25-2.3125 0.1875-0.0625c0.55391-0.70525 0.35942-1.4829-0.09375-1.4375l-0.25 0.09375-0.1875-2 0.15625-0.0625c0.55391-0.70525 0.35942-1.4829-0.09375-1.4375l-0.21875 0.0625-0.25-2.125 0.25-0.09375c0.55392-0.70526 0.35942-1.4829-0.09375-1.4375l-0.28125 0.09375-0.28125-2.75 0.09375-0.03125c0.38528-0.267 1.0441-0.96296 0.03125-1.4062l-0.25 0.09375-0.21875-2 0.25-0.09375c0.55391-0.70525 0.35942-1.4829-0.09375-1.4375l-0.28125 0.09375-0.25-2.125 0.28125-0.09375c0.22368-0.60803 0.054182-1.1008-0.125-1.5938l-0.3125 0.125-0.21875-2 0.40625-0.15625c0.031024-0.46526 0.32312-0.94098-0.1875-1.4062l-0.34375 0.125-0.1875-1.5312 0.34375-0.125c0.43238-0.67332 0.32534-1.1871-0.125-1.625l-0.34375 0.125-0.25-2.125 0.21875-0.0625c0.42889-0.68007 0.28952-1.2883 0-1.5625l-0.34375 0.125-0.21875-2 0.34375-0.125c0.25227-0.65022 0.041427-1.0748-0.03125-1.5625l-0.46875 0.15625-0.1875-1.75 0.4375-0.15625c0.26891-0.64566 0.22857-1.1971-0.03125-1.5625l-0.53125 0.1875-0.21875-2 0.5-0.21875c0.15415-0.39316 0.31594-0.81693-0.125-1.1562l-0.5 0.1875-0.15625-1.5c0.047114-0.32251 0.14606-0.6533 0.28125-0.6875zm-30.031 0.28125 2.0625 1.1875 1.4688 2.5938-3.3125 1.3438-1.6562-3.125 1.4375-2zm40.562 0.34375 0.8125 14.781-7.7188-7.625 6.9062-7.1562zm-37.844 0.375 0.15625 0.09375 1.3438 2.1875-0.0625 0.75c-0.006293-0.003973-0.026516 0.004791-0.03125 0-0.68708-0.69535-0.81592-1.9139-1.5-2.6562l0.09375-0.375zm26.906 1.0625 0.03125 0.21875-6.7812 2.5625v-0.0625l6.75-2.7188zm0.625 0.125c0.10461 0.19399 0.35495 0.50699 0.125 0.8125l-7.4375 3-0.03125-0.875 7.3438-2.9375zm-33.219 0.375 0.4375 0.8125-3.3438 4.4375-0.625 0.25 0.0625-1 3.4688-4.5zm24.719 0.03125c0.19877-0.024598 0.44386 0.063867 0.6875 0.21875l4.2188 62.562c0.13168 0.53405-0.25784 1.1116-1.1875 0.5l-4.125-62.781c0.12641-0.31407 0.20748-0.4754 0.40625-0.5zm8.0312 0.875 0.09375 1.1562-1-0.78125 0.90625-0.375zm-25.375 0.09375 0.03125 0.0625 1.0312-0.03125v0.4375c-0.19453-0.074333-0.78012 0.059131-1.125 0.0625l0.0625-0.53125zm1.5 0h0.09375l2.6562 3.0938-0.40625 3.0938-0.15625 0.34375c-0.030286-0.022157-0.069537-0.035495-0.09375-0.0625-0.51156-0.57056 0.26567-2.0114 0-2.6875-0.30991-0.78874-0.7963-1.4551-1.3438-2.0938l0.0625-0.03125-0.125-0.0625c-0.24952-0.28557-0.53213-0.56482-0.8125-0.84375l0.125-0.75zm-8.3125 0.03125 1.25 2.3438-4.1875 1.6562 2.9375-4zm30.938 0.40625 1.4062 1.0938 0.03125 0.375-1.375 0.5-1.4688-1.375 1.4062-0.59375zm-24.719 0.4375 1.625 0.03125 0.5 0.71875-4.75 2.0312-0.78125-1.4375 3.4062-1.3438zm22.938 0.3125 1.5 1.3438-5.1562 1.8125-0.0625-1.5625 3.7188-1.5938zm-20.594 0.71875 1.4688 2.0312-0.03125 0.71875-5.75 0.25-0.53125-1 4.8438-2zm14.969 0 0.0625 1.1562-9.2812 3.75c-0.090495-0.37546-0.18747-0.76819-0.25-1.0938l9.4688-3.8125zm9.5312 0c0.38621 0.29375 0.24585 1.0055 0 1.125l-7.4688 2.6562-0.09375-1 7.5625-2.7812zm-31.594 0.84375 0.8125 1.5-1.9062 0.84375-4.4688 0.1875v-0.3125l5.5625-2.2188zm32.719 0.21875 0.4375 0.4375-0.34375 0.375-0.09375-0.8125zm-1.6562 0.46875 0.03125 0.40625-0.40625-0.28125 0.375-0.125zm-0.65625 0.25 0.75 0.59375 0.09375 0.90625-7 2.4688-0.125-1.625 6.2812-2.3438zm-8.2188 0.03125 0.25 3.8125-1.1875-0.28125-0.15625-3.0938 1.0938-0.4375zm-1.375 0.5625 0.125 2.9062-4.5938-1.0625 4.4688-1.8438zm-19.906 0.1875 0.28125 0.5-1.6875 0.09375 1.4062-0.59375zm33.406 0.0625 7.5312 7.4375-2.375-0.5625-6.125-5.9062 0.96875-0.96875zm-25.812 0.46875-0.0625 1.125-13.812 0.34375-0.21875-0.375v-0.25-0.09375l14.094-0.75zm23.281 0.15625c0.015336 0.33164 0.42005 0.58029 0.0625 1.125l-7.5 2.6875-0.0625-1 7.5-2.8125zm-19.5 0.65625c0.025749 0.35154 0.091075 0.69201 0.1875 1.0312-0.63208-0.3605-2.1212-0.0146-3-0.15625l0.15625-0.5625 2.6562-0.3125zm20.812 0 5.5 5.4062-5.125-1.1875-0.4375-4.1562 0.0625-0.0625zm-17.375 0.5625 6.75 1.5312 0.03125 0.78125-7.8438-1.875 1.0625-0.4375zm-7.3125 0.125v0.25l0.34375 0.09375-2.5 3.125-0.9375-0.3125-1.625-3.0312 4.7188-0.125zm-5.0938 0.125 8.4375 15.812-0.03125 1.1562-0.40625-0.40625-8.9062-16.531 0.90625-0.03125zm-1.2188 0.03125 1.2812 2.375-6.6875-2.25 5.4062-0.125zm29.281 0.0625 0.03125 0.21875-2.4375 2.7188-2.5625 0.90625 3.2188-3.2188 1.75-0.625zm-37.031 0.03125 0.0625 0.0625 0.125 0.3125 0.125-0.0625 17.062 16.875-0.09375 2.3438-17.406-17.125 0.125-2.4062zm1.625 0.03125 7.5938 2.5625 0.46875 0.90625-8.75-2.875-0.40625-0.40625 0.34375-0.15625 0.75-0.03125zm13.188 0.15625 1.5312 0.40625-4.0625 4.7812-0.625-1.1875 3.1562-4zm4.9375 0.125-1.3438 57.625-1.875 0.28125 1.8438-57.344 1.375-0.5625zm0.4375 0.09375 6.4375 1.5312 0.25 6.3125-6.8125-2.2812 0.125-5.5625zm16.906 0.125 0.1875 1.4375-1.3438 0.46875-0.4375-0.0625 1.5938-1.8438zm-20.438 0.15625 1.3125 0.34375-0.15625 4.1875-3.9062-1.3125 2.75-3.2188zm18.062 0.125-1.3125 1.3125-1.4375-0.3125 2.75-1zm-33.438 0.15625 8.5938 2.8438 0.625 1.1562-2.25 2.875-6.9688-6.875zm36.5 0.96875c0.47298 0.16858 0.21787 0.80668 0 1.1875l-7.5312 2.5938-0.09375-1 7.625-2.7812zm-6.2812 0.03125 1.6562 0.40625-0.59375 0.59375-2.2812-0.5625 1.2188-0.4375zm-4.5312 0.03125 1.2188 0.3125 0.34375 5.0312-1.25 1.25-0.3125-6.5938zm8.3438 0.59375 0.125 0.03125-0.21875 0.0625 0.09375-0.09375zm-5.2812 0.125 0.25 0.0625 1.5938 0.84375-0.59375 0.46875-1.1875-0.5-0.0625-0.875zm-30.188 0.0625 0.625 0.625 16.125 35.25-0.03125 1-0.625-0.65625-16.188-34.625 0.09375-1.5938zm31.25 0.1875 1.1875 0.28125-0.1875 0.1875-1-0.46875zm-19.938 0.28125 0.59375 0.1875-0.3125 0.375-0.28125-0.5625zm26.25 0.21875 0.09375 0.875-1.625-0.3125 1.5312-0.5625zm1.7812 0.15625 8.6875 1.9688-0.09375 0.5625-0.625 0.28125-0.25-0.0625-7.625-1.8125-0.09375-0.9375zm-9.0625 0.21875 0.78125 0.34375-0.75 0.28125-0.03125-0.625zm-29 0.1875 5.6875 5.5938-2.0312 2.5-3.6562-8.0938zm12.625 0.0625 4.0625 1.375-0.03125 0.65625-4.5-1.4688 0.46875-0.5625zm21.75 0.0625 2.0312 0.46875 0.0625 0.75-2.6562-1 0.5625-0.21875zm-1 0.375 3 1.0938-1.0625 0.375-2.875-1.125 0.9375-0.34375zm-34.75 0.21875 4 8.7188-4.7188 5.9062 0.71875-14.625zm13.375 0.125 4.6562 1.5-0.25 6.375-1.0938 0.4375-4-7.5312 0.6875-0.78125zm26.188 0.03125 7.0938 1.6875 0.25 0.25-5.9688 2.4062-1.125-2-0.25-2.3438zm-6.1562 0.03125 2.9062 1.1875-5.6562 1.9688v-0.09375l2.75-3.0625zm-0.75 0.34375-2.0312 2.1875-0.09375-1.2812 0.1875-0.1875 1.9375-0.71875zm-21.688 0.0625 0.59375 1.125-2.0312 2.375-0.75-0.71875 2.1875-2.7812zm27.344 0.3125c0.34647 0.24595 0.54808 0.73712 0.1875 1.2188l-7.75 2.5938-0.03125-1.0625 7.5938-2.75zm-18 0.59375 6.8438 2.3125v0.15625l-0.53125 0.21875-6.3438-2.0625 0.03125-0.625zm27.969 0.4375 0.09375 1.625-8.0938 3.25-0.15625-1.5938 8.1562-3.2812zm-36.531 0.09375 3.75 6.9062-0.78125 0.28125-4.9375-4.875 1.9688-2.3125zm8.5312 0.375 5.9688 1.9688-6.0625 2.6562 0.09375-4.625zm17.75 0.03125 0.1875 1.5625-5.875 2.0625-1.3438-1.125 7.0312-2.5zm-9.25 0.53125 0.09375 1.2188-8.1875 8.4375-0.625 0.25 0.03125-0.96875 8.6875-8.9375zm11.156 0.625 0.59375 1.0625-0.46875 0.1875-0.125-1.25zm8.4688 0.34375 0.0625 0.90625-7.5312 8.0625-0.125-1.2812 6.875-7.4062 0.71875-0.28125zm-9.6875 0.0625c0.23474 0.32658 0.26748 0.67705 0.03125 1.0625l-7.7812 2.8125-0.0625-1 7.8125-2.875zm-11.75 0.4375-2.9375 3.0312-3.9062 1.7812 0.0625-1.8438 6.7812-2.9688zm19.906 0.125-3.6562 3.9062-1.125-1.9375 4.7812-1.9688zm-17.969 0.15625 0.3125 4.5-1.4062 0.5625-0.1875-3.7188 1.2812-1.3438zm-21.562 0.4375 0.6875 0.6875-2.4062 2.8125-0.375-0.84375 2.0938-2.6562zm23.469 0.125 1.0938 0.9375-0.9375 0.3125-0.09375-0.03125-0.0625-1.2188zm17.656 0 0.75 13.844-5.1562-9.125 4.4062-4.7188zm-10.125 0.125 0.03125 0.25-4.4688 1.75-0.21875-0.21875 4.6562-1.7812zm0.0625 0.53125 0.15625 1.4688-7.4375 2.5938-0.09375-1.125 7.375-2.9375zm-30.125 0.15625 4.1562 4.0625-5.1875 2.0938-1.4688-3.2188 2.5-2.9375zm18.938 0.40625 0.15625 3.4375-5.6875 2.2812 5.5312-5.7188zm14.5 0.1875 1.1875 2.125-0.59375 0.625-1.3438-2.4375 0.75-0.3125zm-1.1875 0.46875 1.4375 2.6562-1.2188 1.3125-0.40625-3.875 0.1875-0.09375zm-7.25 0.1875 0.25 0.21875-1.4688 0.5625c-0.075016-0.077459-0.16399-0.15518-0.21875-0.21875l1.4375-0.5625zm5.6875 0.1875c0.21 0.27986 0.32534 0.60678 0.125 1.0625l-7.875 2.6875-0.0625-0.9375 7.8125-2.8125zm-15.469 0.46875-3.4062 3.5312 0.03125-2 3.375-1.5312zm8.0312 0c0.086683 0.079679 0.1778 0.1731 0.25 0.25l-0.75 0.28125-0.03125-0.3125 0.53125-0.21875zm-13.781 0.40625-0.0625 1.8438-0.03125 0.03125-0.8125-1.5312 0.90625-0.34375zm20.938 0.59375 0.25 2.125-0.46875 0.15625-1.875-1.5312 2.0938-0.75zm-34.5 0.125 0.375 0.84375-4.4375 5.1875-0.875 0.34375v-0.1875l4.9375-6.1875zm11.469 0.125 0.8125 1.5-0.125 0.0625-1.3438-1.3125 0.65625-0.25zm13.562 0.34375 0.125 1.625-9.3438 3.75 0.03125-1.6562 9.1875-3.7188zm6.9375 0.3125 1.8438 1.5312-1.625 0.5625-1.6875-1.5625 1.4688-0.53125zm-31.438 0.40625 1.1562 2.5312-5.0312 2.0312 3.875-4.5625zm39.031 0 5.5312 9.7188 0.0625 1.4062-0.96875-0.90625-5.2188-9.5625 0.59375-0.65625zm-31.062 0.09375 1.375 1.3438-5.9062 2.4688-0.78125-1.6875 5.3125-2.125zm21.594 0.15625 1.5938 1.5938-4.5 1.5312-0.15625-2.0312 3.0625-1.0938zm-17.656 0.4375 0.09375 0.1875-0.15625-0.15625 0.0625-0.03125zm22.812 0.15625c0.60126 0.14904 0.38455 0.88176 0.03125 1.0312l-2.2812 0.8125-5.7188 1.9688-0.0625-0.9375 8.0312-2.875zm3.375 0.1875 4.4688 8.1562-6.25-5.8438-0.0625-0.375 1.8438-1.9375zm-13.438 0.34375 0.34375 5.3438-1.6875-0.40625-0.15625-4.3125 1.5-0.625zm-15.062 0.3125 2.875 2.8438-8.4688 0.65625-0.40625-0.9375 6-2.5625zm13.125 0.5 0.15625 4.0312-6.3438-1.5 6.1875-2.5312zm11.25 0.1875 0.0625 0.21875-0.75 0.8125-0.625-0.5625 1.3125-0.46875zm0.4375 0.34375 0.125 1.2188-0.4375 0.46875-2 0.6875 1.1562-1.2188 1.1562-1.1562zm-33.125 0.09375 0.78125 1.6562-2.5 1.0312-5 0.375 0.0625-0.40625 6.6562-2.6562zm30.969 0.1875 0.78125 0.6875-1.4688 1.5938-4.6562 1.5938-0.125-1.9062 5.4688-1.9688zm4.125 0.9375 7.625 7.3125-2.6875-0.65625-4.7188-4.5938-0.21875-2.0625zm-1.2812 0.3125c0.54724-0.14593 0.39796 0.80062-0.15625 1.125l-7.9375 2.7812-0.0625-1.0625 8.1562-2.8438zm-22.375 0.5 0.09375 0.09375-0.03125 0.78125-8.25 0.71875-0.375-0.875 8.5625-0.71875zm-10.5 0.0625 0.1875 0.46875-1.5625 0.125 1.375-0.59375zm13.594 0.1875 9.2188 2.125 0.0625 1.0625-9.8125-2.375v-0.59375l0.53125-0.21875zm-13.25 0.59375 0.40625 0.875-8.1562 0.65625-0.375-0.3125 0.0625-0.53125 8.0625-0.6875zm32.125 0 0.28125 2.75-0.78125 0.28125-2.5312-0.5625 1.8125-2.0312 1.2188-0.4375zm-21.906 0.3125-0.625 17.188-7.5-16.5 8.125-0.6875zm20.219 0.3125-1.6562 1.7812-1.5625-0.34375 0.34375-0.40625 2.875-1.0312zm-17.75 0.03125 7.6875 1.8125 0.21875 6.25c0.051034 0.041821 0.10626 0.062155 0.15625 0.09375l-8.4375 9 0.375-17.156zm-12.188 0.46875 7.4688 16.312-15.219-15.281 1.0938-0.46875 6.6562-0.5625zm33.625 0.09375 3.5312 3.5312-3.25-0.78125-0.28125-2.75zm-42.281 0.5 17.656 18.031-0.09375 1.9062-17.688-17.688 0.125-2.25zm35.156 0.15625-0.125 0.125-0.15625-0.03125 0.28125-0.09375zm-0.71875 0.28125 4.8125 1.0312-2.625 0.90625-3.9688-1.0625-0.03125-0.21875 1.8125-0.65625zm-5.4688 0.40625 1.75 0.40625 0.21875 3.6562-1.6875 1.8125c-0.032108-0.006396-0.061653-0.02326-0.09375-0.03125l-0.1875-5.8438zm12.094 0.21875c0.60125 0.14905 0.38455 0.88176 0.03125 1.0312l-2.4688 0.84375h-0.03125l-0.03125 0.03125-5.6875 1.9688-0.0625-1 3.6875-1.2812h0.03125l4.5312-1.5938zm-8.4062 0.53125 1.0625 0.28125-0.96875 1.125-0.09375-1.4062zm1.4062 0.375 1.2812 0.34375-0.6875 0.71875-1.8438 0.625-0.03125-0.21875 1.2812-1.4688zm1.5312 0.4375 0.5 0.125-0.90625 0.3125 0.40625-0.4375zm5.0938 0.0625 0.09375 0.90625-1.7188-0.34375 1.625-0.5625zm1.9375 0.125 7.3125 1.6875 0.3125 0.28125v0.15625l-0.125 0.59375-0.3125 0.125-7.0625-1.6875-0.125-1.1562zm-4.125 0.625 2.3438 0.53125 0.09375 0.875-7.875 2.6562-0.125-1.625 1.0312-0.875 4.5312-1.5625zm4.2812 0.90625 5.4375 1.2812 0.5 0.5-5.5 2.3125-0.4375-4.0938zm-1.4062 0.5c0.60125 0.14905 0.38455 0.91301 0.03125 1.0625l-8.25 2.875-0.0625-1.0312 8.2812-2.9062zm-8.1562 0.40625-0.3125 0.28125v-0.15625l0.3125-0.125zm-2.2188 0.4375 0.0625 1.2812-10.156 10.875-0.46875 0.1875 0.03125-1.0625 10.531-11.281zm19.344 0.40625 0.0625 1.6875-6.9375 2.9375-0.1875-1.7188 7.0625-2.9062zm-9.2812 0.15625 0.21875 2-8 2.625-0.125-1.8438 7.9062-2.7812zm-9.9375 1.3438 0.375 5.7812-9.75 4.0938 9.1562-9.8125c0.072469-0.018203 0.14556-0.039952 0.21875-0.0625zm10.625 0.6875c0.60126 0.14905 0.38455 0.88176 0.03125 1.0312l-8.4062 2.9375-0.0625-1.0312 8.4375-2.9375zm-0.34375 1.375 0.28125 2.0625-2.0312 0.90625-6.0938 2.0312-0.15625-2.125 8-2.875zm0.6875 2.3438c0.60125 0.14904 0.38455 0.91301 0.03125 1.0625l-8.4688 2.875-0.125-1 8.5625-2.9375zm-0.3125 1.4062 0.28125 2.75-8.2188 2.6875-0.1875-2.5312 8.125-2.9062zm-10.25 0.4375 0.125 1.9062-11.125 4.7188-0.0625-2.0625 11.062-4.5625zm11.188 2.25c0.60125 0.14904 0.38455 0.88176 0.03125 1.0312l-8.8125 3-0.09375-1 8.875-3.0312zm-0.5 1.4688 0.25 2.5312-8.3438 2.7188-0.21875-2.375 8.3125-2.875zm0.84375 2.5c0.60125 0.14904 0.38455 0.91301 0.03125 1.0625l-8.875 2.9688-0.0625-0.96875 8.9062-3.0625zm-0.46875 1.4375 0.25 2.3438-8.4375 2.7812-0.15625-2.25 8.3438-2.875zm0.90625 2.2812c0.60125 0.14904 0.38455 0.91301 0.03125 1.0625l-9.0625 3.0625-0.0625-1 9.0938-3.125zm-0.53125 1.4688 0.25 2.0938-8.5625 2.8125-0.15625-1.9688 8.4688-2.9375zm0.8125 2.0625c0.60125 0.14904 0.38455 0.91301 0.03125 1.0625l-9.0938 3.0625-0.0625-0.96875 9.125-3.1562z" fill-rule="evenodd"/>
 </g>
</svg>
