<?xml version="1.0" encoding="UTF-8"?>
<!-- Created with Inkscape (http://www.inkscape.org/) -->
<svg id="svg3285" width="122.31" height="67.673" version="1.0" xmlns="http://www.w3.org/2000/svg" xmlns:cc="http://creativecommons.org/ns#" xmlns:dc="http://purl.org/dc/elements/1.1/" xmlns:rdf="http://www.w3.org/1999/02/22-rdf-syntax-ns#">
 <metadata id="metadata3290">
  <rdf:RDF>
   <cc:Work rdf:about="">
    <dc:format>image/svg+xml</dc:format>
    <dc:type rdf:resource="http://purl.org/dc/dcmitype/StillImage"/>
   </cc:Work>
  </rdf:RDF>
 </metadata>
 <g id="layer1" transform="translate(-2.9552 -26.165)">
  <g id="g2382">
   <path id="path2161" d="m5.6471 91.608s14.118 1.8824 32.627-2.8235c11.068-2.8138 30.118-1.8824 37.02-1.8824 6.902 0 45.176-11.608 47.059-16.314 1.8824-4.7059 4.0784-10.353-4.7059-14.431-8.7843-4.0784-25.725 0.31372-30.745-1.8824-5.0196-2.1961-5.0196-4.0784-7.5294-10.039s-7.8431-15.686-10.039-16.627c-2.1961-0.94118-6.5882-0.62745-7.8431 1.2549s-3.7647 7.2157-6.2745 8.4706-5.6471 2.8235-8.7843 0c-3.1373-2.8235-5.3333-4.0784-6.902-3.1373-1.5686 0.94118-5.3333 6.5882-5.3333 8.7843 0 2.1961 2.0239 23.112 0 26.039-3.9797 2.3385-17.882 7.5294-19.765 9.7255-1.8824 2.1961-14.745 8.4706-8.7843 12.863z" fill="#784421" fill-rule="evenodd" stroke-width="1px"/>
   <path id="path2396" d="m66.204 26.18c-0.18003 0.013997-0.35364 0.051408-0.52958 0.084732-2.1251 0.40248-4.0023 2.1514-6.1643 4.3849-1.93 3.165-3.9254 6.5072-4.2578 6.9057-0.002935 0.003342-0.01858 0.039608-0.021183 0.042366-0.001932 2.71e-4 -0.018783-2.03e-4 -0.021183 0-3.12e-4 -0.001857 4.07e-4 -0.018851 0-0.021182 0.002433-0.007871-0.003918-0.031901 0-0.042367 0.023352-0.058865 0.064471-0.16888 0.1271-0.29656-3.056 0.87643-6.1605 0.98976-8.9393-0.76259-2.8326-4.3494-4.4493-5.4049-9.257-1.1227-2.9486 3.8225-3.1976 8.4655-3.474 13.176-0.39512 6.3727-0.16823 12.772-0.91087 19.107-6.44e-4 0.001173-0.020044-0.00142-0.021183 0-0.001627 0.00166 0.002115 0.019271 0 0.021178-0.32015 0.26522-4.3068 2.378-8.7698 4.9568-5.3623 2.8362-22.481 11.767-20.908 18.811 3.0373 2.8977 7.241 2.2915 11.142 2.4149 4.6996-0.06334 23.954-5.0519 29.254-5.211 11.295 0.21009 22.607 0.12053 33.872-0.84733 8.0062-0.94906 17.218-4.5159 25.06-6.4397 6.346-2.0513 11.338-4.2787 17.01-7.8166 4.6427-3.5529 7.9884-5.9832 4.3002-12.117-3.0313-3.761-4.5865-6.044-9.0664-7.4564-4.0281-1.0241-8.2006-0.36247-12.329-0.14828-2.9781 0.61594-9.0818 0.16901-11.799-0.36011-2.7558-2.1517-5.951-6.0719-8.3673-8.5792-2.5835-2.8835-4.7729-6.023-6.5668-9.4688-1.3835-2.8336-2.9026-5.6632-5.1687-7.9013-1.5689-1.0226-2.934-1.4114-4.1942-1.3134zm-2.8809 1.97c0.84999-0.079899 2.2845 0.21768 4.3849 1.5252 2.2374 2.2025 4.7667 4.1937 6.1219 6.9904 1.8286 3.4612 3.0121 7.4491 5.6135 10.359 0.43955 0.45861 1.0822 1.0144 1.8641 1.6523-6.6485 3.4758-35.393 12.173-45.522 10.147-0.14615-3.9401-0.54021-7.8506-0.27538-11.884 0.28566-4.3557 1.3929-8.8897 4.0248-12.477 0.29132 0.68971 2.429 1.528 4.1519 4.1731 2.8175 1.9331 6.0126 1.8418 9.2146 1.0592 5.0635-2.3454 6.854-6.5147 9.5959-10.803-0.006697-0.003458-0.014574-0.016954-0.021183-0.021184-0.009674-0.006758-0.034177-0.013855-0.042366-0.021183-0.002481-0.002433 0.002196-0.018797 0-0.021182-6.65e-4 -8.28e-4 -0.019 0.001579-0.021183 0-0.002149-0.001594-0.02058-0.02033-0.021184-0.021184-1.96e-4 -0.001864 4.75e-4 -0.020268 0-0.021183-0.002806-0.001776-0.019 0.001579-0.021182 0-5.5e-4 -0.001973 5.62e-4 -0.017523 0-0.021183-0.001058-0.008473 5.76e-4 -0.017062 0-0.021183-1.5e-4 -0.002095 6.91e-4 -0.016994 0-0.021183 6.1e-5 -0.001085-4.08e-4 -0.01959 0-0.021183 0.001762-0.004514-0.001451-0.017232 0-0.021183 0.001816-0.007877 0.017936-0.032795 0.021182-0.042366 0.005728-0.015021 0.013808-0.048935 0.021184-0.06355 0.002542-0.004556 0.018607-0.017075 0.021183-0.021183 0.003667-0.004806 0.019434-0.018824 0.021183-0.021183 0.030178-0.037594 0.078971-0.091368 0.1271-0.1271 0.094487-0.066206 0.22152-0.12516 0.3813-0.16946 0.10785-0.0299 0.22102-0.071656 0.36011-0.084732zm2.5632 5.1475c-2.9109 0.47099-0.18416 9.5806-0.29656 10.443l0.84732-0.40248c0.11848-0.7278 0.040231-6.6713 0.57194-7.5412 0.006975-0.010724 0.013996-0.033385 0.021182-0.042366 0.004834-0.005592 0.016255-0.016391 0.021183-0.021184 0.004975-0.004385 0.016113-0.017617 0.021184-0.021182 0.002562-0.001579 0.0186 0.001369 0.021182 0 0.002638-9.42e-4 0.018526-0.020452 0.021184-0.021183 0.002684-5.16e-4 0.018471 2.97e-4 0.021183 0 0.002758 1.42e-4 0.018397-3.66e-4 0.021182 0 0.00562 0.001179 0.015463 0.019102 0.021184 0.021183 0.002887 0.001267 0.018268-0.001505 0.021183 0 1.1878 0.069466 2.3652 0.33135 3.4317 0.86851l0.80496-0.5084c-1.0768-0.5549-4.3227-2.6956-5.5288-2.775-0.011639 0.001586-0.00972-0.001857-0.021182 0zm26.415 21.543c2.4659 0.63494 4.9328 1.1121 7.4988 0.59313 4.0968-0.25202 8.2593-0.17642 12.265 0.80496 4.411 1.3688 7.1995 3.0183 10.189 6.715 2.2838 4.5346-1.9762 6.742-4.3425 9.1299-5.614 3.6349-9.2006 5.2882-15.527 7.3929-7.833 1.9916-14.614 5.0047-22.624 5.9948-11.245 1.0396-22.551 1.1075-33.829 0.82614-5.3105 0.085665-24.519 5.0437-29.19 5.1687-3.7724-0.109-12.218 0.64097-10.846-3.8977 0.94205-3.1152 4.3393-4.9622 6.1431-6.1431 0.10884-0.11173 4.2608-3.9514 9.5324-6.3337 2.6768-1.5179 8.5178-1.9572 10.909-3.9824-0.010263 1.9234 0.19199 3.6469 0.48721 4.046l1.1015-3.813c8.4033-0.2099 49.123-7.815 54.885-16.375 1.932 1.4794 3.1095 4.4455 3.4528 5.1051l0.48721-0.57194c-0.27931-0.56462-0.4163-4.086-0.59313-4.6391-0.001424-0.004041 0.001423-0.01753 0-0.021184z"/>
  </g>
 </g>
</svg>
