<?xml version="1.0" encoding="UTF-8"?>
<!-- Created with Inkscape (http://www.inkscape.org/) -->
<svg id="svg1061" width="48pt" height="48pt" xmlns="http://www.w3.org/2000/svg" xmlns:cc="http://web.resource.org/cc/" xmlns:dc="http://purl.org/dc/elements/1.1/" xmlns:rdf="http://www.w3.org/1999/02/22-rdf-syntax-ns#" xmlns:xlink="http://www.w3.org/1999/xlink">
 <defs id="defs3">
  <linearGradient id="linearGradient6999">
   <stop id="stop7000" stop-color="#ad00ff" offset="0"/>
   <stop id="stop7007" stop-color="#8e00f2" offset=".5"/>
   <stop id="stop7001" stop-color="#5900bb" offset="1"/>
  </linearGradient>
  <linearGradient id="linearGradient7002" x1="10.762" x2="40.276" y1="46.218" y2="46.218" gradientTransform="scale(1.2323 .81148)" gradientUnits="userSpaceOnUse" xlink:href="#linearGradient6999"/>
  <radialGradient id="radialGradient7006" cx="18.266" cy="40.93" r="15.522" gradientTransform="scale(1.485 .67342)" gradientUnits="userSpaceOnUse" xlink:href="#linearGradient6999"/>
  <radialGradient id="radialGradient7012" cx="19.429" cy="67.052" r="25.868" gradientTransform="scale(1.4758 .67758)" gradientUnits="userSpaceOnUse" xlink:href="#linearGradient6999"/>
  <radialGradient id="radialGradient1722" cx="-36.124" cy="22.809" r="24.247" gradientTransform="scale(.734 1.3624)" gradientUnits="userSpaceOnUse" spreadMethod="reflect">
   <stop id="stop8879" stop-color="#a3afff" offset="0"/>
   <stop id="stop8880" stop-color="#3249ff" offset="1"/>
  </radialGradient>
 </defs>
 <g id="layer1">
  <path id="path1072" d="m33.938 36.733c-7.614-2.8362-24.483-7.5589-29.687 1.4062-5.5672 9.5901 9.8263 15.697 16.094 17.969 12.469 4.5189 31.403-2.2342 36.875-12.812 5.6031-10.831-16.341-3.9771-23.281-6.5625z" fill="url(#radialGradient7012)" fill-rule="evenodd" stroke="#000" stroke-width="1pt"/>
  <path id="path2316" d="m33.625 33.765c-4.0313-0.50324-13.979-6.4595-17.262-5.64-3.2826 0.81953-0.027018 8.3408-1.6443 11.265-1.0847 1.9612 6.0378 7.7064 10.938 8.9062 6.2121 1.5212 18.704-0.20566 20.938-3.4375 2.3688-3.4278 3.4221-16.1 1.1629-18.338-2.3951-2.373-11.286 7.5994-14.132 7.2442z" fill="url(#linearGradient7002)" fill-rule="evenodd" stroke="#000" stroke-width="1pt"/>
  <path id="path1071" d="m34.563 21.577c-8.0625-1.0065-15.417-0.075221-18.906 5.625-3.7363 6.1044 6.6628 6.1439 11.562 7.3438 6.2121 1.5212 14.988 1.9771 18.75-2.5 7.202-8.5699-5.7155-9.7583-11.406-10.469z" fill="url(#radialGradient7006)" fill-rule="evenodd" stroke="#000" stroke-width="1pt"/>
  <g id="feather" transform="matrix(.49687 .23198 -.24092 .47603 71.4 14.54)" fill-rule="evenodd">
   <path id="path6363" transform="matrix(.86602 -.5 .5 .86602 -16.695 -10.77)" d="m-35.548 57.659c0.035975-1.2585-4.3832-4.3519-2.8242-10.182 0.31117-1.1637 3.2193 6.2356 2.6189 5.0017-1.6755-3.4437-1.2974-6.3401-1.125-7.6215 0.68981-5.1257 3.192-12.115 5.2507-16.167 0.5147-1.0129 0.05629 5.1119 0.98886 7.9963-1.3025-2.0977 0.94546-13.175 1.2099-14.811 0.52892-3.2711 0.85445-6.9604 1.0703-10.659 0.4317-7.3975 0.42465-14.833 0.72846-19.035 4.5479 2.5656 6.7285 9.2297 8.2238 16.675 0.37382 1.8612 0.18773 4.9363-0.73316 7.8219 1.1232-2.6336 1.1796-4.368 1.5096-7.301 3.2211 3.1016 1.0261 18.192 0.5235 21.234-0.70766 4.2829-2.1705 11.158-5.6492 14.383 2.1574-1.9103 2.9879-3.9343 4.0094-5.223-0.28287 7.116-7.1762 14.63-8.185 15.381-2.3902 1.7781-7.6933 5.1758-7.617 2.5065z" fill="url(#radialGradient1722)" stroke="#000" stroke-linecap="round" stroke-linejoin="round" stroke-width="1pt"/>
   <path id="path6364" d="m-44.512-4.7309c2.0676 2.287 16.441 16.797 21.107 29.964 3.4887 9.8509 3.5981 18.23 4.1241 24.892s0.6875 13.506 0.6875 17.062h1.25c0-3.5936-0.1578-10.447-0.6875-17.156-0.040868-6.9464-1.1029-15.633-4.6311-25.191-4.4578-12.077-18.787-26.658-21.85-29.571z"/>
  </g>
  <g id="hat band">
   <path id="path2317" d="m30.188 42.827c-4.1418-0.17179-10.893-1.5917-15.275-4.1439-0.69327 2.7183-0.4273 3.225-0.22596 5.883 2.5538 1.8795 4.9837 3.3343 9.9755 4.0611 6.6541 0.96881 17.077 0.12721 23.147-3.548 0.70365-3.2068 1.1996-4.1573 0.7399-6.7486-3.9576 4.0332-15.497 4.6152-18.361 4.4964z" fill="#ff8f00" stroke="#000" stroke-linecap="round" stroke-linejoin="round" stroke-width="1pt"/>
   <path id="path3566" d="m15.156 38.781c0.004624 0.068842 0.034941 0.085797 0 0.21875 0.062129 0.5927-0.099124 0.59344-0.375 0.46875-0.072196 0.34841-0.089731 0.65329-0.125 0.9375 0.97696 0.20192 1.9134-0.2083 2.125-0.84375-0.54939-0.25288-1.1259-0.49979-1.625-0.78125zm32.125 0.53125c-0.73162 0.48616-1.5693 0.91536-2.5 1.2812 0.093529 0.019596 0.04796 0.042703 0.15625 0.0625 1.6743 0.30608 2.8299 0.091037 2.3438-1.3438zm-29.562 0.65625c-0.62247 1.0321-0.41235 2.5702 1.0625 2.4062 1.4206-0.15788 2.5912-0.48185 2.375-1.1875-0.49653-0.14526-0.98132-0.30426-1.4688-0.46875 0.13005 0.049793 0.21408 0.10641 0.125 0.28125-0.36786 0.72202-0.47945 0.50734-0.9375 0.3125-0.50628-0.21535-0.69214-0.49819-0.46875-0.6875 0.18089-0.1533 0.22951-0.1594 0.28125-0.125 0.051736 0.034397 0.1155 0.10929 0.34375 0.125 0.16839 0.011588 0.3164 0.043067 0.46875 0.0625-0.62347-0.21409-1.1881-0.47334-1.7812-0.71875zm26.156 1.25c-0.27716-0.004149-0.54881 0.1128-0.96875 0.09375-0.84617-0.038388-1.3247 0.37885-1.625 0.84375-0.66612 1.0312 0.053384 1.8604 1.5625 1.7812 1.7172-0.09012 2.9753-1.0994 2.0312-2.125-0.43076-0.46798-0.72284-0.5896-1-0.59375zm3.5312 0.03125c-0.2641-0.04734-0.51249 0.005331-0.6875 0.375-0.64365 1.3596-1.1002 1.5305 0.71875 2.4375 0.20276 0.10111 0.39731 0.088916 0.59375 0.125 0.1182-0.49922 0.18835-0.94062 0.28125-1.3438-0.13014 0.19588-0.25546 0.35082-0.8125 0.3125-0.53266-0.15473-0.5687-0.29637-0.375-0.75 0.039104-0.091581 0.088472-0.13899 0.125-0.15625 0.10958-0.051796 0.22013 0.16394 0.5625 0.1875 0.21262 0.014631 0.4461-0.025919 0.59375-0.03125 0.054262-0.2512 0.1801-0.64077 0.21875-0.875-0.11948-0.035676-0.11961-0.087279-0.46875-0.09375-0.21788-0.004037-0.48589-0.14016-0.75-0.1875zm-24.062 0.53125c-0.12461 0.1199-0.2864 0.2066-0.375 0.34375-0.66612 1.0312 0.053383 1.8604 1.5625 1.7812 1.4289-0.074987 2.4637-0.79961 2.25-1.625-1.1498-0.16534-2.1926-0.21005-3.4375-0.5zm-7.4375 0.125c-0.39861-0.007387-0.99031 0.24329-1.375 0.59375 0.040076 0.5694 0.087423 1.0912 0.15625 1.9688 0.22304 0.072493 0.19001 0.20321 0.53125 0.25 1.4975 0.20535 2.0391 0.22599 2.1875-1.2812 0.081292-0.82546-0.19272-1.507-1.5-1.5312zm8.5312 0.1875c0.44756 0.030799 1.0557-0.010226 1.1562 0.4375 0.17747 0.7903 0.044553 0.51766-0.3125 0.625-0.52699 0.15843-0.82692-0.1248-0.90625-0.40625-0.1432-0.50805-0.39399-0.68766 0.0625-0.65625zm18.312 0.03125c0.44756 0.0308 1.0557-0.010226 1.1562 0.4375 0.17747 0.7903 0.044552 0.51766-0.3125 0.625-0.52699 0.15843-0.82692-0.1248-0.90625-0.40625-0.1432-0.50805-0.39399-0.68766 0.0625-0.65625zm-5.1562 0.15625c-0.24059 0.033123-0.45095 0.064611-0.6875 0.09375 0.070842 5.07e-4 0.10989 0.039875 0.1875 0.03125 0.20556-0.022845 0.30527-0.095363 0.5-0.125zm-9.5625 0.21875c-0.19052 0.52561-0.12479 0.92361 1.0938 1.5312 1.3922 0.69422 2.6647-0.27828 2.2188-1.25-0.34192 0.001176-0.92169 0.040979-1.1562 0.03125-0.043088-0.001787-0.1126-0.029193-0.15625-0.03125-0.13781 0.2148-0.25488 0.38426-0.84375 0.34375-0.41709-0.12116-0.47574-0.27131-0.40625-0.53125-0.22636-0.019898-0.51377-0.067832-0.75-0.09375zm7.5 0.03125c-1.1085 0.10723-2.0025 0.21605-2.875 0.25-0.8689 1.0158-1.0072 1.7106 0.875 1.9688 1.4975 0.20535 2.0391 0.22599 2.1875-1.2812 0.035822-0.36375-0.026264-0.66705-0.1875-0.9375zm-20.125 0.28125c0.16852 0.002918 0.36551 0.015543 0.59375 0.03125 0.44756 0.030799 0.54286 0.31916 0.15625 0.6875-0.79972 0.76192-0.41455 0.12243-1.1875 0-0.54488-0.086304-0.22046-0.43231 0-0.625 0.11777-0.10293 0.26898-0.096671 0.4375-0.09375zm18.312 0.03125c0.16851 0.00292 0.3655 0.015543 0.59375 0.03125 0.44756 0.0308 0.54286 0.31916 0.15625 0.6875-0.79972 0.76191-0.41455 0.12243-1.1875 0-0.54488-0.086306-0.18921-0.43231 0.03125-0.625 0.11777-0.10294 0.23774-0.096671 0.40625-0.09375zm-12.469 0.4375c-0.68825-0.008076-1.3175 0.57091-1.5938 0.875-1.1019 1.213-0.46615 2.5002 1.5625 2.25 1.6994-0.20957 2.6065-0.77244 1.7812-1.9688-0.34397-0.49861-0.44272-1.132-1.75-1.1562zm18.312 0.03125c-0.68825-0.008078-1.3175 0.57091-1.5938 0.875-1.1019 1.213-0.46615 2.5002 1.5625 2.25 1.6994-0.20957 2.6065-0.77244 1.7812-1.9688-0.34397-0.49861-0.44272-1.132-1.75-1.1562zm-18 1c0.44756 0.030799 0.88536 0.36255 0.625 0.78125-0.5829 0.93738-0.77734 0.304-1.5625 0.25-0.53267-0.15473-0.62964-0.43569-0.40625-0.625 0.36178-0.30659 0.88726-0.43766 1.3438-0.40625zm18.312 0.03125c0.44756 0.030801 0.88536 0.36255 0.625 0.78125-0.5829 0.93738-0.74609 0.304-1.5312 0.25-0.53267-0.15473-0.66089-0.43569-0.4375-0.625 0.36179-0.30659 0.88726-0.43766 1.3438-0.40625zm-13.531 0.40625c-0.43576-0.008078-0.84517-0.061559-1.25 0.5-0.54412 0.65331-0.2823 1.8019 0.8125 1.9375 1.7382 0.21529 1.959 0.43213 2.375-0.78125 0.24506-0.71486-0.63022-1.632-1.9375-1.6562zm18.344 0.03125c-0.43576-0.008075-0.87642-0.061559-1.2812 0.5-0.41269 0.49551-0.21821 1.1534 0.3125 1.5625 0.34774-0.12154 0.63385-0.30441 0.96875-0.4375-0.52753-0.17074-0.69214-0.46694-0.46875-0.65625 0.18089-0.1533 0.28508-0.17783 0.40625-0.1875 0.12117-0.009669 0.27176 0.015543 0.5 0.03125 0.27585 0.018984 0.43834 0.17642 0.5625 0.40625 0.21512-0.09744 0.44831-0.17842 0.65625-0.28125-0.28204-0.48954-0.78129-0.92128-1.6562-0.9375zm-11.594 0.4375c-0.18087 0.011965-0.36955 0.048983-0.625 0.15625-1.4228 0.59743-1.2877 1.7805 0.53125 2.6875 1.5733 0.78453 1.3187-0.59927 2.4062-1.6562 0.43478-0.42256-0.44272-1.132-1.75-1.1562-0.21788-0.004037-0.38163-0.043215-0.5625-0.03125zm-17 0.1875c0.27896 0.18561 0.58482 0.35708 0.875 0.53125-0.11978-0.23617-0.38797-0.39111-0.875-0.53125zm10.219 0.125c0.12117-0.009671 0.27176 0.015543 0.5 0.03125 0.44756 0.030798 0.7546 0.36276 0.71875 0.90625-0.041189 0.62445-0.4477 0.1457-1.1875-0.09375-0.52753-0.17074-0.66089-0.46694-0.4375-0.65625 0.18089-0.1533 0.28508-0.17783 0.40625-0.1875zm6.7812 0.4375c0.12991 0.039285 0.2442 0.15919 0.4375 0.28125 0.44756 0.28262 0.40876 0.66943 0.375 0.78125-0.22582 0.74798-0.41455-0.033818-1.1875-0.15625-0.54488-0.086305-0.28589-0.56069-0.0625-0.75 0.18089-0.1533 0.30759-0.19554 0.4375-0.15625zm-9 0.875c-0.27716-0.004152-0.58006 0.081552-1 0.0625-0.84617-0.038391-1.2934 0.4101-1.5938 0.875 0.41365 0.11861 0.82081 0.24074 1.2812 0.34375-0.1138-0.27353-0.19209-0.43022 0.15625-0.40625 0.44756 0.030801 1.0557-0.010226 1.1562 0.4375 0.046678 0.20786 0.024977 0.22447 0.03125 0.3125 0.21563 0.035839 0.30538 0.12336 0.53125 0.15625 0.14948 0.021764 0.34681 0.011325 0.5 0.03125 0.26354-0.36011 0.31021-0.81114-0.09375-1.25-0.43076-0.46798-0.69159-0.55835-0.96875-0.5625zm18.312 0.03125c-0.27716-0.00415-0.54881 0.081552-0.96875 0.0625-0.84617-0.03839-1.3247 0.4101-1.625 0.875-0.024356 0.037704 0.020698 0.056668 0 0.09375 1.0568-0.22703 2.1018-0.43815 3.0938-0.75-0.16116-0.092021-0.35808-0.27912-0.5-0.28125zm-23.75 0.03125c-0.022047-4.09e-4 -0.040834 0.029644-0.0625 0.03125 0.33305 0.1527 0.85448 0.23625 1.2188 0.375-0.1856-0.24184-0.41085-0.39243-1.1562-0.40625zm18.312 0.03125c-0.43576-0.008077-0.76943 0.39171-1.25 0.5-0.9625 0.19552-1.0387 0.71085-0.6875 1.25 0.36728-0.036458 0.72648-0.017302 1.0938-0.0625-0.026142-0.003699-0.036014-0.029428-0.0625-0.03125-0.53267-0.15473-0.34839-0.34194-0.125-0.53125 0.18089-0.1533 0.31002-0.19672 0.4375-0.1875s0.2405 0.078044 0.46875 0.09375c0.43165 0.029704 0.64365-0.03734 0.53125 0.4375 0.47102-0.071635 0.9092-0.19445 1.375-0.28125-0.008534-0.008965 0.008948-0.022326 0-0.03125-0.82768-0.82546-0.47397-1.132-1.7812-1.1562zm-6.625 0.0625c-0.28032-0.079696-0.54943-0.050425-0.90625 0.03125-0.82558 0.18897-1.3559 0.5976-1.6562 1.0625-0.1904 0.29475-0.053692 0.50808-0.03125 0.75 1.2145 0.071699 2.4014 0.096246 3.7188 0.0625 0.22329-0.34852 0.25798-0.74018-0.125-1.1562-0.43076-0.46798-0.71968-0.6703-1-0.75zm-0.5 0.84375c0.19548-0.009614 0.37438 0.057821 0.5 0.25 0.25322 0.3874-0.049197 0.67391-0.40625 0.78125-0.52699 0.15843-0.92983 0.16696-1.0625-0.09375-0.1432-0.28141 0.13975-0.63032 0.34375-0.75 0.19334-0.11342 0.42952-0.17788 0.625-0.1875z" fill-rule="evenodd"/>
  </g>
 </g>
 <metadata>
  <rdf:RDF xmlns:cc="http://web.resource.org/cc/" xmlns:dc="http://purl.org/dc/elements/1.1/" xmlns:rdf="http://www.w3.org/1999/02/22-rdf-syntax-ns#">
   <cc:Work rdf:about="">
    <dc:title>Pimp Hat</dc:title>
    <dc:description/>
    <dc:subject>
     <rdf:Bag>
      <rdf:li>hat</rdf:li>
      <rdf:li>pimp</rdf:li>
      <rdf:li>clothing</rdf:li>
     </rdf:Bag>
    </dc:subject>
    <dc:publisher>
     <cc:Agent rdf:about="http://www.openclipart.org">
      <dc:title>James Birkett</dc:title>
     </cc:Agent>
    </dc:publisher>
    <dc:creator>
     <cc:Agent rdf:about="">
      <dc:title>James Birkett</dc:title>
     </cc:Agent>
    </dc:creator>
    <dc:rights>
     <cc:Agent rdf:about="">
      <dc:title>James Birkett</dc:title>
     </cc:Agent>
    </dc:rights>
    <dc:date/>
    <dc:format>image/svg+xml</dc:format>
    <dc:type rdf:resource="http://purl.org/dc/dcmitype/StillImage"/>
    <cc:license rdf:resource="Public Domain">
     <dc:date/>
    </cc:license>
    <dc:language>en</dc:language>
   </cc:Work>
   <cc:License rdf:about="Public Domain">
    <cc:permits rdf:resource="http://web.resource.org/cc/Reproduction"/>
    <cc:permits rdf:resource="http://web.resource.org/cc/Distribution"/>
    <cc:permits rdf:resource="http://web.resource.org/cc/DerivativeWorks"/>
   </cc:License>
  </rdf:RDF>
 </metadata>
</svg>
