<?xml version="1.0" encoding="UTF-8"?>
<!-- Created with Inkscape (http://www.inkscape.org/) -->
<svg id="svg2" width="300" height="199.96" version="1.0" xmlns="http://www.w3.org/2000/svg" xmlns:cc="http://creativecommons.org/ns#" xmlns:dc="http://purl.org/dc/elements/1.1/" xmlns:rdf="http://www.w3.org/1999/02/22-rdf-syntax-ns#" xmlns:xlink="http://www.w3.org/1999/xlink">
 <metadata id="metadata7">
  <rdf:RDF>
   <cc:Work rdf:about="">
    <dc:format>image/svg+xml</dc:format>
    <dc:type rdf:resource="http://purl.org/dc/dcmitype/StillImage"/>
   </cc:Work>
  </rdf:RDF>
 </metadata>
 <defs id="defs5">
  <linearGradient id="linearGradient2225">
   <stop id="stop2227" stop-color="#0a5b00" offset="0"/>
   <stop id="stop2233" stop-color="#abe1a4" offset="0"/>
   <stop id="stop2229" stop-color="#239115" offset="1"/>
  </linearGradient>
  <linearGradient id="linearGradient2427" x1="-166" x2="-166" y1="281.37" y2="290.31" gradientTransform="matrix(.45439 0 0 .45439 -19.882 86.016)" gradientUnits="userSpaceOnUse" xlink:href="#linearGradient2225"/>
  <linearGradient id="linearGradient2429" x1="160.36" x2="585.08" y1="586.87" y2="633.04" gradientTransform="matrix(.45439 0 0 .45439 -19.882 86.016)" gradientUnits="userSpaceOnUse">
   <stop id="stop2215" offset="0"/>
   <stop id="stop2223" stop-color="#595959" offset=".5"/>
   <stop id="stop2217" offset="1"/>
  </linearGradient>
  <linearGradient id="linearGradient2431" x1="431.39" x2="477.51" y1="1015.8" y2="658.74" gradientTransform="matrix(.45439 0 0 .45439 -20.474 86.489)" gradientUnits="userSpaceOnUse" xlink:href="#linearGradient2225"/>
  <radialGradient id="radialGradient2433" cx="360.67" cy="316.21" r="216.44" gradientTransform="matrix(.528 -.040172 .013738 .18056 -48.095 356.92)" gradientUnits="userSpaceOnUse">
   <stop id="stop3192" stop-color="#1c3b18" offset="0"/>
   <stop id="stop3194" stop-color="#1c3b18" stop-opacity="0" offset="1"/>
  </radialGradient>
 </defs>
 <g id="g2415" transform="translate(3.4767e-7 -240.11)">
  <path id="path2183" d="m59.283 404.89 41.048-156.86c42.352-10.049 84.703-12.644 127.05 12.217l20.524 157.84-188.63-13.194z" fill="url(#linearGradient2427)" fill-rule="evenodd" stroke="#3e5b3a" stroke-width="1.3632"/>
  <path id="path2185" d="m57.354 411.93 20.183-82.439c22.843-13.536 97.908-11.632 162.05 15.071l9.8797 81.507-192.11-14.139z" fill="url(#linearGradient2429)" fill-rule="evenodd" stroke="#353535" stroke-width="1.3632"/>
  <path id="path2187" d="m189.92 405.59 0.47601-81.16 4.5221-3.5701c15.391 0.47601 27.926 4.7601 37.605 12.852l5.4741 78.066-5.4741 4.2841-42.603-10.472zm14.052-70.762 1.647 49.724 19.711 5.3865-2.0982-20.75-15.421-8.9165 14.425 0.30447-1.5251-20.741c-5.5795-4.6069-11.159-5.5023-16.738-5.0076z" fill="#ffcd00" fill-rule="evenodd" stroke="#866c00" stroke-width="1.3632"/>
  <path id="path2201" d="m190.42 324.69 4.8761-3.775 0.94376 80.534-6.1344 4.2469 0.31458-81.006z" fill="#bc9500" fill-rule="evenodd"/>
  <path id="path2203" d="m203.75 330.18 0.07244 4.6547c4.6401-0.69896 10.064-0.20698 16.916 4.7272l1.6884 21.235 3.5136 0.11599-1.8044-24.453c-7.7314-6.3818-14.107-7.0621-20.386-6.2797z" fill="#bc9500" fill-rule="evenodd"/>
  <path id="path2205" d="m208.49 360.38 14.934 8.7955 2.1627 21.151 4.0371 1.412-2.7253-25.1-18.408-6.2582z" fill="#bc9500" fill-rule="evenodd"/>
  <path id="path1308" d="m57.328 436.65c45.144 5.6026 100.1-3.3851 171.52 2.4434 19.651 1.6037 42.643-3.1941 69.391-20.036 1.4567-6.4002 3.798-8.8006-11.239-11.728-4.1872-1.861-4.171 9.4135-42.514 3.4207-49.775-7.7794-99.785-28.941-142.69-33.23-42.907-4.2888-79.071-4.5468-96.268 19.547-15.313 21.454 6.6557 33.98 51.799 39.582z" fill="#5ab64d" fill-rule="evenodd" stroke="#3e5b3a" stroke-width="1.3632"/>
  <path id="path2237" d="m55.154 386.76c-14.072 0.41786-28.599 0.77579-41.846 5.8787-4.8116 1.7292-8.4872 5.5104-10.423 10.195-2.9034 5.3107-2.3388 12.463 2.2577 16.685 8.0304 7.7312 19.351 10.445 29.853 13.053 34.486 7.7836 70.16 5.4329 105.24 4.5799 30.599-0.96787 61.263-0.77908 91.787 1.735 21.398 0.89242 42.247-6.0458 60.434-16.779-24.13 3.7665-48.656-0.6362-72.309-5.6388-37.276-7.9417-73.184-21.969-111.09-26.841-17.863-1.9105-35.905-3.0778-53.902-2.8683z" fill="url(#linearGradient2431)" fill-rule="evenodd" stroke="#3e5b3a" stroke-width=".90878"/>
  <path id="path3174" d="m84.238 387.53c-30.75 1.8906-51.81 7.8516-52.155 16.131-0.50366 12.091 43.352 24.563 97.892 27.831 50.279 3.0129 92.168-2.8428 98.801-13.248-2.8907-0.57523-5.7664-1.1686-8.6334-1.775-37.276-7.9417-73.174-21.966-111.08-26.837-8.2414-0.88146-16.523-1.5975-24.821-2.1016zm78.567 3.1239c19.334 5.3895 39.295 11.326 59.397 15.818-10.809-6.4198-32.479-12.217-59.397-15.818z" fill="url(#radialGradient2433)"/>
  <path id="path3204" d="m196.79 322.68 0.92216 71.329" fill="none" stroke="#f8ec70" stroke-width="1.8176"/>
 </g>
</svg>
