<?xml version="1.0" encoding="UTF-8"?>
<!-- Generator: Adobe Illustrator 13.0.0, SVG Export Plug-In . SVG Version: 6.00 Build 14948)  -->
<svg id="Layer_1" width="374.57" height="288.26" enable-background="new 0 0 440 370" version="1.1" viewBox="0 0 374.57 288.26" xml:space="preserve" xmlns="http://www.w3.org/2000/svg" xmlns:cc="http://creativecommons.org/ns#" xmlns:dc="http://purl.org/dc/elements/1.1/" xmlns:rdf="http://www.w3.org/1999/02/22-rdf-syntax-ns#" xmlns:xlink="http://www.w3.org/1999/xlink"><metadata id="metadata119"><rdf:RDF><cc:Work rdf:about=""><dc:format>image/svg+xml</dc:format><dc:type rdf:resource="http://purl.org/dc/dcmitype/StillImage"/></cc:Work></rdf:RDF></metadata><defs id="defs117"><radialGradient id="radialGradient3026" cx="-464.92" cy="873.19" r="255.59" gradientTransform="translate(614.4 -728.4)" gradientUnits="userSpaceOnUse"><stop id="stop48" stop-color="#fed51f" offset=".5"/><stop id="stop50" offset="1"/></radialGradient></defs>
<g id="g2983" transform="translate(-11.762 -69.935)"><g id="g5">
		<g id="g7">
			<path id="path9" d="m266.02 314.16s-30.965 16.684-78.454 33.213c-28.683 10-79.628-6.867-106.15-13.891-26.563-7.049-72.459-21.629-59.724-34.364 12.736-12.732 49.354-39.888 49.354-39.888s-34.865 57.573 194.98 54.93z" fill="#fff" stroke="#ccc" stroke-width="15.477"/>
			<g id="g11">
				<path id="path13" d="m54.069 272.29c0 24.282 72.646 43.974 162.27 43.974 89.617 0 162.25-19.689 162.25-43.974-18.691-13.548-15.986-24.954-15.986-24.954h-293.31c0.01 0 2.605 11.406-15.23 24.954z" fill="#fff" stroke="#ccc" stroke-width="15.477"/>
			</g>
			<g id="g15">
				<g id="g17">
					<path id="path19" d="m344.76 160.41c-3.628-8.278-17.685-36.869-46.261-56.996-51.803-36.532-116.04-29.563-153.81-7.634-25.523 14.848-43.106 33.982-57.037 62.074-3.4 6.862-9.738 21.504-14.082 42.451-3.759 18.168-4.121 29.625-4.726 48.653 0.03 15.899 30.204 30.239 82.196 37.222 72.762 9.744 160.7 1.28 196.39-18.902 10.213-5.772 15.034-11.914 15.014-17.896-0.753-24.585-1.662-52.437-17.687-88.972z" fill="#fff"/>
				</g>
				<g id="g21">
					<path id="path23" d="m344.76 160.41c-3.628-8.278-17.685-36.869-46.261-56.996-51.803-36.532-116.04-29.563-153.81-7.634-25.523 14.848-43.106 33.982-57.037 62.074-3.4 6.862-9.738 21.504-14.082 42.451-3.759 18.168-4.121 29.625-4.726 48.653 0.03 15.899 30.204 30.239 82.196 37.222 72.762 9.744 160.7 1.28 196.39-18.902 10.213-5.772 15.034-11.914 15.014-17.896-0.753-24.585-1.662-52.437-17.687-88.972z" fill="none" stroke="#ccc" stroke-width="15.477"/>
				</g>
			</g>
		</g>
		<g id="g25">
			<path id="path27" d="m267.24 313.43s-30.974 16.656-78.453 33.211c-28.673 9.98-79.612-6.867-106.14-13.916-26.562-7.023-72.464-21.604-59.728-34.365 12.735-12.73 49.334-39.871 49.334-39.871s-34.849 57.576 194.99 54.941z" fill="#ffd520" stroke="#000" stroke-width="5.1591"/>
			<g id="g29">
				<path id="path31" d="m55.292 271.56c0 24.284 72.624 43.959 162.26 43.959 89.613 0 162.26-19.67 162.26-43.959-18.702-13.548-15.979-24.953-15.979-24.953h-293.32c0.011 0 2.601 11.406-15.22 24.953z" stroke="#000" stroke-width="5.1591"/>
			</g>
			<g id="g33">
				<g id="g35">
					<path id="path37" d="m345.99 159.67c-3.628-8.272-17.692-36.851-46.26-56.997-51.798-36.531-116.03-29.554-153.81-7.628-25.539 14.849-43.112 33.981-57.032 62.05-3.406 6.862-9.759 21.504-14.082 42.462-3.748 18.156-4.115 29.623-4.729 48.627 0.021 15.9 30.219 30.264 82.218 37.223 72.76 9.769 160.69 1.279 196.37-18.903 10.213-5.772 15.044-11.892 15.022-17.896-0.78-24.546-1.692-52.402-17.698-88.938z" fill="#ffd520"/>
				</g>
				<g id="g39">
					<path id="path41" d="m345.99 159.67c-3.628-8.272-17.692-36.851-46.26-56.997-51.798-36.531-116.03-29.554-153.81-7.628-25.539 14.849-43.112 33.981-57.032 62.05-3.406 6.862-9.759 21.504-14.082 42.462-3.748 18.156-4.115 29.623-4.729 48.627 0.021 15.9 30.219 30.264 82.218 37.223 72.76 9.769 160.69 1.279 196.37-18.903 10.213-5.772 15.044-11.892 15.022-17.896-0.78-24.546-1.692-52.402-17.698-88.938z" fill="none" stroke="#000" stroke-width="5.1591"/>
				</g>
			</g>
			<g id="g43">
				<g id="g45">
					
						
					<path id="path52" d="m345.99 159.67c-3.628-8.272-17.692-36.851-46.26-56.997-51.798-36.531-116.03-29.554-153.81-7.628-25.539 14.849-43.112 33.981-57.032 62.05-3.406 6.862-9.759 21.504-14.082 42.462-3.748 18.156-4.115 29.623-4.729 48.627 0.021 15.9 30.219 30.264 82.218 37.223 72.76 9.769 160.69 1.279 196.37-18.903 10.213-5.772 15.044-11.892 15.022-17.896-0.78-24.546-1.692-52.402-17.698-88.938z" fill="url(#radialGradient3026)"/>
				</g>
			</g>
		</g>
		<g id="g54">
			<g id="g56">
				<g id="g58">
					<path id="path60" d="m292.97 97.194c-108.97-69.487-219.57 73.224-216.11 164.86l-10.137 4.09c5e-3 -99.891 108.25-247.13 226.24-168.95" fill="#ccc"/>
				</g>
				<polygon id="polygon62" points="66.729 266.15 76.865 262.06 61.197 281.15" fill="#ccc"/>
			</g>
			<path id="path64" d="m109.11 280.45v0c-5e-3 -90.409 53.949-231.27 151.65-199.29-104.77-35.459-194.01 94.259-194.01 184.97l-5.532 15.003 42.381 14.294 5.512-14.974v0z" stroke="#000" stroke-linecap="round" stroke-linejoin="round" stroke-width="5.1591"/>
			<g id="g66">
				<g id="g68">
					<path id="path70" d="m109.1 280.45-5.526 15.004 24.849-17.417c-3.478-91.662 55.564-250.32 164.55-180.86-118-78.152-183.87 83.371-183.87 183.28z" fill="#ccc"/>
				</g>
				<g id="g72">
					<path id="path74" d="m109.1 280.45v0 0l-5.526 15.004 24.849-17.417c-3.478-91.662 55.564-250.32 164.55-180.86-118-78.152-183.87 83.371-183.87 183.28z" fill="none" stroke="#000" stroke-linecap="round" stroke-linejoin="round" stroke-width="5.1591"/>
				</g>
			</g>
		</g>
	</g><g id="g76">
		<polygon id="polygon78" points="253.03 251.64 254.68 222.57 265.49 233.41 267.24 277.31" fill="#999" stroke="#000" stroke-linecap="round" stroke-linejoin="round" stroke-width="5.1591"/>
		<polygon id="polygon80" points="320.7 241.3 322.32 217.4 327.99 223.07 329.73 266.98"/>
		<path id="path82" d="m267.24 277.31s59.485-7.377 62.469-10.358c2.992-2.957-1.732-43.901-1.732-43.901l-62.493 10.332 1.756 43.927z" stroke="#000" stroke-linecap="round" stroke-linejoin="round" stroke-width="5.1591"/>
		<polygon id="polygon84" points="265.49 233.41 327.99 223.07 317.16 212.24 254.68 222.57" fill="#ccc" stroke="#000" stroke-linecap="round" stroke-linejoin="round" stroke-width="5.1591"/>
	</g></g>
</svg>
