<?xml version="1.0" encoding="UTF-8"?>
<!-- Created with Sodipodi ("http://www.sodipodi.com/") -->
<svg id="svg548" width="437.5" height="327.5" version="1.1" xmlns="http://www.w3.org/2000/svg" xmlns:cc="http://creativecommons.org/ns#" xmlns:dc="http://purl.org/dc/elements/1.1/" xmlns:rdf="http://www.w3.org/1999/02/22-rdf-syntax-ns#">
 <g id="g904" transform="translate(-37.5,-83.75)">
  <path id="path597" transform="translate(8.75,30)" d="m33.75 58.75h425l2.5 317.5h-426.25l-1.25-317.5z" fill="#797b90" fill-rule="evenodd" stroke="#000" stroke-linejoin="round" stroke-width="10"/>
  <path id="path598" transform="translate(6.25,25)" d="m210 76.25 232.5 1.25v58.75h-232.5v-60z" fill="#acb0b4" fill-rule="evenodd" stroke="#000" stroke-linejoin="round" stroke-width="10"/>
  <path id="path599" transform="translate(6.25,25)" d="m220 85h213.75v42.5h-213.75v-42.5z" fill="#acc5b4" fill-rule="evenodd" stroke="#000" stroke-linejoin="round" stroke-width="10"/>
  <path id="path600" transform="matrix(1 0 0 .85185 25 63.102)" d="m53.75 147.5h35v33.75h-35v-33.75z" fill="#a8a8a8" fill-rule="evenodd" stroke="#000" stroke-linejoin="round" stroke-width="10.835"/>
  <path id="path601" transform="matrix(1 0 0 .85185 76.25 63.102)" d="m53.75 147.5h35v33.75h-35v-33.75z" fill="#a8a8a8" fill-rule="evenodd" stroke="#000" stroke-linejoin="round" stroke-width="10.835"/>
  <path id="path602" transform="matrix(1 0 0 .85185 127.5 64.352)" d="m53.75 147.5h35v33.75h-35v-33.75z" fill="#a8a8a8" fill-rule="evenodd" stroke="#000" stroke-linejoin="round" stroke-width="10.835"/>
  <path id="path603" transform="matrix(1 0 0 .85185 183.75 64.352)" d="m53.75 147.5h35v33.75h-35v-33.75z" fill="#a8a8a8" fill-rule="evenodd" stroke="#000" stroke-linejoin="round" stroke-width="10.835"/>
  <path id="path604" transform="matrix(1 0 0 .85185 237.5 63.102)" d="m53.75 147.5h35v33.75h-35v-33.75z" fill="#a8a8a8" fill-rule="evenodd" stroke="#000" stroke-linejoin="round" stroke-width="10.835"/>
  <path id="path605" transform="matrix(1 0 0 .85185 291.25 64.352)" d="m53.75 147.5h35v33.75h-35v-33.75z" fill="#a8a8a8" fill-rule="evenodd" stroke="#000" stroke-linejoin="round" stroke-width="10.835"/>
  <path id="path606" transform="matrix(1 0 0 .85185 343.75 63.102)" d="m53.75 147.5h35v33.75h-35v-33.75z" fill="#a8a8a8" fill-rule="evenodd" stroke="#000" stroke-linejoin="round" stroke-width="10.835"/>
  <path id="path607" transform="matrix(1 0 0 .85185 25 116.85)" d="m53.75 147.5h35v33.75h-35v-33.75z" fill="#a8a8a8" fill-rule="evenodd" stroke="#000" stroke-linejoin="round" stroke-width="10.835"/>
  <path id="path608" transform="matrix(1 0 0 .85185 76.25 116.85)" d="m53.75 147.5h35v33.75h-35v-33.75z" fill="#a8a8a8" fill-rule="evenodd" stroke="#000" stroke-linejoin="round" stroke-width="10.835"/>
  <path id="path609" transform="matrix(1 0 0 .85185 127.5 118.1)" d="m53.75 147.5h35v33.75h-35v-33.75z" fill="#a8a8a8" fill-rule="evenodd" stroke="#000" stroke-linejoin="round" stroke-width="10.835"/>
  <path id="path610" transform="matrix(1 0 0 .85185 183.75 118.1)" d="m53.75 147.5h35v33.75h-35v-33.75z" fill="#a8a8a8" fill-rule="evenodd" stroke="#000" stroke-linejoin="round" stroke-width="10.835"/>
  <path id="path611" transform="matrix(1 0 0 .85185 237.5 116.85)" d="m53.75 147.5h35v33.75h-35v-33.75z" fill="#a8a8a8" fill-rule="evenodd" stroke="#000" stroke-linejoin="round" stroke-width="10.835"/>
  <path id="path612" transform="matrix(1 0 0 .85185 291.25 118.1)" d="m53.75 147.5h35v33.75h-35v-33.75z" fill="#a8a8a8" fill-rule="evenodd" stroke="#000" stroke-linejoin="round" stroke-width="10.835"/>
  <path id="path613" transform="matrix(1 0 0 .85185 343.75 116.85)" d="m53.75 147.5h35v33.75h-35v-33.75z" fill="#a8a8a8" fill-rule="evenodd" stroke="#000" stroke-linejoin="round" stroke-width="10.835"/>
  <path id="path614" transform="matrix(1 0 0 .85185 25 170.6)" d="m53.75 147.5h35v33.75h-35v-33.75z" fill="#a8a8a8" fill-rule="evenodd" stroke="#000" stroke-linejoin="round" stroke-width="10.835"/>
  <path id="path615" transform="matrix(1 0 0 .85185 76.25 170.6)" d="m53.75 147.5h35v33.75h-35v-33.75z" fill="#a8a8a8" fill-rule="evenodd" stroke="#000" stroke-linejoin="round" stroke-width="10.835"/>
  <path id="path616" transform="matrix(1 0 0 .85185 127.5 171.85)" d="m53.75 147.5h35v33.75h-35v-33.75z" fill="#a8a8a8" fill-rule="evenodd" stroke="#000" stroke-linejoin="round" stroke-width="10.835"/>
  <path id="path617" transform="matrix(1 0 0 .85185 183.75 171.85)" d="m53.75 147.5h35v33.75h-35v-33.75z" fill="#a8a8a8" fill-rule="evenodd" stroke="#000" stroke-linejoin="round" stroke-width="10.835"/>
  <path id="path618" transform="matrix(1 0 0 .85185 237.5 170.6)" d="m53.75 147.5h35v33.75h-35v-33.75z" fill="#a8a8a8" fill-rule="evenodd" stroke="#000" stroke-linejoin="round" stroke-width="10.835"/>
  <path id="path619" transform="matrix(1 0 0 .85185 291.25 171.85)" d="m53.75 147.5h35v33.75h-35v-33.75z" fill="#a8a8a8" fill-rule="evenodd" stroke="#000" stroke-linejoin="round" stroke-width="10.835"/>
  <path id="path620" transform="matrix(1 0 0 .85185 343.75 170.6)" d="m53.75 147.5h35v33.75h-35v-33.75z" fill="#a8a8a8" fill-rule="evenodd" stroke="#000" stroke-linejoin="round" stroke-width="10.835"/>
  <path id="path621" transform="matrix(1 0 0 .85185 25 221.85)" d="m53.75 147.5h35v33.75h-35v-33.75z" fill="#a8a8a8" fill-rule="evenodd" stroke="#000" stroke-linejoin="round" stroke-width="10.835"/>
  <path id="path622" transform="matrix(1 0 0 .85185 76.25 221.85)" d="m53.75 147.5h35v33.75h-35v-33.75z" fill="#a8a8a8" fill-rule="evenodd" stroke="#000" stroke-linejoin="round" stroke-width="10.835"/>
  <path id="path623" transform="matrix(1 0 0 .85185 127.5 223.1)" d="m53.75 147.5h35v33.75h-35v-33.75z" fill="#a8a8a8" fill-rule="evenodd" stroke="#000" stroke-linejoin="round" stroke-width="10.835"/>
  <path id="path624" transform="matrix(1 0 0 .85185 183.75 223.1)" d="m53.75 147.5h35v33.75h-35v-33.75z" fill="#a8a8a8" fill-rule="evenodd" stroke="#000" stroke-linejoin="round" stroke-width="10.835"/>
  <path id="path625" transform="matrix(1 0 0 .85185 237.5 221.85)" d="m53.75 147.5h35v33.75h-35v-33.75z" fill="#a8a8a8" fill-rule="evenodd" stroke="#000" stroke-linejoin="round" stroke-width="10.835"/>
  <path id="path626" transform="matrix(1 0 0 .85185 291.25 223.1)" d="m53.75 147.5h35v33.75h-35v-33.75z" fill="#a8a8a8" fill-rule="evenodd" stroke="#000" stroke-linejoin="round" stroke-width="10.835"/>
  <path id="path627" transform="matrix(1 0 0 .85185 343.75 221.85)" d="m53.75 147.5h35v33.75h-35v-33.75z" fill="#a8a8a8" fill-rule="evenodd" stroke="#000" stroke-linejoin="round" stroke-width="10.835"/>
  <path id="path628" d="M 423.75,116.25 425,140" fill="none" stroke="#000" stroke-linejoin="round" stroke-width="10"/>
  <path id="path629" d="m407.5 126.25h-15v-10h16.25l1.25 23.75" fill="none" stroke="#000" stroke-linejoin="round" stroke-width="10"/>
  <path id="path630" d="m385 137.5h5" fill="none" stroke="#000" stroke-linejoin="round" stroke-width="10"/>
  <path id="path631" d="m353.75 117.5h17.5v10h-15s1.25 12.5 0 12.5h16.25" fill="none" stroke="#000" stroke-linejoin="round" stroke-width="10"/>
  <path id="path632" d="m317.5 116.25v12.5l18.75 1.25v13.75" fill="none" stroke="#000" stroke-linejoin="round" stroke-width="10"/>
  <path id="path633" d="m61.25 112.5 77.5 1.25" fill="none" stroke="#fff" stroke-linejoin="round" stroke-width="12.5"/>
  <path id="path634" d="m58.75 133.75 78.75 1.25" fill="none" stroke="#fff" stroke-linejoin="round" stroke-width="12.5"/>
  <path id="path701" d="m53.183 274.7c1.5823-6.3291-11.076-148.73 4.7468-177.22 28.481-3.1646 128.16-1.5823 151.9 3.1645-53.797 3.1646-151.9-41.139-156.65 174.05z" fill="#fff" fill-opacity=".5" fill-rule="evenodd" stroke-width="1pt"/>
 </g>
 <metadata id="metadata47">
  <rdf:RDF>
   <cc:Work rdf:about="">
    <dc:title>Clipart by Nicu Buculei - book_01</dc:title>
    <dc:rights>
     <cc:Agent>
      <dc:title>Nicu Buculei</dc:title>
     </cc:Agent>
    </dc:rights>
    <dc:type rdf:resource="http://purl.org/dc/dcmitype/StillImage"/>
    <cc:license rdf:resource="http://web.resource.org/cc/PublicDomain"/>
    <dc:format>image/svg+xml</dc:format>
   </cc:Work>
   <cc:License rdf:about="http://web.resource.org/cc/PublicDomain">
    <cc:permits rdf:resource="http://web.resource.org/cc/Reproduction"/>
    <cc:permits rdf:resource="http://web.resource.org/cc/Distribution"/>
    <cc:permits rdf:resource="http://web.resource.org/cc/DerivativeWorks"/>
   </cc:License>
  </rdf:RDF>
 </metadata>
</svg>
