<?xml version="1.0" encoding="UTF-8"?>
<!-- Created with Inkscape (http://www.inkscape.org/) -->
<svg id="svg2" width="94.398" height="56.438" version="1.1" xmlns="http://www.w3.org/2000/svg" xmlns:cc="http://creativecommons.org/ns#" xmlns:dc="http://purl.org/dc/elements/1.1/" xmlns:rdf="http://www.w3.org/1999/02/22-rdf-syntax-ns#" xmlns:xlink="http://www.w3.org/1999/xlink">
 <defs id="defs3">
  <linearGradient id="linearGradient4577">
   <stop id="stop4579" stop-color="#858585" offset="0"/>
   <stop id="stop4583" stop-color="#e8e8e8" offset=".5"/>
   <stop id="stop4581" stop-color="#858585" offset="1"/>
  </linearGradient>
  <linearGradient id="linearGradient4559">
   <stop id="stop4561" offset="0"/>
   <stop id="stop4563" stop-color="#404040" offset="1"/>
  </linearGradient>
  <linearGradient id="linearGradient4501">
   <stop id="stop4503" stop-color="#858585" offset="0"/>
   <stop id="stop4505" stop-color="#e8eded" offset="1"/>
  </linearGradient>
  <linearGradient id="linearGradient2080" x1="68.399" x2="61.441" y1="34.281" y2="41.813" gradientTransform="scale(1.0177 .98257)" gradientUnits="userSpaceOnUse" xlink:href="#linearGradient4559"/>
  <linearGradient id="linearGradient2083" x1="62.742" x2="48.892" y1="76.062" y2="88.237" gradientTransform="scale(1.1737 .852)" gradientUnits="userSpaceOnUse" xlink:href="#linearGradient4559"/>
  <linearGradient id="linearGradient2086" x1="34.761" x2="30.641" y1="46.421" y2="53.586" gradientTransform="matrix(1.3683 0 0 .73084 -2.6059 .4886)" gradientUnits="userSpaceOnUse" xlink:href="#linearGradient4501"/>
  <linearGradient id="linearGradient2089" x1="57.665" x2="65.887" y1="59.88" y2="77.847" gradientTransform="scale(.97442 1.0262)" gradientUnits="userSpaceOnUse" xlink:href="#linearGradient4577"/>
  <linearGradient id="linearGradient2092" x1="64.37" x2="84.034" y1="54.032" y2="69.773" gradientTransform="scale(.98484 1.0154)" gradientUnits="userSpaceOnUse" xlink:href="#linearGradient4577"/>
  <linearGradient id="linearGradient2095" x1="41.567" x2="91.667" y1="77.066" y2="31.55" gradientTransform="scale(1.1087 .90192)" gradientUnits="userSpaceOnUse" xlink:href="#linearGradient4501"/>
  <linearGradient id="linearGradient2098" x1="11.688" x2="46.301" y1="99.943" y2="59.377" gradientTransform="scale(1.3533 .73892)" gradientUnits="userSpaceOnUse" xlink:href="#linearGradient4501"/>
  <linearGradient id="linearGradient2101" x1="65.452" x2="7.2544" y1="41.102" y2="94.414" gradientTransform="scale(1.3395 .74657)" gradientUnits="userSpaceOnUse" xlink:href="#linearGradient4501"/>
  <linearGradient id="linearGradient2109" x1="-.4536" x2="28.579" y1="37.466" y2="38.967" gradientTransform="scale(.62994 1.5874)" gradientUnits="userSpaceOnUse">
   <stop id="stop2105" offset="0"/>
   <stop id="stop2107" stop-opacity="0" offset="1"/>
  </linearGradient>
 </defs>
 <metadata id="metadata4">
  <rdf:RDF>
   <cc:Work rdf:about="">
    <dc:format>image/svg+xml</dc:format>
    <dc:type rdf:resource="http://purl.org/dc/dcmitype/StillImage"/>
   </cc:Work>
  </rdf:RDF>
 </metadata>
 <g id="layer1" transform="translate(-3.3934 -25.881)">
  <g id="g2111">
   <path id="path4496" d="m8.9527 30.405s6.25-3.0405 11.655-3.5473c6.7568 0.50676 50.507 2.5338 51.689 2.3649 1.1824-0.16892 18.581 0.50676 19.257 1.5203 4.8986 2.5338 3.8851 7.6014 4.7297 14.527 0.84459 6.9257 1.1824 18.75-2.3649 23.986s-3.0405 5.5743-4.3919 6.5878c0.8446-4.5608 0.67567-19.088 0.67567-22.973 0-3.8851 3.3784-16.892-3.7162-18.581-7.0946-1.6892-30.236-1.6892-35.811-2.027-5.5743-0.33784-21.284-0.50676-26.689-1.0135-5.4054-0.50676-10.304-1.0135-15.034-0.8446z" fill="url(#linearGradient2101)" fill-rule="evenodd"/>
   <path id="path3736" d="m8.277 31.081s35.642 0.67568 37.5 0.8446 33.446 1.0135 36.824 1.3514c3.3784 0.33784 7.2635 2.3649 7.6014 4.8986s-1.0135 35.642-1.3514 36.993c-0.33784 1.3514-1.8581 2.7027-2.5338 2.7027-0.67568 0-32.939 0-35.642-0.16892-2.7027-0.16892-31.926-2.7027-35.98-4.5608-4.7297 1.3514-9.7973-12.838-10.135-20.777 0.84459-7.6014-1.5203-18.919 3.7162-21.284z" fill="url(#linearGradient2098)" fill-rule="evenodd"/>
   <path id="path4509" d="m54.561 61.824s-2.1959-5.2365-1.0135-7.4324c1.1824-2.1959 4.7297-6.4189 8.1081-8.277 7.4324-2.1959 18.75 1.1824 21.791 4.223 3.0405 3.0405 6.25 10.473 4.223 16.047s-3.3784 8.277-7.0946 7.4324c-3.7162-0.8446-23.986-5.5743-26.014-11.993z" fill="url(#linearGradient2095)" fill-rule="evenodd"/>
   <path id="path4519" d="m57.264 57.601c1.6892-1.0135 3.2095-9.1216 11.149-7.7703s14.358 4.8986 15.034 9.4595c0.67568 4.5608 1.0135 9.7973-0.33784 11.486-4.5608 2.3649-1.1824 1.0135-3.2095 3.2095-2.027 2.1959-3.2095 1.5203-4.3919 3.2095-1.1824 1.6892-19.257-13.514-18.243-19.595z" fill="url(#linearGradient2092)" fill-rule="evenodd"/>
   <path id="path4529" d="m57.939 57.939s6.9257-2.1959 11.486 0.67568c4.5608 2.8716 6.4189 6.5878 7.2635 10.811 0.8446 4.223 0.50676 8.6149-2.1959 9.7973-2.7027 1.1824-8.4459 4.3919-12.331 2.3649s-8.277-4.223-8.6149-7.7703c-0.33784-3.5473-1.3514-13.176 4.3919-15.878z" fill="url(#linearGradient2089)" fill-rule="evenodd"/>
   <path id="path4547" d="m26.448 33.597s15.709 0.33784 17.568 2.3649 0.50676 6.7568-0.16892 8.1081c-7.0946-0.67568-13.176-0.33784-17.399-1.3514-0.50676-1.3514-2.1959-6.25 0-9.1216z" fill="url(#linearGradient2086)" fill-rule="evenodd"/>
   <path id="path4557" d="m70.439 64.358s2.027 6.7568 1.5203 8.9527c-0.50676 2.1959-8.7838 1.1824-12.669 1.3514-1.5203-0.84459-3.3784-10.473-1.3514-10.642s6.9257-0.33784 12.5 0.33784z" fill="url(#linearGradient2083)" fill-rule="evenodd"/>
   <path id="path4567" d="m66.554 36.824s0.11714 6.1592-3.3266 7.7185c-1.6892 1.0135-4.6126 1.2342-6.3018-0.62389-1.6892-1.8581-2.3649-9.7973 4.0541-8.9527 6.4189 0.8446 3.5473-0.50676 5.5743 1.8581z" fill="url(#linearGradient2080)" fill-rule="evenodd"/>
   <path id="path1318" d="m21.661 31.433s-13.518-1.6287-14.007-0.4886c-2.9316 2.2801-3.4202 12.215-3.2573 14.821 0.16287 5.0489 3.5831 21.987 5.3746 24.267 1.7915 2.2801 9.9349 4.2345 11.075 4.0717-2.7687-5.3746-13.844-38.762 0.81433-42.671z" fill="url(#linearGradient2109)" fill-rule="evenodd"/>
   <path id="path2835" d="m22.594 25.938c-4.7494 0.39651-9.9195 2.6203-13.969 3.7812-0.1942 0.15808-0.19075 0.22587-0.3125 0.34375-0.017263 0.01671-0.046618 0.0153-0.0625 0.03125-0.17998 0.13054-0.35149 0.2444-0.53125 0.375-0.3057 0.13015-0.77428 0.49535-1.25 0.90625-0.052354 0.03804-0.072667 0.08684-0.125 0.125-1.1298 1.0208-2.3244 2.5634-2.0625 4.0312-0.46597 4.6669-1.1539 9.3805-0.78125 14.062 0.18023 4.8574 1.0472 8.6288 2.125 12.844 0.85157 3.8956 1.4202 9.1433 5.7812 10.688 5.3454 1.5908 11.019 1.782 16.5 2.7188 8.1355 1.3968 18.732 2.0816 27.094 2.3125 1.4314 1.8302 3.4324 3.1973 5.75 3.6875 4.4907 1.0385 9.4448 0.38176 13.406-2.0312 0.87155-0.3735 1.4874-0.94421 1.9688-1.625 3.6399-0.07232 10.848 1.1096 13.25-1.9688-0.02648 0.41084 0.50946 0.18654 1.9375-1.0312 5.9164-8.1259 7.3013-18.732 6.0625-28.531-1.3703-5.3266 1.0479-12.757-4.4062-16.156-7.3929-2.773-15.742-1.8986-23.562-2.0625-13.738-0.80398-28.205-0.66796-42.25-2.1562-1.4357-0.38155-2.9794-0.47592-4.5625-0.34375zm-1.2188 1.375c5.1857-0.17611 10.392 0.67247 15.625 1 13.641 0.67396 26.88 1.1812 40.312 1.5938 5.4696 1.1119 13.279-0.95796 16.406 4.9688 1.1281 10.052 3.3275 20.526 0.40625 30.5 0.24768 2.3697-3.2714 7.6754-4.25 9.8438 1.9242-4.2435 1.3655-9.1714 1.3438-13.719-0.16639-4.7762 0.21318-9.5566 0.03125-14.344-0.34307-3.9401 0.92972-8.2998-0.9375-11.938-2.6545-2.5056-6.5846-3.2948-10.156-3.1875-8.133 0.6606-16.114-0.32684-24.469-0.25-6.7376-0.53184-13.47-0.87317-20.219-1.25-8.3876 0.1922-16.772-0.37236-25.156-0.4375 2.3163-0.8259 5.4265-2.1761 5.875-2.2188 1.7285-0.33624 3.4589-0.5038 5.1875-0.5625zm-13.781 4.1562c4.7357-0.19341 9.4913 0.06886 14.219 0.34375 7.8944 0.1865 15.819-0.04328 23.688 0.78125 6.2492-0.05805 12.343 0.76676 18.594 0.65625 5.9348 0.49936 11.83-0.19295 17.75 0.40625 2.736 0.6534 6.5677 1.3936 7.125 4.6875 0.33302 5.7982 0.12632 11.628 0.15625 17.438-0.0649 0.62424 0.02671 1.2491 0 1.875-0.40369-2.141-1.1077-4.2282-2.375-6.0312-2.8397-3.115-6.7269-5.3085-10.812-6.3438-4.4646-1.4834-9.3499-1.124-13.781 0.28125-3.5276 1.7064-6.4834 4.5586-8.75 7.7188-1.3275 1.5207-0.1165 7.2214 0.125 8.3125-0.36565 0.6416-0.61307 1.2982-0.65625 1.9375-0.47953 2.5962-0.26884 5.2718-0.25 7.9062 0.0083 1.8726 0.63268 3.686 1.5625 5.3125-14.793-0.28882-25.294-1.7548-39.938-4.7188-4.0162-0.80186-5.4262-5.1837-6.0312-8.7188-1.102-3.8123-2.2062-7.2697-2.6515-11.299-0.33615-3.6278 0.031902-7.3813 0.21397-10.919 0.56814-3.1947 0.059873-6.7818 1.8125-9.625zm18.629 2.0875c-0.58357 0.51287-1.2246 0.04707-1.7349 0.64452 0.32439-0.04902 0.53675 0.54106 0.85993 0.51284-0.87294 0.88445-1.1699 2.8349-0.92243 3.7997-0.03725 1.6718-0.27731 3.94 1.5312 4.8125 3.6522 0.74546 7.4289 0.09564 11.125 0.46875 2.296 0.01464 4.5228 1.3121 6.8125 0.75 0.0058 0.0066-0.0059 0.02478 0 0.03125 1.0133 0.0183 1.1934-0.36161 1.0625-0.75 0.92911-1.1007 0.82177-2.9403 0.5625-4.2812-0.66667-1.1848 1.7768-2.9412 0.46875-3.4062-2.1571 0.94388 1.7875-0.66574-0.21875-1.25-6.5722 0.30666-12.957-2.1376-19.546-1.332zm-8.0041-0.056215c-1.6116 0.48706-3.1208 1.3241-3.9688 2.8438-1.9351 3.7294-1.5046 8.1702-1.1875 12.219 0.8504 4.0974 1.1701 8.3004 2.2812 12.344 1.0848 2.2403 1.0239 5.8099 3.125 6.9062 3.0493-1.5681-1.0709-5.4225-1-8.0312-0.98824-4.7033-2.0104-9.4265-2.4688-14.219-0.010337-4.1368-0.49714-9.2606 3.2188-12.062zm10.128 1.1198c3.7201 0.23272 7.2614 0.84826 10.954 1.3309 2.1013 0.02198 4.7933-0.03947 4.8438 1.625 0.18771 1.1246-0.65573 3.6846-0.65625 5.4688-0.19696 0.0074-0.39847-0.02749-0.59375 0.0625-3.2552-0.72415-6.5799-0.92316-9.9062-0.875-1.985-0.13906-4.6722 0.71938-6.0312-1.1875-0.8109-1.8617-1.1948-3.4915-0.39007-6.5798 0.5192-8e-3 1.1545 0.12281 1.7801 0.15514zm33.747-0.52608c-0.86919 0.02393-1.7499 0.21952-2.5625 0.46875-1.6339 0.63066-3.2979 1.3067-4.5625 2.5625-1.9161 2.265-1.0774 6.11 1.5 7.5 2.0165 1.1862 4.5906 1.1983 6.6875 0.21875 1.2785-0.70257 2.8354-1.1738 3.625-2.5 0.68641-1.6802 0.81196-3.5322 0.53125-5.3125-0.17052-0.46633 0.04795-1.3086-0.59375-1.4375-0.32015 0.024328-0.57213 0.24948-0.84375 0.40625-0.22743-0.58806-0.7417-1.0043-1.25-1.3438-0.77579-0.43684-1.6621-0.58643-2.5312-0.5625zm-1.2812 1.4062c1.3429 0.05088 3.6072 1.9796 3.8125 1.875 0.06148-0.03679 0.14613-0.06376 0.21875-0.09375 0.40909 1.6065 0.494 3.2928 0.125 4.9062-0.01418 0.61798-0.42104 1.1138-0.8125 1.5625-0.07747 0.07368-0.03587 0.05201-0.0625 0.09375-1.3507 0.2517-2.7444 0.41127-4.0938 0.09375-1.6193-0.36713-3.0857-1.5142-3.5938-3.125-0.56307-1.5704-0.25214-3.5094 0.96875-4.6875 0.07026-0.0095 0.12089 0.02349 0.1875 0 1.0606-0.30063 2.1305-0.69602 3.25-0.625zm5.9062 10.219c5.3835-0.10305 10.849 1.5557 15.219 4.7188 3.6995 2.227 5.0695 6.552 5.3438 10.625 0.1977 4.0816-0.52365 8.3072-3.6562 11.281 1.5423-0.17748-1.185 0.07868-3.0938 0.6875 0.13008-0.18084 0.27424-0.35186 0.40625-0.53125 2.2806-0.27827 3.4957-2.6499 3.75-4.7188 0.46254-3.4489 0.092188-7.0145-1.0938-10.281-1.4603-2.7594-3.9243-4.8545-6.3438-6.75-2.2714-1.5039-5.077-1.9005-7.75-1.7812-3.0129-0.07919-6.487 0.21938-8.5938 2.6562-1.3703 1.8964-2.4165 4.0407-4.2188 5.5938-0.72865 0.70903-1.2408 1.8546-1.8438 2.7188-0.01008 0.01069-0.0212 0.02051-0.03125 0.03125 0.58191-3.4928-0.413-8.1336 3.0625-10.406 0.62149-0.79584 4.7063-3.8244 3.4062-3.0938-0.10812 0.77031 3.9194-0.76413 5.4375-0.75zm2.0312 4.6875c2.6324 0.03322 5.3082 0.70717 7.375 2.4062 1.9843 1.5283 3.7762 3.3682 5.0938 5.5 1.3559 2.7657 1.4731 5.9464 1.4688 8.9688-0.0786 1.1595-0.40062 2.2959-0.84375 3.375l-1.625 0.75c-0.82778 0.98742-1.907 2.5185-2.9062 3.25 0.16068-0.94627 0.37486-1.8983 0.46875-2.7812 0.63856-4.22-1.4292-8.2161-4-11.406-1.6363-2.4294-4.5725-2.8669-7.25-3.125-2.5799-0.90479-5.2951-0.70126-7.9688-0.46875 0.41663-0.53778 0.82244-1.0951 1.2812-1.5312 0.949-1.0279 1.8184-2.2043 2.2188-3.5625-1.263 0.71991 0.67094-0.84312 1.1562-0.96875 1.7624-0.4818 3.695-0.36179 5.5312-0.40625zm-8.3438 7.6562c3.3409 0.60368 7.0763 0.51473 10 2.375 2.7309 2.5579 4.9236 6.0525 5.2812 9.8438-0.08675 2.9618 0.07553 5.548-1.5938 8.125 0.64989 0.37885-0.94564 1.2075-2.0312 1.6875-4.7478 1.2519-10.676 1.3726-14.312-2.4688-2.8759-2.6976-3.1001-6.8482-2.9688-10.531-0.31383-3.058 0.43646-6.2445 2.5-8.5938-0.54537 0.32543 0.18061-0.15607 0.3125-0.25 0.76327 0.0727 2.1505-0.10643 2.8125-0.1875zm-1.1875 4.7188-0.1875 0.125c-0.52739 0.07573-1.0524 0.23435-1.5625 0.53125-0.06656 0.10788-0.12534 0.22029-0.125 0.3125l-0.375 0.1875c-0.37807 0.87818-0.65497 1.8705-0.8125 2.8438-0.36489 1.1874-0.26576 2.3373-0.03125 3.5312 0.3317 1.2904 1.4256 3.7982 2.1875 4.875l0.1875-0.09375c2.9089-0.13931 5.8082-0.05185 8.7188-0.03125 0.90924-7.2e-5 1.8144-0.02909 2.7188 0.0625 3e-6 -1e-6 1.0992-0.22032 0.96875 0.09375l2.25-1c0.36544-1.159 0.41646-2.373 0.53125-3.5938 0.04341-1.4195 0.03579-2.8679-0.5625-4.1875-0.65565-1.3348-1.542-2.5-2.4688-3.6562l-0.96875 0.53125c-0.1198 0.0065-0.22581 0.01463-0.34375 0.03125-1.4308 0.11535-2.873 0.22119-4.3125 0.15625-2.1138-0.04865-4.0248-0.82336-5.8438-0.625 0.0096-0.02737 0.02154-0.06639 0.03125-0.09375zm-1.75 0.65625c0.02451-0.03973 0.05934-0.08302 0.09375-0.125l-0.75 0.5625c0.215-0.17823 0.43853-0.31077 0.65625-0.4375zm11.344 1.0312c0.85471 0.9689 1.6043 2.0154 2.1562 3.1875 0.57262 1.2832 0.54523 2.6854 0.5 4.0625-0.08105 0.65915-0.10441 1.297-0.1875 1.9375-0.68574-0.03687-1.3736-0.0713-2.0625-0.0625-2.8591 0.01985-6.6024 0.79176-9.5 0.6875-0.10274-0.28512-1.1386-3.8978-1.4375-5.125-0.21205-1.1705-0.2348-2.3072 0.09375-3.4688 0.07656-0.3915 0.17616-0.77311 0.28125-1.1562 1.3502 0.30325 3.4025 0.36426 4.4062 0.40625 1.4417 0.08031 2.8795-0.02396 4.3125-0.15625 0.35728-0.03319 0.70579-0.03882 1.0625-0.0625l0.375-0.25zm20.281 1.5625c0.05206 2.4278 0.04345 4.8525-0.4375 7.25 0.5462 1.2079-1.4596 3.4016-1.625 4.0625-1.1832-0.49259-8.2372-0.19129-10.25-0.34375l1.4062-0.625c0.47643-0.72732 0.97638-1.4393 1.4688-2.1562 3.988-0.24456 8.5535-3.5042 9.3125-7.1875 0.06653-0.32158 0.06863-0.67299 0.125-1z"/>
  </g>
 </g>
</svg>
