<?xml version="1.0" encoding="UTF-8"?>
<!-- Created with Inkscape (http://www.inkscape.org/) -->
<svg id="svg1" width="124.59" height="124.72" version="1.1" xmlns="http://www.w3.org/2000/svg" xmlns:cc="http://creativecommons.org/ns#" xmlns:dc="http://purl.org/dc/elements/1.1/" xmlns:rdf="http://www.w3.org/1999/02/22-rdf-syntax-ns#" xmlns:xlink="http://www.w3.org/1999/xlink">
 <defs id="defs3">
  <linearGradient id="linearGradient987">
   <stop id="stop988" stop-color="#fffffd" stop-opacity="0" offset="0"/>
   <stop id="stop989" stop-color="#ffc6ff" stop-opacity=".8" offset=".5"/>
   <stop id="stop990" stop-color="#fff" stop-opacity="0" offset="1"/>
  </linearGradient>
  <linearGradient id="linearGradient982">
   <stop id="stop983" stop-color="#fffffd" stop-opacity="0" offset="0"/>
   <stop id="stop985" stop-color="#bddfdf" offset=".5"/>
   <stop id="stop984" stop-color="#fff" stop-opacity="0" offset="1"/>
  </linearGradient>
  <linearGradient id="linearGradient949" x1="330.71" x2="236.26" y1="1025.9" y2="913.12" gradientUnits="userSpaceOnUse">
   <stop id="stop969" stop-color="#bfbfbf" offset="0"/>
   <stop id="stop970" stop-color="#ccc" offset="1"/>
  </linearGradient>
  <linearGradient id="linearGradient953" x1="345.84" x2="334.75" y1="946.56" y2="962.07" gradientTransform="scale(.95456 1.0476)" gradientUnits="userSpaceOnUse" xlink:href="#linearGradient982"/>
  <linearGradient id="linearGradient973" x1="334.08" x2="233.77" y1="1022.2" y2="915.04" gradientTransform="scale(.9995 1.0005)" gradientUnits="userSpaceOnUse">
   <stop id="stop975" stop-color="#e6e6e6" offset="0"/>
   <stop id="stop976" stop-color="#d9d9d9" offset="1"/>
  </linearGradient>
  <linearGradient id="linearGradient981" x1="267.16" x2="257.57" y1="897.61" y2="920.73" gradientTransform="scale(.95329 1.049)" gradientUnits="userSpaceOnUse" xlink:href="#linearGradient982"/>
  <linearGradient id="linearGradient991" x1="340.68" x2="340.35" y1="916.65" y2="930.47" gradientTransform="scale(.94919 1.0535)" gradientUnits="userSpaceOnUse" xlink:href="#linearGradient987"/>
  <linearGradient id="linearGradient2850" x1="259.07" x2="258.72" y1="918.73" y2="932.93" gradientTransform="scale(.95355 1.0487)" gradientUnits="userSpaceOnUse" xlink:href="#linearGradient987"/>
 </defs>
 <g id="g950" transform="translate(-173.5 -557.16)">
  <g id="g994" transform="translate(-47.5,-352.5)" fill-rule="evenodd">
   <path id="path972" d="m283.28 909.97c-34.22 0-61.969 27.81-61.969 62.062 0 34.253 27.749 62.031 61.969 62.031 34.22 0 62-27.778 62-62.031 0-34.253-27.78-62.062-62-62.062zm0.40625 42.406c10.624-2e-5 19.25 8.6187 19.25 19.25-1e-5 10.631-8.6259 19.281-19.25 19.281s-18.86-9.0089-18.86-19.64c-1e-5 -10.631 8.2356-18.891 18.86-18.891z" fill="url(#linearGradient973)" stroke="#000" stroke-linejoin="round" stroke-width=".625"/>
   <path id="path967" d="m283.03 913.75c-32.051 0-58.063 26.009-58.062 58.062 0 32.053 26.011 58.062 58.062 58.062 32.051 0 58.062-26.01 58.062-58.062 0-32.053-26.011-58.063-58.062-58.062zm0.6875 36.25c12.017 1e-5 21.781 9.6893 21.781 21.656 1e-5 11.967-9.7638 21.688-21.781 21.688-12.017 0-21.781-9.7205-21.781-21.688s9.7638-21.656 21.781-21.656z" fill="url(#linearGradient949)" stroke="#000" stroke-opacity=".5" stroke-width="1pt"/>
   <path id="path979" d="m283.81 952.38c-10.437 0-18.938 8.5736-18.938 19.156 0 10.583 8.5004 19.188 18.938 19.188 10.437 0 18.906-8.6049 18.906-19.188 0-10.583-8.4692-19.156-18.906-19.156zm-0.21875 13.5c3.4711 3e-5 6.2812 2.7052 6.2812 6.0625-1e-5 3.3573-2.8101 6.0938-6.2812 6.0938-3.4711-1e-5 -6.2812-2.7364-6.2812-6.0938 0-3.3573 2.8101-6.0625 6.2812-6.0625z" fill="#e6e6e6" fill-opacity=".2" stroke="#000" stroke-linejoin="round" stroke-width=".625"/>
   <path id="path980" d="m226.91 960.24c0.58314-8.7472 10.371-27.489 23.383-35.401 1.7866 2.7303 13.428 23.651 18.098 30.378-4.5151 4.1028-7.6638 11.562-6.8891 15.267-1.1206-0.23119-34.591-10.244-34.591-10.244z" fill="url(#linearGradient981)"/>
   <path id="path986" d="m229.6 992.26c-3.8382-7.8817-6.507-29.01 0.85718-42.34 2.9067 1.4824 24.02 13.653 31.414 17.172-1.8812 5.8034-0.0846 13.223 2.4279 16.054-1.0874 0.35587-32.843 8.2889-34.699 9.1136z" fill="url(#linearGradient2850)"/>
   <path id="path992" d="m339 984.25c-0.58314 8.7472-9.8972 26.068-22.909 33.98-1.7866-2.7303-12.718-22.23-17.387-28.957 4.5151-4.1028 7.6638-11.562 6.8891-15.267 1.1206 0.23119 33.407 10.244 33.407 10.244z" fill="url(#linearGradient953)"/>
   <path id="path993" d="m336.55 952.46c3.8382 7.8817 6.0334 28.063-1.3308 41.393-2.9067-1.4824-22.599-12.942-29.993-16.462 1.8812-5.8034 0.0846-13.223-2.4279-16.054 1.0874-0.35587 31.896-8.052 33.752-8.8767z" fill="url(#linearGradient991)"/>
  </g>
  <path id="path949" d="m249.42 658.47c-0.28623 0.24568-1.0228 0.73802-1.1147 1.0313 6e-3 0.0975 0.0512 0.17047 0.0966 0.24339l0.92319 1.4827c0.10594 0.17015 0.21188 0.34029 0.035 0.58532-0.20127 0.29396-0.57247 0.49136-0.88897 0.68843l-2.0573 1.281c-0.90995 0.56657-1.3125 1.1545-0.94928 1.7379l0.63564 1.0209s0.26658 0.33997 0.26658 0.33997l0.72644 1.1667 0.17231 0.36493s1.2864 2.066 1.2864 2.066c0.31781 0.51044 0.93701 0.79949 1.8865 0.20829l5.8553-3.6458c0.4352-0.27097 0.86455-0.63949 0.95059-1.0304 0.0674-0.24438-0.0595-0.53638-0.15028-0.68222l-0.81724-1.3125s-4.1014-6.587-4.1014-6.587c-0.0303-0.0486-0.0757-0.12153-0.1455-0.14551-0.15479-0.0723-0.55627 0.0765-0.76922 0.17538-0.57486 0.22301-1.3417 0.66675-1.8409 1.0113zm6.9158-2.3835-0.7517 0.46804c0.0454 0.0729 0.0757 0.12152 0.0268 0.21941-0.13729 0.22039-0.73073 0.5899-0.98909 0.61584-0.29791 0.0506-0.46438-0.21679-0.57032-0.38694-0.0757-0.12153-0.18745-0.38923-0.0746-0.56069 0.0884-0.1225 0.20711-0.19641 0.3258-0.27031 0.35606-0.2217 0.65743-0.44308 0.90304-0.22497l0.7517-0.46804c-0.0605-0.0972-0.10594-0.17014-0.20605-0.24274-0.43066-0.33898-1.0974 0.17734-1.6513 0.52222-0.3165 0.19706-0.72726 0.41909-0.92854 0.71306-0.18614 0.31828-0.0592 0.61028 0.0619 0.80473 0.16647 0.26737 0.49012 0.87536 0.9277 0.87274 0.36775-0.0266 0.86694-0.37114 1.223-0.59284 0.19781-0.12316 0.39563-0.24633 0.57831-0.39382 0.19781-0.12317 0.34093-0.246 0.45378-0.41746 0.12214-0.24469 0.0255-0.48809-0.0804-0.65823zm0.33593-1.9294c-0.14312 0.12284-0.31067 0.29462-0.38396 0.44144-0.0826 0.22007-0.0313 0.39054 0.0595 0.53638 0.11178 0.2677 0.19329 0.48678 0.42376 0.68058 0.14549 0.14551 0.21187 0.34029 0.50049 0.36296 0.43758-3e-3 1.1986-0.5439 1.5942-0.79024 0.27694-0.17243 0.61787-0.41845 0.74002-0.66315 0.0977-0.19575 0.0465-0.36623-0.0292-0.48777-0.0664-0.19477-0.36906-0.68089-0.52969-0.85072-0.11524-0.0969-0.17578-0.19412-0.4097-0.21712-0.41315-0.0463-0.93676 0.34716-1.3324 0.5935-0.19781 0.12317-0.43519 0.27097-0.633 0.39414zm2.6112-1.6258 1.1653 1.8716 0.71214-0.44341-0.78698-1.2639 1.1837 0.57845c0.30959 0.14453 0.31543 0.24209 0.63194 0.045l0.19781-0.12316c0.3165-0.19707 0.26526-0.36755 0.23845-0.58696l-0.0515-1.3171s0.32712 0.43719 0.32712 0.43719 0.51456 0.82642 0.51456 0.82642l0.71214-0.44341-1.1653-1.8716-0.79126 0.49267c-0.35607 0.22171-0.24084 0.3186-0.25359 0.56265l-3e-3 1.3174-0.75885-0.33701-0.80425-0.40994-1.0682 0.66511zm4.5102-2.8082 1.1653 1.8716 0.71213-0.4434s-0.34808-0.55905-0.34808-0.55905c0.35607-0.22171 0.92509-0.54228 1.1264-0.83624 0.31412-0.46542-0.10963-1.146-0.62633-1.0941-0.31305 0.0263-0.43175 0.10017-0.66912 0.24797l-1.3603 0.81324zm3.3809 0.49211c0.15825-0.0985 0.64814-0.36983 0.68186-0.49201 0.16171-0.26933-0.25728-0.41321 0.25704-0.73345l0.79126-0.49268c0.0454 0.0729 0.36085 0.31501 0.5098 0.28972 0.10939-6.5e-4 0.60858-0.3452 0.72727-0.4191 0 0-1.5504-0.991-1.5504-0.991l-0.54937-0.26508-0.29207 0.14813-0.51432 0.32024-0.26181 0.19674s-0.0197 0.58564-0.0197 0.58564l0.22035 1.8528zm5.6992-4.4256-0.71214 0.44341c6e-3 0.0975 0.0361 0.14616-0.0523 0.26868-0.13729 0.22039-0.73073 0.5899-0.98908 0.61584-0.28862-0.0227-0.41553-0.31468-0.52147-0.48482-0.0757-0.12153-0.18161-0.29168-0.0688-0.46313 0.0733-0.14681 0.19197-0.22072 0.35023-0.31925 0.35607-0.22171 0.61787-0.41845 0.90304-0.22498l0.71214-0.4434c-0.10594-0.17015-0.22702-0.3646-0.51565-0.38727-0.25834 0.0259-0.55042 0.17407-0.78779 0.32187l-0.8704 0.54194c-0.43519 0.27097-0.74586 0.5656-0.68293 0.93117 0.021 0.12187 0.0664 0.19478 0.12691 0.29201 0.19674 0.31598 0.4564 0.99754 1.0278 0.94533 0.20366-0.0256 0.53531-0.19838 0.73312-0.32154 0.31651-0.19708 0.79126-0.49268 1.0531-0.68943 0.18268-0.14747 0.3258-0.27031 0.43865-0.44176 0.107-0.26901-0.0385-0.41452-0.14443-0.58467zm-0.41578-1.4613 0.22702 0.3646 0.71213-0.44341 0.93832 1.507 0.71214-0.44341-0.93832-1.507 0.75169-0.46804s-0.22701-0.36459-0.22701-0.36459l-2.176 1.3548zm-22.637 14.432c0.34094-0.24601 0.7517-0.46804 1.1532-0.61682 0.13383-0.0496 0.36192-0.12416 0.48644-0.1005 0.0698 0.024 0.13036 0.1212 0.16063 0.16982l0.90806 1.4584s3.7381 6.0037 3.7381 6.0037c0.10594 0.17015 0.21772 0.43784 0.0409 0.68287-0.11286 0.17146-0.35024 0.31926-0.54805 0.44242l-5.1432 3.2024c-0.11869 0.0739-0.23737 0.1478-0.3712 0.1974-0.49574 0.17374-0.92985 6e-3 -1.0963-0.26182 0 0-2.9209-4.6911-2.9209-4.6911-0.25728-0.41321 0.10224-0.80571 0.69569-1.1752l2.5716-1.6012c0.43519-0.27097 0.79471-0.66346 0.7865-1.0294-6e-3 -0.0976-0.0513-0.17047-0.0967-0.24339l-0.95346-1.5313c-0.0303-0.0486-0.0908-0.14584-0.0815-0.21909 0.0582-0.17112 0.48751-0.53965 0.67019-0.68712zm17.919-10.988 0.86479 0.50717-0.79125 0.49267c-0.0512-0.17047-0.13169-0.8287-0.0735-0.99984zm-10.509 6.5769c0.19782-0.12317 0.77612-0.51698 0.95535-0.49365 0.10939-6.6e-4 0.19436 0.0476 0.27932 0.0959 0.14551 0.14551 0.43306 0.60733 0.31091 0.85203-0.11285 0.17145-0.35022 0.31925-0.54804 0.44242-0.0791 0.0493-0.19781 0.12317-0.29207 0.14813-0.13383 0.0496-0.22809 0.0746-0.35262 0.0509-0.13966-0.048-0.34225-0.46149-0.41792-0.58302-0.0908-0.14584-0.16647-0.26737 0.0651-0.51273zm7.8592-4.2189c-0.0454-0.0729-0.26658-0.33997-0.17816-0.46248 0.0244-0.0489 0.10356-0.0982 0.14312-0.12284 0.11869-0.0739 0.3165-0.19707 0.46546-0.22236 0.20366-0.0256 0.32473 0.16884 0.25145 0.31565-0.0733 0.14683-0.52362 0.39349-0.68187 0.49203zm-9.4086 7.8145c-0.32579 0.27031-0.6423 0.46739-0.95296 0.76201-0.14313 0.12284-0.31067 0.29462-0.32926 0.44111 6e-3 0.0976 0.0512 0.17048 0.0967 0.2434 0 0 3.723 5.9794 3.723 5.9794 0.0454 0.0729 0.0908 0.14584 0.2002 0.14519 0.12453 0.0237 0.39218-0.0755 0.51087-0.14944 0.30721-0.12383 1.0496-0.51861 1.3661-0.71569 0.35606-0.2217 1.0135-0.66477 1.2997-0.91046 0.14312-0.12284 0.36536-0.29495 0.39908-0.41714 0.0337-0.12218-0.0117-0.1951-0.0571-0.26802 0 0-3.6776-5.9065-3.6776-5.9065-0.0605-0.0972-0.12691-0.29201-0.25144-0.31566-0.13966-0.048-0.44687 0.0759-0.62026 0.15009-0.44104 0.17342-1.287 0.66642-1.7071 0.9617zm4.7383-2.8828c-0.36536 0.29495-0.761 0.54129-0.95643 0.93281-0.18959 0.48907 0.10725 0.87765 0.30399 1.1936 0 0 1.3167 2.1147 1.3167 2.1147l0.11178 0.2677c0.18161 0.29167 0.59131 0.50879 1.1266 0.31041 0.13383-0.0496 0.25251-0.12348 0.3712-0.19739l3.5211-2.1924c0.11869-0.0739 0.27694-0.17244 0.4259-0.19773 0.29792-0.0506 0.43996 0.26574 0.30268 0.48613-0.0884 0.12251-0.24668 0.22104-0.36537 0.29495l-3.7981 2.3648c-0.11868 0.0739-0.27694 0.17244-0.38049 0.27065-0.40838 0.49038-0.15456 1.0744 0.0422 1.3904 0.15134 0.24307 0.52731 0.58238 0.95905 0.48221 0.18852-0.0499 0.38634-0.1731 0.54459-0.27163l5.9345-3.695c0.19781-0.12317 0.39563-0.24634 0.54804-0.44242 0.46309-0.49071 0.35476-0.9292 0.18244-1.2941-0.0454-0.0729-0.0361-0.14616-0.0815-0.21908l-0.38764-0.53442-0.15719-0.34061-0.96859-1.5556c-0.0757-0.12152-0.12107-0.19444-0.27587-0.26671-0.50979-0.28972-1.3709 0.17898-2.0039 0.57312l-0.68771 0.39446-2.176 1.3548c-0.1187 0.0739-0.23738 0.1478-0.34677 0.14846-0.25836 0.026-0.4551-0.29004-0.31782-0.51043 0.0884-0.12252 0.20711-0.19642 0.32579-0.27032l3.6398-2.2663c0.0791-0.0493 0.19781-0.12316 0.2618-0.19673 0.11869-0.0739 0.19197-0.22072 0.24083-0.31861 0.20473-0.46477 0.0476-0.80538-0.14919-1.1214-0.18161-0.29168-0.62158-0.55742-1.1569-0.35904-0.13383 0.0496-0.25252 0.1235-0.3712 0.1974l-5.5784 3.4733zm8.8226-5.4933c-0.3258 0.27032-0.59691 0.5403-0.76791 0.88288-0.1803 0.41583 0.0106 0.63426 0.17708 0.90163l0.65077 1.0452s0.18745 0.38922 0.18745 0.38922 2.1036 3.3786 2.1036 3.3786c0.34809 0.55905 1.0406 0.7013 1.9901 0.11009l5.1828-3.227c0.27694-0.17244 0.54459-0.27162 0.77613-0.51698 0.41421-0.39283 0.29076-0.85563 0.10915-1.1473l-0.37252-0.5101-0.72644-1.1667c-0.19674-0.31598-0.42482-0.24144-0.94498-0.0187-0.55973 0.24732-1.4452 0.76494-1.9293 1.1338-0.36537 0.29496-0.67603 0.58957-0.49442 0.88125 0 0 0.51457 0.82642 0.51457 0.82642 0.0454 0.0729 0.0908 0.14583 0.0571 0.26802-0.0489 0.0979-0.2711 0.26999-0.38979 0.34389-0.15826 0.0985-0.39563 0.24634-0.55972 0.24732-0.12453-0.0237-0.1548-0.0723-0.2002-0.14518l-1.7858-2.8682s-0.26658-0.33996-0.26658-0.33996c-0.0605-0.0972-0.17577-0.19413-0.10248-0.34094 0.14657-0.29364 0.68532-0.66283 0.98907-0.61584 0.12453 0.0236 0.16994 0.0966 0.21534 0.16948l0.65077 1.0452c0.0303 0.0486 0.0605 0.0972 0.13037 0.12121 0.23392 0.023 0.92162-0.37147 1.159-0.51927l0.41077-0.22203c0.35607-0.22171 0.89481-0.59089 1.2206-0.8612 0.14312-0.12284 0.35022-0.31925 0.38395-0.44144 0.0337-0.12219-0.0117-0.19511-0.0571-0.26803l-1.0897-1.7501c-0.1816-0.29167-0.47261-0.5827-1.0533-0.45724-0.62026 0.15009-1.4604 0.74065-2.0538 1.1102l-4.1146 2.5619zm-13.106 8.6661c0.3165-0.19707 1.1078-0.68974 1.3871-0.59382 0.0698 0.024 0.13036 0.1212 0.16063 0.16982 0 0 2.9663 4.7641 2.9663 4.7641l0.14205 0.3163s0.19674 0.31599 0.19674 0.31599c0.0303 0.0486 0.0757 0.12152 0.0512 0.17047-0.0582 0.17112-0.57248 0.49136-0.73073 0.5899-0.3165 0.19706-0.65744 0.44307-0.98907 0.61583-0.13383 0.0496-0.30722 0.12383-0.37705 0.0998-0.1094 6.5e-4 -0.1548-0.0723-0.2002-0.14519 0 0-2.6485-4.2536-2.6485-4.2536s-0.5751-0.92365-0.5751-0.92365c-0.0605-0.0972-0.22117-0.26705-0.14789-0.41387 0.043-0.19543 0.54221-0.53997 0.76445-0.71208zm18.071-11.184c0.35607-0.22171 0.90067-0.49333 1.2196-0.42205 0.24905 0.0473 0.36083 0.31501 0.46677 0.48515l0.74157 1.191c0.0454 0.0729 0.0908 0.14584 0.0419 0.24373-9e-3 0.0732-0.19198 0.22071-0.31067 0.29461-0.2618 0.19674-0.76099 0.54129-1.0286 0.64048-0.0791 0.0493-0.29207 0.14812-0.34677 0.14846-0.1094 6.5e-4 -0.16993-0.0966-0.2002-0.14519l-0.65077-1.0452c-0.0454-0.0729-0.10594-0.17015-0.23047-0.1938-0.10939 6.5e-4 -0.28278 0.0749-0.4166 0.12448-0.38634 0.17309-0.66328 0.34552-1.0194 0.56722-0.3165 0.19707-0.93438 0.61551-0.97156 0.9085-9e-3 0.0733 0.0361 0.14617 0.0815 0.21909l1.8312 2.9411 0.29684 0.38856s0.37836 0.60767 0.37836 0.60767c0.0454 0.0729 0.0664 0.19478 0.1909 0.21843 0.21879-1e-3 0.58999-0.19871 0.84251-0.3222 0.41076-0.22203 0.86109-0.4687 1.2113-0.78795 0.15826-0.0985 0.32581-0.27032 0.35953-0.3925 0.0337-0.12219-0.0268-0.21941-0.0722-0.29233 0 0-0.54482-0.87503-0.54482-0.87503-0.0303-0.0486-0.0757-0.12154-0.0664-0.19479-0.0117-0.1951 0.40838-0.49038 0.64576-0.63818 0.27694-0.17244 0.87039-0.54194 1.1346-0.47033 0.0698 0.024 0.11523 0.0969 0.1455 0.14552l0.83238 1.3368c0.0908 0.14584 0.21772 0.43784 0.0409 0.68288-0.10356 0.0982-0.26181 0.19674-0.3805 0.27064l-4.9058 3.0546c-0.11869 0.0739-0.23737 0.1478-0.3712 0.1974-0.61442 0.24764-0.83214-0.1902-0.99862-0.45757 0 0-0.25728-0.41321-0.25728-0.41321s-2.5274-4.0592-2.5274-4.0592c-0.0605-0.0972-0.0908-0.14584-0.11177-0.2677-0.10488-0.6093 0.61311-0.95515 1.2461-1.3493l2.3342-1.4534 1.3696-0.88647zm-13.555 8.4736 5.341-3.3255c0.11869-0.0739 0.23737-0.1478 0.33165-0.17276 0.56555-0.14977 0.81008 0.50748 0.55996 0.89933-0.0884 0.12252-0.20712 0.19642-0.3258 0.27032l-3.7585 2.3402c-0.11869 0.0739-0.23738 0.14781-0.34094 0.24601-0.2804 0.34324-0.14764 0.7328-0.0114 0.95156 0.1362 0.21875 0.44234 0.53409 0.87408 0.43391 0.13382-0.0496 0.25252-0.1235 0.3712-0.1974l3.3629-2.0939c0.59345-0.3695 1.0194-0.56723 1.2918-0.12971l1.468 2.3577c0.12107 0.19445 0.24798 0.48646 0.0467 0.78043-0.15241 0.19608-0.45379 0.41746-0.69116 0.56526l-5.1036 3.1777c-0.0791 0.0493-0.19781 0.12317-0.29207 0.14813-0.26764 0.0992-0.49812-0.0946-0.58893-0.24045-0.10594-0.17014-0.20841-0.51109 0.0383-0.73213 0.064-0.0736 0.18268-0.14748 0.26181-0.19675l3.6794-2.2909c0.11869-0.0739 0.19781-0.12316 0.30137-0.22137 0.70046-0.63851 0.39538-1.393-0.32151-1.4863-0.53768-0.07-0.94261 0.24961-1.4965 0.59448l-0.65745 0.44308-2.0573 1.2809c-0.59345 0.36951-0.81224 0.37082-1.0392 6e-3 0 0-0.28171-0.36426-0.28171-0.36426l-0.63564-1.0209s-0.21771-0.43785-0.21771-0.43785-0.4389-0.70489-0.4389-0.70489c-0.1816-0.29167-0.099-0.51174 0.33032-0.88026zm-11.253 7.85c-0.16754 0.17177-0.45377 0.41745-0.51193 0.58858-0.0733 0.14682-0.0128 0.24405 0.0478 0.34127 0 0 0.40862 0.65628 0.40862 0.65628s1.9826 3.1841 1.9826 3.1841c0.0303 0.0486 0.0908 0.14583 0.16064 0.16981 0.19436 0.0476 0.77851-0.24862 1.0159-0.39643l0.4352-0.27097c0.23737-0.1478 0.697-0.4677 0.76445-0.71208 0.0244-0.0489-0.0361-0.14617-0.0664-0.19478l-2.4063-3.8647c-0.0605-0.0972-0.10594-0.17014-0.23047-0.1938-0.34915-0.1199-1.2195 0.42204-1.6 0.6927zm0.39456 0.1928c0.19782-0.12317 0.49919-0.34454 0.69356-0.29691 0.12452 0.0237 0.15479 0.0723 0.20019 0.14519 0 0 0.34809 0.55905 0.34809 0.55905s1.7253 2.7709 1.7253 2.7709c0.13621 0.21876 0.10249 0.34095-0.29315 0.58729-0.15825 0.0985-0.39562 0.24634-0.52015 0.22268-0.12453-0.0236-0.1548-0.0723-0.20021-0.14519 0 0-0.27241-0.43751-0.27241-0.43751s-0.46916-0.7535-0.46916-0.7535-0.20258-0.41353-0.20258-0.41353l-0.71131-1.1424-0.33295-0.53475c-0.0454-0.0729-0.13621-0.21875-0.12691-0.292-6e-3 -0.0975 0.0581-0.17113 0.1617-0.26934z" stroke="#000" stroke-width=".03653"/>
 </g>
 <metadata id="metadata42">
  <rdf:RDF id="RDF39">
   <cc:Work id="Work40" rdf:about="">
    <dc:title id="title41">Clipart by Nicu Buculei - compact_disc</dc:title>
    <dc:rights id="rights43">
     <cc:Agent id="Agent44">
      <dc:title id="title45">Nicu Buculei</dc:title>
     </cc:Agent>
    </dc:rights>
    <dc:type id="type47" rdf:resource="http://purl.org/dc/dcmitype/StillImage"/>
    <cc:license id="license48" rdf:resource="http://web.resource.org/cc/PublicDomain"/>
    <dc:format>image/svg+xml</dc:format>
   </cc:Work>
   <cc:License id="License49" rdf:about="http://web.resource.org/cc/PublicDomain">
    <cc:permits id="permits50" rdf:resource="http://web.resource.org/cc/Reproduction"/>
    <cc:permits id="permits51" rdf:resource="http://web.resource.org/cc/Distribution"/>
    <cc:permits id="permits52" rdf:resource="http://web.resource.org/cc/DerivativeWorks"/>
   </cc:License>
  </rdf:RDF>
 </metadata>
</svg>
