<?xml version="1.0" encoding="UTF-8"?>
<!-- Created with Sodipodi ("http://www.sodipodi.com/") -->
<svg id="svg548" width="201.42" height="489.39" version="1.1" xmlns="http://www.w3.org/2000/svg" xmlns:cc="http://creativecommons.org/ns#" xmlns:dc="http://purl.org/dc/elements/1.1/" xmlns:rdf="http://www.w3.org/1999/02/22-rdf-syntax-ns#">
 <g id="g922" transform="translate(-144.74 -7.0088)">
  <path id="path551" transform="matrix(1 0 0 1.0757 0 7.0348)" d="m159.81 75.949c8.702-2.3734 21.361-2.3733 45.095-3.1645 23.734-1.5823 119.46-2.3735 128.16 2.3734 10.285 3.1645 8.702 291.14 6.329 322.79-2.374 31.645-3.956 46.676-4.747 49.05-59.072 3.955-116.56 4.746-177.22-1e-3 -4.747-26.107-15.822-326.74 2.374-371.04z" fill="#4b537b" fill-rule="evenodd" stroke="#000" stroke-linejoin="round" stroke-width="9.6416"/>
  <path id="path552" transform="matrix(1 0 0 1.0757 0 7.0348)" d="m174.18 107.6c15.032-0.791 113.01 0 136.74 0 6.329 15.032 15.823 105.22 11.867 118.67-13.053 0.923-30.127 11.481-39.05 2.027-13.783-15.394-62.636-16.449-78.892-0.395-9.552 8.969-25.452-1.368-38.704-2.423 0-43.249 1.709-78.587 8.038-117.88z" fill="#807f7f" fill-rule="evenodd" stroke="#000" stroke-linejoin="round" stroke-width="9.6416"/>
  <path id="path553" transform="matrix(1 0 0 1.0757 0 7.0348)" d="m184.34 124.21c-3.956 3.956-3.165 81.488 0 83.861 4.483 2.637 111.82 4.483 117.88 0.791 5.274-2.901 4.22-76.213 0-83.07-5.802-3.955-110.5-3.164-117.88-1.582z" fill="#80a47f" fill-rule="evenodd" stroke="#000" stroke-linejoin="round" stroke-width="9.6416"/>
  <path id="path554" transform="matrix(1 0 0 .83844 -8.7025 87.658)" d="m174.05 271.36c3.956-3.955 40.348-3.163 43.512-0.79 3.956 5.538 2.373 30.854 0 32.436-2.637 3.165-40.084 3.165-43.513 0-2.373-5.802-1.581-28.217 1e-3 -31.646z" fill="#807f7f" fill-rule="evenodd" stroke="#000" stroke-width="6.8257"/>
  <path id="path555" transform="matrix(1 0 0 .83844 48.259 87.658)" d="m174.05 271.36c3.956-3.955 40.348-3.163 43.512-0.79 3.956 5.538 2.373 30.854 0 32.436-2.637 3.165-40.084 3.165-43.513 0-2.373-5.802-1.581-28.217 1e-3 -31.646z" fill="#807f7f" fill-rule="evenodd" stroke="#000" stroke-width="6.8257"/>
  <path id="path556" transform="matrix(1 0 0 .83844 105.22 88.321)" d="m174.05 271.36c3.956-3.955 40.348-3.163 43.512-0.79 3.956 5.538 2.373 30.854 0 32.436-2.637 3.165-40.084 3.165-43.513 0-2.373-5.802-1.581-28.217 1e-3 -31.646z" fill="#807f7f" fill-rule="evenodd" stroke="#000" stroke-width="6.8257"/>
  <path id="path557" transform="matrix(1 0 0 .83844 -7.9114 133.43)" d="m174.05 271.36c3.956-3.955 40.348-3.163 43.512-0.79 3.956 5.538 2.373 30.854 0 32.436-2.637 3.165-40.084 3.165-43.513 0-2.373-5.802-1.581-28.217 1e-3 -31.646z" fill="#807f7f" fill-rule="evenodd" stroke="#000" stroke-width="6.8257"/>
  <path id="path558" transform="matrix(1 0 0 .83844 49.051 133.43)" d="m174.05 271.36c3.956-3.955 40.348-3.163 43.512-0.79 3.956 5.538 2.373 30.854 0 32.436-2.637 3.165-40.084 3.165-43.513 0-2.373-5.802-1.581-28.217 1e-3 -31.646z" fill="#807f7f" fill-rule="evenodd" stroke="#000" stroke-width="6.8257"/>
  <path id="path559" transform="matrix(1 0 0 .83844 106.01 134.09)" d="m174.05 271.36c3.956-3.955 40.348-3.163 43.512-0.79 3.956 5.538 2.373 30.854 0 32.436-2.637 3.165-40.084 3.165-43.513 0-2.373-5.802-1.581-28.217 1e-3 -31.646z" fill="#807f7f" fill-rule="evenodd" stroke="#000" stroke-width="6.8257"/>
  <path id="path560" transform="matrix(1 0 0 .83844 -8.7025 178.53)" d="m174.05 271.36c3.956-3.955 40.348-3.163 43.512-0.79 3.956 5.538 2.373 30.854 0 32.436-2.637 3.165-40.084 3.165-43.513 0-2.373-5.802-1.581-28.217 1e-3 -31.646z" fill="#807f7f" fill-rule="evenodd" stroke="#000" stroke-width="6.8257"/>
  <path id="path561" transform="matrix(1 0 0 .83844 48.259 178.53)" d="m174.05 271.36c3.956-3.955 40.348-3.163 43.512-0.79 3.956 5.538 2.373 30.854 0 32.436-2.637 3.165-40.084 3.165-43.513 0-2.373-5.802-1.581-28.217 1e-3 -31.646z" fill="#807f7f" fill-rule="evenodd" stroke="#000" stroke-width="6.8257"/>
  <path id="path562" transform="matrix(1 0 0 .83844 105.22 179.2)" d="m174.05 271.36c3.956-3.955 40.348-3.163 43.512-0.79 3.956 5.538 2.373 30.854 0 32.436-2.637 3.165-40.084 3.165-43.513 0-2.373-5.802-1.581-28.217 1e-3 -31.646z" fill="#807f7f" fill-rule="evenodd" stroke="#000" stroke-width="6.8257"/>
  <path id="path563" transform="matrix(1 0 0 1.0757 0 7.0348)" d="m206.09 234.57c6.725-12.262 24.921-15.426 36.787-14.635 15.032 0 27.691 0.791 34.415 9.493 4.747 28.481 0 41.535-9.098 43.513-7.911 3.956-42.722 5.143-47.864 1.977-10.68-2.373-16.218-13.449-14.24-40.348z" fill="#807f7f" fill-rule="evenodd" stroke="#000" stroke-linejoin="round" stroke-width="6.026"/>
  <path id="path564" transform="matrix(1 0 0 1.0757 0 7.0348)" d="m285.21 265.43c-0.791-6.725 4.351-13.054 12.263-20.174 7.911-7.12 15.822-13.054 22.151-13.449 6.33-0.396 16.615 7.911 16.615 13.053 0 6.725-3.561 10.285-10.682 18.988-12.262 13.845-18.987 16.219-23.734 15.427-5.933-1.187-16.217-7.911-16.613-13.845z" fill="#807f7f" fill-rule="evenodd" stroke="#000" stroke-width="6.026"/>
  <path id="path565" transform="matrix(0 -1.0757 1 0 -75.061 615.35)" d="m285.21 265.43c-0.791-6.725 4.351-13.054 12.263-20.174 7.911-7.12 15.822-13.054 22.151-13.449 6.33-0.396 16.615 7.911 16.615 13.053 0 6.725-3.561 10.285-10.682 18.988-12.262 13.845-18.987 16.219-23.734 15.427-5.933-1.187-16.217-7.911-16.613-13.845z" fill="#807f7f" fill-rule="evenodd" stroke="#000" stroke-linejoin="round" stroke-width="6.026"/>
  <path id="path566" transform="matrix(1 0 0 1.0757 0 7.0348)" d="m288.61 69.956 33.743 1.4359s-0.719-28.718-1.436-45.23c0.718-15.795-3.59-21.538-4.308-21.538h-22.256s-3.59 7.1794-3.59 17.948c-1.435 22.974-2.153 47.384-2.153 47.384z" fill="#4b537b" fill-rule="evenodd" stroke="#000" stroke-linejoin="round" stroke-width="9.6416"/>
  <path id="path567" transform="matrix(1 0 0 1.0757 0 7.0348)" d="m274.97 70.674s54.563 2.1539 54.563 3.5897c0 1.4359 5.026-2.8717 0-10.051-7.179-5.0256-36.614-7.8973-48.819-3.5897-6.462 7.8973-5.744 11.487-5.744 10.051z" fill="#626a7b" fill-rule="evenodd" stroke="#000" stroke-linejoin="round" stroke-width="9.6416"/>
  <path id="path568" transform="translate(0 7.385)" d="m197.5 147.5h76.25" fill="none" stroke="#000" stroke-width="3.75"/>
  <path id="path569" transform="translate(0 7.385)" d="m201.25 215h37.5-37.5z" fill="none" stroke="#000" stroke-width="3.75"/>
  <path id="path570" transform="translate(0 7.385)" d="m261.25 213.75h23.75" fill="none" stroke="#000" stroke-width="3.75"/>
  <path id="path571" transform="translate(0 7.385)" d="m223.75 262.5h33.564c1.25 0 0.904 11.25 0.186 11.25h-33.564l-0.186-11.25z" fill="#0f0" fill-rule="evenodd" stroke-width="1pt"/>
  <path id="path572" transform="translate(0 7.385)" d="m324.51 258.06s-13.64 3.59-13.64 4.308 11.487 9.333 11.487 9.333l2.153-13.641z" fill="none" stroke="#000" stroke-width="3.75"/>
  <path id="path573" transform="translate(0 7.385)" d="m297.23 289.64v-12.205l14.359 10.051-14.359 2.154z" fill="none" stroke="#000" stroke-width="3.75"/>
  <path id="path574" transform="translate(0 7.385)" d="m178.05 262.36-7.179 7.897 11.487 10.051 6.461-7.897" fill="none" stroke="#000" stroke-width="3.75"/>
  <path id="path575" transform="matrix(1 0 0 .77941 0 75.328)" d="m179.48 320.52 7.897-5.026v17.949" fill="none" stroke="#000" stroke-width="4.2476"/>
  <path id="path576" transform="matrix(1 0 0 .77941 0 75.328)" d="m233.33 316.21 2.154-4.307h15.077c-0.718 0-15.077 19.384-15.077 19.384l15.795-0.718" fill="none" stroke="#000" stroke-width="4.2476"/>
  <path id="path577" transform="matrix(1 0 0 .77941 0 75.328)" d="m293.64 314.77h16.513l-7.898 7.18 8.616 2.871v10.769s-5.026 2.872-5.744 2.872-12.923-0.718-12.923-0.718" fill="none" stroke="#000" stroke-width="4.2476"/>
  <path id="path578" transform="matrix(1 0 0 .77941 0 75.328)" d="m189.54 372.92s-10.769 13.641-11.487 13.641h12.205s0.718 7.897 0 7.897-0.718-21.538-0.718-21.538z" fill="none" stroke="#000" stroke-width="4.2476"/>
  <path id="path579" transform="matrix(1 0 0 .77941 0 75.328)" d="m252.71 372.92-13.641 0.718s-0.718 7.18 0 7.18 15.077 1.435 15.077 1.435 0.717 10.052 0 10.052c-0.718 0-13.641 0.717-13.641 0.717" fill="none" stroke="#000" stroke-width="4.2476"/>
  <path id="path580" transform="matrix(1 0 0 .77941 0 75.328)" d="m308.71 375.08h-12.205v15.795h15.077v-7.898l-15.077-0.718" fill="none" stroke="#000" stroke-width="4.2476"/>
  <path id="path581" transform="matrix(1 0 0 .83844 -8.7025 222.66)" d="m174.05 271.36c3.956-3.955 40.348-3.163 43.512-0.79 3.956 5.538 2.373 30.854 0 32.436-2.637 3.165-40.084 3.165-43.513 0-2.373-5.802-1.581-28.217 1e-3 -31.646z" fill="#807f7f" fill-rule="evenodd" stroke="#000" stroke-width="6.8257"/>
  <path id="path582" transform="matrix(1 0 0 .83844 48.259 222.66)" d="m174.05 271.36c3.956-3.955 40.348-3.163 43.512-0.79 3.956 5.538 2.373 30.854 0 32.436-2.637 3.165-40.084 3.165-43.513 0-2.373-5.802-1.581-28.217 1e-3 -31.646z" fill="#807f7f" fill-rule="evenodd" stroke="#000" stroke-width="6.8257"/>
  <path id="path583" transform="matrix(1 0 0 .83844 105.22 223.32)" d="m174.05 271.36c3.956-3.955 40.348-3.163 43.512-0.79 3.956 5.538 2.373 30.854 0 32.436-2.637 3.165-40.084 3.165-43.513 0-2.373-5.802-1.581-28.217 1e-3 -31.646z" fill="#807f7f" fill-rule="evenodd" stroke="#000" stroke-width="6.8257"/>
  <path id="path584" transform="translate(0 7.385)" d="m178.05 403.8h13.641l-0.718 17.949" fill="none" stroke="#000" stroke-width="3.75"/>
  <path id="path585" transform="translate(0 7.385)" d="m233.33 403.8 16.513 0.718v9.334l-15.795-0.718-0.718-9.334z" fill="none" stroke="#000" stroke-width="3.75"/>
  <path id="path586" transform="translate(0 7.385)" d="m234.05 413.13v8.615h16.513l-0.718-7.897" fill="none" stroke="#000" stroke-width="3.75"/>
  <path id="path587" transform="translate(0 7.385)" d="m308 421.03v-16.513h-18.667s-0.717 8.616 0 8.616c0.718 0 18.667 0.718 18.667 0.718" fill="none" stroke="#000" stroke-width="3.75"/>
  <path id="path588" transform="translate(0 7.385)" d="m308.71 421.74h-15.077" fill="none" stroke="#000" stroke-width="3.75"/>
  <path id="path589" transform="translate(0 7.385)" d="m236.2 445.44 16.513 0.718v17.23l-17.231 0.718 0.718-18.666z" fill="none" stroke="#000" stroke-width="3.75"/>
  <path id="path590" transform="translate(0 7.385)" d="m295.07 449.03v16.513h0.718" fill="none" stroke="#000" stroke-width="3.75"/>
  <path id="path591" transform="translate(0 7.385)" d="m306.56 449.74v16.513" fill="none" stroke="#000" stroke-width="3.75"/>
  <path id="path592" transform="translate(0 7.385)" d="m290.05 453.33c0.718 0 21.604 2.4799 21.604 2.4799" fill="none" stroke="#000" stroke-width="3.75"/>
  <path id="path593" transform="translate(0 7.385)" d="m288.61 461.23 22.256 1.436" fill="none" stroke="#000" stroke-width="3.75"/>
  <path id="path594" transform="translate(0 7.385)" d="m175.89 451.9 18.667 10.769s0 0.718-0.718 0.718" fill="none" stroke="#000" stroke-width="3.75"/>
  <path id="path595" transform="translate(0 7.385)" d="m177.33 463.38 15.795-12.205" fill="none" stroke="#000" stroke-width="3.75"/>
  <path id="path596" transform="translate(0 7.385)" d="m176.61 456.92h17.231" fill="none" stroke="#000" stroke-width="3.75"/>
  <path id="path658" transform="translate(0 3.635)" d="m191.05 203.91c-1.5823-7.9114-4.7468-37.975 1.5823-61.709 11.076-1.5823 77.532 0 90.19 1.5822-12.658 0-90.19 12.658-91.772 60.127z" fill="#fff" fill-opacity=".5" fill-rule="evenodd" stroke-width="1pt"/>
  <path id="path659" transform="translate(0 3.635)" d="m156.59 186.3c0-10.439 2.0878-94.996 10.439-97.084 4.1757-1.0439 82.469-3.1318 110.65-2.0879-114.83 9.3953-114.83-13.571-121.09 99.172z" fill="#fff" fill-opacity=".5" fill-rule="evenodd" stroke-width="1pt"/>
 </g>
 <metadata id="metadata56">
  <rdf:RDF>
   <cc:Work rdf:about="">
    <dc:title>Clipart by Nicu Buculei - book_01</dc:title>
    <dc:rights>
     <cc:Agent>
      <dc:title>Nicu Buculei</dc:title>
     </cc:Agent>
    </dc:rights>
    <dc:type rdf:resource="http://purl.org/dc/dcmitype/StillImage"/>
    <cc:license rdf:resource="http://web.resource.org/cc/PublicDomain"/>
    <dc:format>image/svg+xml</dc:format>
   </cc:Work>
   <cc:License rdf:about="http://web.resource.org/cc/PublicDomain">
    <cc:permits rdf:resource="http://web.resource.org/cc/Reproduction"/>
    <cc:permits rdf:resource="http://web.resource.org/cc/Distribution"/>
    <cc:permits rdf:resource="http://web.resource.org/cc/DerivativeWorks"/>
   </cc:License>
  </rdf:RDF>
 </metadata>
</svg>
