<?xml version="1.0" encoding="UTF-8"?>
<!-- Created with Sodipodi ("http://www.sodipodi.com/") -->
<svg id="svg548" width="389.6" height="448.95" version="1.1" xmlns="http://www.w3.org/2000/svg" xmlns:cc="http://creativecommons.org/ns#" xmlns:dc="http://purl.org/dc/elements/1.1/" xmlns:rdf="http://www.w3.org/1999/02/22-rdf-syntax-ns#" xmlns:xlink="http://www.w3.org/1999/xlink">
 <defs id="defs550">
  <linearGradient id="linearGradient614" x1="198.35" x2="-69.953" y1="207.96" y2="-63.515" gradientTransform="scale(1.0622 .94143)" gradientUnits="userSpaceOnUse" spreadMethod="reflect">
   <stop id="stop612" stop-color="#544742" offset="0"/>
   <stop id="stop613" stop-color="#f5ffff" offset="1"/>
  </linearGradient>
 </defs>
 <g id="g818" transform="translate(-46.859 -9.2759)" fill-rule="evenodd" stroke="#000" stroke-width="1pt">
  <g id="g801">
   <path id="path607" transform="translate(-.84792 19.502)" d="m119.56 425.38v12.719l316.28-93.272 0.848-15.262-317.12 95.815z" fill="#b3b3b3"/>
   <g id="g798" fill="#ccc">
    <path id="path606" transform="translate(-.84792 19.502)" d="m166.19 347.37-46.636 78.857 317.12-96.663-91.576-31.374-178.91 49.18z"/>
    <path id="path605" transform="matrix(.70812 0 0 .82531 71.307 59.206)" d="m139.06 335.5s-11.871 18.654-6.784 33.917c4.24 18.655 17.807 22.894 21.199 22.894s223.7-57.43 223.7-57.43 6.083-12.1 9.475-31.602c-6.783-23.742-19.502-26.286-33.917-26.286-23.742-13.566 0.849 0 0.849 0l-214.52 58.507z"/>
   </g>
  </g>
  <g id="g811">
   <path id="path602" d="m420.57 16.684c0 0.8479-21.199-5.0876-43.245-6.7835-10.175 0.84797-311.19 55.963-313.73 55.963 4.2396-0.8479-9.3272 0-12.719 7.6313s-3.3917 269.64-3.3917 269.64 1e-4 7.632 5.0876 13.567c7.6313 3.392 27.981 4.24 20.35 4.24l347.65-344.26z" fill="#b3b3b3"/>
   <g id="g806">
    <path id="path600" transform="matrix(.99544 0 0 .91016 2.818 -20.11)" d="m71.233 108.01 347.64-67.583c5.088 3.3917 10.176 0.848 12.72 11.023 2.544 10.175-0.848 253.53-0.848 253.53s1.695 7.631-4.24 11.871c-5.936 4.239-346.84 100.06-346.84 100.06s-10.175 4.239-16.111-4.24c-8.479-2.543-3.3568-288.29-3.3568-288.29s0.8246-13.65 11.031-16.361z" fill="#ccc"/>
    <g id="g795">
     <path id="path603" d="m89.032 98.084 305.25-59.354s7.631-2.5438 13.567 6.7834c5.935 9.3271 4.239 13.567 4.239 13.567v175.52c-0.848 9.327 0.848 5.935-4.239 16.111-10.176 3.391-302.71 83.096-302.71 83.096s0 1.696-10.175 0c-10.175-1.696-13.567-17.806-13.567-18.654s-3.3917-199.26-3.3917-199.26 1.696-14.415 11.023-17.807z" fill="url(#linearGradient614)"/>
     <path id="path604" d="m368.85 266.82 29.677-8.479v13.567s-29.677 7.631-29.677 8.479v-13.567z" fill="#00feb3"/>
    </g>
   </g>
  </g>
 </g>
 <path id="path568" d="m41.749 291.36s-9.4937-170.89-1.5823-196.2c15.823-7.9121 234.18-42.722 234.18-42.722s-235.76 17.405-232.6 238.92z" fill="#fff" fill-opacity=".5" fill-rule="evenodd"/>
 <path id="path569" d="m301.24 318.26s66.456 12.658 60.127 20.569c-6.329 7.912-137.66 45.886-137.66 45.886s161.39-49.05 77.531-66.455z" fill="#fff" fill-opacity=".49804" fill-rule="evenodd"/>
 <path id="path570" d="m128.77 329.33c-4.747 7.911-15.823 14.24 0 39.557 14.241-1.583 15.822-34.81 0-39.557z" fill="#fff" fill-opacity=".49804" fill-rule="evenodd"/>
 <metadata id="metadata27">
  <rdf:RDF>
   <cc:Work rdf:about="">
    <dc:title>Clipart by Nicu Buculei - antenna</dc:title>
    <dc:rights>
     <cc:Agent>
      <dc:title>Nicu Buculei</dc:title>
     </cc:Agent>
    </dc:rights>
    <dc:type rdf:resource="http://purl.org/dc/dcmitype/StillImage"/>
    <cc:license rdf:resource="http://web.resource.org/cc/PublicDomain"/>
    <dc:format>image/svg+xml</dc:format>
   </cc:Work>
   <cc:License rdf:about="http://web.resource.org/cc/PublicDomain">
    <cc:permits rdf:resource="http://web.resource.org/cc/Reproduction"/>
    <cc:permits rdf:resource="http://web.resource.org/cc/Distribution"/>
    <cc:permits rdf:resource="http://web.resource.org/cc/DerivativeWorks"/>
   </cc:License>
  </rdf:RDF>
 </metadata>
</svg>
