<?xml version="1.0" encoding="UTF-8"?>
<!-- Created with Sodipodi ("http://www.sodipodi.com/") -->
<svg id="svg548" width="463.92" height="376.66" version="1.1" xmlns="http://www.w3.org/2000/svg" xmlns:cc="http://creativecommons.org/ns#" xmlns:dc="http://purl.org/dc/elements/1.1/" xmlns:rdf="http://www.w3.org/1999/02/22-rdf-syntax-ns#">
 <g id="g908" transform="translate(-7.3342 -66.25)">
  <path id="path646" transform="translate(1.25,-18.75)" d="m127.5 91.25c262.5 1.25 333.75 1.25 333.75 1.25l-88.75 296.25h-338.75l93.75-297.5z" fill="#e6e6e6" fill-rule="evenodd" stroke="#000" stroke-linejoin="round" stroke-width="10"/>
  <path id="path653" transform="translate(3.75,-22.5)" d="m301.25 111.25 140 1.25-15 48.75s-142.5 2.5-142.5 1.25 20-51.25 17.5-51.25z" fill="#a6a6a6" fill-rule="evenodd" stroke="#000" stroke-width="3.75"/>
  <path id="path647" transform="translate(3.75,-22.5)" d="m32.5 388.75s-1.25 37.5 0 37.5 340 1.25 340 1.25v-38.75h-340z" fill="#a6a6a6" fill-rule="evenodd" stroke="#000" stroke-linejoin="round" stroke-width="10"/>
  <path id="path649" transform="translate(3.75,-22.5)" d="m461.25 93.75 1.25 116.25-18.75 60-2.5-33.75c-26.25 62.5-46.25 105-67.5 191.25l-1.25-38.75 88.75-295z" fill="#a6a6a6" fill-rule="evenodd" stroke="#000" stroke-linejoin="round" stroke-width="10"/>
  <path id="path651" transform="translate(3.75,-22.5)" d="m141.25 108.75 93.75 1.25c-20 13.75-76.25 222.5-71.25 233.75 3.75 1.25-101.25 2.5-100 1.25 19.583-86.25 42.917-163.75 77.5-236.25z" fill="none" stroke="#000" stroke-linejoin="round" stroke-width="10"/>
  <path id="path652" transform="translate(3.75,-22.5)" d="m62.5 345v33.75h108.75l13.75-37.5-3.75-28.75c9.583-55.833 21.667-100.42 43.75-141.25l5 27.5 16.25-45-13.75-43.75c-35.833 77.083-52.917 146.67-70 235h-100z" fill="#a6a6a6" fill-rule="evenodd" stroke="#000" stroke-linejoin="round" stroke-width="10"/>
  <path id="path654" transform="translate(3.75,-22.5)" d="m305 115c2.5 0 127.5 1.25 127.5 1.25l-11.25 40s-131.25 2.5-131.25 1.25 17.5-42.5 15-42.5z" fill="#a6c9a6" fill-rule="evenodd" stroke="#000" stroke-width="3.75"/>
  <path id="path655" transform="matrix(.97117 -.051417 .041264 .7794 21.048 19.747)" d="m407.5 190-10 33.75-43.75 1.25 20-36.25 33.75 1.25z" fill="#f3f3f3" fill-rule="evenodd" stroke="#000" stroke-width="7.1737"/>
  <path id="path656" transform="matrix(.97117 -.051417 .041264 .7794 21.048 19.747)" d="m353.75 225v10h46.25l15-33.75-6.25-11.25-13.75 35h-41.25z" fill="#f3f3f3" fill-rule="evenodd" stroke="#000" stroke-width="7.1737"/>
  <path id="path658" transform="matrix(.97117 -.051417 .041264 .7794 -34.846 21.729)" d="m407.5 190-10 33.75-43.75 1.25 20-36.25 33.75 1.25z" fill="#f3f3f3" fill-rule="evenodd" stroke="#000" stroke-width="7.1737"/>
  <path id="path659" transform="matrix(.97117 -.051417 .041264 .7794 -34.846 21.729)" d="m353.75 225v10h46.25l15-33.75-6.25-11.25-13.75 35h-41.25z" fill="#f3f3f3" fill-rule="evenodd" stroke="#000" stroke-width="7.1737"/>
  <path id="path660" transform="matrix(.97117 -.051417 .041264 .7794 -89.526 23.647)" d="m407.5 190-10 33.75-43.75 1.25 20-36.25 33.75 1.25z" fill="#f3f3f3" fill-rule="evenodd" stroke="#000" stroke-width="7.1737"/>
  <path id="path661" transform="matrix(.97117 -.051417 .041264 .7794 -89.526 23.647)" d="m353.75 225v10h46.25l15-33.75-6.25-11.25-13.75 35h-41.25z" fill="#f3f3f3" fill-rule="evenodd" stroke="#000" stroke-width="7.1737"/>
  <path id="path662" transform="matrix(.97117 -.051417 .041264 .7794 2.7052 61.105)" d="m407.5 190-10 33.75-43.75 1.25 20-36.25 33.75 1.25z" fill="#f3f3f3" fill-rule="evenodd" stroke="#000" stroke-width="7.1737"/>
  <path id="path663" transform="matrix(.97117 -.051417 .041264 .7794 2.7052 61.105)" d="m353.75 225v10h46.25l15-33.75-6.25-11.25-13.75 35h-41.25z" fill="#f3f3f3" fill-rule="evenodd" stroke="#000" stroke-width="7.1737"/>
  <path id="path664" transform="matrix(.97117 -.051417 .041264 .7794 -53.189 63.088)" d="m407.5 190-10 33.75-43.75 1.25 20-36.25 33.75 1.25z" fill="#f3f3f3" fill-rule="evenodd" stroke="#000" stroke-width="7.1737"/>
  <path id="path665" transform="matrix(.97117 -.051417 .041264 .7794 -53.189 63.088)" d="m353.75 225v10h46.25l15-33.75-6.25-11.25-13.75 35h-41.25z" fill="#f3f3f3" fill-rule="evenodd" stroke="#000" stroke-width="7.1737"/>
  <path id="path666" transform="matrix(.97117 -.051417 .041264 .7794 -107.87 65.005)" d="m407.5 190-10 33.75-43.75 1.25 20-36.25 33.75 1.25z" fill="#f3f3f3" fill-rule="evenodd" stroke="#000" stroke-width="7.1737"/>
  <path id="path667" transform="matrix(.97117 -.051417 .041264 .7794 -107.87 65.005)" d="m353.75 225v10h46.25l15-33.75-6.25-11.25-13.75 35h-41.25z" fill="#f3f3f3" fill-rule="evenodd" stroke="#000" stroke-width="7.1737"/>
  <path id="path668" transform="matrix(.97117 -.051417 .041264 .7794 -14.356 104.28)" d="m407.5 190-10 33.75-43.75 1.25 20-36.25 33.75 1.25z" fill="#f3f3f3" fill-rule="evenodd" stroke="#000" stroke-width="7.1737"/>
  <path id="path669" transform="matrix(.97117 -.051417 .041264 .7794 -14.356 104.28)" d="m353.75 225v10h46.25l15-33.75-6.25-11.25-13.75 35h-41.25z" fill="#f3f3f3" fill-rule="evenodd" stroke="#000" stroke-width="7.1737"/>
  <path id="path670" transform="matrix(.97117 -.051417 .041264 .7794 -70.25 106.27)" d="m407.5 190-10 33.75-43.75 1.25 20-36.25 33.75 1.25z" fill="#f3f3f3" fill-rule="evenodd" stroke="#000" stroke-width="7.1737"/>
  <path id="path671" transform="matrix(.97117 -.051417 .041264 .7794 -70.25 106.27)" d="m353.75 225v10h46.25l15-33.75-6.25-11.25-13.75 35h-41.25z" fill="#f3f3f3" fill-rule="evenodd" stroke="#000" stroke-width="7.1737"/>
  <path id="path672" transform="matrix(.97117 -.051417 .041264 .7794 -124.93 108.18)" d="m407.5 190-10 33.75-43.75 1.25 20-36.25 33.75 1.25z" fill="#f3f3f3" fill-rule="evenodd" stroke="#000" stroke-width="7.1737"/>
  <path id="path673" transform="matrix(.97117 -.051417 .041264 .7794 -124.93 108.18)" d="m353.75 225v10h46.25l15-33.75-6.25-11.25-13.75 35h-41.25z" fill="#f3f3f3" fill-rule="evenodd" stroke="#000" stroke-width="7.1737"/>
  <path id="path679" transform="matrix(.97117 -.051417 .041264 .7794 -32.072 148.11)" d="m407.5 190-10 33.75-43.75 1.25 20-36.25 33.75 1.25z" fill="#f3f3f3" fill-rule="evenodd" stroke="#000" stroke-width="7.1737"/>
  <path id="path680" transform="matrix(.97117 -.051417 .041264 .7794 -32.072 148.11)" d="m353.75 225v10h46.25l15-33.75-6.25-11.25-13.75 35h-41.25z" fill="#f3f3f3" fill-rule="evenodd" stroke="#000" stroke-width="7.1737"/>
  <path id="path681" transform="matrix(.97117 -.051417 .041264 .7794 -87.966 150.09)" d="m407.5 190-10 33.75-43.75 1.25 20-36.25 33.75 1.25z" fill="#f3f3f3" fill-rule="evenodd" stroke="#000" stroke-width="7.1737"/>
  <path id="path682" transform="matrix(.97117 -.051417 .041264 .7794 -87.966 150.09)" d="m353.75 225v10h46.25l15-33.75-6.25-11.25-13.75 35h-41.25z" fill="#f3f3f3" fill-rule="evenodd" stroke="#000" stroke-width="7.1737"/>
  <path id="path683" transform="matrix(.97117 -.051417 .041264 .7794 -142.65 152.01)" d="m407.5 190-10 33.75-43.75 1.25 20-36.25 33.75 1.25z" fill="#f3f3f3" fill-rule="evenodd" stroke="#000" stroke-width="7.1737"/>
  <path id="path684" transform="matrix(.97117 -.051417 .041264 .7794 -142.65 152.01)" d="m353.75 225v10h46.25l15-33.75-6.25-11.25-13.75 35h-41.25z" fill="#f3f3f3" fill-rule="evenodd" stroke="#000" stroke-width="7.1737"/>
  <path id="path734" transform="translate(3.75,-22.5)" d="m202.5 352.5h162.5" fill="none" stroke="#000" stroke-width="6.25"/>
  <path id="path735" transform="translate(3.75,-22.5)" d="m198.75 365h155" fill="none" stroke="#000" stroke-width="6.25"/>
  <path id="path736" transform="translate(3.75,-22.5)" d="m193.75 375c3.75 0 148.75 1.25 148.75 1.25" fill="none" stroke="#000" stroke-width="6.25"/>
  <path id="path738" transform="translate(3.75,-22.5)" d="m86.25 353.75 36.25-1.25v20l-13.75 8.75h-35l12.5-27.5z" fill="#030000" fill-rule="evenodd" stroke="#000" stroke-width="1pt"/>
  <path id="path740" transform="translate(3.75,-22.5)" d="m103.75 378.75s-1.25 31.25-17.5 67.5c-13.75 5-18.75 13.75-33.75 17.5-18.75 2.5-35 1.25-40-12.5-6.25-15-11.25-20-6.25-45s6.25-40 22.5-62.5c17.5-22.5 25-28.75 25-28.75s-11.25 32.5-11.25 33.75-5 12.5-10 20-10 15-11.25 26.25-2.5 10-1.25 22.5-1.25 26.25 8.75 27.5 15 3.75 25 0c10-5 23.75-12.5 26.25-30s3.75-35 3.75-37.5 20 1.25 20 1.25z" fill="#030000" fill-rule="evenodd" stroke="#000" stroke-width="1pt"/>
  <path id="path674" d="m78.895 296.43c-0.974-0.974 57.466-199.67 74.024-202.59s38.96 0.97388 47.726 4.8699c-18.506 7.7918-63.31 40.909-121.75 197.72z" fill="#fff" fill-opacity=".49804" fill-rule="evenodd" stroke-width="1pt"/>
  <path id="path675" d="m131.49 399.68s225 4.87 237.66-1.948c1.949-13.636 5.845-23.376 0-27.272-13.636 9.74-43.83 21.428-237.66 29.22z" fill-opacity=".25" fill-rule="evenodd" stroke-width="1pt"/>
  <path id="path676" d="m423.69 228.25c1.948-8.766 34.09-128.57 36.038-122.72 3.896 5.844 1.948 60.389 1.948 80.843-8.766-6.818 7.792-91.557-37.986 41.882z" fill-opacity=".24706" fill-rule="evenodd" stroke-width="6.25"/>
  <path id="path677" d="m209.41 166.89s19.481-61.363 25.325-62.337 9.74 27.272 9.74 27.272-5.844-23.376-35.065 35.065z" fill-opacity=".24706" fill-rule="evenodd" stroke-width="6.25"/>
  <path id="path678" d="m179.22 283.77c-2.922 15.584-9.74 30.194-7.792 42.856s4.87 14.61 4.87 14.61c3.896-9.74 0.974-33.116 2.922-57.466z" fill-opacity=".24706" fill-rule="evenodd" stroke-width="1pt"/>
 </g>
 <metadata id="metadata49">
  <rdf:RDF>
   <cc:Work rdf:about="">
    <dc:title>Clipart by Nicu Buculei - book_01</dc:title>
    <dc:rights>
     <cc:Agent>
      <dc:title>Nicu Buculei</dc:title>
     </cc:Agent>
    </dc:rights>
    <dc:type rdf:resource="http://purl.org/dc/dcmitype/StillImage"/>
    <cc:license rdf:resource="http://web.resource.org/cc/PublicDomain"/>
    <dc:format>image/svg+xml</dc:format>
   </cc:Work>
   <cc:License rdf:about="http://web.resource.org/cc/PublicDomain">
    <cc:permits rdf:resource="http://web.resource.org/cc/Reproduction"/>
    <cc:permits rdf:resource="http://web.resource.org/cc/Distribution"/>
    <cc:permits rdf:resource="http://web.resource.org/cc/DerivativeWorks"/>
   </cc:License>
  </rdf:RDF>
 </metadata>
</svg>
