<?xml version="1.0" encoding="UTF-8"?>
<!DOCTYPE svg  PUBLIC '-//W3C//DTD SVG 20010904//EN'  'http://www.w3.org/TR/2001/REC-SVG-20010904/DTD/svg10.dtd'>
<!-- Created with Sodipodi ("http://www.sodipodi.com/") -->
<svg id="svg570" width="450pt" height="450pt" xmlns="http://www.w3.org/2000/svg" xmlns:xlink="http://www.w3.org/1999/xlink">
 <defs id="defs572">
  <radialGradient id="radialGradient577">
   <stop id="stop575" stop-color="#ff0700" offset="0"/>
   <stop id="stop576" stop-color="#e50a17" offset="1"/>
  </radialGradient>
  <radialGradient id="radialGradient572">
   <stop id="stop574" stop-color="#fffffa" stop-opacity=".82353" offset="0"/>
   <stop id="stop577" stop-color="#fff" stop-opacity="0" offset="1"/>
  </radialGradient>
 </defs>
 <path id="path582" d="m290.26 127.48c0.458-4.828 1.813-9.059 3.397-13.63 3.577-8.004 7.663-15.393 12.412-22.76 4.496-6.1792 9.282-12.092 14.086-18.035 6.249-7.1537 11.521-11.302 20.496-14.509 9.83-0.9791 15.923 0.4194 24.467 5.3711 3.961 3.4419 7.174 7.0523 10.335 11.24l-13.095 9.7041c-2.049-2.7055-4.106-5.1709-6.627-7.4439-3.951-2.3785-6.682-3.1202-11.286-2.776-5.332 1.7096-8.033 4.6656-11.692 8.8659-4.502 5.5549-9.023 11.061-13.253 16.827-4.089 6.262-7.617 12.468-10.586 19.336-0.831 2.589-1.919 5.059-1.664 7.81h-16.99z"/>
 <path id="path590" d="m345.26 158.73c1.39-5.208 4.064-9.456 7.246-14.529 4.878-6.861 10.019-13.504 15.162-20.169 4.166-5.298 8.179-10.205 13.279-14.619 6.854-4.506 12.528-6.799 20.676-7.866 9.284 1.649 15.241 4.626 22.365 10.8 4.247 5.09 7.448 10.25 10.496 16.13 0.202 0.401 0.403 0.802 0.604 1.204l-14.621 7.536-0.561-1.101c-2.251-4.256-4.487-8.224-7.486-11.994-3.368-3.044-6.25-4.963-10.69-6.005-4.218 0.427-7.272 2.244-10.793 4.566-4.019 3.416-7.19 7.443-10.513 11.535-4.898 6.207-9.727 12.419-14.235 18.915-1.791 3.05-5.47 13.646-3.939 5.597h-16.99z"/>
 <path id="path592" d="m399.05 211.38c-2.092 2.557 6.115-6.734 7.665-8.382 6.006-6.292 11.958-12.617 17.769-19.089 5.187-5.528 10.133-10.189 16.61-14.141 7.118-2.825 12.666-3.834 20.311-3.181 8.331 3.047 13.692 7.067 19.738 13.537 3.078 4.33 5.395 8.532 7.433 13.437l-15.405 5.7c-1.225-3.112-2.631-5.751-4.538-8.498-3.182-3.455-6.016-6.084-10.389-7.854-3.502-0.396-6.366 0.477-9.655 1.7-4.75 2.776-8.322 6.402-12.13 10.356-5.919 6.464-11.956 12.815-17.909 19.247-2.654 3.05-5.145 6.198-7.551 9.365l-11.949-12.197z"/>
 <path id="path579" d="m119.98 333.58c-1.157-0.196-6.699 0.42-9.241 0.634-8.857 0.896-17.694 1.947-26.528 3.043-6.5661 0.948-12.82 1.748-18.94 4.345-2.9858 2.037-4.0056 3.446-4.9657 6.932-0.448 5.55-0.1599 11.145-0.2123 16.718-0.3827 5.92-1.1924 11.623-2.2792 17.454l-15.952-3.277c0.8589-4.843 1.5458-9.608 1.8747-14.515 0.0409-6.656-0.1935-13.191 0.4516-19.816 2.7464-8.794 6.1389-13.291 13.841-18.364 7.9787-3.208 15.665-4.48 24.178-5.621 8.9392-1.087 17.879-2.166 26.815-3.274 3.652-0.466 7.3-1.039 10.958-1.423v17.164z"/>
 <path id="path580" d="m152.48 382.33c6.39-1.204-1.752 2.231-4.125 3.796-7.753 5.481-15.415 11.081-23.219 16.489-7.35 4.77-14.718 8.867-22.681 12.521-2.9078 1.333-5.0233 1.628-5.2243 3.702-0.1618 6.228 1.8857 11.14 4.3003 16.848 3.056 6.134 6.028 12.243 8.692 18.559l-15.2 6.174c-2.4232-6.078-5.2022-11.916-8.0805-17.791-3.9478-9.238-6.2075-16.683-5.9019-26.756 3.1031-9.01 6.3869-12.166 15.038-15.955 7.0902-3.1 13.591-6.62 20.118-10.779 7.769-5.342 15.337-10.916 22.896-16.551 4.488-3.247 8.031-6.08 13.387-7.421v17.164z"/>
 <path id="path581" d="m213.5 417.52c-2.221 6.757-6.484 10.481-11.375 15.803-8.163 8.948-16.366 17.386-25.56 25.281-5.462 4.392-11.29 8.466-15.578 14.047-1.269 3.208-1.584 6.385-1.727 9.822 0.951 4.203 4.04 6.452 7.162 9.264 5.692 4.148 11.634 7.826 17.564 11.622l-9.009 13.735c-6.243-4.206-12.578-8.212-18.673-12.634-7.541-6.75-11.743-11.726-13.566-21.766 0.355-7.14 1.495-12.83 4.515-19.321 5.63-6.83 12.366-11.862 19.346-17.293 8.588-7.261 16.086-15.058 23.526-23.485 2.734-3.262 8.709-14.542 6.385-5.075h16.99z"/>
 <path id="path595" transform="translate(8.75 -15)" d="m190 164.38a60 60.625 0 1 0-120 0 60 60.625 0 1 0 120 0h-60z" fill="#000500" fill-rule="evenodd"/>
 <path id="path583" transform="matrix(.89671 -.50112 .53966 .96566 -161.95 140.56)" d="m456.25 306.88a160.62 170.62 0 1 0-321.25 0 160.62 170.62 0 1 0 321.25 0h-160.62z" fill="url(#radialGradient577)" fill-rule="evenodd"/>
 <path id="path584" d="m177.5 196.25 207.5 232.5" fill="none" stroke="#000" stroke-width="1pt"/>
 <path id="path585" transform="translate(-16.25 -8.75)" d="m325 198.12a40.625 40.625 0 1 0-81.25 0 40.625 40.625 0 1 0 81.25 0h-40.625z" fill="#000001" fill-rule="evenodd"/>
 <path id="path586" transform="translate(-35 6.25)" d="m415 228.12a25.625 26.875 0 1 0-51.25 0 25.625 26.875 0 1 0 51.25 0h-25.625z" fill="#000101" fill-rule="evenodd"/>
 <path id="path587" d="m421.25 351.25a37.5 37.5 0 1 0-75 0 37.5 37.5 0 1 0 75 0h-37.5z" fill="#000101" fill-rule="evenodd"/>
 <path id="path588" d="m333.75 423.75a26.875 27.5 0 1 0-53.75 0 26.875 27.5 0 1 0 53.75 0h-26.875z" fill="#000101" fill-rule="evenodd"/>
 <path id="path589" transform="translate(6.25 -6.25)" d="m247.5 385a40 41.25 0 1 0-80 0 40 41.25 0 1 0 80 0h-40z" fill="#000101" fill-rule="evenodd"/>
 <path id="path591" transform="translate(5 20)" d="m177.5 256.25a28.75 28.75 0 1 0-57.5 0 28.75 28.75 0 1 0 57.5 0h-28.75z" fill="#000101" fill-rule="evenodd"/>
 <path id="path597" transform="matrix(-6.123e-17 1 1 6.123e-17 -48.448 44.698)" d="m87.5 136.25c-25.833 7.5-42.917-8.75-55-22.5" fill="none" stroke="#000" stroke-width="3.75"/>
 <path id="path599" transform="matrix(-6.123e-17 1 1 6.123e-17 -22.198 19.698)" d="m87.5 136.25c-25.833 7.5-42.917-8.75-55-22.5" fill="none" stroke="#000" stroke-width="3.75"/>
 <path id="path578" transform="matrix(.84784 -.50728 1.4698 1.5247 -441.85 -140.25)" d="m331.25 353.75a64.375 66.25 0 1 0-128.75 0 64.375 66.25 0 1 0 128.75 0h-64.375z" fill="url(#radialGradient572)" fill-rule="evenodd"/>
 <metadata>
  <rdf:RDF xmlns="http://web.resource.org/cc/" xmlns:dc="http://purl.org/dc/elements/1.1/" xmlns:rdf="http://www.w3.org/1999/02/22-rdf-syntax-ns#">
   <Work rdf:about="">
    <dc:title>ladybug</dc:title>
    <dc:description/>
    <dc:subject>
     <rdf:Bag>
      <rdf:li>bug</rdf:li>
      <rdf:li>animal</rdf:li>
      <rdf:li>ladybug</rdf:li>
      <rdf:li>insect</rdf:li>
     </rdf:Bag>
    </dc:subject>
    <dc:publisher>
     <Agent rdf:about="http://www.openclipart.org">
      <dc:title>HASH(0x84f1b80)</dc:title>
     </Agent>
    </dc:publisher>
    <dc:creator>
     <Agent rdf:about="">
      <dc:title>vance</dc:title>
     </Agent>
    </dc:creator>
    <dc:rights>
     <Agent rdf:about="">
      <dc:title>vance</dc:title>
     </Agent>
    </dc:rights>
    <dc:date/>
    <dc:format>image/svg+xml</dc:format>
    <dc:type rdf:resource="http://purl.org/dc/dcmitype/StillImage"/>
    <license rdf:resource="Public Domain">
     <dc:date/>
    </license>
    <dc:language>en</dc:language>
   </Work>
   <License rdf:about="Public Domain">
    <permits rdf:resource="http://web.resource.org/cc/Reproduction"/>
    <permits rdf:resource="http://web.resource.org/cc/Distribution"/>
    <permits rdf:resource="http://web.resource.org/cc/DerivativeWorks"/>
   </License>
  </rdf:RDF>
 </metadata>
</svg>
