<?xml version="1.0" encoding="UTF-8"?>
<!-- Created with Inkscape (http://www.inkscape.org/) -->
<svg id="svg2" width="336.65" height="389.16" version="1.0" xmlns="http://www.w3.org/2000/svg" xmlns:cc="http://creativecommons.org/ns#" xmlns:dc="http://purl.org/dc/elements/1.1/" xmlns:rdf="http://www.w3.org/1999/02/22-rdf-syntax-ns#" xmlns:xlink="http://www.w3.org/1999/xlink">
 <metadata id="metadata304">
  <rdf:RDF>
   <cc:Work rdf:about="">
    <dc:format>image/svg+xml</dc:format>
    <dc:type rdf:resource="http://purl.org/dc/dcmitype/StillImage"/>
   </cc:Work>
  </rdf:RDF>
 </metadata>
 <defs id="defs4">
  <linearGradient id="linearGradient4182">
   <stop id="stop4190" stop-color="#fff" stop-opacity="0" offset="0"/>
   <stop id="stop4192" stop-color="#fff" offset=".66226"/>
   <stop id="stop4194" stop-color="#fff" stop-opacity=".31034" offset=".7693"/>
   <stop id="stop4196" stop-color="#fff" stop-opacity=".73333" offset=".85417"/>
   <stop id="stop4186" stop-color="#fff" stop-opacity="0" offset="1"/>
  </linearGradient>
  <linearGradient id="linearGradient4069">
   <stop id="stop4071" stop-color="#929292" offset="0"/>
   <stop id="stop4073" stop-opacity=".99804" offset="1"/>
  </linearGradient>
  <linearGradient id="linearGradient3985">
   <stop id="stop3987" stop-color="#d7a801" offset="0"/>
   <stop id="stop3989" stop-color="#e3700d" offset="1"/>
  </linearGradient>
  <filter id="filter4156" x="-.4119" y="-.31789" width="1.8238" height="1.6358">
   <feGaussianBlur id="feGaussianBlur4158" stdDeviation="1.2330559"/>
  </filter>
  <filter id="filter4224" x="-.5813" y="-.067073" width="2.1626" height="1.1341">
   <feGaussianBlur id="feGaussianBlur4226" stdDeviation="1.0096566"/>
  </filter>
  <filter id="filter4506" x="-.2942" y="-.080597" width="1.5884" height="1.1612">
   <feGaussianBlur id="feGaussianBlur4508" stdDeviation="5.4287614"/>
  </filter>
  <filter id="filter3492">
   <feGaussianBlur id="feGaussianBlur3494" stdDeviation="0.29475136"/>
  </filter>
  <filter id="filter7726" x="-.21325" y="-.055805" width="1.4265" height="1.1116">
   <feGaussianBlur id="feGaussianBlur7728" stdDeviation="0.64433597"/>
  </filter>
  <filter id="filter4407" x="-.049358" y="-.14068" width="1.0987" height="1.2814">
   <feGaussianBlur id="feGaussianBlur4409" stdDeviation="9.3886048"/>
  </filter>
  <filter id="filter6222">
   <feGaussianBlur id="feGaussianBlur6224" stdDeviation="1.1252545"/>
  </filter>
  <radialGradient id="radialGradient2993" cx="162.45" cy="196.59" r="102.65" gradientTransform="matrix(.66543 .74646 -.58372 .52035 144.46 -23.956)" gradientUnits="userSpaceOnUse" xlink:href="#linearGradient3985"/>
  <radialGradient id="radialGradient2995" cx="195.08" cy="157.81" r="73.724" gradientTransform="matrix(.66543 .74646 -1.0753 .95853 225.31 -96.036)" gradientUnits="userSpaceOnUse" xlink:href="#linearGradient3985"/>
  <radialGradient id="radialGradient2997" cx="368.6" cy="119.15" r="3.5938" gradientTransform="matrix(.42736 .17414 -.46992 1.1532 49.948 -71.038)" gradientUnits="userSpaceOnUse" xlink:href="#linearGradient4069"/>
  <radialGradient id="radialGradient2999" cx="368.6" cy="119.15" r="3.5938" gradientTransform="matrix(-.42544 .17878 .48242 1.148 266.22 -72.213)" gradientUnits="userSpaceOnUse" xlink:href="#linearGradient4069"/>
  <radialGradient id="radialGradient3001" cx="416.86" cy="149.64" r="2.0843" gradientTransform="matrix(1.9346 -2.0376e-5 .00024442 8.6667 -389.64 -1147.2)" gradientUnits="userSpaceOnUse">
   <stop id="stop4233" stop-color="#fff" stop-opacity="0" offset="0"/>
   <stop id="stop4235" stop-color="#fff" offset=".60502"/>
   <stop id="stop4237" stop-color="#fff" stop-opacity=".31034" offset=".79441"/>
   <stop id="stop4239" stop-color="#fff" stop-opacity=".73333" offset=".875"/>
   <stop id="stop4241" stop-color="#fff" stop-opacity="0" offset="1"/>
  </radialGradient>
  <radialGradient id="radialGradient3003" cx="412.78" cy="209.42" r="8.8535" gradientTransform="matrix(-.035947 .68807 -.97616 -.050998 378.83 -52.094)" gradientUnits="userSpaceOnUse" xlink:href="#linearGradient4182"/>
  <radialGradient id="radialGradient3005" cx="412.78" cy="209.42" r="8.8535" gradientTransform="matrix(-.035947 .68807 -.97616 -.050998 378.29 -41.169)" gradientUnits="userSpaceOnUse" xlink:href="#linearGradient4182"/>
  <radialGradient id="radialGradient3007" cx="412.78" cy="209.42" r="8.8535" gradientTransform="matrix(-.035947 .68807 -.97616 -.050998 378.81 -29.824)" gradientUnits="userSpaceOnUse" xlink:href="#linearGradient4182"/>
  <radialGradient id="radialGradient3009" cx="412.78" cy="209.42" r="8.8535" gradientTransform="matrix(-.035947 .68807 -.97616 -.050998 379.1 -20.562)" gradientUnits="userSpaceOnUse" xlink:href="#linearGradient4182"/>
  <radialGradient id="radialGradient3011" cx="412.78" cy="209.42" r="8.8535" gradientTransform="matrix(-.037371 -.68767 -.82676 .060794 348.57 535)" gradientUnits="userSpaceOnUse" xlink:href="#linearGradient4182"/>
 </defs>
 <g id="layer2" transform="translate(1.2611 7.6844)">
  <g id="g2818" transform="matrix(.6371 -.77078 .77078 .6371 -74.813 196.93)">
   <path id="path4330" d="m63.747 138.3c-28.241 0.2283-56.449 3.2318-83.853 10.081-18.4 5.3205-46.177 17.505-49.776 29.771-3.2652 11.37 8.0773 14.567 12.927 21.086 6.6647 6.3417 17.528 6.3484 26.201 8.0765 6.7547-0.35197 9.3901 9.8391 17.785 6.4347 11.032-3.6158 14.489 11.683 25.488 9.2679 6.872 5.5387 15.566 9.1184 22.89 14.282 4.8458 1.6632 9.9602 1.9733 14.855 1.9506-1.5427 4.1145-5.1132 7.6124-3.3407 12.081 4.2917 7.1521 4.9241 16.483 13.052 21.086 5.4745 5.3457 5.6626 18.239 16.436 17.005 8.4046-1.4025 11.494 12.556 21.068 6.6669 7.585-6.9169 15.564 4.3944 23.586-1.5032 8.8784-3.228 17.712 5.8552 26.686-0.36375 6.8236-3.7332 7.2968-15.073 8.5456-20.39-1.9124-42.197-3.8068-84.399-5.7192-126.6-11.781-3.4057-23.963-5.2542-36.13-6.6163-16.81-1.6064-33.756-2.4553-50.701-2.3183zm187.65-0.92587c-16.945 0.04715-33.913 1.0803-50.704 2.8693-12.151 1.4942-24.313 3.475-36.056 7.0085-1.4538 42.215-2.8894 84.435-4.3432 126.65 1.3065 5.3035 1.9342 16.637 8.7979 20.296 9.0414 6.1211 17.744-3.0574 26.657 0.07392 8.0851 5.8101 15.941-5.5872 23.601 1.2468 9.6375 5.7844 12.575-8.2378 20.994-6.9267 10.787 1.1168 10.835-11.777 16.251-17.182 8.0776-4.6904 8.6088-13.997 12.823-21.195 1.7239-4.4874-1.8844-7.9463-3.4717-12.044 4.8943-0.03047 10.005-0.39602 14.832-2.1119 7.2682-5.243 15.954-8.9171 22.765-14.53 11.025 2.2953 14.315-13.04 25.386-9.5443 8.4317 3.3129 10.925-6.906 17.683-6.6274 8.6533-1.8222 19.516-1.947 26.111-8.3608 4.7788-6.5712 16.086-9.8913 12.697-21.226-3.7323-12.226-31.64-24.139-50.097-29.259-27.476-6.5507-55.684-9.2165-83.926-9.1379z" fill-rule="evenodd" filter="url(#filter4407)" opacity=".47403"/>
   <path id="path3815" d="m65.589 133.08c-28.241 0.2283-56.449 3.2318-83.853 10.081-18.4 5.3205-46.177 17.505-49.776 29.771-3.2652 11.37 8.0773 14.567 12.927 21.086 6.6647 6.3417 17.528 6.3484 26.201 8.0765 6.7547-0.35197 9.3901 9.8391 17.785 6.4347 11.032-3.6158 14.489 11.683 25.488 9.2679 6.872 5.5387 15.566 9.1184 22.89 14.282 4.8458 1.6632 9.9602 1.9733 14.855 1.9506-1.5427 4.1145-5.1132 7.6124-3.3407 12.081 4.2917 7.1521 4.9241 16.483 13.052 21.086 5.4745 5.3457 5.6626 18.239 16.436 17.005 8.4046-1.4025 11.494 12.556 21.068 6.6669 7.585-6.9169 15.564 4.3944 23.586-1.5032 8.8784-3.228 17.712 5.8552 26.686-0.36375 6.8236-3.7332 7.2968-15.073 8.5456-20.39-1.9124-42.197-3.8068-84.399-5.7192-126.6-11.781-3.4057-23.963-5.2542-36.13-6.6163-16.81-1.6064-33.756-2.4553-50.701-2.3183z" fill-rule="evenodd"/>
   <path id="path2470" d="m253.24 132.16c-16.945 0.04715-33.913 1.0803-50.704 2.8693-12.151 1.4942-24.313 3.475-36.056 7.0085-1.4538 42.215-2.8894 84.435-4.3432 126.65 1.3065 5.3035 1.9342 16.637 8.7979 20.296 9.0414 6.1211 17.744-3.0574 26.657 0.07392 8.0851 5.8101 15.941-5.5872 23.601 1.2468 9.6375 5.7844 12.575-8.2378 20.994-6.9267 10.787 1.1168 10.835-11.777 16.251-17.182 8.0776-4.6904 8.6088-13.997 12.823-21.195 1.7239-4.4874-1.8844-7.9463-3.4717-12.044 4.8943-0.03047 10.005-0.39602 14.832-2.1119 7.2682-5.243 15.954-8.9171 22.765-14.53 11.025 2.2953 14.315-13.04 25.386-9.5443 8.4317 3.3129 10.925-6.906 17.683-6.6274 8.6533-1.8222 19.516-1.947 26.111-8.3608 4.7788-6.5712 16.086-9.8913 12.697-21.226-3.7323-12.226-31.64-24.139-50.097-29.259-27.476-6.5507-55.684-9.2165-83.926-9.1379z" fill-rule="evenodd"/>
   <path id="path4314" transform="matrix(.66543 .74646 -.74646 .66543 184.85 -59.964)" d="m147.89 182.76c24.385 21.726 48.265 44.964 74.96 62.154 0.95264-4.8233-2.0091-12.499-5.052-15.845-11.222-12.331-25.89-20.568-39.192-30.349-9.679-4.8949-17.99-12.48-28.465-15.724-0.73686-0.08304-1.5024-0.158-2.251-0.23493z" fill="#c97d00" fill-rule="evenodd" filter="url(#filter3492)" opacity=".94"/>
   <path id="path4328" d="m46.206 143.06c-5.9221 1.6595-12.835 9.6167-14.496 12.36 0.12649 0.47928 0.18486 0.91535 0.19462 1.3115l20.487 3.3887 27.27-2.0544c18.91-6.1269 40.132-9.8391 62.15-12.744 0.12234-0.25989 0.23598-0.52865 0.37075-0.78328-10.778-0.54164-20.958-5.1314-31.84-4.9833-20.486-2.7265-40.676-3.6319-64.138 3.5048zm88.036 6.428c-18.608 2.6818-36.418 6.1241-52.471 11.223l0.031418 0.03108c-13.048 20.038-41.492 40.348-44.109 48.369 0.76153 0.80339 0.48744 0.83856 0.94429 1.9908 1.9483 5.2753 6.1529 9.2799 11.276 10.47 2.1673-0.32125 4.4171-0.95419 6.8926-2.5375 12.61-14.224 29.652-28.118 51.431-41.686 8.1804-9.8752 15.051-20.626 26.005-27.86zm6.1563-0.0022c-10.391 5.2777-17.151 13.998-24.312 23.101 17.132-10.619 19.403-14.491 23.802-19.317 0.06144-1.2758 0.23593-2.5408 0.5107-3.7841zm-110.04 10.129c-3.3589 2.2077-11.171 1.4918-13.281 5.8535-5.827 4.9387-11.943 11.593-10.3 19.588 0.1587 3.2605-7.4645 10.119-0.8091 6.3795 3.4462-3.621 6.8889-5.991 10.121-3.9912 13.31-5.6338 22.587-16.395 33.88-24.592l-19.612-3.2372zm47.229 1.7434-24.116 1.7873 0.44054 0.56012c-11.152 9.5052-26.091 18.322-33.457 28.516 0.60343 1.1567 0.3536 1.2336 0.34732 3.0711 1.6034 7.1319 7.2778 6.9602 12.218 9.994 0.92253 1.8514 31.992-25.577 44.568-43.928zm60.92 4.419c-1.8187 0.01185-3.4772 0.4775-5.761 1.7501-4.6096 5.7828-6.9246 9.8301-14.123 17.577-4.9806 3.4612-8.2226 5.5577-11.364 7.7181l-2.2374 8.0748c1.283 1.6832 1.9723 3.8301 1.7223 6.397-0.27336 2.8069-1.5041 6.1005-3.6019 10.02 1.3883 5.9531 2.259 11.945 2.0665 17.989 1.3865-0.84064 2.6348-1.458 3.6469-1.7386 1.1276-0.31268 1.9162-0.21648 2.7178-0.17103 10.757-19.742 10.966-16.941 14.817-22.143 2.5924-15.2 8.6126-30.309 14.316-45.328-0.60627-0.09501-1.5542-0.14849-2.1992-0.14431zm4.6404 0.81856c-5.753 15.16-11.787 30.23-14.317 45.172l0.21874-0.00118c0.79489 19.149 2.9733 37.917 8.6778 55.704 1.5366-1.1352 3.2915-1.3715 5.8168 0.78091 1.8338 1.311 3.5771 1.7049 5.1954 1.4405-5.2548-32.98-4.3578-67.251-4.4251-101.23-0.40694-0.61218-0.79214-1.2414-1.1664-1.8687zm-39.096 28.525c-6.3377 4.5641-14.346 11.018-36.183 29.728 1.4196 1.5945 2.3436 3.5902 2.594 5.7985 10.681-10.41 21.696-22.383 31.995-29.799l0.0304-0.15642 1.5635-5.5711zm-0.51869 8.0654c-10.428 7.6202-22.016 20.308-33.269 31.087-0.063092 0.27039-0.12942 0.54066-0.21433 0.81367-2.9374 5.9817 0.39485 9.867 4.853 13.193 0.11546 1.4918-0.13561 0.9681-0.072773 2.7069 4.6097-1.517 14.522-18.598 25.716-33.972l-1.7e-4 -0.03125 0.21638-0.43868c2.1601-3.9482 3.2463-7.1239 3.4796-9.519 0.16253-1.6688-0.17334-2.8232-0.70837-3.84zm23.188 11.468c-2.509 2.7696-4.0829 3.6877-12.954 19.977l0.37499-0.00204c-0.42995 12.513 1.9144 25.12 4.0181 37.822 3.0034 0.07489 5.9949 0.42057 9.0078 1.4198 4.1408 1.2906 6.3429-1.8968 8.5384-4.4527-5.8033-17.581-8.0726-36.035-8.9852-54.764zm-25.595 5.5454c-8.3895 12.379-17.408 24.594-25.703 37.39 0.50687 4.4654 1.8422 8.7125 5.9649 10.78 3.1937 0.93258 3.9702 0.45182 7.2494 0.98571 4.4171-2.1977 7.2753-24.15 13.991-31.539l0.02973-0.28141c0.46989-5.7448-0.31783-11.519-1.5317-17.336zm9.5537 15.605c-0.34485 0.00266-0.72394 0.0429-1.1554 0.16253-1.0593 0.29372-2.5541 1.0291-4.736 2.5883l0.25136 0.24864c-6.2501 6.2014-8.5553 19.463-11.42 32.031 3.7198 0.58468 7.4408 1.1678 11.074 2.1274 3.7188-0.09271 5.969-0.44293 9.5599-0.5207 1.6169-4.1442-2.8142-24.285-2.5739-36.58-0.34485-0.02481-0.65547-0.05973-1.0003-0.05706zm-147.29-75.92c-3.3032 4.4123-10.857 8.4304-9.5141 14.677 11.12-4.4945 23.078-12.735 35.469-23.006-10.033-3.7525-18.15 2.8236-25.955 8.3286zm33.133-4.4301c-16.321 4.3011-26.486 14.9-35.26 26.942 0.18502 0.13118 0.37664 0.24483 0.56453 0.37194 13.346-7.1348 26.315-13.346 37.488-25.392-0.91632-0.63064-1.8373-1.2936-2.7605-1.9225-0.0070335-0.00479-0.024209 0.00496-0.03125 1.7e-4zm15.368 4.4166c-0.28456 0.00985-0.59956 0.06542-0.96788 0.16151-0.2156-0.00747-0.43915 0.00649-0.65624 0.00357-14.274 8.0485-26.698 16.98-33.563 28.683 0.38855 0.02889 0.87439 0.03699 1.5939 0.02259 6.3074-4.4427 16.322-7.5123 21.176-13.678 4.0168-4.1463 8.2639-8.0784 12.278-12.223 2.0751-1.1972 2.132-3.0384 0.14012-2.9696z" fill="url(#radialGradient2993)" fill-rule="evenodd"/>
   <path id="path4282" transform="matrix(.66543 .74646 -.74646 .66543 184.85 -59.964)" d="m164.87 163.65c24.608 21.473 50.653 42.256 71.05 66.589-4.6661 1.549-12.653-0.4284-16.353-3.0285-13.639-9.5902-23.647-23.111-35.017-35.084-6.0681-8.99-14.634-16.286-19.164-26.272-0.17463-0.72067-0.34484-1.4708-0.51489-2.2038z" fill="#c97d00" fill-rule="evenodd" filter="url(#filter3492)"/>
   <path id="path3345" d="m-10.355 157.72c2.9964-2.0412 5.4351-5.2707 9.2252-5.854 2.5326-1.194 4.1181 1.1792 4.9851 3.1991 0.77617 2.5497-2.3134 4.0146-3.8217 5.5144-1.5641 1.0934-4.5338 3.3988-4.9892 0.27434-1.2558 0.01455-2.9682 0.47583-3.0425-1.4766-0.31609-1.7002-1.876-0.33792-2.3568-1.6572zm4.0903 11.081c-3.6211-0.25745-6.3538 2.714-8.4518 5.2699-0.71836 1.5338-3.4982 4.0194-1.9503 5.4412 2.3506-0.07772 3.9143 1.4722 6.3553 0.67166-0.84162 1.6167 0.49264 3.0983 2.0359 1.8302 2.4122-0.88047 5.3172-2.3039 5.9885-4.9953 0.99141-2.2037-0.51235-4.1488-2.6465-4.4699-0.88343-1.07-0.19705-2.7922-1.3312-3.7477zm29.193-16.032c-2.7957 1.4177-6.0805 2.1983-8.0852 4.8034-1.4563 0.92093-3.128 3.9298-0.16886 3.8103 2.9983-0.19737 5.1894-2.5902 7.7865-3.8408 2.1364-0.0967 4.4282-3.5388 1.8805-4.6662-0.45033-0.15208-0.94547-0.22225-1.4129-0.10667zm5.9592-8.2572c-2.5824-0.88727-5.4611-0.70179-7.9878 0.28333-2.2049-0.17398-3.3045 2.8456-1.2603 3.9393-0.013453 3.0491 3.9031 1.7751 5.5305 0.83033 1.7954-0.93093 3.6273-2.4254 3.937-4.5346l-0.058727-0.26802-0.16057-0.25041z" fill="#ffc143" fill-rule="evenodd"/>
   <path id="path4104" d="m59.095 134.24c-0.25325 0.00864-0.50218 0.05707-0.74982 0.03532-12.31 0.22146-1.5581 6.2184 1.4697 0.17952-0.21728-0.18605-0.46668-0.22348-0.71992-0.21484z" fill="#fff" fill-rule="evenodd"/>
   <path id="path4102" d="m30.137 136.18c-0.25536 0.00685-0.53057 0.0557-0.78107 0.0355-7.3782 0.73944-5.574 2.4174-2.8293 2.6717 1.0663-0.25125 2.1524-0.4443 3.1535-0.51714-0.86991 0.47081-2.0808 0.6165-3.1535 0.51714-4.3957 1.0357-7.9043 3.0591 1.3842 1.68 0.63822-0.19182 7.5282-0.65989 4.1139-2.0536-0.58288-0.18259-1.4066-0.2076-2.3133-0.14368 0.71088-0.39323 1.186-1.021 1.1455-1.975-0.22131-0.18262-0.46457-0.22169-0.71992-0.21484z" fill="#fff" fill-rule="evenodd"/>
   <path id="path4100" d="m4.1591 140.35c-0.28787 0.01839-0.5799 0.05962-0.90573 0.09867-4.7519-0.43231-3.6753 2.5703-1.4514 3.1954 2.3614 5.1444 11.281-3.8641 2.3571-3.2941z" fill="#fff" fill-rule="evenodd"/>
   <path id="path4098" d="m-7.8329 147.61c-7.6497-0.1388-4.6583 12.282 2.5791 3.0485 6.7086 0.21846 4.9801-4.0136-0.89044-2.839-0.60632-0.13098-1.1787-0.20032-1.6887-0.20958z" fill="#fff" fill-rule="evenodd"/>
   <path id="path4096" d="m-42.549 154.01c-11.051 2.9258-1.6087 8.0989 1.7834 0.39657l-1.7834-0.39657z" fill="#fff" fill-rule="evenodd"/>
   <path id="path4094" d="m-50.108 160.27c-12.201 0.23043-0.98004 11.116 3.343 5.6069 0.047852-0.80429-0.74405-5.5876-2.0929-5.5825-0.44338-0.01559-0.85658-0.03188-1.2502-0.02445z" fill="#fff" fill-rule="evenodd"/>
   <path id="path4092" d="m-63.368 170.1c-4.2846 0.02382 0.67812 2.8921 0 0z" fill="#fff" fill-rule="evenodd"/>
   <path id="path4090" d="m-48.553 170.42c-15.651 6.1073 0.72487 11.574 1.823 1.9276l-0.28736-1.1235-1.5356-0.80417z" fill="#fff" fill-rule="evenodd"/>
   <path id="path4088" d="m-68.408 174.25-1.745 0.91574c-0.81904 4.2904 0.42038 6.6736 1.7985 8.9279l2.2121-1.2308-1.2663-2.9932-1.1544 0.35003-0.70328-2.9025 0.71585-0.53515 0.14249-2.5321z" fill="#fff" fill-rule="evenodd"/>
   <path id="path4086" d="m-60.562 174.52c-6.555 1.0443 0.56525 4.2916 0 0z" fill="#fff" fill-rule="evenodd"/>
   <path id="path4084" d="m-39.963 181.22c-7.3034 0.1992-3.2787 12.138 1.8967 3.9898 1.1697-1.2447 0.50414-3.4884-1.1465-3.9626-0.25947-0.01907-0.51456-0.0336-0.75016-0.02717z" fill="#fff" fill-rule="evenodd"/>
   <path id="path4082" d="m-56.204 183.03c-9.1028-0.01656 0.19958 6.0679 0 0z" fill="#fff" fill-rule="evenodd"/>
   <path id="path4080" d="m-27.209 187.65c-11.576 5.5464 6.0074 6.9104 0 0z" fill="#fff" fill-rule="evenodd"/>
   <path id="path4078" d="m-15.833 187.9c-4.2132 2.8926 4.8374-0.26713 0 0z" fill="#fff" fill-rule="evenodd"/>
   <path id="path4075" d="m-60.488 188.2-2.1209 0.76154 2.2277 1.6442 1.5898-0.7274-1.6966-1.6783z" fill="#fff" fill-rule="evenodd"/>
   <path id="path4073" d="m-5.3872 189.37c-12.38 3.0655 2.3028 11.573 3.6331 1.4803-0.71242-1.2814-2.4564-1.1728-3.6331-1.4803z" fill="#fff" fill-rule="evenodd"/>
   <path id="path4071" d="m-56.286 190.81-1.4621 1.2267 1.7863 0.92782 1.1829-0.8502-1.5071-1.3043z" fill="#fff" fill-rule="evenodd"/>
   <path id="path4069" d="m-44.594 191.65c-8.9918 0.02159 0.15423 6.0109 0 0z" fill="#fff" fill-rule="evenodd"/>
   <path id="path4067" d="m9.0633 191.73c-12.959 6.756 8.7103 5.1546 0 0z" fill="#fff" fill-rule="evenodd"/>
   <path id="path4065" d="m-21.858 194.81c-8.0219 2.1517 3.6474 5.5982 0 0z" fill="#fff" fill-rule="evenodd"/>
   <path id="path4062" d="m-29.978 195.76c-9.0448 0.03621 0.21866 6.0114 0 0z" fill="#fff" fill-rule="evenodd"/>
   <path id="path4060" d="m-47.662 196.48-2.0878 1.1051 2.8192 1.2347 1.4621-1.2267-2.1936-1.1131z" fill="#fff" fill-rule="evenodd"/>
   <path id="path4058" d="m-42.405 197.67-1.5238 1.3833 1.8469 0.58373 1.3673-1.4137-1.6905-0.55332z" fill="#fff" fill-rule="evenodd"/>
   <path id="path4056" d="m-34.359 200.31-1.3991 1.3201 4.592-0.33746 0.52615-0.94037-3.719-0.0423z" fill="#fff" fill-rule="evenodd"/>
   <path id="path4054" d="m-26.14 200.33-1.6797 1.4466 2.7262 1.3602 1.8038-1.6036-2.8503-1.2033z" fill="#fff" fill-rule="evenodd"/>
   <path id="path4052" d="m-7.9512 200.61c-12.353 0.48008-1.1035 5.1249 0 0z" fill="#fff" fill-rule="evenodd"/>
   <path id="path4050" d="m1.5801 200.59c-10.97 3.2088 6.1968 5.6137 0 0z" fill="#fff" fill-rule="evenodd"/>
   <path id="path4048" d="m13.588 202.08c-8.4149 7.5538 10.513 3.1843 0 0z" fill="#fff" fill-rule="evenodd"/>
   <path id="path4046" d="m-14.863 205.33-0.89944 1.2549 4.9085 0.41084 1.2736-1.4132-5.2827-0.25256z" fill="#fff" fill-rule="evenodd"/>
   <path id="path4044" d="m-3.8275 206.12-2.0832 1.9488 4.5745 2.1939 1.304-1.5696-3.7953-2.5732z" fill="#fff" fill-rule="evenodd"/>
   <path id="path4042" d="m25.781 208.77c-7.0536 2.8674 4.2953 3.9798 0 0z" fill="#fff" fill-rule="evenodd"/>
   <path id="path4040" d="m11.816 209.56c-8.7398 2.3419 3.4475 4.1348 0 0z" fill="#fff" fill-rule="evenodd"/>
   <path id="path4038" d="m21.248 214.1c-9.2501 5.8669 7.0548 3.2653 0 0z" fill="#fff" fill-rule="evenodd"/>
   <path id="path4036" d="m9.78 214.35-2.3683 1.2316 3.198 1.9202 1.9307-1.2605-2.7603-1.8913z" fill="#fff" fill-rule="evenodd"/>
   <path id="path4034" d="m16.268 217.79-2.0246 1.2298 3.6725 2.9801 1.5871-1.2274-3.235-2.9825z" fill="#fff" fill-rule="evenodd"/>
   <path id="path4032" d="m27.216 225.51-2.0541 1.5424 4.667 1.9747 1.5863-1.3836-4.1992-2.1335z" fill="#fff" fill-rule="evenodd"/>
   <path id="path4030" d="m34.951 228.5-2.7104 1.546 1.6915 0.74082 2.3967-1.7631-1.3779-0.52376z" fill="#fff" fill-rule="evenodd"/>
   <path id="path4027" d="m38.302 229.79-2.4901 1.8261 0.68902 0.27751 2.3023-1.8875-0.50118-0.21603z" fill="#fff" fill-rule="evenodd"/>
   <path id="path4025" d="m40.745 230.75-2.3955 1.9818 3.5397 1.5433 2.9584-1.9224-4.1025-1.6027z" fill="#fff" fill-rule="evenodd"/>
   <path id="path4023" d="m54.016 234.61c-7.9206 5.4824 5.3586 5.6763 0 0z" fill="#fff" fill-rule="evenodd"/>
   <path id="path4021" d="m51.07 238.85-2.4876 2.2948 1.0941 5.8066 2.4896-1.9198-1.0961-6.1816z" fill="#fff" fill-rule="evenodd"/>
   <path id="path4019" d="m57.223 244c-7.338 5.8188 5.3546 5.3819 0 0z" fill="#fff" fill-rule="evenodd"/>
   <path id="path4016" d="m64.402 248.09c-6.0496 4.1458 5.0281 3.2397 0 0z" fill="#fff" fill-rule="evenodd"/>
   <path id="path4014" d="m53.631 250.02-2.3627 2.2629 2.8838 7.3594 2.1146-1.9178-2.6356-7.7046z" fill="#fff" fill-rule="evenodd"/>
   <path id="path4012" d="m62.169 257.04c-12.049 6.4772 7.1678 4.4957 0 0z" fill="#fff" fill-rule="evenodd"/>
   <path id="path4010" d="m59.886 262.46-2.1477 1.5742 4.0505 3.5405 2.2709-1.9186-4.1737-3.1961z" fill="#fff" fill-rule="evenodd"/>
   <path id="path4008" d="m69.867 264.72c-5.4953 0.7552 0.31641 3.9539 0 0z" fill="#fff" fill-rule="evenodd"/>
   <path id="path4006" d="m77.168 268.27c-8.3137 5.1728 5.9917 5.2718 0 0z" fill="#fff" fill-rule="evenodd"/>
   <path id="path4004" d="m152.51 267.95c-11.245 5.0723 9.782 5.5176 0 0z" fill="#fff" fill-rule="evenodd"/>
   <path id="path4002" d="m66.576 268.61-1.5508 2.1647 4.316 6.3829 1.7748-1.1972-1.3305-3.3053-3.2095-4.0451z" fill="#fff" fill-rule="evenodd"/>
   <path id="path4000" d="m140.89 269.24c-8.8699 3.6926 5.7485 7.1788 0 0z" fill="#fff" fill-rule="evenodd"/>
   <path id="path3998" d="m148.05 270.2c-5.159 6.3202 4.8118 7.0698 0 0z" fill="#fff" fill-rule="evenodd"/>
   <path id="path3996" d="m134.95 273.8c-6.6968 4.3902 4.2684 5.4722 0 0z" fill="#fff" fill-rule="evenodd"/>
   <path id="path3994" d="m78.99 275.89c-9.3858 2.9845 4.1747 6.5697 0 0z" fill="#fff" fill-rule="evenodd"/>
   <path id="path3992" d="m123.15 275.8c-6.5338 1.3377 3.1669 3.1235 0 0z" fill="#fff" fill-rule="evenodd"/>
   <path id="path3990" d="m100.37 276.46c-7.1989 3.886 3.9056 4.5618 0 0z" fill="#fff" fill-rule="evenodd"/>
   <path id="path3988" d="m154.78 276.54c-10.125 5.1029 6.5783 7.2954 0 0z" fill="#fff" fill-rule="evenodd"/>
   <path id="path3986" d="m143.63 279.22c-10.833 4.9156 6.9762 4.6989 0 0z" fill="#fff" fill-rule="evenodd"/>
   <path id="path3984" d="m90.104 279.58c-7.3177 5.0785 5.4223 4.7395 0 0z" fill="#fff" fill-rule="evenodd"/>
   <path id="path3982" d="m77.205 280.8-2.3672 1.4504 6.074 2.092 2.019-2.261-5.7258-1.2814z" fill="#fff" fill-rule="evenodd"/>
   <path id="path3980" d="m114.96 281c-9.0673 2.1124 5.0262 8.0561 0 0z" fill="#fff" fill-rule="evenodd"/>
   <path id="path3978" d="m135.46 281.08c-7.2297 6.2397 5.1018 3.9451 0 0z" fill="#fff" fill-rule="evenodd"/>
   <path id="path3976" d="m127.02 281.81c-8.8445 3.65 3.7152 5.5015 0 0z" fill="#fff" fill-rule="evenodd"/>
   <path id="path3974" d="m104.34 283.06c-6.1089 1.2841 1.1759 5.2127 0 0z" fill="#fff" fill-rule="evenodd"/>
   <path id="path3972" d="m155.81 283.22-6.6348 3.9736-0.96093 1.4428 7.4804-3.6344 0.11531-1.7819z" fill="#fff" fill-rule="evenodd"/>
   <path id="path3970" d="m89.827 286.08-2.7134 0.98351 4.4223 2.9448 1.6472-1.6652-3.3561-2.263z" fill="#fff" fill-rule="evenodd"/>
   <path id="path3968" d="m147.14 286.23-4.7435 1.2133-2.2344 2.8872 5.0911-0.49642 1.8867-3.604z" fill="#fff" fill-rule="evenodd"/>
   <path id="path3966" d="m108.27 286.7-5.9257 2.1885-2.0204 2.011 2.8743-0.14063 3.5567-1.0818 1.5151-2.977z" fill="#fff" fill-rule="evenodd"/>
   <path id="path3963" d="m131.11 286.57-5.3652 1.8104-1.6466 1.7902 3.6856-0.36378 3.3262-3.2369z" fill="#fff" fill-rule="evenodd"/>
   <path id="path3961" d="m113.27 287.14-2.3653 1.7941 5.6008 1.2821 2.7078-2.0147-5.9434-1.0615z" fill="#fff" fill-rule="evenodd"/>
   <path id="path3423" d="m134.8 287.49-2.1464 1.8242 3.8182 1.0418 1.3998-1.1951-3.0716-1.6708z" fill="#fff" fill-rule="evenodd"/>
   <path id="path3957" d="m259.72 133.24c0.25333 0.00589 0.50277 0.05161 0.75016 0.02718 12.312 0.08766 1.6256 6.2011-1.4677 0.19548 0.21525-0.18841 0.46422-0.22854 0.71755-0.22266z" fill="#fff" fill-rule="evenodd"/>
   <path id="path3955" d="m288.7 134.87c0.25542 0.00407 0.53114 0.04992 0.78141 0.027 7.3858 0.65922 5.6 2.3567 2.8581 2.6408-1.069-0.23965-2.1571-0.42087-3.1589-0.48284 0.87497 0.46133 2.0874 0.59385 3.1589 0.48284 4.4067 0.98787 7.937 2.973-1.3658 1.6949-0.64026-0.18487-7.535-0.57805-4.136-2.0088 0.58087-0.18892 1.4042-0.22288 2.3116-0.16882-0.71511-0.38547-1.197-1.008-1.1669-1.9624 0.21932-0.18502 0.46214-0.22672 0.71755-0.22265z" fill="#fff" fill-rule="evenodd"/>
   <path id="path3953" d="m314.72 138.76c0.28805 0.01525 0.58051 0.0533 0.90675 0.08882 4.7469-0.48393 3.703 2.5302 1.486 3.1795-2.3054 5.1697-11.322-3.7413-2.3928-3.2683z" fill="#fff" fill-rule="evenodd"/>
   <path id="path3951" d="m326.79 145.88c7.6478-0.22193 4.7915 12.231-2.5458 3.0764-6.7058 0.29135-5.0234-3.9592 0.85954-2.8485 0.60485-0.13756 1.1764-0.21312 1.6863-0.22791z" fill="#fff" fill-rule="evenodd"/>
   <path id="path3949" d="m361.58 151.91c11.082 2.8055 1.6966 8.0809-1.779 0.41592l1.779-0.41592z" fill="#fff" fill-rule="evenodd"/>
   <path id="path3947" d="m369.2 158.09c12.203 0.09785 1.1008 11.104-3.2819 5.6429-0.05659-0.80373 0.68328-5.5954 2.0321-5.6049 0.44318-0.0204 0.85618-0.04119 1.2498-0.03804z" fill="#fff" fill-rule="evenodd"/>
   <path id="path3945" d="m382.57 167.76c4.2846-0.02273-0.64665 2.8993 0 0z" fill="#fff" fill-rule="evenodd"/>
   <path id="path3943" d="m367.76 168.25c15.716 5.9368-0.59905 11.582-1.802 1.9473l0.27514-1.1265 1.5268-0.8208z" fill="#fff" fill-rule="evenodd"/>
   <path id="path3941" d="m387.65 171.86 1.7549 0.89673c0.86561 4.2812-0.34784 6.6778-1.7014 8.9469l-2.2253-1.2067 1.2337-3.0067 1.1581 0.33746 0.6717-2.9099-0.72162-0.52733-0.17-2.5304z" fill="#fff" fill-rule="evenodd"/>
   <path id="path3939" d="m379.81 172.22c6.566 0.97299-0.51859 4.2975 0 0z" fill="#fff" fill-rule="evenodd"/>
   <path id="path3937" d="m359.29 179.14c7.3052 0.11982 3.4104 12.102-1.8532 4.0101-1.1832-1.232-0.54202-3.4827 1.1034-3.9748 0.25924-0.02189 0.51417-0.03919 0.74982-0.03532z" fill="#fff" fill-rule="evenodd"/>
   <path id="path3935" d="m375.55 180.77c9.1021-0.11548-0.13364 6.0697 0 0z" fill="#fff" fill-rule="evenodd"/>
   <path id="path3933" d="m346.6 185.71c11.635 5.4202-5.9319 6.9753 0 0z" fill="#fff" fill-rule="evenodd"/>
   <path id="path3929" d="m379.89 185.9 2.129 0.73844-2.2097 1.6683-1.5976-0.71008 1.6783-1.6966z" fill="#fff" fill-rule="evenodd"/>
   <path id="path3927" d="m324.8 187.67c12.413 2.9308-2.1769 11.598-3.6168 1.5197 0.69844-1.289 2.4435-1.1994 3.6168-1.5197z" fill="#fff" fill-rule="evenodd"/>
   <path id="path3925" d="m375.71 188.55 1.4754 1.2108-1.7761 0.94717-1.1921-0.83728 1.4928-1.3206z" fill="#fff" fill-rule="evenodd"/>
   <path id="path3923" d="m364.03 189.52c8.9915-0.07613-0.08891 6.0122 0 0z" fill="#fff" fill-rule="evenodd"/>
   <path id="path3921" d="m310.38 190.19c13.031 6.6148-8.6538 5.2489 0 0z" fill="#fff" fill-rule="evenodd"/>
   <path id="path3919" d="m341.33 192.92c8.0448 2.0644-3.5864 5.6375 0 0z" fill="#fff" fill-rule="evenodd"/>
   <path id="path3917" d="m349.46 193.79c9.0446-0.06209-0.15332 6.0135 0 0z" fill="#fff" fill-rule="evenodd"/>
   <path id="path3915" d="m367.15 194.32 2.0997 1.0824-2.8057 1.2653-1.4754-1.2108 2.1814-1.1369z" fill="#fff" fill-rule="evenodd"/>
   <path id="path3913" d="m361.91 195.56 1.5387 1.3667-1.8405 0.60376-1.3826-1.3988 1.6844-0.57166z" fill="#fff" fill-rule="evenodd"/>
   <path id="path3911" d="m353.89 198.29 1.4134 1.3048-4.5954-0.28754-0.53633-0.9346 3.7184-0.0827z" fill="#fff" fill-rule="evenodd"/>
   <path id="path3909" d="m345.67 198.4 1.6953 1.4283-2.7112 1.3898-1.8211-1.5839 2.8371-1.2342z" fill="#fff" fill-rule="evenodd"/>
   <path id="path3907" d="m327.49 198.87c12.357 0.34582 1.1591 5.1126 0 0z" fill="#fff" fill-rule="evenodd"/>
   <path id="path3905" d="m317.96 198.96c11.004 3.0894-6.1355 5.6807 0 0z" fill="#fff" fill-rule="evenodd"/>
   <path id="path3903" d="m305.96 200.59c8.4965 7.4619-10.477 3.2984 0 0z" fill="#fff" fill-rule="evenodd"/>
   <path id="path3901" d="m334.45 203.52 0.91302 1.2451-4.9038 0.46415-1.2889-1.3993 5.2796-0.30995z" fill="#fff" fill-rule="evenodd"/>
   <path id="path3899" d="m323.42 204.43 2.1042 1.9261-4.5504 2.2435-1.321-1.5553 3.7671-2.6143z" fill="#fff" fill-rule="evenodd"/>
   <path id="path3897" d="m293.85 207.4c7.0843 2.7906-4.2518 4.0262 0 0z" fill="#fff" fill-rule="evenodd"/>
   <path id="path3895" d="m307.82 208.04c8.7648 2.2468-3.4023 4.172 0 0z" fill="#fff" fill-rule="evenodd"/>
   <path id="path3893" d="m298.44 212.69c9.3133 5.766-7.0189 3.3418 0 0z" fill="#fff" fill-rule="evenodd"/>
   <path id="path3891" d="m309.91 212.81 2.3816 1.2058-3.1769 1.9548-1.9443-1.2394 2.7396-1.9212z" fill="#fff" fill-rule="evenodd"/>
   <path id="path3889" d="m303.46 216.32 2.0378 1.2077-3.6399 3.0198-1.6004-1.2101 3.2024-3.0174z" fill="#fff" fill-rule="evenodd"/>
   <path id="path3887" d="m292.59 224.16 2.0708 1.52-4.6453 2.0253-1.6012-1.3663 4.1757-2.179z" fill="#fff" fill-rule="evenodd"/>
   <path id="path3885" d="m284.89 227.23 2.727 1.5165-1.6834 0.75916-2.4157-1.7369 1.3721-0.53872z" fill="#fff" fill-rule="evenodd"/>
   <path id="path3883" d="m281.55 228.56 2.5098 1.7989-0.68596 0.28497-2.3226-1.8624 0.4988-0.22147z" fill="#fff" fill-rule="evenodd"/>
   <path id="path3881" d="m279.12 229.54 2.4169 1.9556-3.5227 1.5817-2.9791-1.8901 4.0849-1.6472z" fill="#fff" fill-rule="evenodd"/>
   <path id="path3879" d="m265.89 233.55c7.9797 5.396-5.2966 5.7342 0 0z" fill="#fff" fill-rule="evenodd"/>
   <path id="path3877" d="m268.88 237.76 2.5124 2.2676-1.0309 5.8182-2.5103-1.8926 1.0289-6.1932z" fill="#fff" fill-rule="evenodd"/>
   <path id="path3875" d="m262.79 242.98c7.4008 5.7387-5.2958 5.4397 0 0z" fill="#fff" fill-rule="evenodd"/>
   <path id="path3873" d="m255.65 247.14c6.0943 4.0799-4.9926 3.2942 0 0z" fill="#fff" fill-rule="evenodd"/>
   <path id="path3871" d="m266.45 248.96 2.3872 2.2371-2.8036 7.3903-2.1353-1.8947 2.5518-7.7327z" fill="#fff" fill-rule="evenodd"/>
   <path id="path3869" d="m257.98 256.07c12.119 6.3458-7.1186 4.5734 0 0z" fill="#fff" fill-rule="evenodd"/>
   <path id="path3867" d="m260.33 261.46 2.1647 1.5508-4.0118 3.5844-2.2916-1.8938 4.1387-3.2413z" fill="#fff" fill-rule="evenodd"/>
   <path id="path3865" d="m250.37 263.83c5.5032 0.69544-0.27343 3.9571 0 0z" fill="#fff" fill-rule="evenodd"/>
   <path id="path3863" d="m243.11 267.46c8.3694 5.0821-5.9341 5.3366 0 0z" fill="#fff" fill-rule="evenodd"/>
   <path id="path3861" d="m167.77 267.96c11.3 4.9498-9.7215 5.6235 0 0z" fill="#fff" fill-rule="evenodd"/>
   <path id="path3859" d="m253.7 267.68 1.5742 2.1477-4.2464 6.4294-1.7877-1.1778 1.2945-3.3196 3.1654-4.0798z" fill="#fff" fill-rule="evenodd"/>
   <path id="path3857" d="m179.4 269.12c8.9095 3.596-5.6702 7.2408 0 0z" fill="#fff" fill-rule="evenodd"/>
   <path id="path3855" d="m172.25 270.16c5.2274 6.2638-4.7347 7.1216 0 0z" fill="#fff" fill-rule="evenodd"/>
   <path id="path3853" d="m185.39 273.62c6.7441 4.3172-4.2087 5.5182 0 0z" fill="#fff" fill-rule="evenodd"/>
   <path id="path3851" d="m241.37 275.09c9.4177 2.8824-4.1031 6.6147 0 0z" fill="#fff" fill-rule="evenodd"/>
   <path id="path3849" d="m197.21 275.49c6.548 1.2667-3.1328 3.1578 0 0z" fill="#fff" fill-rule="evenodd"/>
   <path id="path3847" d="m220 275.9c7.2407 3.8075-3.8558 4.604 0 0z" fill="#fff" fill-rule="evenodd"/>
   <path id="path3845" d="m165.59 276.57c10.18 4.9926-6.4986 7.3664 0 0z" fill="#fff" fill-rule="evenodd"/>
   <path id="path3843" d="m176.76 279.13c10.886 4.7976-6.9247 4.7744 0 0z" fill="#fff" fill-rule="evenodd"/>
   <path id="path3841" d="m230.3 278.9c7.3724 4.9987-5.3705 4.7981 0 0z" fill="#fff" fill-rule="evenodd"/>
   <path id="path3839" d="m243.21 279.99 2.3828 1.4246-6.0509 2.1579-2.0434-2.2389 5.7115-1.3436z" fill="#fff" fill-rule="evenodd"/>
   <path id="path3837" d="m205.46 280.6c9.0897 2.0137-4.9384 8.1103 0 0z" fill="#fff" fill-rule="evenodd"/>
   <path id="path3835" d="m184.96 280.9c7.2971 6.1608-5.0586 4.0003 0 0z" fill="#fff" fill-rule="evenodd"/>
   <path id="path3833" d="m193.4 281.54c8.8837 3.5537-3.6552 5.5415 0 0z" fill="#fff" fill-rule="evenodd"/>
   <path id="path3831" d="m216.1 282.54c6.1225 1.2176-1.1192 5.2252 0 0z" fill="#fff" fill-rule="evenodd"/>
   <path id="path3829" d="m164.63 283.26 6.6775 3.9013 0.97655 1.4322-7.5194-3.553-0.13467-1.7805z" fill="#fff" fill-rule="evenodd" opacity=".94"/>
   <path id="path3827" d="m230.64 285.4 2.724 0.95396-4.3901 2.9926-1.6652-1.6472 3.3313-2.2994z" fill="#fff" fill-rule="evenodd"/>
   <path id="path3825" d="m173.33 286.18 4.7564 1.1617 2.2656 2.8627-5.0962-0.44106-1.9258-3.5833z" fill="#fff" fill-rule="evenodd"/>
   <path id="path3823" d="m212.21 286.22 5.9491 2.124 2.0421 1.9889-2.8756-0.10938-3.5682-1.0431-1.5474-2.9604z" fill="#fff" fill-rule="evenodd"/>
   <path id="path3821" d="m189.37 286.35 5.3846 1.752 1.6659 1.7722-3.6893-0.32371-3.3612-3.2005z" fill="#fff" fill-rule="evenodd"/>
   <path id="path3819" d="m207.21 286.72 2.3846 1.7683-5.5865 1.3429-2.7296-1.9852 5.9315-1.126z" fill="#fff" fill-rule="evenodd"/>
   <path id="path3967" d="m185.68 287.3 2.1661 1.8008-3.8067 1.0832-1.4127-1.1798 3.0533-1.7041z" fill="#fff" fill-rule="evenodd"/>
   <path id="path7636" transform="matrix(.66543 .74646 -.74646 .66543 184.85 -59.964)" d="m130.28 294.66-2.5219 3.5143c7.1936-5.423 6.4027-19.683 7.2516-27.711-0.69787 8.2762-1.6762 16.394-4.7296 24.196z" fill="#fff" fill-rule="evenodd" filter="url(#filter7726)" opacity=".65909"/>
   <path id="path3280" d="m307.2 158.36c0.28465 0.00676 0.60024 0.05891 0.96959 0.15099 0.2155-0.00981 0.43919 0.00171 0.65624-0.00357 14.36 7.8929 26.881 16.689 33.873 28.316-0.38821 0.03313-0.87394 0.04649-1.5936 0.03991-6.3553-4.3738-16.403-7.3345-21.323-13.447-4.0616-4.1024-8.3512-7.9881-12.41-12.089-2.088-1.1746-2.165-3.0151-0.17238-2.9679zm-34.496-16.438c5.9398 1.595 12.938 9.4766 14.629 12.202-0.12127 0.48062-0.17491 0.9173-0.18037 1.3135l-20.449 3.6112-27.291-1.758c-18.976-5.921-40.236-9.4024-62.285-12.068-0.12516-0.25853-0.24171-0.52605-0.37924-0.7792 10.772-0.65872 20.901-5.3588 31.784-5.329 20.455-2.9489 40.634-4.0737 64.172 2.8076zm-87.961 7.3843c18.636 2.4794 36.482 5.728 52.59 10.652l-0.03108 0.03142c13.264 19.896 41.928 39.895 44.632 47.887-0.75275 0.81163-0.47829 0.84381-0.92259 2.001-1.8909 5.2962-6.0517 9.3462-11.161 10.592-2.1706-0.29769-4.4272-0.90613-6.9197-2.4624-12.764-14.086-29.956-27.794-51.88-41.125-8.2873-9.7858-15.274-20.461-26.306-27.576zm103.99 8.9976c3.3826 2.1711 11.186 1.3703 13.344 5.7088 5.8804 4.8751 12.068 11.463 10.512 19.474-0.12326 3.262 7.574 10.037 0.87837 6.3703-3.4854-3.5834-6.9536-5.9158-10.164-3.8809-13.37-5.4888-22.764-16.148-34.146-24.222l19.575-3.4502zm-47.207 2.2565 24.134 1.5252-0.43443 0.56487c11.255 9.3834 26.288 18.037 33.765 28.15-0.59083 1.1632-0.34017 1.2374-0.31392 3.0747-1.5258 7.1489-7.2017 7.0388-12.108 10.126-0.90236 1.8613-32.268-25.228-45.042-43.441zm-60.869 5.0808c1.8188-0.00792 3.4822 0.43967 5.7796 1.6874 4.6721 5.7324 7.031 9.7543 14.314 17.422 5.0179 3.4069 8.2825 5.468 11.448 7.5942l2.325 8.05c-1.2647 1.697-1.9305 3.8513-1.6527 6.4153 0.30385 2.8038 1.5703 6.0838 3.7105 9.98-1.3235 5.9679-2.129 11.969-1.8709 18.01-1.3955-0.82551-2.6505-1.4292-3.6655-1.6988-1.131-0.30039-1.9184-0.19564-2.7196-0.14148-10.971-19.623-11.149-16.821-15.057-21.981-2.7574-15.171-8.9415-30.213-14.808-45.17 0.60521-0.10159 1.5524-0.16538 2.1975-0.16819zm-4.6312 0.86893c5.9174 15.097 12.115 30.1 14.807 45.014l-0.21875 0.0012c-0.58675 19.156-2.5611 37.947-8.072 55.795-1.5488-1.1184-3.3062-1.3356-5.808 0.84407-1.8195 1.3309-3.5584 1.7437-5.1794 1.4969 4.896-33.035 3.6268-67.294 3.3248-101.27 0.40027-0.61657 0.7786-1.2499 1.146-1.8812zm39.403 28.099c6.3869 4.495 14.465 10.861 36.504 29.333-1.4022 1.6098-2.3045 3.6155-2.5309 5.8263-10.794-10.293-21.938-22.146-32.317-29.45l-0.0321-0.15608-1.624-5.5538zm0.6063 8.0593c10.51 7.5064 22.236 20.068 33.605 30.724 0.06603 0.26969 0.13529 0.53923 0.22317 0.8113 3.0022 5.9494-0.2876 9.8708-4.7094 13.245-0.09924 1.4929 0.14613 0.96658 0.10219 2.7059-4.6259-1.4668-14.724-18.44-26.083-33.69l-1.6e-4 -0.03125-0.22112-0.4363c-2.2029-3.9245-3.3236-7.0882-3.5828-9.4807-0.18065-1.667 0.14265-2.8249 0.6666-3.8474zm-23.062 11.719c2.539 2.7422 4.1227 3.6431 13.17 19.835l-0.37499 0.00204c0.5659 12.508-1.6413 25.139-3.6068 37.864-3.0024 0.10752-5.99 0.48568-8.9919 1.5176-4.1266 1.3356-6.3631-1.8277-8.5863-4.3597 5.6119-17.643 7.6806-36.121 8.3896-54.859zm25.654 5.267c8.5235 12.287 17.674 24.403 26.108 37.109-0.45832 4.4706-1.7474 8.732-5.8474 10.844-3.1834 0.96723-3.9651 0.49494-7.2383 1.0644-4.4407-2.1496-7.5373-24.07-14.333-31.385l-0.03278-0.28107c-0.5323-5.7394 0.19264-11.522 1.3432-17.351zm-9.3836 15.707c0.34486-0.00109 0.72436 0.03504 1.1571 0.14997 1.0624 0.28219 2.5652 1.0013 4.7639 2.5366l-0.24864 0.25136c6.3171 6.1332 8.7663 19.369 11.767 31.905-3.7132 0.62507-7.4277 1.2486-11.05 2.2476-3.7196-0.0523-5.9734-0.37805-9.565-0.4168-1.6618-4.1263 2.5501-24.314 2.1762-36.606 0.34456-0.02856 0.65478-0.06685 0.99964-0.06793zm146.46-77.516c3.3509 4.3761 10.948 8.3119 9.6731 14.573-11.168-4.3734-23.215-12.483-35.717-22.619 9.9916-3.8613 18.18 2.6262 26.044 8.0461zm-33.179-4.0698c16.367 4.1235 26.646 14.611 35.551 26.557-0.18359 0.13318-0.37396 0.24891-0.56046 0.37805-13.423-6.9893-26.458-13.059-37.761-24.983 0.90941-0.64056 1.8231-1.3134 2.7394-1.9524 0.00698-0.00487 0.02426 0.00469 0.03124-1.8e-4zm12.707 32.306c4.2444 2.8466-4.84-0.21455 0 0zm-88.66 32.869c6.9189 4.472 15.78 13.079 28.229 12.213l-0.95858 0.38828c-13.855 0.56267-21.766-8.8022-27.323-12.559l0.05241-0.04148zm-67.98-69.581c10.447 5.1645 17.302 13.811 24.562 22.836-17.246-10.432-19.56-14.28-24.01-19.057-0.07528-1.275-0.26352-2.538-0.55179-3.7783z" fill="url(#radialGradient2995)" fill-rule="evenodd"/>
   <path id="path5675" transform="matrix(.82034 .39775 -.35563 .9175 83.794 -53.846)" d="m174.37 87.894c-0.89896 0.13416-1.6557 0.71924-2.2638 1.463-1.2074 1.4769-1.9117 3.6848-2.1499 5.4168-0.00171 0.012434-0.01868 0.0245-0.02034 0.036892-0.87024 4.8055-2.7877 9.2011-4.9596 13.46-3.7863 7.1287-9.009 14.353-8.7501 23.5l-0.00915 0.57999 0.00712 0.03042-0.05693 0.6233 1.0114 0.11541 0.04981-0.65374-0.00712-0.03044 0.02238-0.64728-0.00712-0.03043c-0.24533-8.6684 4.7622-15.699 8.5966-22.918l0.02745-0.00646c2.1969-4.3087 4.1553-8.8084 5.0531-13.803l0.02744-0.00645-0.00711-0.03042c0.20701-1.5435 0.90116-3.6669 1.9202-4.9134 0.57725 1.0358 2.7791-0.11674 3.8121 0.31136 1.0189 0.24624 0.81625-0.8995 0.61278-1.4476-1.0031-0.86321-2.0103-1.1839-2.9093-1.0497zm-74.699 35.18c-1.9087 0.75682-3.5333 2.2562-4.2948 4.5406 0.007474 0.99697 1.3806 1.3428 1.9532 0.75439 1.0173-0.83753 2.4544-1.4043 2.7279-4.2622 1.692-0.68952 3.6982-0.72066 5.5116-0.20392l0.03456 0.02398 0.02746-0.00645c15.847 3.0664 27.389 2.136 43.518 6.561 0.01274 0.0042 0.02184 0.01974 0.03457 0.02397 1.8731 0.62358 3.6834 1.5748 5.1792 2.9559l0.61904-0.81962c-1.6407-1.515-3.5912-2.5542-5.5868-3.2132l-0.02744 0.00647c-16.28-4.4733-27.859-3.5415-43.58-6.5785-0.00873-0.00249-0.01872 0.00891-0.02744 0.00645-1.9982-0.56361-4.1886-0.54231-6.0889 0.21121z" fill-rule="evenodd" filter="url(#filter6222)" opacity=".27273"/>
   <path id="path3965" d="m329.42 155.96c-3.0184-2.0085-5.492-5.2113-9.2882-5.7534-2.5454-1.1664-4.1051 1.2239-4.95 3.2531-0.74842 2.558 2.3569 3.9892 3.8814 5.4725 1.5759 1.0763 4.5704 3.3493 4.9919 0.2201 1.2558 9.1e-4 2.9732 0.44355 3.0263-1.5095 0.2976-1.7036 1.8722-0.35828 2.3386-1.6828zm-3.9697 11.125c3.618-0.2968 6.3829 2.6448 8.5085 5.1778 0.73498 1.5259 3.5417 3.9812 2.0093 5.4197-2.3513-0.05217-3.898 1.5146-6.3477 0.74068 0.85914 1.6075-0.45894 3.1034-2.0159 1.8522-2.4216-0.85422-5.3419-2.246-6.0424-4.93-1.0153-2.1928 0.46724-4.1541 2.5978-4.4984 0.87175-1.0796 0.1667-2.7942 1.2904-3.762zm-29.366-15.714c2.8109 1.3873 6.104 2.1321 8.1369 4.7153 1.4663 0.90505 3.1706 3.8956 0.21026 3.8083-3.0003-0.16478-5.2173-2.5336-7.8278-3.756-2.1373-0.07348-4.4664-3.4905-1.9311-4.6455 0.44865-0.15697 0.943-0.23251 1.4117-0.12202zm-6.0486-8.1919c2.5726-0.91528 5.4532-0.76109 7.9904 0.19652 2.2028-0.19793 3.3353 2.8096 1.3031 3.9254 0.04658 3.0488-3.8836 1.8174-5.5211 0.89038-1.8054-0.91136-3.6534-2.3859-3.986-4.4915l0.05581-0.26863 0.15784-0.25215z" fill="#ffc143" fill-rule="evenodd"/>
   <path id="path4350" transform="matrix(.99998 -.0054334 .0054334 .99998 -221.96 9.4857)" d="m386.74 125.82-1.25 2.5625-4.125-0.40625-3.625 0.53125-1.25-2.5625-0.78125 4.0312c-2.3481 0.16598-4.1875 2.141-4.1875 4.5312-1e-5 2.4222 1.8885 4.3514 4.2812 4.4688-0.35647 0.95809-0.90278 1.9375-1.7812 3 0 0-0.40754 0.89029-0.875 2-2.1215 1.5028-4.7885 2.0733-6.9062 3.5625-2.0023 1.6926-1.5334 4.7313-0.375 6.7812 1.0408 1.698 1.8636 4.0855 0.1875 5.6875-1.8021 2.1731-3.5569 4.3992-5.0625 6.7812-1.2164 2.2451-1.639 4.8795-1.4062 7.4062 2.1018 1.4433 4.9548 0.34041 7.1562 1.6875 2.5313 0.71629 3.9508 2.9398 5.8438 4.5312l0.34375 2.5c-0.58187 18.288-1.0655 36.525-0.1875 54.188-0.06292 0.04398-0.12414 0.08011-0.1875 0.125 0.06319-0.02982 0.12403-0.0647 0.1875-0.09375 0.18565 3.7277 0.43147 7.423 0.75 11.094-0.16351 0.11164-0.3023 0.22581-0.46875 0.34375 0.16472-0.07772 0.33341-0.14621 0.5-0.21875 0.25409 2.9123 0.55498 5.8169 0.90625 8.6875-0.38419 0.24743-0.78692 0.49743-1.1875 0.78125 0.39758-0.18759 0.81083-0.34238 1.2188-0.5 0.3023 2.4457 0.61886 4.8693 1 7.2812-0.27286-0.12988-0.5765-0.25747-0.84375-0.40625 0.29158 0.24376 0.59377 0.4706 0.875 0.6875 0.26317 1.6506 0.57184 3.304 0.875 4.9375l2.0312 0.71875c-1.58 5.6593 3.073 11.867 3.3438 15.938 0.27077-4.0709 4.6738-10.403 3.0938-16.062l2.0312-0.71875c0.26677-1.4374 0.51431-2.893 0.75-4.3438 0.38144-0.26086 0.78686-0.5371 1.1875-0.84375-0.3657 0.16527-0.7476 0.29778-1.125 0.4375 0.4147-2.5856 0.77006-5.1879 1.0938-7.8125 0.39387 0.12658 0.8046 0.22835 1.1875 0.375-0.38625-0.25056-0.7541-0.49874-1.125-0.71875 2.8799-23.642 2.2712-48.78 1.4688-74l0.40625-3.2812c0.35392-0.35465 0.70579-0.70855 1-1.125 2.3612-2.3977 5.8092-3.5207 9.125-3.375 2.7098-0.20359 1.9497-3.1015 1.625-4.9062-0.42003-2.1214-1.4583-4.1123-2.9375-5.6875-1.0231-2.4546-3.9166-3.9019-4.25-6.6562-0.03819-2.5506 2.4194-4.4598 2.0625-7.0625 0.34022-2.3802-1.9535-3.9004-3.9375-4.5312-0.95508-0.40734-1.9494-0.84246-2.9062-1.3438-0.00805-0.00422-0.02321 0.00423-0.03125 0-0.65084-1.63-1.25-2.9688-1.25-2.9688-0.841-1.0172-1.3906-1.9542-1.75-2.875 2.3779-0.13301 4.25-2.0572 4.25-4.4688 0-2.3902-1.8394-4.3653-4.1875-4.5312l-0.78125-4.1562z" fill-rule="evenodd" filter="url(#filter4506)" opacity=".53807" stroke="#000" stroke-width="4"/>
   <path id="path4029" transform="matrix(.99998 -.0054334 .0054334 .99998 -254.63 12.747)" d="m408.12 127.2c-1.7949 0.04601-1.0673 2.4668-2.8299 3.1922-2.1944 1.851-5.1714 2.3349-7.4824 3.96-2.0023 1.6926-1.5496 4.7428-0.39119 6.7927 1.0408 1.698 1.8512 4.0975 0.17512 5.6995-1.8021 2.1731-3.5444 4.3896-5.05 6.7716-1.2164 2.2451-1.6231 4.8697-1.3904 7.3965 2.1018 1.4433 4.934 0.34308 7.1355 1.6902 2.9535 0.83576 4.4098 3.7099 6.8487 5.2558 2.9548 1.6931 6.4171 1.333 9.6797 1.3774 3.257-0.02051 6.531-1.4289 8.4406-4.1321 2.3612-2.3977 5.8075-3.5315 9.1233-3.3858 2.7098-0.20359 1.9607-3.1018 1.636-4.9065-0.42004-2.1214-1.4593-4.1109-2.9385-5.6861-1.0231-2.4546-3.934-3.8807-4.2674-6.635-0.03818-2.5506 2.4288-4.464 2.0719-7.0667 0.34021-2.3802-1.9436-3.919-3.9276-4.5498-2.5469-1.0862-5.5078-2.2174-6.7088-4.9355-0.36693-1.772-3.8473-0.25276-5.3533-0.25089-1.6134 0.01323-3.1528-0.68148-4.7715-0.58744z" fill="#9b9898" fill-rule="evenodd" opacity=".47078" stroke="#c8c8c8" stroke-width="1px"/>
   <path id="path4018" transform="matrix(.99998 -.0054334 .0054334 .99998 -254.63 12.747)" d="m413.29 273.28c0.27077-4.0709 4.6704-10.392 3.0904-16.051l2.0534-0.71688c5.0642-27.287 4.3854-57.036 3.4352-86.901l0.85319-6.6066s3.1589-6.0262 2.9459-8.785-4.2203-8.1536-4.2203-8.1536 2.3189-6.0351 2.2175-8.7526-2.886-8.63-2.886-8.63c-3.364-4.0687-2.3009-7.2519-1.4038-10.468l-1.0823-5.5822-1.2417 2.5576-4.1101-0.38908-3.6452 0.51167-1.2417-2.5576-1.0823 5.5822c0.89714 3.2164 1.9602 6.3997-1.4038 10.468 0 0-2.7846 5.9125-2.886 8.63s2.2175 8.7526 2.2175 8.7526-4.0073 5.3948-4.2203 8.1536 2.9459 8.785 2.9459 8.785l0.85319 6.6066c-0.95022 29.865-1.629 59.614 3.4352 86.901l2.0534 0.71688c-1.58 5.6593 3.052 11.858 3.3228 15.929z" fill="#565656" fill-rule="evenodd" stroke="#777474" stroke-width="1px"/>
   <path id="path4533" d="m189.13 85.992c-0.98664-0.069627-1.9318 0.33202-2.7576 0.92152-1.6398 1.1706-2.9232 3.1659-3.5964 4.8012-0.00483 0.011737-0.02576 0.019722-0.03054 0.031426-2.0899 4.4906-5.1917 8.3481-8.5304 12.016-5.7485 6.1053-13.045 11.984-14.99 20.958l-0.15046 0.56335 1.6e-4 0.03124-0.21168 0.59493 1.0454 0.33798 0.21152-0.62618-1.6e-4 -0.03126 0.18084-0.62601-1.7e-4 -0.03125c1.8435-8.505 8.8643-14.242 14.686-20.425l0.03071-1.8e-4c3.3773-3.7105 6.5478-7.6604 8.7129-12.33l0.03069-1.68e-4 -1.6e-4 -0.031245c0.5943-1.4585 1.8464-3.3737 3.2304-4.3617 0.36125 1.1384 2.9778 0.50573 3.9702 1.1534 1.0216 0.46717 1.0846-0.6949 1.0017-1.2746-0.85507-1.0651-1.8462-1.6022-2.8328-1.6719zm-87.816 17.642c-2.2094 0.31227-4.2975 1.4117-5.66 3.4689-0.23403 0.97354 1.1394 1.6168 1.8898 1.1708 1.283-0.58966 2.9457-0.82179 3.9295-3.5468 1.9631-0.29497 4.0998 0.12192 5.8989 1.0299l0.03086 0.03108 0.0307-1.7e-4c16.074 6.5219 28.55 8.1881 44.593 16.097 0.01249 0.00694 0.01839 0.02411 0.03086 0.03108 1.8366 1.0254 3.5269 2.3563 4.7792 4.0361l0.85591-0.66099c-1.3736-1.8426-3.1914-3.2905-5.1494-4.3778l-0.0307 1.9e-4c-16.193-7.9901-28.707-9.6628-44.655-16.128-0.00866-0.00437-0.02202 0.00452-0.03069 1.7e-4 -1.9839-0.99487-4.3137-1.4624-6.5134-1.1515z" fill-rule="evenodd" opacity=".94"/>
   <path id="path4064" d="m153.58 127.3c-2.4978 0.01358-4.5066 2.0718-4.4931 4.5696 0.01358 2.4978 2.0445 4.5068 4.5423 4.4932 0.10122-5.5e-4 0.19971-0.02176 0.29923-0.02885-0.52299-1.328 0.42352-2.8223 0.72568-4.5235 0.2817-1.5861-0.18511-3.1204 0.66958-4.166-0.53599-0.21972-1.1286-0.34769-1.7437-0.34435z" fill="url(#radialGradient2997)"/>
   <path id="path4077" d="m164.75 127.24c2.4978-0.01357 4.5289 2.0226 4.5425 4.5205 0.01357 2.4978-1.9954 4.5288-4.4932 4.5423-0.1012 5.5e-4 -0.19994-0.01958-0.29951-0.0256 0.50852-1.3336-0.45418-2.8175-0.77481-4.5154-0.29892-1.583 0.1512-3.1223-0.7148-4.1585 0.53355-0.22552 1.1248-0.35992 1.7399-0.36327z" fill="url(#radialGradient2999)"/>
   <path id="path4089" transform="matrix(.99998 -.0054334 .0054334 .99998 -254.63 12.747)" d="m413.86 116.76c-1.7897 0-3.25 2.8595-3.25 6.375 0 3.2494 1.2426 5.8936 2.8438 6.2812-1.504 1.0079-2.5625 3.5736-2.5625 6.5625 0 3.8699 1.792 7 4 7 2.208 0 4-3.1301 4-7 0-3.7404-1.6755-6.7995-3.7812-7 1.1636-0.96724 1.9687-3.2071 1.9688-5.8438 0-3.5155-1.429-6.375-3.2188-6.375zm1.7188 28.438c-2.7091 0-4.9062 2.8051-4.9062 6.2812 0 3.4761 2.1971 6.3125 4.9062 6.3125 2.7091 0 4.9063-2.8364 4.9062-6.3125 0-3.4761-2.1971-6.2812-4.9062-6.2812zm2.3125 19.625c-1.131 0.35204-2.3474 0.5625-3.5938 0.5625-1.0886 1e-5 -2.1218-0.16633-3.125-0.4375-0.42386 6.6294-0.65625 14.578-0.65625 23.125 0 23.13 1.8025 41.906 4.0312 41.906 2.2288 1e-5 4.0313-18.776 4.0312-41.906 0-8.5978-0.25896-16.597-0.6875-23.25z"/>
   <g id="g4164" transform="matrix(.99998 -.0054334 .0054334 .99998 -254.63 12.747)" fill="#fff">
    <path id="path4143" transform="matrix(.52072 .31032 -.30086 .4801 234.75 -57.696)" d="m411.99 137.6c0.00105 2.8151-1.3472 5.0981-3.0106 5.0981-1.6635 0-3.0117-2.283-3.0106-5.0981-0.00105-2.8151 1.3472-5.0981 3.0106-5.0981 1.6635 0 3.0117 2.283 3.0106 5.0981z" filter="url(#filter4156)"/>
    <path id="path4160" transform="matrix(.32818 .20056 -.18962 .31028 302.47 2.9188)" d="m411.99 137.6c0.00105 2.8151-1.3472 5.0981-3.0106 5.0981-1.6635 0-3.0117-2.283-3.0106-5.0981-0.00105-2.8151 1.3472-5.0981 3.0106-5.0981 1.6635 0 3.0117 2.283 3.0106 5.0981z" filter="url(#filter4156)"/>
    <path id="path4162" transform="matrix(.36637 -.058744 .0092952 .32803 260.18 97.032)" d="m411.99 137.6c0.00105 2.8151-1.3472 5.0981-3.0106 5.0981-1.6635 0-3.0117-2.283-3.0106-5.0981-0.00105-2.8151 1.3472-5.0981 3.0106-5.0981 1.6635 0 3.0117 2.283 3.0106 5.0981z" filter="url(#filter4156)"/>
   </g>
   <g id="g4169" transform="matrix(-.99998 .0054334 .0054334 .99998 571.86 8.2504)" fill="#fff">
    <path id="path4171" transform="matrix(.52072 .31032 -.30086 .4801 234.75 -57.696)" d="m411.99 137.6c0.00105 2.8151-1.3472 5.0981-3.0106 5.0981-1.6635 0-3.0117-2.283-3.0106-5.0981-0.00105-2.8151 1.3472-5.0981 3.0106-5.0981 1.6635 0 3.0117 2.283 3.0106 5.0981z" filter="url(#filter4156)"/>
    <path id="path4173" transform="matrix(.32818 .20056 -.18962 .31028 302.47 2.9188)" d="m411.99 137.6c0.00105 2.8151-1.3472 5.0981-3.0106 5.0981-1.6635 0-3.0117-2.283-3.0106-5.0981-0.00105-2.8151 1.3472-5.0981 3.0106-5.0981 1.6635 0 3.0117 2.283 3.0106 5.0981z" filter="url(#filter4156)"/>
    <path id="path4175" transform="matrix(.36637 -.058744 .0092952 .32803 260.18 97.032)" d="m411.99 137.6c0.00105 2.8151-1.3472 5.0981-3.0106 5.0981-1.6635 0-3.0117-2.283-3.0106-5.0981-0.00105-2.8151 1.3472-5.0981 3.0106-5.0981 1.6635 0 3.0117 2.283 3.0106 5.0981z" filter="url(#filter4156)"/>
   </g>
   <path id="path4177" transform="matrix(.6111 -.0033205 .0054334 .99998 -93.336 11.871)" d="m418.94 149.64c0 9.9712-0.93375 18.064-2.0843 18.064-1.1505 0-0.55975-8.0408-0.55975-18.012s-0.59078-18.116 0.55975-18.116c1.1505 0 2.0843 8.0926 2.0843 18.064z" fill="url(#radialGradient3001)" filter="url(#filter4224)"/>
   <path id="path4271" d="m151.22 223.66c5.2576-2.5158 11.516-2.3702 16.705-0.41518-6.325-4.0544-10.452-4.0666-16.705 0.41518z" fill="url(#radialGradient3003)" fill-rule="evenodd" stroke-width="0pt"/>
   <path id="path4293" d="m150.68 234.59c5.2576-2.5157 11.516-2.3702 16.705-0.41518-6.325-4.0544-10.452-4.0666-16.705 0.41518z" fill="url(#radialGradient3005)" fill-rule="evenodd" stroke-width="0pt"/>
   <path id="path4297" d="m151.2 245.93c5.2576-2.5157 11.516-2.3702 16.705-0.41518-6.325-4.0544-10.452-4.0666-16.705 0.41518z" fill="url(#radialGradient3007)" fill-rule="evenodd" stroke-width="0pt"/>
   <path id="path4301" d="m151.49 255.19c5.2576-2.5157 11.516-2.3702 16.705-0.41518-6.325-4.0544-10.452-4.0666-16.705 0.41518z" fill="url(#radialGradient3009)" fill-rule="evenodd" stroke-width="0pt"/>
   <path id="path4305" d="m152.91 261.55c4.4809 2.4628 9.7836 2.2545 14.161 0.24747-5.3196 4.1177-8.8168 4.1712-14.161-0.24747z" fill="url(#radialGradient3011)" fill-rule="evenodd" stroke-width="0pt"/>
  </g>
 </g>
</svg>
