<?xml version="1.0" encoding="UTF-8"?>
<!-- Created with Inkscape (http://www.inkscape.org/) -->
<svg id="Layer_1" width="179.41" height="279.53" version="1.0" viewBox="0 0 179.41 279.53" xml:space="preserve" xmlns="http://www.w3.org/2000/svg">

<metadata>
<rdf:RDF xmlns="http://web.resource.org/cc/" xmlns:dc="http://purl.org/dc/elements/1.1/" xmlns:rdf="http://www.w3.org/1999/02/22-rdf-syntax-ns#">
      <Work rdf:about="">
         <dc:title>Girl in Wheelchair</dc:title>
         <dc:description>Girl in Wheelchair</dc:description>
         <dc:subject>
          <rdf:Bag>
            <rdf:li>people</rdf:li>
            <rdf:li>girl</rdf:li>
	    <rdf:li>wheelchair</rdf:li>
    	    <rdf:li>medical</rdf:li>
          </rdf:Bag>
         </dc:subject>
         <dc:publisher><Agent rdf:about="http://www.openclipart.org/"><dc:title>Open Clip Art Project</dc:title></Agent></dc:publisher>
         <dc:creator><Agent rdf:about=""><dc:title>Gerald G.</dc:title></Agent></dc:creator>
         <dc:rights><Agent rdf:about="http://web.resource.org/cc/PublicDomain"><dc:title>Public Domain</dc:title></Agent></dc:rights>
         <dc:date>2006/10/02</dc:date>
         <dc:format>image/svg+xml</dc:format>
         <dc:type>http://purl.org/dc/dcmitype/StillImage</dc:type>
         <license rdf:resource="http://web.resource.org/cc/PublicDomain"/>
      </Work>
      <License rdf:about="http://web.resource.org/cc/PublicDomain">
         <permits rdf:resource="http://web.resource.org/cc/Reproduction"/>
         <permits rdf:resource="http://web.resource.org/cc/Distribution"/>
         <permits rdf:resource="http://web.resource.org/cc/DerivativeWorks"/>
      </License>
   </rdf:RDF>
</metadata>

<g id="g5" fill-rule="evenodd" stroke="#000" stroke-miterlimit="10" stroke-width=".036">
	<path id="path7" d="m134.17 195.82c0 7.128 3.132 12.888 7.02 12.888 3.889 0 7.021-5.76 7.021-12.888s-3.132-12.925-7.021-12.925c-3.888 1e-3 -7.02 5.797-7.02 12.925z"/>
	<path id="path9" d="m136.08 196.93c0 4.933 2.195 8.893 4.859 8.893s4.86-3.96 4.86-8.893c0-4.932-2.196-8.928-4.86-8.928s-4.859 3.996-4.859 8.928z" fill="silver"/>
	<path id="path11" d="m37.477 124.9c-2.16-0.468-4.572-0.036-7.38 1.296-2.988 1.188-6.3 2.844-9.504 6.336-3.276 3.348-6.336 7.344-9.468 14.472-3.132 7.2-7.452 18.252-9.216 28.44-1.836 10.151-2.268 20.916-1.584 32.147 0.54 11.16 2.808 24.048 5.544 34.236 2.808 10.08 6.444 19.368 11.052 25.775 4.428 6.265 9.972 10.404 15.804 11.593 5.868 1.044 13.068-0.433 18.972-5.256 5.796-5.005 10.872-12.816 15.516-23.977l21.348 9.504h31.32c2.232 3.853 4.824 7.092 7.92 9.721 3.061 2.663 6.48 4.644 10.26 5.796 3.564 1.008 7.38 1.8 11.592 0 4.141-2.053 9.217-5.221 13.429-11.593 4.176-6.443 8.784-15.624 11.592-26.567 2.7-11.088 4.644-26.676 4.716-38.988-0.107-12.384-2.016-24.3-4.464-34.488-2.52-10.332-5.868-19.907-9.756-26.352-3.924-6.444-8.353-9.324-13.14-11.844-4.896-2.628-9.9-3.636-15.553-3.42 1.692-1.044 2.7-3.672 2.88-7.884 0.217-4.392 0.433-10.548-1.836-17.64-2.412-7.164-8.388-19.296-12.384-25.02-4.14-5.796-7.956-8.964-11.844-9.504 1.691-1.692 3.312-3.996 5.004-6.912 1.548-3.024 3.78-6.336 4.752-10.764 0.9-4.572 1.764-10.908 0.792-16.092-1.116-5.4-3.168-10.584-6.84-15.013-3.853-4.5-8.856-8.964-15.012-11.052-6.229-2.088-15.012-2.195-21.349-1.296-6.336 0.792-11.592 3.313-16.056 6.3-4.572 2.952-7.812 6.732-10.548 11.34-2.808 4.465-5.004 10.801-5.76 15.517-0.9 4.716-0.792 8.244 1.296 12.384 2.088 4.104 5.868 7.92 11.34 11.844-5.292 1.764-9.288 3.384-12.384 5.004-3.024 1.548-5.004 3.096-5.796 4.5-0.504-3.528-1.548-6.3-3.42-8.46-1.908-2.196-3.528-3.636-7.632-4.464-4.212-0.864-9.828-1.044-17.136-0.54-2.232 1.908-3.456 3.888-3.672 6.084-0.252 2.16 0.396 4.392 2.088 6.84 5.652-0.288 10.08-0.108 13.428 0.54 3.24 0.576 4.896 1.152 6.336 3.132 1.404 1.836 1.836 4.284 2.124 8.172 0.144 3.852-0.72 9.972-0.792 15.012-0.216 4.896-0.324 9.54 0.252 14.76 0.505 5.221 1.657 10.585 3.169 16.381zm117.25 29.124c-3.348 9.252-6.588 17.964-10.151 26.676-3.637 8.748-7.813 17.496-10.98 24.983-3.204 7.309-5.796 13.32-7.92 18.576 5.22 2.844 9.216 5.364 11.988 7.416 2.735 1.944 3.744 3.168 4.536 4.933 0.684 1.764 0.684 3.563-0.145 5.544l6.912 6.336-3.023 9.288-7.776 1.008c0.936 1.08 2.016 1.656 3.528 1.872 1.332 0.18 3.023 0.359 5.075-0.864 2.017-1.476 4.465-3.492 6.912-7.416 2.34-3.96 5.112-9.216 6.948-16.2 1.692-7.128 2.808-15.983 3.204-26.027 0.216-10.225-0.216-24.769-1.692-34.2-1.512-9.397-4.032-16.705-7.416-21.925zm-123.62 12.528c-2.124-0.432-4.212-0.144-6.264 1.008-2.16 1.152-4.104 3.024-6.228 5.761l-0.36 8.604c2.232-3.42 4.248-5.904 6.588-7.452 2.196-1.548 4.5-2.268 6.768-2.016-0.144-1.945-0.324-3.925-0.504-5.905zm-14.868 42.048s0.144 8.604 0.684 13.681 0.9 11.052 2.52 16.56c1.62 5.472 4.536 12.168 7.092 16.021 2.556 3.815 5.652 5.796 8.1 6.768 2.484 0.972 3.96 1.26 6.588-1.008 2.664-2.34 6.588-6.912 9.144-12.672 2.52-5.796 4.68-13.824 5.904-21.78 1.188-7.992 1.98-18.108 1.188-25.668-0.864-7.56-4.032-16.776-6.084-19.26-2.088-2.448-4.284 0.432-6.264 4.571-1.98 4.141-3.996 15.013-5.4 20.089-1.404 5.04-1.044 7.92-2.88 9.972-1.836 1.979-5.436 2.268-8.1 2.016s-5.652-1.979-7.776-3.563c-2.088-1.551-4.716-5.727-4.716-5.727z"/>
	<path id="path13" d="m64.513 60.098c-4.212 1.152-7.884 2.34-11.304 3.96-3.564 1.404-6.516 2.844-9 5.292s-4.212 6.084-5.472 9.504c-1.224 3.204-1.8 5.904-2.016 10.332-0.396 4.428-0.252 11.448 0 16.056 0.252 4.428 0.828 7.56 1.44 10.908 0.504 3.312 1.08 6.228 1.728 8.892 4.428 1.62 8.028 3.672 11.196 5.76 3.096 2.124 5.472 4.896 7.416 7.056 1.908 2.125 3.132 3.96 3.816 5.652 2.7-3.06 7.056-5.508 13.212-7.488 6.156-2.016 13.86-3.42 23.508-4.356-6.229-0.864-10.944-1.908-14.544-3.132-3.564-1.26-5.796-2.7-6.696-4.32-5.364 2.34-9.792 3.744-13.284 4.5-3.6 0.576-6.66 0.288-7.776-0.324-1.116-0.648-0.864-1.764 0.9-3.348-2.196 0.288-3.816 0.288-4.716 0-0.936-0.432-1.224-1.296-1.008-1.908 0.144-0.648 0.684-1.188 1.764-1.764-2.196 0.108-3.528 0-4.14-0.612-0.684-0.72-0.252-2.016 0.468-2.916 0.648-0.9 1.764-1.584 3.492-2.196-1.8-0.54-2.916-1.224-3.204-2.052-0.324-0.936 0.252-2.196 1.152-3.096 0.828-0.972 2.052-1.944 3.672-2.484 1.512-0.684 3.276-1.08 5.436-1.332-0.36-2.736-1.188-5.688-2.484-9.252-1.404-3.672-3.816-9.252-5.436-11.88-1.656-2.628-2.7-3.204-4.248-3.96-1.692-0.972-4.752-0.72-5.292-1.044-0.612-0.468 0.864-0.612 1.908-0.72 1.008-0.108 2.556-0.108 4.104 0.576 1.404 0.648 2.88 1.224 4.572 3.672 1.62 2.412 3.6 6.912 5.256 10.728 1.656 3.672 2.988 7.488 4.428 11.448 2.34 0.396 4.32 0.828 6.084 1.296 1.692 0.396 2.808 0.684 4.32 1.44 1.512 0.684 2.952 1.692 4.608 2.88 5.4-0.468 9.936-0.756 14.04-0.864 4.067-0.18 7.271-0.18 10.044 0 1.008-4.644 2.592-8.568 4.896-11.772 2.232-3.348 6.192-6.228 8.677-7.524 2.376-1.224 4.752-0.396 5.867 0 1.08 0.252 1.225 0.792 0.576 1.62 1.908-0.036 2.988 0.252 3.528 0.72 0.396 0.468 0.252 1.26-0.72 2.232 1.367 0.072 2.195 0.504 2.34 1.296 0.071 0.72 1.008 0.504-1.477 3.24-2.52 2.664-7.02 6.768-13.5 12.6-5.796-0.324-11.376-0.324-17.027-0.144-5.652 0.216-11.125 0.612-16.561 1.332 0.396 1.296 0.54 2.52 0.576 3.96-0.036 1.404-0.18 2.772-0.576 4.248 3.528 2.376 8.028 4.32 13.356 5.688 5.399 1.368 11.448 2.232 18.684 2.592 1.44-2.736 3.888-4.716 7.74-6.336 3.708-1.656 8.64-2.556 14.796-3.096 2.088-1.548 3.276-4.428 3.564-8.64 0.287-4.392-0.145-10.368-1.98-16.668-1.944-6.372-6.408-15.48-9.504-20.664-3.24-5.256-5.94-7.92-9.468-10.332-3.672-2.484-8.568-3.6-11.772-4.32-3.204-0.756-5.688-0.9-7.452-0.288-1.872 2.808-3.708 5.04-5.508 6.84-1.98 1.692-3.42 3.06-5.58 3.672-2.232 0.504-4.752 0.396-7.164-0.324-2.412-0.972-4.86-2.808-7.2-4.68-2.411-1.908-4.715-3.816-7.055-6.156z" fill="#169253"/>
	<path id="path15" d="m66.565 59.774 4.104-1.008c1.836 1.584 3.6 2.628 5.436 3.672 1.8 0.828 3.564 1.692 5.292 1.908 1.548 0.144 2.736 0 4.392-0.432 1.548-0.54 3.312-1.332 5.147-2.52 0.685-0.072 1.368-0.072 1.908 0s1.08 0.072 1.477 0.288c-1.225 1.836-2.593 3.312-4.248 4.572-1.729 1.224-3.457 2.376-5.581 2.772-2.232 0.252-4.536-0.036-6.912-1.008-2.52-1.044-5.472-3.492-7.344-4.86-1.835-1.404-3.059-2.484-3.671-3.384z" fill="#169253"/>
	<path id="path17" d="m74.341 52.934c0.072 0.864 0.072 1.836 0 2.772-0.108 0.972-0.396 1.908-0.72 2.952 0.972 1.188 2.196 2.16 3.816 2.772 1.584 0.648 3.816 1.044 5.58 1.044 1.692-0.18 3.204-0.72 4.68-1.764 0.144-0.288 0.252-0.828 0.324-1.476 0.072-0.72 0.072-1.548 0.144-2.628-2.268 0.72-4.428 0.72-6.768 0.144-2.376-0.648-4.68-1.872-7.056-3.816z" fill="#ffdd9e"/>
	<path id="path19" d="m64.297 58.298c-2.988-1.944-5.58-3.996-7.776-6.3-2.376-2.448-4.284-4.608-5.436-7.452-1.08-2.844-1.44-5.652-0.936-9.252 0.504-3.78 2.052-8.712 3.816-12.564 1.584-3.815 3.168-7.128 6.3-10.08 3.204-3.132 7.92-6.228 12.636-8.027 4.572-1.873 10.332-2.413 14.94-2.593 4.536-0.324 7.812-0.217 12.06 1.151 4.141 1.368 9.145 4.284 12.637 7.2 3.312 2.844 5.651 5.58 7.452 9.756 1.8 4.068 2.663 9.972 2.88 14.652 0.036 4.536-0.828 8.46-2.592 12.888-1.944 4.356-4.645 8.784-8.496 13.284-3.708-0.972-7.2-1.656-10.872-1.908-3.744-0.288-7.272-0.144-10.98 0.288l-0.648-2.736c6.768-2.088 12.024-4.68 16.344-7.488 4.176-2.988 7.596-6.192 8.892-9.756 1.225-3.6-0.18-7.38-1.151-11.196-1.116-3.852-2.557-7.632-4.86-11.484l0.576 4.32c-0.973-0.252-2.124-0.433-3.313-0.54-1.332-0.18-2.556-0.18-4.104-0.145-0.54-1.691-0.756-3.312-1.044-5.004-0.288-1.764-0.433-3.42-0.433-5.256-0.647 2.557-1.044 4.464-1.188 6.156-0.252 1.584-0.252 2.664 0 3.384-1.8-0.107-3.168-0.216-4.536-0.468-1.368-0.288-2.448-0.576-3.384-1.008-0.433-1.404-0.72-2.88-0.72-4.429-0.108-1.619 0.035-3.275 0.432-5.111-0.792 1.8-1.332 3.456-1.62 5.111-0.396 1.656-0.36 3.133-0.288 4.717-0.72 0.036-1.656-0.108-2.952-0.433-1.368-0.324-2.844-1.044-4.824-1.764-0.36-0.792-0.504-1.584-0.576-2.521-0.072-0.972 0.072-1.943 0.288-3.06-0.648 1.872-1.584 3.528-2.664 4.824-1.188 1.188-2.376 2.268-4.104 3.096-1.836 0.864-4.536 1.044-6.3 2.34-1.8 1.26-3.492 2.7-4.248 5.292-0.864 2.556-0.972 6.624-0.468 9.828 0.504 2.988 1.872 6.156 3.564 8.532 1.548 2.376 3.6 4.284 6.012 5.724-0.18 0.972-0.144 1.98-0.288 3.168-0.18 1.152-0.144 2.34-0.288 3.708-1.368-0.252-2.808-0.252-4.032 0-1.26 0.148-2.592 0.58-3.708 1.156z" fill="#feff48"/>
	<path id="path21" d="m79.489 16.79c-1.224 0.972-2.556 2.052-4.392 2.952-1.908 0.863-4.572 1.188-6.336 2.628-1.8 1.296-3.672 2.736-4.248 5.58-0.684 2.88-0.756 7.668 0.612 11.304 1.188 3.384 4.14 6.48 7.2 9.288 3.132 2.628 7.488 6.012 11.268 6.84 3.6 0.684 7.344-0.936 10.548-1.944 3.168-1.008 5.221-1.8 8.244-3.78 2.952-2.088 7.236-5.796 9.252-8.352 1.729-2.592 2.412-3.78 2.052-6.912-0.359-3.276-1.728-7.2-4.104-12.168-6.552-0.432-11.736-0.828-15.696-1.188-4.032-0.396-5.76-0.504-8.1-1.152-2.448-0.792-4.5-1.693-6.3-3.096z" fill="#ffdd9e"/>
	<path id="path23" d="m93.997 24.602c1.943-0.432 3.527-0.36 4.752 0.216 1.224 0.504 2.088 1.548 2.592 2.988-1.692-0.828-3.096-1.224-4.356-1.332-1.367-0.108-2.304 0.18-3.239 0.864 0.07-0.9 0.143-1.8 0.251-2.736z"/>
	<path id="path25" d="m87.301 31.442c2.16 2.196 3.348 3.888 4.104 5.076 0.611 1.044 0.575 1.368-0.253 1.944-0.791 0.612-2.375 1.044-4.607 1.584 1.404-0.612 2.34-1.296 2.808-2.052 0.324-0.72 0.288-1.62-0.108-2.556-0.36-1.188-1.008-2.376-1.944-3.996z"/>
	<path id="path27" d="m78.553 40.586c2.484 3.456 4.716 5.796 6.84 6.876 2.016 1.08 4.032 0.288 5.652-0.432 1.548-0.828 2.988-2.232 4.032-4.356-1.98 2.088-4.284 2.916-7.056 2.628-2.736-0.36-5.94-1.98-9.468-4.716z"/>
	<path id="path29" d="m79.597 30.182c0 1.044 0.864 1.872 1.908 1.872s1.872-0.828 1.872-1.872-0.828-1.908-1.872-1.908-1.908 0.864-1.908 1.908z"/>
	<path id="path31" d="m94.141 31.154c0 1.044 0.864 1.908 1.908 1.908s1.872-0.864 1.872-1.908-0.828-1.872-1.872-1.872-1.908 0.828-1.908 1.872z"/>
	<path id="path33" d="m83.593 22.838c-1.98-0.18-3.6-0.108-4.716 0.612-1.188 0.684-2.016 1.62-2.34 3.204 1.512-1.008 3.024-1.476 4.248-1.692 1.188-0.252 2.376 0.036 3.276 0.576-0.144-0.9-0.288-1.8-0.468-2.7z"/>
	<path id="path35" d="m32.293 66.398c-0.9-1.26-1.188-2.412-0.864-3.888 0.288-1.44 1.188-3.06 2.7-4.716 1.62 0.792 3.024 1.728 4.068 3.204 1.08 1.296 1.764 3.636 2.34 5.076 0.432 1.44 0.756 2.52 0.684 3.384-0.864 0.612-1.548 1.404-2.196 2.52s-1.26 2.376-1.692 4.068c-0.216-3.384-0.72-5.868-1.512-7.452-0.936-1.656-1.98-2.34-3.528-2.196z" fill="silver"/>
	<path id="path37" d="m105.55 108.81c0.145-2.232 0.937-4.248 2.232-6.588 1.332-2.34 3.744-5.544 5.724-7.092 1.872-1.62 4.32-2.412 5.4-2.376 0.936-0.108 1.044 0.756 0.323 2.196 2.269-0.684 3.637-0.756 4.248-0.36 0.576 0.396 0.396 1.26-0.684 2.736 1.764-0.288 2.592-0.072 2.88 0.504 0.108 0.504 0.648 0.432-1.692 2.844-2.447 2.34-6.516 6.12-12.491 11.34-1.513-0.252-2.7-0.648-3.708-1.188-0.972-0.54-1.764-1.26-2.232-2.016z" fill="#ffdd9e"/>
	<path id="path39" d="m76.681 112.01c-2.916-1.368-5.796-2.484-8.244-3.06-2.484-0.72-4.752-1.044-6.948-0.828-2.304 0.108-5.328 1.044-6.732 1.836-1.404 0.72-1.98 1.944-1.872 2.7-0.036 0.612 0.36 1.116 1.872 1.368s3.672 0.36 6.912 0.324c-2.592 0.612-4.68 1.188-6.264 1.872-1.584 0.612-2.988 1.332-3.384 2.016-0.54 0.612-0.936 1.368 0.18 1.692 1.044 0.252 3.024 0.144 6.084-0.18-2.412 1.044-3.744 1.908-4.392 2.736-0.612 0.756-0.324 1.8 0.864 2.016 1.08 0.144 3.096-0.144 5.904-1.008-1.188 0.72-1.872 1.548-2.196 2.196-0.396 0.684-0.72 1.476 0.144 1.836 0.792 0.252 2.7-0.036 4.752-0.324 1.944-0.54 4.572-1.116 6.912-1.872 2.16-0.684 4.14-1.512 6.084-2.34 0.864-1.836 1.26-3.6 1.332-5.436 0.036-1.872-0.252-3.672-1.008-5.544z" fill="#ffdd9e"/>
	<path id="path41" d="m63.361 146.21c2.772-3.096 6.192-5.58 10.692-7.452 4.428-1.872 9.648-3.168 15.66-3.888 5.904-0.936 13.752-1.548 19.368-1.296 5.508 0.072 10.008 0.468 13.5 2.592 3.348 2.088 6.84 4.104 6.876 10.332-0.072 6.228-4.393 16.992-6.984 26.892-2.7 9.828-6.048 22.465-8.532 31.681-2.556 9.107-4.571 16.487-6.336 22.68-2.159 2.016-4.644 2.88-7.596 2.88-2.988-0.107-6.372-1.08-10.152-3.204-2.916-6.264-4.104-14.58-3.708-25.487 0.396-10.944 2.484-24.049 6.264-39.708-1.261 2.844-3.636 5.075-7.272 7.092-3.636 1.943-8.532 3.384-14.544 4.464-0.72-6.408-1.728-11.736-2.88-16.38-1.26-4.682-2.664-8.282-4.356-11.198z" fill="#2161a1"/>
	<path id="path43" d="m113.08 131.88c1.655-1.728 3.779-3.204 6.66-4.428 2.771-1.404 6.155-2.556 10.151-3.06 3.96-0.504 9.433-1.332 13.356 0.288 3.852 1.548 7.704 4.572 9.468 9.216 1.728 4.68 2.052 10.8 0.576 18.36-1.729 7.416-7.021 17.46-10.332 25.561-3.313 7.92-6.3 14.436-9.36 21.924-3.24 7.452-6.264 14.688-9.468 22.284-1.656 0.144-3.456 0.144-5.4 0-1.979-0.145-4.067-0.576-6.407-1.009 1.943-9.504 4.031-18.432 6.407-27.359 2.305-9 5.256-17.784 7.452-25.668 2.052-7.992 4.716-15.948 5.22-20.952 0.396-5.04-0.72-6.229-2.52-8.568-1.944-2.412-5.688-4.356-8.316-5.436-2.664-1.117-5.111-1.549-7.487-1.153z" fill="#2161a1"/>
	<path id="path45" d="m17.893 167.95c-2.124 6.696-3.168 12.348-3.672 21.24s-0.324 21.96 0.54 31.428c0.648 9.252 1.404 16.92 3.924 24.12s6.984 15.156 11.016 18.612c3.888 3.275 8.1 3.707 12.204 1.151 3.996-2.735 8.568-7.775 11.772-17.208 2.988-9.684 6.3-25.956 6.588-39.636 0.18-13.824-1.656-30.636-5.112-41.544-3.636-10.908-10.872-19.944-15.732-22.824s-9.288 1.908-12.852 6.048c-3.708 4.177-6.552 11.809-8.676 18.613zm-7.596-11.88c-3.024 7.704-5.4 16.704-6.588 25.74-1.224 8.819-1.368 17.315-0.576 27.287 0.648 10.009 2.052 22.393 4.896 32.148 2.916 9.684 7.308 19.548 12.348 25.56 4.86 5.832 11.376 9.685 16.92 9.469 5.472-0.36 10.944-4.141 16.02-11.34 5.04-7.416 10.908-19.368 13.86-32.257 2.808-13.031 4.176-30.168 3.132-44.748-1.26-14.724-4.464-32.075-9.756-42.191-5.364-10.116-14.904-15.912-21.528-17.532-6.768-1.512-12.888 3.24-17.784 8.028-4.896 4.752-8.028 12.06-10.944 19.836z" fill="silver"/>
	<path id="path47" d="m25.777 205.43c0 4.933 2.16 8.929 4.86 8.929 2.664 0 4.824-3.996 4.824-8.929 0-4.932-2.16-8.928-4.824-8.928-2.7 0-4.86 3.996-4.86 8.928z" fill="silver"/>
	<path id="path49" d="m151.74 128.1c1.872 2.448 3.168 5.472 3.888 9.072 0.647 3.564 0.828 7.597 0.396 12.24 2.269 2.844 4.248 7.668 6.084 14.616 1.801 6.876 4.141 16.2 4.645 26.855 0.432 10.729-1.008 26.82-2.232 36.469-1.439 9.323-3.672 14.615-5.724 19.764-2.052 5.147-3.96 8.244-6.3 10.943-2.557 2.557-5.58 3.816-7.956 4.608-2.269 0.612-3.96 0.504-5.76-0.18-1.944-0.72-3.853-1.908-5.725-3.708l-10.764 0.828c1.584 2.664 3.815 5.111 6.3 7.199 2.521 2.16 5.437 4.248 8.892 5.437 3.421 1.008 7.381 2.592 11.484 0.864 4.032-1.908 8.712-6.301 12.636-11.772 3.816-5.544 7.309-12.023 10.044-21.24 2.628-9.468 4.969-22.571 5.473-34.451 0.324-11.952-1.656-26.604-3.168-36.469-1.62-9.899-4.177-16.523-6.301-22.392-2.268-5.868-4.247-9.576-6.911-12.636-2.701-3.131-5.653-5.147-9.001-6.047z" fill="silver"/>
	<path id="path51" d="m91.188 231.71c0.54 0.937 1.656 1.729 3.349 2.232 1.548 0.504 4.355 0.936 6.479 0.72 2.124-0.36 4.068-1.224 6.12-2.592 5.076 3.023 9.145 5.868 12.204 8.531 3.06 2.593 5.148 5.005 6.12 7.236 0.792 2.16 1.044 4.68-0.756 5.904-1.944 1.116-6.444 0.972-10.188 0.936-3.744-0.071-7.092-0.144-11.844-1.476-4.86-1.44-10.224-3.744-16.668-7.056-0.072-0.505-0.18-1.009-0.18-1.656-0.072-0.648-0.072-1.44 0-2.232 3.996 2.592 7.56 4.464 11.125 5.76 3.384 1.188 5.939 1.62 9.611 1.837 3.601 0.107 7.452 0 11.845-0.721-5.725-0.216-10.729-0.828-15.156-1.691-4.536-1.009-8.82-2.628-11.484-3.889-2.7-1.332-4.248-2.628-4.644-3.888 0.432-2.52 0.936-4.428 1.656-5.724 0.684-1.295 1.44-2.087 2.411-2.231z" fill="#fff"/>
	<path id="path53" d="m111.74 224.51c-0.612 0.648-1.044 1.44-1.296 2.376-0.252 0.937-0.36 1.944-0.181 3.168 3.061 2.448 5.725 4.464 8.137 6.48 2.34 1.908 4.319 3.527 5.939 5.004 1.512 0.036 3.061 0.036 4.645 0s2.987-0.145 4.607-0.18c-0.864 0.504-2.016 0.827-3.312 1.115-1.368 0.252-3.024 0.324-4.824 0.36 0.396 0.72 0.72 1.26 1.116 2.016 0.323 0.648 0.575 1.332 0.899 2.053 3.097 0.468 5.58 0.72 7.597 0.359 1.943-0.396 3.348-0.684 4.067-2.231 0.612-1.548 1.116-4.969 0-7.2-1.224-2.34-3.815-4.608-6.66-6.66-2.951-2.088-6.336-3.96-10.548-5.76-2.735 0.396-5.004 0.576-6.66 0.396-1.69-0.18-2.915-0.612-3.526-1.296z" fill="#fff"/>
</g>
</svg>
