<?xml version="1.0" encoding="UTF-8"?>
<!-- Created with Inkscape (http://www.inkscape.org/) -->
<svg id="svg2" width="128" height="128" version="1.0" xmlns="http://www.w3.org/2000/svg" xmlns:xlink="http://www.w3.org/1999/xlink">
 <defs id="defs4">
  <linearGradient id="linearGradient3392">
   <stop id="stop3394" stop-color="#4a585b" offset="0"/>
   <stop id="stop3396" stop-color="#5e7074" offset="1"/>
  </linearGradient>
  <linearGradient id="linearGradient2338">
   <stop id="stop2340" stop-color="#b1b1b1" offset="0"/>
   <stop id="stop2342" stop-color="#e4e4e4" offset="1"/>
  </linearGradient>
  <linearGradient id="linearGradient2320">
   <stop id="stop2322" stop-color="#6a3c1d" offset="0"/>
   <stop id="stop2324" stop-color="#8f5127" offset="1"/>
  </linearGradient>
  <linearGradient id="linearGradient3193">
   <stop id="stop3195" stop-color="#c2a05c" offset="0"/>
   <stop id="stop3197" stop-color="#d6be91" offset="1"/>
  </linearGradient>
  <linearGradient id="linearGradient2599" x1="26.174" x2="26.551" y1="39.447" y2="34.738" gradientTransform="translate(1.3838 1.0378)" gradientUnits="userSpaceOnUse" xlink:href="#linearGradient2338"/>
  <linearGradient id="linearGradient2601" x1="30.883" x2="31.157" y1="41.894" y2="39.631" gradientTransform="translate(1.3838 1.0378)" gradientUnits="userSpaceOnUse" xlink:href="#linearGradient2338"/>
  <linearGradient id="linearGradient2603" x1="33.941" x2="34.063" y1="37.613" y2="34.188" gradientTransform="translate(1.3838 1.0378)" gradientUnits="userSpaceOnUse" xlink:href="#linearGradient2338"/>
  <linearGradient id="linearGradient2605" x1="19.692" x2="20.151" y1="37.368" y2="32.286" gradientTransform="translate(1.3838 1.0378)" gradientUnits="userSpaceOnUse" xlink:href="#linearGradient2338"/>
  <linearGradient id="linearGradient2607" x1="31.067" x2="30.529" y1="32.414" y2="29.846" gradientTransform="translate(1.3838 1.0378)" gradientUnits="userSpaceOnUse" xlink:href="#linearGradient2338"/>
  <linearGradient id="linearGradient2609" x1="24.217" x2="24.401" y1="32.353" y2="28.501" gradientTransform="translate(1.3838 1.0378)" gradientUnits="userSpaceOnUse" xlink:href="#linearGradient2338"/>
  <linearGradient id="linearGradient2611" x1="25.038" x2="27.589" y1="27.005" y2="27.005" gradientTransform="translate(1.3838 1.0378)" gradientUnits="userSpaceOnUse" xlink:href="#linearGradient2338"/>
  <linearGradient id="linearGradient2613" x1="23.789" x2="24.401" y1="24.464" y2="20.306" gradientTransform="translate(1.3838 1.0378)" gradientUnits="userSpaceOnUse" xlink:href="#linearGradient2338"/>
  <linearGradient id="linearGradient2615" x1="23.697" x2="30.054" y1="21.427" y2="21.427" gradientTransform="translate(1.3838 1.0378)" gradientUnits="userSpaceOnUse" xlink:href="#linearGradient2338"/>
  <linearGradient id="linearGradient2617" x1="18.224" x2="18.249" y1="22.813" y2="21.162" gradientTransform="translate(1.3838 1.0378)" gradientUnits="userSpaceOnUse" xlink:href="#linearGradient2338"/>
  <linearGradient id="linearGradient2619" x1="14.433" x2="19.325" y1="18.41" y2="18.104" gradientTransform="translate(1.3838 1.0378)" gradientUnits="userSpaceOnUse" xlink:href="#linearGradient2338"/>
  <linearGradient id="linearGradient2621" x1="14.188" x2="14.371" y1="27.155" y2="22.935" gradientTransform="translate(1.3838 1.0378)" gradientUnits="userSpaceOnUse" xlink:href="#linearGradient2338"/>
  <linearGradient id="linearGradient2623" x1="10.824" x2="11.049" y1="30.029" y2="27.963" gradientTransform="translate(1.3838 1.0378)" gradientUnits="userSpaceOnUse" xlink:href="#linearGradient2338"/>
  <linearGradient id="linearGradient2625" x1="8.8675" x2="9.2108" y1="22.691" y2="21.405" gradientTransform="translate(1.3838 1.0378)" gradientUnits="userSpaceOnUse" xlink:href="#linearGradient2338"/>
  <linearGradient id="linearGradient2627" x1="16.206" x2="16.445" y1="41.465" y2="38.659" gradientTransform="translate(1.3838 1.0378)" gradientUnits="userSpaceOnUse" xlink:href="#linearGradient2338"/>
  <linearGradient id="linearGradient2629" x1="13.882" x2="13.881" y1="36.206" y2="33.636" gradientTransform="translate(1.3838 1.0378)" gradientUnits="userSpaceOnUse" xlink:href="#linearGradient2338"/>
  <linearGradient id="linearGradient2631" x1="7.7056" x2="8.1297" y1="37.613" y2="32.432" gradientTransform="translate(1.3838 1.0378)" gradientUnits="userSpaceOnUse" xlink:href="#linearGradient2338"/>
  <linearGradient id="linearGradient2633" x1="16.023" x2="16.328" y1="47.092" y2="44.973" gradientTransform="translate(1.3838 1.0378)" gradientUnits="userSpaceOnUse" xlink:href="#linearGradient2338"/>
  <linearGradient id="linearGradient2635" x1="9.7237" x2="9.7081" y1="46.297" y2="41.894" gradientTransform="translate(1.3838 1.0378)" gradientUnits="userSpaceOnUse" xlink:href="#linearGradient2338"/>
  <linearGradient id="linearGradient2637" x1="11.497" x2="11.619" y1="53.635" y2="50.333" gradientTransform="translate(1.3838 1.0378)" gradientUnits="userSpaceOnUse" xlink:href="#linearGradient2338"/>
  <linearGradient id="linearGradient2639" x1="17.735" x2="18.097" y1="56.082" y2="51.984" gradientTransform="translate(1.3838 1.0378)" gradientUnits="userSpaceOnUse" xlink:href="#linearGradient2338"/>
  <linearGradient id="linearGradient2641" x1="8.5617" x2="8.8063" y1="60.668" y2="57.243" gradientTransform="translate(1.3838 1.0378)" gradientUnits="userSpaceOnUse" xlink:href="#linearGradient2338"/>
  <linearGradient id="linearGradient2643" x1="18.285" x2="18.163" y1="61.585" y2="59.69" gradientTransform="translate(1.3838 1.0378)" gradientUnits="userSpaceOnUse" xlink:href="#linearGradient2338"/>
  <linearGradient id="linearGradient2645" x1="14.066" x2="14.076" y1="67.762" y2="64.692" gradientTransform="translate(1.3838 1.0378)" gradientUnits="userSpaceOnUse" xlink:href="#linearGradient2338"/>
  <linearGradient id="linearGradient2647" x1="13.76" x2="13.699" y1="72.655" y2="69.362" gradientTransform="translate(1.3838 1.0378)" gradientUnits="userSpaceOnUse" xlink:href="#linearGradient2338"/>
  <linearGradient id="linearGradient2649" x1="5.9321" x2="6.3135" y1="67.884" y2="62.962" gradientTransform="translate(1.3838 1.0378)" gradientUnits="userSpaceOnUse" xlink:href="#linearGradient2338"/>
  <linearGradient id="linearGradient2651" x1="23.789" x2="23.912" y1="51.373" y2="49.66" gradientTransform="translate(1.3838 1.0378)" gradientUnits="userSpaceOnUse" xlink:href="#linearGradient2338"/>
  <linearGradient id="linearGradient2653" x1="27.398" x2="27.398" y1="55.042" y2="53.88" gradientTransform="translate(1.3838 1.0378)" gradientUnits="userSpaceOnUse" xlink:href="#linearGradient2338"/>
  <linearGradient id="linearGradient2655" x1="28.07" x2="27.887" y1="59.873" y2="57.124" gradientTransform="translate(1.3838 1.0378)" gradientUnits="userSpaceOnUse" xlink:href="#linearGradient2338"/>
  <linearGradient id="linearGradient2657" x1="28.743" x2="28.804" y1="62.992" y2="60.607" gradientTransform="translate(1.3838 1.0378)" gradientUnits="userSpaceOnUse" xlink:href="#linearGradient2338"/>
  <linearGradient id="linearGradient2659" x1="24.584" x2="24.646" y1="67.701" y2="65.01" gradientTransform="translate(1.3838 1.0378)" gradientUnits="userSpaceOnUse" xlink:href="#linearGradient2338"/>
  <linearGradient id="linearGradient2661" x1="29.354" x2="29.171" y1="72.226" y2="70.27" gradientTransform="translate(1.3838 1.0378)" gradientUnits="userSpaceOnUse" xlink:href="#linearGradient2338"/>
  <linearGradient id="linearGradient2663" x1="24.768" x2="24.584" y1="75.284" y2="72.41" gradientTransform="translate(1.3838 1.0378)" gradientUnits="userSpaceOnUse" xlink:href="#linearGradient2338"/>
  <linearGradient id="linearGradient2665" x1="31.923" x2="31.892" y1="77.119" y2="75.243" gradientTransform="translate(1.3838 1.0378)" gradientUnits="userSpaceOnUse" xlink:href="#linearGradient2338"/>
  <linearGradient id="linearGradient2667" x1="20.059" x2="20.365" y1="73.144" y2="65.561" gradientTransform="translate(1.3838 1.0378)" gradientUnits="userSpaceOnUse" xlink:href="#linearGradient2338"/>
  <linearGradient id="linearGradient2669" x1="15.656" x2="15.625" y1="78.525" y2="76.691" gradientTransform="translate(1.3838 1.0378)" gradientUnits="userSpaceOnUse" xlink:href="#linearGradient2338"/>
  <linearGradient id="linearGradient2671" x1="9.7848" x2="9.7848" y1="76.507" y2="72.349" gradientTransform="translate(1.3838 1.0378)" gradientUnits="userSpaceOnUse" xlink:href="#linearGradient2338"/>
  <linearGradient id="linearGradient2673" x1="9.9683" x2="10.213" y1="84.886" y2="80.115" gradientTransform="translate(1.3838 1.0378)" gradientUnits="userSpaceOnUse" xlink:href="#linearGradient2338"/>
  <linearGradient id="linearGradient2675" x1="16.023" x2="16.634" y1="85.619" y2="81.277" gradientTransform="translate(1.3838 1.0378)" gradientUnits="userSpaceOnUse" xlink:href="#linearGradient2338"/>
  <linearGradient id="linearGradient2677" x1="25.807" x2="25.807" y1="80.421" y2="78.525" gradientTransform="translate(1.3838 1.0378)" gradientUnits="userSpaceOnUse" xlink:href="#linearGradient2338"/>
  <linearGradient id="linearGradient2679" x1="28.865" x2="28.865" y1="85.864" y2="83.846" gradientTransform="translate(1.3838 1.0378)" gradientUnits="userSpaceOnUse" xlink:href="#linearGradient2338"/>
  <linearGradient id="linearGradient2681" x1="31.74" x2="31.923" y1="90.084" y2="88.066" gradientTransform="translate(1.3838 1.0378)" gradientUnits="userSpaceOnUse" xlink:href="#linearGradient2338"/>
  <linearGradient id="linearGradient2683" x1="30.822" x2="31.067" y1="94.854" y2="92.53" gradientTransform="translate(1.3838 1.0378)" gradientUnits="userSpaceOnUse" xlink:href="#linearGradient2338"/>
  <linearGradient id="linearGradient2685" x1="25.196" x2="25.746" y1="92.897" y2="88.494" gradientTransform="translate(1.3838 1.0378)" gradientUnits="userSpaceOnUse" xlink:href="#linearGradient2338"/>
  <linearGradient id="linearGradient2687" x1="25.257" x2="25.441" y1="100.66" y2="95.282" gradientTransform="translate(1.3838 1.0378)" gradientUnits="userSpaceOnUse" xlink:href="#linearGradient2338"/>
  <linearGradient id="linearGradient2689" x1="30.455" x2="30.516" y1="100.3" y2="97.422" gradientTransform="translate(1.3838 1.0378)" gradientUnits="userSpaceOnUse" xlink:href="#linearGradient2338"/>
  <linearGradient id="linearGradient2691" x1="20.854" x2="21.007" y1="101.15" y2="98.584" gradientTransform="translate(1.3838 1.0378)" gradientUnits="userSpaceOnUse" xlink:href="#linearGradient2338"/>
  <linearGradient id="linearGradient2693" x1="15.35" x2="15.472" y1="95.649" y2="90.512" gradientTransform="translate(1.3838 1.0378)" gradientUnits="userSpaceOnUse" xlink:href="#linearGradient2338"/>
  <linearGradient id="linearGradient2695" x1="7.7056" x2="8.3783" y1="89.9" y2="84.702" gradientTransform="translate(1.3838 1.0378)" gradientUnits="userSpaceOnUse" xlink:href="#linearGradient2338"/>
  <linearGradient id="linearGradient2740" x1="13.059" x2="18.162" y1="32.086" y2="91.935" gradientTransform="translate(1.3838 1.0378)" gradientUnits="userSpaceOnUse" xlink:href="#linearGradient2338"/>
  <linearGradient id="linearGradient2744" x1="25.6" x2="33.211" y1="71.351" y2="70.486" gradientTransform="translate(1.3838 1.0378)" gradientUnits="userSpaceOnUse" xlink:href="#linearGradient2338"/>
  <linearGradient id="linearGradient2748" x1="21.968" x2="21.881" y1="29.232" y2="18.595" gradientTransform="translate(1.3838 1.0378)" gradientUnits="userSpaceOnUse" xlink:href="#linearGradient2338"/>
  <linearGradient id="linearGradient2752" x1="19.459" x2="17.903" y1="21.189" y2="24.476" gradientTransform="translate(1.3838 1.0378)" gradientUnits="userSpaceOnUse" xlink:href="#linearGradient2338"/>
  <linearGradient id="linearGradient2756" x1="22.486" x2="23.438" y1="25.427" y2="29.578" gradientTransform="translate(1.3838 1.0378)" gradientUnits="userSpaceOnUse" xlink:href="#linearGradient2338"/>
  <linearGradient id="linearGradient3346" x1="62.579" x2="73.539" y1="71.697" y2="28.21" gradientTransform="translate(1.3838 1.0378)" gradientUnits="userSpaceOnUse" xlink:href="#linearGradient3392"/>
  <linearGradient id="linearGradient3353" x1="28.903" x2="27.489" y1="51.544" y2="52.605" gradientTransform="translate(1.3838 1.0378)" gradientUnits="userSpaceOnUse" xlink:href="#linearGradient3392"/>
  <linearGradient id="linearGradient3359" x1="91.747" x2="92.454" y1="70.724" y2="71.608" gradientTransform="translate(1.3838 1.0378)" gradientUnits="userSpaceOnUse" xlink:href="#linearGradient3392"/>
  <linearGradient id="linearGradient3363" x1="40" x2="55.188" y1="71.375" y2="96.25" gradientTransform="translate(1.3838 1.0378)" gradientUnits="userSpaceOnUse" xlink:href="#linearGradient2320"/>
  <linearGradient id="linearGradient3369" x1="55.25" x2="57.125" y1="97.531" y2="97.531" gradientTransform="translate(1.3838 1.0378)" gradientUnits="userSpaceOnUse" xlink:href="#linearGradient2320"/>
  <linearGradient id="linearGradient3373" x1="64.875" x2="64.375" y1="89.5" y2="90.125" gradientTransform="translate(1.3838 1.0378)" gradientUnits="userSpaceOnUse" xlink:href="#linearGradient2320"/>
  <linearGradient id="linearGradient3377" x1="62.188" x2="71.438" y1="91.812" y2="105" gradientTransform="translate(1.3838 1.0378)" gradientUnits="userSpaceOnUse" xlink:href="#linearGradient3193"/>
  <linearGradient id="linearGradient3381" x1="114.31" x2="120.38" y1="67.25" y2="78.438" gradientTransform="translate(1.3838 1.0378)" gradientUnits="userSpaceOnUse" xlink:href="#linearGradient2320"/>
  <linearGradient id="linearGradient3387" x1="120.25" x2="121.69" y1="71.875" y2="71.875" gradientTransform="translate(1.3838 1.0378)" gradientUnits="userSpaceOnUse" xlink:href="#linearGradient2320"/>
  <linearGradient id="linearGradient3391" x1="86.312" x2="89.938" y1="86.188" y2="62.875" gradientTransform="translate(1.3838 1.0378)" gradientUnits="userSpaceOnUse" xlink:href="#linearGradient3193"/>
  <linearGradient id="linearGradient3395" x1="73.062" x2="77.375" y1="89.438" y2="101.75" gradientTransform="translate(1.3838 1.0378)" gradientUnits="userSpaceOnUse" xlink:href="#linearGradient3193"/>
  <linearGradient id="linearGradient3399" x1="86" x2="109.44" y1="96.312" y2="73.812" gradientTransform="translate(1.3838 1.0378)" gradientUnits="userSpaceOnUse" xlink:href="#linearGradient3193"/>
  <linearGradient id="linearGradient3410" x1="82.776" x2="83.129" y1="79.033" y2="79.254" gradientTransform="translate(1.3838 1.0378)" gradientUnits="userSpaceOnUse" xlink:href="#linearGradient2320"/>
  <linearGradient id="linearGradient3416" x1="92.543" x2="94.885" y1="90.523" y2="97.639" gradientTransform="translate(1.3838 1.0378)" gradientUnits="userSpaceOnUse" xlink:href="#linearGradient2320"/>
  <linearGradient id="linearGradient3420" x1="103.24" x2="103.86" y1="81.552" y2="82.944" gradientTransform="translate(1.3838 1.0378)" gradientUnits="userSpaceOnUse" xlink:href="#linearGradient2320"/>
  <linearGradient id="linearGradient3424" x1="108.05" x2="108.94" y1="92.159" y2="93.705" gradientTransform="translate(1.3838 1.0378)" gradientUnits="userSpaceOnUse" xlink:href="#linearGradient2320"/>
  <linearGradient id="linearGradient3430" x1="96.122" x2="96.365" y1="96.048" y2="95.385" gradientTransform="translate(1.3838 1.0378)" gradientUnits="userSpaceOnUse" xlink:href="#linearGradient2320"/>
  <linearGradient id="linearGradient3434" x1="94.31" x2="95.194" y1="92.159" y2="92.269" gradientTransform="translate(1.3838 1.0378)" gradientUnits="userSpaceOnUse" xlink:href="#linearGradient2320"/>
  <linearGradient id="linearGradient3438" x1="111.06" x2="113.89" y1="83.74" y2="87.142" gradientTransform="translate(1.3838 1.0378)" gradientUnits="userSpaceOnUse" xlink:href="#linearGradient2320"/>
  <linearGradient id="linearGradient3442" x1="113.27" x2="114.42" y1="82.347" y2="82.347" gradientTransform="translate(1.3838 1.0378)" gradientUnits="userSpaceOnUse" xlink:href="#linearGradient2320"/>
  <linearGradient id="linearGradient2404">
   <stop id="stop2406" stop-color="#b49900" offset="0"/>
   <stop id="stop2412" stop-color="#ffda0a" offset=".5"/>
   <stop id="stop2408" stop-color="#c6a800" offset="1"/>
  </linearGradient>
  <linearGradient id="linearGradient3947" x1="54.673" x2="85.495" y1="111.61" y2="72.349" gradientTransform="translate(1.3838 1.0378)" gradientUnits="userSpaceOnUse">
   <stop id="stop3407" stop-color="#4f3e2a" offset="0"/>
   <stop id="stop3409" stop-color="#72593c" offset="1"/>
  </linearGradient>
  <linearGradient id="linearGradient3951" x1="101.75" x2="97.923" y1="89.066" y2="91.084" gradientTransform="translate(1.3838 1.0378)" gradientUnits="userSpaceOnUse" xlink:href="#linearGradient3893"/>
  <linearGradient id="linearGradient3893">
   <stop id="stop3132" stop-color="#8dbbdc" offset="0"/>
   <stop id="stop3134" stop-color="#dadada" offset="1"/>
  </linearGradient>
  <linearGradient id="linearGradient4315" x1="106.82" x2="102.33" y1="85.724" y2="89.053" gradientTransform="translate(1.3838 1.0378)" gradientUnits="userSpaceOnUse" xlink:href="#linearGradient3893"/>
  <linearGradient id="linearGradient4319" x1="99.701" x2="98.08" y1="76.477" y2="79.004" gradientTransform="translate(1.3838 1.0378)" gradientUnits="userSpaceOnUse" xlink:href="#linearGradient3893"/>
  <linearGradient id="linearGradient4323" x1="97.486" x2="101.08" y1="82.81" y2="80.967" gradientTransform="translate(1.3838 1.0378)" gradientUnits="userSpaceOnUse" xlink:href="#linearGradient2404"/>
  <linearGradient id="linearGradient4327" x1="110.45" x2="106.94" y1="82.334" y2="84.505" gradientTransform="translate(1.3838 1.0378)" gradientUnits="userSpaceOnUse" xlink:href="#linearGradient3893"/>
  <linearGradient id="linearGradient4331" x1="101.97" x2="105.69" y1="77.444" y2="75.541" gradientTransform="translate(1.3838 1.0378)" gradientUnits="userSpaceOnUse" xlink:href="#linearGradient2404"/>
  <linearGradient id="linearGradient4335" x1="104.56" x2="103.43" y1="73.757" y2="75.63" gradientTransform="translate(1.3838 1.0378)" gradientUnits="userSpaceOnUse" xlink:href="#linearGradient3893"/>
  <linearGradient id="linearGradient4339" x1="101.44" x2="103.28" y1="74.575" y2="73.802" gradientTransform="translate(1.3838 1.0378)" gradientUnits="userSpaceOnUse" xlink:href="#linearGradient2404"/>
  <linearGradient id="linearGradient4343" x1="108.8" x2="109.34" y1="75.646" y2="76.739" gradientTransform="translate(1.3838 1.0378)" gradientUnits="userSpaceOnUse" xlink:href="#linearGradient3893"/>
  <linearGradient id="linearGradient4347" x1="115.6" x2="112.3" y1="81.152" y2="83.06" gradientTransform="translate(1.3838 1.0378)" gradientUnits="userSpaceOnUse" xlink:href="#linearGradient3893"/>
  <linearGradient id="linearGradient4351" x1="110.15" x2="109.4" y1="71.691" y2="74.394" gradientTransform="translate(1.3838 1.0378)" gradientUnits="userSpaceOnUse" xlink:href="#linearGradient3893"/>
  <linearGradient id="linearGradient4355" x1="80.141" x2="84.672" y1="73.778" y2="81.808" gradientTransform="translate(1.3838 1.0378)" gradientUnits="userSpaceOnUse" xlink:href="#linearGradient3893"/>
  <linearGradient id="linearGradient4359" x1="85.746" x2="85.467" y1="84.074" y2="82.484" gradientTransform="translate(1.3838 1.0378)" gradientUnits="userSpaceOnUse" xlink:href="#linearGradient3893"/>
  <linearGradient id="linearGradient4363" x1="82.844" x2="87.256" y1="89.202" y2="84.034" gradientTransform="translate(1.3838 1.0378)" gradientUnits="userSpaceOnUse" xlink:href="#linearGradient3893"/>
  <linearGradient id="linearGradient4367" x1="77.278" x2="82.685" y1="79.403" y2="86.439" gradientTransform="translate(1.3838 1.0378)" gradientUnits="userSpaceOnUse" xlink:href="#linearGradient3893"/>
  <linearGradient id="linearGradient4373" x1="54.5" x2="49.25" y1="117.25" y2="105.44" gradientTransform="translate(1.3838 1.0378)" gradientUnits="userSpaceOnUse" xlink:href="#linearGradient3893"/>
  <linearGradient id="linearGradient4377" x1="43.531" x2="47.406" y1="92.457" y2="97.894" gradientTransform="translate(1.3838 1.0378)" gradientUnits="userSpaceOnUse" xlink:href="#linearGradient2404"/>
  <linearGradient id="linearGradient4381" x1="42.5" x2="40.969" y1="99.625" y2="92.016" gradientTransform="translate(1.3838 1.0378)" gradientUnits="userSpaceOnUse" xlink:href="#linearGradient3893"/>
  <linearGradient id="linearGradient4385" x1="46.344" x2="41.469" y1="113.41" y2="107.66" gradientTransform="translate(1.3838 1.0378)" gradientUnits="userSpaceOnUse" xlink:href="#linearGradient3893"/>
  <linearGradient id="linearGradient4389" x1="37.562" x2="40.781" y1="107.3" y2="105.89" gradientTransform="translate(1.3838 1.0378)" gradientUnits="userSpaceOnUse">
   <stop id="stop3905" stop-color="#b49900" offset="0"/>
   <stop id="stop3907" stop-color="#ffda0a" offset=".5"/>
   <stop id="stop3909" stop-color="#c6a800" offset="1"/>
  </linearGradient>
  <linearGradient id="linearGradient4393" x1="40.938" x2="35.969" y1="110.84" y2="101.69" gradientTransform="translate(1.3838 1.0378)" gradientUnits="userSpaceOnUse" xlink:href="#linearGradient3893"/>
 </defs>
 <g id="layer2" fill-rule="evenodd">
  <path id="path4401" d="m48.259 110.7-15.568-2.0757 0.69189-6.746-17.124-2.9405-11.589-8.3027-2.9405-47.568 9.1676-1.9027 8.8216 25.6 35.805 10.032-7.2649 33.903z" fill-opacity=".66667"/>
  <path id="path3945" d="m57.518 117.71 64.959-31.037-27.281-21.485-58.464 16.39 20.787 36.132z" fill="url(#linearGradient3947)"/>
  <path id="path2742" d="m23.611 32.519 2.0757-1.0378 10.205-3.7189 0.60541 7.7838 0.34594 7.4378-12.627 3.4595-0.25946 0.60541-0.086487 1.9027 5.3622 4.4973 6.0541 5.5351v5.7946l-0.34595 11.503 0.51892 1.5568-0.34595 1.9892-0.086487 10.032 0.17297 1.2973-0.25946 2.0757-0.086487 1.4703-0.86486 3.4595-0.25946 2.4216-0.17297 1.8162-8.1297 3.2-0.6054-0.77838-0.60541-21.708-0.34595-10.551-0.25946-6.4 0.086487-12.627 0.34594-1.0378-0.25946-1.4703 0.34595-16.346-0.43243-1.0378-0.086487-1.1243z" fill="url(#linearGradient2744)"/>
  <path id="path2738" d="m10.551 20.151 4.7568 4.4108 3.8919 3.9784 4.4973 3.7189 0.25946 7.5243-0.25946 16.259v12.627l0.25946 9.6865 1.0378 26.724-6.227-4.4973-9.1676-7.0054-4.1514-4.2378 0.60541-18.595-0.43243-3.8919 0.51892-2.9405 0.17297-5.9676 1.8162-16.692-0.17297-1.2973-0.086486-2.1622 1.2108-4.7568 0.60541-7.7838-0.25946-1.2108 0.69189-1.7297 0.43243-2.1622z" fill="url(#linearGradient2740)"/>
  <path id="path2762" d="m10.551 20.151 4.7568 4.4108 3.8919 3.9784 4.4973 3.7189 0.25946 7.5243-0.25946 16.259v12.627l0.25946 9.6865 1.0378 26.724-6.227-4.4973-9.1676-7.0054-4.1514-4.2378 0.60541-18.595-0.43243-3.8919 0.51892-2.9405 0.17297-5.9676 1.8162-16.692-0.17297-1.2973-0.086486-2.1622 1.2108-4.7568 0.60541-7.7838-0.25946-1.2108 0.69189-1.7297 0.43243-2.1622z" fill-opacity=".15686"/>
  <path id="path2499" d="m5.6035 88.859 1.4066-0.79502 1.4677-0.18347 1.7735 0.73386 0.61155 0.67271 0.79502 1.8347 0.12231 1.2231-0.36693 2.2016-0.42809 0.12231-5.3817-5.8097z" fill="url(#linearGradient2695)"/>
  <path id="path2501" d="m14.777 92.651 1.5289 0.48924 3.0578 1.59 1.59 1.7735 0.48924 1.4677-1.3454 1.1008s-0.97848-0.061155-1.59-0.24462c-0.61155-0.18347-3.1189-1.5289-3.1189-1.5289l-1.59-1.0396-0.5504-0.85617-0.30578-1.2843 0.67271-1.2231 1.1619-0.24462z" fill="url(#linearGradient2693)"/>
  <path id="path2503" d="m20.587 101.76 0.85617-0.67271 0.67271-0.30577 1.1008 0.48924 0.61155 1.4066 0.36693 1.6512-2.0793-1.1008-1.5289-1.4677z" fill="url(#linearGradient2691)"/>
  <path id="path2505" d="m33.735 99.133-1.3454-0.67271-1.2231 0.42809-0.85617 0.85617-0.24462 0.97848 0.24462 0.85617 1.1008 1.4066 2.2627-0.91732 0.061155-2.9355z" fill="url(#linearGradient2689)"/>
  <path id="path2507" d="m27.681 97.298 0.73386 1.4066 0.30578 1.1008v1.7123 1.3454l-0.5504 0.85618-0.85617 0.36693-0.97848-0.18347-0.42809-0.61155v-1.4677l-0.12231-1.7735-0.24462-2.1404 0.5504-0.73386 0.5504-0.18347 1.0396 0.30578z" fill="url(#linearGradient2687)"/>
  <path id="path2509" d="m24.623 90.999 1.4066-0.24462 1.4066 0.061155 0.97848 0.30578 0.36693 1.2231-0.36693 2.4462-0.61155 0.42809-3.4247 0.24462-1.6512-0.24462-1.0396-0.61155-1.1619-2.2627 0.12231-1.8958 1.4066-0.061155 1.7735 0.30578 0.79502 0.30578z" fill="url(#linearGradient2685)"/>
  <path id="path2511" d="m33.429 94.241-2.6908 0.18346-0.97848 0.48924-0.61155 1.0396-0.18346 0.79502 0.36693 0.48924 0.85617 0.30578 1.7735-0.5504 0.97848 0.061155 0.73386-0.67271 0.42809-0.97848-0.67271-1.1619z" fill="url(#linearGradient2683)"/>
  <path id="path2513" d="m35.08 89.104-2.3851 0.5504-1.8347 0.73386-0.30578 0.85617 0.18347 0.73386 0.85617 0.61155 1.6512 0.061155 1.8347-0.24462s0.24462-0.97848 0.18346-1.2231c-0.061155-0.24462-0.18346-1.8958-0.18346-2.0793z" fill="url(#linearGradient2681)"/>
  <path id="path2515" d="m24.99 86.474 0.67271-0.85617 2.8131-0.73386h2.0181l1.3454 0.18347 0.30578 0.42809 0.24462 0.36693 0.18346 0.91733-0.30578 1.2843-0.48924 0.91733-3.0578 0.24462-1.0396-0.061155-1.8958-0.85617-0.67271-0.97848-0.12231-0.85617z" fill="url(#linearGradient2679)"/>
  <path id="path2517" d="m24.256 79.747 0.61155-0.30578 1.8347-0.12231 1.59 0.24462 1.2843 0.30578 1.1008 0.36693 0.67271 0.91733-0.91733 1.3454s-1.4677 0.91733-1.7735 0.67271-4.342-0.18346-4.342-0.18346l-0.91733-0.12231-0.91733-0.36693-1.1619-0.91733-1.7123-1.1008v-0.61155l0.42809-1.3454 0.73386-0.30578 0.67271-0.061155 1.5289 0.5504 1.2843 1.0396z" fill="url(#linearGradient2677)"/>
  <path id="path2519" d="m23.767 85.557-1.5289 0.97848-1.8347 0.73386v0.42809l-0.73386 1.4677-1.7123 1.3454-0.79502-0.5504-0.73386-0.97848-0.48924-1.5289 0.18347-2.1404 0.73386-1.59s0.30578-0.67271 1.1008-0.73386c0.71108-0.054699 1.0396 0.061155 1.0396 0.061155l2.9966 0.5504 0.73386 0.30578 0.67271 0.48924 0.36693 1.1619z" fill="url(#linearGradient2675)"/>
  <path id="path2521" d="m14.899 87.452-0.12231-1.4677-1.0396-1.957-0.48924-1.2843-1.7123-0.97848-2.5685-0.48924-0.91733-0.12231-0.85617 1.7735-0.12231 1.1008 0.79502 1.8958 1.59 1.2231 1.59 0.61155 1.7123 0.42809 0.97848 0.12231 1.1619-0.85617z" fill="url(#linearGradient2673)"/>
  <path id="path2523" d="m7.1324 74.243-0.42809 1.0396v1.8958l0.42809 0.78452 0.73386 0.43858 1.3454 0.30578 1.2843 0.18346 1.4677 0.24462 1.2231-0.24462 0.85617-0.36693 0.30578-1.0396-0.36693-1.4066-1.5289-0.91733-3.0831-0.84875-2.2374-0.068575z" fill="url(#linearGradient2671)"/>
  <path id="path2525" d="m17.773 77.729-1.1619 0.12231-0.97848 0.97848-0.061155 1.8347 0.42809 0.5504 0.48924 0.18347 1.0396-0.36693 0.91733-1.6512-0.67271-1.6512z" fill="url(#linearGradient2669)"/>
  <path id="path2527" d="m22.115 66.782 0.48924 0.85617 0.42809 1.6512 0.061155 2.4462 0.12231 1.1008 0.061155 1.6512-0.061155 1.0396-0.61155 0.85617-0.79502 0.42809c-0.47257 0.21127-0.79656 0.1254-1.1619 0.12231l-0.48924-0.42809-0.42809-0.4744-0.30578-1.1156 0.36693-1.1619 0.67271-1.7735-0.18347-2.3851-0.18347-1.4066 0.18347-1.2843 0.42809-0.30578 1.4066 0.18347z" fill="url(#linearGradient2667)"/>
  <path id="path2529" d="m34.897 76.281-2.2919 0.043243-0.9946 0.47568-0.56216 0.9946 0.69189 1.1243 1.0378 0.56216 1.9459 0.38919 0.77838-1.0378-0.086487-1.5568-0.51892-0.9946z" fill="url(#linearGradient2665)"/>
  <path id="path2531" d="m25.384 74.638 0.90811 0.043243 0.9946 0.21622 0.86486 0.73514 0.17297 0.47568-0.17297 0.47568-0.56216 0.86486-0.99459 0.56216-1.0811 0.21622-0.56216-0.56216-0.34595-0.51892-0.086487-1.2973 0.34595-0.69189 0.51892-0.51892z" fill="url(#linearGradient2663)"/>
  <path id="path2533" d="m28.8 74.768 0.86486 0.25946 1.7297-0.043243 1.773-0.25946 1.2973-1.1676-0.21622-1.6-2.0757-0.64865-2.0324 0.043243-1.2108 1.2541-0.34595 1.2108 0.21622 0.95135z" fill="url(#linearGradient2661)"/>
  <path id="path2535" d="m24.692 67.935 2.6378-0.64865 1.8595-0.21622 1.2541-0.086486 1.0811 0.43243 0.21622 0.77838-0.43243 0.69189-1.3838 0.56216-1.7297 0.17297-0.60541 0.56216-1.0378 0.086486-1.2541-0.38919-0.73514-0.90811-0.086486-0.38919 0.21622-0.64865z" fill="url(#linearGradient2659)"/>
  <path id="path2537" d="m34.984 63.395-1.9459-0.86486-2.6811 0.6054-1.1676 0.47568s-0.56216 0.51892-0.6054 0.64865c-0.043243 0.12973 0 0.82162 0 0.82162l0.51892 0.56216 0.90811 0.3027 1.5568-0.43243 1.2541-0.34595 0.69189 0.43243 1.3405-0.043243 0.43243-0.17297 0.043243-1.2108-0.34595-0.77838z" fill="url(#linearGradient2657)"/>
  <path id="path2539" d="m29.838 58.162-1.1676 0.86486-1.3838 1.1243-1.9027-0.25946-0.43243 0.086486-0.3027 0.86486 0.12973 0.90811s0.47568 0.51892 0.73514 0.51892c0.25946 0 1.5568-0.17297 1.5568-0.17297l2.3784-0.64865 1.8595-0.73514 0.69189-1.0811-0.25946-0.64865-0.77838-0.47568-1.1243-0.34595z" fill="url(#linearGradient2655)"/>
  <path id="path2541" d="m30.141 54.4-1.1243 0.17297-1.2108 0.56216-0.34595 0.77838-0.12973 0.82162 0.17297 0.77838 0.51892 0.086486 0.6054-0.043243 1.5135-0.69189 0.86486-0.25946 1.0811 0.43243 0.77838 0.43243 0.51892-0.086486-3.2432-2.9838z" fill="url(#linearGradient2653)"/>
  <path id="path2543" d="m26.595 51.373-0.95135-0.3027-1.6865 0.38919-1.2541-0.9946-1.4703-0.34595-1.0378 0.21622-0.12973 0.51892 0.12973 1.1676 0.3027 0.34595s0.69189 0.43243 1.0378 0.6054 1.8595 0.56216 1.8595 0.56216l0.47568-0.086486h1.6l0.56216-0.12973 0.69189-0.86486 0.3027-0.51892-0.43243-0.56216z" fill="url(#linearGradient2651)"/>
  <path id="path2545" d="m6.3568 64 1.0378 0.086487 1.2108 0.82162 0.73514 0.82162-0.21622 0.99459-0.17297 1.3405s0.086486 0.9946 0.17297 1.2541c0.086486 0.25946 0.47568 1.427 0.47568 1.427l-0.95135 0.69189-1.1243-0.21622-1.3405-0.17297-0.38919-3.3297 0.043243-2.4216s0.17297-1.2541 0.51892-1.2973z" fill="url(#linearGradient2649)"/>
  <path id="path2547" d="m11.373 70.573 0.64865-0.17297 2.9405 1.1676 2.4649 1.2108 0.12973 1.3838-0.25946 0.90811-1.427 0.60541-1.1676-0.25946-2.7676-1.6432-1.4703-1.773-0.17297-0.47568 0.51892-0.73514 0.56216-0.21622z" fill="url(#linearGradient2647)"/>
  <path id="path2551" d="m13.622 65.73 0.69189 0.043243 1.5135 0.69189 1.2108 0.21622 1.2108 0.47568 0.43243 0.25946 0.17297 1.3405v1.9892l-0.3027 0.73514-1.5135-0.51892-1.773-0.69189-2.1622-1.3405-0.43243-0.47568-0.38919-0.64865-0.21622-0.86486 0.47568-0.9946 0.47568-0.21622h0.60541z" fill="url(#linearGradient2645)"/>
  <path id="path2553" d="m18.422 60.324-2.2054 0.64865-1.427 0.69189-0.086486 1.1676 0.51892 0.77838 0.86486 0.56216 0.99459 0.21622s1.427 0.3027 1.7297 0.3027 2.6378-0.086487 2.6378-0.086487l0.64865-0.17297 0.99459-0.82162v-0.60541c-0.11876-1.2616-0.78484-1.4285-1.3405-1.8162 0 0-2.3351-1.1243-3.3297-0.86486z" fill="url(#linearGradient2643)"/>
  <path id="path2555" d="m12.541 61.751-1.3838-1.6432-1.0811-0.77838-0.77838-0.56216-0.77838-0.82162-1.4703 0.43243-0.12973 0.9946 0.12973 1.1676 0.64865 0.95135 0.69189 0.56216 1.427 0.64865 1.2108 0.21622c0.10656 0.10656 1.5267-0.33272 1.3838-0.77838-0.071128-0.22174 0.12973-0.3027 0.12973-0.38919z" fill="url(#linearGradient2641)"/>
  <path id="path2557" d="m17.038 53.968 0.9946-0.12973 1.427-0.043243 1.427 0.64865 1.2973 0.95135 0.51892 0.77838 0.086486 0.43243-0.56216 1.2108-1.1676 0.95135s-1.427 0.47568-1.8595 0.34595c-0.43243-0.12973-1.6432-0.51892-1.6432-0.51892l-0.9946-1.0811-0.3027-0.95135-0.086487-1.3405 0.17297-0.64865 0.69189-0.6054z" fill="url(#linearGradient2639)"/>
  <path id="path2559" d="m9.7297 50.941 0.99459 0.12973 1.773 0.56216 1.0378 0.77838 0.51892 0.82162 0.43243 1.1243 0.12973 1.3405-0.99459 0.64865-0.95135 0.38919h-1.3405l-1.0378-0.43243-2.2919-2.2054-0.43243-1.3838 0.34595-1.0811 0.99459-0.51892 0.82162-0.17297z" fill="url(#linearGradient2637)"/>
  <path id="path2561" d="m11.589 42.335-1.3405 1.0811-0.69189 0.9946-0.82162 1.1243-0.25946 1.2108 0.086486 1.0811 0.69189 0.9946 0.56216 0.38919 1.3405 0.34595 1.427-0.47568 0.90811-0.86486 0.21622-0.47568-0.34595-2.1622-0.51892-1.5135-0.25946-0.56216s-0.12973-0.69189-0.9946-1.1676z" fill="url(#linearGradient2635)"/>
  <path id="path2563" d="m14.314 46.659 1.1243-0.64865 1.5135 0.21622 1.1676-0.043243 1.9027 0.12973 1.5135 0.25946 0.90811 0.43243 0.34595 1.427-1.5135 0.51892-1.3405 0.17297-1.6865 0.043244-1.773-0.17297-1.427-0.60541-0.60541-1.0378-0.12973-0.69189z" fill="url(#linearGradient2633)"/>
  <path id="path2565" d="m9.1243 32.605 0.69189 0.12973 0.99459 0.17297 0.38919 0.47568-0.21622 1.3838-0.3027 1.0811-0.34595 1.0811-0.12973 1.5568v1.3838l-0.43243 0.9946s-0.43243 0.51892-0.60541 0.51892h-1.0811l-0.25946-2.0757 0.60541-2.9405 0.43243-3.2432 0.25946-0.51892z" fill="url(#linearGradient2631)"/>
  <path id="path2567" d="m12.238 34.335 1.3405-0.12973 1.0378 0.043244 1.2973 0.25946 1.773 0.64865 0.3027 0.17297 0.64865 0.95135 0.17297 1.6865-0.17297 0.43243-2.7243 0.3027-1.7297-0.17297-0.69189-0.17297-1.1243-0.69189-0.64865-1.2108v-0.86486l0.51892-1.2541z" fill="url(#linearGradient2629)"/>
  <path id="path2569" d="m13.838 40.303 0.86486-0.47568 1.2108-0.12973 1.1243 0.3027 0.86486 0.6054 1.1243 0.90811 0.60541 0.3027 1.2541 0.43243 0.99459 0.6054 0.086487 0.73514 0.043243 0.34595-0.6054 0.51892s-0.90811 0.38919-1.0811 0.34595-3.2865-0.90811-3.2865-0.90811l-2.4649-1.1676s-0.82162-0.82162-0.90811-1.4703c-0.086486-0.64865 0.17297-0.86486 0.17297-0.95135z" fill="url(#linearGradient2627)"/>
  <path id="path2571" d="m10.205 21.838 0.73514 0.47568 0.64865 0.86486 0.12973 0.77838-0.12973 0.69189-0.38919 0.51892-1.2973 0.25946-0.43243-1.3838 0.73513-2.2054z" fill="url(#linearGradient2625)"/>
  <path id="path2573" d="m10.811 28.065-0.56216 0.69189-0.25946 0.90811-0.12973 0.82162 0.38919 0.86486 0.56216 0.56216 1.0811 0.043243 1.1676-0.086487h0.73514l0.82162 0.12973 0.77838 0.043243 0.47568-0.17297 0.34595-0.43243-0.73514-0.77838-1.2973-0.82162-1.0378-0.43243s-1.0378-0.90811-1.3838-1.0811-0.82162-0.17297-0.95135-0.25946z" fill="url(#linearGradient2623)"/>
  <path id="path2746" d="m23.611 32.519-12.8-12.368 10.984-2.6811 13.924 9.8595-12.108 5.1892z" fill="url(#linearGradient2748)"/>
  <path id="path2575" d="m13.708 22.832-0.34595 1.0811 0.086487 1.9459 0.51892 1.6865 0.86486 1.4703 0.64865 0.25946 1.8162 0.73514 1.4703-0.17297 0.51892-0.3027 0.34595-1.8162-1.1676-2.2054-1.1676-1.1676-1.9027-0.64865-1.6865-0.86486z" fill="url(#linearGradient2621)"/>
  <path id="path2577" d="m13.449 19.546 2.2486-1.0378 2.1622-0.3027 1.8595 0.086487-0.56216 0.86486-1.6 1.6-1.1243-0.12973-1.5568 0.12973-1.2541-0.69189-0.17297-0.51892z" fill="url(#linearGradient2619)"/>
  <path id="path2750" d="m16.346 22.141 5.7946-1.3838 0.086486 6.7459-5.8811-5.3622z" fill="url(#linearGradient2752)"/>
  <path id="path2758" d="m16.346 22.141 5.7946-1.3838 0.086486 6.7459-5.8811-5.3622z" fill-opacity=".15686"/>
  <path id="path2579" d="m17.686 22.919 1.2108-0.12973 0.99459 0.12973 1.3838 0.43243 0.3027 0.73514-0.43243 0.43243-1.9027 0.086486-1.5568-1.6865z" fill="url(#linearGradient2617)"/>
  <path id="path2581" d="m25.081 20.238 0.60541 1.5135 0.82162 1.3838 1.773 1.1676 1.4703 0.17297 1.6865 0.21622s-0.3027-0.82162-0.73514-0.9946-1.9892-1.5568-1.9892-1.5568l-3.6324-1.9027z" fill="url(#linearGradient2615)"/>
  <path id="path2754" d="m21.881 20.497 0.086487 6.8324 2.2486 2.0757 7.7838-2.2486-10.119-6.6595z" fill="url(#linearGradient2756)"/>
  <path id="path2760" d="m21.881 20.497 0.086487 6.8324 2.2486 2.0757 7.7838-2.2486-10.119-6.6595z" fill-opacity=".15686"/>
  <path id="path2583" d="m24.908 22.573-1.3405 0.086487-0.69189 0.73514-0.25946 0.99459 0.47568 1.4703 0.77838 0.21622 0.99459 0.38919 0.95135 0.043243 1.0811-0.51892 1.3838-1.3405-3.373-2.0757z" fill="url(#linearGradient2613)"/>
  <path id="path2585" d="m28.973 27.719-1.1243-0.51892-0.86486 0.3027-0.56216 1.3838 2.5514-1.1676z" fill="url(#linearGradient2611)"/>
  <path id="path2587" d="m26.422 31.049-0.64865-0.69189-0.82162 0.043243-0.90811 0.69189-0.25946 0.9946-0.12973 1.2108 0.25946 0.86486 1.2973 0.56216 0.64865-0.043243 1.1243-0.51892 0.3027-1.773-0.86486-1.3405z" fill="url(#linearGradient2609)"/>
  <path id="path2589" d="m34.378 29.968-1.2541 0.17297-1.773 0.77838-1.6432 1.1676-0.95135 1.3838-0.12973 0.77838s-0.043243 0.12973 0.38919 0.43243c0.43243 0.3027 1.6432 0.12973 1.6432 0.12973l1.9459-0.21622 1.3405-0.56216 1.0378-1.2541 0.21622-0.86486-0.82162-1.9459z" fill="url(#linearGradient2607)"/>
  <path id="path2591" d="m20.93 31.914 0.86486 0.47568 0.77838 0.60541 0.51892 0.90811 0.043243 0.56216-0.38919 1.4703-0.38919 1.773-0.086486 1.6-0.25946 1.3405-0.51892 0.3027-0.77838-0.34595-0.56216-0.64865-0.12973-0.77838v-0.6054l0.34595-0.95135-0.3027-2.2054-0.12973-1.9027s0.64865-1.5135 0.9946-1.6z" fill="url(#linearGradient2605)"/>
  <path id="path2593" d="m36.238 35.719-1.1676 0.12973-0.90811 0.51892-0.69189 1.0378-0.086487 0.90811 0.47568 0.86486 0.82162 0.47568 0.82162 0.34595 1.0378 0.17297 0.3027-1.6432s-0.25946-2.6811-0.6054-2.8108z" fill="url(#linearGradient2603)"/>
  <path id="path2595" d="m29.362 45.189 0.47568-0.86486 1.1676-1.5135 1.8162-1.1676 0.56216 0.043244 1.2108 0.73514 1.1243 0.90811-6.3568 1.8595z" fill="url(#linearGradient2601)"/>
  <path id="path2597" d="m28.151 36.93h0.99459l1.3405 0.47568 0.47568 1.2541-0.086486 0.73514s0.043243 0.34595-0.043243 0.51892c-0.086487 0.17297-0.77838 1.3405-1.1676 1.2973s-1.6432 0.47568-1.6432 0.47568l-1.773-0.043244-0.9946-0.77838-0.34595-1.3838 0.38919-1.3838 0.82162-0.64865s1.7297-0.56216 2.0324-0.51892z" fill="url(#linearGradient2599)"/>
  <path id="path3341" d="m75.29 5.3816-45.438 17.406 0.53125 0.90625 5.6562 3.7812 1.1562 15.562-13.094 3.875 41.438 38.375 61.812-29.875-52.062-50.031zm-66.141 25.364-2.2027 0.63572 1.9375 1.5625 0.26516-2.1982z" fill="url(#linearGradient3346)"/>
  <path id="path3348" d="m6.9463 31.538-0.15625 1.5 1.75 1.7812 0.28125-1.6875-1.875-1.5938zm17.344 15.375-0.53125 0.09375-0.1875 1.4062 41.906 38.188v-1.5l-41.188-38.188z" fill="url(#linearGradient3353)"/>
  <path id="path3355" d="m6.9463 31.538-0.15625 1.5 1.75 1.7812 0.28125-1.6875-1.875-1.5938zm17.344 15.375-0.53125 0.09375-0.1875 1.4062 41.906 38.188v-1.5l-41.188-38.188z" fill-opacity=".15686"/>
  <path id="path3357" d="m65.289 85.197 55.066-26.34 6.9827-3.3588 0.08838 1.149-30.229 14.849-31.555 15.203-0.35355-1.5026z" fill="url(#linearGradient3359)"/>
  <path id="path3361" d="m35.009 59.038 22.312 20.125-0.5 38.438-4.875-3.875 0.8125-1.25 1.4375-2.5625 0.9375-4.1875 0.4375-6.0625-1.625-0.5c-1.0672 0.028256-2.0368-0.52894-2.9375-1.5l-1.1875 1.6875h-0.5l0.25-6.4375-1.6875-0.5625-3-1.375-2.375-2.3125-0.6875-0.75-2 7.5625-2.1875-2.5625-1.25-1.8125-1.0625 2.75-0.3125-0.4375 0.125-1.1875v-6.4375l-0.1875-5.75 0.5625-1.3125-0.5-3.5625 0.3125-10.188-0.0625-1.9375-0.25-4z" fill="url(#linearGradient3363)"/>
  <path id="path3365" d="m35.009 59.038 22.312 20.125-0.5 38.438-4.875-3.875 0.8125-1.25 1.4375-2.5625 0.9375-4.1875 0.4375-6.0625-1.625-0.5c-1.0672 0.028256-2.0368-0.52894-2.9375-1.5l-1.1875 1.6875h-0.5l0.25-6.4375-1.6875-0.5625-3-1.375-2.375-2.3125-0.6875-0.75-2 7.5625-2.1875-2.5625-1.25-1.8125-1.0625 2.75-0.3125-0.4375 0.125-1.1875v-6.4375l-0.1875-5.75 0.5625-1.3125-0.5-3.5625 0.3125-10.188-0.0625-1.9375-0.25-4z" fill-opacity=".15686"/>
  <path id="path3367" d="m57.321 79.413 1.5625 1.375-0.3125 36.563-1.4375 0.375-0.5-0.6875 0.6875-37.625z" fill="url(#linearGradient3369)"/>
  <path id="path3371" d="m58.446 83.35 18.125 15 0.25 1.1875-0.5 0.8125-18.375-14.438-0.5-1.25 0.0625-0.8125 0.9375-0.5z" fill="url(#linearGradient3373)"/>
  <path id="path3375" d="m60.696 88.225 0.125 10.562 13.625 10.438 0.5625 0.625 0.875-0.5625-0.1875-9.5-1.375-1.125-13.625-10.438z" fill="url(#linearGradient3377)"/>
  <path id="path3379" d="m121.63 59.663-22.187 10.625 3 2.3125 7.875-3.4375 8.1875 5.0625 0.1875 10.625 3.0625 2.125-0.125-27.312z" fill="url(#linearGradient3381)"/>
  <path id="path3383" d="m121.63 59.663-22.187 10.625 3 2.3125 7.875-3.4375 8.1875 5.0625 0.1875 10.625 3.0625 2.125-0.125-27.312z" fill-opacity=".15686"/>
  <path id="path3385" d="m121.63 59.6 0.25 27.25 1.1875-1.0625-0.1875-26.812-1.25 0.625z" fill="url(#linearGradient3387)"/>
  <path id="path3389" d="m72.384 85.663 37.937-16.438 8.125 5.1875-38.812 17.125-7.25-5.875z" fill="url(#linearGradient3391)"/>
  <path id="path3393" d="m72.196 85.788 7.4375 5.8125-0.1875 11.875-3-2.6875 0.5-1.875-5.0625-4.4375 0.3125-8.6875z" fill="url(#linearGradient3395)"/>
  <path id="path3397" d="m79.571 91.538 39.125-17.125-0.1875 10.75-39.062 18.188 0.125-11.813z" fill="url(#linearGradient3399)"/>
  <path id="path3401" d="m72.196 85.788 7.4375 5.8125-0.1875 11.875-3-2.6875 0.5-1.875-5.0625-4.4375 0.3125-8.6875z" fill-opacity=".15686"/>
  <path id="path3405" d="m88.134 75.913-2.4688 1.25-3.1875 4.5 1.9375 0.40625 3.7188-6.1562zm-6.3125 8.7188-1.4062 0.09375-1.4688 2.8125 0.40625 0.65625 0.6875 0.09375 1.6562-0.25 1.1875-2.5312-1.0625-0.875z" fill="url(#linearGradient3410)"/>
  <path id="path3412" d="m78.989 87.584 0.48614 0.66291 0.88388 0.044195 1.37-0.13258-0.39775-0.7513-0.92808-0.44194-0.61872 0.17678-0.7955 0.44194z" fill-opacity=".15686"/>
  <path id="path3414" d="m93.175 86.877c0 0.17678-0.30936 2.3865-0.30936 2.3865l0.044194 9.3692 5.3475 1.9445 2.4749-0.08839-1.8561-2.74-3.6681-0.92808 0.17678-6.7617-2.2097-3.182z" fill="url(#linearGradient3416)"/>
  <path id="path3418" d="m93.308 86.965 15.777-6.9385 5.4359-2.2981 0.97227 2.4307-20.02 10.076-2.1655-3.2704z" fill="url(#linearGradient3420)"/>
  <path id="path3422" d="m98.832 97.925 20.374-10.076 1.6352 2.4749-19.976 10.12-2.0329-2.5191z" fill="url(#linearGradient3424)"/>
  <path id="path3428" d="m95.429 96.909 1.6352-0.97227 3.0052 1.3258-1.4584 0.70711-3.182-1.0607z" fill="url(#linearGradient3430)"/>
  <path id="path3432" d="m95.385 90.014c0 0.17678-0.17678 7.0269-0.17678 7.0269l1.6794-1.0165-0.22097-6.4523-1.2816 0.7513v0.044194" fill="url(#linearGradient3434)"/>
  <path id="path3436" d="m112.49 81.794c0 0.61872-0.04419 5.7894-0.04419 5.7894l3.8891 1.5468 2.74-1.0607-3.9775-1.812-0.48614-2.961 0.08839-2.8726-2.2097 1.37z" fill="url(#linearGradient3438)"/>
  <path id="path3440" d="m114.65 80.689 0.17677 5.701 0.97228-1.1049-0.30936-4.9056-0.83969 0.30936z" fill="url(#linearGradient3442)"/>
  <path id="path3444" d="m93.175 86.877c0 0.17678-0.30936 2.3865-0.30936 2.3865l0.044194 9.3692 5.3475 1.9445 2.4749-0.08839-1.8561-2.74-3.6681-0.92808 0.17678-6.7617-2.2097-3.182z" fill-opacity=".15686"/>
  <path id="path3446" d="m112.49 81.794c0 0.61872-0.04419 5.7894-0.04419 5.7894l3.8891 1.5468 2.74-1.0607-3.9775-1.812-0.48614-2.961 0.08839-2.8726-2.2097 1.37z" fill-opacity=".15686"/>
  <path id="path3949" d="m97.489 87.085-0.5504-0.73386 0.12231-0.88675 0.67271 0.24462 0.51982 1.0702 0.091733 0.21404 2.171-0.33635-1.4983 1.0091 4.6478 9.9989 0.15289 2.0181-1.5595-1.2843-4.9536-10.029-1.4066 0.30578 0.67271-0.61155 0.97848-0.73386-0.061155-0.24462z" fill="url(#linearGradient3951)"/>
  <path id="path4313" d="m99.91 83.848 1.1297-0.56488 1.2189-0.38649 0.74326 1.3973 1.7244 2.8541 1.4865 2.4676 0.53515 1.1298 0.86218 2.0514 0.5946 2.2298-0.20811 2.7946-2.2892-1.5162-1.6352-2.319-0.86218-1.873-1.6352-4.2812-1.1595-3.3298-0.50541-0.65407z" fill="url(#linearGradient4315)"/>
  <path id="path4317" d="m99.256 80.964-1.3676-0.26757s-0.41622-0.11892-0.23784-0.56488 0.6838-1.0108 0.6838-1.0108l1.2487-0.59461 1.2487 0.11892v0.38649l-0.50542 1.2189-1.0703 0.71353z" fill="url(#linearGradient4319)"/>
  <path id="path4321" d="m99.226 80.904 1.1595-0.56488 0.14865 0.86218 0.71353 0.89191 2.4974-0.53514 0.56487 1.0703-1.8433 0.17838-1.9919 0.80272-1.2189 0.89191-0.71353 0.83245-0.26757-1.2784 1.4271-1.1892 0.32703-0.32703-0.11892-0.77299-0.6838-0.86218z" fill="url(#linearGradient4323)"/>
  <path id="path4325" d="m104.04 78.586 1.0406-0.20811 1.2189-0.71353 6.9569 15.014 0.14865 2.7352-1.9919-1.8135-7.3731-15.014z" fill="url(#linearGradient4327)"/>
  <path id="path4329" d="m101.6 78.021 3.4784-0.2973 2.3487-2.4082 0.68379 1.2487-1.546 0.9811-1.4271 0.86218-2.1703 0.62434-0.74326 0.05946-0.62434-1.0703z" fill="url(#linearGradient4331)"/>
  <path id="path4333" d="m104.99 77.604-1.6946-1.7838 1.2784-0.62434 0.68379 2.319-0.26757 0.089191z" fill="url(#linearGradient4335)"/>
  <path id="path4337" d="m103.27 75.85 1.1298-0.56488 0.26758-1.4568-0.74326 0.89191-0.2973 0.44596-1.3676 0.26757 1.0108 0.41622z" fill="url(#linearGradient4339)"/>
  <path id="path4341" d="m107.64 78.314 2.2659-1.2323 1.0733-0.55653 2.2659-0.59628 0.55653 1.1131-5.7641 2.5839-0.39752-1.3118z" fill="url(#linearGradient4343)"/>
  <path id="path4345" d="m109.79 78.831 1.5503-0.75529 0.79504-0.19876 4.7703 10.018 1.1528 2.1864-0.27827 2.7827-2.2261-1.6696-5.7641-12.363z" fill="url(#linearGradient4347)"/>
  <path id="path4349" d="m109.87 76.923-0.67578-1.0733-1.1926-0.31802 0.63603-1.3516 2.0274-0.23851-0.55653 1.3118 0.67579 1.3913-0.91431 0.27826z" fill="url(#linearGradient4351)"/>
  <path id="path4353" d="m78.265 83.044 1.8286-1.8684 5.9628 1.1926-1.1926 2.1466-6.5989-1.4708z" fill="url(#linearGradient4355)"/>
  <path id="path4357" d="m85.102 84.277 0.9143-1.9081 5.0485 1.1926-0.67579 0.59628-5.287 0.11926z" fill="url(#linearGradient4359)"/>
  <path id="path4361" d="m85.062 84.237 5.287-0.11926 0.71554-0.59628 0.55653 1.8286-1.1528 0.59628-5.4063 1.8684-0.11926-3.2994 0.11926-0.27827z" fill="url(#linearGradient4363)"/>
  <path id="path4365" d="m78.185 83.243 6.7579 1.2721 0.15901 3.2994-2.9814-0.67579 0.67579-1.7093-1.0336-0.8348-1.2323 0.079504-0.87455 1.6696-1.5901-0.27827 0.11926-2.8224z" fill="url(#linearGradient4367)"/>
  <path id="path4369" d="m78.185 83.243 6.7579 1.2721 0.15901 3.2994-2.9814-0.67579 0.67579-1.7093-1.0336-0.8348-1.2323 0.079504-0.87455 1.6696-1.5901-0.27827 0.11926-2.8224z" fill-opacity=".15686"/>
  <path id="path4371" d="m46.384 99.35 1.5938 0.5 1.625-0.3125 1.4375-1.9062 1 0.9375 3.375 1.0625 0.15625 2.0625-0.46875 3.7188-0.625 3.4688-0.625 1.875-1.5938 2.75-3.4375 3.0312-2.625 0.96875-1.7188-3.9688-0.65625-4.3438s1.2812-5.3438 1.1875-5.6562 1.375-4.125 1.375-4.1875z" fill="url(#linearGradient4373)"/>
  <path id="path4375" d="m44.759 90.882-0.1875 1.7812-1.2188 5.4062 0.59375 0.28125-1.25 2.5313-0.0625 0.90625s2.2812 1.625 2.2812 1.5 1.6562-3.9688 1.6562-3.9688l1.6875 0.5625 1-0.3125 0.34375-6.6875-3.0625-0.90625-1.7812-1.0938z" fill="url(#linearGradient4377)"/>
  <path id="path4379" d="m39.915 95.257 2.0625-7.3125 1.4062 1.5938 1.4062 1.2812-0.25 1.1875-1.125 6.1562-2.1875-1.375-1.3125-1.5312z" fill="url(#linearGradient4381)"/>
  <path id="path4383" d="m42.478 101.73-1.75 6.5938-1 4.9375 2 0.34375 2.4375-0.5625-0.21875-3.0312 0.46875-3.7812 0.65625-3-1.3438-0.875-1.25-0.625z" fill="url(#linearGradient4385)"/>
  <path id="path4387" d="m42.478 101.79-1.625 5.9062-0.96875 5.5625-0.375-0.21875-0.71875-3.1875-0.40625-2.8125 1.0312-1.4375 1.6562-2.1875 1.3438-1.8125 0.0625 0.3125v-0.125z" fill="url(#linearGradient4389)"/>
  <path id="path4391" d="m36.478 91.225 1.4375 2.0938 1.6562 2.0312 2.5938 2.125 1.7188 0.875-1.0938 2-1.5 2.8438-2.2812 3.0312-3 3.2188-1.2812 0.875-0.84375-3.4375-0.25-2.9375 0.03125-2.8125 0.40625-3.25s1-3.4062 1.1875-3.7188 1.2812-3 1.2188-2.9375z" fill="url(#linearGradient4393)"/>
  <path id="path4395" d="m36.54 93.632 0.90625 1.0625 1.1562 1.5938 1.1562 1.3438 2 1.3125 0.625 0.25-1.5312 2.6563-1.8438 2.9375-2.8125 3.0312-0.9375 0.5625-0.59375-2.125-0.28125-3.8125s0.25-2.625 0.25-2.8125 0.59375-2.8438 0.59375-2.8438l1.3125-3.1562z" fill-opacity=".15686"/>
 </g>
 <g id="layer1">
  <path id="path2308" d="m75.103 5.1628-45.625 17.406-3.75-2.625-3.6875-2.5625v-0.09375l-2.8438 0.625c-1.7373 0.2081-3.2465 0.18202-5.875 1.2812l-3.3438 0.71875-0.1875 1.875c-0.24753 1.0572-0.75356 1.9892-0.34375 3.375l-0.53125 5.3438-2.3125 0.75-0.043243 1.8314c-0.025426 0.35848 1.8548 1.4916 1.8005 1.8655-0.33634 2.317-0.91557 4.1473-0.50726 6.178l-1.6562 16.562h-0.0625l-0.1875 6.0312c-0.69291 2.9407-0.19021 4.8682-0.25 7.2812l-0.25 7.6562-0.34375 10.844c5.5664 6.2762 12.967 11.406 20.375 16.531v-0.15625c2.0449-0.75218 1.9724-0.4891 7.9375-3.4375 0.006091 2.5678 0.42488 5.2 1.2188 8 1.1912-0.51425 2.4253-1.5894 3.625-2.9375 0.17213 1.9416 0.58405 3.8754 1.3438 5.8125 1.43 0.67725 2.9646 0.51405 4.4375-0.0625 0.41435 1.4381 1.0859 2.8867 2 4.4062 2.571-0.52937 4.4535-1.7488 5.8438-3.375l5.1562 3.9062 1.6875-0.59375 0.34375-30.344 1 0.78125 0.0625 10.875 14.75 11.281 1.0938-0.5625-0.1875-8.8438 3.6562 3.0312 13.312-6.2188v1.0312l5.5625 2.0938 2.4062-0.09375 2.5625-1.2813 0.5625 0.46875-0.03125-0.75 3.2812-1.6875 0.9375 0.625 0.09375-1.125 4.375-2.1562 0.9375 0.875-0.03125-1.4375 3.5312-1.8125 0.875 0.5625 0.09375-0.9375 3.0938-1.625-1.8125-2.625-2.75-1.2188 2.3125-1.0938 3 1.8125 1.4062-1-0.09375-27.031 4.6562-2.3125-0.125-1.5-52.5-50.219zm-0.1875 0.5625 51.844 49.563-61.125 29.5-40.969-37.812 12.75-3.8438-0.15625-0.375-1-15.5-5.9688-4.1562 44.625-17.375zm-1.75 3.9062-0.40625 0.25 8.7812 9.5938-9 3.9688-6.2812-6.7188-0.5 0.15625 6.375 6.75-13.094 5.7812-5.0312-5.7188-0.3125 0.25 4.9688 5.625-12.969 5.7188-6.9688-7.9062h-0.21875l7 8-1.5625 0.6875 0.1875 0.34375 1.625-0.71875 16.5 18.906-5.375 2.8125-7.8125-8.375-0.3125 0.09375 7.8125 8.4375-0.71875 0.375v0.28125l0.90625-0.46875 1.5 1.625 0.21875-0.25-1.4375-1.5312 5.4062-2.8125 8.75 10.062-11.719 6.9062-20.562-21.281 11.188-6.0938-0.4375-0.28125-11 6.125-2.1875-2.25-0.4375 0.15625 2.25 2.3125-1.5312 0.84375 0.34375 0.1875 1.4375-0.78125 20.656 21.219-1.4688 0.875 0.15625 0.1875 1.5-0.875 3.4062 3.5312 0.09375-0.34375-3.2188-3.3438 11.781-6.8125 3.0625 3.5 0.3125-0.34375-3-3.375 4.9688-2.875 7.9688 8.8438 0.21875-0.15625-7.9062-8.8438 3.4688-2-0.40625-0.28125-3.3438 1.9688-3.2188-3.5938-0.3125 0.15625 3.25 3.5938-4.9062 2.9062-8.8438-10 18.906-9.8438-0.25-0.1875-18.812 9.8438-16.625-18.844 12.906-5.75 8.875 10.031 0.3125-0.25-8.7812-9.9688 13.062-5.8125 10.375 10.969-5.3125 2.7812-3.9062-4.1562-0.40625 0.34375 3.875 4.0312-3.4688 1.8125 0.34375 0.09375 3.2812-1.7188 3.6562 3.7812 0.21875-0.34375-3.4375-3.6562 5.3125-2.7812 8.875 9.375 0.15625-0.15625-8.75-9.375 5.5-2.9062-0.25-0.09375-5.4062 2.8125-10.281-11 9-4 1.3125 1.4375 0.15625-0.34375-1.125-1.25 2.6562-1.1875-0.03125-0.25-2.8125 1.25-8.7188-9.6875zm-4.9688 2.6875-24.5 10.25-1.6562-1.6875-0.5 0.25 1.6562 1.6562-1.25 0.53125 0.375 0.5 1.3438-0.5625 4.375 4.375 0.34375-0.25-4.25-4.3438 24.25-10.469-0.1875-0.25zm-46.656 5.8125 3.4375 2.3438c0.37021 0.71569 0.60269 1.543 1.0312 2.2188l-3.75-2.5-6.6562 1.875 8.5312 7.9375 8.5625-2.8438-4.0938-2.75c0.68505 0.057647 1.791 0.36274 2.625 0.40625h0.03125l4 2.7812c-2.8795 1.0527-5.9281 2.284-8.7812 3.25-0.93242-0.95977-1.3762-0.96739-2.3438-0.09375-0.20958 0.20652-0.39769 0.49699-0.5 0.90625-0.014893 0.050255-0.01883 0.10585-0.03125 0.15625l-3.8438-3.6562c0.021754-0.14578 0.043897-0.28715 0.0625-0.4375 0.074413-0.6014-0.22365-1.1375-0.5625-1.7812-0.7928-0.71517-1.0933-1.2391-2.0312-1.8438-0.8259 0.070088-1.7927-0.52274-2.6875-0.9375-0.030177-0.032067-0.063243-0.061966-0.09375-0.09375l-2.7812-2.6562 1.7812-0.40625c0.86643 1.1992 2.4124 0.76416 3.9375 0.84375 1.2013-0.56251 1.65-1.2524 2.1875-2.2812l1.9688-0.4375zm-3.5938 0.3125c0.43426-0.003123 0.86261 0.050003 1.3125 0.125-0.40956 0.94077-1.0376 1.6851-2.0938 1.8438-1.341 0.47932-2.5854 0.10523-3.4375-0.53125 1.3082-0.93396 2.7259-1.4268 4.2188-1.4375zm-7.4375 1.9688 2.875 2.75c-0.33303 2.3502 0.10376 4.2065 1.5 6.0938 1.5833 0.052083 2.4535 1.9583 4.75 0.15625-0.00136-0.08027 0.027033-0.16756 0.03125-0.25l3.8125 3.6875c-0.010816 0.29859-0.021572 0.60683-0.03125 0.90625 0.038806 0.084371 0.083654 0.14348 0.125 0.21875l-0.0625 17.094c-0.65742-0.73889-1.2119-0.96175-2.2188-1.0938-1.7079 0.20863-1.5243 0.60503-1.0938 2.2188 0.89202 0.83244 2.0885 1.2175 3.2812 1.4375l-0.0625 17.5h0.0625l0.21875 7.8125c-0.23367-0.090043-0.47633-0.16855-0.71875-0.28125-0.66211-0.3821-1.2467-0.60609-1.75-0.625-0.83888-0.031512-1.4544 0.53136-1.8438 2.0625 0.034681 0.8614 1.1328 1.0184 1.9375 1.6562 0.93138 0.79583 1.4939 1.2498 2.5 1.25l0.0625 2.625 0.15625 5c-0.63179-0.16054-1.2787-0.30468-2.0938-0.3125-0.37485-0.003597-0.78475 0.022014-1.25 0.09375-0.69029 1.24-0.36732 2.0018 0.15625 3.2188 0.84512 1.7496 1.776 2.1548 3.3125 2l0.25 8.25c-0.087204-0.02289-0.16488-0.06772-0.25-0.09375 0.098648-1.709-0.22397-2.6472-1.8438-3.1875-0.095071-0.01482-0.19383-0.01049-0.28125 0-0.53354 0.06401-0.9303 0.52582-1.3438 0.875-3.6454-2.1018-6.6407-4.2074-9.2812-6.625 0.36513-0.36619 0.18019-0.92993 0.40625-1.5312 0.11895-1.8081-0.057392-3.0323-1.0625-4.4688l-0.03125-0.0625c-0.95387-0.78176-1.8039-1.1395-2.6563-1.125-0.64557 0.010996-1.294 0.2199-1.9688 0.65625l0.21875-13.75 0.0625-3.4688c1.1319 0.1093 1.9183 1.2394 3.3438-0.375-1.1662-2.2692-0.61054-3.3071-0.25-4.9375-0.88892-1.4333-1.5747-1.5352-2.9688-2.0312l0.09375-5.6562h0.03125l1.6562-16.688c2.0399 0.34867 1.8878-0.87711 2.125-2.875-0.38492-1.9501 1.1337-3.5915 0.78125-5.4688-0.32067-0.55266-1.1351-0.40589-1.9063-0.6875l0.6875-6.9062c1.2004-0.013044 1.5592-0.037009 1.7813-1.25 0.26184-1.3651-0.4582-1.6721-1.4062-2.4375l0.15625-1.375zm13.375 65.219c-0.084008-1.2591-0.80371-1.6568-1.8438-2.1875-1.3198-0.31513-2.6842-0.40735-4.0312-0.5625-1.4744 0.00766-1.6952 1.0204-1.9688 2.2812-0.52485 2.3003-0.058153 3.9021 1.6875 5.4375 1.6508-0.35303 2.2128-1.9767 2.9375-3.375 1.4798-0.36849 2.3038-0.9993 3.2188-1.5938zm1.5312-64.844c1.4858 0.8427 3.6804 1.3524 5.375 3.6562-1.5709 0.1404-3.1054-0.4776-4.4375-1.7812-0.4185-0.52419-0.65553-1.2223-0.9375-1.875zm-3.75 0.40625 0.03125 2.5c-1.1291-1.2663-2.512-1.0938-4.0625-0.875l-0.5-0.46875 4.5312-1.1562zm0.65625 0.0625 1.875 1.2188c-1.2344 0.074719-1.4353 0.67795-1.6875 1.9062 0.025491 0.53348 0.19413 1.055 0.40625 1.5938 1.6307 0.01738 2.6381 2.0433 5.2188-1l3.0938 1.9688-2.1562 0.6875c-0.7089-0.63837-1.0442-0.54757-2.0312-0.3125-0.46006 0.41398-0.63602 0.73182-0.78125 1.2188l-1.7812 0.59375-2.1562-2v-5.875zm-11.969 0.75c0.75292 0.57782 1.2691 1.288 1.25 2.1875-0.081964 1.0139-0.84887 0.86317-1.5938 1.0312l0.03125-0.25c-0.60757-1.2877 0.15671-2.0082 0.3125-2.9688zm13.844 0.71875c0.13478-0.005043 0.28725-0.005844 0.4375 0.03125 0.02936 0.007248 0.063846 0.022285 0.09375 0.03125l3 1.9375c0.012292 0.02461 0.056009 0.076232 0.0625 0.09375-0.9974 1.7014-2.9736 1.8135-4.4688 0.96875-0.51066-0.42118-0.42291-1.0383-0.4375-1.3438-0.004344-0.9521 0.50384-1.6885 1.3125-1.7188zm-5.2812 0.28125c0.90178-0.010483 1.8567 0.17136 2.5 0.96875 0.15317 0.52835-1.4172 0.48212-2 0.46875l-1.4688-1.375c0.30991-0.031368 0.62054-0.058452 0.96875-0.0625zm-5.2188 0.4375c2.0959 1.1585 3.7018 3.4879 5.5312 5.3125-0.011836 0.22198-0.022619 0.41421-0.03125 0.625-1.1515 0.8918-3.1661 0.060567-4.1875-0.5-1.3935-1.4838-1.7778-3.9162-1.3125-5.4375zm1.125 0.0625c0.81346 0.3803 1.743 0.89539 2.3438 1.0625 0.79112 0.34779 1.0291 1.0262 1.5312 1.7188 0.18732 0.37404 0.68904 0.88871 0.625 1.4062-0.005202 0.04204 0.004802 0.11086 0 0.15625-1.9781-1.0377-3.121-2.7925-4.5-4.3438zm6.9062 0.59375 0.03125 2.5-2.0625-1.875c0.70792-0.12102 1.5503 0.25271 2.0312-0.625zm6.0312 3.4375c0.31651 0.010939 0.63136 0.11773 0.9375 0.21875l-1.875 0.625c0.094159-0.27619 0.28042-0.52356 0.40625-0.78125 0.1842-0.050818 0.35432-0.068615 0.53125-0.0625zm-16.812 0.34375c-0.4615-0.035849-0.52792 0.24598-1.0938 1.5938-0.028772 0.84465-0.20722 1.8498 0.8125 2.375 0.82744 0.4167 1.7831 0.059784 2.7188 0.125 0.93722-0.1954 1.7975 0.73904 2.8438-0.4375-0.42132-1.4537-1.7583-1.3971-2.9688-2.1562-0.64765-0.2736-1.0046-1.2013-1.6875-1.375-0.27607-0.054709-0.47117-0.11305-0.625-0.125zm24.438 0.21875 0.5625 7.4375c-1.8409 0.35743-2.6788 1.0697-2.6875 2.8125 0.59783 1.4734 1.6577 1.6106 3.0625 1.9062l0.1875 2.25-1.125 0.34375c-0.77211-0.59433-1.5422-1.2706-2.4375-1.3125-1.8459 0.45358-2.5276 1.7417-3.5 3.2188l-5.3125 1.5625 0.0625-11.594c0.76951 0.569 1.762 0.30866 2.8125-0.34375 0.69925-1.4999 0.54248-1.8206-0.09375-2.9688l8.4688-3.3125zm-24.344 0.0625c0.13047-0.016294 0.25574-0.003918 0.375 0.0625 0.68224 0.18174 1.4698 1.1099 1.75 1.25v0.03125h0.03125c1.0129 0.42109 2.5798 1.2625 2.9375 2.0312-0.53204 0.74354-2.1456 0.32469-2.7188 0.15625-0.70625-0.20756-1.8134 0.38264-2.5625 0-1.1058-0.56488-0.91507-1.6516-0.75-2 0.15025-1.0354 0.5461-1.4824 0.9375-1.5312zm23.25 1.5938c-2.1055 0.25352-3.4801 1.2453-5.1562 2.5-1.0365 2.2684-0.76964 2.6495 1.7812 2.875 2.0266-0.25319 3.4402-0.90102 4.3125-2.6875 0.21548-1.2126-0.33482-1.9658-0.9375-2.6875zm-0.03125 0.3125c0.34934 0.4106 0.82695 1.8782 0.6875 2.3438-0.64534 1.7039-2.6029 2.2696-4.0938 2.2188-1.6354 0.051944-2.8428 0.14648-1.375-1.9062 0.97942-1.2966 2.8152-2.5152 4.7812-2.6562zm-9.125 0.40625c0.35341-0.077201 0.63305 0.25634 0.90625 0.53125-0.67675 0.34346-1.257 0.9647-1.9688 0.9375-0.039803-0.059069-0.093595-0.10493-0.125-0.1875 0.064527-0.24438 0.48602-0.70635 0.59375-0.8125 0.21657-0.29023 0.41704-0.43015 0.59375-0.46875zm-16.195 0.58429-0.21149 1.2595-1.2064-0.78851 1.4179-0.47094zm17.632 0.44696c0.44761 0.78857 0.30887 1.7655 0.09375 2.5938-0.86532 0.9849-2.4084 0.16673-2.875-0.625-0.007291-0.012371-0.024494-0.0189-0.03125-0.03125 0.00712-0.009989-0.006943-0.021433 0-0.03125 0.35783-0.50593 0.49134-0.77834 0.5-0.96875 0.58728-0.39283 1.152-0.83126 2.3125-0.9375zm-5.75 0.1875c-1.503 1.6265-0.79453 3.7773-0.5625 5.8438-0.83397 2.6338 0.065944 3.1557 1.3125 3.5 1.1656-0.88033 0.7147-2.2366 0.96875-3.5938 0.097211-1.1642 0.71875-2.2257 0.71875-3.2812-0.34678-1.3627-1.2957-1.8291-2.4375-2.4688zm-13.781 0.21875 1.5625 1.4688-0.29324 0.90118-1.375-1.2573 0.10574-1.1127zm13.938 0.1875c1.0567 0.13519 1.861 1.4753 2 2.1562 0.006641 1.1038-0.60417 2.2207-0.6875 3.2188-0.069655 0.8342-0.11514 2.7763-0.59375 3.375-1.6761-0.039112-1.9232-2.19-1.1875-3.25-0.56554-2.4996-0.56-4.7128 0.46875-5.5zm-11.75 0.6875c0.60171 0.020044 1.6798 0.14626 1.8125 0.375 0.016004 1.7263-1.0493 3.8274-0.90625 5.625-0.05627 1.8149-0.41553 2.6482-1.8125 2.375-0.47538-3.2111 0.63428-5.6361 0.90625-8.2812v-0.09375zm4.4063 1.3438c-0.49192 0.011758-0.99311 0.077041-1.4688 0.25-1.401 2.5986-0.098981 3.7702 2.6562 4.4688 1.3225-0.030404 2.3214 0.086338 3.875-0.40625 0.56845-1.5197 0.26413-2.0281-0.6875-3.2188-1.3931-0.56092-2.8992-1.129-4.375-1.0938zm-0.71875 0.1875c0.22676-0.018656 0.47676-0.007185 0.71875 0 1.4519 0.043112 3.184 0.56394 4.2812 1.0625 0.7726 0.55169 0.7247 2.0737 0.625 2.9062-0.77072 0.1706-2.345 0.50078-3.625 0.25-2.5494 0.046949-3.7162-2.167-2.625-4.0938 0.19473-0.057564 0.39824-0.10634 0.625-0.125zm89.25 1.0312-3.2187 1.875-1.6875-1.7812-0.40625 0.15625 1.75 1.8438-4.6875 2.75 0.1875 0.28125 4.75-2.7812 12.25 12.906-12.719 6.5938-3.1562-3.5312-0.15625 0.21875 3.0312 3.4375-8.6875 4.5312-11.906-12.469h-0.5l12.156 12.594-1.5625 0.8125 0.25 0.1875 1.5312-0.78125 1.375 1.4375 0.21875-0.15625-1.3438-1.4062 8.6875-4.5 2.7187 3.0938 0.25-0.21875-2.6875-3.0312 12.719-6.5938 2.9688 3.125 0.21875-0.25-2.875-3.0312 3.4688-1.7812-0.1875-0.28125-3.5 1.8125-12.219-12.938 3.3125-1.9375-0.34375-0.1875zm-66.187 0.4375c0.44423 1.1943 0.68654 2.4546 0.34375 4.3125-1.1907-0.19644-2.5758-1.1291-2.75-1.75-0.009107-2.1041 1.3254-2.3026 2.4062-2.5625zm-7.5 1c-2.568 0.34242-3.8093 0.97695-3.625 3.25 0.25539 2.2509 1.9648 1.7643 4 1.625 1.0894-0.32654 1.6081-1.116 2.2188-2 0.23685-2.3071-0.81381-2.7559-2.5938-2.875zm0.5625 0.28125c1.2613 0.070369 2.0722 1.154 1.6875 2.3438 0.13148 0.69636-0.75138 1.7744-1.9375 1.8125-1.5945 0.85816-3.7135 0.27067-3.625-1.1875-0.37961-2.3258 1.6821-3.0741 3.3125-2.9375 0.19658-0.034111 0.38231-0.041303 0.5625-0.03125zm-13.156 2.375c-2.4828 0.44129-3.0086 1.201-1.4688 3.2812 1.8086 0.94757 3.6481 1.7766 5.6562 2.1875h0.03125 0.03125c0.89493-0.012224 1.5513-0.50149 2.0938-1.2188-0.003121-1.5927-1.7042-1.7065-2.9375-2.0625-1.0832-1.0199-2.0086-1.9305-3.4062-2.1875zm-0.65625 0.375c0.21912-0.008992 0.48452 0.011901 0.75 0.0625 1.176-0.029113 2.1592 1.1433 3.0938 1.7812 0.58397 0.3508 2.8482 0.50896 2.875 1.8438-0.098845 0.5694-1.1879 1.2622-1.8125 1.1562-1.8146-0.34867-3.999-1.277-5.6562-2.0938-1.1596-1.2866-0.78381-2.6871 0.75-2.75zm17.688 1.9688c0.63299-0.062484 1.3622 0.68566 2.0938 1.2188-1.7015 0.79008-3.5609 1.6935-5.25 1.6875 0.71154-1.3174 1.8423-2.3723 3.1562-2.9062zm-21.375 0.4375c-0.4023-0.006009-0.85154 0.51869-1.7188 1.5-1.5845 2.2916-2.2416 3.9825 0 5.5938 1.8465 0.70162 3.0919 0.21752 3.9375-1.5312v-0.0625c0.08159-1.3384-0.63996-2.5434-0.75-3.875-0.71108-1.0823-1.0664-1.619-1.4688-1.625zm0.0625 0.3125c0.36331-0.017415 0.6615 0.41694 1.0312 1.3125 0.1593 1.2201 0.94716 2.7703 0.9375 4-0.5578 1.2607-2.3114 1.6829-3.5312 1.375-2.4087-1.3554-1.3981-4.1648 0.1875-5.3438 0.58326-0.85716 1.0117-1.3263 1.375-1.3438zm4.2188 3.4062c-0.58176 0.040748-1.1089 0.22499-1.625 0.71875 0.30257 3.012 3.1779 2.4726 5.4375 2.625 1.1372-0.018736 2.1373-0.28118 3.1562-0.71875 0.94455-2.6788-3.1344-2.4034-5.4688-2.5312-0.32427-0.036521-0.62416-0.076919-0.90625-0.09375-0.21157-0.012624-0.39983-0.013583-0.59375 0zm2.7812 0.34375c1.1848-0.004642 1.9898 0.30465 3.3125 0.625 0.31365 0.15683 0.29576 0.9948 0.625 1.2812-0.78759 0.51709-1.9238 0.73029-2.8438 0.84375-2.2689 0.13163-5.1684-0.059706-5.2188-2.375 0.54894-0.57301 2.0274-0.21444 2.7812-0.25 0.51306-0.080282 0.9488-0.12345 1.3438-0.125zm5.5 1.1562 40.688 37.531 0.3125 1.0938-41-37.562v-1.0625zm0 1.6562 2.1562 2c-0.18373-0.096232-0.38423-0.18205-0.65625-0.1875l-1.5 0.34375v-2.1562zm-3.1875 1.125c0.81076-0.060545 2.0563 0.55684 2.7812 1.2188 0.004262 0.007213-0.004148 0.02405 0 0.03125 0.3949 0.68547 0.26503 1.3063-0.21875 1.9062v0.125c-0.62674-0.27746-2.3558-0.53073-3.0938-1.3438-0.50741-1.3752-0.13493-1.8878 0.53125-1.9375zm-11.125 0.4375c-2.2032 0.51764-2.7771 1.6035-1.9688 3.5625 2.3595 2.7036 4.5474 3.7511 6.9688 1.4062-0.65402-1.9085 0.48699-3.6945-5-4.9688zm0.1875 0.375c2.0481 0.4592 4.6596 1.337 4.375 4.375-2.0219 2.7996-4.9087 0.41898-6.1563-1.5-1.1809-1.6882 0.1223-2.8285 1.7812-2.875zm15.656 0.25c1.7166 0.2157 1.2377 0.88714 0.375 1.9375-0.31438 0.19104-1.2176 0.14504-1.9375 0.125 0.15782-0.55911 0.2839-1.1273 0.0625-1.7812 0.56339-0.11512 1.1921-0.29437 1.5-0.28125zm1.5625 0.65625 2.6562 2.4688c-0.63239-0.010604-1.2281 0.12423-1.8125 0.40625-0.98994 0.88727-0.82473 1.7858-0.625 2.8125 1.0872 0.45286 2.4539-0.65096 3.5625-0.90625 0.79469 0.24802 1.5917 0.90732 2.3438 0.84375l1.5625 1.4375-0.03125 4.2188c-0.66774-0.1283-1.4149-0.71396-2.0625-0.71875-1.2519 0.18437-2.4171 0.54554-3.5938 1.0312-0.067748 0.048474-0.097208 0.10859-0.15625 0.15625 0.45508-0.25888 2.6406-0.66125 3.7812-0.875 0.8942-0.25474 1.2623 0.46622 2.0625 0.65625 0.40852 0.41682 0.39931 1.0699 0.09375 1.8438l-0.0625-0.15625c-0.6875 0.2413-1.375 0.45174-2.0625 0-1.2352 0.088768-2.29 0.69561-2.9062 0.5625-1.1913 0.22477-1.5556-1.0914-1.125-1.7812-0.89692 0.9151-0.26135 1.6351 1.0312 2.0938 0.75815 0.16377 1.6677-0.62525 2.9688-0.71875 0.68666 0.34197 1.345 0.47834 2.0312 0.375l-0.0625 10.469c-0.31205-0.030239-0.61868-0.054413-0.90625-0.03125-1.2002 0.08921-2.4532 0.07278-2.9688 1.5312 0.5752 1.8644 2.1353 2.0385 3.8438 2.25l-0.0625 9.0312c-1.5356 0.14085-2.8164 0.57071-4.0938 1.5-0.2401 0.76925-0.36104 0.82481-0.0625 1.3125 0.29854 0.4877 0.66642 0.89421 1.1875 0.96875 1.0008 0.09407 1.9854 0.10434 2.9688 0l-0.03125 2.1562c-0.46036 1.3576-0.76298 2.7151-0.96875 4.0625l-1.3438-0.625c-1.922 0.59816-2.6797 1.5774-2.25 3.4063 0.22573 0.39234 0.56796 0.76126 1.0312 1.0938-1.1554 0.77746-3.4104 1.5931-5.7188 2.0938l-0.40625-9.4375 3.2188-0.09375c0.51032-1.4363 0.96737-2.8667 0.4375-4.1875-1.2366-0.75032-2.497-0.56212-3.8438-0.375l-0.34375-7.8438c1.2927-0.077484 2.9249 0.29909 4.1562 0.3125 2.9574-0.80797 4.365-2.56 0.84375-3.5938-1.8333-0.36-3.3046-0.9015-5.0625-0.375-0.02817-0.023156-0.062506-0.041211-0.09375-0.0625l-0.34375-8.125 0.09375-17.562c0.77599 0.02723 1.641 0.075372 2.125-0.21875l1-1.4062zm-8 1.7188c-0.40863 0.007821-0.83043 0.07803-1.3125 0.0625-2.0954 0.003579-1.8437 1.3234-1.7188 3.0625 0.37202 1.0788 0.82978 2.0036 2.4688 2.375h0.03125 0.03125c2.4041 0.38485 3.5315-0.4046 4.1875-2.6562-0.22174-1.5536-1.2687-1.6812-2.4375-2.5625-0.44591-0.2345-0.84137-0.28907-1.25-0.28125zm-1.3125 0.25c0.77878-0.10562 1.4894 0.16572 2.2188 0.375 0.88893 0.39994 2.3452 1.2091 2.5625 2.25-0.38243 1.8241-2.2188 2.3499-3.9062 2.25-1.4845-0.33644-2.0678-1.4748-2.2812-2.0938-0.45895-1.6333-0.21691-2.6269 1.4062-2.7812zm11.906 0.59375c0.070504-0.003164 0.14401 0.026287 0.21875 0.03125l3 2.75c-0.62621-0.066106-1.4862-0.59008-2.125-0.8125-0.79711 0.15477-2.166 1.3677-3.2188 0.9375-0.55725-0.89324 0.15306-2.1854 0.59375-2.3438 0.29455-0.10586 0.80963-0.53012 1.5312-0.5625zm97.125 1.5 0.1875 0.75-61.344 29.562v-0.8125l61.156-29.5zm-118.81 1.9062c-0.42383 0.065552-0.80489 0.32543-1.2188 0.4375-0.18199 1.2438-0.067578 2.3918 0.875 3.4062 1.362 0.894 2.5709 1.364 3.5625 1.0625-1.1512 0.23411-2.6555-0.70989-3.375-1.2812-0.81901-0.73274-1.2025-2.3131-0.8125-2.9688 0.30648-0.34559 1.6534-0.85461 2.1562 0.40625 1.2001 0.62275 2.5581 1.7644 3.1875 2.875-0.058797 0.12607-0.12098 0.24559-0.1875 0.34375 0.11008-0.11996 0.24076-0.2423 0.34375-0.40625-0.70885-1.52-1.9283-1.8772-3.0625-3.1562-0.57834-0.65553-1.0449-0.7843-1.4688-0.71875zm21.813 0.1875c-1.0148 0.021325-1.7598 1.4323-2.625 1.9062-0.82858 0.16761-1.7955-0.57554-2.4062-0.125-0.23559 0.8158-0.94436 1.6038 0.71875 2.5312 1.8623-0.36117 3.8079-0.78849 5.5938-1.5312l0.0625-0.03125c1.9769-1.5495 0.31372-2.3129-1.3438-2.75zm0.40625 0.28125c0.88543 0.099431 2.307 1.1956 0.84375 2.1875-1.3744 0.81144-3.3735 1.4673-5.5312 1.5312-1.2476 0.16305-0.93972-1.9055-0.5625-2.0625 0.22461-0.16568 1.4326 0.29666 2.2812 0.125 0.79436-0.55147 1.7372-1.4553 2.625-1.75 0.093789-0.029228 0.21726-0.045454 0.34375-0.03125zm92.437 0.90625v26.219l-0.65625 0.375 0.0625-26.312 0.59375-0.28125zm-87.312 0.25 2.5625 2.3438-0.8125 29.906c-0.25153-0.34334-0.4925-0.69196-0.75-1.0312-0.39354 0.75651-0.74819 1.5083-1.0625 2.25 0.007129-4.5122 0.024555-9.0779 0.03125-13.344 0.23426-1.0878 0.34976-2.2017 0-3.4062l0.03125-16.719zm86 0.375 0.0625 26.594-2.0625-1.5312-0.09375-24.031 2.0938-1.0312zm-102.06 0.28125c-2.0372-0.065728-3.1573 0.77621-4.625 1.375-1.3463 3.5025 5.2863 3.2742 7.3438 3.0938 0.53464-0.19824 0.80297-0.83147 1.125-1.2812-0.18983-2.6161-2.3567-2.7221-3.8438-3.1875zm-0.65625 0.34375c0.22383 0.001241 0.42975 0.032556 0.65625 0.0625 2.193 0.20249 5.1582 2.0122 2.6562 3.7812-3.3766 0.66538-7.8595 0.004083-7-2.5312 0.66273-0.68074 2.1207-1.3212 3.6875-1.3125zm100.41 0.5 0.09375 23.781-0.3125-0.21875-0.09375-10.469-2.8125-1.7188 0.1875-9.9375 2.9375-1.4375zm-80.906 1.0625 3.125 2.875-0.6875 26.531c-0.32284 1.1594-0.6374 2.3304-0.9375 3.5-0.78174-0.88546-1.5265-1.854-2.25-2.8438l0.75-30.062zm77.75 0.46875-0.1875 9.7188-2.625-1.625-0.15625-6.6562 2.9688-1.4375zm-109.5 1.4688c1.169 0.39243 2.0505 0.90727 2.7188 1.7812-0.5885 1.5032-0.23224 3.2967 0.1875 4.8438-0.75962 0.74278-1.9844 0.43013-3.0312 0.21875-0.55344-2.8148-0.5687-5.4724 0.125-6.8438zm106.31 0.09375 0.09375 6.3438-2.5625-1.5625-0.875 0.375-0.0625-3.5 3.4062-1.6562zm-71.219 1.0312 2.875 2.625v0.03125l-0.375 22.156c-0.85283-0.76084-1.5784-1.5945-2.3125-2.4375-0.23864 0.89999-0.49621 1.8084-0.75 2.7188l0.5625-25.094zm-28.156 0.375c-0.16354 0.003513-0.34831 0.030481-0.53125 0.0625-1.6739 0.91393-0.90025 2.1108 0.03125 3.3125 1.8829 1.1976 2.5939 1.9312 5.5312 2.8125 0.90652-0.90439 0.53457-1.0839 0.46875-2.2812 0.10942-2.5157-0.041986-2.3621-2.375-2.9688-1.2551-0.34842-1.9802-0.96209-3.125-0.9375zm0.0625 0.25c1.017-0.021954 2.1122 0.84716 3.0938 1.0312 2.8954 0.279 2.0603 1.4066 2.0938 2.75 0.081065 0.64932-0.032793 1.1997-0.34375 1.6875-1.2998-0.43673-3.9166-1.2416-5.0938-2.5-1.446-0.83247-1.0193-2.6461-0.1875-2.9062 0.14172-0.043822 0.29221-0.059364 0.4375-0.0625zm95.687 0.09375v3.5312l-2.625 1.1562 0.15625-3.4688 2.4688-1.2188zm-88.5 0.53125c-1.3235 0.48539-0.13532 3.8259-0.3125 5.4688 0.056519 1.6955-2.3591 2.8912 0.28125 5.125 1.6109 0.15386 2.1827-0.52249 2.7812-1.8438 0.23833-1.0634-0.19878-2.3053-0.21875-3.2188 0.21932-1.3596 0.074241-2.5484-0.34375-3.8125-0.3757-1.4756-0.79686-1.6203-2.1875-1.7188zm0.09375 0.28125c0.74307-0.030134 1.5699 0.044051 1.9062 1.4375 0.46236 1.121 0.12018 2.7108 0.28125 3.9375 0.33567 0.84168 0.32461 2.0028 0.21875 2.9688-0.22101 1.3892-1.6806 2.0684-2.3438 1.8125-2.174-0.97578-1.0326-3.1291-0.25-4.7188l0.0625-0.0625c0.1544-1.8171-1.1731-4.3934 0.125-5.375zm9.375 0.21875c-1.9015 0.040879-3.7478 0.25627-5.5625 1.0312-0.66256 0.66051 0.078537 1.333 0.8125 2.0625 1.3271 0.66672 1.7474 0.48356 2.8125-0.1875 0.17299-0.097527 0.24251-0.11125 0.5625-0.03125 1.155 0.14758 1.9441-0.35969 2.875-0.9375 0.48782-0.45988 0.11839-0.83306 0.09375-1.3125-0.31772-0.3917-0.81076-0.54794-1.5312-0.625h-0.03125-0.03125zm0.125 0.15625c0.66719-0.042988 1.8336 0.68129 1.0938 1.4375-0.93351 0.69949-2.1939 0.86012-3.2812 1.0938-0.64301 0.86896-1.7755 0.57194-2.5312 0.25-0.74049-0.15608-1.1414-1.6679-0.8125-1.7812 1.4684-0.54559 3.98-0.92749 5.5312-1zm76.156 0.15625-0.0625 3.4375-2.8438 1.25 0.09375-3.3125 2.8125-1.375zm-61.75 0.78125 3.5 3.2188-0.5 20.938c-1.3244-0.50916-2.4203-1.1821-3.3438-1.9688l0.34375-22.188zm58.562 0.78125-0.09375 3.3125-0.59375 0.25-1.7812-1.375 0.15625-1.0625 2.3125-1.125zm7.1875 0.6875 7.5938 4.75-4.4062 1.9375-0.21875-0.4375-2.5312 0.75-0.53125-1.375 0.5-1.3125-2.4688 0.3125-0.6875 1.4375-0.21875-0.34375-2.1875 2.0938-0.625-2.1562 0.15625-1.5312-1.1875 1.375c-0.27018 0.53407-1.3863-0.006507-2 0.53125l1.625 0.5 1.5625 1.6562-3.4062 0.28125 0.6875 1.375 2-0.3125 0.5625 1.1562-3.5 1.5312c-0.36234-0.42976-0.67685-0.88253-0.59375-1.5l0.5-1.3125c-0.06327-0.32108-0.39328-0.45168-0.8125-0.46875-1.2576-0.051223-3.4231 1.0765-2.4375 2.4062l1.3438 0.25c0.42669 0.29761 0.62715 0.71935 0.71875 1.1875l-20.094 8.9062-7.0625-5.3438 5.2812-2.2812v2.6875l1.4062 0.34375-0.65625 1.125c0.36548 0.72827 1.307 1.1305 3.0938 0.5625l0.40625-1 2.9062 0.71875h0.03125l5.4375-1.9062h0.03125l1-0.6875-0.5-1.9375-4.9375-1.0938-1.375-0.34375 1.0312-1.875 24.562-10.656zm-9.875 0.625 0.03125 0.84375-0.6875-0.53125 0.65625-0.3125zm-88.594 0.25c-0.94062-0.064944-1.2547 0.36396-1.75 1.0938 0.09778 1.0627 0.86 1.6985 1.625 2.375 1.0952 0.835 2.3008 1.3005 3.2812 2 0.92916 0.30625 1.5839-0.30734 2.3438-0.78125 0.11044-0.75374 0.40951-1.432-0.03125-2.4062-1.7891-0.88837-3.5116-1.8089-5.4688-2.2812zm-0.125 0.25c1.7134 0.21139 3.8808 1.6424 5.4375 2.3125 0.12603 0.57265 0.060663 1.7874-0.03125 1.9375-0.098339 0.16061-1.3007 0.63048-2 0.6875-1.041-0.70058-2.389-1.226-3.2812-1.9062-0.6631-0.51903-1.2712-1.7569-1.4062-2.0312-0.34982-0.49364 1.0907-0.86662 1.2812-1zm87.625 0.0625 2.5 1.9375-15.687 6.7188 1.7188-3.125 11.469-5.5312zm-68.375 0.46875c-0.15202-0.00135-0.29518 0.013256-0.4375 0.03125-0.56928 0.071975-1.059 0.33853-1.5625 0.9375-0.37638 0.87578-1.0291 1.4292-0.46875 2.6562 1.5152 0.91898 2.9662 0.44648 4.5312 0 0.68369-0.1391 0.99078-0.67376 1.4062-1.1875 0.29961-1.8734-0.23234-1.9943-1.9062-2.2812-0.59683-0.067148-1.1065-0.1522-1.5625-0.15625zm-0.28125 0.28125c0.56744-0.033053 1.1974 0.10371 1.8125 0.1875 1.1652 0.1422 1.5592 0.72636 1.7812 1.7812-0.084271 0.1897-0.70897 0.85909-1.4062 1.0625-1.1478 0.5089-2.9273 0.50399-4.125 0.3125-0.22863-0.82066 0.34019-2.2084 0.53125-2.4688 0.33388-0.63908 0.83881-0.84195 1.4062-0.875zm17.656 0.0625 3 2.75-0.375 23.219c-0.065081-0.074323-0.12406-0.13704-0.1875-0.21875-0.32729 0.8703-0.78848 1.4935-1.375 1.875 0.047404-2.5064 0.11946-4.3592 0.28125-6.3125-0.68961-0.1322-1.2945-0.32351-1.875-0.53125l0.53125-20.781zm-41.344 2.625c-0.43464 0.24349-0.45996 0.74518-0.5625 1.1875-0.20508 0.88464-0.15238 1.7965 0.4375 2.5625l0.03125 0.03125 0.0625 0.03125c1.363 1.1234 3.1277 0.98352 4.7813 1.2812 2.8219-0.2146 3.0458-0.89471 2.1875-3.3125-2.0831-1.4068-4.4564-1.8348-6.9375-1.7812zm103.06 0.125-0.21875 0.875-0.9375 0.5625-0.75-0.21875 0.53125-1.0312 1.375-0.1875zm-5.6875 0.03125-0.21875 0.875-0.9375 0.5625-0.75-0.21875 1.125-0.1875 0.78125-1.0312zm-97.062 0.0625c1.8153 0.055571 4.5239 0.39696 6.3125 1.625 1.216 1.9692 0.060377 3.1308-1.9375 2.9375-1.4829-0.27427-3.3424-0.014592-4.5-0.9375-0.41925-0.54444-0.54526-2.0664-0.4375-2.5312-0.032782-0.43798 0.36294-0.93954 0.5625-1.0938zm44.25 0.125 2.6875 2.4688-0.25 22.125c-0.97883-0.20004-1.94-0.4934-2.7812-1.3125l0.34375-23.281zm-26 0.0625c-1.0035-0.025453-0.76758 0.51924-1.25 1.2188-0.010727 1.4052-0.056354 1.8164 1.1562 2.5938 1.6936-0.16762 2.3632-0.85578 2.875-2.3438-0.55103-1.1433-1.6139-1.2588-2.7812-1.4688zm0.53125 0.21875c0.82437 0.024027 1.7 0.41448 2 1.3125 0.038334 1.1283-1.4159 1.921-2.5625 2.0625-1.443-0.58667-1.2-2.7395-0.21875-3.2812 0.23826-0.06462 0.50646-0.10176 0.78125-0.09375zm92.062 0.28125v9.9375l-2.1562 1.0312-0.28125-0.59375-0.15625-5-1.0938-2.7188-2.125 0.78125-0.25-0.53125 1.875-0.84375-0.09375-0.1875 4.2812-1.875zm-8.25 0.40625 0.5 1.0938-0.53125 0.3125-0.71875-1 0.75-0.40625zm-5.6875 0.03125 0.71875 1.9688-1.4688-1.5625 0.75-0.40625zm3 0.09375 0.65625 1.0625-2.9062 1.6562-2.7188 0.65625-0.5-0.6875 3.3438-0.4375 2.125-2.25zm0.46875 0.21875 1.125 0.21875 0.8125 0.96875-2.4688 1.375 0.25 0.5625-0.46875 0.1875-0.53125-1.125 1.75-1.3438-0.46875-0.84375zm5.1875 0.46875 0.53125 0.71875-5.2188 2.375-0.53125-0.9375 2.1875-1.125 0.28125-0.125 0.71875-0.375 2.0312-0.53125zm-25.187 0.0625-3.5312 5.5938-1.5625-0.3125 2.9375-4.25 2.1562-1.0312zm-54.406 0.125c0.52874-2e-5 1.0663 0.081615 1.4688 0.1875l0.03125-0.09375c0.52389 0.94701 0.24009 2.1272-0.09375 3.1875-1.5326 0.12583-3.3707-0.86148-3.5312-2.125 0.36334-0.90687 1.2438-1.1562 2.125-1.1562zm21.094 0.625 2.5625 2.3438-0.65625 37.156-2.25-1.6562 0.0625-4.6562c1.2359-3.3761 1.5167-7.3548 1.625-10.844-0.50308-0.11751-1.0238-0.21466-1.5312-0.3125l0.1875-22.031zm30.812 0.4375-2.375 3.3125-1.3125 0.5625-1.6875-0.34375-1.8438 1.8438-6.0938 2.625-0.3125 8.5938-12.5-10.281-0.03125-2.5 6.2812 5.7812 19.875-9.5938zm-68.219 0.15625c-0.24064 0.0403-0.46597 0.13198-0.71875 0.1875-0.33648 0.21168-0.52754 0.48463-0.75 0.78125-0.33685 0.72384-0.163 1.4904-0.09375 2.25 0.14142 0.30396 0.49693 0.55666 0.84375 0.59375 1.618-0.079986 1.5605-0.46251 2.125-1.9688l-0.65625-1.75c-0.25341-0.12297-0.50936-0.13405-0.75-0.09375zm0.15625 0.1875c0.19559-2.41e-4 0.37221 0.034774 0.53125 0.125 0.16685 0.27866 0.51632 1.2934 0.5 1.4688-0.71337 1.8979-1.4477 1.6628-1.9375 1.9062-0.49359-0.18024-0.77016-1.9436-0.34375-2.5312 0.021739-0.57535 0.66324-0.96803 1.25-0.96875zm88.937 0.03125 7 14.844 0.15625 2.5312-1.8125-1.8438-7.2812-14.656 0.9375-0.21875 6.1875 13.062 1.7812 3-1.5625-3.1875-6.3438-12.969 0.9375-0.5625zm8.3125 0.0625 0.78125 2.0625-1.6562 0.8125-1.0312-2.0625 1.9062-0.8125zm-2.5312 0.09375 5.875 11.938-0.125 2.5938-2.0625-1.5312-5.5625-12.156 0.75-0.375 4.7188 10.406 1.9688 3-1.4375-3.1875-5.1562-10.281 1.0312-0.40625zm-90.562 0.21875c0.48545 0.007627 0.9895 0.24858 1.4375 0.6875 0.4097 0.19046 0.7106 0.57895 0.90625 0.8125l0.09375 3.0312c-0.87656-0.022651-1.5987-0.31388-2.3438-1.0625v-0.03125c-0.6873-0.35117-1.5253-1.0542-1.8438-1.625 0.21713-1.2118 0.94092-1.8252 1.75-1.8125zm78.687 0.46875c0.34098-0.005837 0.62125 0.089382 0.71875 0.34375l-0.625 1.1562-0.9375 0.5625-1.2188-0.21875c-0.6117-0.83066 1.0396-1.8262 2.0625-1.8438zm9.6875 0.28125 0.25 0.53125-2.3125 1-0.34375-0.75 0.46875-0.21875 0.125 0.25 1.8125-0.8125zm-84.062 0.5625c0.15355-0.012159 0.31168-0.003515 0.46875 0 1.1009 0.024641 2.2584 0.36351 3.375 0.5 3.044 0.61856 0.81599 2.4504-0.75 3-1.4211-0.00789-2.9409-0.40304-4.3125-0.3125l-0.125-2.8125c0.43992-0.21445 0.8831-0.33852 1.3438-0.375zm31.812 0.28125 0.78125 0.71875-0.125 2.6875c-0.27561 0.14522-0.5268 0.30855-0.71875 0.5l0.0625-3.9062zm52.625 0 1.0312 2.1875-2.2188 1.1562-1.125-2.375 2.3125-0.96875zm-9.9062 0.6875c-0.04682 0.53785 0.32238 1.0871 0.84375 1.625l-0.84375 0.3125c-0.00844-0.76962-0.41554-1.2503-0.75-1.5312l0.75-0.40625zm14.969 0.09375v3.5l-0.375-0.78125-0.0625-2.5 0.4375-0.21875zm-10.219 0.1875 0.3125 0.65625-1.1875 0.53125-0.3125-0.625c-0.03483-9.38e-4 -0.05998-9.8e-5 -0.09375 0l1.2812-0.5625zm9.5312 0.15625 0.03125 1.7812-0.71875-1.4375 0.6875-0.34375zm-106.59 0.15625c-0.73984 0.81865-0.87155 1.765-1.0625 2.7812 0.064219 0.82885 0.49863 1.5839 1.1562 2.3438 1.5928 1.6386 3.5115 1.9549 5.6875 2.1562 2.0422-0.88032 1.6386-1.3278 0.8125-3.25l-1.2188-2.5312c-1.7396-0.83105-3.4284-1.5366-5.375-1.5zm0.28125 0.21875c1.8173-0.18042 3.5987 0.84219 4.8438 1.5312 0.60207 0.63996 0.86253 1.8688 1.2188 2.4688 0.69833 1.3014 0.49617 1.9871-0.40625 2.7812-2.1365 0.071857-3.9364-0.79084-5.5-2.0312-0.51727-0.62271-1.0319-1.7259-1.1562-2.2188-0.096924-0.38404 0.48471-1.7925 1-2.5312zm71.844 0.15625 5.75 0.90625-0.96875 1.9688-6.1875-1.3125 1.4062-1.5625zm23.562 0.21875 0.5 0.71875c-2.2519 0.15131-4.1637 1.0949-5.4375 2.4688l-0.25-0.71875c1.3352-1.2507 2.958-2.1936 5.1875-2.4688zm1.875 0.125 1.1875 2.4062-2.75 1.375c-0.49828-0.81922-1.0019-1.6264-1.4375-2.4688l0.46875-0.21875 1.5312-0.25-0.1875-0.34375 1.1875-0.5zm-19.437 0.71875 4.8125 1-0.4375 0.4375-5.1562 0.125 0.78125-1.5625zm25.344 0 0.8125 1.75 0.0625 3.2812 0.1875 0.09375-1.1562 0.5625-2.1562-4.625 2.25-1.0625zm-9.2188 0.5625c2.0355 3.8968 4.9239 6.884 5.875 11.938l-0.125 2.5938-2.0625-1.5312c-3.159-3.5301-3.8588-8.044-5.5625-12.156l0.78125-0.34375 4.6875 10.375 1.9688 3-2-3.4688-4.5938-10 1.0312-0.40625zm-84.437 0.03125c1.3833 0.056371 2.794 0.29681 4.1562 0.53125 0.66498-0.15536 1.6898 0.97677 1.8125 1.875-1.0336 0.50999-1.8239 1.1706-3.2812 1.4688-0.091395 1.7428-1.3963 2.5357-2.5938 3.3438-1.9094-1.1628-1.9995-3.7281-1.4062-5.125-0.12014-0.66395 0.55475-1.751 1.3125-2.0938zm60.688 0.21875 6.5 1.2812 0.03125 3.0312-2.5938-0.6875 0.6875-1.625c-0.42299-0.71597-1.5134-1.15-2.5625-0.71875l-0.875 1.5938-1.1875-0.3125-0.125-2.5312 0.125-0.03125zm19.906 0.34375c-0.1141 0.13345-0.22085 0.29224-0.34375 0.46875l0.1875 0.40625-5.1562 2.2188-0.3125 2.3438 0.0625 7.75-13.094 6.125 0.1875-11.281 18.469-8.0312zm-7.3125 0.0625 0.28125 1.5312-0.71875 0.5625-0.125-1.5625 0.5625-0.53125zm-32.844 0.0625 17.938 14.469c0.38767 0.6164 0.72557 1.2088 0.1875 1.5937l-18.25-14.469c-0.54148-0.96339-0.26364-1.3279 0.125-1.5938zm32.031 0.34375 0.15625 1.6875-5.1875 1.75-0.125-3.1562 5.1562-0.28125zm9.8437 0.03125c0.39966 0.91885 0.74244 1.866 1.0938 2.8125l-1.8125 0.875-0.09375-0.21875 1.4687-1.125-2.375 0.25-0.40625-1.0938-0.71875-0.3125 1.125-0.46875 0.25 0.5625 1.1562-1.1562 0.3125-0.125zm-69.656 0.4375c-5.706 0.36966-4.4045 1.073-5.625 1.6562 0.082046 2.0588 1.3648 2.802 3.2188 3.125 1.2384-0.12909 2.4792-0.25142 3.7188-0.375 1.2444-0.93162 1.1198-1.8633 0.875-3.2812-0.53878-0.85767-1.3199-0.93702-2.1875-1.125zm50.188 0.15625c0.837 0.001911 1.5969-0.14323 2 0.75l-1.0625 2.2812c-1.3426 0.51234-2.0841 0.33106-2.3438-0.40625l1.4062-2.625zm26.375 0 2.1875 4.4375-2.4688 1.125c-0.73262-1.4529-1.6048-2.8447-2.4688-4.25l2.75-1.3125zm-76.625 0.21875c0.52705 0.12226 1.6146 0.013991 1.9688 1.0312 0.33029 0.5049 0.011679 2.2666-0.65625 2.875-1.0738 0.13807-2.4363-0.01454-3.5938 0.15625-1.6146-0.10651-3.02-1.5121-2.8125-2.5312 0.23116-1.3444 3.1451-1.5854 5.0938-1.5312zm66.781 0.4375 0.5625 0.5 0.375 0.84375-0.40625 0.25-0.5625-0.78125 0.03125-0.8125zm15.625 0 0.71875 1.5625-0.65625 0.21875-0.0625-1.7812zm-15.75 0.0625-0.1875 0.875 0.625 0.78125-1.8125 1.6875 1.6875-0.375 0.15625 0.34375-2 1-1.8438-2.8438 3.375-1.4688zm-39.531 0.21875 0.8125 0.90625-0.125 30.313-1.0938 0.40625 0.40625-31.625zm15.125 0.875 6.625 4.9375-0.15625 11.031-2.1875-1.7812c0.27651-0.85766 0.55169-1.7048 0-2.5625l-4.5312-3.625 0.25-8zm27.687 0.125-1.9062 1.4062-2.2188 0.375 1.9062-1.4062 2.2187-0.375zm-19.969 0.15625c-0.27173 0.02049-0.55078 0.13977-0.75 0.40625l-0.03125 0.09375c0.56216-0.42044 1.1983-0.18371 1.8438 0.3125l0.0625-0.34375c-0.21484-0.26563-0.67212-0.5029-1.125-0.46875zm12.906 0.34375 1.7188 2.6562-1.9375-0.65625 0.21875-2zm23.531 0 1.7812 0.8125-1.1562 0.5-0.625-1.3125zm-3.1562 0.03125 0.25 0.5625-0.8125-0.375 0.5625-0.1875zm-12.219 0.28125c0.55769 1.5171 1.1049 3.032 1.75 4.5l-1.5312 0.71875-2-4.375c0.58549-0.29284 1.1945-0.56844 1.7812-0.84375zm-2.2812 0.3125 4.4687 9.9062 0.21875 1.7812-1.4688-1.2812-4.7187-9.8125 0.96875-0.15625 0.53125-0.4375zm14.156 0.15625 0.84375 0.375 0.6875 1.4688-2.2188 1.0938-1-2.1562 1.6875-0.78125zm-105.12 0.0625c0.85228 0.039585 1.7222 0.39528 2.375 0.84375 0.99135 1.6229 1.7771 4.1313 0.59375 5.625-1.7766-1.6624-3.4024-3.4625-4.9688-5.5v-0.21875c0.54589-0.54886 1.2614-0.78431 2-0.75zm33.969 0.1875c0.74587 1.1061 1.5894 1.9722 2.4688 2.6562-0.21787 2.3708-0.69709 4.6519-1.25 6.9062-1.2118-0.55034-2.207-1.3791-3.125-2.3438 0.60316-2.4603 1.2793-4.8897 1.9062-7.2188zm77.094 0 1.3438 1.9375-2.5625 1.3125 0.125-1.5-0.5-1 1.5938-0.75zm-57.906 0.90625 12.5 9.5312v0.03125l0.3125 9.6563-12.938-9.9688 0.125-9.25zm-26.531 0.09375c0.43582 1.1653 0.37311 2.1264 0.03125 3-0.99451 0.091147-1.9521 0.27358-2.9688 0.3125-1.1359-0.46899-1.1115-1.2616-0.90625-1.9688 1.0229-0.73989 2.4866-1.0662 3.8438-1.3438zm63 0.09375 2.0625 4.2188-2.7188 1.3125-0.21875-5.0938 0.875-0.4375zm-4.75 0.125 2.0938 0.9375-0.15625 6.8438 3.375 0.75v2.1563l-5.1875-1.8125-0.125-8.875zm16.437 0.28125 1.0938 2.1875-2.6562 1.2812c-0.23871-0.78127-0.5586-1.5404-0.90625-2.2812l2.4688-1.1875zm-12.937 0.21875 0.28125 5.9062-1.4062 0.78125 0.1875-6.2188 0.9375-0.46875zm18.5 0.34375 0.46875 1.0312 1.25 0.8125-3.3125 1.625-0.03125-1.125-0.59375-1.2812 2.2188-1.0625zm-93.156 0.15625c0.74541-0.020246 1.5716 0.15061 2.2188 0.4375l0.125 4.3438c-1.7286-0.073962-2.5833-0.64248-2.9688-1.6875-0.52325-0.84798-0.46786-2.0973-0.25-2.9688 0.25723-0.065813 0.55822-0.1164 0.875-0.125zm4.5938 0.46875c0.76241 0.022164 1.5256 0.17553 2.0312 0.40625 0.23929 0.90039-0.15758 2.7279-0.5 3.5625-0.8606 0.086413-1.9911-9.26e-4 -2.9375 0.28125l-0.1875-4.0625c0.26376-0.071272 0.53809-0.13147 0.84375-0.15625 0.2457-0.019922 0.49586-0.038638 0.75-0.03125zm18.469 0.25c1.3491 0.95749 2.8148 1.499 4.3125 1.8125-0.13281 1.8394-0.081262 4.0671-0.125 6.3438-0.71089 0.25974-1.5938 0.18716-2.7188-0.34375-0.56176 1.2932-1.0555 2.6027-1.4688 3.9375-1.2313-0.89395-0.67714-0.69472-2.125-1.4688 0.084353-0.29912 0.1669-0.60608 0.25-0.90625 0.4553-0.82034 0.87874-1.62 1.25-2.375-0.20115-0.061557-0.40257-0.11229-0.59375-0.1875 0.54852-2.2059 0.99398-4.4597 1.2188-6.8125zm-8.4062 0.40625c1.7084 2.9766 4.2172 5.2812 6.9579 6.9661 0.061899 0.31792-0.65536 1.2851-0.73916 1.5964-1.9594 3.8424-4.5397 7.2259-7.875 9.9062-2.1363-7.7974-0.41831-13.385 1.6562-18.469zm74.219 0.75 0.625 1.25 0.875 0.8125-4.0312 2 0.125-1.3125c-0.07074-0.47707-0.19009-0.94821-0.3125-1.4062l2.7188-1.3438zm-95.781 0.0625c-1.2218 0.002443-1.5246 0.47742-2.0312 1.4062-0.10123 0.75684 0.19624 1.5395 0.5625 2.2188 1.5973 1.6342 3.7812 2.4275 5.8438 3.3125 0.9007 0.16332 1.5735-0.59588 2.25-1.125 0.31789-0.54761 0.17644-1.1937-0.125-1.6875-0.60288-0.98758-1.7995-1.7889-2.75-2.4062l-0.03125-0.03125h-0.03125l-3.6875-1.6875zm88.469 0.21875c0.35268 0.75666 0.7199 1.5103 1.1562 2.2188l-1.6562 0.78125-1.0312-2.2812 1.5312-0.71875zm-88.562 0.09375c1.1558 0.66829 2.4695 1.1695 3.5938 1.6875 1.1699 0.77472 2.8522 2.1507 2.9062 3.5625-0.092542 0.15942-1.1586 0.813-1.8438 1.0312-1.9057-0.88074-4.4134-1.7631-5.75-3.125-0.28225-0.5491-0.61078-1.6702-0.5625-2.0312-0.065784-0.53378 1.4214-0.98047 1.6562-1.125zm47.75 0.25-0.0625 2.5 1.3125 1.25v-3.3125l-1.25-0.4375zm-26 0.28125c-2.6808 5.1535-2.959 9.7733-1.4062 15.25 2.7204-1.1744 5.7472-5.9992 7.4688-9.5-2.7725-0.84845-4.2854-3.4084-6.0625-5.75zm27.625 0.09375-0.0625 3.875 5.1875 3.625 0.125-4.0625-5.25-3.4375zm-27.594 0.53125c1.2391 1.656 2.6328 4.3136 5.4688 5.3125-1.5806 3.5396-3.7787 6.6434-6.75 9.0313-1.6563-6.0454-0.32717-10.403 1.2812-14.344zm-3.8438 0.21875c-0.35075 0.005494-0.77404 0.089462-1.3125 0.15625-1.7938 0.046408-2.1605 0.89292-2.6875 2.25 0.18259 1.012 0.67736 0.9586 1.5938 1.0625 0.90291-0.10061 1.9922-0.44977 2.625-0.40625 1.1896-0.54792 1.0107-1.3372 1.2812-2-0.50716-0.8548-0.91542-1.0717-1.5-1.0625zm67.312 0.0625 1.1562 2.3438-1.125 0.5-2.9687-0.96875-0.03125-0.46875 2.9687-1.4062zm-67.5 0.21875c0.29083-0.022936 0.57459-0.01478 0.8125 0 0.47773 0.70857 1.0499 1.4574-0.46875 2.375-0.95051-0.01791-2.4623 0.48866-3.125 0.5625-1.4843-0.51255-0.27872-1.8448 0.1875-2.4375 0.69627-0.21686 1.7213-0.43119 2.5938-0.5zm72.219 0.84375c0.2726 0.41873 0.56146 0.82341 0.875 1.2188l1.0938 0.71875-2.9375 1.5-0.03125-1.0625-0.71875-1.5625 1.7188-0.8125zm-7.8125 0.90625 2.5938 1.1562-0.8125 0.375-3.0625-0.84375 1.2812-0.6875zm-70.531 0.59375c-0.27002 0.015178-0.55765 0.24369-0.875 0.96875-0.63128 0.58225 0.016381 2.6473 0.1875 3.6875-0.1372 0.59164-0.036765 1.1892-0.03125 1.7812 0.26579 0.40557 0.057287 1.0051 1.0625 1.0938 1.177-0.17306 1.3895-0.24165 1.9062-1.1562 0.19058-0.77513 0.14639-1.5908 0.1875-2.2812 0.10132-1.434-0.39948-2.4989-1.125-3.6563-0.45565 0.10951-0.86246-0.4628-1.3125-0.4375zm74.969 0.15625 0.75 1.5312 0.8125 0.65625-2 1.0313-1.7812-2.1563 2.2187-1.0625zm-31.594 0.21875-0.125 3.5625 1.875 0.25 0.25-2-2-1.8125zm-43.281 0.03125c0.48262-0.086486 0.91789 0.14218 1.0312 0.28125 0.42312 0.44766 1.062 2.0912 1.0312 3.5 0.25104 3.2025-1.6203 3.7105-2.6562 2.3438-0.068541-0.38636 0.056762-1.1878 0.15625-1.9375-0.18191-1.1503-0.29725-2.467-0.4375-3.625 0.28066-0.35319 0.58543-0.51061 0.875-0.5625zm37.594 0.59375-0.0625 0.375-0.9375 0.5 6.8125 5.375-0.875-1.6875-0.1875-1.125-4.75-3.4375zm-13.031 0.25c0.75165 0.76349 2.3994 1.735 4.1562 1.8125-0.086129 3.7386-0.2911 7.6332-1.5 10.625-0.38678 0.95721-0.91006 1.8392-1.5625 2.6562-1.1902-0.48053-2.221-0.72772-2.5-1.25l-0.03125 0.09375c0.36068 0.67527 0.7485 1.4252 1.8125 1.9688-0.44185 0.45635-0.93372 0.9093-1.4688 1.3125-1.4293-0.47907-2.0045-1.1421-2.5938-1.875l-0.0625 0.125c0.50246 0.62492 0.56153 1.5796 2.0625 2.1562-0.90867 0.61448-1.9171 1.1545-3.0625 1.625-1.5446-2.7674-2.3213-5.7369-2.0625-8.5 0.25752-2.7492 1.1852-6.1864 2.3125-9.0625 2.2019 1.0248 3.4641 0.21071 4.5-1.6875zm47.812 0.4375 1.4687 1.8438-1.5937 0.03125 0.125-1.875zm-66.5 0.25c0.4492 0.10645 0.83219 0.35107 1.2188 0.59375-0.1225 0.88377-0.20029 1.7641-0.21875 2.6563-0.54958 0.33712-1.1969 0.61733-2.0938 0.8125-0.3934-0.40348-0.79234-0.98951-0.90625-1.1875-0.50759-1.5003 0.58747-2.8587 2-2.875zm42.344 0.84375 0.375 0.28125 0.5 9.3125-0.75 0.28125-0.125-9.875zm-52.594 1.5625c0.17311 3.7e-4 0.36727 0.04461 0.5625 0.125 0.32652 0.4506 0.97682 1.6391 1.2188 2.5312-1.1971-0.41106-2.1752-1.1427-3.0312-2.0625 0.42811-0.33255 0.80511-0.59469 1.25-0.59375zm20.438 0.875c1.5591 0.82985 1.3377 0.72958 2.1875 1.3438-0.52825 1.7656-0.92899 3.5671-1.1875 5.4062-0.13075 1.3958-0.015559 2.7297 0.3125 4.0625-1.144 0.40969-2.5209 0.59319-3.9062 0.46875 0.44995-3.8604 1.5327-7.5413 2.5938-11.281zm-0.40625 0.03125c-0.9946 3.5995-1.9897 7.1992-2.4375 11.031-0.68454-1.9153-1.0094-3.9035-1.0938-5.9375 1.2611-1.4939 2.4674-3.307 3.5312-5.0938zm11.781 8.8125-0.0625 3.9375-1.5-1.125c0.62265-0.85842 1.1493-1.7979 1.5625-2.8125z" fill-rule="evenodd"/>
 </g>
</svg>
