<?xml version="1.0" encoding="UTF-8"?>
<!-- Created with Inkscape (http://www.inkscape.org/) -->
<svg id="svg2" width="128" height="128" version="1.0" xmlns="http://www.w3.org/2000/svg" xmlns:cc="http://creativecommons.org/ns#" xmlns:dc="http://purl.org/dc/elements/1.1/" xmlns:rdf="http://www.w3.org/1999/02/22-rdf-syntax-ns#" xmlns:xlink="http://www.w3.org/1999/xlink">
 <defs id="defs4">
  <linearGradient id="linearGradient3608">
   <stop id="stop3610" stop-color="#010051" offset="0"/>
   <stop id="stop3612" stop-color="#020090" offset="1"/>
  </linearGradient>
  <linearGradient id="linearGradient3392">
   <stop id="stop3394" stop-color="#4a585b" offset="0"/>
   <stop id="stop3396" stop-color="#5e7074" offset="1"/>
  </linearGradient>
  <linearGradient id="linearGradient2338">
   <stop id="stop2340" stop-color="#b1b1b1" offset="0"/>
   <stop id="stop2342" stop-color="#e4e4e4" offset="1"/>
  </linearGradient>
  <linearGradient id="linearGradient2320">
   <stop id="stop2322" stop-color="#6a3c1d" offset="0"/>
   <stop id="stop2324" stop-color="#8f5127" offset="1"/>
  </linearGradient>
  <linearGradient id="linearGradient2524" x1="11.07" x2="26.119" y1="63.741" y2="102.92" gradientTransform="translate(3.6324 .17297)" gradientUnits="userSpaceOnUse" xlink:href="#linearGradient2338"/>
  <linearGradient id="linearGradient3454">
   <stop id="stop3456" stop-color="#004300" offset="0"/>
   <stop id="stop3458" stop-color="#006200" offset="1"/>
  </linearGradient>
  <linearGradient id="linearGradient3462">
   <stop id="stop3464" stop-color="#4f0000" offset="0"/>
   <stop id="stop3466" stop-color="#610000" offset="1"/>
  </linearGradient>
  <linearGradient id="linearGradient3820" x1="86" x2="88.5" y1="76.688" y2="75.719" gradientTransform="translate(3.6324 .17297)" gradientUnits="userSpaceOnUse" xlink:href="#linearGradient3462"/>
  <linearGradient id="linearGradient3822" x1="89.812" x2="91.625" y1="75.688" y2="74.125" gradientTransform="translate(3.6324 .17297)" gradientUnits="userSpaceOnUse" xlink:href="#linearGradient3454"/>
  <linearGradient id="linearGradient3824" x1="90.562" x2="92.25" y1="72.375" y2="71.188" gradientTransform="translate(3.6324 .17297)" gradientUnits="userSpaceOnUse" xlink:href="#linearGradient3462"/>
  <linearGradient id="linearGradient3826" x1="89.875" x2="90.719" y1="68.875" y2="67.938" gradientTransform="translate(3.6324 .17297)" gradientUnits="userSpaceOnUse" xlink:href="#linearGradient3454"/>
  <linearGradient id="linearGradient3828" x1="86.062" x2="87.5" y1="68.562" y2="67.188" gradientTransform="translate(3.6324 .17297)" gradientUnits="userSpaceOnUse" xlink:href="#linearGradient3462"/>
  <linearGradient id="linearGradient3830" x1="87.562" x2="90.312" y1="72.125" y2="69.688" gradientTransform="translate(3.6324 .17297)" gradientUnits="userSpaceOnUse" xlink:href="#linearGradient3608"/>
  <linearGradient id="linearGradient3832" x1="84.625" x2="86.812" y1="71.938" y2="70" gradientTransform="translate(3.6324 .17297)" gradientUnits="userSpaceOnUse" xlink:href="#linearGradient3454"/>
  <linearGradient id="linearGradient3834" x1="116.42" x2="122.58" y1="71.504" y2="58.835" gradientTransform="translate(3.6324 .17297)" gradientUnits="userSpaceOnUse" xlink:href="#linearGradient3462"/>
  <linearGradient id="linearGradient3836" x1="90.736" x2="95.872" y1="56.096" y2="47.25" gradientTransform="translate(3.6324 .17297)" gradientUnits="userSpaceOnUse" xlink:href="#linearGradient3462"/>
  <linearGradient id="linearGradient3838" x1="60.605" x2="64.438" y1="91.021" y2="83.488" gradientTransform="translate(3.6324 .17297)" gradientUnits="userSpaceOnUse" xlink:href="#linearGradient3462"/>
  <linearGradient id="linearGradient3840" x1="44.375" x2="50.688" y1="82.577" y2="91.309" gradientTransform="translate(3.6324 .17297)" gradientUnits="userSpaceOnUse" xlink:href="#linearGradient3462"/>
  <linearGradient id="linearGradient3842" x1="17.75" x2="18.75" y1="68.25" y2="71.062" gradientTransform="translate(3.6324 .17297)" gradientUnits="userSpaceOnUse" xlink:href="#linearGradient3608"/>
  <linearGradient id="linearGradient3844" x1="15" x2="16.062" y1="68.875" y2="70.75" gradientTransform="translate(3.6324 .17297)" gradientUnits="userSpaceOnUse" xlink:href="#linearGradient3454"/>
  <linearGradient id="linearGradient3846" x1="16.812" x2="17.938" y1="71.875" y2="74.062" gradientTransform="translate(3.6324 .17297)" gradientUnits="userSpaceOnUse" xlink:href="#linearGradient3462"/>
  <linearGradient id="linearGradient3848" x1="19.375" x2="20.562" y1="73" y2="74.5" gradientTransform="translate(3.6324 .17297)" gradientUnits="userSpaceOnUse" xlink:href="#linearGradient3454"/>
  <linearGradient id="linearGradient3850" x1="19.812" x2="21.438" y1="69.188" y2="71.5" gradientTransform="translate(3.6324 .17297)" gradientUnits="userSpaceOnUse" xlink:href="#linearGradient3462"/>
  <linearGradient id="linearGradient3852" x1="17.688" x2="21.312" y1="65.438" y2="67.125" gradientTransform="translate(3.6324 .17297)" gradientUnits="userSpaceOnUse" xlink:href="#linearGradient3454"/>
  <linearGradient id="linearGradient3854" x1="14.5" x2="16.375" y1="65.312" y2="66.062" gradientTransform="translate(3.6324 .17297)" gradientUnits="userSpaceOnUse" xlink:href="#linearGradient3462"/>
  <linearGradient id="linearGradient3856" x1="36" x2="41.25" y1="88.341" y2="78.925" gradientTransform="translate(3.6324 .17297)" gradientUnits="userSpaceOnUse" xlink:href="#linearGradient3462"/>
  <linearGradient id="linearGradient3858" x1="85.438" x2="94.5" y1="107.31" y2="91.688" gradientTransform="translate(3.6324 .17297)" gradientUnits="userSpaceOnUse" xlink:href="#linearGradient2320"/>
  <linearGradient id="linearGradient3860" x1="94" x2="82.75" y1="89.125" y2="109.75" gradientTransform="translate(3.6324 .17297)" gradientUnits="userSpaceOnUse" xlink:href="#linearGradient2320"/>
  <linearGradient id="linearGradient3862" x1="13" x2="20.438" y1="84" y2="99.125" gradientTransform="translate(3.6324 .17297)" gradientUnits="userSpaceOnUse" xlink:href="#linearGradient2320"/>
  <linearGradient id="linearGradient3864" x1="20" x2="14.062" y1="96.812" y2="81.562" gradientTransform="translate(3.6324 .17297)" gradientUnits="userSpaceOnUse" xlink:href="#linearGradient2320"/>
  <linearGradient id="linearGradient3866" x1="111.88" x2="118.75" y1="47.812" y2="39.438" gradientTransform="translate(3.6324 .17297)" gradientUnits="userSpaceOnUse" xlink:href="#linearGradient3392"/>
  <linearGradient id="linearGradient3868" x1="103.94" x2="108.44" y1="31.188" y2="44.375" gradientTransform="translate(3.6324 .17297)" gradientUnits="userSpaceOnUse" xlink:href="#linearGradient3392"/>
  <linearGradient id="linearGradient3870" x1="70.812" x2="80.5" y1="44.625" y2="27.938" gradientTransform="translate(3.6324 .17297)" gradientUnits="userSpaceOnUse" xlink:href="#linearGradient3392"/>
  <linearGradient id="linearGradient3872" x1="64.312" x2="72.688" y1="27.438" y2="20.875" gradientTransform="translate(3.6324 .17297)" gradientUnits="userSpaceOnUse" xlink:href="#linearGradient3392"/>
  <linearGradient id="linearGradient3874" x1="53.375" x2="60" y1="33.875" y2="23.812" gradientTransform="translate(3.6324 .17297)" gradientUnits="userSpaceOnUse" xlink:href="#linearGradient3392"/>
  <linearGradient id="linearGradient3876" x1="67.375" x2="71.438" y1="57.125" y2="70.375" gradientTransform="translate(3.6324 .17297)" gradientUnits="userSpaceOnUse" xlink:href="#linearGradient3392"/>
  <linearGradient id="linearGradient3878" x1="56.062" x2="63.812" y1="65.5" y2="58.938" gradientTransform="translate(3.6324 .17297)" gradientUnits="userSpaceOnUse" xlink:href="#linearGradient3392"/>
  <linearGradient id="linearGradient3880" x1="49.625" x2="56.312" y1="50.188" y2="59.25" gradientTransform="translate(3.6324 .17297)" gradientUnits="userSpaceOnUse" xlink:href="#linearGradient3392"/>
  <linearGradient id="linearGradient3882" x1="35.062" x2="43.125" y1="62.562" y2="50" gradientTransform="translate(3.6324 .17297)" gradientUnits="userSpaceOnUse" xlink:href="#linearGradient3392"/>
  <linearGradient id="linearGradient3884" x1="42.688" x2="48.562" y1="24.469" y2="34.531" gradientTransform="translate(3.6324 .17297)" gradientUnits="userSpaceOnUse" xlink:href="#linearGradient3392"/>
  <linearGradient id="linearGradient3886" x1="21" x2="30.188" y1="53.156" y2="41.719" gradientTransform="translate(3.6324 .17297)" gradientUnits="userSpaceOnUse" xlink:href="#linearGradient3392"/>
  <linearGradient id="linearGradient3888" x1="31.625" x2="38.5" y1="32.906" y2="41.906" gradientTransform="translate(3.6324 .17297)" gradientUnits="userSpaceOnUse" xlink:href="#linearGradient3392"/>
  <linearGradient id="linearGradient3890" x1="53.535" x2="66.508" y1="49.47" y2="39.438" gradientTransform="translate(3.6324 .17297)" gradientUnits="userSpaceOnUse" xlink:href="#linearGradient2338"/>
  <linearGradient id="linearGradient3892" x1="39.957" x2="47.481" y1="40.303" y2="53.276" gradientTransform="translate(3.6324 .17297)" gradientUnits="userSpaceOnUse" xlink:href="#linearGradient2338"/>
  <linearGradient id="linearGradient3894" x1="77.059" x2="96.951" y1="72.822" y2="51.632" gradientTransform="translate(3.6324 .17297)" gradientUnits="userSpaceOnUse" xlink:href="#linearGradient2338"/>
  <linearGradient id="linearGradient3896" x1="100.06" x2="107.42" y1="51.373" y2="67.546" gradientTransform="translate(3.6324 .17297)" gradientUnits="userSpaceOnUse" xlink:href="#linearGradient2338"/>
  <linearGradient id="linearGradient3898" x1="106.12" x2="129.56" y1="91.676" y2="77.059" gradientTransform="translate(3.6324 .17297)" gradientUnits="userSpaceOnUse" xlink:href="#linearGradient2338"/>
  <linearGradient id="linearGradient3900" x1="74.205" x2="114.94" y1="113.73" y2="72.649" gradientTransform="translate(3.6324 .17297)" gradientUnits="userSpaceOnUse" xlink:href="#linearGradient2338"/>
  <linearGradient id="linearGradient3902" x1="55.438" x2="73.081" y1="119.65" y2="88.951" gradientTransform="translate(3.6324 .17297)" gradientUnits="userSpaceOnUse" xlink:href="#linearGradient2338"/>
  <linearGradient id="linearGradient3904" x1="44.886" x2="59.33" y1="88.865" y2="113.08" gradientTransform="translate(3.6324 .17297)" gradientUnits="userSpaceOnUse" xlink:href="#linearGradient2338"/>
  <linearGradient id="linearGradient3906" x1="31.568" x2="42.205" y1="107.29" y2="90.422" gradientTransform="translate(3.6324 .17297)" gradientUnits="userSpaceOnUse" xlink:href="#linearGradient2338"/>
  <linearGradient id="linearGradient3908" x1="9.1676" x2="13.708" y1="50.595" y2="57.946" gradientTransform="translate(3.6324 .17297)" gradientUnits="userSpaceOnUse" xlink:href="#linearGradient2338"/>
  <filter id="filter3918">
   <feGaussianBlur id="feGaussianBlur3920" stdDeviation="1.8817867"/>
  </filter>
 </defs>
 <metadata id="metadata7">
  <rdf:RDF>
   <cc:Work rdf:about="">
    <dc:format>image/svg+xml</dc:format>
    <dc:type rdf:resource="http://purl.org/dc/dcmitype/StillImage"/>
   </cc:Work>
  </rdf:RDF>
 </metadata>
 <g id="layer2" fill-rule="evenodd">
  <path id="path3684" d="m39.976 53.548c-0.52682 1.2079-1.7529 2.8905-2.5448 4.3058-1.7027 2.9351-3.2288 5.908-4.8614 8.8581-4.701-1.3749-9.4021-2.7497-14.103-4.1246-4.891 4.0456-9.7819 8.0912-14.673 12.137 7.4828 2.6966 4.3277 0.58806-0.026027 0.32869 0.71703 1.6809 0.62109 3.452 1.8519 5.076-1.9258 0.54312-2.7732 0.57001-2.0569 1.8237 1.6988 5.5764 3.3977 11.153 5.0965 16.729 7.4925 2.3853 11.988 6.2141 22.561 9.0775 1.1617 0.31462 8.9654-7.8581 13.404-7.57 3.4409 0.22338 3.7548 8.9135 4.3922 9.1176 1.0005 0.20438-8.8233 9.3851-7.4065 9.0641 1.931-0.65758 11.473 7.6794 13.404 7.0219 0.81511 2.5759 5.9545-8.1671 6.7696-5.5912 4.4595 1.4012-4.5729-5.3273-0.11346-3.9261-4.0621-12.253-4.0041-12.079 0.087822 0.07901 4.2231-0.98417 8.7723-1.784 12.793-2.8827 0.39452-0.86258 3.1453-0.82979 4.5717-1.3127 2.768-0.57164 5.536-1.1433 8.304-1.7149 1.3956 0.05485 3.6514-0.73157 5.3786-1.001 7.0593-1.4956 13.856-3.0104 21.03-4.4511 0.63916 0.72412 1.1005-6.177 2.5395-6.26 2.7591-0.6328-0.01685-6.1088 2.7423-6.7416-2.8631-9.1289 2.0575-7.8794-0.80562-17.008-1.4053-0.74972-2.5551-2.1296-3.8624-3.1211-4.9784-4.2747-11.687-6.6468-16.665-10.921 0.32274 1.3345 1.2697 6.3954 0.70723 4.4335-0.39524-0.30724-1.7014-2.2153-2.1834-1.5806-1.9564 3.9468-2.5498 5.9541-4.2781 9.9238 1.18 3.7458 2.3599 7.4917 3.5399 11.238-7.5439-2.7966-0.67568 1.1466-2.033-2.3688-1.0355-3.4509-2.071-6.9018-3.1065-10.353-11.697 3.422-11.364 3.3462-0.087823-0.079016-5.4881-3.6031-10.976-7.2062-16.464-10.809-2.2035 0.36936-28.375 8.078-14.537 3.9824 4.7864-1.3169 9.5728-2.6339 14.359-3.9508-0.85259-0.41758-3.5203 0.65192-5.0746 0.80923-5.1988 0.97748-9.9772 2.3124-14.83 3.584-4.6292-3.932-9.0313-7.9388-13.82-11.821zm2.8604 10.193c2.7524 9.6171 2.6721 9.5838 0 0zm-10.579 3.5557c-0.22581 0.49833-0.52358 0.50329 0 0z" fill-opacity=".66667" filter="url(#filter3918)"/>
  <path id="path2522" d="m10.205 92.8 0.25946-35.114 10.724-4.1514 13.405 22.227-0.17297 33.989-24.216-16.951z" fill="url(#linearGradient2524)"/>
  <path id="path2526" d="m12.8 55.438 0.086487-10.032 8.9946 6.0541-8.7351 4.6703-0.34595-0.69189z" fill="url(#linearGradient3908)"/>
  <path id="path2530" d="m34.335 110.1 0.6054-34.162 10.897-4.8432-0.086486 32.086-11.416 6.9189z" fill="url(#linearGradient3906)"/>
  <path id="path2536" d="m45.665 118.49 0.086487-54.919 11.676 11.07 0.25946 52.151-12.022-8.3027z" fill="url(#linearGradient3904)"/>
  <path id="path2542" d="m57.773 126.96-0.43243-53.016 14.184-6.4 0.17297 53.449-0.43243 0.51892-13.492 5.4486z" fill="url(#linearGradient3902)"/>
  <path id="path2546" d="m71.524 120.56 0.17297-39.524 19.027-23.784 22.486 15.654 0.25946 31.568-41.946 16.086z" fill="url(#linearGradient3900)"/>
  <path id="path2550" d="m113.47 105.17-0.51892-52.67 14.616-7.3514-0.17298 54.141-13.924 5.8811z" fill="url(#linearGradient3898)"/>
  <path id="path2554" d="m112.78 72.389-11.157-7.5243 0.08649-22.573 11.33 10.205-0.25946 19.892z" fill="url(#linearGradient3896)"/>
  <path id="path2558" d="m100.32 63.914 0.25946-24.216-20.584 10.897 18.768 12.195 1.5568 1.1243z" fill="url(#linearGradient3894)"/>
  <path id="path2562" d="m47.222 40.649-3.4595 0.69189-0.17297-8.8216 11.849 9.427-2.7676 6.4865-5.4486-7.7838z" fill="url(#linearGradient3892)"/>
  <path id="path2568" d="m60.022 39.524 9.5135-4.8432 0.6054 9.8595-5.5351-3.4595-2.6811 3.027-1.9027-4.5838z" fill="url(#linearGradient3890)"/>
  <path id="path2572" d="m13.007 45.423 18.562-24 12.938 8.25-1.0625 1.6875 0.5625 10.062-8.3125 2.625-13.812 7.4375-8.875-6.0625z" fill="url(#linearGradient3888)"/>
  <path id="path2576" d="m10.632 57.423 11.375-6.0625 13.875-7.25s8.1875-2.875 8.4375-2.875 3-0.625 3-0.625l-26.188 12.938-9.75 4-0.75-0.125z" fill="url(#linearGradient3886)"/>
  <path id="path2580" d="m43.445 31.673 7.9375-18.188 4.4375-9.4375 0.125 0.3125-0.75 37.75-11.75-10.438z" fill="url(#linearGradient3884)"/>
  <path id="path2584" d="m20.945 53.548 26.312-12.812 5.4375 7.625-6.75 15.562-0.125 7.375-11.188 4.75-13.688-22.5z" fill="url(#linearGradient3882)"/>
  <path id="path2588" d="m45.945 63.735 12.062-27.875 0.125 0.75-0.875 38-11.312-10.875z" fill="url(#linearGradient3880)"/>
  <path id="path2592" d="m57.382 74.173 14.25-6.6875-13.312-31.438-0.1875 0.5-0.75 37.625z" fill="url(#linearGradient3878)"/>
  <path id="path2596" d="m61.882 44.298 2.625-3.375 26.062 16.438-18.812 23.812-0.125-13.875-9.75-23z" fill="url(#linearGradient3876)"/>
  <path id="path2600" d="m55.257 41.923 0.625-38s0-0.875 0.375 0 13.188 31.188 13.188 31.188l-9.5625 4.4375-1.6875-3.75s-0.0625-0.75-0.25-0.0625-2.625 6.1875-2.6875 6.1875z" fill="url(#linearGradient3874)"/>
  <path id="path2604" d="m65.882 26.985 9.9375-4.75 11.562-4.5-0.0625 0.5-20.5 10.25-0.875-1-0.0625-0.5z" fill="url(#linearGradient3872)"/>
  <path id="path2608" d="m66.632 28.61 20.875-10.438 13 21.375-20.437 11.188-9.9375-6.3125-0.75-10-2.75-5.8125z" fill="url(#linearGradient3870)"/>
  <path id="path2612" d="m101.69 42.298 12.062-28.375-0.125 16.188-0.5 22.562-11.438-10.375z" fill="url(#linearGradient3868)"/>
  <path id="path2616" d="m113.32 52.298 0.3125-32.5 0.25-6.1875 13.625 31.875-14.188 6.8125z" fill="url(#linearGradient3866)"/>
  <path id="path2620" d="m14.07 95.298 0.5625-13.312 6.25-5.3125 5.25 12.688-0.3125 14.375-11.75-8.4375z" fill="url(#linearGradient3864)"/>
  <path id="path2625" d="m15.445 96.485 0.4375-13.875 4.5625-4.3125 4.375 11.562-0.1875 12.937-9.1875-6.3125z" fill="url(#linearGradient3862)"/>
  <path id="path2629" d="m85.32 115.55v-21.937l6.6875-12.688 8.5 8.375-0.3125 20.375-14.875 5.875z" fill="url(#linearGradient3860)"/>
  <path id="path2633" d="m86.507 114.86 0.0625-20.5 5.875-11.5 6.9375 6.6875-0.3125 20.625-12.562 4.6875z" fill="url(#linearGradient3858)"/>
  <path id="path2639" d="m39.632 90.235 0.1875-8.25 2.375-4.4375 2.6875 2.4375v8.25l-5.25 2z" fill="url(#linearGradient3856)"/>
  <path id="path3005" d="m20.382 68.235-2.625-1.1875 0.1875-1.1875 1.3125-2.5 2.125-0.4375 0.0625 3.3125-0.4375 0.6875-0.625 1.3125z" fill="url(#linearGradient3854)"/>
  <path id="path3009" d="m21.632 66.423-0.3125-3.5625 1.5 0.5625 2.125 3.125 0.5625 1.75-2.75 0.0625-0.375-1.25-0.75-0.6875z" fill="url(#linearGradient3852)"/>
  <path id="path3013" d="m22.632 68.36 2.8125-0.25 0.4375 2.125 0.125 2.1875-0.625 1.8125-2.5625-2.8125 0.0625-1.125-0.25-1.9375z" fill="url(#linearGradient3850)"/>
  <path id="path3017" d="m22.757 71.548 0.5 0.1875 2.1875 2.625-0.9375 1.1875-1.125 0.4375h-1.5v-1.5625l0.1875-2.0625 0.375-0.125 0.3125-0.6875z" fill="url(#linearGradient3848)"/>
  <path id="path3021" d="m22.195 72.298-1.5-1.75-1.75 1.9375 0.6875 1.4375 0.9375 1.0625 1.0625 0.6875 0.125-1.9375 0.4375-1.4375z" fill="url(#linearGradient3846)"/>
  <path id="path3025" d="m17.695 67.11 0.25 3 0.9375 2.375 2.0625-2.0625-0.5-1.125-0.0625-0.875-2.6875-1.3125z" fill="url(#linearGradient3844)"/>
  <path id="path3029" d="m20.695 70.485-0.1875-1.5-0.0625-0.9375 0.625-0.9375 0.5625-0.5 0.6875 0.5625 0.625 2.125-0.0625 1.9375-0.5 1.125-0.9375-0.375-0.75-1.5z" fill="url(#linearGradient3842)"/>
  <path id="path3618" d="m48.007 92.548 0.3125-11.188 3.125-3.6875 2.875 6.6875v11l-6.3125-2.8125z" fill="url(#linearGradient3840)"/>
  <path id="path3620" d="m61.82 95.61 0.125-11.75 2.75-6.3125 3.375 3.4375-0.0625 11.812-6.1875 2.8125z" fill="url(#linearGradient3838)"/>
  <path id="path3622" d="m90.945 57.485 0.3125-5.875 2.1875-4.1875 2.875 2.75-0.125 8.125-2.75 1-2.5-1.8125z" fill="url(#linearGradient3836)"/>
  <path id="path3624" d="m117.88 63.485s2.625-7.375 2.8125-6.75 3.3125 3.6875 3.3125 3.6875l0.0625 11.75-6.125 2.625-0.0625-11.312z" fill="url(#linearGradient3834)"/>
  <path id="path3626" d="m88.007 68.298 2.4375 1.9375-0.4375 1.375-0.0625 1.8125s-2.0625 2.3125-2.4375 1.875-0.5-2.1875-0.5-2.1875l0.0625-2.3125 1.25-2.4375-0.3125-0.0625z" fill="url(#linearGradient3832)"/>
  <path id="path3630" d="m89.757 72.36 0.625-2.25 1.125-0.6875h1.0625l0.8125 0.8125s0.25 1.3125 0.1875 1.5625-0.625 2-0.625 2l-1.25 0.875-1-0.0625-0.8125-0.875-0.125-1.375z" fill="url(#linearGradient3830)"/>
  <path id="path3634" d="m90.507 70.235-2.25-1.8125 0.75-1.25 1.4375-1.1875 1.375-0.6875 0.875 0.375-0.375 2.25 0.0625 1.4375-1.25 0.25-0.625 0.625z" fill="url(#linearGradient3828)"/>
  <path id="path3638" d="m92.32 69.36 0.3125-3.8125 1.5 0.5625 1.5625 1.375 0.6875 1.8125-2.8125 1.375-0.1875-0.5625-1.0625-0.75z" fill="url(#linearGradient3826)"/>
  <path id="path3642" d="m95.82 74.298-2.5-1.1875 0.3125-2.1875 2.5-1.5625 0.25 1.375-0.0625 1.75-0.5 1.8125z" fill="url(#linearGradient3824)"/>
  <path id="path3646" d="m92.257 78.235-0.8125-3.3125 1.125-0.5625 0.875-1.375 2.4375 1.375-1.1875 2.1875-2.4375 1.6875z" fill="url(#linearGradient3822)"/>
  <path id="path3650" d="m90.57 74.548-0.75-1-2.4375 1.625 0.8125 1.5625 1.5625 1.4375 2.375 0.0625-0.75-3.4375-0.8125-0.25z" fill="url(#linearGradient3820)"/>
  <path id="path3664" d="m10.205 92.8 0.25946-35.114 10.724-4.1514 13.405 22.227-0.17297 33.989-24.216-16.951z" fill-opacity=".15686"/>
  <path id="path3666" d="m12.8 55.438 0.086487-10.032 8.9946 6.0541-8.7351 4.6703-0.34595-0.69189z" fill-opacity=".15686"/>
  <path id="path3668" d="m45.665 118.49 0.086487-54.919 11.676 11.07 0.25946 52.151-12.022-8.3027z" fill-opacity=".15686"/>
  <path id="path3670" d="m112.78 72.389-11.157-7.5243 0.08649-22.573 11.33 10.205-0.25946 19.892z" fill-opacity=".15686"/>
  <path id="path3672" d="m47.222 40.649-3.4595 0.69189-0.17297-8.8216 11.849 9.427-2.7676 6.4865-5.4486-7.7838z" fill-opacity=".15686"/>
  <path id="path3674" d="m13.007 45.423 18.562-24 12.938 8.25-1.0625 1.6875 0.5625 10.062-8.3125 2.625-13.812 7.4375-8.875-6.0625z" fill-opacity=".15686"/>
  <path id="path3676" d="m43.445 31.673 7.9375-18.188 4.4375-9.4375 0.125 0.3125-0.75 37.75-11.75-10.438z" fill-opacity=".15686"/>
  <path id="path3678" d="m45.945 63.735 12.062-27.875 0.125 0.75-0.875 38-11.312-10.875z" fill-opacity=".15686"/>
  <path id="path3680" d="m61.882 44.298 2.625-3.375 26.062 16.438-18.812 23.812-0.125-13.875-9.75-23z" fill-opacity=".15686"/>
  <path id="path3682" d="m101.69 42.298 12.062-28.375-0.125 16.188-0.5 22.562-11.438-10.375z" fill-opacity=".15686"/>
 </g>
 <g id="layer1" fill-rule="evenodd">
  <path id="path2308" d="m56.007 0.86047-0.3125 0.0625-0.3125 3.1875-11.094 25-12.844-7.9062-18.844 24.188-0.0625 10.594-2.3125 1.4688-0.21875 35.406 24.156 17.531 11.375-6.9062 0.03125 15.25 12.344 8.8125 13.656-5.9062 0.21875-0.75 41.437-16.031 0.21875 0.65625 14.219-6.0937v-54.375l-13.344-31-0.375-3.25-0.3125 0.0625-0.3125 3.1875c-4.0129 9.0445-8.2504 18.549-11.844 28l0.03125 22.188-0.84375-0.53125 0.15625-24.625-13.375-21.469-11.344 4.25-9.6875 4.7812-10.062-22.719-0.34375-3.0625zm0 3.25h0.0625l12.688 30.469-8.8125 4.625-1.3125-2.9688-0.375-3.25-0.3125 0.0625-0.3125 3.1875-2.125 4.9375 0.5-37.062zm-0.25 0.03125-0.8125 37.25-11.125-9.4375 11.938-27.812zm-2.2188 6.4688-2.625 6.875 0.375 0.1875 2.5625-6.9375-0.3125-0.125zm3.75 0.3125-0.375 0.03125 5.2188 13.875-2.0625 0.59375-0.78125-2.9062-0.28125 0.0625 0.78125 2.9062-2.5 0.71875-0.125-9.2188-0.3125 0.0625 0.21875 9.2188-0.375 0.125 0.03125 0.40625 0.375-0.09375 0.0625 3h0.1875l-0.03125-3.0625 2.5938-0.78125 2.4688 9.0625-2.4688 0.90625 0.125 0.34375 2.4062-0.96875 0.28125 1 0.28125-0.125-0.28125-0.96875 1.7188-0.6875v-0.25l-1.7812 0.65625-2.4688-9.0312 2.0625-0.625 3.3125 8.7812 0.25 0.03125-3.2812-8.875 1.2188-0.375-0.34375-0.28125-1 0.28125-5.125-13.812zm56.687 3.625 13 30.656-13.406 6.5938 0.40625-37.25zm-0.375 0.21875-0.6875 37.062-10.812-9.875 11.5-27.188zm-59.844 2.1875-0.5 4.2812-3.375-1.3125-0.25 0.0625 3.5938 1.5938-0.40625 3.375h0.4375l0.3125-3.2188 0.8125 0.375-0.125-0.5-0.65625-0.25 0.40625-4.4062h-0.25zm33.438 1-20.125 10.062-0.78125-0.65625 9.75-4.9688 11.156-4.4375zm0.125 0.5625 12.625 21.031-19.875 10.875-9.4688-5.9062-0.9375-10.312-2.375-5.4375 20.031-10.25zm28.156 0.125-0.125 0.125 5.3125 16.375h0.1875l-5.375-16.5zm-2.9688 0.5-0.84375 22.719-2.0312-1.7188c0.26101-0.9245 0.51141-1.8593 0.78125-2.7812h-0.125c-0.27421 0.90867-0.55802 1.7687-0.84375 2.625l-2.9375-2.5312 4.0312-9.9062-0.25-0.0625-4 9.7812-0.84375-0.71875-0.125 0.375 0.84375 0.6875-1 2.4375 0.25 0.125 0.96875-2.375 2.9688 2.4375c-0.40056 1.2015-0.78653 2.3975-1.125 3.6875l0.3125 0.1875c0.32016-1.2458 0.65201-2.4806 1-3.7188l2.0938 1.75-0.125 3.5625 0.375 0.0625 0.125-3.3438 0.4375 0.375 0.0625-0.1875-0.5-0.4375 0.75-23.031h-0.25zm-81 2.5 12.375 8.4062-0.9375 1.5 0.5 9.7812-7.625 2.625-0.03125 0.03125h-0.03125l-13.875 6.9375-8.3438-5.5 17.969-23.781zm53.25 0.09375-0.3125 0.0625 5.2812 8.0312-5.1875 2.6562 0.25 0.25 5.125-2.5938 3.5625 5.4062-10.688 5.0312-5.375-9.75c2.2632-0.92348 4.5232-1.8775 6.7812-2.8125v-0.125c-2.3351 0.8556-4.7025 1.6445-7.0312 2.5l-0.15625-0.3125-0.4375 0.125 0.1875 0.3125c-2.0428 0.7611-4.0449 1.5992-5.9688 2.625l0.125 0.25c2.0435-0.77771 4.0683-1.582 6.0938-2.4062l5.4688 9.75-7.4062 3.4688 0.375 0.125 7.1562-3.375 1.4062 2.5 0.25-0.1875-1.3438-2.4375 10.719-5.0312 0.875 1.3125 0.1875-0.1875-0.8125-1.25 0.875-0.40625-0.125-0.25-0.90625 0.4375-3.5625-5.4375 1.9375-0.96875-0.1875-0.3125-1.9375 0.96875-5.2188-7.9688zm-35.281 2.125-2.4375 6.0625-1.1875-0.9375-0.1875 0.0625 1.3125 1.0938-0.625 1.5312 0.125 0.1875 0.65625-1.5938 4.9062 4.0938-0.78125 3.125 0.1875 0.1875 0.78125-3.1562 1.375 1.1562 0.25-0.375-1.5312-1.1875 0.8125-3.25-0.25 0.0625-0.75 3.0312-4.9375-3.9062 2.5312-6.1875h-0.25zm65.281 0.3125c0.11744 4.8335-0.06661 9.7293 0.0625 14.562l0.5 0.125c-0.13106-4.8332-0.0676-9.854-0.1875-14.688h-0.375zm-82.781 1.2188c-0.81447 1.1644-1.6456 2.327-2.4688 3.5l-0.78125-0.5-0.25 0.0625 0.9375 0.59375c-3.749 5.3403-7.5931 10.716-11.594 15.656l0.3125 0.25c4.3897-4.9979 7.8331-10.303 11.5-15.719l8.5938 5.5938-3.875 5.0312 0.375 0.0625 3.7812-4.9062 2.2812 1.5 0.25-0.25-2.3438-1.5 2.2188-2.8438-0.1875-0.3125-2.3125 2.9688-8.6562-5.5312c0.76933-1.1352 1.542-2.2621 2.3438-3.4062l-0.125-0.25zm12.031 7.5312 10.812 9.6875-2.3438 5.25-5.1562-7.4688-2.9062 0.625-0.40625-8.0938zm25.25 2.5625 0.4375 8.4688-5.2188-3.25-2.5938 2.8438-1.6875-3.8125 9.0625-4.25zm-37.75 0.59375c-0.86594 1.056-1.751 2.0971-2.6562 3.125l-1.4062-1.0625-0.375 0.0625 1.5938 1.1875c-2.1109 2.3931-4.2552 4.7684-6.125 7.3438l0.1875 0.0625c1.8634-2.376 3.9929-4.8304 6.125-7.25l4.2188 3.1562 0.125-0.1875-4.1562-3.1562c0.89343-1.0133 1.8-2.0529 2.6562-3.0312l-0.1875-0.25zm26.469 0.15625-0.84375 37.688-10.812-9.8438 11.656-27.844zm0.375 0.21875 12.844 30.875-13.062 6.125 0.21875-37zm62.469 2.625-0.25 0.25 2.3125 4.4062-7.6875 3.7812 0.125-4.8438h-0.3125l-0.09375 4.9688-0.3125 0.15625-0.125 0.3125 0.4375-0.21875-0.03125 1.2812 0.25 0.0625 0.03125-1.4688 7.875-3.7188 0.78125 1.4688 0.25-0.3125-0.6875-1.3125 0.84375-0.40625-0.1875-0.3125-0.84375 0.40625-2.375-4.5zm-20.531 1.375-0.15625 22.906-6.125-4.0938c0.7398-0.30646 1.5-0.56477 2.25-0.84375v-0.03125h0.0625l0.03125-8.5938-3.0312-2.6875-2.4062 4.6875-0.375 5.4062-9.9375-6.3438 19.687-10.406zm-53.844 0.40625-25.688 12.469-9.2188 3.9062 24.531-13 1.5312-0.5c-1.1311 0.55569-2.2148 1.1176-3.2812 1.6875l-0.625 0.125-0.125 0.1875 0.25-0.03125c-3.6637 1.9752-7.0933 3.9898-11.031 5.875l0.375 0.3125c4.235-2.0028 7.7644-4.1854 11.656-6.3438l2.625-0.375 0.4375-0.375-2.4688 0.4375c0.84141-0.46148 1.6705-0.91726 2.5625-1.375l-0.21875-0.15625 8.6875-2.8438zm0.6875 0.21875 5.0312 7.5-6.5938 14.812-0.125 7.25-10.219 5-13.75-21.969 25.656-12.594zm17.281 0.25 25.875 16.156-18.406 22.688v-13l-9.5938-22.594 2.125-3.25zm37.625 1.6562 10.531 9.4375 0.125 19.344-10.375-6.9688-0.28125-21.812zm-46.625 1.125-1.8125 4.4062-0.25-0.09375-0.1875 0.1875 0.34375 0.15625-3.8125 9.1875-0.28125-0.21875-0.1875 0.1875 0.375 0.28125-1.5625 3.7812 0.375 0.3125 1.5312-3.8438 1.6562 1.2188-0.6875 1.8125 0.4375 0.375 0.6875-1.875 2.6562 1.9688-0.75 5.9062 0.4375 0.125 0.6875-5.7812 1.2188 0.90625-0.0625-0.3125-1.125-0.84375 1.0312-8.8438-0.3125 0.125-1.0938 8.4375-2.5938-1.9375 1.0938-3-0.4375-0.25-1.0938 2.9375-1.625-1.2188 3.75-9.2812 1.2188 0.5625 0.1875-0.3125-1.3125-0.53125 1.75-4.3438-0.25-0.1875zm-10.188 0.09375-0.25 0.125 1.9375 3-9.9375 4.625-1.1562-2.25-0.375 0.3125 1.125 2.125-3.6562 1.6875 0.3125 0.1875 3.5-1.625 2.9375 5.4688c-1.4529 0.66555-2.9435 1.265-4.5312 1.6875l-0.625 0.375c1.8024-0.51064 3.5332-1.1626 5.25-1.875l2.9375 5.4688 0.25-0.0625-2.875-5.5312c2.8567-1.2028 5.6427-2.5939 8.4062-3.9375l-0.1875-0.3125c-2.8956 1.2008-5.5362 2.7658-8.3125 4.0625l-2.875-5.5312 9.9688-4.6562 2.0312 3.1562 0.3125-0.3125-2.0312-3 1.5938-0.75-0.1875-0.1875-1.5625 0.71875-2-2.9688zm15.406 0.46875-0.1875 0.25c1.2923 6.9263 4.4811 13.222 7.125 19.719l-6.0312 2.4062-1.4688-8.2188-0.3125-0.0625 1.5 8.4062-1.1875 0.46875v0.25l1.2188-0.5 0.34375 1.875h0.3125l-0.34375-1.9688 6.0625-2.4062c0.20741 0.51288 0.42606 1.0152 0.625 1.5312l0.1875-0.0625c-0.19683-0.51076-0.39624-1.0207-0.59375-1.5312l1.0625-0.4375v-0.3125l-1.1875 0.46875c-2.5412-6.5662-5.0924-13.13-7.125-19.875zm4 0.5625-0.1875 0.3125c0.9301 0.55806 7.425 4.6661 11.75 7.4062l-2.5312 3.4375c-0.59638-0.34406-1.5747-0.91652-1.7812-1.0312l-0.25 0.1875c0.19478 0.10821 1.2482 0.70309 1.875 1.0625l-1.6562 2.2812 0.25 0.1875 1.625-2.3125c1.9681 1.1296 3.5839 2.0313 5.5312 3.1562l-5.375 6.1875 0.375 0.0625 5.2188-6.0938c0.81632 0.47159 2.4688 1.4062 2.4688 1.4062l0.0625-0.25s-1.6067-0.92711-2.375-1.375l2.625-3.0625-0.125-0.1875-2.7188 3.125c-1.9058-1.1108-3.5674-2.0844-5.5312-3.2188l2.4375-3.5c1.6063 1.0177 4.0625 2.5938 4.0625 2.5938l0.1875-0.1875s-2.4822-1.5907-4.0938-2.625l0.8125-1.1562-0.0625-0.125-0.875 1.2188c-4.3436-2.7876-10.849-6.978-11.719-7.5zm-51.281 0.46875 7.5625 5.7188-7.4375 4.0312-0.125-9.75zm113.75 0.0625-0.125 53.156-13.156 5.5625-0.5-51.75 13.781-6.9688zm-33.5 1.9375 2.25 2.5312 0.125 7.6875c-0.36132 0.13142-1.6479 0.57627-2.5625 0.9375l-2.25-1.4688 0.375-5.3438 2.0625-4.3438zm-72.656 6.2188 13.156 21.812v33.406l-7.9688-5.8125 0.09375-14.312-5.25-12.719-6.5625 5.5625-0.46875 13.062-3.4688-2.1562 0.25-34.719 10.219-4.125zm5.25 0.0625-0.25 0.0625 8.1875 13.469c-0.26957 0.08181-0.54421 0.1746-0.8125 0.25l-0.0625 0.28125c0.34639-0.094557 0.68713-0.21026 1.0312-0.3125l2.1562 3.5625 0.25-0.0625-2.1875-3.5625c2.5853-0.78016 5.1166-1.7397 7.6562-2.6562l-0.125-0.25c-2.4983 0.85156-5.0987 1.864-7.6562 2.6562l-8.1875-13.438zm94.406 2.4062-2.9375 6.5938-0.03125 12.281c2.2123-0.98986 4.4126-1.9796 6.625-2.9688v-12.188l-3.6562-3.7188zm0.1875 1 2.9375 3.1875v11.312c-1.5627 0.6798-3.8543 1.6392-5.4062 2.3438l-0.1875-10.844 2.6562-6zm-30.125 0.34375 22.031 15.219 0.28125 30.875-12.5 5.2188v-20.031l-8.4687-8.3438-6.9688 12.812-0.0625 21.562-13.094 5.1875v-38.937l18.781-23.562zm-70.312 4.6562c-1.9659 0.22931-2.6895 2.8638-2.875 4.9375 0 3.6645 1.9164 7.612 4.3438 8.75 2.4273 1.138 4.375-1.023 4.375-4.6875-1e-6 -3.6645-1.9477-7.612-4.375-8.75-0.38724-0.14643-0.73724-0.23421-1.0625-0.25-0.1423-0.006909-0.27519-0.015287-0.40625 0zm0.625 0.75c0.04185-0.002438 0.082308 4.83e-4 0.125 0l0.125 3.3125c-0.58723 0.43517-0.89829 0.97658-0.96875 1.625l-2.2188-1.2188c0.17913-1.8715 1.2199-3.6187 2.9375-3.7188zm0.53125 0.0625c0.098736 0.013934 0.20988 0.007105 0.3125 0.03125 1.2965 0.60783 2.5987 2.6428 3.3125 4.8438l-2.0938 0.0625c-0.029659-0.6537-0.27407-1.2402-1.2188-1.7812l-0.3125-3.1562zm24.656 1.3438 10.656 10.562 0.5 51.219-11.25-8 0.09375-53.781zm45.562 0.59375c-2.7858 0.54356-4.9688 4.011-4.9688 7.6562-2e-6 3.6453 2.183 6.2311 4.9688 5.6875 2.7858-0.54356 4.9688-4.011 4.9688-7.6562-0.080528-3.4609-1.6586-5.4339-4.9688-5.6875zm-0.0625 0.5c0.21577-0.009554 0.39536-0.022085 0.59375 0-0.018122 1.0693-0.23283 2.4314-0.21875 3.4688-0.075929-0.018547-0.13719-0.04511-0.21875-0.0625-0.77989 0.18499-1.1662 0.4302-1.4375 0.78125l-1.8125-1.625c0.83241-1.3431 1.9515-2.3396 3.0938-2.5625zm1.1562 0.125c1.5434 0.4198 2.4669 1.8287 2.9688 3.4062l-2 1.125c-0.1635-0.51713-0.59295-0.82564-1.2812-1.0625 0.009972-1.0245 0.28357-2.4201 0.3125-3.4688zm-71.25 1c0.90049 0.98551 0.95313 2.2673 1.0625 3.5312 0.11589 0.72946-0.26473 1.3355-0.5 1.9375-0.61764-0.68599-0.99289-1.7629-1.3438-2.6562-0.2545-1.0254 0.020085-1.9018 0.78125-2.8125zm-3.5625 0.5625 2.25 1.2812c0.010922 0.3662 0.046629 0.76995 0.125 1.1875 0.041737 0.22236 0.08007 0.4141 0.125 0.625l-1.5 1.5c-0.59249-1.4206-1-3.0096-1-4.4062-4.38e-4 -0.061828-0.00137-0.12566 0-0.1875zm52.969 0.78125 0.46875 53.062-13.375 5.5-0.40625-52.187 13.312-6.375zm-45.719 0.34375c0.26508 0.9208 0.4375 1.8737 0.4375 2.75-1e-6 0.94517-0.19571 1.78-0.5 2.5l-2.1562-2.375c0.011969-0.31119 0.001628-0.66507 0.03125-1.0938-0.10056-0.62304-0.019781-1.1728 0-1.6875l2.1875-0.09375zm63 0.3125 1.8125 1.5312c-0.14418 0.32097-0.26652 0.74211-0.46875 1.2188-0.13811 0.67497-0.19212 1.3062-0.0625 1.875l-1.9688 1.1875c-0.19659-0.62088-0.34375-1.2737-0.34375-1.9688-4e-6 -1.3186 0.41619-2.6716 1.0312-3.8438zm3.5625 0.78125c1.48 0.19298 1.4872 1.1905 1.4688 2.4688-0.24902 1.3984-0.91736 2.0647-2.0938 2.625-1.0346-0.7058-1.2915-1.8808-1.0625-3 0.18954-1.1559 0.8198-1.5786 1.6875-2.0938zm4.0938 0.09375c0.11956 0.45938 0.22885 0.92098 0.28125 1.375-1e-6 0.97025-0.22975 1.9497-0.59375 2.875l-2.0625-1.0938c0.073442-0.20189 0.13463-0.4007 0.21875-0.625 0.08258-0.51847 0.14507-0.94897 0.125-1.3125l2.0312-1.2188zm-75.25 1.3438c0.19468 0.67693 0.45933 1.218 1.0625 1.5l-0.375 2.8438c-0.76624-0.57054-1.4775-1.5839-2.0625-2.8125l1.375-1.5312zm24.781 0.71875 0.09375 30.625-10.812 7.125 0.375-33.219 10.344-4.5312zm-22.469 0.0625 2 2.4688c-0.69212 1.2315-1.7984 1.8687-2.9062 1.5l0.25-3.1562c0.39445-0.23844 0.57698-0.51958 0.65625-0.8125zm70.375 1.4688 2.0625 1.1875c-0.69204 1.4842-1.7755 2.7188-2.9062 3.2812l-0.84375-2.6875c0.98609-0.26022 1.3347-0.87456 1.6875-1.7812zm-3.625 0.625c0.22318 0.4663 0.58543 0.91036 1.2188 1.2812 0.13562-0.011352 0.2555-0.042689 0.375-0.0625l0.53125 2.875c-0.039476 0.009541-0.085523 0.023547-0.125 0.03125-1.5343 0.29938-3.06-0.90797-3.875-2.6875l1.875-1.4375zm-25.125 3.1562-2.9375 6.625-0.03125 12.281c2.2123-0.98986 4.4126-2.0108 6.625-3v-12.188l-3.6562-3.7188zm-22.625 0.0625-2.4062 4.6875-0.0625 8.6875c1.8052-0.67633 3.5962-1.3982 5.4062-2.0625v-0.03125h0.0625l0.03125-8.5938-3.0312-2.6875zm-21.219 0.09375 4.9062 11.969-0.09375 13.781-0.5625-0.40625v-13.031l-4.4375-11.594-4.9688 4.5938-0.34375 13.25-0.84375-0.53125 0.5-12.781 5.8438-5.25zm30.719 0.21875-3.4375 3.9375-0.125 11.438 6.5938 2.9375 0.03125-11.531-3.0625-6.7812zm-9.2188 0.28125 2.3125 2.5938 0.125 7.8125c-0.5461 0.19862-3.1905 1.2166-4.875 1.875l0.3125-7.875 2.125-4.4062zm9.25 0.25 2.5 6.375 0.03125 10.625-5.8125-2.5 0.25-10.969 3.0312-3.5312zm13.281 0.15625 2.9062 2.9375v11.469c-1.5627 0.67979-3.9793 1.9829-5.5312 2.6875l-0.03125-11.312 2.6562-5.7812zm-44.75 0.8125-0.375 20.031-3.8438-2.7188 0.34375-13.5 3.875-3.8125zm0.375 0.1875 3.9375 10.625-0.0625 12.5-3.9688-2.8125 0.09375-20.312zm71.656 2.375 7.9375 7.75-0.093747 20.062-0.46875 0.21875v-20.469l-7.1562-6.5312-6.0312 11.719-0.0625 20.375-0.75 0.28125 0.09375-21.219 6.5312-12.188zm0.375 1.75 6.4062 6.2188-0.0625 20.312-6.1875 2.375-0.15625-28.906zm-0.28125 0.5625 0.0625 28.5-5.5312 2.125 0.21875-19.875 5.25-10.75z"/>
  <path id="path2624" d="m16.945 83.829-0.28125-0.0625 2.5938 3.375 0.09375-0.34375-2.4062-2.9688z"/>
  <path id="path2626" d="m16.695 86.767-0.15625 0.1875 2.2188 3.9375 0.46875-0.0625-2.5312-4.0625z"/>
  <path id="path2628" d="m16.414 90.11-0.21875 0.09375 2.9688 4.4062 0.21875-0.1875-2.9688-4.3125z"/>
  <path id="path2630" d="m16.507 94.392-0.15625 0.21875 2.4688 2.875 0.15625-0.09375-2.4688-3z"/>
  <path id="path2632" d="m17.945 81.454-0.09375 0.03125 1.375 2.25 0.1875-0.15625-1.4688-2.125z"/>
  <path id="path2634" d="m20.632 84.048 0.0625 0.1875 1.4062-0.8125-0.4375-0.125-1.0312 0.75z"/>
  <path id="path2636" d="m22.601 86.36-1.8438 0.78125v0.28125l2-0.84375-0.15625-0.21875z"/>
  <path id="path2638" d="m23.757 90.142-2.9375 0.6875 0.15625 0.34375 2.8438-0.6875-0.0625-0.34375z"/>
  <path id="path2640" d="m23.57 93.485-2.875 0.90625 0.15625 0.25 2.9375-0.90625-0.21875-0.25z"/>
  <path id="path2642" d="m23.851 97.392-3.125 1.2188v0.25l3.1875-1.1875-0.0625-0.28125z"/>
  <path id="path2644" d="m98.382 89.985-4.875 4.8125 0.28125 0.15625 4.6875-4.6875-0.09375-0.28125z"/>
  <path id="path2646" d="m98.132 93.923-4.7812 4.7812 0.34375 0.25 4.5938-4.8438-0.15625-0.1875z"/>
  <path id="path2648" d="m98.414 101.02-5.0312 5.8438 0.28125 0.28125 4.8125-5.8438-0.0625-0.28125z"/>
  <path id="path2650" d="m97.945 106.92c-1.5666 0.91442-2.49 2.4798-3.625 3.875l0.3125 0.1875c0.93108-1.3374 2.2879-2.9999 3.5312-4.0312l-0.21875-0.03125z"/>
  <path id="path2652" d="m95.476 86.735-2.4062 2.6562 0.28125 0.1875 2.2812-2.7188-0.15625-0.125z"/>
  <path id="path2654" d="m90.039 89.11-0.28125 0.03125 2.0625 0.875 0.09375-0.125-1.875-0.78125z"/>
  <path id="path2656" d="m88.101 93.298-0.0625 0.3125 3.6562 1.2188 0.1875-0.3125-3.7812-1.2188z"/>
  <path id="path2658" d="m87.601 97.579-0.0625 0.3125 4.1875 1.0938 0.125-0.34375-4.25-1.0625z"/>
  <path id="path2660" d="m87.57 106.74-0.25 0.15625 3.7812 1 0.25-0.34375-3.7812-0.8125z"/>
  <path id="path2662" d="m87.289 110.8 0.125 0.09375 3.7188 1.3125-0.03125-0.3125-3.8125-1.0938z"/>
  <path id="path2744" d="m87.695 102.74-0.1875 0.15625 3.7812 1 0.125-0.28125-3.7188-0.875z"/>
  <path id="path2746" d="m98.289 97.142-5.1562 6.0312 0.15625 0.09375 5.0625-5.9062-0.0625-0.21875z"/>
 </g>
</svg>
