<?xml version="1.0" encoding="UTF-8"?>
<!-- Created with Inkscape (http://www.inkscape.org/) -->
<svg id="svg2" width="128" height="128" version="1.0" xmlns="http://www.w3.org/2000/svg" xmlns:cc="http://creativecommons.org/ns#" xmlns:dc="http://purl.org/dc/elements/1.1/" xmlns:rdf="http://www.w3.org/1999/02/22-rdf-syntax-ns#" xmlns:xlink="http://www.w3.org/1999/xlink">
 <defs id="defs4">
  <linearGradient id="linearGradient3364">
   <stop id="stop3366" stop-color="#9e0000" offset="0"/>
   <stop id="stop3368" stop-color="#e00000" offset="1"/>
  </linearGradient>
  <linearGradient id="linearGradient3203">
   <stop id="stop3205" stop-color="#e3cf6f" offset="0"/>
   <stop id="stop3207" stop-color="#faeca9" offset="1"/>
  </linearGradient>
  <linearGradient id="linearGradient2422" x1="73.859" x2="75.416" y1="17.427" y2="11.243" gradientTransform="translate(3.2865 -.17297)" gradientUnits="userSpaceOnUse">
   <stop id="stop3110" stop-color="#c223c2" offset="0"/>
   <stop id="stop3112" stop-color="#ff00dc" offset="1"/>
  </linearGradient>
  <linearGradient id="linearGradient2426" x1="99.373" x2="103.26" y1="100.45" y2="100.45" gradientTransform="translate(3.2865 -.17297)" gradientUnits="userSpaceOnUse">
   <stop id="stop2322" stop-color="#6a3c1d" offset="0"/>
   <stop id="stop2324" stop-color="#8f5127" offset="1"/>
  </linearGradient>
  <linearGradient id="linearGradient2434" x1="64.086" x2="69.968" y1="31.741" y2="28.881" gradientTransform="translate(3.2865 -.17297)" gradientUnits="userSpaceOnUse" xlink:href="#linearGradient3203"/>
  <linearGradient id="linearGradient3370" x1="49.851" x2="55.066" y1="33.866" y2="28.281" gradientTransform="translate(3.2865 -.17297)" gradientUnits="userSpaceOnUse" xlink:href="#linearGradient3364"/>
  <linearGradient id="linearGradient3376" x1="75.243" x2="89.081" y1="34.076" y2="31.914" gradientTransform="translate(3.2865 -.17297)" gradientUnits="userSpaceOnUse" xlink:href="#linearGradient3364"/>
  <linearGradient id="linearGradient3380" x1="85.103" x2="103.7" y1="42.465" y2="39.438" gradientTransform="translate(3.2865 -.17297)" gradientUnits="userSpaceOnUse" xlink:href="#linearGradient3203"/>
  <linearGradient id="linearGradient3384" x1="112.86" x2="115.72" y1="49.816" y2="51.114" gradientTransform="translate(3.2865 -.17297)" gradientUnits="userSpaceOnUse" xlink:href="#linearGradient3203"/>
  <linearGradient id="linearGradient3388" x1="97.038" x2="111.22" y1="56.908" y2="50.162" gradientTransform="translate(3.2865 -.17297)" gradientUnits="userSpaceOnUse" xlink:href="#linearGradient3364"/>
  <linearGradient id="linearGradient3392" x1="115.31" x2="119.25" y1="63.827" y2="63.827" gradientTransform="translate(3.2865 -.17297)" gradientUnits="userSpaceOnUse" xlink:href="#linearGradient3364"/>
  <linearGradient id="linearGradient3396" x1="116.41" x2="125.41" y1="75.935" y2="71.005" gradientTransform="translate(3.2865 -.17297)" gradientUnits="userSpaceOnUse" xlink:href="#linearGradient3203"/>
  <linearGradient id="linearGradient3400" x1="119.18" x2="122.52" y1="60.441" y2="60.441" gradientTransform="translate(3.2865 -.17297)" gradientUnits="userSpaceOnUse" xlink:href="#linearGradient3364"/>
  <linearGradient id="linearGradient3404" x1="85.535" x2="87.611" y1="59.978" y2="47.611" gradientTransform="translate(3.2865 -.17297)" gradientUnits="userSpaceOnUse" xlink:href="#linearGradient3203"/>
  <linearGradient id="linearGradient3410" x1="105.77" x2="110.27" y1="80.173" y2="81.384" gradientTransform="translate(3.2865 -.17297)" gradientUnits="userSpaceOnUse" xlink:href="#linearGradient3203"/>
  <linearGradient id="linearGradient3414" x1="117.45" x2="116.76" y1="84.973" y2="79.005" gradientTransform="translate(3.2865 -.17297)" gradientUnits="userSpaceOnUse" xlink:href="#linearGradient3364"/>
  <linearGradient id="linearGradient3418" x1="112.26" x2="113.56" y1="88.692" y2="82.811" gradientTransform="translate(3.2865 -.17297)" gradientUnits="userSpaceOnUse" xlink:href="#linearGradient3364"/>
  <linearGradient id="linearGradient3424" x1="73.168" x2="90.724" y1="59.459" y2="94.054" gradientTransform="translate(3.2865 -.17297)" gradientUnits="userSpaceOnUse" xlink:href="#linearGradient3364"/>
  <linearGradient id="linearGradient3428" x1="86.789" x2="91.676" y1="89.903" y2="94.227" gradientTransform="translate(3.2865 -.17297)" gradientUnits="userSpaceOnUse" xlink:href="#linearGradient3364"/>
  <linearGradient id="linearGradient3432" x1="76.541" x2="88.043" y1="102.49" y2="107.94" gradientTransform="translate(3.2865 -.17297)" gradientUnits="userSpaceOnUse" xlink:href="#linearGradient3203"/>
  <linearGradient id="linearGradient3436" x1="82.076" x2="91.503" y1="102.57" y2="106.98" gradientTransform="translate(3.2865 -.17297)" gradientUnits="userSpaceOnUse" xlink:href="#linearGradient3203"/>
  <linearGradient id="linearGradient3440" x1="60.413" x2="70.534" y1="61.974" y2="83.099" gradientTransform="translate(3.2865 -.17297)" gradientUnits="userSpaceOnUse" xlink:href="#linearGradient3203"/>
  <linearGradient id="linearGradient3446" x1="55.685" x2="66.203" y1="91.23" y2="98.125" gradientTransform="translate(3.2865 -.17297)" gradientUnits="userSpaceOnUse" xlink:href="#linearGradient3203"/>
  <linearGradient id="linearGradient3450" x1="56.922" x2="76.544" y1="114.43" y2="94.633" gradientTransform="translate(3.2865 -.17297)" gradientUnits="userSpaceOnUse" xlink:href="#linearGradient3364"/>
  <linearGradient id="linearGradient3455" x1="50.205" x2="64.7" y1="57.466" y2="71.52" gradientTransform="translate(3.2865 -.17297)" gradientUnits="userSpaceOnUse" xlink:href="#linearGradient3364"/>
  <linearGradient id="linearGradient3461" x1="32.615" x2="35.797" y1="86.237" y2="93.175" gradientTransform="translate(3.2865 -.17297)" gradientUnits="userSpaceOnUse" xlink:href="#linearGradient3364"/>
  <linearGradient id="linearGradient3465" x1="31.201" x2="40.128" y1="97.55" y2="120.97" gradientTransform="translate(3.2865 -.17297)" gradientUnits="userSpaceOnUse" xlink:href="#linearGradient3203"/>
  <linearGradient id="linearGradient3469" x1="36.062" x2="41.366" y1="64.184" y2="73.906" gradientTransform="translate(3.2865 -.17297)" gradientUnits="userSpaceOnUse" xlink:href="#linearGradient3203"/>
  <linearGradient id="linearGradient3473" x1="17.678" x2="19.269" y1="74.967" y2="81.419" gradientTransform="translate(3.2865 -.17297)" gradientUnits="userSpaceOnUse" xlink:href="#linearGradient3203"/>
  <linearGradient id="linearGradient3477" x1="15.601" x2="17.589" y1="83.408" y2="111.29" gradientTransform="translate(3.2865 -.17297)" gradientUnits="userSpaceOnUse" xlink:href="#linearGradient3364"/>
  <linearGradient id="linearGradient3481" x1="10.165" x2="7.6014" y1="71.255" y2="80.889" gradientTransform="translate(3.2865 -.17297)" gradientUnits="userSpaceOnUse" xlink:href="#linearGradient3203"/>
  <linearGradient id="linearGradient3485" x1="10.96" x2="10.96" y1="58.615" y2="66.835" gradientTransform="translate(3.2865 -.17297)" gradientUnits="userSpaceOnUse" xlink:href="#linearGradient3364"/>
  <linearGradient id="linearGradient3489" x1="35.532" x2="37.742" y1="49.423" y2="62.416" gradientTransform="translate(3.2865 -.17297)" gradientUnits="userSpaceOnUse" xlink:href="#linearGradient3364"/>
  <linearGradient id="linearGradient3493" x1="30.848" x2="29.433" y1="39.523" y2="36.695" gradientTransform="translate(3.2865 -.17297)" gradientUnits="userSpaceOnUse" xlink:href="#linearGradient3203"/>
  <linearGradient id="linearGradient3519" x1="96.608" x2="105.89" y1="91.849" y2="103.34" gradientTransform="translate(3.2865 -.17297)" gradientUnits="userSpaceOnUse">
   <stop id="stop3417" stop-color="#1a1a1a" offset="0"/>
   <stop id="stop3419" stop-color="#2b2b2b" offset="1"/>
  </linearGradient>
  <filter id="filter3587">
   <feGaussianBlur id="feGaussianBlur3589" stdDeviation="1.9335818"/>
  </filter>
 </defs>
 <metadata id="metadata7">
  <rdf:RDF>
   <cc:Work rdf:about="">
    <dc:format>image/svg+xml</dc:format>
    <dc:type rdf:resource="http://purl.org/dc/dcmitype/StillImage"/>
   </cc:Work>
  </rdf:RDF>
 </metadata>
 <g id="layer2" fill-rule="evenodd">
  <path id="path3521" d="m18.843 108.03-12.728-19.799 1.0607-21.567 6.0104-19.092 13.081-12.374 15.26-4.3292-6.712-16.557c9.115 3.5315 18.23 0.49819 27.345-1.3526-8.2074 4.4869-15.911 6.9569-23.175 7.6729l4.2565 10.363 12.724-1.4545 48.437 15.91-25.809 36.062-42.78 12.374-16.971 14.142z" fill-opacity=".66667" filter="url(#filter3587)"/>
  <path id="path3517" d="m86.725 119.34c8.2023-7.0878 17.4-27.473 37.123-28.991l-23.688-17.501-24.218 18.208 10.783 28.284z" fill="url(#linearGradient3519)"/>
  <path id="path2420" d="m67.892 11.07 4.2378 0.43243 7.8703 1.2973 7.6108 1.1243 4.4973 0.25946 5.2757-0.60541-2.2486 2.1622-3.373 1.0378-5.3622 0.51892-6.4 0.17297-6.1405 0.43243-6.573 1.2108-0.34595-2.5946 0.086487-2.4216 0.86486-3.027z" fill="url(#linearGradient2422)"/>
  <path id="path2424" d="m101.45 85.968 1.7297 27.33 0.17297 0.86487 2.1622 1.2973 0.95135-0.34594 1.3838-0.51892 0.51892-0.60541-2.9405-28.368-1.4703-0.51892-1.2973 0.25946-1.2108 0.60541z" fill="url(#linearGradient2426)"/>
  <path id="path2432" d="m58.292 27.935 1.1243 1.1243 1.6432 0.77838 2.5081 0.86486 3.7189 0.86486 2.6811-0.17297 6.227-0.25946 4.5838-0.6054 2.5081-0.51892 2.6811-0.95135-1.0378-0.17297-5.4486 0.51892h-5.5351s-5.6216-0.86486-6.7459-0.6054c-1.1243 0.25946-5.0162-0.51892-5.3622-0.51892s-3.373-0.43243-3.5459-0.34595z" fill="url(#linearGradient2434)"/>
  <path id="path2775" d="m33.816 35.2 4.2378-0.77838 4.9297-1.2108 5.3622-1.4703 3.9784-1.4703 5.9676-2.1622 0.95135 0.86486 3.2865 1.5568 4.6703 1.2108-3.2865 0.69189-6.6595 1.2108-9.3405 1.7297-5.3622 0.86486s-4.5838 0-5.1892-0.25946c-0.60541-0.25946-3.373-0.43243-3.5459-0.77838z" fill="url(#linearGradient3370)"/>
  <path id="path3374" d="m68.584 31.741 3.1135-0.34594 4.0649-0.17297 3.6324-0.51892 3.1135-0.60541 3.5459-1.0378 2.0757 1.1243 8.6486 4.1514 8.6487 3.5459 3.4595 1.2973-1.8162 0.60541-4.6703-0.25946s-5.6216-0.69189-5.9676-0.69189c-0.34594 0-10.292-1.9027-10.292-1.9027l-11.935-2.5946-5.6216-2.5946z" fill="url(#linearGradient3376)"/>
  <path id="path3378" d="m69.103 31.914 7.0054 2.5081 8.4757 2.1622 10.724 1.9027 4.4973 0.86486 4.6703 0.43243 4.5838-0.51892 0.86487 1.8162 3.4595 5.4486 3.373 4.4108 3.546 3.373-0.6919 1.3838-3.9784-0.6054-9.0811-2.7676-11.935-5.1027-12.541-5.8811-8.1297-4.8432-2.5946-2.0757-2.9405-2.2486 0.69189-0.25946z" fill="url(#linearGradient3380)"/>
  <path id="path3382" d="m109.23 39.697s2.854 2.3351 3.373 3.2 4.5838 3.8054 4.5838 3.8054l2.8541 3.7189 0.86486 2.5946-0.34594 1.5568s-1.9892-1.3838-2.5081-1.9892c-0.51892-0.60541-4.7568-6.227-4.7568-6.227l-3.373-5.2757-0.69189-1.3838z" fill="url(#linearGradient3384)"/>
  <path id="path3386" d="m68.757 32.173 2.9405 4.8432 4.0649 4.2378 3.5459 3.4595 8.1297 6.4865 8.3027 6.4865 7.8703 5.7081 8.0432 5.4486 5.7946 3.4595 0.17298-5.1892 0.51891-5.8811 0.77838-3.8919 0.77838-1.6432c-2.5775-0.23591-5.0039-0.77416-7.3514-1.4703l-10.378-4.0649s-11.157-4.4973-12.281-5.1027c-1.1243-0.6054-10.984-5.6216-10.984-5.6216l-5.3622-3.373-3.8919-3.2-0.69189-0.69189z" fill="url(#linearGradient3388)"/>
  <path id="path3390" d="m120.22 54.314-1.0378 2.3351-1.1243 4.5838-0.34595 6.0541-0.08648 5.3622 1.9027-1.7297 2.0757-4.8432 0.43244-4.8432-0.6919-4.6703-1.1243-2.2486z" fill="url(#linearGradient3392)"/>
  <path id="path3394" d="m122.03 60.886 1.5568 2.9405 1.4703 2.7676 1.1243 1.4703-0.69189 7.5243 0.17297 6.8324 0.95135 8.2162-2.2486-2.7676-5.6216-10.724-1.1243-4.4108 1.1243-1.0378 1.9892-3.027 1.2108-4.1514 0.08649-3.6324z" fill="url(#linearGradient3396)"/>
  <path id="path3398" d="m121.77 60.454 1.2973 2.1622 1.7297 3.6324s1.2973 1.4703 0.95135 0.51892c-0.34594-0.95135-1.3838-3.8054-1.3838-3.8054l-0.08649-2.6811-1.4703-2.4216-1.6432-4.4108-0.6054 1.2108 0.77837 2.2486 0.43244 3.5459z" fill="url(#linearGradient3400)"/>
  <path id="path3402" d="m68.324 32.259 1.2108 1.0378 2.3351 3.7189 2.8541 3.373 2.4216 2.3351 5.4486 4.7568 11.762 9.2541 7.9568 5.7946 11.503 7.5243 3.8919 2.5081-2.5946 1.4703-4.2378 4.0649-6.1405 5.3622-2.4216 1.9892-1.1243 0.69189-12.108-17.47-13.578-21.362-5.1892-10.032-1.9892-5.0162z" fill="url(#linearGradient3404)"/>
  <path id="path3408" d="m102.49 85.362 3.2-2.9405 3.7189-3.027 3.8919-3.5459 4.0649-3.2865-0.25946 1.4703-1.2108 3.5459-1.7297 2.4216-1.4703 1.6432-2.7676 1.9892-4.2378 1.5568-3.2 0.17297z" fill="url(#linearGradient3410)"/>
  <path id="path3412" d="m105.17 85.276 2.9405-0.95135 2.7676-1.2108 2.4216-2.0757 2.2486-2.7676 2.2486-5.2757 0.86486 3.373 2.5946 6.227 4.7568 7.9568-2.7676-1.1243-3.8054-2.9405s-1.1243-1.8162-1.3838-2.1622-0.77838-3.8054-0.77838-3.8054l-0.60541 1.2108-1.3838 2.0757-3.373 1.5568-3.373 0.34595-3.373-0.43243z" fill="url(#linearGradient3414)"/>
  <path id="path3416" d="m105.6 85.449 3.027 0.17297 3.4595-0.25946 2.7676-1.2973 1.6432-1.9892 0.69189-1.5568 0.3892 1.8595 0.73513 2.4649 1.6432 2.3351 1.6432 1.4703 2.3351 1.1243 2.5081 1.0378 0.51892 1.3838-3.373-0.43243-5.1027-0.69189-4.1514-1.0378-5.2757-1.8162-3.4595-1.6432v-1.1243z" fill="url(#linearGradient3418)"/>
  <path id="path3422" d="m68.67 32.346 1.9892 5.7946 7.0054 12.886 9.3405 14.443 14.443 20.757-7.1784 1.3838-8.8216 3.027-6.9189 2.3351h-1.1243l-2.3351-10.984-3.4595-21.968-2.8541-23.092-0.51892-4.1514 0.43243-0.43243z" fill="url(#linearGradient3424)"/>
  <path id="path3426" d="m78.616 92.886 3.7189-1.3838 7.2649-2.2486 4.9297-1.5568 6.746-1.2973 0.25946 0.6054-0.6919 1.0378-3.373 3.8919-2.8541 1.6432-3.2 1.1243-4.7568 0.6054s-4.1514-0.51892-4.6703-0.69189-3.2-1.1243-3.2-1.1243l-0.17297-0.60541z" fill="url(#linearGradient3428)"/>
  <path id="path3430" d="m77.924 93.232-0.34595 2.5081 0.17297 5.5351 0.51892 5.2757 2.4216 13.059 0.77838 3.9784 0.86486-0.17297 0.77838-6.3135 0.69189-6.1405-0.086487-4.0649-1.1243-4.6703 1.7297-0.77838 3.8054-1.9892 6.6595-5.0162 1.2108-1.4703-2.5081 1.0378-3.2 0.86486s-3.6324 0.25946-3.9784 0.25946-4.3243-0.51892-4.3243-0.51892l-4.0649-1.3838z" fill="url(#linearGradient3432)"/>
  <path id="path3434" d="m96.432 92.541-2.0757 1.9892-3.027 2.6811-2.7676 1.9027-3.373 1.8162-2.6811 1.2973 0.86486 2.3351 0.34594 3.373 0.086487 3.5459-0.77838 5.6216-0.86486 6.4 0.86486-0.43244 5.4486-5.7081s6.573-9.8595 6.1405-9.6c-0.43243 0.25945 1.2973-2.0757 1.2973-2.0757l1.4703-3.546 1.9027-5.1892 1.6432-5.3622 0.69189-2.6811v-2.0757l-0.95135 1.5568-4.2378 4.1514z" fill="url(#linearGradient3436)"/>
  <path id="path3438" d="m68.075 32.191 0.61872 2.2097 0.97227 9.7227 2.5633 20.153 2.4749 15.026 2.0329 10.253 0.88388 3.4471s-4.6846-0.44194-5.0381-0.44194c-0.35355 0-10.253-0.70711-10.253-0.70711l-9.6343-0.088388h-2.9168l4.5078-10.872 6.5407-16.882 4.331-14.231 1.6794-7.3362 0.7955-5.4801 0.17678-3.4471 0.26516-1.3258z" fill="url(#linearGradient3440)"/>
  <path id="path3444" d="m49.956 91.941 4.5078-0.088389h7.955l6.4523 0.44194 6.6291 0.53033 2.74 0.35355-0.61872 1.3258-1.7678 1.591-5.3917 2.0329-4.9497 0.61872-5.0381-0.70711-4.773-1.8562-3.8891-2.2097-1.8562-2.0329z" fill="url(#linearGradient3446)"/>
  <path id="path3448" d="m45.713 122.52 1.8783-10.12 1.5026-9.5018 0.50823-6.7175 0.17678-4.4194 1.591 1.6794 4.0659 2.6516 4.0659 1.591 4.331 1.0607h4.8614l6.8943-2.2981 2.2981-2.0329-0.26516 2.8284 0.17678 3.182 0.35355 4.8614 1.2374 7.4246 2.2097 10.96-5.7452-1.0607-5.4801-0.35356-5.3033-0.44194-6.0104-0.26516h-5.2149l-5.6569 0.53033-2.4749 0.44194z" fill="url(#linearGradient3450)"/>
  <path id="path3452" d="m67.722 31.749 0.26516 2.2097-0.35355 3.0936-0.88388 6.0104-4.0659 14.849-5.2149 15.203-7.2478 18.562-3.182-1.6794-6.8059-3.2704-6.1872-2.6516-5.5685-1.3258v-0.44194l6.1872-4.8614 7.1595-6.9827 8.5737-10.518 7.955-10.518 6.0104-9.7227 2.2981-4.9497 0.70711-2.3865 0.35355-0.61872z" fill="url(#linearGradient3455)"/>
  <path id="path3459" d="m28.124 82.661 4.8614 1.0607 5.6569 2.2097 5.0381 2.6517 6.364 3.0052-0.53033 0.35355-3.182 1.0607-4.8614-0.26516-5.1265-1.6794s-3.2704-2.74-4.0659-3.0936c-0.7955-0.35355-3.4471-4.1543-3.4471-4.1543l-0.70711-1.149z" fill="url(#linearGradient3461)"/>
  <path id="path3463" d="m27.77 82.395-0.53033 4.4194-0.70711 3.2704-1.7678 6.1872-5.5685 14.761 2.0329 0.26517 4.773 1.591 7.6898 3.2704 7.1595 3.8891 4.9497 2.74 1.591-8.7504 1.3258-8.3085 0.61872-5.6568 0.44194-8.3085-1.591 0.70711-4.9497 0.53033-4.8614-1.0607-3.0052-1.6794-3.2704-2.74-2.9168-3.2704-1.4142-1.8562z" fill="url(#linearGradient3465)"/>
  <path id="path3467" d="m16.191 66.574 5.2149-1.591 7.8666-3.0936 7.1595-3.8007 8.2201-5.6569 9.5459-7.6014 6.1872-6.0988 6.8059-6.7175 0.35355 0.17678-1.149 2.9168-3.5355 7.3362-5.3033 7.8666-7.2478 9.6343-6.6291 8.3969-6.7175 7.0711-5.922 4.8614-3.0052 2.2097-4.5078-7.0711-5.1265-6.364-2.2097-2.4749z" fill="url(#linearGradient3469)"/>
  <path id="path3471" d="m16.456 67.193 4.1543 3.7123 2.5633 4.2426 3.182 4.5078 1.7678 3.2704-2.8284-1.6794-4.9497-4.4194-3.4471-5.8336-0.7955-3.0936 0.35355-0.70711z" fill="url(#linearGradient3473)"/>
  <path id="path3475" d="m9.0317 85.312 1.9445-2.6517 2.2097-4.773 1.2374-3.2704c0.93113-2.3728 1.3641-4.5795 1.591-6.7175l0.97227 3.5355 1.9445 3.2704 3.0936 3.7123 2.8284 2.4749 2.8284 1.8562-0.53033 5.3033-2.74 9.5459-5.3917 13.523-0.70711-5.5685-2.2981-8.4853-3.0052-6.5407-3.9775-5.2149z" fill="url(#linearGradient3477)"/>
  <path id="path3479" d="m10.092 65.336 2.3865-2.0329 1.4142-2.0329 0.53033 1.9445 1.3258 3.2704 0.26516 1.9445-0.44194 2.6517-1.3258 4.5078-3.0936 6.8943-1.9445 3.182-0.35355-0.44194 1.0607-4.9497 0.88388-7.7782-0.70711-7.1595z" fill="url(#linearGradient3481)"/>
  <path id="path3483" d="m15.926 66.662 1.5026-8.9272 0.61872-7.513h-0.35355l-1.149 2.5633-1.4142 3.8007-0.70711 2.5633-0.17678 3.4471 0.70711 2.1213 0.97227 1.9445z" fill="url(#linearGradient3485)"/>
  <path id="path3487" d="m17.782 49.869 9.0156-2.9168 16.794-5.3917 13.612-5.6569 6.5407-2.9168 3.0936-1.2374h0.70711l-2.2981 2.0329-8.0433 8.0433-10.253 8.9272-6.7175 4.8614-6.6291 4.0659-6.7175 3.0936-4.4194 1.8562-4.331 1.3258-2.2981 0.53033 1.0607-4.2426 0.53033-5.1265 0.44194-4.8614-0.088388-2.3865z" fill="url(#linearGradient3489)"/>
  <path id="path3491" d="m18.136 49.161s7.1595-5.4801 7.513-5.8336c0.35355-0.35355 3.0936-2.5633 3.0936-2.5633l3.0936-3.182 1.8562-2.3865 4.1543 0.97227 6.364-0.17678 6.364-0.97227 14.142-3.0052 2.1213-0.17678-2.5633 0.88388-10.783 4.773-8.3085 3.4471-8.4853 3.0936-13.965 4.2426-4.5962 1.3258v-0.44194z" fill="url(#linearGradient3493)"/>
  <path id="path3495" d="m68.075 32.191 0.61872 2.2097 0.97227 9.7227 2.5633 20.153 2.4749 15.026 2.0329 10.253 0.88388 3.4471s-4.6846-0.44194-5.0381-0.44194c-0.35355 0-10.253-0.70711-10.253-0.70711l-9.6343-0.088388h-2.9168l4.5078-10.872 6.5407-16.882 4.331-14.231 1.6794-7.3362 0.7955-5.4801 0.17678-3.4471 0.26516-1.3258z" fill-opacity=".15686"/>
  <path id="path3497" d="m49.956 91.941 4.5078-0.088389h7.955l6.4523 0.44194 6.6291 0.53033 2.74 0.35355-0.61872 1.3258-1.7678 1.591-5.3917 2.0329-4.9497 0.61872-5.0381-0.70711-4.773-1.8562-3.8891-2.2097-1.8562-2.0329z" fill-opacity=".15686"/>
  <path id="path3499" d="m45.713 122.52 1.8783-10.12 1.5026-9.5018 0.50823-6.7175 0.17678-4.4194 1.591 1.6794 4.0659 2.6516 4.0659 1.591 4.331 1.0607h4.8614l6.8943-2.2981 2.2981-2.0329-0.26516 2.8284 0.17678 3.182 0.35355 4.8614 1.2374 7.4246 2.2097 10.96-5.7452-1.0607-5.4801-0.35356-5.3033-0.44194-6.0104-0.26516h-5.2149l-5.6569 0.53033-2.4749 0.44194z" fill-opacity=".15686"/>
  <path id="path3501" d="m67.722 31.749 0.26516 2.2097-0.35355 3.0936-0.88388 6.0104-4.0659 14.849-5.2149 15.203-7.2478 18.562-3.182-1.6794-6.8059-3.2704-6.1872-2.6516-5.5685-1.3258v-0.44194l6.1872-4.8614 7.1595-6.9827 8.5737-10.518 7.955-10.518 6.0104-9.7227 2.2981-4.9497 0.70711-2.3865 0.35355-0.61872z" fill-opacity=".15686"/>
  <path id="path3503" d="m28.124 82.661 4.8614 1.0607 5.6569 2.2097 5.0381 2.6517 6.364 3.0052-0.53033 0.35355-3.182 1.0607-4.8614-0.26516-5.1265-1.6794s-3.2704-2.74-4.0659-3.0936c-0.7955-0.35355-3.4471-4.1543-3.4471-4.1543l-0.70711-1.149z" fill-opacity=".15686"/>
  <path id="path3505" d="m27.77 82.395-0.53033 4.4194-0.70711 3.2704-1.7678 6.1872-5.5685 14.761 2.0329 0.26517 4.773 1.591 7.6898 3.2704 7.1595 3.8891 4.9497 2.74 1.591-8.7504 1.3258-8.3085 0.61872-5.6568 0.44194-8.3085-1.591 0.70711-4.9497 0.53033-4.8614-1.0607-3.0052-1.6794-3.2704-2.74-2.9168-3.2704-1.4142-1.8562z" fill-opacity=".15686"/>
  <path id="path3507" d="m16.191 66.574 5.2149-1.591 7.8666-3.0936 7.1595-3.8007 8.2201-5.6569 9.5459-7.6014 6.1872-6.0988 6.8059-6.7175 0.35355 0.17678-1.149 2.9168-3.5355 7.3362-5.3033 7.8666-7.2478 9.6343-6.6291 8.3969-6.7175 7.0711-5.922 4.8614-3.0052 2.2097-4.5078-7.0711-5.1265-6.364-2.2097-2.4749z" fill-opacity=".15686"/>
  <path id="path3509" d="m16.456 67.193 4.1543 3.7123 2.5633 4.2426 3.182 4.5078 1.7678 3.2704-2.8284-1.6794-4.9497-4.4194-3.4471-5.8336-0.7955-3.0936 0.35355-0.70711z" fill-opacity=".15686"/>
  <path id="path3511" d="m9.0317 85.312 1.9445-2.6517 2.2097-4.773 1.2374-3.2704c0.93113-2.3728 1.3641-4.5795 1.591-6.7175l0.97227 3.5355 1.9445 3.2704 3.0936 3.7123 2.8284 2.4749 2.8284 1.8562-0.53033 5.3033-2.74 9.5459-5.3917 13.523-0.70711-5.5685-2.2981-8.4853-3.0052-6.5407-3.9775-5.2149z" fill-opacity=".15686"/>
  <path id="path3513" d="m10.092 65.336 2.3865-2.0329 1.4142-2.0329 0.53033 1.9445 1.3258 3.2704 0.26516 1.9445-0.44194 2.6517-1.3258 4.5078-3.0936 6.8943-1.9445 3.182-0.35355-0.44194 1.0607-4.9497 0.88388-7.7782-0.70711-7.1595z" fill-opacity=".15686"/>
  <path id="path3515" d="m15.926 66.662 1.5026-8.9272 0.61872-7.513h-0.35355l-1.149 2.5633-1.4142 3.8007-0.70711 2.5633-0.17678 3.4471 0.70711 2.1213 0.97227 1.9445z" fill-opacity=".15686"/>
 </g>
 <g id="layer1">
  <path id="path2308" d="m67.359 8.7841c-1.0812 6.608-0.42261 13.216-0.4473 19.824-2.9289 0.18774-5.8524-0.62961-8.7812-0.9375-7.3865 3.7396-15.939 5.8965-24.969 7.4062-3.1403 6.0532-10.272 9.6769-15.844 14.25 0.2668 1.3184-0.9013 3.3229-1.8125 5.125-0.7491 1.6484-1.3698 3.318-1.25 5.25-0.97477 2.3407-2.6441 4.1299-4.1562 5.5312 0.14089 6.7709 0.3232 13.84-1.6562 20.375 7.6308 6.8443 9.4771 19.078 10.312 25.625 8.248 0.6689 17.974 7.2512 27.188 11.781 6.6802-2.4274 19.964-1.5123 36.156 0.875 10.005-7.1225 15.969-21.248 19.406-33.906 0.51338 8.8996 0.63674 14.612 1.4688 23.938 2.4873 2.8929 4.0568 1.4751 5.5938 0.25-0.99439-8.7554-1.8494-18.358-2.625-27.281 3.0164 2.1061 10.394 4.6702 21.062 5.3125-0.99796-8.0773-1.8836-16.277-0.28125-24.469-1.2371-2.2816-2.187-4.915-2.3438-7.5625-1.3157-1.5123-2.067-4.5947-3.0312-6.8125 0.09448-1.396-1.1209-2.9777-1.9688-4.1875-2.055-2.7065-5.9323-5.7747-10.344-9.875-0.08259-0.12529-0.16663-0.25013-0.25-0.375-10.193-3.4615-15.732-6.7368-23.313-10.094-8.8368 0.59418-10.572 0.7857-17.312-0.15625l0.5-9.8125c17.81-3.4065 24.583 1.1811 29.228-5.7402-9.0786 2.3279-19.361-1.3625-29.072-2.1973l-0.8125-1.7831-0.64645-0.35355zm0.70895 3.0741c9.3593-0.16728 18.877 3.5571 28.625 2.2437-4.5803 5.099-19.357 2.0658-29.036 4.0268-0.28238-1.9406-1.226-3.6902 0.41069-6.2705zm-9.5312 16.344c2.8041 0.31651 5.2909 0.62099 8.4375 0.9375l0.03125 1.8125c-0.017609 0.007017-0.28486 0.11399-0.3125 0.125-2.4557 0.24582-5.779-1.2704-8.1562-2.875zm-0.4375 0.1875c2.3128 1.8883 5.9198 2.8529 8.1901 3.3438-4.7696 0.46531-9.3004 2.0281-14.045 2.7125-6.5244 1.4119-12.138 1.7772-17.864 0.81878 9.2632-1.7155 16.989-4.3535 23.719-6.875zm10 0.8125c5.5098 0.43657 10.72 0.60185 17.062 0.09375-4.4865 1.3226-11.257 1.9252-15.812 2.0625l-0.71875 0.03125c-0.05225 0.001554-0.10399-0.00156-0.15625 0-0.16645-0.11279-0.29729-0.22133-0.34375-0.28125l-0.09375 0.03125 0.0625-1.9375zm17.844 0.03125c7.0069 3.2739 13.433 7.0379 22.406 9.875-6.2268 1.1088-12.926-0.74386-19.063-1.9062-6.8169-1.2663-13.54-2.9187-20.024-5.3741 4.9866-0.082444 11.701-0.88098 16.68-2.5947zm-18.875 3.1562c-0.014198 0.13104 0.032083 0.15888 0 0.3125-2.842 8.9425-10.792 19.064-17.36 27.552-5.8063 7.712-12.898 16.278-21.578 21.604-3.7595-4.9242-6.4984-11.059-11.578-15.104 22.875-6.7067 36.47-20.265 50.515-34.365zm-0.33042-0.45711c-13.621 13.973-27.834 28.281-50.388 34.238 0.89436-5.25 1.6004-11.119 1.9116-16.369 8.6784-2.6832 17.567-5.0099 26.036-8.2831 10.119-3.9202 19.4-8.373 22.441-9.5865zm2.1296 0.15717c6.2278 3.5008 13.13 4.149 20.055 5.5509 6.6373 1.0238 15.665 3.4212 19.771 1.9053 3.218 4.9503 6.5493 10.602 11.102 14.996 0.20244 0.19538-0.47484 0.82934-0.26382 1.0177-8.2692-0.9003-17.389-5.4878-25.113-8.6866-8.5476-4.071-18.503-8.2054-25.551-14.784zm-3.0843-0.10892c-4.5317 1.7907-14.94 6.5446-21.388 9.0427-8.1786 3.0942-17.077 5.5424-25.42 8.1786 4.916-4.3259 10.862-8.8597 14.625-13.5 5.9237 1.552 12.334 0.3533 18.594-0.90625 3.0374-0.42494 11.069-2.3852 13.59-2.8151zm1.7485 0.42862c1.3326 9.9871-9.7122 39.88-17.615 58.782-6.6316-2.9867-13.729-7.4279-21.097-8.9419 8.3247-5.6426 15.147-13.816 21.405-21.579 6.0289-8.9086 14.426-17.598 17.307-28.261zm1.5018 0.43214c1.6261 3.9478 4.7103 6.7591 7.7535 9.6418 4.6861 4.3717 10.806 9.3674 16.875 14 7.4872 5.4389 15.295 11.34 23.468 15.75l-14.78 12.906-0.95267 0.64997c-5.8928-7.9569-11.437-16.603-17.052-24.76-5.8201-8.9938-13.154-20.734-15.312-28.188zm-0.43842 0.10447c3.3221 10.323 9.5196 19.314 15.348 28.35 5.4406 8.3522 11.014 16.621 17 24.594-7.5625 1.4121-15.479 4.4653-23.041 6.9839-0.78366-2.5669-1.4619-5.48-1.9893-8.1089-3.1551-16.351-5.6496-35.255-7.3179-51.819zm0.67065-0.19638c6.9371 6.9574 16.489 10.905 25.365 14.765 8.0699 2.8475 16.004 7.4786 24.656 8.3438-2.063 4.8152-1.5228 10.59-2 15.828-8.1808-4.4276-15.796-9.895-23.208-15.485-6.0513-4.6194-12.754-9.8374-17.4-14.171-2.2141-2.0655-6.0237-7.6156-7.4133-9.2802zm-1.01 0.66881c1.63 15.751 4.3348 35.971 7.2188 51.534 0.52651 2.6662 1.0505 5.3368 1.8438 7.9375-9-1.1305-18-1.1367-27-1.375 7.4559-17.843 16.369-40.383 17.938-58.096zm41.469 6.9712c4.0158 3.6932 7.7646 6.9347 9.5938 9.3438 1.2354 1.2237 1.1541 3.0948 0.9375 4.4688-4.6883-3.9828-7.4398-8.9843-10.531-13.812zm-92 10.344c-0.041497 5.0925-0.93748 10.189-1.9062 15.281-2.8062-4.2941 0.035547-11.441 1.9062-15.281zm103.47 3.3125c0.77391 2.2537 1.5387 4.4213 2.7812 6.4688-0.21304 1.8758 0.2621 3.6116 0.96875 5.3125-1.0438-1.5883-1.7884-3.634-2.6562-5.4062-0.47234-1.9225-0.36414-3.9268-1.5312-5.75 0.1922-0.20191 0.34128-0.40514 0.4375-0.625zm-3.4062 18.188c0.19477-5.3648-0.11559-12.977 2.5312-17.562 2.0657 5.8844 1.9499 12.535-2.5312 17.562zm4.5312-10.406c1.1087 1.5931 2.0863 5.17 3.4062 6.0938-1.152 6.9416-0.50586 14.383 0.4375 21.906-3.6569-5.2081-6.8992-10.961-8.125-17 3.1424-2.4931 4.2473-7.1905 4.2812-11zm-108.75 0.28125 1.9375 4.1875c0.71648 6.687-3.0752 12.975-6.1875 18.688 1.1183-5.6795 2.9962-14.623 1.375-19.719 0.99814-0.9945 2.153-1.808 2.875-3.1562zm2.8438 5.625c4.3959 4.3665 8.2966 9.1836 11.281 14.844-5.9907-3.5031-9.5904-8.123-11.281-14.844zm-0.28125 0.78125c0.95188 6.604 6.2541 10.953 11.344 14.219-0.41019 8.9681-5.1856 19.195-8.3438 27.938-0.655-8.0327-3.5245-18.058-9.5-25.031 3.2245-4.8157 5.5106-11.397 6.5-17.125zm101 4.4688c-1.2564 6.747-6.1585 11.803-13.688 11.969 4.2972-3.6282 9.64-9.0297 13.688-11.969zm0.5 0.75c1.6217 6.1762 4.7393 11.675 7.5 16.312-4.7486-2.1315-7.0435-4.3643-7.6875-9.7812l-0.40625-0.03125c-1.6264 5.1078-6.1702 5.4287-10.719 5.0938 6.6215-1.9151 9.5767-6.6605 11.312-11.594zm-0.40625 7.1562c0.39793 6.6894 3.6214 7.6891 8.8438 9.9688 0.22135 0.11685 0.2774 0.84003 0.4375 0.9375-6.628 0.08485-15.425-2.2776-20.75-5.3438-0.25208-0.14515 0.2649-0.8503 0-0.96875 5.4973 1.0203 9.1807 0.17895 11.469-4.5938zm-88.844 2.125c7.5476 0.84895 14.128 5.3584 20.812 8.6875-8.7991 3.2704-15.947-1.9596-20.812-8.6875zm-0.34375 0.09375c4.7101 6.9786 13.528 13.224 21.438 8.875 0.22471 9.6978-2.2657 20.953-3.875 30.406-7.7869-4.6163-16.954-9.1764-25.969-11.75 2.973-8.5083 7.5192-18.567 8.4062-27.531zm75.25 2.3438c0.80281-0.074961 1.4845 0.21384 2 0.4375 0 0 2.666 27.064 2.625 27.563-0.23353 2.8353-4.4592 1.0925-4.375 0.25l-1.8125-27.625c0.55105-0.40979 1.0808-0.58002 1.5625-0.625zm-1.9062 1.2188c-4.7093 7.865-12.774 10.287-22.469 6.5938 7.3287-2.8346 14.987-5.8778 22.469-6.5938zm0.125 0.96875c-1.9915 13.174-9.1588 26.133-19.031 35.594 0.87554-6.2976 2.509-14.836 0.4375-20.938 6.8934-2.9235 13.804-8.9375 18.594-14.656zm-44.906 4.3125c7.0521 0.004996 14.329 0.50775 21.188 1.375-0.009229 0.35487-0.43543 1.0488-0.4375 1.4062-9.2646 5.7169-19.22 4.5797-27.156-2.625 1.1198-0.049481 2.2671-0.1023 3.4062-0.125 0.99674-0.019865 1.9926-0.031964 3-0.03125zm-6.625 0.28125c5.635 7.0461 20.965 9.6334 27.375 2.8125-0.46055 8.0894 2.1766 18.971 3.6562 28-11.426-0.9337-23.336-2.4572-34.812-0.90625 1.5432-9.0489 3.8169-20.378 3.7812-29.906zm28.375 1.375c5.2386 2.3 11.185 2.3651 16.375 0.25-3.3964 3.3028-7.3863 6.144-12.281 8.2813 2.3846 6.9101 0.58889 14.091-0.40625 21.094-2.1403-9.618-5.242-19.899-3.6875-29.625z"/>
 </g>
</svg>
