<?xml version="1.0" encoding="UTF-8"?>
<!-- Created with Inkscape (http://www.inkscape.org/) -->
<svg id="svg2" width="128" height="128" version="1.0" xmlns="http://www.w3.org/2000/svg" xmlns:cc="http://creativecommons.org/ns#" xmlns:dc="http://purl.org/dc/elements/1.1/" xmlns:rdf="http://www.w3.org/1999/02/22-rdf-syntax-ns#" xmlns:xlink="http://www.w3.org/1999/xlink">
 <defs id="defs4">
  <linearGradient id="linearGradient2320">
   <stop id="stop2322" stop-color="#6a3c1d" offset="0"/>
   <stop id="stop2324" stop-color="#8f5127" offset="1"/>
  </linearGradient>
  <linearGradient id="linearGradient2338">
   <stop id="stop2340" stop-color="#b1b1b1" offset="0"/>
   <stop id="stop2342" stop-color="#e4e4e4" offset="1"/>
  </linearGradient>
  <linearGradient id="linearGradient2667" x1="21.016" x2="41.168" y1="86.141" y2="108.84" gradientTransform="translate(6.7327 .71471)" gradientUnits="userSpaceOnUse" xlink:href="#linearGradient2338"/>
  <linearGradient id="linearGradient2671" x1="53.146" x2="78.919" y1="113.17" y2="95.784" gradientTransform="translate(6.7327 .71471)" gradientUnits="userSpaceOnUse" xlink:href="#linearGradient2338"/>
  <linearGradient id="linearGradient2675" x1="94.53" x2="111.52" y1="103.44" y2="78.314" gradientTransform="translate(6.7327 .71471)" gradientUnits="userSpaceOnUse" xlink:href="#linearGradient2338"/>
  <linearGradient id="linearGradient2681" x1="108.89" x2="110.53" y1="89.751" y2="89.751" gradientTransform="translate(6.7327 .71471)" gradientUnits="userSpaceOnUse" xlink:href="#linearGradient2338"/>
  <linearGradient id="linearGradient2687" x1="100.89" x2="106.64" y1="100.45" y2="89.73" gradientTransform="translate(6.7327 .71471)" gradientUnits="userSpaceOnUse" xlink:href="#linearGradient2320"/>
  <linearGradient id="linearGradient2698" x1="82.724" x2="108.5" y1="33.643" y2="61.665" gradientTransform="translate(6.7327 .71471)" gradientUnits="userSpaceOnUse" xlink:href="#linearGradient2338"/>
  <linearGradient id="linearGradient2705" x1="40.908" x2="71.611" y1="46.616" y2="29.838" gradientTransform="translate(6.7327 .71471)" gradientUnits="userSpaceOnUse" xlink:href="#linearGradient2338"/>
  <linearGradient id="linearGradient2709" x1="19.157" x2="30.27" y1="66.162" y2="40.216" gradientTransform="translate(6.7327 .71471)" gradientUnits="userSpaceOnUse" xlink:href="#linearGradient2338"/>
  <linearGradient id="linearGradient2713" x1="9.773" x2="10.984" y1="62.162" y2="87.243" gradientTransform="translate(6.7327 .71471)" gradientUnits="userSpaceOnUse" xlink:href="#linearGradient2338"/>
  <linearGradient id="linearGradient2717" x1="27.533" x2="27.887" y1="84.557" y2="83.894" gradientTransform="translate(6.7327 .71471)" gradientUnits="userSpaceOnUse" xlink:href="#linearGradient2338"/>
  <linearGradient id="linearGradient2721" x1="65.054" x2="65.054" y1="93.352" y2="92.07" gradientTransform="translate(6.7327 .71471)" gradientUnits="userSpaceOnUse" xlink:href="#linearGradient2338"/>
  <linearGradient id="linearGradient2725" x1="101.96" x2="101.65" y1="82.082" y2="81.685" gradientTransform="translate(6.7327 .71471)" gradientUnits="userSpaceOnUse" xlink:href="#linearGradient2338"/>
  <linearGradient id="linearGradient2729" x1="114.6" x2="113.18" y1="59.853" y2="60.029" gradientTransform="translate(6.7327 .71471)" gradientUnits="userSpaceOnUse" xlink:href="#linearGradient2338"/>
  <linearGradient id="linearGradient2744" x1="104.94" x2="104.62" y1="40.281" y2="41" gradientTransform="translate(6.7327 .71471)" gradientUnits="userSpaceOnUse" xlink:href="#linearGradient2338"/>
  <linearGradient id="linearGradient2751" x1="61.5" x2="61.656" y1="28.531" y2="29.406" gradientTransform="translate(6.7327 .71471)" gradientUnits="userSpaceOnUse" xlink:href="#linearGradient2338"/>
  <linearGradient id="linearGradient2759" x1="20.719" x2="21.281" y1="41.438" y2="42.312" gradientTransform="translate(6.7327 .71471)" gradientUnits="userSpaceOnUse" xlink:href="#linearGradient2338"/>
  <linearGradient id="linearGradient2763" x1="11.375" x2="12.344" y1="64" y2="63.906" gradientTransform="translate(6.7327 .71471)" gradientUnits="userSpaceOnUse" xlink:href="#linearGradient2338"/>
  <linearGradient id="linearGradient2767" x1="89.062" x2="93.438" y1="38.688" y2="62.125" gradientTransform="translate(6.7327 .71471)" gradientUnits="userSpaceOnUse" xlink:href="#linearGradient2338"/>
  <linearGradient id="linearGradient2771" x1="97.75" x2="94.625" y1="37.562" y2="60.75" gradientTransform="translate(6.7327 .71471)" gradientUnits="userSpaceOnUse" xlink:href="#linearGradient2338"/>
  <linearGradient id="linearGradient2775" x1="108.25" x2="114.06" y1="65.938" y2="64.75" gradientTransform="translate(6.7327 .71471)" gradientUnits="userSpaceOnUse" xlink:href="#linearGradient2338"/>
  <linearGradient id="linearGradient2779" x1="70" x2="79.812" y1="50.5" y2="58" gradientTransform="translate(6.7327 .71471)" gradientUnits="userSpaceOnUse" xlink:href="#linearGradient2338"/>
  <linearGradient id="linearGradient2783" x1="83" x2="86.25" y1="57.625" y2="50.438" gradientTransform="translate(6.7327 .71471)" gradientUnits="userSpaceOnUse" xlink:href="#linearGradient2338"/>
  <linearGradient id="linearGradient2787" x1="70.438" x2="81.625" y1="44.375" y2="53" gradientTransform="translate(6.7327 .71471)" gradientUnits="userSpaceOnUse" xlink:href="#linearGradient2320"/>
  <linearGradient id="linearGradient2791" x1="83.25" x2="86.188" y1="52.562" y2="44.188" gradientTransform="translate(6.7327 .71471)" gradientUnits="userSpaceOnUse" xlink:href="#linearGradient2320"/>
  <linearGradient id="linearGradient2795" x1="80.812" x2="86.438" y1="60.344" y2="46.594" gradientTransform="translate(6.7327 .71471)" gradientUnits="userSpaceOnUse" xlink:href="#linearGradient2338"/>
  <linearGradient id="linearGradient2799" x1="47.188" x2="53" y1="31.438" y2="55" gradientTransform="translate(6.7327 .71471)" gradientUnits="userSpaceOnUse" xlink:href="#linearGradient2338"/>
  <linearGradient id="linearGradient2803" x1="54" x2="57.188" y1="51.875" y2="29.312" gradientTransform="translate(6.7327 .71471)" gradientUnits="userSpaceOnUse" xlink:href="#linearGradient2338"/>
  <linearGradient id="linearGradient2809" x1="53.562" x2="67.562" y1="52.75" y2="48.938" gradientTransform="translate(6.7327 .71471)" gradientUnits="userSpaceOnUse" xlink:href="#linearGradient2338"/>
  <linearGradient id="linearGradient2813" x1="35.812" x2="61.688" y1="50.875" y2="50.062" gradientTransform="translate(6.7327 .71471)" gradientUnits="userSpaceOnUse" xlink:href="#linearGradient2338"/>
  <linearGradient id="linearGradient2817" x1="37.625" x2="46.062" y1="60" y2="67.375" gradientTransform="translate(6.7327 .71471)" gradientUnits="userSpaceOnUse" xlink:href="#linearGradient2320"/>
  <linearGradient id="linearGradient2821" x1="48.688" x2="52.5" y1="66.25" y2="56.875" gradientTransform="translate(6.7327 .71471)" gradientUnits="userSpaceOnUse" xlink:href="#linearGradient2320"/>
  <linearGradient id="linearGradient2825" x1="37.25" x2="47.625" y1="65.75" y2="73.188" gradientTransform="translate(6.7327 .71471)" gradientUnits="userSpaceOnUse" xlink:href="#linearGradient2338"/>
  <linearGradient id="linearGradient2829" x1="49" x2="52.25" y1="71.812" y2="64.938" gradientTransform="translate(6.7327 .71471)" gradientUnits="userSpaceOnUse" xlink:href="#linearGradient2338"/>
  <linearGradient id="linearGradient2833" x1="26.25" x2="30.5" y1="60.125" y2="78.438" gradientTransform="translate(6.7327 .71471)" gradientUnits="userSpaceOnUse" xlink:href="#linearGradient2338"/>
  <linearGradient id="linearGradient2837" x1="32.75" x2="35.125" y1="74.938" y2="55.75" gradientTransform="translate(6.7327 .71471)" gradientUnits="userSpaceOnUse" xlink:href="#linearGradient2338"/>
  <linearGradient id="linearGradient2841" x1="46.438" x2="59.938" y1="74.125" y2="75.938" gradientTransform="translate(6.7327 .71471)" gradientUnits="userSpaceOnUse" xlink:href="#linearGradient2338"/>
  <linearGradient id="linearGradient2845" x1="21.75" x2="32.812" y1="66.75" y2="69.062" gradientTransform="translate(6.7327 .71471)" gradientUnits="userSpaceOnUse" xlink:href="#linearGradient2338"/>
  <linearGradient id="linearGradient2849" x1="18.375" x2="21.812" y1="74.688" y2="80.875" gradientTransform="translate(6.7327 .71471)" gradientUnits="userSpaceOnUse" xlink:href="#linearGradient2338"/>
  <linearGradient id="linearGradient2853" x1="27.438" x2="29.562" y1="82.062" y2="76.312" gradientTransform="translate(6.7327 .71471)" gradientUnits="userSpaceOnUse" xlink:href="#linearGradient2338"/>
  <linearGradient id="linearGradient2857" x1="31.438" x2="32.312" y1="85.625" y2="87.062" gradientTransform="translate(6.7327 .71471)" gradientUnits="userSpaceOnUse" xlink:href="#linearGradient2338"/>
  <linearGradient id="linearGradient2861" x1="43.25" x2="45.875" y1="90.25" y2="83.688" gradientTransform="translate(6.7327 .71471)" gradientUnits="userSpaceOnUse" xlink:href="#linearGradient2338"/>
  <linearGradient id="linearGradient2865" x1="54.188" x2="57" y1="88.312" y2="92.875" gradientTransform="translate(6.7327 .71471)" gradientUnits="userSpaceOnUse" xlink:href="#linearGradient2338"/>
  <linearGradient id="linearGradient2869" x1="68.312" x2="70.625" y1="92.312" y2="87.75" gradientTransform="translate(6.7327 .71471)" gradientUnits="userSpaceOnUse" xlink:href="#linearGradient2338"/>
  <linearGradient id="linearGradient2873" x1="58.688" x2="65.5" y1="61.5" y2="67.875" gradientTransform="translate(6.7327 .71471)" gradientUnits="userSpaceOnUse" xlink:href="#linearGradient2338"/>
  <linearGradient id="linearGradient2877" x1="64.812" x2="72.375" y1="72.25" y2="78.938" gradientTransform="translate(6.7327 .71471)" gradientUnits="userSpaceOnUse" xlink:href="#linearGradient2338"/>
  <linearGradient id="linearGradient2881" x1="75.438" x2="84" y1="78.125" y2="65.188" gradientTransform="translate(6.7327 .71471)" gradientUnits="userSpaceOnUse" xlink:href="#linearGradient2338"/>
  <linearGradient id="linearGradient2887" x1="83.375" x2="113.38" y1="76.812" y2="65" gradientTransform="translate(6.7327 .71471)" gradientUnits="userSpaceOnUse" xlink:href="#linearGradient2338"/>
  <linearGradient id="linearGradient2891" x1="83.5" x2="90.875" y1="76.875" y2="84.688" gradientTransform="translate(6.7327 .71471)" gradientUnits="userSpaceOnUse" xlink:href="#linearGradient2320"/>
  <linearGradient id="linearGradient2895" x1="93.625" x2="103.38" y1="83.562" y2="69.938" gradientTransform="translate(6.7327 .71471)" gradientUnits="userSpaceOnUse" xlink:href="#linearGradient2320"/>
  <linearGradient id="linearGradient3392">
   <stop id="stop3394" stop-color="#4a585b" offset="0"/>
   <stop id="stop3396" stop-color="#5e7074" offset="1"/>
  </linearGradient>
  <linearGradient id="linearGradient3098">
   <stop id="stop3100" stop-color="#9e2612" offset="0"/>
   <stop id="stop3102" stop-color="#bd5032" offset="1"/>
  </linearGradient>
  <linearGradient id="linearGradient4549" x1="42.724" x2="83.892" y1="97.038" y2="45.319" gradientTransform="translate(6.7327 .71471)" gradientUnits="userSpaceOnUse">
   <stop id="stop3407" stop-color="#4f3e2a" offset="0"/>
   <stop id="stop3409" stop-color="#72593c" offset="1"/>
  </linearGradient>
  <linearGradient id="linearGradient4555" x1="77.606" x2="89.653" y1="88.738" y2="87.882" gradientTransform="translate(6.7327 .71471)" gradientUnits="userSpaceOnUse" xlink:href="#linearGradient2338"/>
  <linearGradient id="linearGradient4559" x1="90.571" x2="91.182" y1="66.845" y2="68.374" gradientTransform="translate(6.7327 .71471)" gradientUnits="userSpaceOnUse" xlink:href="#linearGradient3392"/>
  <linearGradient id="linearGradient4563" x1="92.405" x2="97.665" y1="76.691" y2="64.215" gradientTransform="translate(6.7327 .71471)" gradientUnits="userSpaceOnUse" xlink:href="#linearGradient3392"/>
  <linearGradient id="linearGradient4567" x1="58.159" x2="64.335" y1="84.029" y2="89.166" gradientTransform="translate(6.7327 .71471)" gradientUnits="userSpaceOnUse" xlink:href="#linearGradient3392"/>
  <linearGradient id="linearGradient4571" x1="60.421" x2="64.824" y1="82.011" y2="82.623" gradientTransform="translate(6.7327 .71471)" gradientUnits="userSpaceOnUse" xlink:href="#linearGradient3392"/>
  <linearGradient id="linearGradient4575" x1="35.225" x2="47.762" y1="83.418" y2="79.932" gradientTransform="translate(6.7327 .71471)" gradientUnits="userSpaceOnUse" xlink:href="#linearGradient3098"/>
  <linearGradient id="linearGradient4579" x1="34.43" x2="35.898" y1="78.648" y2="82.011" gradientTransform="translate(6.7327 .71471)" gradientUnits="userSpaceOnUse" xlink:href="#linearGradient3098"/>
  <linearGradient id="linearGradient4583" x1="73.264" x2="77.399" y1="73.083" y2="62.197" gradientTransform="translate(6.7327 .71471)" gradientUnits="userSpaceOnUse" xlink:href="#linearGradient3392"/>
  <linearGradient id="linearGradient4587" x1="69.595" x2="69.839" y1="64.643" y2="69.291" gradientTransform="translate(6.7327 .71471)" gradientUnits="userSpaceOnUse" xlink:href="#linearGradient3392"/>
  <linearGradient id="linearGradient4591" x1="59.504" x2="70.879" y1="55.898" y2="63.42" gradientTransform="translate(6.7327 .71471)" gradientUnits="userSpaceOnUse" xlink:href="#linearGradient3392"/>
  <linearGradient id="linearGradient4595" x1="69.472" x2="70.879" y1="57.977" y2="57.855" gradientTransform="translate(6.7327 .71471)" gradientUnits="userSpaceOnUse" xlink:href="#linearGradient3392"/>
  <linearGradient id="linearGradient4599" x1="25.991" x2="24.982" y1="76.813" y2="70.392" gradientTransform="translate(6.7327 .71471)" gradientUnits="userSpaceOnUse" xlink:href="#linearGradient3392"/>
  <linearGradient id="linearGradient4603" x1="18.163" x2="19.294" y1="70.331" y2="72.716" gradientTransform="translate(6.7327 .71471)" gradientUnits="userSpaceOnUse" xlink:href="#linearGradient3392"/>
  <linearGradient id="linearGradient4607" x1="28.07" x2="30.455" y1="46.541" y2="52.718" gradientTransform="translate(6.7327 .71471)" gradientUnits="userSpaceOnUse" xlink:href="#linearGradient3098"/>
  <linearGradient id="linearGradient4611" x1="31.923" x2="35.042" y1="51.556" y2="46.664" gradientTransform="translate(6.7327 .71471)" gradientUnits="userSpaceOnUse" xlink:href="#linearGradient3098"/>
  <linearGradient id="linearGradient4615" x1="89.653" x2="93.262" y1="32.598" y2="35.289" gradientTransform="translate(6.7327 .71471)" gradientUnits="userSpaceOnUse" xlink:href="#linearGradient3098"/>
  <linearGradient id="linearGradient4619" x1="95.035" x2="98.154" y1="34.8" y2="29.479" gradientTransform="translate(6.7327 .71471)" gradientUnits="userSpaceOnUse" xlink:href="#linearGradient3098"/>
  <linearGradient id="linearGradient4623" x1="71.796" x2="81.764" y1="37.918" y2="46.419" gradientTransform="translate(6.7327 .71471)" gradientUnits="userSpaceOnUse" xlink:href="#linearGradient3392"/>
  <linearGradient id="linearGradient4627" x1="74.793" x2="81.275" y1="37.551" y2="38.958" gradientTransform="translate(6.7327 .71471)" gradientUnits="userSpaceOnUse" xlink:href="#linearGradient3392"/>
  <linearGradient id="linearGradient4631" x1="49.719" x2="51.86" y1="23.425" y2="30.58" gradientTransform="translate(6.7327 .71471)" gradientUnits="userSpaceOnUse" xlink:href="#linearGradient3392"/>
  <linearGradient id="linearGradient4635" x1="54.489" x2="57.547" y1="27.706" y2="22.385" gradientTransform="translate(6.7327 .71471)" gradientUnits="userSpaceOnUse" xlink:href="#linearGradient3392"/>
  <linearGradient id="linearGradient4639" x1="45.989" x2="48.557" y1="54.125" y2="54.002" gradientTransform="translate(6.7327 .71471)" gradientUnits="userSpaceOnUse" xlink:href="#linearGradient3392"/>
  <linearGradient id="linearGradient4649" x1="37.794" x2="47.089" y1="54.002" y2="60.668" gradientTransform="translate(6.7327 .71471)" gradientUnits="userSpaceOnUse" xlink:href="#linearGradient3392"/>
  <linearGradient id="linearGradient4653" x1="26.075" x2="27.71" y1="56.008" y2="59.632" gradientTransform="translate(6.7327 .71471)" gradientUnits="userSpaceOnUse" xlink:href="#linearGradient2320"/>
  <linearGradient id="linearGradient4657" x1="26.075" x2="27.71" y1="56.008" y2="59.632" gradientTransform="translate(6.7327 8.9348)" gradientUnits="userSpaceOnUse" xlink:href="#linearGradient2320"/>
  <linearGradient id="linearGradient4661" x1="32.439" x2="34.074" y1="64.979" y2="60.736" gradientTransform="translate(6.7327 .71471)" gradientUnits="userSpaceOnUse" xlink:href="#linearGradient2320"/>
  <linearGradient id="linearGradient4665" x1="32.219" x2="33.562" y1="78.766" y2="75.797" gradientTransform="translate(6.7327 .71471)" gradientUnits="userSpaceOnUse" xlink:href="#linearGradient2320"/>
  <linearGradient id="linearGradient3332">
   <stop id="stop3334" stop-color="#bb8f56" offset="0"/>
   <stop id="stop3336" stop-color="#d1af63" offset="1"/>
  </linearGradient>
  <linearGradient id="linearGradient4905" x1="18.552" x2="20.262" y1="76.527" y2="79.074" gradientTransform="translate(6.7327 .71471)" gradientUnits="userSpaceOnUse" xlink:href="#linearGradient3332"/>
  <linearGradient id="linearGradient4913" x1="32.219" x2="33.562" y1="78.766" y2="75.797" gradientTransform="translate(24.448 -6.6983)" gradientUnits="userSpaceOnUse" xlink:href="#linearGradient2320"/>
  <linearGradient id="linearGradient4917" x1="18.552" x2="20.262" y1="76.527" y2="79.074" gradientTransform="translate(36.955 -25.858)" gradientUnits="userSpaceOnUse" xlink:href="#linearGradient3332"/>
  <linearGradient id="linearGradient4921" x1="18.552" x2="20.262" y1="76.527" y2="79.074" gradientTransform="translate(37.221 -33.233)" gradientUnits="userSpaceOnUse" xlink:href="#linearGradient3332"/>
  <linearGradient id="linearGradient4925" x1="18.552" x2="20.262" y1="76.527" y2="79.074" gradientTransform="translate(37.183 -40.342)" gradientUnits="userSpaceOnUse" xlink:href="#linearGradient3332"/>
  <linearGradient id="linearGradient4929" x1="55.084" x2="56.339" y1="48.32" y2="44.518" gradientTransform="translate(6.7327 .71471)" gradientUnits="userSpaceOnUse" xlink:href="#linearGradient3332"/>
  <linearGradient id="linearGradient4933" x1="55.084" x2="56.339" y1="48.32" y2="44.518" gradientTransform="translate(6.5807 -7.9908)" gradientUnits="userSpaceOnUse" xlink:href="#linearGradient3332"/>
  <linearGradient id="linearGradient4939" x1="33.131" x2="35.045" y1="76.257" y2="78.572" gradientTransform="translate(39.958 .94281)" gradientUnits="userSpaceOnUse" xlink:href="#linearGradient2320"/>
  <linearGradient id="linearGradient4951" x1="68.998" x2="70.1" y1="89.414" y2="86.487" gradientTransform="translate(6.7327 .71471)" gradientUnits="userSpaceOnUse" xlink:href="#linearGradient2320"/>
  <linearGradient id="linearGradient4961" x1="86.143" x2="85.23" y1="83.522" y2="82.197" gradientTransform="translate(6.7327 .71471)" gradientUnits="userSpaceOnUse" xlink:href="#linearGradient2320"/>
  <linearGradient id="linearGradient4965" x1="33.131" x2="35.045" y1="76.257" y2="78.572" gradientTransform="translate(63.224 -16.392)" gradientUnits="userSpaceOnUse" xlink:href="#linearGradient2320"/>
  <linearGradient id="linearGradient4969" x1="33.131" x2="35.045" y1="76.257" y2="78.572" gradientTransform="translate(46.611 -21.79)" gradientUnits="userSpaceOnUse" xlink:href="#linearGradient2320"/>
  <linearGradient id="linearGradient4973" x1="18.552" x2="20.262" y1="76.527" y2="79.074" gradientTransform="translate(57.825 -29.812)" gradientUnits="userSpaceOnUse" xlink:href="#linearGradient3332"/>
  <linearGradient id="linearGradient4977" x1="18.552" x2="20.262" y1="76.527" y2="79.074" gradientTransform="translate(66.645 -26.124)" gradientUnits="userSpaceOnUse" xlink:href="#linearGradient3332"/>
  <linearGradient id="linearGradient4987" x1="90.515" x2="92.187" y1="44.442" y2="51.133" gradientTransform="translate(6.7327 .71471)" gradientUnits="userSpaceOnUse" xlink:href="#linearGradient2320"/>
  <linearGradient id="linearGradient4991" x1="89.64" x2="91.047" y1="51.475" y2="42.503" gradientTransform="translate(13.005 1.9312)" gradientUnits="userSpaceOnUse" xlink:href="#linearGradient2320"/>
  <filter id="filter5644">
   <feGaussianBlur id="feGaussianBlur5646" stdDeviation="1.4027231"/>
  </filter>
  <filter id="filter5677">
   <feGaussianBlur id="feGaussianBlur5679" stdDeviation="0.61919621"/>
  </filter>
  <filter id="filter5693">
   <feGaussianBlur id="feGaussianBlur5695" stdDeviation="0.23208392"/>
  </filter>
  <filter id="filter5713">
   <feGaussianBlur id="feGaussianBlur5715" stdDeviation="0.099988717"/>
  </filter>
  <filter id="filter5730">
   <feGaussianBlur id="feGaussianBlur5732" stdDeviation="0.1256739"/>
  </filter>
  <filter id="filter5754">
   <feGaussianBlur id="feGaussianBlur5756" stdDeviation="0.12475658"/>
  </filter>
  <filter id="filter5766">
   <feGaussianBlur id="feGaussianBlur5768" stdDeviation="0.22566261"/>
  </filter>
  <filter id="filter5780">
   <feGaussianBlur id="feGaussianBlur5782" stdDeviation="0.30547013"/>
  </filter>
  <linearGradient id="linearGradient5787" x1="112.13" x2="113.25" y1="58.076" y2="69.924" gradientTransform="translate(6.7327 .71471)" gradientUnits="userSpaceOnUse" xlink:href="#linearGradient2338"/>
 </defs>
 <metadata id="metadata7">
  <rdf:RDF>
   <cc:Work rdf:about="">
    <dc:format>image/svg+xml</dc:format>
    <dc:type rdf:resource="http://purl.org/dc/dcmitype/StillImage"/>
   </cc:Work>
  </rdf:RDF>
 </metadata>
 <g id="layer2" fill-rule="evenodd">
  <path id="path5634" transform="matrix(1 0 0 .89898 -.69189 9.7983)" d="m20.506 98.302-8.1317-17.324-8.8388-24.042 20.506-15.203-4.9497-10.253 2.1213-10.253 6.0104 4.5962 4.2426 9.5459 12.374-3.5355 67.529 35.709-66.822 32.88-24.042-2.1213z" fill-opacity=".66667" filter="url(#filter5644)"/>
  <path id="path4547" d="m18.841 70.077 24.735-24.389 42.032-2.2486 32 17.297 3.6324 21.449-25.773 26.811-43.416 0.69189-30.27-18.854-2.9405-20.757z" fill="url(#linearGradient4549)"/>
  <path id="path2665" d="m20.052 78.293 3.7189 2.1622-0.043243 1.0811 3.1135 1.5568 0.086487-1.1676 2.8541 1.3405-0.043244 1.3838 2.6811 1.8162 0.12973-1.6432 3.0703 1.6-0.086487 1.1676 3.1135 1.6865 0.12973-1.1243 2.8541 1.427 0.086487 1.5135 2.9838 1.2108 0.043243-1.0811 2.8973 1.3838-0.043243 1.4703 3.5459 1.5135v-1.3405l2.1622 1.0378 0.043243 19.762-33.47-16.822 0.17297-19.935z" fill="url(#linearGradient2667)"/>
  <path id="path2669" d="m53.349 95.158 3.4595-0.043243v1.4703l4.4973-0.3027v-1.427l3.7189-0.043244 0.043243 1.7297 3.9351-0.47568v-1.3405l3.6324-0.34595 0.21622 1.3405 3.5892-0.21622-0.21622-1.3405 3.8919-0.086487 0.17297 1.3838 3.1135-0.34595 0.12973-1.4703 3.5027-0.21622 0.25946 1.6 3.8919-0.51892-0.17297-1.4703 5.1459-0.25946 0.043243 19.805-42.897 2.5081 0.043243-19.935z" fill="url(#linearGradient2671)"/>
  <path id="path2677" d="m115.62 85.774 1.6-1.3405 0.04324 12.065-1.4703-0.43243-0.17297-10.292z" fill="url(#linearGradient2681)"/>
  <path id="path2685" d="m106.32 93.212 9.3838-7.4811 0.17298 10.422-9.5568 7.654v-10.595z" fill="url(#linearGradient2687)"/>
  <path id="path2700" d="m85.576 28.965-3.4688 0.21875-0.34375 1.4688-4.2812 0.34375 0.09375-1.3438-3.875 0.375-0.03125 1.6875-4.0312 0.0625 0.15625-1.3438-3.5938 0.21875-0.3125 1.375-1.4688 0.03125 0.03125 16.906 9.5312-0.6875v-5.4375l3.0938-5.8125 3.0312-0.625 5.2812 2.0312 0.1875-9.4688zm-32.5 2.5312-1.4688 0.09375-0.25 1.5938h-3.875l0.1875-1.3438-3.9688-0.21875-0.21875 0.53125 0.0625 17.938 9.4062-0.5625 0.125-18.031z" fill="url(#linearGradient2705)"/>
  <path id="path2707" d="m43.619 31.763-2.3351 1.1676 0.17297 1.2973-2.4649 2.3784-0.3027-1.7297-1.8595 1.6 0.12973 1.6-2.6811 2.1622-0.21622-1.5135-2.3351 1.6 0.12973 1.3405-2.2919 1.8595-0.21622-1.2108-2.2919 1.9027 0.086487 1.5568-2.4649 2.3784-0.21622-1.5135-2.5946 1.7297 0.25946 1.5135-2.8108 2.4216-0.043243-1.427-1.3405 0.95135 0.38919 3.2-0.17297 1.0378 1.1676 5.1027-0.086487 2.0757 0.69189 2.2054 0.34595 4.8432 0.51892 0.3027 0.25946 1.6 9.9027-9.6432v-9.6432l5.2757-12.195 0.56216 0.47568 5.7946 10.119 1.2108-1.2108-0.17297-18.335z" fill="url(#linearGradient2709)"/>
  <path id="path2711" d="m15.468 52.044 0.60541 2.8973-0.086487 1.8595 0.43243 3.027 0.3027-0.12973 0.38919 1.8162 0.043244 2.0757 0.38919 2.3784 0.25946-0.086486 0.43243 1.3838-0.34595 1.7297 0.17297 2.1189 0.34595-0.25946 0.56216 1.773-0.25946 1.5568 0.38919 2.2919 0.43243-0.38919 0.43243 2.5081-0.043243 19.33-4.4541-25.989v-19.892z" fill="url(#linearGradient2713)"/>
  <path id="path2715" d="m19.461 75.947 1.7678-0.22097 0.61872 2.0329 3.1378 1.9004 0.088388 1.1932 2.0771 0.7513 0.70711-0.66291 3.1378 1.6352v1.4142l1.812 0.57452 1.3258-0.66291 2.961 1.812-0.044194 1.4142 1.7236 0.70711 1.2816-0.92808 3.1378 1.812-0.13258 1.5026 1.5468 0.61872 1.5026-1.0607 2.9168 1.591-0.13258 1.591 1.9445 0.97227 0.26516 1.591-3.403-1.5468-0.044194-1.4142-2.9168-1.4142-0.044195 1.1932-2.961-1.4142-0.044194-1.2816-2.8726-1.591-0.13258 1.2816-3.2262-1.6794 0.13258-1.3258-3.0494-1.5026-0.17678 1.6794-2.6517-1.7678v-1.5026l-2.74-1.2816-0.088389 1.1932-3.0494-1.7678-0.17678-1.0165-3.6239-1.9445-0.57452-2.4749z" fill="url(#linearGradient2717)"/>
  <path id="path2719" d="m50.839 93.801 0.88388-1.3258 2.2981 1.3258 3.8449-0.13258 0.13258 1.37 3.403-0.48614 0.7513-1.37 3.8007 0.13258 0.39775 1.4584 2.5633-0.26516 0.7955-1.591 3.8007 0.044194 0.30936 1.3258 2.6075-0.30936 0.57452-1.4584 3.9775-0.088389 0.30936 1.2816 2.3423-0.30936 0.92808-1.3258 3.5355-0.17678 0.48614 1.2816 2.2981-0.044194 0.17678 1.3258-3.7565 0.39775-0.26516-1.3258-3.5355 0.17678-0.088388 1.37-3.182 0.22097-0.13258-1.2374-3.8007 0.13258-0.044194 1.2374-3.4471 0.22097-0.26516-1.37-3.2704 0.30936-0.13258 1.4584-3.9775 0.22097-0.044194-1.4584-3.9333 0.13258v1.149l-4.1543 0.39775-0.13258-1.4142-3.5355 0.088388-2.4749-1.0165-0.044194-0.35355z" fill="url(#linearGradient2721)"/>
  <path id="path2727" d="m120.97 72.235 0.83969-0.92808-0.53033-2.2097-0.44194 0.39775-0.35356-2.5191 0.22097-1.6794-0.44194-1.5468-0.35355 0.22097-0.30936-2.1655 0.35355-1.6794-0.30936-1.0165-0.44194-0.26516-0.39774-2.2539 0.04419-2.0771-0.35355-1.9887-0.30936 0.13258-0.53033-2.4749-0.0442-2.3865h2.3423l-0.22097 1.0165 1.1049 4.2426s0.26516 0.97227 0.26516 1.149c0 0.17678-0.17677 1.9445-0.17677 1.9445l0.7071 2.2539 0.30936 4.7288 0.57453 0.39775 0.26516 2.2981-0.08839 1.149 1.1932 4.8172-0.13259 0.39775-2.3865 1.9445-0.39775-1.9003z" fill="url(#linearGradient2729)"/>
  <path id="path2739" d="m89.858 30.027-1.3438 0.625 0.125 1.2188 2.8438 1.625 0.1875-1.2188 2.75 1.2188 0.15625 1.3125 0.96875-2.125c-0.125 0-2.875-1.5312-2.875-1.5312l-0.75 0.84375-2.1562-0.875 0.09375-1.0938zm15.531 7.5-0.03125 1.75 1 0.53125 0.15625 1.4688 2.9375 1.375 0.03125-1.2188 2.9375 1.4688-0.09375 1.25 3.3438 1.625 0.15625-1.2188 1.5 0.84375 0.34375 2.4375 2.2188-0.40625-0.34375-2.7188-3.125-1.8438-0.8125 1.3438-1.9062-1 0.0625-1.5312-3.0625-1.5625-1.125 1-1.7188-0.75 0.03125-1.3125-2.5-1.5312z" fill="url(#linearGradient2744)"/>
  <path id="path2746" d="m86.076 27.34-5.0938 0.71875s-0.25 1.0625-0.25 1.1875-1.4688 0.34375-1.7188 0.1875-1.7188-0.03125-1.7188-0.03125l-0.53125-1.2812-4.0938 0.6875-0.1875 1.375h-2.1875l-0.59375-0.0625-0.59375-1.25-3.8125 0.34375-0.28125 1.4375h-0.65625l0.03125 1.375 1.4062-0.03125 0.40625-1.4375 3.5312-0.15625v1.375l3.8438-0.09375 0.09375-1.6875s3.6875-0.40625 3.8125-0.40625 0.09375 1.2188 0.09375 1.2188l4.0938-0.25 0.3125-1.3438 3.4375-0.3125 2.9062 1.8438 1.5312-0.84375-3.7812-2.5625zm-33.062 2.6562-2.3438 0.15625-0.40625 1.25-2.5312 0.21875-0.03125 1.5938 3.6875 0.09375 0.40625-1.6562 1.1875-0.09375 0.03125-1.5625z" fill="url(#linearGradient2751)"/>
  <path id="path2757" d="m47.139 30.215-3.8438 0.09375-2.9375 1.0938 0.375 1.3438-2.0625 1.75-0.375-1.2188-1.625 1.25-0.03125 1.2812-2.5 2.1875s-0.15625-1.375-0.375-1.1875-2.0625 1.7188-2.0625 1.7188l-0.03125 1.3438-2.2812 1.9375-0.1875-1.1875-2.4062 1.8125 0.125 1.4062-2.3438 1.7812-0.28125-0.96875-2.875 2.2812 0.0625 0.9375-1.875 1.9688s-0.53125 2.5-0.21875 2.1875 2.7188-2.1562 2.7188-2.1562l-0.0625-1.375 2.4375-2 0.0625 1.8438 2.6562-2.6875-0.125-1.4688 2.4062-1.8438s-0.21875 1.3438 0.09375 1.2188 2.4062-1.9062 2.4062-1.9062l-0.0625-1.375 2.125-1.5938 0.3125 1.5625 2.5938-2.125-0.15625-1.6875 1.9375-1.5938 0.34375 1.5625 2.4688-2.1875-0.375-1.2188 2.6875-1.3438 3.875 0.1875-0.59375-1.625z" fill="url(#linearGradient2759)"/>
  <path id="path2761" d="m19.201 48.996-3.7188 2.7812 0.5625 3.25 0.03125 1.7812 0.34375 3 0.34375-0.28125 0.34375 2.125 0.0625 2.125 0.375 2.25 0.40625-0.03125 0.15625 1-0.15625 1.8125 0.0625 2.2188 0.5-0.21875 0.375 1.8125-0.15625 1.6562 0.375 1.9688 0.65625-0.3125 1.6562-0.28125-0.4375-1.75s0.03125-0.5625 0.125-1.1875-0.34375-2.1875-0.34375-2.1875l-0.375-0.40625-0.1875-1.5-0.46875-4.0625-0.59375-1.4375 0.15625-2.0312-1.2812-5.1875-0.15625-4 1.4062-1.1562-0.0625-1.75z" fill="url(#linearGradient2763)"/>
  <path id="path2793" d="m73.983 49.84-4.5 5.25 23 9.5-0.0625 6.1875 6.0625-5.5625 2.4375-0.5 0.125-0.8125-7.125-2.875 0.0625-7.125-4.625 6.4375-15.312-6-0.0625-4.5z" fill="url(#linearGradient2795)"/>
  <path id="path2781" d="m89.045 55.34 4.75-6.25 0.1875 5.0625-4.8125 6.1875-0.125-5z" fill="url(#linearGradient2783)"/>
  <path id="path2789" d="m89.233 48.84 3.0625-5.875 1.5625-0.4375-0.0625 6.75-4.625 5.875 0.0625-6.3125z" fill="url(#linearGradient2791)"/>
  <path id="path4979" d="m93.37 44.511-0.41817-0.11405-0.60825 0.64626-0.4942 1.2545 0.038015 0.87435 0.22809 0.30412 0.83634-0.34214 0.53222-0.9884 0.11405-1.3686-0.22809-0.26611z" fill="#d59163"/>
  <path id="path4621" d="m73.881 42.608 3.3024-5.6874 15.228 5.9932-3.1189 5.9932-15.411-6.299z" fill="url(#linearGradient4623)"/>
  <path id="path4625" d="m77.122 36.921 3.2412-0.48924 13.576 5.0759 0.061155 1.1008-1.59 0.30578-12.904-5.0759-2.3851-0.91733z" fill="url(#linearGradient4627)"/>
  <path id="path5681" d="m93.854 60.75-2.6908-3.4247 0.12231-12.598-3.9139-2.3239-1.2231-1.957 4.2809 0.61155 2.9354 1.59 0.73386 12.109 2.6908 2.6908-2.9354 3.3024z" fill-opacity=".66667" filter="url(#filter5693)"/>
  <path id="path2765" d="m93.858 36.465 0.0625 24.562 6.875 3.0625 0.125-24.562-7.0625-3.0625z" fill="url(#linearGradient2767)"/>
  <path id="path2769" d="m100.86 39.715 4.4375-4.6875-0.125 24.75-4.0625 4.0625-0.3125-0.0625 0.0625-24.062z" fill="url(#linearGradient2771)"/>
  <path id="path2773" d="m109.86 60.527-2.375 3.0625 6.9375 3.9375 1.625 5.25-1.5 5.6875 2.125-1.875 0.0625-1.25 1.5625-1 0.25 1.1875 1.9375-1.625-3.1875-9.6875-7.4375-3.6875z" fill="url(#linearGradient2775)"/>
  <path id="path5770" d="m105.6 58.182 8.3171 7.3386-0.12231 12.598 1.957 3.9139 6.7271-4.0362-3.1801-15.166-13.699-4.6478z" fill-opacity=".66667" filter="url(#filter5780)"/>
  <path id="path2689" d="m117.05 64.109 0.17298-18.551 0.51892 2.2054-0.12973 2.1622 0.51891 2.7676 0.38919-0.25946 0.30271 1.9459 0.04324 2.0757 0.25946 2.3784h0.47567l0.34595 1.2973-0.25946 1.427 0.08649 2.5081 0.34594-0.17297 0.47568 1.5568-0.17297 1.5135 0.38919 2.5514 0.43243-0.56216 0.56216 2.4216-0.73513 0.77838 0.12972 1.427-0.73513 0.38919-3.4162-9.8595z" fill="url(#linearGradient5787)"/>
  <path id="path2693" d="m85.514 29.09-0.125 9.3438 8.4375 3.0312-0.03125-4.9375 0.625-1.4062 0.09375-1.5938-2.8438-1.4062v1.25l-3.2188-1.75-0.0625-0.9375-2.875-1.5938zm19.844 10.375-0.15625 18.75 11.969 6.0312 0.125-19-1.4688-0.625 0.0625 1.1875-3.6562-1.4688 0.15625-1.5-2.9688-1.375v1.125l-2.8438-1.3125-0.09375-1.4375-1.125-0.375z" fill="url(#linearGradient2698)"/>
  <path id="path2777" d="m74.108 49.34-0.0625 5.0625 15.125 5.9375v-5.25l-15.062-5.75z" fill="url(#linearGradient2779)"/>
  <path id="path2785" d="m73.92 42.777 0.125 6.5 15.188 5.875v-6.4375l-15.312-5.9375z" fill="url(#linearGradient2787)"/>
  <path id="path2811" d="m52.92 49.527-9.125 0.5-1.25 1.25 2.8125-0.4375 7.8125 2.8125-0.25-4.125z" fill="url(#linearGradient2813)"/>
  <path id="path2843" d="m30.983 62.715-0.1875 5.9375-5.8125 1.875-3.8125 4.375-0.3125-0.625 0.1875-2 9.9375-9.5625z" fill="url(#linearGradient2845)"/>
  <path id="path5650" d="m53.125 46.929-2.3239-1.4677-2.8131-12.598-0.12231-0.97848h-4.1586l-0.12231 4.6478 5.3817 13.21 1.957 2.2016-3.9139-0.12231-9.6625 12.231-7.4609-0.97848-1.3454-9.4179-2.3239-7.2163-1.59 9.2956 3.0578 9.6625 1.2231 2.4462-5.0147 3.0578-1.59 4.7701 10.029 5.8709 3.1801-9.2956 8.8063-5.2593 8.0725-8.684 2.8131-4.1586-2.0793-7.2163z" fill-opacity=".66667" filter="url(#filter5677)"/>
  <path id="path2797" d="m53.17 29.652v24.312l7.125 2.375-0.25-23.938-6.875-2.75z" fill="url(#linearGradient2799)"/>
  <path id="path2801" d="m59.92 32.777 4.5-4.6875-0.125 24.625-3.9375 3.4375-0.1875-0.3125-0.25-23.062z" fill="url(#linearGradient2803)"/>
  <path id="path2807" d="m70.42 48.402-9.875 10.125v-1.4375l0.5-0.4375-0.75-0.5 4.1875-3.625v-3.6875l5.9375-0.4375z" fill="url(#linearGradient2809)"/>
  <path id="path2815" d="m42.483 58.465-0.125 6.375 12.312 4.6875-0.0625-6.3125-12.125-4.75z" fill="url(#linearGradient2817)"/>
  <path id="path2819" d="m54.483 63.277 2.9375-5.8125 3-0.5 0.3125 5.875-5.9375 6.6875-0.3125-6.25z" fill="url(#linearGradient2821)"/>
  <path id="path2823" d="m42.483 64.902 12.25 4.625-0.0625 5.25-12.25-4.8125 0.0625-5.0625z" fill="url(#linearGradient2825)"/>
  <path id="path2827" d="m54.608 69.402 5.75-5.9375 0.1875 4.6875-5.6875 6.4375-0.25-5.1875z" fill="url(#linearGradient2829)"/>
  <path id="path2831" d="m30.858 52.777 0.0625 16 6.4375 6.25-0.125 5 0.8125 0.4375-0.375-24.375-6.8125-3.3125z" fill="url(#linearGradient2833)"/>
  <path id="path2835" d="m37.67 56.465 4.8125-4.75-0.0625 24.438-4.375 4.5625-0.375-24.25z" fill="url(#linearGradient2837)"/>
  <path id="path2839" d="m54.17 78.902 9.5-11.188-3.25-1.25 0.125 1.75-5.875 6.4375-12.438-4.75 0.125 6.125-4.3125 4.375-0.75-0.25v2.0625l5.5-5.5 6.4375-2.6875 4.9375 4.875z" fill="url(#linearGradient2841)"/>
  <path id="path2847" d="m21.17 75.402 4.875-1.375 6 6 0.0625 4.25-1.125-0.3125 0.125-1.375-3.1875-1.6875-0.625 0.875-2.25-0.9375 0.0625-1.1875-3.4375-2.0625-0.5-2.1875z" fill="url(#linearGradient2849)"/>
  <path id="path2851" d="m32.108 80.09 5.25-5.0625-0.25 7-2.1875 2.375-0.875-0.5-1.25 0.75-0.6875-0.4375v-4.125z" fill="url(#linearGradient2853)"/>
  <path id="path2855" d="m36.483 85.277 1.25-0.25 2.25 2.1875-1.0625 0.5625-2-0.6875 0.25-1.4375-0.6875-0.375z" fill="url(#linearGradient2857)"/>
  <path id="path2859" d="m45.795 89.715 9.8125-8.875 0.0625 6.625-6.125 5.75-0.625-0.4375 0.125-1.5-3.25-1.5625z" fill="url(#linearGradient2861)"/>
  <path id="path5701" d="m56.06 93.652-3.3024-2.8131 0.36693-3.3024 2.9354-1.59 5.6263 1.7123-5.6263 5.9932z" fill-opacity=".66667" filter="url(#filter5754)"/>
  <path id="path2863" d="m56.17 86.277 0.1875 7.4375 1.5 0.0625 0.1875 1.125 3.0625-0.1875 0.75-1.375h4.125s0.125 1.375 0.375 1.375 2.6875-0.25 2.6875-0.25l0.5625-1.4375 2.4375-0.125 0.0625-1.875-15.938-4.75z" fill="url(#linearGradient2865)"/>
  <path id="path2867" d="m72.045 90.965 2.9375-5.0625 5.6875 0.5 0.1875 5.9375-3.8125 0.25-0.5625 1.375-2.75 0.1875s0.0625-1.25-0.1875-1.3125-1.375 0.125-1.375 0.125l-0.125-2z" fill="url(#linearGradient2869)"/>
  <path id="path5697" d="m62.665 65.153-1.7123-3.3024 0.48924-3.3024 4.0362-0.24462 1.957 3.3024-4.7701 3.547z" fill-opacity=".66667" filter="url(#filter5713)"/>
  <path id="path2871" d="m62.795 59.84 13.312 5-4.125 4.1875-9.5625-3.6875 0.375-5.5z" fill="url(#linearGradient2873)"/>
  <path id="path2885" d="m69.045 67.902-8.5625 10 37.812 11.5 1 0.75 1.9375-2.3125-0.25-0.75 2.9375-2.125 0.25 1.125 2.25-1.75-0.0625-1.375 8.25-9.0625-3.375-1 0.1875 2.8125-12.063 10.812-12.75-3.375 0.3125-7.125s0-0.25-0.3125-0.0625-5.9375 5.5-5.9375 5.5l-12-3.4375 0.25-5.1875h-1.0625l4.25-3.8125-3.0625-1.125z" fill="url(#linearGradient2887)"/>
  <path id="path5023" d="m69.045 67.902-8.5625 10 37.812 11.5 1 0.75 1.9375-2.3125-0.25-0.75 2.9375-2.125 0.25 1.125 2.25-1.75-0.0625-1.375 8.25-9.0625-3.375-1 0.1875 2.8125-12.063 10.812-12.75-3.375 0.3125-7.125s0-0.25-0.3125-0.0625-5.9375 5.5-5.9375 5.5l-12-3.4375 0.25-5.1875h-1.0625l4.25-3.8125-3.0625-1.125z" fill-opacity=".15686"/>
  <path id="path5703" d="m68.903 77.996-3.0578-2.5685 5.2593-5.504 3.4247 1.957-5.6263 6.1155z" fill-opacity=".66667" filter="url(#filter5730)"/>
  <path id="path2875" d="m68.733 72.652 7.1875-1.8125 4.5 5.375 0.0625 5.375-11.688-3.5625-0.0625-5.375z" fill="url(#linearGradient2877)"/>
  <path id="path2879" d="m80.295 76.027 12-10.938 0.125 5.6875-11.75 10.812-0.375-5.5625z" fill="url(#linearGradient2881)"/>
  <path id="path5699" d="m86.76 82.888-2.6908-2.4462-0.48924-5.9932 8.4394-6.9717 6.2378 3.1801-11.497 12.231z" fill-opacity=".66667" filter="url(#filter5766)"/>
  <path id="path2889" d="m86.983 76.09-0.1875 7.0625 12.312 3.3125s0.9375-6.25 0.3125-6.4375c-0.625-0.1875-6.0625-6-6.0625-6l-6.375 2.0625z" fill="url(#linearGradient2891)"/>
  <path id="path2893" d="m99.233 80.027 12.188-10.812v6.5625l-11.875 10.812-0.3125-6.5625z" fill="url(#linearGradient2895)"/>
  <path id="path4553" d="m80.853 87.19 10.274 2.5685-2.6297 3.4858-0.42809-1.2843-3.4247 0.12231-0.91733 1.3454-2.6297 0.24462-0.18346-1.2843-0.061155-5.1982z" fill="url(#linearGradient4555)"/>
  <path id="path4557" d="m87.152 75.815 11.253-10.641 5.9321-1.957-11.253 10.641-5.9321 1.957z" fill="url(#linearGradient4559)"/>
  <path id="path4561" d="m93.084 73.797s11.191-11.314 11.619-10.886c0.42809 0.42809 6.8494 6.0544 6.8494 6.0544l-12.231 11.069-6.2378-6.2378z" fill="url(#linearGradient4563)"/>
  <path id="path4565" d="m56.391 85.906 3.9139-4.8924 14.861 4.9536-3.0578 4.8924-15.717-4.9536z" fill="url(#linearGradient4567)"/>
  <path id="path4569" d="m60.121 80.953 14.922 4.8924 5.0759 0.12231-14.616-5.2593-5.3817 0.24462z" fill="url(#linearGradient4571)"/>
  <path id="path4573" d="m37.738 84.928 11.681-10.886 6.4213 6.5436-11.069 10.029-1.7123-0.36693 0.12231-1.5289-3.2412-1.7735-0.36693 0.061155-1.8347-2.0793z" fill="url(#linearGradient4575)"/>
  <path id="path4577" d="m36.699 85.233 1.2843-0.36693 11.436-10.702-6.8494 2.8131-7.889 7.3386 2.0181 0.91733z" fill="url(#linearGradient4579)"/>
  <path id="path4581" d="m75.716 70.678 7.3998-8.3171s9.846 2.0181 9.4179 2.3851c-0.42809 0.36693-12.048 11.253-12.048 11.253l-4.7701-5.3205z" fill="url(#linearGradient4583)"/>
  <path id="path4585" d="m68.071 72.819 8.1336-7.889 6.6659-2.3851-7.2163 8.1948-7.2775 2.1404-0.30578-0.061156z" fill="url(#linearGradient4587)"/>
  <path id="path4589" d="m64.952 54.472-2.6297 5.1982 14.005 5.1982s7.2163-2.2627 6.6659-2.5074c-0.5504-0.24462-17.98-7.6444-18.041-7.889z" fill="url(#linearGradient4591)"/>
  <path id="path4593" d="m65.075 54.472 2.9354-0.18346 24.279 10.091-8.9898-2.0793-18.224-7.8279z" fill="url(#linearGradient4595)"/>
  <path id="path4597" d="m26.058 74.042 4.7089-5.504 6.6048 6.5436-5.4428 5.2593-5.8709-6.299z" fill="url(#linearGradient4599)"/>
  <path id="path4601" d="m21.165 74.776 4.0362-4.5255 5.6874-1.7735-4.8313 5.5651-4.7701 1.4677-0.12231-0.73386z" fill="url(#linearGradient4603)"/>
  <path id="path4605" d="m30.95 52.821 5.3205-11.986 1.7123 15.35-2.6297-1.2843-4.4032-2.0793z" fill="url(#linearGradient4607)"/>
  <path id="path4609" d="m36.393 40.774 6.4824 10.824-4.8924 4.7089-1.6512-14.677 0.061155-0.85617z" fill="url(#linearGradient4611)"/>
  <path id="path4613" d="m93.94 36.309 5.8097-11.864 1.0396 15.289-6.8494-3.4247z" fill="url(#linearGradient4615)"/>
  <path id="path4617" d="m101.03 39.367-1.2843-14.8 5.6263 10.091-4.342 4.7089z" fill="url(#linearGradient4619)"/>
  <path id="path4629" d="m58.103 18.085-5.2593 11.436 7.1552 3.1189-1.8958-14.555z" fill="url(#linearGradient4631)"/>
  <path id="path4633" d="m60.121 32.64c0-0.85617-1.8347-14.922-1.8347-14.922l0.30578 0.12231 5.6874 10.152-4.1586 4.6478z" fill="url(#linearGradient4635)"/>
  <path id="path4637" d="m42.814 51.476 14.677 5.9932 3.6082-0.61155-15.656-5.9932-2.6297 0.61155z" fill="url(#linearGradient4639)"/>
  <path id="path4641" d="m42.692 51.537c0.79502 0.36693 14.922 5.9932 14.922 5.9932l-3.0578 5.8097-12.17-4.9536v-6.7271l0.30578-0.12231z" fill="url(#linearGradient4649)"/>
  <path id="path4651" d="m32.189 60.435 0.17678-2.2981 0.66291-0.83969 0.53033-0.44194 0.83969-0.13258 0.70711 0.48614 0.35355 0.48614 0.30936 0.88388v0.7513l0.17678 1.2374 0.044194 1.1049-3.8007-1.2374z" fill="url(#linearGradient4653)"/>
  <path id="path4655" d="m32.189 68.655 0.17678-2.2981 0.66291-0.83969 0.53033-0.44194 0.83969-0.13258 0.70711 0.48614 0.35355 0.48614 0.30936 0.88388v0.7513l0.17678 1.2374 0.044194 1.1049-3.8007-1.2374z" fill="url(#linearGradient4657)"/>
  <path id="path4659" d="m39.215 65.694-0.044194-2.2981 0.35355-1.1932 0.35355-1.2816 0.53033-0.7513 0.35355-0.17678 0.26516 0.44194 0.13258 1.7236 0.044195 1.591-1.9887 1.9445z" fill="url(#linearGradient4661)"/>
  <path id="path4663" d="m39.264 79.246 0.03125-3.125 2.0312-2.3438v3.5312l-2.0625 1.9375z" fill="url(#linearGradient4665)"/>
  <path id="path4667" d="m24.201 75.496 3.1875 1.0938-0.0625 3.4375-3.125-1.0938v-3.4375z" fill="url(#linearGradient4905)"/>
  <path id="path4907" d="m46.44 61.506 3.1495 1.2838 0.051546 3.3995-3.201-1.2458v-3.4375z" fill="#d59163"/>
  <path id="path4911" d="m56.979 71.833 0.03125-3.125 2.0312-2.3438v3.5312l-2.0625 1.9375z" fill="url(#linearGradient4913)"/>
  <path id="path4915" d="m54.424 48.733 3.1875 1.2838-0.0625 3.4375-3.049-1.2458-0.076031-3.4755z" fill="url(#linearGradient4917)"/>
  <path id="path4919" d="m54.69 41.358 3.1875 1.2838-0.0625 3.4375-3.049-1.2458-0.076031-3.4755z" fill="url(#linearGradient4921)"/>
  <path id="path4923" d="m54.652 34.249 3.1875 1.2838-0.0625 3.4375-3.049-1.2458-0.076031-3.4755z" fill="url(#linearGradient4925)"/>
  <path id="path4927" d="m61.209 46.716 2.1289-2.3189 0.038016 3.5354-2.0908 2.2429-0.076031-3.4594z" fill="url(#linearGradient4929)"/>
  <path id="path4931" d="m61.057 38.01 2.1289-2.3189 0.038016 3.5354-2.0908 2.2429-0.076031-3.4594z" fill="url(#linearGradient4933)"/>
  <path id="path4935" d="m65.372 61.582 3.1495 1.2838 0.051546 3.3995-3.201-1.2458v-3.4375z" fill="#d59163"/>
  <path id="path4937" d="m72.489 79.474 0.069265-3.6572 3.0577 1.1537-0.076031 3.0751-3.0509-0.57152z" fill="url(#linearGradient4939)"/>
  <path id="path4941" d="m74.666 71.92-0.15206 0.64626 0.07603 0.41817 0.41817 0.4942 0.76031 0.34214 0.30412-0.4942-0.076031-0.79832-0.45618-0.45618-0.4942-0.19008-0.38015 0.038016z" fill="#d59163"/>
  <path id="path4943" d="m58.814 58.424-0.57023-0.038015-0.53222 0.60825-0.41817 1.2165-0.038015 0.76031 0.26611 0.57023 0.53222-0.15206 0.64626-0.91237 0.26611-1.3305-0.15206-0.72229z" fill="#d59163"/>
  <path id="path4945" d="m50.488 86.974 2.0908-2.395 0.038016 3.5354-2.0908 2.2429-0.038016-3.3834z" fill="#d59163"/>
  <path id="path4949" d="m76.415 87.506-0.87435 0.57023-0.45618 1.4446v0.68428l0.19008 0.53222h0.45618l0.60825-0.45618 0.26611-0.72229 0.22809-1.1405-0.41817-0.91237z" fill="url(#linearGradient4951)"/>
  <path id="path4953" d="m101.31 79.599 1.9768-2.3189 0.03802 3.5354-2.0908 2.2429 0.07603-3.4594z" fill="#d59163"/>
  <path id="path4955" d="m108.35 73.326 2.0908-2.395-0.03801 3.5354-2.0148 2.2429-0.03801-3.3834z" fill="#d59163"/>
  <path id="path4957" d="m90.623 84.454 0.069265-3.6572 3.0577 1.1537-0.076031 3.0751-3.0509-0.57152z" fill="url(#linearGradient4961)"/>
  <path id="path4963" d="m95.831 61.911-0.006766-3.4291 3.0577 1.1537-0.076031 3.0751-2.9749-0.79961z" fill="url(#linearGradient4965)"/>
  <path id="path4967" d="m79.218 56.513-0.006766-3.4291 3.0577 1.1537-0.076031 3.3792-2.9749-1.1037z" fill="url(#linearGradient4969)"/>
  <path id="path4971" d="m75.294 44.78 3.1875 1.2838-0.0625 3.4375-3.049-1.2458-0.076031-3.4755z" fill="url(#linearGradient4973)"/>
  <path id="path4975" d="m84.114 48.467 3.1875 1.2838-0.0625 3.4375-3.049-1.2458-0.076031-3.4755z" fill="url(#linearGradient4977)"/>
  <path id="path4983" d="m103.63 38.922-0.41817-0.11405-0.60824 0.64626-0.4942 1.2545 0.03801 0.87435 0.22809 0.30412 0.83634-0.34214 0.53222-0.9884 0.11404-1.3686-0.22809-0.26611z" fill="#d59163"/>
  <path id="path4985" d="m95.803 40.899 3.1173 1.1024v12.963l-3.1553-1.0644 0.038015-13.001z" fill="url(#linearGradient4987)"/>
  <path id="path4989" d="m102.08 43.826 1.9768-2.1289-0.03802 11.139-1.9768 2.2809 0.03802-11.291z" fill="url(#linearGradient4991)"/>
  <path id="path4995" d="m120.97 72.235 0.83969-0.92808-0.53033-2.2097-0.44194 0.39775-0.35356-2.5191 0.22097-1.6794-0.44194-1.5468-0.35355 0.22097-0.30936-2.1655 0.35355-1.6794-0.30936-1.0165-0.44194-0.26516-0.39774-2.2539 0.04419-2.0771-0.35355-1.9887-0.30936 0.13258-0.53033-2.4749-0.0442-2.3865h2.3423l-0.22097 1.0165 1.1049 4.2426s0.26516 0.97227 0.26516 1.149c0 0.17678-0.17677 1.9445-0.17677 1.9445l0.7071 2.2539 0.30936 4.7288 0.57453 0.39775 0.26516 2.2981-0.08839 1.149 1.1932 4.8172-0.13259 0.39775-2.3865 1.9445-0.39775-1.9003z" fill-opacity=".15686"/>
  <path id="path4997" d="m93.858 36.465 0.0625 24.562 6.875 3.0625 0.125-24.562-7.0625-3.0625z" fill-opacity=".15686"/>
  <path id="path4999" d="m109.86 60.527-2.375 3.0625 6.9375 3.9375 1.625 5.25-1.5 5.6875 2.125-1.875 0.0625-1.25 1.5625-1 0.25 1.1875 1.9375-1.625-3.1875-9.6875-7.4375-3.6875z" fill-opacity=".15686"/>
  <path id="path5003" d="m53.17 29.652v24.312l7.125 2.375-0.25-23.938-6.875-2.75z" fill-opacity=".15686"/>
  <path id="path5005" d="m70.42 48.402-9.875 10.125v-1.4375l0.5-0.4375-0.75-0.5 4.1875-3.625v-3.6875l5.9375-0.4375z" fill-opacity=".15686"/>
  <path id="path5009" d="m42.483 58.465-0.125 6.375 12.312 4.6875-0.0625-6.3125-12.125-4.75z" fill-opacity=".15686"/>
  <path id="path5011" d="m42.483 64.902 12.25 4.625-0.0625 5.25-12.25-4.8125 0.0625-5.0625z" fill-opacity=".15686"/>
  <path id="path5013" d="m30.858 52.777 0.0625 16 6.4375 6.25-0.125 5 0.8125 0.4375-0.375-24.375-6.8125-3.3125z" fill-opacity=".15686"/>
  <path id="path5015" d="m54.17 78.902 9.5-11.188-3.25-1.25 0.125 1.75-5.875 6.4375-12.438-4.75 0.125 6.125-4.3125 4.375-0.75-0.25v2.0625l5.5-5.5 6.4375-2.6875 4.9375 4.875z" fill-opacity=".15686"/>
  <path id="path5017" d="m21.17 75.402 4.875-1.375 6 6 0.0625 4.25-1.125-0.3125 0.125-1.375-3.1875-1.6875-0.625 0.875-2.25-0.9375 0.0625-1.1875-3.4375-2.0625-0.5-2.1875z" fill-opacity=".15686"/>
  <path id="path5019" d="m56.17 86.277 0.1875 7.4375 1.5 0.0625 0.1875 1.125 3.0625-0.1875 0.75-1.375h4.125s0.125 1.375 0.375 1.375 2.6875-0.25 2.6875-0.25l0.5625-1.4375 2.4375-0.125 0.0625-1.875-15.938-4.75z" fill-opacity=".15686"/>
  <path id="path5021" d="m68.733 72.652 7.1875-1.8125 4.5 5.375 0.0625 5.375-11.688-3.5625-0.0625-5.375z" fill-opacity=".15686"/>
  <path id="path5025" d="m86.983 76.09-0.1875 7.0625 12.312 3.3125s0.9375-6.25 0.3125-6.4375c-0.625-0.1875-6.0625-6-6.0625-6l-6.375 2.0625z" fill-opacity=".15686"/>
  <path id="path5027" d="m80.853 87.19 10.274 2.5685-2.6297 3.4858-0.42809-1.2843-3.4247 0.12231-0.91733 1.3454-2.6297 0.24462-0.18346-1.2843-0.061155-5.1982z" fill-opacity=".15686"/>
  <path id="path5029" d="m56.391 85.906 3.9139-4.8924 14.861 4.9536-3.0578 4.8924-15.717-4.9536z" fill-opacity=".15686"/>
  <path id="path5031" d="m68.071 72.819 8.1336-7.889 6.6659-2.3851-7.2163 8.1948-7.2775 2.1404-0.30578-0.061156z" fill-opacity=".15686"/>
  <path id="path5033" d="m64.952 54.472-2.6297 5.1982 14.005 5.1982s7.2163-2.2627 6.6659-2.5074c-0.5504-0.24462-17.98-7.6444-18.041-7.889z" fill-opacity=".15686"/>
  <path id="path5035" d="m21.165 74.776 4.0362-4.5255 5.6874-1.7735-4.8313 5.5651-4.7701 1.4677-0.12231-0.73386z" fill-opacity=".15686"/>
  <path id="path5037" d="m30.95 52.821 5.3205-11.986 1.7123 15.35-2.6297-1.2843-4.4032-2.0793z" fill-opacity=".15686"/>
  <path id="path5039" d="m93.94 36.309 5.8097-11.864 1.0396 15.289-6.8494-3.4247z" fill-opacity=".15686"/>
  <path id="path5041" d="m58.103 18.085-5.2593 11.436 7.1552 3.1189-1.8958-14.555z" fill-opacity=".15686"/>
  <path id="path5043" d="m42.692 51.537c0.79502 0.36693 14.922 5.9932 14.922 5.9932l-3.0578 5.8097-12.17-4.9536v-6.7271l0.30578-0.12231z" fill-opacity=".15686"/>
  <path id="path5622" d="m20.052 78.293 3.7189 2.1622-0.043243 1.0811 3.1135 1.5568 0.086487-1.1676 2.8541 1.3405-0.043244 1.3838 2.6811 1.8162 0.12973-1.6432 3.0703 1.6-0.086487 1.1676 3.1135 1.6865 0.12973-1.1243 2.8541 1.427 0.086487 1.5135 2.9838 1.2108 0.043243-1.0811 2.8973 1.3838-0.043243 1.4703 3.5459 1.5135v-1.3405l2.1622 1.0378 0.043243 19.762-33.47-16.822 0.17297-19.935z" fill-opacity=".15686"/>
  <path id="path5624" d="m115.62 85.774 1.6-1.3405 0.04324 12.065-1.4703-0.43243-0.17297-10.292z" fill-opacity=".15686"/>
  <path id="path5626" d="m15.468 52.044 0.60541 2.8973-0.086487 1.8595 0.43243 3.027 0.3027-0.12973 0.38919 1.8162 0.043244 2.0757 0.38919 2.3784 0.25946-0.086486 0.43243 1.3838-0.34595 1.7297 0.17297 2.1189 0.34595-0.25946 0.56216 1.773-0.25946 1.5568 0.38919 2.2919 0.43243-0.38919 0.43243 2.5081-0.043243 19.33-4.4541-25.989v-19.892z" fill-opacity=".15686"/>
  <path id="path5630" d="m74.108 49.34-0.0625 5.0625 15.125 5.9375v-5.25l-15.062-5.75z" fill-opacity=".15686"/>
  <path id="path5632" d="m73.92 42.777 0.125 6.5 15.188 5.875v-6.4375l-15.312-5.9375z" fill-opacity=".15686"/>
  <path id="path5007" d="m52.92 49.527-9.125 0.5-1.25 1.25 2.8125-0.4375 7.8125 2.8125-0.25-4.125z" fill-opacity=".15686"/>
  <path id="path5001" d="m73.983 49.84-4.5 5.25 23 9.5-0.0625 6.1875 6.0625-5.5625 2.4375-0.5 0.125-0.8125-7.125-2.875 0.0625-7.125-4.625 6.4375-15.312-6-0.0625-4.5z" fill-opacity=".15686"/>
  <path id="path5628" d="m73.881 42.608 3.3024-5.6874 15.228 5.9932-3.1189 5.9932-15.411-6.299z" fill-opacity=".15686"/>
  <path id="path2673" d="m96.203 112.5-0.25946-19.849 2.9838-2.2486-0.043244 1.9892 2.6811-2.2486-0.04324-1.5568 2.4649-1.6865 0.25946 1.6432 2.6378-2.3351-0.04324-1.427 2.2486-1.8162 0.21621 0.99459 2.5514-1.6432-0.12973-1.3405 2.2054-1.4703 0.21622 1.6 2.854-2.1622-0.17297-1.5568 1.9027-1.4703 0.3027 1.5135 2.5946-2.1189-0.17298-1.427 2.1189-1.6 0.12973 19.157-6.4 5.1892-0.12973-12.151-10.768 8.7784-0.08649 11.892-10.119 7.3514z" fill="url(#linearGradient2675)"/>
  <path id="path2723" d="m91.011 92.917 0.61872-1.4584 3.9775-0.22097 2.9168-2.1213 0.48614 0.88388 2.1655-1.812-0.17678-1.0165 2.961-2.2539 0.17678 1.1049 2.4749-1.7678-0.08838-1.2816 2.5633-1.9445 0.13258 1.1932 2.3865-1.812v-1.1932l2.0329-1.5468 0.08839 1.1049 2.7842-2.1213 0.26516-1.3258 1.6794-1.0165 0.17678 1.0607 2.4749-1.812 0.48614 1.6794-2.4307 2.2539-0.57453-1.6794-1.7236 1.4142 0.0442 1.6794-2.6075 2.1213-0.39775-1.591-2.2539 1.5026v1.37l-2.4307 1.7236-0.04419-1.1049-2.4307 1.812 0.04419 1.4584-2.6074 2.2981-0.30936-1.5026-2.4307 1.7236 0.17677 1.5468-2.74 2.0771v-1.812l-3.0936 2.1213-4.773 0.48614v-0.22097z" fill="url(#linearGradient2725)"/>
  <path id="path4993" d="m85.514 29.09-0.125 9.3438 8.4375 3.0312-0.03125-4.9375 0.625-1.4062 0.09375-1.5938-2.8438-1.4062v1.25l-3.2188-1.75-0.0625-0.9375-2.875-1.5938zm19.844 10.375-0.15625 18.75 11.969 6.0312 0.125-19-1.4688-0.625 0.0625 1.1875-3.6562-1.4688 0.15625-1.5-2.9688-1.375v1.125l-2.8438-1.3125-0.09375-1.4375-1.125-0.375z" fill-opacity=".15686"/>
  <path id="path5785" d="m117.05 64.109 0.17298-18.551 0.51892 2.2054-0.12973 2.1622 0.51891 2.7676 0.38919-0.25946 0.30271 1.9459 0.04324 2.0757 0.25946 2.3784h0.47567l0.34595 1.2973-0.25946 1.427 0.08649 2.5081 0.34594-0.17297 0.47568 1.5568-0.17297 1.5135 0.38919 2.5514 0.43243-0.56216 0.56216 2.4216-0.73513 0.77838 0.12972 1.427-0.73513 0.38919-3.4162-9.8595z" fill-opacity=".15686"/>
 </g>
 <g id="layer1">
  <path id="path2308" d="m58.295 17.215-5.625 12.188 0.0625 0.5-2.2188 0.1875-0.3125 1.2188-2.3125 0.15625-0.65625-1.375-3.9688 0.09375-3.1562 1.0625 0.40625 1.5-1.8125 1.5625-0.34375-1.1875-1.9688 1.4062 0.125 1.0938-2.0625 1.9375-0.5625-1.0312-2.4062 1.9688 0.03125 1.2812-1.9375 1.6875-0.28125-1.1875-2.8125 2.1875 0.125 1.3125-1.8438 1.5938-0.5-0.96875-3.0312 2.4062 0.15625 1.0312-1.625 1.6562-0.65625-0.75-3.7812 2.9688-0.03125 20.125 4.3125 26.594 33.594 17.031 43.25-2.6875 10-7.625 0.09375-1.3438 2.7188-2.2188 3.4688-2.7812 3.1875-2.5625 1.3438 0.53125 0.0625 0.03125h0.03125l6.5312-4.9688 0.09375-20.125-0.6875-2.75-0.125-0.5625-0.3125-1.3438 0.125-1.375-0.375-2.3125-0.34375-0.21875-0.25-1.6875-0.09375-1.5938-0.09375-1.4375-0.6875-2.5625 0.1875-1.375-0.46875-2.4688-0.84375-3.125 0.15625-1.1875-0.5625-3.1562-3.2188-1.8438-1.0938 1.3125-1.4688-0.96875 0.15625-1.4062-3.3438-1.7188-1.25 0.90625-1.4062-0.46875 0.125-1.4375-2.5312-1.4375 0.0625-2.8125-5.8125-10.594-4.375 8.5-2.8438-1.5-0.78125 0.71875-1.9062-0.78125 0.09375-1.1875-3.9062-2.625-5.4375 0.65625-0.125 1.2188-2.8125 0.25-0.75-1.375-4.4688 0.59375-0.125 1.2812-2.5 0.28125-0.59375-1.4062-4.2812 0.375-0.1875 1.4688h-0.09375l-0.25-2.9688-6.1875-10.375zm0.125 0.6875 5.4688 10.125-3.4688 3.9062-2-14.031zm-0.34375 0.6875 1.375 13.594-6.1875-2.7812 4.8125-10.812zm1.4062 2-0.1875 0.09375 1.0938 1.8125-0.46875 0.375 0.09375 0.09375 0.4375-0.34375 0.46875 0.78125-0.03125-0.125-0.375-0.6875 0.21875-0.15625-0.0625-0.15625-0.21875 0.15625-0.96875-1.8438zm-1.625 0.4375-1.4062 3.6562-0.375-0.125v0.09375l0.34375 0.125 0.15625 0.0625 1.4688 0.5625-0.03125-0.15625-1.4062-0.5 1.4062-3.6562-0.15625-0.0625zm1.7188 3.375 0.78125 5.375-0.125 0.15625 0.125 0.03125 1.5312-1.6562 0.125 0.25 0.09375-0.0625-0.125-0.28125 0.625-0.6875-0.1875-0.09375-0.53125 0.59375-0.59375-1.2188c0.2043-0.22209 0.375-0.4375 0.375-0.4375l-0.0625-0.0625s-0.20784 0.20123-0.375 0.375l-0.25-0.53125-0.0625 0.09375 0.25 0.53125c-0.3031 0.31312-0.66607 0.66256-0.96875 0.9375l-0.5-3.3125h-0.125zm40.375 0.5625 5.0313 9.8125-3.7188 4.0312-1.3125-13.844zm-0.375 0.125 1 14.188-6.1875-2.9062 5.1875-11.281zm-44.156 0.21875-0.9375 2.1875 1.125 0.4375 0.03125-0.09375-0.96875-0.34375 0.90625-2.0312-0.15625-0.15625zm2.5 0.59375 0.1875 4.25-2.9062-1.2188 0.375-0.875-0.125-0.125-0.4375 0.90625-1.125-0.46875v0.09375l1.0938 0.46875-0.46875 0.9375 0.1875 0.125 0.4375-1 2.9688 1.2812 0.03125 0.6875 0.125-0.03125-0.03125-0.59375 0.3125 0.125v-0.125l-0.3125-0.125-0.1875-4.3125h-0.125zm3.3125 0.96875 0.59375 1.25-1.3438 1.5312-0.25-1.8125c0.32066-0.28503 0.70879-0.65531 1-0.96875zm37.75 0.0625-4.125 9.3438 4.25 1.9688 0.09375-0.15625-1.0312-0.46875 0.9375-3.25 0.71875 0.25 0.03125-0.125-0.6875-0.28125 0.25-0.875-0.21875 0.03125-0.21875 0.78125-1.5312-0.59375 1.25-3.0938-0.125-0.0625-1.2812 3.0938-0.9375-0.34375 2.6875-6.1562-0.0625-0.0625zm-13.031 0.5625 3.7188 2.4375-1.0625 0.5625-3.1875-1.7812-3.5625 0.28125-0.65625-0.90625 4.75-0.59375zm14.844 0.875-0.09375 0.03125c0.01606 0.17828 0.01581 0.35365 0.03125 0.53125l-0.15625 0.09375 0.0625 0.125 0.125-0.0625c0.19093 2.2164 0.31549 4.3988 0.53125 6.625l0.21875-0.03125c-0.09696-1.0749-0.2257-2.1659-0.34375-3.25l0.09375 0.03125 1.4062-0.875 1.125 2.3125-2.4062 2.25 0.15625 0.0625 2.3125-2.1875 0.3125 0.65625 0.1875-0.03125-0.375-0.71875 0.15625-0.15625-0.125-0.0625-0.09375 0.09375-1.2188-2.25 0.34375-0.21875-0.125-0.125-1.75 1.1562c-0.12138-1.1149-0.21505-2.2344-0.3125-3.3438l0.84375-0.4375-0.03125-0.125-0.8125 0.4375c-0.01524-0.17658-0.04859-0.35505-0.0625-0.53125zm-24.25 0.03125 0.625 1.0312-3.4375 0.3125-0.65625-0.84375 3.4688-0.5zm4.5625 0.125 0.46875 0.75-0.125 0.6875-0.46875-0.625 0.125-0.8125zm-16.938 0.09375-0.125 23.906-3.625 3.2188-0.0625-22.812 3.8125-4.3125zm4.7812 0.4375 0.59375 1.2812-3.1875 0.09375-0.875-1.0938 3.4688-0.28125zm3.8438 0.09375 0.625 0.78125-0.03125 1.1562-0.6875-0.875 0.09375-1.0625zm12.5 0-0.125 8.9688-5.0625-1.9062-3.1562 0.4375-3.3125 6.2188 0.1875 5.2812-9.1875 0.53125 0.0625-16.406 1.5-0.09375 0.21875-1.4062 3.0312-0.21875-0.03125 1.5312 4.4688-0.21875-0.03125-1.5938 3.3438-0.25-0.125 1.1875 4.9688-0.3125 0.15625-1.5 3.0938-0.25zm-4.5625 0.3125 0.65625 1-3.5312 0.21875-0.0625-1.125 2.9375-0.09375zm4.9375 0 2.5938 1.4375-0.0625 1.0312 3.5625 1.7812 0.0625-1.2188 2.5312 1.2188-0.125 1.25-0.75 1.5 0.125 4.8125-7.9375-2.9688v-8.8438zm-20.312 0.15625 0.4375 0.8125-0.03125 0.84375-0.5625-0.71875 0.15625-0.9375zm-11.938 0.4375 6.1875 2.75 0.3125 23.25-6.4375-2.375-0.0625-23.625zm-0.6875 0.15625v1.0938l-0.90625 0.0625-0.84375-1.0312 1.75-0.125zm37 0.09375-0.0625 0.59375-0.78125 0.4375-0.0625-0.5625 0.90625-0.46875zm-19.812 0.09375h2.625l0.75 1.0312-3.3125 0.21875-0.0625-1.25zm-26.562 0.0625h3.3438l0.5625 1.2188-3.4688-0.21875-0.3125 0.15625-0.125 0.03125v0.03125l-2.0312 1-0.75-1.3125 2.7812-0.90625zm7.4062 0.0625 0.65625 0.9375-0.21875 1.1562-0.71875-1.0625 0.28125-1.0312zm13.969 0.25h0.25l0.59375 0.90625-0.875 0.09375 0.03125-1zm25.062 0.46875 1.6875 0.875v0.96875l-2.5625-1.3125 0.875-0.53125zm2.8438 0.125 2.7188 1.4375-0.09375 0.15625-0.78125 0.40625-2.5312-1.1875 0.6875-0.8125zm-42.469 0.25 0.875 1.375h-3.0938v-1.125l2.2188-0.25zm2.5625 0.0625 0.09375 17.625-8.9688 0.53125-0.0625-18.031 0.09375-0.0625 3.5625 0.1875-0.21875 1.5312 4.4375-0.0625 0.1875-1.6562 0.875-0.0625zm-9.375 0.34375 0.0625 18.094-0.84375 0.8125-6-10.5-0.4375 0.125-5.5625 12.344 0.15625 9.5938-9.5938 9.375-0.21875-1.4062-0.34375-0.25-0.25-1.6875-0.09375-1.5938-0.09375-1.4375-0.6875-2.5625 0.1875-1.375-0.46875-2.4688-0.84375-3.125 0.15625-1.1875-0.40625-2.6875 1.0312-1.0312 0.125 1.5312 3.125-2.6875-0.0625-1.5312 1.9062-1.4375 0.28125 1.6562 2.875-2.8125-0.03125-1.5312 1.9688-1.5312 0.0625 1.1875 2.75-2.125-0.15625-1.3438 1.9375-1.5312 0.34375 1.8438 2.9688-2.625-0.1875-1.5938 1.5625-1.3438 0.375 1.7812 2.7812-2.5938-0.25-1.2812 1.875-1.0625zm-2.4375 0.75 0.3125 1.4375-2.125 2-0.3125-1.6562 2.125-1.7812zm55.375 0.5 0.9375 0.375-0.34375 0.8125 0.1875 0.0625 0.3125-0.8125 1.5625 0.59375-0.90625 3.25-3.0312-1.3438 1.2812-2.9375zm-1.3125 0.21875-0.34375 0.75v-0.6875l0.34375-0.0625zm-56.812 0.15625 0.21875 1.25-1.4062 1.2188-0.0625-1.5938 1.25-0.875zm16.469 0.5v3.5938l3.25 1.3438v-3.5938l-3.25-1.3438zm0.15625 0.21875 2.9375 1.25-0.03125 3.25-2.9375-1.25 0.03125-3.25zm0.0625 0.09375v3.1562l2.8125 1.1562v-3.125l-2.8125-1.1875zm0.125 0.1875 2.5938 1.0938-0.0625 2.8438-2.5312-1.0938v-2.8438zm8.25 0.90625-2.125 2.4062v3.5938l2.125-2.4062v-3.5938zm41.844 0.125-0.1875 23.844-3.875 4.0938 0.0625-23.656 4-4.2812zm-41.938 0.1875-0.03125 3.2812-1.9062 2.1562v-3.3125l1.875-2.0312 0.0625-0.09375zm-0.0625 0.09375-1.8125 2.0625v3.1562l1.8125-2.0938v-3.125zm-26.531 0.03125 0.28125 2.0938-2.2812 1.8438-0.46875-1.5 0.25-0.40625 2.2188-2.0312zm26.469 0.1875-0.03125 2.9062-1.6562 1.8438v-2.8438l1.6875-1.9062zm17.062 0.46875 10.562 3.875 2.9688 1.0625v0.875l-1.125 0.25c-4.6881-1.7462-9.8171-3.6757-14.656-5.7812l2.25-0.28125zm10.562 3.875-0.53125 0.25-1.0312-0.40625v0.0625l0.9375 0.40625-0.5625 0.25 0.09375 0.09375 0.59375-0.28125 2.7188 1.125 0.09375-0.09375-2.7188-1.0938 0.46875-0.21875-0.0625-0.09375zm3.5-3.8125 6.375 3.1562 0.0625 23.656-1.5625-0.6875-0.0625-3.1875-3.25-1.2812 0.0625 3.0625-1.5625-0.65625-0.0625-24.062zm-14.688 0.15625-0.09375 0.125 4.9375 2.0312-0.59375 0.21875 0.125 0.0625 0.625-0.21875 3.5312 1.4688 0.125-0.09375-3.4688-1.4375 0.8125-0.28125-0.0625-0.09375-0.90625 0.3125-5.0312-2.0938zm-2.0938 0.15625c4.9131 1.9492 9.6312 4.3057 14.656 5.9375l-2.7812 5.5312-14.969-5.875 3.0938-5.5938zm-43.812 0.21875 0.25 1.4062-1.75 1.375-0.125-0.40625-0.03125-1 1.6562-1.375zm72.031 0.53125 2.125 1.3125-1.0938 0.625-1.0625-0.5 0.03125-1.4375zm-27.344 0.4375-0.65625 1.25-0.34375-0.15625-0.0625 0.0625 0.34375 0.15625-1.3438 2.5-0.5-0.21875-0.03125 0.125 0.46875 0.1875-0.21875 0.4375 0.03125 0.09375 0.28125-0.5 9.4375 4 0.09375-0.125-9.4688-3.9688 1.375-2.4688 1.6875 0.78125-0.53125 1.0625 0.125 0.09375 0.53125-1.0938 1.125 0.53125 0.03125-0.125-1.0938-0.5 0.5-1.0312 7.0625 3.0625-1.5312 2.7188 2.2812 0.78125-0.59375 1.0938 0.09375 0.03125 0.625-1.0938 1.125 0.375 0.125-0.09375-1.1875-0.40625 0.875-1.5938-0.09375-0.09375-0.90625 1.6562-2.125-0.71875 1.375-2.5938 1.125 0.46875 0.03125-0.09375-1.0938-0.46875 0.3125-0.59375-0.0625-0.0625-0.34375 0.59375-7.0625-3.0625 0.15625-0.28125-0.09375-0.0625-0.15625 0.3125-0.40625-0.1875-0.0625 0.09375 0.40625 0.1875-0.5 1-1.7188-0.78125 0.6875-1.2188-0.125-0.0625zm25.281 0.3125c-0.15567 0.011229-0.32944 0.12078-0.53125 0.21875-0.77446 0.66899-0.93104 1.4908-1.0938 2.4375 0.21008 1.2181 0.64293 0.96229 1.0938 0.71875 0.74625-0.65305 0.90046-1.4885 1.0625-2.4062-0.07786-0.77153-0.27179-0.98746-0.53125-0.96875zm-0.1875 0.34375c0.25966 0.061527 0.33282 0.6262 0.34375 0.90625-0.08134 0.67492-0.28072 1.2842-0.6875 1.7188-0.81063 0.71616-0.7325-0.17402-0.6875-0.65625-0.05091-0.72227 0.35548-1.3679 0.71875-1.8125 0.13475-0.12283 0.22595-0.17676 0.3125-0.15625zm2.2188 0.71875 0.71875 0.375v1.4375l3.2812 1.5 0.03125-1.1875 2.625 1.25-0.125 1.5 4 1.7188v-1.25l0.90625 0.375-0.0625 18.719-11.469-6 0.09375-18.438zm2.125 0-0.0625 0.6875-0.90625 0.5v-0.75l0.03125 0.03125 0.9375-0.46875zm-76 0.46875-0.0625 1.6875-1.9062 1.4062-0.1875-1.25 2.1562-1.8438zm79.094 0.21875 2.8125 1.4688-1 1-3.0312-1.4062 1.2188-1.0625zm-3.0312 0.375 1.5938 0.78125-0.03125 0.75-2.5938-1.0625 1.0312-0.46875zm-12 0.15625v13.125l3.25 1.1875v-13.156l-3.25-1.1562zm-66.688 0.09375 0.21875 1.25-2 1.8438-0.21875-0.6875 0.03125-0.8125 1.9688-1.5938zm66.844 0.125 2.9375 1.0625-0.03125 12.812-2.9375-1.0938 0.03125-12.781zm0.0625 0.0625v12.719l2.8125 1v-12.656l-2.8125-1.0625zm-59.75 0.15625 1.5938 14.594-6.5938-3.3438 5-11.25zm18.438 0v3.5938l3.25 1.3438v-3.5938l-3.25-1.3438zm-18.125 0.03125 5.9375 10.125-4.2812 4.4375-1.6562-14.562zm59.562 0 2.5938 0.96875-0.0625 12.375-2.5312-0.9375v-12.406zm8.0313 0.15625-2.125 2.4062v11.312l2.125-2.4062v-11.312zm-49.313 0.03125 2.9375 1.25-0.03125 3.25-2.9375-1.25 0.03125-3.25zm0.0625 0.09375v3.1562l2.8125 1.1562v-3.125l-2.8125-1.1875zm0.125 0.1875 2.5938 1.0938-0.0625 2.8438-2.5312-1.0938v-2.8438zm49.031 0-0.03125 10.938v0.0625l-1.9062 2.1562 0.03125-11.031 1.9062-2.125zm-0.03125 10.938v-10.844l-1.8438 2.0625v10.875l1.8438-2.0938zm-0.0625-10.656-0.03125 10.656-1.6562 1.8438v-10.594l1.6875-1.9062zm9.625 0.25-0.1875 0.84375-0.6875 0.90625 0.0625-1.0312 0.8125-0.71875zm-19.938 0.4375v1.625c-0.19471-0.31964-0.50502-0.17962-0.875 0-0.77446 0.66899-0.93104 1.522-1.0938 2.4688 0.21008 1.2181 0.64293 0.93104 1.0938 0.6875 0.51433-0.4501 0.75799-0.97386 0.90625-1.5625v3.0625l-4.25 5.6562v-5.5l0.0625 0.03125 2.9375-5.9688 1.2188-0.5zm22.813 0.375 2.8125 1.6562 0.46875 2.6562-1.9062 0.28125-0.28125-2.4062-1.8125-0.90625 0.71875-1.2812zm-42.156 0.03125 14.625 5.8438 0.03125 6.0312-14.812-6.0312 0.15625-5.8438zm39.531 0.25 1.75 1.0938 0.03125 1.0625-2.75-1.125 0.96875-1.0312zm-76.25 0.53125 1.8125 4.75-1.4688 0.96875v0.125l1.5-1 0.53125 1.3438-0.96875 0.8125 0.0625 0.03125 0.9375-0.75 0.5625 1.4688-1.6875 1.5938v0.09375l1.75-1.5625 0.21875 0.59375 0.125-0.03125-0.25-0.65625 1.0625-0.96875-0.125-0.09375-1 0.9375-0.53125-1.4375 0.375-0.3125-0.09375-0.09375-0.34375 0.28125-0.5-1.3125 0.25-0.1875-0.03125-0.0625-0.25 0.15625-1.8125-4.6875h-0.125zm-10.719 0.0625 0.09375 1.75-2.125 2-0.125-1.4688 0.125-0.125-0.03125-0.375 2.0625-1.7812zm9.5938 0.1875-0.125 0.09375-0.03125 3.0938 0.15625 0.0625v-3.25zm26.938 0.15625-2.125 2.4062v3.5938l2.125-2.4062v-3.5938zm29.719 0.15625c0.25966 0.061528 0.33282 0.65745 0.34375 0.9375-0.081336 0.67492-0.28072 1.253-0.6875 1.6875-0.81063 0.71617-0.7325-0.14277-0.6875-0.625-0.050906-0.72228 0.35548-1.3991 0.71875-1.8438 0.13474-0.12283 0.22595-0.17676 0.3125-0.15625zm-29.812 0.15625-0.03125 3.2812-1.9062 2.1562v-3.3125l1.875-2.0312 0.0625-0.09375zm-0.0625 0.09375-1.8125 2.0625v3.1562l1.8125-2.0938v-3.125zm12.031-0.03125v3.5938l3.25 1.3438v-3.5938l-3.25-1.3438zm-51.094 0.1875 0.21875 1.25-2.4375 1.9688-0.21875-0.8125 0.03125-0.4375 2.4062-1.9688zm51.25 0.03125 2.9375 1.25-0.03125 3.25-2.9375-1.25 0.03125-3.25zm-12.25 0.03125-0.03125 2.9062-1.6562 1.8438v-2.8438l1.6875-1.9062zm12.312 0.0625v3.1562l2.8125 1.1562v-3.125l-2.8125-1.1875zm0.125 0.1875 2.5938 1.0938-0.0625 2.8438-2.5312-1.0938v-2.8438zm-39.719 0.34375-1.5 3.9062 0.15625-0.03125 1.4375-3.875h-0.09375zm81.5 1.4062 0.125 0.84375v2.5l0.59375 2.7812 0.25-0.25 0.21875 1.8125 0.0625 1.7812 0.0625 0.40625 0.40625 2.2188 0.28125 0.03125 0.1875 0.96875-0.125 1.75 0.28125 2.4688 0.3125-0.3125 0.375 1.5-0.15625 1.4375v0.03125l0.4375 3.125 0.3125-0.59375 0.40625 1.5 0.125 0.5625-0.875 0.6875 0.21875 1.375-0.28125 0.21875-3.125-9.4688-0.03125-0.03125-0.0625-17.344zm-83.094 0.34375-1 2.3438-0.34375-0.125v0.125l0.3125 0.125-0.625 1.5-0.28125-0.125-0.03125 0.09375 0.25 0.125-0.3125 0.78125 0.09375 0.15625 0.375-0.875 3.875 1.9062 0.0625 0.75 0.21875 0.0625-0.0625-0.6875 0.46875 0.21875 0.0625-0.09375-0.53125-0.25-0.1875-2.1875h0.03125l0.0625-0.15625-0.09375-0.03125-0.0625-0.625-0.21875 0.0625 0.03125 0.46875-2.9375-1.1562 0.96875-2.3438-0.125-0.0625zm85.313 0.53125-0.0625 0.9375 0.09375 0.53125-1.75 0.375-0.0625-1.5938 1.7812-0.25zm-98.063 0.25 0.3125 1.6875-2.1875 1.9375v-1.5312l1.875-2.0938zm62.531 0.28125v3.5938l3.25 1.3438v-3.5938l-3.25-1.3438zm-10.188 0.125v0.875 0.3125l-4.375 5.1562-1.5625-0.625-2.8125-0.03125 5.4375-5.5 3.3125-0.1875zm10.344 0.09375 2.9375 1.25-0.03125 3.25-2.9375-1.25 0.03125-3.25zm0.0625 0.09375v3.1562l2.8125 1.1562v-3.125l-2.8125-1.1875zm-29.812 0.03125v3.5938l3.25 1.3438v-3.5938l-3.25-1.3438zm15.656 0-9.4688 9.4688-0.03125-1.0625 1.375-0.28125-1.2812-0.46875 3.9062-3.6562 0.03125-3.6875 5.4688-0.3125zm14.281 0.15625 2.5938 1.0938-0.0625 2.8438-2.5312-1.0938v-2.8438zm-29.781 0.0625 2.9375 1.25-0.03125 3.25-2.9375-1.25 0.03125-3.25zm0.0625 0.09375v3.1562l2.8125 1.1562v-3.125l-2.8125-1.1875zm0.125 0.1875 2.5938 1.0938-0.0625 2.8438-2.5312-1.0938v-2.8438zm-35.844 0.25 0.1875 1.0625-1.5625 1.3125 0.03125 0.1875 0.25 2.4688-1.75 0.28125-0.46875-2.875 3.3125-2.4375zm55.312 0.0625 14.656 5.8438 0.03125 4.7812-6.5938-2.6562v-3.3438l-3.25-1.0938v3.1562l-4.875-1.9688 0.03125-4.7188zm19.375 0 0.03125 4.5-4.2812 5.8438v-4.4375l4.25-5.9062zm26.031 0.15625 0.71875 2.2188-2.1562 0.40625-0.34375-2.0625v-0.28125l1.7812-0.28125zm-66.844 0.0625 0.03125 3.7188-7.375-2.7188-2.4688 0.3125 0.78125-0.75 9.0312-0.5625zm-19.469 0.09375 3.0312 1.2188 0.1875 2.1562-3.8438-1.875 0.625-1.5zm40.5 0.375v4.2812l5.25 2.0938v0.0625l1.0938 0.375 9.125 3.625 4.3438-6.0312 0.03125 6.5312 6.9688 3.0938-2.375 0.8125-5.6562 5.25-0.03125-5.1875 0.59375-0.53125-23.406-9.625 4.0625-4.75zm-28.312 0.96875 14.969 5.5938-3.0938 0.5c-4.613-1.7745-9.4422-3.7682-14.094-5.7188l2.2188-0.375zm-0.1875 0.1875-0.15625 0.125 3.0625 1.2188-0.9375 0.28125 0.09375 0.09375 1.0312-0.28125 7.6562 3.0625-0.53125 0.0625 0.09375 0.0625 0.59375-0.0625 1.4062 0.5625 0.03125-0.15625-1.0938-0.4375 0.875-0.09375-0.0625-0.09375-0.96875 0.125-7.75-3.125 0.21875-0.0625-0.03125-0.09375-0.34375 0.09375-3.1875-1.2812zm-2.7188 0.46875c4.827 1.9017 9.5581 4.0137 14.469 5.6875l-2.5625 5.5v0.03125l-11.938-5.0312 0.03125-6.1875zm-0.375 0.4375-0.1875 23.75-0.71875 0.8125v-3.125l-2.125 2.4062v3.0938l-0.84375 0.9375-0.375-23.594 4.25-4.2812zm78.094 0.0625 0.4375 1.6875-1.8125 0.34375-0.34375-1.7812 1.7188-0.25zm-89.219 0.8125 6.3125 3.1562 0.375 23.844-0.34375-0.15625-0.03125-4.7188 0.25-0.25-6.4688-6.2812-0.09375-15.594zm12.094 0 0.03125 0.0625 1.5312 0.65625-0.53125 2.625-1-0.40625-0.03125 0.125 1 0.375-0.21875 1.0625 0.0625 0.03125 0.21875-1.0625 1.5625 0.625-0.28125 0.9375 0.09375 0.09375 0.3125-0.96875 0.5625 0.21875 0.09375-0.0625-0.625-0.25 0.8125-2.4688 6.625 2.8125-0.96875 2.0625c-0.89019-0.38436-1.8043-0.7406-2.7188-1.0625v0.125c0.86655 0.30356 1.7687 0.66406 2.6562 1.0312l-0.53125 1.1562 0.09375 0.03125 0.53125-1.1562c0.51349 0.21343 0.99972 0.43294 1.5 0.65625l-0.625 1.3438 0.125 0.03125 0.59375-1.3125c0.3413 0.15303 0.70219 0.28327 1.0312 0.4375l0.0625-0.0625c-0.35604-0.15579-0.70731-0.31076-1.0625-0.46875l0.96875-2.0625 1 0.40625 0.0625-0.125-1-0.40625 0.09375-0.21875-0.09375-0.09375-0.125 0.25-1.4688-0.625 0.34375-0.71875-0.09375-0.03125-0.34375 0.71875-6.625-2.7812 0.15625-0.53125-0.125-0.09375-0.1875 0.5625-1.8125-0.78125 0.09375-0.46875-0.09375-0.0625-0.09375 0.5-1.5625-0.65625zm-27.656 0.125 0.28125 1.9688 0.03125 1.5 0.5 3.4062 0.25-0.25 0.21875 1.8125 0.0625 1.7812 0.0625 0.40625 0.40625 2.2188 0.28125 0.03125 0.1875 0.96875-0.125 1.75 0.28125 2.4688 0.3125-0.3125 0.375 1.5-0.15625 1.4375v0.03125l0.4375 3.125 0.3125-0.59375 0.40625 2 0.09375 18.594-4.0625-25.219-0.1875-16.188 0.03125-2.4375zm63.688 0 2.9375 1.0312-0.03125 3.125h-0.03125v-3.0938l-2.8125-0.96875v2.9062l-0.09375-0.03125 0.03125-2.9688zm0.1875 0.25 2.5938 0.90625-0.0625 2.8438-1.8125-0.65625-0.71875-0.28125v-2.8125zm-34.594 0.375 1.8438 0.78125-0.8125 2.4688-1.5625-0.625 0.53125-2.625zm75.844 0.40625-0.0625 1.8438-1.5938 0.375-0.0625-1.9062 1.7188-0.3125zm-55.906 0.21875-2.7188 5.375 0.21875 0.09375v5.4688l6.4688 2.5625-8.5625 9.9688 37.469 11.5-2.1875 1.625-3.9688 0.25-0.65625 1.4688-1.875 0.125 2.4375-3.25-10.406-2.5312v-0.9375l-9.625-3.5625-5.9375-2.1875-5.2812 0.03125-4.1562 5.375 0.0625 7.7188-1.875 0.03125-2.5625-1.2188-1.0938 1.3125-0.875-0.5625 6.125-5.6875 0.03125-6.625 0.375-0.34375-1.7188-1.7188 9.375-11.094-3.25-1.375-0.125-3.0312 0.3125-0.3125-0.125-4.3125 4.125-4.1562zm0.84375 0.0625 2.0312 0.15625 20.156 8.2812h0.03125l3.0312 1.25-7.375-2.125-17.875-7.5625zm22.188 8.4375-2.4062-0.625-15.312-6.3125 0.40625 0.0625 0.0625-0.09375-0.78125-0.09375-2.25-0.9375-0.09375 0.03125 2.0938 0.875-0.6875-0.09375 0.09375 0.0625 0.875 0.15625 15.031 6.1875-2.3438-0.59375 0.09375 0.09375 5.125 1.3438 0.09375-0.0625zm-69.938-8.125-0.0625 0.9375 0.09375 0.53125-1.75 0.375-0.0625-1.5938 1.7812-0.25zm47.062 0 17.625 7.5312-6.2812 2.1875-13.625-5.0312 2.2812-4.6875zm1.1562 1.125-0.21875 0.46875-0.71875-0.3125-0.125 0.0625 0.8125 0.34375-1.4062 3.1562 0.09375 0.03125 1.4688-3.0938 4.75 2.0625-0.65625 1.4062-3.25-1.375-0.125 0.09375 3.3125 1.4062-0.59375 1.25 0.09375 0.125 0.65625-1.3125 5.7188 2.375-0.5 1.0312 0.125-0.03125 0.46875-0.9375 0.625 0.25-0.03125-0.125-0.53125-0.21875 0.65625-1.3438 1.1875 0.53125-0.03125-0.15625-1.0938-0.46875 0.4375-0.90625-0.09375-0.03125-0.4375 0.875-5.7188-2.4688 0.3125-0.625-0.1875-0.0625-0.28125 0.625-4.75-2.0938 0.21875-0.46875-0.1875-0.0625zm54.625 0.53125 0.34375 1.625-1.5625 0.34375-0.125 0.28125-0.3125-2.0312 1.6562-0.21875zm-86.313 0.09375c-0.14243 0.004667-0.2865 0.008192-0.40625 0.03125-0.83828 0.1614-1.169 0.74936-1.7188 1.4062-0.21298 0.97242-0.16666 1.6475-0.25 2.4688l3.9375 1.1562c0.082187-1.18-0.008447-2.3162-0.25-3.4688-0.26029-0.90474-0.76826-1.288-1.3125-1.5938zm-16.438 0.09375 0.71875 2.2188-2.1562 0.40625-0.34375-2.0625v-0.28125l1.7812-0.28125zm16 0.09375c0.10031-0.009964 0.20438-0.001267 0.3125 0.03125 0.28977-0.13371 1.1516 0.66077 1.25 1.4062 0.056755 0.42982 0.31802 2.5351 0.34375 3.25l-3.5625-1.0625c0.039834-0.60943 0.089045-2.1247 0.1875-2.25 0.25452-0.32386 0.76656-1.3053 1.4688-1.375zm0.0625 0.09375c-0.69295 0.13342-0.95181 0.64449-1.4062 1.1875-0.17606 0.80384-0.11861 1.6024-0.1875 2.2812l3.25 0.96875c0.067938-0.97545-0.019073-2.2035-0.21875-3.1562-0.21516-0.7479-0.67511-1.0285-1.125-1.2812-0.11774 0.003858-0.21351-0.01906-0.3125 0zm0 0.15625c0.082922-0.008237 0.16063 0.00437 0.25 0.03125 0.23954-0.11053 0.94988 0.54001 1.0312 1.1562 0.046916 0.3553 0.25998 2.3465 0.28125 2.9375l-2.9688-0.90625c0.032929-0.50378 0.074864-1.9589 0.15625-2.0625 0.2104-0.26771 0.66954-1.0986 1.25-1.1562zm26.219 0.0625 0.25 5.8125-5.5625 5.9688-0.0625-5.4062 2.8438-5.7812 2.5312-0.59375zm-11.906 0.125-0.625 1.6562 0.15625 0.0625 0.625-1.6875-0.15625-0.03125zm5.1562 0.34375 1.4688 0.625-0.9375 2.0938c-0.50076-0.22277-0.99726-0.43857-1.5-0.65625l0.96875-2.0625zm5.1562 0.5625c-0.15567 0.011229-0.32944 0.089526-0.53125 0.1875-0.77446 0.66899-0.93104 1.522-1.0938 2.4688 0.21008 1.2181 0.64293 0.93104 1.0938 0.6875 0.74625-0.65305 0.90046-1.4573 1.0625-2.375-0.077862-0.77152-0.2718-0.98746-0.53125-0.96875zm46.781 0.25 4.125 2.1875-2.2812 3.0938 7.1562 4.125 1.375 5.0312-1.375 5.4062-0.0625 0.0625-0.53125-1.0625-2.4688 1.875-0.03125 1.2812-2 1.625-0.21875-1.2188-2.9062 2.0938 0.09375 1.3125-1.9062 1.5312-0.46875-1-3.125 2.2812 0.125 1.0625-1.7813 1.75-0.71875-0.9375-0.53125 0.375-37.156-11.375 8.3438-9.7812 2.4375 0.96875-4.3125 4.2188 1.2188-0.3125v5.1875l12.219 3.8125 6-5.7188-0.1875 7.0625 12.875 3.6875 12.375-11.094 0.03125-6.7812 0.1875-0.15625-7.0625-6.2188-3.375 1.1562 3.9375-4.1875v-1.3438zm-46.969 0.0625c0.27062 0.042169 0.33259 0.65161 0.34375 0.9375-0.081338 0.67492-0.28072 1.253-0.6875 1.6875-0.81063 0.71617-0.7325-0.14277-0.6875-0.625-0.050908-0.72228 0.35548-1.3991 0.71875-1.8438 0.067372-0.061416 0.13282-0.10314 0.1875-0.125 0.047847-0.019127 0.08634-0.037274 0.125-0.03125zm62.906 0.0625 0.15625 1.0938-1.4375 0.34375-0.375-1.25 1.6562-0.1875zm-25.531 0.0625 2.9375 1.1875 0.03125 3-0.03125-0.03125-0.0625-2.9375-2.8125-1.125 0.0625 2.875-0.09375-0.0625-0.03125-2.9062zm-24.906 0.1875 5.6875 2.5-0.65625 1.3125-5.7188-2.4062 0.6875-1.4062zm-28.344 0.03125 11.594 4.6562 0.1875 5.6875-11.812-4.5625 0.03125-5.7812zm53.438 0.0625 2.5938 1.0312v2.7812l-2.5312-1.0938-0.0625-2.7188zm-77.375 0.5 0.4375 1.6875-1.8125 0.34375-0.34375-1.7812 1.7188-0.25zm21.906 0.59375c-0.071752 0.012065-0.14264 0.058862-0.21875 0.09375-0.079676 0.12121-0.15176 0.2227-0.21875 0.34375-0.46894 0.84731-0.66122 1.7058-0.96875 2.8125-0.11914 1.1467-0.078379 1.798-0.125 2.6875l2.2188-2.0625c0.045978-1.2473-0.021122-2.3264-0.15625-3.2812-0.10921-0.51883-0.31599-0.62994-0.53125-0.59375zm81 0.0625 0.09375 1.3125-1.8438 0.3125 0.25-1.4375 1.5-0.1875zm-80.938 0.125c0.15969 0.036605 0.31277 0.25097 0.34375 0.625 0.014699 0.17749 0.054386 0.81624 0.09375 1.375 0.04566 0.64814 0.11727 1.2211 0.125 1.5938l-2 1.8438c0.022282-0.64203 0.069923-2.2004 0.125-2.4062 0.012563-0.046952 0.047789-0.15918 0.0625-0.21875-0.098487 0.94789-0.086462 1.7022-0.125 2.4375l1.8438-1.6875c0.019002-0.51552-0.006742-1.0526-0.03125-1.5625s-0.069149-1.0116-0.125-1.4062c-0.12036-0.57184-0.34208-0.49036-0.59375-0.375-0.065863 0.1002-0.13212 0.18119-0.1875 0.28125-0.19382 0.35021-0.32242 0.68628-0.4375 1.0625 0.11998-0.42039 0.23618-0.84605 0.40625-1.125 0.056117-0.092046 0.095769-0.1628 0.15625-0.21875 0.040524-0.092702 0.11937-0.15549 0.1875-0.1875 0.0511-0.024006 0.10302-0.043452 0.15625-0.03125zm22.281 0.03125 12.906 4.7188-3.875 3.7812-9.1875-3.375 0.15625-5.125zm-22.344 0.25c0.13894 0.023003 0.28689 0.19082 0.3125 0.5 0.026244 0.31692 0.14435 2.1452 0.15625 2.7188l-1.6562 1.5c0.01842-0.53072 0.048222-2.0174 0.09375-2.1875 0.1177-0.43987 0.36278-1.6549 0.6875-2.1875 0.046389-0.076086 0.075004-0.11 0.125-0.15625 0.033499-0.076632 0.099619-0.1273 0.15625-0.15625 0.042473-0.021711 0.078688-0.038918 0.125-0.03125zm69.25 0.28125 7.125 3.7812 3.1875 9.5625 0.125-0.03125-1.5 1.1875-0.3125-1.1875-2 1.3125 0.0625 1.0938-1.5938 1.4062 1.3438-5.0312-1.5-5.3438-7.0625-3.875 2.125-2.875zm-90.813 0.625-0.0625 1.8438-1.5938 0.375-0.0625-1.9062 1.7188-0.3125zm27.438 0.03125v3.5938l3.25 1.3438v-3.5938l-3.25-1.3438zm18.906 0.09375v3.5938l3.25 1.3438v-3.5938l-3.25-1.3438zm-18.75 0.125 2.9375 1.25-0.03125 3.25-2.9375-1.25 0.03125-3.25zm74.969 0.0625 0.21875 1.6875-1.5 0.25-0.40625 0.03125-0.125-1.6562 1.8125-0.3125zm-74.906 0.03125v3.1562l2.8125 1.1562v-3.125l-2.8125-1.1875zm18.844 0 2.9375 1.25-0.03125 3.25-2.9375-1.25 0.03125-3.25zm0.0625 0.09375v3.1562l2.8125 1.1562v-3.125l-2.8125-1.1875zm-18.781 0.09375 2.5938 1.0938-0.0625 2.8438-2.5312-1.0938v-2.8438zm18.906 0.09375 2.5938 1.0938-0.0625 2.8438-2.5312-1.0938v-2.8438zm17.875 0.59375 8.3125 2.2188-11.5 11.031-4.3438-5.125 7.5312-8.125zm-1.1562 0.28125-6.9375 7.7812-6.75 1.9062 7.75-7.5 5.9375-2.1875zm-51.688 0.21875v5.1875l-5.8125 2.0312-3.6562 4.2188-0.09375-0.375 0.125-1.375-0.0625-0.40625 9.5-9.2812zm53.344 0.1875-0.09375 0.09375 1.2188 0.375c-0.59552 0.48442-1.0951 1.0238-1.5938 1.5938l-0.625-0.4375-0.125 0.09375 0.65625 0.4375c-0.46455 0.53357-0.92686 1.0905-1.4375 1.5938l-0.625-0.625-0.125 0.09375 0.65625 0.625c-0.1692 0.16291-0.34789 0.31649-0.53125 0.46875l0.09375 0.09375c0.18322-0.14555 0.35888-0.30567 0.53125-0.46875l1.1875 1.1562-3.4375 3.125-1.3438-1.5938-0.25 0.0625 1.4688 1.6562-0.9375 0.84375 0.03125 0.03125 0.9375-0.84375 1.25 1.4375 0.15625-0.03125-1.2812-1.5312 3.4688-3.0938 1.2188 1.1562 0.03125-0.125-1.1562-1.125 1.9062-1.6875 1.9062 1.3125-0.875 0.84375h0.0625l0.9375-0.84375 0.125-0.03125-0.0625-0.03125 2.7812-2.5312 0.09375 0.03125 0.1875-0.0625-0.1875-0.0625 0.125-0.125-0.1875-0.0625-0.125 0.125-2.3438-0.75 0.21875-0.1875-0.125-0.0625-0.21875 0.21875-2.25-0.75c0.10254-0.084603 0.20584-0.17191 0.3125-0.25l-0.0625-0.03125c-0.12191 0.085056-0.22876 0.19036-0.34375 0.28125l-1.2188-0.40625zm20.594 0 6.5 5.8125-11.844 10.531-0.031249 0.03125-5.7812-5.9062 11.156-10.469zm-85.625 0.34375 0.34375 1.625-1.5625 0.34375-0.125 0.28125-0.3125-2.0312 1.6562-0.21875zm103.19 0.03125 0.21875 1.4062-1.625 0.34375-0.4375-1.4688 1.8438-0.28125zm-62.063 0.125 0.03125 4.4688-1.0938 1.2188v-3.25l-2.125 2.4062v3.2188l-2 2.2188-0.03125-4.3125 5.2188-5.9688zm25.094 0 2.25 0.75-2.1875 1.9688-1.5938-1.0938c0.49403-0.57372 0.97584-1.1476 1.5312-1.625zm18.25 0.09375-10.625 9.75-5.4062 2.0938 11.094-10.125 4.9375-1.7188zm-23.938 0.34375-2 2.25-1.8125 0.21875-3.2188 3.2188-1.125 0.28125v0.09375l0.96875-0.25-0.84375 0.84375 0.15625 0.09375 0.96875-1 2.5625-0.625 2.4375-2.8125 1.4688-0.1875-0.03125-0.0625-1.3438 0.15625 1.9062-2.1875-0.09375-0.03125zm25.188 0.21875-0.5625 0.5625-0.28125-0.25 0.03125 0.21875 0.125 0.125-2.875 2.7812-0.1875-0.1875-0.09375 0.03125 0.21875 0.21875-1.4375 1.375 0.15625 0.09375 1.4063-1.3438 1 1-3.1563 3.0312 0.15625 0.125 3.125-3.0312 2.25 2.25 0.03125-0.09375-2.2188-2.2188 1.75-1.7188-0.0625-0.15625-1.8125 1.75-1-1 2.9062-2.7812 2.7188 2.4688-1.4375 1.4375 0.15625 0.09375 1.4062-1.4062 2.0938 1.9062-2.9062 2.7812 0.125 0.0625 3-2.8125-2.2188-2.0312 0.90625-0.875-0.09375-0.1875-0.9375 0.9375-2.7188-2.4688 0.625-0.59375-0.1875-0.09375zm-17.094 0.125 2.3438 0.75-2.6562 2.5312-1.9375-1.2812 2.25-2zm-53.25 0.34375c-0.14243 0.004671-0.2865 0.008192-0.40625 0.03125-0.83828 0.1614-1.169 0.74936-1.7188 1.4062-0.21298 0.97242-0.16666 1.6475-0.25 2.4688l3.9375 1.1562c0.082187-1.18-0.008447-2.3162-0.25-3.4688-0.26029-0.90474-0.76826-1.288-1.3125-1.5938zm-0.4375 0.1875c0.10031-0.009964 0.20438-0.001267 0.3125 0.03125 0.28977-0.13371 1.1516 0.66077 1.25 1.4062 0.056755 0.42982 0.31802 2.5351 0.34375 3.25l-3.5625-1.0625c0.039834-0.60943 0.089045-2.1247 0.1875-2.25 0.25452-0.32386 0.76656-1.3053 1.4688-1.375zm0.0625 0.09375c-0.69295 0.13342-0.95181 0.64449-1.4062 1.1875-0.17606 0.80384-0.11861 1.6024-0.1875 2.2812l3.25 0.96875c0.067938-0.97545-0.019073-2.2035-0.21875-3.1562-0.21516-0.7479-0.67511-1.0285-1.125-1.2812-0.11774 0.003862-0.21351-0.01906-0.3125 0zm8.5312 0.03125 11.812 4.6875 0.15625 4.4375-12-4.5 0.03125-4.625zm-8.5312 0.125c0.082922-0.008234 0.16063 0.00437 0.25 0.03125 0.23954-0.11053 0.94988 0.54001 1.0312 1.1562 0.046916 0.3553 0.25998 2.3465 0.28125 2.9375l-2.9688-0.90625c0.032929-0.50378 0.074864-1.9589 0.15625-2.0625 0.2104-0.26771 0.66954-1.0986 1.25-1.1562zm88.469 0.125 0.03125 0.1875-0.09375 1.0312-1.8438 0.4375 0.21875-1.4062 1.6875-0.25zm-38.906 0.0625 1.625 1.0625-1.875 1.6875-1.1562-1.1562c0.49652-0.48453 0.94322-1.0541 1.4062-1.5938zm8.5625 0 0.09375 5.0312-11.375 10.406-0.25-4.875 11.531-10.562zm-72.469 0.09375 0.15625 1.0938-1.4375 0.34375-0.375-1.25 1.6562-0.1875zm80.844 0.15625-2.2813 2.25-1.5312 0.1875 0.59375-0.5625-0.15625-0.09375-0.71875 0.6875-0.65625 0.09375 0.625-0.0625-1.4688 1.4375-1.125 0.34375-0.03125 0.0625 1-0.25-2.9375 2.875-1.2188 0.4375-0.03125 0.125 1.125-0.40625-0.75 0.71875 0.03125 0.0625 0.90625-0.84375 1.5625-0.59375v-0.0625l-1.4375 0.5 3.0312-2.875 1.25-0.3125-0.0625-0.15625-1.0312 0.3125 1.4688-1.4062 1.4375-0.125-0.40625 0.40625 0.15625 0.09375 0.5625-0.53125 0.4375-0.03125v-0.125l-0.3125 0.03125 2.125-2.0312-0.15625-0.15625zm-41.531 0.75-0.03125 3.0625-0.03125 0.0625v-3.0312l-1.8125 2.0625v2.9688l-0.0625 0.0625v-3.0625l1.875-2.0312 0.0625-0.09375zm18.469 0.03125-2.375 2.6562-2.2812 0.59375 3-3.0312 1.6562-0.21875zm-16.844 0.03125 2.75 1.1875-9.125 10.812-4.8125-4.8438-6.75 2.8438-5.2188 5.125v-1.2188l0.65625 0.375 1.0938-1.1562 0.125-0.125 3.1562-3.375 0.03125-5.9062 12.156 4.8438 6-6.75-0.0625-1.8125zm-1.75 0.25-0.03125 2.9062-1.6562 1.8438v-2.8438l1.6875-1.9062zm-39 0.28125 0.09375 1.3125-1.8438 0.3125 0.25-1.4375 1.5-0.1875zm102.56 0 0.25 1.3125-1.7188 0.3125-0.375-1.375 1.8438-0.25zm-102.56 1.625 0.21875 1.6875-1.5 0.25-0.40625 0.03125-0.125-1.6562 1.8125-0.3125zm10.312 0.09375-4.0625 4.75-4.5625 1.5938-0.1875-0.15625 3.625-4.25 5.1875-1.9375zm0.5625 0 6.0938 6.2188-4.625 4.6875-5.75-5.9062 4.2812-5zm92 0.09375 0.90625 2.9375-2.2188 1.8438-0.34375-1.4062 0.96875-0.9375-0.71875-2.25 1.4062-0.1875zm-11.688 0.875 0.03125 5.9062-11.406 10.219-0.15625-5.75 11.531-10.375zm-83.5 0.0625-0.71875 0.96875-1.1562 0.4375 0.1875-0.25-0.1875-0.03125-0.28125 0.375-1.1875 0.46875-0.03125 0.125 1.0938-0.375-1.375 1.9062-1.0625 0.25 0.0625 0.1875 0.84375-0.21875-0.21875 0.3125h0.09375l0.28125-0.34375 1.125-0.3125-0.03125-0.15625-0.9375 0.21875 1.4688-1.9375 1.1875-0.4375-1.4062 1.9062 0.21875 0.0625 1.4375-2.0625 1.25-0.46875-0.09375-0.125-1.0312 0.375 0.59375-0.84375-0.125-0.03125zm3.8438 0.125-0.6875 0.6875-0.59375-0.59375-0.09375 0.09375 0.59375 0.625-1.1875 1.2188 0.15625 0.125 1.125-1.25 2.2188 2.2812 0.15625-0.125-2.25-2.25 0.625-0.71875-0.0625-0.09375zm-10.875 0.71875 0.21875 1.4062-1.625 0.34375-0.4375-1.4688 1.8438-0.28125zm89.938 0.125-2.125 2.4062v3.5938l2.125-2.4062v-3.5938zm-7.3438 0.09375-3.9375 3.7188-1.5938-1.4688-0.15625 0.0625 1.625 1.5312-0.5 0.46875 0.09375 0.125 0.53125-0.5 1.1875 1.125-2 1.875 0.15625 0.0625 1.9688-1.8125 0.9375 0.875 0.15625-0.09375-0.96875-0.90625 2.4688-2.3125-0.09375-0.125-2.5 2.3438-1.2188-1.125 3.9688-3.7188-0.125-0.125zm-27.531 0.15625 4.5625 5.3125 0.15625 4.875-4.6562-1.4062v-3.0312l-3.25-1.0938v3.125l-3.4062-1.0312 0.1875-5.0312 6.4062-1.7188zm34.781 0.0625-0.03125 3.2812-1.9062 2.1562v-3.3125l1.875-2.0312 0.0625-0.09375zm-0.0625 0.09375-1.8125 2.0625v3.1562l1.8125-2.0938v-3.125zm-0.0625 0.21875-0.03125 2.9062-1.6562 1.8438v-2.8438l1.6875-1.9062zm-35.344 0.3125c-0.47055 0.002038-0.4911 0.39044-0.53125 0.84375 0.35686 0.98602 0.73893 1.1343 1.1562 1.3125 0.66032 0.12548 0.70124-0.31359 0.75-0.8125-0.27407-0.93196-0.62325-1.0798-1.125-1.3125-0.085794-0.017019-0.18278-0.031541-0.25-0.03125zm0.3125 0.21875c0.47452 0.077294 0.69001 0.76694 0.75 1.0312 0.001656 0.39573-0.14964 0.64013-0.5 0.625-0.71647-0.13171-0.73582-0.64477-0.75-0.9375-0.13855-0.52855 0.19401-0.69391 0.5-0.71875zm-54.406 0.53125 0.03125 0.1875-0.09375 1.0312-1.8438 0.4375 0.21875-1.4062 1.6875-0.25zm102.34 0.21875 0.15625 18.875-6 4.5938v-12l-11.219 9.0312 0.03125 11.625-9.7813 7.3438-0.0625-19.562 2.4688-1.8438-0.15625 1.9688 3.2188-2.5625v-1.5312l1.9688-1.375 0.21875 1.6562 2.9688-2.6875 0.03125-1.5312 2.0312-1.4688 0.03125 1.1875 2.8125-2-0.09375-1.3438 1.9688-1.4688 0.28125 1.8438 3.0625-2.5-0.125-1.5938 1.625-1.2812 0.3125 1.7812 2.875-2.4688-0.21875-1.3125 1.5938-1.375zm-91.469 0.375-0.03125 0.09375 1.6562 1.625-1.375 1.3125-2.7812-3-0.125 0.0625 2.875 3.0312 1.4688-1.3438 1.0938 1.0625-2.2812 2.2812-4.5312-4.625-0.15625 0.09375 4.6875 4.6562 2.3438-2.3438 0.5625 0.53125 0.09375-0.0625-0.5625-0.5625 0.75-0.75-0.09375-0.0625-0.75 0.75-1.0625-1.0312 0.3125-0.3125-0.09375-0.0625-0.3125 0.28125-1.6875-1.625zm89.344 0.6875 0.25 1.4062-2.1875 1.9375-0.25-1.6562 2.1875-1.6875zm-79.781 0.21875-0.03125 2.9375-0.03125 0.03125v-2.875l-1.8125 2.0625v2.8438l-0.0625 0.0625v-2.9375l1.875-2.0312 0.0625-0.09375zm-20.5 0.15625 0.25 1.3125-1.7188 0.3125-0.375-1.375 1.8438-0.25zm72.219 0 5.8438 5.9062 0.0625 6.3438-5.0312-1.4688v-3.125l-3.25-1.0938v3.25l-3.625-1.0625 0.125-6.5312 5.875-2.2188zm-51.844 0.15625-0.03125 2.7812-1.6562 1.8438v-2.7188l1.6875-1.9062zm-15.156 0.03125 5.6562 5.7188 0.0625 4.0312-0.59375-0.25 0.03125-1.3438-3.2812-1.7188-0.78125 0.71875-1.9062-0.78125 0.09375-1.1875-0.6875-0.40625 2.8438 0.96875v-3.5938l-3.25-1.0938v3.5l-2.25-1.2812-0.375-2.125 4.4375-1.1562zm23.5 0.1875 5.9062 5.9375c-3.2529 2.9436-6.4971 6.0913-9.75 8.8438l-1.1562 1.0312-0.5625-0.0625-0.65625-0.1875c-0.003909-0.008052 0.003488-0.022898 0-0.03125-0.007972-0.01909-0.02533-0.041959-0.03125-0.0625l0.125-1.375-0.1875-0.09375-3.2188-1.8125-0.03125 0.03125h-0.03125l-1.75-1.8125 11.344-10.406zm68.781 0 0.15625 1.2812-1.4375 1.1562v-1.5938l1.2812-0.84375zm-69.813 0.25-10.719 9.7188-1.2812 0.5625-1.1875-0.6875 7.75-7.4062 5.4375-2.1875zm0.875 0.59375-4.75 4.3125-0.21875-0.21875-0.125 0.03125 0.25 0.28125-0.9375 0.84375 0.125 0.0625 0.90625-0.84375 2.5625 2.6562-2.375 2.125-1.875-1.9062-0.125 0.03125 1.9062 1.9688-2.125 1.9375-2.6562-2.5938-0.09375 0.09375 2.6562 2.5938-0.5 0.4375 0.0625 0.15625 0.53125-0.5 1.75 1.6875 8.9375-7.9375-0.09375-0.0625-8.8438 7.8125-1.625-1.5938 2.0938-1.9375 1.1875 1.2188 0.125-0.0625-1.2188-1.25 2.3438-2.1562 1 1.0312 4.875-4.3438 0.375 0.40625 0.125-0.0625-0.40625-0.40625 0.15625-0.15625-0.0625-0.09375-0.1875 0.15625-3.75-3.7188zm0 0.125 3.6562 3.6875-4.75 4.1562-0.90625-0.90625 1.375-1.2812-0.03125-0.0625-1.4062 1.2812-2.5938-2.5938 4.6562-4.2812zm-25 0.125 2.9375 1.0312-0.03125 3.25-2.9375-1.0312 0.03125-3.25zm0.0625 0.09375v3.1562l2.8125 0.9375v-3.125l-2.8125-0.96875zm12.5 0.125 0.09375 5.875-2.3125 2.4062-0.59375-0.34375-1.2812 0.78125-0.46875-0.1875 0.0625-3.875 4.5-4.6562zm-12.375 0.03125 2.5938 0.90625-0.0625 2.8438-2.5312-0.90625v-2.8438zm48.062 0.0625 2.9375 1.0312-0.03125 2.8125h-0.03125v-2.7812l-2.8125-0.96875v2.875l-0.09375-0.03125 0.03125-2.9375zm-51.5 0.03125 0.59375 1.8125 3.25 1.8438-1.0625 0.5625-3.75-1.9688-0.4375-2.0625 1.4062-0.1875zm51.688 0.21875 2.5938 0.90625-0.0625 2.625-2.5312-0.78125v-2.75zm-27.469 0.4375-0.625 0.59375-1.625 0.40625 0.1875-0.15625-0.0625-0.125-0.375 0.375-0.53125 0.125-0.15625 0.09375 0.59375-0.125-3.7188 3.5625h-0.25l-0.125 0.15625h0.21875l-2.4062 2.3438 0.1875 0.0625 2.4688-2.4062 1.6562 0.03125v-0.125l-1.5312-0.0625 3.75-3.625 1.5625-0.34375-1.5625 1.5312 0.125 0.09375 1.7188-1.6875 0.40625-0.09375 0.03125-0.15625-0.25 0.0625 0.5-0.5-0.1875-0.03125zm71.25 0.1875 0.1875 2.125-2.3438 1.75-0.375-1.5312 0.28125-0.375 2.25-1.9688zm-13.188 0.375-2.125 2.4062v3.5938l2.125-2.4062v-3.5938zm-0.09375 0.3125-0.03125 3.2812-1.9062 2.1562v-3.3125l1.875-2.0312 0.0625-0.09375zm-0.0625 0.09375-1.8125 2.0625v3.1562l1.8125-2.0938v-3.125zm-0.0625 0.21875-0.03125 2.9062-1.6562 1.8438v-2.8438l1.6875-1.9062zm10.375 0.15625 0.1875 1.4062-1.8125 1.3125-0.09375-0.40625v-1l1.7188-1.3125zm-93.281 0.8125 3.2812 1.8125-0.0625 1.0312 3.5625 1.7812 0.0625-1.2188 2.5312 1.2188-0.125 1.4375 2.9688 1.9375 0.15625-1.75 2.8125 1.4375-0.1875 1.2188 3.5625 1.8438 0.125-1.25 2.5938 1.375v1.4375l3.2812 1.5 0.03125-1.1875 2.625 1.25-0.125 1.5 4 1.7188v-1.25l1.8125 0.78125v19.344l-32.938-16.437 0.03125-19.531zm4.75 1.2188-0.0625 0.59375-0.78125 0.4375-0.0625-0.5625 0.90625-0.46875zm86.531 0.6875-0.125 1.6875-1.9688 1.3438-0.125-1.2812 2.2188-1.75zm-86.469 0.25 1.6875 0.875v0.96875l-2.5625-1.3125 0.875-0.53125zm65.719 0 2.9375 1.0312-0.03125 2.9062h-0.03125v-2.875l-2.8125-0.96875v3l-0.09375-0.03125 0.03125-3.0625zm-25.406 0.0625 13.688 4.7812c-0.28105 0.044813-2.9032-0.18815-3.6562-0.125l-13.875-4.5 3.8438-0.15625zm-37.469 0.0625 2.8125 1.5-0.96875 0.5-2.5312-1.1875 0.6875-0.8125zm32.688 0.125 14.094 4.9688c-0.83203 1.2387-1.952 2.885-2.9375 4.4062l-14.719-4.625 3.5625-4.75zm30.375 0 2.5938 0.90625-0.0625 2.7188-1.875-0.5625-0.65625-0.21875v-2.8438zm-35.719 0.21875 0.1875 5.6562-6 5.9062-0.34375-0.21875 0.15625-1.4062-3.125-1.625 9.125-8.3125zm9.0312 0.03125-0.125 0.09375 2.5625 1.0625 1.0312-0.5625-0.125-0.125-0.9375 0.5625-2.4062-1.0312zm44.594 0 0.1875 1.25-2.0938 1.7812-0.1875-0.6875 0.0625-0.8125 2.0312-1.5312zm-47.813 0.34375-1.5 2.1562-0.5-0.1875-0.0625 0.0625 0.5 0.21875-0.9375 1.3438-0.4375-0.15625-0.09375 0.03125 0.5 0.1875-0.15625 0.21875 0.15625 0.0625 0.15625-0.21875 1.25 0.46875-0.1875 0.28125 0.125 0.03125 0.1875-0.28125 3.4062 1.25 0.0625-0.0625-3.4375-1.25 0.875-1.3125 0.6875 0.28125-0.59375 0.84375h0.1875l0.5625-0.78125 5.3438 2.1562-0.96875 1.375 0.09375 0.0625 1-1.375 0.96875 0.375 0.0625-0.125-0.9375-0.375 1.3125-1.8125 2.625 0.875-0.71875 1.1875-0.84375-0.25v0.15625l0.75 0.21875-0.71875 1.1562 0.125 0.09375 0.75-1.2188 0.96875 0.28125-1.0938 1.6875 0.125 0.09375 1.0938-1.7188 1.3125 0.375 0.125-0.125-1.3438-0.40625 0.78125-1.2188-1.0938-0.34375 0.09375-0.1875-0.125-0.0625-0.125 0.1875-2.8125-0.90625-1.3125 1.875-5.375-2.125 1.1875-1.6562-0.125-0.09375-1.2188 1.6875-0.6875-0.28125 1.3125-1.9688-0.125-0.0625-1.3125 2-1.2188-0.5 1.4688-2.125-0.09375-0.09375zm7.4688 0.59375-0.8125 0.53125v0.125l0.8125-0.4375 1.1875 0.53125 0.59375-0.34375-0.09375-0.0625-0.5625 0.28125-1.125-0.625zm-37.75 0.53125 0.0625 0.90625-0.9375 0.5-0.03125-0.96875 0.03125 0.03125 0.875-0.46875zm39.844 0.78125-0.03125 0.125 4.8125 1.625 0.125-0.0625-4.9062-1.6875zm-36.531 0.34375 2.8125 1.5625-1.0938 0.625-3.0312-1.4688 1.3125-0.71875zm25.562 0.03125 1.1875 0.5-0.875 1.3438-1.25-0.46875 0.9375-1.375zm-28.594 0.03125 1.3438 0.59375-0.125 1.4375-2.2812-1.4688 1.0625-0.5625zm75.469 0.3125 0.03125 1.75-2.1875 1.9375-0.0625-1.4688 0.125-0.125-0.03125-0.375 2.125-1.7188zm-53.906 0.15625-2.125 2.4062v3.5938l2.125-2.4062v-3.5938zm64.469 0.15625v11.656l-0.03125 0.03125-1.125-0.4375v-10.281l1.1562-0.96875zm-64.563 0.15625-0.03125 3.2812-1.9062 2.1562v-3.3125l1.875-2.0312 0.0625-0.09375zm-0.0625 0.09375-1.8125 2.0625v3.1562l1.8125-2.0938v-3.125zm-0.0625 0.21875-0.03125 2.9062-1.6562 1.8438v-2.8438l1.6875-1.9062zm51.406 0.03125 0.1875 1.25-2.5 1.875-0.1875-0.8125 0.03125-0.4375 2.4688-1.875zm-66.188 0.09375 1.75 1.9062-0.53125 0.46875-1.6562-0.53125 0.15625-1.5-0.21875-0.125 0.5-0.21875zm37.531 0.65625c1.5681 0.32941 3.7227 0.28908 5.3438 0.6875l-0.03125 5.5312-3.625 0.34375-0.53125 1.2812-2.375 0.3125-0.1875-1.4375-1.2812 0.0625-0.125-1.4688c0.90245-1.819 2.0172-4.1079 2.8125-5.3125zm40.406 0 0.03125 0.8125-1.125 0.90625v-0.8125l1.0938-0.90625zm-78.656 0.09375-0.15625 0.9375-0.96875 0.5h-0.03125l0.0625-1.0312 0.09375 0.09375 1-0.5zm34.562 0.09375 1 0.34375-0.75 1.125-1-0.28125 0.75-1.1875zm-14.938 0.25 15.25 4.9375v1.4375l-2.3125 0.09375-0.59375 1.4688-2.5 0.0625-0.125-1.2812h-4.4688l-0.75 1.4688-2.8125 0.125-0.125-1.1875-1.375 0.03125-0.1875-7.1562zm59.063 0.53125 0.03125 2.3125-1.1562 0.96875v-2.3438l1.125-0.9375zm-1.25 0.03125v0.84375l-1.5938 1.3125v-0.84375l1.5938-1.3125zm-74.125 0.125 2.75 1.6875-1.0938 0.625-2.9375-1.4062 1.2812-0.90625zm-3.1875 0.1875 1.625 0.75-0.0625 0.90625-2.4375-1.2188 0.875-0.4375zm44 0.0625 9.8438 2.4062-2.3125 3.2188-0.3125-1.1875-3.9688 0.15625-0.9375 1.4688-2.0625 0.09375-0.0625-1.375h-0.125l-0.0625-4.7812zm-4.5 0.03125c-0.15567 0.01123-0.3607 0.12078-0.5625 0.21875-0.77446 0.66899-0.93104 1.4908-1.0938 2.4375 0.21009 1.2181 0.64293 0.96229 1.0938 0.71875 0.74626-0.65306 0.90046-1.4885 1.0625-2.4062-0.077859-0.77153-0.24054-0.98747-0.5-0.96875zm-0.1875 0.34375c0.25966 0.061526 0.30157 0.65745 0.3125 0.9375-0.081334 0.67492-0.28072 1.253-0.6875 1.6875-0.81063 0.71616-0.7325-0.14277-0.6875-0.625-0.050904-0.72227 0.35548-1.3991 0.71875-1.8438 0.13475-0.12283 0.2572-0.17676 0.34375-0.15625zm38 0.25v2.3438l-1.5938 1.3438v-2.3438l1.5938-1.3438zm-13.25 0.34375 0.25 1.6875-2.2813 1.8438 0.09375-1.4062 1.9375-2.125zm11.531 0.0625v0.84375l-1.5 1.25v-0.84375l1.5-1.25zm-69.688 0.90625-0.0625 0.6875-0.90625 0.5v-0.75l0.03125 0.03125 0.9375-0.46875zm69.688 0.125v2.3438l-1.5 1.25v-2.3438l1.5-1.25zm3 0 0.03125 2.0312-1.1875 1v-2.0938l1.1562-0.9375zm-17.156 0.1875 0.46875 0.5625-3.125 2.3438-4.3125 0.46875 0.5625-1.3125 3.5312-0.25 2.875-1.8125zm12.563 0.09375v0.875l-1.7188 1.4375v-0.875l1.7188-1.4375zm-65 0.28125 2.8125 1.4688-1 1-3.0312-1.4062 0.0625-0.0625 1.1562-1zm-3.0625 0.40625 0.25 0.09375 1.375 0.65625-0.03125 0.75-2.5938-1.0625 1-0.4375zm71.375 0.09375v2.0625l-1.5938 1.3438v-2.0938l1.5938-1.3125zm-3.3125 0.25v2.375l-1.7188 1.4062v-2.3438l1.7188-1.4375zm-1.8438 0.5v0.875l-1.5938 1.3125v-0.875l1.5938-1.3125zm6.4688 0.375 0.03125 2.0625-1.2188 1v-2.0938l1.1875-0.96875zm-3.0312 0.28125v2.0938l-1.5 1.25v-2.0938l1.5-1.25zm-63.813 0.09375-0.1875 0.84375-0.6875 0.90625 0.0625-1.0312 0.8125-0.71875zm38.969 0.125-0.84375 1.1562-2.9375 0.21875 0.71875-1.1875 3.0625-0.1875zm0.21875 0.15625 0.28125 1-0.71875 1.1562-0.21875-1.125 0.65625-1.0312zm21.188 0v2.375l-1.5938 1.3125v-2.3438l1.5938-1.3438zm-28.375 0.28125-0.8125 1.3125-3.4375 0.1875 0.625-1.3125 3.625-0.1875zm26.656 0.09375v0.90625l-0.875 0.71875v-0.90625l0.875-0.71875zm6.875 0.0625v2.0938l-1.5938 1.3125v-2.0938l1.5938-1.3125zm-62.656 0.09375 2.3125 1.1562 3.5625-0.125-0.65625 1-3.5312 0.25-2.4062-1 0.71875-1.2812zm21.594 0.21875-0.875 1.25-3.1875 0.28125 0.59375-1.3438 3.4688-0.1875zm22.594 0.03125 0.09375 19.406 0.03125 0.03125-42.406 2.4375-0.0625-19.5 3.0312-0.15625 0.15625 1.4688 4.9688-0.3125-0.125-1.1875 3.3438-0.1875-0.03125 1.5938 4.4688-0.375-0.03125-1.5 3.0312-0.1875 0.21875 1.375 4.25-0.28125-0.1875-1.3438 3.2188-0.125 0.125 1.5 3.6875-0.40625 0.03125-1.5 3.2188-0.15625 0.1875 1.625 4.4375-0.53125-0.21875-1.5 4.5625-0.1875zm-46.812 0.03125 1.75 1.0938 0.03125 1.0625-2.75-1.125 0.96875-1.0312zm31.812 0 0.25 0.8125-0.625 0.84375-0.0625-0.96875 0.4375-0.6875zm9.9375 0.15625v1.125l-3.0938 0.40625 0.875-1.4688 2.2188-0.0625zm20.219 0v2.0938l-1.7188 1.4062v-2.0625l1.7188-1.4375zm-37.625 0.03125 0.15625 0.9375-0.5625 0.78125-0.03125-0.84375 0.4375-0.875zm-11.188 0.25 3.4688 0.0625-0.65625 0.9375-3.4375 0.125 0.625-1.125zm21.031 0.1875-0.03125 1.25-2.5938 0.21875 0.65625-1.3125 1.9688-0.15625zm24.219 0v2.3438l-0.90625 0.78125 0.03125-2.375 0.875-0.75zm-41.5 0.09375 0.09375 1.0312-0.6875 0.96875-0.03125-1.1562 0.625-0.84375zm49.719 0.03125 0.03125 2.2188-1.25 1v-2.1875l1.2188-1.0312zm-3.0625 0.28125v2.0938l-1.5 1.25v-2.0938l1.5-1.25zm-36.563 0.0625 0.09375 1.125-2.9062 0.21875 0.53125-1.125 2.2812-0.21875zm-18.406 0.09375 0.125 0.78125-0.46875 0.6875-0.125-0.6875 0.46875-0.78125zm11.188 0.40625-0.0625 1.25-3.3438 0.21875 0.78125-1.125 2.625-0.34375zm40.344 0.09375v2.0938l-1.5938 1.3125v-2.0938l1.5938-1.3125zm-48.219 0.09375-0.0625 1.125-3.5312 0.25 0.65625-1.0938 2.9375-0.28125zm53.375 0.09375v2.2188l-1.5938 1.2812v-2.1562l1.5938-1.3438zm-3.3125 0.5v2.0938l-1.7188 1.4375v-2.0938l1.7188-1.4375zm-3.5625 0.75v2.0625l-0.9375 0.8125v-2.125l0.9375-0.75zm5.1562 0.1875v2.1562l-1.5 1.1875v-2.0938l1.5-1.25zm-3.4375 0.59375v2.0938l-1.5938 1.3437v-2.0937l1.5938-1.3438zm1.8438 0.75-0.03125 2.125-1.7188 1.375 0.03125-2.0937 1.7188-1.4062zm-3.5625 0.6875v2.0937l-0.96875 0.8125v-2.125l0.96875-0.78125zm1.7188 0.84375-0.03125 2.0625-1.5938 1.2812v-2.0312l1.625-1.3125zm-1.75 1.4062v2.0312l-1 0.8125 0.03125-2.0312 0.96875-0.8125z"/>
 </g>
</svg>
