<?xml version="1.0" encoding="UTF-8"?>
<!-- Created with Inkscape (http://www.inkscape.org/) -->
<svg id="svg2" width="128" height="128" version="1.0" xmlns="http://www.w3.org/2000/svg" xmlns:cc="http://creativecommons.org/ns#" xmlns:dc="http://purl.org/dc/elements/1.1/" xmlns:rdf="http://www.w3.org/1999/02/22-rdf-syntax-ns#" xmlns:xlink="http://www.w3.org/1999/xlink">
 <defs id="defs4">
  <linearGradient id="linearGradient2320">
   <stop id="stop2322" stop-color="#6a3c1d" offset="0"/>
   <stop id="stop2324" stop-color="#8f5127" offset="1"/>
  </linearGradient>
  <linearGradient id="linearGradient3332">
   <stop id="stop3334" stop-color="#bb8f56" offset="0"/>
   <stop id="stop3336" stop-color="#d1af63" offset="1"/>
  </linearGradient>
  <linearGradient id="linearGradient3494">
   <stop id="stop3496" stop-color="#cf8d00" offset="0"/>
   <stop id="stop3498" stop-color="#cea33e" offset="1"/>
  </linearGradient>
  <linearGradient id="linearGradient2593" x1="88.002" x2="84.027" y1="43.545" y2="48.468" gradientUnits="userSpaceOnUse" xlink:href="#linearGradient3332"/>
  <linearGradient id="linearGradient2597" x1="116.07" x2="115.46" y1="66.264" y2="67.059" gradientUnits="userSpaceOnUse" xlink:href="#linearGradient3332"/>
  <linearGradient id="linearGradient2607" x1="92.834" x2="91.519" y1="51.678" y2="53.115" gradientUnits="userSpaceOnUse" xlink:href="#linearGradient3332"/>
  <linearGradient id="linearGradient2622" x1="115.03" x2="115.62" y1="82.094" y2="83.531" gradientUnits="userSpaceOnUse" xlink:href="#linearGradient3332"/>
  <linearGradient id="linearGradient2626" x1="92.688" x2="93.344" y1="88" y2="89.969" gradientUnits="userSpaceOnUse" xlink:href="#linearGradient3332"/>
  <linearGradient id="linearGradient2658" x1="101" x2="102.69" y1="85.344" y2="89.562" gradientUnits="userSpaceOnUse" xlink:href="#linearGradient3332"/>
  <linearGradient id="linearGradient2662" x1="16.781" x2="18.281" y1="51.188" y2="56.844" gradientUnits="userSpaceOnUse" xlink:href="#linearGradient3332"/>
  <linearGradient id="linearGradient2672" x1="19.344" x2="20.094" y1="51.125" y2="53.031" gradientUnits="userSpaceOnUse" xlink:href="#linearGradient3332"/>
  <linearGradient id="linearGradient2682" x1="5.5312" x2="36.781" y1="54.047" y2="54.047" gradientUnits="userSpaceOnUse" xlink:href="#linearGradient3332"/>
  <linearGradient id="linearGradient2688" x1="18.969" x2="18.062" y1="73.094" y2="74.438" gradientUnits="userSpaceOnUse" xlink:href="#linearGradient3332"/>
  <linearGradient id="linearGradient2692" x1="18.969" x2="18.062" y1="73.094" y2="74.438" gradientTransform="translate(-.28125 4.0938)" gradientUnits="userSpaceOnUse" xlink:href="#linearGradient3332"/>
  <linearGradient id="linearGradient2749" x1="26.369" x2="23.604" y1="77.891" y2="81.466" gradientUnits="userSpaceOnUse" xlink:href="#linearGradient3332"/>
  <linearGradient id="linearGradient3340" x1="21.282" x2="21.71" y1="83.846" y2="77.211" gradientUnits="userSpaceOnUse" xlink:href="#linearGradient3494"/>
  <linearGradient id="linearGradient3346" x1="57.109" x2="53.387" y1="79.393" y2="72.691" gradientUnits="userSpaceOnUse" xlink:href="#linearGradient3494"/>
  <linearGradient id="linearGradient3350" x1="52.411" x2="8.9946" y1="69.016" y2="39.784" gradientUnits="userSpaceOnUse" xlink:href="#linearGradient3494"/>
  <linearGradient id="linearGradient3355" x1="73.859" x2="79.375" y1="77.146" y2="73.828" gradientUnits="userSpaceOnUse" xlink:href="#linearGradient3494"/>
  <linearGradient id="linearGradient3359" x1="108.23" x2="106.56" y1="78.869" y2="75.625" gradientUnits="userSpaceOnUse" xlink:href="#linearGradient3494"/>
  <linearGradient id="linearGradient3363" x1="106.21" x2="91.33" y1="75.416" y2="65.819" gradientUnits="userSpaceOnUse" xlink:href="#linearGradient3494"/>
  <linearGradient id="linearGradient3415">
   <stop id="stop3417" stop-color="#1a1a1a" offset="0"/>
   <stop id="stop3419" stop-color="#2b2b2b" offset="1"/>
  </linearGradient>
  <linearGradient id="linearGradient2338">
   <stop id="stop2340" stop-color="#b1b1b1" offset="0"/>
   <stop id="stop2342" stop-color="#e4e4e4" offset="1"/>
  </linearGradient>
  <linearGradient id="linearGradient3803" x1="56.001" x2="59.143" y1="88.842" y2="96.425" gradientUnits="userSpaceOnUse" xlink:href="#linearGradient2320"/>
  <linearGradient id="linearGradient3807" x1="62.555" x2="65.588" y1="95.829" y2="89.763" gradientUnits="userSpaceOnUse" xlink:href="#linearGradient2320"/>
  <linearGradient id="linearGradient3811" x1="60.388" x2="62.067" y1="89.763" y2="84.022" gradientUnits="userSpaceOnUse" xlink:href="#linearGradient2320"/>
  <linearGradient id="linearGradient3815" x1="60.28" x2="59.522" y1="86.784" y2="87.705" gradientUnits="userSpaceOnUse" xlink:href="#linearGradient2320"/>
  <linearGradient id="linearGradient3819" x1="62.88" x2="63.746" y1="86.134" y2="87.705" gradientUnits="userSpaceOnUse" xlink:href="#linearGradient2320"/>
  <linearGradient id="linearGradient3823" x1="67.212" x2="66.508" y1="71.349" y2="72.053" gradientUnits="userSpaceOnUse" xlink:href="#linearGradient2320"/>
  <linearGradient id="linearGradient3827" x1="71.166" x2="70.164" y1="85.322" y2="85.322" gradientUnits="userSpaceOnUse" xlink:href="#linearGradient2320"/>
  <linearGradient id="linearGradient3831" x1="59.684" x2="61.959" y1="80.069" y2="80.123" gradientUnits="userSpaceOnUse" xlink:href="#linearGradient3415"/>
  <linearGradient id="linearGradient3835" x1="61.201" x2="61.065" y1="77.577" y2="78.823" gradientUnits="userSpaceOnUse" xlink:href="#linearGradient3415"/>
  <linearGradient id="linearGradient3855" x1="41.935" x2="47.641" y1="29.539" y2="41.985" gradientUnits="userSpaceOnUse" xlink:href="#linearGradient3494"/>
  <linearGradient id="linearGradient3857" x1="59.743" x2="62.73" y1="40.109" y2="23.718" gradientUnits="userSpaceOnUse" xlink:href="#linearGradient3494"/>
  <linearGradient id="linearGradient3861" x1="47.171" x2="48.084" y1="86.808" y2="49.893" gradientUnits="userSpaceOnUse" xlink:href="#linearGradient2338"/>
  <linearGradient id="linearGradient3865" x1="68.584" x2="67.027" y1="64" y2="50.032" gradientUnits="userSpaceOnUse" xlink:href="#linearGradient2338"/>
  <linearGradient id="linearGradient3869" x1="40.173" x2="45.362" y1="43.416" y2="52.368" gradientUnits="userSpaceOnUse" xlink:href="#linearGradient2320"/>
  <linearGradient id="linearGradient3886" x1="73.804" x2="71.462" y1="42.617" y2="49.865" gradientUnits="userSpaceOnUse" xlink:href="#linearGradient2320"/>
  <linearGradient id="linearGradient3890" x1="71.948" x2="75.042" y1="52.384" y2="49.997" gradientUnits="userSpaceOnUse" xlink:href="#linearGradient2320"/>
  <linearGradient id="linearGradient3894" x1="72.788" x2="73.583" y1="53.71" y2="52.207" gradientUnits="userSpaceOnUse" xlink:href="#linearGradient2320"/>
  <linearGradient id="linearGradient3898" x1="56.591" x2="55.972" y1="51.378" y2="57.853" gradientUnits="userSpaceOnUse" xlink:href="#linearGradient2320"/>
  <linearGradient id="linearGradient3902" x1="62.888" x2="63.198" y1="51.213" y2="55.875" gradientUnits="userSpaceOnUse" xlink:href="#linearGradient2320"/>
  <linearGradient id="linearGradient3909" x1="59.043" x2="59.088" y1="53.511" y2="55.544" gradientUnits="userSpaceOnUse" xlink:href="#linearGradient2320"/>
  <linearGradient id="linearGradient3922" x1="57.74" x2="61.739" y1="58.792" y2="49.268" gradientUnits="userSpaceOnUse" xlink:href="#linearGradient2320"/>
  <linearGradient id="linearGradient3926" x1="59.198" x2="59.463" y1="51.544" y2="51.522" gradientUnits="userSpaceOnUse" xlink:href="#linearGradient2320"/>
  <linearGradient id="linearGradient3930" x1="61.474" x2="61.761" y1="51.544" y2="51.754" gradientUnits="userSpaceOnUse" xlink:href="#linearGradient2320"/>
  <linearGradient id="linearGradient3934" x1="62.513" x2="62.535" y1="53.621" y2="54.063" gradientUnits="userSpaceOnUse" xlink:href="#linearGradient2320"/>
  <linearGradient id="linearGradient3938" x1="61.629" x2="61.452" y1="55.765" y2="55.941" gradientUnits="userSpaceOnUse" xlink:href="#linearGradient2320"/>
  <linearGradient id="linearGradient3942" x1="60.215" x2="59.839" y1="57.709" y2="57.753" gradientUnits="userSpaceOnUse" xlink:href="#linearGradient2320"/>
  <linearGradient id="linearGradient3946" x1="57.894" x2="58.137" y1="56.847" y2="57.024" gradientUnits="userSpaceOnUse" xlink:href="#linearGradient2320"/>
  <linearGradient id="linearGradient3950" x1="57.475" x2="57.519" y1="54.748" y2="55.091" gradientUnits="userSpaceOnUse" xlink:href="#linearGradient2320"/>
  <linearGradient id="linearGradient3954" x1="58.115" x2="57.85" y1="52.715" y2="53.058" gradientUnits="userSpaceOnUse" xlink:href="#linearGradient2320"/>
  <linearGradient id="linearGradient3958" x1="59.949" x2="60.436" y1="55.013" y2="53.444" gradientUnits="userSpaceOnUse" xlink:href="#linearGradient2320"/>
  <linearGradient id="linearGradient3964" x1="51" x2="54.447" y1="17.691" y2="18.818" gradientUnits="userSpaceOnUse" xlink:href="#linearGradient2338"/>
  <linearGradient id="linearGradient3968" x1="51.575" x2="53.851" y1="15.084" y2="17.78" gradientUnits="userSpaceOnUse" xlink:href="#linearGradient2338"/>
  <linearGradient id="linearGradient3972" x1="58.248" x2="60.237" y1="17.117" y2="15.172" gradientUnits="userSpaceOnUse" xlink:href="#linearGradient2338"/>
  <linearGradient id="linearGradient3976" x1="55.906" x2="56.927" y1="15.791" y2="12.963" gradientUnits="userSpaceOnUse" xlink:href="#linearGradient2338"/>
  <linearGradient id="linearGradient3980" x1="56.966" x2="56.834" y1="13.449" y2="15.658" gradientUnits="userSpaceOnUse" xlink:href="#linearGradient2338"/>
  <filter id="filter4075">
   <feGaussianBlur id="feGaussianBlur4077" stdDeviation="0.8000368"/>
  </filter>
  <filter id="filter4117">
   <feGaussianBlur id="feGaussianBlur4119" stdDeviation="0.38725176"/>
  </filter>
  <linearGradient id="linearGradient4123" x1="69.665" x2="70.53" y1="53.924" y2="55.524" gradientUnits="userSpaceOnUse" xlink:href="#linearGradient2320"/>
  <filter id="filter3200">
   <feGaussianBlur id="feGaussianBlur3202" stdDeviation="0.43664801"/>
  </filter>
 </defs>
 <metadata id="metadata7">
  <rdf:RDF>
   <cc:Work rdf:about="">
    <dc:format>image/svg+xml</dc:format>
    <dc:type rdf:resource="http://purl.org/dc/dcmitype/StillImage"/>
   </cc:Work>
  </rdf:RDF>
 </metadata>
 <g id="layer2" fill-rule="evenodd">
  <path id="path2597" d="m80.725 77.975-15.533-10.274 0.081308-3.2705 21.568-8.8382 14.188 12.231-20.304 10.152z" fill-opacity=".66667" filter="url(#filter3200)"/>
  <path id="path4079" d="m57.059 73.708c-1.2894 0.91258-0.14137 2.0136 1.3856 2.6441 3.4873 2.0426 5.2448 2.8744 8.7321 4.917-0.79538 1.3737-2.5222-1.7381-2.2803-0.41782 0.30143 1.0235 1.5557 1.7966 2.3723 2.6803 0.41184 2.2385 2.1691 4.4158 2.5809 6.6543 1.17 0.068742 2.6311 0.33502 1.6271-0.82659-0.87479-2.1961-2.4834-4.5144-3.3582-6.7105 0.20015-1.24 1.6332 0.27517 2.4582 0.60347 2.5998 1.5217 5.1996 3.0433 7.7994 4.565 2.0533 0.34743 0.80861-0.99178-0.2785-1.3564-3.0319-1.861-6.0639-3.7219-9.0958-5.5829 0.71641-0.70301 0.12366-1.6143-0.63848-0.57506-1.0168-0.18169-2.0498-1.191-3.0708-1.6925-3.3211-2.0377-4.9125-2.8647-8.2337-4.9024zm1.1945 7.9318c-1.817 0.10394-2.9348 1.1269-2.0185 2.3267 0.64144 1.1952 2.9073 0.65879 4.2884 0.78541 1.7741-0.10146 0.9955-1.4885 1.1101-2.306 0.15047-0.65535-0.18671-0.46776-0.64937-0.36364 0.41935-0.60089-1.7203-0.24559-2.3958-0.42615l-0.33488-0.016268zm2.1975 0.80307c-0.44412 0.28952-1.122 0.31256-0.15896 0.054131l0.15896-0.054131zm-4.2145 0.020592c0.85318 0.2984 2.3831 0.36918 2.8827 0.32442-0.9288 0.12754-2.0097 0.095899-2.8827-0.32442zm4.5883 2.3886c-1.6866-0.12476-2.9871 0.47098-4.4023 0.83987-1.3271 0.40707-3.4526 3.1608-4.7154 3.6128 0.2063 1.8003 1.0202 2.7429 1.2812 4.5495 2.2889 1.1943 3.2726 2.0025 5.5616 3.1968 0.39096-0.74462 1.2323-2.8474 1.1855-3.6741-0.20957-0.87856-0.41913-1.7571-0.6287-2.6357-0.80033-0.47266-2.5903-1.5103-2.7598-1.6229 0.94375 0.73735 3.004 1.1631 2.9475 2.1749 0.36559 1.4905 0.7141 2.9814 1.0713 4.4723 2.7196-0.85111 5.4392-1.7022 8.1588-2.5533-0.48502-1.6885-0.97003-3.377-1.4551-5.0655-1.1822 0.3822-3.8408 1.2568-4.0793 1.3243 1.2133-0.52636 3.4902-0.96745 4.041-1.5469-2.0688-1.024-4.1376-2.048-6.2064-3.072z" fill-opacity=".66667" filter="url(#filter4117)"/>
  <path id="path3988" d="m40.706 33.527c-1.9419 1.1205-6.5433 2.4255-8.0262 3.8323-1.5033 1.121-1.087 2.2103-2.5236 3.3668-0.029634 1.1942 2.9502 0.73266 3.2462 1.8923 2.6213 0.61832 0.64147 3.114 1.5514 4.487 0.35564 1.4834 0.8445 2.9641 1.0445 4.4521 4.8309 2.5744 8.459 5.4441 14.702 7.1807-1.883-11.529 0.47476-13.382 2.349-2.382 6.944-1.3737 23.404-4.1618 26.155-10.143-0.17288-2.0752-6.551-3.457-7.6918-5.4741 1.6725-0.011619 1.1675-1.6064 2.9931-1.7058-0.26601-1.0563 2.7956-1.2085 0.41859-2.0528-30.341-15.37-16.556-7.8005-34.218-3.4539z" fill-opacity=".66667" filter="url(#filter4075)"/>
  <path id="path3361" d="m67.728 61.753 0.86179-0.97227 0.7955 0.55243 0.64082-0.7513 0.7513 0.66291 0.7292-1.4584 0.70711 0.41984 0.7734-0.99437 0.97227 0.44194 0.55243-0.95018 0.7955 0.86179 0.7513-1.5247 0.83969 0.59662 0.70711-0.48614 0.83969-0.088388 0.68501-0.99437 0.7513 0.37565 0.66291-1.5026 0.92808 0.7513 0.64082-0.55243 0.83969 0.30936 0.7292-0.64082 0.7734 0.44194 0.81759-0.99437 0.68501 0.41984 0.7955-0.97227 0.81759 0.26517 0.7292-0.88388 0.7955 0.37565 0.7292-0.97227 0.57452 0.30936 0.81759-1.2595 0.7955 0.7955 0.7292-0.022097s0.41984 1.0165 0.50823 1.0165 0.88388-0.066291 0.88388-0.066291l0.59662 0.88388 0.83969-0.15468 0.35355 1.2153 1.0607-0.66291 0.30936 1.7015 0.90598-0.39775 0.46404 1.3921 0.88388 0.022098 0.37565 1.0165 0.86178 0.044194 0.44195 1.0165 0.7292 0.24307 0.55243 1.37 0.90598-0.57452 0.41984 1.1932 0.95018-0.088388s0.35355 1.1049 0.44194 1.1049 0.86178-0.066291 0.86178-0.066291l0.46404 1.1711 0.83969-0.044194 0.48614 1.149 0.83969 0.022097 0.44194 1.0386 0.83969-0.19887 0.53033 1.2816 0.81759-0.044195 0.48614 1.1049 0.83969-0.15468 0.46404 1.2374-1.2374-0.15468-0.39775 0.92808-1.0165-0.83969-0.35355 1.3037-0.83969-0.39775-0.48613 1.0607-0.7734-0.17678-0.55243 0.7513-0.92808-0.97227-0.50823 1.127-0.68501-0.088388-0.55243 0.99437-0.90598-1.0828-0.53033 1.1711-0.7513 0.15468-0.53033 0.7734-0.7734-0.44194-0.46404 0.7513-0.79549-0.50823-0.68501 0.90598-0.70711-0.044194-0.57452 1.0828-0.64082-1.127-0.7292 1.9666-0.68501-0.50823-0.59662 0.39775-0.68501-0.83969-0.55243 1.1711-0.68501-0.44194-0.61872 0.97227-0.86179-1.7899-0.70711 2.9168-6.2314-3.5134-11.159-8.3306-6.2093-5.5022z" fill="url(#linearGradient3363)"/>
  <path id="path3348" d="m7.7119 60.228 0.57452 0.35355 0.44194 0.066291 0.41984-0.7955s0.7292 0.35355 0.88388 0.19887c0.15468-0.15468 0.44194-0.83969 0.44194-0.83969l0.99437 0.24307 0.39775-0.7734 0.90598 0.19887 0.53033-0.86179 0.81759 0.15468 0.59662-1.591 0.7955 0.99437 0.53033-0.7734 0.81759 0.22097 0.57452-0.53033 0.70711-0.11049 0.61872-0.90598 0.81759 0.26516 0.57452-1.0386 0.7513 0.39775 0.66291-1.1711 0.7292 0.55243 0.61872-0.59662 0.7734 0.044194 0.57452-0.7734 0.70711 0.15468 0.64082-0.66291 0.7292-0.044194 0.86179-1.0607 0.64082 0.44194 0.55243-0.57452 0.64082 0.11048 0.7734-1.127 0.83969 1.2153 0.88388 0.066292 0.66291 0.97227 0.7734-0.22097 0.86179 1.2374 0.7292-0.088388 0.7955 1.0828 0.81759-0.11048 0.7513 1.1049 0.86179 0.088389 0.7734 1.0165h0.81759l0.7513 0.90598 0.99437-0.066291 0.57452 1.1049 0.88388-0.37565 0.7955 1.5247 0.7292 0.13258 0.70711 0.86179 0.90598 0.17678 0.66291 0.7734 1.1711-0.53033 0.53033 1.6131 0.66291-0.022097 0.83969 1.0386 0.92808-0.19887 0.81759 1.149h0.7292l0.7292 1.0828h0.7734l0.7734 1.1711 0.7955 0.30936s-0.7292 1.9445-1.0165 2.0771c-0.28726 0.13258-16.551 7.2478-16.551 7.2478l-4.4636 1.9887s-2.1213-0.68501-2.3865-0.7955c-0.26516-0.11049-12.352-8.4632-12.352-8.4632l-10.607-8.4411-0.044194-0.7955z" fill="url(#linearGradient3350)"/>
  <path id="path3344" d="m33.079 78.414 0.17678 1.0607 0.022097 1.7678-0.088388 1.7678-0.64082 2.3865-0.28726 0.81759 1.1711 0.39775 3.3588-2.1434 15.048-7.2478 3.5797-1.8783 0.35355-3.867-0.33146-2.0329-0.28726-2.0108-0.7734 0.55243-0.44194 0.64082-0.24307 0.55243-0.81759-0.46404-0.64082 0.59662-0.66291 0.044194-0.7734 0.68501-0.7734-0.022097-0.66291 0.66291-0.53033-0.7513-0.88388 1.4584-0.68501-0.11048-0.7292 0.7292-0.66291-0.64082-0.83969 1.3479-0.57452-0.088388-0.7955 0.68501-0.66291-0.066292-0.7513 0.7734-0.7955-0.30936-0.61872 0.64082-0.53033-0.64082-0.88388 1.2153-0.68501 0.022097-1.4805 1.5026-0.68501-0.088388-0.81759 0.64082-0.57452-0.7734-0.7513 1.5247-0.68501-0.15468-0.66291 0.81759z" fill="url(#linearGradient3346)"/>
  <path id="path3338" d="m7.5832 60.209 0.48924 0.33635 0.58097 1.0091 1.2231 0.33635 0.2752 0.8256 1.1619 0.030578 0.39751 1.0396 1.1314 0.30578 0.42809 0.76444 1.1314 0.30578 0.76444 1.0702 0.73386-0.30578 0.39751 1.2231 1.0091-0.24462 0.51982 1.3148 1.1008 0.2752 0.39751 0.85617 1.0396-0.51982 0.58098 1.6206 0.88675 0.21404 0.61155 1.2231 0.8256-0.030577 0.67271 0.76444 0.85617 0.18347 0.64213 0.97848 0.88675 0.12231 0.51982 0.97848 1.0702-0.48924 0.58097 1.5595 0.79502 0.12231 0.76444 1.0091 0.79502-0.21404 0.70328 1.1008 0.85617-1.1314 0.70328 1.4371 0.12231 1.6818 0.061155 1.2843v1.0702l-0.64213 2.8437-0.88675 1.3454-24.431-18.713 0.36693-5.8097-0.12231-1.7735z" fill="url(#linearGradient3340)"/>
  <path id="path2591" d="m82.595 48.735 0.21622-9.4703 0.34595-0.47568 2.3382 1.8506 0.12231 2.1099 0.73386 0.5504 0.091733-1.6206 0.18346-0.51982 2.3239 2.0793 0.061155 2.1404 0.8256 0.61155 0.030578-1.7123 0.33635-0.36693 2.2627 1.8958-0.091733 2.0181 1.4983 1.2843 0.12231-1.6818 0.33635-0.39751 2.3239 1.957-0.18347 2.2016 1.8041 1.1619 0.091733-1.7429 0.36693-0.39751 2.2016 2.0181-0.09174 2.0487 1.6818 1.376 0.15289-1.8958 0.30578-0.42809 2.2627 2.0181-0.21405 2.2933 1.9264 1.3454 0.09173-1.957 0.2752-0.2752 2.3239 1.957v2.171l2.2016 1.6512 0.12231-1.5289 0.2752-0.45866 2.171 1.8652-0.06115 2.1099 1.9875 1.6818 0.09173-1.7735 0.36694-0.39751 2.2933 1.8958v2.2322l2.171 1.4983 0.03058-1.7429 0.30578-0.45866 2.2322 1.9875-0.91733 4.6478-1.8041-1.2231 0.03057-0.88675-2.1098-1.376 0.03058 4.8007-1.0702-0.061155-1.8041-1.3148 0.33636-5.6569-2.0793-1.4371 0.06116 4.9841-1.0396 0.030578-0.76444-3.2106-0.8256 0.30578-0.48924-1.1314 0.45867-3.2718-2.2628-1.4677-0.09173 1.957-2.9966-2.0487 0.55039-2.0793-1.7123-1.1619-0.33635 1.6818-2.7214-2.2322 0.42809-1.6206-1.7124-1.2537-0.03058 2.3239-2.8437-2.4462 0.33635-1.6818-1.8347-1.2537-0.21404 1.6818-2.5991-1.9264 0.061155-1.957-1.3454-0.97848-0.30578 1.7735-1.1008 0.58097-0.73386 1.2537-0.70328-0.30578 0.39751-5.4428-1.0702-0.58098 0.030578 5.3511-1.0091-0.15289-1.8958-1.376 0.2752-6.0238-0.9479-0.5504v5.4734l-0.97848-0.061155-1.8913-1.3837z" fill="url(#linearGradient2593)"/>
  <path id="path2595" d="m126.62 72.807-23.789-18.102-20.12-15.35-0.58098 0.21404-1.0396 1.7735 0.94791 0.97848 17.123 12.751 24.279 18.652 0.42809-0.42809 0.73386 0.12231 0.06116 0.97848 1.0396 0.58097 0.30578 0.51982 0.79502-0.18347-0.18347-2.5074z" fill="url(#linearGradient2597)"/>
  <path id="path2605" d="m82.688 43.438-1.1875 0.46875-0.40625 1.625 9.6562 7.5625 0.46875-0.5625 0.78125 0.84375 0.84375-0.0625 0.375 1.0312h0.90625l0.625 0.78125 0.78125-0.15625 0.40625 1.25 1.125-0.59375 0.28125 1.6562 0.84375-0.4375 0.5625 1.4375 0.8125-0.03125 0.34375 1.0625 0.8125-0.03125 0.5 1.2188 0.75 0.09375 0.59375 1.3438 0.8125-0.5 0.53125 1.0312 0.90625 0.03125 0.5 1.125 0.75-0.09375 0.46875 1.1875 0.78125-0.03125 0.5 1.0938 0.90625 0.0625 0.46875 1.0312 0.75-0.1875 0.59375 1.25 0.78125-0.09375 0.40625 1.125 1.0312-0.1875 0.34375 1.1562 6.6562 5.0312 0.59375 0.09375 0.1875 0.625 0.25 0.21875 0.90625-0.3125 0.15625-0.59375 0.21875-0.25 0.71875-0.5625-19.344-14.875-20.75-15.875zm42.875 32.844-0.84375 0.15625v1.1875l1.4062 0.90625-0.21875 0.9375 0.875-0.125-0.21875-2.3125-1-0.75z" fill="url(#linearGradient2607)"/>
  <path id="path2620" d="m126.03 78.375-0.9375-0.65625-21.719 9.0625-20.219 8.3438-0.25 1.5 0.4375 0.71875 1.0312 0.125 23.188-10.031 18.312-7.8438 0.15625-1.2188z" fill="url(#linearGradient2622)"/>
  <path id="path2624" d="m82.812 91.75 41.812-17.531 0.875 0.59375 0.28125 0.40625-0.40625 1.0312-26.906 11.5-14.625 6.2812-0.78125 0.03125-0.5-0.5 0.25-1.8125z" fill="url(#linearGradient2626)"/>
  <path id="path2634" d="m123.91 73.281-2.0625 1.6875 0.0625 7.2812 0.78125 0.5 2.2188-1-0.21875-8.25-0.78125-0.21875zm-3.5 1.75-0.875 0.03125-1.9688 1.5312 0.1875 7.3438 0.65625 0.34375 2.375-0.96875-0.375-8.2812zm-4.7812 1.4375-2.2188 1.6875 0.15625 7.4688 0.75 0.34375 2.3125-1.0625-0.28125-8.2188-0.71875-0.21875zm-4.5312 2.0312-2.2812 1.6875 0.1875 7.375 0.6875 0.4375 2.3438-1-0.34375-8.2188-0.59375-0.28125zm-4.9062 1.9688-2.2188 1.5938 0.1875 7.5 0.75 0.28125 2.2812-0.875-0.25-8.3438-0.75-0.15625zm-4.8125 2-2.125 1.625 0.09375 7.4688 0.65625 0.28125 2.4062-0.9375-0.21875-8.25-0.8125-0.1875zm-4.9375 2.1562-2.125 1.6875 0.125 7.375 0.78125 0.375 2.2812-0.96875-0.28125-8.25-0.78125-0.21875zm-5.0312 1.9062-2.1875 1.7188 0.1875 7.3438 0.71875 0.34375 2.2812-0.8125-0.25-8.375-0.75-0.21875zm-4.6875 1.75-2.0938 1.625 0.1875 7.3125 0.6875 0.46875 2.2188-0.90625-0.1875-8.3125-0.8125-0.1875z" fill="url(#linearGradient2658)"/>
  <path id="path2660" d="m5.9375 60.062-0.5 0.0625-0.375-0.28125v-4.0312l2.1562-1.5625 0.71875 0.15625v2.3438l2-0.875 0.03125-2.1562 2.2188-1.7812 0.6875 0.28125 0.15625 2.5 1.75-0.90625-0.03125-2.125 2.1562-1.7188 0.75 0.25 0.0625 2.25 1.8438-0.75 0.09375-1.8438 2.0625-1.75 0.75 0.15625 0.125 2.0625 1.5625-0.65625v-1.9062l2.1562-1.7188 0.75 0.21875 0.0625 2.0312 1.2812-0.5625-0.0625-1.625 2.1875-1.6875 0.65625 0.1875 0.125 1.9375 1.25-0.5-0.0625-1.5625 2.1562-1.625 0.6875 0.21875 0.375 8.25-2.25 0.90625-0.78125-0.375-0.125-4.5312-1.25 0.53125 0.15625 3.7188-0.8125-0.03125-0.875-1.2188-1.3125 1.0312-0.03125-2.1875-1.375 0.5 0.1875 1.5625-2.3125 1.2812-0.625-0.28125-0.0625-1.125-1.7188 0.8125 0.0625 1.4375-2.875 1.25-0.03125-1.4688-1.9688 0.78125 0.0625 1.5938-2.875 0.96875-0.09375-1.25-1.875 0.71875 0.09375 1.5-2.875 1.25-0.09375-1.375-2.0625 0.875 0.1875 1.3438-2.25 0.5z" fill="url(#linearGradient2662)"/>
  <path id="path2670" d="m3.2188 57.5 18.75-7.8438 13.625-5.75 0.875 0.6875-0.21875 1.1875-31.469 13.938-1.3438 0.3125-0.5-0.625 0.28125-1.9062z" fill="url(#linearGradient2672)"/>
  <path id="path2680" d="m5.5312 60.062 30.5-12.844 0.75 0.9375-0.21875 1.0312-5.8438 2.5-0.875-1.3125-0.65625 0.71875-1.625 0.6875-0.375-0.25-1.1562 1-3.9062 1.8125-0.53125-0.40625-0.6875 1.125-0.78125-0.3125-0.59375 0.8125-0.8125-0.1875-0.46875 0.96875-0.80972 0.097262-0.52158 0.58774-0.77611-0.1867-0.54885 0.6892-0.875-0.875-0.375 0.875c-0.29177 0.127-0.75465 0.21783-1.0763 0.55119-0.2104 0.2181-0.27097 0.70087-0.49422 0.80636-0.3266 0.15432-0.70858-0.33347-0.9968-0.14547-0.19601 0.12785-0.084482 0.52851-0.29251 0.63247-0.21586 0.10787-0.6786-0.21965-0.88612-0.10762-0.21551 0.11634-0.39514 0.53746-0.5994 0.63477-0.34156 0.16271-0.48909-0.23278-0.81432-0.06019-0.24198 0.12841-0.29525 0.71809-0.53475 0.82891l-0.91752-0.26238-0.087416 1.4338-0.42568 0.21945-1.6875-2z" fill="url(#linearGradient2682)"/>
  <path id="path2686" d="m2.9688 61.094 1.375-0.875 7.5 5.5938 21.438 16.312 28.062 21.281 0.15625 2.3438-1.125 0.21875-24.281-18.375-25.188-19.031-8.0625-6.1562 0.125-1.3125z" fill="url(#linearGradient2688)"/>
  <path id="path2690" d="m2.6875 65.188 1.375-0.875 7.5 5.5938 21.438 16.312 28.062 21.281 0.15625 2.3438-1.125 0.21875-24.281-18.375-25.188-19.031-8.0625-6.1562 0.125-1.3125z" fill="url(#linearGradient2692)"/>
  <path id="path2753" d="m2.6875 65.188 1.375-0.875 7.5 5.5938 21.438 16.312 28.062 21.281 0.15625 2.3438-1.125 0.21875-24.281-18.375-25.188-19.031-8.0625-6.1562 0.125-1.3125z" fill-opacity=".15686"/>
  <path id="path2751" d="m2.9688 61.094 1.375-0.875 7.5 5.5938 21.438 16.312 28.062 21.281 0.15625 2.3438-1.125 0.21875-24.281-18.375-25.188-19.031-8.0625-6.1562 0.125-1.3125z" fill-opacity=".15686"/>
  <path id="path2696" d="m4.7812 59.594-0.28125 0.4375-0.21875 9.5938 1.8438 1.375 1.0312 0.15625-0.03125-9.4688-2.3438-2.0938zm3.375 2.5938-0.1875 0.21875-0.21875 9.6562 1.875 1.5 1-0.03125-0.03125-9.4688-2.1562-1.8438-0.28125-0.03125zm3.4062 2.5312-0.1875 0.21875-0.21875 9.6562 1.875 1.5 1.0312 0.15625-0.0625-9.6562-2.1562-1.8438-0.28125-0.03125zm4.2188 3.1562-0.1875 0.21875-0.21875 9.6562 1.875 1.5 1-0.03125-0.03125-9.4688-2.1562-1.8438-0.28125-0.03125zm4.2812 3.25-0.1875 0.21875-0.21875 9.6562 1.875 1.5 1-0.03125-0.03125-9.4688-2.1562-1.8438-0.28125-0.03125zm4.3125 3.0938-0.1875 0.21875-0.21875 9.6562 1.875 1.5 1 0.25-0.03125-9.75-2.1562-1.8438-0.28125-0.03125zm4.375 3.4375-0.1875 0.21875-0.21875 9.6562 1.875 1.5 1-0.03125-0.03125-9.4688-2.1562-1.8438-0.28125-0.03125zm4.875 3.7188-0.1875 0.21875-0.21875 9.6562 1.875 1.5 1-0.03125-0.03125-9.4688-2.1562-1.8438-0.28125-0.03125zm4.5312 3.5312-0.1875 0.21875-0.21875 9.6562 1.875 1.5 1-0.03125-0.03125-9.4688-2.1562-1.8438-0.28125-0.03125zm4.875 3.5-0.1875 0.21875-0.21875 9.6562 1.875 1.5 1-0.03125-0.03125-9.4688-2.1562-1.8438-0.28125-0.03125zm4.1875 3.375-0.1875 0.21875-0.21875 9.6562 1.875 1.5 1-0.03125-0.03125-9.4688-2.1562-1.8438-0.28125-0.03125zm4.6562 3.4375-0.1875 0.21875-0.21875 9.6562 1.875 1.5 1-0.03125-0.03125-9.4688-2.1562-1.8438-0.28125-0.03125zm4.2812 2.9062-0.1875 0.21875-0.21875 9.6562 1.875 1.5 1-0.03125-0.03125-9.4688-2.1562-1.8438-0.28125-0.03125z" fill="url(#linearGradient2749)"/>
  <path id="path3332" d="m4.7812 59.594-0.28125 0.4375-0.21875 9.5938 1.8438 1.375 1.0312 0.15625-0.03125-9.4688-2.3438-2.0938zm3.375 2.5938-0.1875 0.21875-0.21875 9.6562 1.875 1.5 1-0.03125-0.03125-9.4688-2.1562-1.8438-0.28125-0.03125zm3.4062 2.5312-0.1875 0.21875-0.21875 9.6562 1.875 1.5 1.1562 0.0625-0.1875-9.5625-2.1562-1.8438-0.28125-0.03125zm4.2188 3.1562-0.1875 0.21875-0.21875 9.6562 1.875 1.5 1-0.03125-0.03125-9.4688-2.1562-1.8438-0.28125-0.03125zm4.2812 3.25-0.1875 0.21875-0.21875 9.6562 1.875 1.5 1-0.03125-0.03125-9.4688-2.1562-1.8438-0.28125-0.03125zm4.3125 3.0938-0.1875 0.21875-0.21875 9.6562 1.875 1.5 0.96875 0.09375v-9.5938l-2.1562-1.8438-0.28125-0.03125zm4.375 3.4375-0.1875 0.21875-0.21875 9.6562 1.875 1.5 1-0.03125-0.03125-9.4688-2.1562-1.8438-0.28125-0.03125zm4.875 3.7188-0.1875 0.21875-0.21875 9.6562 1.875 1.5 1-0.03125-0.03125-9.4688-2.1562-1.8438-0.28125-0.03125zm4.5312 3.5312-0.1875 0.21875-0.21875 9.6562 1.875 1.5 1-0.03125-0.03125-9.4688-2.1562-1.8438-0.28125-0.03125zm4.875 3.5-0.1875 0.21875-0.21875 9.6562 1.875 1.5 1-0.03125-0.03125-9.4688-2.1562-1.8438-0.28125-0.03125zm4.1875 3.375-0.1875 0.21875-0.21875 9.6562 1.875 1.5 1-0.03125-0.03125-9.4688-2.1562-1.8438-0.28125-0.03125zm4.6562 3.4375-0.1875 0.21875-0.21875 9.6562 1.875 1.5 1-0.03125-0.03125-9.4688-2.1562-1.8438-0.28125-0.03125zm4.2812 2.9062-0.1875 0.21875-0.21875 9.6562 1.875 1.5 1-0.03125-0.03125-9.4688-2.1562-1.8438-0.28125-0.03125z" fill-opacity=".15686"/>
  <path id="path3334" d="m126.62 72.807-23.789-18.102-20.12-15.35-0.58098 0.21404-1.0396 1.7735 0.94791 0.97848 17.123 12.751 24.279 18.652 0.42809-0.42809 0.73386 0.12231 0.06116 0.97848 1.0396 0.58097 0.30578 0.51982 0.79502-0.18347-0.18347-2.5074z" fill-opacity=".15686"/>
  <path id="path3336" d="m82.688 43.438-1.1875 0.46875-0.40625 1.625 9.6562 7.5625 0.46875-0.5625 0.78125 0.84375 0.84375-0.0625 0.375 1.0312h0.90625l0.625 0.78125 0.78125-0.15625 0.40625 1.25 1.125-0.59375 0.28125 1.6562 0.84375-0.4375 0.5625 1.4375 0.8125-0.03125 0.34375 1.0625 0.8125-0.03125 0.5 1.2188 0.75 0.09375 0.59375 1.3438 0.8125-0.5 0.53125 1.0312 0.90625 0.03125 0.5 1.125 0.75-0.09375 0.46875 1.1875 0.78125-0.03125 0.5 1.0938 0.90625 0.0625 0.46875 1.0312 0.75-0.1875 0.59375 1.25 0.78125-0.09375 0.40625 1.125 1.0312-0.1875 0.34375 1.1562 6.6562 5.0312 0.59375 0.09375 0.1875 0.625 0.25 0.21875 0.90625-0.3125 0.15625-0.59375 0.21875-0.25 0.71875-0.5625-19.344-14.875-20.75-15.875zm42.875 32.844-0.84375 0.15625v1.1875l1.4062 0.90625-0.21875 0.9375 0.875-0.125-0.21875-2.3125-1-0.75z" fill-opacity=".15686"/>
  <path id="path3353" d="m67.688 61.75 1.5625 0.3125 0.375 1.4062 0.96875-1.0312 0.5 2.2188 0.875-0.34375 0.65625 1.4062 0.8125-0.25 0.79956 1.4154 0.63794-0.38415 0.71875 1.5312 0.71875-0.46875 0.75 1.2188 0.71875-1.0938 0.8125 2.0625 0.09375 0.03125 0.5-0.21875 0.875 1.2812 0.5625-0.34375 0.71875 1.4062 0.78125-0.40625 0.65625 1.4688 0.71875-0.375 0.96875 1.4375 0.75-0.4375 0.625 1.6562 0.84375-0.3125 0.65625 2.1562 0.65625-1.1562 0.6875 1.0312 0.59375-0.65625 0.6875 1.7812 0.6875-0.3125 0.6875 1.2188 0.125 3.375-0.1875 2-0.5625 1.5312-9.2812-7.2812-7.1875-5.4375-6.4688-4.5-0.5-2.4688 0.28125-3.375 0.125-1.0938z" fill="url(#linearGradient3355)"/>
  <path id="path3357" d="m91.312 78.938 0.71875-2.5938 0.875 1.7812 0.625-1.1875 0.625 0.59375 0.625-1.2188 0.71875 0.875 0.5-0.5 0.78125 0.59375s0.53125-2.0312 0.65625-1.9688 0.65625 1.0625 0.65625 1.0625l0.6875-1.1875 0.65625 0.15625 0.625-0.96875 0.75 0.5625 0.5625-0.84375 0.75 0.59375 0.5625-0.90625 0.59375-0.09375 0.65625-1.125 0.875 1 0.5-0.875 0.71875-0.03125 0.5625-1.0938 0.8125 0.90625 0.59375-0.625 0.71875 0.15625 0.625-1 0.75 0.34375 0.40625-1.3125 0.96875 0.84375 0.46875-0.96875 1.1875 0.28125 0.21875 1.3438 0.28125 1.25 0.25 0.9375-0.0625 2.0312-1.1875 0.78125-2.8438 1.2188-3.2188 1.0938-4.625 1.625-1.9375 1.0938-4.1875 2.5-3.25 1.4062-1.8438 0.5 0.625-1.625 0.21875-2-0.25-2.0625v-1.3438z" fill="url(#linearGradient3359)"/>
  <path id="path3801" d="m54.052 84.889-0.2708 8.3406 6.1201 5.416 0.2708-0.2708-0.16248-7.5282-5.9576-5.9576z" fill="url(#linearGradient3803)"/>
  <path id="path3805" d="m60.117 90.792 8.3948-3.8995 0.37912 7.6907-8.6656 3.8995-0.16248-7.4741 0.054159-0.21664z" fill="url(#linearGradient3807)"/>
  <path id="path3809" d="m54.322 84.835 6.9866-2.8705 1.6248-0.05416 5.7409 4.8202-8.5031 4.1162-6.0659-5.7409 0.21664-0.2708z" fill="url(#linearGradient3811)"/>
  <path id="path3813" d="m56.164 85.105 5.9034-2.3289v5.5243l-1.9498 0.64992-3.9537-3.8454z" fill="url(#linearGradient3815)"/>
  <path id="path3817" d="m62.176 82.939-0.05416 5.3618 4.2245-1.679-4.1703-3.6829z" fill="url(#linearGradient3819)"/>
  <path id="path3821" d="m60.009 63.171 21.231 22.639-0.59576 0.8124-0.75824-0.21664-20.635-20.852-0.10832-0.97488 0.86656-1.4082z" fill="url(#linearGradient3823)"/>
  <path id="path3825" d="m67.916 75.086 1.029 1.7873 0.5416 0.16248 2.0581-2.1664 0.8124-0.86656 0.16248 0.59576-1.8414 3.9537 1.4082 11.157-0.43328 0.37912h-2.1664l0.16248-10.29-1.354-2.2747-0.48744-1.5165 0.10832-0.92072z" fill="url(#linearGradient3827)"/>
  <path id="path3829" d="m58.709 78.227 1.0832 0.59576 1.354 0.05416 1.4082-0.2708 1.7873-1.2457-0.43328 3.8995s-1.4082 0.59576-1.6248 0.59576c-0.21664 0-2.2206-0.21664-2.2206-0.21664s-1.2457 0.05416-1.2998-0.16248c-0.05416-0.21664-0.37912-3.033-0.37912-3.033l0.32496-0.21664z" fill="url(#linearGradient3831)"/>
  <path id="path3833" d="m58.818 78.281 0.70408-0.8124 1.5165-0.43328 2.9246 0.21664-0.48744 0.8124-1.4082 0.64992-1.6248 0.10832-1.6248-0.5416z" fill="url(#linearGradient3835)"/>
  <path id="path3837" d="m54.052 84.889-0.2708 8.3406 6.1201 5.416 0.2708-0.2708-0.16248-7.5282-5.9576-5.9576z" fill-opacity=".15686"/>
  <path id="path3839" d="m62.176 82.939-0.05416 5.3618 4.2245-1.679-4.1703-3.6829z" fill-opacity=".15686"/>
  <path id="path3841" d="m56.164 85.105 5.9034-2.3289v5.5243l-1.9498 0.64992-3.9537-3.8454z" fill-opacity=".15686"/>
  <path id="path3863" d="m52.497 45.924 0.043244 14.659 17.6-8.4324 10.638-4.8865 0.17297-3.373-0.086486-4.7568-0.95135-5.0162s-27.243 11.373-27.416 11.805z" fill="url(#linearGradient3865)"/>
  <path id="path3843" d="m67.438 14.469-10.906 3.8125-11.906 4.1562-0.0625 0.0625c2.011 1.889 2.6042 3.5417 3.9062 5.3125 2.3975 5.1541 3.3877 10.402 4.2812 15.656l0.40625 2.6562 0.125 0.03125 0.34375-0.125 0.375-0.46875 0.5-0.71875 0.75 0.25 0.75 0.1875 1.0938-1.2812 0.75 0.28125 0.46875 0.21875 0.40625-0.1875 0.53125-0.78125 0.53125-0.28125 0.96875 0.1875 0.625-0.71875 0.9375-0.65625 0.3125 0.46875 0.40625 0.28125 0.71875-0.5625 0.78125-0.65625 0.6875 0.28125 0.4375-0.03125 0.53125-0.5625 0.59375-0.53125 1.125 0.09375 1.0938-0.96875h0.59375l0.5 0.0625 0.4375-0.4375 0.75-0.90625 0.375 0.09375 0.6875 0.15625 1.1562-1.25 1.9375-0.15625 0.65625-0.6875 0.65625-1.0312 0.65625-0.34375 0.90625-0.21875 0.71875-0.3125 0.59375 0.0625 1.4062-0.21875 0.65625-1.6875 0.96875-0.4375 0.6875-0.375 0.28125-1.0312 0.375-0.53125 1.1875-0.53125-3.7188-3.875-8.3438-7.3438-3.5938-2.7188-2.0938-1.6875z" fill="url(#linearGradient3857)"/>
  <path id="path3859" d="m36.875 37.469-0.375 5.8438 0.3125 5 0.03125 2.6562 2.7812 2.1875 4.3125 2.7188 8.5 4.6562 0.03125-14.812-15.594-8.25z" fill="url(#linearGradient3861)"/>
  <path id="path3867" d="m39.005 41.124-0.38919 7.1351-0.51892-0.34595v2.1189l8.2595 4.5838 0.56216-1.9027-0.64865-0.51892 0.56216-7.0054-7.827-4.0649z" fill="url(#linearGradient3869)"/>
  <path id="path3871" d="m39.906 42.344v2.875l2.375 1.125 0.125-0.15625 0.28125-2.4375-2.7812-1.4062zm3.9062 2.1562-0.1875 2.1562 0.28125 0.53125 1.75 0.6875 0.125-2.5625-1.9688-0.8125zm-4.1562 1.9062-0.125 2.4062 2.5938 1.25s0.093749-1.8895 0.09375-2.0625c0-0.17297-0.1875-0.53125-0.1875-0.53125l-2.375-1.0625zm3.9375 1.9688-0.21875 2.4375 2.1562 1.1562-0.03125-2.75-1.9062-0.84375z" fill="#d59163"/>
  <path id="path3880" d="m36.875 37.469-0.375 5.8438 0.3125 5 0.03125 2.6562 2.7812 2.1875 4.3125 2.7188 8.5 4.6562 0.03125-14.812-15.594-8.25z" fill-opacity=".15686"/>
  <path id="path3845" d="m44.716 22.462-3.4344 2.632-4.0625 4.3438-3.6875 4.1562 0.09375 1.0625 0.21875 0.4375 0.65625-0.03125 0.59375 0.21875 0.40625 1.4062 0.5625 0.25 0.84375 0.40625 0.25 1.1562 0.40625 0.3125h0.78125l0.25 0.1875 0.34375 0.8125 0.5 0.5625 1.4375 0.4375 0.5625 0.9375 1.5312 0.34375 0.21875 0.28125 0.0625 0.5625 0.6875 0.09375 1.1875 0.1875 0.34375 0.875 0.34375 0.1875 0.90625 0.125 0.5625 0.15625 0.5625 0.84375 1 0.15625 1.125 0.125 0.625 0.75 0.5 0.0625 1.1875-0.5 0.95159 0.125-0.48284-2.6562c-0.8935-5.2543-1.8837-10.502-4.2812-15.656-1.3021-1.7708-1.7421-3.4618-3.7531-5.3508z" fill="url(#linearGradient3855)"/>
  <path id="path3884" d="m69.959 52.074-0.26516-10.651 5.4801-2.1655 0.35355 10.43-5.5685 2.3865z" fill="url(#linearGradient3886)"/>
  <path id="path3888" d="m68.766 52.826 1.591 0.97227 8.3527-3.7565-1.37-1.3258-8.5737 4.1101z" fill="url(#linearGradient3890)"/>
  <path id="path3892" d="m70.446 53.886 8.3969-3.8891 0.13258 1.812-8.1759 3.6239-0.35355-1.5468z" fill="url(#linearGradient3894)"/>
  <path id="path3896" d="m60.679 48.671-1.4805 0.044194-1.3258 0.7513-1.0165 1.1049-1.3479 1.812-0.55243 2.0771 0.48614 3.5355 0.7292 1.127 1.3921 0.81759 0.68501 0.15468 0.7955 0.13258 1.149-0.28726s-0.66291-0.044194-0.97227-0.066291-1.7899-0.57452-1.7899-0.57452l-1.2153-1.5468-0.46404-2.0992 0.24307-2.3423 0.61872-1.4584 0.68501-1.0607 0.99437-1.0165 0.92808-0.53033 1.4584-0.57452z" fill="url(#linearGradient3898)"/>
  <path id="path3900" d="m59.684 49.666 0.61872-0.24307 0.7734 0.066291 0.88388 0.22097 0.95018 0.66291 0.81759 1.6794 0.044194 1.0828-0.022097 0.92808-0.22097 1.2816-0.81759 1.6573 0.35355-1.2374 0.17678-1.4142-0.022097-1.4584-0.53033-1.5247-1.0165-1.1049-0.99437-0.44194-0.99437-0.15468z" fill="url(#linearGradient3902)"/>
  <path id="path3907" d="m60.413 53.025-1.3037 0.044194c-0.52421 0.16362-0.5764 0.52953-0.70711 0.86179l-0.13258 0.57452 0.33146 0.99437 0.61872 0.37565 0.59662-0.11048-0.37565-0.30936-0.24307-0.57452 0.088388-1.0165 0.30936-0.44194 0.41984-0.30936 0.39775-0.088388z" fill="url(#linearGradient3909)"/>
  <path id="path3911" d="m60.679 48.671-1.4805 0.044194-1.3258 0.7513-1.0165 1.1049-1.3479 1.812-0.55243 2.0771 0.48614 3.5355 0.7292 1.127 1.3921 0.81759 0.68501 0.15468 0.7955 0.13258 1.149-0.28726s-0.66291-0.044194-0.97227-0.066291-1.7899-0.57452-1.7899-0.57452l-1.2153-1.5468-0.46404-2.0992 0.24307-2.3423 0.61872-1.4584 0.68501-1.0607 0.99437-1.0165 0.92808-0.53033 1.4584-0.57452z" fill-opacity=".15686"/>
  <path id="path3913" d="m59.684 49.666 0.61872-0.24307 0.7734 0.066291 0.88388 0.22097 0.95018 0.66291 0.81759 1.6794 0.044194 1.0828-0.022097 0.92808-0.22097 1.2816-0.81759 1.6573 0.35355-1.2374 0.17678-1.4142-0.022097-1.4584-0.53033-1.5247-1.0165-1.1049-0.99437-0.44194-0.99437-0.15468z" fill-opacity=".15686"/>
  <path id="path3915" d="m60.413 53.025-1.37 0.088388c-0.34688 0.13926-0.52873 0.44354-0.64082 0.81759l-0.13258 0.57452 0.33146 0.99437 0.61872 0.37565 0.59662-0.11048-0.37565-0.30936-0.24307-0.57452 0.088388-1.0165 0.30936-0.44194 0.41984-0.30936 0.39775-0.088388z" fill-opacity=".15686"/>
  <path id="path3917" d="m60.906 48.781-1.3438 0.25-1 0.53125-1.25 1.0625-1 1.8125-0.375 1.4688-0.21875 1.4688 0.4375 2.2188 0.8125 1.25 1 0.84375 1.5938 0.21875 1.5-0.53125 1.875-1.5625 1-2.1562 0.375-1.7812-0.0625-1.875-0.8125-1.9688-1-0.9375-1.5312-0.3125zm0.09375 0.6875 1 0.25 1.1875 1.2188 0.28125 0.6875 0.3125 1.5312-0.09375 1.3125-0.28125 1-0.3125 0.84375-0.3125 0.65625-1.25 1.375-1.4062 0.75-0.84375 0.03125-0.84375-0.25-0.90625-0.5625-0.6875-1.1875-0.375-1.4062 0.09375-1.5 0.375-1.6875 0.84375-1.375 1-1 1.4375-0.65625 0.78125-0.03125z" fill="url(#linearGradient3922)"/>
  <path id="path3924" d="m58.845 50.24 0.33146 2.8947 0.088388 0.19887 0.30936-0.066291 0.15468-0.22097-0.088388-3.3367-0.7734 0.41984-0.022097 0.11049z" fill="url(#linearGradient3926)"/>
  <path id="path3928" d="m60.369 53.025 1.6352-2.7621 0.48614 0.15468s0.39775 0.35355 0.26516 0.50823c-0.13258 0.15468-1.7899 2.3202-1.7899 2.3202l-0.59662-0.22097z" fill="url(#linearGradient3930)"/>
  <path id="path3932" d="m61.165 53.798 2.2981-0.50823 0.17678 0.37565-0.17678 0.61872-2.276-0.022097-0.022097-0.46404z" fill="url(#linearGradient3934)"/>
  <path id="path3936" d="m60.988 54.991 1.8562 1.5689-0.33146 0.68501-1.7899-1.9004 0.26516-0.35355z" fill="url(#linearGradient3938)"/>
  <path id="path3940" d="m59.662 59.079-0.022097-3.425s0.61872-0.088388 0.61872 0.022097c0 0.11049 0.26516 3.2925 0.26516 3.2925l-0.86179 0.11049z" fill="url(#linearGradient3942)"/>
  <path id="path3944" d="m57.209 57.687 1.6794-2.3423 0.26516 0.066291 0.15468 0.22097-1.6131 2.74-0.48614-0.68501z" fill="url(#linearGradient3946)"/>
  <path id="path3948" d="m56.502 54.704 2.1876-0.15468 0.13258 0.26516-0.066292 0.24307-2.2981 0.57452-0.022097-0.68501 0.17678-0.28726-0.11049 0.044194z" fill="url(#linearGradient3950)"/>
  <path id="path3952" d="m57.298 51.876 1.8783 1.7457-0.066291 0.30936-0.24307 0.30936-1.9004-1.5247 0.15468-0.46404 0.17678-0.37565z" fill="url(#linearGradient3954)"/>
  <path id="path3956" d="m59.286 53.864-0.088388 0.97227 0.24307 0.66291 0.59662 0.13258s0.44194-0.088388 0.50823-0.17678c0.066292-0.088388 0.55243-0.7292 0.55243-0.7292l0.066292-1.0386c-0.086982-0.35496-0.36458-0.51931-0.68501-0.64082l-0.37565 0.066291-0.44194 0.28726-0.37565 0.46404z" fill="url(#linearGradient3958)"/>
  <path id="path3960" d="m59.795 54.328 0.22097-0.48614 0.64082-0.022097 0.088388 0.48614-0.066291 0.46404-0.33146 0.37565-0.33146-0.044194-0.26516-0.46404 0.044194-0.30936z" fill-opacity=".15686"/>
  <path id="path3962" d="m51.575 17.691-0.044194 2.2539 2.9168-0.97227-2.8726-1.2816z" fill="url(#linearGradient3964)"/>
  <path id="path3966" d="m51 14.023 5.7452 2.961-0.13258 1.2374s-2.0329 0.7955-2.2097 0.7513-3.4471-1.591-3.4471-1.591l0.044194-3.3588z" fill="url(#linearGradient3968)"/>
  <path id="path3970" d="m56.569 16.631 6.3198-1.9887 0.17678 0.088388v1.2374l-6.4523 2.2097-0.044194-1.5468z" fill="url(#linearGradient3972)"/>
  <path id="path3974" d="m56.569 16.807s-5.8778-2.6958-5.3475-2.8726c0.53033-0.17678 5.4359-2.6516 6.0104-2.3865s5.4359 3.0936 5.4359 3.0936l-6.0988 2.1655z" fill="url(#linearGradient3976)"/>
  <path id="path3978" d="m54.491 14.067 2.3865-1.2374s3.3588 1.7678 2.74 1.7236c-0.61872-0.044195-3.0052 1.1049-3.0052 1.1049l-2.1213-1.591z" fill="url(#linearGradient3980)"/>
  <path id="path3982" d="m51.575 17.691-0.044194 2.2539 2.9168-0.97227-2.8726-1.2816z" fill-opacity=".15686"/>
  <path id="path3984" d="m51 14.023 5.7452 2.961-0.13258 1.2374s-2.0329 0.7955-2.2097 0.7513-3.4471-1.591-3.4471-1.591l0.044194-3.3588z" fill-opacity=".15686"/>
  <path id="path3986" d="m54.491 14.067 2.3865-1.2374s3.3588 1.7678 2.74 1.7236c-0.61872-0.044195-3.0052 1.1049-3.0052 1.1049l-2.1213-1.591z" fill-opacity=".15686"/>
  <path id="path4121" d="m68.8 53.059c0.34595 0.25946 1.6432 0.60541 1.6432 0.60541l0.086487 1.6432-1.7297-0.86486 0.21622-1.2973" fill="url(#linearGradient4123)"/>
 </g>
 <g id="layer1">
  <path id="path2801" d="m57.219 11.438-6.4688 2.5625v3.5312l0.65625 0.28125 0.0625 2.0312-6.5625 2.3125c-4.7045 2.9084-7.967 7.4029-11.562 11.531 0.2182 0.40999 0.013896 1.0579 0.25 1.4375 0.2361 0.37957 1.1219-0.070262 1.375 0.28125 0.25307 0.35151 0.29339 1.2367 0.5625 1.5625 0.26911 0.32581 0.99703 0.19753 1.2812 0.5h-0.09375c-0.38847 2.2354-0.42108 4.5142-0.34375 6.8125l-0.65625-0.71875-0.25 0.09375-0.03125-0.71875-0.8125-0.15625-2.25 1.75 0.03125 0.4375-1.0625 0.46875-0.0625-0.90625-0.8125-0.1875-2.25 1.75 0.03125 0.65625-1.0625 0.46875-0.0625-1.0312-0.84375-0.1875-2.25 1.75 0.03125 0.78125-1.4688 0.625-0.0625-0.96875-0.8125-0.15625-2.25 1.75 0.03125 0.6875-1.75 0.75-0.0625-1.125-0.8125-0.1875-2.25 1.75 0.03125 0.90625-1.6562 0.6875-0.0625-1.125-0.84375-0.1875-2.25 1.75 0.03125 0.90625-1.8438 0.78125-0.0625-1.0625-0.8125-0.1875-2.25 1.75 0.03125 0.8125-1.9688 0.84375-0.125 1.9375 0.5625 0.71875 0.96875-0.125v0.09375l-0.90625 0.3125c-1.0054 0.42318-0.96459 1.2181-0.71875 2.2812l1.0312 0.78125 0.46875 0.375v0.25l-0.96875 0.34375c-1.0054 0.42318-0.96459 1.2181-0.71875 2.2812l1.5938 1.1875-0.0625 1.7812 1.9062 1.4375 1.25 0.09375v-0.96875l0.375 0.3125-0.03125 1.625 1.9062 1.4375 1.25 0.09375v-0.8125l0.375 0.28125-0.03125 1.625 1.9062 1.4375 1.25 0.09375v-0.8125l1 0.78125-0.03125 1.625 1.9062 1.4375 1.25 0.09375v-0.8125l1.25 0.96875-0.03125 1.5625 1.9062 1.4375 1.25 0.09375v-0.75l1.125 0.875-0.03125 1.4688 1.9062 1.4375 1.25 0.09375v-0.6875l1.25 0.96875-0.03125 1.5625 1.9062 1.4375 1.25 0.09375v-0.75l1.75 1.3438-0.03125 1.625 1.9062 1.4375 1.25 0.09375v-0.8125l1.5 1.1562-0.03125 1.625 1.9062 1.4375 1.25 0.09375v-0.8125l1.5938 1.2188 0.03125-0.65625-1.625-1.25v-1.5625l1.6875 1.3125-0.09375 3.7188 1.9062 1.4375 1.25 0.09375v-0.71875l1.0312 0.75-0.0625 1.6875 1.9062 1.4375 1.25 0.09375v-0.875l1.5312 1.125-0.0625 1.7188 1.9062 1.4375 1.25 0.09375v-0.875l1.125 0.84375-0.03125 1.375 1.9062 1.4375 1.25 0.09375v-0.53125l1.5 1.125 1.3438-0.34375-0.1875-2.5312-2.6562-2.0312v-0.4375l1.6875 1.3125 1.3438-0.34375-0.1875-2.5312-2.875-2.1875v-1.25l-2.5-2.0938-0.34375 0.4375-0.03125 0.75-1.375-1.0625v-0.90625l-2.5-2.0938-0.34375 0.4375v0.375l-1.7812-1.3438v-0.875l-2.5-2.0938-0.34375 0.4375v0.40625l-1.2812-0.96875v-1.0312l-2.5-2.0938-0.34375 0.4375v0.53125l-1.9062-1.4688v-0.90625l-2.5-2.0938-0.34375 0.4375v0.40625l-1.0938-0.84375 18.594-9.1875c0.084117-0.42152 0.12231-0.84419 0.15625-1.25 0.002725-0.032581 0.028776-0.061282 0.03125-0.09375 0.45816-2.2963 0.2574-3.5676-0.25-4.875-0.064443-0.66643-0.10938-1.344-0.125-2.0312l-0.9375-0.1875-0.75-1.2188-0.6875-0.125-0.84375-0.90625-0.78125-0.125-0.78125-1.0312-0.78125 0.03125-1-0.875-0.625-0.15625-0.59375-1.4688-0.96875 0.46875-0.8125-0.6875-0.8125-0.34375-0.78125-0.78125-0.78125-0.25-0.78125-1.375-0.84375 0.375-0.59375-1.0938-0.96875 0.0625-0.78125-0.875-0.84375-0.15625-0.8125-0.90625-0.75-0.09375-0.8125-1.0312h-0.8125l-0.8125-1h-0.75l-0.84375-1.1875-0.78125 0.15625-0.59375-0.90625 0.96875-0.4375 0.03125 0.96875 0.78125 0.34375 2.4688-1-0.09375-1.7188 0.8125-0.375c0.016096 0.57481 0.064659 1.1461 0.0625 1.7188 4.8851 3.7459 10.389 6.7505 15.844 9.8125l3.5625-1.6875c0.66019 0.63311 1.6469 0.94377 3.0312 1.0625 1.0047-0.1027 1.9251-0.55955 2.6562-1.1875 0.56468-0.42907 1.0745-0.92685 1.5-1.5 0.43806-0.71201 0.78396-1.4798 1-2.2812l4.4062-2.0938v1.5l1.3438 0.6875 0.71875 0.40625 8.5-3.9688-0.09375-1.6875-1.375-1.25 3.2188-1.5312c-0.012684-0.48511-0.009077-0.96347 0-1.4375l1.5938 1.2188-0.0625 1.75 1.9062 1.4375 1.25 0.09375v-0.9375l0.40625 0.3125-0.0625 1.5938 1.9062 1.4375 1.25 0.09375v-0.78125l0.40625 0.3125-0.0625 1.3438-0.4375 0.53125-0.78125-0.3125-0.75 0.90625-0.78125-0.34375-0.8125 1-0.71875-0.4375-0.71875 1-0.8125-0.4375-0.75 0.65625-0.8125-0.34375-0.71875 0.5625-0.90625-0.78125-0.59375 1.5625-0.8125-0.46875-0.71875 1.125-0.8125-0.03125-0.625 0.53125-0.90625-0.65625-0.71875 1.625-0.8125-0.84375-0.59375 0.96875-0.9375-0.46875-0.78125 0.84375-0.6875-0.3125-0.71875 1.4688-0.8125-0.6875-0.53125 0.78125-0.84375-0.53125-1 1c-0.12716 2.3958-0.77711 4.7917 0 7.1875 5.7457 3.2366 14.967 10.921 23.125 17.281 4.8941-0.93082 7.5867-3.7463 11.375-5.625 3.9139-1.5009 7.6693-2.3322 11.75-4.5 0.29346-1.4709 0.03485-2.683-0.21875-3.9688l1.0312 0.09375v-0.65625l1.5312 1.1562-0.0625 1.4688 1.9062 1.4375 0.65625 0.0625-1.1875 0.90625 0.03125 0.59375-1.0938 0.4375-0.03125-0.9375-0.84375-0.1875-2.25 1.75 0.03125 0.6875-1.5 0.59375-0.03125-0.84375-0.8125-0.15625-2.25 1.75 0.03125 0.53125-1.7812 0.75-0.03125-0.96875-0.8125-0.1875-2.25 1.75 0.03125 0.65625-1.6875 0.71875-0.03125-0.90625-0.84375-0.1875-2.25 1.75 0.03125 0.625-1.875 0.78125-0.03125-0.78125-0.8125-0.1875-2.25 1.75v0.5l-1.9062 0.78125-0.03125-0.9375-0.84375-0.1875-2.25 1.75 0.03125 0.65625-1.5312 0.65625-0.0625-1.125-0.8125-0.1875-2.25 1.75 0.03125 0.84375-1.9375 0.8125-0.125 1.9375 0.5625 0.71875 1.0938-0.125 0.5-0.21875v0.375l-1.6562 0.6875-0.15625 1.9375 0.59375 0.6875 1.0625-0.09375 0.25-0.09375v0.09375l0.78125 0.34375 2.4688-1-0.03125-0.84375 1.4062-0.59375v0.34375l0.78125 0.34375 2.4688-1-0.0625-1.0625 1.8125-0.78125 0.03125 0.59375 0.78125 0.34375 2.4688-1-0.0625-1.3125 1.75-0.71875v0.5l0.78125 0.34375 2.4688-1-0.0625-1.2188 1.5938-0.6875v0.53125l0.78125 0.34375 2.4688-1-0.0625-1.25 1.625-0.71875 0.03125 0.75 0.78125 0.34375 2.4688-1-0.0625-1.4688 1.3438-0.59375 0.03125 0.6875 0.78125 0.34375 2.4688-1-0.0625-1.4062 0.96875-0.40625 0.03125 0.8125 0.78125 0.34375 2.4688-1-0.0625-1.5312 0.9375-0.40625 0.03125 1.0312 0.78125 0.34375 2.4688-1-0.09375-1.75 0.96875-0.40625c0.01126-0.028744 0.02032-0.035526 0.03125-0.0625l0.875-0.21875-0.1875-2.5312-1-0.78125c0.0718-0.16229 0.13868-0.30497 0.1875-0.40625l1.1875-0.3125-0.1875-2.5312-2.9062-2.2188v-1.25l-2.5-2.0938-0.34375 0.4375-0.03125 0.6875-1.875-1.4375v-1.0938l-2.5-2.0938-0.34375 0.4375-0.03125 0.5625-1.75-1.3438v-1.0625l-2.5-2.0938-0.34375 0.4375-0.03125 0.53125-2-1.5312v-1.0938l-2.5-2.0938-0.34375 0.4375-0.03125 0.53125-1.5-1.125v-1.125l-2.5-2.0938-0.34375 0.4375-0.03125 0.5625-1.375-1.0625v-0.96875l-2.5-2.0938-0.34375 0.4375-0.03125 0.4375-1.5-1.1562v-0.875l-2.5-2.0938-0.34375 0.4375v0.375l-1.2812-1v-0.84375l-2.5-2.0938-0.34375 0.4375v0.34375l-0.65625-0.5v-0.8125l-2.5-2.0938-0.34375 0.4375v0.28125l-0.65625-0.5v-0.625l-2.5-2.0938-0.34375 0.4375v0.28125l-0.90625 0.3125c-0.37704 0.15869-0.59161 0.36722-0.71875 0.625-0.0053-1.7231-0.14588-3.4597-0.71875-5.2812 0.26154-0.00912 0.50267-0.029549 0.65625-0.125 0.50056-0.3111 0.38959-1.5247 0.84375-1.8438 0.45416-0.31904 0.93961-0.31408 1.3438-0.65625 0.40414-0.34216 0.33701-1.1508 0.6875-1.5312s1.113-0.34732 1.4062-0.78125c-5.5413-5.839-11.578-11.058-18.062-15.719l-4.0625 1.4375 0.0625-0.96875-6.0625-3.3125zm-0.09375 0.4375 4.8438 2.6562-5.375 2.0625-4.875-2.5938 5.4062-2.125zm-0.25 0.84375-2.8125 1.3438 2.5 1.75 3.25-1.2812-2.9375-1.8125zm-0.03125 0.375 0.0625 2.375-0.28125 0.125-1.875-1.4688 2.0938-1.0312zm0.28125 0.0625 2.1875 1.3125-2.1562 0.90625-0.03125-2.2188zm-5.875 1.0938 5.2188 2.8125-0.0625 1.0312-1.9375 0.6875-3.2812-1.4375 0.0625-3.0938zm16.031 0.4375c6.4642 4.5569 12.386 9.5861 17.438 15.438-0.2343 0.29202-0.68741 0.22336-1 0.53125-0.3126 0.30788-0.24211 1.2113-0.625 1.5312-0.38289 0.31998-1.0236 0.45295-1.4688 0.78125-0.44518 0.3283-0.40677 1.2296-0.90625 1.5625-0.49948 0.33285-1.548 0.072628-2.0938 0.40625-0.54577 0.33362-1.1972 0.32563-1.7812 0.65625-0.58406 0.33062-0.7294 1.3949-1.3438 1.7188-0.61435 0.32384-1.5196-0.063299-2.1562 0.25-0.33187 0.16332-0.75142 0.9964-1.0938 1.1562-0.34233 0.15985-0.67908-0.37534-1.0312-0.21875-0.35217 0.15659-0.82612 1.1277-1.1875 1.2812-0.36138 0.15354-0.63003-0.18194-1-0.03125-0.36997 0.15069-0.84082 0.85194-1.2188 1-0.37794 0.14806-0.64598-0.23939-1.0312-0.09375-0.38528 0.14564-0.82676 0.98157-1.2188 1.125-0.39199 0.14344-0.75816-0.42268-1.1562-0.28125-0.39809 0.14144-0.97144 1.0479-1.375 1.1875-0.40356 0.13964-0.43535-0.85681-0.84375-0.71875-0.4084 0.13807-1.0561 1.1133-1.4688 1.25-0.41262 0.1367-0.77128-0.16679-1.1875-0.03125-0.41623 0.13554-0.7058 1.0842-1.125 1.2188-0.4192 0.13459-0.9847-0.57135-1.4062-0.4375-0.42155 0.13385-0.67047 1.0229-1.0938 1.1562-0.42328 0.13332-1.0131-0.47675-1.4375-0.34375-0.34828 0.20159-0.54067 1.1365-0.90625 1.25-0.36558 0.11347-0.80934-0.21014-1.1875-0.15625-0.37816 0.053885-0.95776 0.53965-1.3438 0.5625-0.386 0.022851-0.6734-0.80162-1.0625-0.78125-0.37109-0.19931-1.6221-0.083543-2-0.28125-0.37786-0.1977-0.2739-0.73973-0.65625-0.9375-0.38234-0.19777-1.0842-0.019264-1.4688-0.21875-0.38453-0.19949-0.33432-0.89088-0.71875-1.0938-0.38443-0.20287-1.243-0.042093-1.625-0.25-0.38203-0.20791-0.028911-0.62914-0.40625-0.84375-0.37734-0.21461-1.1921-0.12078-1.5625-0.34375-0.37035-0.22297-0.29517-0.76701-0.65625-1s-1.1505-0.28658-1.5-0.53125c-0.34951-0.24467-0.38311-1.0545-0.71875-1.3125-0.33564-0.25801-0.86802 0.11676-1.1875-0.15625-0.19222-0.16426-0.30976-0.61316-0.40625-1 0.008567-0.06177 0.02221-0.1263 0.03125-0.1875h-0.0625c-0.053154-0.18066-0.09694-0.31911-0.1875-0.40625-0.30103-0.28967-0.90721-0.16076-1.1875-0.46875-0.28029-0.30799-0.274-1.2345-0.53125-1.5625-0.25725-0.32798-1.0493 0.25587-1.2812-0.09375-0.23192-0.34962 0.17305-0.97083-0.03125-1.3438 3.5506-4.1849 6.9454-8.7663 11.281-11.156l9.4688-3.3125 12.719-4.4688zm-4.4375 0.21875v0.9375l-6 2.0938 0.03125-0.96875 5.9688-2.0625zm3 2 0.0625 0.125c1.4981 1.559 2.8315 2.3314 4.5 4.6875l0.21875-0.0625c-1.4832-2.1361-3.1868-3.1701-4.7812-4.75zm-14.156 1.0312 2.375 1-2.3438 0.8125-0.03125-1.8125zm9.8125 2.75-0.1875 0.03125 2.4375 5.8125 0.03125-0.125c-0.85554-2.1809-1.5331-3.8598-2.2812-5.7188zm-5.0625 0.09375-0.15625 0.0625c2.1737 3.9103 4.3591 7.8186 5.8438 11.844l0.15625-0.03125c-1.5592-3.8849-3.7113-7.8755-5.8438-11.875zm11 1.75c2.2609 3.4446 4.7691 6.2775 6.7812 10.344l0.125-0.125c-1.6601-4.1287-4.5039-6.7914-6.75-10.188l-0.15625-0.03125zm-17.875 0.1875-0.1875 0.0625c1.574 2.8222 2.5935 5.6466 3.7188 8.4688l0.0625-0.09375c-1.0981-2.7867-2.0533-5.5402-3.5938-8.4375zm-3.9062 0.75-0.0625 0.28125c4.7003 5.8034 5.7239 12.801 7.125 19.656h0.1875c-1.3925-6.8131-2.3502-13.888-7.25-19.938zm27.438 1.1562 5.0312 7.6562 0.1875-0.0625-5.0938-7.5625-0.125-0.03125zm-7.1875 2.2812-0.1875 0.03125 3.3125 8.5312 0.125-0.0625-3.25-8.5zm-20.375 0.125c-1.4448 2.5337-2.705 5.1376-3.5625 7.9062l0.21875-0.1875c0.7233-2.7982 2.1143-5.2674 3.5312-7.7188h-0.1875zm-4.0938 0.53125c-2.3669 2.1287-3.8122 4.4229-5.6562 6.6562l0.1875 0.09375c1.6935-2.2664 3.2196-4.5635 5.4688-6.7188v-0.03125zm37 0.0625-0.15625 0.0625 3.1562 3.4062c0.050321-0.02027 0.095004-0.060928 0.15625-0.09375l-3.1562-3.375zm3.1562 3.375 0.03125 0.03125c0.68302-0.46239 0.2933-0.20518-0.03125-0.03125zm-12.656-0.71875 3.4375 5.5h0.21875l-3.5938-5.5h-0.0625zm-14.719 0.3125-0.125 0.0625c2.0878 3.8119 2.4996 7.7777 3.8125 11.719l0.21875-0.0625c-1.2982-3.9073-1.9569-7.8115-3.9062-11.719zm10.25 0.65625c1.1429 2.6388 2.332 5.1556 2.9062 8.125l0.1875-0.0625c-0.62376-2.6824-1.8045-5.3801-2.875-8.0625h-0.21875zm-22.156 0.75c-1.3489 1.6677-2.8041 3.1653-3.9375 5.1562l0.15625 0.09375c0.94284-2.1528 2.4916-3.5541 3.875-5.1562l-0.09375-0.09375zm5.375 0.09375c0.19099 3.2503-0.57497 6.3229-0.90625 9.4688h0.1875c0.28217-3.1161 0.95155-6.0483 0.8125-9.375l-0.09375-0.09375zm11.719 1.0312-0.21875 0.0625c1.0128 2.2527 2.3601 4.3047 2.8438 6.875l0.09375-0.0625c-0.22881-2.3838-1.758-4.5958-2.7188-6.875zm-14.375 0.4375-1.75 7.4375 0.1875 0.03125 1.75-7.25-0.1875-0.21875zm34.188 1.375c0.25505-0.020405 0.53251-0.004525 0.8125 0 0.76844 4.0795 0.9516 7.8936 0.5625 12.094l-3.2188 1.5312-0.125-0.125-1.4688 0.8125-0.4375-10.375-6.0938 2.5312 0.5 10.781-1.0938 0.5h-0.03125v0.03125l-4.2812 2.0312c0.35297-1.7865 0.067777-3.6532-1.125-5.1562-0.75747-0.71345-1.5542-0.98993-2.3438-0.96875-0.3874-0.15185-0.68396-0.073193-0.9375-0.09375-1.0325 0.03451-1.6347 0.54299-2.375 1.1875-0.5685 0.57922-2.1149 2.1479-2.375 3.1562-0.19981 1.0586-0.52162 1.7971-0.21875 3.6875 0.10694 0.98033 0.33974 1.7313 0.75 2.2812l-2.9375 1.375-0.15625-14.094c0.33706-0.01539 0.53035 0.14584 0.90625 0.03125 0.42289-0.12892 0.59075-0.99214 1-1.1562 0.3996-0.11563 1.0388 0.49683 1.4375 0.375 0.39866-0.12183 0.82105-1.0911 1.2188-1.2188 0.3977-0.12768 0.79078 0.57068 1.1875 0.4375 0.39672-0.13319 0.91679-1.1117 1.3125-1.25 0.39571-0.13834 0.73031 0.26814 1.125 0.125 0.39469-0.14313 0.95011-1.1337 1.3438-1.2812 0.39364-0.14759 0.54492 0.83918 0.9375 0.6875 0.39258-0.15169 1.046-1.0008 1.4375-1.1562 0.3915-0.15543 0.51586 0.37758 0.90625 0.21875 0.39039-0.15883 0.95449-0.86937 1.3438-1.0312 0.38926-0.16188 0.61188 0.22707 1 0.0625 0.38812-0.16457 0.8318-0.80183 1.2188-0.96875 0.38695-0.16692 0.70799 0.13766 1.0938-0.03125s0.8342-1.0794 1.2188-1.25 0.71042 0.42185 1.0938 0.25c0.38332-0.17185 0.74292-1.0772 1.125-1.25 0.64987-0.43105 1.5383 0.034554 2.1562-0.34375 0.61798-0.3783 0.73003-1.378 1.3125-1.7188 0.58247-0.34073 1.1442-0.24417 1.6875-0.5625 0.13583-0.079581 0.32343-0.13962 0.53125-0.15625zm-42.188 3.1562c0.038557 0.27678 0.057455 0.5666 0.21875 0.71875 0.29839 0.28148 1.0009-0.075356 1.3125 0.1875 0.31164 0.26286 0.23855 1.1284 0.5625 1.375 0.32395 0.24659 1.3522 0.29857 1.6875 0.53125s0.24798 0.84138 0.59375 1.0625 1.2697 0.069318 1.625 0.28125c0.35528 0.21193-0.14512 0.6074 0.21875 0.8125 0.36387 0.2051 1.3472-0.013119 1.7188 0.1875 0.37152 0.20062 0.15302 0.8015 0.53125 1 0.37823 0.1985 1.241 0.082511 1.625 0.28125 0.38402 0.19874 0.26738 0.70491 0.65625 0.90625 0.38887 0.20134 1.701 0.23121 2.0938 0.4375 0.43918 0.05156 0.62465 0.77108 1.0625 0.75 0.35795-0.017233 0.89325-0.26181 1.3125-0.40625l-0.125 13.906c-5.1647-2.9398-10.445-5.2903-15.156-9.1562-0.006103-0.66749-0.043766-1.4218-0.0625-2.125 0.20122-0.43292 0.24629-0.58154 0-0.875-0.098632-3.356-0.23588-6.8806 0.125-9.875zm46.312 0.84375 1.7812 1.5938-0.46875-0.0625-1.5938-1.2812 0.28125-0.25zm-0.75 0.5625 43.656 33.312-0.21875 0.21875-43.812-33.156 0.375-0.375zm-7.625 0.0625 0.25 10.031-0.4375 0.1875-0.6875-8.8438-3.5938 1.625 0.375 9.0938-0.5625 0.25-0.375-10.125 5.0312-2.2188zm-25.375 0.03125c0.21199 1.3376 0.15852 2.6624-0.21875 4l0.28125 0.03125c0.17448-1.3027 0.43232-2.5846 0.15625-4l-0.21875-0.03125zm32.25 0.5625 43.812 33.312-0.0625 1.1875-0.875-0.5625-0.03125-0.71875-0.8125-0.15625-0.3125 0.25-42.062-32.031 0.34375-1.2812zm-43.031 0.6875-0.4375 7.0312-0.4375-0.25v2.5625l8.1875 4.4375 0.59375 0.3125 0.46875-2.2188-0.78125-0.5625 0.625-7.0938-8.2188-4.2188zm34.969 0.53125 0.53125 8.5312 0.125 0.0625-3.1875 1.5-0.40625-8.7812 2.9375-1.3125zm-34.656 0.03125 7.5312 3.875-0.59375 6.625-0.375-0.25 0.375-6.5938-6.4688-3.1562-0.25 6.4688-0.53125-0.28125 0.3125-6.6875zm47.719 0.03125 1.7812 1.5938-0.46875-0.0625-1.5938-1.2812 0.28125-0.25zm-5.75 0.28125c0.011629 0.054186 0.018376 0.10058 0.03125 0.15625l1.5312 1.1562-0.03125 0.25-0.96875 0.34375c-0.32903 0.13848-0.52184 0.31677-0.65625 0.53125 0.040288-0.81909 0.063494-1.6302 0.09375-2.4375zm-41 1 2.3125 1.25-0.15625 2.1875-2.25-1.0625 0.09375-2.375zm-5.5 0.25 0.34375 0.21875-1.8125 1.3438-0.3125-0.125 1.7812-1.4375zm0.71875 0.21875v0.5625l-1.75 0.71875 1.75-1.2812zm47.656 0.09375 1.4688 1.125v0.15625l-1.4688-1.125v-0.15625zm5.375 0 0.40625 0.28125v0.125l-0.40625-0.3125v-0.09375zm-5.9375 0.25 40.188 30.688-0.25 0.1875-40.312-30.5 0.375-0.375zm7.9375 0.53125 1.7812 1.5938-0.46875-0.0625-1.5938-1.2812 0.28125-0.25zm-47.594 0.09375 0.90625 0.46875-0.1875 2.0938 0.34375 0.5625 1.5625 0.71875c-0.02195 0.32067-0.011231 0.64808-0.03125 0.96875l-1.5938-0.78125v-0.125l-0.53125 0.25-0.09375 2.0312c-0.27146-0.15017-0.50094-0.25978-0.78125-0.40625l0.125-2-0.34375-0.5625-2.1562-1.0938 0.03125-0.78125 2.2188 1.0312 0.5-0.15625 0.03125-2.2188zm38.906 0.03125 15 11.406-0.6875 0.5-0.375-1.2188-0.84375 0.125-0.65625-0.8125h-0.84375l-0.5-1.0938-0.6875 0.21875-0.90625-0.875-0.21875 0.34375-9.625-7.3125 0.34375-1.2812zm-46.312 0.03125 0.3125 0.3125-31.5 13.562-0.28125-0.5625 31.469-13.312zm-4.9062 0.3125 0.34375 0.21875-1.8125 1.3438-0.3125-0.125 1.7812-1.4375zm54.312 0.09375 0.53125 0.40625v0.1875l-0.53125-0.40625v-0.1875zm5.25 0 1.5312 1.1562v0.03125l-1.5312-1.1562v-0.03125zm-53.719 0.09375-0.25 0.90625-31.281 13.844-0.03125-0.03125-0.03125 0.03125-0.40625 0.1875c-0.60886-0.32902-0.6142-0.4019-0.0625-1.0625l32.062-13.875zm-5.125 0.0625v0.71875l-1.8125 0.78125v-0.1875l1.8125-1.3125zm12.844 0.03125 1.5 0.8125c-9.05e-4 0.67428-0.048632 1.3484-0.09375 2.0312l-1.5625-0.75 0.15625-2.0938zm41.594 0.46875 0.53125 0.40625v0.15625l-0.5-0.375-0.03125-0.1875zm-49.156 0.40625c0.026164 0.58096 0.067395 1.1689 0.09375 1.75l-0.46875-0.5-0.40625 0.1875-0.0625-0.875 0.75-0.34375c0.038383-0.097992 0.05898-0.14016 0.09375-0.21875zm55.406 0.21875 0.40625 0.28125v0.1875l-0.40625-0.3125v-0.15625zm-5.375 0.03125 1.4688 1.125v0.1875l-1.4688-1.125v-0.1875zm-60.219 0.25 0.34375 0.21875-1.8125 1.3438-0.3125-0.125 1.7812-1.4375zm9.0938 0.15625v0.90625l-1.8125 0.78125v-0.875l1.8125-0.8125zm-8.3438 0.0625v0.875l-1.8438 0.78125v-0.3125l1.8438-1.3438zm1.5312 0.03125 0.25 0.09375-0.25 0.09375v-0.1875zm11.406 0.3125 2.1562 1.0312-0.15625 1.9375c-0.71018-0.35632-1.4346-0.68283-2.0625-0.875l0.0625-2.0938zm54.531 0.4375 1.7812 1.5938-0.46875-0.0625-1.5938-1.2812 0.28125-0.25zm-6.2188 0.09375 0.53125 0.40625v0.1875l-0.53125-0.40625v-0.1875zm-55.094 0.03125v0.875l-0.4375 0.1875v-0.84375l0.4375-0.21875zm49.781 0.09375 1.4062 1.0938-0.03125 1.4062-1.4062-1.1562 0.03125-1.3438zm-47.25 0.1875 0.3125 0.3125-6 2.5938-0.1875-0.28125-0.3125 0.5-2.0938 0.90625-0.25-0.1875-0.34375 0.40625-2.5312 1.125-0.09375-0.03125-0.0625 0.09375-2.2812 0.96875-0.3125-0.28125-0.34375 0.5625-0.90625 0.40625-0.1875-0.09375-0.1875 0.25-1.0938 0.46875-0.1875-0.0625-0.09375 0.1875-3.4375 1.4688-0.375-0.4375 20.969-8.875zm-3.2188 0.03125 0.03125 0.84375-1 0.40625-0.0625-0.78125 1.0312-0.46875zm61.656 0.125 1.5312 1.1562v0.0625l-1.5312-1.1562v-0.0625zm-5.0312 0.1875 0.5625 0.40625-0.03125 0.1875-0.5-0.375-0.03125-0.21875zm-64.75 0.15625 0.40625 0.125-0.40625 0.1875v-0.3125zm12.188 0.03125c0.003894 0.094397 0.027583 0.18688 0.03125 0.28125l-0.15625 0.59375-5.5625 2.4375h-0.21875l-0.375-0.5625 6.2812-2.75zm-5.3438 0.0625v0.84375l-1.8125 0.75v-0.78125l1.8125-0.8125zm-9.5 0.03125 0.34375 0.21875-1.8125 1.3438-0.3125-0.125 1.7812-1.4375zm0.71875 0.21875v0.8125l-1.8125 0.75v-0.21875l1.8125-1.3438zm21.312 0.125 1.5938 0.75c-0.042117 0.75535-0.068506 1.5057-0.03125 2.25-0.4396-0.24176-1.0779-0.62408-1.6875-0.96875l0.125-2.0312zm46.25 0.03125 1.4688 1.125v0.21875l-1.4688-1.125v-0.21875zm-51.406 0.09375 8.125 4.4062-0.375 1-8-4.0938 0.25-1.3125zm46.094 0.03125 0.65625 0.5v0.875l-0.6875-0.03125 0.03125-1.3438zm-24.625 0.03125c-1.1936 0.34032-2.3848 1.2919-3.1875 2.375-1.498 2.4395-1.8552 5.6038 0 7.9375 0.94215 0.89033 2.0435 1.1087 3.0312 0.90625-0.26024 0.072698-0.51505 0.13504-0.8125 0.15625-1.6415-0.13641-2.4867-0.78811-3.3125-2.1875-0.5655-1.2613-0.73624-3.1359-0.28125-4.9688 0.4407-1.2855 1.3602-2.3856 2.2812-3.1875 0.64327-0.56002 1.3988-0.94917 2.2812-1.0312zm0.6875 0.15625c0.093902-0.004681 0.18715-0.003661 0.28125 0 0.68436 0.026617 1.3702 0.26981 2 0.8125 1.845 2.204 1.389 5.2439 0.0625 7.5625-1.3551 2.047-4.0226 3.3724-5.9375 1.5-1.8606-2.205-1.3926-5.1769-0.0625-7.5 0.86224-1.3083 2.2478-2.3048 3.6562-2.375zm35.25 0.125 0.40625 0.28125v0.21875l-0.40625-0.3125v-0.1875zm-18.688 0.0625 0.71875 0.90625-7.5625 3.5625-1.2812-0.625 8.125-3.8438zm-48.281 0.0625v0.78125l-0.4375 0.1875v-0.75l0.4375-0.21875zm31.531 0.25c-0.14834 0.005608-0.2792 0.009105-0.4375 0.03125-2.5995 0.81436-3.5931 3.2104-3.75 5.75 0.022117 2.3634 1.2569 4.3528 3.7812 4 2.6003-0.81338 3.624-3.3642 3.7812-5.9062-0.020377-2.2243-1.1499-3.9591-3.375-3.875zm-32.219 0.0625 0.03125 0.75-1.0312 0.46875-0.03125-0.75 1.0312-0.46875zm32.25 0.0625c2.106-0.12514 3.0031 1.9562 3.125 3.875-0.025016-0.12249-0.10752-0.21681-0.1875-0.21875l-0.1875 0.0625c3.71e-4 -0.084227 0.001729-0.21148 0-0.25-0.053705-0.65308-0.30278-1.2285-0.65625-1.75l0.1875-0.25c0.034734-0.2885-0.55499-0.95851-0.9375-0.84375l-0.09375 0.1875c-0.55305-0.50396-1.2248-0.60618-1.9375-0.65625 0.21188-0.11217 0.45444-0.13101 0.6875-0.15625zm-0.8125 0.28125c0.078921-0.002393 0.14417-0.003671 0.21875 0 0.070974 0.003495 0.1514 0.022811 0.21875 0.03125l0.25 0.03125c0.51535 0.1136 0.91097 0.35906 1.3125 0.59375l-1.375 2.5c-0.10499-0.021553-0.15218-0.029352-0.21875-0.03125-0.13732-0.014748-0.28673 0.00613-0.34375 0.03125 0.040746-1.1262 0.012908-1.977-0.0625-3.1562zm-0.1875 0.03125c0.023984 1.0594 0.065995 2.1641 0.09375 3.2188 0.03255 0.096942-0.44265 0.29979-0.40625 0.0625l-0.3125-2.9375c0.19452-0.13574 0.40619-0.23593 0.625-0.34375zm-24.188 0.03125 0.03125 1.3438-1.8125 0.78125-0.03125-1.3125 1.8125-0.8125zm56.375 0.0625 0.53125 0.40625v0.21875l-0.53125-0.40625v-0.21875zm-64.719 0.09375v0.75l-1.8125 0.78125v-0.71875l1.8125-0.8125zm59.375 0.03125 1.4375 1.0938-0.03125 1.25-1.4062-1.1562v-1.1875zm-69.562 0.03125 0.34375 0.21875-1.8125 1.3438-0.3125-0.125 1.7812-1.4375zm2.9375 0.03125 0.3125 0.09375-0.3125 0.15625v-0.25zm39.031 0.1875 0.3125 2.75c-0.14979-0.060256-0.2125 0.10625-0.3125 0.15625l-1.375-1.3125c0.34991-0.61594 0.80878-1.1641 1.375-1.5938zm-41.219 0.03125v0.9375l-1.8438 0.8125v-0.4375l1.8438-1.3125zm60.906 0 0.0625 1.0312-7.7812 3.6875-0.09375-1.125 7.8125-3.5938zm-16.406 0.03125c0.29938-0.070885 0.63546 0.512 0.5 0.6875l-1.6875 2.0938c-0.13614-0.09362-0.24959-0.16284-0.375-0.1875 0.53141-0.85648 0.95168-1.8212 1.5625-2.5938zm36.75 0.0625 1.7812 1.5938-0.46875-0.0625-1.5938-1.2812 0.28125-0.25zm-69 0.125 0.75 1.1875 0.875 0.09375 0.71875 0.9375 0.71875-0.25 0.84375 1.2812 0.84375-0.15625 0.71875 1.1875 0.875-0.25 0.71875 1.25 0.875 0.03125 0.6875 1 0.875-0.0625 0.71875 1.0938 1-0.21875 0.5625 1.2188 0.96875-0.40625 0.625 1.4375 0.875 0.1875 0.6875 0.84375 0.9375 0.15625 0.65625 0.84375 1.0938-0.59375 0.46875 1.625 0.75-0.0625 0.8125 1.0938 0.9375-0.25 0.65625 1.25 0.875-0.1875 0.6875 1.2188 0.84375-0.0625 0.75 1.0938 0.65625 0.4375-0.625 0.34375-0.75 1.0625-0.65625-0.40625-0.71875 0.6875-0.6875-0.03125-0.625 0.6875-0.8125-0.03125-0.625 0.6875-0.78125-0.9375-0.65625 1.5625-0.78125 0.03125-0.65625 0.71875-0.75-0.71875-0.71875 1.3438-0.6875-0.03125-0.71875 0.625-0.71875 0.03125-0.75 0.71875-0.65625-0.3125-0.71875 0.59375-0.5625-0.71875-0.84375 1.375-0.71875-0.0625-0.6875 0.71875-0.71875 0.78125-0.71875-0.125-0.84375 0.75-0.625-1-0.65625 1.75-0.71875-0.15625-0.59375 0.625-0.71875-1.4375-0.84375 0.9375-0.6875-0.8125-0.8125 0.1875-0.75-1.0312-0.78125-0.0625-0.5625-1.5938-1.1562 0.46875-0.46875-1-0.9375-0.09375-0.5625-0.96875-0.96875-0.1875-0.53125-0.90625-0.875 0.125-0.625-1.2188-0.875-0.25-0.5625-1.5938-0.96875 0.5-0.5625-0.84375-1.0625-0.1875-0.4375-1.375-1.0625 0.28125-0.34375-1.2812-0.84375 0.3125-0.75-1-1.0938-0.34375-0.40625-0.75-1.0938-0.34375-0.4375-0.96875-1.0625-0.03125-0.375-0.84375-1.0625-0.25-0.65625-0.875 0.5625 0.0625 0.34375-0.65625 0.21875-0.09375 0.78125 0.15625 0.375-0.65625 0.125-0.0625 0.875 0.09375 0.34375-0.625 0.21875-0.09375 0.78125 0.125 0.03125-0.09375-0.625-0.125 0.8125-0.34375-0.1875 0.46875 0.34375-0.53125 0.125-0.1875 0.21875 0.03125 0.65625 0.15625 0.53125-1.5 0.5625 0.59375 0.25 0.28125 0.59375-0.71875 0.78125 0.125 0.59375-0.53125 0.75-0.09375 0.5625-0.90625 0.8125 0.3125 0.53125-0.96875 0.8125 0.34375 0.625-1.0938 0.75 0.5 0.625-0.59375 0.71875-0.03125 0.6875-0.6875 0.6875 0.09375 0.65625-0.59375 0.6875-0.03125 0.71875-1.0938 0.34375 0.25 0.0625 0.09375 0.0625-0.03125 0.1875 0.15625 0.5-0.4375 0.28125-0.125 0.5625-0.03125 0.71875-1zm62.75 0.03125 1.1875 0.875-0.03125 0.21875-1.125-0.875-0.03125-0.21875zm-59.438 0.28125v0.8125l-0.40625-0.03125v-0.625l0.40625-0.15625zm65.344 0.125 1.5312 1.1562v0.15625l-1.5312-1.1562v-0.15625zm-73.688 0.03125v0.71875l-0.4375 0.1875v-0.71875l0.4375-0.1875zm-0.6875 0.3125 0.03125 0.6875-1.4062 0.59375-0.03125-0.65625 1.4062-0.625zm38.469 0c0.32567 0.50109 0.44697 1.0739 0.5 1.7188 0.014679 0.092432 0.001563 0.14583 0 0.21875l-1.875 0.4375c-0.041936-0.15796-0.12828-0.28385-0.21875-0.4375l1.5938-1.9375zm25.562 0.03125 0.65625 0.5v0.71875l-0.6875-0.03125 0.03125-1.1875zm5.9375 0.34375 1.4688 1.125v0.25l-1.4688-1.125v-0.25zm-79.156 0.28125 0.46875 0.15625v0.0625l-0.46875 0.21875v-0.4375zm42.438 0 1.6875 1.5938c-0.007669 0.26236-0.008689 0.54147-0.25 0.53125l-1.75-1.4688c0.088011-0.21834 0.20152-0.45114 0.3125-0.65625zm-34.938 0.09375v0.65625l-1.8125 0.78125v-0.625l1.8125-0.8125zm-10.375 0.03125 0.34375 0.21875-1.8125 1.3438-0.3125-0.125 1.7812-1.4375zm88.281 0.15625 0.40625 0.28125v0.3125l-0.40625-0.3125v-0.28125zm-87.531 0.0625v1l-1.8438 0.78125v-0.4375l1.8438-1.3438zm78.406 0.28125 0.71875 0.8125h0.75l0.375 1 1.0312-0.09375 0.46875 0.90625 0.875-0.1875 0.4375 1.25 1.0938-0.65625 0.21875 1.7188 0.96875-0.40625 0.34375 1.4688 0.9375-0.09375 0.375 1.1562 0.8125-0.125 0.5 1.1875 0.75 0.09375 0.53125 1.4688 0.09375-0.0625 0.03125 0.09375 0.3125-0.28125 0.53125-0.3125 0.40625 1.125 0.90625-0.125 0.40625 1.1875 0.90625-0.0625 0.40625 1.1562 0.90625-0.09375 0.40625 1.1562 0.90625 0.03125 0.40625 1.0312 0.90625-0.21875 0.40625 1.2812 0.84375-0.0625 0.46875 1.125 0.96875-0.125 0.3125 1.0938-1.125-0.3125-0.34375 0.96875-1.0938-0.875-0.34375 1.375-0.84375-0.40625-0.40625 1.0625-0.8125-0.25-0.5 0.75-0.9375-0.9375-0.53125 1.125-0.75-0.125-0.4375 0.9375-0.96875-0.96875-0.53125 1.0938-0.65625 0.21875-0.59375 0.8125-0.75-0.46875-0.625 0.6875-0.6875-0.5-0.5625 0.90625-0.75-0.03125-0.5625 0.9375-0.75-1.0625-0.625 2.0312-0.78125-0.46875-0.53125 0.4375-0.6875-1.0625-0.5625 1.25-0.75-0.375-0.53125 0.90625-0.90625-1.8438-0.71875 2.9375-0.53125-1.2188-0.75 0.4375-0.6875-1.875-0.625 0.71875-0.59375-1.125-0.78125 1.0625-0.46875-2.1562-0.96875 0.46875-0.65625-1.7188-0.6875 0.5625-0.96875-1.5312-0.71875 0.4375-0.71875-1.4688-0.8125 0.3125-0.625-1.3438-0.65625 0.375-0.8125-1.4062-0.5625 0.46875 0.5-0.03125 0.96875 1.2812 0.4375-0.46875 0.6875 1.375 0.84375-0.3125 0.65625 1.3438 0.8125-0.21875 0.78125 1.375 0.78125-0.40625 0.59375 1.5312 0.875-0.21875 0.6875 2.1875 0.65625-1.1875 0.8125 1.0625 0.46875-0.71875 0.65625 1.75 0.8125-0.21875 0.5625 1.0938c-0.17995 2.2404 0.69488 3.6735-0.5625 6.7188-7.1098-6.2129-15.076-11.57-22.625-17.344-1.2386-2.3349-0.27083-4.3958-0.3125-6.5312l0.03125-0.03125 1.375 0.3125 0.46875 1.4062 0.9375-0.90625 0.46875 2.0625 0.9375-0.21875 0.625 1.3125 0.78125-0.1875 0.84375 1.2812 0.59375-0.3125 0.71875 1.5312 0.15625-0.125-0.78125-1.75-0.59375 0.5625-0.84375-1.5938-0.71875 0.4375-0.71875-1.4688-0.90625 0.28125-0.53125-2.2812-0.84375 1.1875-0.46875-1.4688-1.375-0.21875 0.6875-0.8125 0.84375 0.5625 0.65625-0.75 0.65625 0.6875 0.8125-1.5 0.625 0.46875 0.8125-1.0938 0.9375 0.53125 0.625-1 0.75 0.875 0.78125-1.5 0.84375 0.5 0.75-0.5 0.75-0.03125 0.75-0.96875 0.75 0.40625 0.71875-1.4375 0.75 0.65625 0.75-0.53125 0.875 0.375 0.6875-0.71875 0.71875 0.4375 0.84375-0.9375 0.75 0.40625 0.6875-1.0625 0.90625 0.375 0.75-0.9375 0.75 0.375 0.65625-0.875 0.09375-0.09375h0.03125l0.53125 0.34375 0.3125-0.5625 0.46875-0.75zm-15.531 15.375 0.53125-0.375 0.84375 1.3125 0.625-1.0938 0.875 1.9688h0.09375l-0.90625-2.25-0.6875 1.125-0.71875-1.4062-0.65625 0.71875zm14.219-15.281 0.71875 0.5625-0.25 0.375-0.46875-0.1875v-0.75zm-32.906 0.09375 1.3438 1.0938c-0.031982 0.064076-0.050022 0.15204-0.0625 0.21875l-0.03125 0.15625c-0.004716 0.074876 0.005353 0.14341 0 0.21875l-1.6562 0.15625c0.23748-0.90044 0.027396-0.85507 0.40625-1.8438zm-36.75 0.25v0.625l-0.4375 0.1875v-0.625l0.4375-0.1875zm75.625 0.03125 0.53125 0.375v0.25l-0.53125-0.40625v-0.21875zm-36.75 0.03125v0.15625c0.20021 0.29957 0.45232 0.078461 0.59375-0.09375h0.09375c-0.1541 0.11199-0.29642 0.23429-0.4375 0.40625-0.36891 0.63618-0.40926 1.3205-0.03125 1.9375 0.007263 0.011856 0.023684 0.019424 0.03125 0.03125 0.090783 0.06919 0.1954 0.11877 0.28125 0.15625l-0.28125 0.03125c0.017343-0.082612 0.003594-0.16444-0.03125-0.21875-0.10453-0.16294-0.38991-0.2135-0.5-0.25-0.058828 0.090064-0.098496 0.16306-0.15625 0.25-0.076211-0.1049-0.14002-0.22419-0.1875-0.34375l0.3125-0.0625c0.17333-0.26958 0.024499-0.52126-0.09375-0.65625l-0.34375 0.03125c-0.020849-0.12496 0.023599-0.22955 0.0625-0.34375l0.09375-0.0625 0.3125 0.25c0.18268-0.13753 0.38211-0.41333 0.3125-0.8125l-0.28125-0.25 0.25-0.15625zm1.0312 0.03125c0.22538-0.02837 0.49785 0.089842 0.71875 0.21875 0.14193 0.47396 0.50639 0.83924-0.1875 1.8125-0.40128 0.38702-0.69358 0.36633-1.1875 0.25-0.35469-0.5087-0.22335-1.3143 0.03125-1.8438 0.157-0.21633 0.39962-0.40913 0.625-0.4375zm9.0312 0.09375 0.9375 0.5625 0.25 1.0625-1.3125-0.46875 0.125-1.1562zm-49.625 0.125 0.03125 0.59375-1.6875 0.71875-0.03125-0.5625 1.6875-0.75zm43.844 0.03125c0.12548 0.096728 0.23062 0.52003-0.0625 0.78125h-2.0938c-0.039443-0.16383 0.073739-0.24135-0.03125-0.34375l2.1875-0.4375zm39.688 0.15625 1.7812 1.5938-0.46875-0.0625-1.5938-1.2812 0.28125-0.25zm-43.062 0.15625c-0.25095 0.1986-0.40396 0.45185-0.40625 0.71875-0.002286 0.26689 0.14093 0.52987 0.34375 0.78125h0.4375c0.55925-0.42261 0.47649-0.97586 0.3125-1.5h-0.6875zm36.688 0 1.4062 1.0625v0.25l-1.375-1.0625-0.03125-0.25zm-36.188 0.1875c0.083541 0.060835 0.10334 0.30799 0.125 0.46875 0.020713 0.15374-0.071104 0.42331-0.21875 0.59375l-0.40625 0.09375c-0.13337-0.18451-0.1887-0.45427-0.1875-0.59375 0.001258-0.14636 0.11739-0.38969 0.28125-0.53125l0.40625-0.03125zm3.125 0.03125c-0.087021 0.89132-0.3156 1.7288-0.71875 2.5 0.1939-0.6754 0.29277-1.3626 0.34375-2.0625h0.21875c0.073207-0.12456 0.12438-0.27212 0.15625-0.4375zm-53.5 0.09375 0.46875 0.15625v0.09375l-0.46875 0.1875v-0.4375zm92.594 0.09375 1.5312 1.1562v0.3125l-1.5312-1.1875v-0.28125zm-85.125 0.09375v0.59375l-1.8125 0.78125v-0.5625l1.8125-0.8125zm-10.5 0.09375 0.34375 0.21875-1.8125 1.3438-0.3125-0.125 1.7812-1.4375zm54.125 0 1.9062 0.0625c-0.010684 0.3235-0.038593 0.6494-0.09375 0.96875l-0.96875 0.46875-1-0.8125c0.12444-0.39844 0.15523-0.38072 0.15625-0.6875zm-53.406 0.25v0.875l-1.8125 0.78125v-0.34375l1.8125-1.3125zm50.781 0.0625c0.13377 0.12119 0.17614 0.25381 0.03125 0.375l-2.0625 0.5c-0.039146-0.22143-0.034674-0.49605-0.03125-0.71875l2.0625-0.15625zm39.844 0.4375 1.4688 1.0938v0.28125l-1.4688-1.125v-0.25zm-37.469 0.03125 1.75 1.4375c-0.076292 0.20112-0.15198 0.40876-0.25 0.59375l-1.6875-1.7812c0.039379-0.041519 0.086526-0.11102 0.125-0.15625l0.0625-0.09375zm-45.594 0.125v0.53125l-0.4375 0.1875v-0.53125l0.4375-0.1875zm42.969 0.03125c0.045148 0.10118 0.10513 0.2134 0.1875 0.34375l-0.03125 0.15625c-0.4214 0.62617-0.83649 1.191-1.3125 1.8125-0.30917-0.54382-0.49575-1.1851-0.59375-1.8438l1.75-0.46875zm0.65625 0.15625c0.15919-0.005065 0.26664 0.22964 0.125 0.34375l-1.4688 2.4688c-0.1408-0.15024-0.26213-0.31931-0.375-0.5 0.56652-0.67172 1.0671-1.5005 1.5625-2.2188 0.050996-0.067204 0.10318-0.092062 0.15625-0.09375zm45.562 0 0.40625 0.28125v0.4375l-0.40625-0.3125v-0.40625zm-43.906 0.03125 0.65625 0.71875-0.96875 0.46875-0.0625-0.90625c0.13563-0.059182 0.25035-0.16567 0.375-0.28125zm-45.969 0.09375 0.03125 0.5-1.625 0.6875-0.03125-0.46875 1.625-0.71875zm45.406 0.25 0.28125 3.0625c-0.094734 0.039819-0.18231 0.059312-0.28125 0.09375-0.11858 0.022251-0.23183 0.052779-0.34375 0.0625l-0.03125-3.1875c0.13055-0.008809 0.2446-0.020747 0.375-0.03125zm-0.5625 0.03125 0.03125 1.1875-1.3125 0.625 1.0312-1.7812c0.079874-0.007051 0.17312-0.024202 0.25-0.03125zm3.375 0.09375c-0.043659 0.16687-0.099849 0.3391-0.15625 0.5l-0.34375-0.28125 0.5-0.21875zm34.219 0.09375 1 0.75-0.71875 0.34375-0.28125-1.0938zm-78.906 0.09375-0.0625 0.125-0.65625 0.15625 0.71875-0.28125zm-13.031 0.125 0.46875 0.15625-0.46875 0.1875v-0.34375zm7.625 0.125v0.5l-1.8125 0.78125v-0.46875l1.8125-0.8125zm87.406 0.0625 0.53125 0.40625v0.25l-0.5625-0.40625 0.03125-0.25zm-82.969 0.09375-0.40625 0.34375-0.25-0.0625 0.65625-0.28125zm44.406 0 0.71875 0.75c-0.4886 0.64401-1.0984 1.1814-1.875 1.5312l-0.125-1.6875 1.2812-0.59375zm-47.062 0.03125-0.25 0.6875-6.6875 2.875-0.09375-0.03125v0.09375l-1.3438 0.5625-0.53125-0.4375 8.9062-3.75zm83.656 0.3125 23.594 17.938-0.25 0.1875v0.40625l-0.65625 0.28125-0.4375-0.3125v-0.375l-0.71875-0.15625-6.5938-5.0312-0.4375-1.1875-0.8125 0.28125-0.59375-1.0625-0.75-0.03125-0.65625-1.1875-0.65625 0.125-0.5625-1-0.75-0.09375-0.59375-1.0312-0.75-0.0625-0.5625-1.125-0.75 0.03125-0.53125-1.0312-0.8125-0.0625-0.59375-1.1562-0.71875 0.5625-0.25-0.1875-0.46875-1.1875-0.8125-0.34375-0.40625-0.875-0.71875-0.0625-0.46875-0.90625-0.84375-0.1875-0.4375-1.1562zm9.1875 0.09375 1.7812 1.5938-0.46875-0.0625-1.5938-1.2812 0.28125-0.25zm-6.375 0.125 1.2812 0.9375-0.03125 0.28125-1.2188-0.9375-0.03125-0.28125zm-85.438 0.125-0.125 0.25-0.09375-0.125 0.21875-0.125zm-5.0312 0.15625v0.46875l-0.4375 0.1875v-0.46875l0.4375-0.1875zm48.969 0.125 0.03125 1.5312c-0.73962 0.027375-1.3254-0.20934-1.7812-0.625l0.03125-0.0625 1.7188-0.84375zm47.531 0.03125 1.5312 1.1562v0.28125l-1.5312-1.1875v-0.25zm-97.188 0.125 0.03125 0.46875-1.7812 0.75-0.03125-0.40625 1.7812-0.8125zm4.25 0.1875-0.09375 0.28125-0.34375-0.0625 0.4375-0.21875zm-10.688 0.15625c0.17164 0.010649 0.38826 0.224 0.53125 0.25-0.54233 0.67884-0.21882 0.79268-0.28125 1.5625-0.11799-0.048621-0.42749-0.10395-0.46875-0.15625-0.36183-0.45862-0.09982-1.0224 0.0625-1.5938 0.04083-0.051211 0.09903-0.06606 0.15625-0.0625zm99.219 0.3125 1.4688 1.0938-0.03125 0.28125-1.4688-1.125 0.03125-0.25zm-94.844 0.28125v0.40625l-1.7812 0.75v-0.375l1.7812-0.78125zm101.09 0.21875 0.40625 0.28125v0.40625l-0.40625-0.3125v-0.375zm-97.344 0.1875-0.21875 0.34375-0.375-0.09375 0.59375-0.25zm-5.9375 0.5625v0.375l-0.28125 0.09375-0.15625-0.125v-0.15625l0.4375-0.1875zm4.5312 0.03125-0.15625 0.3125-0.40625-0.0625 0.5625-0.25zm94.281 0.0625 0.53125 0.40625v0.3125l-0.5625-0.4375 0.03125-0.28125zm-99.531 0.1875 0.0625 0.0625 0.25 0.1875 0.3125 0.28125 0.90625 0.8125 0.25 0.25-0.46875-0.0625-1.5938-1.2812 0.28125-0.25zm3.875 0.34375-0.21875 0.46875-0.375-0.1875 0.59375-0.28125zm96.5 0.125 1.4062 1.0625v0.3125l-1.375-1.0625-0.03125-0.3125zm-101.12 0.09375 0.125 0.09375v0.65625l-0.5-0.375 0.375-0.375zm0.40625 0 1.5312 1.1562-0.21875 9.25-1.4062-1.1562 0.09375-9.25zm3.25 0.25 0.15625 0.03125 0.53125 1.0312 1.125 0.3125 0.40625 0.78125 1.2188 0.03125 0.3125 1.0938 1.0938 0.28125 0.4375 0.8125 1.125 0.28125 0.75 1 0.8125-0.28125 0.375 1.2188 1.0312-0.1875 0.5 1.2812 0.9375 0.3125 0.59375 0.8125 1.0625-0.46875 0.4375 1.5625 0.90625 0.25 0.625 1.1875 0.875-0.03125 0.65625 0.8125 0.8125 0.125 0.71875 1 0.90625 0.09375 0.625 1 0.96875-0.5 0.5625 1.5938 0.84375 0.15625 0.6875 0.96875 0.8125-0.1875 0.71875 1.2812 0.78125-1.2812 0.6875 1.5c0.15723 1.0946 0.26745 2.2254 0.1875 3.3438l-1.8125-1.375v-0.9375l-2.5-2.0938-0.34375 0.4375v0.40625l-1.5312-1.125v-1l-2.5-2.0938-0.34375 0.4375v0.46875l-1.4062-1.0312v-0.90625l-2.5-2.0938-0.34375 0.4375v0.375l-1.5312-1.125v-0.84375l-2.5-2.0938-0.34375 0.4375v0.3125l-1.2812-0.96875v-0.8125l-2.5-2.0938-0.34375 0.4375v0.28125l-0.65625-0.46875v-0.78125l-2.2812-1.875c-0.24156-0.072627-0.40284-0.11688-0.53125-0.15625-0.012564-0.45769-0.051296-0.96542-0.03125-1.375zm104.47 0.0625 1.7812 1.5938-0.46875-0.0625-1.5938-1.2812 0.28125-0.25zm-104.78 0.03125-0.03125 1.0312-0.3125 0.125v-0.34375l-0.53125-0.4375 0.875-0.375zm-4.0938 0.3125 0.84375 0.625-0.03125 1.5312-1.1562-0.875 0.34375-1.2812zm108.53 0.21875 1.5312 1.1562v0.25l-1.5312-1.1562v-0.25zm-4.9062 0.34375 1.4688 1.125-0.03125 0.28125-1.4688-1.0938 0.03125-0.3125zm-100.62 0.0625 0.40625 0.28125 0.0625 9.0312-0.6875-0.03125 0.21875-9.2812zm1.4375 0.40625h0.03125v0.21875l-0.03125 0.03125c2.263e-4 -0.079354 0.0019448-0.16577 0-0.25zm-0.40625 0.1875v0.09375l-0.0625-0.0625 0.0625-0.03125zm0.96875 0.0625 1.7812 1.5938-0.46875-0.0625-1.5938-1.2812 0.28125-0.25zm105.38 0.21875 0.40625 0.28125v0.40625l-0.40625-0.3125v-0.375zm-106.62 0.125 0.625 0.46875v0.625l-0.625-0.46875v-0.625zm0.90625 0.21875 1.5312 1.1562-0.21875 9.25-1.4062-1.1562 0.09375-9.25zm100.75 0.0625 0.53125 0.40625v0.34375l-0.5625-0.4375 0.03125-0.3125zm-48.781 0.09375c-1.0258 0.45741-1.2425 1.4004-1.0938 2.5625l1.3438 1.375 0.125 8c-1.9875 0.87262-1.9751 1.5466-2.4688 2.3125l0.59375 4.4688c0.53391 0.096753 1.0623 0.23889 1.5938 0.34375l-6.4062 2.5312-0.375 8.6875 6.5 5.5625 9.1875-4.2188-0.1875-8-5.5938-4.6875c0.25495-0.08901 0.50999-0.20175 0.78125-0.34375l0.4375-4.5-0.25-0.15625c-0.7964-1.5275-2.0657-1.6363-3.1875-2.1875l-0.21875-7.2812 8.875 8.9688c-0.53914 0.35324-1.0672 0.15149-1.5625-1.4688l-0.71875-0.375c0.12087 1.8947 0.64058 3.6769 1.9375 5.2188l-0.09375 10.562c0.98558 0.10674 1.9832 0.53132 2.9688-0.125-0.47535-3.9487-0.49974-7.8951-1.5-11.844l0.3125-0.625 9.0938 9.2188c0.71847 0.12038 1.022-0.60825 1.4062-1.1562l-9.4375-10.031 0.78125-1.5-0.75-0.59375c-0.33472 0.16658-0.68992 0.56736-1.0312 1.0312l-9.8438-10.469c0.097757-0.38667-0.12968-0.6643-0.5-0.5l-0.71875-0.78125zm-0.03125 0.4375 0.625 0.65625c-0.059707 0.60034-0.32608 1.2479-0.34375 2l-1.1875-1.2188 0.90625-1.4375zm49.656 0.125 1.9062 1.4375v0.34375l-1.875-1.4375-0.03125-0.34375zm-102.5 0.28125 0.59375 0.46875-0.03125 1.5-0.5625-0.4375v-1.5312zm2.75 0.28125 0.40625 0.28125 0.0625 9.0312-0.6875-0.03125 0.21875-9.2812zm107 0.03125 1.7812 1.5938-0.46875-0.0625-1.5938-1.2812 0.28125-0.25zm-112.94 0.21875 0.21875 0.15625-0.03125 0.65625-0.5625-0.4375 0.375-0.375zm57.188 0.28125 9.6875 10.438c-0.25871 0.36094-0.49314 0.72208-0.75 1l-9.3125-9.4688 0.375-1.9688zm55.406 0.0625 1.5312 1.1562v0.28125l-1.5312-1.1562v-0.28125zm-104.66 0.1875 1.7812 1.5938-0.46875-0.0625-1.5938-1.2812 0.28125-0.25zm-8.6875 0.125 0.9375 0.6875-0.0625 1.5312-1.2188-0.9375 0.34375-1.2812zm108.69 0.21875 1.4688 1.125-0.03125 0.34375-1.4688-1.125 0.03125-0.34375zm-101.25 0.03125 0.625 0.46875v0.59375l-0.625-0.4375v-0.625zm0.90625 0.1875 1.5312 1.1562-0.21875 9.25-1.4062-1.1562 0.09375-9.25zm106.84 0.53125 0.40625 0.28125v0.4375l-0.40625-0.3125v-0.40625zm-110.84 0.40625 0.125 0.09375v0.21875l-0.125-0.09375c-0.0050627-0.074937 0.0043228-0.14656 0-0.21875zm3.0938 0.09375 0.59375 0.4375-0.03125 1.5312-0.5625-0.40625v-1.5625zm103.03 0.125 0.53125 0.40625v0.34375l-0.5625-0.40625 0.03125-0.34375zm-100.28 0.125 0.40625 0.28125 0.0625 9.0312-0.6875-0.03125 0.21875-9.2812zm-6.2188 0.03125 0.5 0.375-0.03125 0.65625-0.46875-0.375v-0.65625zm107.34 0.5 1.6562 1.25-0.03125 0.34375-1.5938-1.25-0.03125-0.34375zm7.125 0.375 1.7812 1.5938-0.46875-0.0625-1.5938-1.2812 0.28125-0.25zm-66.656 0.15625c0.033235 0.57836 0.12619 1.179 0.25 1.8125 0.001894 0.009693-0.001901 0.021548 0 0.03125 0.26786 1.9097 0.33412 3.6977 0.03125 5.2812-0.061598 0.14823-0.13905 0.29068-0.21875 0.4375l-18.562 9.0312-0.34375-0.25v-0.90625l-2.5-2.0938-0.34375 0.4375v0.375l-0.03125-0.03125c0.026475-1.2346-0.081886-2.4678 0-3.6562l0.4375-0.53125 0.625 0.0625 0.78125-1.5312 0.625 0.84375 0.71875-0.6875 0.71875 0.03125 0.75-0.6875 0.75-0.78125 0.6875 0.03125 0.84375-1.2188 0.59375 0.65625 0.65625-0.625 0.71875 0.28125 0.75-0.75 0.6875 0.09375 0.78125-0.75 0.625 0.0625 0.8125-1.3438 0.625 0.6875 0.8125-0.78125 0.625 0.09375 0.84375-1.4688 0.5625 0.8125 0.6875-0.6875h0.75l0.75-0.71875 0.6875 0.0625 0.65625-0.59375 0.8125 0.71875 0.625-1.5 0.71875-0.25zm-40.844 0.125 1.25 0.9375v0.59375l-1.25-0.9375v-0.59375zm-6.9688 0.09375 0.4375 0.34375-0.03125 1.5-0.40625-0.28125v-1.5625zm8.8438 0 1.7812 1.5938-0.46875-0.0625-1.5938-1.2812 0.28125-0.25zm105.28 0.1875 1.5312 1.1562v0.4375l-1.5312-1.1562v-0.03125-0.40625zm-105.62 0.375 1.5312 1.1562-0.21875 9.25-1.4062-1.1562 0.09375-9.25zm-5.0312 0.15625 0.53125 0.375v0.21875l-0.5-0.40625-0.03125-0.1875zm105.88 0.03125 1.4688 1.125-0.03125 0.34375-1.4688-1.125 0.03125-0.34375zm-102.38 0.375 1.2188 0.90625-0.03125 1.5312-1.1875-0.90625v-1.5312zm-3.4688 0.28125 0.5 0.375-0.03125 0.65625-0.46875-0.375v-0.65625zm112.47 0.0625 0.40625 0.28125v0.5625l-0.40625-0.28125v-0.03125-0.53125zm-105.62 0.375 0.40625 0.28125 0.0625 9.0312-0.6875-0.03125 0.21875-9.2812zm94.406 0.1875 0.9375 0.09375 0.03125-0.03125c0.10904 1.8438 1.371 3.6875 0.59375 5.5312-3.5797 2.3581-7.7883 3.128-11.688 4.6875-3.5435 1.8562-5.8334 4.0466-10.969 5.4688 1.3644-2.1941 0.3588-4.6457 0.5625-6.9688h-0.03125l0.65625-2.3125 0.78125 1.7188 0.625-1.125 0.65625 0.5625 0.625-1.1875 0.6875 0.71875 0.625-0.3125 0.65625 0.53125 0.71875-1.9688 0.625 1.1875 0.6875-1.25 0.65625 0.03125 0.625-0.9375 0.78125 0.65625 0.53125-0.90625 0.71875 0.53125 0.71875-0.90625 0.59375-0.09375 0.53125-1.0938 0.84375 1 0.625-0.9375 0.6875-0.03125 0.46875-1.0625 0.90625 0.9375 0.625-0.65625 0.71875 0.09375 0.59375-1.0312 0.75 0.46875 0.375-1.2812 0.96875 0.75 0.5-0.875zm6.375 0.0625 0.53125 0.40625v0.375l-0.5625-0.40625 0.03125-0.375zm-107.62 0.53125 0.4375 0.34375-0.03125 1.5625-0.40625-0.34375v-1.5625zm102.91 0.0625 0.65625 0.5v0.59375l-0.6875-0.03125 0.03125-1.0625zm5.5625 0.0625 1.7812 1.3438-0.03125 0.375-1.7188-1.3125-0.03125-0.40625zm-100.88 0.28125 1.5 1.1562v0.53125l-1.5-1.0938v-0.59375zm2.125 0.21875 1.7812 1.5938-0.46875-0.0625-1.5938-1.2812 0.28125-0.25zm-6.25 0.125 1.1562 0.84375v0.25l-1.125-0.875-0.03125-0.21875zm5.9062 0.4375 1.5312 1.1562-0.21875 9.25-1.4062-1.1562 0.09375-9.25zm-5.875 0.28125 1.125 0.8125-0.03125 0.625-1.0938-0.8125v-0.625zm4.0938 0.125 1.4688 1.125-0.03125 1.5-1.4375-1.0625v-1.5625zm103 0.125 1.4688 1.125-0.03125 0.40625-1.4688-1.125 0.03125-0.40625zm-4.8125 0.53125 1.4375 1.0938-0.03125 1.125-1.4062-1.1562v-1.0625zm-94.562 0.21875 0.40625 0.28125 0.0625 9.0312-0.6875-0.03125 0.21875-9.2812zm104.62 0.125v1.9062l-0.5625-0.03125c0.27705-0.71286 0.1019-1.2575 0.0625-1.8438l0.5-0.03125zm-112.34 0.09375 1.0625 0.78125-0.03125 1.5312-1.0312-0.8125v-1.5zm109.59 0.03125 0.34375 0.21875-1.8125 1.3438-0.3125-0.125 1.7812-1.4375zm0.71875 0.21875 0.09375 8.0312-1.8125 0.78125-0.09375-7.4688 1.8125-1.3438zm-6.2812 0.65625 0.65625 0.5v0.5625l-0.6875-0.03125 0.03125-1.0312zm-95.562 0.125 1.375 1.0312v0.53125l-1.375-1v-0.5625zm49.531 0-1.8125 4.1875 1.4062 11.031-2.0312 0.1875v-10.281l-1.0312-1.5312-0.78125-2.0938c1.4357 2.7188 1.6805 0.6958 2.5938 0.59375l1.6562-2.0938zm-47.531 0.03125 1.7812 1.5938-0.46875-0.0625-1.5938-1.2812 0.28125-0.25zm-6.375 0.09375 1.4062 1.0938v0.1875l-1.375-1.0312-0.03125-0.25zm106.41 0.28125 0.15625 0.15625-0.125 0.0625-0.03125-0.21875zm-100.38 0.1875 1.5312 1.1562-0.21875 9.25-1.4062-1.1562 0.09375-9.25zm94.875 0 0.09375 0.0625-0.09375 0.09375v-0.15625zm0.21875 0.15625h0.625l-1.875 1.375-0.3125-0.125 0.96875-0.78125 0.375-0.3125 0.21875-0.15625zm6.0625 0-0.25 0.90625-0.46875 0.1875-0.03125-0.75 0.75-0.34375zm-107.16 0.0625 1.375 1.0625-0.03125 0.5625-1.3438-1v-0.625zm42.875 0.0625c0.91567-0.040109 1.6987 0.8718 2.4375 1.6875-0.70134-0.11393-1.6441-0.14593-2.6562-0.15625-1.2782 0.10073-1.8242 0.58248-2.3438 1.0625l-0.03125-0.125c0.009088-1.0381 0.67328-2.1602 2.0938-2.375 0.16993-0.073245 0.33952-0.08672 0.5-0.09375zm60.688 0.03125 0.46875 0.15625v6.6562l-0.40625-0.03125-0.0625-6.7812zm-1.9688 0.21875 0.4375 0.34375 0.09375 7.3438-1.8125 0.78125-0.09375-7.4688 1.375-1zm-97.25 0.0625 1.3438 1-0.03125 1.5312-1.3125-0.96875v-1.5625zm98.938 0.28125v0.4375l-1.0312 0.4375-0.03125-0.4375 1.0625-0.4375zm-49.719 0.34375 8.8438 9.5c-0.051604 0.3859 0.010196 0.8852-0.71875 0.59375l-8.7188-8.9375 0.59375-1.1562zm-45.719 0.0625 0.40625 0.28125 0.0625 9.0312-0.6875-0.03125 0.21875-9.2812zm99.25 0.125 0.59375 0.4375-0.21875 0.21875-0.71875-0.53125 0.34375-0.125zm-107.09 0.0625 1.3125 1-0.03125 1.5312-1.2812-0.96875v-1.5625zm97.125 0.15625 0.34375 0.21875-1.8125 1.3438-0.3125-0.125 1.7812-1.4375zm6.1875 0.15625v0.8125l-1 0.4375-0.0625-0.8125 1.0625-0.4375zm-5.4375 0.0625 0.0625 8.0312-1.7812 0.78125-0.125-7.4688 1.8438-1.3438zm1.5312 0.03125 0.46875 0.15625v6.6562l-0.40625-0.03125-0.0625-6.7812zm7.0625 0.15625 0.46875 0.34375-0.4375 0.1875-0.03125-0.53125zm-62.938 0.25c0.66741-0.035282 1.2581 0.047241 1.625 0.3125-0.43337 0.58014-1.3316 0.68617-2.0938 0.9375-0.78825-0.091392-1.4821 0.20831-2.375-0.40625 0.61116-0.3165 0.69519-0.8897 2.1562-0.78125 0.23923-0.028525 0.46503-0.050739 0.6875-0.0625zm64.5 0.03125v1.9062l-0.21875-0.03125c0.21108-0.45091 0.24907-0.50896-0.1875-0.96875-0.03975-0.14685-0.06507-0.60729-0.09375-0.875l0.5-0.03125zm-8.9062 0.28125v0.46875l-1.0312 0.4375-0.03125-0.46875 1.0625-0.4375zm-90.531 0.03125 1.5 1.1562v0.5l-1.5-1.125v-0.53125zm2.125 0.1875 1.7812 1.5938-0.46875-0.0625-1.5938-1.2812 0.28125-0.25zm-6.375 0.03125 1.2812 0.96875v0.25l-1.25-1-0.03125-0.21875zm41.344 0.1875-0.59375 2.625c-0.845 1.0589-2.7321 1.1893-4.3438 0.40625l-0.34375-2.375c0.61525 0.32669 1.7022 0.33664 2.6562 0.4375 1.2243-0.10643 2.0478-0.50198 2.625-1.0938zm60.844 0h0.03125l0.3125 0.3125-0.3125 0.125-0.03125-0.4375zm-3.4375 0.0625 0.25 0.21875 0.03125 0.5625-1 0.40625-0.0625-0.84375 0.78125-0.34375zm-92.719 0.28125 1.5312 1.1562-0.21875 9.25-1.4062-1.1562 0.09375-9.25zm84.844 0.15625 0.46875 0.15625v6.6562l-0.40625-0.03125-0.0625-6.7812zm3.9375 0 0.03125 0.8125-1.0625 0.46875-0.03125-0.84375 1.0625-0.4375zm8.3438 0-0.21875 0.90625-0.65625 0.28125-0.0625-0.8125 0.9375-0.375zm-103.12 0.03125 1.2188 0.96875v0.53125l-1.2188-0.9375v-0.5625zm88.188 0.09375 0.34375 0.21875-1.8125 1.3438-0.3125-0.125 1.7812-1.4375zm-83.969 0.125 1.4688 1.125-0.03125 1.5312-1.4375-1.0938v-1.5625zm84.688 0.09375 0.09375 8.0312-1.8125 0.78125-0.09375-7.4688 1.8125-1.3438zm1.6562 0.4375 0.03125 0.5-1.4688 0.625-0.03125-0.5 1.4688-0.625zm8.4375 0.03125v0.46875l-0.96875 0.40625-0.03125-0.46875 1-0.40625zm-91.156 0.3125 0.40625 0.28125 0.0625 9.0312-0.6875-0.03125 0.21875-9.2812zm-7.8438 0.125 1.1875 0.90625-0.03125 1.5312-1.1562-0.875v-1.5625zm94.812 0 0.03125 0.8125-1.0312 0.4375-0.03125-0.78125 1.0312-0.46875zm4.2188 0.46875 0.03125 0.84375-0.96875 0.40625-0.03125-0.84375 0.96875-0.40625zm-8.4375 0.03125 0.03125 0.875-1.4375 0.625-0.0625-0.875 1.4688-0.625zm-7.25 0.25 0.34375 0.21875-1.8125 1.3438-0.3125-0.125 1.7812-1.4375zm2.9375 0.03125 0.46875 0.15625v6.6562l-0.40625-0.03125-0.0625-6.7812zm-2.1875 0.21875 0.0625 8-1.7812 0.78125-0.125-7.4688 1.8438-1.3125zm-75.5 0.125 2 1.5312v0.53125l-2-1.5v-0.5625zm-4.3438 0.15625 1.375 1.0312v0.28125l-1.375-1.0312v-0.28125zm90.594 0 0.03125 0.46875-1 0.4375-0.03125-0.5 1-0.40625zm-8.8438 0.125v0.53125l-1.7188 0.75-0.03125-0.53125 1.75-0.75zm-74.781 0.375 1.7812 1.5938-0.46875-0.0625-1.5938-1.2812 0.28125-0.25zm79.406 0.03125 0.03125 0.75-1.4062 0.59375-0.0625-0.71875 1.4375-0.625zm-86.375 0.1875 1.3438 1.0625v0.5l-1.3438-1v-0.5625zm90.625 0.21875 0.03125 0.84375-1 0.4375-0.03125-0.875 1-0.40625zm-86.281 0.125 1.9688 1.4688-0.03125 1.5312-1.9375-1.4688v-1.5312zm2.2812 0 1.5312 1.1562-0.21875 9.25-1.4062-1.1562 0.09375-9.25zm29.062 0 5.6562 4.625-8.375 3.8438-5.5625-5.5938 6.9688-2.7812c0.42175 0.020922 0.85451 0.003106 1.3125-0.09375zm46.094 0.0625 0.03125 0.90625-1.7188 0.75-0.03125-0.90625 1.7188-0.75zm-46.562 0.21875-6.5312 2.5938 4.4375 4.4062 6.7812-2.625-4.6875-4.375zm41.969 0.03125 0.46875 0.15625v6.6562l-0.40625-0.03125-0.0625-6.7812zm-2.875 0.125 0.34375 0.21875-1.8125 1.3438-0.3125-0.125 1.7812-1.4375zm0.75 0.21875 0.0625 8.0312-1.7812 0.78125-0.125-7.4688 1.8438-1.3438zm11.344 0.03125 0.03125 0.46875-1.4062 0.59375-0.03125-0.5 1.4062-0.5625zm-86.406 0.1875 1.3125 1-0.03125 1.5312-1.2812-1v-1.5312zm34.844 0.0625v1.5312l-4.2812 1.6562-1.0312-0.96875 5.3125-2.2188zm42.062 0.15625 0.03125 0.53125-1.6562 0.6875-0.03125-0.53125 1.6562-0.6875zm-41.5 0.0625 3.4375 3.1562-1.375 0.5625-2.0938-2.2812 0.03125-1.4375zm-26.938 0.125 0.40625 0.28125 0.0625 9.0312-0.6875-0.03125 0.21875-9.2812zm73.344 0.125 0.03125 0.6875-1.6875 0.71875-0.03125-0.65625 1.6875-0.75zm4.625 0.21875 0.03125 0.875-1.375 0.59375-0.03125-0.875 1.375-0.59375zm-9.5 0.46875 0.03125 0.9375-1.625 0.71875-0.0625-0.96875 1.6562-0.6875zm-72.594 0.125 1.0625 0.8125c-0.046645 0.064382-0.10568 0.12471-0.15625 0.1875l-0.875-0.6875-0.03125-0.3125zm68.062 0.125 0.46875 0.15625v6.6562l-0.40625-0.03125-0.0625-6.7812zm-63.188 0.15625 1.75 1.3125v0.5l-1.75-1.3125v-0.5zm72.625 0.0625 0.03125 0.53125-1.6875 0.6875-0.03125-0.5625 1.6875-0.65625zm-47 0.0625-0.03125 2.1562-2.3438 1.125-1.625-1.5312 4-1.75zm34.531 0 0.34375 0.21875-1.8125 1.3438-0.3125-0.125 1.7812-1.4375zm-34 0.21875 1.9688 2.0938-1.2188 0.5-0.8125-0.5625 0.0625-2.0312zm34.719 0.03125 0.09375 8-1.7812 0.78125-0.125-7.4688 1.8125-1.3125zm-58.5 0.0625 1.7812 1.5938-0.46875-0.0625-1.5938-1.2812 0.28125-0.25zm-7.2188 0.03125 0.6875 0.5 1.1875 0.9375-0.03125 0.46875-1.8438-1.375v-0.53125zm67.75 0.09375 0.03125 0.5625-1.8438 0.75-0.03125-0.59375 1.8438-0.71875zm-66.438 0.15625 0.5625 0.4375v0.3125l-0.65625-0.5c0.040228-0.079692 0.057367-0.17005 0.09375-0.25zm21.562 0.1875 5.5312 5.2812v0.78125l-5.5625-5.0938 0.03125-0.96875zm-16 0.09375 1.5312 1.1562-0.21875 9.25-1.4062-1.1562 0.09375-9.25zm65.719 0 0.03125 0.625-1.625 0.6875-0.03125-0.59375 1.625-0.71875zm4.9062 0.0625 0.03125 0.90625-1.6562 0.6875-0.03125-0.875 1.6562-0.71875zm-72.656 0.09375 1.7188 1.3125-0.03125 1.5312-1.6875-1.2812v-1.5625zm62.938 0.46875 0.03125 0.96875-1.8125 0.78125-0.0625-1 1.8438-0.75zm-67.781 0.03125 1.8125 1.4062-0.03125 1.5312-1.7812-1.3125v-1.625zm59.969 0.375 0.34375 0.21875-1.8125 1.3438-0.3125-0.125 1.7812-1.4375zm3.125 0 0.46875 0.15625v6.6562l-0.40625-0.03125-0.0625-6.7812zm9.5312 0.03125 0.03125 0.53125-1.5938 0.6875-0.03125-0.5625 1.5938-0.65625zm-49.781 0.0625 5.5625 5.0625 0.03125 2.2812-5.6562-5.3125 0.0625-2.0312zm37.875 0.125 0.0625 8.0312-1.7812 0.78125-0.125-7.4688 1.8438-1.3438zm-52 0.03125 0.40625 0.28125 0.0625 9.0312-0.6875-0.03125 0.21875-9.2812zm22.219 0.25 0.625 0.46875-0.65625 0.28125 0.03125-0.75zm-0.5 0.03125v0.90625l-1.5625 0.65625-0.625-0.5625 2.1875-1zm32.375 0v0.65625l-1.875 0.78125-0.03125-0.625 1.9062-0.8125zm-25.781 0.1875v0.78125l-8.0625 3.5938v-0.59375l8.0625-3.7812zm30.781 0.3125 0.03125 0.53125-1.8125 0.75v-0.5l1.7812-0.78125zm4.8438 0.03125 0.03125 0.9375-1.5625 0.6875-0.0625-0.96875 1.5938-0.65625zm-67.812 0.28125 1.6562 1.2812v0.3125l-1.625-1.2188-0.03125-0.375zm4.625 0.125 1.875 1.4062v0.5l-1.875-1.4062v-0.5zm53.375 0.1875 0.03125 1-1.875 0.84375-0.0625-1.0312 1.9062-0.8125zm-25.781 0.0625 0.03125 2.0312-8.0938 4-0.03125-2.2812 8.0938-3.75zm18.281 0.03125 0.34375 0.21875-1.8125 1.3438-0.3125-0.125 1.7812-1.4375zm-43.375 0.15625 1.7812 1.5938-0.46875-0.0625-1.5938-1.2812 0.28125-0.25zm46.094 0 0.46875 0.15625v6.6562l-0.40625-0.03125-0.0625-6.7812zm-1.9688 0.0625 0.0625 8.0312-1.7812 0.78125-0.125-7.4688 1.8438-1.3438zm11.75 0.03125 0.03125 0.59375-1.7812 0.75-0.03125-0.59375 1.7812-0.75zm-62.969 0.15625 1.625 1.2188-0.03125 0.46875-1.5938-1.1875v-0.5zm17.906 0.25 5.6562 5.2188 0.03125 1.7812-5.75-4.8438 0.0625-2.1562zm-11.156 0.0625 1.5312 1.1562-0.21875 9.25-1.4062-1.1562 0.09375-9.25zm-2.1562 0.15625 1.8438 1.375-0.03125 1.5625-1.8125-1.375v-1.5625zm48.312 0.03125 0.03125 0.59375-1.5312 0.65625-0.03125-0.65625 1.5312-0.59375zm10.094 0.4375 0.03125 0.96875-1.75 0.75-0.03125-1 1.75-0.71875zm-5 0.0625 0.03125 0.46875-1.875 0.8125v-0.5l1.8438-0.78125zm-58 0.15625 1.5625 1.2188-0.03125 1.5312-1.5312-1.1875v-1.5625zm48.562 0.34375 0.46875 0.15625v6.6562l-0.375-0.03125v-0.25h-0.03125v-1.0625l-0.03125-0.5-0.03125-4.9688zm-39.969 0.09375 0.40625 0.28125 0.0625 9.0312-0.6875-0.03125 0.21875-9.2812zm44.344 0.0625 0.03125 1.0312-1.4688 0.625-0.0625-1.0625 1.5-0.59375zm-20.719 0.1875 0.03125 1.7188-8.0938 3.9688-0.03125-1.8125 8.0938-3.875zm25.812 0.03125 0.03125 0.625-1.8438 0.75-0.03125-0.625 1.8438-0.75zm-9.75 0.5 0.03125 0.65625-0.78125 0.34375-0.28125-0.5625 1.0312-0.4375zm-30.438 0.15625 5.75 4.9375 0.03125 1.9688-5.8438-5.125 0.0625-1.7812zm-13.25 0.1875 1.7812 1.3438v0.3125l-1.75-1.3125-0.03125-0.34375zm4.75 0.1875 1.25 0.9375v0.46875l-1.25-0.9375v-0.46875zm1.875 0.09375 1.7812 1.5938-0.46875-0.0625-1.5938-1.2812 0.28125-0.25zm46.844 0 0.03125 1-1.8125 0.78125-0.0625-1 1.8438-0.78125zm-5.0938 0.15625 0.03125 0.4375-1.4688 0.59375-0.03125-0.40625 1.4688-0.625zm-6.0938 0.09375c0.17164 0.010656 0.38826 0.224 0.53125 0.25-0.54233 0.67884-0.21881 0.79268-0.28125 1.5625-0.11799-0.048616-0.42748-0.10395-0.46875-0.15625-0.36183-0.45862-0.099814-1.0224 0.0625-1.5938 0.040831-0.05121 0.099035-0.066052 0.15625-0.0625zm-42.25 0.25 1.7188 1.3125v0.46875l-1.7188-1.3125v-0.46875zm6.25 0.0625 1.5312 1.1562-0.21875 9.25-1.4062-1.1562 0.09375-9.25zm37.438 0 0.03125 1.0625-0.6875 0.3125c-0.60886-0.32902-0.6142-0.4019-0.0625-1.0625l0.71875-0.3125zm-16.062 0.125 0.03125 1.9062-8.125 3.6562v-1.4688l8.0938-4.0938zm20.75 0.28125 0.03125 0.65625-1.4375 0.59375-0.03125-0.65625 1.4375-0.59375zm-43.656 0.09375 1.2188 0.90625-0.03125 1.5625-1.1875-0.875v-1.5938zm3.375 0.78125 0.40625 0.28125 0.0625 9.0312-0.6875-0.03125 0.21875-9.2812zm40.312 0.28125 0.03125 1.0312-1.4062 0.59375-0.0625-1.0312 1.4375-0.59375zm-4.6562 0.71875 0.03125 0.6875-0.5 0.21875-0.28125-0.5625 0.75-0.34375zm-34.906 0.1875 1.75 1.3125v0.46875l-1.75-1.3125v-0.46875zm-4.125 0.28125 1.1562 0.84375v0.375l-1.125-0.84375-0.03125-0.375zm6.5 0.1875 1.7812 1.5938-0.46875-0.0625-1.5938-1.2812 0.28125-0.25zm31.375 0.125c0.17164 0.010655 0.41951 0.19275 0.5625 0.21875-0.54232 0.67884-0.25006 0.82393-0.3125 1.5938-0.11799-0.048614-0.42748-0.10395-0.46875-0.15625-0.36183-0.45861-0.068564-1.0224 0.09375-1.5938 0.040832-0.051211 0.067785-0.066052 0.125-0.0625zm-31.719 0.4375 1.5312 1.1562-0.21875 9.25-1.4062-1.1562 0.09375-9.25zm32.906 0 0.03125 1.0625-0.4375 0.1875c-0.60886-0.32902-0.58295-0.4019-0.03125-1.0625l0.4375-0.1875zm-39.031 0.03125 1.125 0.84375-0.03125 0.4375-1.0938-0.84375v-0.4375zm4.0938 0.09375 1.7188 1.2812-0.03125 1.5625-1.6875-1.25v-1.5938zm-4.0938 1.0625 1.0938 0.8125-0.0625 1.5625-1.0312-0.78125v-1.5938zm7.875 0.0625 0.5 0.1875 0.125 9.125-0.75 0.0625 0.125-9.375zm2.8438 1.0625 1.7812 1.5938-0.46875-0.0625-1.5938-1.2812 0.28125-0.25zm-6.625 0.03125 1.6562 1.2812v0.375l-1.625-1.2812-0.03125-0.375zm4.625 0.125 1.375 1.0312v0.4375l-1.375-1.0312v-0.4375zm1.6562 0.40625 1.5312 1.1562-0.21875 9.25-1.4062-1.1562 0.09375-9.25zm-6.25 0.28125 1.625 1.2188-0.03125 0.4375-1.5938-1.2188v-0.4375zm4.5938 0.4375 1.3438 1.0312-0.03125 1.5625-1.3125-0.96875v-1.625zm3.5 0.5625 0.40625 0.28125 0.0625 9.0312-0.6875-0.03125 0.21875-9.2812zm-8.0938 0.15625 1.5938 1.1562-0.0625 1.5938-1.5312-1.1875v-1.5625zm8.8438 1.375 2.25 1.7188-0.21875 0.21875-2.0312-1.5312v-0.40625zm-4.25 0.15625 1.2812 0.9375v0.4375l-1.25-0.96875-0.03125-0.40625zm0.03125 0.8125 1.2188 0.9375v0.40625l-1.2188-0.9375v-0.40625zm4.2188 0.15625 1.6562 1.25-0.09375 1.5312-1.5625-1.1875v-1.5938zm-4.2188 0.96875 1.1875 0.90625-0.03125 1.5938-1.1562-0.90625v-1.5938zm6.8125 0.09375v1.9062l-0.5625-0.03125c0.27705-0.71286 0.1019-1.2575 0.0625-1.8438l0.5-0.03125zm-2.5625 2 2.0312 1.5625-0.21875 0.21875-1.8125-1.375v-0.40625zm0 1.125 1.4375 1.0938-0.09375 1.5312-1.3438-1.0312v-1.5938zm2.375 0.90625v1.9062l-0.5625-0.03125c0.27705-0.71286 0.1019-1.2575 0.0625-1.8438l0.5-0.03125z" fill-rule="evenodd"/>
 </g>
</svg>
