<?xml version="1.0" encoding="UTF-8"?>
<!-- Created with Inkscape (http://www.inkscape.org/) -->
<svg id="svg2" width="128" height="128" version="1.0" xmlns="http://www.w3.org/2000/svg" xmlns:cc="http://creativecommons.org/ns#" xmlns:dc="http://purl.org/dc/elements/1.1/" xmlns:rdf="http://www.w3.org/1999/02/22-rdf-syntax-ns#" xmlns:xlink="http://www.w3.org/1999/xlink">
 <defs id="defs4">
  <linearGradient id="linearGradient2320">
   <stop id="stop2322" stop-color="#6a3c1d" offset="0"/>
   <stop id="stop2324" stop-color="#8f5127" offset="1"/>
  </linearGradient>
  <linearGradient id="linearGradient3332">
   <stop id="stop3334" stop-color="#bb8f56" offset="0"/>
   <stop id="stop3336" stop-color="#d1af63" offset="1"/>
  </linearGradient>
  <linearGradient id="linearGradient2433" x1="26.205" x2="56.303" y1="45.838" y2="85.189" gradientUnits="userSpaceOnUse" xlink:href="#linearGradient2320"/>
  <linearGradient id="linearGradient2437" x1="27.503" x2="46.962" y1="65.384" y2="83.2" gradientUnits="userSpaceOnUse" xlink:href="#linearGradient3332"/>
  <linearGradient id="linearGradient2441" x1="26.897" x2="27.546" y1="59.935" y2="60.108" gradientUnits="userSpaceOnUse" xlink:href="#linearGradient3332"/>
  <linearGradient id="linearGradient2445" x1="31.005" x2="34.551" y1="63.914" y2="73.297" gradientUnits="userSpaceOnUse" xlink:href="#linearGradient3332"/>
  <linearGradient id="linearGradient2449" x1="37.708" x2="43.33" y1="71.049" y2="80" gradientUnits="userSpaceOnUse" xlink:href="#linearGradient3332"/>
  <linearGradient id="linearGradient2453" x1="64.13" x2="105.9" y1="92.584" y2="64.13" gradientUnits="userSpaceOnUse" xlink:href="#linearGradient2320"/>
  <linearGradient id="linearGradient2457" x1="72.775" x2="74.212" y1="87.882" y2="91.062" gradientUnits="userSpaceOnUse" xlink:href="#linearGradient3332"/>
  <linearGradient id="linearGradient2461" x1="92.1" x2="92.895" y1="83.846" y2="85.742" gradientUnits="userSpaceOnUse" xlink:href="#linearGradient3332"/>
  <linearGradient id="linearGradient2465" x1="93.323" x2="93.751" y1="77.914" y2="79.076" gradientUnits="userSpaceOnUse" xlink:href="#linearGradient3332"/>
  <linearGradient id="linearGradient2469" x1="124.51" x2="124.02" y1="67.518" y2="68.496" gradientUnits="userSpaceOnUse" xlink:href="#linearGradient3332"/>
  <linearGradient id="linearGradient2473" x1="64.702" x2="72.714" y1="77.547" y2="68.802" gradientUnits="userSpaceOnUse" xlink:href="#linearGradient3332"/>
  <linearGradient id="linearGradient2477" x1="66.415" x2="70.573" y1="75.712" y2="71.493" gradientUnits="userSpaceOnUse" xlink:href="#linearGradient2320"/>
  <linearGradient id="linearGradient2483" x1="64.702" x2="72.714" y1="77.547" y2="68.802" gradientTransform="translate(13.638 -5.5651)" gradientUnits="userSpaceOnUse" xlink:href="#linearGradient3332"/>
  <linearGradient id="linearGradient2485" x1="66.415" x2="70.573" y1="75.712" y2="71.493" gradientTransform="translate(13.638 -5.5651)" gradientUnits="userSpaceOnUse" xlink:href="#linearGradient2320"/>
  <linearGradient id="linearGradient2491" x1="64.702" x2="72.714" y1="77.547" y2="68.802" gradientTransform="translate(26.725 -10.58)" gradientUnits="userSpaceOnUse" xlink:href="#linearGradient3332"/>
  <linearGradient id="linearGradient2493" x1="66.415" x2="70.573" y1="75.712" y2="71.493" gradientTransform="translate(26.725 -10.58)" gradientUnits="userSpaceOnUse" xlink:href="#linearGradient2320"/>
  <linearGradient id="linearGradient2499" x1="64.702" x2="72.714" y1="77.547" y2="68.802" gradientTransform="translate(38.834 -15.289)" gradientUnits="userSpaceOnUse" xlink:href="#linearGradient3332"/>
  <linearGradient id="linearGradient2501" x1="66.415" x2="70.573" y1="75.712" y2="71.493" gradientTransform="translate(38.834 -15.289)" gradientUnits="userSpaceOnUse" xlink:href="#linearGradient2320"/>
  <linearGradient id="linearGradient2507" x1="64.702" x2="72.714" y1="77.547" y2="68.802" gradientTransform="translate(51.309 -20.304)" gradientUnits="userSpaceOnUse" xlink:href="#linearGradient3332"/>
  <linearGradient id="linearGradient2509" x1="66.415" x2="70.573" y1="75.712" y2="71.493" gradientTransform="translate(51.309 -20.304)" gradientUnits="userSpaceOnUse" xlink:href="#linearGradient2320"/>
  <linearGradient id="linearGradient2515" x1="77.319" x2="77.319" y1="64.519" y2="33.557" gradientUnits="userSpaceOnUse" xlink:href="#linearGradient2320"/>
  <linearGradient id="linearGradient2519" x1="64.173" x2="58.638" y1="34.076" y2="25.6" gradientUnits="userSpaceOnUse" xlink:href="#linearGradient2320"/>
  <linearGradient id="linearGradient3494">
   <stop id="stop3496" stop-color="#cf8d00" offset="0"/>
   <stop id="stop3498" stop-color="#cea33e" offset="1"/>
  </linearGradient>
  <linearGradient id="linearGradient2949" x1="92.742" x2="93.476" y1="79.045" y2="80.482" gradientUnits="userSpaceOnUse">
   <stop id="stop2890" stop-color="#007dff" offset="0"/>
   <stop id="stop2892" stop-color="#58abff" offset="1"/>
  </linearGradient>
  <linearGradient id="linearGradient2953" x1="77.276" x2="78.659" y1="99.676" y2="99.676" gradientUnits="userSpaceOnUse" xlink:href="#linearGradient2320"/>
  <linearGradient id="linearGradient3539" x1="77.276" x2="78.659" y1="99.676" y2="99.676" gradientTransform="translate(14.054 -5.1459)" gradientUnits="userSpaceOnUse" xlink:href="#linearGradient2320"/>
  <linearGradient id="linearGradient3545" x1="77.276" x2="78.659" y1="99.676" y2="99.676" gradientTransform="translate(27.762 -10.768)" gradientUnits="userSpaceOnUse" xlink:href="#linearGradient2320"/>
  <linearGradient id="linearGradient3551" x1="77.276" x2="78.659" y1="99.676" y2="99.676" gradientTransform="translate(41.254 -16.303)" gradientUnits="userSpaceOnUse" xlink:href="#linearGradient2320"/>
  <linearGradient id="linearGradient3563" x1="77.276" x2="78.659" y1="99.676" y2="99.676" gradientTransform="translate(-39.611 -.12973)" gradientUnits="userSpaceOnUse" xlink:href="#linearGradient2320"/>
  <linearGradient id="linearGradient3569" x1="77.276" x2="78.659" y1="99.676" y2="99.676" gradientTransform="translate(-71.005 -22.876)" gradientUnits="userSpaceOnUse" xlink:href="#linearGradient2320"/>
  <linearGradient id="linearGradient3812" x1="31.43" x2="46.654" y1="60.904" y2="84.783" gradientUnits="userSpaceOnUse">
   <stop id="stop3407" stop-color="#4f3e2a" offset="0"/>
   <stop id="stop3409" stop-color="#72593c" offset="1"/>
  </linearGradient>
  <linearGradient id="linearGradient3816" x1="50.399" x2="50.706" y1="76.558" y2="77.662" gradientUnits="userSpaceOnUse" xlink:href="#linearGradient2320"/>
  <linearGradient id="linearGradient3822" x1="43.585" x2="51.872" y1="86.502" y2="78.645" gradientUnits="userSpaceOnUse" xlink:href="#linearGradient3332"/>
  <linearGradient id="linearGradient3826" x1="37.395" x2="60.488" y1="90.659" y2="90.659" gradientUnits="userSpaceOnUse" xlink:href="#linearGradient3494"/>
  <linearGradient id="linearGradient3832" x1="43.103" x2="44.275" y1="98.179" y2="93.144" gradientUnits="userSpaceOnUse" xlink:href="#linearGradient3494"/>
  <linearGradient id="linearGradient3836" x1="53.282" x2="52.783" y1="100.2" y2="96.703" gradientUnits="userSpaceOnUse" xlink:href="#linearGradient3494"/>
  <linearGradient id="linearGradient3840" x1="13.859" x2="20.908" y1="65.924" y2="65.47" gradientUnits="userSpaceOnUse" xlink:href="#linearGradient3494"/>
  <linearGradient id="linearGradient3846" x1="12.93" x2="14.011" y1="74.941" y2="69.989" gradientUnits="userSpaceOnUse" xlink:href="#linearGradient3494"/>
  <linearGradient id="linearGradient3852" x1="24.8" x2="23.942" y1="73.773" y2="71.738" gradientUnits="userSpaceOnUse" xlink:href="#linearGradient3494"/>
  <filter id="filter3889">
   <feGaussianBlur id="feGaussianBlur3891" stdDeviation="1.7971891"/>
  </filter>
 </defs>
 <metadata id="metadata7">
  <rdf:RDF>
   <cc:Work rdf:about="">
    <dc:format>image/svg+xml</dc:format>
    <dc:type rdf:resource="http://purl.org/dc/dcmitype/StillImage"/>
   </cc:Work>
  </rdf:RDF>
 </metadata>
 <g id="layer2" fill-rule="evenodd">
  <path id="path3871" d="m73.686 93.405-5.3622-0.51892-22.141 7.9568-11.07-6.4 16.951-6.7459-5.3622-7.2649-1.5568 1.7297-19.027-8.1297-11.589 2.7676-11.07-6.4 9.3405-3.9784-9.5135-11.07 79.222-29.232 25.773 36.497-34.595 30.789z" fill-opacity=".66667" filter="url(#filter3889)"/>
  <path id="path3810" d="m28.054 72.567 0.36832-14.242 8.3487 3.1921 9.6378 10.006 0.24555 13.567-18.6-12.523z" fill="url(#linearGradient3812)"/>
  <path id="path2513" d="m59.53 70.901 3.0494-0.088388 29.036-11.181 35.046-13.789 0.26517-1.5026-20.904-23.6-7.3362 2.7842c-19.866 8.0806-39.806 16.1-60.369 23.6l21.213 23.776z" fill="url(#linearGradient2515)"/>
  <path id="path2431" d="m59.762 96.692 0.086487-25.946-20.93-23.524-21.449-7.0919v23.178l7.8703 8.5622-0.25946-5.7946 0.17297-10.205 12.108 4.2378 10.984 10.811-0.086487 16.605 11.503 9.1676z" fill="url(#linearGradient2433)"/>
  <path id="path2435" d="m25.254 67.114 0.17297-11.416 12.108 4.3243 10.854 10.811-0.21622 12.368-1.8162-3.1135 0.086486-8.4757-9.6-10.119-10.551-3.8919 0.51892 15.741-1.5568-3.2865v-2.9405z" fill="url(#linearGradient2437)"/>
  <path id="path2439" d="m26.724 57.773-0.086486 15.568 0.51892 0.086486 1.1243-0.6054 0.17297-14.53-1.7297-0.51892z" fill="url(#linearGradient2441)"/>
  <path id="path2443" d="m27.589 60.973 0.086487 1.2973-0.51892-0.043243v1.427l0.56216 0.3027v3.8486l-0.56216-0.21622-0.043243 1.4703 0.69189 0.38919v1.2973l8.1297 5.8378 0.77838-0.25946 0.086486-8.9081 0.77838-0.3027v-0.69189l-8.5189-5.6216-0.90811 0.21622-0.56216-0.043243z" fill="url(#linearGradient2445)"/>
  <path id="path2447" d="m36.541 76.886c0-0.17297 0.21622-9.3838 0.21622-9.3838l1.2541-0.56216 8.3892 5.8811 0.12973 4.8865-1.0378 0.3027-4.7135 1.9892-4.2378-3.1135z" fill="url(#linearGradient2449)"/>
  <path id="path3854" d="m17.469 40.125v23.188l7.875 8.5625-0.0625-1.7812 1.5312 3.25-0.53125-15.75 10.562 3.9062 9.5938 10.125-0.03125 1.6875v-0.5l-8.4062-5.875-0.40625 0.1875v-0.71875l-8.5312-5.5938-0.90625 0.21875-0.5625-0.0625 0.09375 1.3125-0.53125-0.0625v1.4375l0.5625 0.3125v3.8438l-0.5625-0.21875-0.03125 1.4688 0.6875 0.375v1.3125l8.125 5.8438 0.59375-0.21875c-0.001163 0.057815 0 0.49078 0 0.5l4.25 3.125 4.7188-2 0.875-0.25-0.03125 2.3438 1.8438 3.0938 0.125-9.0938-0.0625 13.438 11.5 9.1562 0.09375-25.938-20.938-23.531-21.438-7.0938zm7.7812 15.75 0.1875 0.0625-0.1875 11.188v2.5625l-0.15625-3.625 0.15625-10.188zm12.281 11.281-0.71875 0.3125v-0.0625l0.71875-0.25z" fill-opacity=".15686"/>
  <path id="path2451" d="m59.805 70.659 2.4216 0.17297 1.6-2.2919 3.9784 0.25946 1.2973-2.2919 2.7676 0.25946 0.95135-1.9459 3.5027 0.43243 0.77838-1.773 3.8919-0.086486 0.043243-1.6 4.2378-0.043244 0.38919-1.7297 3.7189 0.12973 0.43243-1.8162 3.373 0.25946 0.69189-1.6432h3.373l0.34595-1.6 3.4162 0.25946 0.6054-1.6865 3.5027-0.043243 0.43244-1.5135 3.373 0.21622 0.17297-1.7297 3.4162 0.25946 0.08649-1.773 3.1568 0.3027 0.64865-1.773 2.5946 0.47568 0.9081-1.8162 2.8541 0.47568 0.43243-1.773 2.6378 0.56216 0.77838-1.3405 0.08648 26.378-66.941 25.859-0.086486-24.649 0.12973-1.3838z" fill="url(#linearGradient2453)"/>
  <path id="path2455" d="m71.246 85.803-0.061155 7.2163 2.6297 1.2231 0.73386-0.42809 2.6908-5.8709-5.9932-2.1404z" fill="url(#linearGradient2457)"/>
  <path id="path2459" d="m76.933 88.127 50.392-19.814 0.06115 0.36693-2.9966 4.8924-50.025 20.426 2.5685-5.8709z" fill="url(#linearGradient2461)"/>
  <path id="path2463" d="m71.735 85.497 51.248-19.753-0.42809 2.6297-47.518 18.775-3.3024-1.6512z" fill="url(#linearGradient2465)"/>
  <path id="path2467" d="m122.8 65.744-0.48924 3.0578 1.3454 0.85617 3.4247-1.4677-4.2809-2.4462z" fill="url(#linearGradient2469)"/>
  <path id="path2471" d="m63.234 71.615 0.18347 7.8279 9.2956-3.4247-0.12231-7.889-9.3567 3.4858z" fill="url(#linearGradient2473)"/>
  <path id="path2475" d="m64.947 72.777v4.2809l6.1155-2.5074 0.061156-4.2197-6.1767 2.4462z" fill="url(#linearGradient2477)"/>
  <path id="path2479" d="m76.872 66.05 0.18347 7.8279 9.2956-3.4247-0.12231-7.889-9.3567 3.4858z" fill="url(#linearGradient2483)"/>
  <path id="path2481" d="m78.584 67.212v4.2809l6.1155-2.5074 0.061156-4.2197-6.1767 2.4462z" fill="url(#linearGradient2485)"/>
  <path id="path2487" d="m89.959 61.035 0.18347 7.8279 9.2956-3.4247-0.12231-7.889-9.3567 3.4858z" fill="url(#linearGradient2491)"/>
  <path id="path2489" d="m91.672 62.197v4.2809l6.1155-2.5074 0.061156-4.2197-6.1767 2.4462z" fill="url(#linearGradient2493)"/>
  <path id="path2495" d="m102.07 56.326 0.18346 7.8279 9.2956-3.4247-0.12231-7.889-9.3567 3.4858z" fill="url(#linearGradient2499)"/>
  <path id="path2497" d="m103.78 57.488v4.2809l6.1155-2.5074 0.06116-4.2197-6.1767 2.4462z" fill="url(#linearGradient2501)"/>
  <path id="path2503" d="m114.54 51.311 0.18346 7.8279 9.2956-3.4247-0.12231-7.889-9.3567 3.4858z" fill="url(#linearGradient2507)"/>
  <path id="path2505" d="m116.26 52.473v4.2809l6.1155-2.5074 0.06116-4.2197-6.1767 2.4462z" fill="url(#linearGradient2509)"/>
  <path id="path2517" d="m38.582 47.125-21.788-7.292 1.2816-1.1932 5.0381-0.7955 0.39775-1.3258 4.2868-0.48614-0.26516-1.1932 4.1984-0.39775 0.35355-1.3258 4.0217-0.22097 0.30936-1.2816 3.8449-0.53033 0.26516-1.1932 3.7565-0.39775 0.53033-1.3258 3.7123-0.22097 0.57452-1.2374 3.0936-0.17678 0.044195-1.149 3.9775-0.70711-0.17678-1.1049 4.4636-0.13258-0.13258-1.2374 3.8449-0.39775 0.30936-1.0607 3.4913-0.39775 0.088388-1.4142 3.4913 0.044194 0.088388-1.3258 3.5355-0.17678 0.17678-1.2374h2.9168l0.044194-1.1049 3.2262-0.17678-0.35355-1.2374 3.6239-0.22097 20.462 7.2478-15.114 6.0546-16.838 7.0711-18.738 7.3804-16.042 5.8778z" fill="url(#linearGradient2519)"/>
  <path id="path2947" d="m73.723 86.323 6.6048-2.2627 3.333-1.3454 7.7056-3.3024 5.9321-2.2322 4.342-1.5289 4.8618-1.4066 6.0849-2.7214 4.6784-2.0793s5.1982-2.3239 5.3817-2.1099c0.18346 0.21404 1.9875 1.8652 1.9875 1.8652l-15.992 6.2378-24.86 9.6931-6.88 2.7214-3.1801-1.5289z" fill="url(#linearGradient2949)"/>
  <path id="path2951" d="m76.324 95.611-0.12973 8.2595 1.1676 0.47568h0.95135l1.2973-0.64865 0.17297-8.2162-1.4703-0.47568-1.2973 0.12973-0.69189 0.47568z" fill="url(#linearGradient2953)"/>
  <path id="path2955" d="m76.714 95.265-0.47568 0.6054 1.0811 0.95135 0.56216 0.043243 0.9946-0.25946 0.95135-0.95135-1.427-0.73514-1.6865 0.34595z" fill-opacity=".15686"/>
  <path id="path3535" d="m90.378 90.465-0.12973 8.2595 1.1676 0.47568h0.95135l1.2973-0.64865 0.17297-8.2162-1.4703-0.47568-1.2973 0.12973-0.69189 0.47568z" fill="url(#linearGradient3539)"/>
  <path id="path3537" d="m90.768 90.119-0.47568 0.6054 1.0811 0.95135 0.56216 0.043243 0.9946-0.25946 0.95135-0.95135-1.427-0.73514-1.6865 0.34595z" fill-opacity=".15686"/>
  <path id="path3541" d="m104.09 84.843-0.12973 8.2595 1.1676 0.47568h0.95136l1.2973-0.64865 0.17298-8.2162-1.4703-0.47568-1.2973 0.12973-0.69189 0.47568z" fill="url(#linearGradient3545)"/>
  <path id="path3543" d="m104.48 84.497-0.47568 0.6054 1.0811 0.95135 0.56216 0.043243 0.9946-0.25946 0.95135-0.95135-1.427-0.73514-1.6865 0.34595z" fill-opacity=".15686"/>
  <path id="path3547" d="m117.58 79.308-0.12973 8.2595 1.1676 0.47568h0.95136l1.2973-0.64865 0.17298-8.2162-1.4703-0.47568-1.2973 0.12973-0.69189 0.47568z" fill="url(#linearGradient3551)"/>
  <path id="path3549" d="m117.97 78.962-0.47568 0.6054 1.0811 0.95135 0.56216 0.043243 0.9946-0.25946 0.95135-0.95135-1.427-0.73514-1.6865 0.34595z" fill-opacity=".15686"/>
  <path id="path3559" d="m36.714 95.481-0.12973 8.2595 1.1676 0.47568h0.95135l1.2973-0.64865 0.17297-8.2162-1.4703-0.47568-1.2973 0.12973-0.69189 0.47568z" fill="url(#linearGradient3563)"/>
  <path id="path3561" d="m37.103 95.135-0.47568 0.6054 1.0811 0.95135 0.56216 0.043243 0.9946-0.25946 0.95135-0.95135-1.427-0.73514-1.6865 0.34595z" fill-opacity=".15686"/>
  <path id="path3565" d="m5.3189 72.735-0.12973 8.2595 1.1676 0.47568h0.95135l1.2973-0.64865 0.17297-8.2162-1.4703-0.47568-1.2973 0.12973-0.69189 0.47568z" fill="url(#linearGradient3569)"/>
  <path id="path3567" d="m5.7081 72.389-0.47568 0.6054 1.0811 0.95135 0.56216 0.043243 0.9946-0.25946 0.95135-0.95135-1.427-0.73514-1.6865 0.34595z" fill-opacity=".15686"/>
  <path id="path3814" d="m58.011 73.427-16.82 6.2615-0.92081 0.92081s-0.061387 0.42971 0 0.67526 0.42971 0.55248 0.42971 0.55248l0.55248 0.061387 4.4199-1.6575 9.6992-3.806 3.008-0.92081 0.42971-0.9822-0.12277-0.61387-0.67526-0.4911z" fill="url(#linearGradient3816)"/>
  <path id="path3820" d="m41.068 81.96 0.30694 5.709 0.84144 0.52025 12.418-4.8174v-6.5684l-13.567 5.1565z" fill="url(#linearGradient3822)"/>
  <path id="path3818" d="m41.068 79.934-1.0436 0.67526 0.061387 0.67526 0.4911 0.55248 0.61387 0.18416 0.21666 5.4707 0.73743 0.41419 0.27366-6.1918-0.55248-0.55248-0.18416-0.73665-0.61387-0.4911z" fill-opacity=".15686"/>
  <path id="path3834" d="m48.421 102.74-1.4976-3.2555 0.88985-5.3825s11.373-3.9501 11.525-3.8198c0.15192 0.13022 0.41237 1.172 0.41237 1.172l0.13022 0.54259-0.21704 0.13022 0.32555 0.5643-0.28215 0.30385 0.45578 0.49918-0.30385 0.21704 0.41237 0.62941-0.41237 0.17363 0.15192 0.34726-0.23874 0.45578 0.30385 0.80304-0.23874 0.15193 0.21704 0.49918-0.23874 0.32556 0.15193 0.43407-0.13022 0.36896-0.021704 0.39067-0.62941-0.30385s0.26044 0.91155 0.30385 0.97666c-0.21704-0.065111-0.80304-0.23874-0.80304-0.23874l-0.086814 0.30385-0.65111-0.043407 0.021704 0.45578-0.82474-0.23874-0.086815 0.36896-0.65111-0.13022-0.1846 0.41245-0.50991-0.15201-0.23874 0.34726-0.49918-0.13023-0.28215 0.32556-0.41237 0.0217-0.36896 0.36896-0.39067-0.15192-0.39067 0.49918-0.34726-0.21703-0.32556 0.52088-0.41237-0.28214-0.30385 0.49918-0.39067-0.26044-0.22793 0.84636-0.5317-0.56422-0.23874 0.43408-0.45578-0.32556-0.34726 1.172-0.45578-0.75963-0.21704 0.45578-0.45578 0.23874z" fill="url(#linearGradient3836)"/>
  <path id="path3824" d="m41.15 85.244-0.17363 0.23874-0.69452-0.28215 0.086815 0.49918-0.62941-0.39066-0.043408 0.54259-0.47748-0.39067s0.15193 0.67281 0.065111 0.67281-0.47748-0.15192-0.47748-0.15192l-0.043408 0.39067-0.84644-0.75963 0.15192 0.97666-0.32555-0.19533-0.34726-0.043407 0.65111 0.52089 2.4308 1.758s7.0754 5.1872 7.2273 5.3391c0.15193 0.15192 1.3239 1.0635 1.3239 1.0635l0.80304 1.0852-0.065111-1.1069 0.54259 0.26044 0.086815-0.6077 0.39067 0.086814 0.26044-0.30385 0.52089 0.65111 0.13022-0.78133 0.34726-0.021703 0.32555-0.6077 0.45578 0.32556 0.17363-0.32556 0.36896 0.10852 0.28215-0.54259 0.34726 0.043408 0.32556-0.41237 0.41237 0.13022 0.23874-0.28215 0.32556 0.15192 0.34726-0.586 0.45578 0.43407 0.15192-0.32556 0.41237 0.17363 0.30385-0.39067 0.39067 0.36896 0.17363-0.6294 0.80304 0.39066-0.10852-0.69452 0.36896 0.15193 0.26044 0.043407-0.043408-0.43407 0.41237 0.13022 0.13022-0.586 0.43407 0.52089 0.26044 0.065111 0.43407-0.17363-0.65111-0.69452-3.0385-1.6061-1.7363-0.86815-2.8432-1.6278-2.0836-1.2371-7.7482 2.9083-1.2154-0.75963-0.021704-2.2138z" fill="url(#linearGradient3826)"/>
  <path id="path3830" d="m40.955 88.977-3.1036-2.2572-0.47748-0.39067 0.021703 0.15193 0.26044 0.54259-0.41237 0.23874 0.26044 0.73792-0.71622 0.54259 0.67281 0.49918-0.28215 0.65111 0.24963 0.83563-0.33645 0.032514 0.23874 0.93326-0.15192 0.41237 0.17363 0.65111-0.586-0.086814 0.6077 1.0201-0.26044 0.52089 0.043407 0.45578 0.39067 0.26044 2.5827 0.54259 0.065111 1.2805 0.41237 0.26044 0.43407 0.15193 0.45578 0.21704 0.6294 0.49918 0.93326 0.75963 1.389 1.389 3.0819 2.2355 0.97666 0.67281-0.10852-0.54259 0.34726-0.30385-0.32555-0.67282 0.36896-0.13022-0.30385-0.86815 0.41237-0.19533-0.30385-0.73792 0.5643-0.021704-0.54259-0.97666 0.54259-0.19533-0.39067-0.65111 0.15193-0.43407-0.13022-0.62941 0.21704-0.39066-0.39066-0.6077 0.45578-0.49918-6.0553-4.4275-2.0618-1.4758z" fill="url(#linearGradient3832)"/>
  <path id="path3850" d="m25.989 67.611 0.23784 0.6054-0.21622 0.17297 0.23784 0.3027-0.1946 0.43243 0.43243 0.54054-0.21622 0.19459 0.36757 0.64865-0.43243 0.10811 0.1946 0.28108-0.25946 0.47568 0.3027 0.6054-0.17297 0.17297 0.1946 0.51892-0.1946 0.28108 0.086487 0.43243-0.086487 0.36757v0.36757l-0.67027-0.36757 0.28108 0.9946-0.73514-0.3027-0.064865 0.32432-0.67027-0.021621 0.064865 0.38919-0.69189-0.17297-0.10811 0.28108-0.62703-0.086486-0.12973 0.4-0.47568-0.18378-0.25946 0.32432-0.41081-0.10811-0.28108 0.23784-0.45405 0.064865-0.28108 0.36757-0.34595-0.17297-0.32432 0.50811-0.36757-0.21622-0.28108 0.46486-0.38919-0.28108-0.25946 0.46486-0.38919-0.22703-0.23784 0.8-0.45405-0.4973-0.25946 0.4-0.41081-0.31351-0.32432 1.1243-0.36757-0.73514-0.21622 0.38919-0.36757 0.2054s-0.58378-0.91892-0.45405-1.3946c0.12973-0.47568 0.064865-6.4649 0.064865-6.4649l9.7297-3.4162 0.99459 0.38919-0.10811 0.32432z" fill="url(#linearGradient3852)"/>
  <path id="path3838" d="m8.7351 65.384-2.8432-2.0324-0.35676-0.28108 0.56216 0.12973 0.021622-0.67027 0.47568 0.38919 0.10811 0.10811 0.12973-0.32432 0.41081 0.15135v-0.56216l0.41081 0.28108 0.043243-0.41081 0.51892 0.28108v-0.43243l0.62703 0.21622 0.15135-0.17297 0.54054 0.23784 0.17297-0.32432 0.41081 0.10811 0.21622-0.15135 0.34595 0.021622 0.25946-0.17297s0.32432 0.15135 0.38919 0.021621c0.064865-0.12973 0.17297-0.23784 0.17297-0.23784l0.23784 0.064865 0.25946-0.3027h0.28108l0.1946-0.3027 0.41081 0.10811 0.12973-0.47568 0.45405 0.34594 0.043244-0.82162 0.51892 0.64865 0.15135-0.32432 0.41081 0.33514 0.3027-0.65946 0.12973 0.41081c0.34177 0.2972 0.67922 0.60738 1.0486 0.82162l3.0162 1.773 2.7027 1.5351s1.9027 0.86486 2.0541 0.9946c0.15135 0.12973 2.5297 1.3405 2.5297 1.3405l0.4973 0.58378-0.51892 0.1946-0.38919-0.25946-0.17297-0.28108-0.086487 0.54054-0.45405-0.10811 0.086487 0.38919-0.60541-0.1946 0.12973 0.69189-0.75676-0.34595-0.15135 0.4973-0.38919-0.3027-0.21622 0.34595-0.47568-0.15135-0.15135 0.23784-0.34595-0.3027-0.32432 0.47568-0.36757-0.10811-0.23784 0.23784h-0.34595l-0.25946 0.28108-0.32432-0.086486-0.3027 0.56216-0.32432-0.15135-0.10811 0.32432-0.43243-0.25946-0.25946 0.54054-0.38919-0.021622-0.12973 0.73514-0.4973-0.58378-0.15135 0.25946-0.41081-0.043243-0.064865 0.56216-0.54054-0.32432 0.064865 1.0378s-0.95135-1.1459-0.8-1.0162c0.15135 0.12973-6.8541-5.1027-6.8541-5.1027l-0.58378-0.51892z" fill="url(#linearGradient3840)"/>
  <path id="path3844" d="m16.238 70.919-0.36757 0.47568 0.34595 0.58378-0.17297 0.38919 0.12973 0.51892-0.17297 0.41081 0.38919 0.60541-0.4973 0.19459 0.51892 0.88649-0.58378 0.021621 0.3027 0.64865-0.32432 0.23784 0.23784 0.73514-0.34595 0.10811 0.28108 0.64865-0.32432 0.28108 0.10811 0.51892-1.5351-1.1676-2.1622-1.5784-2.227-2.0541-0.84324-0.4973-0.15135-0.4973-1.6432-0.58378-1.9676-1.2541 1e-7 -0.43243 0.25946-0.41081-0.56216-1.0378 0.51892 0.12973-0.10811-0.64865 0.15135-0.28108-0.27027-0.94054 0.29189-0.032431-0.23784-0.75676 0.29189-0.6054-0.61622-0.47568 0.64865-0.47568-0.23784-0.71351 0.34595-0.21622-0.23784-0.62703 1.0054 0.71351 3.8811 2.8973s4.7135 3.5243 4.9081 3.6757c0.19459 0.15135 1.0378 0.56216 0.97297 0.60541z" fill="url(#linearGradient3846)"/>
  <path id="path3865" d="m71.246 85.803-0.061155 7.2163 2.6297 1.2231 0.73386-0.42809 2.6908-5.8709-5.9932-2.1404z" fill-opacity=".15686"/>
  <path id="path3867" d="m40.955 88.977-3.1036-2.2572-0.47748-0.39067 0.021703 0.15193 0.26044 0.54259-0.41237 0.23874 0.26044 0.73792-0.71622 0.54259 0.67281 0.49918-0.28215 0.65111 0.24963 0.83563-0.33645 0.032514 0.23874 0.93326-0.15192 0.41237 0.17363 0.65111-0.586-0.086814 0.6077 1.0201-0.26044 0.52089 0.043407 0.45578 0.39067 0.26044 2.5827 0.54259 0.065111 1.2805 0.41237 0.26044 0.43407 0.15193 0.45578 0.21704 0.6294 0.49918 0.93326 0.75963 1.389 1.389 3.0819 2.2355 0.97666 0.67281-0.10852-0.54259 0.34726-0.30385-0.32555-0.67282 0.36896-0.13022-0.30385-0.86815 0.41237-0.19533-0.30385-0.73792 0.5643-0.021704-0.54259-0.97666 0.54259-0.19533-0.39067-0.65111 0.15193-0.43407-0.13022-0.62941 0.21704-0.39066-0.39066-0.6077 0.45578-0.49918-6.0553-4.4275-2.0618-1.4758z" fill-opacity=".15686"/>
  <path id="path3869" d="m16.238 70.919-0.36757 0.47568 0.34595 0.58378-0.17297 0.38919 0.12973 0.51892-0.17297 0.41081 0.38919 0.60541-0.4973 0.19459 0.51892 0.88649-0.58378 0.021621 0.3027 0.64865-0.32432 0.23784 0.23784 0.73514-0.34595 0.10811 0.28108 0.64865-0.32432 0.28108 0.10811 0.51892-1.5351-1.1676-2.1622-1.5784-2.227-2.0541-0.84324-0.4973-0.15135-0.4973-1.6432-0.58378-1.9676-1.2541 1e-7 -0.43243 0.25946-0.41081-0.56216-1.0378 0.51892 0.12973-0.10811-0.64865 0.15135-0.28108-0.27027-0.94054 0.29189-0.032431-0.23784-0.75676 0.29189-0.6054-0.61622-0.47568 0.64865-0.47568-0.23784-0.71351 0.34595-0.21622-0.23784-0.62703 1.0054 0.71351 3.8811 2.8973s4.7135 3.5243 4.9081 3.6757c0.19459 0.15135 1.0378 0.56216 0.97297 0.60541z" fill-opacity=".15686"/>
 </g>
 <g id="layer1">
  <path id="path2309" d="m85.094 13.25-4.0312 0.4375 0.21875 1.0625-3.0312 0.34375-0.15625 0.875-2.875 0.28125-0.34375 0.96875-3.5 0.40625-0.09375 1-3.4062 0.28125-0.25 1.1562-3.1875 0.625-0.40625 0.875-3.7812 0.5625 0.03125 0.90625-4.4375 0.5-0.0625 1.2188-3.7188 0.5625-0.21875 0.96875-2.9688 0.34375-0.6875 1.0938-3.6875 0.46875-0.4375 1.125-3.75 0.59375-0.40625 1-3.375 0.59375c-0.58182 0.015425-0.32444 0.83706-0.90625 1.0625l-3.7188 0.5-0.59375 1.1875-3.9688 0.5 0.03125 1.0312-4.0625 0.6875-0.5 1.0938-5.125 0.9375-1.2188 1.5 0.78125 0.28125 0.125 21.781c-0.47616-0.27459-1.0099-0.49973-1.4688-0.78125 0.5643 0.40068 1.2852 0.86379 2.2188 1.4062-1.2295 0.4365-2.4843 0.86504-3.7812 1.25-0.98149-0.72459-1.9415-1.4716-2.9375-2.1875l0.125-0.125 0.28125 0.0625 0.21875-0.3125 0.34375 0.03125 0.125-0.34375 0.4375 0.1875 0.125-0.5625 0.4375 0.375 0.03125-0.8125 0.53125 0.65625 0.1875-0.34375 0.375 0.3125 0.28125-0.5625c-0.10639 0.10046 0.1513 0.33855 0.5625 0.65625-0.30528-0.25479-0.5153-0.55111-0.5625-0.9375l-0.28125 0.71875-0.4375-0.3125-0.15625 0.3125-0.53125-0.65625-0.03125 0.8125-0.5-0.34375-0.125 0.5-0.40625-0.125-0.15625 0.28125h-0.3125l-0.1875 0.28125-0.375-0.03125-0.1875 0.28125-0.34375-0.03125-0.21875 0.21875-0.3125-0.03125-0.25 0.125-0.40625-0.09375-0.125 0.28125-0.59375-0.25-0.1875 0.21875-0.65625-0.21875 0.09375 0.375-0.5625-0.28125-0.03125 0.46875-0.46875-0.34375 0.03125 0.59375-0.4375-0.125-0.0625 0.3125-0.8125-0.71875 0.21875 0.875-0.5625-0.0625 0.21875 0.0625 0.46875 0.21875-0.09375-0.8125 0.65625 0.625 0.09375-0.34375 0.4375 0.125-0.03125-0.5625 0.40625 0.28125 0.03125-0.4375 0.5625 0.3125v-0.4375l0.59375 0.21875 0.125-0.25 0.5625 0.28125 0.1875-0.34375 0.375 0.1875 0.28125-0.21875 0.28125 0.03125 0.15625-0.125c1.0179 0.76173 2.0235 1.4876 3.0312 2.2188-1.6653 0.47863-3.3994 0.87449-5.2812 1.1875l-3.0625-2.2188 2.9688 2.2812c0.33157 2.2388 0.093577 4.4803-0.03125 6.7188-0.43175-0.14206-0.85462-0.24946-1.2812-0.28125l-1.875-1.2188-0.03125-0.5 0.25-0.375-0.5-0.9375 0.375 0.03125-0.5-0.125 0.5625 1.0625-0.28125 0.40625 0.03125 0.4375 1.75 1.1875c-0.65396-0.003558-1.322 0.19757-2 0.6875v8.4688c1.5664 1.1551 2.364 1.0333 3.75-0.125-0.037856-2.9006-0.006488-4.9719 0.28125-7.875 0.012264 0.007581 0.018795 0.024716 0.03125 0.03125 0.96495 0.50622 1.8309 1.5412 2.75 2.4375l3.4375 2.5 0.53125 0.34375 0.3125-0.15625 0.28125-0.40625 0.375 0.6875 0.3125-1.125 0.40625 0.3125 0.25-0.375 0.5 0.5 0.21875-0.78125 0.34375 0.1875 0.03125-0.03125-0.40625-0.28125-0.25 0.78125-0.4375-0.5-0.28125 0.40625-0.375-0.3125-0.3125 1.0312-0.375-0.6875-0.28125 0.4375-0.3125 0.21875-0.03125-0.4375 0.28125-0.25-0.25-0.65625 0.34375-0.09375-0.3125-0.75 0.34375-0.25-0.40625 0.1875 0.28125 0.71875-0.34375 0.15625 0.28125 0.65625-0.34375 0.25 0.125 0.46875-0.375-0.3125-3.0625-2.3125c0.060425-2.3902 0.43637-4.8899 0.15625-7.1562l3.5625 2.6875-0.15625 0.4375 0.3125 0.53125-0.21875 0.28125 0.1875 0.625-0.1875 0.375 0.375 0.59375-0.5 0.1875 0.5 0.84375-0.5625 0.0625 0.375 0.71875h0.03125l-0.3125-0.625 0.59375-0.0625-0.53125-0.875 0.5-0.21875-0.34375-0.625 0.125-0.40625-0.09375-0.53125 0.15625-0.375-0.28125-0.46875 0.15625-0.375 0.25 0.21875 0.65625 0.84375-0.09375-1.0938 0.5625 0.3125 0.0625-0.53125 0.375 0.03125 0.21875-0.28125-0.125-0.15625-0.15625 0.3125-0.40625-0.125-0.0625 0.5625-0.5-0.25v0.9375l-0.5625-0.96875-3.8125-2.7812c1.5419-0.53989 3.113-1.0867 4.6562-1.625 1.2051 0.89615 2.4137 1.8353 3.6562 2.8438l-0.03125 0.0625-0.3125-0.09375-0.25 0.5-0.34375-0.09375-0.15625 0.3125-0.4375-0.25-0.3125 0.53125-0.3125-0.03125-0.09375 0.71875-0.4375-0.40625 0.5 0.65625 0.125-0.875 0.3125 0.0625 0.28125-0.5625 0.4375 0.3125 0.125-0.28125 0.34375 0.09375 0.25-0.59375 0.3125 0.125 0.125-0.09375c0.0382 0.031106 0.0555 0.031242 0.09375 0.0625-0.16955 2.0206-0.12132 4.1621-0.03125 6.3125l-0.28125 0.375-0.375-0.15625-0.34375 0.46875-0.34375-0.21875-0.25 0.46875-0.40625-0.25-0.25 0.5 0.25-0.375 0.40625 0.25 0.28125-0.5 0.375 0.21875 0.3125-0.46875 0.375 0.15625 0.28125-0.375 0.40625-0.03125 0.34375-0.25 0.375 0.0625 0.25-0.3125 0.4375 0.125-0.5-0.1875-0.21875 0.28125-0.4375-0.0625-0.125 0.125c-0.25594-2.2005-0.22203-4.3265 0.03125-6.5l0.15625-0.09375 0.28125 0.03125 0.3125-0.4375 0.4375 0.34375 0.125-0.28125 0.4375 0.125 0.1875-0.34375 0.40625 0.3125 0.1875-0.53125 0.96875 0.46875-0.34375-0.75 0.625 0.125-0.0625-0.34375 0.4375 0.0625 0.0625-0.5 0.3125 0.875-0.1875 0.125 0.25 0.4375-0.25 0.34375 0.40625 0.5-0.25 0.1875 0.375 0.5625-0.40625 0.1875 0.1875 0.3125-0.21875 0.46875 0.28125 0.625-0.0625 0.0625-0.1875 0.09375 0.25 0.46875v0.03125 0.03125l-0.21875 0.25 0.1875 0.40625-0.125 0.34375-0.03125 0.34375-0.5625-0.3125 0.03125 0.125 0.65625 0.28125v-0.375l0.09375-0.34375-0.03125-0.09375 0.625 0.4375 1.375-0.84375 0.03125-1.5938 7.5938 5.5312 0.375-0.15625v0.34375l4.0312 2.875c-0.81335 1.1034-0.64292 1.8239 0.6875 2.375v2.9688l-0.125 0.15625-0.71875-0.21875 0.09375 0.40625-0.59375-0.3125-0.03125 0.5-0.5-0.375 0.03125 0.65625-0.46875-0.15625-0.0625 0.34375-0.90625-0.78125 0.25 0.96875-0.625-0.09375h-0.03125v0.03125h0.03125l0.25 0.0625 0.5 0.21875-0.09375-0.875 0.71875 0.6875 0.09375-0.375 0.46875 0.125-0.03125-0.59375 0.4375 0.28125 0.03125-0.46875 0.625 0.34375v-0.46875l0.625 0.25 0.03125-0.0625 0.03125 2.0938 1.125 0.75 3.5938-1.3438c0.21595 0.16028 0.44004 0.31188 0.65625 0.46875-1.8878 0.54939-3.8207 0.91434-5.75 1.2812l-3.3125-2.375 3.2188 2.4688c0.38585 2.6053 0.058485 5.2072-0.0625 7.8125l-0.3125-0.21875c0.040216-0.45854 0.070217-0.9005 0.125-1.4062-0.69772-0.24927-1.3572-0.45152-2.0312-0.46875-0.28727-0.007341-0.5827 0.022049-0.875 0.09375l-0.28125-0.1875-0.03125-0.53125 0.25-0.40625-0.53125-1.0312 0.40625 0.0625-0.53125-0.15625 0.59375 1.1562-0.3125 0.4375 0.0625 0.46875 0.3125 0.21875c-0.37272 0.09983-0.74517 0.25678-1.125 0.53125v8.4688c1.5664 1.1551 2.364 1.0333 3.75-0.125-0.033663-2.5794-0.018296-4.5078 0.1875-6.9375l0.3125 0.1875c1.3228 0.34111 2.4524 1.7011 3.6562 2.875l3.7188 2.7188 0.5625 0.375 0.34375-0.1875 0.3125-0.4375 0.40625 0.75 0.34375-1.2188 0.4375 0.34375 0.28125-0.40625 0.53125 0.53125 0.21875-0.84375 0.375 0.21875 0.03125-0.0625-0.4375-0.28125-0.25 0.84375-0.46875-0.5625-0.3125 0.4375-0.40625-0.3125-0.34375 1.0938-0.40625-0.71875-0.3125 0.46875-0.3125 0.21875-0.0625-0.46875 0.3125-0.28125-0.25-0.6875 0.34375-0.125-0.3125-0.8125 0.40625-0.25-0.34375-0.6875 0.625-0.0625-0.5625-0.9375 0.53125-0.25-0.375-0.65625 0.15625-0.46875-0.125-0.5625 0.1875-0.40625-0.3125-0.5 0.15625-0.40625 0.28125 0.21875 0.71875 0.9375-0.09375-1.1875 0.59375 0.3125 0.0625-0.5625 0.40625 0.03125 0.25-0.28125 0.53125 0.6875 0.125-0.9375 0.34375 0.0625 0.3125-0.59375 0.46875 0.3125 0.15625-0.28125 0.34375 0.09375 0.28125-0.65625 0.34375 0.15625 0.125-0.125c0.04136 0.033682 0.083587 0.059907 0.125 0.09375-0.18357 2.1877-0.16002 4.4843-0.0625 6.8125l-0.28125 0.40625-0.40625-0.15625-0.375 0.5-0.375-0.25-0.28125 0.53125-0.4375-0.28125-0.28125 0.53125 0.28125-0.40625 0.4375 0.28125 0.3125-0.53125 0.40625 0.21875 0.34375-0.5 0.40625 0.15625 0.3125-0.40625 0.4375-0.03125 0.34375-0.25 0.4375 0.0625 0.25-0.34375 0.46875 0.125-0.53125-0.1875-0.25 0.3125-0.46875-0.0625-0.125 0.125c-0.2771-2.3825-0.24297-4.678 0.03125-7.0312l0.15625-0.125 0.3125 0.03125 0.34375-0.46875 0.46875 0.375 0.15625-0.28125 0.46875 0.125 0.1875-0.375 0.4375 0.34375 0.21875-0.59375 1.0312 0.53125-0.375-0.8125 0.6875 0.125-0.0625-0.375 0.46875 0.0625 0.0625-0.53125 0.34375 0.9375-0.1875 0.15625 0.25 0.46875-0.25 0.375 0.4375 0.53125-0.28125 0.1875 0.40625 0.625-0.4375 0.1875 0.1875 0.34375-0.1875 0.46875-0.03125 0.03125 0.3125 0.6875-0.28125 0.1875 0.25 0.53125-0.21875 0.3125 0.0625 0.09375 0.125 0.34375-0.125 0.375-0.03125 0.34375-0.625-0.3125 0.25 1-0.8125-0.28125-0.0625 0.375-0.65625-0.125 0.03125 0.5-0.75-0.25-0.125 0.375-0.625-0.09375-0.1875 0.4375 0.0625 0.03125 0.1875-0.375 0.65625 0.09375 0.1875-0.3125 0.6875 0.15625 0.0625-0.40625 0.53125 0.03125 0.1875-0.3125 0.8125 0.3125-0.375-1.0312 0.6875 0.3125v-0.40625l0.125-0.375-0.125-0.4375 11.125-4.3438v0.34375l2.9062 1.3125 0.21875-0.25 50.5-20.312 1.5-2.5938 0.8125-0.3125v-1.125l0.75-1.3125 0.1875-0.0625-0.9375-0.59375v-23.406l0.375-0.15625-21.375-23.781-20.844-7.2812zm-47.812 79.312 0.09375 0.03125-0.15625-0.6875 0.15625-0.34375-0.25-0.96875 0.28125-0.0625-0.375-0.03125 0.28125 1-0.1875 0.40625 0.15625 0.65625zm0.125-2.0312h0.0625l-0.25-0.84375 0.125-0.28125 0.15625-0.375-0.65625-0.46875 0.6875-0.53125-0.25-0.75 0.40625-0.21875-0.3125-0.6875 0.21875 0.625-0.375 0.25 0.21875 0.71875-0.6875 0.5625 0.6875 0.53125-0.21875 0.3125-0.125 0.3125 0.3125 0.84375zm-11.781-16.688 0.1875 0.8125-0.75-0.25-0.0625 0.34375-0.59375-0.125 0.03125 0.46875-0.71875-0.25-0.09375 0.34375-0.59375-0.0625-0.15625 0.40625 0.0625 0.03125 0.15625-0.375 0.59375 0.09375 0.1875-0.28125 0.625 0.15625 0.0625-0.375h0.5l0.15625-0.28125 0.75 0.28125-0.34375-0.9375zm-20.219-5.0625 0.09375 0.03125-0.15625-0.625 0.15625-0.3125-0.25-0.90625 0.28125-0.0625-0.34375-0.03125 0.25 0.9375-0.1875 0.375 0.15625 0.59375zm0.125-1.875h0.03125l-0.21875-0.78125 0.125-0.25 0.09375-0.3125-0.21875 0.28125-0.125 0.28125 0.3125 0.78125zm0.03125-1.3438 0.03125-0.03125-0.59375-0.4375 0.625-0.5-0.21875-0.6875 0.375-0.1875-0.28125-0.65625 0.1875 0.59375-0.34375 0.21875 0.21875 0.6875-0.65625 0.5 0.65625 0.5zm75.969-51.688h3.5938l19 7.0938c-0.91893 0.35938-1.8325 0.73017-2.75 1.0938l-18.875-7.1562-0.96875-1.0312zm0.3125 1.2812 18.875 7.1562c-0.84704 0.33661-1.6852 0.69162-2.5312 1.0312l-18.969-7.1562-0.5625-0.90625 3.1875-0.125zm-6.3125 1.3125 3.2188 0.03125 18.781 7.0938c-0.92819 0.37349-1.854 0.74855-2.7812 1.125l-19-7.2188-0.21875-1.0312zm-0.3125 1.3438 18.875 7.1562c-1.0001 0.40677-2.0008 0.80939-3 1.2188l-19.094-7.2188-0.15625-1.0938 3.375-0.0625zm-6.9688 1.3125 3.3438 0.1875 18.875 7.1562c-0.92563 0.37968-1.8561 0.74383-2.7812 1.125l-19.219-7.25-0.21875-1.2188zm-0.28125 1.5312 19.094 7.2188c-1.0407 0.42912-2.0845 0.85118-3.125 1.2812l-0.0625-0.0625-19.25-7.25-0.03125-1.0312 3.375-0.15625zm36.906 0.5625 0.625 0.25 20.531 22.438-0.3125 1.6562-2.75-0.46875-21.094-22.625c1.0018-0.41437 1.997-0.83883 3-1.25zm-40.688 0.9375 19.156 7.25c-1.0708 0.44271-2.1478 0.86983-3.2188 1.3125l-0.125-0.125-19.25-7.25-0.125-1 3.5625-0.1875zm37.156 0.53125 21.25 22.562 0.03125 1.5938-2.8125-0.5-21.062-22.594c0.8631-0.35962 1.73-0.70471 2.5938-1.0625zm-41.062 0.96875 19.25 7.3125c-1.0621 0.43888-2.125 0.8747-3.1875 1.3125l-0.0625-0.09375-19.438-7.3438-0.59375-1.125 4.0312-0.0625zm37.938 0.3125 21.219 22.531-0.4375 1.5938-2.7188-0.375-20.969-22.531c0.9684-0.40577 1.9372-0.81459 2.9062-1.2188zm-42.031 1.1562 19.594 7.375c-1.1271 0.46406-2.247 0.94458-3.375 1.4062l-0.09375-0.125-19.5-7.3438-0.34375-0.90625 3.7188-0.40625zm38.594 0.28125 21.25 22.594c-0.52305 0.12703-0.09214 1.248-0.40625 1.375l-3-0.21875-20.906-22.438c1.0219-0.42959 2.0402-0.88387 3.0625-1.3125zm-42.625 1.3438 19.719 7.375c-1.0803 0.44163-2.1685 0.87415-3.25 1.3125l-0.125-0.15625-19.688-7.3125 0.4375-1.125 2.9062-0.09375zm39 0.1875 21.094 22.375 0.125 1.625-3.3125-0.375-20.844-22.375c0.97957-0.41205 1.9579-0.83807 2.9375-1.25zm-42.938 1.2812 19.844 7.4062 0.03125 0.03125c-1.155 0.46738-2.312 0.94385-3.4688 1.4062l-19.75-7.5625 0.09375-1.0938 3.25-0.1875zm39.469 0.1875 21 22.281 0.0625 1.8125-3.5-0.46875-20.781-22.281c1.0749-0.45119 2.1441-0.89176 3.2188-1.3438zm-43.469 1.3438 19.75 7.5625c-1.2471 0.49719-2.5003 0.97893-3.75 1.4688l-19.719-7.5625 0.125-1.2188 3.5938-0.25zm39.719 0.21875 20.938 22.219v1.5l-3.5-0.125-20.688-22.219c1.0883-0.45445 2.1624-0.91873 3.25-1.375zm-43.906 1.5625 19.531 7.5c-1.1371 0.44419-2.2665 0.90694-3.4062 1.3438l-19.688-7.5938 0.28125-1.125 3.2812-0.125zm40.094 0.03125 21.062 22.406-0.21875 1.4375-3.375-0.375-20.656-22.156c1.0587-0.43857 2.1298-0.87126 3.1875-1.3125zm-44.25 1.4688 19.594 7.5938c-1.2366 0.47196-2.4784 0.91325-3.7188 1.375l-19.688-7.5312 0.09375-1.2188 3.7188-0.21875zm40.5 0.0625 20.812 22.094-0.0625 1.5312-3.5625-0.09375-20.562-22.125c1.1246-0.4605 2.2519-0.94166 3.375-1.4062zm-3.9375 1.625 20.938 22.156-0.28125 1.5-3.3125-0.28125-20.594-22.062c1.0842-0.43761 2.1675-0.8701 3.25-1.3125zm-41.031 0.03125 19.656 7.5c-1.1611 0.4301-2.304 0.89269-3.4688 1.3125l-19.281-7.625-0.375-0.90625 3.4688-0.28125zm-3.6562 1.4688 19.156 7.5938c-1.3518 0.48442-2.7051 0.96879-4.0625 1.4375l-19.406-7.4062 0.21875-1.0938 4.0938-0.53125zm40.906 0.03125 20.719 22-0.15625 1.6875-3.5-0.25-20.438-22.094c1.1266-0.4465 2.2507-0.89102 3.375-1.3438zm-3.9062 1.5625 20.562 22.031-0.15625 1.7188-3.9688-0.09375-20.344-22.125c1.3059-0.50485 2.604-1.0165 3.9062-1.5312zm-41.812 0.21875 19.188 7.4688c-1.2124 0.41568-2.4389 0.81711-3.6562 1.2188l-21.219-6.9688 0.9375-0.9375 4.75-0.78125zm37.344 1.5312 20.5 22.031 0.0625 1.625-3.8125-0.125-20.188-22.219c1.1491-0.43262 2.2916-0.87107 3.4375-1.3125zm-42.281 0.96875 1.8125 0.625 36.25 26.312 3.0625 3.4062 0.15625 0.8125-41.281-29.875v-1.2812zm38.312 0.5625c6.7659 7.3945 13.671 14.875 20.375 22.312l-0.28125 1.5312-3.5625-0.21875-20.469-22.188c1.3117-0.47718 2.6306-0.94738 3.9375-1.4375zm-35.938 0.28125 5 1.75 26.312 19.469 3.625 4.0312-34.938-25.25zm-2.375 0.625 41.281 30v1.375l-41.281-29.906v-1.4688zm33.812 0.75 20.656 22.125-0.6875 1.6562-2.8125-0.3125-1.2188 2.2812-3.5938-0.375-20.75-22.469c1.4143-0.47253 2.8425-0.91528 4.25-1.4062l20.844 22.031 0.46875-0.0625-20.75-22.188c1.1986-0.42035 2.3996-0.84888 3.5938-1.2812zm-25.875 0.5625 6.25 2.1875 13.344 10.188 5.375 6.0312-24.969-18.406zm-7.9375 0.375 41.281 30 0.03125 1.4375-0.375-0.28125c0.25883-0.77659 0.040292-1.5202-0.9375-1.7812l-1 0.375-39.031-28.188 0.03125-1.5625zm108.38 1.5312v0.625l-58.344 23-5.4062 2.125-2.5 1-0.09375-0.90625 2.5938-0.09375 1.6562-2.3438 3.75 0.21875 1.0312-2.0625c0.79272-0.28942 2.4286 0.41442 3.0625 0.125l0.78125-1.625 3.6562 0.03125 0.96875-1.8125 3.5625 0.03125 0.40625-1.5625 3.9062-0.0625 0.5-1.625 3.5312 0.09375 0.5625-1.6875 3.25 0.125 1.0312-1.7812 3 0.0625 0.65625-1.4375 3.2188 0.0625 0.71875-1.5938 3.3125-0.0625 0.5625-1.4375 3.1875 0.0625 0.34375-1.5625 3.375 0.09375 0.15625-1.75 3.0938 0.375 0.78125-1.7188c0.55372-0.23988 2.04 0.53086 2.5938 0.34375 0.58433-0.19746 0.22817-1.3642 0.8125-1.5625l2.75 0.21875 0.5625-1.4062 2.5625 0.15625 0.40625-0.65625zm-108.41 0.25 38.719 28.094-1.375 0.53125-12.25-8.875-5.5312-5.4062-3.7812-1.3438-15.781-11.406v-1.5938zm14.75 0.21875 5.5938 1.9688 6.4062 7.125-12-9.0938zm10.094 0.1875 20.906 22.344-1.3438 2.3438-2.6562 0.03125-20.562-23.531c1.2238-0.3893 2.4381-0.78315 3.6562-1.1875zm83.562 0.25v1.4062l-2.4062 0.9375v-1.1875l-9.9688 3.9688v1.1562l-2.1875 0.875-0.03125-0.90625-9.875 3.625v1.1562l-2.3438 0.9375v-1l-9.7188 3.875v0.96875l-3.1562 1.25v-1.0312l-10.062 3.875v1.125l-3.7812 1.5-0.03125-1-9.875 3.8125v1.0625l-2.8125 1.125v-1.4688l66.25-26.062zm-108.41 1.125 15.094 10.969-3.9062-1.375-11.188-8.125v-1.4688zm108.41 0.5625v1.5l-2.375 0.9375v-1.5l2.375-0.9375zm-3.0625 0.34375 0.1875 7.2188-8.75 3.1875 0.0625-7 8.5-3.4062zm-105.34 0.78125 10.594 7.6875-3.5-1.25v0.25l-7.125-5.1562 0.03125-1.5312zm108.41 0.625v1.4688l-2.3438 0.9375-0.03125-1.4688 2.375-0.9375zm-3.9688 0.25-6.5938 2.5625v4.9375l6.5625-2.5 0.03125-5zm-104.47 0.875 7.125 5.1562v1.3125l-7.125-5.1562v-1.3125zm103.97 0-0.03125 3.5-1.6875 0.65625v-3.5l1.7188-0.65625zm4.4688 0.625v1.4062l-2.3438 0.9375v-1.4062l2.3438-0.9375zm-6.5938 0.21875-0.0625 3.5312-1.4375 0.5625c0.0296-0.78504 0.14027-2.6612 0.15625-3.5l1.3438-0.59375zm-101.84 0.6875 7.125 5.1562-0.03125 1.4062-7.0938-5.125v-1.4375zm99.969 0.09375c-0.02415 1.1366-0.09054 3.4143-0.09375 3.5l-1.375 0.53125v-3.5312l1.4688-0.5zm-3.9062 0.34375 0.03125 1.5312-2.1875 0.84375-0.03125-1.5 2.1875-0.875zm-2.6875 0.25 0.09375 7.2188-8.75 3.1875 0.0625-7 8.5938-3.4062zm15.062 0.09375v1.375l-2.3125 0.90625-0.03125-1.375 2.3438-0.90625zm-108.44 0.875 7.0938 5.1562v1.4688l-7.0938-5.125v-1.5zm96.094 0.5625v1.5l-2.1562 0.84375-0.03125-1.5 2.1875-0.84375zm-3.7188 0.1875-6.5938 2.5v4.9375l6.5-2.5312 0.09375-4.9062zm16.062 0v1.375l-66.25 26.094v-1.4062l2.875-1.125v0.28125l10-3.6875v-0.53125l3.6875-1.4375v0.21875l10-3.6875v-0.46875l3.2188-1.2812v0.375l9.6562-3.9375v-0.25l2.4062-0.9375v0.15625l10-3.6875v-0.40625l2.0938-0.8125v0.15625l10-3.6875v-0.40625l2.3125-0.90625zm-16.531 0.8125-0.0625 3.5-1.6875 0.65625v-3.4375l1.75-0.71875zm-91.906 0.15625 7.0938 5.1562-0.03125 1.4375-7.0938-5.125 0.03125-1.4688zm7.5625 0.53125 11.719 4 10.906 10.844-0.0625 5.9375-1.25 0.46875-0.0625-6.0625-9.7812-9.9375-10.688-4v9.5l-0.78125-0.40625v-10.344zm88.531 0.03125 0.03125 1.4375-2.1562 0.84375-0.03125-1.4375 2.1562-0.84375zm12.344 0.09375v1.4062l-66.219 26.125-0.03125-1.4688 66.25-26.062zm-18.688 0.0625-0.0625 3.5-1.4375 0.5625c0.0296-0.78504 0.14027-2.6612 0.15625-3.5l1.3438-0.5625zm-1.875 0.75c-0.02415 1.1366-0.09054 3.4143-0.09375 3.5l-1.375 0.53125v-3.5312l1.4688-0.5zm-87.906 0.21875 7.0938 5.125v1.5625l-7.0938-5.125v-1.5625zm84 0.125 0.03125 1.5625-2.375 0.90625v-1.5312l2.3438-0.9375zm12.156 0.4375v1.375l-2.0938 0.84375-0.03125-1.375 2.125-0.84375zm-14.906 0.0625 0.1875 7.1875-8.75 3.1875 0.0625-7 8.5-3.375zm-72.312 0.03125 1.2812 0.5 0.03125 2.375-0.71875-0.0625v1.3125l-0.5-0.03125 0.03125 1.6875 0.5 0.28125 0.03125 3.6875-0.46875-0.3125v1.7188l0.5 0.28125v1.3438l0.46875 0.34375-0.1875 1.6562-0.84375 0.4375-0.125-15.219zm99.531 0v1.5312l-66.219 26.094v-1.5625l66.219-26.062zm-97.812 0.6875 7.9062 3.0938 9.7188 9.875v0.9375l-8.0938-5.8125-0.375 0.15625 0.03125-0.4375-8.6562-5.7812-0.53125 0.09375v-2.125zm-10.656 0.4375 7.0938 5.125-0.03125 1.7188-7.0625-5.125v-1.7188zm84.031 0.125v1.4688l-2.375 0.9375v-1.5l2.375-0.90625zm-3.75 0.25-6.5312 2.6562v4.9375l6.5625-2.5625-0.03125-5.0312zm28.188 0.3125v1.4062l-66.219 26.094v-1.4375l66.219-26.062zm-28.531 0.53125-0.125 3.625-1.6875 0.65625v-3.5l1.8125-0.78125zm4.0938 0.625 0.03125 1.4688-2.4062 0.90625v-1.4375l2.375-0.9375zm-84.031 0.03125 7.0625 5.1562v0.125l-2.9688-1.4375-0.0625-0.03125c0.019639-0.008273 0.042881-0.022955 0.0625-0.03125l-0.40625-0.21875c-0.018921 0.009301-0.043527 0.021997-0.0625 0.03125l-2.7812-1.625c0.020088-0.006786 0.011161-0.024464 0.03125-0.03125l-0.375-0.25c-0.028515 0.010197-0.065214 0.021071-0.09375 0.03125l-0.40625-0.25v-1.4688zm11.25 0.09375 7.8438 5.3125-0.875 0.375-8.0312-5.5312 1.0625-0.15625zm66.5 0.1875-0.09375 3.5625-1.4375 0.5625c0.029599-0.78504 0.14027-2.6612 0.15625-3.5l1.375-0.625zm30.719 0.1875v1.4688l-66.219 26.125v-1.5312l66.219-26.062zm-98.5 0.15625 7.875 5.625-0.03125 9-7.8125-5.7188v-1.25l-0.65625-0.3125-0.03125-1.1562 0.6875 0.28125-0.03125-4.125-0.6875-0.40625v-1.1562l0.6875 0.09375v-0.875zm65.875 0.46875c-0.024151 1.1366-0.09054 3.4143-0.09375 3.5l-1.375 0.53125v-3.5312l1.4688-0.5zm-3.9062 0.15625 0.03125 1.5-3.1875 1.2812v-1.5312l3.1562-1.25zm12.125 0.4375v1.4062l-2.4062 0.90625v-1.4062l2.4062-0.90625zm-15.688 0.15625-0.15625 7.375-8.75 3.1875 0.0625-7 8.8438-3.5625zm-67.719 0.1875c0.90629 0.51968 1.8707 1.0431 2.875 1.5938-1.2735 0.61369-2.6587 1.1103-4.0938 1.5625-0.87953-0.63835-1.7538-1.2629-2.625-1.9062 1.2857-0.3928 2.5779-0.82238 3.8438-1.25zm9.9688 0.1875 0.15625 6.9688 6.4688 4.75-0.15625-7.1875-6.4688-4.5312zm97.844 0v1.6875l-2.6562 1.0312-0.78125-0.46875-52.031 20.094v1.2188l-10.656 4.2188-0.09375-0.125v-1.5938l66.219-26.062zm-97.531 0.4375 5.8438 4.2812 0.03125 1.25-5.8438-4.1875-0.03125-1.3438zm61.031 0.3125v1.5312l-3.1875 1.2188v-1.4688l3.1875-1.2812zm-75.625 0.4375c0.87139 0.63205 1.748 1.2887 2.625 1.9375-1.6225 0.49776-3.2959 0.95875-4.9062 1.4688l-3-2.1562c1.8193-0.29498 3.5819-0.74506 5.2812-1.25zm70.781 0.1875-6.5938 2.625v4.9375l6.5-2.5625 0.09375-5zm-63.188 0.25c0.056957 0.031142 0.13061 0.06268 0.1875 0.09375 1.4787 0.80764 3.0357 1.5278 4.0938 2.1875 0.017412 0.010853 0.045379 0.020428 0.0625 0.03125l0.5625 0.53125-0.40625 0.09375-0.15625-0.0625-0.4375-0.46875-0.125 0.59375-0.40625-0.15625v0.4375l-0.5625-0.25 0.125 0.6875-0.71875-0.375-0.15625 0.53125-0.34375-0.3125-0.25 0.34375-0.4375-0.15625-0.1875 0.28125-0.3125-0.34375-0.34375 0.5-0.34375-0.15625-0.15625 0.21875c-1.3182-0.87114-2.6184-1.7482-3.875-2.6562 1.4203-0.50076 2.8269-1.0234 4.1875-1.5938zm104.53 0.34375v2l-0.40625 0.15625-1.9688-1.2188 2.375-0.9375zm-41.875 0.21875v3.625l-1.6875 0.65625v-3.5312l1.6875-0.75zm-55.594 0.03125 5.8125 4.1562 0.03125 1.3438-5.8125-4.1875-0.03125-1.3125zm60.969 0.28125v1.4375l-3.1875 1.25v-1.4375l3.1875-1.25zm-80.906 0.0625 2.9375 2.25c0.69042 2.3591 0.040601 4.7666-0.09375 7.1562-0.94744-0.75045-1.3986-1.6328-2.8125-2.25 0.021387-0.2148 0.038126-0.39998 0.0625-0.625-0.041229-0.01473-0.084027-0.016672-0.125-0.03125 0.082101-2.1749 0.29357-4.3569 0.03125-6.5zm113.69 0.4375c-0.06402 0.3866-0.06116 1.1056-0.1875 1.1562-2.131 0.85416-4.6992 1.8972-6.8438 2.7188-3.1103 1.1922-5.876 2.8253-9.0625 4.0938l-6.375 1.9062-7.8438 2.8438-10.969 4.6875-7.7188 2.6875-1.2812-0.46875 50.281-19.625zm0.34375 0 3.4062 2.0938-1.9062 0.75-1.6562-1.5938 0.15625-1.25zm-78.844 0.125 10.906 7.9062-1.25 0.5-5.3125-3.875v-0.28125l-4.3438-4.25zm38.25 0.03125-0.0625 3.5312-1.4375 0.5625c0.0296-0.78504 0.14027-2.6612 0.15625-3.5l1.3438-0.59375zm-45.062 0.28125 0.03125 0.40625-0.78125 0.28125-0.25 9.0625-0.15625 0.09375 0.125-9.4688 1.0312-0.375zm0.78125 0.5 7.9688 5.7188-0.78125 0.625-8.375-5.9062 1.1875-0.4375zm42.406 0c-0.02415 1.1366-0.09054 3.4143-0.09375 3.5l-1.375 0.53125v-3.5312l1.4688-0.5zm-51.594 0.0625 5.8438 4.1562 0.03125 1.375-5.8438-4.1875-0.03125-1.3438zm60.969 0.21875v1.375l-3.2188 1.2812v-1.4062l3.2188-1.25zm-13.281 0.03125 0.03125 1.5-3.7812 1.5-0.03125-1.5312 3.7812-1.4688zm49.75 0v0.125l-0.125-0.0625 0.125-0.0625zm-3.6875 0.15625 1.5625 1.5312-47.188 18.438-3-1.125 7.4062-2.6875 10.906-4.6875 8.0312-2.875 6.2812-1.8438 9.2188-4.1875 6.7812-2.5625zm-96.688 0.15625 0.25 0.1875 0.03125-0.03125v0.0625 0.15625l-0.28125-0.375zm0.3125 0.5625-0.03125 0.15625v0.28125l-0.1875-0.28125 0.21875-0.15625zm10.625 0 8.1875 5.7188 0.03125 1.4375 0.59375 0.28125v1.3438l-0.625-0.375 0.0625 1.3125-1.0938 0.4375-0.09375-4.4375-5.9688-4.2188-0.0625 3.75v0.0625l-0.03125 2.9688 3.7188 2.7812-0.8125 0.34375-4-2.7812 0.09375-8.625zm35.312 0.09375 0.1875 7.2188-8.75 3.1875 0.0625-7 8.5-3.4062zm54.719 0.4375-2.8438 4.6875-49.156 19.938 2.4375-5.3438 49.562-19.281zm-100.69 0.03125v0.59375l-0.1875-0.28125 0.1875-0.3125zm2.6875 0.09375 5.8438 4.1562 0.03125 1.0625-5.8438-4.25-0.03125-0.96875zm47.688 0.15625v1.5312l-3.75 1.5-0.03125-1.5312 3.7812-1.5zm-5.5312 0.8125-6.375 2.6875v4.9375l6.5625-2.6875-0.1875-4.9375zm-32.719 0.5625 5.0938 3.7812 0.0625 1.3438-5.1562-3.7188v-1.4062zm32.5 0.09375-0.09375 3.8438-1.6875 0.65625-0.0625-3.625 1.8438-0.875zm5.75 0.3125v1.4062l-3.7188 1.4688-0.03125-1.4062 3.75-1.4688zm-28.156 0.21875 5.0625 3.6875-1.3125 0.5-3.75-2.6875v-1.5zm-22.219 0.125v0.375l-0.09375-0.1875 0.09375-0.1875zm42.406 0.34375-0.03125 3.7188-1.4375 0.5625c0.029601-0.78504 0.07777-2.8487 0.09375-3.6875l1.375-0.59375zm-61.781 0.65625c0.34244 0.005417 0.71716 0.12218 1.0938 0.25l0.09375 0.0625h0.09375c0.12684 0.045303 0.24603 0.077826 0.375 0.125-0.15052 2.5941-0.2314 5.1842-0.1875 7.7812-1.0715 1.134-1.8961 0.86076-3 0.125 0.04886-2.6705 0.10738-5.1405 0.15625-7.625 0.39622-0.52604 0.86134-0.72688 1.375-0.71875zm31.5 0.09375 5.1875 3.75 0.0625 1.1562-5.25-3.7188v-1.1875zm28.375 0.03125c-0.024153 1.1366-0.02804 3.6018-0.03125 3.6875l-1.375 0.53125v-3.5312l1.4062-0.6875zm9.9062 0.21875v1.4062l-3.7188 1.4375v-1.375l3.7188-1.4688zm-13.75 0.1875 0.03125 1.5625-2.8438 1.0938v-1.5312l2.8125-1.125zm-14.438 0.09375 3.5 2.5312-1.125 0.4375-2.4062-1.7188 0.03125-1.25zm-2.3125 0.375v1.5312l-0.5625 0.28125v-1.375l0.5625-0.4375zm-38.188 0.0625c-0.80841 0.53574-1.4105 0.2462-2.0625 0.15625l-0.09375 0.3125c0.58108 0.12793 0.72769 0.82067 2.0625-0.03125l0.09375-0.4375zm50.031 0.25c0.62508 0.2634 0.7107 0.90154 0.3125 1.5312l-17.219 6.7188c-1.161-0.25338-0.63718-1.3661 0.03125-1.7812l16.875-6.4688zm-19.625 0.375 5.2812 3.75 0.0625 0.90625-0.46875 0.15625-4.8438-3.5-0.03125-1.3125zm10.062 0.4375 2.1562 1.5625-1.3125 0.5-0.84375-0.625v-1.4375zm14.5 0.15625v1.5312l-2.8438 1.125v-1.5312l2.8438-1.125zm-16.781 0.53125v0.4375l-0.1875 0.125-0.34375-0.34375 0.53125-0.21875zm12.656 0.09375 0.46875 0.34375v1.5312l-1.625-1.1562 0.96875-0.375c0.07268-0.11059 0.13365-0.22989 0.1875-0.34375zm-20.406 0.5 4.5 3.25-0.875 0.34375-3.625-2.75v-0.84375zm7.75 0.125v1.3125l-0.15625 0.09375-0.03125-1.3438 0.1875-0.0625zm11.25 0.1875 1.875 1.3438v1.375l-3.0938-2.25 1.2188-0.46875zm-8.9688 0.125 0.59375 0.4375-0.59375 0.25v-0.6875zm14.5 0.1875v1.4688l-2.8438 1.0938v-1.4375l2.8438-1.125zm-7.0312 0.25 3.375 2.4688v1.4375l-4.4375-3.1875v-0.3125l1.0625-0.40625zm-1.8125 0.71875-0.03125 6.0625-11.469 4.625 0.125-6.3438 11.375-4.3438zm-8.5625 0.09375 0.46875 0.03125 0.15625-0.03125v0.3125l-0.59375 0.21875-0.03125-0.53125zm9.3125 0.15625 4.4688 3.25v1.2188l-4.4688-3.2188v-1.25zm8.125 0.5v1.375l-2.875 1.125v-1.4062l2.875-1.0938zm56.375 0.53125c-0.20877-0.01455-0.41379 0.004302-0.625 0.03125-0.5069 0.064674-1.0377 0.277-1.5625 0.65625v8.4688c1.5664 1.1551 2.364 1.0333 3.75-0.125-0.04079-3.1254-0.01197-5.2473 0.34375-8.5312-0.65412-0.23369-1.2799-0.45635-1.9062-0.5zm-0.25 0.46875c0.51367 0.008126 1.0759 0.22522 1.6562 0.4375-0.15052 2.5941-0.2314 5.1842-0.1875 7.7812-1.0715 1.134-1.8961 0.86076-3 0.125 0.04886-2.6704 0.10738-5.1405 0.15625-7.625 0.39622-0.52604 0.86133-0.72688 1.375-0.71875zm-64.25 0.03125 4.4688 3.25v1.4062l-4.4375-3.2188-0.03125-1.4375zm65.344 1.0312c-0.80841 0.53574-1.4105 0.2462-2.0625 0.15625l-0.09375 0.3125c0.58108 0.12793 0.72769 0.82067 2.0625-0.03125l0.09375-0.4375zm-72.469 0.21875c-2.0878 0.31534-2.7286 3.1502-0.78125 4.8125l-0.53125 0.4375 0.3125 0.3125 2.3438-0.90625-0.6875-0.4375c-2.2571-1.4142-1.2913-2.911-0.5625-3.25 2.236-0.54859 1.7761 1.582 1.9062 2.75v0.71875l2.5938-0.96875-0.21875-0.3125-0.9375 0.1875c-0.089996-1.1865-0.209-2.5188-0.90625-3-0.87233-0.60469-1.5734-0.46978-2.5312-0.34375zm-6.5938-0.09375c0.54452 0.21759 0.33063 0.79281 0.375 1.25l0.125 0.03125c0.62518-0.48812 0.18039-0.89928 0.0625-1.2812h-0.5625zm13.75 0.5625 4.4375 3.2188v1.4062l-4.4375-3.2188v-1.4062zm-12.844 1.125-0.09375 5.875-0.5-0.3125v-5.3438l0.59375-0.21875zm12.844 0.625 4.4375 3.2188 0.03125 1.3438-4.6562-3.375 0.1875-0.0625v-1.125zm-0.46875 1.2812 4.9375 3.5938v1.5312l-6.3438-4.5938 1.4062-0.53125zm51.5 0.125c-0.67406-0.017225-1.3627 0.15058-2.0625 0.65625v8.4688c1.5664 1.1551 2.364 1.0333 3.75-0.125-0.04079-3.1253-0.01197-5.2473 0.34375-8.5312-0.69772-0.24927-1.3572-0.45152-2.0312-0.46875zm-0.125 0.46875c0.51366 0.008126 1.0759 0.19396 1.6562 0.40625-0.15052 2.5941-0.2314 5.1842-0.1875 7.7812-1.0715 1.134-1.8961 0.86076-3 0.125 0.04886-2.6704 0.10738-5.1405 0.15625-7.625 0.39622-0.52604 0.86134-0.69563 1.375-0.6875zm-53.031 0.03125 6.5938 4.8125v1.0312l-2.2188-1.0625-5.8125-4.2188 1.4375-0.5625zm-1.6875 0.65625 4.8438 3.5312-0.75-0.375c0.021263-0.008957 0.041258-0.022269 0.0625-0.03125l-0.4375-0.25c-0.020483 0.010076-0.041958 0.021232-0.0625 0.03125l-3.0312-1.75c0.021751-0.007346 0.04075-0.023903 0.0625-0.03125l-0.4375-0.28125c-0.030873 0.011039-0.062854 0.020229-0.09375 0.03125l-0.4375-0.25c-0.15413-0.12267-0.34305-0.23657-0.53125-0.34375l0.8125-0.28125zm-1 0.34375c0.30939 0.19118 0.61613 0.38886 0.96875 0.59375-1.3312 0.4726-2.6896 0.92696-4.0938 1.3438-0.22053-0.16281-0.43558-0.33565-0.65625-0.5l3.7812-1.4375zm56.812 0c-0.80841 0.53574-1.4105 0.2462-2.0625 0.15625l-0.09375 0.3125c0.58108 0.12793 0.72769 0.82067 2.0625-0.03125l0.09375-0.4375zm-35.125 0.84375 4.7188 1.875-2.4062 5.6562-2.4062-1 0.09375-6.5312zm-20.25 0.03125c0.98122 0.56265 2.0377 1.1226 3.125 1.7188-1.3788 0.66444-2.8838 1.2292-4.4375 1.7188-0.95225-0.69113-1.9005-1.3972-2.8438-2.0938 1.392-0.42527 2.7858-0.88078 4.1562-1.3438zm19.406 0.6875v2.0625l-10.781 4.25v-1.7812l0.375-0.125-0.15625-0.25 10.562-4.1562zm-24.094 0.8125c0.94344 0.68432 1.8943 1.3913 2.8438 2.0938-1.7567 0.53892-3.5378 1.0416-5.2812 1.5938l-3.25-2.3438c1.9698-0.31938 3.8476-0.79706 5.6875-1.3438zm8.25 0.46875c0.061667 0.033715 0.12591 0.060111 0.1875 0.09375 1.601 0.87442 3.292 1.6607 4.4375 2.375 0.018852 0.011755 0.043963 0.019533 0.0625 0.03125l0.625 0.59375-0.4375 0.09375-0.1875-0.0625-0.46875-0.53125-0.125 0.65625-0.46875-0.1875v0.5l-0.59375-0.28125 0.125 0.75-0.78125-0.40625-0.15625 0.5625-0.375-0.34375-0.28125 0.375-0.46875-0.15625-0.1875 0.3125-0.34375-0.375-0.375 0.53125-0.375-0.15625-0.15625 0.21875c-1.4272-0.94318-2.827-1.8919-4.1875-2.875 1.5377-0.54217 3.0582-1.1012 4.5312-1.7188zm-13.969 1 3.1875 2.4375c0.7475 2.5542 0.05171 5.1627-0.09375 7.75-1.0521-0.83333-1.8848-1.7764-3.1562-2.5 0.061425-2.5651 0.37234-5.1561 0.0625-7.6875zm29.812 0 0.03125 1.9375-10.812 4.2812v-1l0.15625-0.0625-0.15625-0.25v-0.65625l10.781-4.25zm21.156 0.375c-0.67406-0.017225-1.3315 0.18183-2.0312 0.6875v8.4688c1.5664 1.1551 2.364 1.0333 3.75-0.125-0.04079-3.1253-0.011969-5.2473 0.34375-8.5312-0.69772-0.24927-1.3884-0.48278-2.0625-0.5zm-0.09375 0.46875c0.51366 0.008126 1.0759 0.22522 1.6562 0.4375-0.15052 2.5941-0.2314 5.1842-0.1875 7.7812-1.0715 1.134-1.8961 0.86076-3 0.125 0.048854-2.6704 0.10738-5.1405 0.15625-7.625 0.39622-0.52604 0.86134-0.72688 1.375-0.71875zm-41.969 0.0625c1.3048 0.97025 2.6234 1.9707 3.9688 3.0625l-0.03125 0.0625-0.34375-0.09375-0.28125 0.53125-0.375-0.09375-0.15625 0.34375-0.46875-0.28125-0.34375 0.59375-0.34375-0.03125-0.09375 0.78125-0.59375-0.625-0.1875 0.34375-0.4375-0.125-0.0625 0.59375-0.5625-0.28125 0.03125 1.0312-0.625-1.0625-4.125-3c1.6694-0.58454 3.3604-1.1671 5.0312-1.75zm43.062 1c-0.80842 0.53574-1.4105 0.2462-2.0625 0.15625l-0.09375 0.3125c0.58108 0.12793 0.72769 0.82067 2.0625-0.03125l0.09375-0.4375zm-22.125 0.28125 0.03125 0.59375-10.844 4.2188v-0.53125l10.812-4.2812zm-26.062 0.65625 3.8438 2.9375-0.15625 0.46875 0.34375 0.5625-0.25 0.3125 0.1875 0.65625-0.1875 0.4375 0.40625 0.625-0.53125 0.21875 0.53125 0.90625-0.59375 0.0625 0.375 0.78125-0.4375 0.1875 0.3125 0.78125-0.375 0.1875 0.3125 0.6875-0.375 0.28125 0.125 0.5-0.40625-0.3125-3.3125-2.5312c0.065423-2.5878 0.49078-5.2963 0.1875-7.75zm33.156 2.7188c-0.67406-0.017226-1.3315 0.15058-2.0312 0.65625v8.4688c1.5664 1.1551 2.364 1.0333 3.75-0.125-0.040783-3.1254-0.011969-5.2473 0.34375-8.5312-0.69772-0.24927-1.3884-0.45152-2.0625-0.46875zm-39.844 0.25c0.51366 0.008125 1.0759 0.19396 1.6562 0.40625-0.15052 2.5941-0.2314 5.1842-0.1875 7.7812-1.0715 1.134-1.8961 0.86076-3 0.125 0.048861-2.6704 0.10738-5.1405 0.15625-7.625 0.39622-0.52604 0.86134-0.69562 1.375-0.6875zm39.75 0.21875c0.51366 0.008125 1.0759 0.19396 1.6562 0.40625-0.15052 2.5941-0.2314 5.1842-0.1875 7.7812-1.0715 1.134-1.8961 0.86076-3 0.125 0.048861-2.6704 0.10738-5.1405 0.15625-7.625 0.39622-0.52604 0.86134-0.69562 1.375-0.6875zm-38.656 0.8125c-0.80841 0.53574-1.4105 0.2462-2.0625 0.15625l-0.09375 0.3125c0.58108 0.12793 0.72769 0.82067 2.0625-0.03125l0.09375-0.4375zm39.75 0.21875c-0.80841 0.53574-1.4105 0.2462-2.0625 0.15625l-0.09375 0.3125c0.58108 0.12793 0.72769 0.82067 2.0625-0.03125l0.09375-0.4375z" fill-rule="evenodd"/>
 </g>
</svg>
