<?xml version="1.0" encoding="UTF-8"?>
<!-- Created with Inkscape (http://www.inkscape.org/) -->
<svg id="svg2" width="128" height="128" version="1.0" xmlns="http://www.w3.org/2000/svg" xmlns:cc="http://creativecommons.org/ns#" xmlns:dc="http://purl.org/dc/elements/1.1/" xmlns:rdf="http://www.w3.org/1999/02/22-rdf-syntax-ns#" xmlns:xlink="http://www.w3.org/1999/xlink">
 <defs id="defs4">
  <linearGradient id="linearGradient2338">
   <stop id="stop2340" stop-color="#b1b1b1" offset="0"/>
   <stop id="stop2342" stop-color="#e4e4e4" offset="1"/>
  </linearGradient>
  <linearGradient id="linearGradient2320">
   <stop id="stop2322" stop-color="#6a3c1d" offset="0"/>
   <stop id="stop2324" stop-color="#8f5127" offset="1"/>
  </linearGradient>
  <linearGradient id="linearGradient3415">
   <stop id="stop3417" stop-color="#1a1a1a" offset="0"/>
   <stop id="stop3419" stop-color="#2b2b2b" offset="1"/>
  </linearGradient>
  <linearGradient id="linearGradient3332">
   <stop id="stop3334" stop-color="#bb8f56" offset="0"/>
   <stop id="stop3336" stop-color="#d1af63" offset="1"/>
  </linearGradient>
  <linearGradient id="linearGradient2769" x1="10.855" x2="11.436" y1="73.602" y2="76.293" gradientTransform="translate(1.2108 .17297)" gradientUnits="userSpaceOnUse" xlink:href="#linearGradient2338"/>
  <linearGradient id="linearGradient2773" x1="10.61" x2="15.518" y1="67.579" y2="76.721" gradientTransform="translate(1.2108 .17297)" gradientUnits="userSpaceOnUse" xlink:href="#linearGradient2320"/>
  <linearGradient id="linearGradient2777" x1="6.4519" x2="7.0328" y1="57.182" y2="57.213" gradientTransform="translate(1.2108 .17297)" gradientUnits="userSpaceOnUse" xlink:href="#linearGradient2320"/>
  <linearGradient id="linearGradient2781" x1="9.6319" x2="9.8766" y1="60.301" y2="60.821" gradientTransform="translate(1.2108 .17297)" gradientUnits="userSpaceOnUse" xlink:href="#linearGradient2320"/>
  <linearGradient id="linearGradient2785" x1="7.3692" x2="8.1948" y1="58.482" y2="58.298" gradientTransform="translate(1.2108 .17297)" gradientUnits="userSpaceOnUse" xlink:href="#linearGradient2320"/>
  <linearGradient id="linearGradient2789" x1="12.476" x2="12.873" y1="67.518" y2="66.967" gradientTransform="translate(1.2108 .17297)" gradientUnits="userSpaceOnUse" xlink:href="#linearGradient2320"/>
  <linearGradient id="linearGradient2793" x1="14.219" x2="20.609" y1="60.607" y2="73.388" gradientTransform="translate(1.2108 .17297)" gradientUnits="userSpaceOnUse" xlink:href="#linearGradient2320"/>
  <linearGradient id="linearGradient2797" x1="10.396" x2="11.528" y1="63.787" y2="65.316" gradientTransform="translate(1.2108 .17297)" gradientUnits="userSpaceOnUse" xlink:href="#linearGradient2320"/>
  <linearGradient id="linearGradient2801" x1="23.453" x2="24.493" y1="71.145" y2="71.145" gradientTransform="translate(1.2108 .17297)" gradientUnits="userSpaceOnUse" xlink:href="#linearGradient2320"/>
  <linearGradient id="linearGradient2807" x1="24.89" x2="25.838" y1="71.141" y2="71.141" gradientTransform="translate(1.2108 .17297)" gradientUnits="userSpaceOnUse" xlink:href="#linearGradient2320"/>
  <linearGradient id="linearGradient2811" x1="31.403" x2="43.481" y1="79.687" y2="68.557" gradientTransform="translate(1.2108 .17297)" gradientUnits="userSpaceOnUse" xlink:href="#linearGradient2320"/>
  <linearGradient id="linearGradient2815" x1="32.137" x2="32.29" y1="72.624" y2="72.96" gradientTransform="translate(1.2108 .17297)" gradientUnits="userSpaceOnUse" xlink:href="#linearGradient2320"/>
  <linearGradient id="linearGradient2821" x1="45.194" x2="48.19" y1="70.881" y2="75.131" gradientTransform="translate(1.2108 .17297)" gradientUnits="userSpaceOnUse" xlink:href="#linearGradient2320"/>
  <linearGradient id="linearGradient2825" x1="46.264" x2="46.386" y1="74.245" y2="74.581" gradientTransform="translate(1.2108 .17297)" gradientUnits="userSpaceOnUse" xlink:href="#linearGradient2320"/>
  <linearGradient id="linearGradient2829" x1="56.507" x2="56.171" y1="72.471" y2="71.646" gradientTransform="translate(1.2108 .17297)" gradientUnits="userSpaceOnUse" xlink:href="#linearGradient2338"/>
  <linearGradient id="linearGradient2833" x1="46.172" x2="45.561" y1="78.128" y2="76.324" gradientTransform="translate(1.2108 .17297)" gradientUnits="userSpaceOnUse" xlink:href="#linearGradient2338"/>
  <linearGradient id="linearGradient2837" x1="50.722" x2="50.376" y1="77.669" y2="76.76" gradientTransform="translate(1.2108 .17297)" gradientUnits="userSpaceOnUse" xlink:href="#linearGradient2338"/>
  <linearGradient id="linearGradient2841" x1="40.24" x2="41.28" y1="79.382" y2="80.849" gradientTransform="translate(1.2108 .17297)" gradientUnits="userSpaceOnUse" xlink:href="#linearGradient2338"/>
  <linearGradient id="linearGradient2847" x1="44.627" x2="58.638" y1="65.903" y2="52.93" gradientTransform="translate(1.2108 .17297)" gradientUnits="userSpaceOnUse" xlink:href="#linearGradient2320"/>
  <linearGradient id="linearGradient2853" x1="17.854" x2="23.821" y1="50.528" y2="63.963" gradientTransform="translate(1.2108 .17297)" gradientUnits="userSpaceOnUse" xlink:href="#linearGradient3494"/>
  <linearGradient id="linearGradient2857" x1="33.146" x2="32.527" y1="43.191" y2="41.512" gradientTransform="translate(1.2108 .17297)" gradientUnits="userSpaceOnUse" xlink:href="#linearGradient3494"/>
  <linearGradient id="linearGradient2861" x1="35.805" x2="63.654" y1="58.465" y2="33.384" gradientTransform="translate(1.2108 .17297)" gradientUnits="userSpaceOnUse" xlink:href="#linearGradient3494"/>
  <linearGradient id="linearGradient3494">
   <stop id="stop3496" stop-color="#cf8d00" offset="0"/>
   <stop id="stop3498" stop-color="#cea33e" offset="1"/>
  </linearGradient>
  <linearGradient id="linearGradient3158" x1="49.219" x2="49.875" y1="69.234" y2="69.234" gradientTransform="translate(1.2108 .17297)" gradientUnits="userSpaceOnUse" xlink:href="#linearGradient2320"/>
  <linearGradient id="linearGradient3162" x1="58.625" x2="58.469" y1="62.594" y2="62.125" gradientTransform="translate(1.2108 .17297)" gradientUnits="userSpaceOnUse" xlink:href="#linearGradient2320"/>
  <linearGradient id="linearGradient3166" x1="49.375" x2="64.219" y1="72.812" y2="62.062" gradientTransform="translate(1.2108 .17297)" gradientUnits="userSpaceOnUse" xlink:href="#linearGradient2320"/>
  <linearGradient id="linearGradient3170" x1="66.469" x2="67.531" y1="54.078" y2="54.078" gradientTransform="translate(1.2108 .17297)" gradientUnits="userSpaceOnUse" xlink:href="#linearGradient2320"/>
  <linearGradient id="linearGradient3174" x1="67.938" x2="69.062" y1="54.5" y2="54.5" gradientTransform="translate(1.2108 .17297)" gradientUnits="userSpaceOnUse" xlink:href="#linearGradient2320"/>
  <linearGradient id="linearGradient3180" x1="75.062" x2="89.531" y1="54.688" y2="72.5" gradientTransform="translate(1.2108 .17297)" gradientUnits="userSpaceOnUse" xlink:href="#linearGradient2320"/>
  <linearGradient id="linearGradient3184" x1="74.281" x2="74.094" y1="63.219" y2="63.469" gradientTransform="translate(1.2108 .17297)" gradientUnits="userSpaceOnUse" xlink:href="#linearGradient2320"/>
  <linearGradient id="linearGradient3190" x1="69.312" x2="79.938" y1="60.625" y2="77.438" gradientTransform="translate(1.2108 .17297)" gradientUnits="userSpaceOnUse" xlink:href="#linearGradient2320"/>
  <linearGradient id="linearGradient3194" x1="73.5" x2="73" y1="70.906" y2="71.531" gradientTransform="translate(1.2108 .17297)" gradientUnits="userSpaceOnUse" xlink:href="#linearGradient2338"/>
  <linearGradient id="linearGradient3198" x1="81.188" x2="82.5" y1="79.875" y2="78.75" gradientTransform="translate(1.2108 .17297)" gradientUnits="userSpaceOnUse" xlink:href="#linearGradient2338"/>
  <linearGradient id="linearGradient3202" x1="79.562" x2="83.031" y1="81.047" y2="81.391" gradientTransform="translate(1.2108 .17297)" gradientUnits="userSpaceOnUse" xlink:href="#linearGradient2338"/>
  <linearGradient id="linearGradient3206" x1="87.219" x2="88.688" y1="85.875" y2="83.812" gradientTransform="translate(1.2108 .17297)" gradientUnits="userSpaceOnUse" xlink:href="#linearGradient2338"/>
  <linearGradient id="linearGradient3212" x1="79.906" x2="80.469" y1="71.5" y2="71.547" gradientTransform="translate(1.2108 .17297)" gradientUnits="userSpaceOnUse" xlink:href="#linearGradient2320"/>
  <linearGradient id="linearGradient3218" x1="84.406" x2="81.656" y1="74.219" y2="76.906" gradientTransform="translate(1.2108 .17297)" gradientUnits="userSpaceOnUse" xlink:href="#linearGradient2320"/>
  <linearGradient id="linearGradient3222" x1="83.75" x2="83.188" y1="76.75" y2="77.375" gradientTransform="translate(1.2108 .17297)" gradientUnits="userSpaceOnUse" xlink:href="#linearGradient2320"/>
  <linearGradient id="linearGradient3226" x1="92.594" x2="92.812" y1="77.938" y2="77.656" gradientTransform="translate(1.2108 .17297)" gradientUnits="userSpaceOnUse" xlink:href="#linearGradient2320"/>
  <linearGradient id="linearGradient3230" x1="88.219" x2="98.969" y1="74.656" y2="91.375" gradientTransform="translate(1.2108 .17297)" gradientUnits="userSpaceOnUse" xlink:href="#linearGradient2320"/>
  <linearGradient id="linearGradient3234" x1="103.56" x2="103.94" y1="81.5" y2="81.5" gradientTransform="translate(1.2108 .17297)" gradientUnits="userSpaceOnUse" xlink:href="#linearGradient2320"/>
  <linearGradient id="linearGradient3238" x1="101.97" x2="102.47" y1="81.688" y2="81.719" gradientTransform="translate(1.2108 .17297)" gradientUnits="userSpaceOnUse" xlink:href="#linearGradient2320"/>
  <linearGradient id="linearGradient3242" x1="111.94" x2="111.72" y1="91.281" y2="90.719" gradientTransform="translate(1.2108 .17297)" gradientUnits="userSpaceOnUse" xlink:href="#linearGradient2338"/>
  <linearGradient id="linearGradient3246" x1="104.88" x2="120.25" y1="91.469" y2="81.281" gradientTransform="translate(1.2108 .17297)" gradientUnits="userSpaceOnUse" xlink:href="#linearGradient2320"/>
  <linearGradient id="linearGradient3250" x1="110.88" x2="111.06" y1="82.281" y2="82.781" gradientTransform="translate(1.2108 .17297)" gradientUnits="userSpaceOnUse" xlink:href="#linearGradient2320"/>
  <linearGradient id="linearGradient3254" x1="106.03" x2="120.22" y1="82.469" y2="70.531" gradientTransform="translate(1.2108 .17297)" gradientUnits="userSpaceOnUse" xlink:href="#linearGradient2320"/>
  <linearGradient id="linearGradient3258" x1="121.88" x2="122.09" y1="77.156" y2="77.688" gradientTransform="translate(1.2108 .17297)" gradientUnits="userSpaceOnUse" xlink:href="#linearGradient2320"/>
  <linearGradient id="linearGradient3262" x1="124.12" x2="124.75" y1="71.75" y2="71.75" gradientTransform="translate(1.2108 .17297)" gradientUnits="userSpaceOnUse" xlink:href="#linearGradient2320"/>
  <linearGradient id="linearGradient3266" x1="122.5" x2="123.88" y1="72.734" y2="72.734" gradientTransform="translate(1.2108 .17297)" gradientUnits="userSpaceOnUse" xlink:href="#linearGradient2320"/>
  <linearGradient id="linearGradient3270" x1="121.97" x2="121.59" y1="74.969" y2="75.531" gradientTransform="translate(1.2108 .17297)" gradientUnits="userSpaceOnUse" xlink:href="#linearGradient2320"/>
  <linearGradient id="linearGradient3274" x1="108.06" x2="115.16" y1="71.25" y2="63.5" gradientTransform="translate(1.2108 .17297)" gradientUnits="userSpaceOnUse" xlink:href="#linearGradient3494"/>
  <linearGradient id="linearGradient3278" x1="79.125" x2="100.94" y1="36.062" y2="69" gradientTransform="translate(1.2108 .17297)" gradientUnits="userSpaceOnUse" xlink:href="#linearGradient3494"/>
  <linearGradient id="linearGradient3282" x1="102.94" x2="102.94" y1="51.75" y2="50.25" gradientTransform="translate(1.2108 .17297)" gradientUnits="userSpaceOnUse" xlink:href="#linearGradient3494"/>
  <linearGradient id="linearGradient3286" x1="58.125" x2="60.438" y1="26.562" y2="29.75" gradientTransform="translate(1.2108 .17297)" gradientUnits="userSpaceOnUse" xlink:href="#linearGradient3494"/>
  <linearGradient id="linearGradient3290" x1="63.875" x2="66.5" y1="23.562" y2="20.625" gradientTransform="translate(1.2108 .17297)" gradientUnits="userSpaceOnUse" xlink:href="#linearGradient3494"/>
  <linearGradient id="linearGradient3294" x1="76" x2="76.375" y1="24.938" y2="22.75" gradientTransform="translate(1.2108 .17297)" gradientUnits="userSpaceOnUse" xlink:href="#linearGradient3494"/>
  <linearGradient id="linearGradient3298" x1="83.375" x2="84.562" y1="32.375" y2="30.469" gradientTransform="translate(1.2108 .17297)" gradientUnits="userSpaceOnUse" xlink:href="#linearGradient3494"/>
  <linearGradient id="linearGradient3302" x1="76.562" x2="95.25" y1="54.5" y2="35.25" gradientTransform="translate(1.2108 .17297)" gradientUnits="userSpaceOnUse" xlink:href="#linearGradient2320"/>
  <linearGradient id="linearGradient3306" x1="48.688" x2="58" y1="31.062" y2="47.938" gradientTransform="translate(1.2108 .17297)" gradientUnits="userSpaceOnUse" xlink:href="#linearGradient2320"/>
  <linearGradient id="linearGradient3310" x1="16" x2="18.812" y1="60.875" y2="65.875" gradientTransform="translate(1.2108 .17297)" gradientUnits="userSpaceOnUse" xlink:href="#linearGradient3332"/>
  <linearGradient id="linearGradient3314" x1="30.938" x2="35.25" y1="67.156" y2="62.531" gradientTransform="translate(1.2108 .17297)" gradientUnits="userSpaceOnUse" xlink:href="#linearGradient3332"/>
  <linearGradient id="linearGradient3318" x1="30.938" x2="35.25" y1="67.156" y2="62.531" gradientTransform="translate(21.711 -8.3895)" gradientUnits="userSpaceOnUse" xlink:href="#linearGradient3332"/>
  <linearGradient id="linearGradient3322" x1="16" x2="18.812" y1="60.875" y2="65.875" gradientTransform="translate(61.836 -4.0145)" gradientUnits="userSpaceOnUse" xlink:href="#linearGradient3332"/>
  <linearGradient id="linearGradient3326" x1="30.938" x2="35.25" y1="67.156" y2="62.531" gradientTransform="translate(80.273 9.4855)" gradientUnits="userSpaceOnUse" xlink:href="#linearGradient3332"/>
  <linearGradient id="linearGradient3330" x1="16" x2="18.812" y1="60.875" y2="65.875" gradientTransform="translate(78.961 9.6105)" gradientUnits="userSpaceOnUse" xlink:href="#linearGradient3332"/>
  <linearGradient id="linearGradient3348" x1="96.432" x2="96.741" y1="80.138" y2="80.933" gradientTransform="translate(1.2108 .17297)" gradientUnits="userSpaceOnUse" xlink:href="#linearGradient2320"/>
  <linearGradient id="linearGradient3352" x1="93.25" x2="99.349" y1="86.369" y2="81.729" gradientTransform="translate(1.2108 .17297)" gradientUnits="userSpaceOnUse">
   <stop id="stop3195" stop-color="#c2a05c" offset="0"/>
   <stop id="stop3197" stop-color="#d6be91" offset="1"/>
  </linearGradient>
  <linearGradient id="linearGradient4094" x1="30.781" x2="25.375" y1="78.75" y2="84.625" gradientTransform="translate(5.1483 5.0167)" gradientUnits="userSpaceOnUse" xlink:href="#linearGradient3415"/>
  <linearGradient id="linearGradient4097" x1="35.625" x2="30.781" y1="83.219" y2="89.125" gradientTransform="translate(5.1483 5.0167)" gradientUnits="userSpaceOnUse" xlink:href="#linearGradient3415"/>
  <linearGradient id="linearGradient4100" x1="33.562" x2="29.812" y1="81.25" y2="84.969" gradientTransform="translate(5.1483 5.0167)" gradientUnits="userSpaceOnUse" xlink:href="#linearGradient2320"/>
  <linearGradient id="linearGradient4103" x1="35.562" x2="38.594" y1="90.594" y2="86.75" gradientTransform="translate(5.1483 5.0167)" gradientUnits="userSpaceOnUse" xlink:href="#linearGradient2320"/>
  <linearGradient id="linearGradient4106" x1="40.688" x2="36.75" y1="87.875" y2="92.188" gradientTransform="translate(5.1483 5.0167)" gradientUnits="userSpaceOnUse" xlink:href="#linearGradient2320"/>
  <linearGradient id="linearGradient4119" x1="30.781" x2="25.375" y1="78.75" y2="84.625" gradientTransform="translate(1.2108 .17297)" gradientUnits="userSpaceOnUse" xlink:href="#linearGradient3415"/>
  <linearGradient id="linearGradient4122" x1="35.625" x2="30.781" y1="83.219" y2="89.125" gradientTransform="translate(1.2108 .17297)" gradientUnits="userSpaceOnUse" xlink:href="#linearGradient3415"/>
  <linearGradient id="linearGradient4125" x1="33.562" x2="29.812" y1="81.25" y2="84.969" gradientTransform="translate(1.2108 .17297)" gradientUnits="userSpaceOnUse" xlink:href="#linearGradient2320"/>
  <linearGradient id="linearGradient4128" x1="35.562" x2="38.594" y1="90.594" y2="86.75" gradientTransform="translate(1.2108 .17297)" gradientUnits="userSpaceOnUse" xlink:href="#linearGradient2320"/>
  <linearGradient id="linearGradient4131" x1="40.688" x2="36.75" y1="87.875" y2="92.188" gradientTransform="translate(1.2108 .17297)" gradientUnits="userSpaceOnUse" xlink:href="#linearGradient2320"/>
  <linearGradient id="linearGradient4144" x1="30.781" x2="25.375" y1="78.75" y2="84.625" gradientTransform="translate(-2.8204 9.5792)" gradientUnits="userSpaceOnUse" xlink:href="#linearGradient3415"/>
  <linearGradient id="linearGradient4147" x1="35.625" x2="30.781" y1="83.219" y2="89.125" gradientTransform="translate(-2.8204 9.5792)" gradientUnits="userSpaceOnUse" xlink:href="#linearGradient3415"/>
  <linearGradient id="linearGradient4150" x1="33.562" x2="29.812" y1="81.25" y2="84.969" gradientTransform="translate(-2.8204 9.5792)" gradientUnits="userSpaceOnUse" xlink:href="#linearGradient2320"/>
  <linearGradient id="linearGradient4153" x1="35.562" x2="38.594" y1="90.594" y2="86.75" gradientTransform="translate(-2.8204 9.5792)" gradientUnits="userSpaceOnUse" xlink:href="#linearGradient2320"/>
  <linearGradient id="linearGradient4156" x1="40.688" x2="36.75" y1="87.875" y2="92.188" gradientTransform="translate(-2.8204 9.5792)" gradientUnits="userSpaceOnUse" xlink:href="#linearGradient2320"/>
  <filter id="filter4171">
   <feGaussianBlur id="feGaussianBlur4173" stdDeviation="1.3673438"/>
  </filter>
 </defs>
 <metadata id="metadata7">
  <rdf:RDF>
   <cc:Work rdf:about="">
    <dc:format>image/svg+xml</dc:format>
    <dc:type rdf:resource="http://purl.org/dc/dcmitype/StillImage"/>
   </cc:Work>
  </rdf:RDF>
 </metadata>
 <g id="layer2" fill-rule="evenodd">
  <path id="path4158" d="m47.898 34.079-40.969 15.906-4.3438 9.5312 1.9062 13.312 17.656 9.5 6.4062 4.5-9.6875 7.0938 11.219 7.7812 13.688-7.25-10.906-14.719 33.719-11.062 11.094 7.4375 11.062 8.6562 13.125 8.125 15.406-10.219-69.375-48.594zm-38.563 22.831 4.8605 11.25-6.5828 2.2355-3.1272-10.892 4.8495-2.5938z" fill-opacity=".66667" filter="url(#filter4171)"/>
  <path id="path2767" d="m7.1351 70.314-0.12973 1.2973 17.689 13.173-0.030578-1.7429-17.246-12.843-0.28293 0.11565z" fill="url(#linearGradient2769)"/>
  <path id="path2771" d="m7.3263 63.104 0.091733 7.0023 17.246 12.934 0.12231-0.88675 1.3454-2.4768-0.061155-2.8131-18.744-13.76z" fill="url(#linearGradient2773)"/>
  <path id="path2775" d="m7.2958 52.463v10.58l1.0091 0.73386 0.42809-10.794-1.5595-0.70328 0.12231 0.18347z" fill="url(#linearGradient2777)"/>
  <path id="path2779" d="m12.31 59.465-2.9354 1.376 0.061155 1.3454 2.9966-1.59-0.12231-1.1314z" fill="url(#linearGradient2781)"/>
  <path id="path2783" d="m8.5189 53.319-0.12231 10.305 0.97848-0.51982 0.030578-9.4791-0.88675-0.30578z" fill="url(#linearGradient2785)"/>
  <path id="path2787" d="m8.5189 63.654 0.79502-0.45866 15.442 11.711-0.12231 1.0702-16.114-12.323z" fill="url(#linearGradient2789)"/>
  <path id="path2791" d="m12.494 56.132-0.030578 9.4485 12.2 9.2344s0.39751-9.3567-0.030578-9.5708c-0.42809-0.21404-12.17-9.265-12.17-9.265l0.030578 0.15289z" fill="url(#linearGradient2793)"/>
  <path id="path2795" d="m12.28 60.749-2.9354 1.376 0.091733 1.1925 3.0883 2.3545-0.24462-4.923z" fill="url(#linearGradient2797)"/>
  <path id="path2799" d="m24.664 65.519v10.519s1.4371 1.1925 1.4371 1.0702c0-0.12231-0.061155-10.824-0.061155-10.824l-1.376-0.76444z" fill="url(#linearGradient2801)"/>
  <path id="path2805" d="m26.101 66.284 0.15289 10.672 1.2843-0.58097-0.12231-10.702-1.3148 0.61155z" fill="url(#linearGradient2807)"/>
  <path id="path2809" d="m26.376 76.864 16.879-7.0023 0.33635 6.8494-7.1552 2.966-1.2843-0.8256-0.12231-0.5504-1.0702-0.91733-0.79502-0.12231-0.48924 0.2752s-0.97848-0.61155-1.1008-0.61155c-0.12231 0-2.5685 0.36693-2.5685 0.36693l-2.3545 1.7429-0.48924 0.18346 0.21404-2.3545z" fill="url(#linearGradient2811)"/>
  <path id="path2813" d="m27.63 74.999c0.2752-0.12231 14.28-6.0238 14.28-6.0238l1.376 0.76444-15.839 6.7271" fill="url(#linearGradient2815)"/>
  <path id="path2819" d="m43.286 70.901 7.2775-2.9966 0.33635 4.8313-7.308 2.8743-0.30578-4.7089z" fill="url(#linearGradient2821)"/>
  <path id="path2823" d="m43.469 75.61 7.2775-2.9966 0.97848 0.97848-8.256 3.3024v-1.2843z" fill="url(#linearGradient2825)"/>
  <path id="path2827" d="m36.62 79.83 32.687-13.515-0.12231 2.1099-13.454 5.4428-17.643 7.0634-0.67271-0.58098-0.79502-0.51982z" fill="url(#linearGradient2829)"/>
  <path id="path2831" d="m41.39 78.76 13.515-5.5651 1.8347 1.4677-14.035 5.6874-1.1925-1.6512" fill="url(#linearGradient2833)"/>
  <path id="path2835" d="m42.643 80.35 14.064-5.6868 0.031922 1.0695-14.157 5.6263 0.061155-1.0091z" fill="url(#linearGradient2837)"/>
  <path id="path2839" d="m41.329 78.76c0.21404 0.2752 1.376 1.4983 1.376 1.4983l-0.030577 1.0396-0.15289 0.030577-1.4371-1.2537 0.030578-1.3454 0.21404 0.030578z" fill="url(#linearGradient2841)"/>
  <path id="path2845" d="m27.385 65.703 0.2752 9.2344 14.219-5.9626 1.4371 0.70328 0.091733 1.1619 7.094-3.0578-0.15289-2.171 17.399-6.7882-0.061155-9.4485-21.802 8.7452-18.499 7.5832z" fill="url(#linearGradient2847)"/>
  <path id="path2851" d="m7.4422 52.336c0.57452 0 14.982-3.0494 14.982-3.0494l3.7123 17.192-18.694-14.142z" fill="url(#linearGradient2853)"/>
  <path id="path2855" d="m7.0886 52.203 48.569-19.622 18.075-7.9108-0.7955 2.2539-27.312 11.844-23.555 10.474-14.982 2.961z" fill="url(#linearGradient2857)"/>
  <path id="path2859" d="m22.291 49.198 3.8891 17.147 43.001-17.545 3.8891-21.965-24.086 10.562-26.693 11.8z" fill="url(#linearGradient2861)"/>
  <path id="path3156" d="m50.43 65.517 1.2188 0.625 0.09375 7.1562-0.9375-0.75-0.375-7.0312z" fill="url(#linearGradient3158)"/>
  <path id="path3160" d="m50.555 65.735 1.0312 0.40625 16.156-6.4688v-0.78125l-17.219 6.6875 0.03125 0.15625z" fill="url(#linearGradient3162)"/>
  <path id="path3164" d="m51.617 66.079s-0.28125 7.375 0.125 7.2812 17.625-6.9375 17.625-6.9375l-0.15625-7.1562-17.594 6.8125z" fill="url(#linearGradient3166)"/>
  <path id="path3168" d="m67.68 49.392 0.09375 10.219s1.4375-0.3125 1.4375-0.46875-0.25-10.25-0.25-10.25l-1.2812 0.5z" fill="url(#linearGradient3170)"/>
  <path id="path3172" d="m69.148 59.11 0.09375-10.094 1.5312 1.2188-0.25 10.094-1.375-1.2188z" fill="url(#linearGradient3174)"/>
  <path id="path3178" d="m70.867 50.11-0.21875 9.4688 11.438 8.9375v2.9688l7.2188 5.0312v-1.5625l1.25-0.4375 12.219 9.8125 0.09375-9.375-32-24.844z" fill="url(#linearGradient3180)"/>
  <path id="path3182" d="m70.617 59.423 0.03125 0.9375 10.25 8.4375 1.0938-0.4375-11.375-8.9375z" fill="url(#linearGradient3184)"/>
  <path id="path3188" d="m69.336 59.392 0.125 7.0625 11.125 8.6562 0.34375-6.375-11.594-9.3438z" fill="url(#linearGradient3190)"/>
  <path id="path3192" d="m69.336 66.329-0.1875 2.0938 23.344 18.156 11.719 9.125v-2.0625l-23.312-18.094-11.562-9.2188z" fill="url(#linearGradient3194)"/>
  <path id="path3196" d="m79.117 75.048c-0.15625 0.0625-2.3125 1.5312-2.3125 1.5312l11.188 8.5938 2.1562-1.5312-11.031-8.5938z" fill="url(#linearGradient3198)"/>
  <path id="path3200" d="m76.711 76.61-0.0625 1.375 11.062 8.5312 0.03125-1.6562-11.031-8.25z" fill="url(#linearGradient3202)"/>
  <path id="path3204" d="m87.773 85.142 2.3438-1.4688 0.375 1.3438-2.625 1.5625-0.09375-1.4375z" fill="url(#linearGradient3206)"/>
  <path id="path3210" d="m80.898 68.767-0.28125 6.1562 1.3438-0.8125 0.0625-5.5938-1.125 0.25z" fill="url(#linearGradient3212)"/>
  <path id="path3216" d="m82.023 71.579-0.1875 2.625 7.4062 5.7188-0.09375-3.5-7.125-4.8438z" fill="url(#linearGradient3218)"/>
  <path id="path3220" d="m80.555 74.829 1.4062-0.65625 7.1875 5.7812-0.03125 1.9375-8.5625-6.8125v-0.25z" fill="url(#linearGradient3222)"/>
  <path id="path3224" d="m90.648 74.642-1.5 0.53125 13.656 10.781-0.0625-1.6562-12.094-9.6562z" fill="url(#linearGradient3226)"/>
  <path id="path3228" d="m89.586 75.517c0.1875 0.40625 14.656 11.438 14.656 11.438l0.03125 6.9688-15.094-11.938-0.03125-6.2812 0.4375-0.1875z" fill="url(#linearGradient3230)"/>
  <path id="path3232" d="m104.3 76.048-0.03125 11.094 1.75-0.75-0.25-10.969-1.4688 0.625z" fill="url(#linearGradient3234)"/>
  <path id="path3236" d="m102.8 75.204-0.03125 10.781 1.25 0.90625 0.15625-10.844-1.375-0.84375z" fill="url(#linearGradient3238)"/>
  <path id="path3240" d="m104.15 93.767 22.438-8.875 0.25 1.5625-22.781 9.125 0.09375-1.8125z" fill="url(#linearGradient3242)"/>
  <path id="path3244" d="m104.34 87.142 21.969-9.1562 0.25 6.9375s-22.281 8.875-22.281 8.75-0.03125-6.5312 0.0625-6.5312z" fill="url(#linearGradient3246)"/>
  <path id="path3248" d="m105.99 84.767 0.09375 1.6562 19.156-8.0625-1.5625-0.84375-17.688 7.25z" fill="url(#linearGradient3250)"/>
  <path id="path3252" d="m106.02 84.767-0.25-9.25 16.281-6.6562-0.03125 9.4375-16 6.4688z" fill="url(#linearGradient3254)"/>
  <path id="path3256" d="m122.18 75.298 1.5938 1.0625-0.0625 1.2812-1.625 0.65625 0.09375-3z" fill="url(#linearGradient3258)"/>
  <path id="path3260" d="m125.12 78.235-0.21875-10.625 1.7188-0.375-0.125 10.594-1.3125 0.625-0.0625-0.21875z" fill="url(#linearGradient3262)"/>
  <path id="path3264" d="m123.71 68.11 0.0625 9.5 1.3125 0.5625-0.09375-10.531-1.2812 0.46875z" fill="url(#linearGradient3266)"/>
  <path id="path3268" d="m122.24 74.173-0.03125 1.1562 1.5312 1.0938v-1.375l-1.5-0.875z" fill="url(#linearGradient3270)"/>
  <path id="path3272" d="m112.21 60.048-7.7812 15.75 21.781-8.7812-14-6.9688z" fill="url(#linearGradient3274)"/>
  <path id="path3276" d="m69.086 48.985 35.375 27.188 0.125-0.5625 7.75-15.562-39.312-33.188-3.9375 22.125z" fill="url(#linearGradient3278)"/>
  <path id="path3280" d="m126.34 66.86-14.062-6.9375-39.062-33 14.812 10.312 27.625 21.25 10.688 8.375z" fill="url(#linearGradient3282)"/>
  <path id="path3284" d="m47.398 26.923 26.25-2.5625-0.125 0.4375-18.25 7.8125-7.875-5.6875z" fill="url(#linearGradient3286)"/>
  <path id="path3288" d="m47.773 26.673 25.938-7.3125-0.125 4.9375-24.25 2.625-1.5625-0.25z" fill="url(#linearGradient3290)"/>
  <path id="path3292" d="m73.648 19.423 0.0625 5.0625 21.75 8.6875-21.812-13.75z" fill="url(#linearGradient3294)"/>
  <path id="path3296" d="m73.773 24.423 22.562 9.25-8.625 3.1875-14.75-9.9375 0.8125-2.5z" fill="url(#linearGradient3298)"/>
  <path id="path3300" d="m87.586 36.86 8.5625-3.1875 0.3125 10-8.875-6.8125z" fill="url(#linearGradient3302)"/>
  <path id="path3304" d="m55.648 32.61-8.5625-5.8125 0.1875 9.1875 8.375-3.375z" fill="url(#linearGradient3306)"/>
  <path id="path3308" d="m15.648 58.61 0.125 4.5625 5.3125 4.0625-0.0625-4.75-5.375-3.875z" fill="url(#linearGradient3310)"/>
  <path id="path3312" d="m31.461 64.048 0.125 5.0625 6.25-2.5-0.25-4.9375-6.125 2.375z" fill="url(#linearGradient3314)"/>
  <path id="path3316" d="m51.961 55.485 0.125 5.0625 6.25-2.5-0.25-4.9375-6.125 2.375z" fill="url(#linearGradient3318)"/>
  <path id="path3320" d="m76.273 54.423 0.125 4.5625 5.3125 4.0625-0.0625-4.75-5.375-3.875z" fill="url(#linearGradient3322)"/>
  <path id="path3324" d="m110.52 73.36 0.125 5.0625 6.25-2.5-0.25-4.9375-6.125 2.375z" fill="url(#linearGradient3326)"/>
  <path id="path3328" d="m93.398 68.048 0.125 4.5625 5.3125 4.0625-0.0625-4.75-5.375-3.875z" fill="url(#linearGradient3330)"/>
  <path id="path3332" d="m16.711 59.423-0.0625 3.5625 3.5625 2.5625 0.1875-3.5625-3.6875-2.5625z" fill="#d59163"/>
  <path id="path3334" d="m77.08 55.313-0.0625 3.5625 3.5625 2.5625 0.1875-3.5625-3.6875-2.5625z" fill="#d59163"/>
  <path id="path3336" d="m52.906 55.18-0.10669 3.9161 4.2254-1.415-0.03347-3.7393-4.0852 1.2382z" fill="#d59163"/>
  <path id="path3338" d="m32.488 63.533-0.10669 3.9161 4.2254-1.415-0.03347-3.7393-4.0852 1.2382z" fill="#d59163"/>
  <path id="path3340" d="m111.73 72.858-0.10669 3.9161 4.2254-1.415-0.03347-3.7393-4.0852 1.2382z" fill="#d59163"/>
  <path id="path3342" d="m94.448 68.969-0.0625 3.5625 3.5625 2.5625 0.1875-3.5625-3.6875-2.5625z" fill="#d59163"/>
  <path id="path3346" d="m102.68 77.968-10.165 4.0659s-0.44194 0.88388-0.44194 1.0607c0 0.17678 0.39775 0.66291 0.39775 0.66291l0.70711 0.044194 10.032-4.2426 0.61872-0.61872-0.26516-0.66291-0.88389-0.30936z" fill="url(#linearGradient3348)"/>
  <path id="path3350" d="m93.488 83.581c0 0.57452 0.13258 4.4194 0.13258 4.4194l7.8224-3.0936-0.0442-4.5962-7.9108 3.2704z" fill="url(#linearGradient3352)"/>
  <path id="path3354" d="m7.3263 63.104 0.091733 7.0023 17.246 12.934 0.12231-0.88675 1.3454-2.4768-0.061155-2.8131-18.744-13.76z" fill-opacity=".15686"/>
  <path id="path3356" d="m12.494 56.132-0.030578 9.4485 12.2 9.2344s0.39751-9.3567-0.030578-9.5708c-0.42809-0.21404-12.17-9.265-12.17-9.265l0.030578 0.15289z" fill-opacity=".15686"/>
  <path id="path3358" d="m12.28 60.749-2.9354 1.376 0.091733 1.1925 3.0883 2.3545-0.24462-4.923z" fill-opacity=".15686"/>
  <path id="path3360" d="m43.286 70.901 7.2775-2.9966 0.33635 4.8313-7.308 2.8743-0.30578-4.7089z" fill-opacity=".15686"/>
  <path id="path3362" d="m41.329 78.76c0.21404 0.2752 1.376 1.4983 1.376 1.4983l-0.030577 1.0396-0.15289 0.030577-1.4371-1.2537 0.030578-1.3454 0.21404 0.030578z" fill-opacity=".15686"/>
  <path id="path3364" d="m7.4422 52.336c0.57452 0 14.982-3.0494 14.982-3.0494l3.7123 17.192-18.694-14.142z" fill-opacity=".15686"/>
  <path id="path3366" d="m70.867 50.11-0.21875 9.4688 11.438 8.9375v2.9688l7.2188 5.0312v-1.5625l1.25-0.4375 12.219 9.8125 0.09375-9.375-32-24.844z" fill-opacity=".15686"/>
  <path id="path3368" d="m69.336 59.392 0.125 7.0625 11.125 8.6562 0.34375-6.375-11.594-9.3438z" fill-opacity=".15686"/>
  <path id="path3370" d="m76.711 76.61-0.0625 1.375 11.062 8.5312 0.03125-1.6562-11.031-8.25z" fill-opacity=".15686"/>
  <path id="path3372" d="m82.023 71.579-0.1875 2.625 7.4062 5.7188-0.09375-3.5-7.125-4.8438z" fill-opacity=".15686"/>
  <path id="path3374" d="m122.18 75.298 1.5938 1.0625-0.0625 1.2812-1.625 0.65625 0.09375-3z" fill-opacity=".15686"/>
  <path id="path3376" d="m69.086 48.985 35.375 27.188 0.125-0.5625 7.75-15.562-39.312-33.188-3.9375 22.125z" fill-opacity=".15686"/>
  <path id="path3378" d="m47.398 26.923 26.25-2.5625-0.125 0.4375-18.25 7.8125-7.875-5.6875z" fill-opacity=".15686"/>
  <path id="path4008" d="m44.711 88.954 1.4688 0.71875 0.46875 1.125 0.125 1.0312-0.15625 1.1875-0.4375 1.125-1 1.3125-1.3438 1.5625-1.125 0.65625-1.5625 0.4375-1.1875-0.09375-1.75-1.7188 1.6562-5 4.8438-2.3438z" fill="url(#linearGradient4106)"/>
  <path id="path4010" d="m45.617 89.704-0.09375 1.9375-1.0312 2.6875-2.8125 2.375-2.1875 1.0938-1.4688-1.5938 2.25-6.4375 4.4688-1.2812 0.875 1.2188z" fill="url(#linearGradient4103)"/>
  <path id="path4012" d="m35.492 81.704 3.6875 2.1875 2.9062 1.9375 2.5 2.0938s1.5 1.5938 1.375 1.5625-1.9688-0.03125-1.9688-0.03125l-1.3438 0.59375-1.125 1.0938-1.0938 1.3125-0.53125 1-0.5625 1.4062-0.3125 0.9375-0.03125 0.625 0.21875 1.3438-1.875-0.9375-2.3438-1.3438-3.4062-2.8125-2.375-2.0625-0.46875-0.84375s-0.1875-1.4375-0.1875-1.5625 0.1875-1.4375 0.1875-1.4375l1.4375-2.6562 2.3125-1.875 3-0.53125z" fill="url(#linearGradient4100)"/>
  <path id="path4014" d="m43.117 86.267-2.6562 1.2812-2.4375 1.9375-1.5625 1.9062-0.8125 1.9375-0.40625 1.7812-0.0625 0.96875 0.75 0.78125 1 0.15625 0.28125-0.90625 0.375-1.8438 1.375-2.6875 1.1562-1.3438s1.8125-1.4375 1.9375-1.4375 3.0938-1 2.8125-1.125-0.65625-0.65625-0.65625-0.65625l-1.0938-0.75z" fill="url(#linearGradient4097)"/>
  <path id="path4016" d="m31.273 92.798 0.5-1.8438 0.8125-2.1562 1.3438-2 2.4375-2 2.625-1.3125c0.15387-0.25-0.27502-0.5-0.5-0.75l-1.0625-0.59375-1.4688 0.65625-1.9062 1.0312-1.7188 1.4062-1.125 1.5625-1.1875 2.2812-0.5625 2.125 0.28125 0.75 0.8125 0.5625 0.71875 0.28125z" fill="url(#linearGradient4094)"/>
  <path id="path3986" d="m36.742 93.517 1.4688 0.71875 0.46875 1.125 0.125 1.0312-0.15625 1.1875-0.4375 1.125-1 1.3125-1.3438 1.5625-1.125 0.65625-1.5625 0.4375-1.1875-0.09375-1.75-1.7188 1.6562-5 4.8438-2.3438z" fill="url(#linearGradient4156)"/>
  <path id="path3988" d="m37.648 94.267-0.09375 1.9375-1.0312 2.6875-2.8125 2.375-2.1875 1.0938-1.4688-1.5938 2.25-6.4375 4.4688-1.2812 0.875 1.2188z" fill="url(#linearGradient4153)"/>
  <path id="path3990" d="m27.523 86.267 3.6875 2.1875 2.9062 1.9375 2.5 2.0938s1.5 1.5938 1.375 1.5625-1.9688-0.03125-1.9688-0.03125l-1.3438 0.59375-1.125 1.0938-1.0938 1.3125-0.53125 1-0.5625 1.4062-0.3125 0.9375-0.03125 0.625 0.21875 1.3438-1.875-0.9375-2.3438-1.3438-3.4062-2.8125-2.375-2.0625-0.46875-0.84375s-0.1875-1.4375-0.1875-1.5625 0.1875-1.4375 0.1875-1.4375l1.4375-2.6562 2.3125-1.875 3-0.53125z" fill="url(#linearGradient4150)"/>
  <path id="path3992" d="m35.148 90.829-2.6562 1.2812-2.4375 1.9375-1.5625 1.9062-0.8125 1.9375-0.40625 1.7812-0.0625 0.96875 0.75 0.78125 1 0.15625 0.28125-0.90625 0.375-1.8437 1.375-2.6875 1.1562-1.3438s1.8125-1.4375 1.9375-1.4375 3.0938-1 2.8125-1.125-0.65625-0.65625-0.65625-0.65625l-1.0938-0.75z" fill="url(#linearGradient4147)"/>
  <path id="path3994" d="m23.305 97.36 0.5-1.8438 0.8125-2.1562 1.3438-2 2.4375-2 2.625-1.3125c0.15387-0.25-0.27502-0.5-0.5-0.75l-1.0625-0.59375-1.4688 0.65625-1.9062 1.0312-1.7188 1.4062-1.125 1.5625-1.1875 2.2812-0.5625 2.125 0.28125 0.75 0.8125 0.5625 0.71875 0.28125z" fill="url(#linearGradient4144)"/>
  <path id="path3965" d="m40.773 84.11 1.4688 0.71875 0.46875 1.125 0.125 1.0312-0.15625 1.1875-0.4375 1.125-1 1.3125-1.3438 1.5625-1.125 0.65625-1.5625 0.4375-1.1875-0.09375-1.75-1.7188 1.6562-5 4.8438-2.3438z" fill="url(#linearGradient4131)"/>
  <path id="path3961" d="m41.68 84.86-0.09375 1.9375-1.0312 2.6875-2.8125 2.375-2.1875 1.0938-1.4688-1.5938 2.25-6.4375 4.4688-1.2812 0.875 1.2188z" fill="url(#linearGradient4128)"/>
  <path id="path3957" d="m31.555 76.86 3.6875 2.1875 2.9062 1.9375 2.5 2.0938s1.5 1.5938 1.375 1.5625-1.9688-0.03125-1.9688-0.03125l-1.3438 0.59375-1.125 1.0938-1.0938 1.3125-0.53125 1-0.5625 1.4062-0.3125 0.9375-0.03125 0.625 0.21875 1.3438-1.875-0.9375-2.3438-1.3438-3.4062-2.8125-2.375-2.0625-0.46875-0.84375s-0.1875-1.4375-0.1875-1.5625 0.1875-1.4375 0.1875-1.4375l1.4375-2.6562 2.3125-1.875 3-0.53125z" fill="url(#linearGradient4125)"/>
  <path id="path3969" d="m39.18 81.423-2.6562 1.2812-2.4375 1.9375-1.5625 1.9062-0.8125 1.9375-0.40625 1.7812-0.0625 0.96875 0.75 0.78125 1 0.15625 0.28125-0.90625 0.375-1.8438 1.375-2.6875 1.1562-1.3438s1.8125-1.4375 1.9375-1.4375 3.0938-1 2.8125-1.125-0.65625-0.65625-0.65625-0.65625l-1.0938-0.75z" fill="url(#linearGradient4122)"/>
  <path id="path3973" d="m27.336 87.954 0.5-1.8438 0.8125-2.1562 1.3438-2 2.4375-2 2.625-1.3125c0.15387-0.25-0.27502-0.5-0.5-0.75l-1.0625-0.59375-1.4688 0.65625-1.9062 1.0312-1.7188 1.4062-1.125 1.5625-1.1875 2.2812-0.5625 2.125 0.28125 0.75 0.8125 0.5625 0.71875 0.28125z" fill="url(#linearGradient4119)"/>
 </g>
 <g id="layer1">
  <path id="path2745" d="m73.742 19.11-26.75 7.5625 0.125 9.1562-40.125 16.344v17.625l-0.125 1.8438 17.656 13.344 0.03125 0.1875c0.29056 0.31484 0.56725 0.62638 0.875 0.9375-0.010991 0.064311-0.020909 0.060988-0.03125 0.09375-0.69002 0.23486-1.2757 0.6272-1.9375 1.0625-2.0106 1.7355-3.3129 3.9704-3 6.6875 0.004689 0.040797-0.036693 0.08396-0.03125 0.125l0.09375 0.53125c0.29056 0.31484 0.5985 0.62638 0.90625 0.9375-0.050654 0.2964-0.10054 0.1503-0.125 0.46875 0.57015 0.55176 1.2978 1.4544 2.25 1.6875 0.005412-0.047789-0.005961-0.13933 0-0.1875 1.0856 0.93708 2.2581 1.86 3.5312 2.7187-0.015274 0.13146-0.020844 0.2707-0.03125 0.40625 0.70896 0.87118 1.3121 1.12 2.25 1.2188 0.008292-0.07331 0.021642-0.14454 0.03125-0.21875 0.83065 0.48078 1.6886 0.93745 2.5938 1.375 0.1601 0.10384 0.82807 0.31456 1.125 0.4375l0.96875-0.21875c0.038474-0.0838-0.13077-0.24833-0.1875-0.34375 0.04957-0.01686 0.42012 0.23657 0.46875 0.21875 0.23644-0.08666 0.4736-0.17357 0.6875-0.28125 0.051471-0.02592-0.14392-0.25419-0.09375-0.28125 0.057185-0.03084 0.35074 0.12601 0.40625 0.09375 0.31081 0.00814 0.38644-0.21174 0.5625-0.375 0.04423-0.03816-0.045157-0.24322 0-0.28125 0.04935-0.04159 0.23153 0.10425 0.28125 0.0625 0.1569-0.1318 0.32448-0.26605 0.46875-0.40625 0.061956-0.05381-0.15138-0.34949-0.09375-0.40625 0.054144-0.05335 0.38579 0.1175 0.4375 0.0625 0.14924-0.15886 0.25609-0.31066 0.40625-0.46875 0.034365-0.0402-0.22115-0.30316-0.1875-0.34375 0.031927-0.03855 0.34371 0.13267 0.375 0.09375 0.13232-0.16468 0.28731-0.32871 0.40625-0.5 0.038779-0.05586-0.22471-0.31842-0.1875-0.375 0.034839-0.052969 0.37283 0.08484 0.40625 0.03125 0.11036-0.17708 0.18807-0.34749 0.28125-0.53125 0.024746-0.048829-0.17969-0.23197-0.15625-0.28125 0.025023-0.052629 0.28903 0.0219 0.3125-0.03125 0.082637-0.18707 0.1566-0.36879 0.21875-0.5625 0.016439-0.051229-0.23365-0.22958-0.21875-0.28125 0.014189-0.049179 0.29974 0.04959 0.3125 0 0.008069-0.031379 0.023941-0.06214 0.03125-0.09375 0.31213 0.16137 0.61422 0.31248 0.9375 0.46875 0.1601 0.10384 0.79682 0.31456 1.0938 0.4375l1-0.21875c0.038472-0.083799-0.13077-0.24833-0.1875-0.34375 0.049573-0.016859 0.38887 0.23657 0.4375 0.21875 0.23644-0.086659 0.4736-0.17357 0.6875-0.28125 0.05147-0.025919-0.11267-0.25419-0.0625-0.28125 0.057183-0.030839 0.35074 0.12601 0.40625 0.09375 0.27956-0.023109 0.38644-0.21174 0.5625-0.375 0.044233-0.038159-0.076407-0.24322-0.03125-0.28125 0.049348-0.041589 0.26278 0.10425 0.3125 0.0625 0.15691-0.1318 0.32448-0.26605 0.46875-0.40625 0.061955-0.053809-0.18263-0.34949-0.125-0.40625 0.054146-0.053349 0.38579 0.1175 0.4375 0.0625 0.14924-0.15886 0.28734-0.31066 0.4375-0.46875 0.034363-0.040199-0.22115-0.30316-0.1875-0.34375 0.03193-0.038549 0.34371 0.13267 0.375 0.09375 0.13232-0.16468 0.25606-0.32871 0.375-0.5 0.038777-0.055859-0.22471-0.31842-0.1875-0.375 0.034838-0.052973 0.40408 0.08484 0.4375 0.03125 0.11036-0.17708 0.18807-0.34749 0.28125-0.53125 0.024745-0.048833-0.21094-0.23197-0.1875-0.28125 0.025022-0.052633 0.32028 0.0219 0.34375-0.03125 0.082636-0.18707 0.1566-0.36879 0.21875-0.5625 0.016438-0.051233-0.2649-0.22958-0.25-0.28125 0.014188-0.049183 0.29974 0.04959 0.3125 0 0.060252-0.23428 0.12987-0.47511 0.15625-0.71875 0.008073-0.074723-0.28593-0.36191-0.28125-0.4375 0.004917-0.079513 0.28022 0.04921 0.28125-0.03125 0.004165-0.32934 0.003775-0.68573-0.0625-1.0312-0.012147-0.063283-0.32372-0.24854-0.34375-0.3125-0.029313-0.093623 0.24575-0.06159 0.21875-0.15625-0.11965-0.4194-0.26287-0.8375-0.5-1.2812-0.32782-0.378-0.56551-0.48674-1.5938-1.5312 0.12818-0.046144 0.27381-0.11239 0.40625-0.15625-0.54292-0.78588-1.339-1.3102-2.1875-1.875-0.017777 0.014557-0.044246 0.017489-0.0625 0.03125-0.11965-0.4194-0.29412-0.86875-0.53125-1.3125-0.32782-0.378-0.53426-0.48674-1.5625-1.5312 0.12818-0.046141 0.24256-0.08114 0.375-0.125-0.54291-0.78589-1.339-1.3414-2.1875-1.9062-0.080797 0.066175-0.16772 0.1531-0.25 0.21875-0.11593-0.099368-0.2598-0.18976-0.375-0.28125l2.625-1.0625v0.15625l1.4688 1.4375 14.406-5.7812v-1.1562l-0.96875-0.71875 13.156-5.3125 9 7-1.5312 1.0312v1.4688l11.406 8.6562 2.4688-1.5938v0.0625l2.9375 2.2812v0.65625l0.5625-0.21875 10.219 7.9375 22.938-9.2812-0.1875-1.5-0.0625-18.062-30.094-23.5v-9.8125l-22.969-14.594zm-0.28125 0.625-0.125 4.4375-24.031 2.5938 24.156-7.0312zm0.4375 0.1875 19.281 12.156-19.25-7.75-0.03125-4.4062zm-2.125 0.625-1.625 0.5-0.09375-0.09375-0.0625 0.125-4 1.25-0.40625-0.1875-0.09375 0.28125 0.0625 0.03125-4.2188 1.3125-0.40625-0.25-0.1875 0.15625 0.3125 0.1875-0.96875 0.28125 0.21875 0.15625 1-0.3125 1.2812 0.71875 0.3125-0.0625-1.3125-0.75 4.2812-1.3125 2.9688 1.25-0.375 0.15625v0.0625l0.46875-0.15625 0.6875 0.28125 0.1875-0.0625-0.65625-0.3125 2.8438-0.96875 0.4375 0.3125 0.15625-0.0625-0.375-0.3125 0.59375-0.21875-0.09375-0.125-0.625 0.21875-1.7188-1.4375 1.7188-0.53125-0.3125-0.125zm-1.8125 0.78125 1.9062 1.4062-2.8125 1.0312-2.7812-1.3125 3.6875-1.125zm6.75 1.4375-0.15625 0.1875c0.32643 0.20338 0.64448 0.41819 0.96875 0.625l-2.7188 0.65625-0.03125 0.125 2.9688-0.625c0.81323 0.52118 1.6335 1.0268 2.4375 1.5625l-1.0625 0.25 0.09375 0.125 1.125-0.25c1.2293 0.82062 2.4628 1.642 3.6875 2.4688l0.0625-0.09375c-1.1602-0.86143-2.2891-1.6485-3.4375-2.4375l0.9375-0.21875 0.0625-0.15625-1.1562 0.25c-0.76934-0.5263-1.5622-1.0713-2.375-1.5938l0.8125-0.15625-0.15625-0.1875-0.875 0.21875c-0.39337-0.25151-0.77702-0.49524-1.1875-0.75zm-3.4688 1.75-17.406 7.875-7.5312-5.0938 24.938-2.7812zm-15.625 0.15625-3 0.8125 0.1875 0.21875 2.8438-0.875-0.03125-0.15625zm16.469 0 21.406 8.875-8.0938 3.0625 0.03125-0.09375-1.5-1.0312-11.844-10.812zm-0.25 0.21875 9.9062 9.125-9.6875-6.5625-0.78125-0.65625 0.5625-1.9062zm-0.5 0.03125-0.4375 1.7188-17.594 7.7188v-0.03125l-1.125-0.15625 8.8438-3.9062v-0.03125l5.0938-1.75-0.09375-0.1875-9.25 3.1875 0.0625 0.1875 2.7188-0.9375-7.625 3.4062-1.0938-0.15625-0.15625 0.1875 0.90625 0.125-0.90625 0.40625 0.21875 0.03125 0.9375-0.40625 1.2188 0.15625-33.062 14.531-12.875 2.75 17.719-7.2188-0.03125 0.15625 0.59375 0.09375-6.2812 2.625h-0.78125l-0.34375 0.15625h0.71875l-1.3125 0.5625 0.28125 0.21875 1.7812-0.75 2.4688 0.03125 0.09375-0.1875-2.1562-0.03125 5.9688-2.5312 1.7812 0.3125 0.03125-0.25-1.4688-0.21875 11.219-4.75-0.03125-0.15625-11.656 4.8438-0.84375-0.125 16.031-6.5 9.9375-4.0625 3.5312-1.4375 2.4062-1.0625 14.562-6.5625zm-30.438 13.125-0.09375 0.1875 0.65625 0.40625-0.90625 0.40625 0.03125 0.21875 1.125-0.5 0.25 0.15625 0.28125-0.1875-0.21875-0.09375 5.875-2.5938-0.09375-0.28125-6.0312 2.7188-0.875-0.4375zm17.219-11.75-0.1875 0.21875 0.9375 0.84375-6.6875 0.90625-1.5-1.0938-0.28125 0.15625 1.3438 0.96875-1.2812 0.1875v0.15625l1.4688-0.1875 2.5312 1.8438 0.15625-0.25-2.2812-1.6562 6.6562-0.90625 0.78125 0.6875 0.1875-0.15625-0.625-0.59375 5.8125-0.78125v-0.125l-5.9375 0.8125-1.0938-1.0312zm-12.812 0.71875 6.0312 4.4375-0.03125 1.8438-1.0625 0.4375-4.8125-3.5312-0.125-3.1875zm25.438 0.125-3.875 21.5-42.594 17.219-3.75-16.5 50.219-22.219zm0.375 0.15625 38.812 32.656-7.6562 15.875-17.187-13.281-17.594-13.594 3.625-21.656zm7.4375 1.375-0.25 0.1875 6.6562 4.6875-1.5312 0.6875 0.09375 0.25 1.625-0.78125 2.0625 1.4375 0.28125-0.03125-2.125-1.5312 2.9375-1.4062-0.125-0.0625-3 1.3438-6.625-4.7812zm-4.8438 0.1875 10.25 7.2188 0.96875 0.875 9.4688 7.2812 28.437 21.781-12.594-6.3438-36.531-30.812zm20.688 15.375-7.4688-4.5-0.15625 0.09375 7.75 4.5938-0.125-0.1875zm-21.625-14.219-0.15625 1.0938c-0.37317-0.3346-0.75335-0.66331-1.125-1l-0.1875 0.15625c0.41431 0.37566 0.83342 0.75173 1.25 1.125l-2 13.125-0.34375-0.25-0.125 0.15625 0.4375 0.3125-0.25 1.5312 0.1875 0.1875 0.25-1.5938 4.4062 3.1562-0.375 2.7188 0.28125 0.09375 0.34375-2.625 1.5 1.0625 0.15625-0.125-1.625-1.1562 1.2812-9.375 1.9062 1.5625 0.125-0.28125-2-1.625 0.0625-0.4375-0.1875-0.09375-0.0625 0.375-3.7188-3.0625-0.125 0.28125 3.8125 3.125-1.3438 9.3438-4.4062-3.1562 2.0625-13.031c3.4334 3.0698 6.9333 6.0695 10.438 9.0625l-2.0625 8 0.25 0.125 2.0312-7.9375c2.1419 1.8294 4.2814 3.6542 6.4062 5.5l0.03125-0.25c-2.1136-1.8473-4.2477-3.6764-6.375-5.5l0.5-2-0.28125 0.0625-0.4375 1.75c-3.5114-3.0098-7.018-6.0057-10.469-9.0938l0.1875-1.1562-0.25-0.15625zm-27.344 0.375 2.5938 1.9062-0.03125 2.3125-0.5625 0.28125-1.875-1.3438-0.125-3.1562zm20.125 0.125c-0.002499 0.014644 0.015226 0.063283 0.03125 0.125 0.030067-0.068507-0.025062-0.16126-0.03125-0.125zm0.03125 0.125c-0.015033 0.034254-0.06088 0.051167-0.125 0.0625 0.27755 2.4952 0.004663 5.0269 0.125 7.5312l-3.5625 1.5312c-0.53071-2.0238-1.0628-4.0472-1.625-6.0625l-0.1875 0.15625c0.54369 2.0111 1.0529 4.0158 1.5625 6.0312l-9.5312 4.0938-2.4688-5.2188 5.2188-2.25 1.1875 2.9688 0.15625-0.1875-1.1562-2.8438 2.8125-1.2188-0.1875-0.1875-2.7188 1.1875-0.28125-0.6875-0.1875 0.0625 0.28125 0.6875-5.25 2.25-0.15625-0.34375-0.09375 0.21875 0.09375 0.1875-18.188 7.8438-0.125-0.375-0.28125 0.09375 0.125 0.375-6.8125 2.9375c-0.082281-0.2705-0.16811-0.54188-0.25-0.8125-0.23602-0.23562 0.041667-0.14583-0.28125-0.0625 0.095695 0.33577 0.21403 0.66505 0.3125 1l-1.125 0.46875 0.03125 0.25 1.1562-0.5c0.74296 2.5118 1.5373 5.008 2.3438 7.5h0.28125c-0.8304-2.5232-1.632-5.0529-2.4062-7.5938l6.8125-2.9375 1.7812 5.5625-0.75 0.34375-0.03125 0.25 0.875-0.375 1.6875 5.2812-3.6875 1.5312-2.3125-7.5312-0.21875-0.03125 2.25 7.6875-1.9688 0.8125 0.125 0.25 1.9062-0.8125 0.59375 2.0625 0.34375-0.15625-0.625-2.0312 3.6562-1.5312 0.4375 1.3438h0.28125l-0.46875-1.4375 8.4375-3.5312-0.1875-0.15625-8.3125 3.4375-1.6875-5.3125 4.2188-1.8438 0.65625 1.875 0.1875-0.09375-0.625-1.875 2.25-0.96875v-0.28125l-2.3125 1.0312-0.96875-2.8438-0.3125 0.0625 1.0312 2.875-4.1875 1.875-1.7812-5.5938 18.219-7.8438 2.5312 5.2188-6.1875 2.6562-0.65625-1.4062-0.15625 0.09375 0.625 1.4062-1.9062 0.8125 0.0625 0.21875 1.9375-0.84375 3.4375 7.5625 0.34375-0.0625-3.5938-7.5938 6.1562-2.6875 2.8125 5.8438-0.5 0.21875 0.15625 0.125 0.40625-0.1875 0.375 0.75 0.125-0.03125-0.375-0.78125 6.125-2.7812 0.5625 1.4688 0.21875-0.09375-0.53125-1.4688 0.53125-0.25-0.03125-0.21875-0.59375 0.28125-0.90625-2.4688-0.28125-0.03125 0.96875 2.5938-6.125 2.8125-2.7812-5.8438 9.4688-4.0938c0.17606 0.6954 0.34948 1.3983 0.53125 2.0938l0.28125-0.125c-0.18249-0.69925-0.3793-1.3947-0.5625-2.0938l3.5625-1.5312c0.024602 0.44829 0.037049 0.89771 0.09375 1.3438l0.1875 0.0625c-0.068847-0.48544-0.12641-0.97459-0.15625-1.4688l1.0312-0.4375 0.03125-0.1875-1.0625 0.46875c-0.1332-2.4838 0.11843-5.0548-0.15625-7.5-0.005359-0.017969 0.003815-0.016555 0-0.03125zm-14.094 0.90625 1.4688 1.0938-1.5 0.59375 0.03125-1.6875zm-3.3438 0.84375 1.9375 1.4062-1.9375 0.8125v-2.2188zm-2.5938 1.375 1.6562 1.2188-1.5938 0.65625-0.0625-1.875zm48.406 0.25v2.7188l-4.625 1.8125 0.03125-2.7812 4.5938-1.75zm-4.7812 1.8125-0.03125 2.8125-0.5 0.21875-2.4688-1.9062 3-1.125zm4.7812 1.1875v3.3125l-2.25 0.875-2.8125-2.1562 5.0625-2.0312zm0 3.5312v2.375l-2.0312-1.5625 2.0312-0.8125zm0 3.875-0.15625 0.125 15.062 12.875-0.71875-0.125-0.0625 0.1875 1.1562 0.28125 2.9688 2.5312 4.6562 1.7188-0.09375-0.34375-4.375-1.5312-2.6562-2.2812 2.0625 0.5 0.03125-0.34375-2.5-0.5-15.375-13.094zm-52.938 0.5-0.15625 0.1875 2.4375 6.2812 0.3125 0.03125-2.5938-6.5zm46.531 1.75c-0.35619 0.9402-0.72833 1.8759-1.0938 2.8125l-2.5-2.1875-0.0625 0.25 2.4688 2.1875c-0.89045 2.2774-1.7994 4.5466-2.7188 6.8125l-1.75-1.4688-0.03125 0.15625 1.7188 1.4688c-0.17759 0.43755-0.35338 0.87508-0.53125 1.3125l0.25 0.125c0.16572-0.42652 0.33163-0.85575 0.5-1.2812l5.5938 4.7188c-0.32387 0.65835-0.65459 1.3217-0.9375 2.0312l0.25 0.0625c0.2597-0.65061 0.54991-1.3024 0.84375-1.9375l8.4375 7.0938-0.625 1.125 0.125 0.1875 0.65625-1.1562 1.3438 1.125 0.25-0.09375-1.5-1.25 3.1875-5.6875 1.0312 0.90625 0.1875-0.1875-1.0625-0.96875 1.6875-3 2.375 2.2188 0.1875-0.125-2.4688-2.2812 0.9375-1.6875-0.125-0.1875-0.96875 1.7188-5.5937-5.1875 1.2187-2.4375-0.21875-0.09375-1.1875 2.375-0.6875-0.65625-0.125 0.15625 0.71875 0.6875-1.6562 3.2812-2.9375-2.5938c0.29642-0.70862 0.57528-1.4223 0.8125-2.1562l-0.125-0.0625c-0.20645 0.76437-0.46724 1.4888-0.75 2.1875l-6-5.3125c0.38445-0.98489 0.76159-1.9757 1.125-2.9688l-0.25-0.03125zm-20.75 2.5625 0.125 9.7812-1.0312 0.40625 0.03125-9.8125 0.875-0.375zm0.6875 0.25 0.9375 0.71875-0.0625 9.7188-0.78125-0.65625-0.09375-9.7812zm-47.406 0.0625 3.7188 16.531-17.469-13.562 13.75-2.9688zm45.406 0.21875 0.03125 2.5625-2.8438 1.125v-2.5625l2.8125-1.125zm21.094 0.15625 5.9688 5.3125c-0.35248 0.84108-0.74219 1.6421-1.1562 2.4375l-3.4062-2.9375-0.28125 0.0625 3.5938 3.125c-0.60782 1.1556-1.2468 2.2995-1.8438 3.5l-5.5938-4.6875c0.90132-2.2744 1.8263-4.5348 2.7188-6.8125zm-17.656 0.65625 5.0938 4 0.03125 2.2812-5.1562-4 0.03125-2.2812zm-52.5 0.34375-0.96875 1-0.65625-0.53125-0.15625 0.21875 0.625 0.53125-2.9375 3.0625-1.9062-1.5 1.1562-1.2188-0.25-0.125-1 1.25-1.125-0.875-0.125 0.09375 1.125 0.90625-0.34375 0.4375 0.0625 0.0625 0.40625-0.40625 1.9062 1.5-0.28125 0.28125 0.25 0.21875 0.28125-0.3125 2.7812 2.2188 0.21875-0.0625-2.9062-2.2812 2.8438-3.125 2.3125 1.875-0.25 0.28125h0.125l0.1875-0.21875 2.5 2.0625 0.15625-0.21875-2.4688-2.0312 2.0938-2.1562-0.1875-0.0625-1.9688 2.1562-2.3125-1.875 0.9375-1.0312-0.125-0.125zm46.062 0.0625v2.5625l-5.7812 2.2812v-2.5l5.7812-2.3438zm3.0312 1.5625 0.03125 2.6562-5.7812 2.3125v-2.625l5.75-2.3438zm-59.813 0.15625 0.65625 0.5-0.15625 10.125-0.59375-0.4375 0.09375-10.188zm63.188 0.3125 1.875 1.4688-0.03125 2.7188-1.9062-1.5 0.0625-2.6875zm-12.375 0.375v2.5312l-0.25 0.09375-0.0625-2.5 0.3125-0.125zm-49.719 0.15625 0.3125 0.25 0.125 9.3125-0.6875 0.34375 0.25-9.9062zm48.906 0.1875 0.1875 4.1562-5.5312 1.9375-0.09375-3.9062 0.40625-0.15625v3.5625l4.4688-1.5625v-3.8125l0.5625-0.21875zm-0.875 0.34375 0.09375 3.4688-4.0312 1.4375 0.0625-3.3438 3.875-1.5625zm-47.281 0.03125 2.6563 2.0312-0.03125 3.1562-2.6563 1.25 0.03125-6.4375zm89.969 0.375 5.5937 5.1875-1.6875 3.0312-5.5937-4.9375 1.6875-3.2812zm-26.594 0.125 3.125 2.4375 0.03125 2.0938 2.0938 1.625v0.71875l-5.25-4.125v-2.75zm-11.344 0.34375v2.625 0.03125l-6.8125 2.7188v-0.78125l3.5625-1.3438-0.0625-1.9062 3.3125-1.3438zm14.938 0 0.46875 0.375v3.4688l1.2188 0.90625v0.65625l-1.75-1.3125 0.0625-4.0938zm18.094 0.3125 2.9375 2.625-0.5625 1.125 0.1875 0.0625 0.53125-1.0625 5.5625 4.9375-3.1875 5.6875-8.4375-7.0625c0.56794-1.2168 1.1278-2.4204 1.7188-3.625l3.4062 2.9688 0.21875-0.15625-3.5-3.0312c0.39599-0.81168 0.77048-1.6398 1.125-2.4688zm-27.062 0.15625 0.03125 2.75-2.625 1.0312v-2.75l2.5938-1.0312zm9.7188 0.09375 3.3438 2.625-0.09375 3.0312-3.3438-2.375 0.09375-3.2812zm-6.4375 0.3125 4.0938 3.2188v2.7812l-4.1875-3.2188 0.09375-2.7812zm-19.188 0.375 0.0625 2.4688-1.9688 0.78125v-2.4688l1.9062-0.78125zm13.125 0.34375v2.75l-5.7812 2.2812v-2.7188l5.7812-2.3125zm-51.938 0.09375 2.5 1.9062 0.0625 2.5-2.5625-1.875v-2.5312zm6.3125 0.375-0.25 0.15625 2 1.5938-1.1562 1.375 0.15625 0.1875 1.1562-1.4375 2.7188 2.1562 0.15625-0.15625-2.7188-2.1875 1.1562-1.4062-0.09375-0.15625-1.2188 1.4375-1.9062-1.5625zm30.406 0.03125v2.5l-10.344 4.125v-2.4375l10.344-4.1875zm18.031 1.3438v0.375l-5.4688 2.125v-0.3125l5.4688-2.1875zm13.344 0 0.40625 0.3125v4.0625l-2.9688-2.25v-0.6875l2.4688 1.8125 0.09375-3.25zm-10.188 0.34375 1.5938 1.2188-0.03125 0.65625-1.5312-1.2188-0.03125-0.65625zm-19.031 0.1875 0.03125 1.7812 2.8438-1.0938v0.78125l-10 4v-2.5938l7.125-2.875zm7.125 0-0.03125 2.75-8.8125 3.5312v-2.7188l8.8438-3.5625zm-42.812 0.125 0.5 0.375v3.5938l3.8438 2.875 0.09375-3.4375 0.375 0.28125 0.0625 3.9688-4.8125-3.6875-0.0625-3.9688zm51.562 0.03125v0.46875l-16.281 6.4375 0.0625 6.9375c-0.14583-0.099706-0.28845-0.20897-0.40625-0.375l-0.1875-6.875 16.812-6.5938zm7.4688 0.09375 5.5 4.3438-0.03125 2.6562-5.4688-4.2188v-2.7812zm6.9062 0 5.125 4v2.2188l-5.125-3.9375v-2.2812zm-69.125 0.15625 2.125 1.5625v2.6875l-2.125-1.5625v-2.6875zm56.094 0.15625 0.09375 6.5625-17.031 6.9375-0.125-6.75 17.062-6.75zm-52.125 0.15625 3.375 2.5938-0.09375 3.1875-3.3438-2.375 0.0625-3.4062zm53.938 0.03125 10.906 8.7188-0.5625 0.21875-10.344-8.4062v-0.53125zm-1.1562 0.125 11 9.0312-0.1875 5.9375-10.75-8.4688-0.0625-6.5zm-57.406 0.03125v0.6875l-2.6875 1.375v-0.84375l2.6875-1.2188zm60.312 0.25 5.2812 4.125-0.03125 0.6875-5.25-4.1562v-0.65625zm39.844 0.3125 13.125 6.5312-20.656 8.625 7.5312-15.156zm-50.406 0.28125v0.28125l-6.6875 2.5938v-0.1875l6.6875-2.6875zm16.438 0.21875 3.5938 2.75v-1.9375l1.7188 1.3438v2.75l-5.3125-4.1562v-0.75zm-66.219 0.09375-0.03125 4.2188-2.625-1.9688v-0.96875l2.6563-1.2812zm3 0.03125 0.25 0.1875 0.0625 2.1562 5.875 4.5 0.03125-2.25 0.71875 0.5625-0.03125 2.5625-6.9062-5.0625v-2.6562zm23.906 0.28125-0.03125 2.4688-1.125 0.4375-0.0625-2.4062 1.2188-0.5zm73.844 0.46875-0.28125 0.03125c0.3288 1.0172 0.69205 2.0277 1.0625 3.0312l-1.4375 0.6875 0.1875 0.125 1.3125-0.59375c0.52172 1.4049 1.0841 2.7907 1.625 4.1875-2.4492 1.1813-4.8985 2.3608-7.4062 3.2812l0.0625 0.0625c2.5242-0.88854 4.9397-2.0683 7.375-3.2188 0.04892 0.12644 0.1075 0.24853 0.15625 0.375l0.1875-0.125c-0.04309-0.11343-0.08191-0.23017-0.125-0.34375 1.3429-0.63342 2.6965-1.2485 4.0625-1.8125l0.53125 1 0.15625-0.09375-0.46875-1c0.39318-0.16018 0.79044-0.32017 1.1875-0.46875l-0.125-0.1875c-0.38055 0.1472-0.74667 0.31045-1.125 0.46875l-0.96875-2.0938-0.34375 0.125 1.0625 2.0625c-1.3452 0.57112-2.6995 1.2023-4.0312 1.8438-0.52191-1.3765-1.029-2.765-1.5312-4.1562l2.5312-1.125-0.1875-0.3125-2.4375 1.1875c-0.35155-0.97867-0.7053-1.9567-1.0312-2.9375zm-68.5 0.09375v2.5938l-9.2812 3.7188v-0.375l2.8438-1.0938-0.0625-2.2188 6.5-2.625zm-7.1875 0.1875 0.1875 4.4062-5.5312 2.125 0.03125-4.375 0.34375-0.15625 0.03125 3.6562 4.4375-1.5625v-3.9062l0.5-0.1875zm-24.375 0.125 2.125 1.5625 0.03125 0.03125 2.5938 1.9062v2.5l-4.75-3.4688v-2.5312zm23.594 0.1875 0.09375 3.5938-4.0625 1.4375 0.09375-3.4375 3.875-1.5938zm13.375 0.21875v2.6875l-10.594 4.2188v-2.6562l10.594-4.25zm-28.406 0.5625 3 2.3125v2.1875l-3.0312-2.25 0.03125-2.25zm62.438 0.03125 6 4.6562-0.03125 2.8125-5.9688-4.7188v-2.75zm3.375 0.125 5.8125 4.5312-0.03125 2.125-5.7812-4.4688v-2.1875zm-78.094 0.0625 5.625 4.2812 7.0938 5.4062 2.5625 1.9688v0.53125l-15.719-11.875 0.4375-0.3125zm45.938 0.0625v0.1875l-4.9375 1.9062 0.125 2.125-5.25 2.2188v-2.375l10.062-4.0625zm25.594 0.15625 6.0938 4.8125-0.03125 2.5625-6.0625-4.6875v-2.6875zm-73.031 0.0625 18.156 13.625v2.4375c-0.59751 0.83285-1.016 1.7539-1.2188 2.75l-16.938-12.438v-6.375zm70.313 0.65625 5.1875 4.0312-0.03125 2.7188-0.90625-0.71875 0.03125-1.9375-4.3125-3.375 0.03125-0.71875zm-46.719 0.15625 0.03125 2.4062-0.625 0.25v-2.4062l0.59375-0.25zm-0.78125 0.3125v2.4062l-2.75 1.125-0.03125-2.375 2.7812-1.1562zm-17.594 0.09375 1.9062 1.4062v0.90625l-1.9062-1.4375v-0.875zm4.9375 0.9375 6.625 4.875v2.4375l-6.625-4.8438v-2.4688zm7.25 0.125 0.71875 0.53125 0.03125 10.125-0.8125-0.59375 0.0625-10.062zm2.1875 0.15625 0.0625 10.125-0.6875 0.28125-0.09375-10.094 0.71875-0.3125zm-4.9688 0.1875 2.1562 1.5938v2.5938l-2.1562-1.5938v-2.5938zm-7.3125 0.125 2.6562 1.9375 0.03125 0.03125 4.2188 3.0938v1.0625l-6.9062-5.1875v-0.9375zm54.469 0.3125 23.938 18.875v1.2188l-2.7812-2.125-0.03125-0.90625-11.406-8.875-0.71875 0.46875-8.9688-6.875-0.03125-1.7812zm-0.28125 0.03125-0.09375 1.5312-13.438 5.4062-0.75-0.5625-13.812 5.5938-0.03125 0.84375-2.9688 1.1875c-0.29468-0.21945-0.69386-0.50555-1.0938-0.78125l32.188-13.219zm-30.062 0.15625-0.03125 2.6875-8.0938 3.2188v-2.625l8.125-3.2812zm-7.7812 0.25 0.03125 2.125 3.625-1.4062v0.40625l-7.2188 2.875-0.03125-2.5312 3.5938-1.4688zm78.937 0-0.25 0.125 1.0625 2.4688 0.15625-0.1875-0.96875-2.4062zm-65.406 0.40625v2.4062l-1.25 0.53125-0.0625-0.9375-1.6562-0.75-6.7188 2.7812v-0.125l9.6875-3.9062zm81.469 0.03125-0.28125 10.25-0.75 0.3125-0.09375-10.281 1.125-0.28125zm-33.156 0.34375 0.09375 0.0625 0.0625 2.1875-0.15625-0.125v-2.125zm-3.125 0.03125 3.2812 2.5625 0.0625 2.3438 3 2.2812-0.03125 0.625-3.25-2.5625-3.0625-2.4375v-2.8125zm34.812 0.0625 0.15625 9.875-1.0625-0.46875v-9.0312l0.90625-0.375zm-74.5 0.25 0.28125 4.2812-6.75 2.75-0.25-4.1875 6.7188-2.8438zm43.469 0.125 0.4375 0.34375v3.6562l3.8438 2.875 0.09375-3.5 0.53125 0.40625 0.09375 4.375-4.9375-3.9062-0.0625-4.25zm-10.5 0.0625 6.1562 4.75v1.4062l-0.5 0.1875v0.78125l-5.6562-4.4062v-2.7188zm3.5625 0 6.2188 4.9375v2.4375l-6.2188-4.7812v-2.5938zm36.625 0.09375 0.09375 6.2812-1.2188-0.78125 0.03125-5.0312 1.0938-0.46875zm-41.687 0.0625-0.09375 5.4688-0.8125 0.4375 0.21875-5.5938 0.6875-0.3125zm12.75 0.34375 3.3438 2.5938-0.09375 3.25-3.3438-2.375 0.09375-3.4688zm-52.719 0.28125 0.9375 0.5-14.969 6.25v-0.90625l14.031-5.8438zm79.937 0.03125v2.1562l-2.5938 1.0938-2.0938 0.84375 0.03125-2.2188 4.6562-1.875zm-91 0.96875v2.6562l-3 1.1875-0.03125-2.625 3.0312-1.2188zm12.188 0.03125 0.3125 6.3125-7.0312 2.875c-0.28447-0.19694-0.44946-0.30588-0.8125-0.5625l-0.1875-0.34375c-0.40165-0.62214-0.81762-1.2028-1.7812-1.4688-0.055927 0.04581-0.1603 0.07874-0.25 0.09375-0.1175 0.005276-0.4142-0.06246-0.46875 0.09375-0.11334-0.056023-0.20614-0.12467-0.3125-0.1875l-0.59375-0.34375c-0.53076-0.13756-1.0024-0.20079-1.4062-0.1875-1.2117 0.039858-1.9529 0.68545-2.9062 1.3125-0.31429 0.27128-0.5975 0.54941-0.875 0.84375l-0.03125-1.5938 16.344-6.8438zm-35.563 0.25 17.094 12.75c-0.025618 0.35497-0.034586 0.71912 0 1.0938l-17.219-12.875 0.125-0.96875zm74.781 0.0625 6.7812 5.2812v0.25l-6.7812-4.9688v-0.5625zm34.5 0.75-0.03125 4.25-5.4375 2.1875-0.09375-4.1875 0.46875-0.1875v3.6875l4.4688-1.5625v-3.9375l0.625-0.25zm-81.719 0.1875v0.125l-7.1875 2.9688v-0.1875l7.1875-2.9062zm-12.906 0.0625 2.375 1.75v1.125l-2.375-1.7812v-1.0938zm99.719 0.0625-0.03125 2.6875-2.375 0.96875v-2.6562l2.4062-1zm-39.625 0.0625 6.8125 5.25 0.03125 2.6562-6.9062-5.5312 0.0625-2.375zm33.594 0 0.09375 3.625-4.0625 1.4062 0.09375-3.4688 3.875-1.5625zm-16.5 0.90625 1.5937 1.25-0.03125 2.0938-1.5625-1.2188v-2.125zm19.937 0.125v2.625l-9.4062 3.8438v-2.5312l0.8125-0.34375 0.0625 2.375 6.4062-2.6875 0.03125-2.4062 2.0938-0.875zm-68.437 0.09375 0.40625 0.5-0.46875 0.21875-6.7812 2.75-0.03125-0.53125 6.875-2.9375zm4.0625 0.5 1.625 1.25-13.562 5.5938-1.25-1.4688 13.188-5.375zm34.812 0 6.375 4.9375 0.03125 0.4375-5.5625-4.4688-0.84375 0.3125v-1.2188zm3.5938 0.15625 6.8125 5.4062-1.9688 0.78125-4.8438-3.75v-2.4375zm17.281 0.34375 0.0625 2.1562-4.375 1.8125-0.03125-2.1875 4.3438-1.7812zm-9.5625 0.09375 1.5938 1.25v2.125l-1.5938-1.2188v-2.1562zm21.438 0.46875 1.25 0.8125v0.90625l-1.25-0.9375v-0.78125zm-40.5 0.0625 7.125 5.625v1.4375l-8.1562-6.4375 1.0312-0.625zm39.875 0.0625v2.8125l-6.9062 2.7812 0.03125-2.6875 6.875-2.9062zm-65.125 0.3125v0.71875l-13.75 5.5312v-0.59375l13.75-5.6562zm34.031 0 6.4688 5.2188-0.90625 0.375-6.5625-5.1875 1-0.40625zm8.5938 0.3125 3.3125 2.5938v0.125l-2.3125 0.9375-3.75-2.9375 0.03125-0.59375 2.7188 2.0938v-2.2188zm-20.094 0.125 10.719 8.3438-1.875 1.3125-10.812-8.3438 1.9688-1.3125zm43.219 0.25 1.25 0.90625 0.03125 1-1.2812 0.53125v-2.4375zm-19.281 0.0625 0.8125 0.65625v2.25c-0.10753-0.30704-0.37835-0.54954-0.8125-0.65625v-2.25zm2.375 0.3125 0.21875 10.375-1.0625 0.4375-0.03125-10.469 0.875-0.34375zm-15.875 0.15625 6 4.625-3.0312 1.2188c-0.93881 0.72268-1.1423 1.8108 0.40625 2.1875l0.40625-0.1875v1.0625l-3.6875-2.9062-0.09375-6zm20 0.6875v2.5625l-3.375 1.375-0.03125-2.5 3.4062-1.4375zm-32.75 0.0625 10.781 8.2188 0.0625 1.0312-10.75-8.1562-0.09375-1.0938zm-45.219 0.40625c0.25048 0.12518 0.53665 0.28016 0.78125 0.40625-0.19614 0.089806-0.40377 0.18502-0.59375 0.28125-0.34491-0.20233-0.69091-0.42472-1.0312-0.625 0.27741-0.028005 0.56083-0.05134 0.84375-0.0625zm-1.0312 0.0625c0.38018 0.21708 0.75329 0.43616 1.125 0.65625-0.38384 0.19794-0.76839 0.43052-1.125 0.65625-0.51143-0.32064-0.98641-0.6494-1.5-0.96875 0.46825-0.16601 0.96621-0.27954 1.5-0.34375zm3.0625 0.1875c0.58112 0.268 1.589 0.85346 1.1562 1.125-5.4009 2.1239-6.2893 5.2149-7.6562 9.2188-0.54494-0.31206-1.2169-0.58047-1.4688-1.375 1.0271-3.581 2.2088-7.1298 7.9688-8.9688zm81.031 0.03125v2.7188l-8.4062 3.4062-0.0625-2.5625 8.4688-3.5625zm7.0625 0v0.71875l-2.0312 0.8125v-0.6875l2.0312-0.84375zm-92.781 0.1875c0.51015 0.32361 1.0223 0.64375 1.5312 0.96875-0.41458 0.26733-0.81381 0.53578-1.1875 0.84375-0.53337-0.34832-1.0859-0.68434-1.625-1.0312 0.35152-0.35515 0.793-0.59453 1.2812-0.78125zm94.844 0.0625 1.0938 0.5625-18.594 7.7188-0.03125-1.1562 17.531-7.125zm-21.062 0.53125c0.57059-0.10564 1.541 0.54558 0.28125 1.125l-10 4.25c-1.0525-0.33333-0.38832-0.91667-0.40625-1.25 0.21307 0.030806 0.74197 0.059803 0.6875 0.90625 0.29436-0.39503 0.70676-0.70302-0.0625-1.25l9.5-3.7812zm23.281 0 0.09375 6.3438-21.469 8.6875-0.03125-5.9375 21.406-9.0938zm-29.875 0.125 1.75 1.3438-0.375 0.15625-1.3438-1.0625-0.03125-0.4375zm23.375 0.03125v0.6875l-9.5938 3.875 0.03125-0.5625 9.5625-4zm-91.937 0.09375c0.53505 0.35084 1.0944 0.70993 1.625 1.0625-0.35766 0.3015-0.68419 0.62667-1 0.96875l-1.5-1.0312c0.28728-0.33866 0.56294-0.68887 0.875-1zm13.656 0.40625 1.3438 1.4062-0.0625 0.9375-1.3125-1.3125 0.03125-1.0312zm-6.3438 0.0625c1.3171 0.72968 2.6398 1.4865 3.625 2.5-0.22947 0.10659-0.46201 0.22971-0.6875 0.34375-1.3512-1.0074-2.5462-1.8034-3.7188-2.5312 0.257-0.099175 0.50361-0.22511 0.78125-0.3125zm69 0.0625v7.4688l-0.875-0.6875 0.03125-5.9688 0.0625-0.03125c0.44668-0.1733 0.68494-0.47128 0.78125-0.78125zm-69.937 0.28125c1.3096 0.83392 2.569 1.6796 3.75 2.5625-0.3915 0.20136-0.7511 0.42896-1.125 0.65625-1.2249-0.88862-2.5493-1.7388-3.875-2.5938 0.4008-0.22019 0.78404-0.43982 1.25-0.625zm-7.3125 0.25 1.4688 1.0312c-0.27183 0.30025-0.5123 0.63602-0.75 0.96875l-1.4688-1.0312c0.21724-0.33606 0.49066-0.65776 0.75-0.96875zm5.9375 0.4375c1.305 0.85825 2.5998 1.7233 3.8438 2.625-0.42201 0.26347-0.86049 0.54084-1.25 0.84375-1.2422-0.88769-2.5358-1.7533-3.8438-2.625 0.37676-0.29677 0.7941-0.58533 1.25-0.84375zm69.969 0.03125v0.59375l-0.53125-0.40625 0.53125-0.1875zm-0.71875 0.25 0.71875 0.5625 0.03125 2.3125-0.90625-0.6875v-2.125l0.15625-0.0625zm-0.59375 0.25 0.0625 4.1562-7.3125 2.875-0.0625-3.9062 7.3125-3.125zm-75.375 0.09375 1.4375 1c-0.23992 0.34292-0.45442 0.71515-0.65625 1.0938-0.45486-0.33091-0.89245-0.6698-1.3438-1 0.1519-0.37587 0.34428-0.7465 0.5625-1.0938zm5.375 0.3125c1.2873 0.86701 2.5756 1.741 3.8125 2.625-0.37414 0.29861-0.72836 0.62731-1.0625 0.96875l-3.8125-2.625c0.30931-0.34487 0.67635-0.6556 1.0625-0.96875zm68.844 0.65625-0.625 1.4062-0.78125-1.3125 0.53125 1.5938 0.25 0.625-0.21875 1.0938 0.375 0.125 0.03125-1.0312 0.65625-0.4375 0.875-1.4688-1.2187 1.0312 0.125-1.625zm-60.781 0.03125c0.49891 0.099515 1.0698 0.70573 1.1562 1.0312-3.3111 1.2766-6.8229 3.6085-7.4062 9.0625-0.23552 0.33505-0.96119 0.36423-1.5-0.5625-0.05706-1.0529 0.094865-2.0071 0.40625-2.9062 0.010082 0.006825 0.021162 0.02441 0.03125 0.03125l0.03125-0.125c1.2243-3.3857 4.6439-5.6512 7.2812-6.5312zm-14.062 0.1875c0.45164 0.33036 0.89099 0.66957 1.3438 1-0.19441 0.3735-0.34442 0.74694-0.5 1.1562-0.38631-0.27838-0.77007-0.53562-1.1562-0.8125 0.049548-0.46626 0.14863-0.91691 0.3125-1.3438zm4.9062 0.1875 3.75 2.625c-0.27209 0.2849-0.51075 0.5888-0.75 0.90625l-3.75-2.5625c0.21922-0.33151 0.47547-0.65521 0.75-0.96875zm79.625 0.5v0.53125l-3.5 1.4062v-0.46875l3.5-1.4688zm-8.0938 0.1875 0.90625 0.6875v0.59375l-0.90625-0.71875v-0.5625zm-72.344 0.375 3.75 2.5938c-0.25047 0.34173-0.54271 0.64906-0.75 1.0312-1.2344-0.83259-2.4369-1.6838-3.625-2.5312 0.17895-0.38068 0.38739-0.72535 0.625-1.0938zm-4.4062 0.1875c0.37602 0.27003 0.74946 0.54045 1.125 0.8125-0.13767 0.37217-0.30202 0.78485-0.40625 1.1875-0.1655-0.12422-0.33438-0.25192-0.5-0.375-0.07292-0.20721-0.11348-0.4337-0.21875-0.625-0.037534-0.33325-0.025787-0.6856 0-1zm15.438 0c0.36444 0.38795 0.75542 0.79459 1.0938 1.2188-0.10738-0.008386-0.2085 0.00172-0.3125 0-0.4277-0.37606-0.81362-0.72451-1.2188-1.0625 0.15514-0.051794 0.27468-0.10861 0.4375-0.15625zm-0.625 0.21875c0.40364 0.33018 0.83428 0.66292 1.2188 1-0.55136 0.011898-1.0719 0.10464-1.5312 0.28125-0.31004-0.26269-0.64421-0.49217-0.96875-0.75 0.39088-0.19275 0.82593-0.3717 1.2812-0.53125zm57.5 0.03125c-0.23623-0.001068-0.45065 0.19061-0.5625 0.6875l0.125 0.4375c0.4604-1.2005 1.5745 0.24002 0.4375 0.625l0.3125 0.3125c1.279-0.33284 0.3962-2.0593-0.3125-2.0625zm4.4375 0.25 0.90625 0.75v0.96875l-0.90625-0.71875v-1zm-11.594 0.125 0.21875 0.875-2.3438 1.625 0.0625-1.0938 2.0625-1.4062zm5.9375 0.03125c-1.2664 0.038832-1.9595 0.77465-1.5625 1.3125h0.0625c1.1434-0.083988 1.5453-0.84561 1.5625-1.25l-0.0625-0.0625zm0.15625 0c0.19232 0.83242-0.87251 1.5279-1.75 1.5l1.375 1.25c0.66479-0.21325 1.4145-0.39252 1.25-0.9375l-0.875-1.8125zm-57.844 0.1875c0.31621 0.24569 0.62896 0.4675 0.9375 0.71875-0.45354 0.19281-0.81649 0.49923-1.1875 0.8125-0.33442-0.25806-0.65838-0.52518-1-0.78125 0.37608-0.27591 0.79032-0.51374 1.25-0.75zm-9.6562 0.21875c1.1966 0.85746 2.3901 1.6963 3.625 2.5312-0.18955 0.36177-0.38477 0.72461-0.53125 1.125-0.002718 0.007403 0.002694 0.02382 0 0.03125-1.1993-0.81911-2.3844-1.6928-3.5625-2.5312 0.12644-0.3934 0.29096-0.76459 0.46875-1.1562zm12.531 0.5c0.046777-0.00258 0.26514 0.22028 0.3125 0.21875 0.083715 1.9693-0.51836 3.4172-1.5 4.5625-0.16361 0.19088-0.31659 0.38671-0.5 0.5625-0.18341 0.17578-0.39373 0.33885-0.59375 0.5-0.9298 0.74909-1.9997 1.361-3.125 1.9375-0.12233-0.13911-0.23681-0.31686-0.28125-0.5-0.009587-0.039513-0.36797-0.2711-0.375-0.3125-0.007579-0.044503 0.38006 0.10909 0.375 0.0625-0.095479-0.40066-0.006007-0.76079 0.03125-1.125 0.012347-0.050653-0.23193-0.26161-0.21875-0.3125 0.013178-0.050933 0.29881 0.08132 0.3125 0.03125 0.10753-0.39333 0.25413-0.78018 0.40625-1.1562 0.014918-0.036903-0.26536-0.21333-0.25-0.25 0.014327-0.034243 0.32905 0.06529 0.34375 0.03125 0.13633-0.3159 0.27028-0.61058 0.4375-0.90625 0.021485-0.038014-0.14699-0.24363-0.125-0.28125 0.020711-0.035451 0.22883 0.06632 0.25 0.03125 0.18002-0.29852 0.37274-0.58083 0.59375-0.84375 0.034549-0.041123-0.16047-0.24108-0.125-0.28125 0.041343-0.046842 0.3324 0.07678 0.375 0.03125 0.24834-0.26554 0.52137-0.50312 0.8125-0.71875 0.047258-0.035004-0.20464-0.27896-0.15625-0.3125 0.049698-0.034443 0.41786 0.15785 0.46875 0.125 0.31058-0.20052 0.61274-0.39545 0.96875-0.53125 0.062029-0.023651-0.12593-0.32224-0.0625-0.34375 0.068397-0.023211 0.39871 0.23939 0.46875 0.21875 0.37504-0.11062 0.79644-0.18743 1.2188-0.21875 0.039451-0.002932-0.10238-0.21658-0.0625-0.21875zm-4.2812 0.125c0.3427 0.25378 0.69203 0.5269 1.0312 0.78125-0.32018 0.28625-0.64245 0.59211-0.90625 0.9375l-1.125-0.8125c0.30087-0.32183 0.62084-0.61703 1-0.90625zm4.9688 0.09375c0.090178 0.001996 0.18911-0.00569 0.28125 0 0.14859 0.29396 0.2629 0.59755 0.34375 0.875l-0.65625-0.46875c0.005679-0.13295 0.027784-0.26866 0.03125-0.40625zm-16.625 0.03125c0.12074 0.089345 0.22416 0.22134 0.34375 0.3125-0.18463-0.070507-0.26572-0.19393-0.34375-0.3125zm76.062 0 2.5625 2v6.1875l-7.8125-6.1562 5.25-2.0312zm25.25 0.15625 0.1875 1.0938-22.469 8.8438-9.7812-7.4688 1.0312-0.40625 8.6562 6.8125 22.375-8.875zm-98.406 0.40625c1.177 0.83948 2.3617 1.6514 3.5625 2.4688-0.14314 0.40873-0.24978 0.8612-0.34375 1.3125-1.2013-0.81353-2.3978-1.6679-3.5625-2.5312 0.084718-0.41908 0.21063-0.81871 0.34375-1.25zm13.688 0.03125 0.71875 0.4375c0.097625 0.40377 0.086774 0.78429 0.0625 1.1562l-0.84375-0.59375c0.040395-0.31792 0.043706-0.65241 0.0625-1zm-6 0.3125 1.125 0.8125c-0.238 0.32199-0.42872 0.62289-0.625 0.96875l-1.25-0.84375c0.21437-0.32161 0.4772-0.63592 0.75-0.9375zm7.0312 0c-0.053642 0.039209-0.10359 0.082984-0.15625 0.125-0.011429-0.009797-0.019853-0.021564-0.03125-0.03125-0.021987-0.07022 0.12939-0.061296 0.1875-0.09375zm0.34375 0.5c0.49892 0.099519 1.0698 0.70573 1.1562 1.0312-0.44737 0.17248-0.89869 0.37119-1.3438 0.59375 0.01367-0.07371 0.054357-0.14355 0.0625-0.21875 0.008074-0.074721-0.31718-0.33066-0.3125-0.40625 0.004918-0.079514 0.31147 0.01796 0.3125-0.0625 0.003634-0.28754 0.012673-0.57478-0.03125-0.875 0.052547-0.019462 0.10571-0.045634 0.15625-0.0625zm-17.594 0.40625c0.33379 0.3426 0.71511 0.7074 1.1562 1-0.074945 0.038604-0.14838 0.080459-0.21875 0.125-0.51143-0.32064-1.0177-0.6494-1.5312-0.96875 0.19082-0.067655 0.39287-0.10916 0.59375-0.15625zm16.125 0 0.875 0.625c-0.038995 0.30505-0.11502 0.58886-0.21875 0.875-0.28268-0.21078-0.56003-0.44472-0.84375-0.65625 0.069165-0.26863 0.14398-0.55317 0.1875-0.84375zm-13.969 0.125c1.1626 0.86482 2.3627 1.7176 3.5625 2.5312-0.055842 0.28685-0.12161 0.57024-0.15625 0.875-1.3069-0.86128-2.4845-1.8022-3.5312-2.8125 0.030338-0.19665 0.085783-0.3916 0.125-0.59375zm7.25 0.03125 1.25 0.84375c-0.19754 0.35708-0.40283 0.7073-0.5625 1.0625-0.44121-0.27943-0.84921-0.56134-1.2812-0.84375 0.16969-0.37025 0.36456-0.70648 0.59375-1.0625zm-10.094 0.03125c0.51015 0.32361 1.0223 0.64375 1.5312 0.96875-0.41458 0.26732-0.84506 0.56703-1.2188 0.875-0.53337-0.34832-1.0859-0.68434-1.625-1.0312 0.35152-0.35515 0.82425-0.62578 1.3125-0.8125zm-1.375 0.875c0.53505 0.35084 1.0631 0.70993 1.5938 1.0625-0.35766 0.3015-0.68419 0.59542-1 0.9375l-1.4688-1c0.28728-0.33866 0.56294-0.68887 0.875-1zm17.938 0 0.875 0.5625c-0.097988 0.24744-0.23996 0.48371-0.375 0.71875l-0.78125-0.46875c0.11783-0.2583 0.19978-0.53404 0.28125-0.8125zm-14.531 0.0625c0.19174 0.10831 0.37952 0.19754 0.59375 0.25 0.005412-0.047794 0.025289-0.10808 0.03125-0.15625 0.35419 0.30572 0.72432 0.60552 1.0938 0.90625-3.5724 2.0484-4.3955 4.7695-5.5625 8.1875-0.54494-0.31206-1.2169-0.58047-1.4688-1.375 0.84444-2.9443 1.8024-5.8496 5.3125-7.8125zm7.4062 0.21875c0.43054 0.2811 0.84191 0.5691 1.2812 0.84375-0.18549 0.42091-0.32718 0.81185-0.46875 1.1875-0.4349-0.27988-0.8823-0.55916-1.3125-0.84375 0.12236-0.40718 0.3219-0.78424 0.5-1.1875zm9.2812 0.09375c0.40364 0.33019 0.83428 0.66292 1.2188 1-0.55136 0.011897-1.0719 0.10464-1.5312 0.28125-0.19143-0.16219-0.39187-0.31739-0.59375-0.46875 0.031087-0.086233 0.065781-0.16283 0.09375-0.25 0.010023-0.031243-0.054853-0.087449-0.125-0.15625 0.074331-0.033357 0.1421-0.092671 0.21875-0.125 0.23665-0.099813 0.46544-0.19248 0.71875-0.28125zm-2.5 0.53125 0.78125 0.5c-0.12758 0.21068-0.28881 0.42298-0.4375 0.625l-0.65625-0.5c0.12973-0.19776 0.21139-0.41638 0.3125-0.625zm-18.531 0.15625 1.4688 1.0312c-0.27183 0.30026-0.5123 0.60477-0.75 0.9375l-1.4688-1c0.21724-0.33606 0.49066-0.65776 0.75-0.96875zm6.3438 0.21875c0.67848 0.54241 1.3714 1.0854 2.125 1.5938-0.00632 0.054397 0.00349 0.10377 0 0.15625-0.79814-0.54599-1.6119-1.0925-2.4375-1.625 0.096339-0.052933 0.2092-0.0796 0.3125-0.125zm13.75 0.03125c0.17108 0.13357 0.33778 0.27415 0.5 0.40625-0.35746 0.15197-0.66732 0.36114-0.96875 0.59375 0.093913-0.15956 0.16717-0.33666 0.25-0.5 0.024747-0.048833-0.21094-0.23197-0.1875-0.28125 0.025023-0.052633 0.32028 0.0219 0.34375-0.03125 0.027545-0.062363 0.037914-0.12413 0.0625-0.1875zm-14.188 0.1875c0.84965 0.55881 1.6998 1.1151 2.5312 1.6875-0.001401 0.021727 0.001722 0.04006 0 0.0625 0.4047 0.4973 0.77025 0.78961 1.1875 0.96875-0.37474 0.23845-0.74527 0.479-1.0938 0.75-1.2422-0.88768-2.5358-1.7846-3.8438-2.6562 0.37676-0.29677 0.76285-0.55408 1.2188-0.8125zm5.3125 0.125c0.4204 0.27741 0.85586 0.53947 1.2812 0.8125-0.049462 0.13254-0.11149 0.28386-0.15625 0.40625-0.037987 0.30065-0.031914 0.60043-0.03125 0.875-0.44879-0.26387-0.90378-0.53733-1.3438-0.8125 0.078619-0.41578 0.12718-0.85464 0.25-1.2812zm6.875 0.0625 0.6875 0.46875c-0.16506 0.21746-0.35201 0.41598-0.53125 0.625l-0.6875-0.5c0.18469-0.19961 0.38434-0.38453 0.53125-0.59375zm4.4062 0.03125c0.046776-0.002583 0.26514 0.18903 0.3125 0.1875 0.083713 1.9693-0.51836 3.4484-1.5 4.5938-0.1636 0.19088-0.31659 0.38671-0.5 0.5625-0.18342 0.17578-0.39373 0.3076-0.59375 0.46875-0.92979 0.74909-1.9997 1.361-3.125 1.9375-0.12233-0.13911-0.20556-0.31686-0.25-0.5-0.008766-0.036129-0.31384-0.2162-0.375-0.28125 0.057225-0.002919 0.34831 0.10443 0.34375 0.0625-0.095481-0.40066-0.006007-0.76079 0.03125-1.125 0.012345-0.050649-0.23193-0.29286-0.21875-0.34375 0.013177-0.050933 0.29881 0.08132 0.3125 0.03125 0.10754-0.39333 0.25413-0.78018 0.40625-1.1562 0.014916-0.036903-0.26536-0.18208-0.25-0.21875 0.014325-0.034243 0.32905 0.03404 0.34375 0 0.13632-0.3159 0.27028-0.61058 0.4375-0.90625 0.021487-0.038013-0.14699-0.21238-0.125-0.25 0.020709-0.035453 0.22883 0.06632 0.25 0.03125 0.18002-0.29852 0.37274-0.58083 0.59375-0.84375 0.025911-0.030843-0.055484-0.14364-0.09375-0.21875 0.019408-0.022433 0.043199-0.04003 0.0625-0.0625 0.1013 0.012867 0.2493 0.0654 0.28125 0.03125 0.24834-0.26554 0.52137-0.50312 0.8125-0.71875 0.047257-0.035003-0.20464-0.27896-0.15625-0.3125 0.049697-0.034443 0.41786 0.1266 0.46875 0.09375 0.31058-0.20052 0.61274-0.3642 0.96875-0.5 0.062031-0.023653-0.12593-0.35349-0.0625-0.375 0.0684-0.023213 0.39871 0.27064 0.46875 0.25 0.37504-0.11062 0.79644-0.21868 1.2188-0.25 0.039449-0.002933-0.10238-0.18533-0.0625-0.1875zm0.71875 0.21875c0.090176 0.001997 0.15786-0.00569 0.25 0 0.14859 0.29396 0.2629 0.59755 0.34375 0.875l-0.625-0.5c0.005681-0.13295 0.027784-0.23741 0.03125-0.375zm-24.031 0.1875 1.4688 1c-0.23992 0.34293-0.48566 0.6839-0.6875 1.0625-0.45486-0.33091-0.89245-0.6698-1.3438-1 0.1519-0.37586 0.34428-0.71525 0.5625-1.0625zm19.969 0.1875c0.032401-0.049263 0.33686 0.08814 0.40625 0.0625-0.057828 0.045867-0.13088 0.07719-0.1875 0.125-0.071778-0.055393-0.1495-0.10019-0.21875-0.15625-0.005039-0.004083 0.005058-0.02718 0-0.03125zm-14.562 0.09375c1.2873 0.86701 2.5443 1.7722 3.7812 2.6562-0.37414 0.29861-0.69711 0.59606-1.0312 0.9375l-3.8125-2.5938c0.30931-0.34487 0.67635-0.68685 1.0625-1zm12.844 0 0.6875 0.5c-0.16398 0.18817-0.30184 0.37983-0.46875 0.5625-0.013169 0.012037-0.017989 0.05053-0.03125 0.0625l-0.78125-0.625c0.20374-0.16889 0.42308-0.32584 0.59375-0.5zm5.7188 0.125 0.71875 0.46875c0.097623 0.40377 0.11802 0.78429 0.09375 1.1562l-0.875-0.625c0.040393-0.31791 0.043706-0.65241 0.0625-1zm-12.219 0.5c0.45201 0.28082 0.91346 0.5765 1.375 0.84375 0.010913 0.25431 0.046378 0.4944 0.125 0.71875-0.57418-0.25345-1.0996-0.53867-1.625-0.8125 0.034482-0.24359 0.079425-0.49759 0.125-0.75zm5.7812 0 0.8125 0.59375c-0.21039 0.18274-0.41924 0.3408-0.65625 0.5l-0.75-0.65625c0.21184-0.14334 0.4094-0.29159 0.59375-0.4375zm1.875 0.09375c0.007765-0.009383 0.060376-0.00788 0.09375 0-0.019975 0.021027-0.042847 0.04118-0.0625 0.0625-0.010837-0.019523-0.037684-0.05474-0.03125-0.0625zm-20 0.15625c0.45164 0.33036 0.89099 0.66957 1.3438 1-0.19441 0.3735-0.34442 0.77819-0.5 1.1875-0.38631-0.27838-0.77007-0.56687-1.1562-0.84375 0.049548-0.46626 0.14863-0.91691 0.3125-1.3438zm4.875 0.21875 3.7812 2.5938c-0.27209 0.28491-0.542 0.62005-0.78125 0.9375l-3.75-2.5938c0.21923-0.33151 0.47547-0.62396 0.75-0.9375zm12.438 0.09375 0.8125 0.625c-0.27099 0.17239-0.56576 0.29929-0.875 0.4375l-0.75-0.53125c0.30821-0.16977 0.54763-0.36002 0.8125-0.53125zm7.1562 0.1875 0.875 0.59375c-0.038993 0.30505-0.11502 0.58885-0.21875 0.875-0.28268-0.21078-0.56003-0.41347-0.84375-0.625 0.069164-0.26862 0.14398-0.55317 0.1875-0.84375zm-5.1562 0.0625c0.027071-0.026673 0.12456-0.00208 0.21875 0.03125-0.051729 0.077107-0.076506 0.17162-0.125 0.25-0.043529-0.10741-0.13019-0.24536-0.09375-0.28125zm-2.9688 0.375 0.78125 0.5c-0.2816 0.11878-0.59021 0.22472-0.90625 0.3125l-0.59375-0.4375c0.24791-0.12105 0.49445-0.25418 0.71875-0.375zm-4.1875 0.03125c0.41532 0.24039 0.82044 0.48624 1.25 0.71875-2.692 1.4149-5.1472 3.7825-5.625 8.25-0.23552 0.33505-0.92994 0.36423-1.4688-0.5625-0.05706-1.0529 0.094865-2.0071 0.40625-2.9062 0.010082 0.006831 0.021162-0.00684 0.03125 0v-0.09375c0.84575-2.3388 2.7548-4.1315 4.7188-5.3125 0.19146 0.046897 0.4013 0.10146 0.625 0.125 0.008291-0.073313 0.052892-0.14454 0.0625-0.21875zm7.0312 0.1875c-0.041911 0.072617-0.083098 0.14491-0.125 0.21875l-0.0625-0.03125c0.069316-0.058643 0.12043-0.12756 0.1875-0.1875zm-15.094 0.09375 3.7188 2.5938c-0.25047 0.34173-0.51146 0.68031-0.71875 1.0625-1.2344-0.83259-2.4682-1.6838-3.6562-2.5312 0.17895-0.38067 0.41864-0.7566 0.65625-1.125zm14.562 0.0625c0.015183-0.012803 0.05834 0.02066 0.09375 0.03125l0.25 0.15625c-0.19754 0.35709-0.37158 0.7073-0.53125 1.0625-0.23523-0.14898-0.45538-0.31715-0.6875-0.46875-0.025348-0.074163-0.10086-0.19806-0.0625-0.21875 0.057185-0.030843 0.35074 0.12601 0.40625 0.09375 0.37331 0.28939 0.38644-0.18049 0.5625-0.34375 0.04423-0.038163-0.076407-0.27447-0.03125-0.3125zm-3.125 0.0625 0.53125 0.4375c-0.087468 0.022367-0.19108 0.04258-0.28125 0.0625-0.37444-0.054813-0.62856-0.11205-0.84375-0.21875 0.2141-0.096263 0.39514-0.18556 0.59375-0.28125zm-15.875 0.09375c0.37602 0.27003 0.74946 0.54045 1.125 0.8125-0.13768 0.37217-0.27077 0.7536-0.375 1.1562-0.1655-0.12422-0.33438-0.22067-0.5-0.34375-0.072921-0.2072-0.14473-0.46495-0.25-0.65625-0.037534-0.33325-0.025787-0.65435 0-0.96875zm24.562 0.09375 0.875 0.5625c-0.097989 0.24744-0.23996 0.48371-0.375 0.71875l-0.78125-0.5c0.11783-0.2583 0.19978-0.50279 0.28125-0.78125zm-10.344 0.375c0.28299 0.14799 0.58168 0.29571 0.875 0.4375 0.13003 0.084337 0.55076 0.19505 0.875 0.3125-0.52496 0.017557-0.99624 0.1116-1.4375 0.28125-0.31004-0.26269-0.64421-0.49217-0.96875-0.75 0.20119-0.099213 0.43334-0.18804 0.65625-0.28125zm3.8125 0.25c0.24106 0.15534 0.47714 0.31771 0.71875 0.46875-0.18549 0.42091-0.35843 0.8431-0.5 1.2188-0.14744-0.094883-0.2924-0.18739-0.4375-0.28125-0.087591-0.24316-0.17624-0.49502-0.3125-0.75-0.078852-0.090923-0.22089-0.18803-0.3125-0.28125 0.007959-0.017343-0.02406-0.04117-0.03125-0.0625 0.021132-0.052083 0.040442-0.10426 0.0625-0.15625 0.10391 0.053707 0.19444 0.10266 0.21875 0.09375 0.20506-0.075153 0.40429-0.16172 0.59375-0.25zm-4.625 0.125c0.31621 0.24569 0.66021 0.4675 0.96875 0.71875-0.45354 0.19282-0.81649 0.46798-1.1875 0.78125-0.33442-0.25805-0.68963-0.49393-1.0312-0.75 0.37608-0.27591 0.79032-0.51374 1.25-0.75zm10.812 0.15625 0.78125 0.5c-0.12758 0.21068-0.28881 0.42298-0.4375 0.625l-0.65625-0.5c0.12973-0.19776 0.21139-0.41638 0.3125-0.625zm-20.469 0.03125c1.1966 0.85747 2.4214 1.6963 3.6562 2.5312-0.18955 0.36178-0.38477 0.75586-0.53125 1.1562-0.002718 0.007411-0.028556-0.00743-0.03125 0-1.1993-0.81911-2.3844-1.6615-3.5625-2.5 0.12644-0.3934 0.29096-0.79584 0.46875-1.1875zm12.562 0.53125c0.046777-0.002583 0.26514 0.18903 0.3125 0.1875 0.083714 1.9693-0.51836 3.4484-1.5 4.5938-0.16361 0.19088-0.31659 0.38671-0.5 0.5625-0.18341 0.17578-0.39373 0.33885-0.59375 0.5-0.9298 0.74909-1.9997 1.3297-3.125 1.9062-0.12233-0.13911-0.23681-0.31686-0.28125-0.5-0.009583-0.03951-0.39922-0.2711-0.40625-0.3125-0.00758-0.0445 0.38006 0.14034 0.375 0.09375-0.095478-0.40066 0.025243-0.76079 0.0625-1.125 0.012348-0.05065-0.26318-0.29286-0.25-0.34375 0.01318-0.050929 0.33006 0.11257 0.34375 0.0625 0.10754-0.39333 0.22288-0.81143 0.375-1.1875 0.01492-0.036899-0.23411-0.18208-0.21875-0.21875 0.014329-0.034239 0.32905 0.06529 0.34375 0.03125 0.13633-0.3159 0.27028-0.64183 0.4375-0.9375 0.021488-0.038009-0.17824-0.21238-0.15625-0.25 0.020713-0.035449 0.26008 0.06632 0.28125 0.03125 0.18002-0.29852 0.37274-0.58083 0.59375-0.84375 0.034549-0.041119-0.19172-0.24108-0.15625-0.28125 0.041344-0.046839 0.36365 0.07678 0.40625 0.03125 0.24834-0.26554 0.52137-0.50312 0.8125-0.71875 0.047258-0.034999-0.20464-0.27896-0.15625-0.3125 0.049698-0.034443 0.38661 0.1266 0.4375 0.09375 0.31058-0.20052 0.61274-0.3642 0.96875-0.5 0.062029-0.023653-0.094677-0.35349-0.03125-0.375 0.068401-0.023213 0.39871 0.27064 0.46875 0.25 0.37504-0.11062 0.76519-0.18743 1.1875-0.21875 0.03945-0.002933-0.071126-0.21658-0.03125-0.21875zm-4.2812 0.125c0.3427 0.25378 0.66078 0.49565 1 0.75-0.32018 0.28625-0.6112 0.62336-0.875 0.96875l-1.1562-0.8125c0.30087-0.32183 0.65208-0.61703 1.0312-0.90625zm11.75 0.0625 0.6875 0.5c-0.16507 0.21746-0.35201 0.41598-0.53125 0.625l-0.6875-0.5c0.1847-0.19961 0.38434-0.41578 0.53125-0.625zm-6.7812 0.03125c0.022543 4.97e-4 0.042034 3.5e-4 0.0625 0 0.094984 0.062047 0.18691 0.12698 0.28125 0.1875 0.1135 0.23292 0.21773 0.4695 0.28125 0.6875l-0.65625-0.5c0.005678-0.13295 0.027784-0.23741 0.03125-0.375zm-16.656 0.03125c0.12699 0.093967 0.24856 0.1859 0.375 0.28125-0.001988 0.007967 0.001968 0.02327 0 0.03125-0.18463-0.070503-0.29697-0.19393-0.375-0.3125zm17.531 0.5c0.10236 0.065067 0.20856 0.12079 0.3125 0.1875-0.04946 0.13254-0.08024 0.28386-0.125 0.40625-0.005401 0.042731 0.004844 0.08237 0 0.125-0.097032-0.080199-0.23598-0.17398-0.25-0.21875-0.029316-0.093619 0.2145-0.06159 0.1875-0.15625-0.033044-0.11583-0.086879-0.22756-0.125-0.34375zm-14.625 0.03125c1.177 0.83949 2.393 1.6827 3.5938 2.5-0.14314 0.40874-0.28102 0.82995-0.375 1.2812-1.2013-0.81353-2.3978-1.6366-3.5625-2.5 0.084717-0.41908 0.21063-0.84996 0.34375-1.2812zm13.719 0.03125 0.71875 0.46875c0.065083 0.26918 0.065676 0.52838 0.0625 0.78125-0.28222-0.16558-0.56651-0.33028-0.84375-0.5 0.027605-0.24427 0.048418-0.48956 0.0625-0.75zm6.1562 0.125 0.6875 0.46875c-0.16398 0.18817-0.30184 0.41108-0.46875 0.59375-0.013167 0.012041-0.017989 0.01928-0.03125 0.03125l-0.78125-0.59375c0.20375-0.16889 0.42308-0.32584 0.59375-0.5zm-12.188 0.21875 1.1562 0.78125c-0.238 0.32199-0.45997 0.65414-0.65625 1l-1.2188-0.84375c0.21437-0.3216 0.44595-0.63592 0.71875-0.9375zm11.469 0.40625 0.8125 0.5625c-0.21039 0.18274-0.41924 0.37205-0.65625 0.53125l-0.75-0.65625c0.21185-0.14334 0.4094-0.29159 0.59375-0.4375zm-5.5312 0.15625c0.28656 0.17476 0.58266 0.33395 0.875 0.5-0.003008 0.073081 0.00472 0.14642 0 0.21875l-0.875-0.625c0.003752-0.029539-0.003645-0.06392 0-0.09375zm-0.03125 0.34375 0.875 0.59375c-0.009001 0.070401-0.018422 0.14777-0.03125 0.21875-0.31681-0.14301-0.63404-0.2842-0.9375-0.4375 0.028662-0.12661 0.074293-0.24509 0.09375-0.375zm4.75 0.0625 0.84375 0.59375c-0.27098 0.17239-0.59701 0.33054-0.90625 0.46875l-0.75-0.53125c0.30821-0.16977 0.54763-0.36002 0.8125-0.53125zm-18.688 0.0625c1.1626 0.86482 2.3314 1.7176 3.5312 2.5312-0.055842 0.28685-0.090359 0.53899-0.125 0.84375-1.3069-0.86128-2.4845-1.771-3.5312-2.7812 0.030337-0.19665 0.085783-0.3916 0.125-0.59375zm7.25 0 1.2188 0.875c-0.19754 0.35709-0.37158 0.7073-0.53125 1.0625-0.44121-0.27943-0.88046-0.56134-1.3125-0.84375 0.1697-0.37025 0.39581-0.73773 0.625-1.0938zm7.8125 0.40625c0.020611-2.59e-4 0.035963 0.02738 0.0625 0.03125 0.008941 0.074361 0.016097 0.14715 0.03125 0.21875-0.071909-0.090589-0.15859-0.18095-0.15625-0.21875 0.001228-0.019879 0.033053-0.03088 0.0625-0.03125zm2.6562 0.15625 0.78125 0.5c-0.2816 0.11878-0.59021 0.22472-0.90625 0.3125l-0.59375-0.4375c0.24791-0.12105 0.49445-0.25418 0.71875-0.375zm-3.9688 0.15625c0.28655 0.1635 0.58082 0.34188 0.875 0.5-0.016369 0.051501-0.013145 0.10631-0.03125 0.15625-0.28268-0.21078-0.56003-0.44472-0.84375-0.65625zm-0.03125 0.21875 0.84375 0.5625c-0.097988 0.24744-0.20871 0.48371-0.34375 0.71875l-0.8125-0.5c0.11783-0.2583 0.23103-0.50279 0.3125-0.78125zm3.1875 0.03125 0.53125 0.4375c-0.087465 0.022371-0.19108 0.04258-0.28125 0.0625-0.37444-0.054809-0.62856-0.11205-0.84375-0.21875 0.2141-0.096259 0.39514-0.18556 0.59375-0.28125zm-10.344 0.25c0.43054 0.2811 0.87316 0.53785 1.3125 0.8125-0.18549 0.42091-0.32718 0.8431-0.46875 1.2188-0.43489-0.27988-0.8823-0.55916-1.3125-0.84375 0.12237-0.40718 0.29065-0.78424 0.46875-1.1875zm6.7812 0.625 0.78125 0.5c-0.12758 0.21068-0.25756 0.42298-0.40625 0.625l-0.6875-0.5c0.12973-0.19776 0.21139-0.41638 0.3125-0.625zm-7.2812 0.6875c0.4204 0.27741 0.85586 0.57072 1.2812 0.84375-0.049458 0.13254-0.11149 0.25261-0.15625 0.375-0.037986 0.30065-0.063164 0.60043-0.0625 0.875-0.44879-0.26387-0.87253-0.50608-1.3125-0.78125 0.078621-0.41578 0.12718-0.88589 0.25-1.3125zm6.8438 0.0625 0.6875 0.5c-0.16506 0.21746-0.35201 0.41598-0.53125 0.625l-0.65625-0.5c0.18469-0.19961 0.35309-0.41578 0.5-0.625zm-0.625 0.75 0.6875 0.46875c-0.16398 0.18817-0.30184 0.41108-0.46875 0.59375-0.01317 0.01204-0.017989 0.01928-0.03125 0.03125l-0.78125-0.59375c0.20374-0.16889 0.42308-0.32584 0.59375-0.5zm-6.5 0.625c0.45202 0.28082 0.88221 0.54525 1.3438 0.8125 0.010915 0.25431 0.077628 0.52565 0.15625 0.75-0.57418-0.25345-1.1308-0.53867-1.6562-0.8125 0.034483-0.24359 0.11068-0.49759 0.15625-0.75zm5.7812 0 0.8125 0.5625c-0.21039 0.18274-0.41924 0.37205-0.65625 0.53125l-0.75-0.65625c0.21184-0.14334 0.4094-0.29159 0.59375-0.4375zm-0.8125 0.5625 0.8125 0.59375c-0.27099 0.17239-0.59701 0.33054-0.90625 0.46875l-0.75-0.53125c0.30821-0.16977 0.57888-0.36002 0.84375-0.53125zm-0.96875 0.625 0.75 0.5c-0.2816 0.11878-0.59021 0.22472-0.90625 0.3125l-0.5625-0.4375c0.24791-0.12105 0.49445-0.25418 0.71875-0.375zm-0.84375 0.40625 0.53125 0.4375c-0.087464 0.02237-0.15983 0.04258-0.25 0.0625-0.37444-0.05481-0.65981-0.0808-0.875-0.1875 0.2141-0.09626 0.39514-0.21681 0.59375-0.3125z" fill-rule="evenodd"/>
 </g>
</svg>
