<?xml version="1.0" encoding="UTF-8"?>
<!DOCTYPE svg  PUBLIC '-//W3C//DTD SVG 1.0//EN'  'http://www.w3.org/TR/2001/REC-SVG-20010904/DTD/svg10.dtd'>
<!-- Created with Sodipodi ("http://www.sodipodi.com/") -->
<svg id="svg32" width="437.5" height="437.5" version="1.0" xmlns="http://www.w3.org/2000/svg" xmlns:xlink="http://www.w3.org/1999/xlink">
 <defs id="defs34">
  <linearGradient id="linearGradient129">
   <stop id="stop130" stop-color="#020" offset="0"/>
   <stop id="stop131" stop-color="#00b700" offset="1"/>
  </linearGradient>
  <linearGradient id="linearGradient132" y2="1" xlink:href="#linearGradient129"/>
  <linearGradient id="linearGradient142" x1="1.006" x2=".025833" y1=".028571" y2="1.0229" xlink:href="#linearGradient129"/>
 </defs>
 <path id="path19" d="m64.59 285.36c2.765 18.125-38.461 38.175-40.627 45.733 15.308 12.824-24.446 32.366-17.037 38.111 5.2604 5.3542 83.471 42.02 96.325 43.446 78.711 17.66 242.05 5.0378 271.94-11.433 35.815-23.45 53.926-25.993 59.627-37.348-3.375-9.4161-35.034-26.985-28.175-34.3-5.715-8.3087-18.553-12.022-13.106-29.727-17.264-5.7381 24.149-18.33-2.621-15.244-4.616-1.3424 28.255-31.252 20.313-35.824-42.088-32.863-285.47-36.585-328.94-9.1452-6.202 14.346-10.446 42.922-17.692 45.731z" fill="#c2aa44" fill-rule="evenodd"/>
 <path id="path20" d="m83.958 240.16c6.1136 25.522-60.366 105.8-48.895 116.93 206.88 43.005 166.62 22.496 324.04 19.622 8.3221-12.111 39.875-120.78 43.084-137.12-49.904-21.517-212.97-15.393-318.23 0.5687z" fill-opacity=".2266" fill-rule="evenodd"/>
 <path id="path30" d="m210.2 35.215c12.121-5.2879 20.666 10.316 56.362-7.9763-46.121 44.501-35.882 123.41-43.576 215.06-22.218 11.658-124.9 70.651-185.78 92.472 63.718-124.01 123.8-224.85 172.99-299.55z" fill="url(#linearGradient142)" fill-rule="evenodd" stroke-linejoin="round" stroke-width="10.785"/>
 <path id="path58" d="m170.68 262.19c41.21-71.438 49.787-176.18 80.341-212.15" fill="none" stroke="#7f3300" stroke-linecap="round" stroke-width="12.5"/>
 <path id="path57" d="m124.52 288.52c51.798-93.495 89.528-214.43 103.15-246.06" fill="none" stroke="#7f3300" stroke-linecap="round" stroke-width="12.5"/>
 <path id="path56" d="m78.438 310.32c7.081-12.366 94.855-201.38 143.5-272.31" fill="none" stroke="#7f3200" stroke-linecap="round" stroke-width="12.5"/>
 <path id="path54" d="m172.2 107.62c22.518-9.24 43.478-32.617 66.398-39.866" fill="none" stroke="#6c3400" stroke-width="4.9363"/>
 <path id="path52" d="m147.35 141.92c23.253-8.5415 65.387-33.23 89.039-39.88" fill="none" stroke="#643900" stroke-linecap="round" stroke-width="4.8777"/>
 <path id="path55" d="m196.45 63.408c21.016-6.3053 51.458-25.369 58.315-29.719" fill="none" stroke="#6b1b00" stroke-width="4.9363"/>
 <path id="path650" d="m212.12 33.301c12.121-5.2879 20.666 10.316 56.362-7.9763-46.121 44.501-35.882 123.41-43.576 215.06-22.218 11.658-124.9 70.651-185.78 92.472 63.718-124.01 123.8-224.85 172.99-299.55z" fill="none" stroke="#000" stroke-linejoin="round" stroke-width="11.25"/>
 <path id="path101" d="m270.49 24.652c21.91 40.407 83.356 131.45 123.75 217.64-22.218 11.658-113.17-13.941-163.49-3.036 1.552-125.38 21.449-183.02 39.738-214.61z" fill="url(#linearGradient142)" fill-rule="evenodd" stroke="#000" stroke-linejoin="round" stroke-width="11.25"/>
 <path id="path49" d="m87.669 253.21c31.723-9.679 98.786-46.447 131.07-54.04" fill="#7f7f7f" fill-rule="evenodd" stroke="#5b2900" stroke-linecap="round" stroke-width="5.9966"/>
 <path id="path51" d="m114.53 207.48c28.527-8.5888 101.52-42.743 110.83-48.668" fill="none" stroke="#6f3400" stroke-width="6.7123"/>
 <path id="path60" d="m221.85 300.09c3.621-1.7403 22.458-13.646 22.458-7.5091 4.93 17.323 44.109 30.009-10.407 48.612-18.075 0-7.1217-10.589-22.458-10.001 24.101-13.904 16.485-28.205 10.407-31.102z" fill-opacity=".34615" fill-rule="evenodd" stroke-width="5"/>
 <path id="path53" d="m133.54 172.41c23.169-7.7544 88.4-40.751 95.96-46.1" fill="none" stroke="#722300" stroke-width="5.7478"/>
 <path id="path25" d="m224.72 38.452c1.444-6.3567 26.91-25.778 26.91-3.3642-19.003 79.139 26.1 209.11 4.3601 277.07-4.15-1.9142-15.885 6.9449-20.087 1.4342-15.273-29.732-8.7589-264.55-11.183-275.14z" fill="#710000" fill-rule="evenodd" stroke="#000" stroke-width="5"/>
 <path id="path31" d="m218.32 30.819c22.049-8.9034 30.962-9.9259 50.714-11.414 26.15 31.899 111.01 191.32 126.92 226.78 2.259 29.508-14.966 76.861-32.415 104.58-19.441-36.228-136.22-296.65-145.22-319.95z" fill="url(#linearGradient132)" fill-rule="evenodd" stroke="#000" stroke-linejoin="round" stroke-width="11.25"/>
 <path id="path40" d="m237.8 46.305c1.326 0.705 9.8841 0.32643 9.8841-4.4598 2.016-3.2185 3.8674-3.1716 7.2434 0.42138 6.9279 0 4.5864-5.0457 8.4048-9.1096 0.7843 0 5.0677 3.573 6.5885 4.3822" fill="none" stroke="#00a400" stroke-linecap="round" stroke-width="6.4833"/>
 <path id="path32" d="m250.98 81.367c0.9364-2.3249 3.3748-14.818 6.5886-11.396 1.326 0.70496 5.9526 1.8514 5.9526-2.9349 2.016-3.2185 7.7989-7.7466 11.175-4.1535 6.9279 0 4.5864-1.9958 8.4048-6.0597 0.7843 0 2.1964 4.53 3.7172 5.3393" fill="none" stroke="#00a400" stroke-linecap="round" stroke-width="6.4833"/>
 <path id="path33" d="m262.51 110.84c0.9364-2.2185 3.3748-14.14 6.5886-10.874 1.326 0.67263 9.8841 5.4033 9.8841 0.83613 2.016-3.0712 1.2468-8.2231 4.6228-4.7944 6.9279 0 6.5521-10.808 10.37-14.686 0.7843 0 7.6368 7.5929 9.1576 8.3653" fill="none" stroke="#00a400" stroke-linecap="round" stroke-width="6.3332"/>
 <path id="path41" d="m275.08 138.11c0-0.443 3.619-11.192 4.2264-11.914 0.7869-2.1812 4.1472-8.5668 6.8482-5.3565 1.1145 0.6614 8.3071 5.3126 8.3071 0.822 1.6943-3.0195 1.3891-14.222 4.2264-10.851 5.8225 0 8.5871 1.5061 11.796-2.3068 0.6592 0 4.2591-1.4332 5.5372 4.1115" fill="none" stroke="#00a400" stroke-linecap="round" stroke-width="5.7571"/>
 <path id="path42" d="m287.94 165.84c0.7296-2.1136 0.3516-19.378 2.8557-16.268 1.0332 0.641 7.7016 5.1475 7.7016 0.7966 1.571-2.9258 4.7812-1.9626 7.4118 1.3034 5.3982 0 1.8059-10.358 4.7812-14.052 0.6111 0 3.9487 3.2478 5.1337 3.9837 3.2191 0 6.4177-0.5352 6.4177-5.5767 2.5982 1.6124 0.6415 0.7965 3.2083 0.7965 0.2135-0.2662 0.428-0.5314 0.6415-0.7965" fill="none" stroke="#008e00" stroke-linecap="round" stroke-linejoin="round" stroke-width="5.4564"/>
 <path id="path43" d="m295.49 185.37c0-0.3781 4.667-5 5.242-5.6161 0.745-1.862 2.685-11.868 5.242-9.127-1.566 0.5647 9.83 11.395 9.83 7.5617 1.604-2.5777 0.59-11.843 3.276-8.9652 5.512 0 4.17-5.8722 7.208-9.1269 0.624 0 4.032 2.8616 5.242 3.5097 3.287 0 6.553-0.4714 6.553-4.9133 2.653 1.4206 0.655 0.7018 3.276 0.7018 0.218-0.2346 0.437-0.4682 0.655-0.7018" fill="none" stroke="#008e00" stroke-linecap="round" stroke-linejoin="round" stroke-width="5.1753"/>
 <path id="path44" d="m311.03 219.33c-0.056-0.4448 7.8054-3.1042 8.2801-3.9454 0.4576-2.3411-3.0667-18.226-0.1458-15.521 1.1215 0.4498 8.4074-5.943 7.8406-10.452 1.1969-3.3571 1.7777 3.302 4.8459 6.1417 5.4227-1.1185 3.2342-7.7526 5.7417-12.197 0.614-0.1268 4.39 2.5473 5.6763 3.0642 3.2339-0.6669 6.3772-1.8841 5.7205-7.1083 2.8201 1.1325 0.7481 0.6926 3.3266 0.1605 0.1799-0.3201 0.3608-0.6392 0.5408-0.9581" fill="none" stroke="#008e00" stroke-linecap="round" stroke-linejoin="round" stroke-width="5.6387"/>
 <path id="path45" d="m324.14 246.12c-0.0772-0.4213 3.8718-6.735 4.3488-7.5649 0.4008-2.2608 0.3915-13.895 3.6319-11.478 1.2213 0.3664 7.7667-6.4958 6.9838-10.768 1.1552-3.2725 3.0661 3.4005 6.4697 5.9382 5.7787-1.3735 3.1726-7.5833 5.693-11.968 0.6542-0.1554 4.8114 2.1845 6.2123 2.6055 3.4461-0.8191 6.7739-2.1581 5.8668-7.1085 3.0714 0.9222 0.83 0.619 3.5778-0.0341 0.1807-0.3158 0.3625-0.6308 0.5434-0.9453" fill="none" stroke="#00a400" stroke-linecap="round" stroke-linejoin="round" stroke-width="5.7146"/>
 <path id="path46" d="m336.08 274.81c-0.1148-0.4269 3.5315-7.3389 3.9665-8.2431 0.2411-2.3723-0.6957-14.37 2.9016-12.206 1.3125 0.2539 9.8825 2.2613 8.7196-2.0652 0.9531-3.4919 1.2532-6.5524 5.0317-4.2804 5.9624-2.0027-0.2308-13.934 2.0681-18.711 0.6749-0.2267 8.1897 7.5561 9.6952 7.8481 3.5557-1.1942 6.9455-2.9128 5.598-7.9262 3.3007 0.6395-2.0388-6.8916 3.7566-0.3981" fill="none" stroke="#00a400" stroke-linecap="round" stroke-linejoin="round" stroke-width="6.0904"/>
 <path id="path48" d="m349.09 298.03c-0.0412-0.6463 8.7374-3.0596 9.0873-4.2817 0.3373-3.4017 0.6536-21.072 2.8069-17.142 0.8267 0.6538 6.1978 5.4314 5.7799-1.1192 0.8823-4.8779 2e-4 -16.129 2.2619-12.003 3.9977-1.625 3.6947-4.4037 5.5432-10.861 0.4526-0.184 5.8576 5.9886 6.8058 6.7395 2.384-0.969 2.0799-5.0247 1.5957-12.615 2.079 1.6454 0.5515 1.006 2.4524 0.2333" fill="none" stroke="#00a400" stroke-linecap="round" stroke-linejoin="round" stroke-width="5.9525"/>
 <metadata>
  <rdf:RDF xmlns="http://web.resource.org/cc/" xmlns:dc="http://purl.org/dc/elements/1.1/" xmlns:rdf="http://www.w3.org/1999/02/22-rdf-syntax-ns#">
   <Work rdf:about="">
    <dc:title>Lemon SVG theme</dc:title>
    <dc:description/>
    <dc:subject>
     <rdf:Bag>
      <rdf:li>lemon_theme_icon</rdf:li>
      <rdf:li>icon</rdf:li>
     </rdf:Bag>
    </dc:subject>
    <dc:publisher>
     <Agent rdf:about="">
      <dc:title>Open Clip Art Library</dc:title>
     </Agent>
    </dc:publisher>
    <dc:creator>
     <Agent rdf:about="">
      <dc:title>Jose Hevia</dc:title>
     </Agent>
    </dc:creator>
    <dc:rights>
     <Agent rdf:about="">
      <dc:title/>
     </Agent>
    </dc:rights>
    <dc:date/>
    <dc:format>image/svg+xml</dc:format>
    <dc:type rdf:resource="http://purl.org/dc/dcmitype/StillImage"/>
    <license rdf:resource="Public Domain">
     <dc:date>1</dc:date>
    </license>
    <dc:language>en</dc:language>
   </Work>
   <License rdf:about="Public Domain">
    <permits rdf:resource="http://web.resource.org/cc/Reproduction"/>
    <permits rdf:resource="http://web.resource.org/cc/Distribution"/>
    <permits rdf:resource="http://web.resource.org/cc/DerivativeWorks"/>
   </License>
  </rdf:RDF>
 </metadata>
</svg>
