<?xml version="1.0" encoding="UTF-8"?>
<!-- Created with Inkscape (http://www.inkscape.org/) -->
<svg id="svg2" width="128px" height="128px" xmlns="http://www.w3.org/2000/svg" xmlns:cc="http://creativecommons.org/ns#" xmlns:dc="http://purl.org/dc/elements/1.1/" xmlns:rdf="http://www.w3.org/1999/02/22-rdf-syntax-ns#">
 <defs id="defs3">
  <filter id="filter2960">
   <feGaussianBlur id="feGaussianBlur2962" stdDeviation="2.5972341"/>
  </filter>
 </defs>
 <g id="layer1">
  <path id="path3113" transform="matrix(1 0 0 .8582 0 16.238)" d="m93.312 15.781c-0.12318 1.3729-3.5028 4.6461-6.7812 10.656-7.7287 7.0809-13.308 12.778-18.344 16.375-4.0138 2.2261-5.5784 6.5151-8.0312 11.281 0.84628 4.1854 2.979 15.169-0.96875 20.125-2.8355 6.9614-7.0112 13.383-9 20.688-0.9729 5.7368-10.288 8.8058-7.1562 14.812 1.4812 3.3974 4.4445 4.6099 7.6562 4.7188 2.2383 0.28697 4.737-0.27891 7.1875-1.0938 0.3367-0.08897 0.64768-0.21712 0.9375-0.34375 2.4446-0.67625 4.8403-1.4916 7.25-2.2812 1.8438-11.574 4.5453-23.171 9.9375-33.656 1.0122-5.2257 9.0595-4.517 9.2812-10.781 2.9785-6.5473 5.513-10.203 2.1562-17.188-1.9202-4.9339-3.0706-14.233-0.5625-19.906 0.013769-0.02597 0.048642-0.036706 0.0625-0.0625 0.01719-0.038176 0.013723-0.087164 0.03125-0.125 0.4183-0.76384 0.87838-1.4508 1.375-2.0312 0.72393-0.56611 1.4264-1.0878 2.0625-1.5312 2.1202-1.1622 4.0043-1.3831 5.7812-1.0625 3.905 1.0029 6.7649 5.3916 12 6.7188 2.7989 1.4668 5.9657 2.3788 9.875 1.5938-9.8926-2.6167-7.9938-14.364-24.75-16.906z" fill-opacity=".3516" fill-rule="evenodd" filter="url(#filter2960)"/>
  <g id="g3913" transform="matrix(1.8443 0 0 1.8443 -20.378 -5.557)">
   <path id="path1438" d="m24.75 29.112-0.375 11.375 2.75 0.75 1 23.875 9.125 4.875 2.875-1.25 6.625-4.875-0.875-7.125 0.25-13-0.25-4.125 0.625-0.25v-7.125l-1-4.25-4.625 3-3.75 1.5-3 2.125-9.375-5.5z" fill="#fff8dc" fill-rule="evenodd"/>
   <path id="path2199" d="m34.5 15.112-1.625 3.25-4.625 5.125-2.625 3.5-0.75 2.125 9.125 5.3473 5.7638-3.1737c2.197-0.7335 3.9074-1.8563 5.7152-3.2223l-5.229-6.0763-4.875-7.5-0.875 0.625z" fill="#7fffd4" fill-rule="evenodd"/>
   <path id="path2201" d="m34.625 7.1122 3.625 0.5 1.5 1.75 1.375 3.625 2.25 1.5 6.375 0.5 7.625-0.625-0.75 0.875-7.75 2.25-5.625 0.75-1.875-0.25-1.375-1.25-0.75-2.375-2.875-1.875-1.75-0.125v-5.25z" fill="#f00" fill-rule="evenodd"/>
   <path id="path2203" d="m34.875 14.737-3.125 5.125-5.25 5.625-1.75 4-0.375 11.125 2.875 0.75-0.375 6.25 1.125 9.25 0.25 8.375 9.25 4.75 0.375-4.125-1.125-7.625-0.125-8.25-0.375-6.5-2 1.125-0.125-0.25 0.125-9.75-1.25-2.375 0.75-7.875 0.25-4.875 0.875-4.75z" fill="#060000" fill-opacity=".28235" fill-rule="evenodd"/>
   <path id="path2205" d="m40.25 33.612-1.25 2.25s-1.75 2-0.75 2.25 5.5696-1.4237 5.5696-1.4237l-3.5696-3.0763z" fill="#8b4513" fill-rule="evenodd"/>
   <path id="path2207" d="m31.875 47.112s1.5 2.5 1.5 3.5 0.125 2.5 0.125 2.5l-3.625-1.5 0.75-3.75 1.25-0.75z" fill="#8b4513" fill-rule="evenodd"/>
   <path id="path2209" d="m27.375 37.862c0.75 0.25 3.625 1.5 3.625 1.5l-0.375-2.875-0.75-1.375-1.375 0.25-1.125 2.5z" fill="#8b4513" fill-rule="evenodd"/>
   <path id="path2213" d="m40.5 68.362-0.25-4.5 1.875-5.375 2.125 2 1.125 3 0.25 1.5-5.125 3.375z" fill="#8b4513" fill-rule="evenodd"/>
   <path id="path2995" d="m34.499 6.9191 3.591 0.43528 1.8499 2.6117 1.0882 2.9381 1.3058 5.5498-2.2852-1.197-0.32646-2.2852-2.5028-1.9587-2.2852-0.76173-0.43528-5.3321z" fill="#060000" fill-opacity=".28235" fill-rule="evenodd"/>
   <path id="path1297" d="m33.978 7.3652c0.00223 1.0689 0.26788 2.1241 0.21689 3.1992 0.08488 1.141 0.35496 2.3446 0.31227 3.441-0.84134 3.5361-3.4398 6.2689-5.7877 8.8924-1.0624 1.2342-2.3063 2.3412-3.1629 3.734-0.41104 0.67726-0.44601 1.5763-0.84406 2.211-0.70242 0.32114-0.33216 0.55033-0.45416 1.1844-0.1086 3.2194 0.00216 6.4452-0.12289 9.6633 0.13475 0.40759-0.16462 1.5738 0.24871 1.4975 0.60201-0.47943 1.3067 0.14145 1.9617 0.23148 0.63343 0.09673 0.20892 0.2569 0.45684 0.31361-0.47439 1.7699-0.09736 3.6353-0.15733 5.4451 0.11001 4.0812 1.0585 8.0967 1.044 12.188 0.05705 1.9984 0.16532 3.9948 0.25695 5.9918-0.66034 0.35815 0.19155 0.21881 0.51445 0.39979 2.835 1.3477 5.6119 2.8178 8.3308 4.3932 0.5479 0.10427 0.46909 0.68603 1.0649 0.37563 0.30251-0.35503 0.74664-0.64447 1.2547-0.87894 2.9221-1.6922 5.8559-3.5272 8.1217-6.0672 0.67523-0.63534-0.47606-0.1217-0.77858 0.04515-0.39464 0.41326-0.92371 1.1028-0.78369 0.11805-0.09259-1.7509-1.0827-3.3297-2.1879-4.6314-0.36801-0.32535-0.85544-0.79632-1.3156-0.82153-0.61965 0.26973-0.56061 0.4021-0.43583 0.70788-0.32752-0.29649-1.193 0.31835-0.48543 0.72805-0.49608 1.5743-1.3344 3.1866-1.3114 4.8997 0.19188 0.84898-0.0969 1.646-0.35399 2.4454 0.69214-0.58575 0.56862 0.22191 0.57333 0.74379-0.10762 0.41103 0.96004-0.08874 0.75929-0.46797 0.08847-0.92125 0.49297 0.16751-4.5e-4 0.56437-0.43198 0.57576-1.2438 0.81806-1.8377 1.2401-0.53604 0.29813-1.2424 0.86143-0.92852-0.16343 0.04412-0.86369 0.18976-1.7177 0.28121-2.577-0.37667 0.04185-0.03563-0.97889-0.13875-1.4038 0.04104-1.8855-0.53344-3.7116-0.74816-5.5752-0.37755-2.2379-0.42244-4.5047-0.42118-6.7684-0.02985-2.9777-0.07891-5.9594-0.43362-8.9195-0.84311 0.45236 0.38178-0.23079 0.66737-0.37644 2.5765-1.4043 5.32-2.5257 8.1651-3.2743 0.40265 4.5496 0.41589 9.1256 0.13393 13.682-0.14115 3.3468-0.03284 6.6999 0.26896 10.035 0.65707-0.16569 0.88723-0.56365 0.66611-1.2087-0.44203-4.2606-0.26655-8.55-0.05743-12.818 0.10195-3.3074-0.10465-6.6115-0.25228-9.9142 0.32733-0.20052 1.2609-0.96174 0.33169-0.64337-2.7855 0.7446-5.5324 1.6671-8.0921 3.0109-1.3778 0.65942-2.7022 1.4287-3.9667 2.2873-0.01647-1.8073-0.36825-3.604-0.19095-5.4165 0.08656-1.472 0.09803-2.9461 0.11348-4.4201 0.9258-0.21839 1.3551-1.2009 2.1868-1.611 1.7158-1.1327 3.8297-1.4286 5.5805-2.5092 1.4587-0.79585 2.4677-1.2696 3.6482-2.4335 0.33613-0.41637-0.44217-0.49564-0.64558-0.21145-1.8559 1.6267-4.0693 2.7801-6.3983 3.5671-1.6685 0.58696-3.2328 1.5327-4.4335 2.8416-0.74237-0.24123-0.66906-1.1346-0.77002-1.7714-0.1663-1.4682 0.39757-2.9085 0.28008-4.3866-0.0126-3.1905 0.24504-6.3851 0.92528-9.5054 0.1763-1.1138 0.41189-2.2226 0.44791-3.3528 1.6994 2.7766 3.3904 5.6112 5.7476 7.89 1.3511 1.4001 2.8793 3.2946 3.8188 5.0188 0.68383-0.2158 1.0138-0.57273 0.50963-1.0824-1.7806-2.8424-5.0176-5.2958-6.825-8.123-1.1655-1.7035-2.371-3.5152-3.2325-5.3254-0.0322-0.4744-0.35666-1.2914 0.44023-0.99991 1.4864 0.2775 2.7951 1.3167 3.564 2.5909 0.32363 1.0473 0.32212 2.4203 1.4606 2.9657 1.774 0.91218 3.8264 0.26235 5.6671-0.07534 3.4662-0.61825 7.0058-1.2153 10.197-2.7714 0.72514-0.32767 1.3047-0.87783 1.9516-1.3277-4.59 0.35038-9.2348 1.2298-13.822 0.43698-1.1072-0.1931-2.267-0.4719-3.0003-1.3997-1.1455-1.2716-1.251-3.102-2.0085-4.56-1.2287-1.4983-3.2885-1.6994-5.0912-1.7943 0.32644-0.57543-1.2597 0.41208-0.69341 0.60557zm1.8866 0.13512c1.2882 0.15734 2.8248 0.59595 3.4139 1.8553 0.66299 1.8022 1.0684 3.9904 2.8682 5.0383 0.95546 0.58997 2.145 0.66049 3.2361 0.83245 3.7966 0.50457 7.6155-0.13575 11.404-0.42761-3.2052 1.5988-6.7809 2.167-10.27 2.8055-1.7266 0.30932-3.6562 0.9252-5.3063 0.03948-1.2821-0.73758-0.5964-2.5847-1.7234-3.4554-1.0106-1.1865-2.5068-2.2658-4.1185-2.1199-0.43409 0.27158-0.25174-0.93357-0.38042-1.3066-0.13756-1.1074 0.03037-2.2405-0.18982-3.339 0.35537 0.02582 0.71073 0.05165 1.0661 0.07748zm-1.4442 9.4523c-0.3758 2.4547-0.96294 4.879-1.0766 7.3687-0.21025 2.4955-0.02391 5.0158-0.49519 7.4833-0.03503 0.57169 0.03992 1.1535 0.14931 1.716-2.6276-1.4607-5.4314-2.6497-7.8315-4.4906 0.55783-0.37032 0.09691-0.33474 0.55617-0.86278 0.24438-1.2493 0.97537-2.297 1.8552-3.1872 2.4722-2.8373 5.3079-5.4756 6.9356-8.9291-0.03099 0.30062-0.06198 0.60123-0.09297 0.90184zm11.495 11.25c-0.79289 0.12487-0.32432 0.84833-0.26701 1.3765 0.68956 3.1655 0.78005 6.4333 0.71018 9.6657 0.6223-0.16668 0.91403-0.53513 0.74766-1.1901 0.08491-3.3509-0.29995-6.694-0.9553-9.9761l-0.23553 0.12396zm-20.088 2.2035c2.3995 1.4792 4.9833 2.6218 7.4038 4.0691 0.1262 0.41783 0.71296 0.1007 0.49402 0.84282 0.09396 2.7053-0.39015 5.4169 0.02479 8.1134 0.01758 0.49886 0.27164 1.5925-0.45474 0.89313-1.4321-0.93443-2.8642-1.888-4.3563-2.7248-1.2154-0.56079-2.5293-0.85555-3.7996-1.2641-0.44272 0.20447-0.18271-0.87412-0.28154-1.2365 0.13734-3.0546 0.23411-6.1098 0.26915-9.1673 0.23346 0.15806 0.46693 0.31611 0.7004 0.47417zm14.482 2.8295c-0.56813 0.23917-0.44849 0.43189-0.81507 0.83057-0.91168 1.4431-1.5735 3.2529-1.7476 4.9257 1.4103-0.85771 3.4975-1.013 5.0636-1.5736 0.4936-0.18094 1.0445-0.34879 1.3389-0.82021-0.3098-0.00218-0.46437-0.69057-0.75351-1.0331-0.68849-1.1306-2.0353-1.5295-2.9716-2.4007l-0.08422 0.05236-0.03044 0.01892zm0.87395 1.407c0.82512 0.49453 1.5648 1.1262 1.9534 2.0294-0.22391 0.25066-0.94206 0.3264-1.3618 0.47276-0.87056 0.26386-1.8181 0.37349-2.6432 0.72715-0.42697 0.32376 0.02069-0.93692 0.03223-1.2741 0.21127-0.91901 0.76698-1.7005 1.133-2.5595l0.88635 0.60432zm-11.529 0.12707c-0.32957 0.00354-0.74972-0.06911-1.0505 0.20835-0.88699 0.49719-1.1873 1.5942-1.4536 2.4972-0.49997 0.28719 0.03659 0.66043-0.09351 1.0478 0.45449-0.33169 0.86233-0.37923 1.296 0.01208 0.6229 0.30174 1.2394 0.58911 1.8564 0.90494 0.32209-0.14707 0.18853 0.70352 0.85317 0.05382 0.27824-0.31065-0.00231-0.94806 0.04015-1.3858-0.14883-1.0923-0.07469-2.4412-1.0328-3.168-0.14225-0.06488-0.25193-0.38224-0.41529-0.17045zm-0.04958 0.81197c0.80217 0.81947 0.58655 2.0686 0.77168 3.1115-0.86395-0.33865-1.5558-1.0438-2.47-1.2552 0.17593-0.71528 0.40519-1.604 1.0133-2.0259 0.30993-0.0078 0.46189-0.13009 0.68505 0.16952zm-1.4907 6.4431c1.7981 0.86719 3.3967 2.0876 5.0919 3.1301 0.53677-0.50403 0.62015-0.117 1.1901-0.51755-0.63932 0.62306 0.46949 0.28904 0.76973 0.01934 0.57393-0.48919 0.97049-0.59407 0.88707 0.30928 0.51701 4.0313 0.23118 8.1237 0.49862 12.175 0.1894 2.5005 0.77983 4.9535 0.99133 7.4484 0.00879 1.3597-0.04874 2.7795-0.11093 4.0691-0.03645 0.60527 0.01016 1.2724-0.67539 0.61706-2.3513-1.178-4.4836-2.8098-6.9472-3.7691-0.69882-0.08244-0.87925-0.42996-1.1209-0.48484-0.26273-2.7057-0.28708-5.5504-0.40386-8.312-0.23132-4.1911-1.3074-8.3558-0.79285-12.569 0.03371-0.7824 0.09756-1.5789-0.0345-2.3541 0.219 0.07954 0.438 0.15908 0.65701 0.23863zm3.5609 4.6549c-0.51947 0.21274-0.49789 0.4889-0.88157 0.8546-0.96298 1.0101-0.8563 3.0054-1.0501 4.2993 0.45028 0.63874 0.78656 0.65081 1.0928 0.66361 0.78249 0.39154 1.5877 0.73611 2.4008 1.0595 0.06307 0.17623 0.95401-0.00339 0.82431-0.4724-0.43052-2.1584-0.54567-4.5779-2.0826-6.3023-0.30954-0.053653-0.28214-0.083193-0.30371-0.10227zm0.28512 1.3946c0.79786 1.4372 0.97089 3.0972 1.252 4.689-0.94425-0.38477-1.8688-0.81631-2.7768-1.2799 0.07428-1.2934 0.27097-2.6055 0.77168-3.8057 0.4376-0.41267 0.47078 0.12981 0.75309 0.39669zm10.897 11.51c0.45071 0.34599-0.84909 0.65406-0.18396-0.04537 0.00334-0.21173 0.12468 0.03815 0.18396 0.04537zm0.74998 0.95762c-0.79165 0.59005-0.44953-1.1126-0.06675-0.09427l0.05731 0.08094 0.00944 0.01333zm-0.56404 0.92044c0.11958 0.99733-0.7649 0.53574-0.34078-0.13931 0.00503-0.27951 0.24989 0.13349 0.34078 0.13931zm0.82747 0.78718c0.55751 0.40559 0.21769 1.3343-0.3059 0.56197-0.15163-0.0984 0.04817-1.2165 0.3059-0.56197zm-1.1901 0.80267c-0.28379 0.65641-0.72674-0.98225-0.04469-0.04434l0.04469 0.04434zm2.1508 0.08987c0.36436 0.82815-0.62833 0.72292-0.07598 0.02441 0.02327 0.01099 0.07496-0.24235 0.07598-0.02441zm-3.4183 0.14257c-0.10429 0.50538-0.47033 1.6103-0.15281 0.48642 0.04809-0.16067 0.09884-0.33947 0.15281-0.48642zm2.2624 0.60742c-0.2426 0.43887-0.75949-0.82998-0.04937-0.0402l0.04937 0.0402zm-1.2892 0.15806c-0.13762 0.36758-0.36011 1.4558-0.63503 0.65404 0.19779-0.37615 0.0408-1.3142 0.63503-0.65404zm2.0175 0.54854c-0.31376 1.1373-0.59674-0.68674-0.04101-0.0436l0.04101 0.0436zm-1.4287-0.03099c0.48014 0.2354-0.32279 1.6605-0.40367 0.92 0.14117-0.23255 0.21562-0.91738 0.40367-0.92zm2.0144 0.45867c-0.4308 0.546-0.03871-0.27304-0.00493-0.06536l0.00493 0.06536zm-1.345 0.78098c-0.16144 0.59788-0.53985 0.75224-0.21321 0.01619 0.12282-0.22727 0.07081-0.30161 0.21321-0.01619zm-1.9153 0.06198c-0.2716 1.2624-0.58682-0.52555-0.01609-0.01566l0.01609 0.01566z"/>
  </g>
 </g>
 <metadata id="metadata22">
  <rdf:RDF>
   <cc:Work rdf:about="">
    <dc:title>castle - RPG map elements</dc:title>
    <dc:description/>
    <dc:subject>
     <rdf:Bag>
      <rdf:li>mapsym</rdf:li>
     </rdf:Bag>
    </dc:subject>
    <dc:publisher>
     <cc:Agent>
      <dc:title/>
     </cc:Agent>
    </dc:publisher>
    <dc:creator>
     <cc:Agent>
      <dc:title>Nicu Buculei</dc:title>
     </cc:Agent>
    </dc:creator>
    <dc:rights>
     <cc:Agent>
      <dc:title>Nicu Buculei</dc:title>
     </cc:Agent>
    </dc:rights>
    <dc:date/>
    <dc:format>image/svg+xml</dc:format>
    <dc:type rdf:resource="http://purl.org/dc/dcmitype/StillImage"/>
    <cc:license rdf:resource="http://web.resource.org/cc/PublicDomain"/>
    <dc:language>en</dc:language>
   </cc:Work>
   <cc:License rdf:about="http://web.resource.org/cc/PublicDomain">
    <cc:permits rdf:resource="http://web.resource.org/cc/Reproduction"/>
    <cc:permits rdf:resource="http://web.resource.org/cc/Distribution"/>
    <cc:permits rdf:resource="http://web.resource.org/cc/DerivativeWorks"/>
   </cc:License>
  </rdf:RDF>
 </metadata>
</svg>
