<?xml version="1.0" encoding="UTF-8"?>
<!-- Created with Inkscape (http://www.inkscape.org/) -->
<svg id="svg2" width="128" height="128" version="1.0" xmlns="http://www.w3.org/2000/svg" xmlns:cc="http://creativecommons.org/ns#" xmlns:dc="http://purl.org/dc/elements/1.1/" xmlns:rdf="http://www.w3.org/1999/02/22-rdf-syntax-ns#" xmlns:xlink="http://www.w3.org/1999/xlink">
 <defs id="defs4">
  <linearGradient id="linearGradient3098">
   <stop id="stop3100" stop-color="#9e2612" offset="0"/>
   <stop id="stop3102" stop-color="#bd5032" offset="1"/>
  </linearGradient>
  <linearGradient id="linearGradient2338">
   <stop id="stop2340" stop-color="#b1b1b1" offset="0"/>
   <stop id="stop2342" stop-color="#e4e4e4" offset="1"/>
  </linearGradient>
  <linearGradient id="linearGradient2507" x1="48.802" x2="87.452" y1="98.584" y2="115.46" gradientUnits="userSpaceOnUse" xlink:href="#linearGradient2338"/>
  <linearGradient id="linearGradient2511" x1="58.22" x2="78.89" y1="63.42" y2="71.003" gradientUnits="userSpaceOnUse" xlink:href="#linearGradient2338"/>
  <linearGradient id="linearGradient2517" x1="55.162" x2="77.789" y1="36.145" y2="41.404" gradientUnits="userSpaceOnUse" xlink:href="#linearGradient2338"/>
  <linearGradient id="linearGradient3104" x1="62.99" x2="71.307" y1="27.339" y2="31.13" gradientUnits="userSpaceOnUse" xlink:href="#linearGradient3098"/>
  <linearGradient id="linearGradient3114" x1="69.472" x2="72.163" y1="10.704" y2="5.6896" gradientUnits="userSpaceOnUse">
   <stop id="stop3110" stop-color="#c223c2" offset="0"/>
   <stop id="stop3112" stop-color="#ff00dc" offset="1"/>
  </linearGradient>
  <linearGradient id="linearGradient3118" x1="72.897" x2="81.336" y1="93.019" y2="97.055" gradientUnits="userSpaceOnUse" xlink:href="#linearGradient3098"/>
  <linearGradient id="linearGradient3122" x1="80.358" x2="75.465" y1="111.06" y2="119.5" gradientUnits="userSpaceOnUse">
   <stop id="stop2322" stop-color="#6a3c1d" offset="0"/>
   <stop id="stop2324" stop-color="#8f5127" offset="1"/>
  </linearGradient>
  <filter id="filter3268" x="-.10798" y="-.087821" width="1.216" height="1.1756">
   <feGaussianBlur id="feGaussianBlur3270" stdDeviation="2.4163667"/>
  </filter>
 </defs>
 <metadata id="metadata7">
  <rdf:RDF>
   <cc:Work rdf:about="">
    <dc:format>image/svg+xml</dc:format>
    <dc:type rdf:resource="http://purl.org/dc/dcmitype/StillImage"/>
   </cc:Work>
  </rdf:RDF>
 </metadata>
 <g id="layer2" fill-rule="evenodd">
  <path id="path3142" d="m40.95 53.945c-4.3718-0.17105-2.403 4.7341 1.8631 3.5187 4.3391 1.5064 8.7742 1.8446 12.675 0.85752 2.6642-0.43743 7.8257-0.82957 8.8307-1.4436-4.763-0.25806-9.4491-0.18631-14.182-0.35022-3.5615-0.75561-4.6769-2.8955-9.1873-2.5824zm-0.49093 5.9461c-2.6244 2.8691-5.2585 5.7348-7.892 8.6007 1.4322 0.53262 8.58 2.5207 3.7101 1.3566-1.7621 2.3036-0.40151 6.6435 4.008 8.439 18.721 3.9928 0.71636-2.3297 1.7447 2.6494 1.4479 6.9724 3.8883 14.012 7.6273 21.002 0.79247 0.59392-1.4453-2.6215-3.2266-1.2068-8.3531 2.1537-7.0195 2.737-5.0291 5.4591-0.36545 3.0221 0.37949 6.2131 1.7628 9.3373 2.3633 2.4878 8.1374 2.8121 12.205 3.7467 10.696 2.0355 18.55-0.94679 26.945-3.566 3.579-0.79812 5.1232-2.5313 2.9879-4.8927-1.4702-2.9568-0.38014-3.4662-3.2164-6.2584 2.3151-2.8817-7.7495-3.6984-10.777-5.4258-2.3067-2.9392-2.6768-6.038-4.931-9.0283-2.159-3.8801-4.4971-7.7566-7.3623-11.578 4.9289-1.6439 0.65745-5.6927-1.8509-8.2618-2.027-1.0023-7.3427 0.83829-2.6611-0.12168 5.3563-0.9726 0.31346-3.8304-3.177-5.0511-3.5311-1.7948-7.1584-3.5288-10.868-5.2002zm40.293 45.092c-10.111 2.5779-8.0982 2.4232 0 0z" fill-opacity=".68778" filter="url(#filter3268)"/>
  <path id="path2505" d="m43.909 114.67 0.73386-12.353 2.3239-8.4394 4.6478 3.547 7.5832 2.4462 3.547 0.12231 5.7486 0.24462 7.8279-1.2231 7.7056-2.6908 3.1801-2.2016 1.3454 3.9139 1.8347 9.1733 0.12231 7.9502-4.5255 3.0578s-6.4824 2.4462-7.7056 2.9354c-1.2231 0.48924-10.152 1.4677-10.152 1.4677l-9.4179-0.85617-10.641-3.9139-4.1586-3.1801z" fill="url(#linearGradient2507)"/>
  <path id="path2509" d="m55.896 89.717-0.48924-7.5832-0.12231-13.943 1.1008-14.8 0.48924-4.5255 3.6693 0.85617 3.547 0.61155 7.5832-0.85617 2.6908-1.2231 1.3454 7.094 1.4677 12.476 1.1008 13.332 0.61155 8.8063-2.2016 1.1008-5.9932 2.3239-5.3817 0.36693-4.1586-0.73386-3.4247-1.3454-1.8347-1.957z" fill="url(#linearGradient2511)"/>
  <path id="path2515" d="m54.673 32.843-1.4677 4.0362 0.12231 4.8924 0.48924 4.6478 3.3024 2.3239 7.9502 1.3454h5.0147l4.1586-1.59 3.0578-2.3239 0.48924-6.1155-2.5685-7.3386-2.9354 1.1008-6.1155 0.97848-4.7701-0.12231-4.8924-0.85617-1.8347-0.97848z" fill="url(#linearGradient2517)"/>
  <path id="path2519" d="m51.86 30.641 6.7271-9.051 4.5255-6.1155 2.2016 2.0793 6.2378 6.6048 5.504 6.3601-1.7123 2.0793-6.6048 2.0793-8.3171 0.24462-3.7916-1.2231-4.7701-3.0578z" fill="url(#linearGradient3104)"/>
  <path id="path3106" d="m63.479 5.445 2.4462-0.48924 3.3024 0.61155 1.8347 0.73386 1.7123 3.1801 16.39 0.61155-1.4677 0.61155-3.6693 0.73386-6.9717 1.7123-6.7271 0.61155-1.2231-1.3454-2.3239-1.4677-4.0362 0.24462 0.73386-5.7486z" fill="url(#linearGradient3114)"/>
  <path id="path3116" d="m45.255 91.918 2.8131-2.3239 4.5255-1.957 3.0578-0.73386 0.12231 3.1801 5.9932 3.6693 4.5255 0.24462 4.1586-0.48924 4.5255-1.59 3.6693-1.8347-0.12231-4.2809 1.8347 0.48924 3.9139 1.8347 3.3024 2.8131 1.4677 2.5685-5.0147 2.4462-8.5617 3.3024-7.2163 0.97848h-5.504l-5.9932-1.1008-5.3817-1.957-6.1155-5.2593z" fill="url(#linearGradient3118)"/>
  <path id="path3120" d="m73.142 121.88-0.36693-6.4824-0.36693-3.7916 2.3239-4.5255 2.4462-1.957 2.3239 0.61155 2.8131 2.5685 0.73386 2.6908 0.61155 8.1948-3.9139 1.3454-6.6048 1.3454z" fill="url(#linearGradient3122)"/>
  <path id="path3124" d="m48.75 106.62 0.25-3.75 1.125-1.375 1.375-0.625 1.25 2.25 0.5 2-0.375 3.375-4.125-1.875z" fill="#d59163"/>
  <path id="path3126" d="m74.125 86.25-5.375 1.875v-5.25l1.875-3.125 1.875 1 0.875 1.5 0.75 4z" fill="#d59163"/>
  <path id="path3128" d="m61.125 74.562 0.375-3.0625-2.3125-3-1.75 1.625-0.0625 1-0.1875 2.6875 3.9375 0.75z" fill="#d59163"/>
  <path id="path3130" d="m67.875 64.062 4.0625-1.5625-0.625-3.5625-1.9375-1.6875-0.9375 1.4375-0.6875 1.4375 0.125 3.9375z" fill="#d59163"/>
  <path id="path3132" d="m61.375 47.562 0.125-4.5-1.0625-3.0625-1-0.9375-2.125 1.625-0.25 1.9375-0.125 3.3125 4.4375 1.625z" fill="#d59163"/>
  <path id="path3134" d="m72.125 42.062 3.1875-1.125-0.625-2.9375-1.8125-1.625-0.75 1.1875-0.1875 1.25 0.1875 3.25z" fill="#d59163"/>
  <path id="path3136" d="m61.125 74.562 0.375-3.0625-2.3125-3-1.75 1.625-0.0625 1-0.1875 2.6875 3.9375 0.75z" fill-opacity=".15686"/>
  <path id="path3138" d="m61.375 47.562 0.125-4.5-1.0625-3.0625-1-0.9375-2.125 1.625-0.25 1.9375-0.125 3.3125 4.4375 1.625z" fill-opacity=".15686"/>
  <path id="path3140" d="m48.75 106.62 0.25-3.75 1.125-1.375 1.375-0.625 1.25 2.25 0.5 2-0.375 3.375-4.125-1.875z" fill-opacity=".15686"/>
 </g>
 <g id="layer1">
  <path id="path2308" d="m62.906 2.5-0.46875 13.688-11.187 14.379c-0.18074 1.1701 1.7189 1.6472 2.6241 2.4018-1.0615 3.8985-1.6921 8.2998-0.25 13.594 0.81684 0.80705 1.8285 1.3655 2.8125 1.9375-1.1091 13.991-1.8487 24.306-0.84375 38.281-1.3261 0.034996-8.1118 1.1764-10.817 5.3857 0.3564 0.60222 0.93912 1.0166 1.4009 1.5366-1.5866 6.5769-2.3985 7.5459-2.7652 21.453 7.0251 5.7082 16.098 7.4437 24.869 7.8589 6.0728-0.55848 16.325-1.8856 22.375-7.8589 0.64408-7.1908-0.40178-14.052-2.875-20.781l1.6607-0.75536c-1.7822-4.605-6.09-6.6402-10.567-7.9946-0.61898-13.588-1.8495-25.338-4.125-37.281l2.7812-2.125c0.89826-4.8273 0.014819-9.2196-1.8438-13.656 0.82787-0.55406 1.7762-1.3858 2.0098-2.1768l-13.979-14.761-0.28125-3.9902c3.3175-0.88642 4.5836 0.57573 6.6562 2.6196 8.443 0.076522 13.111-3.2898 19.875-3.7232l-0.15625-0.8125c-5.6341 0.10053-11.709 0.029399-17.312-0.59819-0.38919-1.8501-0.97452-3.0648-2.5938-3.6831-2.0919-0.78189-4.2104-0.93925-6.3804-0.6973l-0.088388-2.2402h-0.53125zm4.5312 3.125c0.79993-0.015422 1.5614 0.033915 2.3125 0.25 1.4792 0.56476 2.1278 2.0513 2.375 3.875 1.6015 1.1133 13.474 0.41738 16.312 0.46875-2.8075 0.16213-9.3131 3.2745-18.125 3.1562-1.8102-2.7012-3.7597-3.4638-6.875-3.125v-4.125c1.2848-0.22248 2.6668-0.4743 4-0.5zm-4.25 10.25c0.15971-0.01069 0.3808 0.06047 0.65625 0.28125l8.3438 9.5625c-0.4318 0.40518-0.74297 1.1391-1.3438 1.1875l0.1875 0.28125 1.5312-1.0625 1.1562 1.3438c-0.21408 0.35527-0.60177 0.82032-0.96875 1.1875-0.19647 0.19658-0.40971 0.45028-0.625 0.6875-0.40056-0.45581-0.77128-0.879-0.875-1l-0.34375 0.25c0.11299 0.13182 0.50324 0.59381 0.90625 1.0625-0.24538 0.25082-0.48912 0.478-0.75 0.625l0.09375 0.21875c0.29684-0.16726 0.5874-0.38323 0.875-0.59375 0.14116 0.16415 0.40625 0.46875 0.40625 0.46875l0.375-0.25s-0.27755-0.3181-0.4375-0.5c0.25655-0.20706 0.52297-0.39785 0.75-0.625 0.41982-0.42005 0.73273-0.7366 0.9375-1.125l2.5312 2.875c-2.5706 3.1348-7.739 3.5607-11.531 3.8125-4.5648 0.19523-9.3115-0.57372-12.469-4.0938l1-1.375c1.2373 0.97924 2.6275 1.5407 4.0625 1.9375-0.050214 0.2313-0.11683 0.4535-0.15625 0.6875l0.40625 0.15625c0.07643-0.23935 0.14189-0.48061 0.21875-0.71875 1.8803 0.46436 3.8361 0.67129 5.6875 1l-0.1875-0.40625c-1.8234-0.32374-3.6479-0.61854-5.3438-1.0938 0.3601-1.1208 0.73928-2.2368 1-3.375 0.34374 0.084735 0.67571 0.1776 1.0625 0.3125l0.0625-0.1875c-0.43529-0.15182-0.74674-0.26071-1.0938-0.375 0.11254-0.5181 0.21294-1.0312 0.28125-1.5625l-0.15625-0.1875c-0.16768 0.53664-0.37808 1.0613-0.5625 1.5938-0.6982-0.24511-1.4972-0.56754-2.8125-1.2812l6.5625-9.1875c0.15584-0.2385 0.29631-0.51343 0.5625-0.53125zm-7.375 10.062c1.3875 0.7534 2.2413 1.0287 2.9688 1.2188-0.38182 1.0992-0.71902 2.2194-1 3.3438-1.392-0.43301-2.698-0.99985-3.8438-1.9062l1.875-2.6562zm19.053 7.083c1.8098 3.8844 2.8904 7.121 2.1661 12.766-3.3842 3.0488-8.1092 4.0517-12.182 3.8911-4.05-0.15969-8.1885-1.1543-10.641-3.2143-0.48674-5.603-0.88832-8.7229 0.43214-13.271 3.2508 1.566 7.0597 2.0219 10.61 1.9634 3.2968-0.1118 6.611-0.77112 9.6152-2.1357zm-2.1777 3.042c-0.65506 0.84568-0.80633 1.7603-0.875 2.7812l0.09375 3.4062 3.5312-1.25-0.53125-2.75c-0.49658-1.0193-1.306-1.5946-2.2188-2.1875zm0.25 0.71875c0.30161 0.30346 1.3703 1.3057 1.5938 1.625l0.5 2.4062-2.7812 1v-3.0625c-0.108-0.68455 0.59661-1.292 0.6875-1.9688zm-13.344 2.0312c-1.5797 0.7474-2.4158 1.6138-2.8125 3.25l-0.09375 4.0938 4.7812 1.6562 0.1875-4.9062c-0.46861-1.3889-0.3298-2.8453-2.0625-4.0938zm-0.125 0.46875c0.62788 0.66372 1.698 2.2244 1.6562 3.6562l-0.03125 4.25-3.8125-1.2812 0.03125-3.8125c0.15456-1.0352 1.3603-2.2558 2.1562-2.8125zm14.615 9.4839c2.4594 13.007 3.4619 25.39 4.2705 40.917-8.0912 5.6381-18.073 4.4398-22.136 0.078585-1.1666-15.964-0.39865-25.588 0.79642-40.631 2.208 1.0075 5.1437 1.4834 7.8286 1.5893 3.0006 0.11832 6.3971-0.50254 9.2402-1.9536zm-4.7402 8.3911c-0.90776 0.76436-1.2848 1.7897-1.6562 2.875l0.0625 4.25 4.25-1.6562-0.4375-3.4375c-0.23326-1.4366-1.4423-1.4095-2.2188-2.0312zm0.125 0.4375c0.61017 0.22801 1.393 0.96556 1.6875 1.5l0.53125 3.2812-3.5938 1.5625-0.03125-3.9688c0.20938-0.73551 0.96503-1.8643 1.4062-2.375zm-10.188 10.844c-1.0351 0.31004-1.5258 1.0231-2.0938 1.8438l-0.0625 3.625 4.1875 0.96875 0.3125-3.4688c-0.41612-1.3547-1.3202-2.2215-2.3438-2.9688zm-0.09375 0.4375c0.88843 0.62278 1.8133 1.9825 2.0625 2.6562l-0.125 2.7812-3.75-0.65625 0.1875-3.1562c0.17699-0.39294 0.94267-1.2906 1.625-1.625zm11.531 10.656c-1.1743 0.93586-1.6635 2.2349-2.1562 3.5938l0.0625 5.2812 5.5-2-0.53125-4.3125c-0.71024-1.4744-1.8561-1.8599-2.875-2.5625zm0.1875 0.5c0.9929 0.30316 1.7109 1.5822 2.1562 2.4375l0.6875 3.5-4.75 1.9375-0.0625-4.7188c0.21306-1.0165 1.352-2.3588 1.9688-3.1562zm7.9375 6.1562c3.3891 0.6984 5.8338 2.4722 7.4062 4.2188-0.19616 0.34904-0.40329 0.67171-0.625 0.96875-1.1171-1.3739-2.7612-2.2165-4.2188-3.25l-0.09375 0.1875c1.5716 0.96428 3.0246 2.0604 4 3.4688-1.5265 1.8035-3.5327 2.6219-5.5312 3.25l0.09375 0.3125c1.9643-0.61728 4.1141-1.2096 5.7812-3.0625 0.17038 0.29528 0.31334 0.61524 0.4375 0.9375l0.375-0.4375c-0.13538-0.32196-0.28798-0.62968-0.46875-0.90625 0.23374-0.29739 0.44688-0.60947 0.65625-0.96875 0.66124 0.81699 1.1654 1.6066 1.4375 2.25-5.5243 3.916-14.282 6.8604-22.312 6.875-8.0428 0.01467-15.61-2.9041-19.344-7.7812 0.33439-0.61927 0.79014-1.1815 1.3438-1.6875 0.34382 1.0537 0.98064 1.9197 1.75 2.6562-0.27665 0.23785-0.5576 0.46152-0.84375 0.6875l0.40625 0.28125 0.84375-0.59375c0.011198 0.009652 0.020017 0.021641 0.03125 0.03125 1.1251 0.96243 2.4407 1.7366 3.5625 2.5938l-0.09375-0.34375c-1.1308-0.86405-1.9896-1.7708-2.9688-2.625l1.4688-1-0.25-0.375c-0.65632 0.19038-1.1925 0.54553-1.6875 0.9375-0.80219-0.74615-1.4691-1.622-1.75-2.625 0.60693-0.48279 1.285-0.90549 2.0312-1.2812 0.18035 1.1931 1.3605 1.609 2.2812 2.4062l0.3125-0.3125c-0.93863-0.68711-1.4976-1.4093-1.9375-2.4062 1.4362-0.64406 3.0137-1.121 4.5312-1.4375 0.078939 1.0201 0.14974 1.992 0.25 3.0625 7.747 6.8559 15.199 4.0464 23.062 0 0.45449-1.0531 0.12123-2.7797 0.0625-4.0312zm-31.562 8.5312c4.3157 3.9622 11.236 5.7006 18.438 5.6875 7.5855-0.01383 15.506-1.9803 21.219-5.5 2.7401 6.1858 2.9889 13.249 2.6518 20.068-1.6094 1.5168-3.528 2.5148-5.7768 3.5571l-0.65625-8.5c-0.97406-2.949-3.3626-4.2125-6.0312-5.375-2.7741 1.9049-4.733 4.6342-4.9062 8.0312 0.44529 2.899 0.4703 5.8775 0.5625 8.8125-1.4738 0.16474-2.9873 0.23627-4.5 0.25-8.4656 0.07682-17.588-1.6845-23.594-6.5312 0.42629-7.2383-0.5757-12.694 2.5938-20.5zm4.1562 5.875c-0.91135 0.36953-2.1009 1.0375-2.5312 2.375l-0.28125 3.9688 4.3125 1.8125 0.40625-4c-0.33416-1.748-0.40948-3.0388-1.9062-4.1562zm-0.03125 0.5c0.76156 0.99927 1.6655 2.7026 1.5312 3.5625l-0.125 3.4688-3.875-1.375 0.1875-3.625c0.27618-0.81556 1.6563-1.7419 2.2812-2.0312zm25.787 4.2286c2.3467 1.0437 4.8573 2.5957 5.4116 4.8027l0.35984 8.8696c-1.4691 1.0169-6.628 2.1038-9.4072 2.5625-0.022805-3.0521-0.33021-6.177-0.78661-9.1661 0.20002-2.8667 2.4747-5.2354 4.4223-7.0688z" fill-rule="evenodd"/>
 </g>
</svg>
