<?xml version="1.0" encoding="UTF-8"?>
<!-- Created with Inkscape (http://www.inkscape.org/) -->
<svg id="svg2" width="128" height="128" version="1.0" xmlns="http://www.w3.org/2000/svg" xmlns:cc="http://creativecommons.org/ns#" xmlns:dc="http://purl.org/dc/elements/1.1/" xmlns:rdf="http://www.w3.org/1999/02/22-rdf-syntax-ns#" xmlns:xlink="http://www.w3.org/1999/xlink">
 <defs id="defs4">
  <linearGradient id="linearGradient3332">
   <stop id="stop3334" stop-color="#bb8f56" offset="0"/>
   <stop id="stop3336" stop-color="#d1af63" offset="1"/>
  </linearGradient>
  <linearGradient id="linearGradient2320">
   <stop id="stop2322" stop-color="#6a3c1d" offset="0"/>
   <stop id="stop2324" stop-color="#8f5127" offset="1"/>
  </linearGradient>
  <linearGradient id="linearGradient2535" x1="22.138" x2="43.665" y1="56.265" y2="90.39" gradientTransform="translate(.56958 -.31627)" gradientUnits="userSpaceOnUse" xlink:href="#linearGradient2320"/>
  <linearGradient id="linearGradient2539" x1="11.558" x2="16.39" y1="46.052" y2="55.531" gradientTransform="translate(.56958 -.31627)" gradientUnits="userSpaceOnUse" xlink:href="#linearGradient3332"/>
  <linearGradient id="linearGradient2552" x1="14.861" x2="12.476" y1="51.495" y2="46.847" gradientTransform="translate(.56958 -.31627)" gradientUnits="userSpaceOnUse" xlink:href="#linearGradient2320"/>
  <linearGradient id="linearGradient2558" x1="11.558" x2="16.39" y1="46.052" y2="55.531" gradientTransform="translate(16.959 11.181)" gradientUnits="userSpaceOnUse" xlink:href="#linearGradient3332"/>
  <linearGradient id="linearGradient2560" x1="14.861" x2="12.476" y1="51.495" y2="46.847" gradientTransform="translate(16.959 11.181)" gradientUnits="userSpaceOnUse" xlink:href="#linearGradient2320"/>
  <linearGradient id="linearGradient2566" x1="11.558" x2="16.39" y1="46.052" y2="55.531" gradientTransform="translate(32.431 22.862)" gradientUnits="userSpaceOnUse" xlink:href="#linearGradient3332"/>
  <linearGradient id="linearGradient2568" x1="14.861" x2="12.476" y1="51.495" y2="46.847" gradientTransform="translate(32.431 22.862)" gradientUnits="userSpaceOnUse" xlink:href="#linearGradient2320"/>
  <linearGradient id="linearGradient3151" x1="43.243" x2="34.249" y1="37.189" y2="59.157" gradientTransform="translate(.56958 -.31627)" gradientUnits="userSpaceOnUse" xlink:href="#linearGradient2320"/>
  <linearGradient id="linearGradient3157" x1="74.793" x2="81.031" y1="33.393" y2="20.917" gradientTransform="translate(.56958 -.31627)" gradientUnits="userSpaceOnUse" xlink:href="#linearGradient2320"/>
  <linearGradient id="linearGradient3163" x1="76.138" x2="101.64" y1="89.044" y2="66.845" gradientTransform="translate(.56958 -.31627)" gradientUnits="userSpaceOnUse" xlink:href="#linearGradient2320"/>
  <linearGradient id="linearGradient3167" x1="89.103" x2="91.182" y1="49.477" y2="56.693" gradientTransform="translate(.56958 -.31627)" gradientUnits="userSpaceOnUse" xlink:href="#linearGradient2320"/>
  <linearGradient id="linearGradient3171" x1="86.718" x2="108" y1="92.53" y2="73.205" gradientTransform="translate(.56958 -.31627)" gradientUnits="userSpaceOnUse" xlink:href="#linearGradient3332"/>
  <linearGradient id="linearGradient3177" x1="102.5" x2="90.265" y1="75.468" y2="92.347" gradientTransform="translate(.56958 -.31627)" gradientUnits="userSpaceOnUse" xlink:href="#linearGradient2320"/>
  <linearGradient id="linearGradient3181" x1="92.772" x2="92.405" y1="81.706" y2="82.745" gradientTransform="translate(.56958 -.31627)" gradientUnits="userSpaceOnUse" xlink:href="#linearGradient3332"/>
  <linearGradient id="linearGradient3185" x1="95.402" x2="96.014" y1="83.418" y2="83.968" gradientTransform="translate(.56958 -.31627)" gradientUnits="userSpaceOnUse" xlink:href="#linearGradient3332"/>
  <linearGradient id="linearGradient3189" x1="114.79" x2="121.33" y1="80.788" y2="81.094" gradientTransform="translate(.56958 -.31627)" gradientUnits="userSpaceOnUse" xlink:href="#linearGradient2320"/>
  <linearGradient id="linearGradient3193" x1="121.15" x2="116.26" y1="73.021" y2="76.446" gradientTransform="translate(.56958 -.31627)" gradientUnits="userSpaceOnUse" xlink:href="#linearGradient2320"/>
  <linearGradient id="linearGradient3197" x1="121.76" x2="114.97" y1="71.737" y2="72.777" gradientTransform="translate(.56958 -.31627)" gradientUnits="userSpaceOnUse" xlink:href="#linearGradient2320"/>
  <linearGradient id="linearGradient3415">
   <stop id="stop3417" stop-color="#1a1a1a" offset="0"/>
   <stop id="stop3419" stop-color="#2b2b2b" offset="1"/>
  </linearGradient>
  <linearGradient id="linearGradient3586" x1="116" x2="123.17" y1="78.2" y2="78.033" gradientTransform="translate(.56958 -.31627)" gradientUnits="userSpaceOnUse" xlink:href="#linearGradient3415"/>
  <linearGradient id="linearGradient3590" x1="114.66" x2="123.86" y1="83.757" y2="83.447" gradientTransform="translate(.56958 -.31627)" gradientUnits="userSpaceOnUse" xlink:href="#linearGradient3415"/>
  <linearGradient id="linearGradient3602" x1="121.76" x2="114.97" y1="71.737" y2="72.777" gradientTransform="translate(-40.67 16.208)" gradientUnits="userSpaceOnUse" xlink:href="#linearGradient2320"/>
  <linearGradient id="linearGradient3604" x1="121.15" x2="116.26" y1="73.021" y2="76.446" gradientTransform="translate(-40.67 16.208)" gradientUnits="userSpaceOnUse" xlink:href="#linearGradient2320"/>
  <linearGradient id="linearGradient3606" x1="114.79" x2="121.33" y1="80.788" y2="81.094" gradientTransform="translate(-40.67 16.208)" gradientUnits="userSpaceOnUse" xlink:href="#linearGradient2320"/>
  <linearGradient id="linearGradient3608" x1="116" x2="123.17" y1="78.2" y2="78.033" gradientTransform="translate(-40.67 16.208)" gradientUnits="userSpaceOnUse" xlink:href="#linearGradient3415"/>
  <linearGradient id="linearGradient3610" x1="114.66" x2="123.86" y1="83.757" y2="83.447" gradientTransform="translate(-40.67 16.208)" gradientUnits="userSpaceOnUse" xlink:href="#linearGradient3415"/>
  <linearGradient id="linearGradient3622" x1="121.76" x2="114.97" y1="71.737" y2="72.777" gradientTransform="translate(-54.735 20.856)" gradientUnits="userSpaceOnUse" xlink:href="#linearGradient2320"/>
  <linearGradient id="linearGradient3624" x1="121.15" x2="116.26" y1="73.021" y2="76.446" gradientTransform="translate(-54.735 20.856)" gradientUnits="userSpaceOnUse" xlink:href="#linearGradient2320"/>
  <linearGradient id="linearGradient3626" x1="114.79" x2="121.33" y1="80.788" y2="81.094" gradientTransform="translate(-54.735 20.856)" gradientUnits="userSpaceOnUse" xlink:href="#linearGradient2320"/>
  <linearGradient id="linearGradient3628" x1="116" x2="123.17" y1="78.2" y2="78.033" gradientTransform="translate(-54.735 20.856)" gradientUnits="userSpaceOnUse" xlink:href="#linearGradient3415"/>
  <linearGradient id="linearGradient3630" x1="114.66" x2="123.86" y1="83.757" y2="83.447" gradientTransform="translate(-54.735 20.856)" gradientUnits="userSpaceOnUse" xlink:href="#linearGradient3415"/>
  <linearGradient id="linearGradient3634" x1="66.645" x2="65.938" y1="80.933" y2="81.817" gradientTransform="translate(.56958 -.31627)" gradientUnits="userSpaceOnUse" xlink:href="#linearGradient2320"/>
  <linearGradient id="linearGradient3638" x1="63.595" x2="71.816" y1="81.905" y2="93.352" gradientTransform="translate(.56958 -.31627)" gradientUnits="userSpaceOnUse" xlink:href="#linearGradient3332"/>
  <linearGradient id="linearGradient3744" x1="12.979" x2="14.766" y1="70.794" y2="71.154" gradientTransform="translate(-2.3508 7.3284)" gradientUnits="userSpaceOnUse" xlink:href="#linearGradient2320"/>
  <linearGradient id="linearGradient3747" x1="12.979" x2="15.541" y1="69.632" y2="70.475" gradientTransform="translate(-8.4202 3.0473)" gradientUnits="userSpaceOnUse" xlink:href="#linearGradient2320"/>
  <linearGradient id="linearGradient3750" x1="16.158" x2="17.197" y1="64.297" y2="66.682" gradientTransform="translate(-2.1341 7.4909)" gradientUnits="userSpaceOnUse" xlink:href="#linearGradient2320"/>
  <linearGradient id="linearGradient3753" x1="16.485" x2="18.737" y1="64.079" y2="66.586" gradientTransform="translate(-8.4202 3.0473)" gradientUnits="userSpaceOnUse" xlink:href="#linearGradient2320"/>
  <linearGradient id="linearGradient3756" x1="26.782" x2="33.013" y1="81.95" y2="73.73" gradientTransform="translate(-8.4202 3.0473)" gradientUnits="userSpaceOnUse" xlink:href="#linearGradient2320"/>
  <linearGradient id="linearGradient3759" x1="16.484" x2="22.23" y1="69.178" y2="80.005" gradientTransform="translate(-8.4202 3.0473)" gradientUnits="userSpaceOnUse" xlink:href="#linearGradient2320"/>
  <linearGradient id="linearGradient3762" x1="22.318" x2="23.776" y1="70.746" y2="64.78" gradientTransform="translate(-8.4202 3.0473)" gradientUnits="userSpaceOnUse" xlink:href="#linearGradient2320"/>
  <linearGradient id="linearGradient3779" x1="12.979" x2="14.766" y1="70.794" y2="71.154" gradientTransform="translate(6.639 3.9648)" gradientUnits="userSpaceOnUse" xlink:href="#linearGradient2320"/>
  <linearGradient id="linearGradient3782" x1="12.979" x2="15.541" y1="69.632" y2="70.475" gradientTransform="translate(.56958 -.31627)" gradientUnits="userSpaceOnUse" xlink:href="#linearGradient2320"/>
  <linearGradient id="linearGradient3785" x1="16.158" x2="17.197" y1="64.297" y2="66.682" gradientTransform="translate(6.8557 4.1274)" gradientUnits="userSpaceOnUse" xlink:href="#linearGradient2320"/>
  <linearGradient id="linearGradient3788" x1="16.485" x2="18.737" y1="64.079" y2="66.586" gradientTransform="translate(.56958 -.31627)" gradientUnits="userSpaceOnUse" xlink:href="#linearGradient2320"/>
  <linearGradient id="linearGradient3791" x1="26.782" x2="33.013" y1="81.95" y2="73.73" gradientTransform="translate(.56958 -.31627)" gradientUnits="userSpaceOnUse" xlink:href="#linearGradient2320"/>
  <linearGradient id="linearGradient3794" x1="16.484" x2="22.23" y1="69.178" y2="80.005" gradientTransform="translate(.56958 -.31627)" gradientUnits="userSpaceOnUse" xlink:href="#linearGradient2320"/>
  <linearGradient id="linearGradient3797" x1="22.318" x2="23.776" y1="70.746" y2="64.78" gradientTransform="translate(.56958 -.31627)" gradientUnits="userSpaceOnUse" xlink:href="#linearGradient2320"/>
  <linearGradient id="linearGradient3800" x1="12.979" x2="14.766" y1="70.794" y2="71.154" gradientTransform="translate(14.1 19.07)" gradientUnits="userSpaceOnUse" xlink:href="#linearGradient2320"/>
  <linearGradient id="linearGradient3803" x1="12.979" x2="15.541" y1="69.632" y2="70.475" gradientTransform="translate(8.0305 14.789)" gradientUnits="userSpaceOnUse" xlink:href="#linearGradient2320"/>
  <linearGradient id="linearGradient3806" x1="16.158" x2="17.197" y1="64.297" y2="66.682" gradientTransform="translate(14.317 19.233)" gradientUnits="userSpaceOnUse" xlink:href="#linearGradient2320"/>
  <linearGradient id="linearGradient3809" x1="16.485" x2="18.737" y1="64.079" y2="66.586" gradientTransform="translate(8.0305 14.789)" gradientUnits="userSpaceOnUse" xlink:href="#linearGradient2320"/>
  <linearGradient id="linearGradient3813" x1="26.782" x2="33.013" y1="81.95" y2="73.73" gradientTransform="translate(8.0305 14.789)" gradientUnits="userSpaceOnUse" xlink:href="#linearGradient2320"/>
  <linearGradient id="linearGradient3817" x1="16.484" x2="22.23" y1="69.178" y2="80.005" gradientTransform="translate(8.0305 14.789)" gradientUnits="userSpaceOnUse" xlink:href="#linearGradient2320"/>
  <linearGradient id="linearGradient3820" x1="22.318" x2="23.776" y1="70.746" y2="64.78" gradientTransform="translate(8.0305 14.789)" gradientUnits="userSpaceOnUse" xlink:href="#linearGradient2320"/>
  <filter id="filter3866">
   <feGaussianBlur id="feGaussianBlur3868" stdDeviation="0.99583134"/>
  </filter>
 </defs>
 <metadata id="metadata7">
  <rdf:RDF>
   <cc:Work rdf:about="">
    <dc:format>image/svg+xml</dc:format>
    <dc:type rdf:resource="http://purl.org/dc/dcmitype/StillImage"/>
   </cc:Work>
  </rdf:RDF>
 </metadata>
 <g id="layer2" fill-rule="evenodd">
  <path id="path3844" d="m61.456 107.27s-3.6324 1.2108-4.4973 0.17298c-0.86486-1.0378 0.17297-2.7676 0.17297-2.7676l-0.86486-6.4-14.53-4.1514-13.492-0.17297-26.984-17.47 6.0541-4.6703-7.0919-16.086 13.665-16.605 46.876-7.7838 62.097 52.411s-4.8432 3.4595-5.8811 3.1135-6.7459-2.5946-6.7459-2.5946l-30.789 7.6108-1.2108 11.589s-5.8811 0.69189-6.9189-0.17298c-1.0378-0.86486-6.0541-3.4595-6.0541-3.4595l-3.8054 7.4378z" fill-opacity=".62745" filter="url(#filter3866)"/>
  <path id="path3149" d="m38.363 11.978-32.412 23.545 0.5504 2.5685 51.676 37.182 2.8743-1.957 26.969-25.257-24.34-17.613-25.318-18.469z" fill="url(#linearGradient3151)"/>
  <path id="path2533" d="m5.4993 35.493-0.17297 31.044 0.43243 0.17297 6.4-1.2973 0.086487-1.6432 9.0811-1.9892 1.3838 1.1243 0.25946-0.25946 2.5081 1.7297-0.086486 0.43243 3.2486 2.4544 0.61155-0.24462 2.6297 1.7735-0.48924 0.36693 3.4858 2.6908 0.18346 8.8675-0.85617 0.36693 2.0793 1.2231 0.36693-0.12231 2.6297 1.8347-0.18347 0.36693 3.4858 2.8131-0.12231 6.2378 14.066 10.213 0.48924-0.73386 0.18347-0.30577 0.061155-3.6693-0.42809-0.12231 0.061155-1.3454 0.36693-0.48924h0.36693l0.36693-1.7735 0.5504-0.97848 0.24462-0.30578h0.36693l0.18346-0.30578 0.24462-0.24462-0.061155-17.185 0.48924-1.8958s-2.5685 0.12231-2.752-0.12231c-0.18347-0.24462-0.97848-2.3851-0.97848-2.3851l-3.1801-0.48924-0.97848-2.6297-2.6297-0.30578-0.85617-1.8347-2.3239-0.18347-0.91733-2.2016-2.0181-0.18347-0.79502-1.8347-2.6908-0.48924-0.91733-1.957-2.5074-0.12231-0.42809-2.3851-2.2627 0.061155-0.73386-2.0181-2.2627-0.24462-0.97848-2.0793-2.2627-0.24462-0.85617-2.2016-2.3851-0.18346s-0.18346-1.6512-0.42809-1.7735c-0.24462-0.12231-2.6908-0.18346-2.6908-0.18346l-0.48924-2.1404-1.7735 0.12231-0.97848-1.7735-2.2627-0.24462-1.0396-2.2627-1.8958 0.18347-0.73386-2.2627-2.3851-0.30578-0.61155-1.8958-2.3239-0.24462-1.1858-1.9864z" fill="url(#linearGradient2535)"/>
  <path id="path2537" d="m11.149 43.167-0.061155 8.7452 6.4213 4.7701v-9.051l-6.3601-4.4643z" fill="url(#linearGradient2539)"/>
  <path id="path2543" d="m12.976 45.965 1.5312 2.9375 1.1562-1.2812-2.6875-1.6562zm-0.71875 0.1875v4.2188l1.7812-1.0938-1.7812-3.125zm3.9062 2.5312-1.3438 1.0312 1.0312 3.1875 0.3125-4.2188zm-1.9688 1.5312-1.5312 1.0312 2.5312 1.7812-1-2.8125z" fill="url(#linearGradient2552)"/>
  <path id="path2554" d="m27.539 54.664-0.061155 8.7452 6.4213 4.7701v-9.051l-6.3601-4.4643z" fill="url(#linearGradient2558)"/>
  <path id="path2556" d="m29.365 57.462 1.5312 2.9375 1.1562-1.2812-2.6875-1.6562zm-0.71875 0.1875v4.2188l1.7812-1.0938-1.7812-3.125zm3.9062 2.5312-1.3438 1.0312 1.0312 3.1875 0.3125-4.2188zm-1.9688 1.5312-1.5312 1.0312 2.5312 1.7812-1-2.8125z" fill="url(#linearGradient2560)"/>
  <path id="path2562" d="m43.011 66.345-0.061155 8.7452 6.4213 4.7701v-9.051l-6.3601-4.4643z" fill="url(#linearGradient2566)"/>
  <path id="path2564" d="m44.838 69.143 1.5312 2.9375 1.1562-1.2812-2.6875-1.6562zm-0.71875 0.1875v4.2188l1.7812-1.0938-1.7812-3.125zm3.9062 2.5312-1.3438 1.0312 1.0312 3.1875 0.3125-4.2188zm-1.9688 1.5312-1.5312 1.0312 2.5312 1.7812-1-2.8125z" fill="url(#linearGradient2568)"/>
  <path id="path2570" d="m5.4993 35.922-0.17297 30.616 0.43243 0.17297 6.4-1.2973 0.086487-1.6432 9.0811-1.9892 1.3838 1.1243 0.25946-0.25946 2.5081 1.7297-0.086486 0.43243 3.2486 2.4544 0.61155-0.24462 2.6297 1.7735-0.48924 0.36693 3.4858 2.6908 0.18346 8.8675-0.85617 0.36693 2.0793 1.2231 0.36693-0.12231 2.6297 1.8347-0.18347 0.36693 3.4858 2.8131-0.12231 6.2378 14.066 10.213 0.48924-0.73386 0.18347-0.30577 0.061155-3.6693-0.42809-0.12231 0.061155-1.3454 0.36693-0.48924h0.36693l0.36693-1.7735 0.5504-0.97848 0.24462-0.30578h0.36693l0.18346-0.30578 0.24462-0.24462-0.061155-17.185 0.48924-1.8958s-2.5685 0.12231-2.752-0.12231c-0.18347-0.24462-0.97848-2.3851-0.97848-2.3851l-3.1801-0.48924-0.97848-2.6297-2.6297-0.30578-0.85617-1.8347-2.3239-0.18347-0.91733-2.2016-2.0181-0.18347-0.79502-1.8347-2.6908-0.48924-0.91733-1.957-2.5074-0.12231-0.42809-2.3851-2.2627 0.061155-0.73386-2.0181-2.2627-0.24462-0.97848-2.0793-2.2627-0.24462-0.85617-2.2016-2.3851-0.18346s-0.18346-1.6512-0.42809-1.7735c-0.24462-0.12231-2.6908-0.18346-2.6908-0.18346l-0.48924-2.1404-1.7735 0.12231-0.97848-1.7735-2.2627-0.24462-1.0396-2.2627-1.8958 0.18347-0.73386-2.2627-2.3851-0.30578-0.61155-1.8958-2.3239-0.24462-1.1858-1.5583z" fill-opacity=".15686"/>
  <path id="path3155" d="m124.78 48.365-37.182-0.24462-49.169-36.02 32.535-2.6297 3.4858 1.3454-0.91733 0.91733 3.3024 1.3454-0.24462 0.73386 3.3024 1.2231-0.36693 1.0396 3.9139 1.3454-0.24462 1.1619 2.752 0.61155-0.61155 0.79502 3.2412 1.2843-0.24462 0.91733 3.6693 1.3454-0.73386 0.85617 4.342 1.3454-1.1619 0.97848 3.6082 0.97848-0.12231 1.4677 3.3635 0.79502-0.61155 1.2843 3.1801 0.79502-0.24462 1.1619 3.7916 1.4677-0.12231 1.2231 3.4858 1.2231-0.42809 1.1619 3.6082 0.97848-0.5504 1.2843 2.5685 0.73386 0.48924 1.4677 3.4858 1.0396 0.42809 1.8347 3.8528 1.1619 0.55039 1.59z" fill="url(#linearGradient3157)"/>
  <path id="path3165" d="m60.135 73.989 28.009-26.052 36.448 0.42809 1.162 0.67271-1.7735 2.0181-60.788 23.789-3.0578-0.85617z" fill="url(#linearGradient3167)"/>
  <path id="path3161" d="m59.462 93.07 0.12231-17.98 0.67271-0.97848 2.3851 0.61155 2.8743-2.5074 1.59 0.85617 1.6512-1.957 2.2016 0.79502 1.6512-2.3239 2.6297 0.73386 1.957-2.5074 1.7735 0.73386 1.4066-2.0793 2.2627 0.67271 1.957-2.2016 2.2627 0.73386 1.7123-2.2627 2.8131 0.48924 1.7735-2.1404 2.2016 0.5504 1.8347-2.2016 2.5685 0.73386 1.6512-2.4462 2.0793 0.5504 1.8347-2.1404 1.8346 1.1008 1.4677-2.2627 2.5685 0.73386 1.4677-2.2627 2.1404 0.73386 0.91733-1.8958 1.8346 0.36693 1.59-1.7735 1.957 1.1008 1.2231-2.2627 1.1619 0.5504 2.0793-1.8958 0.30578 22.566-2.0181-0.61155-3.4247-0.42809-2.1404 0.30578-2.0181 0.48924-1.0396 0.67271-1.5289 1.1619-0.30578 1.2231-0.5504 1.4066-0.42808-0.12231-0.18347 0.61155-0.18346 1.2843 0.36693 0.42809 0.06115 3.7916-0.36693 0.12231-0.36693 0.91733 0.12231 0.73386 0.79502 0.24462 0.18346 0.91733-3.4858 1.2231 0.18346-18.285-25.257 9.9071-0.061155 10.274-1.8958-0.5504-2.8131-0.24462-2.3239 0.36693-0.97848 0.12231-0.61155 0.67271-1.1008-0.42809-0.67271 6.7271-3.9139-2.5074h-1.6512l-2.1404-0.24462-1.59 0.061155-1.2231 0.24462-1.2843 0.24462-1.0396 0.42809-1.2231 0.48924-0.30578-0.18347z" fill="url(#linearGradient3163)"/>
  <path id="path3195" d="m113.46 73.623 0.79502-0.79502 0.73386-0.79502 1.5289-0.67271 1.2231-0.48924 2.2627-0.12231 1.59-0.12231 1.8347 0.18347 1.6512 0.67271 1.2843 0.79502-0.36693 0.73386-12.231 1.2843-0.30578-0.67271z" fill="url(#linearGradient3197)"/>
  <path id="path3169" d="m84.23 87.933 0.12231-10.335 25.074-9.9683v18.469l-1.2843 0.36693 0.12231-16.695-22.444 9.1121 0.30578 15.656h-0.5504l-0.18347-3.3635-1.1619-3.2412z" fill="url(#linearGradient3171)"/>
  <path id="path3175" d="m86.065 94.293 0.12231-1.7735-0.36693-2.752v-10.641s22.627-9.9683 22.383-9.3567c-0.24462 0.61155 0 16.634 0 16.634l-22.26 8.7452 0.12231-0.85617z" fill="url(#linearGradient3177)"/>
  <path id="path3179" d="m86.737 79.004 21.343 6.5436 0.12231 0.91733s-1.0396 0.48924-1.2843 0.48924-21.099-6.5436-21.099-6.5436l-0.12231-1.2843 1.0396-0.12231z" fill="url(#linearGradient3181)"/>
  <path id="path3183" d="m86.187 93.437 20.365-22.75 1.5289-0.85617-0.06116 1.4677-20.915 23.361-1.1008 0.42809v-1.0396l0.18347-0.61155z" fill="url(#linearGradient3185)"/>
  <path id="path3191" d="m113.89 73.928 1.6512-0.97848 2.8131-0.91733 2.4462-0.18346 2.8743 0.42809 2.2627 0.48924 0.12231 1.2843-3.7305 1.7123-7.3998 0.36693-1.4066-1.0396 0.36693-1.1619z" fill="url(#linearGradient3193)"/>
  <path id="path3187" d="m113.52 73.928 1.162 0.91733 1.0396 0.61155 2.8131 0.18347 1.5289-0.18347 1.1008-0.24462 1.957-0.48924 1.1008-0.36693 1.5289-0.85617 0.61155-0.67271 0.48924 1.8347v2.2627 2.0181l-0.24462 1.957-0.61155 2.5685-0.18347 0.67271-1.3454 0.97848-1.4677 0.79502-2.4462 0.73386s-1.3454 0.061156-1.59 0.061156h-2.5074l-1.957-0.30578-1.6512-1.2843-0.30577-1.2843-0.06116-2.752c0.02693-1.7293-0.25473-3.3814 0.36693-5.2593l0.67271-1.8958z" fill="url(#linearGradient3189)"/>
  <path id="path3415" d="m112.44 75.835 2.9838 0.9946 3.1135 0.3027 2.4649-0.21622 1.6-0.3027s1.0378-0.43243 1.4703-0.56216c0.43244-0.12973 2.9405-1.2108 2.9405-1.2108l0.34595 0.21622 0.17297 0.64865-0.12973 0.86486-2.7243 1.2541-2.3351 0.64865-1.5568 0.25946-1.8595 0.086486-1.9027-0.043243-2.0324-0.38919-1.9459-0.51892-0.95136-0.25946-0.08648-0.56216 0.21621-0.86486 0.21622-0.34595z" fill="url(#linearGradient3586)"/>
  <path id="path3588" d="m112.19 81.888 1.1951 0.33463 2.7009 0.54974 2.2468 0.19122 1.4102-0.095608 1.6731-0.28682 2.1751-0.52584 2.2229-0.74096 1.1473-0.35853 0.09561 0.64535-0.14341 0.95608-0.28683 0.35853-2.8682 1.0039-3.3702 0.81267s-1.8404 0.071706-1.9361 0.071706c-0.0956 0-1.936-0.11951-1.936-0.11951s-2.0078-0.31072-2.2946-0.35853c-0.28683-0.047804-2.3663-0.64535-2.3663-0.64535l-0.16731-0.83657 0.19122-0.54974 0.31072-0.40633z" fill="url(#linearGradient3590)"/>
  <path id="path3592" d="m72.223 90.147 0.79502-0.79502 0.73386-0.79502 1.5289-0.67271 1.2231-0.48924 2.2627-0.12231 1.59-0.12231 1.8347 0.18347 1.6512 0.67271 1.2843 0.79502-0.36693 0.73386-12.231 1.2843-0.30578-0.67271z" fill="url(#linearGradient3602)"/>
  <path id="path3594" d="m72.651 90.452 1.6512-0.97848 2.8131-0.91733 2.4462-0.18346 2.8743 0.42809 2.2627 0.48924 0.12231 1.2843-3.7305 1.7123-7.3998 0.36693-1.4066-1.0396 0.36693-1.1619z" fill="url(#linearGradient3604)"/>
  <path id="path3596" d="m72.284 90.452 1.162 0.91733 1.0396 0.61155 2.8131 0.18347 1.5289-0.18347 1.1008-0.24462 1.957-0.48924 1.1008-0.36693 1.5289-0.85617 0.61155-0.67271 0.48924 1.8347v2.2627 2.0181l-0.24462 1.957-0.61155 2.5685-0.18347 0.6727-1.3454 0.97849-1.4677 0.79501-2.4462 0.73387s-1.3454 0.06115-1.59 0.06115h-2.5074l-1.957-0.30577-1.6512-1.2843-0.30577-1.2843-0.06116-2.752c0.02693-1.7293-0.25473-3.3814 0.36693-5.2593l0.67271-1.8958z" fill="url(#linearGradient3606)"/>
  <path id="path3598" d="m71.201 92.359 2.9838 0.9946 3.1135 0.3027 2.4649-0.21622 1.6-0.3027s1.0378-0.43243 1.4703-0.56216c0.43244-0.12973 2.9405-1.2108 2.9405-1.2108l0.34595 0.21622 0.17297 0.64865-0.12973 0.86486-2.7243 1.2541-2.3351 0.64865-1.5568 0.25946-1.8595 0.086486-1.9027-0.043243-2.0324-0.38919-1.9459-0.51892-0.95136-0.25946-0.08648-0.56216 0.21621-0.86486 0.21622-0.34595z" fill="url(#linearGradient3608)"/>
  <path id="path3600" d="m70.952 98.412 1.1951 0.33463 2.7009 0.54974 2.2468 0.19122 1.4102-0.095608 1.6731-0.28682 2.1751-0.52584 2.2229-0.74096 1.1473-0.35853 0.09561 0.64535-0.14341 0.95608-0.28683 0.35853-2.8682 1.0039-3.3702 0.81267s-1.8404 0.0717-1.9361 0.0717c-0.0956 0-1.936-0.11951-1.936-0.11951s-2.0078-0.31072-2.2946-0.35852c-0.28683-0.04781-2.3663-0.64536-2.3663-0.64536l-0.16731-0.83656 0.19122-0.54974 0.31072-0.40633z" fill="url(#linearGradient3610)"/>
  <path id="path3612" d="m58.157 94.795 0.79502-0.79502 0.73386-0.79502 1.5289-0.67271 1.2231-0.48924 2.2627-0.12231 1.59-0.12231 1.8347 0.18347 1.6512 0.67271 1.2843 0.79502-0.36693 0.73386-12.231 1.2843-0.30578-0.67271z" fill="url(#linearGradient3622)"/>
  <path id="path3614" d="m58.585 95.1 1.6512-0.97848 2.8131-0.91733 2.4462-0.18346 2.8743 0.42809 2.2627 0.48924 0.12231 1.2843-3.7305 1.7123-7.3998 0.36693-1.4066-1.0396 0.36693-1.1619z" fill="url(#linearGradient3624)"/>
  <path id="path3616" d="m58.218 95.1 1.162 0.91733 1.0396 0.61155 2.8131 0.18347 1.5289-0.18347 1.1008-0.24462c1.7603-0.16308 1.3046-0.32616 1.957-0.48924l1.1008-0.36693 1.5289-0.85617 0.61155-0.67271 0.48924 1.8347v2.2627 2.0181l-0.24462 1.957-0.61155 2.5685-0.18347 0.6727-1.3454 0.97849-1.4677 0.79501-2.4462 0.73387s-1.3454 0.06115-1.59 0.06115h-2.5074l-1.957-0.30577-1.6512-1.2843-0.30577-1.2843-0.06116-2.752c0.02693-1.7293-0.25473-3.3814 0.36693-5.2593l0.67271-1.8958z" fill="url(#linearGradient3626)"/>
  <path id="path3618" d="m57.135 97.007 2.9838 0.9946 3.1135 0.3027 2.4649-0.21622 1.6-0.3027s1.0378-0.43243 1.4703-0.56216c0.43244-0.12973 2.9405-1.2108 2.9405-1.2108l0.34595 0.21622 0.17297 0.64865-0.12973 0.86486-2.7243 1.2541-2.3351 0.64865-1.5568 0.25946-1.8595 0.08648-1.9027-0.04324-2.0324-0.38919-1.9459-0.51891-0.95136-0.25946-0.08648-0.56216 0.21621-0.86486 0.21622-0.34595z" fill="url(#linearGradient3628)"/>
  <path id="path3620" d="m56.887 103.06 1.1951 0.33463 2.7009 0.54974 2.2468 0.19122 1.4102-0.09561 1.6731-0.28682 2.1751-0.52584 2.2229-0.74096 1.1473-0.35853 0.09561 0.64535-0.14341 0.95608-0.28683 0.35853-2.8682 1.0039-3.3702 0.81267s-1.8404 0.0717-1.9361 0.0717c-0.0956 0-1.936-0.11951-1.936-0.11951s-2.0078-0.31072-2.2946-0.35852c-0.28683-0.04781-2.3663-0.64536-2.3663-0.64536l-0.16731-0.83656 0.19122-0.54974 0.31072-0.40634z" fill="url(#linearGradient3630)"/>
  <path id="path3632" d="m60.099 75.269 15.38 10.872 0.57452 0.7955v0.7513l-0.48614 0.57452-15.777-11.137-0.13258-0.61872-0.088389-0.7513 0.53033-0.48614z" fill="url(#linearGradient3634)"/>
  <path id="path3636" d="m62.044 78.849 0.044194 7.734 11.888 8.3969 0.26516-7.513-12.198-8.6179z" fill="url(#linearGradient3638)"/>
  <path id="path3715" d="m12.174 65.11-8.883 2.0329s0.21065 0.63697 1.4583 1.6533c3.6653 2.9859 11.559 8.9091 12.021 8.9091 0.61872 0 9.0156-2.6516 9.0156-2.6516l-3.403-2.5191 0.39775-0.39775-2.6517-1.7678h-0.66291l-3.182-2.2097 0.22097-0.39775-2.5191-1.6794h-0.35355l-1.4584-0.97227z" fill="url(#linearGradient3762)"/>
  <path id="path3717" d="m3.3796 67.761 1.37 1.1932 2.3865 1.9445h0.66291l3.8449 3.1378 1.6794 1.2816 0.83969 0.22097 2.6958 2.0329 0.044195 8.7504-3.7123-2.74-0.26516 0.088389-2.1655-1.591-0.53033-0.53033-3.6681-2.6958-1.9887-1.3258-0.35355-0.57452-1.2816-0.92808 0.26516-8.5295 0.17678 0.26516z" fill="url(#linearGradient3759)"/>
  <path id="path3719" d="m17.036 86.367c0-0.17678-0.17678-8.8388-0.17678-8.8388s9.104-2.6075 9.104-2.4307 0.13258 9.0156 0.13258 9.0156l-8.9714 2.5191-0.088389-0.26516z" fill="url(#linearGradient3756)"/>
  <path id="path3721" d="m4.694 68.646 9.4292-2.5741 2.4928 1.8154s-9.077 2.9263-9.4021 2.9805c-0.27096-0.10838-2.5741-2.0051-2.5741-2.0051l0.054191-0.21676z" fill="url(#linearGradient3753)"/>
  <path id="path3723" d="m11.007 72.955 9.2125-2.4928 2.6825 1.8696s-9.077 2.9263-9.4021 2.9805c-0.27096-0.10838-2.5741-2.0051-2.5741-2.0051l0.081286-0.35224z" fill="url(#linearGradient3750)"/>
  <path id="path3725" d="m4.6398 69.08-0.081287 8.5351 2.3573 1.4903s0.27096-8.237 0.18967-8.3454c-0.081287-0.10838-2.3844-1.6528-2.4657-1.6799z" fill="url(#linearGradient3747)"/>
  <path id="path3727" d="m10.709 73.361-0.081287 8.5351 2.3031 1.707s0.48772-8.0474 0.29805-8.3996c-0.06423-0.11928-2.4386-1.8154-2.5199-1.8425z" fill="url(#linearGradient3744)"/>
  <path id="path3685" d="m28.625 76.851-8.883 2.0329s0.21065 0.63697 1.4583 1.6533c3.6653 2.9859 11.559 8.9091 12.021 8.9091 0.61872 0 9.0156-2.6516 9.0156-2.6516l-3.403-2.5191 0.39775-0.39775-2.6517-1.7678h-0.66291l-3.182-2.2097 0.22097-0.39775-2.5191-1.6794h-0.35355l-1.4584-0.97227z" fill="url(#linearGradient3820)"/>
  <path id="path3687" d="m19.83 79.503 1.37 1.1932 2.3865 1.9445h0.66291l3.8449 3.1378 1.6794 1.2816 0.83969 0.22097 2.6958 2.0329 0.044195 8.7504-3.7123-2.74-0.26516 0.088389-2.1655-1.591-0.53033-0.53033-3.6681-2.6958-1.9887-1.3258-0.35355-0.57452-1.2816-0.92808 0.26516-8.5295 0.17678 0.26516z" fill="url(#linearGradient3817)"/>
  <path id="path3689" d="m33.486 98.109c0-0.17678-0.17678-8.8388-0.17678-8.8388s9.104-2.6075 9.104-2.4307 0.13258 9.0156 0.13258 9.0156l-8.9714 2.5191-0.088389-0.26516z" fill="url(#linearGradient3813)"/>
  <path id="path3691" d="m21.145 80.388 9.4292-2.5741 2.4928 1.8154s-9.077 2.9263-9.4021 2.9805c-0.27096-0.10838-2.5741-2.0051-2.5741-2.0051l0.054191-0.21676z" fill="url(#linearGradient3809)"/>
  <path id="path3693" d="m27.458 84.696 9.2125-2.4928 2.6825 1.8696s-9.077 2.9263-9.4021 2.9805c-0.27096-0.10838-2.5741-2.0051-2.5741-2.0051l0.081286-0.35224z" fill="url(#linearGradient3806)"/>
  <path id="path3695" d="m21.091 80.822-0.081287 8.5351 2.3573 1.4903s0.27096-8.237 0.18967-8.3454c-0.081287-0.10838-2.3844-1.6528-2.4657-1.6799z" fill="url(#linearGradient3803)"/>
  <path id="path3697" d="m27.16 85.103-0.081287 8.5351 2.3031 1.707s0.48772-8.0474 0.29805-8.3996c-0.06423-0.11928-2.4386-1.8154-2.5199-1.8425z" fill="url(#linearGradient3800)"/>
  <path id="path3642" d="m21.164 61.746-8.883 2.0329s0.21065 0.63697 1.4583 1.6533c3.6653 2.9859 11.559 8.9091 12.021 8.9091 0.61872 0 9.0156-2.6516 9.0156-2.6516l-3.403-2.5191 0.39775-0.39775-2.6517-1.7678h-0.66291l-3.182-2.2097 0.22097-0.39775-2.5191-1.6794h-0.35355l-1.4584-0.97227z" fill="url(#linearGradient3797)"/>
  <path id="path3648" d="m12.369 64.398 1.37 1.1932 2.3865 1.9445h0.66291l3.8449 3.1378 1.6794 1.2816 0.83969 0.22097 2.6958 2.0329 0.044195 8.7504-3.7123-2.74-0.26516 0.088389-2.1655-1.591-0.53033-0.53033-3.6681-2.6958-1.9887-1.3258-0.35355-0.57452-1.2816-0.92808 0.26516-8.5295 0.17678 0.26516z" fill="url(#linearGradient3794)"/>
  <path id="path3652" d="m26.025 83.003c0-0.17678-0.17678-8.8388-0.17678-8.8388s9.104-2.6075 9.104-2.4307 0.13258 9.0156 0.13258 9.0156l-8.9714 2.5191-0.088389-0.26516z" fill="url(#linearGradient3791)"/>
  <path id="path3656" d="m13.684 65.283 9.4292-2.5741 2.4928 1.8154s-9.077 2.9263-9.4021 2.9805c-0.27096-0.10838-2.5741-2.0051-2.5741-2.0051l0.054191-0.21676z" fill="url(#linearGradient3788)"/>
  <path id="path3660" d="m19.997 69.591 9.2125-2.4928 2.6825 1.8696s-9.077 2.9263-9.4021 2.9805c-0.27096-0.10838-2.5741-2.0051-2.5741-2.0051l0.081286-0.35224z" fill="url(#linearGradient3785)"/>
  <path id="path3666" d="m13.63 65.716-0.081287 8.5351 2.3573 1.4903s0.27096-8.237 0.18967-8.3454c-0.081287-0.10838-2.3844-1.6528-2.4657-1.6799z" fill="url(#linearGradient3782)"/>
  <path id="path3670" d="m19.699 69.997-0.081287 8.5351 2.3031 1.707s0.48772-8.0474 0.29805-8.3996c-0.06423-0.11928-2.4386-1.8154-2.5199-1.8425z" fill="url(#linearGradient3779)"/>
  <path id="path3822" d="m12.195 64.121-0.28125 8.5312 1.2812 0.9375 0.34375 0.53125v0.125l2.375 1.5 3.3125 2.4375 0.53125 0.53125 2.1562 1.5938 0.28125-0.09375 3.6875 2.75-0.03125-8.75-2.6875-2.0312-0.84375-0.21875-0.09375-0.0625c-0.002779-0.01001 0.003147-0.056655 0-0.0625-0.049338-0.091631-1.2484-0.95623-1.9375-1.4375l-3.5-2.875h-0.65625l-0.03125-0.03125c-0.001207-0.006749 0.001418-0.09186 0-0.09375-0.030483-0.040642-0.51646-0.36746-0.9375-0.65625l-1.4375-1.1562-1.3438-1.1875-0.1875-0.28125zm-9 3.375-0.25 8.5312 1.2812 0.9375 0.34375 0.5625v0.09375l2.3438 1.4688 3.3125 2.4688 0.53125 0.53125 2.1562 1.5938 0.28125-0.09375 3.7188 2.7188-0.0625-8.75-2.6875-2.0312-0.84375-0.21875-0.09375-0.09375c-0.040544-0.075297-0.87003-0.672-1.5938-1.1875l-3.8438-3.125h-0.65625l-0.03125-0.03125c-0.0014908-0.010668 0.0018474-0.12254 0-0.125-0.040644-0.054192-0.62265-0.4407-1.2188-0.84375l-1.125-0.9375-1.375-1.2188-0.1875-0.25zm16.469 11.75-0.28125 8.5312 1.2812 0.90625 0.34375 0.53125v0.15625l2.375 1.4688 3.3125 2.4375 0.53125 0.53125 2.1562 1.5938 0.25-0.0625 3.7188 2.7188-0.03125-8.75-2.7188-2.0312-0.8125-0.21875-0.09375-0.0625c-0.002779-0.01001 0.003147-0.056655 0-0.0625-0.040049-0.074373-0.87332-0.64263-1.5938-1.1562l-3.8438-3.125h-0.65625l-0.03125-0.03125c-0.001517-0.011107 0.00189-0.12248 0-0.125-0.040644-0.05419-0.6539-0.47196-1.25-0.875l-1.125-0.9375-1.375-1.1875-0.15625-0.25z" fill-opacity=".15686"/>
 </g>
 <g id="layer1">
  <path id="path2308" d="m71.195 9.34-33.031 2.4063-33.031 23.875-0.125 31.031 0.0625 0.0625-1.8438 0.40625-0.28125 9.4375 10.625 7.7812 3.5312 2.5938 2.0938-0.5625-0.0625 1.875 10.625 7.7812 3.5312 2.5938 9.4688-2.5938v-2.1562l13.656 9.875c-0.1104 0.38919-0.11633 0.79726 0.125 1.25 0.24431 0.01865 0.44125 0.28922 0.6875 0.3125 0.06828 0.31294 0.068092 0.62511 0.09375 0.9375 0.64145 1.6459 2.5293 1.7099 4.0938 1.9375 3.268 0.28834 6.1212-0.62073 8.875-2.2812l0.46875-0.375c0.11269-0.37069 0.21543-0.74602 0.3125-1.125 0.3307-0.14962 0.22796-0.03957 0.5625-0.21875 0.10677-0.47249 0.32374-1.0807 0.3125-1.6562 0.87718 0.70532 2.2126 0.79965 3.375 0.96875 3.1238 0.17794 6.257-0.36931 8.75-2.2188 0.037452-0.02778 0.087842-0.03412 0.125-0.0625l0.46875-0.375c0.11269-0.37069 0.21543-0.74602 0.3125-1.125 0.3307-0.14962 0.22796-0.03957 0.5625-0.21875 0.15527-0.6871 0.55213-1.6786 0.125-2.4062-0.051406 0.025819-0.13534 0.06804-0.1875 0.09375 0.083544-0.56741 0.13712-1.1385 0.1875-1.7188l26.906-10.469c8e-4 0.010366-8.5e-4 0.020883 0 0.03125 0.64145 1.6459 2.5293 1.7099 4.0938 1.9375 3.1238 0.17794 6.257-0.36931 8.75-2.2188 0.03745-0.027776 0.08784-0.03412 0.125-0.0625l0.46875-0.375c0.11269-0.37069 0.21542-0.74602 0.3125-1.125 0.3307-0.14962 0.22796-0.03957 0.5625-0.21875 0.15527-0.6871 0.55212-1.6786 0.125-2.4062-0.05141 0.025818-0.13534 0.06804-0.1875 0.09375 0.18243-1.2391 0.30685-2.5058 0.28125-3.8125 0.14169-0.070788 0.26385-0.14248 0.40625-0.21875 0.37766-0.96727 0.20756-1.4881-0.34375-2.125-0.07888 0.039612-0.16936 0.0544-0.25 0.09375-0.09602-0.804-0.2155-1.614-0.40625-2.4375l-0.03125 0.03125c-0.02281-0.29699-0.09768-0.59797-0.3125-0.96875-0.05256-0.031241-0.10322-0.063978-0.15625-0.09375l-0.09375-15.438 0.0625-0.03125-0.0625-0.09375-0.03125-6.4375-1.4688-2.5312-3.4375-1.0312-0.90625-2-3.125-0.9375-0.6875-1.4375-2.5-0.875 0.34375-1.1562-3.1875-0.90625 0.1875-1.2188-3.2812-1.0312-0.1875-1.5-3.7188-1.3438 0.1875-1.125-2.9062-0.84375 0.34375-1.3125-3.3125-0.84375-0.0625-1.4062-3.125-0.9375 1.125-1-4.4688-1.4062 0.59375-0.9375-3.6562-1.2812 0.40625-0.96875-3.1875-1.0625 0.4375-0.96875-2.5625-0.59375-0.0625-1.1875-3.6875-1.5312 0.15625-0.84375-2.9688-1.1875 0.09375-0.78125-2.9062-1.2812 0.40625-0.96875-3.5625-1.3438zm-0.34375 0.5625 3 0.84375-0.875 0.71875-31.344 2.7812-2.5312-1.8125 31.75-2.5313zm2.75 2 2.5625 1.0312-0.3125 0.625-31.375 2.75-2.3438-1.6875 31.469-2.7188zm-35.312 0.59375 2.5938 1.9062-31.938 22.844-2.0625 0.125-0.1875-1.75 31.594-23.125zm38.156 1.4688 2.9062 1.1562-0.40625 0.6875-31.312 2.7812-2.6562-1.9062 31.469-2.7188zm-35.062 0.78125 2.4688 1.8438-31.906 22.844-1.9375 0.09375-0.5-1.875 31.875-22.906zm38.156 1.5 3.1875 1.1562-0.625 0.6875-31.312 2.7812-2.625-1.9062 31.375-2.7188zm-35.188 0.6875 2.5312 1.875-31.906 22.812-2.1875 0.375-0.28125-2.1875 31.844-22.875zm38.344 1.5938 2.6562 0.6875-0.75 0.6875-31.281 2.7812-2.0312-1.4375 31.406-2.7188zm-35.312 0.65625 2.5 1.8438-31.844 22.812-2.0938 0.25-0.75-1.875 32.188-23.031zm37.781 1.1562 2.9688 0.90625-0.59375 0.8125-31.688 2.4062-0.03125 0.03125-2-1.4375 31.344-2.7188zm-34.781 1.0625 2.2188 1.625-31.844 22.75-1.625 0.34375-0.53125-1.875 31.781-22.844zm37.688 1.0312 3.4688 1.0625-1.0625 0.6875-31.688 2.4688-2.4062-1.75 31.688-2.4688zm-34.969 0.9375 2.125 1.5625-31.531 22.969-2.2812 0.1875-0.09375-1.875 31.781-22.844zm37.969 1.25 3.7188 1.1875-1.0625 0.75-32 2.2188-2.4688-1.7812 31.812-2.375zm-35.469 0.59375 2.3438 1.7188-31.406 23.062-1.875 0.125-0.4375-1.8125 31.375-23.094zm38.719 1.7812 3.4688 0.75-1.0312 1.0312-31.938 2.2188-2.5938-1.8438 32.094-2.1562zm-36.031 0.1875 2.6562 1.9375-31.188 23.219-2.0938 0.125-0.59375-2.0938 31.219-23.188zm39.094 2.0625 3.4375 0.8125-1.1562 0.84375-31.938 2.2188-2.5312-1.8438 32.188-2.0312zm-36.062 0.15625 2.6562 1.9688-30.969 23.312-1.7812 0.0625-0.9375-2.0312 31.031-23.312zm38.719 1.7812 3.375 1.0312-0.96875 0.71875-31.875 2.2188-2.3438-1.6875 31.812-2.2812zm-35.75 0.40625 2.5 1.8438-30.812 23.312-1.7812 0.34375-0.625-2 30.719-23.5zm38.781 1.7812 3.8438 1.375-0.75 0.875-32.562 1.7188-2.5312-1.8125 32-2.1562zm-35.875 0.375 2.5 1.8125-30.719 23.312-2.0938 0.53125-0.40625-2.2188 30.719-23.438zm3 2.1875 2.4062 1.75-30.25 23.75-2.1875 0.09375-0.71875-2.1875 30.75-23.406zm36.531 0.09375 3.5938 1.1875-0.875 0.8125-32.781 1.5312-2.6562-1.9062 32.719-1.625zm-100.87 0.25 0.53125 1.5 2.1562 0.4375 0.9375 1.6875 2.1563 0.53125 0.8125 1.8125 1.9062 0.125 1.0625 2.125 2.3438 0.3125 0.78125 1.7812 1.7188 0.03125 0.65625 1.9375 2.4062 0.25 0.6875 1.6562 2.1875 0.40625 0.96875 1.9688 2.1875 0.3125 1.2188 2.0312 2.1562 0.375 0.71875 1.7812 2.1562 0.28125 0.71875 1.9688 2.375 0.28125 1.0312 1.9375 2.4688 0.5625 0.71875 1.7812 2.25 0.34375 1.0312 2.0938 2.3125 0.3125 0.6875 1.8125 2.4375 0.40625 1.3438 2.2812 2.6875 0.59375 1.125 2.2812 2.5938 0.40625v1.7812l-53.531-38.438v-1.75zm67.125 1.6875 2.6875 1.9688-30.25 23.719-1.9688 0.15625-0.5625-2 30.094-23.844zm-67.125 0.1875 53.531 38.5-0.03125 1.9375-9.875-7.0938v-0.96875l-6.7188-4.5938v0.71875l-8.875-6.3438v-1.4062l-6.625-4.6562-0.03125 1.2812-9.5312-6.8438v-1.2188l-6.8125-4.75v1.0625l-5.0625-3.625 0.03125-2zm104.22 0.3125 3.3438 0.78125-0.84375 1.0625-32.969 1.375-2.5312-1.8438 33-1.375zm-104.25 1.8125 5.0313 3.625v1.9688l-5.0313-3.625v-1.9688zm70.313 0 2.3125 1.6875-29.75 24.062-2.1562 0.1875-0.59375-2.1562 30.188-23.781zm37 0.4375 2.5938 0.8125 0.0625 1.0938-33.094 1.2812-2.9062-2.0938 33.344-1.0938zm-34.312 1.5312 2.75 2.0312-29.594 24.125-2.1875-0.09375-0.53125-1.875 29.562-24.188zm-73 0.125 5.0313 3.625-0.03125 2.0938-5.0313-3.5938 0.03125-2.125zm110.44 0.625 3.25 0.875 0.09375 1.5625-34.094 0.53125-2.4375-1.7812 33.187-1.1875zm-104.81 0.65625 5.6562 4-0.03125 8.3438-5.75-4.3438 0.125-8zm70.469 0.875 2.5938 1.9062-28.719 24.719-2.375-0.15625-0.9375-2.2188 29.438-24.25zm-76.125 0.0625 5.0313 3.5938-0.03125 2.0938-5-3.5938v-2.0938zm6.25 0.28125 0.03125 6.2812 4.1562 3.0312 0.03125-6.4062-4.2188-2.9062zm0.5 1.0625 0.5 0.3125 1.375 2.8438 1.2188-1.1562 0.25 0.15625-0.03125 0.53125-1.1875 1.0625 1.0312 2.875-0.03125 0.5-0.46875-0.375-0.9375-2.8438-1.4688 1.0625-0.09375-0.0625v-0.34375l1.5-1.1562-1.625-2.8438-0.03125-0.5625zm107.81 0.03125 3.3125 0.90625-0.4375 1.1875-35.531-0.53125-1.7812-1.2812 34.437-0.28125zm-106.94 0.53125 1.9375 1.25-0.90625 0.875-1.0312-2.125zm71.375 0.15625 2.1875 1.5938-27.531 25.562-2.25-0.0625-0.59375-2 28.188-25.094zm-79 0.21875 5 3.5938-0.03125 1.5625 6.875 5v-1.6562l9.5312 6.8125-0.03125 1.375 6.7812 4.8125v-1.3125l8.75 6.3125-0.03125 1.875 6.7812 4.9062v-1.9688l9.9062 7.125v2.25l-53.563-38.469 0.03125-2.2188zm6.7813 0 1.1875 2.25-1.0938 0.875-0.09375-3.125zm75.844 1.5938 3.0938 0.03125 5.125 11.438-1.1875 2.125-2-0.875-5.0312-12.719zm-0.40625 0.03125 4.9062 12.875-1.8438 2.1875-2.3438-0.5625-3.6875-11.688 2.9688-2.8125zm4.0938 0.03125 4.7188 0.0625 4.2812 9.625-1.4375 2.3438-2.5-0.8125-5.0625-11.219zm5.3125 0.0625 4 0.03125 3.4375 8.125-1.1562 1.875-2.1562-0.59375-4.125-9.4375zm4.5 0.0625 3.2188 0.03125 3.1562 6.75-1.1562 2.125-1.8438-0.96875-3.375-7.9375zm3.9375 0.03125 3.6562 0.0625 2.625 5.1875-1.0625 2.0625-2.3438-0.75-2.875-6.5625zm4.375 0.0625 3.3438 0.03125 1.8438 3.875c-0.53088 0.1448-0.53906 1.699-0.84375 1.8438l-1.7812-0.8125-2.5625-4.9375zm3.9688 0.0625 3.0938 0.03125 1.3438 2.5938-0.96875 1.5625-1.5625-0.59375-1.9062-3.5938zm-96.5 0.03125 9.5312 6.8438v1.9688l-9.5625-6.8438 0.03125-1.9688zm100.09 0 3.4062 0.03125 0.5625 1.3438-0.84375 1.9062-1.7812-0.90625-1.3438-2.375zm4 0.0625 3.2812 0.03125-1.2812 1.75-1.5-0.6875-0.5-1.0938zm-105.94 0.125-0.15625 3.1562-0.6875-2.4375 0.84375-0.71875zm-10.094 0.1875 53.563 38.5-0.03125 2.1562-23.969-17.188v-0.875l-3.4688-2.6875 0.15625-0.375-2.8125-1.875-0.3125 0.125-3.3438-2.4062 0.09375-0.25-2.5312-1.7812-0.5-0.0625-1.3438-0.96875-1.0938 0.25-14.438-10.375 0.03125-2.1875zm119.41 0.4375v1.4688l-25.437 9.9375 1.875-2.3125 2.0625 0.5625 1.5938-1.9688 1.9688 0.625 1.5-1.9688 2.4375 0.5 1.4062-2 2.1875 0.4375 1.1875-1.7188 1.9375 0.375 1.1562-1.5625 2.0625 0.625 1.1875-1.875 1.6875 0.5 1.1875-1.625zm-111.03 0.8125 0.625 1.9062-1.6562-1.25 1.0312-0.65625zm3.5312 0.46875 9.5312 6.8438v2.0938l-9.5312-6.875v-2.0625zm107.5 0.40625 0.03125 2.0312-61.75 24.062-1.8438-1.3125 63.562-24.781zm-119.44 0.21875 14.281 10.25-2.125 0.5-12.156-8.75v-2zm78.969 0.0625 3.5312 11.562-1.375 2.0312-2.2188-0.625-2.9375-10.156 3-2.8125zm-67.031 1.5 9.5312 6.875-0.03125 2.0312-9.5312-6.8125 0.03125-2.0938zm107.53 0.46875v2.2188l-59.531 23.188-2-1.4062 61.531-24zm-119.47 0.09375 12.031 8.6562-2.4688 0.5625-9.5625-6.875-0.03125 0.03125 0.03125-2.375zm75.563 1.125 2.875 9.9688-1.5312 2.125-2.1875-0.6875-1.75-8.9688 2.5938-2.4375zm-53.469 0.375 5.5625 3.75-0.125 8.4062-5.5625-4.1562 0.125-8zm97.375 0.78125v1.875l-57.625 22.5-1.7188-1.2188 59.344-23.156zm-119.5 0.1875 9.4375 6.7812-0.0625 0.03125-2.375 0.53125-6.9688-5-0.03125 0.0625v-2.4062zm22.719 0.25 0.03125 6.2812 4.1562 3.0312 0.03125-6.4062-4.2188-2.9062zm0.5 1.0625 0.5 0.3125 1.375 2.8438 1.2188-1.1562 0.25 0.15625-0.03125 0.53125-1.1875 1.0625 1.0312 2.875-0.03125 0.5-0.46875-0.375-0.9375-2.8438-1.4688 1.0625-0.09375-0.0625v-0.34375l1.5-1.1562-1.625-2.8438-0.03125-0.5625zm49.375 0.15625 1.6562 8.7812-0.90625 1.6875-1.75-0.65625c-0.46244-2.5751-0.88332-5.1555-1.2188-7.75l2.2188-2.0625zm-48.5 0.40625 1.9375 1.25-0.90625 0.875-1.0312-2.125zm95.406 0v2.125l-55.562 21.656-1.9375-1.375 57.5-22.406zm-96.25 0.375 1.1875 2.25-1.0938 0.875-0.09375-3.125zm-23.25 0.25 6.7813 4.9062-0.46875 0.09375-0.03125 1.4688-0.28125 0.0625-6.0313-4.3438 0.03125-2.1875zm69.906 1.4375c0.23633 2.511 0.68988 5.0769 1.125 7.5625l-1.5 2.1875-2.4375-0.6875-0.5-5.9375 3.3125-3.125zm49.594 0.25 0.03125 2.1875-15.531 6.0625v-1.3125l-25.562 10.156v1.125l-12.312 4.7812-2-1.4062 55.375-21.594zm-28 0.09375 2.4688 0.65625-38.219 14.938-1.4375-1.0312v-0.1875l3.0938 0.09375 2.5625-2.2812 1.625 0.65625 1.5625-1.875 2.125 0.75 1.6875-2.25 2.7188 0.59375 1.8125-2.3438 2.0938 0.75 1.1562-2 2.2812 0.375 1.8125-1.9375 2.4062 0.4375 1.6875-2.0312 2.7188 0.40625 1.9688-2.2188 2.125 0.6875 1.75-2.1875zm-63.312 0.0625 8.875 6.375-0.03125 1.9062-8.8438-6.3438v-1.9375zm-1.6562 0.0625-0.15625 3.1562-0.6875-2.4375 0.84375-0.71875zm-26.563 0.40625 5.875 4.25-2.5 0.59375-3.375-2.4375v-2.4062zm15.5 1.0312 1.1562 0.78125-0.90625 0.25-1.0938-0.8125 0.84375-0.21875zm9.3438 0 0.625 1.9062-1.6562-1.25 1.0312-0.65625zm-10.312 0.25 1.0625 0.8125-1.2812 0.3125-1.0938-0.8125 1.3125-0.3125zm13.688 0.3125 8.8438 6.375-0.03125 2.0625-8.7812-6.3125-0.03125-2.125zm-15.125 0.03125 1.0938 0.8125-1.5 0.375-1.0938-0.8125 1.5-0.375zm106.47 0.125v2.0938l-15.531 6.0625v-2.0938l15.531-6.0625zm-102.09 0.21875 2.1562 1.625-8.9688 2.7188-2.5-1.8125 9.3125-2.5312zm-6 0.0625 1.0938 0.84375-1.5 0.375-1.0938-0.84375 1.5-0.375zm-1.6875 0.4375 1.0938 0.8125-1.6562 0.4375-1.125-0.8125 1.6875-0.4375zm-9.7813 0.09375 3.1875 2.3125-2.2812 0.53125-0.9375-0.6875 0.03125-2.1562zm66.031 0.21875 0.59375 5.625-1.3438 2-1.9062-0.75-0.375-4.0312 3.0312-2.8438zm-58.094 0.15625 1.0938 0.84375-1.0312 0.25-0.96875-0.875 0.90625-0.21875zm-1.1875 0.84375 0.9375 0.6875v1.2188l-0.96875-0.6875 0.03125-1.2188zm21.5 0.0625 8.7812 6.3125-0.03125 2.0938-8.75-6.3125v-2.0938zm-8.7812 0.15625 2.9688 2.2188-0.78125 0.1875-2.9688-2.1875 0.78125-0.21875zm100.09 0.03125v2.0625l-15.562 6.0625 0.03125-2.0625 15.531-6.0625zm-101.06 0.25 2.9375 2.1875-1.2188 0.28125-2.9062-2.125 1.1875-0.34375zm-12.219 0.3125v0.4375l-0.40625-0.3125 0.40625-0.125zm10.844 0.09375 2.8438 2.125-1.4062 0.34375-2.8125-2.0938 1.375-0.375zm-11.375 0.0625 0.53125 0.40625-0.03125 0.53125-0.71875 0.1875-1.0938-0.8125 1.3125-0.3125zm-5.7813 0.0625 0.84375 0.625-0.375 0.0625-0.46875-0.3125v-0.375zm4.3438 0.28125 1.0938 0.8125-1.5 0.375-1.0938-0.8125 1.5-0.375zm3.8125 0 2.0938 1.5-0.1875 7.8125-2.0312-1.3438 0.125-7.9688zm-1.4062 0.03125 0.96875 0.75-0.03125 1.4688-0.96875-0.75 0.03125-1.4688zm8.8125 0 2.7812 2.0938-1.4062 0.34375-2.75-2.0312 1.375-0.40625zm-12.844 0.375 1.0938 0.84375-1.5 0.375-1.0938-0.84375 1.5-0.375zm11.25 0.09375 2.7188 2.0312-1.6562 0.40625-2.6562-1.9688 1.5938-0.46875zm23.719 0.3125 5.5625 3.75-0.03125 8.5-5.6562-4.25 0.125-8zm-36.656 0.03125 1.0938 0.8125-1.6562 0.4375-1.125-0.8125 1.6875-0.4375zm61.531 0.125 0.28125 3.8125-1.4062 1.9062-1.3125-0.84375-0.25-2.3438 2.6875-2.5312zm-56.281 0.03125-0.09375 2.4062-4.2813 1.2812-2.5-1.8125 6.875-1.875zm5.9062 0 2.625 1.9688-0.84375 0.21875-2.625-1.9375 0.84375-0.25zm11.312 0.09375 2.375 1.625-9.1562 2.9062-2.3125-1.7812 9.0938-2.75zm96.094 0.0625 0.03125 2.3125-1.8438 0.71875c-0.12357-0.019496-0.251-0.04849-0.375-0.0625-0.06869-0.003938-0.21202 0.19207-0.28125 0.1875-0.07565-0.004999-0.08016-0.21364-0.15625-0.21875-0.24014-0.016117-0.47896-0.02806-0.71875-0.03125-0.09657-0.005298-0.24721 0.31332-0.34375 0.3125-0.09072-7.7e-4 -0.12806-0.31426-0.21875-0.3125-0.26183 0.005102-0.51955 0.02716-0.78125 0.03125-0.06388 0.003376-0.1237 0.30843-0.1875 0.3125-0.06057 0.003871-0.12702-0.28575-0.1875-0.28125-0.25591 0.019067-0.49676 0.03117-0.75 0.0625-0.08257 0.010217-0.16781 0.33213-0.25 0.34375-0.07696 0.010874-0.17342-0.29339-0.25-0.28125-0.25306 0.040122-0.50215 0.10147-0.75 0.15625-0.06584 0.014558-0.09084 0.2656-0.15625 0.28125-0.0698 0.016692-0.18074-0.20548-0.25-0.1875-0.24382 0.063261-0.4825 0.13882-0.71875 0.21875-0.06247 0.021128-0.06313 0.29014-0.125 0.3125-0.05887 0.021269-0.16045-0.2099-0.21875-0.1875-0.2754 0.10582-0.55126 0.21138-0.8125 0.34375-0.08013 0.040603-0.14011 0.39427-0.21875 0.4375-0.08269 0.045458-0.16904-0.20469-0.25-0.15625-0.33133 0.19828-0.67007 0.40476-0.96875 0.65625-0.0547 0.046052-0.04383 0.35491-0.09375 0.40625-0.07305 0.07512-0.20556-0.10558-0.28125-0.03125-0.33537 0.32934-0.65925 0.67731-0.9375 1.0938-0.03891 0.2023-0.10563 0.43423-0.15625 0.65625l-3.3125 1.2812v-2.2812l15.562-6.0938zm-120.41 0.15625 1.0938 0.84375-1.0312 0.25-0.96875-0.875 0.90625-0.21875zm7.5 0.34375 1 0.75v1.7188l-1.0312-0.75 0.03125-1.7188zm4.2188 0.09375 2.9688 2.1875v1.2188l-3.0312-2.1875 0.0625-1.2188zm92.594 0.25-0.0625 17.75-0.6875 0.25v-16.531l-22.844 9.3125v12.031c-0.090938-0.72276-0.2038-1.4485-0.375-2.1875l-0.03125 0.03125c-0.022802-0.29699-0.097678-0.59797-0.3125-0.96875-0.072775-0.043258-0.14456-0.084534-0.21875-0.125l-0.09375-9.7188 24.625-9.8438zm-65.219 0.03125 0.03125 6.2812 4.1562 3.0312 0.03125-6.4062-4.2188-2.9062zm-40.281 0.125 0.9375 0.6875v1.2188l-0.96875-0.6875 0.03125-1.2188zm40.781 0.9375 0.5 0.3125 1.375 2.8438 1.2188-1.1562 0.25 0.15625-0.03125 0.53125-1.1875 1.0625 1.0312 2.875-0.03125 0.5-0.46875-0.375-0.9375-2.8438-1.4688 1.0625-0.09375-0.0625v-0.34375l1.5-1.1562-1.625-2.8438-0.03125-0.5625zm-27.938 0.0625 3.0312 2.25-0.03125 1.375-3.0625-2.25 0.0625-1.375zm14.531 0.15625 2.8125 2.0938-0.6875 0.1875-2.8125-2.0625 0.6875-0.21875zm-26 0.15625 2.0938 1.5-0.1875 7.8125-2.0312-1.3438 0.125-7.9688zm-1.4062 0.03125 0.96875 0.75-0.03125 1.4688-0.96875-0.75 0.03125-1.4688zm8.6875 0.03125 1.0312 0.78125-0.03125 1.75-1.0625-0.78125 0.0625-1.75zm17.75 0.09375 2.7812 2.0625-1.0625 0.3125-2.7812-2.0625 1.0625-0.3125zm95.219 0v1.0625c-0.00845-0.00357-0.0228 0.003537-0.03125 0-0.04748-0.019867-0.10851 0.33134-0.15625 0.3125-0.05117-0.020204-0.07356-0.38722-0.125-0.40625-0.25024-0.092547-0.49441-0.18415-0.75-0.25-0.0615-0.015851-0.15701 0.2331-0.21875 0.21875-0.07037-0.016364-0.11686-0.29805-0.1875-0.3125-0.0299-0.006116-0.06381 0.005778-0.09375 0l1.5625-0.625zm-113.44 0.03125-0.03125 0.8125-0.75-0.5625 0.78125-0.25zm33.469 0 1.9375 1.25-0.90625 0.875-1.0312-2.125zm19.719 0.28125 0.15625 2.125-2.0312 2.25-2.0938-0.65625 3.9688-3.7188zm-54.188 0.03125 0.96875 0.71875-0.03125 1.625-2.5313-1.875 1.5938-0.46875zm17.906 0.0625 2.7188 2.0625-1.25 0.375-2.7812-2.0312 1.3125-0.40625zm15.719 0 1.1875 2.25-1.0938 0.875-0.09375-3.125zm-24.5 0.25 2.2188 1.875-0.34375 7.875-1.9375-1.5 0.0625-8.25zm87.906 0v0.75l-21.062 23.344-0.5 0.21875-0.03125-0.875 20.437-22.938 1.1562-0.5zm-98.812 0.1875 2.625 1.9688-0.84375 0.21875-2.625-1.9375 0.84375-0.25zm18.125 0.03125 2.7188 2.0625-1.2812 0.375-2.7188-2.0312 1.2812-0.40625zm-10.75 0.25 3.0625 2.3125v1.5938l-3.125-2.2812 0.0625-1.625zm104.94 0c0.02114 7.42e-4 0.04137-8.6e-4 0.0625 0l-0.0625 0.84375c-0.30959-0.022298-0.6143-0.06377-0.90625-0.0625v-0.71875c0.30128-0.013938 0.60846-0.05374 0.90625-0.0625zm0.21875 0c0.32799 0.017922 0.64579 0.04509 0.96875 0.09375l-0.125 0.84375c-0.28975-0.042848-0.57053-0.06937-0.84375-0.09375v-0.84375zm-1.3125 0.0625-0.03125 0.71875c-0.32703 0.008152-0.65831 0.02524-0.96875 0.0625v-0.71875c0.33123-0.031128 0.66738-0.04526 1-0.0625zm-1.1875 0.0625-0.03125 0.71875c-0.28709 0.040822-0.56564 0.12243-0.84375 0.1875l-0.03125-0.78125c0.29848-0.050038 0.60176-0.09324 0.90625-0.125zm3.6562 0c0.35965 0.061492 0.71042 0.17537 1.0625 0.28125v0.78125c-0.38284-0.085998-0.7395-0.12906-1.0938-0.1875l0.03125-0.875zm-97.125 0.125 2.6875 2.0312-1.4688 0.4375-2.6875-2 1.4688-0.46875zm92.375 0.03125 0.0625 0.78125c-0.33923 0.085062-0.66586 0.19278-1 0.3125l-0.03125-0.875c0.31465-0.090658 0.64078-0.15845 0.96875-0.21875zm-114.44 0.09375 1 0.75v1.7188l-1.0312-0.75 0.03125-1.7188zm120.41 0.0625c0.31355 0.10071 0.631 0.23418 0.9375 0.375l-0.03125 0.625c-0.29247-0.078628-0.59911-0.15452-0.875-0.21875l-0.03125-0.78125zm-116.19 0.03125 2.9688 2.1875v1.2188l-3.0313-2.1875 0.0625-1.2188zm97.937 0-3.625 4.0938-5.3125 1.9375-0.03125-2.0625 8.9687-3.9688zm11.156 0.09375c-0.0144 0.30237-0.0481 0.60277-0.0625 0.90625-0.31582 0.12128-0.64881 0.2558-0.96875 0.40625v-0.90625c0.33123-0.16207 0.67398-0.29553 1.0312-0.40625zm-104.62 0.15625 1.0625 0.8125v1.125l-1.0938-0.78125 0.03125-1.1562zm11.594 0.09375 2.6875 2-0.71875 0.21875-2.6875-2 0.71875-0.21875zm25.656 0.0625 9.875 7.0938v1.9375l-9.9062-7.0938 0.03125-1.9375zm75.562 0c0.08291 0.040132 0.16766 0.08169 0.25 0.125 0.20474 0.26367 0.33234 0.45884 0.375 0.65625-0.24433-0.072958-0.45448-0.12373-0.6875-0.1875l0.0625-0.59375zm-17.188 0.21875-0.03125 1.3438-1.75 0.65625 1.7812-2zm7.7188 0v0.90625c-0.34503 0.16903-0.70282 0.36206-1.0625 0.5625l-0.03125-0.71875c0.33504-0.30629 0.70598-0.53809 1.0938-0.75zm-81.062 0.125 0.3125 8.2812-8.6875 2.6875 0.03125-8.625 8.3438-2.3438zm85.219 0.0625c0.60744-0.031618 1.2139-0.01819 1.8125 0.03125 1.3912 0.1149 2.7392 0.40963 4.0938 0.75-0.054 0.16006-0.16063 0.32972-0.3125 0.46875-0.03276 0.029988 0.00516 0.40793-0.03125 0.4375-0.03914 0.031793-0.14454-0.31278-0.1875-0.28125-0.33343 0.30305-0.76721 0.45704-1.1562 0.65625-0.05907 0.0233-0.09637 0.32082-0.15625 0.34375-0.05992 0.022943-0.12807-0.24087-0.1875-0.21875-0.46677 0.17375-0.95706 0.33294-1.4375 0.46875-0.04714 0.013329-0.01528 0.26832-0.0625 0.28125-0.04407 0.012069-0.17462-0.23047-0.21875-0.21875-0.40951 0.10882-0.80804 0.20375-1.2188 0.28125-0.0528 0.009961-0.1035 0.24058-0.15625 0.25-0.04969 0.008873-0.10661-0.19588-0.15625-0.1875-0.42244 0.071357-0.83467 0.13181-1.25 0.15625-0.06493 0.003821-0.12287 0.24731-0.1875 0.25-0.07536 0.003138-0.17508-0.25158-0.25-0.25-0.43687 0.009223-0.86452-0.01499-1.2812-0.0625-0.06765-0.007713-0.12052 0.29055-0.1875 0.28125-0.06878-0.00956-0.15072-0.33249-0.21875-0.34375-0.41513-0.0687-0.80543-0.14515-1.1875-0.28125-0.06657-0.023721-0.2471 0.27588-0.3125 0.25-0.07053-0.027913-0.02463-0.40703-0.09375-0.4375-0.37014-0.16317-0.73869-0.35316-1.0625-0.59375-0.03026-0.022479-0.15769 0.17944-0.1875 0.15625-0.03496-0.027202 0.03433-0.28432 0-0.3125 1.906-1.2525 3.7714-1.7801 5.5938-1.875zm-72 0.15625-0.15625 3.1562-0.6875-2.4375 0.84375-0.71875zm-25.031 0.125 2.8438 2.0938v1.2188l-2.9062-2.125 0.0625-1.1875zm-6.3438 0.25 3.125 2.375-0.03125 1.6875-3.1562-2.375 0.0625-1.6875zm-8.6563 0.0625 3.0313 2.25-0.03125 1.375-3.0625-2.25 0.0625-1.375zm106.62 0.125-0.03125 0.6875c-0.13653 0.077582-0.26663 0.13696-0.40625 0.21875-0.06046-0.056688-0.12934-0.09613-0.1875-0.15625 0.19022-0.27066 0.40432-0.53108 0.625-0.75zm-79 0.03125 23.969 17.219v2l-23.969-17.219v-2zm-31.813 0.21875 1.0312 0.78125-0.03125 1.75-1.0625-0.78125 0.0625-1.75zm8.3438 0.125 2.4062 1.75-0.6875 0.21875-2.3125-1.7812 0.59375-0.1875zm21.906 0.125-6.4688 1.8125-0.34375 6.625 6.5625-2.1875 0.25-6.25zm92.312 0.03125c0.14502 0.50764 0.25282 1.0099 0.34375 1.5-0.26684 0.12735-0.56046 0.24909-0.84375 0.375-0.0331-0.44923-0.07178-0.89696-0.125-1.3438 0.24606-0.16182 0.45573-0.34608 0.625-0.53125zm-92.625 0.15625-0.03125 0.4375-0.40625-0.3125 0.4375-0.125zm-0.53125 0.15625 0.5 0.4375-0.03125 1.125-1.7812-1.1562 1.3125-0.40625zm74.906 0-0.03125 3.9062-7.1562 2.4375 4.875-5.4688 2.3125-0.875zm-61.812 0.03125 0.625 1.9062-1.6562-1.25 1.0312-0.65625zm3.4375 0.0625 9.9062 7.125v2.0625l-9.9062-7.0625v-2.125zm-38.281 0.0625 2.2188 1.875-0.34375 7.875-1.9375-1.5 0.0625-8.25zm11.469 0.03125 2.875 2.1875v1.2812l-2.9375-2.1875 0.0625-1.2812zm102.66 0.125c0.04777 0.43689 0.09462 0.87413 0.125 1.3125-0.46913 0.20522-0.9582 0.44035-1.4688 0.625-0.01459-0.42771-0.04008-0.85316-0.0625-1.2812 0.16645-0.050428 0.34693-0.10913 0.5-0.15625 0.32616-0.16001 0.63289-0.33215 0.90625-0.5zm-93.906 0.15625 2 1.25-0.0625 1.9375-3.7812-2.625 1.8438-0.5625zm-23.75 0.15625 3.0625 2.3125v1.5938l-3.125-2.2812 0.0625-1.625zm106 0.0625c0.06604 0.071132 0.14842 0.1225 0.21875 0.1875-0.07873 0.49234-0.16235 0.95099-0.21875 1.4062-0.15913-0.063828-0.30843-0.11644-0.46875-0.1875 0.13444-0.46072 0.28013-0.93953 0.46875-1.4062zm-0.6875 0.15625c-0.08482 0.36317-0.16889 0.71994-0.25 1.0625-0.13482-0.050688-0.27074-0.10156-0.40625-0.15625-0.19712 0.58431-0.42317 1.1552-0.4375 1.8125l-2.1875 0.84375v-2.2812l3.2812-1.2812zm-96.687 0.09375 3.1875 2.375v0.96875l-3.2188-2.3438 0.03125-1zm97.719 0.0625c0.39385 0.33177 0.84935 0.57523 1.3438 0.75-0.04718 0.35085-0.06147 0.70569-0.09375 1.0625-0.46304-0.12282-0.93169-0.28607-1.4062-0.46875 0.04966-0.44959 0.08644-0.90176 0.15625-1.3438zm9.75 0c0.02216 0.43811 0.04828 0.87439 0.0625 1.3125-0.49086 0.17307-1.0057 0.30107-1.5312 0.4375-0.01793-0.4362-0.03203-0.87485-0.0625-1.3125 0.54828-0.14265 1.0585-0.29546 1.5312-0.4375zm-94.344 0.0625-0.03125 0.0625 3.9688 2.7188-0.0625 1.8438-5.5-4.125 1.625-0.5zm5.9375 0.25 23.969 17.219v1.1562c-0.029088 0.023701-0.064989 0.038284-0.09375 0.0625-0.054694 0.046053-0.04383 0.32366-0.09375 0.375-0.073051 0.07512-0.20556-0.07433-0.28125 0-0.068183 0.066958-0.12055 0.14983-0.1875 0.21875l-23.281-16.719-0.03125-2.3125zm-31.875 0.03125 1.0625 0.8125v1.125l-1.0938-0.78125 0.03125-1.1562zm123.25 0.09375c0.49731-0.059518 1.0197 0.35347 0.46875 1.25-1.0105 0.6772-2.0751 1.1744-3.1875 1.5312-1.6e-4 -0.010378 1.5e-4 -0.02087 0-0.03125l-0.125 0.0625c-4.2248 1.312-8.8577 0.58507-11.562-0.5-0.2464-0.3675-0.04599-1.092 0.21875-1.3438 3.567 1.2575 8.344 1.9988 14.188-0.96875zm-4.6562 0.03125c0.02699 0.44172 0.04483 0.87458 0.0625 1.3125-0.48681 0.12144-0.98615 0.20506-1.5 0.28125v-1.2812c0.49299-0.096318 0.97263-0.19405 1.4375-0.3125zm-107.41 0.09375 2.7188 2-0.34375 0.09375-2.6875-2 0.3125-0.09375zm12.938 0.09375 5.5312 4.125-2 0.5625c-1.7145-1.4063-2.047-1.4681-3.5312-2.9688v-1.7188zm-5 0.125 2.9375 2.1875-0.03125 1.5938-2.9688-2.2188 0.0625-1.5625zm92.906 0.03125c0.50651 0.16129 1.0556 0.21291 1.625 0.25-0.02568 0.36301-0.0438 0.72751-0.0625 1.0938-0.53571-0.062998-1.0709-0.17393-1.625-0.3125 0.02597-0.3443 0.0257-0.6883 0.0625-1.0312zm4.9688 0v1.2812c-0.46924 0.064302-0.94774 0.10882-1.4375 0.125v-1.1875c0.48601-0.050028 0.95658-0.12852 1.4375-0.21875zm-60.344 0.09375c0.042504-0.013699 0.079493-0.011323 0.125 0 0.052008 0.012941 0.10477 0.043788 0.15625 0.09375l15.062 10.938c0.22967 0.16897 0.97727 0.79367-0.0625 1.4375l-0.65625-0.46875c0.19271-0.24529 0.45279-0.4058 0.84375-0.625l-0.15625-0.28125c-0.67909 0.06436-0.79535 0.40154-0.84375 0.78125l-14.5-10.438c-0.45988-0.66909-0.26628-1.3416 0.03125-1.4375zm35.75 0.0625v2l-5.8438 2.1562-2.5625-0.875 8.4062-3.2812zm23 0.09375v1.1875c-0.5294 0.011252-1.0739-0.00573-1.625-0.0625 0.01568-0.36552 0.04385-0.73004 0.0625-1.0938 0.50728 0.022302 1.0353 0.01718 1.5625-0.03125zm-104.94 0.125 2.8438 2.0938v1.2188l-2.9062-2.125 0.0625-1.1875zm35.531 0.15625 9.9062 7.0938-0.03125 2.0625-9.9062-7.125 0.03125-2.0312zm52 0.03125-4.6562 5.25-0.03125-3.4688 4.6875-1.7812zm-93.875 0.0625 3.125 2.375-0.03125 1.6875-3.1563-2.375 0.0625-1.6875zm119.06 0.9375c0.04643 1.3289-0.06137 2.6152-0.34375 3.875-0.21713 0.10127-0.45872 0.18207-0.6875 0.28125 0.05703-1.2424 0.08226-2.4847 0.0625-3.7188 0.32476-0.14061 0.64082-0.27295 0.96875-0.4375zm-99.031 0.21875c1.3035 1.1981 1.792 1.6489 3.25 2.8125l-1.4688 0.40625-1.7812-1.5625v-1.6562zm-5.0938 0.03125 2.9688 2.25-0.03125 1.625-3.0312-2.25 0.09375-1.625zm-8.6562 0.03125 2.875 2.1875v1.2812l-2.9375-2.1875 0.0625-1.2812zm98.031 0.09375c0.00661 0.16314-0.00684 0.32366 0.03125 0.5 0.12198 0.009312 0.25253 0.02069 0.375 0.03125-0.04996 0.47177-0.04801 0.94115-0.0625 1.4062l-2.5625 1v-2.0625l2.2188-0.875zm-76.531 0.03125 23.188 16.656c-0.22896 0.24249-0.46055 0.48836-0.65625 0.78125-0.057285 0.29783-0.14032 0.63704-0.21875 0.96875l-22.312-16.031v-2.375zm24.656 0 1.1875 0.875-1.2188 0.46875 0.03125-1.3438zm65.5 0.09375c0.02092 1.2348 0.02294 2.476-0.03125 3.7188-0.47664 0.20349-0.97763 0.38131-1.5 0.5625 0.02179-1.2358 0.01679-2.4819 0-3.7188 0.50682-0.16127 1.016-0.34506 1.5312-0.5625zm-107.5 0.15625 1.0312 0.75-0.53125 0.15625-0.34375 6.625 1.0625-0.34375-0.03125 1-1.8438 0.59375 0.03125-8.625 0.625-0.15625zm94.656 0.28125c0.26528 0.076092 0.54255 0.14964 0.8125 0.21875-0.0685 1.4452-0.02396 2.6789 0.0625 3.8438-0.27694-0.097562-0.56425-0.19508-0.84375-0.3125-0.12328-1.2549-0.18089-2.526-0.03125-3.75zm-4.875 0.0625-0.03125 2.9062-6.5625 2.3125-2.75-0.78125 1.5625-1.75 7.7812-2.6875zm-100.31 0.03125 3.1875 2.375v0.96875l-3.2188-2.3438 0.03125-1zm88.375 0.09375v3.4688l-0.15625 0.0625-4.8438-1.625 5-1.9062zm27.969 0c0.00928-0.002858 0.02196 0.00288 0.03125 0 0.01397 1.237-0.01123 2.4829-0.03125 3.7188-0.47993 0.16217-0.98624 0.30796-1.5 0.4375 0.02617-1.2587 0.02288-2.5127 0-3.7812 0.49212-0.10409 0.99921-0.22089 1.5-0.375zm-10.188 0.0625c0.47205 0.11793 0.95179 0.22119 1.4375 0.3125-0.03762 1.2952 0.02798 2.6321 0.09375 3.9688-0.49729-0.11217-0.9925-0.23265-1.5-0.40625-0.07563-1.3139-0.09356-2.6103-0.03125-3.875zm-52.219 0.25 0.375 0.28125v1.75l-1.7812 0.6875-0.03125-0.03125v-2.125l1.4375-0.5625zm53.875 0.09375c0.55513 0.098812 1.1156 0.19522 1.6875 0.25-0.02471 1.3052-0.00555 2.6328 0.03125 3.9688-0.55698-0.050692-1.1139-0.12726-1.6875-0.25-0.04814-1.3259-0.06868-2.6539-0.03125-3.9688zm-96.031 0.03125 0.25 0.1875-0.09375 0.03125v0.1875l-0.4375-0.3125 0.28125-0.09375zm102.91 0c0.02484 1.2668 0.02209 2.5338 0 3.7812-0.50363 0.12212-1.0305 0.20267-1.5625 0.28125v-3.875c0.51433-0.054398 1.0377-0.08189 1.5625-0.1875zm-103.37 0.1875 0.625 0.46875-0.0625 1.7812c-0.17739-0.15787-0.33864-0.30492-0.5625-0.53125v-1.7188zm65.344 0v2.0312l-10.25 4-1.8438-1.3125 12.094-4.7188zm36.312 0.03125 0.03125 3.875c-0.48249 0.067368-0.96587 0.1026-1.4688 0.125v-3.9062c0.47266-0.006458 0.95515-0.04727 1.4375-0.09375zm-3.2812 0.03125c0.557 0.047952 1.1155 0.06525 1.6875 0.0625l0.03125 3.9375c-0.55823 0.020118-1.1389-0.01603-1.7188-0.0625-0.02719-1.3204-0.02474-2.6377 0-3.9375zm-103.37 0.0625 2.9375 2.1875-0.03125 1.5938-2.9688-2.2188 0.0625-1.5625zm8.625 0.25 3.0312 2.3125v0.78125l-3.0625-2.2188 0.03125-0.875zm5.1875 0 1.5938 1.375-1.5938 0.4375v-1.8125zm34.75 0 11.562 8.4688-0.5625 6.5-11-7.9062v-7.0625zm24.406 0.0625 9.1875 3-0.8125 0.9375-9.0312-3.0938-0.09375-0.65625 0.75-0.1875zm-66.656 0.0625h0.0625l1.125 0.8125-0.21875 0.0625-0.96875-0.875zm92.094 0.21875c-0.01536 0.65122-0.00402 1.2998 0.03125 1.9688 5.6e-4 0.010618-5.7e-4 0.020623 0 0.03125l-2.5938 1 0.03125-2 2.5312-1zm-92.375 0.40625 0.9375 0.6875v1.2188l-0.96875-0.6875 0.03125-1.2188zm15.531 0.0625 22.281 16.031c-0.06421 0.26856-0.1278 0.52911-0.1875 0.78125-0.13481-0.050687-0.27074-0.10156-0.40625-0.15625-0.1006 0.29821-0.19642 0.60272-0.28125 0.90625l-14.031-10.062v-0.5l-3.4688-2.6875 0.15625-0.375-2.8125-1.875-0.3125 0.125-1.5312-1.125 0.59375-0.15625v-0.90625zm-13.562 0.5 0.5625 0.40625 1.9062 1.4062-0.53125 0.15625-2.5-1.8125 0.5625-0.15625zm64.312 0.15625 0.84375 0.28125-0.84375 0.3125v-0.59375zm-24.312 0.0625v1.9062l-1.8125 0.6875v-1.9375l0.0625 0.03125 1.75-0.6875zm-42.969 0.03125c0.21965 0.20189 0.36838 0.3273 0.53125 0.46875l-0.0625 1.625-0.46875-0.4375v-1.6562zm-5.0938 0.03125 2.9688 2.25-0.03125 1.625-3.0312-2.25 0.09375-1.625zm50.156 0.21875-0.125 5.25 0.84375 0.5625 4.5625-2.0938-5.2812-3.7188zm20.25 0.0625-0.03125 2.0625-8.25 3.1875c-0.01694-0.02916-0.013515-0.064905-0.03125-0.09375l-1.75-1.25 10.062-3.9062zm42.687 0.09375c0.06633 0.52541 0.27415 1.1106-0.34375 1.75-4.2828 1.5524-8.613 2.9829-14.438 0.5625-0.13533-0.52079-0.25808-1.5067 0.3125-1.4062 5.8599 2.0258 9.5286 0.695 14.469-0.90625zm-105.62 0.09375 2.0938 1.5-0.1875 7.8125-2.0312-1.3438 0.125-7.9688zm66.656 0 4.7188 1.5625-6.4062 2.1562-0.0625-3.0625 1.75-0.65625zm-68.062 0.03125 0.96875 0.75-0.03125 1.4688-0.96875-0.75 0.03125-1.4688zm14.25 0 1.4688 1.0938-0.78125 0.1875-1.4688-1.0938 0.78125-0.1875zm73.687 0.1875-0.03125 2.6875-1.4688 0.5625-4.2188-1.2188 5.7188-2.0312zm-74.656 0.0625 1.4375 1.0938-1.2188 0.28125-1.4375-1.0312 1.2188-0.34375zm78.937 0.28125c-0.34218 0.6264-0.62108 1.2452-0.21875 2 0.08443 0.006445 0.17289 0.047737 0.25 0.09375l-2.4062 0.9375v-2.0938l2.375-0.9375zm-80.375 0.125 1.4062 1.0312-1.4062 0.34375-1.3438-1.0312 1.3438-0.34375zm4.9062 0.40625 2.375 1.625-9.1562 2.9062-2.3125-1.7812 9.0938-2.75zm-6.5 0.03125 1.3438 1-1.4062 0.34375-1.3125-0.96875 1.375-0.375zm-5.5625 0.09375 1.4062 1.0312 0.71875-0.1875 1.25 0.90625-0.84375 0.21875-2.625-1.9375 0.09375-0.03125zm-10.844 0.1875 3.0312 2.3125v0.78125l-3.0625-2.2188 0.03125-0.875zm5.1875 0 0.46875 0.40625-0.03125 1.3125-0.4375 0.09375v-1.8125zm9.5938 0.15625 1.3125 0.96875-1.6562 0.40625-1.25-0.9375 1.5938-0.4375zm33.344 0v2.0938l-1.8125 0.71875 0.03125-2.125 1.7812-0.6875zm36.344 0.0625 9.5937 2.875v0.625l-0.8125 0.3125-9.875-2.5938 1.0938-1.2188zm-78.375 0.03125 1 0.75v1.7188l-1.0312-0.75 0.03125-1.7188zm4.2188 0.09375 2.9688 2.1875v1.2188l-3.0312-2.1875 0.0625-1.2188zm69.375 0.0625 1.4688 0.46875-2.625 2.9375-5.9688 2.0938-0.03125-3.0312 7.1562-2.4688zm-9.2188 0.25v2.2812l-2.8438 1.125c-0.24015-0.01612-0.47896-0.02806-0.71875-0.03125-0.096567-0.005301-0.27846 0.31332-0.375 0.3125-0.090718-7.74e-4 -0.096805-0.31426-0.1875-0.3125-0.26183 0.005099-0.5508 0.02716-0.8125 0.03125-0.063881 0.00338-0.12371 0.30843-0.1875 0.3125-0.060572 0.003868-0.095773-0.317-0.15625-0.3125-0.25591 0.019071-0.52801 0.06242-0.78125 0.09375-0.082571 0.010221-0.16782 0.33213-0.25 0.34375-0.076966 0.01087-0.14217-0.29339-0.21875-0.28125-0.25307 0.040118-0.50215 0.10147-0.75 0.15625-0.06585 0.014562-0.090841 0.2656-0.15625 0.28125-0.069797 0.016689-0.18074-0.20548-0.25-0.1875-0.054415 0.014118-0.10232 0.047244-0.15625 0.0625l-0.0625 0.125c-0.017538-0.2826-0.10889-0.56876-0.25-0.84375l8.1562-3.1562zm41.375 0.25c0.0093-0.003632 0.02194 0.00365 0.03125 0 0.0576 0.15653 0.00168 0.28595-0.0625 0.40625 0.00572-0.1354 0.02374-0.27036 0.03125-0.40625zm-0.125 0.0625c-0.00923 0.17753-0.02324 0.35434-0.03125 0.53125-0.15614 0.1712-0.35089 0.34985-0.46875 0.53125-0.30634 0.22631-0.63735 0.41787-0.96875 0.59375 0.00877-0.39591 0.0201-0.79065 0.03125-1.1875 0.46653-0.14232 0.96374-0.28729 1.4375-0.46875zm-13.188 0.375c0.10007 0.065453 0.20121 0.11448 0.3125 0.125 0.02266 0.10386 0.02022 0.20878 0.03125 0.3125l-2.875 1.1875v-0.625l2.5312-1zm11.625 0.125c-0.01 0.40732-0.02264 0.81241-0.03125 1.2188-0.49931 0.25387-1.0233 0.46545-1.5625 0.625 0.01657-0.47921 0.04663-0.95756 0.0625-1.4375 0.50718-0.10825 1.0152-0.2523 1.5312-0.40625zm-10.75 0.03125c0.22545 0.065834 0.45991 0.12935 0.6875 0.1875 0.03717 0.33548 0.0577 0.66856 0.09375 1-0.22011-0.15352-0.44912-0.30158-0.65625-0.46875-0.04869-0.23038-0.0813-0.49145-0.125-0.71875zm0.8125 0.21875c0.46333 0.1153 0.93407 0.19962 1.4062 0.28125 0.03453 0.51003 0.05643 1.0207 0.09375 1.5312-0.48997-0.1867-0.94116-0.42968-1.375-0.71875-0.04689-0.36619-0.08697-0.73095-0.125-1.0938zm-89.969 0.03125 3.0312 2.25-0.03125 1.375-3.0625-2.25 0.0625-1.375zm73.312 0.125 0.25 0.0625-0.25 0.09375v-0.15625zm-58.781 0.03125 2.8125 2.0938-0.6875 0.1875-2.8125-2.0625 0.6875-0.21875zm83.719 0c-0.01489 0.48151-0.04587 0.95861-0.0625 1.4375-0.48008 0.13581-0.97125 0.2349-1.4688 0.3125v-1.5c0.50823-0.061616 1.0138-0.14323 1.5312-0.25zm-6.75 0.125c0.55383 0.091894 1.1215 0.17678 1.6875 0.21875 0.02214 0.5404 0.06625 1.0819 0.09375 1.625-0.59771 4.24e-4 -1.163-0.12614-1.6875-0.3125-0.03069-0.51108-0.0653-1.0201-0.09375-1.5312zm-95.687 0.09375 1.0312 0.78125-0.03125 1.75-1.0625-0.78125 0.0625-1.75zm49.781 0-5.0312 2.375 1.125 0.875 4.9688-2.5-1.0625-0.75zm51 0.03125v1.5312c-0.48566 0.071364-0.97891 0.09481-1.4688 0.125v-1.5312c0.48777-0.015966 0.97225-0.06826 1.4688-0.125zm-22.187 0.03125 4.4375 1.2188-5.5 2.125-0.03125-2.9688 1.0938-0.375zm-60.844 0.03125 2.7812 2.0625-1.0625 0.3125-2.7812-2.0625 1.0625-0.3125zm79.781 0.03125c0.54847 0.036054 1.0963 0.04567 1.6562 0.03125v1.5312c-0.53676 0.029874-1.0673 0.06465-1.5938 0.0625-0.02077-0.543-0.04651-1.0837-0.0625-1.625zm-20.969 0.0625v0.0625l-0.09375 0.03125 0.09375-0.09375zm11.437 0v0.15625l-0.28125-0.0625 0.28125-0.09375zm-45.937 0.15625v1.6562l0.46875 0.34375-2.2812 0.90625v-2.25l0.03125 0.03125 1.7812-0.6875zm-25.625 0.15625 2.7188 2.0625-1.25 0.375-2.7812-2.0312 1.3125-0.40625zm-8.7812 0.25 2.2188 1.875-0.34375 7.875-1.9375-1.5 0.0625-8.25zm68.906 0.03125-0.03125 3-4.8125 1.8438 4.0938-4.5938 0.75-0.25zm-61.688 0.1875 2.7188 2.0625-1.2812 0.375-2.7188-2.0312 1.2812-0.40625zm49.531 0.03125v1.625c-0.071715-0.032465-0.14689-0.063685-0.21875-0.09375-0.047486-0.01987-0.13976 0.33134-0.1875 0.3125-0.051171-0.0202-0.073554-0.41847-0.125-0.4375-0.25024-0.09255-0.4944-0.1529-0.75-0.21875-0.061503-0.015847-0.15701 0.20185-0.21875 0.1875-0.070367-0.016359-0.11686-0.2668-0.1875-0.28125-0.24583-0.050293-0.47074-0.09698-0.71875-0.125-0.068685-0.003941-0.21202 0.19207-0.28125 0.1875-0.037827-0.002501-0.042405-0.040327-0.0625-0.09375l2.75-1.0625zm-60.281 0.21875 3.0625 2.3125v1.5938l-3.125-2.2812 0.0625-1.625zm46.094 0.09375-3.9062 1.9062 3.8125 2.9375 0.09375-4.8438zm-36.906 0.15625 2.6875 2.0312-1.4688 0.4375-2.6875-2 1.4688-0.46875zm70.812 0.125 2.2812 0.625-8.875 3.4375v-1.6875l6.5937-2.375zm-84.187 0.34375 1.0625 0.8125v1.125l-1.0938-0.78125 0.03125-1.1562zm11.594 0.09375 2.6875 2-0.71875 0.21875-2.6875-2 0.71875-0.21875zm10.688 0.40625 0.3125 8.2812-8.6875 2.6875 0.03125-8.625 8.3438-2.3438zm20.5 0.03125 1.875 1.3438-4.375 1.6875 0.03125-2.0938 0.03125 0.03125 2.4375-0.96875zm29.062 0-4.25 4.75-0.875 0.34375c0.007693-0.21447-0.020748-0.40926-0.09375-0.59375l-0.0625-2.625 5.2812-1.875zm-11.469 0.125c0.021142 7.39e-4 0.041378-8.6e-4 0.0625 0l-0.0625 0.84375c-0.30959-0.022301-0.6143-0.06377-0.90625-0.0625v-0.71875c0.30128-0.013941 0.60847-0.05374 0.90625-0.0625zm0.21875 0c0.32799 0.017919 0.6458 0.04509 0.96875 0.09375l-0.125 0.84375c-0.28974-0.042851-0.57053-0.06937-0.84375-0.09375v-0.84375zm-1.3125 0.0625-0.03125 0.71875c-0.32703 0.008149-0.65831 0.02524-0.96875 0.0625v-0.71875c0.33123-0.031131 0.66738-0.04526 1-0.0625zm-1.1875 0.0625-0.03125 0.71875c-0.28708 0.040819-0.56563 0.12243-0.84375 0.1875l-0.03125-0.78125c0.29848-0.050041 0.60177-0.09324 0.90625-0.125zm3.6562 0c0.35966 0.061489 0.71042 0.17537 1.0625 0.28125v0.78125c-0.38283-0.086001-0.73949-0.12906-1.0938-0.1875l0.03125-0.875zm-51.281 0.0625 2.8438 2.0938v1.2188l-2.9062-2.125 0.0625-1.1875zm12.625 0.09375 14 10.062c-0.1091 0.44346-0.17854 0.9003-0.0625 1.4375 0.12198 0.009313 0.25254 0.02069 0.375 0.03125-0.039991 0.37764-0.045708 0.75241-0.0625 1.125l-14.25-10.219v-2.4375zm33.906 0 0.0625 0.78125c-0.33923 0.085059-0.66586 0.19278-1 0.3125l-0.03125-0.28125c0.26964-0.2302 0.43044-0.46209 0.5-0.71875 0.15393-0.039507 0.311-0.064747 0.46875-0.09375zm-52.875 0.15625 3.125 2.375-0.03125 1.6875-3.1562-2.375 0.0625-1.6875zm58.844 0c0.31356 0.10071 0.631 0.23418 0.9375 0.375l-0.03125 0.625c-0.29246-0.078631-0.5991-0.15452-0.875-0.21875l-0.03125-0.78125zm-7.9062 0.4375 0.65625 0.46875c0.041178-0.025072 0.055901-0.068098 0.09375-0.09375-0.004867 0.072558 0.00346 0.14583 0 0.21875-0.31581 0.12128-0.64881 0.2558-0.96875 0.40625l0.0625-0.9375c0.050895-0.023364 0.10428-0.041292 0.15625-0.0625zm9 0c0.082911 0.040129 0.16766 0.08169 0.25 0.125 0.20474 0.26367 0.33234 0.45884 0.375 0.65625-0.24432-0.072961-0.45447-0.12373-0.6875-0.1875l0.0625-0.59375zm-42.531 0.25-6.4688 1.8125-0.34375 6.625 6.5625-2.1875 0.25-6.25zm37.219 0.15625c0.60745-0.031621 1.2139-0.01819 1.8125 0.03125 1.3912 0.1149 2.7392 0.40963 4.0938 0.75-0.053991 0.16006-0.19188 0.29847-0.34375 0.4375-0.032761 0.029992 0.036404 0.43918 0 0.46875-0.039142 0.03179-0.17579-0.31278-0.21875-0.28125-0.33343 0.30305-0.76721 0.45704-1.1562 0.65625-0.059073 0.023297-0.065115 0.32082-0.125 0.34375-0.059919 0.02294-0.15932-0.24087-0.21875-0.21875-0.46676 0.17375-0.95707 0.33294-1.4375 0.46875-0.047141 0.013333 0.015969 0.26832-0.03125 0.28125-0.044072 0.012073-0.17462-0.23047-0.21875-0.21875-0.40951 0.10882-0.83928 0.20375-1.25 0.28125-0.052798 0.009958-0.1035 0.24058-0.15625 0.25-0.049688 0.00887-0.10661-0.19588-0.15625-0.1875-0.42244 0.071361-0.83466 0.10056-1.25 0.125-0.064926 0.003818-0.091621 0.27856-0.15625 0.28125-0.075362 0.003142-0.17508-0.25158-0.25-0.25-0.43686 0.009219-0.86452-0.01499-1.2812-0.0625-0.067655-0.007708-0.15176 0.29055-0.21875 0.28125-0.068773-0.009556-0.11947-0.33249-0.1875-0.34375-0.41514-0.068696-0.83668-0.14515-1.2188-0.28125-0.011365-0.004049-0.047142 0.019679-0.0625 0.03125l0.125-1.9062c1.3178-0.58953 2.6313-0.87113 3.9062-0.9375zm-37.531 0.03125-0.03125 0.4375-0.40625-0.3125 0.4375-0.125zm23.594 0 1.875 1.3438-6.4062 2.5v-2.0625l4.5312-1.7812zm-24.125 0.15625 0.5 0.4375-0.03125 1.125-1.7812-1.1562 1.3125-0.40625zm-10.281 0.1875 2.875 2.1875v1.2812l-2.9375-2.1875 0.0625-1.2812zm66.188 0.0625v1.7188l-7.875 3.0625 2.5-2.8125 5.375-1.9688zm-57.438 0.21875 2 1.25-0.0625 1.9375-3.7812-2.625 1.8438-0.5625zm-15.125 0.46875 3.1875 2.375v0.96875l-3.2188-2.3438 0.03125-1zm13.125 0.125-0.03125 0.0625 3.9688 2.7188-0.0625 1.8438-5.5-4.125 1.625-0.5zm47.938 0c0.14503 0.50764 0.25283 1.0099 0.34375 1.5-0.26683 0.12735-0.56046 0.24909-0.84375 0.375-0.0331-0.44923-0.071778-0.89696-0.125-1.3438 0.24606-0.16182 0.45573-0.34608 0.625-0.53125zm-18.219 0.25 1.9375 1.4062c-0.2179-0.043208-0.4384-0.10039-0.65625-0.125-0.068687-0.003937-0.18077 0.19207-0.25 0.1875-0.075656-0.004999-0.080166-0.21364-0.15625-0.21875-0.24015-0.016116-0.5102-0.02806-0.75-0.03125-0.096569-0.005297-0.24721 0.31332-0.34375 0.3125-0.090713-7.69e-4 -0.096805-0.31426-0.1875-0.3125-0.26183 0.005103-0.5508 0.02716-0.8125 0.03125-0.063884 0.003377-0.12371 0.27718-0.1875 0.28125-0.060574 0.003872-0.12702-0.28575-0.1875-0.28125-0.25591 0.019067-0.49676 0.06242-0.75 0.09375-0.082574 0.010218-0.16782 0.33213-0.25 0.34375-0.076968 0.010867-0.14217-0.29339-0.21875-0.28125-0.25306 0.040122-0.50215 0.07022-0.75 0.125-0.065845 0.014559-0.12209 0.29685-0.1875 0.3125-0.069796 0.016693-0.14949-0.20548-0.21875-0.1875-0.24382 0.063261-0.4825 0.10757-0.71875 0.1875-0.06247 0.021129-0.094378 0.32139-0.15625 0.34375-0.058868 0.02127-0.16045-0.2099-0.21875-0.1875-0.2754 0.10582-0.55125 0.21138-0.8125 0.34375-0.08013 0.040596-0.10886 0.39427-0.1875 0.4375-0.082685 0.045458-0.20029-0.20469-0.28125-0.15625-0.083424 0.049924-0.16851 0.10308-0.25 0.15625v-0.25l0.0625 0.03125 1.4688-0.5625 0.375-0.15625 4.6875-1.8438zm-23.781 0.09375 14.25 10.25c-0.024388 0.68267-0.03353 1.3641 0 2.0625l-14.219-10.219-0.03125-2.0938zm-7.75 0.25 5.5312 4.125-2 0.5625c-1.7145-1.4063-2.047-1.4681-3.5312-2.9688v-1.7188zm48.969 0.03125c0.047773 0.43689 0.094619 0.87413 0.125 1.3125-0.46912 0.20522-0.95819 0.44035-1.4688 0.625-0.014583-0.42771-0.040074-0.85316-0.0625-1.2812 0.16646-0.050431 0.34693-0.10913 0.5-0.15625 0.32616-0.16001 0.63289-0.33215 0.90625-0.5zm-53.969 0.09375 2.9375 2.1875-0.03125 1.5938-2.9688-2.2188 0.0625-1.5625zm55.594 0.46875 0.03125 0.0625c-0.009046 0.003787-0.022413-0.004312-0.03125 0-0.002422-0.020282 0.002453-0.04221 0-0.0625zm-3.1875 0.125c0.022165 0.43811 0.048279 0.87439 0.0625 1.3125-0.49086 0.17307-1.0057 0.30107-1.5312 0.4375-0.017925-0.4362-0.03203-0.87485-0.0625-1.3125 0.54828-0.14265 1.0585-0.29546 1.5312-0.4375zm2.9688 0.4375c0.49732-0.059521 1.0197 0.35347 0.46875 1.25-1.0105 0.6772-2.0751 1.1744-3.1875 1.5312-1.54e-4 -0.010381 1.57e-4 -0.02087 0-0.03125l-0.125 0.0625c-2.8451 0.88352-5.8508 0.86042-8.3438 0.40625l0.09375-1.4688c3.0882 0.56334 6.7914 0.43489 11.094-1.75zm-4.6562 0.03125c0.026994 0.44172 0.044835 0.87458 0.0625 1.3125-0.48681 0.12144-0.98614 0.20506-1.5 0.28125v-1.2812c0.493-0.096321 0.97264-0.19405 1.4375-0.3125zm-11.969 0.0625 0.0625 0.03125c-0.025186 0.02327-0.04271 0.067099-0.0625 0.0625-0.019701-0.004582-0.04534-0.029861-0.0625-0.0625l0.0625-0.03125zm10.375 0.28125v1.2812c-0.46923 0.064299-0.94774 0.10882-1.4375 0.125v-1.1875c0.48602-0.050031 0.95658-0.12852 1.4375-0.21875zm-13 0.03125c0.02114 7.43e-4 0.041378-8.6e-4 0.0625 0l-0.0625 0.84375c-0.30959-0.022297-0.6143-0.06377-0.90625-0.0625v-0.71875c0.30128-0.013937 0.60847-0.05374 0.90625-0.0625zm0.21875 0c0.32799 0.017923 0.6458 0.04509 0.96875 0.09375l-0.125 0.84375c-0.28975-0.042847-0.57053-0.06937-0.84375-0.09375v-0.84375zm8 0c0.45478 0.12022 0.93595 0.18608 1.4375 0.21875-0.025672 0.36301-0.043794 0.72751-0.0625 1.0938-0.47476-0.055834-0.95002-0.16425-1.4375-0.28125l0.0625-1.0312zm-9.3125 0.0625-0.03125 0.71875c-0.32703 0.008153-0.65831 0.02524-0.96875 0.0625v-0.71875c0.33123-0.031127 0.66738-0.04526 1-0.0625zm-1.1875 0.0625-0.03125 0.71875c-0.28708 0.040823-0.56563 0.12243-0.84375 0.1875l-0.03125-0.78125c0.29848-0.050037 0.60177-0.09324 0.90625-0.125zm3.6562 0c0.35966 0.061493 0.71042 0.17537 1.0625 0.28125v0.78125c-0.38283-0.085997-0.73949-0.12906-1.0938-0.1875l0.03125-0.875zm10.031 0.09375v1.1875c-0.5294 0.011249-1.0739-0.00573-1.625-0.0625 0.015687-0.36552 0.043849-0.73004 0.0625-1.0938 0.50728 0.022299 1.0353 0.01718 1.5625-0.03125zm-14.781 0.0625 0.0625 0.78125c-0.33923 0.085063-0.66586 0.19278-1 0.3125l-0.03125-0.875c0.31465-0.090657 0.64078-0.15845 0.96875-0.21875zm-27.719 0.09375c1.3035 1.1981 1.792 1.6489 3.25 2.8125l-1.4688 0.40625-1.7812-1.5625v-1.6562zm-5.0938 0.03125 2.9688 2.25-0.03125 1.625-3.0312-2.25 0.09375-1.625zm12.844 0.03125 14.219 10.25c-0.039964-0.0158-0.11623 0.14115-0.15625 0.125-0.035463 0.06326-0.059624 0.12422-0.09375 0.1875l-13.969-10.094v-0.46875zm25.938 0c0.31355 0.10071 0.631 0.23418 0.9375 0.375l-0.03125 0.625c-0.29247-0.078627-0.5991-0.15452-0.875-0.21875l-0.03125-0.78125zm18.062 0.03125-0.5 0.5625v-0.25c0.013819-0.05005 0.020959-0.10861 0.03125-0.15625l0.46875-0.15625zm-25.156 0.09375c-0.014401 0.30237-0.048101 0.60277-0.0625 0.90625-0.31582 0.12128-0.64881 0.2558-0.96875 0.40625v-0.90625c0.33123-0.16207 0.67399-0.29553 1.0312-0.40625zm8.1875 0.3125c0.082909 0.040133 0.16766 0.08169 0.25 0.125 0.20474 0.26367 0.33234 0.45884 0.375 0.65625-0.24433-0.072957-0.45447-0.12373-0.6875-0.1875l0.0625-0.59375zm-9.4688 0.21875v0.90625c-0.34503 0.16903-0.70282 0.36206-1.0625 0.5625l-0.03125-0.71875c0.33505-0.30629 0.70598-0.53809 1.0938-0.75zm25.656 0.125-0.03125 0.25-0.1875 0.5c0.00329-0.20873 0.00413-0.41425 0-0.625 0.077349-0.038643 0.14658-0.085223 0.21875-0.125zm-21.5 0.0625c0.60745-0.031617 1.2139-0.01819 1.8125 0.03125 1.3912 0.1149 2.7392 0.40963 4.0938 0.75-0.053993 0.16006-0.16063 0.29847-0.3125 0.4375-0.032764 0.029988 0.036404 0.43918 0 0.46875-0.039145 0.031786-0.17579-0.31278-0.21875-0.28125-0.33343 0.30305-0.76721 0.42579-1.1562 0.625-0.059076 0.023301-0.096365 0.32082-0.15625 0.34375-0.059921 0.022944-0.12807-0.20962-0.1875-0.1875-0.46676 0.17375-0.95707 0.33294-1.4375 0.46875-0.047143 0.013329 0.015969 0.23707-0.03125 0.25-0.044075 0.01207-0.17462-0.19922-0.21875-0.1875-0.40951 0.10882-0.83928 0.20375-1.25 0.28125-0.052793 0.009962-0.1035 0.24058-0.15625 0.25-0.049683 0.008866-0.10661-0.19588-0.15625-0.1875-0.42244 0.071357-0.83466 0.10056-1.25 0.125-0.064921 0.003822-0.091621 0.27856-0.15625 0.28125-0.075361 0.003138-0.17508-0.25158-0.25-0.25-0.43687 0.009223-0.89577-0.01499-1.3125-0.0625-0.067654-0.007712-0.12051 0.29055-0.1875 0.28125-0.068776-0.00956-0.15072-0.33249-0.21875-0.34375-0.41513-0.0687-0.80543-0.1764-1.1875-0.3125-0.066567-0.02372-0.21585 0.30713-0.28125 0.28125-0.070537-0.027912-0.055883-0.40703-0.125-0.4375-0.37014-0.16317-0.70744-0.35316-1.0312-0.59375-0.030258-0.022478-0.18894 0.17944-0.21875 0.15625-0.034965-0.027201 0.034334-0.28432 0-0.3125 1.906-1.2525 3.7714-1.7801 5.5938-1.875zm6.8125 0.21875 1.2188 0.90625c-0.38299-0.1045-0.75937-0.22347-1.0938-0.34375-0.035381-0.18899-0.081689-0.37437-0.125-0.5625zm14 0.03125c0.046433 1.3289-0.061371 2.6152-0.34375 3.875-0.21713 0.10127-0.45872 0.18207-0.6875 0.28125 0.057037-1.2424 0.082264-2.4847 0.0625-3.7188 0.32476-0.14061 0.64083-0.27295 0.96875-0.4375zm-26.219 0.46875-0.03125 0.6875c-0.13653 0.077583-0.26662 0.13696-0.40625 0.21875-0.060459-0.056687-0.12934-0.09613-0.1875-0.15625 0.19022-0.27066 0.40433-0.53108 0.625-0.75zm25.094 0.03125c0.020925 1.2348 0.022941 2.476-0.03125 3.7188-0.47664 0.20349-0.97763 0.38131-1.5 0.5625 0.021799-1.2358 0.016797-2.4819 0-3.7188 0.50683-0.16127 1.0161-0.34506 1.5312-0.5625zm-54.344 0.25 3.0312 2.3125v0.78125l-3.0625-2.2188 0.03125-0.875zm5.1875 0 1.5938 1.375-1.5938 0.4375v-1.8125zm35.812 0.25c0.14502 0.50764 0.25283 1.0099 0.34375 1.5-0.26684 0.12735-0.56046 0.24909-0.84375 0.375-0.033102-0.44923-0.071778-0.89696-0.125-1.3438 0.24606-0.16182 0.45573-0.34608 0.625-0.53125zm0.6875 0c0.20657 0.057256 0.41836 0.10334 0.625 0.15625-0.02108 0.44476-0.029894 0.84547-0.03125 1.25-0.059918-0.08277-0.11341-0.1644-0.1875-0.25-0.078875 0.039613-0.16936 0.0544-0.25 0.09375-0.049188-0.41189-0.088316-0.83394-0.15625-1.25zm10.969 0.125c0.009286-0.002861 0.021962 0.00288 0.03125 0 0.013975 1.237-0.011229 2.4829-0.03125 3.7188-0.47993 0.16217-0.98624 0.30796-1.5 0.4375 0.026174-1.2587 0.022886-2.5127 0-3.7812 0.49213-0.10409 0.99921-0.22089 1.5-0.375zm-10.188 0.0625c0.32848 0.082061 0.66466 0.14998 1 0.21875l0.4375 0.3125c-0.024994 1.2275 0.031633 2.4876 0.09375 3.75-0.49729-0.11217-0.99249-0.23265-1.5-0.40625-0.017406-0.30243-0.020232-0.60584-0.03125-0.90625 0.22937-0.6511 0.21495-1.0997-0.03125-1.5312 0.001885-0.48515 0.007756-0.96062 0.03125-1.4375zm1.875 0.375c0.48451 0.084897 0.97089 0.17107 1.4688 0.21875-0.024701 1.3052-0.00555 2.6328 0.03125 3.9688-0.55698-0.050691-1.1139-0.12726-1.6875-0.25-0.043934-1.2102-0.056385-2.4229-0.03125-3.625l0.1875 0.125 0.03125-0.4375zm6.6562 0c0.02484 1.2668 0.022093 2.5338 0 3.7812-0.50363 0.12212-1.0305 0.20267-1.5625 0.28125v-3.875c0.51434-0.054401 1.0377-0.08189 1.5625-0.1875zm-10.781 0.0625c0.047771 0.43689 0.094619 0.87413 0.125 1.3125-0.46912 0.20522-0.95819 0.44035-1.4688 0.625-0.014585-0.42771-0.040074-0.85316-0.0625-1.2812 0.16645-0.050427 0.34693-0.10913 0.5-0.15625 0.32616-0.16001 0.63289-0.33215 0.90625-0.5zm9.0625 0.15625 0.03125 3.875c-0.48248 0.067369-0.96586 0.1026-1.4688 0.125v-3.9062c0.47266-0.006461 0.95515-0.04727 1.4375-0.09375zm-3.2812 0.03125c0.557 0.047949 1.1155 0.06525 1.6875 0.0625l0.03125 3.9375c-0.55823 0.020119-1.1389-0.01603-1.7188-0.0625-0.02719-1.3204-0.02474-2.6378 0-3.9375zm-17.438 0.1875c0.066045 0.071133 0.14843 0.1225 0.21875 0.1875-0.078726 0.49234-0.16234 0.95099-0.21875 1.4062-0.15913-0.063827-0.30843-0.11644-0.46875-0.1875 0.13444-0.46072 0.28014-0.93953 0.46875-1.4062zm0.34375 0.3125c0.39385 0.33177 0.84936 0.57523 1.3438 0.75-0.04718 0.35085-0.061471 0.70569-0.09375 1.0625-0.46304-0.12282-0.93169-0.28607-1.4062-0.46875 0.049661-0.44959 0.086446-0.90176 0.15625-1.3438zm9.75 0c0.022163 0.43811 0.048279 0.87439 0.0625 1.3125-0.49086 0.17307-1.0057 0.30107-1.5312 0.4375-0.017927-0.4362-0.03203-0.87485-0.0625-1.3125 0.54828-0.14265 1.0585-0.29546 1.5312-0.4375zm2.9688 0.4375c0.49732-0.059517 1.0197 0.35347 0.46875 1.25-1.0105 0.6772-2.0751 1.1744-3.1875 1.5312-1.56e-4 -0.010377 1.57e-4 -0.02087 0-0.03125l-0.125 0.0625c-4.2248 1.312-8.8577 0.58507-11.562-0.5-0.2464-0.3675-0.045986-1.092 0.21875-1.3438 3.567 1.2575 8.344 1.9988 14.188-0.96875zm-4.6562 0.03125c0.026992 0.44172 0.044835 0.87458 0.0625 1.3125-0.48681 0.12144-0.98614 0.20506-1.5 0.28125v-1.2812c0.493-0.096317 0.97264-0.19405 1.4375-0.3125zm-6.5625 0.34375c0.50651 0.16129 1.0556 0.21291 1.625 0.25-0.025674 0.36301-0.043794 0.72751-0.0625 1.0938-0.53571-0.062997-1.0709-0.17393-1.625-0.3125 0.025975-0.3443 0.025704-0.6883 0.0625-1.0312zm4.9688 0v1.2812c-0.46924 0.064303-0.94774 0.10882-1.4375 0.125v-1.1875c0.48601-0.050027 0.95658-0.12852 1.4375-0.21875zm-1.5938 0.25v1.1875c-0.5294 0.011253-1.0739-0.00573-1.625-0.0625 0.015685-0.36552 0.043849-0.73004 0.0625-1.0938 0.50728 0.022303 1.0353 0.01718 1.5625-0.03125zm21.844 0.71875c0.066333 0.52541 0.3054 1.1106-0.3125 1.75-4.0168 1.4559-8.081 2.7727-13.375 0.9375 0.046643-0.49259 0.081609-0.99676 0.09375-1.5 5.358 1.6059 8.905 0.33228 13.594-1.1875zm-13.281 0.25c0.009596 0.21961 0.015602 0.44541 0.03125 0.65625-0.11258-0.039658-0.22904-0.081157-0.34375-0.125 2.49e-4 -0.12572 0.002478-0.24855 0-0.375 0.10725-0.053578 0.21039-0.10004 0.3125-0.15625zm-0.78125 0.34375c0.046431 1.3289-0.061371 2.6152-0.34375 3.875-0.21713 0.10127-0.45872 0.18207-0.6875 0.28125 0.057035-1.2424 0.082264-2.4847 0.0625-3.7187 0.32476-0.14061 0.64083-0.27295 0.96875-0.4375zm-1.125 0.5c0.020923 1.2348 0.022941 2.476-0.03125 3.7187-0.47664 0.20349-0.97763 0.38131-1.5 0.5625 0.021797-1.2358 0.016797-2.4819 0-3.7187 0.50683-0.16127 1.0161-0.34506 1.5312-0.5625zm-12.844 0.4375c0.26529 0.076093 0.54256 0.14964 0.8125 0.21875-0.068498 1.4452-0.023957 2.6789 0.0625 3.8437-0.27694-0.09756-0.56425-0.19508-0.84375-0.3125-0.12327-1.2549-0.18088-2.526-0.03125-3.75zm11.156 0.1875c0.009284-0.002857 0.021962 0.00288 0.03125 0 0.013973 1.237-0.011229 2.4829-0.03125 3.7187-0.47993 0.16217-0.98624 0.30796-1.5 0.4375 0.026172-1.2587 0.022886-2.5127 0-3.7813 0.49213-0.10408 0.99921-0.22089 1.5-0.375zm-10.188 0.0625c0.47205 0.11794 0.9518 0.2212 1.4375 0.3125-0.037615 1.2952 0.027979 2.6321 0.09375 3.9688-0.49729-0.11217-0.99249-0.23265-1.5-0.40625-0.075623-1.3139-0.093554-2.6103-0.03125-3.875zm1.6562 0.34375c0.55513 0.09881 1.1156 0.19522 1.6875 0.25-0.024703 1.3052-0.00555 2.6328 0.03125 3.9688-0.55698-0.05069-1.1139-0.12726-1.6875-0.25-0.048137-1.3259-0.068675-2.6539-0.03125-3.9688zm6.875 0.03125c0.024838 1.2668 0.022093 2.5338 0 3.7813-0.50363 0.12212-1.0305 0.20267-1.5625 0.28125v-3.875c0.51434-0.0544 1.0377-0.08189 1.5625-0.1875zm-1.7188 0.21875 0.03125 3.875c-0.48248 0.06737-0.96586 0.1026-1.4688 0.125v-3.9062c0.47266-0.00646 0.95515-0.04727 1.4375-0.09375zm-3.2812 0.03125c0.557 0.04795 1.1155 0.06525 1.6875 0.0625l0.03125 3.9375c-0.55823 0.02012-1.1389-0.01603-1.7188-0.0625-0.027192-1.3204-0.02474-2.6377 0-3.9375zm22.219 0c0.009303-0.00363 0.021945 0.00365 0.03125 0 0.057609 0.15653 0.001685 0.28594-0.0625 0.40625 0.005723-0.13541 0.023743-0.27036 0.03125-0.40625zm-0.125 0.0625c-0.009224 0.17753-0.02324 0.35434-0.03125 0.53125-0.15614 0.1712-0.35088 0.34985-0.46875 0.53125-0.30634 0.22631-0.63735 0.41787-0.96875 0.59375 0.008772-0.39591 0.020101-0.79065 0.03125-1.1875 0.46654-0.14232 0.96375-0.28729 1.4375-0.46875zm-1.5625 0.5c-0.009999 0.40732-0.022639 0.81241-0.03125 1.2188-0.49931 0.25387-1.0233 0.46545-1.5625 0.625 0.016571-0.47921 0.046636-0.95756 0.0625-1.4375 0.50718-0.10825 1.0153-0.2523 1.5312-0.40625zm-10.75 0.03125c1.3e-4 -0.00121 0.031121 0.00121 0.03125 0 0.21662 0.06285 0.43829 0.13181 0.65625 0.1875 0.037172 0.33548 0.057708 0.66856 0.09375 1-0.22011-0.15352-0.44912-0.30158-0.65625-0.46875-0.048686-0.23038-0.081301-0.49145-0.125-0.71875zm0.8125 0.21875c0.46333 0.1153 0.93407 0.19962 1.4062 0.28125 0.034539 0.51003 0.056432 1.0207 0.09375 1.5312-0.48996-0.1867-0.94116-0.42968-1.375-0.71875-0.04689-0.36619-0.086968-0.73095-0.125-1.0938zm8.2812 0.1875c-0.014889 0.48151-0.045863 0.95861-0.0625 1.4375-0.48007 0.13581-0.97125 0.2349-1.4688 0.3125v-1.5c0.50824-0.06162 1.0139-0.14323 1.5312-0.25zm-6.75 0.125c0.55383 0.09189 1.1215 0.17678 1.6875 0.21875 0.022147 0.5404 0.066251 1.0819 0.09375 1.625-0.59771 4.2e-4 -1.163-0.12614-1.6875-0.3125-0.030682-0.51108-0.065297-1.0201-0.09375-1.5312zm5.0938 0.125v1.5312c-0.48566 0.07136-0.97891 0.09481-1.4688 0.125v-1.5312c0.48778-0.01597 0.97225-0.06826 1.4688-0.125zm-3.25 0.09375c0.54847 0.03605 1.0963 0.04567 1.6562 0.03125v1.5312c-0.53676 0.02987-1.0673 0.06465-1.5938 0.0625-0.020767-0.543-0.046506-1.0837-0.0625-1.625zm-4.3125 0.90625c0.066331 0.52541 0.27415 1.1418-0.34375 1.7812-4.2829 1.5524-8.613 2.9829-14.438 0.5625-0.13533-0.52079-0.25808-1.5067 0.3125-1.4062 5.8599 2.0258 9.5286 0.66375 14.469-0.9375zm-1.3438 2.4375c0.009301-0.00363 0.021945 0.00365 0.03125 0 0.057607 0.15653 0.001685 0.28595-0.0625 0.40625 0.005721-0.1354 0.023743-0.27036 0.03125-0.40625zm-0.125 0.0625c-0.009226 0.17753-0.02324 0.35434-0.03125 0.53125-0.15614 0.1712-0.35088 0.34985-0.46875 0.53125-0.30634 0.22631-0.63735 0.41787-0.96875 0.59375 0.00877-0.39591 0.020101-0.79065 0.03125-1.1875 0.46653-0.14232 0.96375-0.28729 1.4375-0.46875zm-1.5625 0.5c-0.010001 0.40732-0.022639 0.81241-0.03125 1.2188-0.49931 0.25387-1.0233 0.46545-1.5625 0.625 0.016569-0.47921 0.046636-0.95756 0.0625-1.4375 0.50718-0.10825 1.0153-0.2523 1.5312-0.40625zm-10.75 0.03125c0.22545 0.06583 0.45991 0.12935 0.6875 0.1875 0.03717 0.33548 0.057708 0.66856 0.09375 1-0.22011-0.15352-0.44912-0.30158-0.65625-0.46875-0.048688-0.23038-0.081301-0.49145-0.125-0.71875zm0.8125 0.21875c0.46333 0.1153 0.93407 0.19962 1.4062 0.28125 0.034537 0.51003 0.056432 1.0207 0.09375 1.5312-0.48997-0.1867-0.94116-0.42968-1.375-0.71875-0.046892-0.36619-0.086968-0.73095-0.125-1.0938zm8.2812 0.1875c-0.014891 0.48151-0.045863 0.95861-0.0625 1.4375-0.48008 0.13581-0.97125 0.2349-1.4688 0.3125v-1.5c0.50824-0.06162 1.0139-0.14323 1.5312-0.25zm-6.75 0.125c0.55383 0.09189 1.1215 0.17678 1.6875 0.21875 0.022145 0.5404 0.066251 1.0819 0.09375 1.625-0.59771 4.2e-4 -1.163-0.12614-1.6875-0.3125-0.030684-0.51108-0.065297-1.0201-0.09375-1.5312zm5.0938 0.125v1.5312c-0.48566 0.07136-0.97891 0.09481-1.4688 0.125v-1.5312c0.48778-0.01597 0.97225-0.06826 1.4688-0.125zm-3.25 0.09375c0.54847 0.03605 1.0963 0.04567 1.6562 0.03125v1.5312c-0.53676 0.02987-1.0673 0.06465-1.5938 0.0625-0.020769-0.543-0.046506-1.0837-0.0625-1.625z" fill-rule="evenodd"/>
 </g>
</svg>
