<?xml version="1.0" encoding="UTF-8"?>
<!-- Created with Inkscape (http://www.inkscape.org/) -->
<svg id="svg2" width="128" height="128" version="1.0" xmlns="http://www.w3.org/2000/svg" xmlns:cc="http://creativecommons.org/ns#" xmlns:dc="http://purl.org/dc/elements/1.1/" xmlns:rdf="http://www.w3.org/1999/02/22-rdf-syntax-ns#" xmlns:xlink="http://www.w3.org/1999/xlink">
 <defs id="defs4">
  <linearGradient id="linearGradient2338">
   <stop id="stop2340" stop-color="#b1b1b1" offset="0"/>
   <stop id="stop2342" stop-color="#e4e4e4" offset="1"/>
  </linearGradient>
  <linearGradient id="linearGradient2320">
   <stop id="stop2322" stop-color="#6a3c1d" offset="0"/>
   <stop id="stop2324" stop-color="#8f5127" offset="1"/>
  </linearGradient>
  <linearGradient id="linearGradient3049">
   <stop id="stop3051" stop-color="#cfc7a9" offset="0"/>
   <stop id="stop3053" stop-color="#eeebe0" offset="1"/>
  </linearGradient>
  <linearGradient id="linearGradient3114" x1="59.382" x2="85.801" y1="119.93" y2="97.3" gradientUnits="userSpaceOnUse" xlink:href="#linearGradient2338"/>
  <linearGradient id="linearGradient3118" x1="26.297" x2="47.762" y1="103.72" y2="121.95" gradientUnits="userSpaceOnUse" xlink:href="#linearGradient2338"/>
  <linearGradient id="linearGradient3123" x1="35.805" x2="51.546" y1="43.935" y2="88.389" gradientUnits="userSpaceOnUse" xlink:href="#linearGradient2320"/>
  <linearGradient id="linearGradient3129" x1="16.649" x2="17.124" y1="110.62" y2="111.09" gradientUnits="userSpaceOnUse" xlink:href="#linearGradient2320"/>
  <linearGradient id="linearGradient3133" x1="14.746" x2="21.405" y1="115.24" y2="109.23" gradientUnits="userSpaceOnUse" xlink:href="#linearGradient2320"/>
  <linearGradient id="linearGradient3139" x1="23.568" x2="24.476" y1="107.63" y2="107.68" gradientUnits="userSpaceOnUse" xlink:href="#linearGradient2320"/>
  <linearGradient id="linearGradient3143" x1="25.211" x2="26.205" y1="109.36" y2="109.41" gradientUnits="userSpaceOnUse" xlink:href="#linearGradient2320"/>
  <linearGradient id="linearGradient3147" x1="33.47" x2="34.292" y1="111.78" y2="111.83" gradientUnits="userSpaceOnUse" xlink:href="#linearGradient2320"/>
  <linearGradient id="linearGradient3153" x1="35.546" x2="35.805" y1="112.91" y2="112.91" gradientUnits="userSpaceOnUse" xlink:href="#linearGradient2320"/>
  <linearGradient id="linearGradient3157" x1="25.557" x2="41.514" y1="102.05" y2="102.05" gradientUnits="userSpaceOnUse" xlink:href="#linearGradient2320"/>
  <linearGradient id="linearGradient3161" x1="27.286" x2="26.941" y1="104.13" y2="105.47" gradientUnits="userSpaceOnUse" xlink:href="#linearGradient2320"/>
  <linearGradient id="linearGradient3165" x1="38.486" x2="37.924" y1="105.56" y2="104.65" gradientUnits="userSpaceOnUse" xlink:href="#linearGradient2320"/>
  <linearGradient id="linearGradient3170" x1="27.2" x2="28" y1="107.68" y2="108.32" gradientUnits="userSpaceOnUse" xlink:href="#linearGradient2320"/>
  <linearGradient id="linearGradient3174" x1="37.405" x2="37.968" y1="108.97" y2="109.43" gradientUnits="userSpaceOnUse" xlink:href="#linearGradient2320"/>
  <linearGradient id="linearGradient3098">
   <stop id="stop3100" stop-color="#9e2612" offset="0"/>
   <stop id="stop3102" stop-color="#bd5032" offset="1"/>
  </linearGradient>
  <linearGradient id="linearGradient3290" x1="46.312" x2="58.688" y1="11.875" y2="30.438" gradientUnits="userSpaceOnUse" xlink:href="#linearGradient3098"/>
  <linearGradient id="linearGradient3294" x1="43.062" x2="35.062" y1="62.812" y2="50" gradientUnits="userSpaceOnUse" xlink:href="#linearGradient2320"/>
  <linearGradient id="linearGradient3298" x1="37.919" x2="32.969" y1="93.794" y2="86.281" gradientUnits="userSpaceOnUse" xlink:href="#linearGradient2320"/>
  <linearGradient id="linearGradient3915" x1="65.875" x2="81.241" y1="91.375" y2="48.389" gradientUnits="userSpaceOnUse" xlink:href="#linearGradient2320"/>
  <linearGradient id="linearGradient3919" x1="68.324" x2="63.914" y1="81.643" y2="98.768" gradientUnits="userSpaceOnUse" xlink:href="#linearGradient2320"/>
  <linearGradient id="linearGradient3923" x1="80.605" x2="77.232" y1="52.497" y2="73.168" gradientUnits="userSpaceOnUse" xlink:href="#linearGradient2320"/>
  <linearGradient id="linearGradient3927" x1="63.395" x2="60.454" y1="43.589" y2="61.319" gradientUnits="userSpaceOnUse" xlink:href="#linearGradient2320"/>
  <linearGradient id="linearGradient3931" x1="60.849" x2="72.53" y1="24.342" y2="14.679" gradientUnits="userSpaceOnUse" xlink:href="#linearGradient3098"/>
  <linearGradient id="linearGradient3935" x1="67.454" x2="68.677" y1="17.126" y2="18.074" gradientUnits="userSpaceOnUse" xlink:href="#linearGradient3098"/>
  <linearGradient id="linearGradient3939" x1="68.31" x2="73.937" y1="20.917" y2="15.597" gradientUnits="userSpaceOnUse" xlink:href="#linearGradient2320"/>
  <linearGradient id="linearGradient3947" x1="54.381" x2="102.47" y1="100.38" y2="10.612" gradientUnits="userSpaceOnUse">
   <stop id="stop3334" stop-color="#bb8f56" offset="0"/>
   <stop id="stop3336" stop-color="#d1af63" offset="1"/>
  </linearGradient>
  <linearGradient id="linearGradient3958" x1="43.75" x2="46.875" y1="41.094" y2="35.781" gradientUnits="userSpaceOnUse" xlink:href="#linearGradient3049"/>
  <linearGradient id="linearGradient3962" x1="72.188" x2="71.438" y1="55.375" y2="57.562" gradientUnits="userSpaceOnUse" xlink:href="#linearGradient2320"/>
  <linearGradient id="linearGradient3985" x1="58.307" x2="63.37" y1="81.898" y2="84.828" gradientUnits="userSpaceOnUse" xlink:href="#linearGradient3049"/>
  <linearGradient id="linearGradient3996" x1="89.433" x2="92.47" y1="74.596" y2="72.145" gradientUnits="userSpaceOnUse" xlink:href="#linearGradient3049"/>
  <linearGradient id="linearGradient4007" x1="83.73" x2="87.359" y1="28.601" y2="30.626" gradientUnits="userSpaceOnUse" xlink:href="#linearGradient3049"/>
  <linearGradient id="linearGradient4011" x1="29.5" x2="40.75" y1="89.625" y2="101.62" gradientUnits="userSpaceOnUse" xlink:href="#linearGradient2320"/>
  <filter id="filter4106">
   <feGaussianBlur id="feGaussianBlur4108" stdDeviation="1.5627868"/>
  </filter>
 </defs>
 <metadata id="metadata7">
  <rdf:RDF>
   <cc:Work rdf:about="">
    <dc:format>image/svg+xml</dc:format>
    <dc:type rdf:resource="http://purl.org/dc/dcmitype/StillImage"/>
   </cc:Work>
  </rdf:RDF>
 </metadata>
 <g id="layer2">
  <path id="path4013" d="m69.438 64.281-4.6666 12.657-1.538-2.7069-0.38811 0.044619 0.48994-0.17848s-17.838-6.729-18.323-7.0201c-0.04318-0.025899-0.18289 0.05091-0.33369 0.17848l-19.874-1.9186-9.5109 8.1207 1.2106 0.59492-5.7216-2.0822-1.1845 0.69903 2.4182 0.95188-0.64028 1.5765-2.9525-0.72878-0.46081 1.2493 2.4788 0.63954-0.95684 1.874-3.4676-0.9965-0.98902 1.0262 11.154 2.9151 3.8815 22.548-6.4419 6.0105 4.2617 4.7572-9.2179 4.8277 1.8982 0.13386 0.50203-0.14873 0.006046 0.01487 4.9384-3.4065 5.1873 0.99963 0.67705 1.2507 2.3039 0.63293 9.404 1.7192-1.1579 1.614 2.7125 0.21373 1.7178-0.58555 10.305 2.1511 6.2059-0.77562 0.79131 0.17848 34.477-14.353-4.5655-0.69904-0.7379 0.02975-8.1574-18.573-0.32353-0.56518 21.734 10.339 1.1241-0.84776-2.382-0.86264 0.99912-1.3088 2.2671 0.58005 0.50111-0.9965-2.0271-0.75853 0.8318-1.4129 2.8719 0.68416 0.90833-0.60979-15.814-5-13.847-4.7743-3.3578-0.44981 15.03-17.297-2.7338-0.26772-1.0152 1.1155-3.4475-0.63954 0.8257-0.96675-2.135-0.63954-0.72088 1.0709-2.9233-0.58005 0.22088-1.0709-2.3226-0.17848z" fill-opacity=".66667" fill-rule="evenodd" filter="url(#filter4106)"/>
  <path id="path3112" d="m60.727 104.27 27.092-9.4179-0.42809-1.1008 0.79502-0.061156 4.2809 1.4677 3.6082 12.781-43.909 17.368-0.73386-0.36693 0.18347-16.328 4.7089 0.61155-0.79502 2.752 2.752 0.79502 2.4462-8.5006z" fill="url(#linearGradient3114)" fill-rule="evenodd"/>
  <path id="path3116" d="m25.135 95.955-4.342 3.9139-2.8743 15.289 33.146 9.6014 0.85617-16.634-8.701-4.9923-16.556-2.1017 1.7735-0.97849-3.4247-1.3454 0.12231-2.752z" fill="url(#linearGradient3118)" fill-rule="evenodd"/>
  <path id="path3121" d="m28.714 100.02-1.5135-0.47567 0.21622-1.2541-2.0324-0.69189 5.9676-61.103 4.4108-13.881 17.73 5.7946-1.1243 58.465-9.9892 17.557-13.665-4.4108z" fill="url(#linearGradient3123)" fill-rule="evenodd"/>
  <path id="path3127" d="m7.9568 119.48 15.265-16.822 0.56216-0.21622-0.64865 2.7676-13.319 14.53-1.8595-0.25946z" fill="url(#linearGradient3129)" fill-rule="evenodd"/>
  <path id="path3131" d="m10.508 118.96 12.843-14.227-0.6054 3.8919-4.4541 6.4865-7.9135 4.3676 0.12973-0.51892z" fill="url(#linearGradient3133)" fill-rule="evenodd"/>
  <path id="path3137" d="m24.216 98.076-2.5946 20.151 2.5514 0.6054 2.0324-20.411 0.99202-0.25738-1.8108-0.75364-1.1704 0.66507z" fill="url(#linearGradient3139)" fill-rule="evenodd"/>
  <path id="path3141" d="m26.205 98.335-1.0378 7.6108-0.95135 12.93 1.5135-0.6919 1.6432-20.022-1.1676 0.17297z" fill="url(#linearGradient3143)" fill-rule="evenodd"/>
  <path id="path3145" d="m33.73 100.84-0.64865 7.3946-0.43243 13.146 2.6811 0.86487-0.38919-13.881 0.17297-3.1568 0.69189-3.8054 1.3838-0.51892-2.4216-0.6919-1.0378 0.64865z" fill="url(#linearGradient3147)" fill-rule="evenodd"/>
  <path id="path3151" d="m35.805 101.41-0.82162 4.1514-0.086487 3.2 0.21622 13.449 1.6432-0.77838-0.51892-13.535 0.34595-3.6324 0.64865-3.4595-1.427 0.60541z" fill="url(#linearGradient3153)" fill-rule="evenodd"/>
  <path id="path3155" d="m31.438 98.595-4.2811 2.4216-0.043243 1.0378-1.5568 0.43244 0.56216 0.34594 8.8649 2.6811 6.5297-4.1514-10.076-2.7676z" fill="url(#linearGradient3157)" fill-rule="evenodd"/>
  <path id="path3159" d="m23.524 102.53-0.25946 2.2054 11.676 3.6757 0.086486-2.854-11.503-3.027z" fill="url(#linearGradient3161)" fill-rule="evenodd"/>
  <path id="path3163" d="m34.897 105.56c0.43243-0.12973 7.1784-4.4541 7.1784-4.4541l0.12973 2.4649-7.2649 5.1027-0.17297-0.38919 0.12973-2.7243z" fill="url(#linearGradient3165)" fill-rule="evenodd"/>
  <path id="path3168" d="m26.292 108.45 1.9459-2.1189 1.5568 0.47567-3.5892 3.9784 0.086487-2.3351z" fill="url(#linearGradient3170)" fill-rule="evenodd"/>
  <path id="path3172" d="m36.281 110.23c0.43243-0.30271 2.2054-3.6324 2.2054-3.6324l1.3838-0.9081 0.51892 0.21621-4.0216 7.2649-0.086487-2.9405z" fill="url(#linearGradient3174)" fill-rule="evenodd"/>
  <path id="path3288" d="m33.562 20.562 12.812-17.063 19.312 4.0625-12.312 20.813-18.062-5.5625-1.75-2.25z" fill="url(#linearGradient3290)" fill-rule="evenodd"/>
  <path id="path3292" d="m31.25 51.562-0.8125 11.375 20.062 2.75 0.5-12.062-19.75-2.0625z" fill="url(#linearGradient3294)" fill-rule="evenodd"/>
  <path id="path3296" d="m31.997 98.478 0.70711-12.198 9.8111 2.3865-0.44194 12.64-10.076-2.8284z" fill="url(#linearGradient3298)" fill-rule="evenodd"/>
  <path id="path3300" d="m46.375 3.5-12.812 17.062 1.75 2.25 0.34375 0.09375-4.3125 13.594-6.2188 59.469-4.3438 3.9062-1.3125 6.9062-11.5 12.688 1.8438 0.28125 8.3125-4.5312 3.75 1.0938-0.25 1.9062 2.5625 0.625 1.5312-0.65625 0.0625-0.75 6.9375 2-0.0625 1.9375 2.4688 0.8125v0.03125l0.0625-0.03125 0.15625 0.0625 1.4062-0.8125-0.03125-0.84375 14.344 4.1562 0.84375-16.625-8.6875-5h-0.09375l9.25-16.25 1.125-58.469-0.125-0.03125 12.312-20.812-19.312-4.0625z" fill-opacity=".15686" fill-rule="evenodd"/>
  <path id="path4009" d="m29.5 99.125 1-15.375 14.75 3.375-1 13.5-1.75 3.375-0.5-0.625 0.5-14.625-9.875-2.5-0.625 12.375-2.5 0.5z" fill="url(#linearGradient4011)" fill-rule="evenodd"/>
  <path id="path3913" d="m87.562 94.75-26.562 9.3125-8.75-17.688 1.3125-57.688 27.625-6.5 4.0625 51.438 2.3125 21.125z" fill="url(#linearGradient3915)" fill-rule="evenodd"/>
  <path id="path3917" d="m61.665 101.1 9.6-2.9405-2.4216-24.13-7.1784 27.07z" fill="url(#linearGradient3919)" fill-rule="evenodd"/>
  <path id="path3921" d="m74.119 76.714-0.51892-14.616 3.2865-12.627 3.9784-3.373 2.5946 28.022-9.3405 2.5946z" fill="url(#linearGradient3923)" fill-rule="evenodd"/>
  <path id="path3925" d="m67.286 61.405-9.5135 2.2486-0.34595-28.281 7.3514-1.7297 2.5081 27.762z" fill="url(#linearGradient3927)" fill-rule="evenodd"/>
  <path id="path3929" d="m53.327 28.256s12.17-21.71 12.537-21.099 15.472 14.738 15.472 14.738l-0.67271 0.48924-27.031 6.299-0.30578-0.42809z" fill="url(#linearGradient3931)" fill-rule="evenodd"/>
  <path id="path3933" d="m66.72 12.906 3.1801 2.6297-4.0362 7.4609-0.73386 0.24462 1.59-10.335z" fill="url(#linearGradient3935)" fill-rule="evenodd"/>
  <path id="path3937" d="m65.558 23.119 4.2197-7.5221 4.1586 5.5651-8.3783 1.957z" fill="url(#linearGradient3939)" fill-rule="evenodd"/>
  <path id="path3941" d="m66.72 12.906 3.1801 2.6297-4.0362 7.4609-0.73386 0.24462 1.59-10.335z" fill-opacity=".15686" fill-rule="evenodd"/>
  <path id="path3945" d="m29.66 17.431 38.895 34.92 0.85617-1.1008 1.8347-0.73386 2.0793-0.061156 18.102-49.169 2.2627 0.36693-0.67271 2.2627 2.6908 1.2231 1.1619-2.2627 1.8958 1.3454-1.2231 2.0181 3.1801 1.3454 1.4677-2.3239 2.6297 0.5504-27.887 45.928 0.5504 1.4066 0.24462 1.1619-0.24462 1.8958 18.775 15.839 17.796 15.595-1.162 1.2843-2.5685-1.4677-1.4066 2.9966 1.7123 1.59-0.91733 2.0793-2.0181-1.2231-1.5289 2.752 2.0181 1.8347-1.4677 1.7735-30.516-37.977-1.7123 0.73386-2.6297-0.30578-3.9751 15.289-9.4179 35.653-2.8743-0.5504 0.36693-2.8131-5.3205-1.1008-0.61155 2.752-3.547-1.1008 1.3454-2.5685-3.6082-0.91732-1.6512 1.7735-1.8347-0.67271 26.908-46.661-1.5289-1.5289-0.30578-1.2231-44.46-27.398 1.4066-2.1404 3.0578 2.0793 1.7123-3.9139-2.2016-1.3454 0.97848-2.6297 2.6297 1.5289 1.2843-3.3024-2.0181-2.0181 1.4677-1.4677z" fill="url(#linearGradient3947)" fill-rule="evenodd"/>
  <path id="path3949" d="m31.812 21.5-2.0625 3.5625 19.062 15.25 1.25-2-18.25-16.812zm-3.0625 5.75-1.6875 4.125 19.625 12.625 1.3125-2.1875-19.25-14.562zm23.062 12.688-1 1.75 15.812 12.75 0.8125-0.9375-15.625-13.562zm-2 3.375-1.125 1.9375 16.75 10.938 0.375-0.8125-16-12.062z" fill="url(#linearGradient3958)" fill-rule="evenodd"/>
  <path id="path3960" d="m76.375 55.812-5.125-1.875-1.75 1.125-0.5625 1.75 0.3125 1.8125 4.1875 1.4375 1.6875-0.5625 1.5625-1.125 0.1875-1.25-0.5-1.3125z" fill="url(#linearGradient3962)" fill-rule="evenodd"/>
  <path id="path3964" d="m76.5 56.188-1.0625-0.0625-1.6875 1.125-0.5625 1.0625 0.3125 1.75 1.4375-0.4375 1.5625-1.25 0.3125-0.875-0.3125-1.3125z" fill-opacity=".15686" fill-rule="evenodd"/>
  <path id="path3974" d="m68.219 61.219-9.0625 16.625 2.25 1.0312 7.25-17.5-0.4375-0.15625zm1.375 0.375-6.7188 17.531 2.7812 0.59375 4.5312-17.969-0.59375-0.15625zm-11.406 17.812-14.062 25.188 4.5312 1.25 11.844-25.656-2.3125-0.78125zm3.9062 1.1562-10.594 25.594 6 2.2812 7.7812-26.969-3.1875-0.90625z" fill="url(#linearGradient3985)" fill-rule="evenodd"/>
  <path id="path3978" d="m62.837 79.18 6.7687-17.588 0.53297 0.26649-4.477 17.801-2.8247-0.47967z" fill="none"/>
  <path id="path3987" d="m77.875 57.5-0.15625 1.6875 10.969 10.344 1.125-1.125-11.938-10.906zm-0.28125 2.2812-0.59375 0.625 9.5 11.031 1.0625-0.90625-9.9688-10.75zm13.719 9.8125-1.125 1.3125 17.938 18.25 1.5-3.0625-18.312-16.5zm-2.25 2.4062-1.4375 1.4375 17.469 21.188 2.25-2.9688-18.281-19.656z" fill="url(#linearGradient3996)" fill-rule="evenodd"/>
  <path id="path3998" d="m91.938 5.4062-9.5938 25.125 1.5938 0.78125 10.938-24.625-2.9375-1.2812zm4.375 1.9375-11.625 24.281s2.3742 1.2074 1.9062 0.90625c-0.31874-0.20513 13.372-23.671 13.406-23.656l-3.6875-1.5312zm-14.5 24.875-7.0938 18.406 0.4375 0.25 8-17.812-1.3438-0.84375zm2.0625 1.1875-8.4062 17.625 0.375 0.28125 9.6875-17.125-1.6562-0.78125z" fill="url(#linearGradient4007)" fill-rule="evenodd"/>
 </g>
 <g id="layer1">
  <path id="path2310" d="m91.281 1.1875c-2.9828 7.9656-6.3767 17.259-9.375 25.219l-0.40625-4.7188-15.781-14.75-19.594-3.6875-12.875 17.031-3.625-3.1875-1.9062 2 2.25 1.625-1.3438 3.0312c-0.16995 0.35708-1.5994-1.3796-2.2812-1.1562-0.85745 0.28093-0.97378 2.5323-1.1875 3.0625l2.0312 1.1562-1.5 3.3438-3.0625-2.0938-1.5938 2.7188 10.031 5.9062-5.8438 58.781-0.6875 0.34375-4.1562 4.0625-0.5 5.5625-12.281 14.25 2.5938 0.34375 7.6875-4.5312 3.9062 1.125-0.28125 1.7188 2.875 0.9375 1.5-0.9375 0.0625-0.46875 6.5625 1.9375-0.0625 1.8438 2.8438 0.9375 1.5938-1.0938v-0.40625l15.062 4.4375 44.75-17.219-3.8438-13.344-5.1562-2.0625-1.7188-18.781 20.75 25.562 1.7812-2.3125-2.125-1.8125 1.4375-2.3438 1.875 1.125 1.2188-2.4062-1.6875-1.5938 1.125-2.5312 2.375 1.4375 1.7188-1.6875-2.6875-2.1562-26.844-23.625-1.6562-19.438 21.781-36.625-3-0.625-1.4688 2.0938-2.6562-1.2812 1.0312-1.75-2.2188-1.4375-1 2.125-2.375-1.125 0.625-2.25-2.6875-0.28125zm0.28125 0.375 1.75 0.28125-0.71875 2.2812 3.3125 1.4062 0.9375-2.25 1.6562 0.875-1.3125 2.2188 3.4688 1.4688c0.20232 0.026134 1.3602-2.3154 1.5625-2.125l2.0625 0.21875-27.812 46c0.6498 0.67917 1.1569 1.5998 1.0938 2.8438-0.007366 0.54604-0.20985 1.0436-0.34375 1.5625l36.406 31.281-1.0938 1.0312-2.375-1.875-1.625 3.5312 1.8438 1.75-0.78125 1.7188-2.125-1.1562-1.7188 2.9375 2.0312 1.875-1.125 1.4688-30.312-37.938c-2.0695 1.0865-3.2447 0.99686-4.5938 0.5625l-13.438 51-2.4375-0.625 0.5625-3.0312-5.875-1.3125-0.6875 3-3-0.84375 1.4688-2.6562-4.2188-0.9375-1.625 1.5625-1.3125-0.375 26.125-45.656 0.1875-0.03125v-0.03125l-0.09375-0.0625 0.4375-0.78125c-1.2096-0.98936-1.9889-1.891-1.8125-3.125l-44.219-27.094 0.875-1.375 3.2188 1.8125 2.0312-4.4375-2.2812-1.4688 0.90625-2.0938 2.5312 1.625 1.875-3.7188-2.3125-2 1.0312-0.96875 38.844 34.906c0.77593-0.80257 1.3131-2.4151 5.125-2.125 5.9037-15.839 11.912-33.319 17.906-49.125zm-45.281 2.5312 18.5 3.5938-11.438 20.156-17.625-5.5-1.5938-1.5625 12.156-16.688zm45.625 1.0938-9.7188 25.5 1.8438 0.90625 11.125-25.062-3.25-1.3438zm0.34375 0.65625 2.2812 0.90625-10.656 24.25-1.1875-0.53125 9.5625-24.625zm-44.781 0.96875-1.5312 1.9688-1.3438-0.3125-0.15625 0.375 0.96875 0.46875-4.8125 6.6875-1.2812-0.375-0.3125 0.40625 1.125 0.53125-1.6875 2.0938 0.34375 0.34375 2.0312-2.1562 3.0625 1.125 0.3125-0.34375-3.0312-1.3125 4.875-6.8125 4.3125 0.75-1.875 2.5625 0.46875 0.09375 1.8438-2.5 1.5312 0.25 0.15625-0.25-1.4375-0.59375 1.1562-1.6875-0.4375-0.21875-1.3125 1.7812-3.9375-0.71875 1.375-1.7812-0.40625-0.375zm48.625 0.125-11.688 24.906 2.2188 0.875 13.75-24-4.2812-1.7812zm0.40625 0.75 2.9688 1.3438-12.969 23.156-1.4688-0.625 11.469-23.875zm-30.5 0.3125 14.969 13.875-27.125 6.375 12.156-20.25zm-4.0625 0.96875-0.90625 1.6562-2.0312-0.53125-0.0625 0.125 1.75 1-2.125 3.9375-2.3125-1.0312 0.53125-1.3438-0.3125-0.09375-0.8125 1.3125-1.0938-0.25-0.3125 0.28125 1.1875 0.4375-1.4375 3.1875-1.75-0.8125c0.1467-0.28425 0.46916-1.165 0.5625-1.375l-0.65625 0.28125c-0.10213 0.2298-0.2784 0.63143-0.46875 1l-4.25-0.9375 0.09375 0.375 3.7812 1.1562c-0.79594 1.4527-1.7572 3.1954-2.5938 4.625l0.28125 0.125c1.0072-1.4482 2.2623-2.9844 2.7188-4.6562l2.3438 0.90625 0.875 0.21875-0.625-0.65625 1.625-3.2188 2.3438 1.125-0.6875 1.125 0.84375 0.46875 0.625-1.4062 0.84375 0.09375-0.8125-0.5625 2.0625-3.9375 0.71875 0.28125 0.25-0.96875-0.625-0.03125 0.71875-1.6875-0.28125-0.21875zm4.4688 3-1.5312 11.688 9.5625-2.3438-4.4062-5.9062-3.625-3.4375zm0.78125 2.4062 2.2812 1.2812-4.0312 7.1562 1.75-8.4375zm4.6875 0.21875-0.46875 0.28125 4.125 4.4688-1.1562 0.40625 0.0625 0.5 1.625-0.34375 1 1.1875 0.25-0.40625-0.6875-0.84375 1.0312-0.15625-0.125-0.40625-1.3438 0.15625-4.3125-4.8438zm-2.1562 1.3125 0.96875 1.5v0.03125l0.15625 3.7812-2.0938 0.5v-3.8125l0.96875-2zm-8.2188 1.8438-0.4375 0.3125 0.375 1.1562-0.78125 0.375 0.25 0.25 0.71875-0.1875 1.25 3.7188-3.0312 0.71875-0.9375-2.4688-0.4375 0.125 0.875 2.4375-1 0.53125 0.09375 0.3125 1.0938-0.3125 0.4375 1.2188 0.46875-0.1875-0.28125-1.1875 2.8125-0.875 0.3125 0.90625 0.25-0.125-1.4062-4.9375 1.625-0.4375v-0.28125l-1.75 0.21875-0.5-1.2812zm9.6562 0.4375 1.625 2.5625-1.5 0.375-0.125-2.9375zm-2.8438 0.59375 0.03125 3.0312-1.6875 0.40625 1.6562-3.4375zm-13.344 1.8438-0.65625 1.25-2.5625-0.8125-0.3125 0.5 2.5625 0.71875-1.5 3.1562 0.46875 0.0625 1.4688-2.5312 1.3438 0.40625 0.0625-0.46875-1.1562-0.59375 0.71875-1.4375-0.4375-0.25zm-23.406 0.09375-2.0625 4.5938 19.594 15.406 1.3125-2.4375-18.844-17.562zm0.3125 1.625 17.844 15.938-0.875 1.5938-18.375-14.625 1.4062-2.9062zm48.75 0.34375 0.5 5.7812c-2.0087 5.3508-4.0056 10.728-5.5312 14.812-0.84834 2.2712-1.559 4.1954-2.0625 5.5625-0.1857 0.50419-0.34269 0.83982-0.46875 1.1875-1.8627 0.2233-3.5236 0.34041-4.6875 1.875l-1.9688-1.8125-1.5938-16.719-7.5 1.8438 0.09375 6.6562-3.5312-3.2188 0.125-9.875 26.625-6.0938zm-43.156 1.2188 15.562 4.875-0.15625 9-15.406-13.875zm37.812 1.2188-0.28125 0.0625 0.875 6.8438-4.625 1.3438-0.21875-2.25-0.28125 0.0625 0.21875 2.2812-1.3125 0.375 0.15625 0.1875 1.1562-0.34375 1 10.906 0.28125 0.03125-1-11 4.6562-1.375 0.3125 2.4688 0.28125-0.03125-0.3125-2.5 1.9688-0.59375-0.03125-0.21875-1.9688 0.5625-0.875-6.8125zm-46.594 1.75-2.1875 4.9688 20.281 12.375c0.32483-0.7963 0.8007-1.8135 1.4375-2.3125l-19.531-15.031zm0.4375 1.1562 18.531 13.938-0.96875 1.7812-19.219-12.281 1.6562-3.4375zm52.594 4.0625-7.1875 18.625 0.6875 0.34375 8.0938-18.125-1.5938-0.84375zm0.1875 0.5 0.875 0.53125-7.625 17.594-0.34375-0.0625 7.0938-18.062zm1.9062 0.53125-8.4375 17.969 0.5625 0.34375 9.875-17.438-2-0.875zm0.28125 0.46875 1.1562 0.5-9.375 17.094-0.25-0.21875 8.4688-17.375zm-19.656 0.125 0.75 7.875-2.2188 0.40625-0.59375-7.5625 2.0625-0.71875zm-2.6875 0.9375 0.65625 7.4688-2.0625 0.34375-0.5-7.4375 1.9062-0.375zm-2.2188 0.4375 0.25 7.3438-1.5938 0.15625-0.34375-0.3125-0.21875-6.7812 1.9062-0.40625zm-28 1.8438 21.125 13.156-0.59375 36.375-2.5938 4.5c-0.031909-1.3206-0.088171-4.1831-0.125-7.0312l1 0.1875 0.0625-0.4375-1.0625-0.21875c-0.006297-0.56208-0.03125-1.3621-0.03125-1.7812l-0.3125-0.0625c0 0.50292-0.002924 1.0761 0 1.7812l-3.0938-0.625 0.25-4.0625 2.8438 0.46875 0.0625-0.3125-2.875-0.46875 0.1875-3.25-0.375-0.0625-0.21875 3.25-8.7812-1.4688-0.0625 0.375 8.8125 1.4062-0.25 4.0312-1.2188-0.25-0.0625 0.5 1.25 0.25-0.09375 1.1562 0.4375-0.0625 0.0625-1.0312 3.125 0.625c0.015342 3.2423 0.057892 7.2441 0.0625 7.8125l-4.6562 8.0938 0.78125-13-15.125-3.375-0.71875 16-0.375 0.1875-1.4688-0.28125 0.09375-1.2188-1.875-0.4375 5.8125-60.719zm20.219 2.625-1.2812 2.125 16.156 12.938 0.875-1.1875-15.75-13.875zm-17.625 0.5-0.75 7.9375c-0.36296-0.069795-0.73391-0.15017-1.0938-0.21875l-0.1875 0.3125c0.41678 0.088328 0.83158 0.16959 1.25 0.25l-0.09375 0.96875h0.3125l0.0625-0.90625c2.2984 0.43252 4.6214 0.75976 6.9375 1.0938l-0.0625 0.96875 0.25 0.0625 0.0625-1c0.49986 0.072217 1.0008 0.14448 1.5 0.21875l0.125-0.1875c-0.53922-0.071314-1.0809-0.16666-1.625-0.25l0.1875-2.7812-0.25-0.0625-0.1875 2.8125c-2.3032-0.35916-4.6235-0.81077-6.9062-1.25l0.59375-7.8438-0.125-0.125zm17.781 0.1875 15.219 13.312-0.375 0.6875-15.688-12.594 0.84375-1.4062zm13.312 2.1562 0.71875 7.25-2.5625-2.3125-0.34375-4.5938 2.1875-0.34375zm-2.75 0.46875 0.3125 3.9062-2.375-2.1562-0.0625-1.4062 2.125-0.34375zm-12.656 0.09375-1.5 2.2188 17.062 11.062 0.5625-0.9375c-5.1725-4.3047-11.585-8.1904-16.125-12.344zm9.9062 0.03125 0.0625 1.0625-1.0938-1 1.0312-0.0625zm-9.8125 0.6875 15.719 11.719-0.28125 0.5-16.344-10.688 0.90625-1.5312zm32.531 0.09375 1.4375 17.062-1.5938-1.2188-1.1875-13.531 1.3438-2.3125zm-1.7188 2.8438 0.65625 7.5-2.125 0.59375-0.375-5.0625 1.8438-3.0312zm-2.4062 3.9375 0.34375 4.0312-0.8125 0.125c0.098465-0.85014 0.12189-1.7287-0.5625-2.4688l1.0312-1.6875zm-24.656 0.15625 3.9062 2.4375 0.15625 10.656 8.8438-1.9688-14 24.094 1.0938-35.219zm-22.5 0.53125-1.125 11.781 20.656 2.9688 0.5625-12.688-20.094-2.0625zm0.4375 0.5 4.375 0.5-0.46875 5.5-4.3125-0.59375 0.40625-5.4062zm4.75 0.53125 4.4688 0.5-0.5 5.6562-4.4688-0.625 0.5-5.5312zm4.9375 0.53125 4.5938 0.53125-0.28125 5.8125-4.8125-0.65625 0.5-5.6875zm16.656 0.5625 1.9062 1.1875-1.875 0.3125-0.03125-1.5zm-11.5 0.03125 4.3125 0.46875-0.3125 5.9688-4.375-0.625 0.375-5.8125zm24.688 0.1875c-1.8217 0.79329-3.3423 1.9563-1.9688 5.1562l4.4688 1.5312c3.7553-0.74307 3.7211-3.0026 2.9688-4.5938l-5.4688-2.0938zm0.1875 0.53125 4.5938 1.6875c1.0863 0.7164 1.3873 2.9182-2.5312 4l-3.75-1.4062c-0.53842-1.0481-0.45803-3.2779 1.6875-4.2812zm10.156 1 0.40625 4.1875-2.4062-1.8125-0.15625-2.0312 2.1562-0.34375zm-21.031 0.03125 0.53125 7.5938-2.875 0.59375-0.09375-7.875 2.4375-0.3125zm0.65625 0.1875 2.5 1.5625 0.40625 5-2.4688 0.59375-0.4375-7.1562zm17.625 0.25 0.09375 1.4062-1.0938-0.84375c-0.004114-0.1276 0.021469-0.27079 0.03125-0.40625l0.96875-0.15625zm-3.1875 0.40625c-2.0118 0.33394-2.968 1.6511-2.3125 3l0.25 0.125c-0.11443-1.2437 1.061-2.1681 2.2188-3.0938l-0.15625-0.03125zm2.2188 1.1875c-0.086095 0.72955 0.075828 1.3846-0.09375 2.0312l11 10.688 1.4375-1.5625-12.344-11.156zm-13.531 0.09375 1.3438 0.84375c0.077994 0.79028 0.45439 1.6021 1.3125 2.3438l0.0625 0.71875-2.3125 0.65625-0.40625-4.5625zm-33.062 0.3125 4.3125 0.625-0.4375 4.9375-4.25-0.5625 0.375-5zm46.875 0.3125 11.469 10.5-0.78125 0.8125-10.812-10.125 0.125-1.1875zm-42.219 0.375 4.4688 0.65625-0.4375 4.8438-4.5-0.59375 0.46875-4.9062zm4.9375 0.71875 4.8125 0.6875-0.25 4.8125-5-0.65625 0.4375-4.8438zm36.781 0.65625c0.027203 0.17235-0.38864 0.58318-0.6875 0.78125l9.7812 11.5 1.1875-1.3125c-3.4609-3.5676-6.5785-7.7748-10.281-10.969zm-31.5 0.09375 4.4062 0.65625-0.25 4.7188-4.5-0.59375 0.34375-4.7812zm31.562 0.28125 9.7188 10.406-0.8125 0.6875-9.1875-10.656 0.28125-0.4375zm-10.656 0.5c0.086728 0.072268 0.15307 0.14817 0.25 0.21875l-0.125 0.21875-0.125-0.4375zm1.2188 0.59375-9.2188 16.875 2.5625 1.0625 7.2188-17.656-0.5625-0.28125zm0.0625 0.25 0.28125 0.1875-7.3125 17.031-1.6875-0.71875 8.7188-16.5zm1.375 0.15625-6.9375 17.719 3.125 0.6875 4.5-18.094-0.6875-0.3125zm6.3438 0.03125 0.40625 0.5 0.28125 5.1875-2.4062 0.375-0.0625-5.375c0.72139-0.13235 1.2424-0.47893 1.7812-0.6875zm-6.2812 0.3125 0.375 0.03125-4.4688 17.531-2.4062-0.40625 6.5-17.156zm2.5625 0.1875c0.60562 0.20492 1.1015 0.24014 1.5312 0.21875l0.21875 14.688 9.8125-2.625-0.46875-3.5312 1.5312 1.9375 2.375 21.75c-8.6975 2.7208-17.264 5.8668-25.875 8.8438l0.625-2.0312 9.4375-2.9062-2.3438-24.406 3.1562-11.938zm-16.75 0.34375-0.25 0.03125-0.0625 6.7812-1.25 0.4375v0.3125l1.2188-0.4375v1.1875l0.21875-0.0625 0.03125-1.2188 1.7812-0.65625 0.15625 6.9062 0.1875-0.03125-0.0625-6.9688 3.375-1.2188-0.1875-0.21875-3.1875 1.1562-0.03125-1.75h-0.28125l0.03125 1.8438-1.7812 0.625 0.09375-6.7188zm21.5 0.4375 2.5625 3.25 0.0625 0.84375-2.4062 0.40625-0.21875-4.5zm-40.719 1.9688-0.65625 5.75-4.375-0.875 0.15625-1.5312h-0.375l-0.15625 1.4688-0.625-0.125-0.125 0.3125 0.71875 0.15625-0.875 8.75 0.4375 0.0625 0.8125-8.75 4.375 0.90625-0.1875 1.625 0.375 0.125 0.1875-1.6875 3.8438 0.8125-0.40625 3.25 0.3125 0.125 0.40625-3.3125 3.0625 0.625 0.1875-0.375-3.2188-0.65625 0.1875-1.4688-0.3125-0.0625-0.1875 1.4688-3.8438-0.75 0.59375-5.7188-0.3125-0.125zm44.188 2.375 2.4375 3.0625 0.3125 3.6562-2.2812 0.65625-0.65625-7.3438 0.1875-0.03125zm-0.78125 0.1875 0.59375 7.25-2.4688 0.75-0.46875-7.6562 2.3438-0.34375zm-2.9688 0.5 0.5625 7.6562-2.9688 0.90625-0.03125-8.25 2.4375-0.3125zm14.594 1.5-1.4375 1.5312 18.406 18.875 1.625-3.6875-18.594-16.719zm0.0625 0.6875 17.75 16.25-1.0625 2.4062-17.594-17.812 0.90625-0.84375zm-2.2812 1.6562-1.7188 1.8125 17.781 21.438 2.5312-3.3438-17.656-18.969-0.9375-0.9375zm0 0.53125 17.781 19.312-1.875 2.7188-17.125-20.75 1.2188-1.2812zm-20.312 3 0.25 2.9062-1.0938 0.3125 0.84375-3.2188zm12 2.375-0.28125 0.0625 0.21875 1.6875-1.4375 0.40625 0.125 0.3125 1.375-0.375 0.75 5.5-4.3438 1.5-0.78125-4.8438-0.34375 0.03125 0.78125 4.9375-1.0312 0.34375 0.21875 0.28125 0.875-0.28125 0.8125 5.125 0.40625 0.28125-0.875-5.5312 4.3438-1.4688 0.25 1.8125 0.34375-0.15625-0.25-1.75 2.0312-0.6875-0.21875-0.375-1.875 0.65625-0.8125-5.4688 2.7812-0.78125-0.15625-0.28125-2.6562 0.75-0.25-1.6875zm-22.562 1.5312-14.344 25.625 4.875 1.375 12.094-26.094-2.625-0.90625zm10.906 0 1.125 11.438-2.4062 0.28125-0.71875-9.3438 0.5625-2.1562 1.4375-0.21875zm-10.719 0.59375 1.5938 0.59375c-3.8988 8.214-7.5081 16.955-11.5 25.125l-3.6875-0.9375 13.594-24.781zm3.5938 0.5625-11.125 26.438 7 2 7.6562-27.5-3.5312-0.9375zm0.28125 0.6875 2.7188 0.6875-7.5 26.25-5.6562-1.7188 10.438-25.219zm4.375 2.3438 0.59375 7.625-2.4062 0.40625-0.03125-1.0312 1.8438-7zm-35.812 0.84375 13.656 3.3125-0.6875 13.406-1.4688 2.5312 0.40625-14.906-10.25-2.5938-0.75 12.25-1.6875 0.875 0.78125-14.875zm2.1562 2.4062 9.2188 2.4688-0.4375 11.844-9.5-2.4375 0.71875-11.875zm0.9375 0.6875-0.90625 4.9375 2.5-2.25-2.1562 5.4688 3.3438-3.9688-2.5312 6.875 4.2812-5.5625-2.25 6.25 0.0625-0.0625 3.625-4.8125-1.6875 5.2812 2.25-2.25v2.5312l1.0625-5-2.2812 2.625 2.2812-6.3438-3.3438 3.8438 2.4688-5-4.8125 5.0625 2.75-5.9375-3.4375 3.1875 2.0938-3.9688-3.625 2.7188 0.3125-3.625zm36.281 3.6562 0.625 7-2.2812 0.65625-0.65625-7.3438 2.3125-0.3125zm-2.9062 0.46875 0.625 7.4688-2.5 0.78125-0.46875-7.9062 2.3438-0.34375zm-2.9688 0.625 0.625 7.875-2.875 0.84375 2.25-8.7188zm23.344 1.9375 2.375 1.0625-3.1875 1.2188-1.2188-0.46875c0.86431-0.30332 1.7289-0.60498 2.5938-0.90625l-0.5625-0.90625zm4.25 1.4375 0.5 1.7812-4.1562 1.5312-0.5625-1.7812 4.2188-1.5312zm-6.5938 0.5 1.1875 0.5-8.75 3.375-1.5-0.65625c3.021-1.0777 6.0373-2.1562 9.0625-3.2188zm2.0938 1.1562 0.40625 1.8438-9 3.3125-0.71875-1.75 9.3125-3.4062zm-62.406 0.09375-0.0625 0.4375-0.53125 0.09375 0.59375-0.53125zm67.5 0.34375 0.6875 2.4375-8.3438 3.1875-0.6875-2.5312 8.3438-3.0938zm-67.281 0.15625 1.7188 0.5625-0.65625 0.09375-1.6875-0.4375 0.625-0.21875zm-0.9375 0.46875 1.7188 0.53125-0.65625 3.7812-1.375-0.125 0.3125-4.1875zm-0.4375 0.03125-0.0625 0.84375-0.84375 0.75-0.59375-0.28125 1.5-1.3125zm3.3125 0.25-0.25 3.5938-1.0312 0.1875 0.4375-3.5625 0.84375-0.21875zm4.3438 0.78125 5.3125 1.4375-2.125-0.46875-1.2188 0.4375-0.3125 3.9375-7.0312-1.9688 1.125-0.46875 0.0625-0.875 4.1875-2.0312zm44.25 0.09375 1.4062 0.71875-11.625 4.4688h-0.15625l-1.5312-0.9375c3.9684-1.4115 7.9378-2.8337 11.906-4.25zm-52 0.0625-0.0625 0.75-0.46875-0.21875 0.53125-0.53125zm3.6875 0.6875 0.46875 0.15625-0.53125 0.28125 0.0625-0.4375zm-6.4375 0.03125 1.8125 0.625-0.59375 2.4688-0.3125 0.21875-1.25-0.34375 0.34375-2.9688zm72.25 0.125 0.75 2.6875-3.4375 1.375-1.2188-2.5625 3.9062-1.5zm-58.25 0.21875 1.8125 0.53125-0.84375 0.21875-1.7188-0.4375 0.75-0.3125zm42.812 0.15625 0.59375 1.8125-12.188 4.5-0.4375-1.9062 12.031-4.4062zm-54.844 0.15625 0.625 0.21875-0.09375 1.3125-0.71875 0.5 0.1875-2.0312zm60.812 0 0.65625 2.5625-10.812 4.125-0.5625-2.7188 10.719-3.9688zm-46.438 0.0625 3.1875 0.875-3.8125 2.2188 0.625-3.0938zm-3.4688 0.25 1.75 0.4375-0.625 3.4062-0.1875 0.125-1.2188-0.34375 0.28125-3.625zm3.0312 0.0625-0.53125 2.9688-0.84375 0.5 0.40625-3.0312 0.96875-0.4375zm4.9375 0.53125 0.03125 1.4688-6.8125 5.1562 0.21875-2.5 6.5625-4.125zm47.219 0.15625 1.2188 2.5625-9.7812 3.9062-0.6875-2.9375 9.25-3.5312zm-65.75 1.0938-0.21875 1.625-13 14.531-1.4688 0.34375 14.688-16.5zm0.375 0 11.062 3.125-0.09375 2.0938-11.188-3.5 0.21875-1.7188zm70.406 0.375 0.625 2.25-8 3.2188-0.90625-2.1875 8.2812-3.2812zm-73.5 0.28125 0.78125 0.21875-0.875 0.625 0.09375-0.84375zm42.781 0.15625 1.6875 0.96875-4.7188 1.8125 0.6875-1.9375c0.78211-0.27693 1.5618-0.56581 2.3438-0.84375zm-21.469 0.65625-0.625 1.0625-0.5625-0.1875 1.1875-0.875zm30.812 0.46875 0.46875 2.75-11.344 4.3125-0.40625-2.875 11.281-4.1875zm-49.219 0.21875 1.4688 0.46875-0.9375 12.906-2.2188-0.375 1.6875-13zm41.938 0.0625 0.34375 1.9688-6.125 2.25 0.75-2.375 5.0312-1.8438zm13.969 0.375 0.71875 2.9062-12.219 4.875-0.5625-3.1562 12.062-4.625zm-53.875 0.21875 0.8125 0.1875-0.46875 6.875h-0.03125v0.375l-0.3125 4.875-1.0625 0.5625 1.0625-12.875zm69.312 0.21875 0.4375 1.5938-2.9688 1.2188-0.65625-1.5312 3.1875-1.2812zm-55.125 0.0625 0.40625 0.09375-3.5938 6.4062-0.09375-2.2188 2.0938-3.375 1.1875-0.90625zm-12.844 0.125 0.8125 0.25-0.9375 1.2812 0.125-1.5312zm13.562 0.0625 0.65625 0.1875-0.65625 1.3125 2.25 0.71875 1.625-1.8438 0.40625 0.125-0.8125 3.2812-4.7188-1.4062 1.25-2.375zm-17.719 0.15625-0.1875 1.9062-2.0625 3.0625-2.3438 3.4062-6.9688 3.9375 11.562-12.312zm5.625 0.25 0.78125 0.25-2.5625 3.125 0.125-1.375 1.6562-2zm57.188 0.0625 0.75 2.25-10.875 4.375-0.625-2.375 10.75-4.25zm-40.531 0.125 2.4688 0.78125-1.2812 2.4688 4.0312 1.25 0.53125-2.2812 0.5625 0.1875-0.15625 2.9062-6.875-2.0312 0.71875-3.2812zm-14.875 0.375 2.8125 0.875-0.09375 3.0312-3.4062-0.875 0.6875-3.0312zm-0.53125 0.1875-0.625 2.7188-1.3125-0.34375 1.9375-2.375zm61.75 0 0.625 1.5312-9.6875 3.9375-0.46875-1.625 9.5312-3.8438zm-53.531 0.09375-1.4062 2.1875-0.0625-1.0938 1.4688-1.0938zm-4.4062 0.71875 1.2188 0.375 0.125 13.219-1.8125-0.5625 0.46875-13.031zm2.6562 0.40625 0.4375 12.844-1.0938 0.5-0.125-12.938 0.78125-0.40625zm3.0938 0.46875 8.625 2.5312-0.46875 3.125-9.0625-2.2812 0.90625-3.375zm21.875 0.125 0.40625 2.9062-9.5625 3.625c0.038716-1.0627 0.059591-2.0983 0.09375-3.125l3.4688-1.3125-0.34375 1.0312 3.4688 0.625 1-3.1875 1.4688-0.5625zm-8.9688 0.125 1.9062 0.03125 0.21875 0.0625-0.0625 2.0312-2.125 0.78125c0.030814-0.98711 0.06166-1.9815 0.0625-2.9062zm-29.625 0.0625-0.21875 2.4688-1.0938-0.3125c0.60168-1.0621 1.1252-1.9895 1.3125-2.1562zm31.906 0.0625 1.5938 0.40625-0.34375 1.0625-1.0625 0.40625-0.1875-1.875zm-15.719 0.1875-0.65625 2.75-0.6875-0.15625 1.3438-2.5938zm-11.219 0.40625 5.3438 1.4062-0.96875 3-5.4688-1.5 0.15625-1.75 0.9375-1.1562zm39.5 0.28125 0.5 3.1875-11.344 4.5312-0.4375-3.4062 11.281-4.3125zm7.4375 0.8125 0.5625 2.375-11.656 4.6875-0.375-2.5312 11.469-4.5312zm7.1562 0.21875 0.46875 1.625-12.75 5.1875-0.375-1.75 12.656-5.0625zm-33.469 0.3125 3.125 0.9375-0.15625 3.0625-3.3438-0.84375 0.375-3.1562zm-27.094 0.21875 1.25 0.34375-0.15625 1.875-2.0625-0.625c0.33558-0.51505 0.6605-1.0569 0.96875-1.5938zm11.844 0.34375-0.09375 2.5-0.53125-0.15625 0.625-2.3438zm4.3125 0.34375 5.7188 1.5-0.71875 3.2188-5.4375-1.4688-0.09375-2.2188 0.53125-1.0312zm-10.812 0.75 0.375 0.09375-0.53125 1.9375 0.15625-2.0312zm0.75 0.21875 5.6562 1.5-0.09375 2.2812-6-1.8438 0.4375-1.9375zm-7.25 0.21875 0.53125 0.15625-0.65625 1.5-1-0.25c0.35778-0.31525 0.73264-0.82646 1.125-1.4062zm0.84375 0.28125 1.375 0.40625-0.15625 1.5625-2.0312-0.53125 0.8125-1.4375zm22.406 0.09375 7.9375 2.0938-0.15625 3.4375-8.3438-2.2812 0.5625-3.25zm12.375 0.59375 0.25 3.4688-3.8438 1.5312c0.010922-1.2199 0.019452-2.4408 0.0625-3.6562l3.5312-1.3438zm-29.312 0.9375 4.9375 1.4688-0.8125 1.5312-4.25-1.4062 0.125-1.5938zm36.469 0.125 0.3125 2.5625-11.031 4.4375c-0.033842-0.90244-0.036172-1.8274-0.03125-2.75l10.75-4.25zm-25.906 0.34375 0.40625 0.09375-0.3125 1.8125-0.09375-1.9062zm0.8125 0.1875 9 2.4375-0.375 2.6562-9.1562-2.7812 0.53125-2.3125zm30.969 0.28125 0.21875 1.7812-11.688 4.75-0.15625-1.875 11.625-4.6562zm-37.188 0.59375 1.3438 0.40625-0.0625 1.8438-1.9688-0.65625 0.6875-1.5938zm5.5312 1.6562 4.75 1.4375-0.40625 1.4062-4.2812-1.25-0.0625-1.5938zm10.031 0 3.9688 1.0625-0.125 2.875-4.2188-1.2812 0.375-2.6562zm-4.875 1.5625 8.6875 2.5938-0.0625 1.4688-9.0312-2.6562 0.40625-1.4062zm14.594 0.96875-0.09375 1.9688-4.4688 1.8125c-0.059312-0.62814-0.094555-1.258-0.125-1.9062l4.6875-1.875z" fill-rule="evenodd"/>
 </g>
</svg>
