<?xml version="1.0" encoding="UTF-8"?>
<!DOCTYPE svg  PUBLIC '-//W3C//DTD SVG 1.0//EN'  'http://www.w3.org/TR/2001/REC-SVG-20010904/DTD/svg10.dtd'>
<!-- Created with Sodipodi ("http://www.sodipodi.com/") -->
<svg id="svg32" width="437.5" height="437.5" version="1.0" xmlns="http://www.w3.org/2000/svg" xmlns:xlink="http://www.w3.org/1999/xlink">
 <defs id="defs34">
  <linearGradient id="linearGradient129">
   <stop id="stop130" stop-color="#fff" stop-opacity=".6235" offset="0"/>
   <stop id="stop131" stop-opacity=".4588" offset="1"/>
  </linearGradient>
  <linearGradient id="linearGradient132" x1=".5591" x2=".54952" y1="-.083528" y2=".93294" xlink:href="#linearGradient129"/>
  <linearGradient id="linearGradient142" x1=".87785" x2=".014196" y1=".38286" y2=".38857" xlink:href="#linearGradient129"/>
  <linearGradient id="linearGradient48" x1="1.4545" x2=".066123" y1=".50857" y2=".54286" xlink:href="#linearGradient129"/>
  <linearGradient id="linearGradient49" x1=".49309" x2=".57144" y1=".42857" y2=".51429" xlink:href="#linearGradient129"/>
  <linearGradient id="linearGradient50" x1=".45062" x2=".40769" y1=".42857" y2=".47429" xlink:href="#linearGradient129"/>
  <linearGradient id="linearGradient53" x1="-.33722" x2=".46689" y1=".54857" y2=".56" xlink:href="#linearGradient129"/>
  <linearGradient id="linearGradient54" x1="1.0947" x2=".41306" y1=".125" y2=".8125" xlink:href="#linearGradient129"/>
 </defs>
 <path id="path19" d="m36.964 331.58c2.7652 15.582-14.216 17.748-16.382 24.245 15.308 11.025-24.446 27.825-17.037 32.764 5.2604 4.603 83.471 36.124 96.325 37.35 78.711 15.182 242.05 4.331 271.94-9.829 35.815-20.16 53.926-22.346 59.627-32.108-3.375-8.095-35.034-23.199-28.175-29.487-5.715-7.143-30.348-6.403-24.901-21.624-17.264-4.933-3.372-0.032-15.726-9.174-4.616-1.154-5.819-11.14-10.485-11.14-42.088-28.252-247.46-19.002-290.94 4.588-6.202 12.333-16.999 12-24.245 14.415z" fill="#42aa44" fill-rule="evenodd"/>
 <path id="path20" d="m69.989 367.18c6.1136 12.745-26.948 44.08-15.476 49.638 131.3-13.288 171.21-22.008 243.45 2.948 8.3221-6.048 80.501-51.179 63.398-55.534-26.444-3.932-186.1-5.023-291.37 2.948z" fill-opacity=".2266" fill-rule="evenodd"/>
 <path id="path12" d="m72.313 346.85c0-18.98 2.62-50.238 2.62-62.251 0-6.552-2.621-93.048-2.621-99.601 0-2.369 2.622-1.107 2.622-2.621 3.817-3.817 139.88-115.76 145.69-115.76 73.609 48.927 78.471 45.868 85.841 58.536 22.06 10.485 57.886 41.502 65.308 51.986 1.902 3.804-0.733 8.096-1.966 11.795-0.937 7.493-7.863 92.709-7.863 98.945-0.955 6.686 0 43.149 0 55.043 0 4.15-0.14 13.105-0.655 21.624-13.106-0.656-37.032 0.735-42.593-0.655-24.9 0.655-48.296-1.118-72.079-1.311 0.357-10.484 0.654-55.916 0.654-62.906 0-6.116 0.783-44.753 0.783-48.831-0.766-1.531-56.267-2.218-65.781-0.908 0.202 5.343-2.389 42.873-2.495 49.739 0 14.198-0.808 55.197-0.655 65.527-14.152-0.136-69.895 0.656-76.011 0.656h-29.487c-1.669-0.835-1.31-13.567-1.31-19.003z" fill="#9b6200" fill-rule="evenodd" stroke="#000"/>
 <path id="path13" d="m12.028 204.66c2.7671 4.95-0.8291 0.654 10.484 10.483 5.9165 6.534 9.4986-5.7869 15.727-7.8629 63.703-44.453 182.17-139.9 220.06-169.5-3.169-1.5843-9.288-7.9776-11.892-10.581-2.568 0-18.628 10.866-29.939 18.881-98.221 72.08-129.74 89.526-204.44 158.58z" fill="#9b5e00" fill-rule="evenodd" stroke="#000"/>
 <path id="path17" d="m73.164 214.71c8.9788 4.043 23.857 0.724 31.794 1.09 8.8682 0.313 53.447 2.095 66.895 0.656 11.047 0.544 79.961-0.654 99.177 0.656 24.55 1.573 72.472-0.655 95.531-1.311 1.2071-13.593 2.6751-10.484 2.5192-20.313-21.892 1.427-36.69 3.932-58.604 3.932-12.518-1.292-97.502 0-110.03 0-15.167 0-127.91-1.398-127.91-4.369 2.2404 0-0.41777 9.511 0.62134 19.659z" fill="url(#linearGradient132)" fill-rule="evenodd" stroke="#412900" stroke-width=".89858"/>
 <path id="path18" d="m72.635 194.83c8.9788 4.043 26.479 1.598 34.415 1.964 8.8682 0.313 56.068 3.842 69.516 2.403 11.048 0.544 71.661 1.094 90.004-0.654 24.55 1.573 63.298 1.092 102.08-1.748 2.0808-12.719 1.3646-10.047 2.5192-19.876-21.892 1.427-36.69 1.748-58.604 2.621-12.518-1.292-97.502-0.437-110.03-0.437-15.167 0-122.66 0.787-122.66-2.184 2.2403 0-9.1548 2.958-7.2419 17.911z" fill="url(#linearGradient132)" fill-rule="evenodd" stroke="#6b3400" stroke-width=".89858"/>
 <path id="path21" d="m73.509 230.86c8.9788 4.043 24.294 1.161 32.231 1.527 8.8682 0.313 104.56 1.658 118.01 0.219 23.716-0.766 64.234 3.278 83.45 4.588 21.055-2.359 35.777-3.713 58.835-4.369-0.977-12.282 0.9278-7.863 0.3351-17.692-21.892 1.427-49.796 3.058-71.709 3.058-12.518-1.292-80.901-2.184-93.427-2.184-15.167 0-118.29 2.097-127.91-0.874 0.49294 5.242-0.85469 6.889 0.1845 15.727z" fill="url(#linearGradient132)" fill-rule="evenodd" stroke="#360000" stroke-width=".89858"/>
 <path id="path22" d="m73.614 251.18c2.7531 4.043 8.1189 1.598 10.552 1.964 2.7192 0.313 16.388 2.095 20.511 0.656 3.3874 0.544 24.518-0.654 30.41 0.656 7.5274 1.573 22.222-0.655 29.292-1.311 1.3077-12.282 0.9542-10.484 0.7725-20.313-6.7124 1.427-11.687 0.874-18.406 0.874-3.8382-1.292-30.77-1.31-34.61-1.31-4.6506 0-38.374 1.66-38.374-1.311 0.68694 0-1.2697 9.51-0.14738 20.095z" fill="url(#linearGradient132)" fill-rule="evenodd" stroke="#361c00" stroke-width=".49757"/>
 <path id="path23" d="m266.33 251.84c3.0068 4.043 8.867 1.598 11.525 1.964 2.9697 0.313 17.898 2.095 22.402 0.656 3.6995 0.544 26.777-0.654 33.212 0.656 8.2211 1.573 22.522-0.655 30.244-1.311 1.4283-12.282 2.7894-10.484 2.591-20.313-9.9519-1.194-14.034 0-21.372 0-4.1919-1.292-34.835 3.932-39.03 3.932-20.806-2.184-40.364-0.961-40.364-3.932 1.1871 1.748-0.4325 7.763 0.7933 18.348z" fill="url(#linearGradient132)" fill-rule="evenodd" stroke="#2b0000" stroke-width=".52"/>
 <path id="path25" d="m74.488 270.84c2.7531 4.043 7.2452 1.598 9.6786 1.964 2.7192 0.313 23.814 3.406 27.938 1.967 3.3874 0.544 17.091-1.965 22.983-0.655 7.5274 1.573 22.222-0.655 29.292-1.311 1.3077-12.282 0.9542-10.484 0.7725-20.313-6.7124 1.427-10.376 3.058-17.095 3.058-3.8383-1.292-30.333-1.747-34.174-1.747-4.6505 0-39.684 0.786-39.684-2.185 0.68693 0 0.04085 9.074 0.28944 19.222z" fill="url(#linearGradient132)" fill-rule="evenodd" stroke="#2c0000" stroke-width=".49757"/>
 <path id="path26" d="m74.726 289.63c2.8312 4.043 5.2911 1.161 7.7936 1.527 2.7963 0.313 21.221 2.095 26.772 1.53 3.4834 0.544 19.534-1.528 25.593-0.218 7.7409 1.573 23.288-0.655 30.122-3.495 1.3448-12.282-0.7661-6.553-0.9529-16.382-6.9027 1.427-9.8217 2.185-16.731 2.185-3.9471-1.292-30.744 0-34.693 0-4.7824 0-31.661-2.708-36.903-2.621-0.60411 6.989-0.84407 6.889-1.0005 17.474z" fill="url(#linearGradient132)" fill-rule="evenodd" stroke="#000" stroke-width=".50458"/>
 <path id="path27" d="m74.503 307.1c2.8116 4.043 4.7968 2.035 7.282 2.401 2.777 0.313 16.737 2.095 20.947 0.656 3.4594 0.544 25.039-0.654 31.056 0.656 7.6875 1.573 23.568-0.655 30.788-1.311 1.3356-12.282 0.9745-10.921 0.7889-20.75-6.8551 1.427-12.363 4.369-19.225 4.369-3.9199-1.292-30.532 0-34.454 0-4.7494 0-36.615-0.524-36.615-3.495 0.70154 0-1.715 6.889-0.5688 17.474z" fill="url(#linearGradient132)" fill-rule="evenodd" stroke="#230000" stroke-width=".50284"/>
 <path id="path28" d="m73.63 326.76c2.8116 4.043 5.6705 0.724 8.1557 1.09 2.777 0.313 16.737 2.095 20.947 0.656 3.4594 0.544 21.544 1.967 31.056 0.656 7.6875 1.573 22.694-1.092 30.352-3.932 1.3355-12.282 0.1006-6.5519-0.085-16.381-6.8551 1.427-11.052 2.621-17.914 2.621-3.9199-1.292-30.532-1.311-34.454-1.311-4.7494 0-36.615 0.35-36.615-2.621 0.70154 0-2.5887 8.637-1.4425 19.222z" fill="url(#linearGradient132)" fill-rule="evenodd" stroke="#000" stroke-width=".50284"/>
 <path id="path29" d="m72.303 344.23c4.9373 1.422 8.1189 1.598 10.552 1.964 2.7192 0.313 19.009 2.969 23.132 1.53 3.3874 0.544 21.896-1.528 27.789-0.218 7.5274 1.573 22.222-1.092 28.418-3.058 1.3077-12.282 1.8279-8.737 1.6462-18.566-6.7124 1.427-11.25 3.932-17.969 3.932-3.8382-1.292-29.896 0-33.737 0-4.6505 0-38.811-0.524-38.811-3.495 0.68693 0-1.2697 7.326-1.0211 17.911z" fill="url(#linearGradient132)" fill-rule="evenodd" stroke="#310000" stroke-width=".49757"/>
 <path id="path30" d="m72.959 364.33c2.7531 4.043 6.8083 1.162 9.2418 1.528 2.7192 0.313 16.388 0.784 20.511-0.655 3.3873 0.544 24.518-0.654 30.41 0.656 7.5274 1.573 22.222-0.655 29.292-1.311 1.3077-12.282 0.9542-10.484 0.7724-20.313-6.7123 1.427-11.25 3.932-17.969 3.932-3.8382-1.292-29.896 0-33.737 0-4.6505 0-38.811-1.835-38.811-4.806 0.68694 0-0.83286 10.384 0.28945 20.969z" fill="url(#linearGradient132)" fill-rule="evenodd" stroke="#240000" stroke-width=".49757"/>
 <path id="path32" d="m266.31 270.19c2.9287 4.043 9.9474 1.598 12.536 1.964 2.8926 0.313 26.607 3.406 30.994 1.967 3.6036 0.544 16.908-1.965 23.176-0.655 8.0077 1.573 22.329-0.655 29.85-1.311 1.3912-12.282 1.452-8.737 1.2587-18.566-7.1407 1.427-11.094 2.185-18.242 2.185-4.9567-0.855-31.803-0.874-35.889-0.874-4.9473 0-40.088-0.087-44.456-1.311-0.5798 4.806-0.4212 6.016 0.7727 16.601z" fill="url(#linearGradient132)" fill-rule="evenodd" stroke="#270000" stroke-width=".5132"/>
 <path id="path33" d="m265.42 290.06c2.8702 4.043 10.212 2.471 12.749 2.837 2.8349 0.313 16.212 1.659 20.51 0.22 3.5315 0.544 25.997 0.219 33.014-0.655 7.8476 1.573 23.167-0.655 30.538-1.311 1.3633-12.282 0.558-8.737 0.3685-18.566-6.9979 1.427-11.292 0.874-18.297 0.874-4.0015-1.292-35.099 0-39.103 0-4.8483 0-38.352 0.35-38.352-2.621 0.7161 0-2.5971 8.637-1.4271 19.222z" fill="url(#linearGradient132)" fill-rule="evenodd" stroke="#290000" stroke-width=".50805"/>
 <path id="path34" d="m266.89 309.5c2.8916 4.043 8.5274 1.598 11.083 1.964 2.856 0.313 17.213 2.095 21.543 0.656 3.5578 0.544 25.751-0.654 31.94 0.656 7.9062 1.573 22.029-0.655 29.455-1.311 1.3736-12.282 0.3469-9.829 0.1561-19.658-7.0502 1.427-4.6082 0.656-13.413 1.093-4.0314-1.292-34.895 0.873-38.929 0.873-4.8845 0-42.599 0.35-42.599-2.621 0.7215 0-0.4159 7.763 0.7629 18.348z" fill="url(#linearGradient132)" fill-rule="evenodd" stroke="#240000" stroke-width=".50994"/>
 <path id="path35" d="m267.52 328.5c2.8726 4.043 7.1607 0.943 9.6998 1.309 2.8372 0.313 17.1 2.095 21.402 0.656 3.5345 0.544 25.582-0.654 31.73 0.656 7.8542 1.573 23.186-0.655 30.563-1.311 1.3645-12.282 0.1219-7.863-0.0677-17.692-7.0037 1.427-10.865 1.311-17.875 1.311-4.0049-1.292-33.815-1.747-37.822-1.747-4.8524 0-39.479 1.441-39.479-1.53 2.6826 0 0.679 7.763 1.85 18.348z" fill="url(#linearGradient132)" fill-rule="evenodd" stroke="#240000" stroke-width=".50826"/>
 <path id="path36" d="m267.11 344.45c2.8326 4.043 8.7902 3.345 11.294 3.711 2.7977 0.313 16.861 2.095 21.104 0.656 3.4853 0.544 25.226-0.654 31.288 0.656 7.7448 1.573 22.863-0.655 30.138-1.311 1.3455-12.282 0.5449-9.173 0.3579-19.002-6.9062 1.427-11.138 2.621-18.051 2.621-3.949-1.292-30.322-1.311-34.274-1.311-4.7849 0-42.166 0.35-42.166-2.621 0.7067 0-0.8443 6.016 0.3104 16.601z" fill="url(#linearGradient132)" fill-rule="evenodd" stroke="#140000" stroke-width=".50471"/>
 <path id="path37" d="m267.38 363.23c6.1271 0.112 8.6251-0.586 12.455-0.22 2.8155 0.313 16.969 2.313 21.238 0.874 3.5074 0.544 25.387-0.654 31.488 0.656 7.7942 1.573 21.044 0 28.364-0.656 1.3541-12.282 0.988-6.552 0.7999-16.381-6.9504 1.427-12.304 1.966-17.951 3.277-3.9742-1.292-29.645-1.966-33.622-1.966-4.8154 0-36.972 0.787-43.088-2.184-0.1624 5.679-0.41 6.015 0.3152 16.6z" fill="url(#linearGradient132)" fill-rule="evenodd" stroke="#240000" stroke-width=".50632"/>
 <path id="path39" d="m25.2 217.89c5.1555-6.8767 18.148-13.469 24.675-17.999 7.2354-5.1373 38.417-28.878 57.838-43.43 8.6701-9.7724 55.037-43.339 69.352-55.28 20.895-17.155 62.55-49.203 80.471-63.728-10.114-8.9904-5.7071-3.9409-12.148-11.39-16.525 14.429-26.089 18.021-43.498 31.33-10.729 6.5761-80.146 57.201-90.098 64.809-26.465 16.638-95.224 77.961-100.76 82.582 4.4655 3.3394 7.5151 6.2482 14.166 13.106z" fill="url(#linearGradient49)" fill-rule="evenodd" stroke="#290000" stroke-width=".89858"/>
 <path id="path40" d="m81.372 177.14c8.542 2.732 19.052 0.287 26.989 0.653 8.8682 0.313 53.447 2.095 66.895 0.656 11.047 0.544 79.961-0.654 99.177 0.656 24.55 1.573 73.783-1.092 96.841-1.748-15.393-10.971-22.225-13.323-29.37-21.405-7.0385 0.554-12.227 3.714-28.025 5.461-12.518-1.292-97.502 0-110.03 0-15.167 0-94.706 1.224-100.38-1.747-6.0594 4.805-10.247 9.073-22.095 17.474z" fill="url(#linearGradient132)" fill-rule="evenodd" stroke="#430000" stroke-width=".89858"/>
 <path id="path41" d="m104.87 159.88c8.4314 1.187 51.263 2.532 64.71 1.093 11.047 0.544 81.708-1.091 100.92 0.219 24.55-0.611 54.125 1.748 69.975-5.024-16.049-11.627-10.649-6.552-21.726-15.726-21.892 1.427-106.3-0.436-118.83-0.436-15.167 0-57.573-0.524-72.208-0.437-9.7725 8.737-17.24 13.393-22.846 20.311z" fill="url(#linearGradient132)" fill-rule="evenodd" stroke="#4d0000" stroke-width=".89858"/>
 <path id="path42" d="m128.55 139.35c13.347 0.548 35.222 1.875 48.67 0.436 11.048 0.544 65.544 0.22 84.761 1.53 24.55 1.573 34.467-0.437 57.525-1.093-15.393-12.282-16.546-11.576-25.002-18.129-21.892 1.427-1.3056-0.655-23.219-0.655-12.518-1.292-52.944 1.311-65.469 1.311-15.167 0-58.228 1.66-54.297-1.311 5.2985 0.874-15.489 9.292-22.969 17.911z" fill="url(#linearGradient132)" fill-rule="evenodd" stroke="#450000" stroke-width=".89858"/>
 <path id="path43" d="m152.48 121.66c8.8682 0.313 9.9808 2.532 23.428 1.093 11.048 0.544 78.65-1.965 97.867-0.655 24.55 1.573-2.6653 0.218 20.393-0.438-10.151-9.661-13.925-10.483-23.036-17.036-21.892 1.427-55.412-0.218-67.938-0.218-15.167 0-23.717 0.349-29.178-0.656-6.9336 5.679-13.09 12.084-21.535 17.91z" fill="url(#linearGradient132)" fill-rule="evenodd" stroke="#610000" stroke-width=".89858"/>
 <path id="path44" d="m173.73 103.96c11.048 0.544 74.451 1.748 97.51 1.092 4.2649-12.282-15.454-11.357-22.163-18.128-21.892 1.427-42.088 2.184-54.614 2.184-7.741 4.806-8.8432 8.428-20.733 14.852z" fill="url(#linearGradient132)" fill-rule="evenodd" stroke="#340000" stroke-width=".89858"/>
 <path id="path45" d="m193.6 88.893c11.048 0.544 34.748-2.183 53.964-0.873-14.112-11.314-16.337-13.76-26.897-20.968-7.959 5.897-17.361 14.106-27.067 21.841z" fill="url(#linearGradient132)" fill-rule="evenodd" stroke="#340000" stroke-width=".89858"/>
 <path id="path16" d="m242.68 138.48c0 12.66-11.596 22.935-25.884 22.935-14.287 0-25.883-10.275-25.883-22.935 0-12.659 11.596-22.934 25.883-22.934 14.288 0 25.884 10.275 25.884 22.934z" fill-rule="evenodd" stroke="#000"/>
 <path id="path14" d="m182.6 35.635c2.4509 2.0811 11.065 11.599 19.566 16.373 2.7839 5.2643 118.38 87.793 122.9 91.637 3.5796 3.6481 81.552 60.854 83.779 58.22 1.7145-1.3645 13.092-10.738 12.849-13.679-8.3725-9.19-60.236-43.379-64.525-45.102-4.4989-2.496-65.972-42.12-71.244-46.599-4.5577-3.2087-49.885-37.94-55.086-42.483-6.7794-3.7912-35.261-28.247-40.067-33.659-3.075 2.5985-6.533 14.892-8.1745 15.292z" fill="#9c6100" fill-rule="evenodd" stroke="#000" stroke-width="1.0643"/>
 <path id="path38" d="m182.95 36.206c4.7249 8.3573 19.436 16.259 25.322 21.04 6.6281 5.2649 39.835 31.9 50.906 38.329 8.1747 6.6839 61.615 44.648 75.641 56.569 17.972 15.149 56.283 40.286 74.299 49.287 9.8135-7.567 8.2393-5.1481 13.024-13.467-12.728-13.394-25.508-18.208-42.298-30.589-9.3399-7.6853-80.951-51.531-90.549-58.609-11.621-8.5696-99.964-76.391-98.381-78.804 1.7166 1.2658-5.1268 5.5762-7.9636 16.243z" fill="url(#linearGradient50)" fill-rule="evenodd" stroke="#3f0000" stroke-width=".86354"/>
 <path id="path51" d="m180.1 361.54c-1.788-24.394 0-52.582 0-56.025-1.283-3.851-0.321-50.128 2.949-57.009 6.225 0 27.194 0.983 33.419 0.983 5.57 0 27.978-0.5259 30.444 1.9401 0 8.846 0.0259 44.912 0.0259 54.086-1.966 8.191-1.466 29.97 0.983 55.043-18.675 1.336-49.515 0.919-67.821 0.982z" fill="#a47f00" fill-rule="evenodd"/>
 <path id="path52" d="m246.97 250.45c-2.0102 8.978 2.7611 87.504 0.047 110.11-14.196 1.062-59.76 2.62-70.742-0.983-0.0871-15.169 1.6125-102.81 2.8557-112.96 11.987 1.378 61.384 2.8464 67.84 3.8294z" fill="url(#linearGradient53)" fill-rule="evenodd" stroke-width="0"/>
 <path id="path56" d="m242.52 139.16c0 13.428-11.89 24.327-26.539 24.327s-26.538-10.899-26.538-24.327c0-13.429 11.889-24.327 26.538-24.327s26.539 10.898 26.539 24.327z" fill="none" stroke="#806b00" stroke-width="5.6"/>
 <ellipse id="path63" transform="matrix(.94253 0 0 .97333 -51.669 -27.973)" cx="283.8" cy="171.29" rx="28.504" ry="24.573" fill="none" stroke="url(#linearGradient54)" stroke-width="5"/>
 <path id="path47" d="m266.91 362.71c1.07-8.457-0.906-66.275-0.906-72.813 0-7.807-0.309-50.331-0.309-56.196-7.386-0.402-10.906-0.51-18.467-0.51 0 4.8219-0.105 38.593-0.332 56.544 0 7.798-0.267 66.264-0.267 72.91 6.434 0.111 17.335 0.065 20.281 0.065z" fill="url(#linearGradient48)" fill-rule="evenodd" stroke="#280000"/>
 <path id="path48" d="m182.14 248.17c1.8191 4.043 6.6749 0.506 8.938 1.527 1.7966 0.313 12.138 0.784 14.863-0.655 6.1698 0.326 15.326-0.217 19.219 0.656 4.9735-1.703 16.866 0.656 21.538 0 0.8641-12.282 1.0674-7.426 0.9473-17.255-4.435 1.427-10.491 0.874-14.93 0.874-2.536-1.292-19.753 0-22.29 0-3.0727 0-22.211-0.087-27.016-0.437 0.0171 7.863-2.009 4.705-1.2675 15.29z" fill="url(#linearGradient132)" fill-rule="evenodd" stroke="#000" stroke-width=".40445"/>
 <path id="path46" d="m163.13 364.87c-2.668-2.668 2.289-62.117 2.289-69.682 0-7.428-0.544-27.534-1.173-62.482 7.15 0 12.673 0.57 19.48 1.335-1.797 4.918-4.692 55.678-4.692 62.967 0 7.094-1.988 64.459 1.035 67.482 0 1.854-12.259 0.38-16.939 0.38z" fill="url(#linearGradient142)" fill-rule="evenodd" stroke="#380000"/>
 <metadata>
  <rdf:RDF xmlns="http://web.resource.org/cc/" xmlns:dc="http://purl.org/dc/elements/1.1/" xmlns:rdf="http://www.w3.org/1999/02/22-rdf-syntax-ns#">
   <Work rdf:about="">
    <dc:title>Lemon SVG theme</dc:title>
    <dc:description/>
    <dc:subject>
     <rdf:Bag>
      <rdf:li>lemon_theme_icon</rdf:li>
      <rdf:li>icon</rdf:li>
     </rdf:Bag>
    </dc:subject>
    <dc:publisher>
     <Agent rdf:about="">
      <dc:title>Open Clip Art Library</dc:title>
     </Agent>
    </dc:publisher>
    <dc:creator>
     <Agent rdf:about="">
      <dc:title>Jose Hevia</dc:title>
     </Agent>
    </dc:creator>
    <dc:rights>
     <Agent rdf:about="">
      <dc:title/>
     </Agent>
    </dc:rights>
    <dc:date/>
    <dc:format>image/svg+xml</dc:format>
    <dc:type rdf:resource="http://purl.org/dc/dcmitype/StillImage"/>
    <license rdf:resource="Public Domain">
     <dc:date>1</dc:date>
    </license>
    <dc:language>en</dc:language>
   </Work>
   <License rdf:about="Public Domain">
    <permits rdf:resource="http://web.resource.org/cc/Reproduction"/>
    <permits rdf:resource="http://web.resource.org/cc/Distribution"/>
    <permits rdf:resource="http://web.resource.org/cc/DerivativeWorks"/>
   </License>
  </rdf:RDF>
 </metadata>
</svg>
