<?xml version="1.0" encoding="UTF-8"?>
<!-- Created with Inkscape (http://www.inkscape.org/) -->
<svg id="svg2" width="401.37" height="401.37" version="1.0" xmlns="http://www.w3.org/2000/svg" xmlns:cc="http://creativecommons.org/ns#" xmlns:dc="http://purl.org/dc/elements/1.1/" xmlns:rdf="http://www.w3.org/1999/02/22-rdf-syntax-ns#" xmlns:xlink="http://www.w3.org/1999/xlink">
 <defs id="defs4">
  <filter id="filter3957" color-interpolation-filters="sRGB">
   <feGaussianBlur id="feGaussianBlur3959" stdDeviation="5.2571429"/>
  </filter>
  <filter id="filter3239" color-interpolation-filters="sRGB">
   <feGaussianBlur id="feGaussianBlur3241" stdDeviation="5.2985541"/>
  </filter>
  <filter id="filter3249" color-interpolation-filters="sRGB">
   <feGaussianBlur id="feGaussianBlur3251" stdDeviation="5.2571429"/>
  </filter>
  <linearGradient id="linearGradient3022" x1="-485.71" x2="-221.36" y1="614.71" y2="332.36" gradientUnits="userSpaceOnUse">
   <stop id="stop3225" stop-color="#fff" offset="0"/>
   <stop id="stop3227" stop-color="#fff" stop-opacity="0" offset="1"/>
  </linearGradient>
  <radialGradient id="radialGradient3024" cx="-485.71" cy="332.36" r="262.86" gradientUnits="userSpaceOnUse">
   <stop id="stop3965" stop-color="#f0f7f9" offset="0"/>
   <stop id="stop3963" stop-color="#ccc" offset="1"/>
  </radialGradient>
 </defs>
 <metadata id="metadata7">
  <rdf:RDF>
   <cc:Work rdf:about="">
    <dc:format>image/svg+xml</dc:format>
    <dc:type rdf:resource="http://purl.org/dc/dcmitype/StillImage"/>
   </cc:Work>
  </rdf:RDF>
 </metadata>
 <g id="layer1" transform="translate(-277.65 -415.22)">
  <g id="g3001">
   <path id="path3243" transform="matrix(.72851 0 0 .72851 832.19 373.78)" d="m-222.86 332.36c0 145.17-117.69 262.86-262.86 262.86-145.17 0-262.86-117.69-262.86-262.86 0-145.17 117.69-262.86 262.86-262.86 145.17 0 262.86 117.69 262.86 262.86z" fill-rule="evenodd" filter="url(#filter3249)"/>
   <path id="path3951" transform="matrix(.72851 0 0 .72851 832.19 367.74)" d="m-222.86 332.36c0 145.17-117.69 262.86-262.86 262.86-145.17 0-262.86-117.69-262.86-262.86 0-145.17 117.69-262.86 262.86-262.86 145.17 0 262.86 117.69 262.86 262.86z" fill="#333" fill-rule="evenodd"/>
   <path id="path3949" transform="matrix(.67659 0 0 .67659 806.97 384.26)" d="m-222.86 332.36c0 145.17-117.69 262.86-262.86 262.86-145.17 0-262.86-117.69-262.86-262.86 0-145.17 117.69-262.86 262.86-262.86 145.17 0 262.86 117.69 262.86 262.86z" fill-rule="evenodd" filter="url(#filter3957)"/>
   <path id="path2451" transform="matrix(.65488 0 0 .65488 796.42 391.48)" d="m-222.86 332.36c0 145.17-117.69 262.86-262.86 262.86-145.17 0-262.86-117.69-262.86-262.86 0-145.17 117.69-262.86 262.86-262.86 145.17 0 262.86 117.69 262.86 262.86z" fill="none" filter="url(#filter3239)" stroke="url(#linearGradient3022)" stroke-linecap="round" stroke-width="4.1411"/>
   <path id="path2383" transform="matrix(.65488 0 0 .65488 796.42 391.48)" d="m-222.86 332.36c0 145.17-117.69 262.86-262.86 262.86-145.17 0-262.86-117.69-262.86-262.86 0-145.17 117.69-262.86 262.86-262.86 145.17 0 262.86 117.69 262.86 262.86z" fill="url(#radialGradient3024)" fill-rule="evenodd"/>
   <path id="path2385" d="m473.51 450.31 1.2084 21.318h7.2506l1.2084-21.318h-9.6675zm-9.7619 0.66087-4.0219 0.43428 2.5868 15.804 2.2092-0.22658-0.77414-16.012zm29.191 0-0.77417 16.012 2.2092 0.22658 2.5868-15.804-4.0218-0.43428zm-45.638 2.398-3.9652 0.83079 4.2295 15.464 2.1714-0.47205-2.4358-15.823zm62.084 0-2.4358 15.842 2.1714 0.45317 4.2106-15.445-3.9463-0.84968zm-78.209 4.0974-3.833 1.2462 5.7967 14.936 2.1336-0.69862-4.0974-15.483zm94.315 0-4.0785 15.502 2.1336 0.67975 5.7967-14.936-3.8519-1.2462zm-109.91 5.759-3.682 1.6427 7.3262 14.237 2.0392-0.90634-5.6834-14.973zm125.51 0-5.6646 14.992 2.0392 0.90634 7.3262-14.256-3.7008-1.6427zm-137.97 5.9478-8.3836 4.8338 11.707 17.862 6.2877-3.6253-9.6109-19.071zm150.45 0-9.6298 19.071 6.2877 3.6253 11.707-17.862-8.3647-4.8338zm-166.95 10.291-3.2666 2.3602 10.14 12.405 1.7938-1.3029-8.6668-13.463zm183.44 0-8.6668 13.482 1.8126 1.3028 10.14-12.405-3.2854-2.3791zm-196.48 10.291-3.0022 2.7001 11.367 11.272 1.6616-1.4728-10.026-12.5zm209.55 0.0189-10.026 12.481 1.6427 1.4917 11.386-11.272-3.0022-2.7001zm-221.45 11.593-2.719 3.0022 12.5 10.026 1.4917-1.6616-11.272-11.367zm233.34 0-11.272 11.386 1.4917 1.6427 12.481-10.026-2.7001-3.0022zm-243.97 12.783-2.3791 3.2666 13.463 8.6668 1.3217-1.8127-12.405-10.121zm254.6 0.0189-12.405 10.121 1.3028 1.8126 13.482-8.6668-2.3791-3.2666zm-262.44 11.367-4.8338 8.3836 19.071 9.6109 3.6253-6.2877-17.862-11.707zm270.26 0-17.862 11.707 3.6253 6.2877 19.071-9.6109-4.8338-8.3836zm-279.4 17.145-1.6427 3.7008 14.973 5.6834 0.90634-2.0392-14.237-7.345zm288.53 0.0189-14.237 7.3451 0.90634 2.0204 14.973-5.6646-1.6427-3.7009zm-294.69 15.426-1.2462 3.8519 15.483 4.0785 0.69862-2.1148-14.936-5.8156zm300.84 0.0189-14.917 5.8156 0.67975 2.1148 15.483-4.0785-1.2462-3.8519zm-305.36 15.993-0.83081 3.9463 15.823 2.4358 0.47205-2.1714-15.464-4.2107zm309.87 0.0189-15.464 4.2106 0.47204 2.1714 15.823-2.4358-0.83079-3.9463zm-312.68 16.371-0.41541 4.003 15.993 0.77416 0.24547-2.2092-15.823-2.5679zm315.5 0.0189-15.823 2.5679 0.24547 2.2092 15.993-0.77415-0.4154-4.003zm-316.57 13.765v9.6675l21.318-1.2084v-7.2506l-21.318-1.2084zm317.65 0-21.318 1.2084v7.2506l21.318 1.2084v-9.6675zm-301 18.636-15.993 0.77416 0.41541 4.0218 15.823-2.568-0.24547-2.228zm284.34 0.0189-0.24547 2.228 15.823 2.5679 0.4154-4.0218-15.993-0.77415zm-282.11 14.766-15.823 2.4358 0.83081 3.9652 15.464-4.2107-0.47205-2.1903zm279.89 0.0189-0.47204 2.1903 15.464 4.2107 0.83079-3.9652-15.823-2.4358zm-276.13 14.464-15.483 4.0785 1.2462 3.833 14.917-5.7967-0.67975-2.1148zm272.37 0.0189-0.69862 2.1148 14.936 5.7967 1.2462-3.833-15.483-4.0785zm-267.12 13.973-14.973 5.6834 1.6427 3.682 14.237-7.3262-0.90634-2.0392zm261.87 0.0189-0.90634 2.0392 14.237 7.3262 1.6427-3.682-14.973-5.6834zm-251.83 8.5346-19.071 9.6109 4.8338 8.3647 17.862-11.707-3.6253-6.2688zm241.78 0-3.6253 6.2688 17.862 11.707 4.8338-8.3647-19.071-9.6109zm-237.1 17.428-13.482 8.6668 2.3791 3.2666 12.405-10.14-1.3028-1.7938zm232.42 0.0189-1.3217 1.7938 12.405 10.14 2.3791-3.2666-13.463-8.6668zm-223.11 11.669-12.481 10.026 2.7001 3.0022 11.272-11.367-1.4917-1.6616zm213.78 0.0189-1.4916 1.6616 11.272 11.367 2.719-3.0022-12.5-10.026zm-203.28 10.63-11.386 11.291 3.0022 2.7001 10.026-12.5-1.6427-1.4917zm192.8 0.0189-1.6616 1.4917 10.026 12.5 3.0022-2.719-11.367-11.272zm-181.27 9.4976-10.14 12.405 3.2854 2.3602 8.6668-13.463-1.8127-1.3028zm169.71 0-1.7938 1.3217 8.6668 13.463 3.2666-2.3791-10.14-12.405zm-156.74 2.3791-11.707 17.843 8.3836 4.8338 9.6109-19.052-6.2877-3.6253zm143.79 0-6.2877 3.6253 9.6298 19.052 8.3647-4.8338-11.707-17.843zm-131.02 12.745-7.3262 14.237 3.7009 1.6427 5.6646-14.973-2.0392-0.90634zm118.24 0-2.0392 0.90634 5.6834 14.992 3.682-1.6427-7.3262-14.256zm-104.32 5.4758-5.7968 14.917 3.8519 1.2462 4.0785-15.483-2.1336-0.67974zm90.406 0-2.1336 0.67974 4.0974 15.502 3.833-1.2462-5.7967-14.936zm-48.81 2.0015-1.2084 21.318h9.6675l-1.2084-21.318h-7.2506zm-27.171 1.9826-4.2107 15.445 3.9463 0.84969 2.4358-15.842-2.1714-0.45317zm61.555 0-2.1714 0.45317 2.4358 15.842 3.9652-0.84969-4.2295-15.445zm-46.808 2.4546-2.5868 15.804 4.0218 0.4154 0.77417-15.993-2.2092-0.22658zm32.061 0-2.2092 0.22658 0.77415 15.993 4.0218-0.4154-2.5868-15.804z" fill-rule="evenodd"/>
   <g id="g2533" transform="matrix(1.3207 0 0 1.3207 -86.613 -130.49)">
    <path id="text3054" d="m336.17 567.46c-2.5519 0-4.3893-0.30589-5.5124-0.91768-1.1231-0.61178-1.6248-1.5841-1.5052-2.9171v-0.29735h3.6085v0.29735c-1e-5 0.73824 0.28907 1.2988 0.86723 1.6816 0.57815 0.38279 1.4254 0.57419 2.5419 0.57419 1.874 0 3.0502-0.32811 3.5287-0.98433 0.42529-0.58785 0.65789-1.9071 0.69777-3.9578-1.6082 0.6904-3.3094 1.0322-5.1037 1.0253-2.2595 0-3.871-0.32981-4.8346-0.98945-0.9636-0.65962-1.4454-1.7618-1.4454-3.3067v-0.55368c-1e-5 -1.497 0.60806-2.618 1.8242-3.3631 1.2161-0.74507 3.0469-1.1176 5.4925-1.1176 2.9904 2e-5 5.0073 0.41015 6.0507 1.2304 1.0433 0.82028 1.5583 2.4096 1.5451 4.7678v1.7328c-0.0133 2.7889-0.55159 4.6687-1.6148 5.6393-1.05 0.97064-3.0968 1.456-6.1404 1.456zm4.1069-10.387c-1e-5 -1.0868-0.26583-1.8268-0.79745-2.2198-0.53165-0.39303-1.5351-0.58955-3.0104-0.58957-1.369 2e-5 -2.3459 0.21534-2.9306 0.64596-0.58481 0.43065-0.87721 1.1518-0.8772 2.1635v0.55368c-1e-5 0.95698 0.29904 1.6474 0.89714 2.0712 0.59807 0.42381 1.5683 0.63571 2.9107 0.63571 1.2493 0 2.1963-0.23069 2.8409-0.6921 0.6446-0.46139 0.9669-1.133 0.96691-2.0148v-0.55368z"/>
    <path id="text3058" transform="scale(1.3944 .71715)" d="m374.7 775.58c-1e-5 -1.0008-0.19541-1.7133-0.58619-2.1374-0.39081-0.42414-1.0485-0.63622-1.973-0.63623-0.83878 1e-5 -1.475 0.25975-1.9087 0.7792-0.43369 0.51949-0.63623 1.2558-0.60763 2.2089v0.60049h-2.6164v-0.60049c-0.10485-1.6585 0.28833-2.9381 1.1795-3.8388 0.8912-0.90071 2.2137-1.3511 3.9675-1.3511 1.6871 2e-5 2.9691 0.38367 3.846 1.1509 0.87689 0.76731 1.3153 1.8896 1.3154 3.367v0.58619c-1e-5 1.7157-0.38604 2.9262-1.1581 3.6315-0.43846 0.40987-1.0676 0.69581-1.8872 0.85784 0.88642 0.16205 1.5393 0.44323 1.9587 0.84354 0.72438 0.67676 1.0866 1.9921 1.0866 3.9461v1.1152c-1e-5 1.7252-0.45991 3.0191-1.3797 3.8817-0.91981 0.86261-2.3043 1.2939-4.1534 1.2939-1.6871 0-2.9715-0.46704-3.8531-1.4011-0.88167-0.93409-1.2939-2.2637-1.2367-3.989v-0.60049h2.5878v0.60049c-0.0191 1.0771 0.17395 1.8753 0.57904 2.3948s1.0318 0.7792 1.8801 0.7792c1.0199 0 1.7729-0.27403 2.259-0.8221 0.4861-0.54806 0.72915-1.3892 0.72916-2.5235v-1.1152c-1e-5 -1.0103-0.24306-1.7991-0.72916-2.3662-0.48612-0.56712-1.1629-0.85068-2.0302-0.85069h-0.77205v-2.3162h0.27164c1.1247 1e-5 1.9444-0.23113 2.4592-0.69342 0.5147-0.46227 0.77205-1.1986 0.77206-2.2089v-0.5862z"/>
    <path id="path3256" d="m432.6 459.87c-2.5253 1e-5 -4.3679 0.29688-5.5508 0.8984-1.1829 0.60154-1.7024 1.5014-1.5562 2.7112v0.43316h3.6417v-0.43316c-0.0399-0.77241 0.20084-1.3001 0.70589-1.6043 0.50505-0.30417 1.417-0.46523 2.7594-0.46524 1.0367 1e-5 1.8808 0.17397 2.5187 0.52941 0.63795 0.35546 0.96256 0.83997 0.96257 1.4278-1e-5 1.0458-0.79549 2.2518-2.3904 3.6257-1.5949 1.374-4.4329 3.271-8.4867 5.7112v0.88236 0.88235h14.775v-1.5722h-11.182c4.0272-2.4676 6.8166-4.3483 8.3583-5.6471 1.7145-1.456 2.5668-2.7661 2.5668-3.9144-1e-5 -1.1347-0.60337-1.995-1.8128-2.5829-1.2095-0.59468-2.9843-0.88235-5.3102-0.88236zm-12.048 0.14439c-0.85063 0.43749-1.6378 0.77621-2.3423 1.0428-0.69114 0.25977-1.5678 0.54715-2.631 0.83423v1.7326c1.4221-0.37594 2.5963-0.74913 3.5134-1.0909l0.72194-0.27272v12.209h1.8289 1.8128v-14.455h-2.9038z"/>
    <path id="text3050" d="m428.05 641.81c2.5518 3e-5 4.3893 0.3059 5.5124 0.91768 1.1231 0.61178 1.6248 1.5841 1.5052 2.9171v0.29733h-3.6085v-0.29733c-2e-5 -0.73824-0.28909-1.2987-0.86723-1.6816-0.57817-0.38278-1.4255-0.57419-2.5419-0.57419-1.7012 0-2.811 0.36912-3.3294 1.1074-0.4519 0.6357-0.69778 1.8866-0.73765 3.7527 1.6082-0.62887 3.3626-0.94331 5.2632-0.94331 2.1398 0 3.6683 0.32983 4.5854 0.98944 0.91705 0.65963 1.3756 1.7619 1.3756 3.3067v0.55369c-2e-5 1.497-0.62137 2.618-1.864 3.3631-1.2427 0.74509-3.1068 1.1176-5.5922 1.1176-2.5784 0-4.4624-0.37593-5.652-1.1278-1.1896-0.75194-1.7843-1.9413-1.7843-3.5682v-1.7328c0.0133-3.4724 0.5117-5.7418 1.4952-6.8082 0.97023-1.0595 3.0503-1.5893 6.2401-1.5893zm-4.087 10.387c-1e-5 1.0868 0.26581 1.8268 0.79745 2.2198 0.53163 0.39305 1.5284 0.58958 2.9905 0.58958 1.369 0 2.3458-0.2153 2.9306-0.64594 0.58479-0.43065 0.87718-1.1518 0.8772-2.1635v-0.55368c-2e-5 -0.95697-0.29906-1.6474-0.89714-2.0712-0.5981-0.42379-1.5683-0.63567-2.9107-0.63571-1.2361 4e-5 -2.1764 0.23073-2.821 0.69211-0.64462 0.46142-0.96692 1.133-0.96691 2.0148v0.55368z"/>
    <path id="path3310" d="m376.46 472.72c-0.85062 0.43749-1.6378 0.79225-2.3422 1.0588-0.69114 0.25976-1.5678 0.53111-2.631 0.81819v1.7326c1.4221-0.37595 2.5963-0.73309 3.5134-1.0749l0.72193-0.27273v12.209h1.8289 1.8128v-14.471h-2.9038zm12.241 0c-0.85062 0.43749-1.6218 0.79225-2.3262 1.0588-0.69113 0.25976-1.5678 0.53111-2.631 0.81819v1.7326c1.4221-0.37595 2.5802-0.73309 3.4973-1.0749l0.72193-0.27273v12.209h1.8289 1.8289v-14.471h-2.9198z"/>
    <path id="path3318" d="m355.72 506.09c-2.5253 1e-5 -4.3828 0.31425-5.599 0.94652-1.2161 0.63231-1.8289 1.6074-1.8289 2.9198v6.8182c-1e-5 1.3261 0.63592 2.3464 1.9251 3.0642 1.2892 0.71774 3.1236 1.0749 5.5027 1.0749 2.4322 0 4.2976-0.35477 5.5669-1.0588 1.2693-0.70407 1.893-1.7268 1.8931-3.0802v-6.8182c-3e-5 -1.3671-0.57909-2.363-1.7487-2.9679-1.1696-0.60493-3.0797-0.89838-5.7113-0.89839zm-11.872 0.14438c-0.85063 0.43749-1.6218 0.79226-2.3262 1.0588-0.69113 0.25976-1.5678 0.5311-2.631 0.81818v1.7326c1.4221-0.37594 2.5963-0.73308 3.5134-1.0749l0.70589-0.28877v12.225h1.8449 1.8128v-14.471h-2.9198zm11.872 1.4439c1.3424 1e-5 2.3217 0.17397 2.9198 0.52941 0.59807 0.35546 0.89839 0.94209 0.8984 1.7487v6.8182c-2e-5 0.82027-0.31797 1.4498-0.96257 1.877-0.64462 0.42723-1.6063 0.62567-2.8556 0.62568-1.2892 0-2.2376-0.1995-2.8556-0.60963-0.61805-0.41014-0.9305-1.0386-0.93049-1.8931v-6.8182c-1e-5 -0.8476 0.29205-1.4458 0.85027-1.7808 0.55821-0.33493 1.527-0.49732 2.9358-0.49733z"/>
    <path id="text3283" transform="scale(1.3944 .71715)" d="m253.42 845.81c0.87689 0.19064 1.525 0.50995 1.9444 0.95792 0.72438 0.77207 1.0866 2.2638 1.0866 4.4751v-0.42892c-2e-5 1.8301-0.46945 3.2622-1.4083 4.2964-0.93887 1.0342-2.2423 1.5513-3.9103 1.5513-1.8015-1e-5 -3.1359-0.47658-4.0033-1.4297-0.86738-0.95316-1.3011-2.4258-1.3011-4.4179v0.42892c0-2.0684 0.40032-3.5267 1.201-4.375 0.49563-0.52422 1.2105-0.88166 2.1446-1.0723-0.76253-0.20968-1.3726-0.53375-1.8301-0.97222-0.80066-0.78157-1.201-2.0207-1.201-3.7173v0.40032c0-1.7633 0.43607-3.124 1.3082-4.0819 0.87213-0.9579 2.1136-1.4369 3.7245-1.4369 1.7538 2e-5 3.0334 0.44086 3.8388 1.3225 0.80541 0.88169 1.2081 2.2804 1.2081 4.1963v-0.40032c-1e-5 1.6966-0.36698 2.9405-1.1009 3.7316-0.42893 0.45753-0.99606 0.7816-1.7014 0.97222zm-2.2447-1.1295c0.82924 1e-5 1.4416-0.28594 1.8372-0.85784 0.39555-0.57188 0.59333-1.4536 0.59334-2.645v0.40032c-1e-5 -1.201-0.19064-2.066-0.57189-2.595-0.38127-0.52898-1.0008-0.79348-1.8587-0.7935-0.80066 2e-5 -1.4035 0.28358-1.8086 0.85069-0.40509 0.56715-0.60764 1.4131-0.60763 2.5378v-0.40032c-1e-5 1.1915 0.20015 2.0731 0.60049 2.645 0.39078 0.5719 0.99604 0.85785 1.8158 0.85784zm-0.0429 2.259c-0.97223 1e-5 -1.6633 0.29787-2.0731 0.89359-0.40986 0.59573-0.61479 1.5894-0.61479 2.981v-0.42893c0 1.5441 0.18825 2.5974 0.56475 3.1597 0.37649 0.56237 1.0842 0.84355 2.1232 0.84354 0.97221 1e-5 1.6656-0.30739 2.0803-0.92217 0.41462-0.61479 0.62193-1.6418 0.62194-3.0811v0.42893c-1e-5 -1.4964-0.19064-2.5163-0.5719-3.0596-0.37174-0.54329-1.0818-0.81494-2.1303-0.81495z"/>
    <path id="text3287" transform="scale(1.3944 .71715)" d="m270.41 899.39 6.7484-17.972h-7.7492v-2.2018h10.08v1.1009 1.1009l-5.9763 17.972h-3.1025z"/>
    <path id="text3291" transform="scale(1.3944 .71715)" d="m344.76 893.68c-1e-5 2.278-0.38366 3.8817-1.1509 4.8111-0.7673 0.92933-2.0898 1.394-3.9675 1.394-1.8587 0-3.1526-0.33837-3.8817-1.0151-0.72917-0.67674-1.1366-1.9111-1.2224-3.703v-0.60049h2.5878v0.60049c0.0572 0.84831 0.2645 1.4702 0.62193 1.8658s0.89835 0.59334 1.6228 0.59334c1.1057 0 1.8491-0.29309 2.2304-0.87929 0.38126-0.58618 0.57189-1.7276 0.5719-3.4242v-1.344c-1e-5 -1.2677-0.17396-2.1517-0.52186-2.6522-0.34791-0.50039-0.96508-0.7506-1.8515-0.75061-0.84831 1e-5 -1.4798 0.22639-1.8944 0.67913-0.41462 0.45276-0.6124 1.1319-0.59334 2.0374h-2.6736l0.18586-11.881h9.4363v2.2733h-7.0486l-0.10008 6.4195c0.44798-0.44797 0.81971-0.78158 1.1152-1.0008 0.6672-0.4861 1.4822-0.72916 2.4448-0.72917 1.525 1e-5 2.5878 0.43608 3.1883 1.3082 0.60048 0.87215 0.90073 2.4234 0.90074 4.6538v1.344z"/>
    <path id="text3295" transform="scale(1.3944 .71715)" d="m363.55 848.88h-7.2774v-1.0437-1.0437l6.2622-13.139h1.8158 1.8158v13.025h2.3162v2.2018h-2.3162v4.9469h-2.6164v-4.9469zm0-2.2018v-10.523l-4.9612 10.523h4.9612z"/>
    <path id="text3299" transform="scale(1.3944 .71715)" d="m368.06 709.68c-1e-5 1.6013-0.6148 3.4171-1.8444 5.4473-1.1057 1.811-3.1025 4.437-5.9906 7.8778h8.0208v2.2018h-10.594v-1.2296-1.2296c2.9071-3.4028 4.9326-6.0621 6.0764-7.9779 1.1438-1.9158 1.7157-3.6029 1.7157-5.0613 0-0.8197-0.22876-1.4774-0.68627-1.973-0.45752-0.49562-1.058-0.74344-1.8015-0.74346-0.96269 2e-5 -1.6251 0.21209-1.9873 0.63623-0.3622 0.42417-0.52901 1.1748-0.50041 2.2518v0.60049h-2.6164v-0.60049c-0.10485-1.6871 0.26688-2.95 1.1152-3.7888 0.84831-0.83875 2.178-1.2581 3.989-1.2582 1.668 2e-5 2.9357 0.41464 3.8031 1.2439 0.86736 0.81973 1.301 2.0207 1.3011 3.6029z"/>
    <path id="text3303" transform="scale(1.3944 .71715)" d="m339.99 678.33v-17.028l-0.51471 0.38603c-0.65768 0.4766-1.4965 0.977-2.5163 1.5012v-2.4162c0.76252-0.40031 1.3916-0.78157 1.8872-1.1438 0.50516-0.37171 1.0628-0.86259 1.6728-1.4726h2.0874v20.174h-1.3011-1.3154z"/>
   </g>
  </g>
 </g>
</svg>
